<?xml version="1.0" encoding="UTF-8" standalone="no"?>
<!DOCTYPE svg PUBLIC "-//W3C//DTD SVG 1.1//EN"
 "http://www.w3.org/Graphics/SVG/1.1/DTD/svg11.dtd">
<!-- Generated by graphviz version 2.26.3 (20100126.1600)
 -->
<!-- Title: UBWebKitUtils::validUrl Pages: 1 -->
<svg width="660pt" height="42pt"
 viewBox="0.00 0.00 660.00 42.00" xmlns="http://www.w3.org/2000/svg" xmlns:xlink="http://www.w3.org/1999/xlink">
<g id="graph1" class="graph" transform="scale(1 1) rotate(0) translate(4 38)">
<title>UBWebKitUtils::validUrl</title>
<polygon fill="white" stroke="white" points="-4,5 -4,-38 657,-38 657,5 -4,5"/>
<!-- Node1 -->
<g id="node1" class="node"><title>Node1</title>
<polygon fill="#bfbfbf" stroke="black" points="0,-6.5 0,-27.5 122,-27.5 122,-6.5 0,-6.5"/>
<text text-anchor="middle" x="61" y="-14.5" font-family="Helvetica,sans-Serif" font-size="10.00">UBWebKitUtils::validUrl</text>
</g>
<!-- Node2 -->
<g id="node3" class="node"><title>Node2</title>
<a xlink:href="../../d7/d97/class_u_b_web_kit_utils.html#af64751f853b57134a6bb890ba57a0b0a" target="_top" xlink:title="UBWebKitUtils::getUrls">
<polygon fill="white" stroke="black" points="158.5,-6.5 158.5,-27.5 279.5,-27.5 279.5,-6.5 158.5,-6.5"/>
<text text-anchor="middle" x="219" y="-14.5" font-family="Helvetica,sans-Serif" font-size="10.00">UBWebKitUtils::getUrls</text>
</a>
</g>
<!-- Node1&#45;&gt;Node2 -->
<g id="edge2" class="edge"><title>Node1&#45;&gt;Node2</title>
<path fill="none" stroke="midnightblue" d="M132.235,-17C140.951,-17 149.795,-17 158.336,-17"/>
<polygon fill="midnightblue" stroke="midnightblue" points="132.087,-13.5001 122.087,-17 132.087,-20.5001 132.087,-13.5001"/>
</g>
<!-- Node3 -->
<g id="node5" class="node"><title>Node3</title>
<a xlink:href="../../d7/d97/class_u_b_web_kit_utils.html#a1b70e4faa08389ff3b05f786d342e4b2" target="_top" xlink:title="UBWebKitUtils::objectsIn\lFrameByTag">
<polygon fill="white" stroke="black" points="316.5,-0 316.5,-34 445.5,-34 445.5,-0 316.5,-0"/>
<text text-anchor="start" x="324.5" y="-21" font-family="Helvetica,sans-Serif" font-size="10.00">UBWebKitUtils::objectsIn</text>
<text text-anchor="middle" x="381" y="-8" font-family="Helvetica,sans-Serif" font-size="10.00">FrameByTag</text>
</a>
</g>
<!-- Node2&#45;&gt;Node3 -->
<g id="edge4" class="edge"><title>Node2&#45;&gt;Node3</title>
<path fill="none" stroke="midnightblue" d="M289.982,-17C298.754,-17 307.684,-17 316.354,-17"/>
<polygon fill="midnightblue" stroke="midnightblue" points="289.784,-13.5001 279.784,-17 289.784,-20.5001 289.784,-13.5001"/>
</g>
<!-- Node4 -->
<g id="node7" class="node"><title>Node4</title>
<a xlink:href="../../d9/d3a/class_u_b_trap_web_page_content_controller.html#a723c26f80042de25a88dd7eea0783b64" target="_top" xlink:title="UBTrapWebPageContentController\l::updateTrapContentFromPage">
<polygon fill="white" stroke="black" points="482,-0 482,-34 652,-34 652,-0 482,-0"/>
<text text-anchor="start" x="490" y="-21" font-family="Helvetica,sans-Serif" font-size="10.00">UBTrapWebPageContentController</text>
<text text-anchor="middle" x="567" y="-8" font-family="Helvetica,sans-Serif" font-size="10.00">::updateTrapContentFromPage</text>
</a>
</g>
<!-- Node3&#45;&gt;Node4 -->
<g id="edge6" class="edge"><title>Node3&#45;&gt;Node4</title>
<path fill="none" stroke="midnightblue" d="M455.587,-17C464.256,-17 473.148,-17 481.944,-17"/>
<polygon fill="midnightblue" stroke="midnightblue" points="455.532,-13.5001 445.532,-17 455.532,-20.5001 455.532,-13.5001"/>
</g>
</g>
</svg>
