<?xml version="1.0" encoding="UTF-8" standalone="no"?>
<!DOCTYPE svg PUBLIC "-//W3C//DTD SVG 1.1//EN"
 "http://www.w3.org/Graphics/SVG/1.1/DTD/svg11.dtd">
<!-- Generated by graphviz version 2.26.3 (20100126.1600)
 -->
<!-- Title: UBWebKitUtils::getUrls Pages: 1 -->
<svg width="316pt" height="82pt"
 viewBox="0.00 0.00 316.00 82.00" xmlns="http://www.w3.org/2000/svg" xmlns:xlink="http://www.w3.org/1999/xlink">
<g id="graph1" class="graph" transform="scale(1 1) rotate(0) translate(4 78)">
<title>UBWebKitUtils::getUrls</title>
<polygon fill="white" stroke="white" points="-4,5 -4,-78 313,-78 313,5 -4,5"/>
<!-- Node1 -->
<g id="node1" class="node"><title>Node1</title>
<polygon fill="#bfbfbf" stroke="black" points="0.5,-23.5 0.5,-44.5 121.5,-44.5 121.5,-23.5 0.5,-23.5"/>
<text text-anchor="middle" x="61" y="-31.5" font-family="Helvetica,sans-Serif" font-size="10.00">UBWebKitUtils::getUrls</text>
</g>
<!-- Node2 -->
<g id="node3" class="node"><title>Node2</title>
<a xlink:href="../../d7/d97/class_u_b_web_kit_utils.html#a063c7cc9bbd04a13e7aa4b7f77acd5ff" target="_top" xlink:title="UBWebKitUtils::getArguments\lValues">
<polygon fill="white" stroke="black" points="158,-40 158,-74 308,-74 308,-40 158,-40"/>
<text text-anchor="start" x="166" y="-61" font-family="Helvetica,sans-Serif" font-size="10.00">UBWebKitUtils::getArguments</text>
<text text-anchor="middle" x="233" y="-48" font-family="Helvetica,sans-Serif" font-size="10.00">Values</text>
</a>
</g>
<!-- Node1&#45;&gt;Node2 -->
<g id="edge2" class="edge"><title>Node1&#45;&gt;Node2</title>
<path fill="none" stroke="midnightblue" d="M121.641,-42.1089C130.144,-43.246 139.01,-44.4315 147.864,-45.6155"/>
<polygon fill="midnightblue" stroke="midnightblue" points="147.459,-49.0925 157.835,-46.9489 148.387,-42.1542 147.459,-49.0925"/>
</g>
<!-- Node3 -->
<g id="node5" class="node"><title>Node3</title>
<a xlink:href="../../d7/d97/class_u_b_web_kit_utils.html#a53c7bdbc49de4fbf06340b82966c89f8" target="_top" xlink:title="UBWebKitUtils::validUrl">
<polygon fill="white" stroke="black" points="172,-0.5 172,-21.5 294,-21.5 294,-0.5 172,-0.5"/>
<text text-anchor="middle" x="233" y="-8.5" font-family="Helvetica,sans-Serif" font-size="10.00">UBWebKitUtils::validUrl</text>
</a>
</g>
<!-- Node1&#45;&gt;Node3 -->
<g id="edge4" class="edge"><title>Node1&#45;&gt;Node3</title>
<path fill="none" stroke="midnightblue" d="M121.641,-25.8911C134.589,-24.1596 148.379,-22.3155 161.686,-20.5361"/>
<polygon fill="midnightblue" stroke="midnightblue" points="162.298,-23.9855 171.746,-19.1909 161.37,-17.0473 162.298,-23.9855"/>
</g>
</g>
</svg>
