<?xml version="1.0" encoding="UTF-8" standalone="no"?>
<!DOCTYPE svg PUBLIC "-//W3C//DTD SVG 1.1//EN"
 "http://www.w3.org/Graphics/SVG/1.1/DTD/svg11.dtd">
<!-- Generated by graphviz version 2.26.3 (20100126.1600)
 -->
<!-- Title: merge_lib::LZWDecode::decode Pages: 1 -->
<svg width="290pt" height="42pt"
 viewBox="0.00 0.00 290.00 42.00" xmlns="http://www.w3.org/2000/svg" xmlns:xlink="http://www.w3.org/1999/xlink">
<g id="graph1" class="graph" transform="scale(1 1) rotate(0) translate(4 38)">
<title>merge_lib::LZWDecode::decode</title>
<polygon fill="white" stroke="white" points="-4,5 -4,-38 287,-38 287,5 -4,5"/>
<!-- Node1 -->
<g id="node1" class="node"><title>Node1</title>
<polygon fill="#bfbfbf" stroke="black" points="0.5,-0 0.5,-34 119.5,-34 119.5,-0 0.5,-0"/>
<text text-anchor="start" x="8.5" y="-21" font-family="Helvetica,sans-Serif" font-size="10.00">merge_lib::LZWDecode</text>
<text text-anchor="middle" x="60" y="-8" font-family="Helvetica,sans-Serif" font-size="10.00">::decode</text>
</g>
<!-- Node2 -->
<g id="node3" class="node"><title>Node2</title>
<a xlink:href="../../d5/d5f/classmerge__lib_1_1_filter_predictor.html#a1b9360122a5f9ad101a11614029da051" target="_top" xlink:title="merge_lib::FilterPredictor\l::decode">
<polygon fill="white" stroke="black" points="156.5,-0 156.5,-34 281.5,-34 281.5,-0 156.5,-0"/>
<text text-anchor="start" x="164.5" y="-21" font-family="Helvetica,sans-Serif" font-size="10.00">merge_lib::FilterPredictor</text>
<text text-anchor="middle" x="219" y="-8" font-family="Helvetica,sans-Serif" font-size="10.00">::decode</text>
</a>
</g>
<!-- Node1&#45;&gt;Node2 -->
<g id="edge2" class="edge"><title>Node1&#45;&gt;Node2</title>
<path fill="none" stroke="midnightblue" d="M119.658,-17C128.365,-17 137.412,-17 146.342,-17"/>
<polygon fill="midnightblue" stroke="midnightblue" points="146.352,-20.5001 156.352,-17 146.352,-13.5001 146.352,-20.5001"/>
</g>
</g>
</svg>
