<?xml version="1.0" encoding="UTF-8" standalone="no"?>
<!DOCTYPE svg PUBLIC "-//W3C//DTD SVG 1.1//EN"
 "http://www.w3.org/Graphics/SVG/1.1/DTD/svg11.dtd">
<!-- Generated by graphviz version 2.26.3 (20100126.1600)
 -->
<!-- Title: UBQuickTimeVideoEncoder::encodeFrame Pages: 1 -->
<svg width="492pt" height="94pt"
 viewBox="0.00 0.00 492.00 94.00" xmlns="http://www.w3.org/2000/svg" xmlns:xlink="http://www.w3.org/1999/xlink">
<g id="graph1" class="graph" transform="scale(1 1) rotate(0) translate(4 90)">
<title>UBQuickTimeVideoEncoder::encodeFrame</title>
<polygon fill="white" stroke="white" points="-4,5 -4,-90 489,-90 489,5 -4,5"/>
<!-- Node1 -->
<g id="node1" class="node"><title>Node1</title>
<polygon fill="#bfbfbf" stroke="black" points="0.5,-26 0.5,-60 139.5,-60 139.5,-26 0.5,-26"/>
<text text-anchor="start" x="8.5" y="-47" font-family="Helvetica,sans-Serif" font-size="10.00">UBQuickTimeVideoEncoder</text>
<text text-anchor="middle" x="70" y="-34" font-family="Helvetica,sans-Serif" font-size="10.00">::encodeFrame</text>
</g>
<!-- Node2 -->
<g id="node3" class="node"><title>Node2</title>
<a xlink:href="../../dc/d83/class_u_b_quick_time_file.html#aa499bdf13d0882700d43d966fa2115d0" target="_top" xlink:title="UBQuickTimeFile::newPixel\lBuffer">
<polygon fill="white" stroke="black" points="176,-52 176,-86 316,-86 316,-52 176,-52"/>
<text text-anchor="start" x="184" y="-73" font-family="Helvetica,sans-Serif" font-size="10.00">UBQuickTimeFile::newPixel</text>
<text text-anchor="middle" x="246" y="-60" font-family="Helvetica,sans-Serif" font-size="10.00">Buffer</text>
</a>
</g>
<!-- Node1&#45;&gt;Node2 -->
<g id="edge2" class="edge"><title>Node1&#45;&gt;Node2</title>
<path fill="none" stroke="midnightblue" d="M139.56,-53.2759C148.123,-54.5409 156.931,-55.842 165.638,-57.1283"/>
<polygon fill="midnightblue" stroke="midnightblue" points="165.388,-60.6293 175.792,-58.6284 166.411,-53.7045 165.388,-60.6293"/>
</g>
<!-- Node4 -->
<g id="node7" class="node"><title>Node4</title>
<a xlink:href="../../d1/dae/class_u_b_quick_time_video_encoder.html#a49e2eaf7d2a7d40d9016dbde8f7fc105" target="_top" xlink:title="UBQuickTimeVideoEncoder\l::setLastErrorMessage">
<polygon fill="white" stroke="black" points="176.5,-0 176.5,-34 315.5,-34 315.5,-0 176.5,-0"/>
<text text-anchor="start" x="184.5" y="-21" font-family="Helvetica,sans-Serif" font-size="10.00">UBQuickTimeVideoEncoder</text>
<text text-anchor="middle" x="246" y="-8" font-family="Helvetica,sans-Serif" font-size="10.00">::setLastErrorMessage</text>
</a>
</g>
<!-- Node1&#45;&gt;Node4 -->
<g id="edge6" class="edge"><title>Node1&#45;&gt;Node4</title>
<path fill="none" stroke="midnightblue" d="M139.56,-32.7241C148.356,-31.4247 157.41,-30.0872 166.347,-28.7669"/>
<polygon fill="midnightblue" stroke="midnightblue" points="166.988,-32.2103 176.369,-27.2864 165.965,-25.2855 166.988,-32.2103"/>
</g>
<!-- Node3 -->
<g id="node5" class="node"><title>Node3</title>
<a xlink:href="../../dc/d83/class_u_b_quick_time_file.html#abe29b90893d57ea509e8c50b86acbb95" target="_top" xlink:title="UBQuickTimeFile::setLast\lErrorMessage">
<polygon fill="white" stroke="black" points="352,-52 352,-86 484,-86 484,-52 352,-52"/>
<text text-anchor="start" x="360" y="-73" font-family="Helvetica,sans-Serif" font-size="10.00">UBQuickTimeFile::setLast</text>
<text text-anchor="middle" x="418" y="-60" font-family="Helvetica,sans-Serif" font-size="10.00">ErrorMessage</text>
</a>
</g>
<!-- Node2&#45;&gt;Node3 -->
<g id="edge4" class="edge"><title>Node2&#45;&gt;Node3</title>
<path fill="none" stroke="midnightblue" d="M316.455,-69C324.766,-69 333.277,-69 341.663,-69"/>
<polygon fill="midnightblue" stroke="midnightblue" points="341.81,-72.5001 351.81,-69 341.81,-65.5001 341.81,-72.5001"/>
</g>
</g>
</svg>
