<?xml version="1.0" encoding="UTF-8" standalone="no"?>
<!DOCTYPE svg PUBLIC "-//W3C//DTD SVG 1.1//EN"
 "http://www.w3.org/Graphics/SVG/1.1/DTD/svg11.dtd">
<!-- Generated by graphviz version 2.26.3 (20100126.1600)
 -->
<!-- Title: _updateAnnotFormColor Pages: 1 -->
<!--zoomable 82 -->
<svg id="main" version="1.1" xmlns="http://www.w3.org/2000/svg" xmlns:xlink="http://www.w3.org/1999/xlink" xml:space="preserve" onload="init(evt)">
        <defs>
                <circle id="rim" cx="0" cy="0" r="7"/>
                <circle id="rim2" cx="0" cy="0" r="3.5"/>
                <g id="zoomPlus">
                        <use xlink:href="#rim" fill="#404040">
                                <set attributeName="fill" to="#808080" begin="zoomplus.mouseover" end="zoomplus.mouseout"/>
                        </use>
                        <path d="M-4,0h8M0,-4v8" fill="none" stroke="white" stroke-width="1.5" pointer-events="none"/>
                </g>
                <g id="zoomMin">
                        <use xlink:href="#rim" fill="#404040">
                                <set attributeName="fill" to="#808080" begin="zoomminus.mouseover" end="zoomminus.mouseout"/>
                        </use>
                        <path d="M-4,0h8" fill="none" stroke="white" stroke-width="1.5" pointer-events="none"/>
                </g>
                <g id="dirArrow">
                        <path fill="none" stroke="white" stroke-width="1.5" d="M0,-3.0v7 M-2.5,-0.5L0,-3.0L2.5,-0.5"/>
                </g>
               <g id="resetDef">
                       <use xlink:href="#rim2" fill="#404040">
                               <set attributeName="fill" to="#808080" begin="reset.mouseover" end="reset.mouseout"/>
                       </use>
               </g>
        </defs>

<script type="text/javascript">
var viewWidth = 1256;
var viewHeight = 82;
var sectionId = 'dynsection-6';
</script>
<script xlink:href="../../svgpan.js"/>
<svg id="graph" class="graph">
<g id="viewport">
<title>_updateAnnotFormColor</title>
<polygon fill="white" stroke="white" points="-4,5 -4,-78 1253,-78 1253,5 -4,5"/>
<!-- Node1 -->
<g id="node1" class="node"><title>Node1</title>
<polygon fill="#bfbfbf" stroke="black" points="0,-23.5 0,-44.5 122,-44.5 122,-23.5 0,-23.5"/>
<text text-anchor="middle" x="61" y="-31.5" font-family="Helvetica,sans-Serif" font-size="10.00">_updateAnnotFormColor</text>
</g>
<!-- Node2 -->
<g id="node3" class="node"><title>Node2</title>
<a xlink:href="../../db/d32/classmerge__lib_1_1_page.html#ae56102e8ba506d0ee2f2b28ad8e2cbdf" target="_top" xlink:title="merge_lib::Page::_getMerged\lPageContent">
<polygon fill="white" stroke="black" points="158,-17 158,-51 302,-51 302,-17 158,-17"/>
<text text-anchor="start" x="166" y="-38" font-family="Helvetica,sans-Serif" font-size="10.00">merge_lib::Page::_getMerged</text>
<text text-anchor="middle" x="230" y="-25" font-family="Helvetica,sans-Serif" font-size="10.00">PageContent</text>
</a>
</g>
<!-- Node1&#45;&gt;Node2 -->
<g id="edge2" class="edge"><title>Node1&#45;&gt;Node2</title>
<path fill="none" stroke="midnightblue" d="M132.236,-34C140.71,-34 149.367,-34 157.854,-34"/>
<polygon fill="midnightblue" stroke="midnightblue" points="132.013,-30.5001 122.013,-34 132.013,-37.5001 132.013,-30.5001"/>
</g>
<!-- Node3 -->
<g id="node5" class="node"><title>Node3</title>
<a xlink:href="../../db/d32/classmerge__lib_1_1_page.html#ab743f0a5867701d8be79af076f02a6fd" target="_top" xlink:title="merge_lib::Page::merge">
<polygon fill="white" stroke="black" points="338,-23.5 338,-44.5 458,-44.5 458,-23.5 338,-23.5"/>
<text text-anchor="middle" x="398" y="-31.5" font-family="Helvetica,sans-Serif" font-size="10.00">merge_lib::Page::merge</text>
</a>
</g>
<!-- Node2&#45;&gt;Node3 -->
<g id="edge4" class="edge"><title>Node2&#45;&gt;Node3</title>
<path fill="none" stroke="midnightblue" d="M312.332,-34C320.972,-34 329.635,-34 337.956,-34"/>
<polygon fill="midnightblue" stroke="midnightblue" points="312.222,-30.5001 302.222,-34 312.222,-37.5001 312.222,-30.5001"/>
</g>
<!-- Node4 -->
<g id="node7" class="node"><title>Node4</title>
<a xlink:href="../../d8/d35/classmerge__lib_1_1_merger.html#a02c1f126ae84b8c2f00ed7adf411124a" target="_top" xlink:title="merge_lib::Merger:\l:merge">
<polygon fill="white" stroke="black" points="494,-17 494,-51 592,-51 592,-17 494,-17"/>
<text text-anchor="start" x="502" y="-38" font-family="Helvetica,sans-Serif" font-size="10.00">merge_lib::Merger:</text>
<text text-anchor="middle" x="543" y="-25" font-family="Helvetica,sans-Serif" font-size="10.00">:merge</text>
</a>
</g>
<!-- Node3&#45;&gt;Node4 -->
<g id="edge6" class="edge"><title>Node3&#45;&gt;Node4</title>
<path fill="none" stroke="midnightblue" d="M468.29,-34C476.897,-34 485.547,-34 493.752,-34"/>
<polygon fill="midnightblue" stroke="midnightblue" points="468.233,-30.5001 458.233,-34 468.233,-37.5001 468.233,-30.5001"/>
</g>
<!-- Node5 -->
<g id="node9" class="node"><title>Node5</title>
<a xlink:href="../../d6/d54/class_u_b_export_full_p_d_f.html#a2101b6fdc6ed273a6e2c062d5ce7e12c" target="_top" xlink:title="UBExportFullPDF::persists\lDocument">
<polygon fill="white" stroke="black" points="628,-17 628,-51 764,-51 764,-17 628,-17"/>
<text text-anchor="start" x="636" y="-38" font-family="Helvetica,sans-Serif" font-size="10.00">UBExportFullPDF::persists</text>
<text text-anchor="middle" x="696" y="-25" font-family="Helvetica,sans-Serif" font-size="10.00">Document</text>
</a>
</g>
<!-- Node4&#45;&gt;Node5 -->
<g id="edge8" class="edge"><title>Node4&#45;&gt;Node5</title>
<path fill="none" stroke="midnightblue" d="M602.302,-34C610.684,-34 619.355,-34 627.886,-34"/>
<polygon fill="midnightblue" stroke="midnightblue" points="602.252,-30.5001 592.252,-34 602.252,-37.5001 602.252,-30.5001"/>
</g>
<!-- Node6 -->
<g id="node11" class="node"><title>Node6</title>
<a xlink:href="../../da/d3c/class_u_b_document_publisher.html#ac6a7b91093faed242e6b99280adca16b" target="_top" xlink:title="UBDocumentPublisher\l::buildUbwFile">
<polygon fill="white" stroke="black" points="808,-40 808,-74 924,-74 924,-40 808,-40"/>
<text text-anchor="start" x="816" y="-61" font-family="Helvetica,sans-Serif" font-size="10.00">UBDocumentPublisher</text>
<text text-anchor="middle" x="866" y="-48" font-family="Helvetica,sans-Serif" font-size="10.00">::buildUbwFile</text>
</a>
</g>
<!-- Node5&#45;&gt;Node6 -->
<g id="edge10" class="edge"><title>Node5&#45;&gt;Node6</title>
<path fill="none" stroke="midnightblue" d="M774.107,-44.5675C785.492,-46.1078 797.043,-47.6705 807.936,-49.1443"/>
<polygon fill="midnightblue" stroke="midnightblue" points="774.545,-41.0949 764.166,-43.2225 773.606,-48.0317 774.545,-41.0949"/>
</g>
<!-- Node9 -->
<g id="node17" class="node"><title>Node9</title>
<a xlink:href="../../d6/d54/class_u_b_export_full_p_d_f.html#a8c0bd950f21f469ce17daa1add9a75bf" target="_top" xlink:title="UBExportFullPDF::persist">
<polygon fill="white" stroke="black" points="800.5,-0.5 800.5,-21.5 931.5,-21.5 931.5,-0.5 800.5,-0.5"/>
<text text-anchor="middle" x="866" y="-8.5" font-family="Helvetica,sans-Serif" font-size="10.00">UBExportFullPDF::persist</text>
</a>
</g>
<!-- Node5&#45;&gt;Node9 -->
<g id="edge16" class="edge"><title>Node5&#45;&gt;Node9</title>
<path fill="none" stroke="midnightblue" d="M774.307,-23.4055C783.002,-22.2292 791.79,-21.0401 800.306,-19.888"/>
<polygon fill="midnightblue" stroke="midnightblue" points="773.606,-19.9683 764.166,-24.7775 774.545,-26.9051 773.606,-19.9683"/>
</g>
<!-- Node7 -->
<g id="node13" class="node"><title>Node7</title>
<a xlink:href="../../da/d3c/class_u_b_document_publisher.html#adca541347ad643ceea47eeb3f48bc24a" target="_top" xlink:title="UBDocumentPublisher\l::publish">
<polygon fill="white" stroke="black" points="968,-40 968,-74 1084,-74 1084,-40 968,-40"/>
<text text-anchor="start" x="976" y="-61" font-family="Helvetica,sans-Serif" font-size="10.00">UBDocumentPublisher</text>
<text text-anchor="middle" x="1026" y="-48" font-family="Helvetica,sans-Serif" font-size="10.00">::publish</text>
</a>
</g>
<!-- Node6&#45;&gt;Node7 -->
<g id="edge12" class="edge"><title>Node6&#45;&gt;Node7</title>
<path fill="none" stroke="midnightblue" d="M934.343,-57C945.493,-57 956.951,-57 967.827,-57"/>
<polygon fill="midnightblue" stroke="midnightblue" points="934.216,-53.5001 924.216,-57 934.216,-60.5001 934.216,-53.5001"/>
</g>
<!-- Node8 -->
<g id="node15" class="node"><title>Node8</title>
<a xlink:href="../../de/d5f/class_u_b_web_publisher.html#acf1964056e5008ca164f974cc55e8b24" target="_top" xlink:title="UBWebPublisher::persist">
<polygon fill="white" stroke="black" points="1120.5,-46.5 1120.5,-67.5 1247.5,-67.5 1247.5,-46.5 1120.5,-46.5"/>
<text text-anchor="middle" x="1184" y="-54.5" font-family="Helvetica,sans-Serif" font-size="10.00">UBWebPublisher::persist</text>
</a>
</g>
<!-- Node7&#45;&gt;Node8 -->
<g id="edge14" class="edge"><title>Node7&#45;&gt;Node8</title>
<path fill="none" stroke="midnightblue" d="M1094.66,-57C1103.17,-57 1111.84,-57 1120.28,-57"/>
<polygon fill="midnightblue" stroke="midnightblue" points="1094.38,-53.5001 1084.38,-57 1094.38,-60.5001 1094.38,-53.5001"/>
</g>
</g>
</svg>
        <g id="navigator" transform="translate(0 0)" fill="#404254">
                <rect fill="#f2f5e9" fill-opacity="0.5" stroke="#606060" stroke-width=".5" x="0" y="0" width="60" height="60"/>
                <use id="zoomplus" xlink:href="#zoomPlus" x="17" y="9" onmousedown="handleZoom(evt,'in')"/>
                <use id="zoomminus" xlink:href="#zoomMin" x="42" y="9" onmousedown="handleZoom(evt,'out')"/>
                <use id="reset" xlink:href="#resetDef" x="30" y="36" onmousedown="handleReset()"/>
                <g id="arrowUp" xlink:href="#dirArrow" transform="translate(30 24)" onmousedown="handlePan(0,-1)">
                  <use xlink:href="#rim" fill="#404040">
                        <set attributeName="fill" to="#808080" begin="arrowUp.mouseover" end="arrowUp.mouseout"/>
                  </use>
                  <path fill="none" stroke="white" stroke-width="1.5" d="M0,-3.0v7 M-2.5,-0.5L0,-3.0L2.5,-0.5"/>
                </g>
                <g id="arrowRight" xlink:href="#dirArrow" transform="rotate(90) translate(36 -43)" onmousedown="handlePan(1,0)">
                  <use xlink:href="#rim" fill="#404040">
                        <set attributeName="fill" to="#808080" begin="arrowRight.mouseover" end="arrowRight.mouseout"/>
                  </use>
                  <path fill="none" stroke="white" stroke-width="1.5" d="M0,-3.0v7 M-2.5,-0.5L0,-3.0L2.5,-0.5"/>
                </g>
                <g id="arrowDown" xlink:href="#dirArrow" transform="rotate(180) translate(-30 -48)" onmousedown="handlePan(0,1)">
                  <use xlink:href="#rim" fill="#404040">
                        <set attributeName="fill" to="#808080" begin="arrowDown.mouseover" end="arrowDown.mouseout"/>
                  </use>
                  <path fill="none" stroke="white" stroke-width="1.5" d="M0,-3.0v7 M-2.5,-0.5L0,-3.0L2.5,-0.5"/>
                </g>
                <g id="arrowLeft" xlink:href="#dirArrow" transform="rotate(270) translate(-36 17)" onmousedown="handlePan(-1,0)">
                  <use xlink:href="#rim" fill="#404040">
                        <set attributeName="fill" to="#808080" begin="arrowLeft.mouseover" end="arrowLeft.mouseout"/>
                  </use>
                  <path fill="none" stroke="white" stroke-width="1.5" d="M0,-3.0v7 M-2.5,-0.5L0,-3.0L2.5,-0.5"/>
                </g>
        </g>
        <svg viewBox="0 0 15 15" width="100%" height="30px" preserveAspectRatio="xMaxYMin meet">
         <g id="arrow_out" transform="scale(0.3 0.3)">
          <a xlink:href="_page_8cpp_a26aba0d283e16a74263236b3db8a19db_icgraph_org.svg" target="_base">
           <rect id="button" ry="5" rx="5" y="6" x="6" height="38" width="38"
                fill="#f2f5e9" fill-opacity="0.5" stroke="#606060" stroke-width="1.0"/>
           <path id="arrow"
             d="M 11.500037,31.436501 C 11.940474,20.09759 22.043105,11.32322 32.158766,21.979434 L 37.068811,17.246167 C 37.068811,17.246167 37.088388,32 37.088388,32 L 22.160133,31.978069 C 22.160133,31.978069 26.997745,27.140456 26.997745,27.140456 C 18.528582,18.264221 13.291696,25.230495 11.500037,31.436501 z"
             style="fill:#404040;"/>
          </a>
         </g>
        </svg>
</svg>
