<?xml version="1.0" encoding="UTF-8" standalone="no"?>
<!DOCTYPE svg PUBLIC "-//W3C//DTD SVG 1.1//EN"
 "http://www.w3.org/Graphics/SVG/1.1/DTD/svg11.dtd">
<!-- Generated by graphviz version 2.26.3 (20100126.1600)
 -->
<!-- Title: UBTeacherGuideEditionWidget::onActiveSceneChanged Pages: 1 -->
<svg width="354pt" height="42pt"
 viewBox="0.00 0.00 354.00 42.00" xmlns="http://www.w3.org/2000/svg" xmlns:xlink="http://www.w3.org/1999/xlink">
<g id="graph1" class="graph" transform="scale(1 1) rotate(0) translate(4 38)">
<title>UBTeacherGuideEditionWidget::onActiveSceneChanged</title>
<polygon fill="white" stroke="white" points="-4,5 -4,-38 351,-38 351,5 -4,5"/>
<!-- Node1 -->
<g id="node1" class="node"><title>Node1</title>
<polygon fill="#bfbfbf" stroke="black" points="0,-0 0,-34 152,-34 152,-0 0,-0"/>
<text text-anchor="start" x="8" y="-21" font-family="Helvetica,sans-Serif" font-size="10.00">UBTeacherGuideEditionWidget</text>
<text text-anchor="middle" x="76" y="-8" font-family="Helvetica,sans-Serif" font-size="10.00">::onActiveSceneChanged</text>
</g>
<!-- Node2 -->
<g id="node3" class="node"><title>Node2</title>
<a xlink:href="../../de/d83/class_u_b_teacher_guide_edition_widget.html#a961038ebb2833cd7d8f80e559f7805c6" target="_top" xlink:title="UBTeacherGuideEditionWidget\l::UBTeacherGuideEditionWidget">
<polygon fill="white" stroke="black" points="188,-0 188,-34 346,-34 346,-0 188,-0"/>
<text text-anchor="start" x="196" y="-21" font-family="Helvetica,sans-Serif" font-size="10.00">UBTeacherGuideEditionWidget</text>
<text text-anchor="middle" x="267" y="-8" font-family="Helvetica,sans-Serif" font-size="10.00">::UBTeacherGuideEditionWidget</text>
</a>
</g>
<!-- Node1&#45;&gt;Node2 -->
<g id="edge2" class="edge"><title>Node1&#45;&gt;Node2</title>
<path fill="none" stroke="midnightblue" d="M162.316,-17C170.798,-17 179.377,-17 187.782,-17"/>
<polygon fill="midnightblue" stroke="midnightblue" points="162.037,-13.5001 152.037,-17 162.037,-20.5001 162.037,-13.5001"/>
</g>
</g>
</svg>
