<?xml version="1.0" encoding="UTF-8" standalone="no"?>
<!DOCTYPE svg PUBLIC "-//W3C//DTD SVG 1.1//EN"
 "http://www.w3.org/Graphics/SVG/1.1/DTD/svg11.dtd">
<!-- Generated by graphviz version 2.26.3 (20100126.1600)
 -->
<!-- Title: UBTeacherGuideEditionWidget::load Pages: 1 -->
<svg width="914pt" height="334pt"
 viewBox="0.00 0.00 914.00 334.00" xmlns="http://www.w3.org/2000/svg" xmlns:xlink="http://www.w3.org/1999/xlink">
<g id="graph1" class="graph" transform="scale(1 1) rotate(0) translate(4 330)">
<title>UBTeacherGuideEditionWidget::load</title>
<polygon fill="white" stroke="white" points="-4,5 -4,-330 911,-330 911,5 -4,5"/>
<!-- Node1 -->
<g id="node1" class="node"><title>Node1</title>
<polygon fill="#bfbfbf" stroke="black" points="0,-217 0,-251 152,-251 152,-217 0,-217"/>
<text text-anchor="start" x="8" y="-238" font-family="Helvetica,sans-Serif" font-size="10.00">UBTeacherGuideEditionWidget</text>
<text text-anchor="middle" x="76" y="-225" font-family="Helvetica,sans-Serif" font-size="10.00">::load</text>
</g>
<!-- Node2 -->
<g id="node3" class="node"><title>Node2</title>
<a xlink:href="../../d7/d62/class_u_b_board_controller.html#aa0f5ffcfa77210bbadb4c9650db4e074" target="_top" xlink:title="UBBoardController:\l:currentPage">
<polygon fill="white" stroke="black" points="213.5,-292 213.5,-326 314.5,-326 314.5,-292 213.5,-292"/>
<text text-anchor="start" x="221.5" y="-313" font-family="Helvetica,sans-Serif" font-size="10.00">UBBoardController:</text>
<text text-anchor="middle" x="264" y="-300" font-family="Helvetica,sans-Serif" font-size="10.00">:currentPage</text>
</a>
</g>
<!-- Node1&#45;&gt;Node2 -->
<g id="edge2" class="edge"><title>Node1&#45;&gt;Node2</title>
<path fill="none" stroke="midnightblue" d="M113.011,-251.113C134.682,-260.9 162.682,-273.15 188,-283 193.036,-284.959 198.289,-286.921 203.577,-288.84"/>
<polygon fill="midnightblue" stroke="midnightblue" points="202.502,-292.172 213.096,-292.237 204.855,-285.579 202.502,-292.172"/>
</g>
<!-- Node4 -->
<g id="node7" class="node"><title>Node4</title>
<a xlink:href="../../de/d83/class_u_b_teacher_guide_edition_widget.html#ab2043abd175667796af9df1a69a8a25b" target="_top" xlink:title="UBTeacherGuideEditionWidget\l::cleanData">
<polygon fill="white" stroke="black" points="188,-240 188,-274 340,-274 340,-240 188,-240"/>
<text text-anchor="start" x="196" y="-261" font-family="Helvetica,sans-Serif" font-size="10.00">UBTeacherGuideEditionWidget</text>
<text text-anchor="middle" x="264" y="-248" font-family="Helvetica,sans-Serif" font-size="10.00">::cleanData</text>
</a>
</g>
<!-- Node1&#45;&gt;Node4 -->
<g id="edge6" class="edge"><title>Node1&#45;&gt;Node4</title>
<path fill="none" stroke="midnightblue" d="M152.196,-243.322C160.609,-244.351 169.219,-245.404 177.744,-246.447"/>
<polygon fill="midnightblue" stroke="midnightblue" points="177.345,-249.925 187.696,-247.665 178.195,-242.976 177.345,-249.925"/>
</g>
<!-- Node7 -->
<g id="node13" class="node"><title>Node7</title>
<a xlink:href="../../d9/d07/class_u_b_t_g_adaptable_text.html#a11880e0e1a770203ba9a4e189e07226d" target="_top" xlink:title="UBTGAdaptableText:\l:setInitialText">
<polygon fill="white" stroke="black" points="616,-171 616,-205 726,-205 726,-171 616,-171"/>
<text text-anchor="start" x="624" y="-192" font-family="Helvetica,sans-Serif" font-size="10.00">UBTGAdaptableText:</text>
<text text-anchor="middle" x="671" y="-179" font-family="Helvetica,sans-Serif" font-size="10.00">:setInitialText</text>
</a>
</g>
<!-- Node1&#45;&gt;Node7 -->
<g id="edge12" class="edge"><title>Node1&#45;&gt;Node7</title>
<path fill="none" stroke="midnightblue" d="M152.264,-228.104C270.25,-218.982 494.963,-201.61 605.825,-193.039"/>
<polygon fill="midnightblue" stroke="midnightblue" points="606.168,-196.523 615.868,-192.262 605.628,-189.544 606.168,-196.523"/>
</g>
<!-- Node8 -->
<g id="node16" class="node"><title>Node8</title>
<a xlink:href="../../de/d83/class_u_b_teacher_guide_edition_widget.html#ae43e991167e2f4afb5415339bd59cbd4" target="_top" xlink:title="UBTeacherGuideEditionWidget\l::onAddItemClicked">
<polygon fill="white" stroke="black" points="188,-98 188,-132 340,-132 340,-98 188,-98"/>
<text text-anchor="start" x="196" y="-119" font-family="Helvetica,sans-Serif" font-size="10.00">UBTeacherGuideEditionWidget</text>
<text text-anchor="middle" x="264" y="-106" font-family="Helvetica,sans-Serif" font-size="10.00">::onAddItemClicked</text>
</a>
</g>
<!-- Node1&#45;&gt;Node8 -->
<g id="edge16" class="edge"><title>Node1&#45;&gt;Node8</title>
<path fill="none" stroke="midnightblue" d="M102.936,-216.95C135.883,-196.096 191.764,-160.724 228.275,-137.613"/>
<polygon fill="midnightblue" stroke="midnightblue" points="230.537,-140.324 237.114,-132.018 226.793,-134.409 230.537,-140.324"/>
</g>
<!-- Node3 -->
<g id="node5" class="node"><title>Node3</title>
<a xlink:href="../../db/d66/class_u_b_settings.html#a0d8ed418921c2b2d37851faeae00715d" target="_top" xlink:title="UBSettings::settings">
<polygon fill="white" stroke="black" points="407.5,-298.5 407.5,-319.5 514.5,-319.5 514.5,-298.5 407.5,-298.5"/>
<text text-anchor="middle" x="461" y="-306.5" font-family="Helvetica,sans-Serif" font-size="10.00">UBSettings::settings</text>
</a>
</g>
<!-- Node2&#45;&gt;Node3 -->
<g id="edge4" class="edge"><title>Node2&#45;&gt;Node3</title>
<path fill="none" stroke="midnightblue" d="M314.732,-309C339.904,-309 370.566,-309 397.302,-309"/>
<polygon fill="midnightblue" stroke="midnightblue" points="397.338,-312.5 407.338,-309 397.338,-305.5 397.338,-312.5"/>
</g>
<!-- Node5 -->
<g id="node9" class="node"><title>Node5</title>
<a xlink:href="../../d9/d07/class_u_b_t_g_adaptable_text.html#a8abbbc15740307ea5613445fdcc682a3" target="_top" xlink:title="UBTGAdaptableText:\l:resetText">
<polygon fill="white" stroke="black" points="616,-232 616,-266 726,-266 726,-232 616,-232"/>
<text text-anchor="start" x="624" y="-253" font-family="Helvetica,sans-Serif" font-size="10.00">UBTGAdaptableText:</text>
<text text-anchor="middle" x="671" y="-240" font-family="Helvetica,sans-Serif" font-size="10.00">:resetText</text>
</a>
</g>
<!-- Node4&#45;&gt;Node5 -->
<g id="edge8" class="edge"><title>Node4&#45;&gt;Node5</title>
<path fill="none" stroke="midnightblue" d="M340.076,-255.505C416.5,-254.002 533.044,-251.712 605.486,-250.288"/>
<polygon fill="midnightblue" stroke="midnightblue" points="605.915,-253.78 615.844,-250.084 605.777,-246.781 605.915,-253.78"/>
</g>
<!-- Node6 -->
<g id="node11" class="node"><title>Node6</title>
<a xlink:href="../../d9/d07/class_u_b_t_g_adaptable_text.html#ad1dc392b4eb83cd13e37b9f0e808a036" target="_top" xlink:title="UBTGAdaptableText:\l:onTextChanged">
<polygon fill="white" stroke="black" points="796,-201 796,-235 906,-235 906,-201 796,-201"/>
<text text-anchor="start" x="804" y="-222" font-family="Helvetica,sans-Serif" font-size="10.00">UBTGAdaptableText:</text>
<text text-anchor="middle" x="851" y="-209" font-family="Helvetica,sans-Serif" font-size="10.00">:onTextChanged</text>
</a>
</g>
<!-- Node5&#45;&gt;Node6 -->
<g id="edge10" class="edge"><title>Node5&#45;&gt;Node6</title>
<path fill="none" stroke="midnightblue" d="M726.475,-239.446C745.211,-236.219 766.3,-232.587 785.724,-229.242"/>
<polygon fill="midnightblue" stroke="midnightblue" points="786.448,-232.669 795.708,-227.522 785.26,-225.771 786.448,-232.669"/>
</g>
<!-- Node7&#45;&gt;Node6 -->
<g id="edge14" class="edge"><title>Node7&#45;&gt;Node6</title>
<path fill="none" stroke="midnightblue" d="M726.475,-197.246C745.211,-200.369 766.3,-203.883 785.724,-207.121"/>
<polygon fill="midnightblue" stroke="midnightblue" points="785.269,-210.593 795.708,-208.785 786.42,-203.688 785.269,-210.593"/>
</g>
<!-- Node9 -->
<g id="node18" class="node"><title>Node9</title>
<a xlink:href="../../da/d7c/class_u_b_t_g_action_widget.html#a52483fd0d2987ae7257aca6f77ccadc6" target="_top" xlink:title="UBTGActionWidget::initialize\lWithDom">
<polygon fill="white" stroke="black" points="389,-150 389,-184 533,-184 533,-150 389,-150"/>
<text text-anchor="start" x="397" y="-171" font-family="Helvetica,sans-Serif" font-size="10.00">UBTGActionWidget::initialize</text>
<text text-anchor="middle" x="461" y="-158" font-family="Helvetica,sans-Serif" font-size="10.00">WithDom</text>
</a>
</g>
<!-- Node8&#45;&gt;Node9 -->
<g id="edge18" class="edge"><title>Node8&#45;&gt;Node9</title>
<path fill="none" stroke="midnightblue" d="M328.505,-132.027C347.043,-136.92 367.412,-142.297 386.501,-147.335"/>
<polygon fill="midnightblue" stroke="midnightblue" points="385.788,-150.767 396.35,-149.935 387.574,-143.999 385.788,-150.767"/>
</g>
<!-- Node10 -->
<g id="node21" class="node"><title>Node10</title>
<a xlink:href="../../d1/d15/class_u_b_t_g_media_widget.html#a9567b139af4ad75e27e84641ae91562f" target="_top" xlink:title="UBTGMediaWidget::initialize\lWithDom">
<polygon fill="white" stroke="black" points="389.5,-98 389.5,-132 532.5,-132 532.5,-98 389.5,-98"/>
<text text-anchor="start" x="397.5" y="-119" font-family="Helvetica,sans-Serif" font-size="10.00">UBTGMediaWidget::initialize</text>
<text text-anchor="middle" x="461" y="-106" font-family="Helvetica,sans-Serif" font-size="10.00">WithDom</text>
</a>
</g>
<!-- Node8&#45;&gt;Node10 -->
<g id="edge22" class="edge"><title>Node8&#45;&gt;Node10</title>
<path fill="none" stroke="midnightblue" d="M340.165,-115C352.895,-115 366.15,-115 379.018,-115"/>
<polygon fill="midnightblue" stroke="midnightblue" points="379.237,-118.5 389.237,-115 379.237,-111.5 379.237,-118.5"/>
</g>
<!-- Node13 -->
<g id="node28" class="node"><title>Node13</title>
<a xlink:href="../../d7/dc9/class_u_b_t_g_url_widget.html#a50d95dbce4be9cb32d1b2d135bce657a" target="_top" xlink:title="UBTGUrlWidget::initialize\lWithDom">
<polygon fill="white" stroke="black" points="396.5,-46 396.5,-80 525.5,-80 525.5,-46 396.5,-46"/>
<text text-anchor="start" x="404.5" y="-67" font-family="Helvetica,sans-Serif" font-size="10.00">UBTGUrlWidget::initialize</text>
<text text-anchor="middle" x="461" y="-54" font-family="Helvetica,sans-Serif" font-size="10.00">WithDom</text>
</a>
</g>
<!-- Node8&#45;&gt;Node13 -->
<g id="edge30" class="edge"><title>Node8&#45;&gt;Node13</title>
<path fill="none" stroke="midnightblue" d="M328.505,-97.9733C347.043,-93.08 367.412,-87.7033 386.501,-82.6647"/>
<polygon fill="midnightblue" stroke="midnightblue" points="387.574,-86.0013 396.35,-80.065 385.788,-79.2332 387.574,-86.0013"/>
</g>
<!-- Node14 -->
<g id="node30" class="node"><title>Node14</title>
<a xlink:href="../../d1/d15/class_u_b_t_g_media_widget.html#aa8b56272815c9d98905b2d8fba00ac95" target="_top" xlink:title="UBTGMediaWidget::removeSource">
<polygon fill="white" stroke="black" points="376,-6.5 376,-27.5 546,-27.5 546,-6.5 376,-6.5"/>
<text text-anchor="middle" x="461" y="-14.5" font-family="Helvetica,sans-Serif" font-size="10.00">UBTGMediaWidget::removeSource</text>
</a>
</g>
<!-- Node8&#45;&gt;Node14 -->
<g id="edge32" class="edge"><title>Node8&#45;&gt;Node14</title>
<path fill="none" stroke="midnightblue" d="M283.639,-97.8287C304.967,-80.0572 340.729,-52.7387 376,-37 381.41,-34.5859 387.149,-32.4428 392.991,-30.5442"/>
<polygon fill="midnightblue" stroke="midnightblue" points="394.307,-33.8033 402.878,-27.5752 392.294,-27.0991 394.307,-33.8033"/>
</g>
<!-- Node9&#45;&gt;Node7 -->
<g id="edge20" class="edge"><title>Node9&#45;&gt;Node7</title>
<path fill="none" stroke="midnightblue" d="M533.27,-174.227C556.834,-176.583 582.841,-179.184 605.85,-181.485"/>
<polygon fill="midnightblue" stroke="midnightblue" points="605.552,-184.973 615.851,-182.485 606.249,-178.007 605.552,-184.973"/>
</g>
<!-- Node10&#45;&gt;Node7 -->
<g id="edge28" class="edge"><title>Node10&#45;&gt;Node7</title>
<path fill="none" stroke="midnightblue" d="M518.768,-132.136C527.91,-135.001 537.235,-138.015 546,-141 569.802,-149.106 595.87,-158.779 618.014,-167.237"/>
<polygon fill="midnightblue" stroke="midnightblue" points="616.976,-170.587 627.566,-170.902 619.484,-164.052 616.976,-170.587"/>
</g>
<!-- Node11 -->
<g id="node23" class="node"><title>Node11</title>
<a xlink:href="../../da/dc6/class_u_b_document_container.html#a859116555c2e46b6949e6e1cc613d754" target="_top" xlink:title="UBDocumentContainer\l::selectedDocument">
<polygon fill="white" stroke="black" points="612,-102 612,-136 730,-136 730,-102 612,-102"/>
<text text-anchor="start" x="620" y="-123" font-family="Helvetica,sans-Serif" font-size="10.00">UBDocumentContainer</text>
<text text-anchor="middle" x="671" y="-110" font-family="Helvetica,sans-Serif" font-size="10.00">::selectedDocument</text>
</a>
</g>
<!-- Node10&#45;&gt;Node11 -->
<g id="edge24" class="edge"><title>Node10&#45;&gt;Node11</title>
<path fill="none" stroke="midnightblue" d="M532.683,-116.365C555.042,-116.791 579.65,-117.26 601.833,-117.683"/>
<polygon fill="midnightblue" stroke="midnightblue" points="601.774,-121.182 611.838,-117.873 601.907,-114.183 601.774,-121.182"/>
</g>
<!-- Node12 -->
<g id="node25" class="node"><title>Node12</title>
<a xlink:href="../../de/db4/class_u_b_document_proxy.html#af57e2a3250ad6ae4c18fc5762e37f8a1" target="_top" xlink:title="UBDocumentProxy::persistencePath">
<polygon fill="white" stroke="black" points="582,-62.5 582,-83.5 760,-83.5 760,-62.5 582,-62.5"/>
<text text-anchor="middle" x="671" y="-70.5" font-family="Helvetica,sans-Serif" font-size="10.00">UBDocumentProxy::persistencePath</text>
</a>
</g>
<!-- Node10&#45;&gt;Node12 -->
<g id="edge26" class="edge"><title>Node10&#45;&gt;Node12</title>
<path fill="none" stroke="midnightblue" d="M532.683,-100.663C557.219,-95.7562 584.463,-90.3074 608.239,-85.5522"/>
<polygon fill="midnightblue" stroke="midnightblue" points="609.079,-88.9535 618.199,-83.5602 607.707,-82.0895 609.079,-88.9535"/>
</g>
<!-- Node15 -->
<g id="node32" class="node"><title>Node15</title>
<a xlink:href="../../d2/d7a/class_u_b_file_system_utils.html#aff7b8489683cdec07a5ad696571138f4" target="_top" xlink:title="UBFileSystemUtils:\l:deleteDir">
<polygon fill="white" stroke="black" points="619,-0 619,-34 723,-34 723,-0 619,-0"/>
<text text-anchor="start" x="627" y="-21" font-family="Helvetica,sans-Serif" font-size="10.00">UBFileSystemUtils:</text>
<text text-anchor="middle" x="671" y="-8" font-family="Helvetica,sans-Serif" font-size="10.00">:deleteDir</text>
</a>
</g>
<!-- Node14&#45;&gt;Node15 -->
<g id="edge34" class="edge"><title>Node14&#45;&gt;Node15</title>
<path fill="none" stroke="midnightblue" d="M546.112,-17C567.122,-17 589.234,-17 608.916,-17"/>
<polygon fill="midnightblue" stroke="midnightblue" points="608.968,-20.5001 618.968,-17 608.968,-13.5001 608.968,-20.5001"/>
</g>
</g>
</svg>
