<?xml version="1.0" encoding="UTF-8" standalone="no"?>
<!DOCTYPE svg PUBLIC "-//W3C//DTD SVG 1.1//EN"
 "http://www.w3.org/Graphics/SVG/1.1/DTD/svg11.dtd">
<!-- Generated by graphviz version 2.26.3 (20100126.1600)
 -->
<!-- Title: UBCreateLinkLabel::dropEvent Pages: 1 -->
<svg width="418pt" height="94pt"
 viewBox="0.00 0.00 418.00 94.00" xmlns="http://www.w3.org/2000/svg" xmlns:xlink="http://www.w3.org/1999/xlink">
<g id="graph1" class="graph" transform="scale(1 1) rotate(0) translate(4 90)">
<title>UBCreateLinkLabel::dropEvent</title>
<polygon fill="white" stroke="white" points="-4,5 -4,-90 415,-90 415,5 -4,5"/>
<!-- Node1 -->
<g id="node1" class="node"><title>Node1</title>
<polygon fill="#bfbfbf" stroke="black" points="0,-26 0,-60 104,-60 104,-26 0,-26"/>
<text text-anchor="start" x="8" y="-47" font-family="Helvetica,sans-Serif" font-size="10.00">UBCreateLinkLabel:</text>
<text text-anchor="middle" x="52" y="-34" font-family="Helvetica,sans-Serif" font-size="10.00">:dropEvent</text>
</g>
<!-- Node2 -->
<g id="node3" class="node"><title>Node2</title>
<a xlink:href="../../d2/d7a/class_u_b_file_system_utils.html#a272b08b8f8907091333982fb53a7aa2a" target="_top" xlink:title="UBFileSystemUtils:\l:mimeTypeFromFileName">
<polygon fill="white" stroke="black" points="140,-52 140,-86 270,-86 270,-52 140,-52"/>
<text text-anchor="start" x="148" y="-73" font-family="Helvetica,sans-Serif" font-size="10.00">UBFileSystemUtils:</text>
<text text-anchor="middle" x="205" y="-60" font-family="Helvetica,sans-Serif" font-size="10.00">:mimeTypeFromFileName</text>
</a>
</g>
<!-- Node1&#45;&gt;Node2 -->
<g id="edge2" class="edge"><title>Node1&#45;&gt;Node2</title>
<path fill="none" stroke="midnightblue" d="M104.226,-51.875C112.439,-53.2707 121.069,-54.7372 129.678,-56.2003"/>
<polygon fill="midnightblue" stroke="midnightblue" points="129.305,-59.6869 139.75,-57.9118 130.478,-52.7859 129.305,-59.6869"/>
</g>
<!-- Node4 -->
<g id="node7" class="node"><title>Node4</title>
<a xlink:href="../../d5/d5d/class_u_b_create_link_label.html#aed5d9df374491a899c0f18cac99fbaf4" target="_top" xlink:title="UBCreateLinkLabel:\l:droppedFile">
<polygon fill="white" stroke="black" points="153,-0 153,-34 257,-34 257,-0 153,-0"/>
<text text-anchor="start" x="161" y="-21" font-family="Helvetica,sans-Serif" font-size="10.00">UBCreateLinkLabel:</text>
<text text-anchor="middle" x="205" y="-8" font-family="Helvetica,sans-Serif" font-size="10.00">:droppedFile</text>
</a>
</g>
<!-- Node1&#45;&gt;Node4 -->
<g id="edge6" class="edge"><title>Node1&#45;&gt;Node4</title>
<path fill="none" stroke="midnightblue" d="M104.226,-34.125C116.59,-32.024 129.897,-29.7626 142.66,-27.5938"/>
<polygon fill="midnightblue" stroke="midnightblue" points="143.478,-31.0051 152.75,-25.8791 142.305,-24.104 143.478,-31.0051"/>
</g>
<!-- Node3 -->
<g id="node5" class="node"><title>Node3</title>
<a xlink:href="../../d2/d7a/class_u_b_file_system_utils.html#a8dcbcd889a2c79495470ff11f955c0b6" target="_top" xlink:title="UBFileSystemUtils:\l:extension">
<polygon fill="white" stroke="black" points="306,-52 306,-86 410,-86 410,-52 306,-52"/>
<text text-anchor="start" x="314" y="-73" font-family="Helvetica,sans-Serif" font-size="10.00">UBFileSystemUtils:</text>
<text text-anchor="middle" x="358" y="-60" font-family="Helvetica,sans-Serif" font-size="10.00">:extension</text>
</a>
</g>
<!-- Node2&#45;&gt;Node3 -->
<g id="edge4" class="edge"><title>Node2&#45;&gt;Node3</title>
<path fill="none" stroke="midnightblue" d="M270.33,-69C278.76,-69 287.375,-69 295.754,-69"/>
<polygon fill="midnightblue" stroke="midnightblue" points="295.829,-72.5001 305.829,-69 295.829,-65.5001 295.829,-72.5001"/>
</g>
</g>
</svg>
