<?xml version="1.0" encoding="UTF-8" standalone="no"?>
<!DOCTYPE svg PUBLIC "-//W3C//DTD SVG 1.1//EN"
 "http://www.w3.org/Graphics/SVG/1.1/DTD/svg11.dtd">
<!-- Generated by graphviz version 2.26.3 (20100126.1600)
 -->
<!-- Title: UBMediaWidget.cpp Pages: 1 -->
<!--zoomable 392 -->
<svg id="main" version="1.1" xmlns="http://www.w3.org/2000/svg" xmlns:xlink="http://www.w3.org/1999/xlink" xml:space="preserve" onload="init(evt)">
        <defs>
                <circle id="rim" cx="0" cy="0" r="7"/>
                <circle id="rim2" cx="0" cy="0" r="3.5"/>
                <g id="zoomPlus">
                        <use xlink:href="#rim" fill="#404040">
                                <set attributeName="fill" to="#808080" begin="zoomplus.mouseover" end="zoomplus.mouseout"/>
                        </use>
                        <path d="M-4,0h8M0,-4v8" fill="none" stroke="white" stroke-width="1.5" pointer-events="none"/>
                </g>
                <g id="zoomMin">
                        <use xlink:href="#rim" fill="#404040">
                                <set attributeName="fill" to="#808080" begin="zoomminus.mouseover" end="zoomminus.mouseout"/>
                        </use>
                        <path d="M-4,0h8" fill="none" stroke="white" stroke-width="1.5" pointer-events="none"/>
                </g>
                <g id="dirArrow">
                        <path fill="none" stroke="white" stroke-width="1.5" d="M0,-3.0v7 M-2.5,-0.5L0,-3.0L2.5,-0.5"/>
                </g>
               <g id="resetDef">
                       <use xlink:href="#rim2" fill="#404040">
                               <set attributeName="fill" to="#808080" begin="reset.mouseover" end="reset.mouseout"/>
                       </use>
               </g>
        </defs>

<script type="text/javascript">
var viewWidth = 1692;
var viewHeight = 392;
var sectionId = 'dynsection-0';
</script>
<script xlink:href="../../svgpan.js"/>
<svg id="graph" class="graph">
<g id="viewport">
<title>UBMediaWidget.cpp</title>
<polygon fill="white" stroke="white" points="-4,5 -4,-388 1689,-388 1689,5 -4,5"/>
<!-- Node1 -->
<g id="node1" class="node"><title>Node1</title>
<polygon fill="#bfbfbf" stroke="black" points="860.5,-362.5 860.5,-383.5 967.5,-383.5 967.5,-362.5 860.5,-362.5"/>
<text text-anchor="middle" x="914" y="-370.5" font-family="Helvetica,sans-Serif" font-size="10.00">UBMediaWidget.cpp</text>
</g>
<!-- Node2 -->
<g id="node3" class="node"><title>Node2</title>
<a xlink:href="../../db/d54/_u_b_application_8h.html" target="_top" xlink:title="core/UBApplication.h">
<polygon fill="white" stroke="black" points="485.5,-304.5 485.5,-325.5 594.5,-325.5 594.5,-304.5 485.5,-304.5"/>
<text text-anchor="middle" x="540" y="-312.5" font-family="Helvetica,sans-Serif" font-size="10.00">core/UBApplication.h</text>
</a>
</g>
<!-- Node1&#45;&gt;Node2 -->
<g id="edge2" class="edge"><title>Node1&#45;&gt;Node2</title>
<path fill="none" stroke="midnightblue" d="M860.415,-364.69C792.897,-354.219 676.962,-336.24 604.612,-325.02"/>
<polygon fill="midnightblue" stroke="midnightblue" points="605.12,-321.557 594.702,-323.483 604.047,-328.474 605.12,-321.557"/>
</g>
<!-- Node25 -->
<g id="node54" class="node"><title>Node25</title>
<a xlink:href="../../df/d99/_sankore-gh-pages_2src_2globals_2_u_b_globals_8h.html" target="_top" xlink:title="globals/UBGlobals.h">
<polygon fill="white" stroke="black" points="821,-304.5 821,-325.5 927,-325.5 927,-304.5 821,-304.5"/>
<text text-anchor="middle" x="874" y="-312.5" font-family="Helvetica,sans-Serif" font-size="10.00">globals/UBGlobals.h</text>
</a>
</g>
<!-- Node1&#45;&gt;Node25 -->
<g id="edge58" class="edge"><title>Node1&#45;&gt;Node25</title>
<path fill="none" stroke="midnightblue" d="M906.663,-362.362C901.194,-354.431 893.578,-343.389 887.076,-333.961"/>
<polygon fill="midnightblue" stroke="midnightblue" points="889.849,-331.816 881.29,-325.571 884.086,-335.79 889.849,-331.816"/>
</g>
<!-- Node28 -->
<g id="node60" class="node"><title>Node28</title>
<a xlink:href="../../d5/dc0/_u_b_media_widget_8h.html" target="_top" xlink:title="UBMediaWidget.h">
<polygon fill="white" stroke="black" points="1066,-174.5 1066,-195.5 1162,-195.5 1162,-174.5 1066,-174.5"/>
<text text-anchor="middle" x="1114" y="-182.5" font-family="Helvetica,sans-Serif" font-size="10.00">UBMediaWidget.h</text>
</a>
</g>
<!-- Node1&#45;&gt;Node28 -->
<g id="edge64" class="edge"><title>Node1&#45;&gt;Node28</title>
<path fill="none" stroke="midnightblue" d="M922.479,-362.275C933.699,-348.318 954.359,-323.422 974,-304 1013.47,-264.973 1063.96,-224.023 1092.26,-201.794"/>
<polygon fill="midnightblue" stroke="midnightblue" points="1094.56,-204.434 1100.29,-195.519 1090.26,-198.917 1094.56,-204.434"/>
</g>
<!-- Node38 -->
<g id="node86" class="node"><title>Node38</title>
<a xlink:href="../../db/d80/memcheck_8h.html" target="_top" xlink:title="core/memcheck.h">
<polygon fill="white" stroke="black" points="982.5,-304.5 982.5,-325.5 1077.5,-325.5 1077.5,-304.5 982.5,-304.5"/>
<text text-anchor="middle" x="1030" y="-312.5" font-family="Helvetica,sans-Serif" font-size="10.00">core/memcheck.h</text>
</a>
</g>
<!-- Node1&#45;&gt;Node38 -->
<g id="edge96" class="edge"><title>Node1&#45;&gt;Node38</title>
<path fill="none" stroke="midnightblue" d="M935.007,-362.497C953.043,-353.479 979.27,-340.365 999.599,-330.201"/>
<polygon fill="midnightblue" stroke="midnightblue" points="1001.38,-333.224 1008.76,-325.621 998.248,-326.963 1001.38,-333.224"/>
</g>
<!-- Node3 -->
<g id="node5" class="node"><title>Node3</title>
<polygon fill="white" stroke="#bfbfbf" points="152,-0.5 152,-21.5 194,-21.5 194,-0.5 152,-0.5"/>
<text text-anchor="middle" x="173" y="-8.5" font-family="Helvetica,sans-Serif" font-size="10.00">QtGui</text>
</g>
<!-- Node2&#45;&gt;Node3 -->
<g id="edge4" class="edge"><title>Node2&#45;&gt;Node3</title>
<path fill="none" stroke="midnightblue" d="M485.25,-313.386C347.967,-307.86 0,-284.08 0,-185 0,-185 0,-185 0,-127 0,-59.4796 92.0327,-28.7441 141.846,-17.0535"/>
<polygon fill="midnightblue" stroke="midnightblue" points="142.786,-20.4301 151.787,-14.8416 141.265,-13.5973 142.786,-20.4301"/>
</g>
<!-- Node4 -->
<g id="node7" class="node"><title>Node4</title>
<polygon fill="white" stroke="#bfbfbf" points="418.5,-239.5 418.5,-260.5 523.5,-260.5 523.5,-239.5 418.5,-239.5"/>
<text text-anchor="middle" x="471" y="-247.5" font-family="Helvetica,sans-Serif" font-size="10.00">qtsingleapplication.h</text>
</g>
<!-- Node2&#45;&gt;Node4 -->
<g id="edge6" class="edge"><title>Node2&#45;&gt;Node4</title>
<path fill="none" stroke="midnightblue" d="M528.606,-304.267C518.056,-294.328 502.17,-279.363 489.751,-267.664"/>
<polygon fill="midnightblue" stroke="midnightblue" points="491.861,-264.843 482.182,-260.534 487.061,-269.938 491.861,-264.843"/>
</g>
<!-- Node5 -->
<g id="node9" class="node"><title>Node5</title>
<a xlink:href="../../d1/d9d/_uniboard_sankore_transition_8h.html" target="_top" xlink:title="transition/UniboardSankore\lTransition.h">
<polygon fill="white" stroke="black" points="541,-233 541,-267 675,-267 675,-233 541,-233"/>
<text text-anchor="start" x="549" y="-254" font-family="Helvetica,sans-Serif" font-size="10.00">transition/UniboardSankore</text>
<text text-anchor="middle" x="608" y="-241" font-family="Helvetica,sans-Serif" font-size="10.00">Transition.h</text>
</a>
</g>
<!-- Node2&#45;&gt;Node5 -->
<g id="edge8" class="edge"><title>Node2&#45;&gt;Node5</title>
<path fill="none" stroke="midnightblue" d="M551.229,-304.267C559.811,-296.063 571.975,-284.436 582.843,-274.047"/>
<polygon fill="midnightblue" stroke="midnightblue" points="585.29,-276.55 590.1,-267.11 580.453,-271.49 585.29,-276.55"/>
</g>
<!-- Node6 -->
<g id="node11" class="node"><title>Node6</title>
<polygon fill="white" stroke="#bfbfbf" points="675.5,-174.5 675.5,-195.5 728.5,-195.5 728.5,-174.5 675.5,-174.5"/>
<text text-anchor="middle" x="702" y="-182.5" font-family="Helvetica,sans-Serif" font-size="10.00">QObject</text>
</g>
<!-- Node5&#45;&gt;Node6 -->
<g id="edge10" class="edge"><title>Node5&#45;&gt;Node6</title>
<path fill="none" stroke="midnightblue" d="M632.697,-232.922C646.709,-223.233 664.162,-211.165 678.048,-201.562"/>
<polygon fill="midnightblue" stroke="midnightblue" points="680.352,-204.225 686.586,-195.658 676.371,-198.467 680.352,-204.225"/>
</g>
<!-- Node7 -->
<g id="node13" class="node"><title>Node7</title>
<polygon fill="white" stroke="#bfbfbf" points="746,-174.5 746,-195.5 802,-195.5 802,-174.5 746,-174.5"/>
<text text-anchor="middle" x="774" y="-182.5" font-family="Helvetica,sans-Serif" font-size="10.00">QFileInfo</text>
</g>
<!-- Node5&#45;&gt;Node7 -->
<g id="edge12" class="edge"><title>Node5&#45;&gt;Node7</title>
<path fill="none" stroke="midnightblue" d="M651.615,-232.922C678.243,-222.495 711.912,-209.312 737.192,-199.413"/>
<polygon fill="midnightblue" stroke="midnightblue" points="738.745,-202.564 746.78,-195.658 736.192,-196.045 738.745,-202.564"/>
</g>
<!-- Node8 -->
<g id="node15" class="node"><title>Node8</title>
<polygon fill="white" stroke="#bfbfbf" points="486,-174.5 486,-195.5 540,-195.5 540,-174.5 486,-174.5"/>
<text text-anchor="middle" x="513" y="-182.5" font-family="Helvetica,sans-Serif" font-size="10.00">QThread</text>
</g>
<!-- Node5&#45;&gt;Node8 -->
<g id="edge14" class="edge"><title>Node5&#45;&gt;Node8</title>
<path fill="none" stroke="midnightblue" d="M583.04,-232.922C568.88,-223.233 551.24,-211.165 537.207,-201.562"/>
<polygon fill="midnightblue" stroke="midnightblue" points="538.807,-198.417 528.578,-195.658 534.854,-204.194 538.807,-198.417"/>
</g>
<!-- Node9 -->
<g id="node17" class="node"><title>Node9</title>
<a xlink:href="../../db/dc7/_u_b_update_dlg_8h.html" target="_top" xlink:title="gui/UBUpdateDlg.h">
<polygon fill="white" stroke="black" points="557.5,-174.5 557.5,-195.5 658.5,-195.5 658.5,-174.5 557.5,-174.5"/>
<text text-anchor="middle" x="608" y="-182.5" font-family="Helvetica,sans-Serif" font-size="10.00">gui/UBUpdateDlg.h</text>
</a>
</g>
<!-- Node5&#45;&gt;Node9 -->
<g id="edge16" class="edge"><title>Node5&#45;&gt;Node9</title>
<path fill="none" stroke="midnightblue" d="M608,-232.922C608,-224.67 608,-214.692 608,-205.982"/>
<polygon fill="midnightblue" stroke="midnightblue" points="611.5,-205.852 608,-195.852 604.5,-205.852 611.5,-205.852"/>
</g>
<!-- Node18 -->
<g id="node35" class="node"><title>Node18</title>
<a xlink:href="../../db/dea/_u_b_document_proxy_8h.html" target="_top" xlink:title="document/UBDocumentProxy.h">
<polygon fill="white" stroke="black" points="124.5,-174.5 124.5,-195.5 279.5,-195.5 279.5,-174.5 124.5,-174.5"/>
<text text-anchor="middle" x="202" y="-182.5" font-family="Helvetica,sans-Serif" font-size="10.00">document/UBDocumentProxy.h</text>
</a>
</g>
<!-- Node5&#45;&gt;Node18 -->
<g id="edge34" class="edge"><title>Node5&#45;&gt;Node18</title>
<path fill="none" stroke="midnightblue" d="M540.934,-233.766C537.92,-233.147 534.931,-232.555 532,-232 450.333,-216.546 356.429,-203.639 289.726,-195.285"/>
<polygon fill="midnightblue" stroke="midnightblue" points="290.029,-191.796 279.674,-194.035 289.165,-198.742 290.029,-191.796"/>
</g>
<!-- Node10 -->
<g id="node19" class="node"><title>Node10</title>
<polygon fill="white" stroke="#bfbfbf" points="452,-116.5 452,-137.5 504,-137.5 504,-116.5 452,-116.5"/>
<text text-anchor="middle" x="478" y="-124.5" font-family="Helvetica,sans-Serif" font-size="10.00">QDialog</text>
</g>
<!-- Node9&#45;&gt;Node10 -->
<g id="edge18" class="edge"><title>Node9&#45;&gt;Node10</title>
<path fill="none" stroke="midnightblue" d="M584.458,-174.497C563.971,-165.356 534.053,-152.008 511.146,-141.788"/>
<polygon fill="midnightblue" stroke="midnightblue" points="512.365,-138.499 501.806,-137.621 509.512,-144.892 512.365,-138.499"/>
</g>
<!-- Node11 -->
<g id="node21" class="node"><title>Node11</title>
<polygon fill="white" stroke="#bfbfbf" points="933.5,-116.5 933.5,-137.5 980.5,-137.5 980.5,-116.5 933.5,-116.5"/>
<text text-anchor="middle" x="957" y="-124.5" font-family="Helvetica,sans-Serif" font-size="10.00">QLabel</text>
</g>
<!-- Node9&#45;&gt;Node11 -->
<g id="edge20" class="edge"><title>Node9&#45;&gt;Node11</title>
<path fill="none" stroke="midnightblue" d="M658.504,-175.427C661.376,-174.932 664.223,-174.452 667,-174 778.035,-155.912 810.571,-164.424 923.318,-138.079"/>
<polygon fill="midnightblue" stroke="midnightblue" points="924.465,-141.404 933.384,-135.685 922.846,-134.594 924.465,-141.404"/>
</g>
<!-- Node12 -->
<g id="node23" class="node"><title>Node12</title>
<polygon fill="white" stroke="#bfbfbf" points="765.5,-58.5 765.5,-79.5 840.5,-79.5 840.5,-58.5 765.5,-58.5"/>
<text text-anchor="middle" x="803" y="-66.5" font-family="Helvetica,sans-Serif" font-size="10.00">QPushButton</text>
</g>
<!-- Node9&#45;&gt;Node12 -->
<g id="edge22" class="edge"><title>Node9&#45;&gt;Node12</title>
<path fill="none" stroke="midnightblue" d="M607.838,-174.28C608.214,-159.158 611.213,-131.666 627,-116 645.001,-98.1376 709.518,-84.2103 755.207,-76.2978"/>
<polygon fill="midnightblue" stroke="midnightblue" points="755.944,-79.7229 765.222,-74.6066 754.778,-72.8206 755.944,-79.7229"/>
</g>
<!-- Node13 -->
<g id="node25" class="node"><title>Node13</title>
<polygon fill="white" stroke="#bfbfbf" points="521.5,-116.5 521.5,-137.5 580.5,-137.5 580.5,-116.5 521.5,-116.5"/>
<text text-anchor="middle" x="551" y="-124.5" font-family="Helvetica,sans-Serif" font-size="10.00">QLineEdit</text>
</g>
<!-- Node9&#45;&gt;Node13 -->
<g id="edge24" class="edge"><title>Node9&#45;&gt;Node13</title>
<path fill="none" stroke="midnightblue" d="M597.545,-174.362C589.43,-166.104 577.999,-154.472 568.496,-144.803"/>
<polygon fill="midnightblue" stroke="midnightblue" points="570.894,-142.25 561.388,-137.571 565.901,-147.156 570.894,-142.25"/>
</g>
<!-- Node14 -->
<g id="node27" class="node"><title>Node14</title>
<polygon fill="white" stroke="#bfbfbf" points="336,-116.5 336,-137.5 434,-137.5 434,-116.5 336,-116.5"/>
<text text-anchor="middle" x="385" y="-124.5" font-family="Helvetica,sans-Serif" font-size="10.00">QDialogButtonBox</text>
</g>
<!-- Node9&#45;&gt;Node14 -->
<g id="edge26" class="edge"><title>Node9&#45;&gt;Node14</title>
<path fill="none" stroke="midnightblue" d="M567.616,-174.497C530.474,-164.836 475.263,-150.477 435.277,-140.077"/>
<polygon fill="midnightblue" stroke="midnightblue" points="436.018,-136.653 425.459,-137.523 434.256,-143.428 436.018,-136.653"/>
</g>
<!-- Node15 -->
<g id="node29" class="node"><title>Node15</title>
<polygon fill="white" stroke="#bfbfbf" points="635.5,-116.5 635.5,-137.5 712.5,-137.5 712.5,-116.5 635.5,-116.5"/>
<text text-anchor="middle" x="674" y="-124.5" font-family="Helvetica,sans-Serif" font-size="10.00">QVBoxLayout</text>
</g>
<!-- Node9&#45;&gt;Node15 -->
<g id="edge28" class="edge"><title>Node9&#45;&gt;Node15</title>
<path fill="none" stroke="midnightblue" d="M620.105,-174.362C629.688,-165.941 643.264,-154.011 654.393,-144.231"/>
<polygon fill="midnightblue" stroke="midnightblue" points="656.77,-146.801 661.971,-137.571 652.149,-141.543 656.77,-146.801"/>
</g>
<!-- Node16 -->
<g id="node31" class="node"><title>Node16</title>
<polygon fill="white" stroke="#bfbfbf" points="730,-116.5 730,-137.5 808,-137.5 808,-116.5 730,-116.5"/>
<text text-anchor="middle" x="769" y="-124.5" font-family="Helvetica,sans-Serif" font-size="10.00">QHBoxLayout</text>
</g>
<!-- Node9&#45;&gt;Node16 -->
<g id="edge30" class="edge"><title>Node9&#45;&gt;Node16</title>
<path fill="none" stroke="midnightblue" d="M637.156,-174.497C663.176,-165.123 701.479,-151.324 730.104,-141.012"/>
<polygon fill="midnightblue" stroke="midnightblue" points="731.568,-144.205 739.789,-137.523 729.195,-137.62 731.568,-144.205"/>
</g>
<!-- Node17 -->
<g id="node33" class="node"><title>Node17</title>
<polygon fill="white" stroke="#bfbfbf" points="825.5,-116.5 825.5,-137.5 916.5,-137.5 916.5,-116.5 825.5,-116.5"/>
<text text-anchor="middle" x="871" y="-124.5" font-family="Helvetica,sans-Serif" font-size="10.00">QStackedWidget</text>
</g>
<!-- Node9&#45;&gt;Node17 -->
<g id="edge32" class="edge"><title>Node9&#45;&gt;Node17</title>
<path fill="none" stroke="midnightblue" d="M655.627,-174.497C700.679,-164.561 768.273,-149.655 815.69,-139.198"/>
<polygon fill="midnightblue" stroke="midnightblue" points="816.475,-142.609 825.487,-137.037 814.968,-135.773 816.475,-142.609"/>
</g>
<!-- Node18&#45;&gt;Node3 -->
<g id="edge36" class="edge"><title>Node18&#45;&gt;Node3</title>
<path fill="none" stroke="midnightblue" d="M148.305,-174.469C111.76,-166.085 68.088,-153.25 57,-138 41.2433,-116.329 67.3727,-70.8666 79,-58 95.9258,-39.2702 122.014,-27.0571 142.416,-19.7877"/>
<polygon fill="midnightblue" stroke="midnightblue" points="143.538,-23.103 151.91,-16.6094 141.316,-16.4651 143.538,-23.103"/>
</g>
<!-- Node19 -->
<g id="node38" class="node"><title>Node19</title>
<a xlink:href="../../d7/dca/_u_b_string_utils_8h.html" target="_top" xlink:title="frameworks/UBStringUtils.h">
<polygon fill="white" stroke="black" points="65.5,-116.5 65.5,-137.5 204.5,-137.5 204.5,-116.5 65.5,-116.5"/>
<text text-anchor="middle" x="135" y="-124.5" font-family="Helvetica,sans-Serif" font-size="10.00">frameworks/UBStringUtils.h</text>
</a>
</g>
<!-- Node18&#45;&gt;Node19 -->
<g id="edge38" class="edge"><title>Node18&#45;&gt;Node19</title>
<path fill="none" stroke="midnightblue" d="M189.711,-174.362C179.983,-165.941 166.202,-154.011 154.905,-144.231"/>
<polygon fill="midnightblue" stroke="midnightblue" points="157.062,-141.469 147.211,-137.571 152.481,-146.762 157.062,-141.469"/>
</g>
<!-- Node21 -->
<g id="node42" class="node"><title>Node21</title>
<a xlink:href="../../d1/d92/_u_b_settings_8h.html" target="_top" xlink:title="core/UBSettings.h">
<polygon fill="white" stroke="black" points="221.5,-116.5 221.5,-137.5 318.5,-137.5 318.5,-116.5 221.5,-116.5"/>
<text text-anchor="middle" x="270" y="-124.5" font-family="Helvetica,sans-Serif" font-size="10.00">core/UBSettings.h</text>
</a>
</g>
<!-- Node18&#45;&gt;Node21 -->
<g id="edge42" class="edge"><title>Node18&#45;&gt;Node21</title>
<path fill="none" stroke="midnightblue" d="M214.472,-174.362C224.345,-165.941 238.333,-154.011 249.798,-144.231"/>
<polygon fill="midnightblue" stroke="midnightblue" points="252.27,-146.723 257.607,-137.571 247.727,-141.397 252.27,-146.723"/>
</g>
<!-- Node20 -->
<g id="node40" class="node"><title>Node20</title>
<polygon fill="white" stroke="#bfbfbf" points="88,-58.5 88,-79.5 136,-79.5 136,-58.5 88,-58.5"/>
<text text-anchor="middle" x="112" y="-66.5" font-family="Helvetica,sans-Serif" font-size="10.00">QtCore</text>
</g>
<!-- Node19&#45;&gt;Node20 -->
<g id="edge40" class="edge"><title>Node19&#45;&gt;Node20</title>
<path fill="none" stroke="midnightblue" d="M130.781,-116.362C127.766,-108.758 123.617,-98.294 119.985,-89.1349"/>
<polygon fill="midnightblue" stroke="midnightblue" points="123.132,-87.5762 116.192,-79.5707 116.625,-90.1567 123.132,-87.5762"/>
</g>
<!-- Node21&#45;&gt;Node3 -->
<g id="edge46" class="edge"><title>Node21&#45;&gt;Node3</title>
<path fill="none" stroke="midnightblue" d="M277.987,-116.31C287.657,-101.948 301.22,-76.1355 289,-58 270.159,-30.0369 231.538,-18.7048 204.039,-14.1161"/>
<polygon fill="midnightblue" stroke="midnightblue" points="204.509,-10.6478 194.109,-12.667 203.498,-17.5744 204.509,-10.6478"/>
</g>
<!-- Node21&#45;&gt;Node20 -->
<g id="edge44" class="edge"><title>Node21&#45;&gt;Node20</title>
<path fill="none" stroke="midnightblue" d="M241.387,-116.497C214.42,-106.597 174.009,-91.7628 145.539,-81.3117"/>
<polygon fill="midnightblue" stroke="midnightblue" points="146.602,-77.9736 136.008,-77.8131 144.19,-84.5449 146.602,-77.9736"/>
</g>
<!-- Node22 -->
<g id="node46" class="node"><title>Node22</title>
<polygon fill="white" stroke="#bfbfbf" points="336,-58.5 336,-79.5 400,-79.5 400,-58.5 336,-58.5"/>
<text text-anchor="middle" x="368" y="-66.5" font-family="Helvetica,sans-Serif" font-size="10.00">QtNetwork</text>
</g>
<!-- Node21&#45;&gt;Node22 -->
<g id="edge48" class="edge"><title>Node21&#45;&gt;Node22</title>
<path fill="none" stroke="midnightblue" d="M287.975,-116.362C302.894,-107.532 324.333,-94.844 341.266,-84.8224"/>
<polygon fill="midnightblue" stroke="midnightblue" points="343.316,-87.6759 350.139,-79.5707 339.751,-81.6519 343.316,-87.6759"/>
</g>
<!-- Node23 -->
<g id="node48" class="node"><title>Node23</title>
<a xlink:href="../../d6/dd0/_u_b_8h.html" target="_top" xlink:title="UB.h">
<polygon fill="white" stroke="black" points="153.5,-58.5 153.5,-79.5 192.5,-79.5 192.5,-58.5 153.5,-58.5"/>
<text text-anchor="middle" x="173" y="-66.5" font-family="Helvetica,sans-Serif" font-size="10.00">UB.h</text>
</a>
</g>
<!-- Node21&#45;&gt;Node23 -->
<g id="edge50" class="edge"><title>Node21&#45;&gt;Node23</title>
<path fill="none" stroke="midnightblue" d="M252.209,-116.362C237.441,-107.532 216.222,-94.844 199.462,-84.8224"/>
<polygon fill="midnightblue" stroke="midnightblue" points="201.057,-81.6987 190.679,-79.5707 197.465,-87.7066 201.057,-81.6987"/>
</g>
<!-- Node24 -->
<g id="node51" class="node"><title>Node24</title>
<a xlink:href="../../d3/d76/_u_b_setting_8h.html" target="_top" xlink:title="UBSetting.h">
<polygon fill="white" stroke="black" points="210,-58.5 210,-79.5 280,-79.5 280,-58.5 210,-58.5"/>
<text text-anchor="middle" x="245" y="-66.5" font-family="Helvetica,sans-Serif" font-size="10.00">UBSetting.h</text>
</a>
</g>
<!-- Node21&#45;&gt;Node24 -->
<g id="edge54" class="edge"><title>Node21&#45;&gt;Node24</title>
<path fill="none" stroke="midnightblue" d="M265.415,-116.362C262.102,-108.677 257.53,-98.0686 253.552,-88.8399"/>
<polygon fill="midnightblue" stroke="midnightblue" points="256.729,-87.3685 249.556,-79.5707 250.301,-90.1393 256.729,-87.3685"/>
</g>
<!-- Node23&#45;&gt;Node3 -->
<g id="edge52" class="edge"><title>Node23&#45;&gt;Node3</title>
<path fill="none" stroke="midnightblue" d="M173,-58.3619C173,-50.9219 173,-40.7427 173,-31.7276"/>
<polygon fill="midnightblue" stroke="midnightblue" points="176.5,-31.5706 173,-21.5707 169.5,-31.5707 176.5,-31.5706"/>
</g>
<!-- Node24&#45;&gt;Node3 -->
<g id="edge56" class="edge"><title>Node24&#45;&gt;Node3</title>
<path fill="none" stroke="midnightblue" d="M231.794,-58.3619C221.239,-49.859 206.242,-37.7785 194.037,-27.9466"/>
<polygon fill="midnightblue" stroke="midnightblue" points="196.105,-25.1183 186.122,-21.5707 191.714,-30.5696 196.105,-25.1183"/>
</g>
<!-- Node26 -->
<g id="node56" class="node"><title>Node26</title>
<polygon fill="white" stroke="#bfbfbf" points="803,-239.5 803,-260.5 853,-260.5 853,-239.5 803,-239.5"/>
<text text-anchor="middle" x="828" y="-247.5" font-family="Helvetica,sans-Serif" font-size="10.00">QString</text>
</g>
<!-- Node25&#45;&gt;Node26 -->
<g id="edge60" class="edge"><title>Node25&#45;&gt;Node26</title>
<path fill="none" stroke="midnightblue" d="M866.404,-304.267C859.639,-294.707 849.582,-280.496 841.457,-269.015"/>
<polygon fill="midnightblue" stroke="midnightblue" points="844.088,-266.675 835.455,-260.534 838.374,-270.718 844.088,-266.675"/>
</g>
<!-- Node27 -->
<g id="node58" class="node"><title>Node27</title>
<polygon fill="white" stroke="#bfbfbf" points="871,-239.5 871,-260.5 911,-260.5 911,-239.5 871,-239.5"/>
<text text-anchor="middle" x="891" y="-247.5" font-family="Helvetica,sans-Serif" font-size="10.00">QFile</text>
</g>
<!-- Node25&#45;&gt;Node27 -->
<g id="edge62" class="edge"><title>Node25&#45;&gt;Node27</title>
<path fill="none" stroke="midnightblue" d="M876.807,-304.267C879.208,-295.085 882.732,-281.615 885.667,-270.392"/>
<polygon fill="midnightblue" stroke="midnightblue" points="889.101,-271.094 888.245,-260.534 882.329,-269.323 889.101,-271.094"/>
</g>
<!-- Node28&#45;&gt;Node11 -->
<g id="edge72" class="edge"><title>Node28&#45;&gt;Node11</title>
<path fill="none" stroke="midnightblue" d="M1085.57,-174.497C1058.69,-164.568 1018.38,-149.675 990.077,-139.219"/>
<polygon fill="midnightblue" stroke="midnightblue" points="991.201,-135.904 980.608,-135.721 988.775,-142.47 991.201,-135.904"/>
</g>
<!-- Node28&#45;&gt;Node15 -->
<g id="edge68" class="edge"><title>Node28&#45;&gt;Node15</title>
<path fill="none" stroke="midnightblue" d="M1065.96,-180.985C993.532,-174.553 851.927,-160.505 722.729,-138.169"/>
<polygon fill="midnightblue" stroke="midnightblue" points="723.112,-134.683 712.659,-136.406 721.905,-141.578 723.112,-134.683"/>
</g>
<!-- Node28&#45;&gt;Node16 -->
<g id="edge70" class="edge"><title>Node28&#45;&gt;Node16</title>
<path fill="none" stroke="midnightblue" d="M1065.99,-178.432C1009.13,-170.425 911.359,-155.94 818.126,-138.127"/>
<polygon fill="midnightblue" stroke="midnightblue" points="818.728,-134.679 808.246,-136.224 817.404,-141.553 818.728,-134.679"/>
</g>
<!-- Node28&#45;&gt;Node17 -->
<g id="edge78" class="edge"><title>Node28&#45;&gt;Node17</title>
<path fill="none" stroke="midnightblue" d="M1069.99,-174.497C1029.26,-164.775 968.593,-150.294 924.957,-139.879"/>
<polygon fill="midnightblue" stroke="midnightblue" points="925.627,-136.44 915.088,-137.523 924.002,-143.249 925.627,-136.44"/>
</g>
<!-- Node29 -->
<g id="node62" class="node"><title>Node29</title>
<polygon fill="white" stroke="#bfbfbf" points="1234.5,-58.5 1234.5,-79.5 1289.5,-79.5 1289.5,-58.5 1234.5,-58.5"/>
<text text-anchor="middle" x="1262" y="-66.5" font-family="Helvetica,sans-Serif" font-size="10.00">QWidget</text>
</g>
<!-- Node28&#45;&gt;Node29 -->
<g id="edge66" class="edge"><title>Node28&#45;&gt;Node29</title>
<path fill="none" stroke="midnightblue" d="M1162.03,-179.137C1189.99,-173.26 1223.8,-161.504 1245,-138 1256.72,-125.006 1260.67,-105.228 1261.87,-90.1732"/>
<polygon fill="midnightblue" stroke="midnightblue" points="1265.38,-89.9162 1262.32,-79.7719 1258.39,-89.6083 1265.38,-89.9162"/>
</g>
<!-- Node30 -->
<g id="node67" class="node"><title>Node30</title>
<polygon fill="white" stroke="#bfbfbf" points="1291.5,-116.5 1291.5,-137.5 1340.5,-137.5 1340.5,-116.5 1291.5,-116.5"/>
<text text-anchor="middle" x="1316" y="-124.5" font-family="Helvetica,sans-Serif" font-size="10.00">QSlider</text>
</g>
<!-- Node28&#45;&gt;Node30 -->
<g id="edge74" class="edge"><title>Node28&#45;&gt;Node30</title>
<path fill="none" stroke="midnightblue" d="M1150.81,-174.481C1184.05,-164.975 1234.31,-150.583 1278,-138 1279.23,-137.647 1280.47,-137.288 1281.73,-136.924"/>
<polygon fill="midnightblue" stroke="midnightblue" points="1282.84,-140.248 1291.47,-134.11 1280.89,-133.523 1282.84,-140.248"/>
</g>
<!-- Node31 -->
<g id="node69" class="node"><title>Node31</title>
<polygon fill="white" stroke="#bfbfbf" points="1357.5,-116.5 1357.5,-137.5 1436.5,-137.5 1436.5,-116.5 1357.5,-116.5"/>
<text text-anchor="middle" x="1397" y="-124.5" font-family="Helvetica,sans-Serif" font-size="10.00">QMouseEvent</text>
</g>
<!-- Node28&#45;&gt;Node31 -->
<g id="edge76" class="edge"><title>Node28&#45;&gt;Node31</title>
<path fill="none" stroke="midnightblue" d="M1162.24,-175.76C1207.66,-166.967 1277.86,-153.145 1347.63,-138.259"/>
<polygon fill="midnightblue" stroke="midnightblue" points="1348.42,-141.668 1357.47,-136.152 1346.96,-134.823 1348.42,-141.668"/>
</g>
<!-- Node32 -->
<g id="node72" class="node"><title>Node32</title>
<polygon fill="white" stroke="#bfbfbf" points="1454,-116.5 1454,-137.5 1560,-137.5 1560,-116.5 1454,-116.5"/>
<text text-anchor="middle" x="1507" y="-124.5" font-family="Helvetica,sans-Serif" font-size="10.00">phonon/MediaObject</text>
</g>
<!-- Node28&#45;&gt;Node32 -->
<g id="edge80" class="edge"><title>Node28&#45;&gt;Node32</title>
<path fill="none" stroke="midnightblue" d="M1162.04,-178.708C1224.56,-170.402 1337.46,-155.005 1443.97,-138.127"/>
<polygon fill="midnightblue" stroke="midnightblue" points="1444.6,-141.57 1453.92,-136.542 1443.49,-134.658 1444.6,-141.57"/>
</g>
<!-- Node33 -->
<g id="node74" class="node"><title>Node33</title>
<polygon fill="white" stroke="#bfbfbf" points="1577.5,-116.5 1577.5,-137.5 1684.5,-137.5 1684.5,-116.5 1577.5,-116.5"/>
<text text-anchor="middle" x="1631" y="-124.5" font-family="Helvetica,sans-Serif" font-size="10.00">phonon/VideoWidget</text>
</g>
<!-- Node28&#45;&gt;Node33 -->
<g id="edge82" class="edge"><title>Node28&#45;&gt;Node33</title>
<path fill="none" stroke="midnightblue" d="M1162.29,-181.173C1243.75,-174.463 1413.83,-159.364 1567.19,-138.183"/>
<polygon fill="midnightblue" stroke="midnightblue" points="1567.85,-141.626 1577.27,-136.779 1566.88,-134.693 1567.85,-141.626"/>
</g>
<!-- Node34 -->
<g id="node76" class="node"><title>Node34</title>
<polygon fill="white" stroke="#bfbfbf" points="997.5,-116.5 997.5,-137.5 1102.5,-137.5 1102.5,-116.5 997.5,-116.5"/>
<text text-anchor="middle" x="1050" y="-124.5" font-family="Helvetica,sans-Serif" font-size="10.00">phonon/AudioOutput</text>
</g>
<!-- Node28&#45;&gt;Node34 -->
<g id="edge84" class="edge"><title>Node28&#45;&gt;Node34</title>
<path fill="none" stroke="midnightblue" d="M1102.26,-174.362C1093.06,-166.023 1080.06,-154.242 1069.33,-144.516"/>
<polygon fill="midnightblue" stroke="midnightblue" points="1071.42,-141.692 1061.66,-137.571 1066.72,-146.879 1071.42,-141.692"/>
</g>
<!-- Node35 -->
<g id="node78" class="node"><title>Node35</title>
<a xlink:href="../../d7/d31/_u_b_actionable_widget_8h.html" target="_top" xlink:title="UBActionableWidget.h">
<polygon fill="white" stroke="black" points="1120,-116.5 1120,-137.5 1236,-137.5 1236,-116.5 1120,-116.5"/>
<text text-anchor="middle" x="1178" y="-124.5" font-family="Helvetica,sans-Serif" font-size="10.00">UBActionableWidget.h</text>
</a>
</g>
<!-- Node28&#45;&gt;Node35 -->
<g id="edge86" class="edge"><title>Node28&#45;&gt;Node35</title>
<path fill="none" stroke="midnightblue" d="M1125.74,-174.362C1134.94,-166.023 1147.94,-154.242 1158.67,-144.516"/>
<polygon fill="midnightblue" stroke="midnightblue" points="1161.28,-146.879 1166.34,-137.571 1156.58,-141.692 1161.28,-146.879"/>
</g>
<!-- Node35&#45;&gt;Node12 -->
<g id="edge94" class="edge"><title>Node35&#45;&gt;Node12</title>
<path fill="none" stroke="midnightblue" d="M1119.9,-117.42C1116.89,-116.937 1113.91,-116.461 1111,-116 1019.08,-101.442 911.602,-85.2235 850.991,-76.1517"/>
<polygon fill="midnightblue" stroke="midnightblue" points="851.362,-72.6684 840.955,-74.6508 850.327,-79.5914 851.362,-72.6684"/>
</g>
<!-- Node35&#45;&gt;Node29 -->
<g id="edge88" class="edge"><title>Node35&#45;&gt;Node29</title>
<path fill="none" stroke="midnightblue" d="M1193.41,-116.362C1205.96,-107.696 1223.89,-95.3126 1238.27,-85.3819"/>
<polygon fill="midnightblue" stroke="midnightblue" points="1240.45,-88.1327 1246.69,-79.5707 1236.47,-82.3725 1240.45,-88.1327"/>
</g>
<!-- Node36 -->
<g id="node81" class="node"><title>Node36</title>
<polygon fill="white" stroke="#bfbfbf" points="1054,-58.5 1054,-79.5 1126,-79.5 1126,-58.5 1054,-58.5"/>
<text text-anchor="middle" x="1090" y="-66.5" font-family="Helvetica,sans-Serif" font-size="10.00">QPaintEvent</text>
</g>
<!-- Node35&#45;&gt;Node36 -->
<g id="edge90" class="edge"><title>Node35&#45;&gt;Node36</title>
<path fill="none" stroke="midnightblue" d="M1161.86,-116.362C1148.59,-107.614 1129.57,-95.0786 1114.43,-85.1015"/>
<polygon fill="midnightblue" stroke="midnightblue" points="1116.31,-82.1515 1106.04,-79.5707 1112.46,-87.9962 1116.31,-82.1515"/>
</g>
<!-- Node37 -->
<g id="node83" class="node"><title>Node37</title>
<polygon fill="white" stroke="#bfbfbf" points="1143.5,-58.5 1143.5,-79.5 1214.5,-79.5 1214.5,-58.5 1143.5,-58.5"/>
<text text-anchor="middle" x="1179" y="-66.5" font-family="Helvetica,sans-Serif" font-size="10.00">QToolButton</text>
</g>
<!-- Node35&#45;&gt;Node37 -->
<g id="edge92" class="edge"><title>Node35&#45;&gt;Node37</title>
<path fill="none" stroke="midnightblue" d="M1178.18,-116.362C1178.31,-108.922 1178.49,-98.7427 1178.64,-89.7276"/>
<polygon fill="midnightblue" stroke="midnightblue" points="1182.14,-89.6295 1178.82,-79.5707 1175.15,-89.5088 1182.14,-89.6295"/>
</g>
</g>
</svg>
        <g id="navigator" transform="translate(0 0)" fill="#404254">
                <rect fill="#f2f5e9" fill-opacity="0.5" stroke="#606060" stroke-width=".5" x="0" y="0" width="60" height="60"/>
                <use id="zoomplus" xlink:href="#zoomPlus" x="17" y="9" onmousedown="handleZoom(evt,'in')"/>
                <use id="zoomminus" xlink:href="#zoomMin" x="42" y="9" onmousedown="handleZoom(evt,'out')"/>
                <use id="reset" xlink:href="#resetDef" x="30" y="36" onmousedown="handleReset()"/>
                <g id="arrowUp" xlink:href="#dirArrow" transform="translate(30 24)" onmousedown="handlePan(0,-1)">
                  <use xlink:href="#rim" fill="#404040">
                        <set attributeName="fill" to="#808080" begin="arrowUp.mouseover" end="arrowUp.mouseout"/>
                  </use>
                  <path fill="none" stroke="white" stroke-width="1.5" d="M0,-3.0v7 M-2.5,-0.5L0,-3.0L2.5,-0.5"/>
                </g>
                <g id="arrowRight" xlink:href="#dirArrow" transform="rotate(90) translate(36 -43)" onmousedown="handlePan(1,0)">
                  <use xlink:href="#rim" fill="#404040">
                        <set attributeName="fill" to="#808080" begin="arrowRight.mouseover" end="arrowRight.mouseout"/>
                  </use>
                  <path fill="none" stroke="white" stroke-width="1.5" d="M0,-3.0v7 M-2.5,-0.5L0,-3.0L2.5,-0.5"/>
                </g>
                <g id="arrowDown" xlink:href="#dirArrow" transform="rotate(180) translate(-30 -48)" onmousedown="handlePan(0,1)">
                  <use xlink:href="#rim" fill="#404040">
                        <set attributeName="fill" to="#808080" begin="arrowDown.mouseover" end="arrowDown.mouseout"/>
                  </use>
                  <path fill="none" stroke="white" stroke-width="1.5" d="M0,-3.0v7 M-2.5,-0.5L0,-3.0L2.5,-0.5"/>
                </g>
                <g id="arrowLeft" xlink:href="#dirArrow" transform="rotate(270) translate(-36 17)" onmousedown="handlePan(-1,0)">
                  <use xlink:href="#rim" fill="#404040">
                        <set attributeName="fill" to="#808080" begin="arrowLeft.mouseover" end="arrowLeft.mouseout"/>
                  </use>
                  <path fill="none" stroke="white" stroke-width="1.5" d="M0,-3.0v7 M-2.5,-0.5L0,-3.0L2.5,-0.5"/>
                </g>
        </g>
        <svg viewBox="0 0 15 15" width="100%" height="30px" preserveAspectRatio="xMaxYMin meet">
         <g id="arrow_out" transform="scale(0.3 0.3)">
          <a xlink:href="_u_b_media_widget_8cpp__incl_org.svg" target="_base">
           <rect id="button" ry="5" rx="5" y="6" x="6" height="38" width="38"
                fill="#f2f5e9" fill-opacity="0.5" stroke="#606060" stroke-width="1.0"/>
           <path id="arrow"
             d="M 11.500037,31.436501 C 11.940474,20.09759 22.043105,11.32322 32.158766,21.979434 L 37.068811,17.246167 C 37.068811,17.246167 37.088388,32 37.088388,32 L 22.160133,31.978069 C 22.160133,31.978069 26.997745,27.140456 26.997745,27.140456 C 18.528582,18.264221 13.291696,25.230495 11.500037,31.436501 z"
             style="fill:#404040;"/>
          </a>
         </g>
        </svg>
</svg>
