<?xml version="1.0" encoding="UTF-8" standalone="no"?>
<!DOCTYPE svg PUBLIC "-//W3C//DTD SVG 1.1//EN"
 "http://www.w3.org/Graphics/SVG/1.1/DTD/svg11.dtd">
<!-- Generated by graphviz version 2.26.3 (20100126.1600)
 -->
<!-- Title: WBHistoryMenuModel::rowCount Pages: 1 -->
<!--zoomable 231 -->
<svg id="main" version="1.1" xmlns="http://www.w3.org/2000/svg" xmlns:xlink="http://www.w3.org/1999/xlink" xml:space="preserve" onload="init(evt)">
        <defs>
                <circle id="rim" cx="0" cy="0" r="7"/>
                <circle id="rim2" cx="0" cy="0" r="3.5"/>
                <g id="zoomPlus">
                        <use xlink:href="#rim" fill="#404040">
                                <set attributeName="fill" to="#808080" begin="zoomplus.mouseover" end="zoomplus.mouseout"/>
                        </use>
                        <path d="M-4,0h8M0,-4v8" fill="none" stroke="white" stroke-width="1.5" pointer-events="none"/>
                </g>
                <g id="zoomMin">
                        <use xlink:href="#rim" fill="#404040">
                                <set attributeName="fill" to="#808080" begin="zoomminus.mouseover" end="zoomminus.mouseout"/>
                        </use>
                        <path d="M-4,0h8" fill="none" stroke="white" stroke-width="1.5" pointer-events="none"/>
                </g>
                <g id="dirArrow">
                        <path fill="none" stroke="white" stroke-width="1.5" d="M0,-3.0v7 M-2.5,-0.5L0,-3.0L2.5,-0.5"/>
                </g>
               <g id="resetDef">
                       <use xlink:href="#rim2" fill="#404040">
                               <set attributeName="fill" to="#808080" begin="reset.mouseover" end="reset.mouseout"/>
                       </use>
               </g>
        </defs>

<script type="text/javascript">
var viewWidth = 1462;
var viewHeight = 231;
var sectionId = 'dynsection-11';
</script>
<script xlink:href="../../svgpan.js"/>
<svg id="graph" class="graph">
<g id="viewport">
<title>WBHistoryMenuModel::rowCount</title>
<polygon fill="white" stroke="white" points="-4,5 -4,-227 1459,-227 1459,5 -4,5"/>
<!-- Node1 -->
<g id="node1" class="node"><title>Node1</title>
<polygon fill="#bfbfbf" stroke="black" points="0.5,-2 0.5,-36 115.5,-36 115.5,-2 0.5,-2"/>
<text text-anchor="start" x="8.5" y="-23" font-family="Helvetica,sans-Serif" font-size="10.00">WBHistoryMenuModel</text>
<text text-anchor="middle" x="58" y="-10" font-family="Helvetica,sans-Serif" font-size="10.00">::rowCount</text>
</g>
<!-- Node2 -->
<g id="node3" class="node"><title>Node2</title>
<a xlink:href="../../d2/de6/class_w_b_history_menu_model.html#a73376f863cf4067e3a023f8ad0bb06dd" target="_top" xlink:title="WBHistoryMenuModel\l::bumpedRows">
<polygon fill="white" stroke="black" points="608.5,-45 608.5,-79 723.5,-79 723.5,-45 608.5,-45"/>
<text text-anchor="start" x="616.5" y="-66" font-family="Helvetica,sans-Serif" font-size="10.00">WBHistoryMenuModel</text>
<text text-anchor="middle" x="666" y="-53" font-family="Helvetica,sans-Serif" font-size="10.00">::bumpedRows</text>
</a>
</g>
<!-- Node1&#45;&gt;Node2 -->
<g id="edge2" class="edge"><title>Node1&#45;&gt;Node2</title>
<path fill="none" stroke="midnightblue" d="M115.867,-16.1217C211.486,-12.4091 408.185,-9.18625 572,-35 582.915,-36.72 594.355,-39.3103 605.348,-42.2174"/>
<polygon fill="midnightblue" stroke="midnightblue" points="604.72,-45.6746 615.29,-44.9602 606.581,-38.9267 604.72,-45.6746"/>
</g>
<!-- Node8 -->
<g id="node17" class="node"><title>Node8</title>
<a xlink:href="../../d2/de6/class_w_b_history_menu_model.html#abd393feb20688f50da497bed2c9607f4" target="_top" xlink:title="WBHistoryMenuModel\l::index">
<polygon fill="white" stroke="black" points="152.5,-107 152.5,-141 267.5,-141 267.5,-107 152.5,-107"/>
<text text-anchor="start" x="160.5" y="-128" font-family="Helvetica,sans-Serif" font-size="10.00">WBHistoryMenuModel</text>
<text text-anchor="middle" x="210" y="-115" font-family="Helvetica,sans-Serif" font-size="10.00">::index</text>
</a>
</g>
<!-- Node1&#45;&gt;Node8 -->
<g id="edge18" class="edge"><title>Node1&#45;&gt;Node8</title>
<path fill="none" stroke="midnightblue" d="M82.7597,-36.1038C108.375,-53.7986 148.527,-81.5352 176.865,-101.111"/>
<polygon fill="midnightblue" stroke="midnightblue" points="175.034,-104.1 185.251,-106.904 179.012,-98.3401 175.034,-104.1"/>
</g>
<!-- Node10 -->
<g id="node22" class="node"><title>Node10</title>
<a xlink:href="../../d2/de6/class_w_b_history_menu_model.html#aad8819cb25e3283e30144bf0a5b46768" target="_top" xlink:title="WBHistoryMenuModel\l::mapToSource">
<polygon fill="white" stroke="black" points="456.5,-44 456.5,-78 571.5,-78 571.5,-44 456.5,-44"/>
<text text-anchor="start" x="464.5" y="-65" font-family="Helvetica,sans-Serif" font-size="10.00">WBHistoryMenuModel</text>
<text text-anchor="middle" x="514" y="-52" font-family="Helvetica,sans-Serif" font-size="10.00">::mapToSource</text>
</a>
</g>
<!-- Node1&#45;&gt;Node10 -->
<g id="edge42" class="edge"><title>Node1&#45;&gt;Node10</title>
<path fill="none" stroke="midnightblue" d="M115.753,-24.3193C200.096,-32.0878 356.654,-46.5076 446.299,-54.7644"/>
<polygon fill="midnightblue" stroke="midnightblue" points="446.079,-58.2588 456.357,-55.6908 446.721,-51.2883 446.079,-58.2588"/>
</g>
<!-- Node3 -->
<g id="node5" class="node"><title>Node3</title>
<a xlink:href="../../df/de6/class_w_b_history_tree_model.html#abaff08dce3fe3a17296825854001bc44" target="_top" xlink:title="WBHistoryTreeModel\l::index">
<polygon fill="white" stroke="black" points="760,-106 760,-140 870,-140 870,-106 760,-106"/>
<text text-anchor="start" x="768" y="-127" font-family="Helvetica,sans-Serif" font-size="10.00">WBHistoryTreeModel</text>
<text text-anchor="middle" x="815" y="-114" font-family="Helvetica,sans-Serif" font-size="10.00">::index</text>
</a>
</g>
<!-- Node2&#45;&gt;Node3 -->
<g id="edge4" class="edge"><title>Node2&#45;&gt;Node3</title>
<path fill="none" stroke="midnightblue" d="M707.901,-79.1542C725.346,-86.2962 745.762,-94.6542 764.063,-102.146"/>
<polygon fill="midnightblue" stroke="midnightblue" points="762.833,-105.425 773.413,-105.975 765.485,-98.9466 762.833,-105.425"/>
</g>
<!-- Node7 -->
<g id="node13" class="node"><title>Node7</title>
<a xlink:href="../../df/de6/class_w_b_history_tree_model.html#ac5cf4ae4eedb64e2240158fc8f92a7b9" target="_top" xlink:title="WBHistoryTreeModel\l::rowCount">
<polygon fill="white" stroke="black" points="1344,-67 1344,-101 1454,-101 1454,-67 1344,-67"/>
<text text-anchor="start" x="1352" y="-88" font-family="Helvetica,sans-Serif" font-size="10.00">WBHistoryTreeModel</text>
<text text-anchor="middle" x="1399" y="-75" font-family="Helvetica,sans-Serif" font-size="10.00">::rowCount</text>
</a>
</g>
<!-- Node2&#45;&gt;Node7 -->
<g id="edge16" class="edge"><title>Node2&#45;&gt;Node7</title>
<path fill="none" stroke="midnightblue" d="M723.657,-62C783.122,-62 878.543,-62 961,-62 961,-62 961,-62 1107,-62 1185.21,-62 1274.88,-69.9458 1333.99,-76.2869"/>
<polygon fill="midnightblue" stroke="midnightblue" points="1333.61,-79.7664 1343.93,-77.3694 1334.37,-72.8075 1333.61,-79.7664"/>
</g>
<!-- Node4 -->
<g id="node7" class="node"><title>Node4</title>
<a xlink:href="../../df/de6/class_w_b_history_tree_model.html#a7fdeda2fc11b465e1c6811d6c6df7eeb" target="_top" xlink:title="WBHistoryTreeModel\l::columnCount">
<polygon fill="white" stroke="black" points="906,-133 906,-167 1016,-167 1016,-133 906,-133"/>
<text text-anchor="start" x="914" y="-154" font-family="Helvetica,sans-Serif" font-size="10.00">WBHistoryTreeModel</text>
<text text-anchor="middle" x="961" y="-141" font-family="Helvetica,sans-Serif" font-size="10.00">::columnCount</text>
</a>
</g>
<!-- Node3&#45;&gt;Node4 -->
<g id="edge6" class="edge"><title>Node3&#45;&gt;Node4</title>
<path fill="none" stroke="midnightblue" d="M870.196,-133.208C878.554,-134.753 887.243,-136.36 895.789,-137.94"/>
<polygon fill="midnightblue" stroke="midnightblue" points="895.256,-141.401 905.726,-139.778 896.529,-134.518 895.256,-141.401"/>
</g>
<!-- Node5 -->
<g id="node9" class="node"><title>Node5</title>
<a xlink:href="../../df/de6/class_w_b_history_tree_model.html#ad3cb7e5007ff5f81e5857fb539026aea" target="_top" xlink:title="WBHistoryTreeModel\l::mapToSource">
<polygon fill="white" stroke="black" points="1052,-133 1052,-167 1162,-167 1162,-133 1052,-133"/>
<text text-anchor="start" x="1060" y="-154" font-family="Helvetica,sans-Serif" font-size="10.00">WBHistoryTreeModel</text>
<text text-anchor="middle" x="1107" y="-141" font-family="Helvetica,sans-Serif" font-size="10.00">::mapToSource</text>
</a>
</g>
<!-- Node4&#45;&gt;Node5 -->
<g id="edge8" class="edge"><title>Node4&#45;&gt;Node5</title>
<path fill="none" stroke="midnightblue" d="M1016.2,-150C1024.46,-150 1033.05,-150 1041.51,-150"/>
<polygon fill="midnightblue" stroke="midnightblue" points="1041.73,-153.5 1051.73,-150 1041.73,-146.5 1041.73,-153.5"/>
</g>
<!-- Node6 -->
<g id="node11" class="node"><title>Node6</title>
<a xlink:href="../../df/de6/class_w_b_history_tree_model.html#a0c061aee7f71d62161a4ca4f4c0c8f0f" target="_top" xlink:title="WBHistoryTreeModel\l::sourceDateRow">
<polygon fill="white" stroke="black" points="1198,-90 1198,-124 1308,-124 1308,-90 1198,-90"/>
<text text-anchor="start" x="1206" y="-111" font-family="Helvetica,sans-Serif" font-size="10.00">WBHistoryTreeModel</text>
<text text-anchor="middle" x="1253" y="-98" font-family="Helvetica,sans-Serif" font-size="10.00">::sourceDateRow</text>
</a>
</g>
<!-- Node5&#45;&gt;Node6 -->
<g id="edge10" class="edge"><title>Node5&#45;&gt;Node6</title>
<path fill="none" stroke="midnightblue" d="M1162.2,-133.744C1170.64,-131.255 1179.43,-128.667 1188.07,-126.124"/>
<polygon fill="midnightblue" stroke="midnightblue" points="1189.12,-129.462 1197.73,-123.279 1187.14,-122.747 1189.12,-129.462"/>
</g>
<!-- Node6&#45;&gt;Node7 -->
<g id="edge12" class="edge"><title>Node6&#45;&gt;Node7</title>
<path fill="none" stroke="midnightblue" d="M1308.2,-91.7364C1316.55,-90.246 1325.24,-88.828 1333.79,-87.5573"/>
<polygon fill="midnightblue" stroke="midnightblue" points="1334.32,-91.0168 1343.73,-86.1377 1333.33,-84.0872 1334.32,-91.0168"/>
</g>
<!-- Node7&#45;&gt;Node6 -->
<g id="edge14" class="edge"><title>Node7&#45;&gt;Node6</title>
<path fill="none" stroke="midnightblue" d="M1343.73,-99.2775C1335.37,-100.767 1326.68,-102.185 1318.13,-103.455"/>
<polygon fill="midnightblue" stroke="midnightblue" points="1317.6,-99.9947 1308.2,-104.873 1318.59,-106.924 1317.6,-99.9947"/>
</g>
<!-- Node8&#45;&gt;Node2 -->
<g id="edge38" class="edge"><title>Node8&#45;&gt;Node2</title>
<path fill="none" stroke="midnightblue" d="M267.653,-126.841C279.662,-127.324 292.242,-127.75 304,-128 355.544,-129.096 368.887,-134.738 420,-128 485.554,-119.359 558.457,-98.2946 607.759,-82.2682"/>
<polygon fill="midnightblue" stroke="midnightblue" points="608.887,-85.5816 617.295,-79.1352 606.702,-78.9313 608.887,-85.5816"/>
</g>
<!-- Node8&#45;&gt;Node3 -->
<g id="edge36" class="edge"><title>Node8&#45;&gt;Node3</title>
<path fill="none" stroke="midnightblue" d="M267.64,-137.535C279.594,-139.81 292.155,-141.815 304,-143 463.553,-158.964 652.318,-142.448 749.661,-131.336"/>
<polygon fill="midnightblue" stroke="midnightblue" points="750.117,-134.806 759.647,-130.178 749.311,-127.853 750.117,-134.806"/>
</g>
<!-- Node8&#45;&gt;Node5 -->
<g id="edge40" class="edge"><title>Node8&#45;&gt;Node5</title>
<path fill="none" stroke="midnightblue" d="M240.437,-141.019C294.002,-169.324 409.371,-223 514,-223 514,-223 514,-223 815,-223 901.692,-223 998.654,-192.342 1056.17,-170.762"/>
<polygon fill="midnightblue" stroke="midnightblue" points="1057.64,-173.945 1065.74,-167.115 1055.15,-167.403 1057.64,-173.945"/>
</g>
<!-- Node9 -->
<g id="node19" class="node"><title>Node9</title>
<a xlink:href="../../d2/de6/class_w_b_history_menu_model.html#add1b0a9f0768e67367a019f2339df5a5" target="_top" xlink:title="WBHistoryMenuModel\l::columnCount">
<polygon fill="white" stroke="black" points="304.5,-85 304.5,-119 419.5,-119 419.5,-85 304.5,-85"/>
<text text-anchor="start" x="312.5" y="-106" font-family="Helvetica,sans-Serif" font-size="10.00">WBHistoryMenuModel</text>
<text text-anchor="middle" x="362" y="-93" font-family="Helvetica,sans-Serif" font-size="10.00">::columnCount</text>
</a>
</g>
<!-- Node8&#45;&gt;Node9 -->
<g id="edge20" class="edge"><title>Node8&#45;&gt;Node9</title>
<path fill="none" stroke="midnightblue" d="M267.898,-115.62C276.461,-114.381 285.349,-113.094 294.093,-111.829"/>
<polygon fill="midnightblue" stroke="midnightblue" points="294.867,-115.253 304.263,-110.357 293.864,-108.325 294.867,-115.253"/>
</g>
<!-- Node8&#45;&gt;Node10 -->
<g id="edge34" class="edge"><title>Node8&#45;&gt;Node10</title>
<path fill="none" stroke="midnightblue" d="M236.375,-106.895C254.597,-96.0106 279.817,-82.7375 304,-76 350.353,-63.0859 404.566,-59.4871 446.297,-59.038"/>
<polygon fill="midnightblue" stroke="midnightblue" points="446.371,-62.5377 456.354,-58.9876 446.336,-55.5378 446.371,-62.5377"/>
</g>
<!-- Node9&#45;&gt;Node4 -->
<g id="edge22" class="edge"><title>Node9&#45;&gt;Node4</title>
<path fill="none" stroke="midnightblue" d="M419.82,-110.899C497.107,-122.32 638.468,-141.546 760,-149 805.339,-151.781 856.538,-151.992 895.916,-151.528"/>
<polygon fill="midnightblue" stroke="midnightblue" points="895.967,-155.028 905.919,-151.393 895.872,-148.029 895.967,-155.028"/>
</g>
<!-- Node9&#45;&gt;Node10 -->
<g id="edge24" class="edge"><title>Node9&#45;&gt;Node10</title>
<path fill="none" stroke="midnightblue" d="M419.898,-86.3827C428.554,-84.0479 437.542,-81.6234 446.378,-79.2402"/>
<polygon fill="midnightblue" stroke="midnightblue" points="447.519,-82.5575 456.263,-76.5739 445.696,-75.799 447.519,-82.5575"/>
</g>
<!-- Node10&#45;&gt;Node2 -->
<g id="edge26" class="edge"><title>Node10&#45;&gt;Node2</title>
<path fill="none" stroke="midnightblue" d="M571.898,-61.3809C580.461,-61.4372 589.349,-61.4957 598.093,-61.5532"/>
<polygon fill="midnightblue" stroke="midnightblue" points="598.24,-65.0542 608.263,-61.6201 598.286,-58.0543 598.24,-65.0542"/>
</g>
<!-- Node10&#45;&gt;Node3 -->
<g id="edge28" class="edge"><title>Node10&#45;&gt;Node3</title>
<path fill="none" stroke="midnightblue" d="M569.402,-78.0301C582.02,-81.5965 595.417,-85.1386 608,-88 655.016,-98.6916 708.717,-107.68 749.639,-113.87"/>
<polygon fill="midnightblue" stroke="midnightblue" points="749.348,-117.365 759.755,-115.382 750.383,-110.442 749.348,-117.365"/>
</g>
<!-- Node11 -->
<g id="node26" class="node"><title>Node11</title>
<a xlink:href="../../df/de6/class_w_b_history_tree_model.html#a542b024a863331e31103f9ebfd193d45" target="_top" xlink:title="WBHistoryTreeModel\l::mapFromSource">
<polygon fill="white" stroke="black" points="760,-0 760,-34 870,-34 870,-0 760,-0"/>
<text text-anchor="start" x="768" y="-21" font-family="Helvetica,sans-Serif" font-size="10.00">WBHistoryTreeModel</text>
<text text-anchor="middle" x="815" y="-8" font-family="Helvetica,sans-Serif" font-size="10.00">::mapFromSource</text>
</a>
</g>
<!-- Node10&#45;&gt;Node11 -->
<g id="edge30" class="edge"><title>Node10&#45;&gt;Node11</title>
<path fill="none" stroke="midnightblue" d="M571.574,-44.0505C583.532,-40.9929 596.112,-38.1109 608,-36 655.006,-27.6533 708.707,-22.8593 749.632,-20.1751"/>
<polygon fill="midnightblue" stroke="midnightblue" points="749.989,-23.6597 759.749,-19.5373 749.549,-16.6735 749.989,-23.6597"/>
</g>
<!-- Node11&#45;&gt;Node7 -->
<g id="edge32" class="edge"><title>Node11&#45;&gt;Node7</title>
<path fill="none" stroke="midnightblue" d="M870.134,-14.8955C962.103,-12.6177 1152.11,-13.1812 1308,-48 1323.36,-51.4305 1339.52,-57.0914 1353.88,-62.9196"/>
<polygon fill="midnightblue" stroke="midnightblue" points="1352.94,-66.3178 1363.51,-66.9558 1355.64,-59.862 1352.94,-66.3178"/>
</g>
</g>
</svg>
        <g id="navigator" transform="translate(0 0)" fill="#404254">
                <rect fill="#f2f5e9" fill-opacity="0.5" stroke="#606060" stroke-width=".5" x="0" y="0" width="60" height="60"/>
                <use id="zoomplus" xlink:href="#zoomPlus" x="17" y="9" onmousedown="handleZoom(evt,'in')"/>
                <use id="zoomminus" xlink:href="#zoomMin" x="42" y="9" onmousedown="handleZoom(evt,'out')"/>
                <use id="reset" xlink:href="#resetDef" x="30" y="36" onmousedown="handleReset()"/>
                <g id="arrowUp" xlink:href="#dirArrow" transform="translate(30 24)" onmousedown="handlePan(0,-1)">
                  <use xlink:href="#rim" fill="#404040">
                        <set attributeName="fill" to="#808080" begin="arrowUp.mouseover" end="arrowUp.mouseout"/>
                  </use>
                  <path fill="none" stroke="white" stroke-width="1.5" d="M0,-3.0v7 M-2.5,-0.5L0,-3.0L2.5,-0.5"/>
                </g>
                <g id="arrowRight" xlink:href="#dirArrow" transform="rotate(90) translate(36 -43)" onmousedown="handlePan(1,0)">
                  <use xlink:href="#rim" fill="#404040">
                        <set attributeName="fill" to="#808080" begin="arrowRight.mouseover" end="arrowRight.mouseout"/>
                  </use>
                  <path fill="none" stroke="white" stroke-width="1.5" d="M0,-3.0v7 M-2.5,-0.5L0,-3.0L2.5,-0.5"/>
                </g>
                <g id="arrowDown" xlink:href="#dirArrow" transform="rotate(180) translate(-30 -48)" onmousedown="handlePan(0,1)">
                  <use xlink:href="#rim" fill="#404040">
                        <set attributeName="fill" to="#808080" begin="arrowDown.mouseover" end="arrowDown.mouseout"/>
                  </use>
                  <path fill="none" stroke="white" stroke-width="1.5" d="M0,-3.0v7 M-2.5,-0.5L0,-3.0L2.5,-0.5"/>
                </g>
                <g id="arrowLeft" xlink:href="#dirArrow" transform="rotate(270) translate(-36 17)" onmousedown="handlePan(-1,0)">
                  <use xlink:href="#rim" fill="#404040">
                        <set attributeName="fill" to="#808080" begin="arrowLeft.mouseover" end="arrowLeft.mouseout"/>
                  </use>
                  <path fill="none" stroke="white" stroke-width="1.5" d="M0,-3.0v7 M-2.5,-0.5L0,-3.0L2.5,-0.5"/>
                </g>
        </g>
        <svg viewBox="0 0 15 15" width="100%" height="30px" preserveAspectRatio="xMaxYMin meet">
         <g id="arrow_out" transform="scale(0.3 0.3)">
          <a xlink:href="class_w_b_history_menu_model_a75d85c1443b525666ae80b92e3e13cff_cgraph_org.svg" target="_base">
           <rect id="button" ry="5" rx="5" y="6" x="6" height="38" width="38"
                fill="#f2f5e9" fill-opacity="0.5" stroke="#606060" stroke-width="1.0"/>
           <path id="arrow"
             d="M 11.500037,31.436501 C 11.940474,20.09759 22.043105,11.32322 32.158766,21.979434 L 37.068811,17.246167 C 37.068811,17.246167 37.088388,32 37.088388,32 L 22.160133,31.978069 C 22.160133,31.978069 26.997745,27.140456 26.997745,27.140456 C 18.528582,18.264221 13.291696,25.230495 11.500037,31.436501 z"
             style="fill:#404040;"/>
          </a>
         </g>
        </svg>
</svg>
