<?xml version="1.0" encoding="UTF-8" standalone="no"?>
<!DOCTYPE svg PUBLIC "-//W3C//DTD SVG 1.1//EN"
 "http://www.w3.org/Graphics/SVG/1.1/DTD/svg11.dtd">
<!-- Generated by graphviz version 2.26.3 (20100126.1600)
 -->
<!-- Title: UBApplication::showMessage Pages: 1 -->
<svg width="1166pt" height="296pt"
 viewBox="0.00 0.00 1166.00 296.00" xmlns="http://www.w3.org/2000/svg" xmlns:xlink="http://www.w3.org/1999/xlink">
<g id="graph1" class="graph" transform="scale(1 1) rotate(0) translate(4 292)">
<title>UBApplication::showMessage</title>
<polygon fill="white" stroke="white" points="-4,5 -4,-292 1163,-292 1163,5 -4,5"/>
<!-- Node1 -->
<g id="node1" class="node"><title>Node1</title>
<polygon fill="#bfbfbf" stroke="black" points="0,-182.5 0,-203.5 148,-203.5 148,-182.5 0,-182.5"/>
<text text-anchor="middle" x="74" y="-190.5" font-family="Helvetica,sans-Serif" font-size="10.00">UBApplication::showMessage</text>
</g>
<!-- Node2 -->
<g id="node3" class="node"><title>Node2</title>
<a xlink:href="../../da/d14/class_u_b_application_controller.html#aaefcc19888d509988d3e82b334d76830" target="_top" xlink:title="UBApplicationController\l::showMessage">
<polygon fill="white" stroke="black" points="184.5,-176 184.5,-210 305.5,-210 305.5,-176 184.5,-176"/>
<text text-anchor="start" x="192.5" y="-197" font-family="Helvetica,sans-Serif" font-size="10.00">UBApplicationController</text>
<text text-anchor="middle" x="245" y="-184" font-family="Helvetica,sans-Serif" font-size="10.00">::showMessage</text>
</a>
</g>
<!-- Node1&#45;&gt;Node2 -->
<g id="edge2" class="edge"><title>Node1&#45;&gt;Node2</title>
<path fill="none" stroke="midnightblue" d="M148.009,-193C156.702,-193 165.557,-193 174.205,-193"/>
<polygon fill="midnightblue" stroke="midnightblue" points="174.24,-196.5 184.24,-193 174.24,-189.5 174.24,-196.5"/>
</g>
<!-- Node3 -->
<g id="node5" class="node"><title>Node3</title>
<a xlink:href="../../d7/d62/class_u_b_board_controller.html#a71d2fb8834fc701bed0b16bb0f0b5527" target="_top" xlink:title="UBBoardController:\l:hideMessage">
<polygon fill="white" stroke="black" points="350.5,-254 350.5,-288 451.5,-288 451.5,-254 350.5,-254"/>
<text text-anchor="start" x="358.5" y="-275" font-family="Helvetica,sans-Serif" font-size="10.00">UBBoardController:</text>
<text text-anchor="middle" x="401" y="-262" font-family="Helvetica,sans-Serif" font-size="10.00">:hideMessage</text>
</a>
</g>
<!-- Node2&#45;&gt;Node3 -->
<g id="edge4" class="edge"><title>Node2&#45;&gt;Node3</title>
<path fill="none" stroke="midnightblue" d="M275.27,-210.003C294.248,-220.468 319.329,-233.948 342,-245 345.165,-246.543 348.442,-248.099 351.758,-249.642"/>
<polygon fill="midnightblue" stroke="midnightblue" points="350.587,-252.955 361.137,-253.933 353.5,-246.59 350.587,-252.955"/>
</g>
<!-- Node5 -->
<g id="node9" class="node"><title>Node5</title>
<a xlink:href="../../d6/de0/class_u_b_document_controller.html#aa5a4bf5ad86548cda5fd75ce6eb9f28f" target="_top" xlink:title="UBDocumentController\l::showMessage">
<polygon fill="white" stroke="black" points="342,-202 342,-236 460,-236 460,-202 342,-202"/>
<text text-anchor="start" x="350" y="-223" font-family="Helvetica,sans-Serif" font-size="10.00">UBDocumentController</text>
<text text-anchor="middle" x="401" y="-210" font-family="Helvetica,sans-Serif" font-size="10.00">::showMessage</text>
</a>
</g>
<!-- Node2&#45;&gt;Node5 -->
<g id="edge8" class="edge"><title>Node2&#45;&gt;Node5</title>
<path fill="none" stroke="midnightblue" d="M305.76,-203.127C314.307,-204.551 323.145,-206.024 331.835,-207.472"/>
<polygon fill="midnightblue" stroke="midnightblue" points="331.502,-210.965 341.941,-209.157 332.653,-204.06 331.502,-210.965"/>
</g>
<!-- Node6 -->
<g id="node11" class="node"><title>Node6</title>
<a xlink:href="../../d6/de0/class_u_b_document_controller.html#a73b29c9fcfc83397a6bd30af5fdc1ed2" target="_top" xlink:title="UBDocumentController\l::hideMessage">
<polygon fill="white" stroke="black" points="342,-150 342,-184 460,-184 460,-150 342,-150"/>
<text text-anchor="start" x="350" y="-171" font-family="Helvetica,sans-Serif" font-size="10.00">UBDocumentController</text>
<text text-anchor="middle" x="401" y="-158" font-family="Helvetica,sans-Serif" font-size="10.00">::hideMessage</text>
</a>
</g>
<!-- Node2&#45;&gt;Node6 -->
<g id="edge10" class="edge"><title>Node2&#45;&gt;Node6</title>
<path fill="none" stroke="midnightblue" d="M305.76,-182.873C314.307,-181.449 323.145,-179.976 331.835,-178.528"/>
<polygon fill="midnightblue" stroke="midnightblue" points="332.653,-181.94 341.941,-176.843 331.502,-175.035 332.653,-181.94"/>
</g>
<!-- Node7 -->
<g id="node13" class="node"><title>Node7</title>
<a xlink:href="../../d7/d62/class_u_b_board_controller.html#a71ff510e4ce1e3a753f074a0e7438a00" target="_top" xlink:title="UBBoardController:\l:showMessage">
<polygon fill="white" stroke="black" points="350.5,-98 350.5,-132 451.5,-132 451.5,-98 350.5,-98"/>
<text text-anchor="start" x="358.5" y="-119" font-family="Helvetica,sans-Serif" font-size="10.00">UBBoardController:</text>
<text text-anchor="middle" x="401" y="-106" font-family="Helvetica,sans-Serif" font-size="10.00">:showMessage</text>
</a>
</g>
<!-- Node2&#45;&gt;Node7 -->
<g id="edge12" class="edge"><title>Node2&#45;&gt;Node7</title>
<path fill="none" stroke="midnightblue" d="M275.27,-175.997C294.248,-165.532 319.329,-152.052 342,-141 345.165,-139.457 348.442,-137.901 351.758,-136.358"/>
<polygon fill="midnightblue" stroke="midnightblue" points="353.5,-139.41 361.137,-132.067 350.587,-133.045 353.5,-139.41"/>
</g>
<!-- Node4 -->
<g id="node7" class="node"><title>Node4</title>
<a xlink:href="../../d5/d02/class_u_b_message_window.html#af0f92d33532361f4048ab584621518f8" target="_top" xlink:title="UBMessageWindow::hideMessage">
<polygon fill="white" stroke="black" points="499,-260.5 499,-281.5 669,-281.5 669,-260.5 499,-260.5"/>
<text text-anchor="middle" x="584" y="-268.5" font-family="Helvetica,sans-Serif" font-size="10.00">UBMessageWindow::hideMessage</text>
</a>
</g>
<!-- Node3&#45;&gt;Node4 -->
<g id="edge6" class="edge"><title>Node3&#45;&gt;Node4</title>
<path fill="none" stroke="midnightblue" d="M451.976,-271C463.492,-271 476.081,-271 488.766,-271"/>
<polygon fill="midnightblue" stroke="midnightblue" points="488.941,-274.5 498.941,-271 488.941,-267.5 488.941,-274.5"/>
</g>
<!-- Node8 -->
<g id="node15" class="node"><title>Node8</title>
<a xlink:href="../../d5/d02/class_u_b_message_window.html#a8c6e3ff66e94a5ff2e11ebf52d5a8b35" target="_top" xlink:title="UBMessageWindow::showMessage">
<polygon fill="white" stroke="black" points="496.5,-104.5 496.5,-125.5 671.5,-125.5 671.5,-104.5 496.5,-104.5"/>
<text text-anchor="middle" x="584" y="-112.5" font-family="Helvetica,sans-Serif" font-size="10.00">UBMessageWindow::showMessage</text>
</a>
</g>
<!-- Node7&#45;&gt;Node8 -->
<g id="edge14" class="edge"><title>Node7&#45;&gt;Node8</title>
<path fill="none" stroke="midnightblue" d="M451.976,-115C462.799,-115 474.571,-115 486.48,-115"/>
<polygon fill="midnightblue" stroke="midnightblue" points="486.497,-118.5 496.497,-115 486.497,-111.5 486.497,-118.5"/>
</g>
<!-- Node9 -->
<g id="node17" class="node"><title>Node9</title>
<a xlink:href="../../d6/da4/class_u_b_spinning_wheel.html#acbcc339c4ad8ac331812ef58581e8264" target="_top" xlink:title="UBSpinningWheel::startAnimation">
<polygon fill="white" stroke="black" points="708.5,-144.5 708.5,-165.5 873.5,-165.5 873.5,-144.5 708.5,-144.5"/>
<text text-anchor="middle" x="791" y="-152.5" font-family="Helvetica,sans-Serif" font-size="10.00">UBSpinningWheel::startAnimation</text>
</a>
</g>
<!-- Node8&#45;&gt;Node9 -->
<g id="edge16" class="edge"><title>Node8&#45;&gt;Node9</title>
<path fill="none" stroke="midnightblue" d="M638.387,-125.51C665.378,-130.725 698.17,-137.062 726.43,-142.523"/>
<polygon fill="midnightblue" stroke="midnightblue" points="726.135,-146.03 736.617,-144.491 727.463,-139.158 726.135,-146.03"/>
</g>
<!-- Node10 -->
<g id="node19" class="node"><title>Node10</title>
<a xlink:href="../../d6/da4/class_u_b_spinning_wheel.html#afce6e8912a9ea4ce878ea2a0dcd47d7e" target="_top" xlink:title="UBSpinningWheel::stopAnimation">
<polygon fill="white" stroke="black" points="709,-104.5 709,-125.5 873,-125.5 873,-104.5 709,-104.5"/>
<text text-anchor="middle" x="791" y="-112.5" font-family="Helvetica,sans-Serif" font-size="10.00">UBSpinningWheel::stopAnimation</text>
</a>
</g>
<!-- Node8&#45;&gt;Node10 -->
<g id="edge18" class="edge"><title>Node8&#45;&gt;Node10</title>
<path fill="none" stroke="midnightblue" d="M671.787,-115C680.673,-115 689.718,-115 698.651,-115"/>
<polygon fill="midnightblue" stroke="midnightblue" points="698.675,-118.5 708.675,-115 698.675,-111.5 698.675,-118.5"/>
</g>
<!-- Node11 -->
<g id="node21" class="node"><title>Node11</title>
<a xlink:href="../../d1/d97/class_u_b_floating_palette.html#abc34a1ea7b29b6aaa4a0ea25d5715210" target="_top" xlink:title="UBFloatingPalette:\l:adjustSizeAndPosition">
<polygon fill="white" stroke="black" points="732,-52 732,-86 850,-86 850,-52 732,-52"/>
<text text-anchor="start" x="740" y="-73" font-family="Helvetica,sans-Serif" font-size="10.00">UBFloatingPalette:</text>
<text text-anchor="middle" x="791" y="-60" font-family="Helvetica,sans-Serif" font-size="10.00">:adjustSizeAndPosition</text>
</a>
</g>
<!-- Node8&#45;&gt;Node11 -->
<g id="edge20" class="edge"><title>Node8&#45;&gt;Node11</title>
<path fill="none" stroke="midnightblue" d="M631.49,-104.447C658.3,-98.4889 692.285,-90.9367 721.99,-84.3355"/>
<polygon fill="midnightblue" stroke="midnightblue" points="722.881,-87.7231 731.883,-82.137 721.362,-80.8897 722.881,-87.7231"/>
</g>
<!-- Node12 -->
<g id="node23" class="node"><title>Node12</title>
<a xlink:href="../../d1/d97/class_u_b_floating_palette.html#aec5822b784da7d590ff463ed9cb44be9" target="_top" xlink:title="UBFloatingPalette:\l:preferredSize">
<polygon fill="white" stroke="black" points="910.5,-78 910.5,-112 1009.5,-112 1009.5,-78 910.5,-78"/>
<text text-anchor="start" x="918.5" y="-99" font-family="Helvetica,sans-Serif" font-size="10.00">UBFloatingPalette:</text>
<text text-anchor="middle" x="960" y="-86" font-family="Helvetica,sans-Serif" font-size="10.00">:preferredSize</text>
</a>
</g>
<!-- Node11&#45;&gt;Node12 -->
<g id="edge22" class="edge"><title>Node11&#45;&gt;Node12</title>
<path fill="none" stroke="midnightblue" d="M850.108,-78.0935C866.425,-80.6038 884.134,-83.3283 900.474,-85.8422"/>
<polygon fill="midnightblue" stroke="midnightblue" points="900.031,-89.3151 910.447,-87.3765 901.096,-82.3965 900.031,-89.3151"/>
</g>
<!-- Node13 -->
<g id="node25" class="node"><title>Node13</title>
<a xlink:href="../../d1/d97/class_u_b_floating_palette.html#a187ee35c53cfad79bb5b30dff1800732" target="_top" xlink:title="UBFloatingPalette:\l:moveInsideParent">
<polygon fill="white" stroke="black" points="910.5,-26 910.5,-60 1009.5,-60 1009.5,-26 910.5,-26"/>
<text text-anchor="start" x="918.5" y="-47" font-family="Helvetica,sans-Serif" font-size="10.00">UBFloatingPalette:</text>
<text text-anchor="middle" x="960" y="-34" font-family="Helvetica,sans-Serif" font-size="10.00">:moveInsideParent</text>
</a>
</g>
<!-- Node11&#45;&gt;Node13 -->
<g id="edge24" class="edge"><title>Node11&#45;&gt;Node13</title>
<path fill="none" stroke="midnightblue" d="M850.108,-59.9065C866.425,-57.3962 884.134,-54.6717 900.474,-52.1578"/>
<polygon fill="midnightblue" stroke="midnightblue" points="901.096,-55.6035 910.447,-50.6235 900.031,-48.6849 901.096,-55.6035"/>
</g>
<!-- Node14 -->
<g id="node27" class="node"><title>Node14</title>
<a xlink:href="../../d1/d97/class_u_b_floating_palette.html#a1902d37271315e9e06d6743752104f47" target="_top" xlink:title="UBFloatingPalette:\l:border">
<polygon fill="white" stroke="black" points="1052.5,-52 1052.5,-86 1151.5,-86 1151.5,-52 1052.5,-52"/>
<text text-anchor="start" x="1060.5" y="-73" font-family="Helvetica,sans-Serif" font-size="10.00">UBFloatingPalette:</text>
<text text-anchor="middle" x="1102" y="-60" font-family="Helvetica,sans-Serif" font-size="10.00">:border</text>
</a>
</g>
<!-- Node13&#45;&gt;Node14 -->
<g id="edge26" class="edge"><title>Node13&#45;&gt;Node14</title>
<path fill="none" stroke="midnightblue" d="M1009.66,-52.0935C1020.2,-54.0219 1031.42,-56.0768 1042.28,-58.0655"/>
<polygon fill="midnightblue" stroke="midnightblue" points="1041.66,-61.5093 1052.12,-59.8676 1042.92,-54.6238 1041.66,-61.5093"/>
</g>
<!-- Node15 -->
<g id="node29" class="node"><title>Node15</title>
<a xlink:href="../../d1/d97/class_u_b_floating_palette.html#acf3ead0c3d8a3bde89b934ad208e9f9a" target="_top" xlink:title="UBFloatingPalette:\l:getParentRightOffset">
<polygon fill="white" stroke="black" points="1046,-0 1046,-34 1158,-34 1158,-0 1046,-0"/>
<text text-anchor="start" x="1054" y="-21" font-family="Helvetica,sans-Serif" font-size="10.00">UBFloatingPalette:</text>
<text text-anchor="middle" x="1102" y="-8" font-family="Helvetica,sans-Serif" font-size="10.00">:getParentRightOffset</text>
</a>
</g>
<!-- Node13&#45;&gt;Node15 -->
<g id="edge28" class="edge"><title>Node13&#45;&gt;Node15</title>
<path fill="none" stroke="midnightblue" d="M1009.66,-33.9065C1018.15,-32.3531 1027.08,-30.7176 1035.91,-29.1008"/>
<polygon fill="midnightblue" stroke="midnightblue" points="1036.6,-32.5326 1045.81,-27.2887 1035.34,-25.6471 1036.6,-32.5326"/>
</g>
</g>
</svg>
