<?xml version="1.0" encoding="UTF-8" standalone="no"?>
<!DOCTYPE svg PUBLIC "-//W3C//DTD SVG 1.1//EN"
 "http://www.w3.org/Graphics/SVG/1.1/DTD/svg11.dtd">
<!-- Generated by graphviz version 2.26.3 (20100126.1600)
 -->
<!-- Title: Sankore&#45;3.1/src/domain/UBGraphicsPolygonItem.h Pages: 1 -->
<svg width="1428pt" height="116pt"
 viewBox="0.00 0.00 1428.00 116.00" xmlns="http://www.w3.org/2000/svg" xmlns:xlink="http://www.w3.org/1999/xlink">
<g id="graph1" class="graph" transform="scale(1 1) rotate(0) translate(4 112)">
<title>Sankore&#45;3.1/src/domain/UBGraphicsPolygonItem.h</title>
<polygon fill="white" stroke="white" points="-4,5 -4,-112 1425,-112 1425,5 -4,5"/>
<!-- Node1 -->
<g id="node1" class="node"><title>Node1</title>
<polygon fill="#bfbfbf" stroke="black" points="653,-73 653,-107 789,-107 789,-73 653,-73"/>
<text text-anchor="start" x="661" y="-94" font-family="Helvetica,sans-Serif" font-size="10.00">Sankore&#45;3.1/src/domain</text>
<text text-anchor="middle" x="721" y="-81" font-family="Helvetica,sans-Serif" font-size="10.00">/UBGraphicsPolygonItem.h</text>
</g>
<!-- Node2 -->
<g id="node3" class="node"><title>Node2</title>
<a xlink:href="../../d5/d61/_u_b_c_f_f_subset_adaptor_8cpp.html" target="_top" xlink:title="Sankore&#45;3.1/src/adaptors\l/UBCFFSubsetAdaptor.cpp">
<polygon fill="white" stroke="black" points="-0.5,-1 -0.5,-35 136.5,-35 136.5,-1 -0.5,-1"/>
<text text-anchor="start" x="7.5" y="-22" font-family="Helvetica,sans-Serif" font-size="10.00">Sankore&#45;3.1/src/adaptors</text>
<text text-anchor="middle" x="68" y="-9" font-family="Helvetica,sans-Serif" font-size="10.00">/UBCFFSubsetAdaptor.cpp</text>
</a>
</g>
<!-- Node1&#45;&gt;Node2 -->
<g id="edge2" class="edge"><title>Node1&#45;&gt;Node2</title>
<path fill="none" stroke="midnightblue" d="M642.66,-86.0451C531.439,-79.6626 321.638,-64.7885 145,-36 142.29,-35.5583 139.534,-35.0758 136.754,-34.5615"/>
<polygon fill="midnightblue" stroke="midnightblue" points="642.603,-89.5473 652.785,-86.6182 642.999,-82.5585 642.603,-89.5473"/>
</g>
<!-- Node3 -->
<g id="node5" class="node"><title>Node3</title>
<a xlink:href="../../dd/dc8/_u_b_svg_subset_adaptor_8cpp.html" target="_top" xlink:title="Sankore&#45;3.1/src/adaptors\l/UBSvgSubsetAdaptor.cpp">
<polygon fill="white" stroke="black" points="154,-1 154,-35 288,-35 288,-1 154,-1"/>
<text text-anchor="start" x="162" y="-22" font-family="Helvetica,sans-Serif" font-size="10.00">Sankore&#45;3.1/src/adaptors</text>
<text text-anchor="middle" x="221" y="-9" font-family="Helvetica,sans-Serif" font-size="10.00">/UBSvgSubsetAdaptor.cpp</text>
</a>
</g>
<!-- Node1&#45;&gt;Node3 -->
<g id="edge4" class="edge"><title>Node1&#45;&gt;Node3</title>
<path fill="none" stroke="midnightblue" d="M642.598,-82.5268C557.21,-73.804 416.798,-57.7522 297,-36 294.065,-35.4671 291.073,-34.8928 288.056,-34.2882"/>
<polygon fill="midnightblue" stroke="midnightblue" points="642.431,-86.0278 652.733,-83.5542 643.137,-79.0635 642.431,-86.0278"/>
</g>
<!-- Node4 -->
<g id="node7" class="node"><title>Node4</title>
<a xlink:href="../../d4/dc1/_u_b_board_view_8cpp.html" target="_top" xlink:title="Sankore&#45;3.1/src/board\l/UBBoardView.cpp">
<polygon fill="white" stroke="black" points="305.5,-1 305.5,-35 418.5,-35 418.5,-1 305.5,-1"/>
<text text-anchor="start" x="313.5" y="-22" font-family="Helvetica,sans-Serif" font-size="10.00">Sankore&#45;3.1/src/board</text>
<text text-anchor="middle" x="362" y="-9" font-family="Helvetica,sans-Serif" font-size="10.00">/UBBoardView.cpp</text>
</a>
</g>
<!-- Node1&#45;&gt;Node4 -->
<g id="edge6" class="edge"><title>Node1&#45;&gt;Node4</title>
<path fill="none" stroke="midnightblue" d="M642.852,-77.5829C583.386,-67.6668 499.673,-52.7019 427,-36 424.261,-35.3705 421.465,-34.7009 418.645,-34.0042"/>
<polygon fill="midnightblue" stroke="midnightblue" points="642.485,-81.0697 652.922,-79.2526 643.63,-74.164 642.485,-81.0697"/>
</g>
<!-- Node5 -->
<g id="node9" class="node"><title>Node5</title>
<a xlink:href="../../d1/dfb/_u_b_desktop_annotation_controller_8cpp.html" target="_top" xlink:title="Sankore&#45;3.1/src/desktop\l/UBDesktopAnnotationController.cpp">
<polygon fill="white" stroke="black" points="436,-1 436,-35 614,-35 614,-1 436,-1"/>
<text text-anchor="start" x="444" y="-22" font-family="Helvetica,sans-Serif" font-size="10.00">Sankore&#45;3.1/src/desktop</text>
<text text-anchor="middle" x="525" y="-9" font-family="Helvetica,sans-Serif" font-size="10.00">/UBDesktopAnnotationController.cpp</text>
</a>
</g>
<!-- Node1&#45;&gt;Node5 -->
<g id="edge8" class="edge"><title>Node1&#45;&gt;Node5</title>
<path fill="none" stroke="midnightblue" d="M664.786,-69.3498C635.226,-58.4911 599.425,-45.3399 571.455,-35.0651"/>
<polygon fill="midnightblue" stroke="midnightblue" points="663.957,-72.7741 674.551,-72.937 666.371,-66.2034 663.957,-72.7741"/>
</g>
<!-- Node6 -->
<g id="node11" class="node"><title>Node6</title>
<a xlink:href="../../db/dcd/_u_b_graphics_item_undo_command_8cpp.html" target="_top" xlink:title="Sankore&#45;3.1/src/domain\l/UBGraphicsItemUndoCommand.cpp">
<polygon fill="white" stroke="black" points="631.5,-1 631.5,-35 810.5,-35 810.5,-1 631.5,-1"/>
<text text-anchor="start" x="639.5" y="-22" font-family="Helvetica,sans-Serif" font-size="10.00">Sankore&#45;3.1/src/domain</text>
<text text-anchor="middle" x="721" y="-9" font-family="Helvetica,sans-Serif" font-size="10.00">/UBGraphicsItemUndoCommand.cpp</text>
</a>
</g>
<!-- Node1&#45;&gt;Node6 -->
<g id="edge10" class="edge"><title>Node1&#45;&gt;Node6</title>
<path fill="none" stroke="midnightblue" d="M721,-62.7193C721,-53.572 721,-43.6255 721,-35.4407"/>
<polygon fill="midnightblue" stroke="midnightblue" points="717.5,-62.937 721,-72.937 724.5,-62.937 717.5,-62.937"/>
</g>
<!-- Node7 -->
<g id="node13" class="node"><title>Node7</title>
<a xlink:href="../../d7/d44/_u_b_graphics_polygon_item_8cpp.html" target="_top" xlink:title="Sankore&#45;3.1/src/domain\l/UBGraphicsPolygonItem.cpp">
<polygon fill="white" stroke="black" points="828,-1 828,-35 974,-35 974,-1 828,-1"/>
<text text-anchor="start" x="836" y="-22" font-family="Helvetica,sans-Serif" font-size="10.00">Sankore&#45;3.1/src/domain</text>
<text text-anchor="middle" x="901" y="-9" font-family="Helvetica,sans-Serif" font-size="10.00">/UBGraphicsPolygonItem.cpp</text>
</a>
</g>
<!-- Node1&#45;&gt;Node7 -->
<g id="edge12" class="edge"><title>Node1&#45;&gt;Node7</title>
<path fill="none" stroke="midnightblue" d="M772.98,-69.2081C800.058,-58.3768 832.762,-45.2952 858.337,-35.0651"/>
<polygon fill="midnightblue" stroke="midnightblue" points="771.642,-65.9734 763.657,-72.937 774.242,-72.4727 771.642,-65.9734"/>
</g>
<!-- Node8 -->
<g id="node15" class="node"><title>Node8</title>
<a xlink:href="../../d5/de9/_u_b_graphics_scene_8cpp.html" target="_top" xlink:title="Sankore&#45;3.1/src/domain\l/UBGraphicsScene.cpp">
<polygon fill="white" stroke="black" points="992,-1 992,-35 1112,-35 1112,-1 992,-1"/>
<text text-anchor="start" x="1000" y="-22" font-family="Helvetica,sans-Serif" font-size="10.00">Sankore&#45;3.1/src/domain</text>
<text text-anchor="middle" x="1052" y="-9" font-family="Helvetica,sans-Serif" font-size="10.00">/UBGraphicsScene.cpp</text>
</a>
</g>
<!-- Node1&#45;&gt;Node8 -->
<g id="edge14" class="edge"><title>Node1&#45;&gt;Node8</title>
<path fill="none" stroke="midnightblue" d="M798.935,-75.0382C851.164,-64.7413 921.391,-50.3748 983,-36 985.893,-35.3249 988.851,-34.6181 991.835,-33.8917"/>
<polygon fill="midnightblue" stroke="midnightblue" points="798.205,-71.6146 789.068,-76.9773 799.555,-78.4832 798.205,-71.6146"/>
</g>
<!-- Node9 -->
<g id="node17" class="node"><title>Node9</title>
<a xlink:href="../../d9/da7/_u_b_graphics_stroke_8cpp.html" target="_top" xlink:title="Sankore&#45;3.1/src/domain\l/UBGraphicsStroke.cpp">
<polygon fill="white" stroke="black" points="1130,-1 1130,-35 1250,-35 1250,-1 1130,-1"/>
<text text-anchor="start" x="1138" y="-22" font-family="Helvetica,sans-Serif" font-size="10.00">Sankore&#45;3.1/src/domain</text>
<text text-anchor="middle" x="1190" y="-9" font-family="Helvetica,sans-Serif" font-size="10.00">/UBGraphicsStroke.cpp</text>
</a>
</g>
<!-- Node1&#45;&gt;Node9 -->
<g id="edge16" class="edge"><title>Node1&#45;&gt;Node9</title>
<path fill="none" stroke="midnightblue" d="M799.115,-82.2833C880.077,-73.6253 1010.07,-57.8732 1121,-36 1123.92,-35.4252 1126.89,-34.8 1129.89,-34.1388"/>
<polygon fill="midnightblue" stroke="midnightblue" points="798.576,-78.8207 789.001,-83.3552 799.314,-85.7817 798.576,-78.8207"/>
</g>
<!-- Node10 -->
<g id="node19" class="node"><title>Node10</title>
<a xlink:href="../../d4/d14/_u_b_graphics_strokes_group_8cpp.html" target="_top" xlink:title="Sankore&#45;3.1/src/domain\l/UBGraphicsStrokesGroup.cpp">
<polygon fill="white" stroke="black" points="1268,-1 1268,-35 1420,-35 1420,-1 1268,-1"/>
<text text-anchor="start" x="1276" y="-22" font-family="Helvetica,sans-Serif" font-size="10.00">Sankore&#45;3.1/src/domain</text>
<text text-anchor="middle" x="1344" y="-9" font-family="Helvetica,sans-Serif" font-size="10.00">/UBGraphicsStrokesGroup.cpp</text>
</a>
</g>
<!-- Node1&#45;&gt;Node10 -->
<g id="edge18" class="edge"><title>Node1&#45;&gt;Node10</title>
<path fill="none" stroke="midnightblue" d="M799.446,-84.8101C904.506,-77.2476 1096.52,-61.2811 1259,-36 1261.83,-35.5594 1264.71,-35.085 1267.62,-34.5843"/>
<polygon fill="midnightblue" stroke="midnightblue" points="798.97,-81.335 789.244,-85.5376 799.468,-88.3173 798.97,-81.335"/>
</g>
</g>
</svg>
