<?xml version="1.0" encoding="UTF-8" standalone="no"?>
<!DOCTYPE svg PUBLIC "-//W3C//DTD SVG 1.1//EN"
 "http://www.w3.org/Graphics/SVG/1.1/DTD/svg11.dtd">
<!-- Generated by graphviz version 2.26.3 (20100126.1600)
 -->
<!-- Title: UBSceneCache::moveScene Pages: 1 -->
<svg width="952pt" height="250pt"
 viewBox="0.00 0.00 952.00 250.00" xmlns="http://www.w3.org/2000/svg" xmlns:xlink="http://www.w3.org/1999/xlink">
<g id="graph1" class="graph" transform="scale(1 1) rotate(0) translate(4 246)">
<title>UBSceneCache::moveScene</title>
<polygon fill="white" stroke="white" points="-4,5 -4,-246 949,-246 949,5 -4,5"/>
<!-- Node1 -->
<g id="node1" class="node"><title>Node1</title>
<polygon fill="#bfbfbf" stroke="black" points="0.5,-136.5 0.5,-157.5 145.5,-157.5 145.5,-136.5 0.5,-136.5"/>
<text text-anchor="middle" x="73" y="-144.5" font-family="Helvetica,sans-Serif" font-size="10.00">UBSceneCache::moveScene</text>
</g>
<!-- Node2 -->
<g id="node3" class="node"><title>Node2</title>
<a xlink:href="../../d0/dd5/class_u_b_persistence_manager.html#a8024bebd59a18f8cefa5f042aa42ed25" target="_top" xlink:title="UBPersistenceManager\l::deleteDocumentScenes">
<polygon fill="white" stroke="black" points="185.5,-208 185.5,-242 312.5,-242 312.5,-208 185.5,-208"/>
<text text-anchor="start" x="193.5" y="-229" font-family="Helvetica,sans-Serif" font-size="10.00">UBPersistenceManager</text>
<text text-anchor="middle" x="249" y="-216" font-family="Helvetica,sans-Serif" font-size="10.00">::deleteDocumentScenes</text>
</a>
</g>
<!-- Node1&#45;&gt;Node2 -->
<g id="edge2" class="edge"><title>Node1&#45;&gt;Node2</title>
<path fill="none" stroke="midnightblue" d="M103.145,-162.13C124.874,-172.851 155.005,-187.342 182,-199 188.987,-202.017 196.449,-205.073 203.762,-207.977"/>
<polygon fill="midnightblue" stroke="midnightblue" points="104.602,-158.946 94.0877,-157.639 101.492,-165.217 104.602,-158.946"/>
</g>
<!-- Node5 -->
<g id="node9" class="node"><title>Node5</title>
<a xlink:href="../../d0/dd5/class_u_b_persistence_manager.html#aba40a98502fd7478221462306c2eb234" target="_top" xlink:title="UBPersistenceManager\l::duplicateDocumentScene">
<polygon fill="white" stroke="black" points="182,-156 182,-190 316,-190 316,-156 182,-156"/>
<text text-anchor="start" x="190" y="-177" font-family="Helvetica,sans-Serif" font-size="10.00">UBPersistenceManager</text>
<text text-anchor="middle" x="249" y="-164" font-family="Helvetica,sans-Serif" font-size="10.00">::duplicateDocumentScene</text>
</a>
</g>
<!-- Node1&#45;&gt;Node5 -->
<g id="edge8" class="edge"><title>Node1&#45;&gt;Node5</title>
<path fill="none" stroke="midnightblue" d="M154.118,-158.983C163.426,-160.358 172.837,-161.749 181.931,-163.092"/>
<polygon fill="midnightblue" stroke="midnightblue" points="154.483,-155.499 144.079,-157.5 153.46,-162.424 154.483,-155.499"/>
</g>
<!-- Node6 -->
<g id="node11" class="node"><title>Node6</title>
<a xlink:href="../../d0/dd5/class_u_b_persistence_manager.html#a02050499f8179287038922f42ddf2e17" target="_top" xlink:title="UBPersistenceManager\l::copyDocumentScene">
<polygon fill="white" stroke="black" points="189,-104 189,-138 309,-138 309,-104 189,-104"/>
<text text-anchor="start" x="197" y="-125" font-family="Helvetica,sans-Serif" font-size="10.00">UBPersistenceManager</text>
<text text-anchor="middle" x="249" y="-112" font-family="Helvetica,sans-Serif" font-size="10.00">::copyDocumentScene</text>
</a>
</g>
<!-- Node1&#45;&gt;Node6 -->
<g id="edge10" class="edge"><title>Node1&#45;&gt;Node6</title>
<path fill="none" stroke="midnightblue" d="M154.277,-134.993C165.952,-133.268 177.786,-131.52 188.95,-129.871"/>
<polygon fill="midnightblue" stroke="midnightblue" points="153.46,-131.576 144.079,-136.5 154.483,-138.501 153.46,-131.576"/>
</g>
<!-- Node14 -->
<g id="node27" class="node"><title>Node14</title>
<a xlink:href="../../d0/dd5/class_u_b_persistence_manager.html#ab25757455d7f0dc3a356977e4156acda" target="_top" xlink:title="UBPersistenceManager\l::moveSceneToIndex">
<polygon fill="white" stroke="black" points="189,-26 189,-60 309,-60 309,-26 189,-26"/>
<text text-anchor="start" x="197" y="-47" font-family="Helvetica,sans-Serif" font-size="10.00">UBPersistenceManager</text>
<text text-anchor="middle" x="249" y="-34" font-family="Helvetica,sans-Serif" font-size="10.00">::moveSceneToIndex</text>
</a>
</g>
<!-- Node1&#45;&gt;Node14 -->
<g id="edge26" class="edge"><title>Node1&#45;&gt;Node14</title>
<path fill="none" stroke="midnightblue" d="M99.7681,-131.182C132.216,-112.009 186.687,-79.8213 220.076,-60.0916"/>
<polygon fill="midnightblue" stroke="midnightblue" points="97.6731,-128.355 90.8444,-136.456 101.234,-134.382 97.6731,-128.355"/>
</g>
<!-- Node3 -->
<g id="node5" class="node"><title>Node3</title>
<a xlink:href="../../da/dc6/class_u_b_document_container.html#a156ab898f2b4ff3f12f1e6d5e3406a69" target="_top" xlink:title="UBDocumentContainer\l::deletePages">
<polygon fill="white" stroke="black" points="354,-208 354,-242 472,-242 472,-208 354,-208"/>
<text text-anchor="start" x="362" y="-229" font-family="Helvetica,sans-Serif" font-size="10.00">UBDocumentContainer</text>
<text text-anchor="middle" x="413" y="-216" font-family="Helvetica,sans-Serif" font-size="10.00">::deletePages</text>
</a>
</g>
<!-- Node2&#45;&gt;Node3 -->
<g id="edge4" class="edge"><title>Node2&#45;&gt;Node3</title>
<path fill="none" stroke="midnightblue" d="M323.099,-225C333.402,-225 343.874,-225 353.854,-225"/>
<polygon fill="midnightblue" stroke="midnightblue" points="322.876,-221.5 312.876,-225 322.876,-228.5 322.876,-221.5"/>
</g>
<!-- Node4 -->
<g id="node7" class="node"><title>Node4</title>
<a xlink:href="../../d7/d62/class_u_b_board_controller.html#ad1c70c75fad194f67cd944e203d15e49" target="_top" xlink:title="UBBoardController:\l:deleteScene">
<polygon fill="white" stroke="black" points="519.5,-208 519.5,-242 620.5,-242 620.5,-208 519.5,-208"/>
<text text-anchor="start" x="527.5" y="-229" font-family="Helvetica,sans-Serif" font-size="10.00">UBBoardController:</text>
<text text-anchor="middle" x="570" y="-216" font-family="Helvetica,sans-Serif" font-size="10.00">:deleteScene</text>
</a>
</g>
<!-- Node3&#45;&gt;Node4 -->
<g id="edge6" class="edge"><title>Node3&#45;&gt;Node4</title>
<path fill="none" stroke="midnightblue" d="M482.623,-225C494.961,-225 507.596,-225 519.287,-225"/>
<polygon fill="midnightblue" stroke="midnightblue" points="482.355,-221.5 472.355,-225 482.355,-228.5 482.355,-221.5"/>
</g>
<!-- Node7 -->
<g id="node13" class="node"><title>Node7</title>
<a xlink:href="../../da/dc6/class_u_b_document_container.html#aedf080a092dceadc66b0994b0bf156fe" target="_top" xlink:title="UBDocumentContainer\l::duplicatePages">
<polygon fill="white" stroke="black" points="354,-156 354,-190 472,-190 472,-156 354,-156"/>
<text text-anchor="start" x="362" y="-177" font-family="Helvetica,sans-Serif" font-size="10.00">UBDocumentContainer</text>
<text text-anchor="middle" x="413" y="-164" font-family="Helvetica,sans-Serif" font-size="10.00">::duplicatePages</text>
</a>
</g>
<!-- Node6&#45;&gt;Node7 -->
<g id="edge12" class="edge"><title>Node6&#45;&gt;Node7</title>
<path fill="none" stroke="midnightblue" d="M312.648,-141.181C328.023,-146.056 344.306,-151.219 359.18,-155.935"/>
<polygon fill="midnightblue" stroke="midnightblue" points="313.29,-137.713 302.7,-138.027 311.174,-144.386 313.29,-137.713"/>
</g>
<!-- Node12 -->
<g id="node23" class="node"><title>Node12</title>
<a xlink:href="../../dd/d5a/class_u_b_document_tree_model.html#af71ae3d84f577bbee154dea3eb0fad66" target="_top" xlink:title="UBDocumentTreeModel\l::dropMimeData">
<polygon fill="white" stroke="black" points="352,-104 352,-138 474,-138 474,-104 352,-104"/>
<text text-anchor="start" x="360" y="-125" font-family="Helvetica,sans-Serif" font-size="10.00">UBDocumentTreeModel</text>
<text text-anchor="middle" x="413" y="-112" font-family="Helvetica,sans-Serif" font-size="10.00">::dropMimeData</text>
</a>
</g>
<!-- Node6&#45;&gt;Node12 -->
<g id="edge22" class="edge"><title>Node6&#45;&gt;Node12</title>
<path fill="none" stroke="midnightblue" d="M319.366,-121C330.15,-121 341.207,-121 351.772,-121"/>
<polygon fill="midnightblue" stroke="midnightblue" points="319.136,-117.5 309.136,-121 319.136,-124.5 319.136,-117.5"/>
</g>
<!-- Node13 -->
<g id="node25" class="node"><title>Node13</title>
<a xlink:href="../../da/d16/class_u_b_document_tree_view.html#a8364df11d6b3285ea0684673801b0b6c" target="_top" xlink:title="UBDocumentTreeView\l::dropEvent">
<polygon fill="white" stroke="black" points="354.5,-52 354.5,-86 471.5,-86 471.5,-52 354.5,-52"/>
<text text-anchor="start" x="362.5" y="-73" font-family="Helvetica,sans-Serif" font-size="10.00">UBDocumentTreeView</text>
<text text-anchor="middle" x="413" y="-60" font-family="Helvetica,sans-Serif" font-size="10.00">::dropEvent</text>
</a>
</g>
<!-- Node6&#45;&gt;Node13 -->
<g id="edge24" class="edge"><title>Node6&#45;&gt;Node13</title>
<path fill="none" stroke="midnightblue" d="M312.648,-100.819C328.023,-95.9438 344.306,-90.7811 359.18,-86.065"/>
<polygon fill="midnightblue" stroke="midnightblue" points="311.174,-97.6144 302.7,-103.973 313.29,-104.287 311.174,-97.6144"/>
</g>
<!-- Node8 -->
<g id="node15" class="node"><title>Node8</title>
<a xlink:href="../../d7/d62/class_u_b_board_controller.html#ae84d5e3160402f05efcf708a8b81ba36" target="_top" xlink:title="UBBoardController:\l:duplicateScene">
<polygon fill="white" stroke="black" points="519.5,-156 519.5,-190 620.5,-190 620.5,-156 519.5,-156"/>
<text text-anchor="start" x="527.5" y="-177" font-family="Helvetica,sans-Serif" font-size="10.00">UBBoardController:</text>
<text text-anchor="middle" x="570" y="-164" font-family="Helvetica,sans-Serif" font-size="10.00">:duplicateScene</text>
</a>
</g>
<!-- Node7&#45;&gt;Node8 -->
<g id="edge14" class="edge"><title>Node7&#45;&gt;Node8</title>
<path fill="none" stroke="midnightblue" d="M482.623,-173C494.961,-173 507.596,-173 519.287,-173"/>
<polygon fill="midnightblue" stroke="midnightblue" points="482.355,-169.5 472.355,-173 482.355,-176.5 482.355,-169.5"/>
</g>
<!-- Node9 -->
<g id="node17" class="node"><title>Node9</title>
<a xlink:href="../../d6/de0/class_u_b_document_controller.html#a778970871dc49c20eb0812f352a65f75" target="_top" xlink:title="UBDocumentController\l::duplicateSelectedItem">
<polygon fill="white" stroke="black" points="510.5,-104 510.5,-138 629.5,-138 629.5,-104 510.5,-104"/>
<text text-anchor="start" x="518.5" y="-125" font-family="Helvetica,sans-Serif" font-size="10.00">UBDocumentController</text>
<text text-anchor="middle" x="570" y="-112" font-family="Helvetica,sans-Serif" font-size="10.00">::duplicateSelectedItem</text>
</a>
</g>
<!-- Node7&#45;&gt;Node9 -->
<g id="edge16" class="edge"><title>Node7&#45;&gt;Node9</title>
<path fill="none" stroke="midnightblue" d="M473.932,-152.819C488.65,-147.944 504.238,-142.781 518.477,-138.065"/>
<polygon fill="midnightblue" stroke="midnightblue" points="472.8,-149.507 464.408,-155.973 475.001,-156.152 472.8,-149.507"/>
</g>
<!-- Node10 -->
<g id="node19" class="node"><title>Node10</title>
<a xlink:href="../../d6/de0/class_u_b_document_controller.html#abb172787a34a34cd3c2df0a1b46918c5" target="_top" xlink:title="UBDocumentController\l::setupViews">
<polygon fill="white" stroke="black" points="666,-52 666,-86 784,-86 784,-52 666,-52"/>
<text text-anchor="start" x="674" y="-73" font-family="Helvetica,sans-Serif" font-size="10.00">UBDocumentController</text>
<text text-anchor="middle" x="725" y="-60" font-family="Helvetica,sans-Serif" font-size="10.00">::setupViews</text>
</a>
</g>
<!-- Node9&#45;&gt;Node10 -->
<g id="edge18" class="edge"><title>Node9&#45;&gt;Node10</title>
<path fill="none" stroke="midnightblue" d="M630.571,-100.679C644.98,-95.8455 660.209,-90.7362 674.133,-86.065"/>
<polygon fill="midnightblue" stroke="midnightblue" points="629.12,-97.4743 620.753,-103.973 631.347,-104.111 629.12,-97.4743"/>
</g>
<!-- Node11 -->
<g id="node21" class="node"><title>Node11</title>
<a xlink:href="../../d6/de0/class_u_b_document_controller.html#a38e9ea0a2dad2b1c8d9588563e9ee3bf" target="_top" xlink:title="UBDocumentController\l::UBDocumentController">
<polygon fill="white" stroke="black" points="820,-52 820,-86 944,-86 944,-52 820,-52"/>
<text text-anchor="start" x="828" y="-73" font-family="Helvetica,sans-Serif" font-size="10.00">UBDocumentController</text>
<text text-anchor="middle" x="882" y="-60" font-family="Helvetica,sans-Serif" font-size="10.00">::UBDocumentController</text>
</a>
</g>
<!-- Node10&#45;&gt;Node11 -->
<g id="edge20" class="edge"><title>Node10&#45;&gt;Node11</title>
<path fill="none" stroke="midnightblue" d="M794.569,-69C803.021,-69 811.613,-69 819.946,-69"/>
<polygon fill="midnightblue" stroke="midnightblue" points="794.355,-65.5001 784.355,-69 794.355,-72.5001 794.355,-65.5001"/>
</g>
<!-- Node15 -->
<g id="node29" class="node"><title>Node15</title>
<a xlink:href="../../da/dc6/class_u_b_document_container.html#a4deb511d6a7b576f325daf8aea188f54" target="_top" xlink:title="UBDocumentContainer\l::movePageToIndex">
<polygon fill="white" stroke="black" points="354,-0 354,-34 472,-34 472,-0 354,-0"/>
<text text-anchor="start" x="362" y="-21" font-family="Helvetica,sans-Serif" font-size="10.00">UBDocumentContainer</text>
<text text-anchor="middle" x="413" y="-8" font-family="Helvetica,sans-Serif" font-size="10.00">::movePageToIndex</text>
</a>
</g>
<!-- Node14&#45;&gt;Node15 -->
<g id="edge28" class="edge"><title>Node14&#45;&gt;Node15</title>
<path fill="none" stroke="midnightblue" d="M319.208,-31.8694C330.79,-30.0332 342.693,-28.1462 353.966,-26.359"/>
<polygon fill="midnightblue" stroke="midnightblue" points="318.465,-28.4435 309.136,-33.4662 319.561,-35.3571 318.465,-28.4435"/>
</g>
<!-- Node16 -->
<g id="node31" class="node"><title>Node16</title>
<a xlink:href="../../d7/d62/class_u_b_board_controller.html#aa7a87412c99f4e2c12b23468d946296e" target="_top" xlink:title="UBBoardController:\l:moveSceneToIndex">
<polygon fill="white" stroke="black" points="516.5,-52 516.5,-86 623.5,-86 623.5,-52 516.5,-52"/>
<text text-anchor="start" x="524.5" y="-73" font-family="Helvetica,sans-Serif" font-size="10.00">UBBoardController:</text>
<text text-anchor="middle" x="570" y="-60" font-family="Helvetica,sans-Serif" font-size="10.00">:moveSceneToIndex</text>
</a>
</g>
<!-- Node15&#45;&gt;Node16 -->
<g id="edge30" class="edge"><title>Node15&#45;&gt;Node16</title>
<path fill="none" stroke="midnightblue" d="M473.932,-37.1812C488.65,-42.0562 504.238,-47.2189 518.477,-51.935"/>
<polygon fill="midnightblue" stroke="midnightblue" points="475.001,-33.8484 464.408,-34.0267 472.8,-40.4934 475.001,-33.8484"/>
</g>
<!-- Node17 -->
<g id="node33" class="node"><title>Node17</title>
<a xlink:href="../../d6/de0/class_u_b_document_controller.html#a22171aa28307863bd0340d75aa36718d" target="_top" xlink:title="UBDocumentController\l::moveSceneToIndex">
<polygon fill="white" stroke="black" points="511,-0 511,-34 629,-34 629,-0 511,-0"/>
<text text-anchor="start" x="519" y="-21" font-family="Helvetica,sans-Serif" font-size="10.00">UBDocumentController</text>
<text text-anchor="middle" x="570" y="-8" font-family="Helvetica,sans-Serif" font-size="10.00">::moveSceneToIndex</text>
</a>
</g>
<!-- Node15&#45;&gt;Node17 -->
<g id="edge32" class="edge"><title>Node15&#45;&gt;Node17</title>
<path fill="none" stroke="midnightblue" d="M482.51,-17C491.957,-17 501.58,-17 510.822,-17"/>
<polygon fill="midnightblue" stroke="midnightblue" points="482.355,-13.5001 472.355,-17 482.355,-20.5001 482.355,-13.5001"/>
</g>
<!-- Node17&#45;&gt;Node10 -->
<g id="edge34" class="edge"><title>Node17&#45;&gt;Node10</title>
<path fill="none" stroke="midnightblue" d="M630.571,-37.3205C644.98,-42.1545 660.209,-47.2638 674.133,-51.935"/>
<polygon fill="midnightblue" stroke="midnightblue" points="631.347,-33.8892 620.753,-34.0267 629.12,-40.5257 631.347,-33.8892"/>
</g>
</g>
</svg>
