<?xml version="1.0" encoding="UTF-8" standalone="no"?>
<!DOCTYPE svg PUBLIC "-//W3C//DTD SVG 1.1//EN"
 "http://www.w3.org/Graphics/SVG/1.1/DTD/svg11.dtd">
<!-- Generated by graphviz version 2.26.3 (20100126.1600)
 -->
<!-- Title: UBSceneCache::moveScene Pages: 1 -->
<svg width="1460pt" height="318pt"
 viewBox="0.00 0.00 1460.00 318.00" xmlns="http://www.w3.org/2000/svg" xmlns:xlink="http://www.w3.org/1999/xlink">
<g id="graph1" class="graph" transform="scale(1 1) rotate(0) translate(4 314)">
<title>UBSceneCache::moveScene</title>
<polygon fill="white" stroke="white" points="-4,5 -4,-314 1457,-314 1457,5 -4,5"/>
<!-- Node1 -->
<g id="node1" class="node"><title>Node1</title>
<polygon fill="#bfbfbf" stroke="black" points="0.5,-244.5 0.5,-265.5 145.5,-265.5 145.5,-244.5 0.5,-244.5"/>
<text text-anchor="middle" x="73" y="-252.5" font-family="Helvetica,sans-Serif" font-size="10.00">UBSceneCache::moveScene</text>
</g>
<!-- Node2 -->
<g id="node3" class="node"><title>Node2</title>
<a xlink:href="../../d2/d79/class_u_b_scene_cache.html#ac4c9c227f72baf18cfeee1f8916f787a" target="_top" xlink:title="UBSceneCache::value">
<polygon fill="white" stroke="black" points="926,-262.5 926,-283.5 1042,-283.5 1042,-262.5 926,-262.5"/>
<text text-anchor="middle" x="984" y="-270.5" font-family="Helvetica,sans-Serif" font-size="10.00">UBSceneCache::value</text>
</a>
</g>
<!-- Node1&#45;&gt;Node2 -->
<g id="edge2" class="edge"><title>Node1&#45;&gt;Node2</title>
<path fill="none" stroke="midnightblue" d="M113.83,-265.539C179.39,-281.51 312.404,-310 427,-310 427,-310 427,-310 602,-310 712.317,-310 839.722,-294.524 915.969,-283.59"/>
<polygon fill="midnightblue" stroke="midnightblue" points="916.529,-287.045 925.924,-282.146 915.525,-280.117 916.529,-287.045"/>
</g>
<!-- Node3 -->
<g id="node5" class="node"><title>Node3</title>
<a xlink:href="../../d2/d79/class_u_b_scene_cache.html#a16417fd70405280bcc6bdd6c5cb94ef0" target="_top" xlink:title="UBSceneCache::internalMove\lScene">
<polygon fill="white" stroke="black" points="182.5,-193 182.5,-227 331.5,-227 331.5,-193 182.5,-193"/>
<text text-anchor="start" x="190.5" y="-214" font-family="Helvetica,sans-Serif" font-size="10.00">UBSceneCache::internalMove</text>
<text text-anchor="middle" x="257" y="-201" font-family="Helvetica,sans-Serif" font-size="10.00">Scene</text>
</a>
</g>
<!-- Node1&#45;&gt;Node3 -->
<g id="edge4" class="edge"><title>Node1&#45;&gt;Node3</title>
<path fill="none" stroke="midnightblue" d="M116.14,-244.449C134.388,-239.987 156.248,-234.64 177.243,-229.506"/>
<polygon fill="midnightblue" stroke="midnightblue" points="178.253,-232.862 187.135,-227.087 176.59,-226.062 178.253,-232.862"/>
</g>
<!-- Node4 -->
<g id="node7" class="node"><title>Node4</title>
<a xlink:href="../../d2/d79/class_u_b_scene_cache.html#aa3377f2b95c0245c99e6ee6932f78472" target="_top" xlink:title="UBSceneCache::insert">
<polygon fill="white" stroke="black" points="368.5,-199.5 368.5,-220.5 485.5,-220.5 485.5,-199.5 368.5,-199.5"/>
<text text-anchor="middle" x="427" y="-207.5" font-family="Helvetica,sans-Serif" font-size="10.00">UBSceneCache::insert</text>
</a>
</g>
<!-- Node1&#45;&gt;Node4 -->
<g id="edge42" class="edge"><title>Node1&#45;&gt;Node4</title>
<path fill="none" stroke="midnightblue" d="M145.745,-253.428C197.908,-251.387 269.68,-246.709 332,-236 349.445,-233.002 368.315,-228.178 384.605,-223.494"/>
<polygon fill="midnightblue" stroke="midnightblue" points="385.776,-226.797 394.379,-220.613 383.797,-220.083 385.776,-226.797"/>
</g>
<!-- Node3&#45;&gt;Node4 -->
<g id="edge6" class="edge"><title>Node3&#45;&gt;Node4</title>
<path fill="none" stroke="midnightblue" d="M331.564,-210C340.413,-210 349.415,-210 358.179,-210"/>
<polygon fill="midnightblue" stroke="midnightblue" points="358.334,-213.5 368.334,-210 358.334,-206.5 358.334,-213.5"/>
</g>
<!-- Node5 -->
<g id="node9" class="node"><title>Node5</title>
<a xlink:href="../../db/d66/class_u_b_settings.html#a0d8ed418921c2b2d37851faeae00715d" target="_top" xlink:title="UBSettings::settings">
<polygon fill="white" stroke="black" points="548.5,-191.5 548.5,-212.5 655.5,-212.5 655.5,-191.5 548.5,-191.5"/>
<text text-anchor="middle" x="602" y="-199.5" font-family="Helvetica,sans-Serif" font-size="10.00">UBSettings::settings</text>
</a>
</g>
<!-- Node4&#45;&gt;Node5 -->
<g id="edge8" class="edge"><title>Node4&#45;&gt;Node5</title>
<path fill="none" stroke="midnightblue" d="M485.759,-207.314C502.534,-206.547 520.894,-205.708 537.967,-204.927"/>
<polygon fill="midnightblue" stroke="midnightblue" points="538.576,-208.403 548.406,-204.45 538.256,-201.41 538.576,-208.403"/>
</g>
<!-- Node15 -->
<g id="node30" class="node"><title>Node15</title>
<a xlink:href="../../d2/d79/class_u_b_scene_cache.html#a3fb8dc0f975cefa634cf97c15c478e0c" target="_top" xlink:title="UBSceneCache::compactCache">
<polygon fill="white" stroke="black" points="522.5,-231.5 522.5,-252.5 681.5,-252.5 681.5,-231.5 522.5,-231.5"/>
<text text-anchor="middle" x="602" y="-239.5" font-family="Helvetica,sans-Serif" font-size="10.00">UBSceneCache::compactCache</text>
</a>
</g>
<!-- Node4&#45;&gt;Node15 -->
<g id="edge30" class="edge"><title>Node4&#45;&gt;Node15</title>
<path fill="none" stroke="midnightblue" d="M484.787,-220.567C500.699,-223.476 518.098,-226.658 534.507,-229.658"/>
<polygon fill="midnightblue" stroke="midnightblue" points="534.106,-233.143 544.573,-231.499 535.365,-226.257 534.106,-233.143"/>
</g>
<!-- Node18 -->
<g id="node38" class="node"><title>Node18</title>
<a xlink:href="../../dc/db2/class_u_b_graphics_scene.html#a3d3e53091814e68510f12c4b40649e1b" target="_top" xlink:title="UBGraphicsScene::setView\lState">
<polygon fill="white" stroke="black" points="532.5,-139 532.5,-173 671.5,-173 671.5,-139 532.5,-139"/>
<text text-anchor="start" x="540.5" y="-160" font-family="Helvetica,sans-Serif" font-size="10.00">UBGraphicsScene::setView</text>
<text text-anchor="middle" x="602" y="-147" font-family="Helvetica,sans-Serif" font-size="10.00">State</text>
</a>
</g>
<!-- Node4&#45;&gt;Node18 -->
<g id="edge40" class="edge"><title>Node4&#45;&gt;Node18</title>
<path fill="none" stroke="midnightblue" d="M461.157,-199.46C482.678,-192.819 511.161,-184.03 536.879,-176.094"/>
<polygon fill="midnightblue" stroke="midnightblue" points="538.057,-179.394 546.58,-173.101 535.993,-172.705 538.057,-179.394"/>
</g>
<!-- Node6 -->
<g id="node11" class="node"><title>Node6</title>
<a xlink:href="../../db/d66/class_u_b_settings.html#ad703e9b5a7efdb68b9c6ecef0df7cce2" target="_top" xlink:title="UBSettings::UBSettings">
<polygon fill="white" stroke="black" points="733.5,-153.5 733.5,-174.5 856.5,-174.5 856.5,-153.5 733.5,-153.5"/>
<text text-anchor="middle" x="795" y="-161.5" font-family="Helvetica,sans-Serif" font-size="10.00">UBSettings::UBSettings</text>
</a>
</g>
<!-- Node5&#45;&gt;Node6 -->
<g id="edge10" class="edge"><title>Node5&#45;&gt;Node6</title>
<path fill="none" stroke="midnightblue" d="M655.505,-191.465C679.037,-186.832 706.856,-181.355 731.435,-176.515"/>
<polygon fill="midnightblue" stroke="midnightblue" points="732.255,-179.921 741.391,-174.555 730.903,-173.053 732.255,-179.921"/>
</g>
<!-- Node7 -->
<g id="node13" class="node"><title>Node7</title>
<a xlink:href="../../db/d66/class_u_b_settings.html#afd0d739b2cfac7e2d05be7415f6692df" target="_top" xlink:title="UBSettings::InitKeyboard\lPaletteKeyBtnSizes">
<polygon fill="white" stroke="black" points="920,-170 920,-204 1048,-204 1048,-170 920,-170"/>
<text text-anchor="start" x="928" y="-191" font-family="Helvetica,sans-Serif" font-size="10.00">UBSettings::InitKeyboard</text>
<text text-anchor="middle" x="984" y="-178" font-family="Helvetica,sans-Serif" font-size="10.00">PaletteKeyBtnSizes</text>
</a>
</g>
<!-- Node6&#45;&gt;Node7 -->
<g id="edge12" class="edge"><title>Node6&#45;&gt;Node7</title>
<path fill="none" stroke="midnightblue" d="M856.624,-171.499C873.553,-173.559 892.091,-175.815 909.654,-177.953"/>
<polygon fill="midnightblue" stroke="midnightblue" points="909.513,-181.461 919.863,-179.195 910.359,-174.512 909.513,-181.461"/>
</g>
<!-- Node8 -->
<g id="node15" class="node"><title>Node8</title>
<a xlink:href="../../db/d66/class_u_b_settings.html#a2d3413f8b25d64a698d6d83e0f18ff39" target="_top" xlink:title="UBSettings::getAppSettings">
<polygon fill="white" stroke="black" points="1098,-132.5 1098,-153.5 1238,-153.5 1238,-132.5 1098,-132.5"/>
<text text-anchor="middle" x="1168" y="-140.5" font-family="Helvetica,sans-Serif" font-size="10.00">UBSettings::getAppSettings</text>
</a>
</g>
<!-- Node6&#45;&gt;Node8 -->
<g id="edge14" class="edge"><title>Node6&#45;&gt;Node8</title>
<path fill="none" stroke="midnightblue" d="M856.593,-160.532C919.802,-156.974 1018.44,-151.42 1087.73,-147.519"/>
<polygon fill="midnightblue" stroke="midnightblue" points="1087.94,-151.013 1097.73,-146.956 1087.55,-144.024 1087.94,-151.013"/>
</g>
<!-- Node10 -->
<g id="node19" class="node"><title>Node10</title>
<a xlink:href="../../db/d66/class_u_b_settings.html#af38d2ad231149df734ca7b5486356500" target="_top" xlink:title="UBSettings::userDataDirectory">
<polygon fill="white" stroke="black" points="908,-92.5 908,-113.5 1060,-113.5 1060,-92.5 908,-92.5"/>
<text text-anchor="middle" x="984" y="-100.5" font-family="Helvetica,sans-Serif" font-size="10.00">UBSettings::userDataDirectory</text>
</a>
</g>
<!-- Node6&#45;&gt;Node10 -->
<g id="edge18" class="edge"><title>Node6&#45;&gt;Node10</title>
<path fill="none" stroke="midnightblue" d="M827.921,-153.375C859.494,-143.184 907.311,-127.752 941.695,-116.654"/>
<polygon fill="midnightblue" stroke="midnightblue" points="943.014,-119.906 951.456,-113.504 940.864,-113.244 943.014,-119.906"/>
</g>
<!-- Node9 -->
<g id="node17" class="node"><title>Node9</title>
<a xlink:href="../../d4/d99/class_u_b_platform_utils.html#ae595b29e794b20564550fd45515fc0a8" target="_top" xlink:title="UBPlatformUtils::application\lResourcesDirectory">
<polygon fill="white" stroke="black" points="1294,-129 1294,-163 1434,-163 1434,-129 1294,-129"/>
<text text-anchor="start" x="1302" y="-150" font-family="Helvetica,sans-Serif" font-size="10.00">UBPlatformUtils::application</text>
<text text-anchor="middle" x="1364" y="-137" font-family="Helvetica,sans-Serif" font-size="10.00">ResourcesDirectory</text>
</a>
</g>
<!-- Node8&#45;&gt;Node9 -->
<g id="edge16" class="edge"><title>Node8&#45;&gt;Node9</title>
<path fill="none" stroke="midnightblue" d="M1238.21,-144.075C1252.93,-144.3 1268.57,-144.539 1283.64,-144.77"/>
<polygon fill="midnightblue" stroke="midnightblue" points="1283.9,-148.274 1293.95,-144.928 1284.01,-141.275 1283.9,-148.274"/>
</g>
<!-- Node10&#45;&gt;Node8 -->
<g id="edge20" class="edge"><title>Node10&#45;&gt;Node8</title>
<path fill="none" stroke="midnightblue" d="M1032.34,-113.51C1056.02,-118.657 1084.72,-124.895 1109.61,-130.307"/>
<polygon fill="midnightblue" stroke="midnightblue" points="1109.14,-133.787 1119.66,-132.491 1110.63,-126.947 1109.14,-133.787"/>
</g>
<!-- Node11 -->
<g id="node22" class="node"><title>Node11</title>
<a xlink:href="../../db/d66/class_u_b_settings.html#aea5fec9db96c03162c2ce1d5d4c41ab0" target="_top" xlink:title="UBSettings::replaceWildcard">
<polygon fill="white" stroke="black" points="1096.5,-92.5 1096.5,-113.5 1239.5,-113.5 1239.5,-92.5 1096.5,-92.5"/>
<text text-anchor="middle" x="1168" y="-100.5" font-family="Helvetica,sans-Serif" font-size="10.00">UBSettings::replaceWildcard</text>
</a>
</g>
<!-- Node10&#45;&gt;Node11 -->
<g id="edge22" class="edge"><title>Node10&#45;&gt;Node11</title>
<path fill="none" stroke="midnightblue" d="M1060.17,-103C1068.77,-103 1077.55,-103 1086.22,-103"/>
<polygon fill="midnightblue" stroke="midnightblue" points="1086.32,-106.5 1096.32,-103 1086.32,-99.5001 1086.32,-106.5"/>
</g>
<!-- Node13 -->
<g id="node26" class="node"><title>Node13</title>
<a xlink:href="../../db/d66/class_u_b_settings.html#ac0b3c85870c353e48b7d2cfdff9e0eaa" target="_top" xlink:title="UBSettings::checkDirectory">
<polygon fill="white" stroke="black" points="1098.5,-52.5 1098.5,-73.5 1237.5,-73.5 1237.5,-52.5 1098.5,-52.5"/>
<text text-anchor="middle" x="1168" y="-60.5" font-family="Helvetica,sans-Serif" font-size="10.00">UBSettings::checkDirectory</text>
</a>
</g>
<!-- Node10&#45;&gt;Node13 -->
<g id="edge26" class="edge"><title>Node10&#45;&gt;Node13</title>
<path fill="none" stroke="midnightblue" d="M1032.34,-92.4905C1056.02,-87.3434 1084.72,-81.1046 1109.61,-75.6933"/>
<polygon fill="midnightblue" stroke="midnightblue" points="1110.63,-79.0532 1119.66,-73.5087 1109.14,-72.213 1110.63,-79.0532"/>
</g>
<!-- Node14 -->
<g id="node28" class="node"><title>Node14</title>
<a xlink:href="../../d2/d7a/class_u_b_file_system_utils.html#af850f64fdd630fc78510c856f00ffa4f" target="_top" xlink:title="UBFileSystemUtils:\l:normalizeFilePath">
<polygon fill="white" stroke="black" points="1116,-0 1116,-34 1220,-34 1220,-0 1116,-0"/>
<text text-anchor="start" x="1124" y="-21" font-family="Helvetica,sans-Serif" font-size="10.00">UBFileSystemUtils:</text>
<text text-anchor="middle" x="1168" y="-8" font-family="Helvetica,sans-Serif" font-size="10.00">:normalizeFilePath</text>
</a>
</g>
<!-- Node10&#45;&gt;Node14 -->
<g id="edge28" class="edge"><title>Node10&#45;&gt;Node14</title>
<path fill="none" stroke="midnightblue" d="M1001.83,-92.4031C1023.6,-79.7134 1061.75,-58.2628 1096,-43 1099.89,-41.2657 1103.94,-39.558 1108.04,-37.8974"/>
<polygon fill="midnightblue" stroke="midnightblue" points="1109.63,-41.0316 1117.66,-34.1179 1107.08,-34.5162 1109.63,-41.0316"/>
</g>
<!-- Node12 -->
<g id="node24" class="node"><title>Node12</title>
<a xlink:href="../../d4/d99/class_u_b_platform_utils.html#a4ff6063df12b6d4d0c60c1a17b434599" target="_top" xlink:title="UBPlatformUtils::osUserLoginName">
<polygon fill="white" stroke="black" points="1276.5,-89.5 1276.5,-110.5 1451.5,-110.5 1451.5,-89.5 1276.5,-89.5"/>
<text text-anchor="middle" x="1364" y="-97.5" font-family="Helvetica,sans-Serif" font-size="10.00">UBPlatformUtils::osUserLoginName</text>
</a>
</g>
<!-- Node11&#45;&gt;Node12 -->
<g id="edge24" class="edge"><title>Node11&#45;&gt;Node12</title>
<path fill="none" stroke="midnightblue" d="M1239.59,-101.904C1248.25,-101.772 1257.21,-101.635 1266.17,-101.497"/>
<polygon fill="midnightblue" stroke="midnightblue" points="1266.32,-104.996 1276.26,-101.343 1266.21,-97.9965 1266.32,-104.996"/>
</g>
<!-- Node15&#45;&gt;Node2 -->
<g id="edge32" class="edge"><title>Node15&#45;&gt;Node2</title>
<path fill="none" stroke="midnightblue" d="M681.541,-249.75C693.749,-250.879 706.208,-251.998 718,-253 785.193,-258.711 862.009,-264.396 915.761,-268.237"/>
<polygon fill="midnightblue" stroke="midnightblue" points="915.634,-271.737 925.857,-268.956 916.131,-264.754 915.634,-271.737"/>
</g>
<!-- Node16 -->
<g id="node33" class="node"><title>Node16</title>
<a xlink:href="../../d2/d79/class_u_b_scene_cache.html#a4da553675ded30f59bff960dbaab6d71" target="_top" xlink:title="UBSceneCache::removeScene">
<polygon fill="white" stroke="black" points="718.5,-222.5 718.5,-243.5 871.5,-243.5 871.5,-222.5 718.5,-222.5"/>
<text text-anchor="middle" x="795" y="-230.5" font-family="Helvetica,sans-Serif" font-size="10.00">UBSceneCache::removeScene</text>
</a>
</g>
<!-- Node15&#45;&gt;Node16 -->
<g id="edge34" class="edge"><title>Node15&#45;&gt;Node16</title>
<path fill="none" stroke="midnightblue" d="M681.615,-238.287C690.442,-237.876 699.463,-237.455 708.371,-237.04"/>
<polygon fill="midnightblue" stroke="midnightblue" points="708.538,-240.536 718.364,-236.574 708.212,-233.543 708.538,-240.536"/>
</g>
<!-- Node16&#45;&gt;Node2 -->
<g id="edge36" class="edge"><title>Node16&#45;&gt;Node2</title>
<path fill="none" stroke="midnightblue" d="M844.658,-243.51C869.085,-248.679 898.718,-254.951 924.365,-260.379"/>
<polygon fill="midnightblue" stroke="midnightblue" points="923.838,-263.845 934.346,-262.491 925.288,-256.997 923.838,-263.845"/>
</g>
<!-- Node17 -->
<g id="node36" class="node"><title>Node17</title>
<a xlink:href="../../dc/db2/class_u_b_graphics_scene.html#a2c461538b738de847dfe029bb27b7439" target="_top" xlink:title="UBGraphicsScene::viewState">
<polygon fill="white" stroke="black" points="910.5,-222.5 910.5,-243.5 1057.5,-243.5 1057.5,-222.5 910.5,-222.5"/>
<text text-anchor="middle" x="984" y="-230.5" font-family="Helvetica,sans-Serif" font-size="10.00">UBGraphicsScene::viewState</text>
</a>
</g>
<!-- Node16&#45;&gt;Node17 -->
<g id="edge38" class="edge"><title>Node16&#45;&gt;Node17</title>
<path fill="none" stroke="midnightblue" d="M871.601,-233C880.994,-233 890.632,-233 900.125,-233"/>
<polygon fill="midnightblue" stroke="midnightblue" points="900.351,-236.5 910.351,-233 900.351,-229.5 900.351,-236.5"/>
</g>
</g>
</svg>
