<?xml version="1.0" encoding="UTF-8" standalone="no"?>
<!DOCTYPE svg PUBLIC "-//W3C//DTD SVG 1.1//EN"
 "http://www.w3.org/Graphics/SVG/1.1/DTD/svg11.dtd">
<!-- Generated by graphviz version 2.26.3 (20100126.1600)
 -->
<!-- Title: UBSceneCache::removeAllScenes Pages: 1 -->
<svg width="554pt" height="90pt"
 viewBox="0.00 0.00 554.00 90.00" xmlns="http://www.w3.org/2000/svg" xmlns:xlink="http://www.w3.org/1999/xlink">
<g id="graph1" class="graph" transform="scale(1 1) rotate(0) translate(4 86)">
<title>UBSceneCache::removeAllScenes</title>
<polygon fill="white" stroke="white" points="-4,5 -4,-86 551,-86 551,5 -4,5"/>
<!-- Node1 -->
<g id="node1" class="node"><title>Node1</title>
<polygon fill="#bfbfbf" stroke="black" points="0,-40.5 0,-61.5 170,-61.5 170,-40.5 0,-40.5"/>
<text text-anchor="middle" x="85" y="-48.5" font-family="Helvetica,sans-Serif" font-size="10.00">UBSceneCache::removeAllScenes</text>
</g>
<!-- Node2 -->
<g id="node3" class="node"><title>Node2</title>
<a xlink:href="../../de/db4/class_u_b_document_proxy.html#a464a6a010deaeab87070628041bb7c0e" target="_top" xlink:title="UBDocumentProxy::pageCount">
<polygon fill="white" stroke="black" points="206.5,-60.5 206.5,-81.5 361.5,-81.5 361.5,-60.5 206.5,-60.5"/>
<text text-anchor="middle" x="284" y="-68.5" font-family="Helvetica,sans-Serif" font-size="10.00">UBDocumentProxy::pageCount</text>
</a>
</g>
<!-- Node1&#45;&gt;Node2 -->
<g id="edge2" class="edge"><title>Node1&#45;&gt;Node2</title>
<path fill="none" stroke="midnightblue" d="M170.26,-59.5688C178.904,-60.4376 187.694,-61.321 196.362,-62.1922"/>
<polygon fill="midnightblue" stroke="midnightblue" points="196.166,-65.69 206.466,-63.2076 196.866,-58.7251 196.166,-65.69"/>
</g>
<!-- Node3 -->
<g id="node5" class="node"><title>Node3</title>
<a xlink:href="../../d2/d79/class_u_b_scene_cache.html#a4da553675ded30f59bff960dbaab6d71" target="_top" xlink:title="UBSceneCache::removeScene">
<polygon fill="white" stroke="black" points="207.5,-20.5 207.5,-41.5 360.5,-41.5 360.5,-20.5 207.5,-20.5"/>
<text text-anchor="middle" x="284" y="-28.5" font-family="Helvetica,sans-Serif" font-size="10.00">UBSceneCache::removeScene</text>
</a>
</g>
<!-- Node1&#45;&gt;Node3 -->
<g id="edge4" class="edge"><title>Node1&#45;&gt;Node3</title>
<path fill="none" stroke="midnightblue" d="M170.26,-42.4312C179.228,-41.5299 188.353,-40.6128 197.336,-39.7099"/>
<polygon fill="midnightblue" stroke="midnightblue" points="197.802,-43.1808 207.402,-38.6983 197.102,-36.2159 197.802,-43.1808"/>
</g>
<!-- Node4 -->
<g id="node7" class="node"><title>Node4</title>
<a xlink:href="../../d2/d79/class_u_b_scene_cache.html#ac4c9c227f72baf18cfeee1f8916f787a" target="_top" xlink:title="UBSceneCache::value">
<polygon fill="white" stroke="black" points="414,-40.5 414,-61.5 530,-61.5 530,-40.5 414,-40.5"/>
<text text-anchor="middle" x="472" y="-48.5" font-family="Helvetica,sans-Serif" font-size="10.00">UBSceneCache::value</text>
</a>
</g>
<!-- Node3&#45;&gt;Node4 -->
<g id="edge6" class="edge"><title>Node3&#45;&gt;Node4</title>
<path fill="none" stroke="midnightblue" d="M360.738,-39.1636C375.036,-40.6846 389.885,-42.2644 403.901,-43.7554"/>
<polygon fill="midnightblue" stroke="midnightblue" points="403.626,-47.2458 413.94,-44.8234 404.366,-40.2851 403.626,-47.2458"/>
</g>
<!-- Node5 -->
<g id="node9" class="node"><title>Node5</title>
<a xlink:href="../../dc/db2/class_u_b_graphics_scene.html#a2c461538b738de847dfe029bb27b7439" target="_top" xlink:title="UBGraphicsScene::viewState">
<polygon fill="white" stroke="black" points="398.5,-0.5 398.5,-21.5 545.5,-21.5 545.5,-0.5 398.5,-0.5"/>
<text text-anchor="middle" x="472" y="-8.5" font-family="Helvetica,sans-Serif" font-size="10.00">UBGraphicsScene::viewState</text>
</a>
</g>
<!-- Node3&#45;&gt;Node5 -->
<g id="edge8" class="edge"><title>Node3&#45;&gt;Node5</title>
<path fill="none" stroke="midnightblue" d="M360.738,-22.8364C369.738,-21.879 378.956,-20.8983 388.048,-19.9311"/>
<polygon fill="midnightblue" stroke="midnightblue" points="388.667,-23.3851 398.24,-18.8468 387.926,-16.4244 388.667,-23.3851"/>
</g>
</g>
</svg>
