<?xml version="1.0" encoding="UTF-8" standalone="no"?>
<!DOCTYPE svg PUBLIC "-//W3C//DTD SVG 1.1//EN"
 "http://www.w3.org/Graphics/SVG/1.1/DTD/svg11.dtd">
<!-- Generated by graphviz version 2.26.3 (20100126.1600)
 -->
<!-- Title: UBWebPage.h Pages: 1 -->
<svg width="974pt" height="320pt"
 viewBox="0.00 0.00 974.00 320.00" xmlns="http://www.w3.org/2000/svg" xmlns:xlink="http://www.w3.org/1999/xlink">
<g id="graph1" class="graph" transform="scale(1 1) rotate(0) translate(4 316)">
<title>UBWebPage.h</title>
<polygon fill="white" stroke="white" points="-4,5 -4,-316 971,-316 971,5 -4,5"/>
<!-- Node1 -->
<g id="node1" class="node"><title>Node1</title>
<polygon fill="#bfbfbf" stroke="black" points="513,-290.5 513,-311.5 595,-311.5 595,-290.5 513,-290.5"/>
<text text-anchor="middle" x="554" y="-298.5" font-family="Helvetica,sans-Serif" font-size="10.00">UBWebPage.h</text>
</g>
<!-- Node2 -->
<g id="node3" class="node"><title>Node2</title>
<a xlink:href="../../df/d5a/_u_b_board_palette_manager_8cpp.html" target="_top" xlink:title="UBBoardPaletteManager.cpp">
<polygon fill="white" stroke="black" points="-0.5,-174.5 -0.5,-195.5 142.5,-195.5 142.5,-174.5 -0.5,-174.5"/>
<text text-anchor="middle" x="71" y="-182.5" font-family="Helvetica,sans-Serif" font-size="10.00">UBBoardPaletteManager.cpp</text>
</a>
</g>
<!-- Node1&#45;&gt;Node2 -->
<g id="edge2" class="edge"><title>Node1&#45;&gt;Node2</title>
<path fill="none" stroke="midnightblue" d="M502.982,-289.655C461.255,-280.305 400.741,-266.584 348,-254 264.121,-233.986 166.298,-209.302 112.236,-195.543"/>
<polygon fill="midnightblue" stroke="midnightblue" points="502.382,-293.107 512.905,-291.876 503.911,-286.276 502.382,-293.107"/>
</g>
<!-- Node3 -->
<g id="node5" class="node"><title>Node3</title>
<a xlink:href="../../d6/dda/_u_b_graphics_widget_item_8cpp.html" target="_top" xlink:title="UBGraphicsWidgetItem.cpp">
<polygon fill="white" stroke="black" points="356.5,-232.5 356.5,-253.5 495.5,-253.5 495.5,-232.5 356.5,-232.5"/>
<text text-anchor="middle" x="426" y="-240.5" font-family="Helvetica,sans-Serif" font-size="10.00">UBGraphicsWidgetItem.cpp</text>
</a>
</g>
<!-- Node1&#45;&gt;Node3 -->
<g id="edge4" class="edge"><title>Node1&#45;&gt;Node3</title>
<path fill="none" stroke="midnightblue" d="M521.654,-286.343C499.159,-276.15 469.691,-262.798 449.44,-253.621"/>
<polygon fill="midnightblue" stroke="midnightblue" points="520.267,-289.557 530.82,-290.497 523.156,-283.181 520.267,-289.557"/>
</g>
<!-- Node4 -->
<g id="node7" class="node"><title>Node4</title>
<a xlink:href="../../dc/dcd/_w_b_web_view_8h.html" target="_top" xlink:title="WBWebView.h">
<polygon fill="white" stroke="black" points="512.5,-232.5 512.5,-253.5 595.5,-253.5 595.5,-232.5 512.5,-232.5"/>
<text text-anchor="middle" x="554" y="-240.5" font-family="Helvetica,sans-Serif" font-size="10.00">WBWebView.h</text>
</a>
</g>
<!-- Node1&#45;&gt;Node4 -->
<g id="edge6" class="edge"><title>Node1&#45;&gt;Node4</title>
<path fill="none" stroke="midnightblue" d="M554,-280.191C554,-271.168 554,-260.994 554,-253.571"/>
<polygon fill="midnightblue" stroke="midnightblue" points="550.5,-280.362 554,-290.362 557.5,-280.362 550.5,-280.362"/>
</g>
<!-- Node19 -->
<g id="node42" class="node"><title>Node19</title>
<a xlink:href="../../d0/d19/_w_b_web_view_8cpp.html" target="_top" xlink:title="WBWebView.cpp">
<polygon fill="white" stroke="black" points="872,-174.5 872,-195.5 966,-195.5 966,-174.5 872,-174.5"/>
<text text-anchor="middle" x="919" y="-182.5" font-family="Helvetica,sans-Serif" font-size="10.00">WBWebView.cpp</text>
</a>
</g>
<!-- Node1&#45;&gt;Node19 -->
<g id="edge50" class="edge"><title>Node1&#45;&gt;Node19</title>
<path fill="none" stroke="midnightblue" d="M571.251,-283.09C587.825,-267.03 614.366,-244.177 642,-232 731.061,-192.755 762.108,-212.636 858,-196 862.453,-195.227 867.087,-194.412 871.722,-193.589"/>
<polygon fill="midnightblue" stroke="midnightblue" points="568.573,-280.817 563.954,-290.352 573.511,-285.779 568.573,-280.817"/>
</g>
<!-- Node20 -->
<g id="node46" class="node"><title>Node20</title>
<a xlink:href="../../df/d2c/_u_b_web_page_8cpp.html" target="_top" xlink:title="UBWebPage.cpp">
<polygon fill="white" stroke="black" points="651,-232.5 651,-253.5 743,-253.5 743,-232.5 651,-232.5"/>
<text text-anchor="middle" x="697" y="-240.5" font-family="Helvetica,sans-Serif" font-size="10.00">UBWebPage.cpp</text>
</a>
</g>
<!-- Node1&#45;&gt;Node20 -->
<g id="edge52" class="edge"><title>Node1&#45;&gt;Node20</title>
<path fill="none" stroke="midnightblue" d="M589.466,-286.615C614.679,-276.389 647.987,-262.88 670.813,-253.621"/>
<polygon fill="midnightblue" stroke="midnightblue" points="587.847,-283.495 579.896,-290.497 590.479,-289.981 587.847,-283.495"/>
</g>
<!-- Node4&#45;&gt;Node2 -->
<g id="edge8" class="edge"><title>Node4&#45;&gt;Node2</title>
<path fill="none" stroke="midnightblue" d="M502.061,-231.817C348.716,-207.533 307.131,-213.593 156,-196 151.714,-195.501 147.308,-194.974 142.864,-194.432"/>
<polygon fill="midnightblue" stroke="midnightblue" points="501.898,-235.335 512.326,-233.461 503.005,-228.423 501.898,-235.335"/>
</g>
<!-- Node5 -->
<g id="node10" class="node"><title>Node5</title>
<a xlink:href="../../da/d89/_u_b_podcast_controller_8cpp.html" target="_top" xlink:title="UBPodcastController.cpp">
<polygon fill="white" stroke="black" points="688,-174.5 688,-195.5 816,-195.5 816,-174.5 688,-174.5"/>
<text text-anchor="middle" x="752" y="-182.5" font-family="Helvetica,sans-Serif" font-size="10.00">UBPodcastController.cpp</text>
</a>
</g>
<!-- Node4&#45;&gt;Node5 -->
<g id="edge10" class="edge"><title>Node4&#45;&gt;Node5</title>
<path fill="none" stroke="midnightblue" d="M599.473,-229.68C634.883,-219.307 683.356,-205.108 716.076,-195.523"/>
<polygon fill="midnightblue" stroke="midnightblue" points="598.469,-226.327 589.856,-232.497 600.437,-233.044 598.469,-226.327"/>
</g>
<!-- Node6 -->
<g id="node12" class="node"><title>Node6</title>
<a xlink:href="../../d4/d69/_w_b_url_line_edit_8h.html" target="_top" xlink:title="WBUrlLineEdit.h">
<polygon fill="white" stroke="black" points="581.5,-174.5 581.5,-195.5 670.5,-195.5 670.5,-174.5 581.5,-174.5"/>
<text text-anchor="middle" x="626" y="-182.5" font-family="Helvetica,sans-Serif" font-size="10.00">WBUrlLineEdit.h</text>
</a>
</g>
<!-- Node4&#45;&gt;Node6 -->
<g id="edge12" class="edge"><title>Node4&#45;&gt;Node6</title>
<path fill="none" stroke="midnightblue" d="M575.134,-225.975C587.354,-216.132 602.346,-204.055 612.878,-195.571"/>
<polygon fill="midnightblue" stroke="midnightblue" points="572.798,-223.363 567.206,-232.362 577.189,-228.814 572.798,-223.363"/>
</g>
<!-- Node9 -->
<g id="node18" class="node"><title>Node9</title>
<a xlink:href="../../d4/d12/_w_b_browser_window_8cpp.html" target="_top" xlink:title="WBBrowserWindow.cpp">
<polygon fill="white" stroke="black" points="225.5,-0.5 225.5,-21.5 348.5,-21.5 348.5,-0.5 225.5,-0.5"/>
<text text-anchor="middle" x="287" y="-8.5" font-family="Helvetica,sans-Serif" font-size="10.00">WBBrowserWindow.cpp</text>
</a>
</g>
<!-- Node4&#45;&gt;Node9 -->
<g id="edge30" class="edge"><title>Node4&#45;&gt;Node9</title>
<path fill="none" stroke="midnightblue" d="M502.176,-231.724C357.186,-203.504 269.346,-256.075 189,-138 168.997,-108.605 170.059,-88.0905 189,-58 200.459,-39.7953 221.146,-28.4839 240.57,-21.5365"/>
<polygon fill="midnightblue" stroke="midnightblue" points="501.761,-235.211 512.262,-233.8 503.173,-228.355 501.761,-235.211"/>
</g>
<!-- Node12 -->
<g id="node24" class="node"><title>Node12</title>
<a xlink:href="../../db/dd8/_w_b_url_line_edit_8cpp.html" target="_top" xlink:title="WBUrlLineEdit.cpp">
<polygon fill="white" stroke="black" points="770,-58.5 770,-79.5 870,-79.5 870,-58.5 770,-58.5"/>
<text text-anchor="middle" x="820" y="-66.5" font-family="Helvetica,sans-Serif" font-size="10.00">WBUrlLineEdit.cpp</text>
</a>
</g>
<!-- Node4&#45;&gt;Node12 -->
<g id="edge44" class="edge"><title>Node4&#45;&gt;Node12</title>
<path fill="none" stroke="midnightblue" d="M605.84,-231.439C666.182,-223.461 794.153,-232.201 825,-196 853.623,-162.41 834.471,-103.79 824.722,-79.7506"/>
<polygon fill="midnightblue" stroke="midnightblue" points="605.052,-228.021 595.738,-233.07 606.168,-234.931 605.052,-228.021"/>
</g>
<!-- Node13 -->
<g id="node26" class="node"><title>Node13</title>
<a xlink:href="../../d2/dee/_w_b_tab_widget_8cpp.html" target="_top" xlink:title="WBTabWidget.cpp">
<polygon fill="white" stroke="black" points="543.5,-116.5 543.5,-137.5 642.5,-137.5 642.5,-116.5 543.5,-116.5"/>
<text text-anchor="middle" x="593" y="-124.5" font-family="Helvetica,sans-Serif" font-size="10.00">WBTabWidget.cpp</text>
</a>
</g>
<!-- Node4&#45;&gt;Node13 -->
<g id="edge32" class="edge"><title>Node4&#45;&gt;Node13</title>
<path fill="none" stroke="midnightblue" d="M558.965,-222.162C562.442,-208.356 567.448,-189.923 573,-174 577.438,-161.273 583.657,-147.09 587.977,-137.666"/>
<polygon fill="midnightblue" stroke="midnightblue" points="555.509,-221.56 556.522,-232.106 562.306,-223.23 555.509,-221.56"/>
</g>
<!-- Node14 -->
<g id="node31" class="node"><title>Node14</title>
<a xlink:href="../../d8/d84/_w_b_trap_web_page_content_8h.html" target="_top" xlink:title="WBTrapWebPageContent.h">
<polygon fill="white" stroke="black" points="345,-174.5 345,-195.5 483,-195.5 483,-174.5 345,-174.5"/>
<text text-anchor="middle" x="414" y="-182.5" font-family="Helvetica,sans-Serif" font-size="10.00">WBTrapWebPageContent.h</text>
</a>
</g>
<!-- Node4&#45;&gt;Node14 -->
<g id="edge34" class="edge"><title>Node4&#45;&gt;Node14</title>
<path fill="none" stroke="midnightblue" d="M519.278,-228.615C494.594,-218.389 461.985,-204.88 439.637,-195.621"/>
<polygon fill="midnightblue" stroke="midnightblue" points="518.069,-231.903 528.647,-232.497 520.748,-225.436 518.069,-231.903"/>
</g>
<!-- Node18 -->
<g id="node39" class="node"><title>Node18</title>
<a xlink:href="../../d7/d85/_u_b_web_controller_8cpp.html" target="_top" xlink:title="UBWebController.cpp">
<polygon fill="white" stroke="black" points="355,-58.5 355,-79.5 467,-79.5 467,-58.5 355,-58.5"/>
<text text-anchor="middle" x="411" y="-66.5" font-family="Helvetica,sans-Serif" font-size="10.00">UBWebController.cpp</text>
</a>
</g>
<!-- Node4&#45;&gt;Node18 -->
<g id="edge48" class="edge"><title>Node4&#45;&gt;Node18</title>
<path fill="none" stroke="midnightblue" d="M549.103,-222.184C541.788,-194.945 525.696,-147.036 497,-116 481.637,-99.3845 459.025,-87.3476 440.842,-79.6166"/>
<polygon fill="midnightblue" stroke="midnightblue" points="545.784,-223.336 551.637,-232.167 552.569,-221.613 545.784,-223.336"/>
</g>
<!-- Node4&#45;&gt;Node19 -->
<g id="edge46" class="edge"><title>Node4&#45;&gt;Node19</title>
<path fill="none" stroke="midnightblue" d="M605.73,-232.572C606.829,-232.377 607.92,-232.186 609,-232 719.196,-213.029 747.629,-213.925 858,-196 862.461,-195.275 867.1,-194.493 871.739,-193.69"/>
<polygon fill="midnightblue" stroke="midnightblue" points="604.901,-229.165 595.698,-234.415 606.166,-236.05 604.901,-229.165"/>
</g>
<!-- Node7 -->
<g id="node14" class="node"><title>Node7</title>
<a xlink:href="../../d3/d82/_w_b_search_line_edit_8h.html" target="_top" xlink:title="WBSearchLineEdit.h">
<polygon fill="white" stroke="black" points="659.5,-116.5 659.5,-137.5 766.5,-137.5 766.5,-116.5 659.5,-116.5"/>
<text text-anchor="middle" x="713" y="-124.5" font-family="Helvetica,sans-Serif" font-size="10.00">WBSearchLineEdit.h</text>
</a>
</g>
<!-- Node6&#45;&gt;Node7 -->
<g id="edge14" class="edge"><title>Node6&#45;&gt;Node7</title>
<path fill="none" stroke="midnightblue" d="M650.689,-168.541C665.604,-158.597 684.173,-146.218 697.144,-137.571"/>
<polygon fill="midnightblue" stroke="midnightblue" points="648.336,-165.903 641.957,-174.362 652.219,-171.727 648.336,-165.903"/>
</g>
<!-- Node6&#45;&gt;Node12 -->
<g id="edge28" class="edge"><title>Node6&#45;&gt;Node12</title>
<path fill="none" stroke="midnightblue" d="M680.5,-171.928C716.542,-162.517 759.842,-149.504 775,-138 795.506,-122.437 809.422,-94.6467 815.878,-79.5181"/>
<polygon fill="midnightblue" stroke="midnightblue" points="679.371,-168.604 670.557,-174.483 681.113,-175.384 679.371,-168.604"/>
</g>
<!-- Node6&#45;&gt;Node13 -->
<g id="edge26" class="edge"><title>Node6&#45;&gt;Node13</title>
<path fill="none" stroke="midnightblue" d="M615,-165.667C609.668,-156.295 603.47,-145.402 599.014,-137.571"/>
<polygon fill="midnightblue" stroke="midnightblue" points="611.96,-167.401 619.947,-174.362 618.044,-163.939 611.96,-167.401"/>
</g>
<!-- Node8 -->
<g id="node16" class="node"><title>Node8</title>
<a xlink:href="../../df/d66/_w_b_tool_bar_search_8h.html" target="_top" xlink:title="WBToolBarSearch.h">
<polygon fill="white" stroke="black" points="487,-58.5 487,-79.5 593,-79.5 593,-58.5 487,-58.5"/>
<text text-anchor="middle" x="540" y="-66.5" font-family="Helvetica,sans-Serif" font-size="10.00">WBToolBarSearch.h</text>
</a>
</g>
<!-- Node7&#45;&gt;Node8 -->
<g id="edge16" class="edge"><title>Node7&#45;&gt;Node8</title>
<path fill="none" stroke="midnightblue" d="M672.073,-113.279C641.246,-102.944 599.61,-88.9849 571.388,-79.5231"/>
<polygon fill="midnightblue" stroke="midnightblue" points="671.077,-116.636 681.671,-116.497 673.302,-109.999 671.077,-116.636"/>
</g>
<!-- Node11 -->
<g id="node22" class="node"><title>Node11</title>
<a xlink:href="../../da/df4/_w_b_search_line_edit_8cpp.html" target="_top" xlink:title="WBSearchLineEdit.cpp">
<polygon fill="white" stroke="black" points="634,-58.5 634,-79.5 752,-79.5 752,-58.5 634,-58.5"/>
<text text-anchor="middle" x="693" y="-66.5" font-family="Helvetica,sans-Serif" font-size="10.00">WBSearchLineEdit.cpp</text>
</a>
</g>
<!-- Node7&#45;&gt;Node11 -->
<g id="edge22" class="edge"><title>Node7&#45;&gt;Node11</title>
<path fill="none" stroke="midnightblue" d="M706.029,-106.784C702.868,-97.617 699.261,-87.1572 696.645,-79.5707"/>
<polygon fill="midnightblue" stroke="midnightblue" points="702.763,-108.049 709.332,-116.362 709.381,-105.767 702.763,-108.049"/>
</g>
<!-- Node7&#45;&gt;Node12 -->
<g id="edge24" class="edge"><title>Node7&#45;&gt;Node12</title>
<path fill="none" stroke="midnightblue" d="M741.563,-111.517C760.193,-101.419 784.02,-88.5032 800.499,-79.5707"/>
<polygon fill="midnightblue" stroke="midnightblue" points="739.749,-108.519 732.625,-116.362 743.085,-114.673 739.749,-108.519"/>
</g>
<!-- Node8&#45;&gt;Node9 -->
<g id="edge18" class="edge"><title>Node8&#45;&gt;Node9</title>
<path fill="none" stroke="midnightblue" d="M484.201,-56.2081C438.773,-45.7938 375.426,-31.2716 332.902,-21.5231"/>
<polygon fill="midnightblue" stroke="midnightblue" points="483.654,-59.6735 494.184,-58.4966 485.219,-52.8505 483.654,-59.6735"/>
</g>
<!-- Node10 -->
<g id="node20" class="node"><title>Node10</title>
<a xlink:href="../../d1/d3c/_w_b_tool_bar_search_8cpp.html" target="_top" xlink:title="WBToolBarSearch.cpp">
<polygon fill="white" stroke="black" points="482,-0.5 482,-21.5 598,-21.5 598,-0.5 482,-0.5"/>
<text text-anchor="middle" x="540" y="-8.5" font-family="Helvetica,sans-Serif" font-size="10.00">WBToolBarSearch.cpp</text>
</a>
</g>
<!-- Node8&#45;&gt;Node10 -->
<g id="edge20" class="edge"><title>Node8&#45;&gt;Node10</title>
<path fill="none" stroke="midnightblue" d="M540,-48.1906C540,-39.1684 540,-28.9941 540,-21.5707"/>
<polygon fill="midnightblue" stroke="midnightblue" points="536.5,-48.3619 540,-58.3619 543.5,-48.3619 536.5,-48.3619"/>
</g>
<!-- Node15 -->
<g id="node33" class="node"><title>Node15</title>
<a xlink:href="../../de/ddc/_w_b_trap_web_page_content_8cpp.html" target="_top" xlink:title="WBTrapWebPageContent.cpp">
<polygon fill="white" stroke="black" points="339.5,-116.5 339.5,-137.5 488.5,-137.5 488.5,-116.5 339.5,-116.5"/>
<text text-anchor="middle" x="414" y="-124.5" font-family="Helvetica,sans-Serif" font-size="10.00">WBTrapWebPageContent.cpp</text>
</a>
</g>
<!-- Node14&#45;&gt;Node15 -->
<g id="edge36" class="edge"><title>Node14&#45;&gt;Node15</title>
<path fill="none" stroke="midnightblue" d="M414,-164.191C414,-155.168 414,-144.994 414,-137.571"/>
<polygon fill="midnightblue" stroke="midnightblue" points="410.5,-164.362 414,-174.362 417.5,-164.362 410.5,-164.362"/>
</g>
<!-- Node16 -->
<g id="node35" class="node"><title>Node16</title>
<a xlink:href="../../d9/d44/_u_b_trap_flash_controller_8h.html" target="_top" xlink:title="UBTrapFlashController.h">
<polygon fill="white" stroke="black" points="197.5,-116.5 197.5,-137.5 322.5,-137.5 322.5,-116.5 197.5,-116.5"/>
<text text-anchor="middle" x="260" y="-124.5" font-family="Helvetica,sans-Serif" font-size="10.00">UBTrapFlashController.h</text>
</a>
</g>
<!-- Node14&#45;&gt;Node16 -->
<g id="edge38" class="edge"><title>Node14&#45;&gt;Node16</title>
<path fill="none" stroke="midnightblue" d="M376.494,-170.874C349.166,-160.582 312.737,-146.862 287.941,-137.523"/>
<polygon fill="midnightblue" stroke="midnightblue" points="375.52,-174.247 386.112,-174.497 377.987,-167.697 375.52,-174.247"/>
</g>
<!-- Node17 -->
<g id="node37" class="node"><title>Node17</title>
<a xlink:href="../../db/dd3/_u_b_trap_flash_controller_8cpp.html" target="_top" xlink:title="UBTrapFlashController.cpp">
<polygon fill="white" stroke="black" points="197.5,-58.5 197.5,-79.5 332.5,-79.5 332.5,-58.5 197.5,-58.5"/>
<text text-anchor="middle" x="265" y="-66.5" font-family="Helvetica,sans-Serif" font-size="10.00">UBTrapFlashController.cpp</text>
</a>
</g>
<!-- Node16&#45;&gt;Node17 -->
<g id="edge40" class="edge"><title>Node16&#45;&gt;Node17</title>
<path fill="none" stroke="midnightblue" d="M261.794,-106.191C262.572,-97.1684 263.449,-86.9941 264.089,-79.5707"/>
<polygon fill="midnightblue" stroke="midnightblue" points="258.289,-106.098 260.917,-116.362 265.263,-106.699 258.289,-106.098"/>
</g>
<!-- Node16&#45;&gt;Node18 -->
<g id="edge42" class="edge"><title>Node16&#45;&gt;Node18</title>
<path fill="none" stroke="midnightblue" d="M296.776,-112.874C323.571,-102.582 359.29,-88.862 383.604,-79.5231"/>
<polygon fill="midnightblue" stroke="midnightblue" points="295.425,-109.644 287.345,-116.497 297.935,-116.178 295.425,-109.644"/>
</g>
</g>
</svg>
