<?xml version="1.0" encoding="UTF-8" standalone="no"?>
<!DOCTYPE svg PUBLIC "-//W3C//DTD SVG 1.1//EN"
 "http://www.w3.org/Graphics/SVG/1.1/DTD/svg11.dtd">
<!-- Generated by graphviz version 2.26.3 (20100126.1600)
 -->
<!-- Title: UBAbstractDrawRuler::paint Pages: 1 -->
<!--zoomable 82 -->
<svg id="main" version="1.1" xmlns="http://www.w3.org/2000/svg" xmlns:xlink="http://www.w3.org/1999/xlink" xml:space="preserve" onload="init(evt)">
        <defs>
                <circle id="rim" cx="0" cy="0" r="7"/>
                <circle id="rim2" cx="0" cy="0" r="3.5"/>
                <g id="zoomPlus">
                        <use xlink:href="#rim" fill="#404040">
                                <set attributeName="fill" to="#808080" begin="zoomplus.mouseover" end="zoomplus.mouseout"/>
                        </use>
                        <path d="M-4,0h8M0,-4v8" fill="none" stroke="white" stroke-width="1.5" pointer-events="none"/>
                </g>
                <g id="zoomMin">
                        <use xlink:href="#rim" fill="#404040">
                                <set attributeName="fill" to="#808080" begin="zoomminus.mouseover" end="zoomminus.mouseout"/>
                        </use>
                        <path d="M-4,0h8" fill="none" stroke="white" stroke-width="1.5" pointer-events="none"/>
                </g>
                <g id="dirArrow">
                        <path fill="none" stroke="white" stroke-width="1.5" d="M0,-3.0v7 M-2.5,-0.5L0,-3.0L2.5,-0.5"/>
                </g>
               <g id="resetDef">
                       <use xlink:href="#rim2" fill="#404040">
                               <set attributeName="fill" to="#808080" begin="reset.mouseover" end="reset.mouseout"/>
                       </use>
               </g>
        </defs>

<script type="text/javascript">
var viewWidth = 674;
var viewHeight = 82;
var sectionId = 'dynsection-18';
</script>
<script xlink:href="../../svgpan.js"/>
<svg id="graph" class="graph">
<g id="viewport">
<title>UBAbstractDrawRuler::paint</title>
<polygon fill="white" stroke="white" points="-4,5 -4,-78 671,-78 671,5 -4,5"/>
<!-- Node1 -->
<g id="node1" class="node"><title>Node1</title>
<polygon fill="#bfbfbf" stroke="black" points="0,-17 0,-51 114,-51 114,-17 0,-17"/>
<text text-anchor="start" x="8" y="-38" font-family="Helvetica,sans-Serif" font-size="10.00">UBAbstractDrawRuler</text>
<text text-anchor="middle" x="57" y="-25" font-family="Helvetica,sans-Serif" font-size="10.00">::paint</text>
</g>
<!-- Node2 -->
<g id="node3" class="node"><title>Node2</title>
<a xlink:href="../../dc/dfd/class_u_b_graphics_aristo.html#a7653583726568f17f7ba69c7b85b2827" target="_top" xlink:title="UBGraphicsAristo::paintRuler\lGraduations">
<polygon fill="white" stroke="black" points="150,-40 150,-74 296,-74 296,-40 150,-40"/>
<text text-anchor="start" x="158" y="-61" font-family="Helvetica,sans-Serif" font-size="10.00">UBGraphicsAristo::paintRuler</text>
<text text-anchor="middle" x="223" y="-48" font-family="Helvetica,sans-Serif" font-size="10.00">Graduations</text>
</a>
</g>
<!-- Node1&#45;&gt;Node2 -->
<g id="edge2" class="edge"><title>Node1&#45;&gt;Node2</title>
<path fill="none" stroke="midnightblue" d="M124.292,-43.3236C132.737,-44.4937 141.407,-45.695 149.935,-46.8766"/>
<polygon fill="midnightblue" stroke="midnightblue" points="124.514,-39.8209 114.128,-41.9153 123.553,-46.7547 124.514,-39.8209"/>
</g>
<!-- Node5 -->
<g id="node9" class="node"><title>Node5</title>
<a xlink:href="../../db/dd7/class_u_b_graphics_ruler.html#a8af93307b236910d47c28e5f3af04834" target="_top" xlink:title="UBGraphicsRuler::paint">
<polygon fill="white" stroke="black" points="163,-0.5 163,-21.5 283,-21.5 283,-0.5 163,-0.5"/>
<text text-anchor="middle" x="223" y="-8.5" font-family="Helvetica,sans-Serif" font-size="10.00">UBGraphicsRuler::paint</text>
</a>
</g>
<!-- Node1&#45;&gt;Node5 -->
<g id="edge8" class="edge"><title>Node1&#45;&gt;Node5</title>
<path fill="none" stroke="midnightblue" d="M124.258,-24.6811C137.059,-22.9074 150.379,-21.0619 162.938,-19.3218"/>
<polygon fill="midnightblue" stroke="midnightblue" points="123.553,-21.2453 114.128,-26.0847 124.514,-28.1791 123.553,-21.2453"/>
</g>
<!-- Node3 -->
<g id="node5" class="node"><title>Node3</title>
<a xlink:href="../../dc/dfd/class_u_b_graphics_aristo.html#afc6aae31a1c6139bd4b61e6ed18e14bc" target="_top" xlink:title="UBGraphicsAristo::paintGraduations">
<polygon fill="white" stroke="black" points="332.5,-46.5 332.5,-67.5 507.5,-67.5 507.5,-46.5 332.5,-46.5"/>
<text text-anchor="middle" x="420" y="-54.5" font-family="Helvetica,sans-Serif" font-size="10.00">UBGraphicsAristo::paintGraduations</text>
</a>
</g>
<!-- Node2&#45;&gt;Node3 -->
<g id="edge4" class="edge"><title>Node2&#45;&gt;Node3</title>
<path fill="none" stroke="midnightblue" d="M306.162,-57C314.831,-57 323.664,-57 332.381,-57"/>
<polygon fill="midnightblue" stroke="midnightblue" points="306.076,-53.5001 296.076,-57 306.076,-60.5001 306.076,-53.5001"/>
</g>
<!-- Node4 -->
<g id="node7" class="node"><title>Node4</title>
<a xlink:href="../../dc/dfd/class_u_b_graphics_aristo.html#aa4bcaa89d15302de155cb71c00b59c8d" target="_top" xlink:title="UBGraphicsAristo::paint">
<polygon fill="white" stroke="black" points="544,-46.5 544,-67.5 666,-67.5 666,-46.5 544,-46.5"/>
<text text-anchor="middle" x="605" y="-54.5" font-family="Helvetica,sans-Serif" font-size="10.00">UBGraphicsAristo::paint</text>
</a>
</g>
<!-- Node3&#45;&gt;Node4 -->
<g id="edge6" class="edge"><title>Node3&#45;&gt;Node4</title>
<path fill="none" stroke="midnightblue" d="M517.668,-57C526.556,-57 535.38,-57 543.81,-57"/>
<polygon fill="midnightblue" stroke="midnightblue" points="517.624,-53.5001 507.624,-57 517.624,-60.5001 517.624,-53.5001"/>
</g>
</g>
</svg>
        <g id="navigator" transform="translate(0 0)" fill="#404254">
                <rect fill="#f2f5e9" fill-opacity="0.5" stroke="#606060" stroke-width=".5" x="0" y="0" width="60" height="60"/>
                <use id="zoomplus" xlink:href="#zoomPlus" x="17" y="9" onmousedown="handleZoom(evt,'in')"/>
                <use id="zoomminus" xlink:href="#zoomMin" x="42" y="9" onmousedown="handleZoom(evt,'out')"/>
                <use id="reset" xlink:href="#resetDef" x="30" y="36" onmousedown="handleReset()"/>
                <g id="arrowUp" xlink:href="#dirArrow" transform="translate(30 24)" onmousedown="handlePan(0,-1)">
                  <use xlink:href="#rim" fill="#404040">
                        <set attributeName="fill" to="#808080" begin="arrowUp.mouseover" end="arrowUp.mouseout"/>
                  </use>
                  <path fill="none" stroke="white" stroke-width="1.5" d="M0,-3.0v7 M-2.5,-0.5L0,-3.0L2.5,-0.5"/>
                </g>
                <g id="arrowRight" xlink:href="#dirArrow" transform="rotate(90) translate(36 -43)" onmousedown="handlePan(1,0)">
                  <use xlink:href="#rim" fill="#404040">
                        <set attributeName="fill" to="#808080" begin="arrowRight.mouseover" end="arrowRight.mouseout"/>
                  </use>
                  <path fill="none" stroke="white" stroke-width="1.5" d="M0,-3.0v7 M-2.5,-0.5L0,-3.0L2.5,-0.5"/>
                </g>
                <g id="arrowDown" xlink:href="#dirArrow" transform="rotate(180) translate(-30 -48)" onmousedown="handlePan(0,1)">
                  <use xlink:href="#rim" fill="#404040">
                        <set attributeName="fill" to="#808080" begin="arrowDown.mouseover" end="arrowDown.mouseout"/>
                  </use>
                  <path fill="none" stroke="white" stroke-width="1.5" d="M0,-3.0v7 M-2.5,-0.5L0,-3.0L2.5,-0.5"/>
                </g>
                <g id="arrowLeft" xlink:href="#dirArrow" transform="rotate(270) translate(-36 17)" onmousedown="handlePan(-1,0)">
                  <use xlink:href="#rim" fill="#404040">
                        <set attributeName="fill" to="#808080" begin="arrowLeft.mouseover" end="arrowLeft.mouseout"/>
                  </use>
                  <path fill="none" stroke="white" stroke-width="1.5" d="M0,-3.0v7 M-2.5,-0.5L0,-3.0L2.5,-0.5"/>
                </g>
        </g>
        <svg viewBox="0 0 15 15" width="100%" height="30px" preserveAspectRatio="xMaxYMin meet">
         <g id="arrow_out" transform="scale(0.3 0.3)">
          <a xlink:href="class_u_b_abstract_draw_ruler_ad8f49aa56a8dc14fb727f64f718a2ea2_icgraph_org.svg" target="_base">
           <rect id="button" ry="5" rx="5" y="6" x="6" height="38" width="38"
                fill="#f2f5e9" fill-opacity="0.5" stroke="#606060" stroke-width="1.0"/>
           <path id="arrow"
             d="M 11.500037,31.436501 C 11.940474,20.09759 22.043105,11.32322 32.158766,21.979434 L 37.068811,17.246167 C 37.068811,17.246167 37.088388,32 37.088388,32 L 22.160133,31.978069 C 22.160133,31.978069 26.997745,27.140456 26.997745,27.140456 C 18.528582,18.264221 13.291696,25.230495 11.500037,31.436501 z"
             style="fill:#404040;"/>
          </a>
         </g>
        </svg>
</svg>
