<?xml version="1.0" encoding="UTF-8" standalone="no"?>
<!DOCTYPE svg PUBLIC "-//W3C//DTD SVG 1.1//EN"
 "http://www.w3.org/Graphics/SVG/1.1/DTD/svg11.dtd">
<!-- Generated by graphviz version 2.26.3 (20100126.1600)
 -->
<!-- Title: UBAbstractDrawRuler::drawRulerLineCursor Pages: 1 -->
<svg width="308pt" height="146pt"
 viewBox="0.00 0.00 308.00 146.00" xmlns="http://www.w3.org/2000/svg" xmlns:xlink="http://www.w3.org/1999/xlink">
<g id="graph1" class="graph" transform="scale(1 1) rotate(0) translate(4 142)">
<title>UBAbstractDrawRuler::drawRulerLineCursor</title>
<polygon fill="white" stroke="white" points="-4,5 -4,-142 305,-142 305,5 -4,5"/>
<!-- Node1 -->
<g id="node1" class="node"><title>Node1</title>
<polygon fill="#bfbfbf" stroke="black" points="0,-52 0,-86 114,-86 114,-52 0,-52"/>
<text text-anchor="start" x="8" y="-73" font-family="Helvetica,sans-Serif" font-size="10.00">UBAbstractDrawRuler</text>
<text text-anchor="middle" x="57" y="-60" font-family="Helvetica,sans-Serif" font-size="10.00">::drawRulerLineCursor</text>
</g>
<!-- Node2 -->
<g id="node3" class="node"><title>Node2</title>
<a xlink:href="../../dc/dfd/class_u_b_graphics_aristo.html#af0efa637a7053d42593a8e54a041bf3f" target="_top" xlink:title="UBGraphicsAristo::hoverEnter\lEvent">
<polygon fill="white" stroke="black" points="150.5,-104 150.5,-138 299.5,-138 299.5,-104 150.5,-104"/>
<text text-anchor="start" x="158.5" y="-125" font-family="Helvetica,sans-Serif" font-size="10.00">UBGraphicsAristo::hoverEnter</text>
<text text-anchor="middle" x="225" y="-112" font-family="Helvetica,sans-Serif" font-size="10.00">Event</text>
</a>
</g>
<!-- Node1&#45;&gt;Node2 -->
<g id="edge2" class="edge"><title>Node1&#45;&gt;Node2</title>
<path fill="none" stroke="midnightblue" d="M121.751,-89.042C137.633,-93.9578 154.485,-99.1739 169.867,-103.935"/>
<polygon fill="midnightblue" stroke="midnightblue" points="122.597,-85.6401 112.009,-86.0267 120.527,-92.3272 122.597,-85.6401"/>
</g>
<!-- Node3 -->
<g id="node5" class="node"><title>Node3</title>
<a xlink:href="../../db/dd7/class_u_b_graphics_ruler.html#ab92e30dce1a9c167ff52545610fb6edf" target="_top" xlink:title="UBGraphicsRuler::hoverEnter\lEvent">
<polygon fill="white" stroke="black" points="152,-52 152,-86 298,-86 298,-52 152,-52"/>
<text text-anchor="start" x="160" y="-73" font-family="Helvetica,sans-Serif" font-size="10.00">UBGraphicsRuler::hoverEnter</text>
<text text-anchor="middle" x="225" y="-60" font-family="Helvetica,sans-Serif" font-size="10.00">Event</text>
</a>
</g>
<!-- Node1&#45;&gt;Node3 -->
<g id="edge4" class="edge"><title>Node1&#45;&gt;Node3</title>
<path fill="none" stroke="midnightblue" d="M124.409,-69C133.444,-69 142.744,-69 151.871,-69"/>
<polygon fill="midnightblue" stroke="midnightblue" points="124.346,-65.5001 114.346,-69 124.346,-72.5001 124.346,-65.5001"/>
</g>
<!-- Node4 -->
<g id="node7" class="node"><title>Node4</title>
<a xlink:href="../../da/dd0/class_u_b_graphics_triangle.html#a6fff939815a5e24edfb96351138f50ab" target="_top" xlink:title="UBGraphicsTriangle\l::hoverEnterEvent">
<polygon fill="white" stroke="black" points="173,-0 173,-34 277,-34 277,-0 173,-0"/>
<text text-anchor="start" x="181" y="-21" font-family="Helvetica,sans-Serif" font-size="10.00">UBGraphicsTriangle</text>
<text text-anchor="middle" x="225" y="-8" font-family="Helvetica,sans-Serif" font-size="10.00">::hoverEnterEvent</text>
</a>
</g>
<!-- Node1&#45;&gt;Node4 -->
<g id="edge6" class="edge"><title>Node1&#45;&gt;Node4</title>
<path fill="none" stroke="midnightblue" d="M121.788,-48.9465C138.648,-43.7281 156.599,-38.1719 172.722,-33.1814"/>
<polygon fill="midnightblue" stroke="midnightblue" points="120.527,-45.6728 112.009,-51.9733 122.597,-52.3599 120.527,-45.6728"/>
</g>
</g>
</svg>
