<?xml version="1.0" encoding="UTF-8" standalone="no"?>
<!DOCTYPE svg PUBLIC "-//W3C//DTD SVG 1.1//EN"
 "http://www.w3.org/Graphics/SVG/1.1/DTD/svg11.dtd">
<!-- Generated by graphviz version 2.26.3 (20100126.1600)
 -->
<!-- Title: UBSvgSubsetAdaptor::uniboardDocumentNamespaceUriFromVersion Pages: 1 -->
<svg width="468pt" height="56pt"
 viewBox="0.00 0.00 468.00 56.00" xmlns="http://www.w3.org/2000/svg" xmlns:xlink="http://www.w3.org/1999/xlink">
<g id="graph1" class="graph" transform="scale(1 1) rotate(0) translate(4 52)">
<title>UBSvgSubsetAdaptor::uniboardDocumentNamespaceUriFromVersion</title>
<polygon fill="white" stroke="white" points="-4,5 -4,-52 465,-52 465,5 -4,5"/>
<!-- Node1 -->
<g id="node1" class="node"><title>Node1</title>
<polygon fill="#bfbfbf" stroke="black" points="0.5,-0.5 0.5,-47.5 157.5,-47.5 157.5,-0.5 0.5,-0.5"/>
<text text-anchor="start" x="8.5" y="-34.5" font-family="Helvetica,sans-Serif" font-size="10.00">UBSvgSubsetAdaptor</text>
<text text-anchor="start" x="8.5" y="-21.5" font-family="Helvetica,sans-Serif" font-size="10.00">::uniboardDocumentNamespace</text>
<text text-anchor="middle" x="79" y="-8.5" font-family="Helvetica,sans-Serif" font-size="10.00">UriFromVersion</text>
</g>
<!-- Node2 -->
<g id="node3" class="node"><title>Node2</title>
<a xlink:href="../../d8/d4f/class_u_b_svg_subset_adaptor_1_1_u_b_svg_subset_reader.html#a1998688092c71dad287d03f570816a95" target="_top" xlink:title="UBSvgSubsetAdaptor\l::UBSvgSubsetReader\l::loadScene">
<polygon fill="white" stroke="black" points="194,-0.5 194,-47.5 310,-47.5 310,-0.5 194,-0.5"/>
<text text-anchor="start" x="202" y="-34.5" font-family="Helvetica,sans-Serif" font-size="10.00">UBSvgSubsetAdaptor</text>
<text text-anchor="start" x="202" y="-21.5" font-family="Helvetica,sans-Serif" font-size="10.00">::UBSvgSubsetReader</text>
<text text-anchor="middle" x="252" y="-8.5" font-family="Helvetica,sans-Serif" font-size="10.00">::loadScene</text>
</a>
</g>
<!-- Node1&#45;&gt;Node2 -->
<g id="edge2" class="edge"><title>Node1&#45;&gt;Node2</title>
<path fill="none" stroke="midnightblue" d="M167.712,-24C176.627,-24 185.51,-24 193.983,-24"/>
<polygon fill="midnightblue" stroke="midnightblue" points="167.654,-20.5001 157.654,-24 167.654,-27.5001 167.654,-20.5001"/>
</g>
<!-- Node3 -->
<g id="node5" class="node"><title>Node3</title>
<a xlink:href="../../d3/df9/class_u_b_svg_subset_adaptor.html#a6e24774da3a31f4a61141cb634198d0a" target="_top" xlink:title="UBSvgSubsetAdaptor\l::loadScene">
<polygon fill="white" stroke="black" points="346.5,-7 346.5,-41 459.5,-41 459.5,-7 346.5,-7"/>
<text text-anchor="start" x="354.5" y="-28" font-family="Helvetica,sans-Serif" font-size="10.00">UBSvgSubsetAdaptor</text>
<text text-anchor="middle" x="403" y="-15" font-family="Helvetica,sans-Serif" font-size="10.00">::loadScene</text>
</a>
</g>
<!-- Node2&#45;&gt;Node3 -->
<g id="edge4" class="edge"><title>Node2&#45;&gt;Node3</title>
<path fill="none" stroke="midnightblue" d="M320.436,-24C329.074,-24 337.836,-24 346.265,-24"/>
<polygon fill="midnightblue" stroke="midnightblue" points="320.381,-20.5001 310.381,-24 320.381,-27.5001 320.381,-20.5001"/>
</g>
</g>
</svg>
