<?xml version="1.0" encoding="UTF-8" standalone="no"?>
<!DOCTYPE svg PUBLIC "-//W3C//DTD SVG 1.1//EN"
 "http://www.w3.org/Graphics/SVG/1.1/DTD/svg11.dtd">
<!-- Generated by graphviz version 2.26.3 (20100126.1600)
 -->
<!-- Title: WBHistoryManager::historyContains Pages: 1 -->
<svg width="596pt" height="42pt"
 viewBox="0.00 0.00 596.00 42.00" xmlns="http://www.w3.org/2000/svg" xmlns:xlink="http://www.w3.org/1999/xlink">
<g id="graph1" class="graph" transform="scale(1 1) rotate(0) translate(4 38)">
<title>WBHistoryManager::historyContains</title>
<polygon fill="white" stroke="white" points="-4,5 -4,-38 593,-38 593,5 -4,5"/>
<!-- Node1 -->
<g id="node1" class="node"><title>Node1</title>
<polygon fill="#bfbfbf" stroke="black" points="0.5,-0 0.5,-34 137.5,-34 137.5,-0 0.5,-0"/>
<text text-anchor="start" x="8.5" y="-21" font-family="Helvetica,sans-Serif" font-size="10.00">WBHistoryManager::history</text>
<text text-anchor="middle" x="69" y="-8" font-family="Helvetica,sans-Serif" font-size="10.00">Contains</text>
</g>
<!-- Node2 -->
<g id="node3" class="node"><title>Node2</title>
<a xlink:href="../../df/d23/class_w_b_history_filter_model.html#af43e01b4dabec4cea16b2ae39fa34953" target="_top" xlink:title="WBHistoryFilterModel\l::historyContains">
<polygon fill="white" stroke="black" points="174.5,-0 174.5,-34 287.5,-34 287.5,-0 174.5,-0"/>
<text text-anchor="start" x="182.5" y="-21" font-family="Helvetica,sans-Serif" font-size="10.00">WBHistoryFilterModel</text>
<text text-anchor="middle" x="231" y="-8" font-family="Helvetica,sans-Serif" font-size="10.00">::historyContains</text>
</a>
</g>
<!-- Node1&#45;&gt;Node2 -->
<g id="edge2" class="edge"><title>Node1&#45;&gt;Node2</title>
<path fill="none" stroke="midnightblue" d="M137.703,-17C146.504,-17 155.504,-17 164.273,-17"/>
<polygon fill="midnightblue" stroke="midnightblue" points="164.436,-20.5001 174.436,-17 164.436,-13.5001 164.436,-20.5001"/>
</g>
<!-- Node3 -->
<g id="node5" class="node"><title>Node3</title>
<a xlink:href="../../df/d23/class_w_b_history_filter_model.html#a5353cf3d7970ba9479b09dcd268e79f7" target="_top" xlink:title="WBHistoryFilterModel\l::load">
<polygon fill="white" stroke="black" points="324.5,-0 324.5,-34 437.5,-34 437.5,-0 324.5,-0"/>
<text text-anchor="start" x="332.5" y="-21" font-family="Helvetica,sans-Serif" font-size="10.00">WBHistoryFilterModel</text>
<text text-anchor="middle" x="381" y="-8" font-family="Helvetica,sans-Serif" font-size="10.00">::load</text>
</a>
</g>
<!-- Node2&#45;&gt;Node3 -->
<g id="edge4" class="edge"><title>Node2&#45;&gt;Node3</title>
<path fill="none" stroke="midnightblue" d="M287.709,-17C296.295,-17 305.223,-17 314.002,-17"/>
<polygon fill="midnightblue" stroke="midnightblue" points="314.211,-20.5001 324.211,-17 314.211,-13.5001 314.211,-20.5001"/>
</g>
<!-- Node4 -->
<g id="node7" class="node"><title>Node4</title>
<a xlink:href="../../df/d23/class_w_b_history_filter_model.html#aecaf7d67cb84d0b9fb4d66cc10660892" target="_top" xlink:title="WBHistoryFilterModel\l::rowCount">
<polygon fill="white" stroke="black" points="474.5,-0 474.5,-34 587.5,-34 587.5,-0 474.5,-0"/>
<text text-anchor="start" x="482.5" y="-21" font-family="Helvetica,sans-Serif" font-size="10.00">WBHistoryFilterModel</text>
<text text-anchor="middle" x="531" y="-8" font-family="Helvetica,sans-Serif" font-size="10.00">::rowCount</text>
</a>
</g>
<!-- Node3&#45;&gt;Node4 -->
<g id="edge6" class="edge"><title>Node3&#45;&gt;Node4</title>
<path fill="none" stroke="midnightblue" d="M437.709,-10.4317C446.295,-10.258 455.223,-10.2088 464.002,-10.2843"/>
<polygon fill="midnightblue" stroke="midnightblue" points="464.162,-13.7868 474.211,-10.4301 464.262,-6.78753 464.162,-13.7868"/>
</g>
<!-- Node4&#45;&gt;Node3 -->
<g id="edge8" class="edge"><title>Node4&#45;&gt;Node3</title>
<path fill="none" stroke="midnightblue" d="M474.211,-23.5699C465.622,-23.7429 456.694,-23.7912 447.916,-23.715"/>
<polygon fill="midnightblue" stroke="midnightblue" points="447.758,-20.2125 437.709,-23.5683 447.657,-27.2118 447.758,-20.2125"/>
</g>
</g>
</svg>
