<?xml version="1.0" encoding="UTF-8" standalone="no"?>
<!DOCTYPE svg PUBLIC "-//W3C//DTD SVG 1.1//EN"
 "http://www.w3.org/Graphics/SVG/1.1/DTD/svg11.dtd">
<!-- Generated by graphviz version 2.26.3 (20100126.1600)
 -->
<!-- Title: WBHistoryManager::WBHistoryManager Pages: 1 -->
<!--zoomable 366 -->
<svg id="main" version="1.1" xmlns="http://www.w3.org/2000/svg" xmlns:xlink="http://www.w3.org/1999/xlink" xml:space="preserve" onload="init(evt)">
        <defs>
                <circle id="rim" cx="0" cy="0" r="7"/>
                <circle id="rim2" cx="0" cy="0" r="3.5"/>
                <g id="zoomPlus">
                        <use xlink:href="#rim" fill="#404040">
                                <set attributeName="fill" to="#808080" begin="zoomplus.mouseover" end="zoomplus.mouseout"/>
                        </use>
                        <path d="M-4,0h8M0,-4v8" fill="none" stroke="white" stroke-width="1.5" pointer-events="none"/>
                </g>
                <g id="zoomMin">
                        <use xlink:href="#rim" fill="#404040">
                                <set attributeName="fill" to="#808080" begin="zoomminus.mouseover" end="zoomminus.mouseout"/>
                        </use>
                        <path d="M-4,0h8" fill="none" stroke="white" stroke-width="1.5" pointer-events="none"/>
                </g>
                <g id="dirArrow">
                        <path fill="none" stroke="white" stroke-width="1.5" d="M0,-3.0v7 M-2.5,-0.5L0,-3.0L2.5,-0.5"/>
                </g>
               <g id="resetDef">
                       <use xlink:href="#rim2" fill="#404040">
                               <set attributeName="fill" to="#808080" begin="reset.mouseover" end="reset.mouseout"/>
                       </use>
               </g>
        </defs>

<script type="text/javascript">
var viewWidth = 958;
var viewHeight = 366;
var sectionId = 'dynsection-1';
</script>
<script xlink:href="../../svgpan.js"/>
<svg id="graph" class="graph">
<g id="viewport">
<title>WBHistoryManager::WBHistoryManager</title>
<polygon fill="white" stroke="white" points="-4,5 -4,-362 955,-362 955,5 -4,5"/>
<!-- Node1 -->
<g id="node1" class="node"><title>Node1</title>
<polygon fill="#bfbfbf" stroke="black" points="0,-288 0,-322 156,-322 156,-288 0,-288"/>
<text text-anchor="start" x="8" y="-309" font-family="Helvetica,sans-Serif" font-size="10.00">WBHistoryManager::WBHistory</text>
<text text-anchor="middle" x="78" y="-296" font-family="Helvetica,sans-Serif" font-size="10.00">Manager</text>
</g>
<!-- Node2 -->
<g id="node3" class="node"><title>Node2</title>
<a xlink:href="../../dd/d34/class_w_b_history_manager.html#a7b2f07f92233508d90debb053b69136d" target="_top" xlink:title="WBHistoryManager::checkFor\lExpired">
<polygon fill="white" stroke="black" points="586.5,-308 586.5,-342 735.5,-342 735.5,-308 586.5,-308"/>
<text text-anchor="start" x="594.5" y="-329" font-family="Helvetica,sans-Serif" font-size="10.00">WBHistoryManager::checkFor</text>
<text text-anchor="middle" x="661" y="-316" font-family="Helvetica,sans-Serif" font-size="10.00">Expired</text>
</a>
</g>
<!-- Node1&#45;&gt;Node2 -->
<g id="edge2" class="edge"><title>Node1&#45;&gt;Node2</title>
<path fill="none" stroke="midnightblue" d="M156.021,-307.677C265.242,-311.423 462.976,-318.207 575.886,-322.08"/>
<polygon fill="midnightblue" stroke="midnightblue" points="576.093,-325.589 586.208,-322.434 576.333,-318.593 576.093,-325.589"/>
</g>
<!-- Node3 -->
<g id="node5" class="node"><title>Node3</title>
<a xlink:href="../../dd/d34/class_w_b_history_manager.html#a0a4f98730bf77d6f1b22e2d2b0cc1bb3" target="_top" xlink:title="WBHistoryManager::entryRemoved">
<polygon fill="white" stroke="black" points="776,-336.5 776,-357.5 948,-357.5 948,-336.5 776,-336.5"/>
<text text-anchor="middle" x="862" y="-344.5" font-family="Helvetica,sans-Serif" font-size="10.00">WBHistoryManager::entryRemoved</text>
</a>
</g>
<!-- Node1&#45;&gt;Node3 -->
<g id="edge8" class="edge"><title>Node1&#45;&gt;Node3</title>
<path fill="none" stroke="midnightblue" d="M156.023,-319.833C168.04,-321.785 180.33,-323.593 192,-325 433.196,-354.071 495.09,-354.917 738,-351 747.015,-350.855 756.397,-350.65 765.785,-350.409"/>
<polygon fill="midnightblue" stroke="midnightblue" points="766.056,-353.903 775.958,-350.135 765.867,-346.906 766.056,-353.903"/>
</g>
<!-- Node4 -->
<g id="node7" class="node"><title>Node4</title>
<a xlink:href="../../dd/d34/class_w_b_history_manager.html#a47811019ca3f38969becf80093a53f40" target="_top" xlink:title="WBHistoryManager::entryAdded">
<polygon fill="white" stroke="black" points="192,-275.5 192,-296.5 350,-296.5 350,-275.5 192,-275.5"/>
<text text-anchor="middle" x="271" y="-283.5" font-family="Helvetica,sans-Serif" font-size="10.00">WBHistoryManager::entryAdded</text>
</a>
</g>
<!-- Node1&#45;&gt;Node4 -->
<g id="edge6" class="edge"><title>Node1&#45;&gt;Node4</title>
<path fill="none" stroke="midnightblue" d="M156.222,-297.299C164.634,-296.471 173.238,-295.624 181.765,-294.785"/>
<polygon fill="midnightblue" stroke="midnightblue" points="182.116,-298.267 191.725,-293.804 181.43,-291.301 182.116,-298.267"/>
</g>
<!-- Node5 -->
<g id="node10" class="node"><title>Node5</title>
<a xlink:href="../../dd/d34/class_w_b_history_manager.html#a4f1ec69221eb4d3cd462a720fe5aeb27" target="_top" xlink:title="WBHistoryManager::load">
<polygon fill="white" stroke="black" points="208,-177.5 208,-198.5 334,-198.5 334,-177.5 208,-177.5"/>
<text text-anchor="middle" x="271" y="-185.5" font-family="Helvetica,sans-Serif" font-size="10.00">WBHistoryManager::load</text>
</a>
</g>
<!-- Node1&#45;&gt;Node5 -->
<g id="edge10" class="edge"><title>Node1&#45;&gt;Node5</title>
<path fill="none" stroke="midnightblue" d="M106.064,-287.987C143.205,-265.472 208.211,-226.064 244.532,-204.045"/>
<polygon fill="midnightblue" stroke="midnightblue" points="246.805,-206.76 253.542,-198.583 243.176,-200.774 246.805,-206.76"/>
</g>
<!-- Node2&#45;&gt;Node3 -->
<g id="edge4" class="edge"><title>Node2&#45;&gt;Node3</title>
<path fill="none" stroke="midnightblue" d="M735.559,-333.161C745.363,-334.234 755.52,-335.346 765.622,-336.451"/>
<polygon fill="midnightblue" stroke="midnightblue" points="765.369,-339.944 775.69,-337.553 766.13,-332.986 765.369,-339.944"/>
</g>
<!-- Node6 -->
<g id="node12" class="node"><title>Node6</title>
<a xlink:href="../../dd/d34/class_w_b_history_manager.html#a28ae9f1cea36d3351846d33378cf1d42" target="_top" xlink:title="WBHistoryManager::loadSettings">
<polygon fill="white" stroke="black" points="386,-138.5 386,-159.5 548,-159.5 548,-138.5 386,-138.5"/>
<text text-anchor="middle" x="467" y="-146.5" font-family="Helvetica,sans-Serif" font-size="10.00">WBHistoryManager::loadSettings</text>
</a>
</g>
<!-- Node5&#45;&gt;Node6 -->
<g id="edge12" class="edge"><title>Node5&#45;&gt;Node6</title>
<path fill="none" stroke="midnightblue" d="M323.782,-177.497C348.506,-172.578 378.148,-166.68 404.034,-161.529"/>
<polygon fill="midnightblue" stroke="midnightblue" points="404.999,-164.906 414.124,-159.521 403.633,-158.04 404.999,-164.906"/>
</g>
<!-- Node7 -->
<g id="node14" class="node"><title>Node7</title>
<a xlink:href="../../db/d66/class_u_b_settings.html#af38d2ad231149df734ca7b5486356500" target="_top" xlink:title="UBSettings::userDataDirectory">
<polygon fill="white" stroke="black" points="391,-90.5 391,-111.5 543,-111.5 543,-90.5 391,-90.5"/>
<text text-anchor="middle" x="467" y="-98.5" font-family="Helvetica,sans-Serif" font-size="10.00">UBSettings::userDataDirectory</text>
</a>
</g>
<!-- Node5&#45;&gt;Node7 -->
<g id="edge14" class="edge"><title>Node5&#45;&gt;Node7</title>
<path fill="none" stroke="midnightblue" d="M289.733,-177.347C312.176,-164.831 351.122,-143.887 386,-129 397.986,-123.884 411.251,-118.991 423.518,-114.768"/>
<polygon fill="midnightblue" stroke="midnightblue" points="424.744,-118.048 433.099,-111.533 422.504,-111.416 424.744,-118.048"/>
</g>
<!-- Node14 -->
<g id="node28" class="node"><title>Node14</title>
<a xlink:href="../../dd/d34/class_w_b_history_manager.html#ac749e2513aa93549de988bb15781d258" target="_top" xlink:title="WBHistoryManager::setHistory">
<polygon fill="white" stroke="black" points="390.5,-216.5 390.5,-237.5 543.5,-237.5 543.5,-216.5 390.5,-216.5"/>
<text text-anchor="middle" x="467" y="-224.5" font-family="Helvetica,sans-Serif" font-size="10.00">WBHistoryManager::setHistory</text>
</a>
</g>
<!-- Node5&#45;&gt;Node14 -->
<g id="edge28" class="edge"><title>Node5&#45;&gt;Node14</title>
<path fill="none" stroke="midnightblue" d="M323.782,-198.503C348.506,-203.422 378.148,-209.32 404.034,-214.471"/>
<polygon fill="midnightblue" stroke="midnightblue" points="403.633,-217.96 414.124,-216.479 404.999,-211.094 403.633,-217.96"/>
</g>
<!-- Node16 -->
<g id="node33" class="node"><title>Node16</title>
<a xlink:href="../../dd/d3b/class_u_b_auto_saver.html#a3b7247fb354306120ff74fff03ed7135" target="_top" xlink:title="UBAutoSaver::changeOccurred">
<polygon fill="white" stroke="black" points="584,-176.5 584,-197.5 738,-197.5 738,-176.5 584,-176.5"/>
<text text-anchor="middle" x="661" y="-184.5" font-family="Helvetica,sans-Serif" font-size="10.00">UBAutoSaver::changeOccurred</text>
</a>
</g>
<!-- Node5&#45;&gt;Node16 -->
<g id="edge40" class="edge"><title>Node5&#45;&gt;Node16</title>
<path fill="none" stroke="midnightblue" d="M334.094,-187.838C399.158,-187.671 501.105,-187.41 573.845,-187.223"/>
<polygon fill="midnightblue" stroke="midnightblue" points="573.918,-190.723 583.909,-187.198 573.9,-183.723 573.918,-190.723"/>
</g>
<!-- Node8 -->
<g id="node16" class="node"><title>Node8</title>
<a xlink:href="../../db/d66/class_u_b_settings.html#a2d3413f8b25d64a698d6d83e0f18ff39" target="_top" xlink:title="UBSettings::getAppSettings">
<polygon fill="white" stroke="black" points="591,-44.5 591,-65.5 731,-65.5 731,-44.5 591,-44.5"/>
<text text-anchor="middle" x="661" y="-52.5" font-family="Helvetica,sans-Serif" font-size="10.00">UBSettings::getAppSettings</text>
</a>
</g>
<!-- Node7&#45;&gt;Node8 -->
<g id="edge16" class="edge"><title>Node7&#45;&gt;Node8</title>
<path fill="none" stroke="midnightblue" d="M511.508,-90.4467C539.85,-83.7263 576.748,-74.9772 606.795,-67.8528"/>
<polygon fill="midnightblue" stroke="midnightblue" points="607.777,-71.217 616.7,-65.5042 606.162,-64.4059 607.777,-71.217"/>
</g>
<!-- Node10 -->
<g id="node20" class="node"><title>Node10</title>
<a xlink:href="../../db/d66/class_u_b_settings.html#aea5fec9db96c03162c2ce1d5d4c41ab0" target="_top" xlink:title="UBSettings::replaceWildcard">
<polygon fill="white" stroke="black" points="589.5,-3.5 589.5,-24.5 732.5,-24.5 732.5,-3.5 589.5,-3.5"/>
<text text-anchor="middle" x="661" y="-11.5" font-family="Helvetica,sans-Serif" font-size="10.00">UBSettings::replaceWildcard</text>
</a>
</g>
<!-- Node7&#45;&gt;Node10 -->
<g id="edge20" class="edge"><title>Node7&#45;&gt;Node10</title>
<path fill="none" stroke="midnightblue" d="M483.014,-90.2634C504.971,-75.9468 546.035,-50.6024 584,-35 590.696,-32.2479 597.867,-29.7445 605.039,-27.5028"/>
<polygon fill="midnightblue" stroke="midnightblue" points="606.187,-30.8129 614.776,-24.6094 604.193,-24.1029 606.187,-30.8129"/>
</g>
<!-- Node12 -->
<g id="node24" class="node"><title>Node12</title>
<a xlink:href="../../db/d66/class_u_b_settings.html#ac0b3c85870c353e48b7d2cfdff9e0eaa" target="_top" xlink:title="UBSettings::checkDirectory">
<polygon fill="white" stroke="black" points="591.5,-136.5 591.5,-157.5 730.5,-157.5 730.5,-136.5 591.5,-136.5"/>
<text text-anchor="middle" x="661" y="-144.5" font-family="Helvetica,sans-Serif" font-size="10.00">UBSettings::checkDirectory</text>
</a>
</g>
<!-- Node7&#45;&gt;Node12 -->
<g id="edge24" class="edge"><title>Node7&#45;&gt;Node12</title>
<path fill="none" stroke="midnightblue" d="M511.508,-111.553C539.85,-118.274 576.748,-127.023 606.795,-134.147"/>
<polygon fill="midnightblue" stroke="midnightblue" points="606.162,-137.594 616.7,-136.496 607.777,-130.783 606.162,-137.594"/>
</g>
<!-- Node13 -->
<g id="node26" class="node"><title>Node13</title>
<a xlink:href="../../d2/d7a/class_u_b_file_system_utils.html#af850f64fdd630fc78510c856f00ffa4f" target="_top" xlink:title="UBFileSystemUtils:\l:normalizeFilePath">
<polygon fill="white" stroke="black" points="609,-84 609,-118 713,-118 713,-84 609,-84"/>
<text text-anchor="start" x="617" y="-105" font-family="Helvetica,sans-Serif" font-size="10.00">UBFileSystemUtils:</text>
<text text-anchor="middle" x="661" y="-92" font-family="Helvetica,sans-Serif" font-size="10.00">:normalizeFilePath</text>
</a>
</g>
<!-- Node7&#45;&gt;Node13 -->
<g id="edge26" class="edge"><title>Node7&#45;&gt;Node13</title>
<path fill="none" stroke="midnightblue" d="M543.117,-101C561.486,-101 580.903,-101 598.562,-101"/>
<polygon fill="midnightblue" stroke="midnightblue" points="598.735,-104.5 608.735,-101 598.735,-97.5001 598.735,-104.5"/>
</g>
<!-- Node9 -->
<g id="node18" class="node"><title>Node9</title>
<a xlink:href="../../d4/d99/class_u_b_platform_utils.html#ae595b29e794b20564550fd45515fc0a8" target="_top" xlink:title="UBPlatformUtils::application\lResourcesDirectory">
<polygon fill="white" stroke="black" points="792,-40 792,-74 932,-74 932,-40 792,-40"/>
<text text-anchor="start" x="800" y="-61" font-family="Helvetica,sans-Serif" font-size="10.00">UBPlatformUtils::application</text>
<text text-anchor="middle" x="862" y="-48" font-family="Helvetica,sans-Serif" font-size="10.00">ResourcesDirectory</text>
</a>
</g>
<!-- Node8&#45;&gt;Node9 -->
<g id="edge18" class="edge"><title>Node8&#45;&gt;Node9</title>
<path fill="none" stroke="midnightblue" d="M731.018,-55.6967C747.343,-55.8591 764.854,-56.0334 781.59,-56.1999"/>
<polygon fill="midnightblue" stroke="midnightblue" points="781.859,-59.7026 791.893,-56.3024 781.928,-52.703 781.859,-59.7026"/>
</g>
<!-- Node11 -->
<g id="node22" class="node"><title>Node11</title>
<a xlink:href="../../d4/d99/class_u_b_platform_utils.html#a4ff6063df12b6d4d0c60c1a17b434599" target="_top" xlink:title="UBPlatformUtils::osUserLoginName">
<polygon fill="white" stroke="black" points="774.5,-0.5 774.5,-21.5 949.5,-21.5 949.5,-0.5 774.5,-0.5"/>
<text text-anchor="middle" x="862" y="-8.5" font-family="Helvetica,sans-Serif" font-size="10.00">UBPlatformUtils::osUserLoginName</text>
</a>
</g>
<!-- Node10&#45;&gt;Node11 -->
<g id="edge22" class="edge"><title>Node10&#45;&gt;Node11</title>
<path fill="none" stroke="midnightblue" d="M732.714,-12.9296C742.967,-12.7766 753.656,-12.6171 764.303,-12.4582"/>
<polygon fill="midnightblue" stroke="midnightblue" points="764.536,-15.9552 774.483,-12.3062 764.431,-8.95595 764.536,-15.9552"/>
</g>
<!-- Node14&#45;&gt;Node2 -->
<g id="edge32" class="edge"><title>Node14&#45;&gt;Node2</title>
<path fill="none" stroke="midnightblue" d="M481.897,-237.702C503.547,-252.891 545.349,-280.868 584,-299 587.808,-300.787 591.774,-302.51 595.808,-304.16"/>
<polygon fill="midnightblue" stroke="midnightblue" points="594.718,-307.491 605.306,-307.873 597.267,-300.972 594.718,-307.491"/>
</g>
<!-- Node15 -->
<g id="node30" class="node"><title>Node15</title>
<a xlink:href="../../dd/d34/class_w_b_history_manager.html#ae0f6c3f537992122192559a4f711a60d" target="_top" xlink:title="WBHistoryManager::history">
<polygon fill="white" stroke="black" points="592.5,-216.5 592.5,-237.5 729.5,-237.5 729.5,-216.5 592.5,-216.5"/>
<text text-anchor="middle" x="661" y="-224.5" font-family="Helvetica,sans-Serif" font-size="10.00">WBHistoryManager::history</text>
</a>
</g>
<!-- Node14&#45;&gt;Node15 -->
<g id="edge30" class="edge"><title>Node14&#45;&gt;Node15</title>
<path fill="none" stroke="midnightblue" d="M543.674,-227C556.377,-227 569.566,-227 582.318,-227"/>
<polygon fill="midnightblue" stroke="midnightblue" points="582.432,-230.5 592.432,-227 582.432,-223.5 582.432,-230.5"/>
</g>
<!-- Node14&#45;&gt;Node16 -->
<g id="edge34" class="edge"><title>Node14&#45;&gt;Node16</title>
<path fill="none" stroke="midnightblue" d="M517.971,-216.49C543.156,-211.298 573.731,-204.994 600.137,-199.549"/>
<polygon fill="midnightblue" stroke="midnightblue" points="600.946,-202.956 610.033,-197.509 599.532,-196.1 600.946,-202.956"/>
</g>
<!-- Node18 -->
<g id="node37" class="node"><title>Node18</title>
<a xlink:href="../../dd/d34/class_w_b_history_manager.html#ab8ca2ee909188de7a1756d84fcf406f4" target="_top" xlink:title="WBHistoryManager::history\lReset">
<polygon fill="white" stroke="black" points="592.5,-256 592.5,-290 729.5,-290 729.5,-256 592.5,-256"/>
<text text-anchor="start" x="600.5" y="-277" font-family="Helvetica,sans-Serif" font-size="10.00">WBHistoryManager::history</text>
<text text-anchor="middle" x="661" y="-264" font-family="Helvetica,sans-Serif" font-size="10.00">Reset</text>
</a>
</g>
<!-- Node14&#45;&gt;Node18 -->
<g id="edge38" class="edge"><title>Node14&#45;&gt;Node18</title>
<path fill="none" stroke="midnightblue" d="M511.508,-237.553C532.548,-242.542 558.304,-248.649 582.471,-254.38"/>
<polygon fill="midnightblue" stroke="midnightblue" points="581.816,-257.821 592.353,-256.723 583.431,-251.01 581.816,-257.821"/>
</g>
<!-- Node17 -->
<g id="node35" class="node"><title>Node17</title>
<a xlink:href="../../dd/d3b/class_u_b_auto_saver.html#add0bbcc4aaba6dcffdaa789a58dabb13" target="_top" xlink:title="UBAutoSaver::saveIfNeccessary">
<polygon fill="white" stroke="black" points="781,-176.5 781,-197.5 943,-197.5 943,-176.5 781,-176.5"/>
<text text-anchor="middle" x="862" y="-184.5" font-family="Helvetica,sans-Serif" font-size="10.00">UBAutoSaver::saveIfNeccessary</text>
</a>
</g>
<!-- Node16&#45;&gt;Node17 -->
<g id="edge36" class="edge"><title>Node16&#45;&gt;Node17</title>
<path fill="none" stroke="midnightblue" d="M738.137,-187C748.708,-187 759.644,-187 770.441,-187"/>
<polygon fill="midnightblue" stroke="midnightblue" points="770.735,-190.5 780.734,-187 770.734,-183.5 770.735,-190.5"/>
</g>
</g>
</svg>
        <g id="navigator" transform="translate(0 0)" fill="#404254">
                <rect fill="#f2f5e9" fill-opacity="0.5" stroke="#606060" stroke-width=".5" x="0" y="0" width="60" height="60"/>
                <use id="zoomplus" xlink:href="#zoomPlus" x="17" y="9" onmousedown="handleZoom(evt,'in')"/>
                <use id="zoomminus" xlink:href="#zoomMin" x="42" y="9" onmousedown="handleZoom(evt,'out')"/>
                <use id="reset" xlink:href="#resetDef" x="30" y="36" onmousedown="handleReset()"/>
                <g id="arrowUp" xlink:href="#dirArrow" transform="translate(30 24)" onmousedown="handlePan(0,-1)">
                  <use xlink:href="#rim" fill="#404040">
                        <set attributeName="fill" to="#808080" begin="arrowUp.mouseover" end="arrowUp.mouseout"/>
                  </use>
                  <path fill="none" stroke="white" stroke-width="1.5" d="M0,-3.0v7 M-2.5,-0.5L0,-3.0L2.5,-0.5"/>
                </g>
                <g id="arrowRight" xlink:href="#dirArrow" transform="rotate(90) translate(36 -43)" onmousedown="handlePan(1,0)">
                  <use xlink:href="#rim" fill="#404040">
                        <set attributeName="fill" to="#808080" begin="arrowRight.mouseover" end="arrowRight.mouseout"/>
                  </use>
                  <path fill="none" stroke="white" stroke-width="1.5" d="M0,-3.0v7 M-2.5,-0.5L0,-3.0L2.5,-0.5"/>
                </g>
                <g id="arrowDown" xlink:href="#dirArrow" transform="rotate(180) translate(-30 -48)" onmousedown="handlePan(0,1)">
                  <use xlink:href="#rim" fill="#404040">
                        <set attributeName="fill" to="#808080" begin="arrowDown.mouseover" end="arrowDown.mouseout"/>
                  </use>
                  <path fill="none" stroke="white" stroke-width="1.5" d="M0,-3.0v7 M-2.5,-0.5L0,-3.0L2.5,-0.5"/>
                </g>
                <g id="arrowLeft" xlink:href="#dirArrow" transform="rotate(270) translate(-36 17)" onmousedown="handlePan(-1,0)">
                  <use xlink:href="#rim" fill="#404040">
                        <set attributeName="fill" to="#808080" begin="arrowLeft.mouseover" end="arrowLeft.mouseout"/>
                  </use>
                  <path fill="none" stroke="white" stroke-width="1.5" d="M0,-3.0v7 M-2.5,-0.5L0,-3.0L2.5,-0.5"/>
                </g>
        </g>
        <svg viewBox="0 0 15 15" width="100%" height="30px" preserveAspectRatio="xMaxYMin meet">
         <g id="arrow_out" transform="scale(0.3 0.3)">
          <a xlink:href="class_w_b_history_manager_af6e554315a62f73b992821d871eeef5d_cgraph_org.svg" target="_base">
           <rect id="button" ry="5" rx="5" y="6" x="6" height="38" width="38"
                fill="#f2f5e9" fill-opacity="0.5" stroke="#606060" stroke-width="1.0"/>
           <path id="arrow"
             d="M 11.500037,31.436501 C 11.940474,20.09759 22.043105,11.32322 32.158766,21.979434 L 37.068811,17.246167 C 37.068811,17.246167 37.088388,32 37.088388,32 L 22.160133,31.978069 C 22.160133,31.978069 26.997745,27.140456 26.997745,27.140456 C 18.528582,18.264221 13.291696,25.230495 11.500037,31.436501 z"
             style="fill:#404040;"/>
          </a>
         </g>
        </svg>
</svg>
