<?xml version="1.0" encoding="UTF-8" standalone="no"?>
<!DOCTYPE svg PUBLIC "-//W3C//DTD SVG 1.1//EN"
 "http://www.w3.org/Graphics/SVG/1.1/DTD/svg11.dtd">
<!-- Generated by graphviz version 2.26.3 (20100126.1600)
 -->
<!-- Title: UBGraphicsCache::maskshape Pages: 1 -->
<svg width="510pt" height="42pt"
 viewBox="0.00 0.00 510.00 42.00" xmlns="http://www.w3.org/2000/svg" xmlns:xlink="http://www.w3.org/1999/xlink">
<g id="graph1" class="graph" transform="scale(1 1) rotate(0) translate(4 38)">
<title>UBGraphicsCache::maskshape</title>
<polygon fill="white" stroke="white" points="-4,5 -4,-38 507,-38 507,5 -4,5"/>
<!-- Node1 -->
<g id="node1" class="node"><title>Node1</title>
<polygon fill="#bfbfbf" stroke="black" points="0.5,-6.5 0.5,-27.5 155.5,-27.5 155.5,-6.5 0.5,-6.5"/>
<text text-anchor="middle" x="78" y="-14.5" font-family="Helvetica,sans-Serif" font-size="10.00">UBGraphicsCache::maskshape</text>
</g>
<!-- Node2 -->
<g id="node3" class="node"><title>Node2</title>
<a xlink:href="../../d8/ddf/class_u_b_cache_properties_widget.html#a100e7726fb61b849fccbcee8dd198742" target="_top" xlink:title="UBCachePropertiesWidget\l::updateCurrentCache">
<polygon fill="white" stroke="black" points="192,-0 192,-34 326,-34 326,-0 192,-0"/>
<text text-anchor="start" x="200" y="-21" font-family="Helvetica,sans-Serif" font-size="10.00">UBCachePropertiesWidget</text>
<text text-anchor="middle" x="259" y="-8" font-family="Helvetica,sans-Serif" font-size="10.00">::updateCurrentCache</text>
</a>
</g>
<!-- Node1&#45;&gt;Node2 -->
<g id="edge2" class="edge"><title>Node1&#45;&gt;Node2</title>
<path fill="none" stroke="midnightblue" d="M165.804,-17C174.57,-17 183.37,-17 191.875,-17"/>
<polygon fill="midnightblue" stroke="midnightblue" points="165.548,-13.5001 155.548,-17 165.548,-20.5001 165.548,-13.5001"/>
</g>
<!-- Node3 -->
<g id="node5" class="node"><title>Node3</title>
<a xlink:href="../../d8/ddf/class_u_b_cache_properties_widget.html#aa3bc851e2fa188c9fcdb460eb0cdcadd" target="_top" xlink:title="UBCachePropertiesWidget\l::UBCachePropertiesWidget">
<polygon fill="white" stroke="black" points="362,-0 362,-34 502,-34 502,-0 362,-0"/>
<text text-anchor="start" x="370" y="-21" font-family="Helvetica,sans-Serif" font-size="10.00">UBCachePropertiesWidget</text>
<text text-anchor="middle" x="432" y="-8" font-family="Helvetica,sans-Serif" font-size="10.00">::UBCachePropertiesWidget</text>
</a>
</g>
<!-- Node2&#45;&gt;Node3 -->
<g id="edge4" class="edge"><title>Node2&#45;&gt;Node3</title>
<path fill="none" stroke="midnightblue" d="M336.602,-17C345.045,-17 353.603,-17 361.948,-17"/>
<polygon fill="midnightblue" stroke="midnightblue" points="336.382,-13.5001 326.382,-17 336.382,-20.5001 336.382,-13.5001"/>
</g>
</g>
</svg>
