<?xml version="1.0" encoding="UTF-8" standalone="no"?>
<!DOCTYPE svg PUBLIC "-//W3C//DTD SVG 1.1//EN"
 "http://www.w3.org/Graphics/SVG/1.1/DTD/svg11.dtd">
<!-- Generated by graphviz version 2.26.3 (20100126.1600)
 -->
<!-- Title: UBGraphicsCache::maskColor Pages: 1 -->
<!--zoomable 148 -->
<svg id="main" version="1.1" xmlns="http://www.w3.org/2000/svg" xmlns:xlink="http://www.w3.org/1999/xlink" xml:space="preserve" onload="init(evt)">
        <defs>
                <circle id="rim" cx="0" cy="0" r="7"/>
                <circle id="rim2" cx="0" cy="0" r="3.5"/>
                <g id="zoomPlus">
                        <use xlink:href="#rim" fill="#404040">
                                <set attributeName="fill" to="#808080" begin="zoomplus.mouseover" end="zoomplus.mouseout"/>
                        </use>
                        <path d="M-4,0h8M0,-4v8" fill="none" stroke="white" stroke-width="1.5" pointer-events="none"/>
                </g>
                <g id="zoomMin">
                        <use xlink:href="#rim" fill="#404040">
                                <set attributeName="fill" to="#808080" begin="zoomminus.mouseover" end="zoomminus.mouseout"/>
                        </use>
                        <path d="M-4,0h8" fill="none" stroke="white" stroke-width="1.5" pointer-events="none"/>
                </g>
                <g id="dirArrow">
                        <path fill="none" stroke="white" stroke-width="1.5" d="M0,-3.0v7 M-2.5,-0.5L0,-3.0L2.5,-0.5"/>
                </g>
               <g id="resetDef">
                       <use xlink:href="#rim2" fill="#404040">
                               <set attributeName="fill" to="#808080" begin="reset.mouseover" end="reset.mouseout"/>
                       </use>
               </g>
        </defs>

<script type="text/javascript">
var viewWidth = 506;
var viewHeight = 148;
var sectionId = 'dynsection-14';
</script>
<script xlink:href="../../svgpan.js"/>
<svg id="graph" class="graph">
<g id="viewport">
<title>UBGraphicsCache::maskColor</title>
<polygon fill="white" stroke="white" points="-4,5 -4,-144 503,-144 503,5 -4,5"/>
<!-- Node1 -->
<g id="node1" class="node"><title>Node1</title>
<polygon fill="#bfbfbf" stroke="black" points="0,-46.5 0,-67.5 152,-67.5 152,-46.5 0,-46.5"/>
<text text-anchor="middle" x="76" y="-54.5" font-family="Helvetica,sans-Serif" font-size="10.00">UBGraphicsCache::maskColor</text>
</g>
<!-- Node2 -->
<g id="node3" class="node"><title>Node2</title>
<a xlink:href="../../d4/d65/class_u_b_svg_subset_adaptor_1_1_u_b_svg_subset_writer.html#a70e8e89f93d39be7820ec791cf693efe" target="_top" xlink:title="UBSvgSubsetAdaptor\l::UBSvgSubsetWriter\l::cacheToSvg">
<polygon fill="white" stroke="black" points="198.5,-92.5 198.5,-139.5 311.5,-139.5 311.5,-92.5 198.5,-92.5"/>
<text text-anchor="start" x="206.5" y="-126.5" font-family="Helvetica,sans-Serif" font-size="10.00">UBSvgSubsetAdaptor</text>
<text text-anchor="start" x="206.5" y="-113.5" font-family="Helvetica,sans-Serif" font-size="10.00">::UBSvgSubsetWriter</text>
<text text-anchor="middle" x="255" y="-100.5" font-family="Helvetica,sans-Serif" font-size="10.00">::cacheToSvg</text>
</a>
</g>
<!-- Node1&#45;&gt;Node2 -->
<g id="edge2" class="edge"><title>Node1&#45;&gt;Node2</title>
<path fill="none" stroke="midnightblue" d="M117.528,-70.6878C141.544,-78.604 172.103,-88.6765 198.308,-97.3137"/>
<polygon fill="midnightblue" stroke="midnightblue" points="118.595,-67.3544 108.002,-67.548 116.403,-74.0026 118.595,-67.3544"/>
</g>
<!-- Node3 -->
<g id="node5" class="node"><title>Node3</title>
<a xlink:href="../../d8/ddf/class_u_b_cache_properties_widget.html#a100e7726fb61b849fccbcee8dd198742" target="_top" xlink:title="UBCachePropertiesWidget\l::updateCurrentCache">
<polygon fill="white" stroke="black" points="188,-40 188,-74 322,-74 322,-40 188,-40"/>
<text text-anchor="start" x="196" y="-61" font-family="Helvetica,sans-Serif" font-size="10.00">UBCachePropertiesWidget</text>
<text text-anchor="middle" x="255" y="-48" font-family="Helvetica,sans-Serif" font-size="10.00">::updateCurrentCache</text>
</a>
</g>
<!-- Node1&#45;&gt;Node3 -->
<g id="edge4" class="edge"><title>Node1&#45;&gt;Node3</title>
<path fill="none" stroke="midnightblue" d="M162.265,-57C170.894,-57 179.564,-57 187.953,-57"/>
<polygon fill="midnightblue" stroke="midnightblue" points="162.172,-53.5001 152.172,-57 162.172,-60.5001 162.172,-53.5001"/>
</g>
<!-- Node5 -->
<g id="node9" class="node"><title>Node5</title>
<a xlink:href="../../d4/d5c/class_u_b_graphics_cache.html#ab4fb4a7a081fb482f5c806d9ab089619" target="_top" xlink:title="UBGraphicsCache::paint">
<polygon fill="white" stroke="black" points="192.5,-0.5 192.5,-21.5 317.5,-21.5 317.5,-0.5 192.5,-0.5"/>
<text text-anchor="middle" x="255" y="-8.5" font-family="Helvetica,sans-Serif" font-size="10.00">UBGraphicsCache::paint</text>
</a>
</g>
<!-- Node1&#45;&gt;Node5 -->
<g id="edge8" class="edge"><title>Node1&#45;&gt;Node5</title>
<path fill="none" stroke="midnightblue" d="M126.942,-43.9087C154.562,-36.8108 188.24,-28.1563 214.125,-21.5042"/>
<polygon fill="midnightblue" stroke="midnightblue" points="125.88,-40.5678 117.066,-46.4467 127.623,-47.3475 125.88,-40.5678"/>
</g>
<!-- Node4 -->
<g id="node7" class="node"><title>Node4</title>
<a xlink:href="../../d8/ddf/class_u_b_cache_properties_widget.html#aa3bc851e2fa188c9fcdb460eb0cdcadd" target="_top" xlink:title="UBCachePropertiesWidget\l::UBCachePropertiesWidget">
<polygon fill="white" stroke="black" points="358,-40 358,-74 498,-74 498,-40 358,-40"/>
<text text-anchor="start" x="366" y="-61" font-family="Helvetica,sans-Serif" font-size="10.00">UBCachePropertiesWidget</text>
<text text-anchor="middle" x="428" y="-48" font-family="Helvetica,sans-Serif" font-size="10.00">::UBCachePropertiesWidget</text>
</a>
</g>
<!-- Node3&#45;&gt;Node4 -->
<g id="edge6" class="edge"><title>Node3&#45;&gt;Node4</title>
<path fill="none" stroke="midnightblue" d="M332.602,-57C341.045,-57 349.603,-57 357.948,-57"/>
<polygon fill="midnightblue" stroke="midnightblue" points="332.382,-53.5001 322.382,-57 332.382,-60.5001 332.382,-53.5001"/>
</g>
</g>
</svg>
        <g id="navigator" transform="translate(0 0)" fill="#404254">
                <rect fill="#f2f5e9" fill-opacity="0.5" stroke="#606060" stroke-width=".5" x="0" y="0" width="60" height="60"/>
                <use id="zoomplus" xlink:href="#zoomPlus" x="17" y="9" onmousedown="handleZoom(evt,'in')"/>
                <use id="zoomminus" xlink:href="#zoomMin" x="42" y="9" onmousedown="handleZoom(evt,'out')"/>
                <use id="reset" xlink:href="#resetDef" x="30" y="36" onmousedown="handleReset()"/>
                <g id="arrowUp" xlink:href="#dirArrow" transform="translate(30 24)" onmousedown="handlePan(0,-1)">
                  <use xlink:href="#rim" fill="#404040">
                        <set attributeName="fill" to="#808080" begin="arrowUp.mouseover" end="arrowUp.mouseout"/>
                  </use>
                  <path fill="none" stroke="white" stroke-width="1.5" d="M0,-3.0v7 M-2.5,-0.5L0,-3.0L2.5,-0.5"/>
                </g>
                <g id="arrowRight" xlink:href="#dirArrow" transform="rotate(90) translate(36 -43)" onmousedown="handlePan(1,0)">
                  <use xlink:href="#rim" fill="#404040">
                        <set attributeName="fill" to="#808080" begin="arrowRight.mouseover" end="arrowRight.mouseout"/>
                  </use>
                  <path fill="none" stroke="white" stroke-width="1.5" d="M0,-3.0v7 M-2.5,-0.5L0,-3.0L2.5,-0.5"/>
                </g>
                <g id="arrowDown" xlink:href="#dirArrow" transform="rotate(180) translate(-30 -48)" onmousedown="handlePan(0,1)">
                  <use xlink:href="#rim" fill="#404040">
                        <set attributeName="fill" to="#808080" begin="arrowDown.mouseover" end="arrowDown.mouseout"/>
                  </use>
                  <path fill="none" stroke="white" stroke-width="1.5" d="M0,-3.0v7 M-2.5,-0.5L0,-3.0L2.5,-0.5"/>
                </g>
                <g id="arrowLeft" xlink:href="#dirArrow" transform="rotate(270) translate(-36 17)" onmousedown="handlePan(-1,0)">
                  <use xlink:href="#rim" fill="#404040">
                        <set attributeName="fill" to="#808080" begin="arrowLeft.mouseover" end="arrowLeft.mouseout"/>
                  </use>
                  <path fill="none" stroke="white" stroke-width="1.5" d="M0,-3.0v7 M-2.5,-0.5L0,-3.0L2.5,-0.5"/>
                </g>
        </g>
        <svg viewBox="0 0 15 15" width="100%" height="30px" preserveAspectRatio="xMaxYMin meet">
         <g id="arrow_out" transform="scale(0.3 0.3)">
          <a xlink:href="class_u_b_graphics_cache_a37847ef6d96093a76c130fb18d80f06c_icgraph_org.svg" target="_base">
           <rect id="button" ry="5" rx="5" y="6" x="6" height="38" width="38"
                fill="#f2f5e9" fill-opacity="0.5" stroke="#606060" stroke-width="1.0"/>
           <path id="arrow"
             d="M 11.500037,31.436501 C 11.940474,20.09759 22.043105,11.32322 32.158766,21.979434 L 37.068811,17.246167 C 37.068811,17.246167 37.088388,32 37.088388,32 L 22.160133,31.978069 C 22.160133,31.978069 26.997745,27.140456 26.997745,27.140456 C 18.528582,18.264221 13.291696,25.230495 11.500037,31.436501 z"
             style="fill:#404040;"/>
          </a>
         </g>
        </svg>
</svg>
