<?xml version="1.0" encoding="UTF-8" standalone="no"?>
<!DOCTYPE svg PUBLIC "-//W3C//DTD SVG 1.1//EN"
 "http://www.w3.org/Graphics/SVG/1.1/DTD/svg11.dtd">
<!-- Generated by graphviz version 2.26.3 (20100126.1600)
 -->
<!-- Title: UBGraphicsCache::hoverEnterEvent Pages: 1 -->
<svg width="352pt" height="70pt"
 viewBox="0.00 0.00 352.00 70.00" xmlns="http://www.w3.org/2000/svg" xmlns:xlink="http://www.w3.org/1999/xlink">
<g id="graph1" class="graph" transform="scale(1 1) rotate(0) translate(4 66)">
<title>UBGraphicsCache::hoverEnterEvent</title>
<polygon fill="white" stroke="white" points="-4,5 -4,-66 349,-66 349,5 -4,5"/>
<!-- Node1 -->
<g id="node1" class="node"><title>Node1</title>
<polygon fill="#bfbfbf" stroke="black" points="0,-14 0,-48 152,-48 152,-14 0,-14"/>
<text text-anchor="start" x="8" y="-35" font-family="Helvetica,sans-Serif" font-size="10.00">UBGraphicsCache::hoverEnter</text>
<text text-anchor="middle" x="76" y="-22" font-family="Helvetica,sans-Serif" font-size="10.00">Event</text>
</g>
<!-- Node2 -->
<g id="node3" class="node"><title>Node2</title>
<a xlink:href="../../d4/d5c/class_u_b_graphics_cache.html#ab51c8e49d13dae60ad149ef6e4127e43" target="_top" xlink:title="UBGraphicsCache::drawHole">
<polygon fill="white" stroke="black" points="193,-40.5 193,-61.5 339,-61.5 339,-40.5 193,-40.5"/>
<text text-anchor="middle" x="266" y="-48.5" font-family="Helvetica,sans-Serif" font-size="10.00">UBGraphicsCache::drawHole</text>
</a>
</g>
<!-- Node1&#45;&gt;Node2 -->
<g id="edge2" class="edge"><title>Node1&#45;&gt;Node2</title>
<path fill="none" stroke="midnightblue" d="M152.185,-39.0195C162.252,-40.0791 172.611,-41.1696 182.787,-42.2408"/>
<polygon fill="midnightblue" stroke="midnightblue" points="182.573,-45.7375 192.885,-43.3037 183.306,-38.776 182.573,-45.7375"/>
</g>
<!-- Node3 -->
<g id="node5" class="node"><title>Node3</title>
<a xlink:href="../../d4/d5c/class_u_b_graphics_cache.html#acc542f786ca35eb568b2ae625bbe9105" target="_top" xlink:title="UBGraphicsCache::updateRect">
<polygon fill="white" stroke="black" points="188.5,-0.5 188.5,-21.5 343.5,-21.5 343.5,-0.5 188.5,-0.5"/>
<text text-anchor="middle" x="266" y="-8.5" font-family="Helvetica,sans-Serif" font-size="10.00">UBGraphicsCache::updateRect</text>
</a>
</g>
<!-- Node1&#45;&gt;Node3 -->
<g id="edge4" class="edge"><title>Node1&#45;&gt;Node3</title>
<path fill="none" stroke="midnightblue" d="M152.185,-22.9805C160.719,-22.0822 169.464,-21.1617 178.129,-20.2496"/>
<polygon fill="midnightblue" stroke="midnightblue" points="178.668,-23.7123 188.246,-19.1846 177.935,-16.7507 178.668,-23.7123"/>
</g>
</g>
</svg>
