<?xml version="1.0" encoding="UTF-8" standalone="no"?>
<!DOCTYPE svg PUBLIC "-//W3C//DTD SVG 1.1//EN"
 "http://www.w3.org/Graphics/SVG/1.1/DTD/svg11.dtd">
<!-- Generated by graphviz version 2.26.3 (20100126.1600)
 -->
<!-- Title: UBGraphicsCache::instance Pages: 1 -->
<svg width="1672pt" height="764pt"
 viewBox="0.00 0.00 1672.00 764.00" xmlns="http://www.w3.org/2000/svg" xmlns:xlink="http://www.w3.org/1999/xlink">
<g id="graph1" class="graph" transform="scale(1 1) rotate(0) translate(4 760)">
<title>UBGraphicsCache::instance</title>
<polygon fill="white" stroke="white" points="-4,5 -4,-760 1669,-760 1669,5 -4,5"/>
<!-- Node1 -->
<g id="node1" class="node"><title>Node1</title>
<polygon fill="#bfbfbf" stroke="black" points="0.5,-501.5 0.5,-522.5 141.5,-522.5 141.5,-501.5 0.5,-501.5"/>
<text text-anchor="middle" x="71" y="-509.5" font-family="Helvetica,sans-Serif" font-size="10.00">UBGraphicsCache::instance</text>
</g>
<!-- Node2 -->
<g id="node3" class="node"><title>Node2</title>
<a xlink:href="../../dc/db2/class_u_b_graphics_scene.html#a81fa8cbc224c10469d7cb44e3a8eaf6c" target="_top" xlink:title="UBGraphicsScene::addCache">
<polygon fill="white" stroke="black" points="178,-528.5 178,-549.5 326,-549.5 326,-528.5 178,-528.5"/>
<text text-anchor="middle" x="252" y="-536.5" font-family="Helvetica,sans-Serif" font-size="10.00">UBGraphicsScene::addCache</text>
</a>
</g>
<!-- Node1&#45;&gt;Node2 -->
<g id="edge2" class="edge"><title>Node1&#45;&gt;Node2</title>
<path fill="none" stroke="midnightblue" d="M151.417,-523.996C161.409,-525.486 171.568,-527.002 181.397,-528.468"/>
<polygon fill="midnightblue" stroke="midnightblue" points="151.905,-520.53 141.498,-522.516 150.872,-527.453 151.905,-520.53"/>
</g>
<!-- Node50 -->
<g id="node106" class="node"><title>Node50</title>
<a xlink:href="../../d8/d4f/class_u_b_svg_subset_adaptor_1_1_u_b_svg_subset_reader.html#ab2c41d8c8aa2b37e53cf0e79158c838e" target="_top" xlink:title="UBSvgSubsetAdaptor\l::UBSvgSubsetReader\l::cacheFromSvg">
<polygon fill="white" stroke="black" points="194,-462.5 194,-509.5 310,-509.5 310,-462.5 194,-462.5"/>
<text text-anchor="start" x="202" y="-496.5" font-family="Helvetica,sans-Serif" font-size="10.00">UBSvgSubsetAdaptor</text>
<text text-anchor="start" x="202" y="-483.5" font-family="Helvetica,sans-Serif" font-size="10.00">::UBSvgSubsetReader</text>
<text text-anchor="middle" x="252" y="-470.5" font-family="Helvetica,sans-Serif" font-size="10.00">::cacheFromSvg</text>
</a>
</g>
<!-- Node1&#45;&gt;Node50 -->
<g id="edge112" class="edge"><title>Node1&#45;&gt;Node50</title>
<path fill="none" stroke="midnightblue" d="M151.961,-500.37C166.078,-498.342 180.508,-496.27 193.856,-494.352"/>
<polygon fill="midnightblue" stroke="midnightblue" points="151.158,-496.95 141.757,-501.836 152.153,-503.879 151.158,-496.95"/>
</g>
<!-- Node3 -->
<g id="node5" class="node"><title>Node3</title>
<a xlink:href="../../d7/d62/class_u_b_board_controller.html#ab6cbc7bda85279e7eee5c5923892dd1a" target="_top" xlink:title="UBBoardController:\l:downloadFinished">
<polygon fill="white" stroke="black" points="362.5,-522 362.5,-556 463.5,-556 463.5,-522 362.5,-522"/>
<text text-anchor="start" x="370.5" y="-543" font-family="Helvetica,sans-Serif" font-size="10.00">UBBoardController:</text>
<text text-anchor="middle" x="413" y="-530" font-family="Helvetica,sans-Serif" font-size="10.00">:downloadFinished</text>
</a>
</g>
<!-- Node2&#45;&gt;Node3 -->
<g id="edge4" class="edge"><title>Node2&#45;&gt;Node3</title>
<path fill="none" stroke="midnightblue" d="M336.396,-539C345.269,-539 354.079,-539 362.393,-539"/>
<polygon fill="midnightblue" stroke="midnightblue" points="336.373,-535.5 326.373,-539 336.373,-542.5 336.373,-535.5"/>
</g>
<!-- Node4 -->
<g id="node7" class="node"><title>Node4</title>
<a xlink:href="../../d7/d62/class_u_b_board_controller.html#aa728cb7c1b979b2d4ae45638a7386dde" target="_top" xlink:title="UBBoardController::init">
<polygon fill="white" stroke="black" points="500.5,-639.5 500.5,-660.5 617.5,-660.5 617.5,-639.5 500.5,-639.5"/>
<text text-anchor="middle" x="559" y="-647.5" font-family="Helvetica,sans-Serif" font-size="10.00">UBBoardController::init</text>
</a>
</g>
<!-- Node3&#45;&gt;Node4 -->
<g id="edge6" class="edge"><title>Node3&#45;&gt;Node4</title>
<path fill="none" stroke="midnightblue" d="M439.913,-563.094C456.749,-577.78 479.131,-596.619 500,-612 513.436,-621.903 529.389,-632.09 541.316,-639.42"/>
<polygon fill="midnightblue" stroke="midnightblue" points="441.947,-560.222 432.125,-556.251 437.327,-565.48 441.947,-560.222"/>
</g>
<!-- Node7 -->
<g id="node13" class="node"><title>Node7</title>
<a xlink:href="../../d7/d62/class_u_b_board_controller.html#abae2655269e06f72767de71b8513f6be" target="_top" xlink:title="UBBoardController:\l:duplicateItem">
<polygon fill="white" stroke="black" points="690.5,-498 690.5,-532 791.5,-532 791.5,-498 690.5,-498"/>
<text text-anchor="start" x="698.5" y="-519" font-family="Helvetica,sans-Serif" font-size="10.00">UBBoardController:</text>
<text text-anchor="middle" x="741" y="-506" font-family="Helvetica,sans-Serif" font-size="10.00">:duplicateItem</text>
</a>
</g>
<!-- Node3&#45;&gt;Node7 -->
<g id="edge12" class="edge"><title>Node3&#45;&gt;Node7</title>
<path fill="none" stroke="midnightblue" d="M473.62,-534.564C535.976,-530.002 632,-522.976 690.411,-518.702"/>
<polygon fill="midnightblue" stroke="midnightblue" points="473.249,-531.082 463.531,-535.303 473.76,-538.063 473.249,-531.082"/>
</g>
<!-- Node32 -->
<g id="node67" class="node"><title>Node32</title>
<a xlink:href="../../d7/d62/class_u_b_board_controller.html#a358f3f88d1fa9e41620170d76a806f93" target="_top" xlink:title="UBBoardController:\l:downloadURL">
<polygon fill="white" stroke="black" points="508.5,-316 508.5,-350 609.5,-350 609.5,-316 508.5,-316"/>
<text text-anchor="start" x="516.5" y="-337" font-family="Helvetica,sans-Serif" font-size="10.00">UBBoardController:</text>
<text text-anchor="middle" x="559" y="-324" font-family="Helvetica,sans-Serif" font-size="10.00">:downloadURL</text>
</a>
</g>
<!-- Node3&#45;&gt;Node32 -->
<g id="edge70" class="edge"><title>Node3&#45;&gt;Node32</title>
<path fill="none" stroke="midnightblue" d="M430.992,-513.614C461.192,-471.004 521.288,-386.21 546.941,-350.015"/>
<polygon fill="midnightblue" stroke="midnightblue" points="428.124,-511.608 425.197,-521.791 433.835,-515.656 428.124,-511.608"/>
</g>
<!-- Node5 -->
<g id="node9" class="node"><title>Node5</title>
<a xlink:href="../../d8/d81/class_u_b_application.html#add1469239e71bf24fdc61413a42a38bd" target="_top" xlink:title="UBApplication::exec">
<polygon fill="white" stroke="black" points="688,-665.5 688,-686.5 794,-686.5 794,-665.5 688,-665.5"/>
<text text-anchor="middle" x="741" y="-673.5" font-family="Helvetica,sans-Serif" font-size="10.00">UBApplication::exec</text>
</a>
</g>
<!-- Node4&#45;&gt;Node5 -->
<g id="edge8" class="edge"><title>Node4&#45;&gt;Node5</title>
<path fill="none" stroke="midnightblue" d="M627.536,-659.791C647.463,-662.638 668.923,-665.703 687.76,-668.394"/>
<polygon fill="midnightblue" stroke="midnightblue" points="627.982,-656.319 617.588,-658.37 626.992,-663.249 627.982,-656.319"/>
</g>
<!-- Node6 -->
<g id="node11" class="node"><title>Node6</title>
<a xlink:href="../../df/d0a/main_8cpp.html#a0ddf1224851353fc92bfbff6f499fa97" target="_top" xlink:title="main">
<polygon fill="white" stroke="black" points="934,-678.5 934,-699.5 972,-699.5 972,-678.5 934,-678.5"/>
<text text-anchor="middle" x="953" y="-686.5" font-family="Helvetica,sans-Serif" font-size="10.00">main</text>
</a>
</g>
<!-- Node5&#45;&gt;Node6 -->
<g id="edge10" class="edge"><title>Node5&#45;&gt;Node6</title>
<path fill="none" stroke="midnightblue" d="M804.343,-679.884C848.656,-682.602 904.908,-686.051 933.861,-687.826"/>
<polygon fill="midnightblue" stroke="midnightblue" points="804.418,-676.382 794.223,-679.264 803.99,-683.369 804.418,-676.382"/>
</g>
<!-- Node8 -->
<g id="node15" class="node"><title>Node8</title>
<a xlink:href="../../d7/d62/class_u_b_board_controller.html#a07e50010567075b570140d6143c516f5" target="_top" xlink:title="UBBoardController:\l:processMimeData">
<polygon fill="white" stroke="black" points="902.5,-368 902.5,-402 1003.5,-402 1003.5,-368 902.5,-368"/>
<text text-anchor="start" x="910.5" y="-389" font-family="Helvetica,sans-Serif" font-size="10.00">UBBoardController:</text>
<text text-anchor="middle" x="953" y="-376" font-family="Helvetica,sans-Serif" font-size="10.00">:processMimeData</text>
</a>
</g>
<!-- Node7&#45;&gt;Node8 -->
<g id="edge14" class="edge"><title>Node7&#45;&gt;Node8</title>
<path fill="none" stroke="midnightblue" d="M801.399,-501.563C810.674,-498.213 819.861,-494.079 828,-489 848.012,-476.512 846.392,-465.697 864,-450 883.852,-432.302 908.385,-414.66 926.662,-402.231"/>
<polygon fill="midnightblue" stroke="midnightblue" points="800.123,-498.299 791.741,-504.778 802.334,-504.941 800.123,-498.299"/>
</g>
<!-- Node12 -->
<g id="node23" class="node"><title>Node12</title>
<a xlink:href="../../d7/d62/class_u_b_board_controller.html#af713d6e325369af244f2af8c90299a35" target="_top" xlink:title="UBBoardController:\l:moveGraphicsWidgetToControlView">
<polygon fill="white" stroke="black" points="864,-626 864,-660 1042,-660 1042,-626 864,-626"/>
<text text-anchor="start" x="872" y="-647" font-family="Helvetica,sans-Serif" font-size="10.00">UBBoardController:</text>
<text text-anchor="middle" x="953" y="-634" font-family="Helvetica,sans-Serif" font-size="10.00">:moveGraphicsWidgetToControlView</text>
</a>
</g>
<!-- Node7&#45;&gt;Node12 -->
<g id="edge22" class="edge"><title>Node7&#45;&gt;Node12</title>
<path fill="none" stroke="midnightblue" d="M778.357,-537.555C820.106,-562.762 886.782,-603.019 924.524,-625.807"/>
<polygon fill="midnightblue" stroke="midnightblue" points="779.961,-534.435 769.591,-532.263 776.343,-540.428 779.961,-534.435"/>
</g>
<!-- Node22 -->
<g id="node47" class="node"><title>Node22</title>
<a xlink:href="../../dd/dd5/class_u_b_graphics_item_delegate.html#a525c69cb3c3c0df6c4db4d406fd80e48" target="_top" xlink:title="UBGraphicsItemDelegate\l::duplicate">
<polygon fill="white" stroke="black" points="889,-459 889,-493 1017,-493 1017,-459 889,-459"/>
<text text-anchor="start" x="897" y="-480" font-family="Helvetica,sans-Serif" font-size="10.00">UBGraphicsItemDelegate</text>
<text text-anchor="middle" x="953" y="-467" font-family="Helvetica,sans-Serif" font-size="10.00">::duplicate</text>
</a>
</g>
<!-- Node7&#45;&gt;Node22 -->
<g id="edge50" class="edge"><title>Node7&#45;&gt;Node22</title>
<path fill="none" stroke="midnightblue" d="M801.696,-503.834C828.954,-498.82 861.136,-492.9 888.796,-487.811"/>
<polygon fill="midnightblue" stroke="midnightblue" points="800.712,-500.456 791.51,-505.708 801.978,-507.341 800.712,-500.456"/>
</g>
<!-- Node9 -->
<g id="node17" class="node"><title>Node9</title>
<a xlink:href="../../d7/d62/class_u_b_board_controller.html#a68518a98107e994551da0a4e3a79fe2c" target="_top" xlink:title="UBBoardController:\l:paste">
<polygon fill="white" stroke="black" points="1116.5,-322 1116.5,-356 1217.5,-356 1217.5,-322 1116.5,-322"/>
<text text-anchor="start" x="1124.5" y="-343" font-family="Helvetica,sans-Serif" font-size="10.00">UBBoardController:</text>
<text text-anchor="middle" x="1167" y="-330" font-family="Helvetica,sans-Serif" font-size="10.00">:paste</text>
</a>
</g>
<!-- Node8&#45;&gt;Node9 -->
<g id="edge16" class="edge"><title>Node8&#45;&gt;Node9</title>
<path fill="none" stroke="midnightblue" d="M1013.54,-371.987C1045.97,-365.016 1085.47,-356.524 1116.28,-349.903"/>
<polygon fill="midnightblue" stroke="midnightblue" points="1012.76,-368.575 1003.72,-374.099 1014.23,-375.419 1012.76,-368.575"/>
</g>
<!-- Node11 -->
<g id="node21" class="node"><title>Node11</title>
<a xlink:href="../../d1/d78/class_u_b_board_view.html#a1bb7794094c4bb04637b0df2bc0c0fa9" target="_top" xlink:title="UBBoardView::dropEvent">
<polygon fill="white" stroke="black" points="1103,-374.5 1103,-395.5 1231,-395.5 1231,-374.5 1103,-374.5"/>
<text text-anchor="middle" x="1167" y="-382.5" font-family="Helvetica,sans-Serif" font-size="10.00">UBBoardView::dropEvent</text>
</a>
</g>
<!-- Node8&#45;&gt;Node11 -->
<g id="edge20" class="edge"><title>Node8&#45;&gt;Node11</title>
<path fill="none" stroke="midnightblue" d="M1013.72,-385C1041.56,-385 1074.58,-385 1102.83,-385"/>
<polygon fill="midnightblue" stroke="midnightblue" points="1013.72,-381.5 1003.72,-385 1013.71,-388.5 1013.72,-381.5"/>
</g>
<!-- Node10 -->
<g id="node19" class="node"><title>Node10</title>
<a xlink:href="../../da/d14/class_u_b_application_controller.html#a6afa41e1bc0c178acaa89684b7e9db26" target="_top" xlink:title="UBApplicationController\l::actionPaste">
<polygon fill="white" stroke="black" points="1323.5,-122 1323.5,-156 1444.5,-156 1444.5,-122 1323.5,-122"/>
<text text-anchor="start" x="1331.5" y="-143" font-family="Helvetica,sans-Serif" font-size="10.00">UBApplicationController</text>
<text text-anchor="middle" x="1384" y="-130" font-family="Helvetica,sans-Serif" font-size="10.00">::actionPaste</text>
</a>
</g>
<!-- Node9&#45;&gt;Node10 -->
<g id="edge18" class="edge"><title>Node9&#45;&gt;Node10</title>
<path fill="none" stroke="midnightblue" d="M1227.5,-330.617C1238.13,-326.73 1248.25,-321.109 1256,-313 1302.76,-264.053 1245.02,-213.741 1292,-165 1300.41,-156.276 1311.5,-150.413 1323.07,-146.49"/>
<polygon fill="midnightblue" stroke="midnightblue" points="1226.13,-327.377 1217.65,-333.72 1228.24,-334.054 1226.13,-327.377"/>
</g>
<!-- Node13 -->
<g id="node25" class="node"><title>Node13</title>
<a xlink:href="../../dc/db2/class_u_b_graphics_scene.html#aa63a9c1b5eb1de5a0d06a0f2b449648a" target="_top" xlink:title="UBGraphicsScene::addGraphics\lWidget">
<polygon fill="white" stroke="black" points="1088,-626 1088,-660 1246,-660 1246,-626 1088,-626"/>
<text text-anchor="start" x="1096" y="-647" font-family="Helvetica,sans-Serif" font-size="10.00">UBGraphicsScene::addGraphics</text>
<text text-anchor="middle" x="1167" y="-634" font-family="Helvetica,sans-Serif" font-size="10.00">Widget</text>
</a>
</g>
<!-- Node12&#45;&gt;Node13 -->
<g id="edge24" class="edge"><title>Node12&#45;&gt;Node13</title>
<path fill="none" stroke="midnightblue" d="M1052.56,-643C1064.39,-643 1076.34,-643 1087.83,-643"/>
<polygon fill="midnightblue" stroke="midnightblue" points="1052.21,-639.5 1042.21,-643 1052.21,-646.5 1052.21,-639.5"/>
</g>
<!-- Node20 -->
<g id="node43" class="node"><title>Node20</title>
<a xlink:href="../../d8/d2c/class_u_b_graphics_widget_item_delegate.html#a2b446e23a250de4f8c162e1411058cb5" target="_top" xlink:title="UBGraphicsWidgetItemDelegate::pin">
<polygon fill="white" stroke="black" points="1078,-707.5 1078,-728.5 1256,-728.5 1256,-707.5 1078,-707.5"/>
<text text-anchor="middle" x="1167" y="-715.5" font-family="Helvetica,sans-Serif" font-size="10.00">UBGraphicsWidgetItemDelegate::pin</text>
</a>
</g>
<!-- Node12&#45;&gt;Node20 -->
<g id="edge46" class="edge"><title>Node12&#45;&gt;Node20</title>
<path fill="none" stroke="midnightblue" d="M1023.76,-663.045C1029.95,-664.988 1036.1,-666.987 1042,-669 1077.07,-680.971 1116.8,-696.974 1141.87,-707.383"/>
<polygon fill="midnightblue" stroke="midnightblue" points="1024.62,-659.646 1014.03,-660.044 1022.55,-666.335 1024.62,-659.646"/>
</g>
<!-- Node14 -->
<g id="node27" class="node"><title>Node14</title>
<a xlink:href="../../d7/d62/class_u_b_board_controller.html#af122a3bb14b0ef66b169be9fd0e5a2b3" target="_top" xlink:title="UBBoardController:\l:moveToolWidgetToScene">
<polygon fill="white" stroke="black" points="1318,-670 1318,-704 1450,-704 1450,-670 1318,-670"/>
<text text-anchor="start" x="1326" y="-691" font-family="Helvetica,sans-Serif" font-size="10.00">UBBoardController:</text>
<text text-anchor="middle" x="1384" y="-678" font-family="Helvetica,sans-Serif" font-size="10.00">:moveToolWidgetToScene</text>
</a>
</g>
<!-- Node13&#45;&gt;Node14 -->
<g id="edge26" class="edge"><title>Node13&#45;&gt;Node14</title>
<path fill="none" stroke="midnightblue" d="M1256.28,-661.102C1276.86,-665.275 1298.39,-669.641 1317.78,-673.574"/>
<polygon fill="midnightblue" stroke="midnightblue" points="1256.76,-657.629 1246.26,-659.072 1255.37,-664.489 1256.76,-657.629"/>
</g>
<!-- Node16 -->
<g id="node31" class="node"><title>Node16</title>
<a xlink:href="../../dc/db2/class_u_b_graphics_scene.html#aa86ec061e79ba18c2efe73a6bf10bf33" target="_top" xlink:title="UBGraphicsScene::addApple\lWidget">
<polygon fill="white" stroke="black" points="1312,-618 1312,-652 1456,-652 1456,-618 1312,-618"/>
<text text-anchor="start" x="1320" y="-639" font-family="Helvetica,sans-Serif" font-size="10.00">UBGraphicsScene::addApple</text>
<text text-anchor="middle" x="1384" y="-626" font-family="Helvetica,sans-Serif" font-size="10.00">Widget</text>
</a>
</g>
<!-- Node13&#45;&gt;Node16 -->
<g id="edge30" class="edge"><title>Node13&#45;&gt;Node16</title>
<path fill="none" stroke="midnightblue" d="M1256.41,-639.704C1274.85,-639.024 1294.05,-638.316 1311.79,-637.662"/>
<polygon fill="midnightblue" stroke="midnightblue" points="1256.13,-636.212 1246.26,-640.078 1256.39,-643.207 1256.13,-636.212"/>
</g>
<!-- Node18 -->
<g id="node36" class="node"><title>Node18</title>
<a xlink:href="../../dc/db2/class_u_b_graphics_scene.html#acb26de2926454faf9c5ca66989779d82" target="_top" xlink:title="UBGraphicsScene::addW3CWidget">
<polygon fill="white" stroke="red" points="1297.5,-578.5 1297.5,-599.5 1470.5,-599.5 1470.5,-578.5 1297.5,-578.5"/>
<text text-anchor="middle" x="1384" y="-586.5" font-family="Helvetica,sans-Serif" font-size="10.00">UBGraphicsScene::addW3CWidget</text>
</a>
</g>
<!-- Node13&#45;&gt;Node18 -->
<g id="edge36" class="edge"><title>Node13&#45;&gt;Node18</title>
<path fill="none" stroke="midnightblue" d="M1237.02,-623.274C1254.9,-618.424 1274.12,-613.372 1292,-609 1305.34,-605.739 1319.83,-602.464 1333.28,-599.537"/>
<polygon fill="midnightblue" stroke="midnightblue" points="1235.96,-619.933 1227.24,-625.942 1237.81,-626.686 1235.96,-619.933"/>
</g>
<!-- Node15 -->
<g id="node29" class="node"><title>Node15</title>
<a xlink:href="../../dc/de3/class_u_b_tool_widget.html#adc43c4c0d6cb3e0f5881df830775b5b7" target="_top" xlink:title="UBToolWidget::mouseRelease\lEvent">
<polygon fill="white" stroke="black" points="1512,-670 1512,-704 1664,-704 1664,-670 1512,-670"/>
<text text-anchor="start" x="1520" y="-691" font-family="Helvetica,sans-Serif" font-size="10.00">UBToolWidget::mouseRelease</text>
<text text-anchor="middle" x="1588" y="-678" font-family="Helvetica,sans-Serif" font-size="10.00">Event</text>
</a>
</g>
<!-- Node14&#45;&gt;Node15 -->
<g id="edge28" class="edge"><title>Node14&#45;&gt;Node15</title>
<path fill="none" stroke="midnightblue" d="M1460.53,-687C1477.31,-687 1495.07,-687 1511.83,-687"/>
<polygon fill="midnightblue" stroke="midnightblue" points="1460.23,-683.5 1450.23,-687 1460.23,-690.5 1460.23,-683.5"/>
</g>
<!-- Node16&#45;&gt;Node3 -->
<g id="edge32" class="edge"><title>Node16&#45;&gt;Node3</title>
<path fill="none" stroke="midnightblue" d="M1301.36,-622.427C1286.29,-620.406 1270.69,-618.492 1256,-617 1121.76,-603.373 1087.93,-598 953,-598 741,-598 741,-598 741,-598 632.889,-598 605.662,-587.879 500,-565 488.136,-562.431 475.539,-559.055 463.722,-555.591"/>
<polygon fill="midnightblue" stroke="midnightblue" points="1301.3,-625.952 1311.69,-623.839 1302.25,-619.017 1301.3,-625.952"/>
</g>
<!-- Node17 -->
<g id="node34" class="node"><title>Node17</title>
<a xlink:href="../../dc/db2/class_u_b_graphics_scene.html#aff586f570c8625a51bccef943662a29d" target="_top" xlink:title="UBGraphicsScene::addWidget">
<polygon fill="white" stroke="black" points="1513,-601.5 1513,-622.5 1663,-622.5 1663,-601.5 1513,-601.5"/>
<text text-anchor="middle" x="1588" y="-609.5" font-family="Helvetica,sans-Serif" font-size="10.00">UBGraphicsScene::addWidget</text>
</a>
</g>
<!-- Node16&#45;&gt;Node17 -->
<g id="edge34" class="edge"><title>Node16&#45;&gt;Node17</title>
<path fill="none" stroke="midnightblue" d="M1466.22,-625.73C1481.6,-623.996 1497.62,-622.19 1512.78,-620.481"/>
<polygon fill="midnightblue" stroke="midnightblue" points="1465.75,-622.26 1456.21,-626.859 1466.54,-629.216 1465.75,-622.26"/>
</g>
<!-- Node18&#45;&gt;Node3 -->
<g id="edge42" class="edge"><title>Node18&#45;&gt;Node3</title>
<path fill="none" stroke="midnightblue" d="M1287.28,-578.763C1200.01,-570.416 1068.06,-560 953,-560 741,-560 741,-560 741,-560 642.57,-560 527.863,-550.465 463.507,-544.245"/>
<polygon fill="midnightblue" stroke="midnightblue" points="1287.14,-582.266 1297.43,-579.744 1287.82,-575.299 1287.14,-582.266"/>
</g>
<!-- Node18&#45;&gt;Node17 -->
<g id="edge44" class="edge"><title>Node18&#45;&gt;Node17</title>
<path fill="none" stroke="midnightblue" d="M1480.49,-599.879C1491.4,-601.109 1502.39,-602.348 1512.97,-603.54"/>
<polygon fill="midnightblue" stroke="midnightblue" points="1480.84,-596.397 1470.51,-598.754 1480.06,-603.352 1480.84,-596.397"/>
</g>
<!-- Node19 -->
<g id="node38" class="node"><title>Node19</title>
<a xlink:href="../../d7/d62/class_u_b_board_controller.html#a5f701f4cd3173743effca3b3b0bd4615" target="_top" xlink:title="UBBoardController:\l:addLinkToPage">
<polygon fill="white" stroke="red" points="1537.5,-274 1537.5,-308 1638.5,-308 1638.5,-274 1537.5,-274"/>
<text text-anchor="start" x="1545.5" y="-295" font-family="Helvetica,sans-Serif" font-size="10.00">UBBoardController:</text>
<text text-anchor="middle" x="1588" y="-282" font-family="Helvetica,sans-Serif" font-size="10.00">:addLinkToPage</text>
</a>
</g>
<!-- Node18&#45;&gt;Node19 -->
<g id="edge38" class="edge"><title>Node18&#45;&gt;Node19</title>
<path fill="none" stroke="midnightblue" d="M1470.26,-573.3C1472.25,-571.973 1474.17,-570.542 1476,-569 1559.31,-498.696 1581.27,-357.28 1586.5,-308.226"/>
<polygon fill="midnightblue" stroke="midnightblue" points="1468.07,-570.516 1461.09,-578.483 1471.52,-576.61 1468.07,-570.516"/>
</g>
<!-- Node19&#45;&gt;Node3 -->
<g id="edge40" class="edge"><title>Node19&#45;&gt;Node3</title>
<path fill="none" stroke="midnightblue" d="M1577.86,-264.42C1561.86,-225.835 1527.22,-154.406 1476,-113 1362.29,-21.0662 1313.23,-7.10543e-15 1167,-0 741,-0 741,-0 741,-0 490.425,-0 425.767,-430.359 414.841,-521.979"/>
<polygon fill="midnightblue" stroke="midnightblue" points="1574.71,-265.971 1581.7,-273.933 1581.2,-263.35 1574.71,-265.971"/>
</g>
<!-- Node21 -->
<g id="node45" class="node"><title>Node21</title>
<a xlink:href="../../d8/d2c/class_u_b_graphics_widget_item_delegate.html#a79bf31a6cda75de23b70469270de5bd9" target="_top" xlink:title="UBGraphicsWidgetItemDelegate\l::decorateMenu">
<polygon fill="white" stroke="black" points="1304.5,-722 1304.5,-756 1463.5,-756 1463.5,-722 1304.5,-722"/>
<text text-anchor="start" x="1312.5" y="-743" font-family="Helvetica,sans-Serif" font-size="10.00">UBGraphicsWidgetItemDelegate</text>
<text text-anchor="middle" x="1384" y="-730" font-family="Helvetica,sans-Serif" font-size="10.00">::decorateMenu</text>
</a>
</g>
<!-- Node20&#45;&gt;Node21 -->
<g id="edge48" class="edge"><title>Node20&#45;&gt;Node21</title>
<path fill="none" stroke="midnightblue" d="M1266.32,-727.612C1279.01,-728.84 1291.86,-730.083 1304.18,-731.276"/>
<polygon fill="midnightblue" stroke="midnightblue" points="1266.49,-724.112 1256.2,-726.632 1265.82,-731.079 1266.49,-724.112"/>
</g>
<!-- Node23 -->
<g id="node49" class="node"><title>Node23</title>
<a xlink:href="../../dd/dd5/class_u_b_graphics_item_delegate.html#a1de77276aba7276defacd0b87c9b87c7" target="_top" xlink:title="UBGraphicsItemDelegate\l::init">
<polygon fill="white" stroke="black" points="1103,-414 1103,-448 1231,-448 1231,-414 1103,-414"/>
<text text-anchor="start" x="1111" y="-435" font-family="Helvetica,sans-Serif" font-size="10.00">UBGraphicsItemDelegate</text>
<text text-anchor="middle" x="1167" y="-422" font-family="Helvetica,sans-Serif" font-size="10.00">::init</text>
</a>
</g>
<!-- Node22&#45;&gt;Node23 -->
<g id="edge52" class="edge"><title>Node22&#45;&gt;Node23</title>
<path fill="none" stroke="midnightblue" d="M1027.22,-460.392C1051.85,-455.214 1079.04,-449.497 1102.84,-444.492"/>
<polygon fill="midnightblue" stroke="midnightblue" points="1026.27,-457.016 1017.21,-462.499 1027.71,-463.866 1026.27,-457.016"/>
</g>
<!-- Node24 -->
<g id="node51" class="node"><title>Node24</title>
<a xlink:href="../../de/d93/class_u_b_graphics_group_container_item.html#a2aaeb364079830d1720110c30f999ec8" target="_top" xlink:title="UBGraphicsGroupContainer\lItem::UBGraphicsGroupContainerItem">
<polygon fill="white" stroke="red" points="1292.5,-526 1292.5,-560 1475.5,-560 1475.5,-526 1292.5,-526"/>
<text text-anchor="start" x="1300.5" y="-547" font-family="Helvetica,sans-Serif" font-size="10.00">UBGraphicsGroupContainer</text>
<text text-anchor="middle" x="1384" y="-534" font-family="Helvetica,sans-Serif" font-size="10.00">Item::UBGraphicsGroupContainerItem</text>
</a>
</g>
<!-- Node23&#45;&gt;Node24 -->
<g id="edge54" class="edge"><title>Node23&#45;&gt;Node24</title>
<path fill="none" stroke="midnightblue" d="M1195.45,-454.62C1219.77,-473.784 1256.38,-500.274 1292,-517 1299.06,-520.316 1306.63,-523.291 1314.28,-525.938"/>
<polygon fill="midnightblue" stroke="midnightblue" points="1197.38,-451.683 1187.38,-448.176 1193.01,-457.152 1197.38,-451.683"/>
</g>
<!-- Node25 -->
<g id="node53" class="node"><title>Node25</title>
<a xlink:href="../../dc/d5a/class_u_b_graphics_media_item.html#aa92cf921e88af8b52b4c7ed6466dd2d5" target="_top" xlink:title="UBGraphicsMediaItem\l::UBGraphicsMediaItem">
<polygon fill="white" stroke="red" points="1323,-474 1323,-508 1445,-508 1445,-474 1323,-474"/>
<text text-anchor="start" x="1331" y="-495" font-family="Helvetica,sans-Serif" font-size="10.00">UBGraphicsMediaItem</text>
<text text-anchor="middle" x="1384" y="-482" font-family="Helvetica,sans-Serif" font-size="10.00">::UBGraphicsMediaItem</text>
</a>
</g>
<!-- Node23&#45;&gt;Node25 -->
<g id="edge56" class="edge"><title>Node23&#45;&gt;Node25</title>
<path fill="none" stroke="midnightblue" d="M1238.5,-450.769C1265.83,-458.327 1296.73,-466.869 1322.99,-474.132"/>
<polygon fill="midnightblue" stroke="midnightblue" points="1239.17,-447.325 1228.6,-448.033 1237.31,-454.072 1239.17,-447.325"/>
</g>
<!-- Node26 -->
<g id="node55" class="node"><title>Node26</title>
<a xlink:href="../../d9/d0d/class_u_b_graphics_p_d_f_item.html#ae55063d3348b81ea8388df72069713b9" target="_top" xlink:title="UBGraphicsPDFItem:\l:UBGraphicsPDFItem">
<polygon fill="white" stroke="red" points="1327.5,-422 1327.5,-456 1440.5,-456 1440.5,-422 1327.5,-422"/>
<text text-anchor="start" x="1335.5" y="-443" font-family="Helvetica,sans-Serif" font-size="10.00">UBGraphicsPDFItem:</text>
<text text-anchor="middle" x="1384" y="-430" font-family="Helvetica,sans-Serif" font-size="10.00">:UBGraphicsPDFItem</text>
</a>
</g>
<!-- Node23&#45;&gt;Node26 -->
<g id="edge58" class="edge"><title>Node23&#45;&gt;Node26</title>
<path fill="none" stroke="midnightblue" d="M1241.42,-433.744C1269.54,-434.78 1301.07,-435.943 1327.31,-436.91"/>
<polygon fill="midnightblue" stroke="midnightblue" points="1241.35,-430.239 1231.23,-433.368 1241.09,-437.234 1241.35,-430.239"/>
</g>
<!-- Node27 -->
<g id="node57" class="node"><title>Node27</title>
<a xlink:href="../../d1/d78/class_u_b_graphics_pixmap_item.html#ad154326709d1935d96248228d21b20ae" target="_top" xlink:title="UBGraphicsPixmapItem\l::UBGraphicsPixmapItem">
<polygon fill="white" stroke="red" points="1320,-370 1320,-404 1448,-404 1448,-370 1320,-370"/>
<text text-anchor="start" x="1328" y="-391" font-family="Helvetica,sans-Serif" font-size="10.00">UBGraphicsPixmapItem</text>
<text text-anchor="middle" x="1384" y="-378" font-family="Helvetica,sans-Serif" font-size="10.00">::UBGraphicsPixmapItem</text>
</a>
</g>
<!-- Node23&#45;&gt;Node27 -->
<g id="edge60" class="edge"><title>Node23&#45;&gt;Node27</title>
<path fill="none" stroke="midnightblue" d="M1241.25,-415.945C1266.83,-410.758 1295.24,-404.997 1319.94,-399.989"/>
<polygon fill="midnightblue" stroke="midnightblue" points="1240.33,-412.56 1231.23,-417.977 1241.72,-419.42 1240.33,-412.56"/>
</g>
<!-- Node28 -->
<g id="node59" class="node"><title>Node28</title>
<a xlink:href="../../d3/d0b/class_u_b_graphics_strokes_group.html#ab3978d4c4d489c27f90baf64a506f1d8" target="_top" xlink:title="UBGraphicsStrokesGroup\l::UBGraphicsStrokesGroup">
<polygon fill="white" stroke="red" points="1316,-318 1316,-352 1452,-352 1452,-318 1316,-318"/>
<text text-anchor="start" x="1324" y="-339" font-family="Helvetica,sans-Serif" font-size="10.00">UBGraphicsStrokesGroup</text>
<text text-anchor="middle" x="1384" y="-326" font-family="Helvetica,sans-Serif" font-size="10.00">::UBGraphicsStrokesGroup</text>
</a>
</g>
<!-- Node23&#45;&gt;Node28 -->
<g id="edge62" class="edge"><title>Node23&#45;&gt;Node28</title>
<path fill="none" stroke="midnightblue" d="M1240.56,-413.458C1245.97,-410.992 1251.18,-408.187 1256,-405 1277.07,-391.055 1270.87,-374.852 1292,-361 1299.22,-356.268 1307.3,-352.386 1315.6,-349.204"/>
<polygon fill="midnightblue" stroke="midnightblue" points="1239.21,-410.229 1231.32,-417.298 1241.9,-416.693 1239.21,-410.229"/>
</g>
<!-- Node29 -->
<g id="node61" class="node"><title>Node29</title>
<a xlink:href="../../d1/dce/class_u_b_graphics_svg_item.html#aefe5ca00c7f91a56938b35611149a779" target="_top" xlink:title="UBGraphicsSvgItem::init">
<polygon fill="white" stroke="red" points="1321.5,-278.5 1321.5,-299.5 1446.5,-299.5 1446.5,-278.5 1321.5,-278.5"/>
<text text-anchor="middle" x="1384" y="-286.5" font-family="Helvetica,sans-Serif" font-size="10.00">UBGraphicsSvgItem::init</text>
</a>
</g>
<!-- Node23&#45;&gt;Node29 -->
<g id="edge64" class="edge"><title>Node23&#45;&gt;Node29</title>
<path fill="none" stroke="midnightblue" d="M1240.35,-415.918C1246.03,-412.912 1251.35,-409.312 1256,-405 1289.4,-374.002 1257.53,-338.808 1292,-309 1300.28,-301.836 1310.53,-297.052 1321.15,-293.893"/>
<polygon fill="midnightblue" stroke="midnightblue" points="1238.78,-412.79 1231.18,-420.169 1241.72,-419.141 1238.78,-412.79"/>
</g>
<!-- Node30 -->
<g id="node63" class="node"><title>Node30</title>
<a xlink:href="../../da/d65/class_u_b_graphics_text_item.html#acbf06a6d840ac7b6c95950e39dcd94b9" target="_top" xlink:title="UBGraphicsTextItem\l::UBGraphicsTextItem">
<polygon fill="white" stroke="red" points="1326.5,-226 1326.5,-260 1441.5,-260 1441.5,-226 1326.5,-226"/>
<text text-anchor="start" x="1334.5" y="-247" font-family="Helvetica,sans-Serif" font-size="10.00">UBGraphicsTextItem</text>
<text text-anchor="middle" x="1384" y="-234" font-family="Helvetica,sans-Serif" font-size="10.00">::UBGraphicsTextItem</text>
</a>
</g>
<!-- Node23&#45;&gt;Node30 -->
<g id="edge66" class="edge"><title>Node23&#45;&gt;Node30</title>
<path fill="none" stroke="midnightblue" d="M1240.55,-416.56C1246.23,-413.421 1251.5,-409.614 1256,-405 1299.65,-360.228 1248.16,-313.579 1292,-269 1301.19,-259.651 1313.48,-253.597 1326.06,-249.693"/>
<polygon fill="midnightblue" stroke="midnightblue" points="1238.84,-413.499 1231.32,-420.964 1241.85,-419.817 1238.84,-413.499"/>
</g>
<!-- Node31 -->
<g id="node65" class="node"><title>Node31</title>
<a xlink:href="../../d0/d16/class_u_b_graphics_widget_item.html#ac1a304e8be3f2ece6dd370210f25c90b" target="_top" xlink:title="UBGraphicsWidgetItem\l::UBGraphicsWidgetItem">
<polygon fill="white" stroke="black" points="1321,-174 1321,-208 1447,-208 1447,-174 1321,-174"/>
<text text-anchor="start" x="1329" y="-195" font-family="Helvetica,sans-Serif" font-size="10.00">UBGraphicsWidgetItem</text>
<text text-anchor="middle" x="1384" y="-182" font-family="Helvetica,sans-Serif" font-size="10.00">::UBGraphicsWidgetItem</text>
</a>
</g>
<!-- Node23&#45;&gt;Node31 -->
<g id="edge68" class="edge"><title>Node23&#45;&gt;Node31</title>
<path fill="none" stroke="midnightblue" d="M1240.62,-417.046C1246.34,-413.808 1251.59,-409.846 1256,-405 1313.23,-342.055 1234.49,-279.693 1292,-217 1299.74,-208.56 1309.99,-202.781 1320.84,-198.842"/>
<polygon fill="midnightblue" stroke="midnightblue" points="1238.78,-414.05 1231.3,-421.558 1241.83,-420.35 1238.78,-414.05"/>
</g>
<!-- Node32&#45;&gt;Node7 -->
<g id="edge72" class="edge"><title>Node32&#45;&gt;Node7</title>
<path fill="none" stroke="midnightblue" d="M568.376,-359.939C581.883,-394.824 610.126,-455.152 654,-489 664.485,-497.089 677.456,-502.668 690.152,-506.515"/>
<polygon fill="midnightblue" stroke="midnightblue" points="571.589,-358.54 564.805,-350.402 565.033,-360.994 571.589,-358.54"/>
</g>
<!-- Node32&#45;&gt;Node8 -->
<g id="edge74" class="edge"><title>Node32&#45;&gt;Node8</title>
<path fill="none" stroke="midnightblue" d="M619.691,-351.356C631.012,-354.281 642.804,-356.998 654,-359 740.427,-374.454 842.617,-380.828 902.377,-383.38"/>
<polygon fill="midnightblue" stroke="midnightblue" points="620.453,-347.937 609.889,-348.744 618.651,-354.701 620.453,-347.937"/>
</g>
<!-- Node33 -->
<g id="node71" class="node"><title>Node33</title>
<a xlink:href="../../d0/d79/class_u_b_favorite_tool_palette.html#a83161cac1258562134412dfcd60aee50" target="_top" xlink:title="UBFavoriteToolPalette\l::addFavorite">
<polygon fill="white" stroke="black" points="683,-35 683,-69 799,-69 799,-35 683,-35"/>
<text text-anchor="start" x="691" y="-56" font-family="Helvetica,sans-Serif" font-size="10.00">UBFavoriteToolPalette</text>
<text text-anchor="middle" x="741" y="-43" font-family="Helvetica,sans-Serif" font-size="10.00">::addFavorite</text>
</a>
</g>
<!-- Node32&#45;&gt;Node33 -->
<g id="edge76" class="edge"><title>Node32&#45;&gt;Node33</title>
<path fill="none" stroke="midnightblue" d="M562.097,-305.903C569.232,-255.654 591.328,-147.467 654,-85 662.009,-77.0172 672.143,-70.9326 682.641,-66.3051"/>
<polygon fill="midnightblue" stroke="midnightblue" points="558.605,-305.614 560.758,-315.987 565.544,-306.535 558.605,-305.614"/>
</g>
<!-- Node35 -->
<g id="node75" class="node"><title>Node35</title>
<a xlink:href="../../d8/d33/class_u_b_features_controller.html#a38042ae37804ee19bfacf4aafd096ea9" target="_top" xlink:title="UBFeaturesController\l::addItemToPage">
<polygon fill="white" stroke="black" points="685.5,-316 685.5,-350 796.5,-350 796.5,-316 685.5,-316"/>
<text text-anchor="start" x="693.5" y="-337" font-family="Helvetica,sans-Serif" font-size="10.00">UBFeaturesController</text>
<text text-anchor="middle" x="741" y="-324" font-family="Helvetica,sans-Serif" font-size="10.00">::addItemToPage</text>
</a>
</g>
<!-- Node32&#45;&gt;Node35 -->
<g id="edge80" class="edge"><title>Node32&#45;&gt;Node35</title>
<path fill="none" stroke="midnightblue" d="M619.881,-333C641.076,-333 664.728,-333 685.467,-333"/>
<polygon fill="midnightblue" stroke="midnightblue" points="619.697,-329.5 609.697,-333 619.697,-336.5 619.697,-329.5"/>
</g>
<!-- Node38 -->
<g id="node81" class="node"><title>Node38</title>
<a xlink:href="../../d8/d33/class_u_b_features_controller.html#a0ecd4b84e703063db5c0fdf498f2cdb0" target="_top" xlink:title="UBFeaturesController\l::addItemAsBackground">
<polygon fill="white" stroke="black" points="680,-264 680,-298 802,-298 802,-264 680,-264"/>
<text text-anchor="start" x="688" y="-285" font-family="Helvetica,sans-Serif" font-size="10.00">UBFeaturesController</text>
<text text-anchor="middle" x="741" y="-272" font-family="Helvetica,sans-Serif" font-size="10.00">::addItemAsBackground</text>
</a>
</g>
<!-- Node32&#45;&gt;Node38 -->
<g id="edge86" class="edge"><title>Node32&#45;&gt;Node38</title>
<path fill="none" stroke="midnightblue" d="M619.55,-315.7C639.4,-310.029 661.435,-303.733 681.227,-298.078"/>
<polygon fill="midnightblue" stroke="midnightblue" points="618.351,-312.402 609.697,-318.515 620.274,-319.133 618.351,-312.402"/>
</g>
<!-- Node40 -->
<g id="node86" class="node"><title>Node40</title>
<a xlink:href="../../da/dd6/class_u_b_library_a_p_i.html#abeac23fcd7f64866d5686b590ec05695" target="_top" xlink:title="UBLibraryAPI::addObject">
<polygon fill="white" stroke="black" points="677.5,-458.5 677.5,-479.5 804.5,-479.5 804.5,-458.5 677.5,-458.5"/>
<text text-anchor="middle" x="741" y="-466.5" font-family="Helvetica,sans-Serif" font-size="10.00">UBLibraryAPI::addObject</text>
</a>
</g>
<!-- Node32&#45;&gt;Node40 -->
<g id="edge92" class="edge"><title>Node32&#45;&gt;Node40</title>
<path fill="none" stroke="midnightblue" d="M573.286,-359.044C589.358,-385.818 617.988,-426.659 654,-449 661.112,-453.412 669.094,-456.853 677.263,-459.535"/>
<polygon fill="midnightblue" stroke="midnightblue" points="576.196,-357.087 568.133,-350.214 570.15,-360.615 576.196,-357.087"/>
</g>
<!-- Node41 -->
<g id="node88" class="node"><title>Node41</title>
<a xlink:href="../../df/d50/class_u_b_web_controller.html#a318422dc0a027e2258180673bb333586" target="_top" xlink:title="UBWebController::capture\lEduMedia">
<polygon fill="white" stroke="black" points="675.5,-212 675.5,-246 806.5,-246 806.5,-212 675.5,-212"/>
<text text-anchor="start" x="683.5" y="-233" font-family="Helvetica,sans-Serif" font-size="10.00">UBWebController::capture</text>
<text text-anchor="middle" x="741" y="-220" font-family="Helvetica,sans-Serif" font-size="10.00">EduMedia</text>
</a>
</g>
<!-- Node32&#45;&gt;Node41 -->
<g id="edge94" class="edge"><title>Node32&#45;&gt;Node41</title>
<path fill="none" stroke="midnightblue" d="M582.919,-308.749C601.037,-291.596 627.295,-269.207 654,-255 660.68,-251.446 667.914,-248.311 675.259,-245.562"/>
<polygon fill="midnightblue" stroke="midnightblue" points="580.439,-306.278 575.674,-315.741 585.3,-311.315 580.439,-306.278"/>
</g>
<!-- Node44 -->
<g id="node94" class="node"><title>Node44</title>
<a xlink:href="../../d5/d2b/class_u_b_widget_uniboard_a_p_i.html#a73ac1600ef3ed549d2c6c969436efb2f" target="_top" xlink:title="UBWidgetUniboardAPI\l::addObject">
<polygon fill="white" stroke="black" points="682.5,-406 682.5,-440 799.5,-440 799.5,-406 682.5,-406"/>
<text text-anchor="start" x="690.5" y="-427" font-family="Helvetica,sans-Serif" font-size="10.00">UBWidgetUniboardAPI</text>
<text text-anchor="middle" x="741" y="-414" font-family="Helvetica,sans-Serif" font-size="10.00">::addObject</text>
</a>
</g>
<!-- Node32&#45;&gt;Node44 -->
<g id="edge100" class="edge"><title>Node32&#45;&gt;Node44</title>
<path fill="none" stroke="midnightblue" d="M591.536,-355.619C609.438,-367.438 632.356,-381.571 654,-392 664.545,-397.081 676.15,-401.785 687.354,-405.914"/>
<polygon fill="midnightblue" stroke="midnightblue" points="593.436,-352.679 583.178,-350.029 589.544,-358.497 593.436,-352.679"/>
</g>
<!-- Node45 -->
<g id="node96" class="node"><title>Node45</title>
<a xlink:href="../../db/d78/class_w_b_web_trap_web_view.html#afdbfd6aac50cad5ac07a465baa7be0b6" target="_top" xlink:title="WBWebTrapWebView::trapElement\lAtPos">
<polygon fill="white" stroke="black" points="654.5,-160 654.5,-194 827.5,-194 827.5,-160 654.5,-160"/>
<text text-anchor="start" x="662.5" y="-181" font-family="Helvetica,sans-Serif" font-size="10.00">WBWebTrapWebView::trapElement</text>
<text text-anchor="middle" x="741" y="-168" font-family="Helvetica,sans-Serif" font-size="10.00">AtPos</text>
</a>
</g>
<!-- Node32&#45;&gt;Node45 -->
<g id="edge102" class="edge"><title>Node32&#45;&gt;Node45</title>
<path fill="none" stroke="midnightblue" d="M571.608,-306.613C587.024,-277.113 615.848,-229.954 654,-203 658.764,-199.634 663.968,-196.699 669.386,-194.139"/>
<polygon fill="midnightblue" stroke="midnightblue" points="568.306,-305.384 566.899,-315.885 574.548,-308.554 568.306,-305.384"/>
</g>
<!-- Node48 -->
<g id="node102" class="node"><title>Node48</title>
<a xlink:href="../../dd/dc8/class_w_b_web_page.html#a4f177fc1cee35b60e7973ff2573025e7" target="_top" xlink:title="WBWebPage::handleUnsupported\lContent">
<polygon fill="white" stroke="black" points="658,-94 658,-128 824,-128 824,-94 658,-94"/>
<text text-anchor="start" x="666" y="-115" font-family="Helvetica,sans-Serif" font-size="10.00">WBWebPage::handleUnsupported</text>
<text text-anchor="middle" x="741" y="-102" font-family="Helvetica,sans-Serif" font-size="10.00">Content</text>
</a>
</g>
<!-- Node32&#45;&gt;Node48 -->
<g id="edge108" class="edge"><title>Node32&#45;&gt;Node48</title>
<path fill="none" stroke="midnightblue" d="M566.776,-306.339C579.312,-267.535 607.413,-195.308 654,-151 663.998,-141.491 676.658,-133.943 689.203,-128.085"/>
<polygon fill="midnightblue" stroke="midnightblue" points="563.431,-305.309 563.786,-315.898 570.112,-307.399 563.431,-305.309"/>
</g>
<!-- Node34 -->
<g id="node73" class="node"><title>Node34</title>
<a xlink:href="../../d0/d79/class_u_b_favorite_tool_palette.html#a5c96e32fc43e9342cde947b25425516c" target="_top" xlink:title="UBFavoriteToolPalette\l::UBFavoriteToolPalette">
<polygon fill="white" stroke="black" points="892,-28 892,-62 1014,-62 1014,-28 892,-28"/>
<text text-anchor="start" x="900" y="-49" font-family="Helvetica,sans-Serif" font-size="10.00">UBFavoriteToolPalette</text>
<text text-anchor="middle" x="953" y="-36" font-family="Helvetica,sans-Serif" font-size="10.00">::UBFavoriteToolPalette</text>
</a>
</g>
<!-- Node33&#45;&gt;Node34 -->
<g id="edge78" class="edge"><title>Node33&#45;&gt;Node34</title>
<path fill="none" stroke="midnightblue" d="M809.212,-49.7477C835.82,-48.8691 866.083,-47.8699 891.959,-47.0155"/>
<polygon fill="midnightblue" stroke="midnightblue" points="809.089,-46.2498 799.21,-50.078 809.32,-53.2459 809.089,-46.2498"/>
</g>
<!-- Node36 -->
<g id="node77" class="node"><title>Node36</title>
<a xlink:href="../../dd/dc8/class_u_b_feature_properties.html#a6fb900fb691ba01479801333a4df226d" target="_top" xlink:title="UBFeatureProperties\l::onAddToPage">
<polygon fill="white" stroke="black" points="899,-316 899,-350 1007,-350 1007,-316 899,-316"/>
<text text-anchor="start" x="907" y="-337" font-family="Helvetica,sans-Serif" font-size="10.00">UBFeatureProperties</text>
<text text-anchor="middle" x="953" y="-324" font-family="Helvetica,sans-Serif" font-size="10.00">::onAddToPage</text>
</a>
</g>
<!-- Node35&#45;&gt;Node36 -->
<g id="edge82" class="edge"><title>Node35&#45;&gt;Node36</title>
<path fill="none" stroke="midnightblue" d="M806.916,-333C836.421,-333 870.786,-333 898.77,-333"/>
<polygon fill="midnightblue" stroke="midnightblue" points="806.701,-329.5 796.701,-333 806.7,-336.5 806.701,-329.5"/>
</g>
<!-- Node37 -->
<g id="node79" class="node"><title>Node37</title>
<a xlink:href="../../dd/dc8/class_u_b_feature_properties.html#ac62ad70b89370327d9ed3f9f88a68415" target="_top" xlink:title="UBFeatureProperties\l::UBFeatureProperties">
<polygon fill="white" stroke="black" points="1110,-270 1110,-304 1224,-304 1224,-270 1110,-270"/>
<text text-anchor="start" x="1118" y="-291" font-family="Helvetica,sans-Serif" font-size="10.00">UBFeatureProperties</text>
<text text-anchor="middle" x="1167" y="-278" font-family="Helvetica,sans-Serif" font-size="10.00">::UBFeatureProperties</text>
</a>
</g>
<!-- Node36&#45;&gt;Node37 -->
<g id="edge84" class="edge"><title>Node36&#45;&gt;Node37</title>
<path fill="none" stroke="midnightblue" d="M1016.78,-319.29C1046.26,-312.953 1081,-305.486 1109.64,-299.329"/>
<polygon fill="midnightblue" stroke="midnightblue" points="1016.04,-315.869 1007,-321.392 1017.51,-322.712 1016.04,-315.869"/>
</g>
<!-- Node39 -->
<g id="node83" class="node"><title>Node39</title>
<a xlink:href="../../dd/dc8/class_u_b_feature_properties.html#af183f096cbff2df0da3206b8e71c3525" target="_top" xlink:title="UBFeatureProperties\l::onSetAsBackground">
<polygon fill="white" stroke="black" points="897,-264 897,-298 1009,-298 1009,-264 897,-264"/>
<text text-anchor="start" x="905" y="-285" font-family="Helvetica,sans-Serif" font-size="10.00">UBFeatureProperties</text>
<text text-anchor="middle" x="953" y="-272" font-family="Helvetica,sans-Serif" font-size="10.00">::onSetAsBackground</text>
</a>
</g>
<!-- Node38&#45;&gt;Node39 -->
<g id="edge88" class="edge"><title>Node38&#45;&gt;Node39</title>
<path fill="none" stroke="midnightblue" d="M812.385,-281C839.883,-281 870.872,-281 896.747,-281"/>
<polygon fill="midnightblue" stroke="midnightblue" points="812.035,-277.5 802.035,-281 812.035,-284.5 812.035,-277.5"/>
</g>
<!-- Node39&#45;&gt;Node37 -->
<g id="edge90" class="edge"><title>Node39&#45;&gt;Node37</title>
<path fill="none" stroke="midnightblue" d="M1019.25,-282.858C1048.19,-283.669 1081.81,-284.612 1109.66,-285.392"/>
<polygon fill="midnightblue" stroke="midnightblue" points="1019.32,-279.358 1009.23,-282.576 1019.12,-286.355 1019.32,-279.358"/>
</g>
<!-- Node42 -->
<g id="node90" class="node"><title>Node42</title>
<a xlink:href="../../df/d50/class_u_b_web_controller.html#af73cfa36d5b743fa3a652e49dd7e4831" target="_top" xlink:title="UBWebController::setupPalettes">
<polygon fill="white" stroke="black" points="873.5,-224.5 873.5,-245.5 1032.5,-245.5 1032.5,-224.5 873.5,-224.5"/>
<text text-anchor="middle" x="953" y="-232.5" font-family="Helvetica,sans-Serif" font-size="10.00">UBWebController::setupPalettes</text>
</a>
</g>
<!-- Node41&#45;&gt;Node42 -->
<g id="edge96" class="edge"><title>Node41&#45;&gt;Node42</title>
<path fill="none" stroke="midnightblue" d="M816.655,-231.141C834.979,-231.66 854.624,-232.216 873.136,-232.74"/>
<polygon fill="midnightblue" stroke="midnightblue" points="816.721,-227.642 806.626,-230.857 816.523,-234.639 816.721,-227.642"/>
</g>
<!-- Node43 -->
<g id="node92" class="node"><title>Node43</title>
<a xlink:href="../../df/d50/class_u_b_web_controller.html#a56d469910c2a1c76725fbfeffb7e0054" target="_top" xlink:title="UBWebController::webBrowser\lInstance">
<polygon fill="white" stroke="red" points="1090.5,-218 1090.5,-252 1243.5,-252 1243.5,-218 1090.5,-218"/>
<text text-anchor="start" x="1098.5" y="-239" font-family="Helvetica,sans-Serif" font-size="10.00">UBWebController::webBrowser</text>
<text text-anchor="middle" x="1167" y="-226" font-family="Helvetica,sans-Serif" font-size="10.00">Instance</text>
</a>
</g>
<!-- Node42&#45;&gt;Node43 -->
<g id="edge98" class="edge"><title>Node42&#45;&gt;Node43</title>
<path fill="none" stroke="midnightblue" d="M1042.97,-235C1058.76,-235 1075.06,-235 1090.44,-235"/>
<polygon fill="midnightblue" stroke="midnightblue" points="1042.69,-231.5 1032.69,-235 1042.69,-238.5 1042.69,-231.5"/>
</g>
<!-- Node46 -->
<g id="node98" class="node"><title>Node46</title>
<a xlink:href="../../db/d78/class_w_b_web_trap_web_view.html#a2ac308414d18186c9c4fc60bc5f46400" target="_top" xlink:title="WBWebTrapWebView::trapContent\lFromHitTest">
<polygon fill="white" stroke="black" points="867,-120 867,-154 1039,-154 1039,-120 867,-120"/>
<text text-anchor="start" x="875" y="-141" font-family="Helvetica,sans-Serif" font-size="10.00">WBWebTrapWebView::trapContent</text>
<text text-anchor="middle" x="953" y="-128" font-family="Helvetica,sans-Serif" font-size="10.00">FromHitTest</text>
</a>
</g>
<!-- Node45&#45;&gt;Node46 -->
<g id="edge104" class="edge"><title>Node45&#45;&gt;Node46</title>
<path fill="none" stroke="midnightblue" d="M837.607,-158.772C847.323,-156.939 857.144,-155.086 866.742,-153.275"/>
<polygon fill="midnightblue" stroke="midnightblue" points="836.712,-155.379 827.534,-160.673 838.01,-162.258 836.712,-155.379"/>
</g>
<!-- Node47 -->
<g id="node100" class="node"><title>Node47</title>
<a xlink:href="../../dd/df0/class_u_b_web_trap_mouse_event_mask.html#a2c69d74fef874516e38daeab13e6ecd0" target="_top" xlink:title="UBWebTrapMouseEventMask\l::mousePressEvent">
<polygon fill="white" stroke="black" points="878.5,-172 878.5,-206 1027.5,-206 1027.5,-172 878.5,-172"/>
<text text-anchor="start" x="886.5" y="-193" font-family="Helvetica,sans-Serif" font-size="10.00">UBWebTrapMouseEventMask</text>
<text text-anchor="middle" x="953" y="-180" font-family="Helvetica,sans-Serif" font-size="10.00">::mousePressEvent</text>
</a>
</g>
<!-- Node45&#45;&gt;Node47 -->
<g id="edge106" class="edge"><title>Node45&#45;&gt;Node47</title>
<path fill="none" stroke="midnightblue" d="M837.859,-182.483C851.432,-183.251 865.206,-184.031 878.283,-184.771"/>
<polygon fill="midnightblue" stroke="midnightblue" points="837.716,-178.969 827.534,-181.898 837.32,-185.958 837.716,-178.969"/>
</g>
<!-- Node49 -->
<g id="node104" class="node"><title>Node49</title>
<a xlink:href="../../dd/dc8/class_w_b_web_page.html#a01017231eb0981875b79223f8457b302" target="_top" xlink:title="WBWebPage::WBWebPage">
<polygon fill="white" stroke="black" points="882.5,-80.5 882.5,-101.5 1023.5,-101.5 1023.5,-80.5 882.5,-80.5"/>
<text text-anchor="middle" x="953" y="-88.5" font-family="Helvetica,sans-Serif" font-size="10.00">WBWebPage::WBWebPage</text>
</a>
</g>
<!-- Node48&#45;&gt;Node49 -->
<g id="edge110" class="edge"><title>Node48&#45;&gt;Node49</title>
<path fill="none" stroke="midnightblue" d="M834.188,-102.209C850.369,-100.682 866.954,-99.1176 882.405,-97.6599"/>
<polygon fill="midnightblue" stroke="midnightblue" points="833.807,-98.729 824.18,-103.153 834.464,-105.698 833.807,-98.729"/>
</g>
</g>
</svg>
