<?xml version="1.0" encoding="UTF-8" standalone="no"?>
<!DOCTYPE svg PUBLIC "-//W3C//DTD SVG 1.1//EN"
 "http://www.w3.org/Graphics/SVG/1.1/DTD/svg11.dtd">
<!-- Generated by graphviz version 2.26.3 (20100126.1600)
 -->
<!-- Title: Sankore&#45;3.1/src/customWidgets/UBActionableWidget.cpp Pages: 1 -->
<svg width="379pt" height="160pt"
 viewBox="0.00 0.00 379.00 160.00" xmlns="http://www.w3.org/2000/svg" xmlns:xlink="http://www.w3.org/1999/xlink">
<g id="graph1" class="graph" transform="scale(1 1) rotate(0) translate(4 156)">
<title>Sankore&#45;3.1/src/customWidgets/UBActionableWidget.cpp</title>
<polygon fill="white" stroke="white" points="-4,5 -4,-156 376,-156 376,5 -4,5"/>
<!-- Node1 -->
<g id="node1" class="node"><title>Node1</title>
<polygon fill="#bfbfbf" stroke="black" points="70.5,-117 70.5,-151 227.5,-151 227.5,-117 70.5,-117"/>
<text text-anchor="start" x="78.5" y="-138" font-family="Helvetica,sans-Serif" font-size="10.00">Sankore&#45;3.1/src/customWidgets</text>
<text text-anchor="middle" x="149" y="-125" font-family="Helvetica,sans-Serif" font-size="10.00">/UBActionableWidget.cpp</text>
</g>
<!-- Node2 -->
<g id="node3" class="node"><title>Node2</title>
<polygon fill="white" stroke="#bfbfbf" points="-0.5,-58.5 -0.5,-79.5 54.5,-79.5 54.5,-58.5 -0.5,-58.5"/>
<text text-anchor="middle" x="27" y="-66.5" font-family="Helvetica,sans-Serif" font-size="10.00">QPainter</text>
</g>
<!-- Node1&#45;&gt;Node2 -->
<g id="edge2" class="edge"><title>Node1&#45;&gt;Node2</title>
<path fill="none" stroke="midnightblue" d="M116.946,-116.922C98.0685,-106.864 74.3764,-94.2415 56.0472,-84.476"/>
<polygon fill="midnightblue" stroke="midnightblue" points="57.4762,-81.2716 47.0049,-79.6584 54.1847,-87.4495 57.4762,-81.2716"/>
</g>
<!-- Node3 -->
<g id="node5" class="node"><title>Node3</title>
<polygon fill="white" stroke="#bfbfbf" points="71.5,-58.5 71.5,-79.5 124.5,-79.5 124.5,-58.5 71.5,-58.5"/>
<text text-anchor="middle" x="98" y="-66.5" font-family="Helvetica,sans-Serif" font-size="10.00">QDebug</text>
</g>
<!-- Node1&#45;&gt;Node3 -->
<g id="edge4" class="edge"><title>Node1&#45;&gt;Node3</title>
<path fill="none" stroke="midnightblue" d="M135.6,-116.922C128.622,-108.029 120.071,-97.1296 112.887,-87.9738"/>
<polygon fill="midnightblue" stroke="midnightblue" points="115.441,-85.559 106.515,-79.8521 109.934,-89.88 115.441,-85.559"/>
</g>
<!-- Node4 -->
<g id="node7" class="node"><title>Node4</title>
<a xlink:href="../../d7/d31/_u_b_actionable_widget_8h.html" target="_top" xlink:title="UBActionableWidget.h">
<polygon fill="white" stroke="black" points="142,-58.5 142,-79.5 258,-79.5 258,-58.5 142,-58.5"/>
<text text-anchor="middle" x="200" y="-66.5" font-family="Helvetica,sans-Serif" font-size="10.00">UBActionableWidget.h</text>
</a>
</g>
<!-- Node1&#45;&gt;Node4 -->
<g id="edge6" class="edge"><title>Node1&#45;&gt;Node4</title>
<path fill="none" stroke="midnightblue" d="M162.4,-116.922C169.378,-108.029 177.929,-97.1296 185.113,-87.9738"/>
<polygon fill="midnightblue" stroke="midnightblue" points="188.066,-89.88 191.485,-79.8521 182.559,-85.559 188.066,-89.88"/>
</g>
<!-- Node9 -->
<g id="node17" class="node"><title>Node9</title>
<a xlink:href="../../db/d80/memcheck_8h.html" target="_top" xlink:title="core/memcheck.h">
<polygon fill="white" stroke="black" points="275.5,-58.5 275.5,-79.5 370.5,-79.5 370.5,-58.5 275.5,-58.5"/>
<text text-anchor="middle" x="323" y="-66.5" font-family="Helvetica,sans-Serif" font-size="10.00">core/memcheck.h</text>
</a>
</g>
<!-- Node1&#45;&gt;Node9 -->
<g id="edge16" class="edge"><title>Node1&#45;&gt;Node9</title>
<path fill="none" stroke="midnightblue" d="M194.716,-116.922C222.841,-106.416 258.458,-93.1105 285.023,-83.1868"/>
<polygon fill="midnightblue" stroke="midnightblue" points="286.583,-86.3402 294.726,-79.562 284.134,-79.7828 286.583,-86.3402"/>
</g>
<!-- Node5 -->
<g id="node9" class="node"><title>Node5</title>
<polygon fill="white" stroke="#bfbfbf" points="46.5,-0.5 46.5,-21.5 101.5,-21.5 101.5,-0.5 46.5,-0.5"/>
<text text-anchor="middle" x="74" y="-8.5" font-family="Helvetica,sans-Serif" font-size="10.00">QWidget</text>
</g>
<!-- Node4&#45;&gt;Node5 -->
<g id="edge8" class="edge"><title>Node4&#45;&gt;Node5</title>
<path fill="none" stroke="midnightblue" d="M177.182,-58.4966C157.414,-49.397 128.587,-36.1273 106.424,-25.9253"/>
<polygon fill="midnightblue" stroke="midnightblue" points="107.621,-22.6234 97.0737,-21.6212 104.694,-28.982 107.621,-22.6234"/>
</g>
<!-- Node6 -->
<g id="node11" class="node"><title>Node6</title>
<polygon fill="white" stroke="#bfbfbf" points="119,-0.5 119,-21.5 191,-21.5 191,-0.5 119,-0.5"/>
<text text-anchor="middle" x="155" y="-8.5" font-family="Helvetica,sans-Serif" font-size="10.00">QPaintEvent</text>
</g>
<!-- Node4&#45;&gt;Node6 -->
<g id="edge10" class="edge"><title>Node4&#45;&gt;Node6</title>
<path fill="none" stroke="midnightblue" d="M191.746,-58.3619C185.53,-50.3496 176.849,-39.1605 169.485,-29.6696"/>
<polygon fill="midnightblue" stroke="midnightblue" points="172.097,-27.326 163.201,-21.5707 166.566,-31.617 172.097,-27.326"/>
</g>
<!-- Node7 -->
<g id="node13" class="node"><title>Node7</title>
<polygon fill="white" stroke="#bfbfbf" points="208.5,-0.5 208.5,-21.5 279.5,-21.5 279.5,-0.5 208.5,-0.5"/>
<text text-anchor="middle" x="244" y="-8.5" font-family="Helvetica,sans-Serif" font-size="10.00">QToolButton</text>
</g>
<!-- Node4&#45;&gt;Node7 -->
<g id="edge12" class="edge"><title>Node4&#45;&gt;Node7</title>
<path fill="none" stroke="midnightblue" d="M208.07,-58.3619C214.149,-50.3496 222.637,-39.1605 229.837,-29.6696"/>
<polygon fill="midnightblue" stroke="midnightblue" points="232.725,-31.653 235.981,-21.5707 227.149,-27.4222 232.725,-31.653"/>
</g>
<!-- Node8 -->
<g id="node15" class="node"><title>Node8</title>
<polygon fill="white" stroke="#bfbfbf" points="296.5,-0.5 296.5,-21.5 371.5,-21.5 371.5,-0.5 296.5,-0.5"/>
<text text-anchor="middle" x="334" y="-8.5" font-family="Helvetica,sans-Serif" font-size="10.00">QPushButton</text>
</g>
<!-- Node4&#45;&gt;Node8 -->
<g id="edge14" class="edge"><title>Node4&#45;&gt;Node8</title>
<path fill="none" stroke="midnightblue" d="M224.266,-58.4966C245.478,-49.3154 276.498,-35.8889 300.15,-25.6516"/>
<polygon fill="midnightblue" stroke="midnightblue" points="301.674,-28.8055 309.461,-21.6212 298.894,-22.3815 301.674,-28.8055"/>
</g>
</g>
</svg>
