<?xml version="1.0" encoding="UTF-8" standalone="no"?>
<!DOCTYPE svg PUBLIC "-//W3C//DTD SVG 1.1//EN"
 "http://www.w3.org/Graphics/SVG/1.1/DTD/svg11.dtd">
<!-- Generated by graphviz version 2.26.3 (20100126.1600)
 -->
<!-- Title: UBActionableWidget.cpp Pages: 1 -->
<svg width="379pt" height="146pt"
 viewBox="0.00 0.00 379.00 146.00" xmlns="http://www.w3.org/2000/svg" xmlns:xlink="http://www.w3.org/1999/xlink">
<g id="graph1" class="graph" transform="scale(1 1) rotate(0) translate(4 142)">
<title>UBActionableWidget.cpp</title>
<polygon fill="white" stroke="white" points="-4,5 -4,-142 376,-142 376,5 -4,5"/>
<!-- Node1 -->
<g id="node1" class="node"><title>Node1</title>
<polygon fill="#bfbfbf" stroke="black" points="86,-116.5 86,-137.5 212,-137.5 212,-116.5 86,-116.5"/>
<text text-anchor="middle" x="149" y="-124.5" font-family="Helvetica,sans-Serif" font-size="10.00">UBActionableWidget.cpp</text>
</g>
<!-- Node2 -->
<g id="node3" class="node"><title>Node2</title>
<polygon fill="white" stroke="#bfbfbf" points="-0.5,-58.5 -0.5,-79.5 54.5,-79.5 54.5,-58.5 -0.5,-58.5"/>
<text text-anchor="middle" x="27" y="-66.5" font-family="Helvetica,sans-Serif" font-size="10.00">QPainter</text>
</g>
<!-- Node1&#45;&gt;Node2 -->
<g id="edge2" class="edge"><title>Node1&#45;&gt;Node2</title>
<path fill="none" stroke="midnightblue" d="M126.907,-116.497C107.766,-107.397 79.8539,-94.1273 58.3947,-83.9253"/>
<polygon fill="midnightblue" stroke="midnightblue" points="59.8753,-80.7539 49.3412,-79.6212 56.8698,-87.0758 59.8753,-80.7539"/>
</g>
<!-- Node3 -->
<g id="node5" class="node"><title>Node3</title>
<polygon fill="white" stroke="#bfbfbf" points="71.5,-58.5 71.5,-79.5 124.5,-79.5 124.5,-58.5 71.5,-58.5"/>
<text text-anchor="middle" x="98" y="-66.5" font-family="Helvetica,sans-Serif" font-size="10.00">QDebug</text>
</g>
<!-- Node1&#45;&gt;Node3 -->
<g id="edge4" class="edge"><title>Node1&#45;&gt;Node3</title>
<path fill="none" stroke="midnightblue" d="M139.646,-116.362C132.457,-108.186 122.359,-96.7025 113.907,-87.0907"/>
<polygon fill="midnightblue" stroke="midnightblue" points="116.527,-84.7692 107.295,-79.5707 111.27,-89.3916 116.527,-84.7692"/>
</g>
<!-- Node4 -->
<g id="node7" class="node"><title>Node4</title>
<a xlink:href="../../d7/d31/_u_b_actionable_widget_8h.html" target="_top" xlink:title="UBActionableWidget.h">
<polygon fill="white" stroke="black" points="142,-58.5 142,-79.5 258,-79.5 258,-58.5 142,-58.5"/>
<text text-anchor="middle" x="200" y="-66.5" font-family="Helvetica,sans-Serif" font-size="10.00">UBActionableWidget.h</text>
</a>
</g>
<!-- Node1&#45;&gt;Node4 -->
<g id="edge6" class="edge"><title>Node1&#45;&gt;Node4</title>
<path fill="none" stroke="midnightblue" d="M158.354,-116.362C165.543,-108.186 175.641,-96.7025 184.093,-87.0907"/>
<polygon fill="midnightblue" stroke="midnightblue" points="186.73,-89.3916 190.705,-79.5707 181.473,-84.7692 186.73,-89.3916"/>
</g>
<!-- Node9 -->
<g id="node17" class="node"><title>Node9</title>
<a xlink:href="../../db/d80/memcheck_8h.html" target="_top" xlink:title="core/memcheck.h">
<polygon fill="white" stroke="black" points="275.5,-58.5 275.5,-79.5 370.5,-79.5 370.5,-58.5 275.5,-58.5"/>
<text text-anchor="middle" x="323" y="-66.5" font-family="Helvetica,sans-Serif" font-size="10.00">core/memcheck.h</text>
</a>
</g>
<!-- Node1&#45;&gt;Node9 -->
<g id="edge16" class="edge"><title>Node1&#45;&gt;Node9</title>
<path fill="none" stroke="midnightblue" d="M180.51,-116.497C208.877,-107.041 250.751,-93.0829 281.772,-82.7428"/>
<polygon fill="midnightblue" stroke="midnightblue" points="283.051,-86.0058 291.431,-79.5231 280.837,-79.365 283.051,-86.0058"/>
</g>
<!-- Node5 -->
<g id="node9" class="node"><title>Node5</title>
<polygon fill="white" stroke="#bfbfbf" points="46.5,-0.5 46.5,-21.5 101.5,-21.5 101.5,-0.5 46.5,-0.5"/>
<text text-anchor="middle" x="74" y="-8.5" font-family="Helvetica,sans-Serif" font-size="10.00">QWidget</text>
</g>
<!-- Node4&#45;&gt;Node5 -->
<g id="edge8" class="edge"><title>Node4&#45;&gt;Node5</title>
<path fill="none" stroke="midnightblue" d="M177.182,-58.4966C157.414,-49.397 128.587,-36.1273 106.424,-25.9253"/>
<polygon fill="midnightblue" stroke="midnightblue" points="107.621,-22.6234 97.0737,-21.6212 104.694,-28.982 107.621,-22.6234"/>
</g>
<!-- Node6 -->
<g id="node11" class="node"><title>Node6</title>
<polygon fill="white" stroke="#bfbfbf" points="119,-0.5 119,-21.5 191,-21.5 191,-0.5 119,-0.5"/>
<text text-anchor="middle" x="155" y="-8.5" font-family="Helvetica,sans-Serif" font-size="10.00">QPaintEvent</text>
</g>
<!-- Node4&#45;&gt;Node6 -->
<g id="edge10" class="edge"><title>Node4&#45;&gt;Node6</title>
<path fill="none" stroke="midnightblue" d="M191.746,-58.3619C185.53,-50.3496 176.849,-39.1605 169.485,-29.6696"/>
<polygon fill="midnightblue" stroke="midnightblue" points="172.097,-27.326 163.201,-21.5707 166.566,-31.617 172.097,-27.326"/>
</g>
<!-- Node7 -->
<g id="node13" class="node"><title>Node7</title>
<polygon fill="white" stroke="#bfbfbf" points="208.5,-0.5 208.5,-21.5 279.5,-21.5 279.5,-0.5 208.5,-0.5"/>
<text text-anchor="middle" x="244" y="-8.5" font-family="Helvetica,sans-Serif" font-size="10.00">QToolButton</text>
</g>
<!-- Node4&#45;&gt;Node7 -->
<g id="edge12" class="edge"><title>Node4&#45;&gt;Node7</title>
<path fill="none" stroke="midnightblue" d="M208.07,-58.3619C214.149,-50.3496 222.637,-39.1605 229.837,-29.6696"/>
<polygon fill="midnightblue" stroke="midnightblue" points="232.725,-31.653 235.981,-21.5707 227.149,-27.4222 232.725,-31.653"/>
</g>
<!-- Node8 -->
<g id="node15" class="node"><title>Node8</title>
<polygon fill="white" stroke="#bfbfbf" points="296.5,-0.5 296.5,-21.5 371.5,-21.5 371.5,-0.5 296.5,-0.5"/>
<text text-anchor="middle" x="334" y="-8.5" font-family="Helvetica,sans-Serif" font-size="10.00">QPushButton</text>
</g>
<!-- Node4&#45;&gt;Node8 -->
<g id="edge14" class="edge"><title>Node4&#45;&gt;Node8</title>
<path fill="none" stroke="midnightblue" d="M224.266,-58.4966C245.478,-49.3154 276.498,-35.8889 300.15,-25.6516"/>
<polygon fill="midnightblue" stroke="midnightblue" points="301.674,-28.8055 309.461,-21.6212 298.894,-22.3815 301.674,-28.8055"/>
</g>
</g>
</svg>
