<?xml version="1.0" encoding="UTF-8" standalone="no"?>
<!DOCTYPE svg PUBLIC "-//W3C//DTD SVG 1.1//EN"
 "http://www.w3.org/Graphics/SVG/1.1/DTD/svg11.dtd">
<!-- Generated by graphviz version 2.26.3 (20100126.1600)
 -->
<!-- Title: merge_lib::Parser::parseDocument Pages: 1 -->
<svg width="1224pt" height="125pt"
 viewBox="0.00 0.00 1224.00 125.00" xmlns="http://www.w3.org/2000/svg" xmlns:xlink="http://www.w3.org/1999/xlink">
<g id="graph1" class="graph" transform="scale(1 1) rotate(0) translate(4 121)">
<title>merge_lib::Parser::parseDocument</title>
<polygon fill="white" stroke="white" points="-4,5 -4,-121 1221,-121 1221,5 -4,5"/>
<!-- Node1 -->
<g id="node1" class="node"><title>Node1</title>
<polygon fill="#bfbfbf" stroke="black" points="0,-57 0,-91 96,-91 96,-57 0,-57"/>
<text text-anchor="start" x="8" y="-78" font-family="Helvetica,sans-Serif" font-size="10.00">merge_lib::Parser:</text>
<text text-anchor="middle" x="48" y="-65" font-family="Helvetica,sans-Serif" font-size="10.00">:parseDocument</text>
</g>
<!-- Node2 -->
<g id="node3" class="node"><title>Node2</title>
<a xlink:href="../../d8/d35/classmerge__lib_1_1_merger.html#a21ec448078eb91834db284b038c0301c" target="_top" xlink:title="merge_lib::Merger:\l:addBaseDocument">
<polygon fill="white" stroke="black" points="317.5,-83 317.5,-117 420.5,-117 420.5,-83 317.5,-83"/>
<text text-anchor="start" x="325.5" y="-104" font-family="Helvetica,sans-Serif" font-size="10.00">merge_lib::Merger:</text>
<text text-anchor="middle" x="369" y="-91" font-family="Helvetica,sans-Serif" font-size="10.00">:addBaseDocument</text>
</a>
</g>
<!-- Node1&#45;&gt;Node2 -->
<g id="edge2" class="edge"><title>Node1&#45;&gt;Node2</title>
<path fill="none" stroke="midnightblue" d="M106.171,-78.7117C166.434,-83.5928 259.711,-91.1479 317.42,-95.8222"/>
<polygon fill="midnightblue" stroke="midnightblue" points="106.307,-75.2113 96.0569,-77.8925 105.742,-82.1885 106.307,-75.2113"/>
</g>
<!-- Node8 -->
<g id="node15" class="node"><title>Node8</title>
<a xlink:href="../../d0/dd3/classmerge__lib_1_1_overlay_document_parser.html#a03f2f36e4e57c5c6cfb37933bc82c801" target="_top" xlink:title="merge_lib::OverlayDocument\lParser::parseDocument">
<polygon fill="white" stroke="black" points="132.5,-34 132.5,-68 275.5,-68 275.5,-34 132.5,-34"/>
<text text-anchor="start" x="140.5" y="-55" font-family="Helvetica,sans-Serif" font-size="10.00">merge_lib::OverlayDocument</text>
<text text-anchor="middle" x="204" y="-42" font-family="Helvetica,sans-Serif" font-size="10.00">Parser::parseDocument</text>
</a>
</g>
<!-- Node1&#45;&gt;Node8 -->
<g id="edge14" class="edge"><title>Node1&#45;&gt;Node8</title>
<path fill="none" stroke="midnightblue" d="M106.24,-65.4133C114.732,-64.1614 123.558,-62.8601 132.278,-61.5744"/>
<polygon fill="midnightblue" stroke="midnightblue" points="105.461,-61.9903 96.0781,-66.9116 106.482,-68.9155 105.461,-61.9903"/>
</g>
<!-- Node3 -->
<g id="node5" class="node"><title>Node3</title>
<a xlink:href="../../d6/d54/class_u_b_export_full_p_d_f.html#a2101b6fdc6ed273a6e2c062d5ce7e12c" target="_top" xlink:title="UBExportFullPDF::persists\lDocument">
<polygon fill="white" stroke="black" points="596,-45 596,-79 732,-79 732,-45 596,-45"/>
<text text-anchor="start" x="604" y="-66" font-family="Helvetica,sans-Serif" font-size="10.00">UBExportFullPDF::persists</text>
<text text-anchor="middle" x="664" y="-53" font-family="Helvetica,sans-Serif" font-size="10.00">Document</text>
</a>
</g>
<!-- Node2&#45;&gt;Node3 -->
<g id="edge4" class="edge"><title>Node2&#45;&gt;Node3</title>
<path fill="none" stroke="midnightblue" d="M430.729,-92.0485C479.017,-85.8283 546.101,-77.1869 595.94,-70.767"/>
<polygon fill="midnightblue" stroke="midnightblue" points="430.194,-88.5884 420.723,-93.3374 431.088,-95.5311 430.194,-88.5884"/>
</g>
<!-- Node4 -->
<g id="node7" class="node"><title>Node4</title>
<a xlink:href="../../da/d3c/class_u_b_document_publisher.html#ac6a7b91093faed242e6b99280adca16b" target="_top" xlink:title="UBDocumentPublisher\l::buildUbwFile">
<polygon fill="white" stroke="black" points="776,-68 776,-102 892,-102 892,-68 776,-68"/>
<text text-anchor="start" x="784" y="-89" font-family="Helvetica,sans-Serif" font-size="10.00">UBDocumentPublisher</text>
<text text-anchor="middle" x="834" y="-76" font-family="Helvetica,sans-Serif" font-size="10.00">::buildUbwFile</text>
</a>
</g>
<!-- Node3&#45;&gt;Node4 -->
<g id="edge6" class="edge"><title>Node3&#45;&gt;Node4</title>
<path fill="none" stroke="midnightblue" d="M742.107,-72.5675C753.492,-74.1078 765.043,-75.6705 775.936,-77.1443"/>
<polygon fill="midnightblue" stroke="midnightblue" points="742.545,-69.0949 732.166,-71.2225 741.606,-76.0317 742.545,-69.0949"/>
</g>
<!-- Node7 -->
<g id="node13" class="node"><title>Node7</title>
<a xlink:href="../../d6/d54/class_u_b_export_full_p_d_f.html#a8c0bd950f21f469ce17daa1add9a75bf" target="_top" xlink:title="UBExportFullPDF::persist">
<polygon fill="white" stroke="black" points="768.5,-28.5 768.5,-49.5 899.5,-49.5 899.5,-28.5 768.5,-28.5"/>
<text text-anchor="middle" x="834" y="-36.5" font-family="Helvetica,sans-Serif" font-size="10.00">UBExportFullPDF::persist</text>
</a>
</g>
<!-- Node3&#45;&gt;Node7 -->
<g id="edge12" class="edge"><title>Node3&#45;&gt;Node7</title>
<path fill="none" stroke="midnightblue" d="M742.307,-51.4055C751.002,-50.2292 759.79,-49.0401 768.306,-47.888"/>
<polygon fill="midnightblue" stroke="midnightblue" points="741.606,-47.9683 732.166,-52.7775 742.545,-54.9051 741.606,-47.9683"/>
</g>
<!-- Node5 -->
<g id="node9" class="node"><title>Node5</title>
<a xlink:href="../../da/d3c/class_u_b_document_publisher.html#adca541347ad643ceea47eeb3f48bc24a" target="_top" xlink:title="UBDocumentPublisher\l::publish">
<polygon fill="white" stroke="black" points="936,-68 936,-102 1052,-102 1052,-68 936,-68"/>
<text text-anchor="start" x="944" y="-89" font-family="Helvetica,sans-Serif" font-size="10.00">UBDocumentPublisher</text>
<text text-anchor="middle" x="994" y="-76" font-family="Helvetica,sans-Serif" font-size="10.00">::publish</text>
</a>
</g>
<!-- Node4&#45;&gt;Node5 -->
<g id="edge8" class="edge"><title>Node4&#45;&gt;Node5</title>
<path fill="none" stroke="midnightblue" d="M902.343,-85C913.493,-85 924.951,-85 935.827,-85"/>
<polygon fill="midnightblue" stroke="midnightblue" points="902.216,-81.5001 892.216,-85 902.216,-88.5001 902.216,-81.5001"/>
</g>
<!-- Node6 -->
<g id="node11" class="node"><title>Node6</title>
<a xlink:href="../../de/d5f/class_u_b_web_publisher.html#acf1964056e5008ca164f974cc55e8b24" target="_top" xlink:title="UBWebPublisher::persist">
<polygon fill="white" stroke="black" points="1088.5,-74.5 1088.5,-95.5 1215.5,-95.5 1215.5,-74.5 1088.5,-74.5"/>
<text text-anchor="middle" x="1152" y="-82.5" font-family="Helvetica,sans-Serif" font-size="10.00">UBWebPublisher::persist</text>
</a>
</g>
<!-- Node5&#45;&gt;Node6 -->
<g id="edge10" class="edge"><title>Node5&#45;&gt;Node6</title>
<path fill="none" stroke="midnightblue" d="M1062.66,-85C1071.17,-85 1079.84,-85 1088.28,-85"/>
<polygon fill="midnightblue" stroke="midnightblue" points="1062.38,-81.5001 1052.38,-85 1062.38,-88.5001 1062.38,-81.5001"/>
</g>
<!-- Node9 -->
<g id="node17" class="node"><title>Node9</title>
<a xlink:href="../../d8/d35/classmerge__lib_1_1_merger.html#ad2fe21c9daf3749cc1a7340146f8442a" target="_top" xlink:title="merge_lib::Merger:\l:addOverlayDocument">
<polygon fill="white" stroke="black" points="312,-31 312,-65 426,-65 426,-31 312,-31"/>
<text text-anchor="start" x="320" y="-52" font-family="Helvetica,sans-Serif" font-size="10.00">merge_lib::Merger:</text>
<text text-anchor="middle" x="369" y="-39" font-family="Helvetica,sans-Serif" font-size="10.00">:addOverlayDocument</text>
</a>
</g>
<!-- Node8&#45;&gt;Node9 -->
<g id="edge16" class="edge"><title>Node8&#45;&gt;Node9</title>
<path fill="none" stroke="midnightblue" d="M286.126,-49.5068C294.867,-49.3479 303.613,-49.1889 311.973,-49.0369"/>
<polygon fill="midnightblue" stroke="midnightblue" points="285.826,-46.0116 275.891,-49.6929 285.953,-53.0104 285.826,-46.0116"/>
</g>
<!-- Node9&#45;&gt;Node3 -->
<g id="edge18" class="edge"><title>Node9&#45;&gt;Node3</title>
<path fill="none" stroke="midnightblue" d="M436.461,-51.2015C484.175,-53.466 547.919,-56.4911 595.799,-58.7633"/>
<polygon fill="midnightblue" stroke="midnightblue" points="436.383,-47.694 426.229,-50.7159 436.052,-54.6861 436.383,-47.694"/>
</g>
<!-- Node10 -->
<g id="node20" class="node"><title>Node10</title>
<a xlink:href="../../d8/d35/classmerge__lib_1_1_merger.html#a02c1f126ae84b8c2f00ed7adf411124a" target="_top" xlink:title="merge_lib::Merger:\l:merge">
<polygon fill="white" stroke="black" points="462,-0 462,-34 560,-34 560,-0 462,-0"/>
<text text-anchor="start" x="470" y="-21" font-family="Helvetica,sans-Serif" font-size="10.00">merge_lib::Merger:</text>
<text text-anchor="middle" x="511" y="-8" font-family="Helvetica,sans-Serif" font-size="10.00">:merge</text>
</a>
</g>
<!-- Node9&#45;&gt;Node10 -->
<g id="edge20" class="edge"><title>Node9&#45;&gt;Node10</title>
<path fill="none" stroke="midnightblue" d="M436.312,-33.3052C444.853,-31.4406 453.465,-29.5604 461.653,-27.773"/>
<polygon fill="midnightblue" stroke="midnightblue" points="435.371,-29.9281 426.348,-35.4805 436.864,-36.767 435.371,-29.9281"/>
</g>
<!-- Node10&#45;&gt;Node3 -->
<g id="edge22" class="edge"><title>Node10&#45;&gt;Node3</title>
<path fill="none" stroke="midnightblue" d="M570.018,-34.3582C581.84,-37.8352 594.25,-41.4854 606.036,-44.9518"/>
<polygon fill="midnightblue" stroke="midnightblue" points="570.834,-30.9499 560.252,-31.486 568.858,-37.6655 570.834,-30.9499"/>
</g>
</g>
</svg>
