<?xml version="1.0" encoding="UTF-8" standalone="no"?>
<!DOCTYPE svg PUBLIC "-//W3C//DTD SVG 1.1//EN"
 "http://www.w3.org/Graphics/SVG/1.1/DTD/svg11.dtd">
<!-- Generated by graphviz version 2.26.3 (20100126.1600)
 -->
<!-- Title: UBGraphicsPolygonItem::setStrokesGroup Pages: 1 -->
<!--zoomable 244 -->
<svg id="main" version="1.1" xmlns="http://www.w3.org/2000/svg" xmlns:xlink="http://www.w3.org/1999/xlink" xml:space="preserve" onload="init(evt)">
        <defs>
                <circle id="rim" cx="0" cy="0" r="7"/>
                <circle id="rim2" cx="0" cy="0" r="3.5"/>
                <g id="zoomPlus">
                        <use xlink:href="#rim" fill="#404040">
                                <set attributeName="fill" to="#808080" begin="zoomplus.mouseover" end="zoomplus.mouseout"/>
                        </use>
                        <path d="M-4,0h8M0,-4v8" fill="none" stroke="white" stroke-width="1.5" pointer-events="none"/>
                </g>
                <g id="zoomMin">
                        <use xlink:href="#rim" fill="#404040">
                                <set attributeName="fill" to="#808080" begin="zoomminus.mouseover" end="zoomminus.mouseout"/>
                        </use>
                        <path d="M-4,0h8" fill="none" stroke="white" stroke-width="1.5" pointer-events="none"/>
                </g>
                <g id="dirArrow">
                        <path fill="none" stroke="white" stroke-width="1.5" d="M0,-3.0v7 M-2.5,-0.5L0,-3.0L2.5,-0.5"/>
                </g>
               <g id="resetDef">
                       <use xlink:href="#rim2" fill="#404040">
                               <set attributeName="fill" to="#808080" begin="reset.mouseover" end="reset.mouseout"/>
                       </use>
               </g>
        </defs>

<script type="text/javascript">
var viewWidth = 1164;
var viewHeight = 244;
var sectionId = 'dynsection-25';
</script>
<script xlink:href="../../svgpan.js"/>
<svg id="graph" class="graph">
<g id="viewport">
<title>UBGraphicsPolygonItem::setStrokesGroup</title>
<polygon fill="white" stroke="white" points="-4,5 -4,-240 1161,-240 1161,5 -4,5"/>
<!-- Node1 -->
<g id="node1" class="node"><title>Node1</title>
<polygon fill="#bfbfbf" stroke="black" points="0.5,-82 0.5,-116 125.5,-116 125.5,-82 0.5,-82"/>
<text text-anchor="start" x="8.5" y="-103" font-family="Helvetica,sans-Serif" font-size="10.00">UBGraphicsPolygonItem</text>
<text text-anchor="middle" x="63" y="-90" font-family="Helvetica,sans-Serif" font-size="10.00">::setStrokesGroup</text>
</g>
<!-- Node2 -->
<g id="node3" class="node"><title>Node2</title>
<a xlink:href="../../dc/db2/class_u_b_graphics_scene.html#a6e04dca4d1484c4e44cc63c8a5b0e2da" target="_top" xlink:title="UBGraphicsScene::inputDevice\lRelease">
<polygon fill="white" stroke="black" points="576.5,-143 576.5,-177 731.5,-177 731.5,-143 576.5,-143"/>
<text text-anchor="start" x="584.5" y="-164" font-family="Helvetica,sans-Serif" font-size="10.00">UBGraphicsScene::inputDevice</text>
<text text-anchor="middle" x="654" y="-151" font-family="Helvetica,sans-Serif" font-size="10.00">Release</text>
</a>
</g>
<!-- Node1&#45;&gt;Node2 -->
<g id="edge2" class="edge"><title>Node1&#45;&gt;Node2</title>
<path fill="none" stroke="midnightblue" d="M135.604,-114.67C144.469,-116.287 153.423,-117.78 162,-119 307.534,-139.693 478.882,-151.061 576.143,-156.311"/>
<polygon fill="midnightblue" stroke="midnightblue" points="136.131,-111.208 125.656,-112.801 134.838,-118.087 136.131,-111.208"/>
</g>
<!-- Node8 -->
<g id="node15" class="node"><title>Node8</title>
<a xlink:href="../../dc/db2/class_u_b_graphics_scene.html#aa337ae1428c734e7b4bef8a7404c926b" target="_top" xlink:title="UBGraphicsScene::eraseLineTo">
<polygon fill="white" stroke="black" points="162.5,-88.5 162.5,-109.5 319.5,-109.5 319.5,-88.5 162.5,-88.5"/>
<text text-anchor="middle" x="241" y="-96.5" font-family="Helvetica,sans-Serif" font-size="10.00">UBGraphicsScene::eraseLineTo</text>
</a>
</g>
<!-- Node1&#45;&gt;Node8 -->
<g id="edge14" class="edge"><title>Node1&#45;&gt;Node8</title>
<path fill="none" stroke="midnightblue" d="M135.708,-99C144.503,-99 153.518,-99 162.393,-99"/>
<polygon fill="midnightblue" stroke="midnightblue" points="135.506,-95.5001 125.506,-99 135.506,-102.5 135.506,-95.5001"/>
</g>
<!-- Node17 -->
<g id="node39" class="node"><title>Node17</title>
<a xlink:href="../../d3/d0b/class_u_b_graphics_strokes_group.html#a4932a359f046811fc1d555d5d6b49b38" target="_top" xlink:title="UBGraphicsStrokesGroup\l::deepCopy">
<polygon fill="white" stroke="black" points="176,-36 176,-70 306,-70 306,-36 176,-36"/>
<text text-anchor="start" x="184" y="-57" font-family="Helvetica,sans-Serif" font-size="10.00">UBGraphicsStrokesGroup</text>
<text text-anchor="middle" x="241" y="-44" font-family="Helvetica,sans-Serif" font-size="10.00">::deepCopy</text>
</a>
</g>
<!-- Node1&#45;&gt;Node17 -->
<g id="edge44" class="edge"><title>Node1&#45;&gt;Node17</title>
<path fill="none" stroke="midnightblue" d="M135.204,-80.3404C148.679,-76.8583 162.686,-73.2384 175.93,-69.8159"/>
<polygon fill="midnightblue" stroke="midnightblue" points="134.312,-76.956 125.506,-82.8468 136.064,-83.7333 134.312,-76.956"/>
</g>
<!-- Node3 -->
<g id="node5" class="node"><title>Node3</title>
<a xlink:href="../../d1/d78/class_u_b_board_view.html#ad5109e5f034af7b194f4dc6606fe16e6" target="_top" xlink:title="UBBoardView::tabletEvent">
<polygon fill="white" stroke="black" points="798,-44.5 798,-65.5 932,-65.5 932,-44.5 798,-44.5"/>
<text text-anchor="middle" x="865" y="-52.5" font-family="Helvetica,sans-Serif" font-size="10.00">UBBoardView::tabletEvent</text>
</a>
</g>
<!-- Node2&#45;&gt;Node3 -->
<g id="edge4" class="edge"><title>Node2&#45;&gt;Node3</title>
<path fill="none" stroke="midnightblue" d="M708.744,-138.343C718.3,-133.367 727.795,-127.572 736,-121 756.262,-104.77 749.995,-88.7745 772,-75 779.839,-70.093 788.699,-66.3757 797.758,-63.5625"/>
<polygon fill="midnightblue" stroke="midnightblue" points="707.017,-135.293 699.604,-142.862 710.12,-141.568 707.017,-135.293"/>
</g>
<!-- Node4 -->
<g id="node7" class="node"><title>Node4</title>
<a xlink:href="../../d1/d78/class_u_b_board_view.html#acc4206bbb27829580a337c81708be4a3" target="_top" xlink:title="UBBoardView::mouseRelease\lEvent">
<polygon fill="white" stroke="black" points="1000.5,-156 1000.5,-190 1149.5,-190 1149.5,-156 1000.5,-156"/>
<text text-anchor="start" x="1008.5" y="-177" font-family="Helvetica,sans-Serif" font-size="10.00">UBBoardView::mouseRelease</text>
<text text-anchor="middle" x="1075" y="-164" font-family="Helvetica,sans-Serif" font-size="10.00">Event</text>
</a>
</g>
<!-- Node2&#45;&gt;Node4 -->
<g id="edge6" class="edge"><title>Node2&#45;&gt;Node4</title>
<path fill="none" stroke="midnightblue" d="M741.799,-162.711C818.25,-165.072 927.877,-168.457 1000.22,-170.691"/>
<polygon fill="midnightblue" stroke="midnightblue" points="741.812,-159.21 731.709,-162.4 741.596,-166.207 741.812,-159.21"/>
</g>
<!-- Node5 -->
<g id="node9" class="node"><title>Node5</title>
<a xlink:href="../../d1/d78/class_u_b_board_view.html#a67410b1a3e2af79f17fa37999c96e534" target="_top" xlink:title="UBBoardView::forcedTablet\lRelease">
<polygon fill="white" stroke="black" points="796,-202 796,-236 934,-236 934,-202 796,-202"/>
<text text-anchor="start" x="804" y="-223" font-family="Helvetica,sans-Serif" font-size="10.00">UBBoardView::forcedTablet</text>
<text text-anchor="middle" x="865" y="-210" font-family="Helvetica,sans-Serif" font-size="10.00">Release</text>
</a>
</g>
<!-- Node2&#45;&gt;Node5 -->
<g id="edge8" class="edge"><title>Node2&#45;&gt;Node5</title>
<path fill="none" stroke="midnightblue" d="M724.725,-179.776C750.459,-186.972 779.3,-195.036 804.107,-201.973"/>
<polygon fill="midnightblue" stroke="midnightblue" points="725.603,-176.388 715.03,-177.065 723.718,-183.129 725.603,-176.388"/>
</g>
<!-- Node7 -->
<g id="node13" class="node"><title>Node7</title>
<a xlink:href="../../db/dd7/class_u_b_graphics_ruler.html#ae42d5fdd24a3e7d98a80b8d2f973b35e" target="_top" xlink:title="UBGraphicsRuler::EndLine">
<polygon fill="white" stroke="black" points="798,-124.5 798,-145.5 932,-145.5 932,-124.5 798,-124.5"/>
<text text-anchor="middle" x="865" y="-132.5" font-family="Helvetica,sans-Serif" font-size="10.00">UBGraphicsRuler::EndLine</text>
</a>
</g>
<!-- Node2&#45;&gt;Node7 -->
<g id="edge12" class="edge"><title>Node2&#45;&gt;Node7</title>
<path fill="none" stroke="midnightblue" d="M741.709,-149.608C760.494,-147.382 780.054,-145.065 797.914,-142.949"/>
<polygon fill="midnightblue" stroke="midnightblue" points="741.188,-146.145 731.67,-150.797 742.012,-153.096 741.188,-146.145"/>
</g>
<!-- Node6 -->
<g id="node11" class="node"><title>Node6</title>
<a xlink:href="../../d8/d81/class_u_b_application.html#ace44514d00d196ed5976552dedf9c070" target="_top" xlink:title="UBApplication::eventFilter">
<polygon fill="white" stroke="black" points="1009.5,-208.5 1009.5,-229.5 1140.5,-229.5 1140.5,-208.5 1009.5,-208.5"/>
<text text-anchor="middle" x="1075" y="-216.5" font-family="Helvetica,sans-Serif" font-size="10.00">UBApplication::eventFilter</text>
</a>
</g>
<!-- Node5&#45;&gt;Node6 -->
<g id="edge10" class="edge"><title>Node5&#45;&gt;Node6</title>
<path fill="none" stroke="midnightblue" d="M944.154,-219C965.693,-219 988.778,-219 1009.47,-219"/>
<polygon fill="midnightblue" stroke="midnightblue" points="944.053,-215.5 934.053,-219 944.053,-222.5 944.053,-215.5"/>
</g>
<!-- Node9 -->
<g id="node17" class="node"><title>Node9</title>
<a xlink:href="../../d5/d2b/class_u_b_widget_uniboard_a_p_i.html#a44319957dc9d0919015f73826998f0ee" target="_top" xlink:title="UBWidgetUniboardAPI\l::eraseLineTo">
<polygon fill="white" stroke="black" points="387.5,-60 387.5,-94 504.5,-94 504.5,-60 387.5,-60"/>
<text text-anchor="start" x="395.5" y="-81" font-family="Helvetica,sans-Serif" font-size="10.00">UBWidgetUniboardAPI</text>
<text text-anchor="middle" x="446" y="-68" font-family="Helvetica,sans-Serif" font-size="10.00">::eraseLineTo</text>
</a>
</g>
<!-- Node8&#45;&gt;Node9 -->
<g id="edge16" class="edge"><title>Node8&#45;&gt;Node9</title>
<path fill="none" stroke="midnightblue" d="M329.77,-89.4735C349.226,-87.3856 369.353,-85.2255 387.281,-83.3016"/>
<polygon fill="midnightblue" stroke="midnightblue" points="329.241,-86.01 319.672,-90.5571 329.988,-92.97 329.241,-86.01"/>
</g>
<!-- Node10 -->
<g id="node19" class="node"><title>Node10</title>
<a xlink:href="../../dc/db2/class_u_b_graphics_scene.html#aa7b9011c76710841c644801d235ae3f2" target="_top" xlink:title="UBGraphicsScene::inputDevice\lPress">
<polygon fill="white" stroke="black" points="576.5,-78 576.5,-112 731.5,-112 731.5,-78 576.5,-78"/>
<text text-anchor="start" x="584.5" y="-99" font-family="Helvetica,sans-Serif" font-size="10.00">UBGraphicsScene::inputDevice</text>
<text text-anchor="middle" x="654" y="-86" font-family="Helvetica,sans-Serif" font-size="10.00">Press</text>
</a>
</g>
<!-- Node8&#45;&gt;Node10 -->
<g id="edge18" class="edge"><title>Node8&#45;&gt;Node10</title>
<path fill="none" stroke="midnightblue" d="M329.601,-102.392C338.518,-102.64 347.438,-102.851 356,-103 435.988,-104.391 456.046,-105.707 536,-103 549.031,-102.559 562.858,-101.844 576.284,-101.019"/>
<polygon fill="midnightblue" stroke="midnightblue" points="329.653,-98.8916 319.554,-102.097 329.447,-105.889 329.653,-98.8916"/>
</g>
<!-- Node14 -->
<g id="node30" class="node"><title>Node14</title>
<a xlink:href="../../dc/db2/class_u_b_graphics_scene.html#a9354a46739a316286901ebd12b2bcf1b" target="_top" xlink:title="UBGraphicsScene::inputDeviceMove">
<polygon fill="white" stroke="black" points="356.5,-20.5 356.5,-41.5 535.5,-41.5 535.5,-20.5 356.5,-20.5"/>
<text text-anchor="middle" x="446" y="-28.5" font-family="Helvetica,sans-Serif" font-size="10.00">UBGraphicsScene::inputDeviceMove</text>
</a>
</g>
<!-- Node8&#45;&gt;Node14 -->
<g id="edge32" class="edge"><title>Node8&#45;&gt;Node14</title>
<path fill="none" stroke="midnightblue" d="M304.734,-85.3442C309.999,-83.4743 315.154,-81.368 320,-79 338.212,-70.1013 337.66,-59.6311 356,-51 364.11,-47.1833 372.979,-44.0793 381.886,-41.559"/>
<polygon fill="midnightblue" stroke="midnightblue" points="303.605,-82.0311 295.184,-88.4605 305.776,-88.6858 303.605,-82.0311"/>
</g>
<!-- Node10&#45;&gt;Node3 -->
<g id="edge20" class="edge"><title>Node10&#45;&gt;Node3</title>
<path fill="none" stroke="midnightblue" d="M741.772,-78.3608C764.731,-74.0083 788.843,-69.4373 809.59,-65.5042"/>
<polygon fill="midnightblue" stroke="midnightblue" points="740.843,-74.9745 731.67,-80.2759 742.147,-81.852 740.843,-74.9745"/>
</g>
<!-- Node11 -->
<g id="node22" class="node"><title>Node11</title>
<a xlink:href="../../d1/d78/class_u_b_board_view.html#a6fc3391590c435e0ae26c43d2bd76d14" target="_top" xlink:title="UBBoardView::mousePressEvent">
<polygon fill="white" stroke="black" points="783,-84.5 783,-105.5 947,-105.5 947,-84.5 783,-84.5"/>
<text text-anchor="middle" x="865" y="-92.5" font-family="Helvetica,sans-Serif" font-size="10.00">UBBoardView::mousePressEvent</text>
</a>
</g>
<!-- Node10&#45;&gt;Node11 -->
<g id="edge22" class="edge"><title>Node10&#45;&gt;Node11</title>
<path fill="none" stroke="midnightblue" d="M741.946,-95C755.506,-95 769.464,-95 782.89,-95"/>
<polygon fill="midnightblue" stroke="midnightblue" points="741.67,-91.5001 731.67,-95 741.67,-98.5001 741.67,-91.5001"/>
</g>
<!-- Node11&#45;&gt;Node4 -->
<g id="edge28" class="edge"><title>Node11&#45;&gt;Node4</title>
<path fill="none" stroke="midnightblue" d="M943.62,-108.812C948.585,-110.627 953.422,-112.679 958,-115 977.093,-124.68 975.408,-136.389 994,-147 999.772,-150.294 1006.02,-153.234 1012.39,-155.842"/>
<polygon fill="midnightblue" stroke="midnightblue" points="944.539,-105.43 933.946,-105.608 942.338,-112.075 944.539,-105.43"/>
</g>
<!-- Node12 -->
<g id="node24" class="node"><title>Node12</title>
<a xlink:href="../../d1/d78/class_u_b_board_view.html#a1818c4d69a09adc9bb98079d2210564d" target="_top" xlink:title="UBBoardView::handleItemMouse\lPress">
<polygon fill="white" stroke="black" points="994.5,-52 994.5,-86 1155.5,-86 1155.5,-52 994.5,-52"/>
<text text-anchor="start" x="1002.5" y="-73" font-family="Helvetica,sans-Serif" font-size="10.00">UBBoardView::handleItemMouse</text>
<text text-anchor="middle" x="1075" y="-60" font-family="Helvetica,sans-Serif" font-size="10.00">Press</text>
</a>
</g>
<!-- Node11&#45;&gt;Node12 -->
<g id="edge24" class="edge"><title>Node11&#45;&gt;Node12</title>
<path fill="none" stroke="midnightblue" d="M915.847,-82.8259C939.41,-79.0754 967.983,-75.3022 994.379,-72.396"/>
<polygon fill="midnightblue" stroke="midnightblue" points="915.039,-79.4117 905.739,-84.4866 916.174,-86.3191 915.039,-79.4117"/>
</g>
<!-- Node13 -->
<g id="node28" class="node"><title>Node13</title>
<a xlink:href="../../d1/d78/class_u_b_board_view.html#a43eb1207291905e9daa7c618a3c203bb" target="_top" xlink:title="UBBoardView::mouseDouble\lClickEvent">
<polygon fill="white" stroke="black" points="1003,-104 1003,-138 1147,-138 1147,-104 1003,-104"/>
<text text-anchor="start" x="1011" y="-125" font-family="Helvetica,sans-Serif" font-size="10.00">UBBoardView::mouseDouble</text>
<text text-anchor="middle" x="1075" y="-112" font-family="Helvetica,sans-Serif" font-size="10.00">ClickEvent</text>
</a>
</g>
<!-- Node11&#45;&gt;Node13 -->
<g id="edge30" class="edge"><title>Node11&#45;&gt;Node13</title>
<path fill="none" stroke="midnightblue" d="M957.097,-106.403C972.423,-108.3 988.121,-110.244 1002.86,-112.068"/>
<polygon fill="midnightblue" stroke="midnightblue" points="957.448,-102.919 947.094,-105.164 956.588,-109.866 957.448,-102.919"/>
</g>
<!-- Node12&#45;&gt;Node11 -->
<g id="edge26" class="edge"><title>Node12&#45;&gt;Node11</title>
<path fill="none" stroke="midnightblue" d="M984.087,-86.9516C971.788,-88.5696 959.227,-90.0947 947.094,-91.4412"/>
<polygon fill="midnightblue" stroke="midnightblue" points="984.897,-90.3742 994.342,-85.5724 983.964,-83.4367 984.897,-90.3742"/>
</g>
<!-- Node14&#45;&gt;Node3 -->
<g id="edge34" class="edge"><title>Node14&#45;&gt;Node3</title>
<path fill="none" stroke="midnightblue" d="M545.944,-36.7247C623.836,-41.1863 729.843,-47.2583 797.86,-51.1543"/>
<polygon fill="midnightblue" stroke="midnightblue" points="545.813,-33.2116 535.629,-36.1339 545.412,-40.2001 545.813,-33.2116"/>
</g>
<!-- Node14&#45;&gt;Node10 -->
<g id="edge42" class="edge"><title>Node14&#45;&gt;Node10</title>
<path fill="none" stroke="midnightblue" d="M508.962,-43.8254C518.085,-46.0211 527.321,-48.431 536,-51 539.8,-52.1248 577.151,-66.0913 608.828,-77.9914"/>
<polygon fill="midnightblue" stroke="midnightblue" points="509.672,-40.3971 499.138,-41.5294 508.079,-47.2134 509.672,-40.3971"/>
</g>
<!-- Node15 -->
<g id="node33" class="node"><title>Node15</title>
<a xlink:href="../../d1/d78/class_u_b_board_view.html#adf1b48aff41094593ba1054627b4c52b" target="_top" xlink:title="UBBoardView::mouseMoveEvent">
<polygon fill="white" stroke="black" points="572.5,-0.5 572.5,-21.5 735.5,-21.5 735.5,-0.5 572.5,-0.5"/>
<text text-anchor="middle" x="654" y="-8.5" font-family="Helvetica,sans-Serif" font-size="10.00">UBBoardView::mouseMoveEvent</text>
</a>
</g>
<!-- Node14&#45;&gt;Node15 -->
<g id="edge36" class="edge"><title>Node14&#45;&gt;Node15</title>
<path fill="none" stroke="midnightblue" d="M545.777,-21.406C554.714,-20.5468 563.691,-19.6835 572.446,-18.8417"/>
<polygon fill="midnightblue" stroke="midnightblue" points="545.339,-17.9319 535.72,-22.3731 546.009,-24.8998 545.339,-17.9319"/>
</g>
<!-- Node16 -->
<g id="node35" class="node"><title>Node16</title>
<a xlink:href="../../d1/d78/class_u_b_board_view.html#aa0ffd2f772d688eb459b316c36404188" target="_top" xlink:title="UBBoardView::handleItemMouseMove">
<polygon fill="white" stroke="black" points="772.5,-0.5 772.5,-21.5 957.5,-21.5 957.5,-0.5 772.5,-0.5"/>
<text text-anchor="middle" x="865" y="-8.5" font-family="Helvetica,sans-Serif" font-size="10.00">UBBoardView::handleItemMouseMove</text>
</a>
</g>
<!-- Node15&#45;&gt;Node16 -->
<g id="edge38" class="edge"><title>Node15&#45;&gt;Node16</title>
<path fill="none" stroke="midnightblue" d="M745.844,-4.30052C754.652,-4.23502 763.589,-4.23321 772.404,-4.29508"/>
<polygon fill="midnightblue" stroke="midnightblue" points="745.541,-0.803361 735.578,-4.40666 745.614,-7.80299 745.541,-0.803361"/>
</g>
<!-- Node16&#45;&gt;Node15 -->
<g id="edge40" class="edge"><title>Node16&#45;&gt;Node15</title>
<path fill="none" stroke="midnightblue" d="M762.304,-17.7479C753.336,-17.7614 744.341,-17.7099 735.578,-17.5933"/>
<polygon fill="midnightblue" stroke="midnightblue" points="762.419,-21.2475 772.404,-17.7049 762.39,-14.2476 762.419,-21.2475"/>
</g>
</g>
</svg>
        <g id="navigator" transform="translate(0 0)" fill="#404254">
                <rect fill="#f2f5e9" fill-opacity="0.5" stroke="#606060" stroke-width=".5" x="0" y="0" width="60" height="60"/>
                <use id="zoomplus" xlink:href="#zoomPlus" x="17" y="9" onmousedown="handleZoom(evt,'in')"/>
                <use id="zoomminus" xlink:href="#zoomMin" x="42" y="9" onmousedown="handleZoom(evt,'out')"/>
                <use id="reset" xlink:href="#resetDef" x="30" y="36" onmousedown="handleReset()"/>
                <g id="arrowUp" xlink:href="#dirArrow" transform="translate(30 24)" onmousedown="handlePan(0,-1)">
                  <use xlink:href="#rim" fill="#404040">
                        <set attributeName="fill" to="#808080" begin="arrowUp.mouseover" end="arrowUp.mouseout"/>
                  </use>
                  <path fill="none" stroke="white" stroke-width="1.5" d="M0,-3.0v7 M-2.5,-0.5L0,-3.0L2.5,-0.5"/>
                </g>
                <g id="arrowRight" xlink:href="#dirArrow" transform="rotate(90) translate(36 -43)" onmousedown="handlePan(1,0)">
                  <use xlink:href="#rim" fill="#404040">
                        <set attributeName="fill" to="#808080" begin="arrowRight.mouseover" end="arrowRight.mouseout"/>
                  </use>
                  <path fill="none" stroke="white" stroke-width="1.5" d="M0,-3.0v7 M-2.5,-0.5L0,-3.0L2.5,-0.5"/>
                </g>
                <g id="arrowDown" xlink:href="#dirArrow" transform="rotate(180) translate(-30 -48)" onmousedown="handlePan(0,1)">
                  <use xlink:href="#rim" fill="#404040">
                        <set attributeName="fill" to="#808080" begin="arrowDown.mouseover" end="arrowDown.mouseout"/>
                  </use>
                  <path fill="none" stroke="white" stroke-width="1.5" d="M0,-3.0v7 M-2.5,-0.5L0,-3.0L2.5,-0.5"/>
                </g>
                <g id="arrowLeft" xlink:href="#dirArrow" transform="rotate(270) translate(-36 17)" onmousedown="handlePan(-1,0)">
                  <use xlink:href="#rim" fill="#404040">
                        <set attributeName="fill" to="#808080" begin="arrowLeft.mouseover" end="arrowLeft.mouseout"/>
                  </use>
                  <path fill="none" stroke="white" stroke-width="1.5" d="M0,-3.0v7 M-2.5,-0.5L0,-3.0L2.5,-0.5"/>
                </g>
        </g>
        <svg viewBox="0 0 15 15" width="100%" height="30px" preserveAspectRatio="xMaxYMin meet">
         <g id="arrow_out" transform="scale(0.3 0.3)">
          <a xlink:href="class_u_b_graphics_polygon_item_a81c74965973558c5c9b1caa82021a08e_icgraph_org.svg" target="_base">
           <rect id="button" ry="5" rx="5" y="6" x="6" height="38" width="38"
                fill="#f2f5e9" fill-opacity="0.5" stroke="#606060" stroke-width="1.0"/>
           <path id="arrow"
             d="M 11.500037,31.436501 C 11.940474,20.09759 22.043105,11.32322 32.158766,21.979434 L 37.068811,17.246167 C 37.068811,17.246167 37.088388,32 37.088388,32 L 22.160133,31.978069 C 22.160133,31.978069 26.997745,27.140456 26.997745,27.140456 C 18.528582,18.264221 13.291696,25.230495 11.500037,31.436501 z"
             style="fill:#404040;"/>
          </a>
         </g>
        </svg>
</svg>
