<?xml version="1.0" encoding="UTF-8" standalone="no"?>
<!DOCTYPE svg PUBLIC "-//W3C//DTD SVG 1.1//EN"
 "http://www.w3.org/Graphics/SVG/1.1/DTD/svg11.dtd">
<!-- Generated by graphviz version 2.26.3 (20100126.1600)
 -->
<!-- Title: UBGraphicsPolygonItem::deepCopy Pages: 1 -->
<!--zoomable 394 -->
<svg id="main" version="1.1" xmlns="http://www.w3.org/2000/svg" xmlns:xlink="http://www.w3.org/1999/xlink" xml:space="preserve" onload="init(evt)">
        <defs>
                <circle id="rim" cx="0" cy="0" r="7"/>
                <circle id="rim2" cx="0" cy="0" r="3.5"/>
                <g id="zoomPlus">
                        <use xlink:href="#rim" fill="#404040">
                                <set attributeName="fill" to="#808080" begin="zoomplus.mouseover" end="zoomplus.mouseout"/>
                        </use>
                        <path d="M-4,0h8M0,-4v8" fill="none" stroke="white" stroke-width="1.5" pointer-events="none"/>
                </g>
                <g id="zoomMin">
                        <use xlink:href="#rim" fill="#404040">
                                <set attributeName="fill" to="#808080" begin="zoomminus.mouseover" end="zoomminus.mouseout"/>
                        </use>
                        <path d="M-4,0h8" fill="none" stroke="white" stroke-width="1.5" pointer-events="none"/>
                </g>
                <g id="dirArrow">
                        <path fill="none" stroke="white" stroke-width="1.5" d="M0,-3.0v7 M-2.5,-0.5L0,-3.0L2.5,-0.5"/>
                </g>
               <g id="resetDef">
                       <use xlink:href="#rim2" fill="#404040">
                               <set attributeName="fill" to="#808080" begin="reset.mouseover" end="reset.mouseout"/>
                       </use>
               </g>
        </defs>

<script type="text/javascript">
var viewWidth = 674;
var viewHeight = 394;
var sectionId = 'dynsection-14';
</script>
<script xlink:href="../../svgpan.js"/>
<svg id="graph" class="graph">
<g id="viewport">
<title>UBGraphicsPolygonItem::deepCopy</title>
<polygon fill="white" stroke="white" points="-4,5 -4,-390 671,-390 671,5 -4,5"/>
<!-- Node1 -->
<g id="node1" class="node"><title>Node1</title>
<polygon fill="#bfbfbf" stroke="black" points="0.5,-168 0.5,-202 125.5,-202 125.5,-168 0.5,-168"/>
<text text-anchor="start" x="8.5" y="-189" font-family="Helvetica,sans-Serif" font-size="10.00">UBGraphicsPolygonItem</text>
<text text-anchor="middle" x="63" y="-176" font-family="Helvetica,sans-Serif" font-size="10.00">::deepCopy</text>
</g>
<!-- Node2 -->
<g id="node3" class="node"><title>Node2</title>
<a xlink:href="../../d5/d46/class_u_b_graphics_polygon_item.html#a88a4b88d048d776eafb97cdd2d979909" target="_top" xlink:title="UBGraphicsPolygonItem\l::UBGraphicsPolygonItem">
<polygon fill="white" stroke="black" points="162.5,-300 162.5,-334 293.5,-334 293.5,-300 162.5,-300"/>
<text text-anchor="start" x="170.5" y="-321" font-family="Helvetica,sans-Serif" font-size="10.00">UBGraphicsPolygonItem</text>
<text text-anchor="middle" x="228" y="-308" font-family="Helvetica,sans-Serif" font-size="10.00">::UBGraphicsPolygonItem</text>
</a>
</g>
<!-- Node1&#45;&gt;Node2 -->
<g id="edge2" class="edge"><title>Node1&#45;&gt;Node2</title>
<path fill="none" stroke="midnightblue" d="M84.5709,-202.257C113.803,-225.642 166.094,-267.475 198.814,-293.651"/>
<polygon fill="midnightblue" stroke="midnightblue" points="196.69,-296.434 206.685,-299.948 201.063,-290.968 196.69,-296.434"/>
</g>
<!-- Node5 -->
<g id="node9" class="node"><title>Node5</title>
<a xlink:href="../../d5/d46/class_u_b_graphics_polygon_item.html#a41dcbc4ac3e7682d6f8355c9fe6a5121" target="_top" xlink:title="UBGraphicsPolygonItem\l::stroke">
<polygon fill="white" stroke="black" points="345.5,-92 345.5,-126 470.5,-126 470.5,-92 345.5,-92"/>
<text text-anchor="start" x="353.5" y="-113" font-family="Helvetica,sans-Serif" font-size="10.00">UBGraphicsPolygonItem</text>
<text text-anchor="middle" x="408" y="-100" font-family="Helvetica,sans-Serif" font-size="10.00">::stroke</text>
</a>
</g>
<!-- Node1&#45;&gt;Node5 -->
<g id="edge8" class="edge"><title>Node1&#45;&gt;Node5</title>
<path fill="none" stroke="midnightblue" d="M125.877,-171.149C184.883,-158.15 273.109,-138.715 335.155,-125.047"/>
<polygon fill="midnightblue" stroke="midnightblue" points="336.251,-128.39 345.264,-122.82 334.745,-121.553 336.251,-128.39"/>
</g>
<!-- Node6 -->
<g id="node11" class="node"><title>Node6</title>
<a xlink:href="../../d5/d46/class_u_b_graphics_polygon_item.html#a4fc95b8ef165429d9f86ffe128e4839a" target="_top" xlink:title="UBGraphicsPolygonItem\l::copyItemParameters">
<polygon fill="white" stroke="black" points="165.5,-196 165.5,-230 290.5,-230 290.5,-196 165.5,-196"/>
<text text-anchor="start" x="173.5" y="-217" font-family="Helvetica,sans-Serif" font-size="10.00">UBGraphicsPolygonItem</text>
<text text-anchor="middle" x="228" y="-204" font-family="Helvetica,sans-Serif" font-size="10.00">::copyItemParameters</text>
</a>
</g>
<!-- Node1&#45;&gt;Node6 -->
<g id="edge10" class="edge"><title>Node1&#45;&gt;Node6</title>
<path fill="none" stroke="midnightblue" d="M125.85,-195.665C135.448,-197.294 145.423,-198.987 155.213,-200.648"/>
<polygon fill="midnightblue" stroke="midnightblue" points="154.88,-204.142 165.325,-202.364 156.051,-197.24 154.88,-204.142"/>
</g>
<!-- Node11 -->
<g id="node21" class="node"><title>Node11</title>
<a xlink:href="../../d5/d46/class_u_b_graphics_polygon_item.html#a38329b96b64a7b9e68bbeefcf8e4b4e9" target="_top" xlink:title="UBGraphicsPolygonItem\l::setStroke">
<polygon fill="white" stroke="black" points="165.5,-68 165.5,-102 290.5,-102 290.5,-68 165.5,-68"/>
<text text-anchor="start" x="173.5" y="-89" font-family="Helvetica,sans-Serif" font-size="10.00">UBGraphicsPolygonItem</text>
<text text-anchor="middle" x="228" y="-76" font-family="Helvetica,sans-Serif" font-size="10.00">::setStroke</text>
</a>
</g>
<!-- Node1&#45;&gt;Node11 -->
<g id="edge20" class="edge"><title>Node1&#45;&gt;Node11</title>
<path fill="none" stroke="midnightblue" d="M86.9241,-167.95C106.679,-154.141 135.651,-134.504 162,-119 168.952,-114.91 176.449,-110.787 183.809,-106.893"/>
<polygon fill="midnightblue" stroke="midnightblue" points="185.755,-109.826 193.007,-102.102 182.521,-103.618 185.755,-109.826"/>
</g>
<!-- Node3 -->
<g id="node5" class="node"><title>Node3</title>
<a xlink:href="../../d5/d46/class_u_b_graphics_polygon_item.html#a2f069d5cdee13da2363e1c7c353f6994" target="_top" xlink:title="UBGraphicsPolygonItem\l::initialize">
<polygon fill="white" stroke="black" points="345.5,-352 345.5,-386 470.5,-386 470.5,-352 345.5,-352"/>
<text text-anchor="start" x="353.5" y="-373" font-family="Helvetica,sans-Serif" font-size="10.00">UBGraphicsPolygonItem</text>
<text text-anchor="middle" x="408" y="-360" font-family="Helvetica,sans-Serif" font-size="10.00">::initialize</text>
</a>
</g>
<!-- Node2&#45;&gt;Node3 -->
<g id="edge4" class="edge"><title>Node2&#45;&gt;Node3</title>
<path fill="none" stroke="midnightblue" d="M286.939,-334.027C303.566,-338.83 321.806,-344.1 338.969,-349.058"/>
<polygon fill="midnightblue" stroke="midnightblue" points="338.35,-352.522 348.929,-351.935 340.293,-345.797 338.35,-352.522"/>
</g>
<!-- Node4 -->
<g id="node7" class="node"><title>Node4</title>
<a xlink:href="../../d5/d46/class_u_b_graphics_polygon_item.html#a97f0b29bd07773c31b351da735b82efd" target="_top" xlink:title="UBGraphicsPolygonItem\l::setUuid">
<polygon fill="white" stroke="black" points="531.5,-352 531.5,-386 656.5,-386 656.5,-352 531.5,-352"/>
<text text-anchor="start" x="539.5" y="-373" font-family="Helvetica,sans-Serif" font-size="10.00">UBGraphicsPolygonItem</text>
<text text-anchor="middle" x="594" y="-360" font-family="Helvetica,sans-Serif" font-size="10.00">::setUuid</text>
</a>
</g>
<!-- Node3&#45;&gt;Node4 -->
<g id="edge6" class="edge"><title>Node3&#45;&gt;Node4</title>
<path fill="none" stroke="midnightblue" d="M470.712,-369C486.869,-369 504.396,-369 521.026,-369"/>
<polygon fill="midnightblue" stroke="midnightblue" points="521.244,-372.5 531.244,-369 521.244,-365.5 521.244,-372.5"/>
</g>
<!-- Node7 -->
<g id="node13" class="node"><title>Node7</title>
<a xlink:href="../../d5/d46/class_u_b_graphics_polygon_item.html#ac9933cb0cf460025e02b4c01482cd561" target="_top" xlink:title="UBGraphicsPolygonItem\l::setColorOnDarkBackground">
<polygon fill="white" stroke="black" points="335.5,-144 335.5,-178 480.5,-178 480.5,-144 335.5,-144"/>
<text text-anchor="start" x="343.5" y="-165" font-family="Helvetica,sans-Serif" font-size="10.00">UBGraphicsPolygonItem</text>
<text text-anchor="middle" x="408" y="-152" font-family="Helvetica,sans-Serif" font-size="10.00">::setColorOnDarkBackground</text>
</a>
</g>
<!-- Node6&#45;&gt;Node7 -->
<g id="edge12" class="edge"><title>Node6&#45;&gt;Node7</title>
<path fill="none" stroke="midnightblue" d="M286.939,-195.973C303.566,-191.17 321.806,-185.9 338.969,-180.942"/>
<polygon fill="midnightblue" stroke="midnightblue" points="340.293,-184.203 348.929,-178.065 338.35,-177.478 340.293,-184.203"/>
</g>
<!-- Node8 -->
<g id="node15" class="node"><title>Node8</title>
<a xlink:href="../../d5/d46/class_u_b_graphics_polygon_item.html#a6526b10cc05fde764a2e11e233fe4318" target="_top" xlink:title="UBGraphicsPolygonItem\l::colorOnDarkBackground">
<polygon fill="white" stroke="black" points="343.5,-300 343.5,-334 472.5,-334 472.5,-300 343.5,-300"/>
<text text-anchor="start" x="351.5" y="-321" font-family="Helvetica,sans-Serif" font-size="10.00">UBGraphicsPolygonItem</text>
<text text-anchor="middle" x="408" y="-308" font-family="Helvetica,sans-Serif" font-size="10.00">::colorOnDarkBackground</text>
</a>
</g>
<!-- Node6&#45;&gt;Node8 -->
<g id="edge14" class="edge"><title>Node6&#45;&gt;Node8</title>
<path fill="none" stroke="midnightblue" d="M246.612,-230.309C266.119,-247.676 298.287,-274.194 330,-291 333.283,-292.74 336.705,-294.395 340.204,-295.964"/>
<polygon fill="midnightblue" stroke="midnightblue" points="339.026,-299.266 349.601,-299.917 341.741,-292.813 339.026,-299.266"/>
</g>
<!-- Node9 -->
<g id="node17" class="node"><title>Node9</title>
<a xlink:href="../../d5/d46/class_u_b_graphics_polygon_item.html#aab20d0fba4216687b627ca7cd3eee90f" target="_top" xlink:title="UBGraphicsPolygonItem\l::setColorOnLightBackground">
<polygon fill="white" stroke="black" points="335.5,-248 335.5,-282 480.5,-282 480.5,-248 335.5,-248"/>
<text text-anchor="start" x="343.5" y="-269" font-family="Helvetica,sans-Serif" font-size="10.00">UBGraphicsPolygonItem</text>
<text text-anchor="middle" x="408" y="-256" font-family="Helvetica,sans-Serif" font-size="10.00">::setColorOnLightBackground</text>
</a>
</g>
<!-- Node6&#45;&gt;Node9 -->
<g id="edge16" class="edge"><title>Node6&#45;&gt;Node9</title>
<path fill="none" stroke="midnightblue" d="M286.939,-230.027C303.566,-234.83 321.806,-240.1 338.969,-245.058"/>
<polygon fill="midnightblue" stroke="midnightblue" points="338.35,-248.522 348.929,-247.935 340.293,-241.797 338.35,-248.522"/>
</g>
<!-- Node10 -->
<g id="node19" class="node"><title>Node10</title>
<a xlink:href="../../d5/d46/class_u_b_graphics_polygon_item.html#a8185c658dcb5920a98f14d4d18e8e060" target="_top" xlink:title="UBGraphicsPolygonItem\l::colorOnLightBackground">
<polygon fill="white" stroke="black" points="343.5,-196 343.5,-230 472.5,-230 472.5,-196 343.5,-196"/>
<text text-anchor="start" x="351.5" y="-217" font-family="Helvetica,sans-Serif" font-size="10.00">UBGraphicsPolygonItem</text>
<text text-anchor="middle" x="408" y="-204" font-family="Helvetica,sans-Serif" font-size="10.00">::colorOnLightBackground</text>
</a>
</g>
<!-- Node6&#45;&gt;Node10 -->
<g id="edge18" class="edge"><title>Node6&#45;&gt;Node10</title>
<path fill="none" stroke="midnightblue" d="M290.703,-213C304.419,-213 319.069,-213 333.205,-213"/>
<polygon fill="midnightblue" stroke="midnightblue" points="333.385,-216.5 343.385,-213 333.385,-209.5 333.385,-216.5"/>
</g>
<!-- Node11&#45;&gt;Node5 -->
<g id="edge28" class="edge"><title>Node11&#45;&gt;Node5</title>
<path fill="none" stroke="midnightblue" d="M290.703,-93.3603C305.047,-95.2729 320.412,-97.3216 335.142,-99.2856"/>
<polygon fill="midnightblue" stroke="midnightblue" points="334.843,-102.777 345.217,-100.629 335.768,-95.838 334.843,-102.777"/>
</g>
<!-- Node12 -->
<g id="node23" class="node"><title>Node12</title>
<a xlink:href="../../d5/d46/class_u_b_graphics_polygon_item.html#add8f874d99e40add85275687915d5ba8" target="_top" xlink:title="UBGraphicsPolygonItem\l::clearStroke">
<polygon fill="white" stroke="black" points="345.5,-40 345.5,-74 470.5,-74 470.5,-40 345.5,-40"/>
<text text-anchor="start" x="353.5" y="-61" font-family="Helvetica,sans-Serif" font-size="10.00">UBGraphicsPolygonItem</text>
<text text-anchor="middle" x="408" y="-48" font-family="Helvetica,sans-Serif" font-size="10.00">::clearStroke</text>
</a>
</g>
<!-- Node11&#45;&gt;Node12 -->
<g id="edge22" class="edge"><title>Node11&#45;&gt;Node12</title>
<path fill="none" stroke="midnightblue" d="M290.703,-75.2463C305.047,-73.015 320.412,-70.6247 335.142,-68.3335"/>
<polygon fill="midnightblue" stroke="midnightblue" points="335.874,-71.7617 345.217,-66.7662 334.798,-64.8449 335.874,-71.7617"/>
</g>
<!-- Node15 -->
<g id="node30" class="node"><title>Node15</title>
<a xlink:href="../../de/d75/class_u_b_graphics_stroke.html#a76ff6a3c17efa506459591785d749f47" target="_top" xlink:title="UBGraphicsStroke::addPolygon">
<polygon fill="white" stroke="black" points="330.5,-0.5 330.5,-21.5 485.5,-21.5 485.5,-0.5 330.5,-0.5"/>
<text text-anchor="middle" x="408" y="-8.5" font-family="Helvetica,sans-Serif" font-size="10.00">UBGraphicsStroke::addPolygon</text>
</a>
</g>
<!-- Node11&#45;&gt;Node15 -->
<g id="edge30" class="edge"><title>Node11&#45;&gt;Node15</title>
<path fill="none" stroke="midnightblue" d="M256.164,-67.7659C276.184,-56.101 304.023,-41.0442 330,-31 336.308,-28.5611 343.017,-26.3298 349.75,-24.3147"/>
<polygon fill="midnightblue" stroke="midnightblue" points="350.927,-27.6189 359.589,-21.5181 349.013,-20.8856 350.927,-27.6189"/>
</g>
<!-- Node13 -->
<g id="node25" class="node"><title>Node13</title>
<a xlink:href="../../de/d75/class_u_b_graphics_stroke.html#aeecdbfc012ba82636e96ffe0d9d13846" target="_top" xlink:title="UBGraphicsStroke::remove">
<polygon fill="white" stroke="black" points="525.5,-26.5 525.5,-47.5 662.5,-47.5 662.5,-26.5 525.5,-26.5"/>
<text text-anchor="middle" x="594" y="-34.5" font-family="Helvetica,sans-Serif" font-size="10.00">UBGraphicsStroke::remove</text>
</a>
</g>
<!-- Node12&#45;&gt;Node13 -->
<g id="edge24" class="edge"><title>Node12&#45;&gt;Node13</title>
<path fill="none" stroke="midnightblue" d="M470.712,-50.2568C485.022,-48.7181 500.406,-47.0638 515.29,-45.4634"/>
<polygon fill="midnightblue" stroke="midnightblue" points="515.927,-48.9152 525.495,-44.3661 515.178,-41.9554 515.927,-48.9152"/>
</g>
<!-- Node14 -->
<g id="node27" class="node"><title>Node14</title>
<a xlink:href="../../de/d75/class_u_b_graphics_stroke.html#a19d0be99f5ef2ac596e13ef018ec1d77" target="_top" xlink:title="UBGraphicsStroke::polygons">
<polygon fill="white" stroke="black" points="522.5,-66.5 522.5,-87.5 665.5,-87.5 665.5,-66.5 522.5,-66.5"/>
<text text-anchor="middle" x="594" y="-74.5" font-family="Helvetica,sans-Serif" font-size="10.00">UBGraphicsStroke::polygons</text>
</a>
</g>
<!-- Node12&#45;&gt;Node14 -->
<g id="edge26" class="edge"><title>Node12&#45;&gt;Node14</title>
<path fill="none" stroke="midnightblue" d="M470.712,-63.7432C484.036,-65.1759 498.291,-66.7087 512.206,-68.205"/>
<polygon fill="midnightblue" stroke="midnightblue" points="511.944,-71.6968 522.261,-69.2861 512.692,-64.737 511.944,-71.6968"/>
</g>
</g>
</svg>
        <g id="navigator" transform="translate(0 0)" fill="#404254">
                <rect fill="#f2f5e9" fill-opacity="0.5" stroke="#606060" stroke-width=".5" x="0" y="0" width="60" height="60"/>
                <use id="zoomplus" xlink:href="#zoomPlus" x="17" y="9" onmousedown="handleZoom(evt,'in')"/>
                <use id="zoomminus" xlink:href="#zoomMin" x="42" y="9" onmousedown="handleZoom(evt,'out')"/>
                <use id="reset" xlink:href="#resetDef" x="30" y="36" onmousedown="handleReset()"/>
                <g id="arrowUp" xlink:href="#dirArrow" transform="translate(30 24)" onmousedown="handlePan(0,-1)">
                  <use xlink:href="#rim" fill="#404040">
                        <set attributeName="fill" to="#808080" begin="arrowUp.mouseover" end="arrowUp.mouseout"/>
                  </use>
                  <path fill="none" stroke="white" stroke-width="1.5" d="M0,-3.0v7 M-2.5,-0.5L0,-3.0L2.5,-0.5"/>
                </g>
                <g id="arrowRight" xlink:href="#dirArrow" transform="rotate(90) translate(36 -43)" onmousedown="handlePan(1,0)">
                  <use xlink:href="#rim" fill="#404040">
                        <set attributeName="fill" to="#808080" begin="arrowRight.mouseover" end="arrowRight.mouseout"/>
                  </use>
                  <path fill="none" stroke="white" stroke-width="1.5" d="M0,-3.0v7 M-2.5,-0.5L0,-3.0L2.5,-0.5"/>
                </g>
                <g id="arrowDown" xlink:href="#dirArrow" transform="rotate(180) translate(-30 -48)" onmousedown="handlePan(0,1)">
                  <use xlink:href="#rim" fill="#404040">
                        <set attributeName="fill" to="#808080" begin="arrowDown.mouseover" end="arrowDown.mouseout"/>
                  </use>
                  <path fill="none" stroke="white" stroke-width="1.5" d="M0,-3.0v7 M-2.5,-0.5L0,-3.0L2.5,-0.5"/>
                </g>
                <g id="arrowLeft" xlink:href="#dirArrow" transform="rotate(270) translate(-36 17)" onmousedown="handlePan(-1,0)">
                  <use xlink:href="#rim" fill="#404040">
                        <set attributeName="fill" to="#808080" begin="arrowLeft.mouseover" end="arrowLeft.mouseout"/>
                  </use>
                  <path fill="none" stroke="white" stroke-width="1.5" d="M0,-3.0v7 M-2.5,-0.5L0,-3.0L2.5,-0.5"/>
                </g>
        </g>
        <svg viewBox="0 0 15 15" width="100%" height="30px" preserveAspectRatio="xMaxYMin meet">
         <g id="arrow_out" transform="scale(0.3 0.3)">
          <a xlink:href="class_u_b_graphics_polygon_item_a71d5d1540d10dedaf6284e29216ce8c7_cgraph_org.svg" target="_base">
           <rect id="button" ry="5" rx="5" y="6" x="6" height="38" width="38"
                fill="#f2f5e9" fill-opacity="0.5" stroke="#606060" stroke-width="1.0"/>
           <path id="arrow"
             d="M 11.500037,31.436501 C 11.940474,20.09759 22.043105,11.32322 32.158766,21.979434 L 37.068811,17.246167 C 37.068811,17.246167 37.088388,32 37.088388,32 L 22.160133,31.978069 C 22.160133,31.978069 26.997745,27.140456 26.997745,27.140456 C 18.528582,18.264221 13.291696,25.230495 11.500037,31.436501 z"
             style="fill:#404040;"/>
          </a>
         </g>
        </svg>
</svg>
