<?xml version="1.0" encoding="UTF-8" standalone="no"?>
<!DOCTYPE svg PUBLIC "-//W3C//DTD SVG 1.1//EN"
 "http://www.w3.org/Graphics/SVG/1.1/DTD/svg11.dtd">
<!-- Generated by graphviz version 2.26.3 (20100126.1600)
 -->
<!-- Title: UBGraphicsPolygonItem::strokesGroup Pages: 1 -->
<!--zoomable 186 -->
<svg id="main" version="1.1" xmlns="http://www.w3.org/2000/svg" xmlns:xlink="http://www.w3.org/1999/xlink" xml:space="preserve" onload="init(evt)">
        <defs>
                <circle id="rim" cx="0" cy="0" r="7"/>
                <circle id="rim2" cx="0" cy="0" r="3.5"/>
                <g id="zoomPlus">
                        <use xlink:href="#rim" fill="#404040">
                                <set attributeName="fill" to="#808080" begin="zoomplus.mouseover" end="zoomplus.mouseout"/>
                        </use>
                        <path d="M-4,0h8M0,-4v8" fill="none" stroke="white" stroke-width="1.5" pointer-events="none"/>
                </g>
                <g id="zoomMin">
                        <use xlink:href="#rim" fill="#404040">
                                <set attributeName="fill" to="#808080" begin="zoomminus.mouseover" end="zoomminus.mouseout"/>
                        </use>
                        <path d="M-4,0h8" fill="none" stroke="white" stroke-width="1.5" pointer-events="none"/>
                </g>
                <g id="dirArrow">
                        <path fill="none" stroke="white" stroke-width="1.5" d="M0,-3.0v7 M-2.5,-0.5L0,-3.0L2.5,-0.5"/>
                </g>
               <g id="resetDef">
                       <use xlink:href="#rim2" fill="#404040">
                               <set attributeName="fill" to="#808080" begin="reset.mouseover" end="reset.mouseout"/>
                       </use>
               </g>
        </defs>

<script type="text/javascript">
var viewWidth = 1164;
var viewHeight = 186;
var sectionId = 'dynsection-32';
</script>
<script xlink:href="../../svgpan.js"/>
<svg id="graph" class="graph">
<g id="viewport">
<title>UBGraphicsPolygonItem::strokesGroup</title>
<polygon fill="white" stroke="white" points="-4,5 -4,-182 1161,-182 1161,5 -4,5"/>
<!-- Node1 -->
<g id="node1" class="node"><title>Node1</title>
<polygon fill="#bfbfbf" stroke="black" points="0.5,-92 0.5,-126 125.5,-126 125.5,-92 0.5,-92"/>
<text text-anchor="start" x="8.5" y="-113" font-family="Helvetica,sans-Serif" font-size="10.00">UBGraphicsPolygonItem</text>
<text text-anchor="middle" x="63" y="-100" font-family="Helvetica,sans-Serif" font-size="10.00">::strokesGroup</text>
</g>
<!-- Node2 -->
<g id="node3" class="node"><title>Node2</title>
<a xlink:href="../../d2/df2/class_u_b_graphics_item_undo_command.html#ad72c268f481bda2170f4b0cafe193bd5" target="_top" xlink:title="UBGraphicsItemUndoCommand\l::undo">
<polygon fill="white" stroke="black" points="162,-144 162,-178 320,-178 320,-144 162,-144"/>
<text text-anchor="start" x="170" y="-165" font-family="Helvetica,sans-Serif" font-size="10.00">UBGraphicsItemUndoCommand</text>
<text text-anchor="middle" x="241" y="-152" font-family="Helvetica,sans-Serif" font-size="10.00">::undo</text>
</a>
</g>
<!-- Node1&#45;&gt;Node2 -->
<g id="edge2" class="edge"><title>Node1&#45;&gt;Node2</title>
<path fill="none" stroke="midnightblue" d="M131.129,-128.903C148.095,-133.859 166.134,-139.129 182.585,-143.935"/>
<polygon fill="midnightblue" stroke="midnightblue" points="131.864,-125.471 121.284,-126.027 129.901,-132.191 131.864,-125.471"/>
</g>
<!-- Node3 -->
<g id="node5" class="node"><title>Node3</title>
<a xlink:href="../../d2/df2/class_u_b_graphics_item_undo_command.html#a85f77fad80b241baaf0c35b98ee7de82" target="_top" xlink:title="UBGraphicsItemUndoCommand\l::redo">
<polygon fill="white" stroke="black" points="162,-92 162,-126 320,-126 320,-92 162,-92"/>
<text text-anchor="start" x="170" y="-113" font-family="Helvetica,sans-Serif" font-size="10.00">UBGraphicsItemUndoCommand</text>
<text text-anchor="middle" x="241" y="-100" font-family="Helvetica,sans-Serif" font-size="10.00">::redo</text>
</a>
</g>
<!-- Node1&#45;&gt;Node3 -->
<g id="edge4" class="edge"><title>Node1&#45;&gt;Node3</title>
<path fill="none" stroke="midnightblue" d="M135.534,-109C144.179,-109 153.038,-109 161.77,-109"/>
<polygon fill="midnightblue" stroke="midnightblue" points="135.506,-105.5 125.506,-109 135.506,-112.5 135.506,-105.5"/>
</g>
<!-- Node4 -->
<g id="node7" class="node"><title>Node4</title>
<a xlink:href="../../dc/db2/class_u_b_graphics_scene.html#aa337ae1428c734e7b4bef8a7404c926b" target="_top" xlink:title="UBGraphicsScene::eraseLineTo">
<polygon fill="white" stroke="black" points="162.5,-52.5 162.5,-73.5 319.5,-73.5 319.5,-52.5 162.5,-52.5"/>
<text text-anchor="middle" x="241" y="-60.5" font-family="Helvetica,sans-Serif" font-size="10.00">UBGraphicsScene::eraseLineTo</text>
</a>
</g>
<!-- Node1&#45;&gt;Node4 -->
<g id="edge6" class="edge"><title>Node1&#45;&gt;Node4</title>
<path fill="none" stroke="midnightblue" d="M135.269,-89.9409C144.267,-87.5913 153.344,-85.2323 162,-83 174.056,-79.8909 187.158,-76.5561 199.163,-73.518"/>
<polygon fill="midnightblue" stroke="midnightblue" points="134.348,-86.5638 125.559,-92.4804 136.12,-93.336 134.348,-86.5638"/>
</g>
<!-- Node5 -->
<g id="node9" class="node"><title>Node5</title>
<a xlink:href="../../dc/db2/class_u_b_graphics_scene.html#aa7b9011c76710841c644801d235ae3f2" target="_top" xlink:title="UBGraphicsScene::inputDevice\lPress">
<polygon fill="white" stroke="black" points="576.5,-89 576.5,-123 731.5,-123 731.5,-89 576.5,-89"/>
<text text-anchor="start" x="584.5" y="-110" font-family="Helvetica,sans-Serif" font-size="10.00">UBGraphicsScene::inputDevice</text>
<text text-anchor="middle" x="654" y="-97" font-family="Helvetica,sans-Serif" font-size="10.00">Press</text>
</a>
</g>
<!-- Node4&#45;&gt;Node5 -->
<g id="edge8" class="edge"><title>Node4&#45;&gt;Node5</title>
<path fill="none" stroke="midnightblue" d="M305.319,-75.2978C321.794,-78.1415 339.515,-80.9351 356,-83 430.528,-92.3353 516.049,-98.4671 576.304,-102.033"/>
<polygon fill="midnightblue" stroke="midnightblue" points="305.7,-71.8111 295.245,-73.5268 304.488,-78.7054 305.7,-71.8111"/>
</g>
<!-- Node11 -->
<g id="node22" class="node"><title>Node11</title>
<a xlink:href="../../dc/db2/class_u_b_graphics_scene.html#a9354a46739a316286901ebd12b2bcf1b" target="_top" xlink:title="UBGraphicsScene::inputDeviceMove">
<polygon fill="white" stroke="black" points="356.5,-52.5 356.5,-73.5 535.5,-73.5 535.5,-52.5 356.5,-52.5"/>
<text text-anchor="middle" x="446" y="-60.5" font-family="Helvetica,sans-Serif" font-size="10.00">UBGraphicsScene::inputDeviceMove</text>
</a>
</g>
<!-- Node4&#45;&gt;Node11 -->
<g id="edge22" class="edge"><title>Node4&#45;&gt;Node11</title>
<path fill="none" stroke="midnightblue" d="M329.864,-63C338.612,-63 347.495,-63 356.252,-63"/>
<polygon fill="midnightblue" stroke="midnightblue" points="329.672,-59.5001 319.672,-63 329.672,-66.5001 329.672,-59.5001"/>
</g>
<!-- Node14 -->
<g id="node31" class="node"><title>Node14</title>
<a xlink:href="../../d5/d2b/class_u_b_widget_uniboard_a_p_i.html#a44319957dc9d0919015f73826998f0ee" target="_top" xlink:title="UBWidgetUniboardAPI\l::eraseLineTo">
<polygon fill="white" stroke="black" points="387.5,-0 387.5,-34 504.5,-34 504.5,-0 387.5,-0"/>
<text text-anchor="start" x="395.5" y="-21" font-family="Helvetica,sans-Serif" font-size="10.00">UBWidgetUniboardAPI</text>
<text text-anchor="middle" x="446" y="-8" font-family="Helvetica,sans-Serif" font-size="10.00">::eraseLineTo</text>
</a>
</g>
<!-- Node4&#45;&gt;Node14 -->
<g id="edge34" class="edge"><title>Node4&#45;&gt;Node14</title>
<path fill="none" stroke="midnightblue" d="M298.023,-50.2045C325.892,-43.9511 359.386,-36.4354 387.455,-30.137"/>
<polygon fill="midnightblue" stroke="midnightblue" points="297.022,-46.8421 288.031,-52.4467 298.555,-53.6722 297.022,-46.8421"/>
</g>
<!-- Node6 -->
<g id="node11" class="node"><title>Node6</title>
<a xlink:href="../../d1/d78/class_u_b_board_view.html#ad5109e5f034af7b194f4dc6606fe16e6" target="_top" xlink:title="UBBoardView::tabletEvent">
<polygon fill="white" stroke="black" points="798,-53.5 798,-74.5 932,-74.5 932,-53.5 798,-53.5"/>
<text text-anchor="middle" x="865" y="-61.5" font-family="Helvetica,sans-Serif" font-size="10.00">UBBoardView::tabletEvent</text>
</a>
</g>
<!-- Node5&#45;&gt;Node6 -->
<g id="edge10" class="edge"><title>Node5&#45;&gt;Node6</title>
<path fill="none" stroke="midnightblue" d="M741.502,-88.5825C765.5,-83.8056 790.779,-78.7739 812.171,-74.5158"/>
<polygon fill="midnightblue" stroke="midnightblue" points="740.794,-85.1547 731.67,-90.5397 742.161,-92.02 740.794,-85.1547"/>
</g>
<!-- Node7 -->
<g id="node13" class="node"><title>Node7</title>
<a xlink:href="../../d1/d78/class_u_b_board_view.html#a6fc3391590c435e0ae26c43d2bd76d14" target="_top" xlink:title="UBBoardView::mousePressEvent">
<polygon fill="white" stroke="black" points="783,-95.5 783,-116.5 947,-116.5 947,-95.5 783,-95.5"/>
<text text-anchor="middle" x="865" y="-103.5" font-family="Helvetica,sans-Serif" font-size="10.00">UBBoardView::mousePressEvent</text>
</a>
</g>
<!-- Node5&#45;&gt;Node7 -->
<g id="edge12" class="edge"><title>Node5&#45;&gt;Node7</title>
<path fill="none" stroke="midnightblue" d="M741.946,-106C755.506,-106 769.464,-106 782.89,-106"/>
<polygon fill="midnightblue" stroke="midnightblue" points="741.67,-102.5 731.67,-106 741.67,-109.5 741.67,-102.5"/>
</g>
<!-- Node8 -->
<g id="node15" class="node"><title>Node8</title>
<a xlink:href="../../d1/d78/class_u_b_board_view.html#a1818c4d69a09adc9bb98079d2210564d" target="_top" xlink:title="UBBoardView::handleItemMouse\lPress">
<polygon fill="white" stroke="black" points="994.5,-115 994.5,-149 1155.5,-149 1155.5,-115 994.5,-115"/>
<text text-anchor="start" x="1002.5" y="-136" font-family="Helvetica,sans-Serif" font-size="10.00">UBBoardView::handleItemMouse</text>
<text text-anchor="middle" x="1075" y="-123" font-family="Helvetica,sans-Serif" font-size="10.00">Press</text>
</a>
</g>
<!-- Node7&#45;&gt;Node8 -->
<g id="edge14" class="edge"><title>Node7&#45;&gt;Node8</title>
<path fill="none" stroke="midnightblue" d="M957.371,-110.73C969.69,-112.17 982.244,-113.764 994.342,-115.428"/>
<polygon fill="midnightblue" stroke="midnightblue" points="957.426,-107.214 947.094,-109.559 956.633,-114.169 957.426,-107.214"/>
</g>
<!-- Node9 -->
<g id="node18" class="node"><title>Node9</title>
<a xlink:href="../../d1/d78/class_u_b_board_view.html#acc4206bbb27829580a337c81708be4a3" target="_top" xlink:title="UBBoardView::mouseRelease\lEvent">
<polygon fill="white" stroke="black" points="1000.5,-63 1000.5,-97 1149.5,-97 1149.5,-63 1000.5,-63"/>
<text text-anchor="start" x="1008.5" y="-84" font-family="Helvetica,sans-Serif" font-size="10.00">UBBoardView::mouseRelease</text>
<text text-anchor="middle" x="1075" y="-71" font-family="Helvetica,sans-Serif" font-size="10.00">Event</text>
</a>
</g>
<!-- Node7&#45;&gt;Node9 -->
<g id="edge18" class="edge"><title>Node7&#45;&gt;Node9</title>
<path fill="none" stroke="midnightblue" d="M957.075,-94.6002C971.591,-92.8031 986.44,-90.9645 1000.49,-89.2247"/>
<polygon fill="midnightblue" stroke="midnightblue" points="956.588,-91.1337 947.094,-95.836 957.448,-98.0807 956.588,-91.1337"/>
</g>
<!-- Node10 -->
<g id="node20" class="node"><title>Node10</title>
<a xlink:href="../../d1/d78/class_u_b_board_view.html#a43eb1207291905e9daa7c618a3c203bb" target="_top" xlink:title="UBBoardView::mouseDouble\lClickEvent">
<polygon fill="white" stroke="black" points="1003,-11 1003,-45 1147,-45 1147,-11 1003,-11"/>
<text text-anchor="start" x="1011" y="-32" font-family="Helvetica,sans-Serif" font-size="10.00">UBBoardView::mouseDouble</text>
<text text-anchor="middle" x="1075" y="-19" font-family="Helvetica,sans-Serif" font-size="10.00">ClickEvent</text>
</a>
</g>
<!-- Node7&#45;&gt;Node10 -->
<g id="edge20" class="edge"><title>Node7&#45;&gt;Node10</title>
<path fill="none" stroke="midnightblue" d="M937.268,-92.4413C944.437,-90.0557 951.47,-87.2639 958,-84 976.63,-74.6882 975.749,-64.0339 994,-54 1000.08,-50.6558 1006.66,-47.6632 1013.35,-45.0058"/>
<polygon fill="midnightblue" stroke="midnightblue" points="935.979,-89.1756 927.441,-95.4489 938.027,-95.8692 935.979,-89.1756"/>
</g>
<!-- Node8&#45;&gt;Node7 -->
<g id="edge16" class="edge"><title>Node8&#45;&gt;Node7</title>
<path fill="none" stroke="midnightblue" d="M984.347,-127.47C956.916,-124.29 928.154,-120.321 905.739,-116.513"/>
<polygon fill="midnightblue" stroke="midnightblue" points="984.049,-130.959 994.379,-128.604 984.836,-124.003 984.049,-130.959"/>
</g>
<!-- Node11&#45;&gt;Node5 -->
<g id="edge32" class="edge"><title>Node11&#45;&gt;Node5</title>
<path fill="none" stroke="midnightblue" d="M506.967,-75.6038C528.717,-80.1002 553.516,-85.2268 576.471,-89.9724"/>
<polygon fill="midnightblue" stroke="midnightblue" points="507.384,-72.116 496.883,-73.519 505.967,-78.9711 507.384,-72.116"/>
</g>
<!-- Node11&#45;&gt;Node6 -->
<g id="edge24" class="edge"><title>Node11&#45;&gt;Node6</title>
<path fill="none" stroke="midnightblue" d="M545.944,-63.2385C623.836,-63.4244 729.843,-63.6774 797.86,-63.8398"/>
<polygon fill="midnightblue" stroke="midnightblue" points="545.637,-59.7379 535.629,-63.2139 545.621,-66.7379 545.637,-59.7379"/>
</g>
<!-- Node12 -->
<g id="node25" class="node"><title>Node12</title>
<a xlink:href="../../d1/d78/class_u_b_board_view.html#adf1b48aff41094593ba1054627b4c52b" target="_top" xlink:title="UBBoardView::mouseMoveEvent">
<polygon fill="white" stroke="black" points="572.5,-11.5 572.5,-32.5 735.5,-32.5 735.5,-11.5 572.5,-11.5"/>
<text text-anchor="middle" x="654" y="-19.5" font-family="Helvetica,sans-Serif" font-size="10.00">UBBoardView::mouseMoveEvent</text>
</a>
</g>
<!-- Node11&#45;&gt;Node12 -->
<g id="edge26" class="edge"><title>Node11&#45;&gt;Node12</title>
<path fill="none" stroke="midnightblue" d="M509.369,-50.5091C538.496,-44.7676 572.669,-38.0316 600.482,-32.5492"/>
<polygon fill="midnightblue" stroke="midnightblue" points="508.429,-47.1268 499.295,-52.4947 509.783,-53.9946 508.429,-47.1268"/>
</g>
<!-- Node13 -->
<g id="node27" class="node"><title>Node13</title>
<a xlink:href="../../d1/d78/class_u_b_board_view.html#aa0ffd2f772d688eb459b316c36404188" target="_top" xlink:title="UBBoardView::handleItemMouseMove">
<polygon fill="white" stroke="black" points="772.5,-11.5 772.5,-32.5 957.5,-32.5 957.5,-11.5 772.5,-11.5"/>
<text text-anchor="middle" x="865" y="-19.5" font-family="Helvetica,sans-Serif" font-size="10.00">UBBoardView::handleItemMouseMove</text>
</a>
</g>
<!-- Node12&#45;&gt;Node13 -->
<g id="edge28" class="edge"><title>Node12&#45;&gt;Node13</title>
<path fill="none" stroke="midnightblue" d="M745.844,-15.3005C754.652,-15.235 763.589,-15.2332 772.404,-15.2951"/>
<polygon fill="midnightblue" stroke="midnightblue" points="745.541,-11.8034 735.578,-15.4067 745.614,-18.803 745.541,-11.8034"/>
</g>
<!-- Node13&#45;&gt;Node12 -->
<g id="edge30" class="edge"><title>Node13&#45;&gt;Node12</title>
<path fill="none" stroke="midnightblue" d="M762.304,-28.7479C753.336,-28.7614 744.341,-28.7099 735.578,-28.5933"/>
<polygon fill="midnightblue" stroke="midnightblue" points="762.419,-32.2475 772.404,-28.7049 762.39,-25.2476 762.419,-32.2475"/>
</g>
</g>
</svg>
        <g id="navigator" transform="translate(0 0)" fill="#404254">
                <rect fill="#f2f5e9" fill-opacity="0.5" stroke="#606060" stroke-width=".5" x="0" y="0" width="60" height="60"/>
                <use id="zoomplus" xlink:href="#zoomPlus" x="17" y="9" onmousedown="handleZoom(evt,'in')"/>
                <use id="zoomminus" xlink:href="#zoomMin" x="42" y="9" onmousedown="handleZoom(evt,'out')"/>
                <use id="reset" xlink:href="#resetDef" x="30" y="36" onmousedown="handleReset()"/>
                <g id="arrowUp" xlink:href="#dirArrow" transform="translate(30 24)" onmousedown="handlePan(0,-1)">
                  <use xlink:href="#rim" fill="#404040">
                        <set attributeName="fill" to="#808080" begin="arrowUp.mouseover" end="arrowUp.mouseout"/>
                  </use>
                  <path fill="none" stroke="white" stroke-width="1.5" d="M0,-3.0v7 M-2.5,-0.5L0,-3.0L2.5,-0.5"/>
                </g>
                <g id="arrowRight" xlink:href="#dirArrow" transform="rotate(90) translate(36 -43)" onmousedown="handlePan(1,0)">
                  <use xlink:href="#rim" fill="#404040">
                        <set attributeName="fill" to="#808080" begin="arrowRight.mouseover" end="arrowRight.mouseout"/>
                  </use>
                  <path fill="none" stroke="white" stroke-width="1.5" d="M0,-3.0v7 M-2.5,-0.5L0,-3.0L2.5,-0.5"/>
                </g>
                <g id="arrowDown" xlink:href="#dirArrow" transform="rotate(180) translate(-30 -48)" onmousedown="handlePan(0,1)">
                  <use xlink:href="#rim" fill="#404040">
                        <set attributeName="fill" to="#808080" begin="arrowDown.mouseover" end="arrowDown.mouseout"/>
                  </use>
                  <path fill="none" stroke="white" stroke-width="1.5" d="M0,-3.0v7 M-2.5,-0.5L0,-3.0L2.5,-0.5"/>
                </g>
                <g id="arrowLeft" xlink:href="#dirArrow" transform="rotate(270) translate(-36 17)" onmousedown="handlePan(-1,0)">
                  <use xlink:href="#rim" fill="#404040">
                        <set attributeName="fill" to="#808080" begin="arrowLeft.mouseover" end="arrowLeft.mouseout"/>
                  </use>
                  <path fill="none" stroke="white" stroke-width="1.5" d="M0,-3.0v7 M-2.5,-0.5L0,-3.0L2.5,-0.5"/>
                </g>
        </g>
        <svg viewBox="0 0 15 15" width="100%" height="30px" preserveAspectRatio="xMaxYMin meet">
         <g id="arrow_out" transform="scale(0.3 0.3)">
          <a xlink:href="class_u_b_graphics_polygon_item_a87013167bd29d82e3b5dd7a40edd0546_icgraph_org.svg" target="_base">
           <rect id="button" ry="5" rx="5" y="6" x="6" height="38" width="38"
                fill="#f2f5e9" fill-opacity="0.5" stroke="#606060" stroke-width="1.0"/>
           <path id="arrow"
             d="M 11.500037,31.436501 C 11.940474,20.09759 22.043105,11.32322 32.158766,21.979434 L 37.068811,17.246167 C 37.068811,17.246167 37.088388,32 37.088388,32 L 22.160133,31.978069 C 22.160133,31.978069 26.997745,27.140456 26.997745,27.140456 C 18.528582,18.264221 13.291696,25.230495 11.500037,31.436501 z"
             style="fill:#404040;"/>
          </a>
         </g>
        </svg>
</svg>
