<?xml version="1.0" encoding="UTF-8" standalone="no"?>
<!DOCTYPE svg PUBLIC "-//W3C//DTD SVG 1.1//EN"
 "http://www.w3.org/Graphics/SVG/1.1/DTD/svg11.dtd">
<!-- Generated by graphviz version 2.26.3 (20100126.1600)
 -->
<!-- Title: UBGraphicsPolygonItem::setUuid Pages: 1 -->
<!--zoomable 240 -->
<svg id="main" version="1.1" xmlns="http://www.w3.org/2000/svg" xmlns:xlink="http://www.w3.org/1999/xlink" xml:space="preserve" onload="init(evt)">
        <defs>
                <circle id="rim" cx="0" cy="0" r="7"/>
                <circle id="rim2" cx="0" cy="0" r="3.5"/>
                <g id="zoomPlus">
                        <use xlink:href="#rim" fill="#404040">
                                <set attributeName="fill" to="#808080" begin="zoomplus.mouseover" end="zoomplus.mouseout"/>
                        </use>
                        <path d="M-4,0h8M0,-4v8" fill="none" stroke="white" stroke-width="1.5" pointer-events="none"/>
                </g>
                <g id="zoomMin">
                        <use xlink:href="#rim" fill="#404040">
                                <set attributeName="fill" to="#808080" begin="zoomminus.mouseover" end="zoomminus.mouseout"/>
                        </use>
                        <path d="M-4,0h8" fill="none" stroke="white" stroke-width="1.5" pointer-events="none"/>
                </g>
                <g id="dirArrow">
                        <path fill="none" stroke="white" stroke-width="1.5" d="M0,-3.0v7 M-2.5,-0.5L0,-3.0L2.5,-0.5"/>
                </g>
               <g id="resetDef">
                       <use xlink:href="#rim2" fill="#404040">
                               <set attributeName="fill" to="#808080" begin="reset.mouseover" end="reset.mouseout"/>
                       </use>
               </g>
        </defs>

<script type="text/javascript">
var viewWidth = 792;
var viewHeight = 240;
var sectionId = 'dynsection-30';
</script>
<script xlink:href="../../svgpan.js"/>
<svg id="graph" class="graph">
<g id="viewport">
<title>UBGraphicsPolygonItem::setUuid</title>
<polygon fill="white" stroke="white" points="-4,5 -4,-236 789,-236 789,5 -4,5"/>
<!-- Node1 -->
<g id="node1" class="node"><title>Node1</title>
<polygon fill="#bfbfbf" stroke="black" points="0.5,-92 0.5,-126 125.5,-126 125.5,-92 0.5,-92"/>
<text text-anchor="start" x="8.5" y="-113" font-family="Helvetica,sans-Serif" font-size="10.00">UBGraphicsPolygonItem</text>
<text text-anchor="middle" x="63" y="-100" font-family="Helvetica,sans-Serif" font-size="10.00">::setUuid</text>
</g>
<!-- Node2 -->
<g id="node3" class="node"><title>Node2</title>
<a xlink:href="../../de/d97/class_u_b_c_f_f_subset_adaptor_1_1_u_b_c_f_f_subset_reader.html#acb1597facd760ea21ac280c2dd0bf637" target="_top" xlink:title="UBCFFSubsetAdaptor\l::UBCFFSubsetReader\l::parseSvgPolygon">
<polygon fill="white" stroke="black" points="165.5,-184.5 165.5,-231.5 284.5,-231.5 284.5,-184.5 165.5,-184.5"/>
<text text-anchor="start" x="173.5" y="-218.5" font-family="Helvetica,sans-Serif" font-size="10.00">UBCFFSubsetAdaptor</text>
<text text-anchor="start" x="173.5" y="-205.5" font-family="Helvetica,sans-Serif" font-size="10.00">::UBCFFSubsetReader</text>
<text text-anchor="middle" x="225" y="-192.5" font-family="Helvetica,sans-Serif" font-size="10.00">::parseSvgPolygon</text>
</a>
</g>
<!-- Node1&#45;&gt;Node2 -->
<g id="edge2" class="edge"><title>Node1&#45;&gt;Node2</title>
<path fill="none" stroke="midnightblue" d="M95.2896,-131.779C114.374,-144.925 139.196,-161.477 162,-175 167.31,-178.149 172.949,-181.327 178.586,-184.402"/>
<polygon fill="midnightblue" stroke="midnightblue" points="97.1654,-128.821 86.9524,-126.003 93.1786,-134.575 97.1654,-128.821"/>
</g>
<!-- Node3 -->
<g id="node5" class="node"><title>Node3</title>
<a xlink:href="../../de/d97/class_u_b_c_f_f_subset_adaptor_1_1_u_b_c_f_f_subset_reader.html#ad0288f4a6fae34ff2d0213e26753663c" target="_top" xlink:title="UBCFFSubsetAdaptor\l::UBCFFSubsetReader\l::parseSvgPolyline">
<polygon fill="white" stroke="black" points="165.5,-118.5 165.5,-165.5 284.5,-165.5 284.5,-118.5 165.5,-118.5"/>
<text text-anchor="start" x="173.5" y="-152.5" font-family="Helvetica,sans-Serif" font-size="10.00">UBCFFSubsetAdaptor</text>
<text text-anchor="start" x="173.5" y="-139.5" font-family="Helvetica,sans-Serif" font-size="10.00">::UBCFFSubsetReader</text>
<text text-anchor="middle" x="225" y="-126.5" font-family="Helvetica,sans-Serif" font-size="10.00">::parseSvgPolyline</text>
</a>
</g>
<!-- Node1&#45;&gt;Node3 -->
<g id="edge4" class="edge"><title>Node1&#45;&gt;Node3</title>
<path fill="none" stroke="midnightblue" d="M135.553,-123.779C145.554,-125.817 155.729,-127.889 165.458,-129.871"/>
<polygon fill="midnightblue" stroke="midnightblue" points="136.131,-120.325 125.633,-121.759 134.734,-127.184 136.131,-120.325"/>
</g>
<!-- Node4 -->
<g id="node7" class="node"><title>Node4</title>
<a xlink:href="../../d8/d4f/class_u_b_svg_subset_adaptor_1_1_u_b_svg_subset_reader.html#a1998688092c71dad287d03f570816a95" target="_top" xlink:title="UBSvgSubsetAdaptor\l::UBSvgSubsetReader\l::loadScene">
<polygon fill="white" stroke="black" points="167,-52.5 167,-99.5 283,-99.5 283,-52.5 167,-52.5"/>
<text text-anchor="start" x="175" y="-86.5" font-family="Helvetica,sans-Serif" font-size="10.00">UBSvgSubsetAdaptor</text>
<text text-anchor="start" x="175" y="-73.5" font-family="Helvetica,sans-Serif" font-size="10.00">::UBSvgSubsetReader</text>
<text text-anchor="middle" x="225" y="-60.5" font-family="Helvetica,sans-Serif" font-size="10.00">::loadScene</text>
</a>
</g>
<!-- Node1&#45;&gt;Node4 -->
<g id="edge6" class="edge"><title>Node1&#45;&gt;Node4</title>
<path fill="none" stroke="midnightblue" d="M135.57,-94.2171C146.019,-92.0887 156.657,-89.9216 166.779,-87.8599"/>
<polygon fill="midnightblue" stroke="midnightblue" points="134.734,-90.8156 125.633,-96.2413 136.131,-97.6748 134.734,-90.8156"/>
</g>
<!-- Node6 -->
<g id="node11" class="node"><title>Node6</title>
<a xlink:href="../../d5/d46/class_u_b_graphics_polygon_item.html#a2f069d5cdee13da2363e1c7c353f6994" target="_top" xlink:title="UBGraphicsPolygonItem\l::initialize">
<polygon fill="white" stroke="black" points="162.5,-0 162.5,-34 287.5,-34 287.5,-0 162.5,-0"/>
<text text-anchor="start" x="170.5" y="-21" font-family="Helvetica,sans-Serif" font-size="10.00">UBGraphicsPolygonItem</text>
<text text-anchor="middle" x="225" y="-8" font-family="Helvetica,sans-Serif" font-size="10.00">::initialize</text>
</a>
</g>
<!-- Node1&#45;&gt;Node6 -->
<g id="edge10" class="edge"><title>Node1&#45;&gt;Node6</title>
<path fill="none" stroke="midnightblue" d="M94.0834,-85.9773C113.113,-72.4736 138.288,-55.6387 162,-43 167.847,-39.8833 174.151,-36.886 180.432,-34.1051"/>
<polygon fill="midnightblue" stroke="midnightblue" points="91.8848,-83.247 85.8,-91.9203 95.9654,-88.9346 91.8848,-83.247"/>
</g>
<!-- Node5 -->
<g id="node9" class="node"><title>Node5</title>
<a xlink:href="../../d3/df9/class_u_b_svg_subset_adaptor.html#a6e24774da3a31f4a61141cb634198d0a" target="_top" xlink:title="UBSvgSubsetAdaptor\l::loadScene">
<polygon fill="white" stroke="black" points="333.5,-59 333.5,-93 446.5,-93 446.5,-59 333.5,-59"/>
<text text-anchor="start" x="341.5" y="-80" font-family="Helvetica,sans-Serif" font-size="10.00">UBSvgSubsetAdaptor</text>
<text text-anchor="middle" x="390" y="-67" font-family="Helvetica,sans-Serif" font-size="10.00">::loadScene</text>
</a>
</g>
<!-- Node4&#45;&gt;Node5 -->
<g id="edge8" class="edge"><title>Node4&#45;&gt;Node5</title>
<path fill="none" stroke="midnightblue" d="M293.272,-76C306.642,-76 320.526,-76 333.462,-76"/>
<polygon fill="midnightblue" stroke="midnightblue" points="293.173,-72.5001 283.173,-76 293.173,-79.5001 293.173,-72.5001"/>
</g>
<!-- Node7 -->
<g id="node13" class="node"><title>Node7</title>
<a xlink:href="../../d5/d46/class_u_b_graphics_polygon_item.html#a88a4b88d048d776eafb97cdd2d979909" target="_top" xlink:title="UBGraphicsPolygonItem\l::UBGraphicsPolygonItem">
<polygon fill="white" stroke="black" points="324.5,-0 324.5,-34 455.5,-34 455.5,-0 324.5,-0"/>
<text text-anchor="start" x="332.5" y="-21" font-family="Helvetica,sans-Serif" font-size="10.00">UBGraphicsPolygonItem</text>
<text text-anchor="middle" x="390" y="-8" font-family="Helvetica,sans-Serif" font-size="10.00">::UBGraphicsPolygonItem</text>
</a>
</g>
<!-- Node6&#45;&gt;Node7 -->
<g id="edge12" class="edge"><title>Node6&#45;&gt;Node7</title>
<path fill="none" stroke="midnightblue" d="M298.031,-17C306.78,-17 315.673,-17 324.309,-17"/>
<polygon fill="midnightblue" stroke="midnightblue" points="297.85,-13.5001 287.85,-17 297.85,-20.5001 297.85,-13.5001"/>
</g>
<!-- Node8 -->
<g id="node15" class="node"><title>Node8</title>
<a xlink:href="../../d5/d46/class_u_b_graphics_polygon_item.html#a71d5d1540d10dedaf6284e29216ce8c7" target="_top" xlink:title="UBGraphicsPolygonItem\l::deepCopy">
<polygon fill="white" stroke="black" points="492.5,-0 492.5,-34 617.5,-34 617.5,-0 492.5,-0"/>
<text text-anchor="start" x="500.5" y="-21" font-family="Helvetica,sans-Serif" font-size="10.00">UBGraphicsPolygonItem</text>
<text text-anchor="middle" x="555" y="-8" font-family="Helvetica,sans-Serif" font-size="10.00">::deepCopy</text>
</a>
</g>
<!-- Node7&#45;&gt;Node8 -->
<g id="edge14" class="edge"><title>Node7&#45;&gt;Node8</title>
<path fill="none" stroke="midnightblue" d="M465.73,-17C474.686,-17 483.749,-17 492.493,-17"/>
<polygon fill="midnightblue" stroke="midnightblue" points="465.687,-13.5001 455.686,-17 465.686,-20.5001 465.687,-13.5001"/>
</g>
<!-- Node9 -->
<g id="node17" class="node"><title>Node9</title>
<a xlink:href="../../d3/d0b/class_u_b_graphics_strokes_group.html#a4932a359f046811fc1d555d5d6b49b38" target="_top" xlink:title="UBGraphicsStrokesGroup\l::deepCopy">
<polygon fill="white" stroke="black" points="654,-0 654,-34 784,-34 784,-0 654,-0"/>
<text text-anchor="start" x="662" y="-21" font-family="Helvetica,sans-Serif" font-size="10.00">UBGraphicsStrokesGroup</text>
<text text-anchor="middle" x="719" y="-8" font-family="Helvetica,sans-Serif" font-size="10.00">::deepCopy</text>
</a>
</g>
<!-- Node8&#45;&gt;Node9 -->
<g id="edge16" class="edge"><title>Node8&#45;&gt;Node9</title>
<path fill="none" stroke="midnightblue" d="M627.954,-17C636.558,-17 645.297,-17 653.785,-17"/>
<polygon fill="midnightblue" stroke="midnightblue" points="627.938,-13.5001 617.938,-17 627.938,-20.5001 627.938,-13.5001"/>
</g>
</g>
</svg>
        <g id="navigator" transform="translate(0 0)" fill="#404254">
                <rect fill="#f2f5e9" fill-opacity="0.5" stroke="#606060" stroke-width=".5" x="0" y="0" width="60" height="60"/>
                <use id="zoomplus" xlink:href="#zoomPlus" x="17" y="9" onmousedown="handleZoom(evt,'in')"/>
                <use id="zoomminus" xlink:href="#zoomMin" x="42" y="9" onmousedown="handleZoom(evt,'out')"/>
                <use id="reset" xlink:href="#resetDef" x="30" y="36" onmousedown="handleReset()"/>
                <g id="arrowUp" xlink:href="#dirArrow" transform="translate(30 24)" onmousedown="handlePan(0,-1)">
                  <use xlink:href="#rim" fill="#404040">
                        <set attributeName="fill" to="#808080" begin="arrowUp.mouseover" end="arrowUp.mouseout"/>
                  </use>
                  <path fill="none" stroke="white" stroke-width="1.5" d="M0,-3.0v7 M-2.5,-0.5L0,-3.0L2.5,-0.5"/>
                </g>
                <g id="arrowRight" xlink:href="#dirArrow" transform="rotate(90) translate(36 -43)" onmousedown="handlePan(1,0)">
                  <use xlink:href="#rim" fill="#404040">
                        <set attributeName="fill" to="#808080" begin="arrowRight.mouseover" end="arrowRight.mouseout"/>
                  </use>
                  <path fill="none" stroke="white" stroke-width="1.5" d="M0,-3.0v7 M-2.5,-0.5L0,-3.0L2.5,-0.5"/>
                </g>
                <g id="arrowDown" xlink:href="#dirArrow" transform="rotate(180) translate(-30 -48)" onmousedown="handlePan(0,1)">
                  <use xlink:href="#rim" fill="#404040">
                        <set attributeName="fill" to="#808080" begin="arrowDown.mouseover" end="arrowDown.mouseout"/>
                  </use>
                  <path fill="none" stroke="white" stroke-width="1.5" d="M0,-3.0v7 M-2.5,-0.5L0,-3.0L2.5,-0.5"/>
                </g>
                <g id="arrowLeft" xlink:href="#dirArrow" transform="rotate(270) translate(-36 17)" onmousedown="handlePan(-1,0)">
                  <use xlink:href="#rim" fill="#404040">
                        <set attributeName="fill" to="#808080" begin="arrowLeft.mouseover" end="arrowLeft.mouseout"/>
                  </use>
                  <path fill="none" stroke="white" stroke-width="1.5" d="M0,-3.0v7 M-2.5,-0.5L0,-3.0L2.5,-0.5"/>
                </g>
        </g>
        <svg viewBox="0 0 15 15" width="100%" height="30px" preserveAspectRatio="xMaxYMin meet">
         <g id="arrow_out" transform="scale(0.3 0.3)">
          <a xlink:href="class_u_b_graphics_polygon_item_a97f0b29bd07773c31b351da735b82efd_icgraph_org.svg" target="_base">
           <rect id="button" ry="5" rx="5" y="6" x="6" height="38" width="38"
                fill="#f2f5e9" fill-opacity="0.5" stroke="#606060" stroke-width="1.0"/>
           <path id="arrow"
             d="M 11.500037,31.436501 C 11.940474,20.09759 22.043105,11.32322 32.158766,21.979434 L 37.068811,17.246167 C 37.068811,17.246167 37.088388,32 37.088388,32 L 22.160133,31.978069 C 22.160133,31.978069 26.997745,27.140456 26.997745,27.140456 C 18.528582,18.264221 13.291696,25.230495 11.500037,31.436501 z"
             style="fill:#404040;"/>
          </a>
         </g>
        </svg>
</svg>
