<?xml version="1.0" encoding="UTF-8" standalone="no"?>
<!DOCTYPE svg PUBLIC "-//W3C//DTD SVG 1.1//EN"
 "http://www.w3.org/Graphics/SVG/1.1/DTD/svg11.dtd">
<!-- Generated by graphviz version 2.26.3 (20100126.1600)
 -->
<!-- Title: UBItem::copyItemParameters Pages: 1 -->
<svg width="2028pt" height="849pt"
 viewBox="0.00 0.00 2028.00 848.75" xmlns="http://www.w3.org/2000/svg" xmlns:xlink="http://www.w3.org/1999/xlink">
<g id="graph1" class="graph" transform="scale(1 1) rotate(0) translate(4 844.746)">
<title>UBItem::copyItemParameters</title>
<polygon fill="white" stroke="white" points="-4,5 -4,-844.746 2025,-844.746 2025,5 -4,5"/>
<!-- Node1 -->
<g id="node1" class="node"><title>Node1</title>
<polygon fill="#bfbfbf" stroke="black" points="0.5,-276.5 0.5,-297.5 147.5,-297.5 147.5,-276.5 0.5,-276.5"/>
<text text-anchor="middle" x="74" y="-284.5" font-family="Helvetica,sans-Serif" font-size="10.00">UBItem::copyItemParameters</text>
</g>
<!-- Node2 -->
<g id="node3" class="node"><title>Node2</title>
<a xlink:href="../../d7/d62/class_u_b_board_controller.html#abae2655269e06f72767de71b8513f6be" target="_top" xlink:title="UBBoardController:\l:duplicateItem">
<polygon fill="white" stroke="black" points="184.5,-270 184.5,-304 285.5,-304 285.5,-270 184.5,-270"/>
<text text-anchor="start" x="192.5" y="-291" font-family="Helvetica,sans-Serif" font-size="10.00">UBBoardController:</text>
<text text-anchor="middle" x="235" y="-278" font-family="Helvetica,sans-Serif" font-size="10.00">:duplicateItem</text>
</a>
</g>
<!-- Node1&#45;&gt;Node2 -->
<g id="edge2" class="edge"><title>Node1&#45;&gt;Node2</title>
<path fill="none" stroke="midnightblue" d="M157.962,-287C166.87,-287 175.722,-287 184.079,-287"/>
<polygon fill="midnightblue" stroke="midnightblue" points="157.903,-283.5 147.903,-287 157.903,-290.5 157.903,-283.5"/>
</g>
<!-- Node3 -->
<g id="node5" class="node"><title>Node3</title>
<a xlink:href="../../d7/d62/class_u_b_board_controller.html#a07e50010567075b570140d6143c516f5" target="_top" xlink:title="UBBoardController:\l:processMimeData">
<polygon fill="white" stroke="black" points="1560.5,-17 1560.5,-51 1661.5,-51 1661.5,-17 1560.5,-17"/>
<text text-anchor="start" x="1568.5" y="-38" font-family="Helvetica,sans-Serif" font-size="10.00">UBBoardController:</text>
<text text-anchor="middle" x="1611" y="-25" font-family="Helvetica,sans-Serif" font-size="10.00">:processMimeData</text>
</a>
</g>
<!-- Node2&#45;&gt;Node3 -->
<g id="edge4" class="edge"><title>Node2&#45;&gt;Node3</title>
<path fill="none" stroke="midnightblue" d="M239.272,-259.918C247.418,-217.754 269.309,-136.917 322,-95 429.501,-9.48026 487.631,-34 625,-34 625,-34 625,-34 1249,-34 1360.08,-34 1490.34,-34 1560.34,-34"/>
<polygon fill="midnightblue" stroke="midnightblue" points="235.784,-259.534 237.445,-269.998 242.672,-260.782 235.784,-259.534"/>
</g>
<!-- Node7 -->
<g id="node13" class="node"><title>Node7</title>
<a xlink:href="../../d7/d62/class_u_b_board_controller.html#af713d6e325369af244f2af8c90299a35" target="_top" xlink:title="UBBoardController:\l:moveGraphicsWidgetToControlView">
<polygon fill="white" stroke="black" points="322,-537 322,-571 500,-571 500,-537 322,-537"/>
<text text-anchor="start" x="330" y="-558" font-family="Helvetica,sans-Serif" font-size="10.00">UBBoardController:</text>
<text text-anchor="middle" x="411" y="-545" font-family="Helvetica,sans-Serif" font-size="10.00">:moveGraphicsWidgetToControlView</text>
</a>
</g>
<!-- Node2&#45;&gt;Node7 -->
<g id="edge12" class="edge"><title>Node2&#45;&gt;Node7</title>
<path fill="none" stroke="midnightblue" d="M251.982,-312.762C287.631,-366.844 369.456,-490.976 399.589,-536.689"/>
<polygon fill="midnightblue" stroke="midnightblue" points="254.703,-310.531 246.277,-304.108 248.859,-314.384 254.703,-310.531"/>
</g>
<!-- Node33 -->
<g id="node72" class="node"><title>Node33</title>
<a xlink:href="../../dd/dd5/class_u_b_graphics_item_delegate.html#a525c69cb3c3c0df6c4db4d406fd80e48" target="_top" xlink:title="UBGraphicsItemDelegate\l::duplicate">
<polygon fill="white" stroke="black" points="347,-270 347,-304 475,-304 475,-270 347,-270"/>
<text text-anchor="start" x="355" y="-291" font-family="Helvetica,sans-Serif" font-size="10.00">UBGraphicsItemDelegate</text>
<text text-anchor="middle" x="411" y="-278" font-family="Helvetica,sans-Serif" font-size="10.00">::duplicate</text>
</a>
</g>
<!-- Node2&#45;&gt;Node33 -->
<g id="edge78" class="edge"><title>Node2&#45;&gt;Node33</title>
<path fill="none" stroke="midnightblue" d="M295.922,-287C312.334,-287 330.138,-287 346.727,-287"/>
<polygon fill="midnightblue" stroke="midnightblue" points="295.907,-283.5 285.906,-287 295.906,-290.5 295.907,-283.5"/>
</g>
<!-- Node4 -->
<g id="node7" class="node"><title>Node4</title>
<a xlink:href="../../d7/d62/class_u_b_board_controller.html#a68518a98107e994551da0a4e3a79fe2c" target="_top" xlink:title="UBBoardController:\l:paste">
<polygon fill="white" stroke="black" points="1747.5,-40 1747.5,-74 1848.5,-74 1848.5,-40 1747.5,-40"/>
<text text-anchor="start" x="1755.5" y="-61" font-family="Helvetica,sans-Serif" font-size="10.00">UBBoardController:</text>
<text text-anchor="middle" x="1798" y="-48" font-family="Helvetica,sans-Serif" font-size="10.00">:paste</text>
</a>
</g>
<!-- Node3&#45;&gt;Node4 -->
<g id="edge6" class="edge"><title>Node3&#45;&gt;Node4</title>
<path fill="none" stroke="midnightblue" d="M1671.84,-41.4827C1696.25,-44.4856 1724.07,-47.9066 1747.35,-50.7709"/>
<polygon fill="midnightblue" stroke="midnightblue" points="1671.96,-37.9711 1661.6,-40.2241 1671.1,-44.9188 1671.96,-37.9711"/>
</g>
<!-- Node6 -->
<g id="node11" class="node"><title>Node6</title>
<a xlink:href="../../d1/d78/class_u_b_board_view.html#a1bb7794094c4bb04637b0df2bc0c0fa9" target="_top" xlink:title="UBBoardView::dropEvent">
<polygon fill="white" stroke="black" points="1734,-0.5 1734,-21.5 1862,-21.5 1862,-0.5 1734,-0.5"/>
<text text-anchor="middle" x="1798" y="-8.5" font-family="Helvetica,sans-Serif" font-size="10.00">UBBoardView::dropEvent</text>
</a>
</g>
<!-- Node3&#45;&gt;Node6 -->
<g id="edge10" class="edge"><title>Node3&#45;&gt;Node6</title>
<path fill="none" stroke="midnightblue" d="M1671.78,-26.5245C1691.67,-24.0777 1713.83,-21.3528 1733.95,-18.8773"/>
<polygon fill="midnightblue" stroke="midnightblue" points="1671.1,-23.0812 1661.6,-27.7759 1671.96,-30.0289 1671.1,-23.0812"/>
</g>
<!-- Node5 -->
<g id="node9" class="node"><title>Node5</title>
<a xlink:href="../../da/d14/class_u_b_application_controller.html#a6afa41e1bc0c178acaa89684b7e9db26" target="_top" xlink:title="UBApplicationController\l::actionPaste">
<polygon fill="white" stroke="black" points="1898.5,-40 1898.5,-74 2019.5,-74 2019.5,-40 1898.5,-40"/>
<text text-anchor="start" x="1906.5" y="-61" font-family="Helvetica,sans-Serif" font-size="10.00">UBApplicationController</text>
<text text-anchor="middle" x="1959" y="-48" font-family="Helvetica,sans-Serif" font-size="10.00">::actionPaste</text>
</a>
</g>
<!-- Node4&#45;&gt;Node5 -->
<g id="edge8" class="edge"><title>Node4&#45;&gt;Node5</title>
<path fill="none" stroke="midnightblue" d="M1859.06,-57C1871.89,-57 1885.43,-57 1898.25,-57"/>
<polygon fill="midnightblue" stroke="midnightblue" points="1858.94,-53.5001 1848.94,-57 1858.94,-60.5001 1858.94,-53.5001"/>
</g>
<!-- Node8 -->
<g id="node15" class="node"><title>Node8</title>
<a xlink:href="../../dc/db2/class_u_b_graphics_scene.html#aa63a9c1b5eb1de5a0d06a0f2b449648a" target="_top" xlink:title="UBGraphicsScene::addGraphics\lWidget">
<polygon fill="white" stroke="black" points="546,-648 546,-682 704,-682 704,-648 546,-648"/>
<text text-anchor="start" x="554" y="-669" font-family="Helvetica,sans-Serif" font-size="10.00">UBGraphicsScene::addGraphics</text>
<text text-anchor="middle" x="625" y="-656" font-family="Helvetica,sans-Serif" font-size="10.00">Widget</text>
</a>
</g>
<!-- Node7&#45;&gt;Node8 -->
<g id="edge14" class="edge"><title>Node7&#45;&gt;Node8</title>
<path fill="none" stroke="midnightblue" d="M453.095,-575.834C493.808,-596.952 554.67,-628.52 591.994,-647.88"/>
<polygon fill="midnightblue" stroke="midnightblue" points="454.457,-572.598 443.969,-571.1 451.234,-578.812 454.457,-572.598"/>
</g>
<!-- Node31 -->
<g id="node68" class="node"><title>Node31</title>
<a xlink:href="../../d8/d2c/class_u_b_graphics_widget_item_delegate.html#a2b446e23a250de4f8c162e1411058cb5" target="_top" xlink:title="UBGraphicsWidgetItemDelegate::pin">
<polygon fill="white" stroke="black" points="536,-543.5 536,-564.5 714,-564.5 714,-543.5 536,-543.5"/>
<text text-anchor="middle" x="625" y="-551.5" font-family="Helvetica,sans-Serif" font-size="10.00">UBGraphicsWidgetItemDelegate::pin</text>
</a>
</g>
<!-- Node7&#45;&gt;Node31 -->
<g id="edge74" class="edge"><title>Node7&#45;&gt;Node31</title>
<path fill="none" stroke="midnightblue" d="M510.23,-554C518.807,-554 527.45,-554 535.939,-554"/>
<polygon fill="midnightblue" stroke="midnightblue" points="510.206,-550.5 500.206,-554 510.206,-557.5 510.206,-550.5"/>
</g>
<!-- Node9 -->
<g id="node17" class="node"><title>Node9</title>
<a xlink:href="../../d7/d62/class_u_b_board_controller.html#af122a3bb14b0ef66b169be9fd0e5a2b3" target="_top" xlink:title="UBBoardController:\l:moveToolWidgetToScene">
<polygon fill="white" stroke="black" points="776,-748 776,-782 908,-782 908,-748 776,-748"/>
<text text-anchor="start" x="784" y="-769" font-family="Helvetica,sans-Serif" font-size="10.00">UBBoardController:</text>
<text text-anchor="middle" x="842" y="-756" font-family="Helvetica,sans-Serif" font-size="10.00">:moveToolWidgetToScene</text>
</a>
</g>
<!-- Node8&#45;&gt;Node9 -->
<g id="edge16" class="edge"><title>Node8&#45;&gt;Node9</title>
<path fill="none" stroke="midnightblue" d="M670.716,-686.294C694.367,-697.29 723.716,-710.903 750,-723 767.864,-731.222 787.706,-740.289 804.376,-747.887"/>
<polygon fill="midnightblue" stroke="midnightblue" points="672.162,-683.107 661.619,-682.063 669.21,-689.454 672.162,-683.107"/>
</g>
<!-- Node11 -->
<g id="node21" class="node"><title>Node11</title>
<a xlink:href="../../dc/db2/class_u_b_graphics_scene.html#aa86ec061e79ba18c2efe73a6bf10bf33" target="_top" xlink:title="UBGraphicsScene::addApple\lWidget">
<polygon fill="white" stroke="black" points="770,-680 770,-714 914,-714 914,-680 770,-680"/>
<text text-anchor="start" x="778" y="-701" font-family="Helvetica,sans-Serif" font-size="10.00">UBGraphicsScene::addApple</text>
<text text-anchor="middle" x="842" y="-688" font-family="Helvetica,sans-Serif" font-size="10.00">Widget</text>
</a>
</g>
<!-- Node8&#45;&gt;Node11 -->
<g id="edge20" class="edge"><title>Node8&#45;&gt;Node11</title>
<path fill="none" stroke="midnightblue" d="M714.159,-678.148C732.676,-680.878 751.969,-683.724 769.787,-686.351"/>
<polygon fill="midnightblue" stroke="midnightblue" points="714.667,-674.685 704.263,-676.689 713.645,-681.61 714.667,-674.685"/>
</g>
<!-- Node24 -->
<g id="node50" class="node"><title>Node24</title>
<a xlink:href="../../dc/db2/class_u_b_graphics_scene.html#acb26de2926454faf9c5ca66989779d82" target="_top" xlink:title="UBGraphicsScene::addW3CWidget">
<polygon fill="white" stroke="black" points="755.5,-621.5 755.5,-642.5 928.5,-642.5 928.5,-621.5 755.5,-621.5"/>
<text text-anchor="middle" x="842" y="-629.5" font-family="Helvetica,sans-Serif" font-size="10.00">UBGraphicsScene::addW3CWidget</text>
</a>
</g>
<!-- Node8&#45;&gt;Node24 -->
<g id="edge52" class="edge"><title>Node8&#45;&gt;Node24</title>
<path fill="none" stroke="midnightblue" d="M714.342,-651.413C733.791,-648.456 754.087,-645.369 772.625,-642.55"/>
<polygon fill="midnightblue" stroke="midnightblue" points="713.623,-647.982 704.263,-652.946 714.676,-654.903 713.623,-647.982"/>
</g>
<!-- Node10 -->
<g id="node19" class="node"><title>Node10</title>
<a xlink:href="../../dc/de3/class_u_b_tool_widget.html#adc43c4c0d6cb3e0f5881df830775b5b7" target="_top" xlink:title="UBToolWidget::mouseRelease\lEvent">
<polygon fill="white" stroke="black" points="973,-764 973,-798 1125,-798 1125,-764 973,-764"/>
<text text-anchor="start" x="981" y="-785" font-family="Helvetica,sans-Serif" font-size="10.00">UBToolWidget::mouseRelease</text>
<text text-anchor="middle" x="1049" y="-772" font-family="Helvetica,sans-Serif" font-size="10.00">Event</text>
</a>
</g>
<!-- Node9&#45;&gt;Node10 -->
<g id="edge18" class="edge"><title>Node9&#45;&gt;Node10</title>
<path fill="none" stroke="midnightblue" d="M918.365,-770.903C936.113,-772.274 955.007,-773.735 972.75,-775.106"/>
<polygon fill="midnightblue" stroke="midnightblue" points="918.305,-767.388 908.065,-770.106 917.766,-774.367 918.305,-767.388"/>
</g>
<!-- Node12 -->
<g id="node23" class="node"><title>Node12</title>
<a xlink:href="../../d7/d62/class_u_b_board_controller.html#ab6cbc7bda85279e7eee5c5923892dd1a" target="_top" xlink:title="UBBoardController:\l:downloadFinished">
<polygon fill="white" stroke="black" points="1198.5,-621 1198.5,-655 1299.5,-655 1299.5,-621 1198.5,-621"/>
<text text-anchor="start" x="1206.5" y="-642" font-family="Helvetica,sans-Serif" font-size="10.00">UBBoardController:</text>
<text text-anchor="middle" x="1249" y="-629" font-family="Helvetica,sans-Serif" font-size="10.00">:downloadFinished</text>
</a>
</g>
<!-- Node11&#45;&gt;Node12 -->
<g id="edge22" class="edge"><title>Node11&#45;&gt;Node12</title>
<path fill="none" stroke="midnightblue" d="M915.258,-716.139C973.983,-728.175 1057.87,-737.866 1128,-717 1168.4,-704.98 1207.88,-674.714 1230.26,-655.326"/>
<polygon fill="midnightblue" stroke="midnightblue" points="915.834,-712.684 905.326,-714.033 914.382,-719.532 915.834,-712.684"/>
</g>
<!-- Node23 -->
<g id="node48" class="node"><title>Node23</title>
<a xlink:href="../../dc/db2/class_u_b_graphics_scene.html#aff586f570c8625a51bccef943662a29d" target="_top" xlink:title="UBGraphicsScene::addWidget">
<polygon fill="white" stroke="black" points="974,-686.5 974,-707.5 1124,-707.5 1124,-686.5 974,-686.5"/>
<text text-anchor="middle" x="1049" y="-694.5" font-family="Helvetica,sans-Serif" font-size="10.00">UBGraphicsScene::addWidget</text>
</a>
</g>
<!-- Node11&#45;&gt;Node23 -->
<g id="edge50" class="edge"><title>Node11&#45;&gt;Node23</title>
<path fill="none" stroke="midnightblue" d="M924.223,-697C940.648,-697 957.821,-697 973.988,-697"/>
<polygon fill="midnightblue" stroke="midnightblue" points="924.108,-693.5 914.108,-697 924.108,-700.5 924.108,-693.5"/>
</g>
<!-- Node12&#45;&gt;Node2 -->
<g id="edge28" class="edge"><title>Node12&#45;&gt;Node2</title>
<path fill="none" stroke="midnightblue" d="M1234.27,-663.814C1209.11,-706.924 1157.67,-790.487 1128,-807 1016.69,-868.954 969.391,-826 842,-826 625,-826 625,-826 625,-826 451.539,-826 418.326,-724.257 322,-580 260.562,-487.99 241.491,-351.499 236.529,-304.016"/>
<polygon fill="midnightblue" stroke="midnightblue" points="1237.38,-665.427 1239.37,-655.02 1231.33,-661.917 1237.38,-665.427"/>
</g>
<!-- Node13 -->
<g id="node25" class="node"><title>Node13</title>
<a xlink:href="../../d7/d62/class_u_b_board_controller.html#aa728cb7c1b979b2d4ae45638a7386dde" target="_top" xlink:title="UBBoardController::init">
<polygon fill="white" stroke="black" points="1370.5,-627.5 1370.5,-648.5 1487.5,-648.5 1487.5,-627.5 1370.5,-627.5"/>
<text text-anchor="middle" x="1429" y="-635.5" font-family="Helvetica,sans-Serif" font-size="10.00">UBBoardController::init</text>
</a>
</g>
<!-- Node12&#45;&gt;Node13 -->
<g id="edge24" class="edge"><title>Node12&#45;&gt;Node13</title>
<path fill="none" stroke="midnightblue" d="M1309.62,-638C1329.16,-638 1350.77,-638 1370.18,-638"/>
<polygon fill="midnightblue" stroke="midnightblue" points="1309.62,-634.5 1299.62,-638 1309.62,-641.5 1309.62,-634.5"/>
</g>
<!-- Node15 -->
<g id="node30" class="node"><title>Node15</title>
<a xlink:href="../../d7/d62/class_u_b_board_controller.html#a358f3f88d1fa9e41620170d76a806f93" target="_top" xlink:title="UBBoardController:\l:downloadURL">
<polygon fill="white" stroke="red" points="1378.5,-187 1378.5,-221 1479.5,-221 1479.5,-187 1378.5,-187"/>
<text text-anchor="start" x="1386.5" y="-208" font-family="Helvetica,sans-Serif" font-size="10.00">UBBoardController:</text>
<text text-anchor="middle" x="1429" y="-195" font-family="Helvetica,sans-Serif" font-size="10.00">:downloadURL</text>
</a>
</g>
<!-- Node12&#45;&gt;Node15 -->
<g id="edge30" class="edge"><title>Node12&#45;&gt;Node15</title>
<path fill="none" stroke="midnightblue" d="M1306.56,-616.142C1316.91,-610 1326.71,-602.365 1334,-593 1380.99,-532.669 1417.38,-288.745 1426.68,-221.335"/>
<polygon fill="midnightblue" stroke="midnightblue" points="1304.86,-613.079 1297.78,-620.956 1308.23,-619.217 1304.86,-613.079"/>
</g>
<!-- Node14 -->
<g id="node27" class="node"><title>Node14</title>
<a xlink:href="../../d8/d81/class_u_b_application.html#add1469239e71bf24fdc61413a42a38bd" target="_top" xlink:title="UBApplication::exec">
<polygon fill="white" stroke="red" points="1558,-627.5 1558,-648.5 1664,-648.5 1664,-627.5 1558,-627.5"/>
<text text-anchor="middle" x="1611" y="-635.5" font-family="Helvetica,sans-Serif" font-size="10.00">UBApplication::exec</text>
</a>
</g>
<!-- Node13&#45;&gt;Node14 -->
<g id="edge26" class="edge"><title>Node13&#45;&gt;Node14</title>
<path fill="none" stroke="midnightblue" d="M1497.81,-638C1517.66,-638 1539.01,-638 1557.76,-638"/>
<polygon fill="midnightblue" stroke="midnightblue" points="1497.59,-634.5 1487.59,-638 1497.59,-641.5 1497.59,-634.5"/>
</g>
<!-- Node15&#45;&gt;Node2 -->
<g id="edge32" class="edge"><title>Node15&#45;&gt;Node2</title>
<path fill="none" stroke="midnightblue" d="M1415.45,-177.922C1399.83,-150.884 1371.42,-109.969 1334,-91 1220.77,-33.6039 1175.95,-72 1049,-72 625,-72 625,-72 625,-72 461.478,-72 301.952,-218.75 251.433,-269.769"/>
<polygon fill="midnightblue" stroke="midnightblue" points="1412.5,-179.824 1420.44,-186.848 1418.62,-176.411 1412.5,-179.824"/>
</g>
<!-- Node15&#45;&gt;Node3 -->
<g id="edge34" class="edge"><title>Node15&#45;&gt;Node3</title>
<path fill="none" stroke="midnightblue" d="M1439.57,-177.692C1453.92,-145.285 1482.6,-90.7568 1524,-60 1534.63,-52.1025 1547.65,-46.5884 1560.35,-42.7439"/>
<polygon fill="midnightblue" stroke="midnightblue" points="1436.31,-176.419 1435.58,-186.989 1442.74,-179.18 1436.31,-176.419"/>
</g>
<!-- Node16 -->
<g id="node34" class="node"><title>Node16</title>
<a xlink:href="../../d0/d79/class_u_b_favorite_tool_palette.html#a83161cac1258562134412dfcd60aee50" target="_top" xlink:title="UBFavoriteToolPalette\l::addFavorite">
<polygon fill="white" stroke="red" points="1553,-265 1553,-299 1669,-299 1669,-265 1553,-265"/>
<text text-anchor="start" x="1561" y="-286" font-family="Helvetica,sans-Serif" font-size="10.00">UBFavoriteToolPalette</text>
<text text-anchor="middle" x="1611" y="-273" font-family="Helvetica,sans-Serif" font-size="10.00">::addFavorite</text>
</a>
</g>
<!-- Node15&#45;&gt;Node16 -->
<g id="edge36" class="edge"><title>Node15&#45;&gt;Node16</title>
<path fill="none" stroke="midnightblue" d="M1465.19,-226.153C1482.55,-236.167 1503.91,-247.608 1524,-256 1533.16,-259.827 1543.09,-263.345 1552.84,-266.475"/>
<polygon fill="midnightblue" stroke="midnightblue" points="1466.9,-223.099 1456.5,-221.07 1463.36,-229.141 1466.9,-223.099"/>
</g>
<!-- Node17 -->
<g id="node36" class="node"><title>Node17</title>
<a xlink:href="../../d8/d33/class_u_b_features_controller.html#a38042ae37804ee19bfacf4aafd096ea9" target="_top" xlink:title="UBFeaturesController\l::addItemToPage">
<polygon fill="white" stroke="red" points="1555.5,-213 1555.5,-247 1666.5,-247 1666.5,-213 1555.5,-213"/>
<text text-anchor="start" x="1563.5" y="-234" font-family="Helvetica,sans-Serif" font-size="10.00">UBFeaturesController</text>
<text text-anchor="middle" x="1611" y="-221" font-family="Helvetica,sans-Serif" font-size="10.00">::addItemToPage</text>
</a>
</g>
<!-- Node15&#45;&gt;Node17 -->
<g id="edge38" class="edge"><title>Node15&#45;&gt;Node17</title>
<path fill="none" stroke="midnightblue" d="M1489.88,-212.697C1511.08,-215.725 1534.73,-219.104 1555.47,-222.067"/>
<polygon fill="midnightblue" stroke="midnightblue" points="1490.09,-209.192 1479.7,-211.242 1489.1,-216.122 1490.09,-209.192"/>
</g>
<!-- Node18 -->
<g id="node38" class="node"><title>Node18</title>
<a xlink:href="../../d8/d33/class_u_b_features_controller.html#a0ecd4b84e703063db5c0fdf498f2cdb0" target="_top" xlink:title="UBFeaturesController\l::addItemAsBackground">
<polygon fill="white" stroke="red" points="1550,-161 1550,-195 1672,-195 1672,-161 1550,-161"/>
<text text-anchor="start" x="1558" y="-182" font-family="Helvetica,sans-Serif" font-size="10.00">UBFeaturesController</text>
<text text-anchor="middle" x="1611" y="-169" font-family="Helvetica,sans-Serif" font-size="10.00">::addItemAsBackground</text>
</a>
</g>
<!-- Node15&#45;&gt;Node18 -->
<g id="edge40" class="edge"><title>Node15&#45;&gt;Node18</title>
<path fill="none" stroke="midnightblue" d="M1489.63,-195.339C1509.02,-192.569 1530.48,-189.502 1549.91,-186.727"/>
<polygon fill="midnightblue" stroke="midnightblue" points="1489.1,-191.878 1479.7,-196.758 1490.09,-198.808 1489.1,-191.878"/>
</g>
<!-- Node19 -->
<g id="node40" class="node"><title>Node19</title>
<a xlink:href="../../da/dd6/class_u_b_library_a_p_i.html#abeac23fcd7f64866d5686b590ec05695" target="_top" xlink:title="UBLibraryAPI::addObject">
<polygon fill="white" stroke="black" points="1547.5,-121.5 1547.5,-142.5 1674.5,-142.5 1674.5,-121.5 1547.5,-121.5"/>
<text text-anchor="middle" x="1611" y="-129.5" font-family="Helvetica,sans-Serif" font-size="10.00">UBLibraryAPI::addObject</text>
</a>
</g>
<!-- Node15&#45;&gt;Node19 -->
<g id="edge42" class="edge"><title>Node15&#45;&gt;Node19</title>
<path fill="none" stroke="midnightblue" d="M1464.19,-181.707C1481.64,-171.455 1503.35,-159.854 1524,-152 1533.71,-148.309 1544.29,-145.18 1554.63,-142.572"/>
<polygon fill="midnightblue" stroke="midnightblue" points="1462.27,-178.78 1455.49,-186.919 1465.86,-184.786 1462.27,-178.78"/>
</g>
<!-- Node20 -->
<g id="node42" class="node"><title>Node20</title>
<a xlink:href="../../df/d50/class_u_b_web_controller.html#a318422dc0a027e2258180673bb333586" target="_top" xlink:title="UBWebController::capture\lEduMedia">
<polygon fill="white" stroke="red" points="1545.5,-69 1545.5,-103 1676.5,-103 1676.5,-69 1545.5,-69"/>
<text text-anchor="start" x="1553.5" y="-90" font-family="Helvetica,sans-Serif" font-size="10.00">UBWebController::capture</text>
<text text-anchor="middle" x="1611" y="-77" font-family="Helvetica,sans-Serif" font-size="10.00">EduMedia</text>
</a>
</g>
<!-- Node15&#45;&gt;Node20 -->
<g id="edge44" class="edge"><title>Node15&#45;&gt;Node20</title>
<path fill="none" stroke="midnightblue" d="M1448.75,-179.092C1466.42,-158.367 1494.09,-129.518 1524,-112 1530.67,-108.096 1537.97,-104.734 1545.42,-101.849"/>
<polygon fill="midnightblue" stroke="midnightblue" points="1445.98,-176.95 1442.26,-186.871 1451.35,-181.435 1445.98,-176.95"/>
</g>
<!-- Node21 -->
<g id="node44" class="node"><title>Node21</title>
<a xlink:href="../../d5/d2b/class_u_b_widget_uniboard_a_p_i.html#a73ac1600ef3ed549d2c6c969436efb2f" target="_top" xlink:title="UBWidgetUniboardAPI\l::addObject">
<polygon fill="white" stroke="black" points="1552.5,-369 1552.5,-403 1669.5,-403 1669.5,-369 1552.5,-369"/>
<text text-anchor="start" x="1560.5" y="-390" font-family="Helvetica,sans-Serif" font-size="10.00">UBWidgetUniboardAPI</text>
<text text-anchor="middle" x="1611" y="-377" font-family="Helvetica,sans-Serif" font-size="10.00">::addObject</text>
</a>
</g>
<!-- Node15&#45;&gt;Node21 -->
<g id="edge46" class="edge"><title>Node15&#45;&gt;Node21</title>
<path fill="none" stroke="midnightblue" d="M1438.38,-230.939C1451.88,-265.824 1480.13,-326.152 1524,-360 1532.36,-366.452 1542.31,-371.307 1552.43,-374.96"/>
<polygon fill="midnightblue" stroke="midnightblue" points="1441.59,-229.54 1434.81,-221.402 1435.03,-231.994 1441.59,-229.54"/>
</g>
<!-- Node22 -->
<g id="node46" class="node"><title>Node22</title>
<a xlink:href="../../db/d78/class_w_b_web_trap_web_view.html#afdbfd6aac50cad5ac07a465baa7be0b6" target="_top" xlink:title="WBWebTrapWebView::trapElement\lAtPos">
<polygon fill="white" stroke="red" points="1524.5,-317 1524.5,-351 1697.5,-351 1697.5,-317 1524.5,-317"/>
<text text-anchor="start" x="1532.5" y="-338" font-family="Helvetica,sans-Serif" font-size="10.00">WBWebTrapWebView::trapElement</text>
<text text-anchor="middle" x="1611" y="-325" font-family="Helvetica,sans-Serif" font-size="10.00">AtPos</text>
</a>
</g>
<!-- Node15&#45;&gt;Node22 -->
<g id="edge48" class="edge"><title>Node15&#45;&gt;Node22</title>
<path fill="none" stroke="midnightblue" d="M1446.06,-229.496C1463.14,-253.12 1491.49,-287.596 1524,-308 1529.34,-311.352 1535.14,-314.292 1541.12,-316.865"/>
<polygon fill="midnightblue" stroke="midnightblue" points="1448.71,-227.178 1440.08,-221.025 1442.99,-231.214 1448.71,-227.178"/>
</g>
<!-- Node24&#45;&gt;Node12 -->
<g id="edge60" class="edge"><title>Node24&#45;&gt;Node12</title>
<path fill="none" stroke="midnightblue" d="M938.797,-637.855C949.324,-638.325 959.885,-638.724 970,-639 1040.2,-640.918 1057.78,-639.29 1128,-639 1151.11,-638.905 1176.7,-638.706 1198.37,-638.512"/>
<polygon fill="midnightblue" stroke="midnightblue" points="938.881,-634.355 928.729,-637.385 938.555,-641.348 938.881,-634.355"/>
</g>
<!-- Node24&#45;&gt;Node23 -->
<g id="edge66" class="edge"><title>Node24&#45;&gt;Node23</title>
<path fill="none" stroke="midnightblue" d="M885.652,-645.707C924.319,-657.849 979.966,-675.323 1015.3,-686.416"/>
<polygon fill="midnightblue" stroke="midnightblue" points="886.308,-642.245 875.719,-642.588 884.211,-648.923 886.308,-642.245"/>
</g>
<!-- Node25 -->
<g id="node52" class="node"><title>Node25</title>
<a xlink:href="../../d7/d62/class_u_b_board_controller.html#a5f701f4cd3173743effca3b3b0bd4615" target="_top" xlink:title="UBBoardController:\l:addLinkToPage">
<polygon fill="white" stroke="black" points="998.5,-544 998.5,-578 1099.5,-578 1099.5,-544 998.5,-544"/>
<text text-anchor="start" x="1006.5" y="-565" font-family="Helvetica,sans-Serif" font-size="10.00">UBBoardController:</text>
<text text-anchor="middle" x="1049" y="-552" font-family="Helvetica,sans-Serif" font-size="10.00">:addLinkToPage</text>
</a>
</g>
<!-- Node24&#45;&gt;Node25 -->
<g id="edge54" class="edge"><title>Node24&#45;&gt;Node25</title>
<path fill="none" stroke="midnightblue" d="M881.038,-618.047C906.355,-609.055 940.077,-597.183 970,-587 979.158,-583.883 988.934,-580.617 998.377,-577.493"/>
<polygon fill="midnightblue" stroke="midnightblue" points="879.677,-614.816 871.429,-621.465 882.023,-621.411 879.677,-614.816"/>
</g>
<!-- Node27 -->
<g id="node58" class="node"><title>Node27</title>
<a xlink:href="../../d7/d62/class_u_b_board_controller.html#af8867753146efd8498f1a308e0457c9e" target="_top" xlink:title="UBBoardController:\l:addW3cWidget">
<polygon fill="white" stroke="black" points="998.5,-596 998.5,-630 1099.5,-630 1099.5,-596 998.5,-596"/>
<text text-anchor="start" x="1006.5" y="-617" font-family="Helvetica,sans-Serif" font-size="10.00">UBBoardController:</text>
<text text-anchor="middle" x="1049" y="-604" font-family="Helvetica,sans-Serif" font-size="10.00">:addW3cWidget</text>
</a>
</g>
<!-- Node24&#45;&gt;Node27 -->
<g id="edge62" class="edge"><title>Node24&#45;&gt;Node27</title>
<path fill="none" stroke="midnightblue" d="M938.694,-623.125C959.372,-621.227 980.414,-619.295 998.499,-617.635"/>
<polygon fill="midnightblue" stroke="midnightblue" points="938.225,-619.653 928.587,-624.052 938.865,-626.624 938.225,-619.653"/>
</g>
<!-- Node28 -->
<g id="node62" class="node"><title>Node28</title>
<a xlink:href="../../dc/db2/class_u_b_graphics_scene.html#a2729368a3a28a4d9669f23f171752194" target="_top" xlink:title="UBGraphicsScene::addOEmbed">
<polygon fill="white" stroke="black" points="970,-504.5 970,-525.5 1128,-525.5 1128,-504.5 970,-504.5"/>
<text text-anchor="middle" x="1049" y="-512.5" font-family="Helvetica,sans-Serif" font-size="10.00">UBGraphicsScene::addOEmbed</text>
</a>
</g>
<!-- Node24&#45;&gt;Node28 -->
<g id="edge68" class="edge"><title>Node24&#45;&gt;Node28</title>
<path fill="none" stroke="midnightblue" d="M875.447,-616.99C893.824,-607.823 916.393,-594.989 934,-580 953.503,-563.397 948.465,-548.865 970,-535 975.948,-531.171 982.586,-528.074 989.418,-525.571"/>
<polygon fill="midnightblue" stroke="midnightblue" points="873.737,-613.929 866.267,-621.442 876.792,-620.228 873.737,-613.929"/>
</g>
<!-- Node25&#45;&gt;Node12 -->
<g id="edge56" class="edge"><title>Node25&#45;&gt;Node12</title>
<path fill="none" stroke="midnightblue" d="M1109.57,-580.379C1115.82,-582.544 1122.05,-584.773 1128,-587 1155.97,-597.476 1187,-610.585 1210.63,-620.889"/>
<polygon fill="midnightblue" stroke="midnightblue" points="1110.38,-576.956 1099.79,-577.04 1108.12,-583.581 1110.38,-576.956"/>
</g>
<!-- Node26 -->
<g id="node55" class="node"><title>Node26</title>
<a xlink:href="../../d9/d3a/class_u_b_trap_web_page_content_controller.html#adc738e0c68ed861cce64a1389d2aee5d" target="_top" xlink:title="UBTrapWebPageContentController\l::addLink">
<polygon fill="white" stroke="red" points="1164,-550 1164,-584 1334,-584 1334,-550 1164,-550"/>
<text text-anchor="start" x="1172" y="-571" font-family="Helvetica,sans-Serif" font-size="10.00">UBTrapWebPageContentController</text>
<text text-anchor="middle" x="1249" y="-558" font-family="Helvetica,sans-Serif" font-size="10.00">::addLink</text>
</a>
</g>
<!-- Node25&#45;&gt;Node26 -->
<g id="edge58" class="edge"><title>Node25&#45;&gt;Node26</title>
<path fill="none" stroke="midnightblue" d="M1110.02,-562.831C1126.96,-563.339 1145.67,-563.9 1163.72,-564.442"/>
<polygon fill="midnightblue" stroke="midnightblue" points="1109.83,-559.323 1099.73,-562.522 1109.62,-566.32 1109.83,-559.323"/>
</g>
<!-- Node27&#45;&gt;Node12 -->
<g id="edge64" class="edge"><title>Node27&#45;&gt;Node12</title>
<path fill="none" stroke="midnightblue" d="M1109.9,-620.613C1138.19,-624.149 1171.43,-628.304 1198.33,-631.666"/>
<polygon fill="midnightblue" stroke="midnightblue" points="1110.08,-617.108 1099.73,-619.341 1109.22,-624.054 1110.08,-617.108"/>
</g>
<!-- Node29 -->
<g id="node64" class="node"><title>Node29</title>
<a xlink:href="../../df/d50/class_u_b_web_controller.html#ae652b7467df50b60c8d074d94abf698b" target="_top" xlink:title="UBWebController::captureo\lEmbed">
<polygon fill="white" stroke="black" points="1180.5,-446 1180.5,-480 1317.5,-480 1317.5,-446 1180.5,-446"/>
<text text-anchor="start" x="1188.5" y="-467" font-family="Helvetica,sans-Serif" font-size="10.00">UBWebController::captureo</text>
<text text-anchor="middle" x="1249" y="-454" font-family="Helvetica,sans-Serif" font-size="10.00">Embed</text>
</a>
</g>
<!-- Node28&#45;&gt;Node29 -->
<g id="edge70" class="edge"><title>Node28&#45;&gt;Node29</title>
<path fill="none" stroke="midnightblue" d="M1100.6,-502.021C1109.73,-499.7 1119.15,-497.291 1128,-495 1146.51,-490.209 1166.59,-484.931 1184.98,-480.066"/>
<polygon fill="midnightblue" stroke="midnightblue" points="1099.67,-498.645 1090.84,-504.495 1101.39,-505.43 1099.67,-498.645"/>
</g>
<!-- Node30 -->
<g id="node66" class="node"><title>Node30</title>
<a xlink:href="../../df/d50/class_u_b_web_controller.html#abee1408edc0bda4a434f313d7e6eece4" target="_top" xlink:title="UBWebController::onOEmbed\lParsed">
<polygon fill="white" stroke="red" points="1175,-498 1175,-532 1323,-532 1323,-498 1175,-498"/>
<text text-anchor="start" x="1183" y="-519" font-family="Helvetica,sans-Serif" font-size="10.00">UBWebController::onOEmbed</text>
<text text-anchor="middle" x="1249" y="-506" font-family="Helvetica,sans-Serif" font-size="10.00">Parsed</text>
</a>
</g>
<!-- Node28&#45;&gt;Node30 -->
<g id="edge72" class="edge"><title>Node28&#45;&gt;Node30</title>
<path fill="none" stroke="midnightblue" d="M1138.23,-515C1150.44,-515 1162.86,-515 1174.76,-515"/>
<polygon fill="midnightblue" stroke="midnightblue" points="1138.05,-511.5 1128.05,-515 1138.05,-518.5 1138.05,-511.5"/>
</g>
<!-- Node32 -->
<g id="node70" class="node"><title>Node32</title>
<a xlink:href="../../d8/d2c/class_u_b_graphics_widget_item_delegate.html#a79bf31a6cda75de23b70469270de5bd9" target="_top" xlink:title="UBGraphicsWidgetItemDelegate\l::decorateMenu">
<polygon fill="white" stroke="black" points="762.5,-537 762.5,-571 921.5,-571 921.5,-537 762.5,-537"/>
<text text-anchor="start" x="770.5" y="-558" font-family="Helvetica,sans-Serif" font-size="10.00">UBGraphicsWidgetItemDelegate</text>
<text text-anchor="middle" x="842" y="-545" font-family="Helvetica,sans-Serif" font-size="10.00">::decorateMenu</text>
</a>
</g>
<!-- Node31&#45;&gt;Node32 -->
<g id="edge76" class="edge"><title>Node31&#45;&gt;Node32</title>
<path fill="none" stroke="midnightblue" d="M724.325,-554C737.01,-554 749.863,-554 762.184,-554"/>
<polygon fill="midnightblue" stroke="midnightblue" points="724.202,-550.5 714.202,-554 724.202,-557.5 724.202,-550.5"/>
</g>
<!-- Node34 -->
<g id="node74" class="node"><title>Node34</title>
<a xlink:href="../../dd/dd5/class_u_b_graphics_item_delegate.html#a1de77276aba7276defacd0b87c9b87c7" target="_top" xlink:title="UBGraphicsItemDelegate\l::init">
<polygon fill="white" stroke="black" points="561,-270 561,-304 689,-304 689,-270 561,-270"/>
<text text-anchor="start" x="569" y="-291" font-family="Helvetica,sans-Serif" font-size="10.00">UBGraphicsItemDelegate</text>
<text text-anchor="middle" x="625" y="-278" font-family="Helvetica,sans-Serif" font-size="10.00">::init</text>
</a>
</g>
<!-- Node33&#45;&gt;Node34 -->
<g id="edge80" class="edge"><title>Node33&#45;&gt;Node34</title>
<path fill="none" stroke="midnightblue" d="M485.224,-287C509.849,-287 537.037,-287 560.838,-287"/>
<polygon fill="midnightblue" stroke="midnightblue" points="485.207,-283.5 475.207,-287 485.207,-290.5 485.207,-283.5"/>
</g>
<!-- Node35 -->
<g id="node76" class="node"><title>Node35</title>
<a xlink:href="../../de/d93/class_u_b_graphics_group_container_item.html#a2aaeb364079830d1720110c30f999ec8" target="_top" xlink:title="UBGraphicsGroupContainer\lItem::UBGraphicsGroupContainerItem">
<polygon fill="white" stroke="black" points="750.5,-140 750.5,-174 933.5,-174 933.5,-140 750.5,-140"/>
<text text-anchor="start" x="758.5" y="-161" font-family="Helvetica,sans-Serif" font-size="10.00">UBGraphicsGroupContainer</text>
<text text-anchor="middle" x="842" y="-148" font-family="Helvetica,sans-Serif" font-size="10.00">Item::UBGraphicsGroupContainerItem</text>
</a>
</g>
<!-- Node34&#45;&gt;Node35 -->
<g id="edge82" class="edge"><title>Node34&#45;&gt;Node35</title>
<path fill="none" stroke="midnightblue" d="M648.216,-262.446C671.774,-238.885 710.331,-203.889 750,-183 756.315,-179.675 763.104,-176.733 770.03,-174.14"/>
<polygon fill="midnightblue" stroke="midnightblue" points="645.634,-260.08 641.112,-269.661 650.622,-264.991 645.634,-260.08"/>
</g>
<!-- Node37 -->
<g id="node80" class="node"><title>Node37</title>
<a xlink:href="../../dc/d5a/class_u_b_graphics_media_item.html#aa92cf921e88af8b52b4c7ed6466dd2d5" target="_top" xlink:title="UBGraphicsMediaItem\l::UBGraphicsMediaItem">
<polygon fill="white" stroke="black" points="781,-452 781,-486 903,-486 903,-452 781,-452"/>
<text text-anchor="start" x="789" y="-473" font-family="Helvetica,sans-Serif" font-size="10.00">UBGraphicsMediaItem</text>
<text text-anchor="middle" x="842" y="-460" font-family="Helvetica,sans-Serif" font-size="10.00">::UBGraphicsMediaItem</text>
</a>
</g>
<!-- Node34&#45;&gt;Node37 -->
<g id="edge86" class="edge"><title>Node34&#45;&gt;Node37</title>
<path fill="none" stroke="midnightblue" d="M639.247,-313.593C659.325,-348.521 699.232,-409.349 750,-443 759.269,-449.144 769.988,-453.853 780.763,-457.457"/>
<polygon fill="midnightblue" stroke="midnightblue" points="642.07,-311.472 634.117,-304.472 635.969,-314.904 642.07,-311.472"/>
</g>
<!-- Node39 -->
<g id="node84" class="node"><title>Node39</title>
<a xlink:href="../../d9/d0d/class_u_b_graphics_p_d_f_item.html#ae55063d3348b81ea8388df72069713b9" target="_top" xlink:title="UBGraphicsPDFItem:\l:UBGraphicsPDFItem">
<polygon fill="white" stroke="black" points="785.5,-400 785.5,-434 898.5,-434 898.5,-400 785.5,-400"/>
<text text-anchor="start" x="793.5" y="-421" font-family="Helvetica,sans-Serif" font-size="10.00">UBGraphicsPDFItem:</text>
<text text-anchor="middle" x="842" y="-408" font-family="Helvetica,sans-Serif" font-size="10.00">:UBGraphicsPDFItem</text>
</a>
</g>
<!-- Node34&#45;&gt;Node39 -->
<g id="edge90" class="edge"><title>Node34&#45;&gt;Node39</title>
<path fill="none" stroke="midnightblue" d="M648.216,-311.554C671.774,-335.115 710.331,-370.111 750,-391 760.868,-396.723 773.14,-401.31 785.096,-404.939"/>
<polygon fill="midnightblue" stroke="midnightblue" points="650.622,-309.009 641.112,-304.339 645.634,-313.92 650.622,-309.009"/>
</g>
<!-- Node41 -->
<g id="node88" class="node"><title>Node41</title>
<a xlink:href="../../d1/d78/class_u_b_graphics_pixmap_item.html#ad154326709d1935d96248228d21b20ae" target="_top" xlink:title="UBGraphicsPixmapItem\l::UBGraphicsPixmapItem">
<polygon fill="white" stroke="black" points="778,-348 778,-382 906,-382 906,-348 778,-348"/>
<text text-anchor="start" x="786" y="-369" font-family="Helvetica,sans-Serif" font-size="10.00">UBGraphicsPixmapItem</text>
<text text-anchor="middle" x="842" y="-356" font-family="Helvetica,sans-Serif" font-size="10.00">::UBGraphicsPixmapItem</text>
</a>
</g>
<!-- Node34&#45;&gt;Node41 -->
<g id="edge94" class="edge"><title>Node34&#45;&gt;Node41</title>
<path fill="none" stroke="midnightblue" d="M671.848,-308.041C695.098,-318.084 723.758,-329.87 750,-339 758.935,-342.109 768.453,-345.122 777.85,-347.929"/>
<polygon fill="midnightblue" stroke="midnightblue" points="673.133,-304.783 662.567,-304.001 670.339,-311.202 673.133,-304.783"/>
</g>
<!-- Node43 -->
<g id="node92" class="node"><title>Node43</title>
<a xlink:href="../../d3/d0b/class_u_b_graphics_strokes_group.html#ab3978d4c4d489c27f90baf64a506f1d8" target="_top" xlink:title="UBGraphicsStrokesGroup\l::UBGraphicsStrokesGroup">
<polygon fill="white" stroke="black" points="774,-296 774,-330 910,-330 910,-296 774,-296"/>
<text text-anchor="start" x="782" y="-317" font-family="Helvetica,sans-Serif" font-size="10.00">UBGraphicsStrokesGroup</text>
<text text-anchor="middle" x="842" y="-304" font-family="Helvetica,sans-Serif" font-size="10.00">::UBGraphicsStrokesGroup</text>
</a>
</g>
<!-- Node34&#45;&gt;Node43 -->
<g id="edge98" class="edge"><title>Node34&#45;&gt;Node43</title>
<path fill="none" stroke="midnightblue" d="M699.394,-295.914C723.514,-298.803 750.136,-301.993 773.784,-304.827"/>
<polygon fill="midnightblue" stroke="midnightblue" points="699.572,-292.41 689.226,-294.695 698.739,-299.36 699.572,-292.41"/>
</g>
<!-- Node45 -->
<g id="node96" class="node"><title>Node45</title>
<a xlink:href="../../d1/dce/class_u_b_graphics_svg_item.html#aefe5ca00c7f91a56938b35611149a779" target="_top" xlink:title="UBGraphicsSvgItem::init">
<polygon fill="white" stroke="black" points="779.5,-100.5 779.5,-121.5 904.5,-121.5 904.5,-100.5 779.5,-100.5"/>
<text text-anchor="middle" x="842" y="-108.5" font-family="Helvetica,sans-Serif" font-size="10.00">UBGraphicsSvgItem::init</text>
</a>
</g>
<!-- Node34&#45;&gt;Node45 -->
<g id="edge102" class="edge"><title>Node34&#45;&gt;Node45</title>
<path fill="none" stroke="midnightblue" d="M638.489,-260.767C658.074,-225.451 697.819,-163.328 750,-131 758.893,-125.491 769.089,-121.486 779.381,-118.578"/>
<polygon fill="midnightblue" stroke="midnightblue" points="635.19,-259.509 633.506,-269.969 641.345,-262.842 635.19,-259.509"/>
</g>
<!-- Node48 -->
<g id="node102" class="node"><title>Node48</title>
<a xlink:href="../../da/d65/class_u_b_graphics_text_item.html#acbf06a6d840ac7b6c95950e39dcd94b9" target="_top" xlink:title="UBGraphicsTextItem\l::UBGraphicsTextItem">
<polygon fill="white" stroke="black" points="784.5,-244 784.5,-278 899.5,-278 899.5,-244 784.5,-244"/>
<text text-anchor="start" x="792.5" y="-265" font-family="Helvetica,sans-Serif" font-size="10.00">UBGraphicsTextItem</text>
<text text-anchor="middle" x="842" y="-252" font-family="Helvetica,sans-Serif" font-size="10.00">::UBGraphicsTextItem</text>
</a>
</g>
<!-- Node34&#45;&gt;Node48 -->
<g id="edge108" class="edge"><title>Node34&#45;&gt;Node48</title>
<path fill="none" stroke="midnightblue" d="M699.291,-278.099C727.06,-274.772 758.16,-271.045 784.221,-267.923"/>
<polygon fill="midnightblue" stroke="midnightblue" points="698.739,-274.64 689.226,-279.305 699.572,-281.59 698.739,-274.64"/>
</g>
<!-- Node50 -->
<g id="node106" class="node"><title>Node50</title>
<a xlink:href="../../d0/d16/class_u_b_graphics_widget_item.html#ac1a304e8be3f2ece6dd370210f25c90b" target="_top" xlink:title="UBGraphicsWidgetItem\l::UBGraphicsWidgetItem">
<polygon fill="white" stroke="black" points="779,-192 779,-226 905,-226 905,-192 779,-192"/>
<text text-anchor="start" x="787" y="-213" font-family="Helvetica,sans-Serif" font-size="10.00">UBGraphicsWidgetItem</text>
<text text-anchor="middle" x="842" y="-200" font-family="Helvetica,sans-Serif" font-size="10.00">::UBGraphicsWidgetItem</text>
</a>
</g>
<!-- Node34&#45;&gt;Node50 -->
<g id="edge112" class="edge"><title>Node34&#45;&gt;Node50</title>
<path fill="none" stroke="midnightblue" d="M671.848,-265.959C695.098,-255.916 723.758,-244.13 750,-235 759.249,-231.782 769.121,-228.666 778.839,-225.777"/>
<polygon fill="midnightblue" stroke="midnightblue" points="670.339,-262.798 662.567,-269.999 673.133,-269.217 670.339,-262.798"/>
</g>
<!-- Node36 -->
<g id="node78" class="node"><title>Node36</title>
<a xlink:href="../../de/d93/class_u_b_graphics_group_container_item.html#aeb38fce11d606a6a0c97544ff5fa776f" target="_top" xlink:title="UBGraphicsGroupContainer\lItem::deepCopy">
<polygon fill="white" stroke="black" points="980,-152 980,-186 1118,-186 1118,-152 980,-152"/>
<text text-anchor="start" x="988" y="-173" font-family="Helvetica,sans-Serif" font-size="10.00">UBGraphicsGroupContainer</text>
<text text-anchor="middle" x="1049" y="-160" font-family="Helvetica,sans-Serif" font-size="10.00">Item::deepCopy</text>
</a>
</g>
<!-- Node35&#45;&gt;Node36 -->
<g id="edge84" class="edge"><title>Node35&#45;&gt;Node36</title>
<path fill="none" stroke="midnightblue" d="M943.882,-162.906C956.033,-163.611 968.213,-164.317 979.753,-164.986"/>
<polygon fill="midnightblue" stroke="midnightblue" points="943.883,-159.4 933.697,-162.316 943.478,-166.389 943.883,-159.4"/>
</g>
<!-- Node38 -->
<g id="node82" class="node"><title>Node38</title>
<a xlink:href="../../dc/d5a/class_u_b_graphics_media_item.html#a8adbf02f86a23b2d2884efe8855e0556" target="_top" xlink:title="UBGraphicsMediaItem\l::deepCopy">
<polygon fill="white" stroke="black" points="991,-452 991,-486 1107,-486 1107,-452 991,-452"/>
<text text-anchor="start" x="999" y="-473" font-family="Helvetica,sans-Serif" font-size="10.00">UBGraphicsMediaItem</text>
<text text-anchor="middle" x="1049" y="-460" font-family="Helvetica,sans-Serif" font-size="10.00">::deepCopy</text>
</a>
</g>
<!-- Node37&#45;&gt;Node38 -->
<g id="edge88" class="edge"><title>Node37&#45;&gt;Node38</title>
<path fill="none" stroke="midnightblue" d="M913.51,-469C938.723,-469 966.745,-469 990.732,-469"/>
<polygon fill="midnightblue" stroke="midnightblue" points="913.267,-465.5 903.267,-469 913.267,-472.5 913.267,-465.5"/>
</g>
<!-- Node40 -->
<g id="node86" class="node"><title>Node40</title>
<a xlink:href="../../d9/d0d/class_u_b_graphics_p_d_f_item.html#a128b9926bef054d7246dfcd356571f36" target="_top" xlink:title="UBGraphicsPDFItem:\l:deepCopy">
<polygon fill="white" stroke="black" points="992.5,-400 992.5,-434 1105.5,-434 1105.5,-400 992.5,-400"/>
<text text-anchor="start" x="1000.5" y="-421" font-family="Helvetica,sans-Serif" font-size="10.00">UBGraphicsPDFItem:</text>
<text text-anchor="middle" x="1049" y="-408" font-family="Helvetica,sans-Serif" font-size="10.00">:deepCopy</text>
</a>
</g>
<!-- Node39&#45;&gt;Node40 -->
<g id="edge92" class="edge"><title>Node39&#45;&gt;Node40</title>
<path fill="none" stroke="midnightblue" d="M908.673,-417C935.584,-417 966.315,-417 992.145,-417"/>
<polygon fill="midnightblue" stroke="midnightblue" points="908.564,-413.5 898.564,-417 908.564,-420.5 908.564,-413.5"/>
</g>
<!-- Node42 -->
<g id="node90" class="node"><title>Node42</title>
<a xlink:href="../../d1/d78/class_u_b_graphics_pixmap_item.html#a1b0fbc4ae6ba2796e5cccb0ea16b8c70" target="_top" xlink:title="UBGraphicsPixmapItem\l::deepCopy">
<polygon fill="white" stroke="black" points="988,-348 988,-382 1110,-382 1110,-348 988,-348"/>
<text text-anchor="start" x="996" y="-369" font-family="Helvetica,sans-Serif" font-size="10.00">UBGraphicsPixmapItem</text>
<text text-anchor="middle" x="1049" y="-356" font-family="Helvetica,sans-Serif" font-size="10.00">::deepCopy</text>
</a>
</g>
<!-- Node41&#45;&gt;Node42 -->
<g id="edge96" class="edge"><title>Node41&#45;&gt;Node42</title>
<path fill="none" stroke="midnightblue" d="M916.312,-365C939.723,-365 965.303,-365 987.702,-365"/>
<polygon fill="midnightblue" stroke="midnightblue" points="916.079,-361.5 906.078,-365 916.078,-368.5 916.079,-361.5"/>
</g>
<!-- Node44 -->
<g id="node94" class="node"><title>Node44</title>
<a xlink:href="../../d3/d0b/class_u_b_graphics_strokes_group.html#a4932a359f046811fc1d555d5d6b49b38" target="_top" xlink:title="UBGraphicsStrokesGroup\l::deepCopy">
<polygon fill="white" stroke="black" points="984,-296 984,-330 1114,-330 1114,-296 984,-296"/>
<text text-anchor="start" x="992" y="-317" font-family="Helvetica,sans-Serif" font-size="10.00">UBGraphicsStrokesGroup</text>
<text text-anchor="middle" x="1049" y="-304" font-family="Helvetica,sans-Serif" font-size="10.00">::deepCopy</text>
</a>
</g>
<!-- Node43&#45;&gt;Node44 -->
<g id="edge100" class="edge"><title>Node43&#45;&gt;Node44</title>
<path fill="none" stroke="midnightblue" d="M920.209,-313C941.145,-313 963.551,-313 983.708,-313"/>
<polygon fill="midnightblue" stroke="midnightblue" points="920.066,-309.5 910.066,-313 920.066,-316.5 920.066,-309.5"/>
</g>
<!-- Node46 -->
<g id="node98" class="node"><title>Node46</title>
<a xlink:href="../../d1/dce/class_u_b_graphics_svg_item.html#a47ac7a4adf4bb678692aa98cc30809bf" target="_top" xlink:title="UBGraphicsSvgItem:\l:UBGraphicsSvgItem">
<polygon fill="white" stroke="black" points="994,-100 994,-134 1104,-134 1104,-100 994,-100"/>
<text text-anchor="start" x="1002" y="-121" font-family="Helvetica,sans-Serif" font-size="10.00">UBGraphicsSvgItem:</text>
<text text-anchor="middle" x="1049" y="-108" font-family="Helvetica,sans-Serif" font-size="10.00">:UBGraphicsSvgItem</text>
</a>
</g>
<!-- Node45&#45;&gt;Node46 -->
<g id="edge104" class="edge"><title>Node45&#45;&gt;Node46</title>
<path fill="none" stroke="midnightblue" d="M914.851,-113.112C940.841,-113.865 969.665,-114.7 993.913,-115.403"/>
<polygon fill="midnightblue" stroke="midnightblue" points="914.766,-109.608 904.669,-112.816 914.563,-116.605 914.766,-109.608"/>
</g>
<!-- Node47 -->
<g id="node100" class="node"><title>Node47</title>
<a xlink:href="../../d1/dce/class_u_b_graphics_svg_item.html#a312cf73a521c514c48a0e866771ba75e" target="_top" xlink:title="UBGraphicsSvgItem:\l:deepCopy">
<polygon fill="white" stroke="black" points="1194,-100 1194,-134 1304,-134 1304,-100 1194,-100"/>
<text text-anchor="start" x="1202" y="-121" font-family="Helvetica,sans-Serif" font-size="10.00">UBGraphicsSvgItem:</text>
<text text-anchor="middle" x="1249" y="-108" font-family="Helvetica,sans-Serif" font-size="10.00">:deepCopy</text>
</a>
</g>
<!-- Node46&#45;&gt;Node47 -->
<g id="edge106" class="edge"><title>Node46&#45;&gt;Node47</title>
<path fill="none" stroke="midnightblue" d="M1114.24,-117C1140.02,-117 1169.32,-117 1194,-117"/>
<polygon fill="midnightblue" stroke="midnightblue" points="1114.18,-113.5 1104.18,-117 1114.18,-120.5 1114.18,-113.5"/>
</g>
<!-- Node49 -->
<g id="node104" class="node"><title>Node49</title>
<a xlink:href="../../da/d65/class_u_b_graphics_text_item.html#a6be4507f88dccb25e1e063ec36cf6f47" target="_top" xlink:title="UBGraphicsTextItem\l::deepCopy">
<polygon fill="white" stroke="black" points="994.5,-244 994.5,-278 1103.5,-278 1103.5,-244 994.5,-244"/>
<text text-anchor="start" x="1002.5" y="-265" font-family="Helvetica,sans-Serif" font-size="10.00">UBGraphicsTextItem</text>
<text text-anchor="middle" x="1049" y="-252" font-family="Helvetica,sans-Serif" font-size="10.00">::deepCopy</text>
</a>
</g>
<!-- Node48&#45;&gt;Node49 -->
<g id="edge110" class="edge"><title>Node48&#45;&gt;Node49</title>
<path fill="none" stroke="midnightblue" d="M909.967,-261C937.39,-261 968.602,-261 994.495,-261"/>
<polygon fill="midnightblue" stroke="midnightblue" points="909.661,-257.5 899.661,-261 909.661,-264.5 909.661,-257.5"/>
</g>
</g>
</svg>
