<?xml version="1.0" encoding="UTF-8" standalone="no"?>
<!DOCTYPE svg PUBLIC "-//W3C//DTD SVG 1.1//EN"
 "http://www.w3.org/Graphics/SVG/1.1/DTD/svg11.dtd">
<!-- Generated by graphviz version 2.26.3 (20100126.1600)
 -->
<!-- Title: UBItem::deepCopy Pages: 1 -->
<svg width="1998pt" height="826pt"
 viewBox="0.00 0.00 1998.00 826.00" xmlns="http://www.w3.org/2000/svg" xmlns:xlink="http://www.w3.org/1999/xlink">
<g id="graph1" class="graph" transform="scale(1 1) rotate(0) translate(4 822)">
<title>UBItem::deepCopy</title>
<polygon fill="white" stroke="white" points="-4,5 -4,-822 1995,-822 1995,5 -4,5"/>
<!-- Node1 -->
<g id="node1" class="node"><title>Node1</title>
<polygon fill="#bfbfbf" stroke="black" points="0.5,-220.5 0.5,-241.5 101.5,-241.5 101.5,-220.5 0.5,-220.5"/>
<text text-anchor="middle" x="51" y="-228.5" font-family="Helvetica,sans-Serif" font-size="10.00">UBItem::deepCopy</text>
</g>
<!-- Node2 -->
<g id="node3" class="node"><title>Node2</title>
<a xlink:href="../../d7/d62/class_u_b_board_controller.html#abae2655269e06f72767de71b8513f6be" target="_top" xlink:title="UBBoardController:\l:duplicateItem">
<polygon fill="white" stroke="black" points="175.5,-330 175.5,-364 276.5,-364 276.5,-330 175.5,-330"/>
<text text-anchor="start" x="183.5" y="-351" font-family="Helvetica,sans-Serif" font-size="10.00">UBBoardController:</text>
<text text-anchor="middle" x="226" y="-338" font-family="Helvetica,sans-Serif" font-size="10.00">:duplicateItem</text>
</a>
</g>
<!-- Node1&#45;&gt;Node2 -->
<g id="edge2" class="edge"><title>Node1&#45;&gt;Node2</title>
<path fill="none" stroke="midnightblue" d="M75.7268,-247.39C108.633,-269.203 166.552,-307.595 200.06,-329.806"/>
<polygon fill="midnightblue" stroke="midnightblue" points="77.4188,-244.313 67.1499,-241.705 73.5513,-250.147 77.4188,-244.313"/>
</g>
<!-- Node46 -->
<g id="node98" class="node"><title>Node46</title>
<a xlink:href="../../d7/d62/class_u_b_board_controller.html#aedaf462295a3ad1a7c7e76bf88078e8f" target="_top" xlink:title="UBBoardController::cut">
<polygon fill="white" stroke="black" points="167,-220.5 167,-241.5 285,-241.5 285,-220.5 167,-220.5"/>
<text text-anchor="middle" x="226" y="-228.5" font-family="Helvetica,sans-Serif" font-size="10.00">UBBoardController::cut</text>
</a>
</g>
<!-- Node1&#45;&gt;Node46 -->
<g id="edge104" class="edge"><title>Node1&#45;&gt;Node46</title>
<path fill="none" stroke="midnightblue" d="M111.892,-231C129.706,-231 149.145,-231 166.848,-231"/>
<polygon fill="midnightblue" stroke="midnightblue" points="111.617,-227.5 101.617,-231 111.617,-234.5 111.617,-227.5"/>
</g>
<!-- Node48 -->
<g id="node102" class="node"><title>Node48</title>
<a xlink:href="../../dc/db2/class_u_b_graphics_scene.html#a5d793edf48a0905e7dc1725b3f6da449" target="_top" xlink:title="UBGraphicsScene::sceneDeepCopy">
<polygon fill="white" stroke="black" points="138,-168.5 138,-189.5 314,-189.5 314,-168.5 138,-168.5"/>
<text text-anchor="middle" x="226" y="-176.5" font-family="Helvetica,sans-Serif" font-size="10.00">UBGraphicsScene::sceneDeepCopy</text>
</a>
</g>
<!-- Node1&#45;&gt;Node48 -->
<g id="edge108" class="edge"><title>Node1&#45;&gt;Node48</title>
<path fill="none" stroke="midnightblue" d="M96.0442,-217.615C125.479,-208.869 163.374,-197.609 190.639,-189.507"/>
<polygon fill="midnightblue" stroke="midnightblue" points="95.0027,-214.274 86.4139,-220.477 96.9966,-220.984 95.0027,-214.274"/>
</g>
<!-- Node3 -->
<g id="node5" class="node"><title>Node3</title>
<a xlink:href="../../d7/d62/class_u_b_board_controller.html#a07e50010567075b570140d6143c516f5" target="_top" xlink:title="UBBoardController:\l:processMimeData">
<polygon fill="white" stroke="black" points="1559.5,-346 1559.5,-380 1660.5,-380 1660.5,-346 1559.5,-346"/>
<text text-anchor="start" x="1567.5" y="-367" font-family="Helvetica,sans-Serif" font-size="10.00">UBBoardController:</text>
<text text-anchor="middle" x="1610" y="-354" font-family="Helvetica,sans-Serif" font-size="10.00">:processMimeData</text>
</a>
</g>
<!-- Node2&#45;&gt;Node3 -->
<g id="edge4" class="edge"><title>Node2&#45;&gt;Node3</title>
<path fill="none" stroke="midnightblue" d="M286.558,-351.392C369.284,-357.004 522.285,-366 653,-366 653,-366 653,-366 1277,-366 1377.02,-366 1493.93,-364.63 1559.23,-363.742"/>
<polygon fill="midnightblue" stroke="midnightblue" points="286.796,-347.9 276.58,-350.708 286.318,-354.884 286.796,-347.9"/>
</g>
<!-- Node7 -->
<g id="node13" class="node"><title>Node7</title>
<a xlink:href="../../d7/d62/class_u_b_board_controller.html#af713d6e325369af244f2af8c90299a35" target="_top" xlink:title="UBBoardController:\l:moveGraphicsWidgetToControlView">
<polygon fill="white" stroke="black" points="350,-266 350,-300 528,-300 528,-266 350,-266"/>
<text text-anchor="start" x="358" y="-287" font-family="Helvetica,sans-Serif" font-size="10.00">UBBoardController:</text>
<text text-anchor="middle" x="439" y="-274" font-family="Helvetica,sans-Serif" font-size="10.00">:moveGraphicsWidgetToControlView</text>
</a>
</g>
<!-- Node2&#45;&gt;Node7 -->
<g id="edge12" class="edge"><title>Node2&#45;&gt;Node7</title>
<path fill="none" stroke="midnightblue" d="M286.688,-328.765C316.729,-319.739 352.779,-308.907 382.264,-300.047"/>
<polygon fill="midnightblue" stroke="midnightblue" points="285.318,-325.522 276.748,-331.752 287.332,-332.226 285.318,-325.522"/>
</g>
<!-- Node28 -->
<g id="node62" class="node"><title>Node28</title>
<a xlink:href="../../dd/dd5/class_u_b_graphics_item_delegate.html#a525c69cb3c3c0df6c4db4d406fd80e48" target="_top" xlink:title="UBGraphicsItemDelegate\l::duplicate">
<polygon fill="white" stroke="black" points="375,-507 375,-541 503,-541 503,-507 375,-507"/>
<text text-anchor="start" x="383" y="-528" font-family="Helvetica,sans-Serif" font-size="10.00">UBGraphicsItemDelegate</text>
<text text-anchor="middle" x="439" y="-515" font-family="Helvetica,sans-Serif" font-size="10.00">::duplicate</text>
</a>
</g>
<!-- Node2&#45;&gt;Node28 -->
<g id="edge68" class="edge"><title>Node2&#45;&gt;Node28</title>
<path fill="none" stroke="midnightblue" d="M254.747,-370.888C298.371,-407.139 380.239,-475.17 418.418,-506.897"/>
<polygon fill="midnightblue" stroke="midnightblue" points="256.739,-367.993 246.811,-364.294 252.265,-373.377 256.739,-367.993"/>
</g>
<!-- Node4 -->
<g id="node7" class="node"><title>Node4</title>
<a xlink:href="../../d7/d62/class_u_b_board_controller.html#a68518a98107e994551da0a4e3a79fe2c" target="_top" xlink:title="UBBoardController:\l:paste">
<polygon fill="white" stroke="black" points="1717.5,-369 1717.5,-403 1818.5,-403 1818.5,-369 1717.5,-369"/>
<text text-anchor="start" x="1725.5" y="-390" font-family="Helvetica,sans-Serif" font-size="10.00">UBBoardController:</text>
<text text-anchor="middle" x="1768" y="-377" font-family="Helvetica,sans-Serif" font-size="10.00">:paste</text>
</a>
</g>
<!-- Node3&#45;&gt;Node4 -->
<g id="edge6" class="edge"><title>Node3&#45;&gt;Node4</title>
<path fill="none" stroke="midnightblue" d="M1670.78,-371.848C1686.12,-374.081 1702.44,-376.456 1717.23,-378.61"/>
<polygon fill="midnightblue" stroke="midnightblue" points="1671.26,-368.381 1660.86,-370.404 1670.25,-375.308 1671.26,-368.381"/>
</g>
<!-- Node6 -->
<g id="node11" class="node"><title>Node6</title>
<a xlink:href="../../d1/d78/class_u_b_board_view.html#a1bb7794094c4bb04637b0df2bc0c0fa9" target="_top" xlink:title="UBBoardView::dropEvent">
<polygon fill="white" stroke="black" points="1704,-329.5 1704,-350.5 1832,-350.5 1832,-329.5 1704,-329.5"/>
<text text-anchor="middle" x="1768" y="-337.5" font-family="Helvetica,sans-Serif" font-size="10.00">UBBoardView::dropEvent</text>
</a>
</g>
<!-- Node3&#45;&gt;Node6 -->
<g id="edge10" class="edge"><title>Node3&#45;&gt;Node6</title>
<path fill="none" stroke="midnightblue" d="M1671.03,-354.117C1681.81,-352.547 1693.06,-350.909 1703.92,-349.328"/>
<polygon fill="midnightblue" stroke="midnightblue" points="1670.25,-350.692 1660.86,-355.596 1671.26,-357.619 1670.25,-350.692"/>
</g>
<!-- Node5 -->
<g id="node9" class="node"><title>Node5</title>
<a xlink:href="../../da/d14/class_u_b_application_controller.html#a6afa41e1bc0c178acaa89684b7e9db26" target="_top" xlink:title="UBApplicationController\l::actionPaste">
<polygon fill="white" stroke="black" points="1868.5,-369 1868.5,-403 1989.5,-403 1989.5,-369 1868.5,-369"/>
<text text-anchor="start" x="1876.5" y="-390" font-family="Helvetica,sans-Serif" font-size="10.00">UBApplicationController</text>
<text text-anchor="middle" x="1929" y="-377" font-family="Helvetica,sans-Serif" font-size="10.00">::actionPaste</text>
</a>
</g>
<!-- Node4&#45;&gt;Node5 -->
<g id="edge8" class="edge"><title>Node4&#45;&gt;Node5</title>
<path fill="none" stroke="midnightblue" d="M1829.06,-386C1841.89,-386 1855.43,-386 1868.25,-386"/>
<polygon fill="midnightblue" stroke="midnightblue" points="1828.94,-382.5 1818.94,-386 1828.94,-389.5 1828.94,-382.5"/>
</g>
<!-- Node8 -->
<g id="node15" class="node"><title>Node8</title>
<a xlink:href="../../dc/db2/class_u_b_graphics_scene.html#aa63a9c1b5eb1de5a0d06a0f2b449648a" target="_top" xlink:title="UBGraphicsScene::addGraphics\lWidget">
<polygon fill="white" stroke="black" points="574,-186 574,-220 732,-220 732,-186 574,-186"/>
<text text-anchor="start" x="582" y="-207" font-family="Helvetica,sans-Serif" font-size="10.00">UBGraphicsScene::addGraphics</text>
<text text-anchor="middle" x="653" y="-194" font-family="Helvetica,sans-Serif" font-size="10.00">Widget</text>
</a>
</g>
<!-- Node7&#45;&gt;Node8 -->
<g id="edge14" class="edge"><title>Node7&#45;&gt;Node8</title>
<path fill="none" stroke="midnightblue" d="M510.89,-262.832C516.707,-260.947 522.47,-258.993 528,-257 558.467,-246.016 592.124,-231.323 616.831,-220.037"/>
<polygon fill="midnightblue" stroke="midnightblue" points="509.56,-259.582 501.081,-265.934 511.671,-266.256 509.56,-259.582"/>
</g>
<!-- Node26 -->
<g id="node58" class="node"><title>Node26</title>
<a xlink:href="../../d8/d2c/class_u_b_graphics_widget_item_delegate.html#a2b446e23a250de4f8c162e1411058cb5" target="_top" xlink:title="UBGraphicsWidgetItemDelegate::pin">
<polygon fill="white" stroke="black" points="564,-272.5 564,-293.5 742,-293.5 742,-272.5 564,-272.5"/>
<text text-anchor="middle" x="653" y="-280.5" font-family="Helvetica,sans-Serif" font-size="10.00">UBGraphicsWidgetItemDelegate::pin</text>
</a>
</g>
<!-- Node7&#45;&gt;Node26 -->
<g id="edge64" class="edge"><title>Node7&#45;&gt;Node26</title>
<path fill="none" stroke="midnightblue" d="M538.23,-283C546.807,-283 555.45,-283 563.939,-283"/>
<polygon fill="midnightblue" stroke="midnightblue" points="538.206,-279.5 528.206,-283 538.206,-286.5 538.206,-279.5"/>
</g>
<!-- Node9 -->
<g id="node17" class="node"><title>Node9</title>
<a xlink:href="../../d7/d62/class_u_b_board_controller.html#af122a3bb14b0ef66b169be9fd0e5a2b3" target="_top" xlink:title="UBBoardController:\l:moveToolWidgetToScene">
<polygon fill="white" stroke="black" points="804,-64 804,-98 936,-98 936,-64 804,-64"/>
<text text-anchor="start" x="812" y="-85" font-family="Helvetica,sans-Serif" font-size="10.00">UBBoardController:</text>
<text text-anchor="middle" x="870" y="-72" font-family="Helvetica,sans-Serif" font-size="10.00">:moveToolWidgetToScene</text>
</a>
</g>
<!-- Node8&#45;&gt;Node9 -->
<g id="edge16" class="edge"><title>Node8&#45;&gt;Node9</title>
<path fill="none" stroke="midnightblue" d="M692.539,-180.771C734.854,-156.98 801.07,-119.753 839.525,-98.1333"/>
<polygon fill="midnightblue" stroke="midnightblue" points="690.632,-177.827 683.631,-185.779 694.063,-183.929 690.632,-177.827"/>
</g>
<!-- Node11 -->
<g id="node21" class="node"><title>Node11</title>
<a xlink:href="../../dc/db2/class_u_b_graphics_scene.html#aa86ec061e79ba18c2efe73a6bf10bf33" target="_top" xlink:title="UBGraphicsScene::addApple\lWidget">
<polygon fill="white" stroke="black" points="798,-214 798,-248 942,-248 942,-214 798,-214"/>
<text text-anchor="start" x="806" y="-235" font-family="Helvetica,sans-Serif" font-size="10.00">UBGraphicsScene::addApple</text>
<text text-anchor="middle" x="870" y="-222" font-family="Helvetica,sans-Serif" font-size="10.00">Widget</text>
</a>
</g>
<!-- Node8&#45;&gt;Node11 -->
<g id="edge20" class="edge"><title>Node8&#45;&gt;Node11</title>
<path fill="none" stroke="midnightblue" d="M742.415,-214.537C760.853,-216.917 780.051,-219.394 797.787,-221.682"/>
<polygon fill="midnightblue" stroke="midnightblue" points="742.629,-211.036 732.263,-213.227 741.733,-217.979 742.629,-211.036"/>
</g>
<!-- Node19 -->
<g id="node40" class="node"><title>Node19</title>
<a xlink:href="../../dc/db2/class_u_b_graphics_scene.html#acb26de2926454faf9c5ca66989779d82" target="_top" xlink:title="UBGraphicsScene::addW3CWidget">
<polygon fill="white" stroke="black" points="783.5,-165.5 783.5,-186.5 956.5,-186.5 956.5,-165.5 783.5,-165.5"/>
<text text-anchor="middle" x="870" y="-173.5" font-family="Helvetica,sans-Serif" font-size="10.00">UBGraphicsScene::addW3CWidget</text>
</a>
</g>
<!-- Node8&#45;&gt;Node19 -->
<g id="edge42" class="edge"><title>Node8&#45;&gt;Node19</title>
<path fill="none" stroke="midnightblue" d="M742.516,-191.862C756.725,-190.094 771.383,-188.27 785.473,-186.517"/>
<polygon fill="midnightblue" stroke="midnightblue" points="741.754,-188.43 732.263,-193.138 742.619,-195.376 741.754,-188.43"/>
</g>
<!-- Node10 -->
<g id="node19" class="node"><title>Node10</title>
<a xlink:href="../../dc/de3/class_u_b_tool_widget.html#adc43c4c0d6cb3e0f5881df830775b5b7" target="_top" xlink:title="UBToolWidget::mouseRelease\lEvent">
<polygon fill="white" stroke="black" points="1001,-6 1001,-40 1153,-40 1153,-6 1001,-6"/>
<text text-anchor="start" x="1009" y="-27" font-family="Helvetica,sans-Serif" font-size="10.00">UBToolWidget::mouseRelease</text>
<text text-anchor="middle" x="1077" y="-14" font-family="Helvetica,sans-Serif" font-size="10.00">Event</text>
</a>
</g>
<!-- Node9&#45;&gt;Node10 -->
<g id="edge18" class="edge"><title>Node9&#45;&gt;Node10</title>
<path fill="none" stroke="midnightblue" d="M940.365,-61.2841C965.026,-54.3745 992.492,-46.6787 1016.29,-40.0097"/>
<polygon fill="midnightblue" stroke="midnightblue" points="939.393,-57.9217 930.708,-63.99 941.282,-64.6621 939.393,-57.9217"/>
</g>
<!-- Node12 -->
<g id="node23" class="node"><title>Node12</title>
<a xlink:href="../../d7/d62/class_u_b_board_controller.html#ab6cbc7bda85279e7eee5c5923892dd1a" target="_top" xlink:title="UBBoardController:\l:downloadFinished">
<polygon fill="white" stroke="black" points="1226.5,-234 1226.5,-268 1327.5,-268 1327.5,-234 1226.5,-234"/>
<text text-anchor="start" x="1234.5" y="-255" font-family="Helvetica,sans-Serif" font-size="10.00">UBBoardController:</text>
<text text-anchor="middle" x="1277" y="-242" font-family="Helvetica,sans-Serif" font-size="10.00">:downloadFinished</text>
</a>
</g>
<!-- Node11&#45;&gt;Node12 -->
<g id="edge22" class="edge"><title>Node11&#45;&gt;Node12</title>
<path fill="none" stroke="midnightblue" d="M943.479,-251.085C949.767,-253.009 956.009,-254.994 962,-257 978.279,-262.452 981.127,-267.835 998,-271 1076.87,-285.797 1170.17,-273.157 1226.41,-262.336"/>
<polygon fill="midnightblue" stroke="midnightblue" points="944.175,-247.639 933.591,-248.115 942.161,-254.343 944.175,-247.639"/>
</g>
<!-- Node18 -->
<g id="node38" class="node"><title>Node18</title>
<a xlink:href="../../dc/db2/class_u_b_graphics_scene.html#aff586f570c8625a51bccef943662a29d" target="_top" xlink:title="UBGraphicsScene::addWidget">
<polygon fill="white" stroke="black" points="1002,-240.5 1002,-261.5 1152,-261.5 1152,-240.5 1002,-240.5"/>
<text text-anchor="middle" x="1077" y="-248.5" font-family="Helvetica,sans-Serif" font-size="10.00">UBGraphicsScene::addWidget</text>
</a>
</g>
<!-- Node11&#45;&gt;Node18 -->
<g id="edge40" class="edge"><title>Node11&#45;&gt;Node18</title>
<path fill="none" stroke="midnightblue" d="M952.223,-238.944C968.648,-240.531 985.821,-242.19 1001.99,-243.752"/>
<polygon fill="midnightblue" stroke="midnightblue" points="952.398,-235.445 942.108,-237.967 951.725,-242.413 952.398,-235.445"/>
</g>
<!-- Node12&#45;&gt;Node2 -->
<g id="edge28" class="edge"><title>Node12&#45;&gt;Node2</title>
<path fill="none" stroke="midnightblue" d="M1219.67,-271.184C1199.71,-277.625 1177.05,-284.294 1156,-289 1030.8,-316.985 998.287,-328 870,-328 653,-328 653,-328 653,-328 516.833,-328 356.483,-337.762 276.58,-343.292"/>
<polygon fill="midnightblue" stroke="midnightblue" points="1220.81,-274.492 1229.23,-268.051 1218.63,-267.84 1220.81,-274.492"/>
</g>
<!-- Node13 -->
<g id="node25" class="node"><title>Node13</title>
<a xlink:href="../../d7/d62/class_u_b_board_controller.html#aa728cb7c1b979b2d4ae45638a7386dde" target="_top" xlink:title="UBBoardController::init">
<polygon fill="white" stroke="black" points="1398.5,-240.5 1398.5,-261.5 1515.5,-261.5 1515.5,-240.5 1398.5,-240.5"/>
<text text-anchor="middle" x="1457" y="-248.5" font-family="Helvetica,sans-Serif" font-size="10.00">UBBoardController::init</text>
</a>
</g>
<!-- Node12&#45;&gt;Node13 -->
<g id="edge24" class="edge"><title>Node12&#45;&gt;Node13</title>
<path fill="none" stroke="midnightblue" d="M1337.62,-251C1357.16,-251 1378.77,-251 1398.18,-251"/>
<polygon fill="midnightblue" stroke="midnightblue" points="1337.62,-247.5 1327.62,-251 1337.62,-254.5 1337.62,-247.5"/>
</g>
<!-- Node15 -->
<g id="node30" class="node"><title>Node15</title>
<a xlink:href="../../d7/d62/class_u_b_board_controller.html#a358f3f88d1fa9e41620170d76a806f93" target="_top" xlink:title="UBBoardController:\l:downloadURL">
<polygon fill="white" stroke="red" points="1406.5,-394 1406.5,-428 1507.5,-428 1507.5,-394 1406.5,-394"/>
<text text-anchor="start" x="1414.5" y="-415" font-family="Helvetica,sans-Serif" font-size="10.00">UBBoardController:</text>
<text text-anchor="middle" x="1457" y="-402" font-family="Helvetica,sans-Serif" font-size="10.00">:downloadURL</text>
</a>
</g>
<!-- Node12&#45;&gt;Node15 -->
<g id="edge30" class="edge"><title>Node12&#45;&gt;Node15</title>
<path fill="none" stroke="midnightblue" d="M1304.08,-275.074C1340.78,-307.69 1405.39,-365.123 1437.6,-393.758"/>
<polygon fill="midnightblue" stroke="midnightblue" points="1306.06,-272.151 1296.26,-268.123 1301.41,-277.382 1306.06,-272.151"/>
</g>
<!-- Node14 -->
<g id="node27" class="node"><title>Node14</title>
<a xlink:href="../../d8/d81/class_u_b_application.html#add1469239e71bf24fdc61413a42a38bd" target="_top" xlink:title="UBApplication::exec">
<polygon fill="white" stroke="red" points="1557,-240.5 1557,-261.5 1663,-261.5 1663,-240.5 1557,-240.5"/>
<text text-anchor="middle" x="1610" y="-248.5" font-family="Helvetica,sans-Serif" font-size="10.00">UBApplication::exec</text>
</a>
</g>
<!-- Node13&#45;&gt;Node14 -->
<g id="edge26" class="edge"><title>Node13&#45;&gt;Node14</title>
<path fill="none" stroke="midnightblue" d="M1525.95,-251C1536.27,-251 1546.77,-251 1556.7,-251"/>
<polygon fill="midnightblue" stroke="midnightblue" points="1525.72,-247.5 1515.72,-251 1525.72,-254.5 1525.72,-247.5"/>
</g>
<!-- Node15&#45;&gt;Node2 -->
<g id="edge32" class="edge"><title>Node15&#45;&gt;Node2</title>
<path fill="none" stroke="midnightblue" d="M1396.09,-409.187C1321.05,-407.113 1189.65,-404 1077,-404 653,-404 653,-404 653,-404 517.912,-404 483.151,-402.798 350,-380 325.517,-375.808 298.838,-369.008 276.521,-362.666"/>
<polygon fill="midnightblue" stroke="midnightblue" points="1396.2,-412.692 1406.3,-409.472 1396.4,-405.694 1396.2,-412.692"/>
</g>
<!-- Node15&#45;&gt;Node3 -->
<g id="edge34" class="edge"><title>Node15&#45;&gt;Node3</title>
<path fill="none" stroke="midnightblue" d="M1517.45,-392.036C1531.3,-387.691 1545.88,-383.116 1559.27,-378.915"/>
<polygon fill="midnightblue" stroke="midnightblue" points="1516.02,-388.817 1507.52,-395.15 1518.11,-395.496 1516.02,-388.817"/>
</g>
<!-- Node16 -->
<g id="node34" class="node"><title>Node16</title>
<a xlink:href="../../d0/d79/class_u_b_favorite_tool_palette.html#a83161cac1258562134412dfcd60aee50" target="_top" xlink:title="UBFavoriteToolPalette\l::addFavorite">
<polygon fill="white" stroke="red" points="1552,-450 1552,-484 1668,-484 1668,-450 1552,-450"/>
<text text-anchor="start" x="1560" y="-471" font-family="Helvetica,sans-Serif" font-size="10.00">UBFavoriteToolPalette</text>
<text text-anchor="middle" x="1610" y="-458" font-family="Helvetica,sans-Serif" font-size="10.00">::addFavorite</text>
</a>
</g>
<!-- Node15&#45;&gt;Node16 -->
<g id="edge36" class="edge"><title>Node15&#45;&gt;Node16</title>
<path fill="none" stroke="midnightblue" d="M1513.29,-431.602C1529.82,-437.653 1547.71,-444.2 1563.55,-449.999"/>
<polygon fill="midnightblue" stroke="midnightblue" points="1514.33,-428.257 1503.74,-428.106 1511.92,-434.83 1514.33,-428.257"/>
</g>
<!-- Node17 -->
<g id="node36" class="node"><title>Node17</title>
<a xlink:href="../../d8/d33/class_u_b_features_controller.html#a38042ae37804ee19bfacf4aafd096ea9" target="_top" xlink:title="UBFeaturesController\l::addItemToPage">
<polygon fill="white" stroke="red" points="1554.5,-398 1554.5,-432 1665.5,-432 1665.5,-398 1554.5,-398"/>
<text text-anchor="start" x="1562.5" y="-419" font-family="Helvetica,sans-Serif" font-size="10.00">UBFeaturesController</text>
<text text-anchor="middle" x="1610" y="-406" font-family="Helvetica,sans-Serif" font-size="10.00">::addItemToPage</text>
</a>
</g>
<!-- Node15&#45;&gt;Node17 -->
<g id="edge38" class="edge"><title>Node15&#45;&gt;Node17</title>
<path fill="none" stroke="midnightblue" d="M1517.53,-412.583C1529.64,-412.899 1542.31,-413.23 1554.25,-413.543"/>
<polygon fill="midnightblue" stroke="midnightblue" points="1517.61,-409.083 1507.52,-412.321 1517.43,-416.081 1517.61,-409.083"/>
</g>
<!-- Node19&#45;&gt;Node12 -->
<g id="edge50" class="edge"><title>Node19&#45;&gt;Node12</title>
<path fill="none" stroke="midnightblue" d="M937.145,-188.373C1018.43,-203.352 1153.46,-228.236 1226.45,-241.685"/>
<polygon fill="midnightblue" stroke="midnightblue" points="937.489,-184.878 927.02,-186.507 936.22,-191.762 937.489,-184.878"/>
</g>
<!-- Node19&#45;&gt;Node18 -->
<g id="edge56" class="edge"><title>Node19&#45;&gt;Node18</title>
<path fill="none" stroke="midnightblue" d="M919.972,-189.532C933.816,-193.876 948.691,-199.109 962,-205 978.938,-212.497 981.066,-218.493 998,-226 1010.63,-231.597 1024.89,-236.512 1037.79,-240.469"/>
<polygon fill="midnightblue" stroke="midnightblue" points="920.696,-186.094 910.11,-186.53 918.657,-192.791 920.696,-186.094"/>
</g>
<!-- Node20 -->
<g id="node42" class="node"><title>Node20</title>
<a xlink:href="../../d7/d62/class_u_b_board_controller.html#a5f701f4cd3173743effca3b3b0bd4615" target="_top" xlink:title="UBBoardController:\l:addLinkToPage">
<polygon fill="white" stroke="black" points="1026.5,-98 1026.5,-132 1127.5,-132 1127.5,-98 1026.5,-98"/>
<text text-anchor="start" x="1034.5" y="-119" font-family="Helvetica,sans-Serif" font-size="10.00">UBBoardController:</text>
<text text-anchor="middle" x="1077" y="-106" font-family="Helvetica,sans-Serif" font-size="10.00">:addLinkToPage</text>
</a>
</g>
<!-- Node19&#45;&gt;Node20 -->
<g id="edge44" class="edge"><title>Node19&#45;&gt;Node20</title>
<path fill="none" stroke="midnightblue" d="M915.816,-162.499C948.508,-152.865 992.48,-139.907 1026.24,-129.959"/>
<polygon fill="midnightblue" stroke="midnightblue" points="914.659,-159.191 906.057,-165.375 916.638,-165.905 914.659,-159.191"/>
</g>
<!-- Node22 -->
<g id="node48" class="node"><title>Node22</title>
<a xlink:href="../../d7/d62/class_u_b_board_controller.html#af8867753146efd8498f1a308e0457c9e" target="_top" xlink:title="UBBoardController:\l:addW3cWidget">
<polygon fill="white" stroke="black" points="1026.5,-150 1026.5,-184 1127.5,-184 1127.5,-150 1026.5,-150"/>
<text text-anchor="start" x="1034.5" y="-171" font-family="Helvetica,sans-Serif" font-size="10.00">UBBoardController:</text>
<text text-anchor="middle" x="1077" y="-158" font-family="Helvetica,sans-Serif" font-size="10.00">:addW3cWidget</text>
</a>
</g>
<!-- Node19&#45;&gt;Node22 -->
<g id="edge52" class="edge"><title>Node19&#45;&gt;Node22</title>
<path fill="none" stroke="midnightblue" d="M966.694,-171.796C987.372,-170.897 1008.41,-169.982 1026.5,-169.196"/>
<polygon fill="midnightblue" stroke="midnightblue" points="966.426,-168.304 956.587,-172.235 966.73,-175.298 966.426,-168.304"/>
</g>
<!-- Node23 -->
<g id="node52" class="node"><title>Node23</title>
<a xlink:href="../../dc/db2/class_u_b_graphics_scene.html#a2729368a3a28a4d9669f23f171752194" target="_top" xlink:title="UBGraphicsScene::addOEmbed">
<polygon fill="white" stroke="black" points="998,-58.5 998,-79.5 1156,-79.5 1156,-58.5 998,-58.5"/>
<text text-anchor="middle" x="1077" y="-66.5" font-family="Helvetica,sans-Serif" font-size="10.00">UBGraphicsScene::addOEmbed</text>
</a>
</g>
<!-- Node19&#45;&gt;Node23 -->
<g id="edge58" class="edge"><title>Node19&#45;&gt;Node23</title>
<path fill="none" stroke="midnightblue" d="M890.307,-158.848C914.483,-139.257 956.786,-107.527 998,-89 1006.26,-85.2875 1015.33,-82.1813 1024.28,-79.6102"/>
<polygon fill="midnightblue" stroke="midnightblue" points="888.046,-156.176 882.544,-165.23 892.491,-161.583 888.046,-156.176"/>
</g>
<!-- Node20&#45;&gt;Node12 -->
<g id="edge46" class="edge"><title>Node20&#45;&gt;Node12</title>
<path fill="none" stroke="midnightblue" d="M1137.25,-131.852C1143.76,-134.538 1150.13,-137.579 1156,-141 1199.66,-166.454 1241.1,-209.692 1262.3,-233.677"/>
<polygon fill="midnightblue" stroke="midnightblue" points="1138.27,-128.494 1127.68,-128.169 1135.76,-135.027 1138.27,-128.494"/>
</g>
<!-- Node21 -->
<g id="node45" class="node"><title>Node21</title>
<a xlink:href="../../d9/d3a/class_u_b_trap_web_page_content_controller.html#adc738e0c68ed861cce64a1389d2aee5d" target="_top" xlink:title="UBTrapWebPageContentController\l::addLink">
<polygon fill="white" stroke="red" points="1192,-104 1192,-138 1362,-138 1362,-104 1192,-104"/>
<text text-anchor="start" x="1200" y="-125" font-family="Helvetica,sans-Serif" font-size="10.00">UBTrapWebPageContentController</text>
<text text-anchor="middle" x="1277" y="-112" font-family="Helvetica,sans-Serif" font-size="10.00">::addLink</text>
</a>
</g>
<!-- Node20&#45;&gt;Node21 -->
<g id="edge48" class="edge"><title>Node20&#45;&gt;Node21</title>
<path fill="none" stroke="midnightblue" d="M1138.02,-116.831C1154.96,-117.339 1173.67,-117.9 1191.72,-118.442"/>
<polygon fill="midnightblue" stroke="midnightblue" points="1137.83,-113.323 1127.73,-116.522 1137.62,-120.32 1137.83,-113.323"/>
</g>
<!-- Node22&#45;&gt;Node12 -->
<g id="edge54" class="edge"><title>Node22&#45;&gt;Node12</title>
<path fill="none" stroke="midnightblue" d="M1130.84,-187.802C1139.28,-191.158 1147.89,-194.635 1156,-198 1183.96,-209.604 1215.26,-223.333 1239.01,-233.909"/>
<polygon fill="midnightblue" stroke="midnightblue" points="1132,-184.497 1121.41,-184.077 1129.43,-191.008 1132,-184.497"/>
</g>
<!-- Node24 -->
<g id="node54" class="node"><title>Node24</title>
<a xlink:href="../../df/d50/class_u_b_web_controller.html#ae652b7467df50b60c8d074d94abf698b" target="_top" xlink:title="UBWebController::captureo\lEmbed">
<polygon fill="white" stroke="black" points="1208.5,-0 1208.5,-34 1345.5,-34 1345.5,-0 1208.5,-0"/>
<text text-anchor="start" x="1216.5" y="-21" font-family="Helvetica,sans-Serif" font-size="10.00">UBWebController::captureo</text>
<text text-anchor="middle" x="1277" y="-8" font-family="Helvetica,sans-Serif" font-size="10.00">Embed</text>
</a>
</g>
<!-- Node23&#45;&gt;Node24 -->
<g id="edge60" class="edge"><title>Node23&#45;&gt;Node24</title>
<path fill="none" stroke="midnightblue" d="M1128.6,-56.0207C1137.73,-53.6996 1147.15,-51.2908 1156,-49 1174.51,-44.2091 1194.59,-38.9306 1212.98,-34.066"/>
<polygon fill="midnightblue" stroke="midnightblue" points="1127.67,-52.6446 1118.84,-58.4953 1129.39,-59.4298 1127.67,-52.6446"/>
</g>
<!-- Node25 -->
<g id="node56" class="node"><title>Node25</title>
<a xlink:href="../../df/d50/class_u_b_web_controller.html#abee1408edc0bda4a434f313d7e6eece4" target="_top" xlink:title="UBWebController::onOEmbed\lParsed">
<polygon fill="white" stroke="red" points="1203,-52 1203,-86 1351,-86 1351,-52 1203,-52"/>
<text text-anchor="start" x="1211" y="-73" font-family="Helvetica,sans-Serif" font-size="10.00">UBWebController::onOEmbed</text>
<text text-anchor="middle" x="1277" y="-60" font-family="Helvetica,sans-Serif" font-size="10.00">Parsed</text>
</a>
</g>
<!-- Node23&#45;&gt;Node25 -->
<g id="edge62" class="edge"><title>Node23&#45;&gt;Node25</title>
<path fill="none" stroke="midnightblue" d="M1166.23,-69C1178.44,-69 1190.86,-69 1202.76,-69"/>
<polygon fill="midnightblue" stroke="midnightblue" points="1166.05,-65.5001 1156.05,-69 1166.05,-72.5001 1166.05,-65.5001"/>
</g>
<!-- Node27 -->
<g id="node60" class="node"><title>Node27</title>
<a xlink:href="../../d8/d2c/class_u_b_graphics_widget_item_delegate.html#a79bf31a6cda75de23b70469270de5bd9" target="_top" xlink:title="UBGraphicsWidgetItemDelegate\l::decorateMenu">
<polygon fill="white" stroke="black" points="790.5,-266 790.5,-300 949.5,-300 949.5,-266 790.5,-266"/>
<text text-anchor="start" x="798.5" y="-287" font-family="Helvetica,sans-Serif" font-size="10.00">UBGraphicsWidgetItemDelegate</text>
<text text-anchor="middle" x="870" y="-274" font-family="Helvetica,sans-Serif" font-size="10.00">::decorateMenu</text>
</a>
</g>
<!-- Node26&#45;&gt;Node27 -->
<g id="edge66" class="edge"><title>Node26&#45;&gt;Node27</title>
<path fill="none" stroke="midnightblue" d="M752.325,-283C765.01,-283 777.863,-283 790.184,-283"/>
<polygon fill="midnightblue" stroke="midnightblue" points="752.202,-279.5 742.202,-283 752.202,-286.5 752.202,-279.5"/>
</g>
<!-- Node29 -->
<g id="node64" class="node"><title>Node29</title>
<a xlink:href="../../dd/dd5/class_u_b_graphics_item_delegate.html#a1de77276aba7276defacd0b87c9b87c7" target="_top" xlink:title="UBGraphicsItemDelegate\l::init">
<polygon fill="white" stroke="black" points="589,-582 589,-616 717,-616 717,-582 589,-582"/>
<text text-anchor="start" x="597" y="-603" font-family="Helvetica,sans-Serif" font-size="10.00">UBGraphicsItemDelegate</text>
<text text-anchor="middle" x="653" y="-590" font-family="Helvetica,sans-Serif" font-size="10.00">::init</text>
</a>
</g>
<!-- Node28&#45;&gt;Node29 -->
<g id="edge70" class="edge"><title>Node28&#45;&gt;Node29</title>
<path fill="none" stroke="midnightblue" d="M497.239,-544.411C530.784,-556.167 572.462,-570.774 604.262,-581.919"/>
<polygon fill="midnightblue" stroke="midnightblue" points="498.155,-541.023 487.56,-541.019 495.84,-547.629 498.155,-541.023"/>
</g>
<!-- Node30 -->
<g id="node66" class="node"><title>Node30</title>
<a xlink:href="../../de/d93/class_u_b_graphics_group_container_item.html#a2aaeb364079830d1720110c30f999ec8" target="_top" xlink:title="UBGraphicsGroupContainer\lItem::UBGraphicsGroupContainerItem">
<polygon fill="white" stroke="black" points="778.5,-432 778.5,-466 961.5,-466 961.5,-432 778.5,-432"/>
<text text-anchor="start" x="786.5" y="-453" font-family="Helvetica,sans-Serif" font-size="10.00">UBGraphicsGroupContainer</text>
<text text-anchor="middle" x="870" y="-440" font-family="Helvetica,sans-Serif" font-size="10.00">Item::UBGraphicsGroupContainerItem</text>
</a>
</g>
<!-- Node29&#45;&gt;Node30 -->
<g id="edge72" class="edge"><title>Node29&#45;&gt;Node30</title>
<path fill="none" stroke="midnightblue" d="M671.934,-573.665C694.271,-545.529 733.98,-500.698 778,-475 783.734,-471.653 789.922,-468.717 796.282,-466.145"/>
<polygon fill="midnightblue" stroke="midnightblue" points="668.964,-571.782 665.574,-581.821 674.484,-576.087 668.964,-571.782"/>
</g>
<!-- Node32 -->
<g id="node70" class="node"><title>Node32</title>
<a xlink:href="../../dc/d5a/class_u_b_graphics_media_item.html#aa92cf921e88af8b52b4c7ed6466dd2d5" target="_top" xlink:title="UBGraphicsMediaItem\l::UBGraphicsMediaItem">
<polygon fill="white" stroke="black" points="809,-784 809,-818 931,-818 931,-784 809,-784"/>
<text text-anchor="start" x="817" y="-805" font-family="Helvetica,sans-Serif" font-size="10.00">UBGraphicsMediaItem</text>
<text text-anchor="middle" x="870" y="-792" font-family="Helvetica,sans-Serif" font-size="10.00">::UBGraphicsMediaItem</text>
</a>
</g>
<!-- Node29&#45;&gt;Node32 -->
<g id="edge76" class="edge"><title>Node29&#45;&gt;Node32</title>
<path fill="none" stroke="midnightblue" d="M664.582,-625.304C682.969,-663.99 722.523,-735.867 778,-775 787.223,-781.506 798.037,-786.39 808.947,-790.055"/>
<polygon fill="midnightblue" stroke="midnightblue" points="667.752,-623.82 660.366,-616.224 661.402,-626.768 667.752,-623.82"/>
</g>
<!-- Node34 -->
<g id="node74" class="node"><title>Node34</title>
<a xlink:href="../../d9/d0d/class_u_b_graphics_p_d_f_item.html#ae55063d3348b81ea8388df72069713b9" target="_top" xlink:title="UBGraphicsPDFItem:\l:UBGraphicsPDFItem">
<polygon fill="white" stroke="black" points="813.5,-732 813.5,-766 926.5,-766 926.5,-732 813.5,-732"/>
<text text-anchor="start" x="821.5" y="-753" font-family="Helvetica,sans-Serif" font-size="10.00">UBGraphicsPDFItem:</text>
<text text-anchor="middle" x="870" y="-740" font-family="Helvetica,sans-Serif" font-size="10.00">:UBGraphicsPDFItem</text>
</a>
</g>
<!-- Node29&#45;&gt;Node34 -->
<g id="edge80" class="edge"><title>Node29&#45;&gt;Node34</title>
<path fill="none" stroke="midnightblue" d="M671.934,-624.335C694.271,-652.471 733.98,-697.302 778,-723 788.751,-729.276 801.098,-734.106 813.185,-737.799"/>
<polygon fill="midnightblue" stroke="midnightblue" points="674.484,-621.913 665.574,-616.179 668.964,-626.218 674.484,-621.913"/>
</g>
<!-- Node36 -->
<g id="node78" class="node"><title>Node36</title>
<a xlink:href="../../d1/d78/class_u_b_graphics_pixmap_item.html#ad154326709d1935d96248228d21b20ae" target="_top" xlink:title="UBGraphicsPixmapItem\l::UBGraphicsPixmapItem">
<polygon fill="white" stroke="black" points="806,-680 806,-714 934,-714 934,-680 806,-680"/>
<text text-anchor="start" x="814" y="-701" font-family="Helvetica,sans-Serif" font-size="10.00">UBGraphicsPixmapItem</text>
<text text-anchor="middle" x="870" y="-688" font-family="Helvetica,sans-Serif" font-size="10.00">::UBGraphicsPixmapItem</text>
</a>
</g>
<!-- Node29&#45;&gt;Node36 -->
<g id="edge84" class="edge"><title>Node29&#45;&gt;Node36</title>
<path fill="none" stroke="midnightblue" d="M686.927,-621.619C711.422,-637.172 745.732,-657.395 778,-671 786.871,-674.74 796.444,-678.12 805.947,-681.111"/>
<polygon fill="midnightblue" stroke="midnightblue" points="688.674,-618.582 678.368,-616.122 684.89,-624.471 688.674,-618.582"/>
</g>
<!-- Node38 -->
<g id="node82" class="node"><title>Node38</title>
<a xlink:href="../../d3/d0b/class_u_b_graphics_strokes_group.html#ab3978d4c4d489c27f90baf64a506f1d8" target="_top" xlink:title="UBGraphicsStrokesGroup\l::UBGraphicsStrokesGroup">
<polygon fill="white" stroke="black" points="802,-628 802,-662 938,-662 938,-628 802,-628"/>
<text text-anchor="start" x="810" y="-649" font-family="Helvetica,sans-Serif" font-size="10.00">UBGraphicsStrokesGroup</text>
<text text-anchor="middle" x="870" y="-636" font-family="Helvetica,sans-Serif" font-size="10.00">::UBGraphicsStrokesGroup</text>
</a>
</g>
<!-- Node29&#45;&gt;Node38 -->
<g id="edge88" class="edge"><title>Node29&#45;&gt;Node38</title>
<path fill="none" stroke="midnightblue" d="M727.071,-614.702C751.276,-619.833 778.031,-625.504 801.784,-630.539"/>
<polygon fill="midnightblue" stroke="midnightblue" points="727.735,-611.265 717.226,-612.615 726.283,-618.113 727.735,-611.265"/>
</g>
<!-- Node40 -->
<g id="node86" class="node"><title>Node40</title>
<a xlink:href="../../d1/dce/class_u_b_graphics_svg_item.html#aefe5ca00c7f91a56938b35611149a779" target="_top" xlink:title="UBGraphicsSvgItem::init">
<polygon fill="white" stroke="black" points="807.5,-588.5 807.5,-609.5 932.5,-609.5 932.5,-588.5 807.5,-588.5"/>
<text text-anchor="middle" x="870" y="-596.5" font-family="Helvetica,sans-Serif" font-size="10.00">UBGraphicsSvgItem::init</text>
</a>
</g>
<!-- Node29&#45;&gt;Node40 -->
<g id="edge92" class="edge"><title>Node29&#45;&gt;Node40</title>
<path fill="none" stroke="midnightblue" d="M727.43,-599C753.482,-599 782.449,-599 807.433,-599"/>
<polygon fill="midnightblue" stroke="midnightblue" points="727.226,-595.5 717.226,-599 727.226,-602.5 727.226,-595.5"/>
</g>
<!-- Node43 -->
<g id="node92" class="node"><title>Node43</title>
<a xlink:href="../../da/d65/class_u_b_graphics_text_item.html#acbf06a6d840ac7b6c95950e39dcd94b9" target="_top" xlink:title="UBGraphicsTextItem\l::UBGraphicsTextItem">
<polygon fill="white" stroke="black" points="812.5,-536 812.5,-570 927.5,-570 927.5,-536 812.5,-536"/>
<text text-anchor="start" x="820.5" y="-557" font-family="Helvetica,sans-Serif" font-size="10.00">UBGraphicsTextItem</text>
<text text-anchor="middle" x="870" y="-544" font-family="Helvetica,sans-Serif" font-size="10.00">::UBGraphicsTextItem</text>
</a>
</g>
<!-- Node29&#45;&gt;Node43 -->
<g id="edge98" class="edge"><title>Node29&#45;&gt;Node43</title>
<path fill="none" stroke="midnightblue" d="M727.291,-583.252C755.06,-577.365 786.16,-570.773 812.221,-565.248"/>
<polygon fill="midnightblue" stroke="midnightblue" points="726.283,-579.887 717.226,-585.385 727.735,-586.735 726.283,-579.887"/>
</g>
<!-- Node45 -->
<g id="node96" class="node"><title>Node45</title>
<a xlink:href="../../d0/d16/class_u_b_graphics_widget_item.html#ac1a304e8be3f2ece6dd370210f25c90b" target="_top" xlink:title="UBGraphicsWidgetItem\l::UBGraphicsWidgetItem">
<polygon fill="white" stroke="black" points="807,-484 807,-518 933,-518 933,-484 807,-484"/>
<text text-anchor="start" x="815" y="-505" font-family="Helvetica,sans-Serif" font-size="10.00">UBGraphicsWidgetItem</text>
<text text-anchor="middle" x="870" y="-492" font-family="Helvetica,sans-Serif" font-size="10.00">::UBGraphicsWidgetItem</text>
</a>
</g>
<!-- Node29&#45;&gt;Node45 -->
<g id="edge102" class="edge"><title>Node29&#45;&gt;Node45</title>
<path fill="none" stroke="midnightblue" d="M686.927,-576.381C711.422,-560.828 745.732,-540.605 778,-527 787.176,-523.131 797.105,-519.647 806.929,-516.581"/>
<polygon fill="midnightblue" stroke="midnightblue" points="684.89,-573.529 678.368,-581.878 688.674,-579.418 684.89,-573.529"/>
</g>
<!-- Node31 -->
<g id="node68" class="node"><title>Node31</title>
<a xlink:href="../../de/d93/class_u_b_graphics_group_container_item.html#aeb38fce11d606a6a0c97544ff5fa776f" target="_top" xlink:title="UBGraphicsGroupContainer\lItem::deepCopy">
<polygon fill="white" stroke="black" points="1008,-432 1008,-466 1146,-466 1146,-432 1008,-432"/>
<text text-anchor="start" x="1016" y="-453" font-family="Helvetica,sans-Serif" font-size="10.00">UBGraphicsGroupContainer</text>
<text text-anchor="middle" x="1077" y="-440" font-family="Helvetica,sans-Serif" font-size="10.00">Item::deepCopy</text>
</a>
</g>
<!-- Node30&#45;&gt;Node31 -->
<g id="edge74" class="edge"><title>Node30&#45;&gt;Node31</title>
<path fill="none" stroke="midnightblue" d="M971.882,-449C984.033,-449 996.213,-449 1007.75,-449"/>
<polygon fill="midnightblue" stroke="midnightblue" points="971.697,-445.5 961.697,-449 971.697,-452.5 971.697,-445.5"/>
</g>
<!-- Node33 -->
<g id="node72" class="node"><title>Node33</title>
<a xlink:href="../../dc/d5a/class_u_b_graphics_media_item.html#a8adbf02f86a23b2d2884efe8855e0556" target="_top" xlink:title="UBGraphicsMediaItem\l::deepCopy">
<polygon fill="white" stroke="black" points="1019,-784 1019,-818 1135,-818 1135,-784 1019,-784"/>
<text text-anchor="start" x="1027" y="-805" font-family="Helvetica,sans-Serif" font-size="10.00">UBGraphicsMediaItem</text>
<text text-anchor="middle" x="1077" y="-792" font-family="Helvetica,sans-Serif" font-size="10.00">::deepCopy</text>
</a>
</g>
<!-- Node32&#45;&gt;Node33 -->
<g id="edge78" class="edge"><title>Node32&#45;&gt;Node33</title>
<path fill="none" stroke="midnightblue" d="M941.51,-801C966.723,-801 994.745,-801 1018.73,-801"/>
<polygon fill="midnightblue" stroke="midnightblue" points="941.267,-797.5 931.267,-801 941.267,-804.5 941.267,-797.5"/>
</g>
<!-- Node35 -->
<g id="node76" class="node"><title>Node35</title>
<a xlink:href="../../d9/d0d/class_u_b_graphics_p_d_f_item.html#a128b9926bef054d7246dfcd356571f36" target="_top" xlink:title="UBGraphicsPDFItem:\l:deepCopy">
<polygon fill="white" stroke="black" points="1020.5,-732 1020.5,-766 1133.5,-766 1133.5,-732 1020.5,-732"/>
<text text-anchor="start" x="1028.5" y="-753" font-family="Helvetica,sans-Serif" font-size="10.00">UBGraphicsPDFItem:</text>
<text text-anchor="middle" x="1077" y="-740" font-family="Helvetica,sans-Serif" font-size="10.00">:deepCopy</text>
</a>
</g>
<!-- Node34&#45;&gt;Node35 -->
<g id="edge82" class="edge"><title>Node34&#45;&gt;Node35</title>
<path fill="none" stroke="midnightblue" d="M936.673,-749C963.584,-749 994.315,-749 1020.15,-749"/>
<polygon fill="midnightblue" stroke="midnightblue" points="936.564,-745.5 926.564,-749 936.564,-752.5 936.564,-745.5"/>
</g>
<!-- Node37 -->
<g id="node80" class="node"><title>Node37</title>
<a xlink:href="../../d1/d78/class_u_b_graphics_pixmap_item.html#a1b0fbc4ae6ba2796e5cccb0ea16b8c70" target="_top" xlink:title="UBGraphicsPixmapItem\l::deepCopy">
<polygon fill="white" stroke="black" points="1016,-680 1016,-714 1138,-714 1138,-680 1016,-680"/>
<text text-anchor="start" x="1024" y="-701" font-family="Helvetica,sans-Serif" font-size="10.00">UBGraphicsPixmapItem</text>
<text text-anchor="middle" x="1077" y="-688" font-family="Helvetica,sans-Serif" font-size="10.00">::deepCopy</text>
</a>
</g>
<!-- Node36&#45;&gt;Node37 -->
<g id="edge86" class="edge"><title>Node36&#45;&gt;Node37</title>
<path fill="none" stroke="midnightblue" d="M944.312,-697C967.723,-697 993.303,-697 1015.7,-697"/>
<polygon fill="midnightblue" stroke="midnightblue" points="944.079,-693.5 934.078,-697 944.078,-700.5 944.079,-693.5"/>
</g>
<!-- Node39 -->
<g id="node84" class="node"><title>Node39</title>
<a xlink:href="../../d3/d0b/class_u_b_graphics_strokes_group.html#a4932a359f046811fc1d555d5d6b49b38" target="_top" xlink:title="UBGraphicsStrokesGroup\l::deepCopy">
<polygon fill="white" stroke="black" points="1012,-628 1012,-662 1142,-662 1142,-628 1012,-628"/>
<text text-anchor="start" x="1020" y="-649" font-family="Helvetica,sans-Serif" font-size="10.00">UBGraphicsStrokesGroup</text>
<text text-anchor="middle" x="1077" y="-636" font-family="Helvetica,sans-Serif" font-size="10.00">::deepCopy</text>
</a>
</g>
<!-- Node38&#45;&gt;Node39 -->
<g id="edge90" class="edge"><title>Node38&#45;&gt;Node39</title>
<path fill="none" stroke="midnightblue" d="M948.209,-645C969.145,-645 991.551,-645 1011.71,-645"/>
<polygon fill="midnightblue" stroke="midnightblue" points="948.066,-641.5 938.066,-645 948.066,-648.5 948.066,-641.5"/>
</g>
<!-- Node41 -->
<g id="node88" class="node"><title>Node41</title>
<a xlink:href="../../d1/dce/class_u_b_graphics_svg_item.html#a47ac7a4adf4bb678692aa98cc30809bf" target="_top" xlink:title="UBGraphicsSvgItem:\l:UBGraphicsSvgItem">
<polygon fill="white" stroke="black" points="1022,-576 1022,-610 1132,-610 1132,-576 1022,-576"/>
<text text-anchor="start" x="1030" y="-597" font-family="Helvetica,sans-Serif" font-size="10.00">UBGraphicsSvgItem:</text>
<text text-anchor="middle" x="1077" y="-584" font-family="Helvetica,sans-Serif" font-size="10.00">:UBGraphicsSvgItem</text>
</a>
</g>
<!-- Node40&#45;&gt;Node41 -->
<g id="edge94" class="edge"><title>Node40&#45;&gt;Node41</title>
<path fill="none" stroke="midnightblue" d="M942.851,-596.888C968.841,-596.135 997.665,-595.3 1021.91,-594.597"/>
<polygon fill="midnightblue" stroke="midnightblue" points="942.563,-593.395 932.669,-597.184 942.766,-600.392 942.563,-593.395"/>
</g>
<!-- Node42 -->
<g id="node90" class="node"><title>Node42</title>
<a xlink:href="../../d1/dce/class_u_b_graphics_svg_item.html#a312cf73a521c514c48a0e866771ba75e" target="_top" xlink:title="UBGraphicsSvgItem:\l:deepCopy">
<polygon fill="white" stroke="black" points="1222,-576 1222,-610 1332,-610 1332,-576 1222,-576"/>
<text text-anchor="start" x="1230" y="-597" font-family="Helvetica,sans-Serif" font-size="10.00">UBGraphicsSvgItem:</text>
<text text-anchor="middle" x="1277" y="-584" font-family="Helvetica,sans-Serif" font-size="10.00">:deepCopy</text>
</a>
</g>
<!-- Node41&#45;&gt;Node42 -->
<g id="edge96" class="edge"><title>Node41&#45;&gt;Node42</title>
<path fill="none" stroke="midnightblue" d="M1142.24,-593C1168.02,-593 1197.32,-593 1222,-593"/>
<polygon fill="midnightblue" stroke="midnightblue" points="1142.18,-589.5 1132.18,-593 1142.18,-596.5 1142.18,-589.5"/>
</g>
<!-- Node44 -->
<g id="node94" class="node"><title>Node44</title>
<a xlink:href="../../da/d65/class_u_b_graphics_text_item.html#a6be4507f88dccb25e1e063ec36cf6f47" target="_top" xlink:title="UBGraphicsTextItem\l::deepCopy">
<polygon fill="white" stroke="black" points="1022.5,-524 1022.5,-558 1131.5,-558 1131.5,-524 1022.5,-524"/>
<text text-anchor="start" x="1030.5" y="-545" font-family="Helvetica,sans-Serif" font-size="10.00">UBGraphicsTextItem</text>
<text text-anchor="middle" x="1077" y="-532" font-family="Helvetica,sans-Serif" font-size="10.00">::deepCopy</text>
</a>
</g>
<!-- Node43&#45;&gt;Node44 -->
<g id="edge100" class="edge"><title>Node43&#45;&gt;Node44</title>
<path fill="none" stroke="midnightblue" d="M937.967,-549.06C965.39,-547.47 996.602,-545.661 1022.49,-544.16"/>
<polygon fill="midnightblue" stroke="midnightblue" points="937.442,-545.584 927.661,-549.657 937.847,-552.573 937.442,-545.584"/>
</g>
<!-- Node47 -->
<g id="node100" class="node"><title>Node47</title>
<a xlink:href="../../da/d14/class_u_b_application_controller.html#a3def02974385510d3173e6f2d4fc9332" target="_top" xlink:title="UBApplicationController\l::actionCut">
<polygon fill="white" stroke="black" points="378.5,-214 378.5,-248 499.5,-248 499.5,-214 378.5,-214"/>
<text text-anchor="start" x="386.5" y="-235" font-family="Helvetica,sans-Serif" font-size="10.00">UBApplicationController</text>
<text text-anchor="middle" x="439" y="-222" font-family="Helvetica,sans-Serif" font-size="10.00">::actionCut</text>
</a>
</g>
<!-- Node46&#45;&gt;Node47 -->
<g id="edge106" class="edge"><title>Node46&#45;&gt;Node47</title>
<path fill="none" stroke="midnightblue" d="M295.135,-231C321.957,-231 352.4,-231 378.352,-231"/>
<polygon fill="midnightblue" stroke="midnightblue" points="295.05,-227.5 285.05,-231 295.049,-234.5 295.05,-227.5"/>
</g>
<!-- Node49 -->
<g id="node104" class="node"><title>Node49</title>
<a xlink:href="../../d1/df2/class_u_b_document_tree_widget.html#aa309286550f7287e879b4e21b7036f22" target="_top" xlink:title="UBDocumentTreeWidget\l::dropEvent">
<polygon fill="white" stroke="black" points="376,-162 376,-196 502,-196 502,-162 376,-162"/>
<text text-anchor="start" x="384" y="-183" font-family="Helvetica,sans-Serif" font-size="10.00">UBDocumentTreeWidget</text>
<text text-anchor="middle" x="439" y="-170" font-family="Helvetica,sans-Serif" font-size="10.00">::dropEvent</text>
</a>
</g>
<!-- Node48&#45;&gt;Node49 -->
<g id="edge110" class="edge"><title>Node48&#45;&gt;Node49</title>
<path fill="none" stroke="midnightblue" d="M324.431,-179C341.936,-179 359.733,-179 375.916,-179"/>
<polygon fill="midnightblue" stroke="midnightblue" points="324.173,-175.5 314.173,-179 324.173,-182.5 324.173,-175.5"/>
</g>
<!-- Node50 -->
<g id="node106" class="node"><title>Node50</title>
<a xlink:href="../../dc/db2/class_u_b_graphics_scene.html#a27b80506198fc72a3039c90ebef7a0d3" target="_top" xlink:title="UBGraphicsScene::deepCopy">
<polygon fill="white" stroke="black" points="365,-122.5 365,-143.5 513,-143.5 513,-122.5 365,-122.5"/>
<text text-anchor="middle" x="439" y="-130.5" font-family="Helvetica,sans-Serif" font-size="10.00">UBGraphicsScene::deepCopy</text>
</a>
</g>
<!-- Node48&#45;&gt;Node50 -->
<g id="edge112" class="edge"><title>Node48&#45;&gt;Node50</title>
<path fill="none" stroke="midnightblue" d="M284.895,-166.281C318.076,-159.115 359.018,-150.273 390.361,-143.504"/>
<polygon fill="midnightblue" stroke="midnightblue" points="283.902,-162.915 274.867,-168.447 285.38,-169.757 283.902,-162.915"/>
</g>
</g>
</svg>
