<?xml version="1.0" encoding="UTF-8" standalone="no"?>
<!DOCTYPE svg PUBLIC "-//W3C//DTD SVG 1.1//EN"
 "http://www.w3.org/Graphics/SVG/1.1/DTD/svg11.dtd">
<!-- Generated by graphviz version 2.26.3 (20100126.1600)
 -->
<!-- Title: UBMagnifier::grabPoint Pages: 1 -->
<svg width="1826pt" height="777pt"
 viewBox="0.00 0.00 1826.00 777.00" xmlns="http://www.w3.org/2000/svg" xmlns:xlink="http://www.w3.org/1999/xlink">
<g id="graph1" class="graph" transform="scale(1 1) rotate(0) translate(4 773)">
<title>UBMagnifier::grabPoint</title>
<polygon fill="white" stroke="white" points="-4,5 -4,-773 1823,-773 1823,5 -4,5"/>
<!-- Node1 -->
<g id="node1" class="node"><title>Node1</title>
<polygon fill="#bfbfbf" stroke="black" points="0,-235.5 0,-256.5 118,-256.5 118,-235.5 0,-235.5"/>
<text text-anchor="middle" x="59" y="-243.5" font-family="Helvetica,sans-Serif" font-size="10.00">UBMagnifier::grabPoint</text>
</g>
<!-- Node2 -->
<g id="node3" class="node"><title>Node2</title>
<a xlink:href="../../dc/db2/class_u_b_graphics_scene.html#a8bded4f617b9d1d9cbd10e1b4c7545bf" target="_top" xlink:title="UBGraphicsScene::resized\lMagnifier">
<polygon fill="white" stroke="black" points="154.5,-275 154.5,-309 289.5,-309 289.5,-275 154.5,-275"/>
<text text-anchor="start" x="162.5" y="-296" font-family="Helvetica,sans-Serif" font-size="10.00">UBGraphicsScene::resized</text>
<text text-anchor="middle" x="222" y="-283" font-family="Helvetica,sans-Serif" font-size="10.00">Magnifier</text>
</a>
</g>
<!-- Node1&#45;&gt;Node2 -->
<g id="edge2" class="edge"><title>Node1&#45;&gt;Node2</title>
<path fill="none" stroke="midnightblue" d="M106.229,-259.328C123.472,-264.195 143.218,-269.767 161.461,-274.915"/>
<polygon fill="midnightblue" stroke="midnightblue" points="106.97,-255.901 96.3955,-256.553 105.069,-262.638 106.97,-255.901"/>
</g>
<!-- Node47 -->
<g id="node100" class="node"><title>Node47</title>
<a xlink:href="../../d4/d9d/class_u_b_magnifier.html#a7497d3351ddbded1b3904d2700517f9a" target="_top" xlink:title="UBMagnifier::slot_refresh">
<polygon fill="white" stroke="black" points="158,-195.5 158,-216.5 286,-216.5 286,-195.5 158,-195.5"/>
<text text-anchor="middle" x="222" y="-203.5" font-family="Helvetica,sans-Serif" font-size="10.00">UBMagnifier::slot_refresh</text>
</a>
</g>
<!-- Node1&#45;&gt;Node47 -->
<g id="edge106" class="edge"><title>Node1&#45;&gt;Node47</title>
<path fill="none" stroke="midnightblue" d="M111.612,-233.089C133.457,-227.728 158.483,-221.587 179.177,-216.509"/>
<polygon fill="midnightblue" stroke="midnightblue" points="110.704,-229.708 101.826,-235.49 112.372,-236.506 110.704,-229.708"/>
</g>
<!-- Node49 -->
<g id="node104" class="node"><title>Node49</title>
<a xlink:href="../../d4/d9d/class_u_b_magnifier.html#a7c812efaba0f2f45dce91f7984f30dc3" target="_top" xlink:title="UBMagnifier::grabNMove">
<polygon fill="white" stroke="black" points="158.5,-235.5 158.5,-256.5 285.5,-256.5 285.5,-235.5 158.5,-235.5"/>
<text text-anchor="middle" x="222" y="-243.5" font-family="Helvetica,sans-Serif" font-size="10.00">UBMagnifier::grabNMove</text>
</a>
</g>
<!-- Node1&#45;&gt;Node49 -->
<g id="edge110" class="edge"><title>Node1&#45;&gt;Node49</title>
<path fill="none" stroke="midnightblue" d="M128.513,-246C138.415,-246 148.557,-246 158.339,-246"/>
<polygon fill="midnightblue" stroke="midnightblue" points="128.308,-242.5 118.308,-246 128.308,-249.5 128.308,-242.5"/>
</g>
<!-- Node3 -->
<g id="node5" class="node"><title>Node3</title>
<a xlink:href="../../dc/db2/class_u_b_graphics_scene.html#a68db5657dde886826bad2e633db1c703" target="_top" xlink:title="UBGraphicsScene::addMagnifier">
<polygon fill="white" stroke="black" points="330.5,-278.5 330.5,-299.5 489.5,-299.5 489.5,-278.5 330.5,-278.5"/>
<text text-anchor="middle" x="410" y="-286.5" font-family="Helvetica,sans-Serif" font-size="10.00">UBGraphicsScene::addMagnifier</text>
</a>
</g>
<!-- Node2&#45;&gt;Node3 -->
<g id="edge4" class="edge"><title>Node2&#45;&gt;Node3</title>
<path fill="none" stroke="midnightblue" d="M299.914,-290.757C309.911,-290.597 320.158,-290.434 330.184,-290.274"/>
<polygon fill="midnightblue" stroke="midnightblue" points="299.55,-287.262 289.607,-290.921 299.661,-294.261 299.55,-287.262"/>
</g>
<!-- Node4 -->
<g id="node7" class="node"><title>Node4</title>
<a xlink:href="../../d7/d62/class_u_b_board_controller.html#ab6cbc7bda85279e7eee5c5923892dd1a" target="_top" xlink:title="UBBoardController:\l:downloadFinished">
<polygon fill="white" stroke="black" points="530.5,-272 530.5,-306 631.5,-306 631.5,-272 530.5,-272"/>
<text text-anchor="start" x="538.5" y="-293" font-family="Helvetica,sans-Serif" font-size="10.00">UBBoardController:</text>
<text text-anchor="middle" x="581" y="-280" font-family="Helvetica,sans-Serif" font-size="10.00">:downloadFinished</text>
</a>
</g>
<!-- Node3&#45;&gt;Node4 -->
<g id="edge6" class="edge"><title>Node3&#45;&gt;Node4</title>
<path fill="none" stroke="midnightblue" d="M499.753,-289C510.188,-289 520.538,-289 530.18,-289"/>
<polygon fill="midnightblue" stroke="midnightblue" points="499.743,-285.5 489.743,-289 499.743,-292.5 499.743,-285.5"/>
</g>
<!-- Node5 -->
<g id="node9" class="node"><title>Node5</title>
<a xlink:href="../../d7/d62/class_u_b_board_controller.html#aa728cb7c1b979b2d4ae45638a7386dde" target="_top" xlink:title="UBBoardController::init">
<polygon fill="white" stroke="black" points="668.5,-541.5 668.5,-562.5 785.5,-562.5 785.5,-541.5 668.5,-541.5"/>
<text text-anchor="middle" x="727" y="-549.5" font-family="Helvetica,sans-Serif" font-size="10.00">UBBoardController::init</text>
</a>
</g>
<!-- Node4&#45;&gt;Node5 -->
<g id="edge8" class="edge"><title>Node4&#45;&gt;Node5</title>
<path fill="none" stroke="midnightblue" d="M583.868,-316.13C590.352,-364.536 610.364,-466.387 668,-527 673.826,-533.127 681.393,-537.819 689.153,-541.389"/>
<polygon fill="midnightblue" stroke="midnightblue" points="587.329,-315.595 582.619,-306.105 580.383,-316.461 587.329,-315.595"/>
</g>
<!-- Node8 -->
<g id="node15" class="node"><title>Node8</title>
<a xlink:href="../../d7/d62/class_u_b_board_controller.html#abae2655269e06f72767de71b8513f6be" target="_top" xlink:title="UBBoardController:\l:duplicateItem">
<polygon fill="white" stroke="black" points="858.5,-451 858.5,-485 959.5,-485 959.5,-451 858.5,-451"/>
<text text-anchor="start" x="866.5" y="-472" font-family="Helvetica,sans-Serif" font-size="10.00">UBBoardController:</text>
<text text-anchor="middle" x="909" y="-459" font-family="Helvetica,sans-Serif" font-size="10.00">:duplicateItem</text>
</a>
</g>
<!-- Node4&#45;&gt;Node8 -->
<g id="edge14" class="edge"><title>Node4&#45;&gt;Node8</title>
<path fill="none" stroke="midnightblue" d="M611.414,-312.224C655.655,-345.069 741.306,-405.185 822,-442 833.474,-447.235 846.272,-451.737 858.448,-455.453"/>
<polygon fill="midnightblue" stroke="midnightblue" points="613.494,-309.409 603.388,-306.226 609.304,-315.016 613.494,-309.409"/>
</g>
<!-- Node37 -->
<g id="node78" class="node"><title>Node37</title>
<a xlink:href="../../d7/d62/class_u_b_board_controller.html#a358f3f88d1fa9e41620170d76a806f93" target="_top" xlink:title="UBBoardController:\l:downloadURL">
<polygon fill="white" stroke="black" points="676.5,-272 676.5,-306 777.5,-306 777.5,-272 676.5,-272"/>
<text text-anchor="start" x="684.5" y="-293" font-family="Helvetica,sans-Serif" font-size="10.00">UBBoardController:</text>
<text text-anchor="middle" x="727" y="-280" font-family="Helvetica,sans-Serif" font-size="10.00">:downloadURL</text>
</a>
</g>
<!-- Node4&#45;&gt;Node37 -->
<g id="edge82" class="edge"><title>Node4&#45;&gt;Node37</title>
<path fill="none" stroke="midnightblue" d="M641.676,-289C653.24,-289 665.228,-289 676.436,-289"/>
<polygon fill="midnightblue" stroke="midnightblue" points="641.654,-285.5 631.654,-289 641.654,-292.5 641.654,-285.5"/>
</g>
<!-- Node6 -->
<g id="node11" class="node"><title>Node6</title>
<a xlink:href="../../d8/d81/class_u_b_application.html#add1469239e71bf24fdc61413a42a38bd" target="_top" xlink:title="UBApplication::exec">
<polygon fill="white" stroke="black" points="856,-541.5 856,-562.5 962,-562.5 962,-541.5 856,-541.5"/>
<text text-anchor="middle" x="909" y="-549.5" font-family="Helvetica,sans-Serif" font-size="10.00">UBApplication::exec</text>
</a>
</g>
<!-- Node5&#45;&gt;Node6 -->
<g id="edge10" class="edge"><title>Node5&#45;&gt;Node6</title>
<path fill="none" stroke="midnightblue" d="M795.81,-552C815.659,-552 837.01,-552 855.76,-552"/>
<polygon fill="midnightblue" stroke="midnightblue" points="795.588,-548.5 785.588,-552 795.588,-555.5 795.588,-548.5"/>
</g>
<!-- Node7 -->
<g id="node13" class="node"><title>Node7</title>
<a xlink:href="../../df/d0a/main_8cpp.html#a0ddf1224851353fc92bfbff6f499fa97" target="_top" xlink:title="main">
<polygon fill="white" stroke="black" points="1102,-541.5 1102,-562.5 1140,-562.5 1140,-541.5 1102,-541.5"/>
<text text-anchor="middle" x="1121" y="-549.5" font-family="Helvetica,sans-Serif" font-size="10.00">main</text>
</a>
</g>
<!-- Node6&#45;&gt;Node7 -->
<g id="edge12" class="edge"><title>Node6&#45;&gt;Node7</title>
<path fill="none" stroke="midnightblue" d="M972.343,-552C1016.66,-552 1072.91,-552 1101.86,-552"/>
<polygon fill="midnightblue" stroke="midnightblue" points="972.223,-548.5 962.223,-552 972.223,-555.5 972.223,-548.5"/>
</g>
<!-- Node9 -->
<g id="node17" class="node"><title>Node9</title>
<a xlink:href="../../d7/d62/class_u_b_board_controller.html#a07e50010567075b570140d6143c516f5" target="_top" xlink:title="UBBoardController:\l:processMimeData">
<polygon fill="white" stroke="black" points="1070.5,-258 1070.5,-292 1171.5,-292 1171.5,-258 1070.5,-258"/>
<text text-anchor="start" x="1078.5" y="-279" font-family="Helvetica,sans-Serif" font-size="10.00">UBBoardController:</text>
<text text-anchor="middle" x="1121" y="-266" font-family="Helvetica,sans-Serif" font-size="10.00">:processMimeData</text>
</a>
</g>
<!-- Node8&#45;&gt;Node9 -->
<g id="edge16" class="edge"><title>Node8&#45;&gt;Node9</title>
<path fill="none" stroke="midnightblue" d="M969.119,-458.038C978.968,-454.277 988.416,-449.107 996,-442 1029.55,-410.557 1004.91,-382.161 1032,-345 1047.86,-323.236 1072.24,-304.719 1091.47,-292.207"/>
<polygon fill="midnightblue" stroke="midnightblue" points="967.97,-454.731 959.601,-461.228 970.195,-461.368 967.97,-454.731"/>
</g>
<!-- Node13 -->
<g id="node25" class="node"><title>Node13</title>
<a xlink:href="../../d7/d62/class_u_b_board_controller.html#af713d6e325369af244f2af8c90299a35" target="_top" xlink:title="UBBoardController:\l:moveGraphicsWidgetToControlView">
<polygon fill="white" stroke="black" points="1032,-354 1032,-388 1210,-388 1210,-354 1032,-354"/>
<text text-anchor="start" x="1040" y="-375" font-family="Helvetica,sans-Serif" font-size="10.00">UBBoardController:</text>
<text text-anchor="middle" x="1121" y="-362" font-family="Helvetica,sans-Serif" font-size="10.00">:moveGraphicsWidgetToControlView</text>
</a>
</g>
<!-- Node8&#45;&gt;Node13 -->
<g id="edge24" class="edge"><title>Node8&#45;&gt;Node13</title>
<path fill="none" stroke="midnightblue" d="M969.528,-451.844C978.522,-448.889 987.589,-445.591 996,-442 1031.81,-426.714 1070.39,-403.693 1095.07,-388.04"/>
<polygon fill="midnightblue" stroke="midnightblue" points="968.31,-448.558 959.832,-454.912 970.422,-455.232 968.31,-448.558"/>
</g>
<!-- Node23 -->
<g id="node50" class="node"><title>Node23</title>
<a xlink:href="../../dd/dd5/class_u_b_graphics_item_delegate.html#a525c69cb3c3c0df6c4db4d406fd80e48" target="_top" xlink:title="UBGraphicsItemDelegate\l::duplicate">
<polygon fill="white" stroke="black" points="1057,-451 1057,-485 1185,-485 1185,-451 1057,-451"/>
<text text-anchor="start" x="1065" y="-472" font-family="Helvetica,sans-Serif" font-size="10.00">UBGraphicsItemDelegate</text>
<text text-anchor="middle" x="1121" y="-459" font-family="Helvetica,sans-Serif" font-size="10.00">::duplicate</text>
</a>
</g>
<!-- Node8&#45;&gt;Node23 -->
<g id="edge54" class="edge"><title>Node8&#45;&gt;Node23</title>
<path fill="none" stroke="midnightblue" d="M969.696,-468C996.954,-468 1029.14,-468 1056.8,-468"/>
<polygon fill="midnightblue" stroke="midnightblue" points="969.51,-464.5 959.51,-468 969.51,-471.5 969.51,-464.5"/>
</g>
<!-- Node10 -->
<g id="node19" class="node"><title>Node10</title>
<a xlink:href="../../d7/d62/class_u_b_board_controller.html#a68518a98107e994551da0a4e3a79fe2c" target="_top" xlink:title="UBBoardController:\l:paste">
<polygon fill="white" stroke="black" points="1274.5,-258 1274.5,-292 1375.5,-292 1375.5,-258 1274.5,-258"/>
<text text-anchor="start" x="1282.5" y="-279" font-family="Helvetica,sans-Serif" font-size="10.00">UBBoardController:</text>
<text text-anchor="middle" x="1325" y="-266" font-family="Helvetica,sans-Serif" font-size="10.00">:paste</text>
</a>
</g>
<!-- Node9&#45;&gt;Node10 -->
<g id="edge18" class="edge"><title>Node9&#45;&gt;Node10</title>
<path fill="none" stroke="midnightblue" d="M1181.85,-275C1211.29,-275 1246.23,-275 1274.22,-275"/>
<polygon fill="midnightblue" stroke="midnightblue" points="1181.69,-271.5 1171.69,-275 1181.69,-278.5 1181.69,-271.5"/>
</g>
<!-- Node12 -->
<g id="node23" class="node"><title>Node12</title>
<a xlink:href="../../d1/d78/class_u_b_board_view.html#a1bb7794094c4bb04637b0df2bc0c0fa9" target="_top" xlink:title="UBBoardView::dropEvent">
<polygon fill="white" stroke="black" points="1261,-218.5 1261,-239.5 1389,-239.5 1389,-218.5 1261,-218.5"/>
<text text-anchor="middle" x="1325" y="-226.5" font-family="Helvetica,sans-Serif" font-size="10.00">UBBoardView::dropEvent</text>
</a>
</g>
<!-- Node9&#45;&gt;Node12 -->
<g id="edge22" class="edge"><title>Node9&#45;&gt;Node12</title>
<path fill="none" stroke="midnightblue" d="M1181.52,-261.354C1212.52,-254.364 1249.68,-245.984 1278.41,-239.505"/>
<polygon fill="midnightblue" stroke="midnightblue" points="1180.67,-257.956 1171.69,-263.57 1182.21,-264.785 1180.67,-257.956"/>
</g>
<!-- Node11 -->
<g id="node21" class="node"><title>Node11</title>
<a xlink:href="../../da/d14/class_u_b_application_controller.html#a6afa41e1bc0c178acaa89684b7e9db26" target="_top" xlink:title="UBApplicationController\l::actionPaste">
<polygon fill="white" stroke="black" points="1471.5,-126 1471.5,-160 1592.5,-160 1592.5,-126 1471.5,-126"/>
<text text-anchor="start" x="1479.5" y="-147" font-family="Helvetica,sans-Serif" font-size="10.00">UBApplicationController</text>
<text text-anchor="middle" x="1532" y="-134" font-family="Helvetica,sans-Serif" font-size="10.00">::actionPaste</text>
</a>
</g>
<!-- Node10&#45;&gt;Node11 -->
<g id="edge20" class="edge"><title>Node10&#45;&gt;Node11</title>
<path fill="none" stroke="midnightblue" d="M1385.09,-261.27C1391.96,-258.011 1398.47,-253.981 1404,-249 1432.98,-222.913 1410.47,-194.465 1440,-169 1448.92,-161.303 1459.97,-155.876 1471.29,-152.051"/>
<polygon fill="midnightblue" stroke="midnightblue" points="1383.44,-258.167 1375.56,-265.253 1386.14,-264.625 1383.44,-258.167"/>
</g>
<!-- Node14 -->
<g id="node27" class="node"><title>Node14</title>
<a xlink:href="../../dc/db2/class_u_b_graphics_scene.html#aa63a9c1b5eb1de5a0d06a0f2b449648a" target="_top" xlink:title="UBGraphicsScene::addGraphics\lWidget">
<polygon fill="white" stroke="black" points="1246,-316 1246,-350 1404,-350 1404,-316 1246,-316"/>
<text text-anchor="start" x="1254" y="-337" font-family="Helvetica,sans-Serif" font-size="10.00">UBGraphicsScene::addGraphics</text>
<text text-anchor="middle" x="1325" y="-324" font-family="Helvetica,sans-Serif" font-size="10.00">Widget</text>
</a>
</g>
<!-- Node13&#45;&gt;Node14 -->
<g id="edge26" class="edge"><title>Node13&#45;&gt;Node14</title>
<path fill="none" stroke="midnightblue" d="M1220.26,-352.51C1228.87,-350.906 1237.51,-349.297 1245.93,-347.729"/>
<polygon fill="midnightblue" stroke="midnightblue" points="1219.37,-349.116 1210.18,-354.388 1220.65,-355.997 1219.37,-349.116"/>
</g>
<!-- Node15 -->
<g id="node29" class="node"><title>Node15</title>
<a xlink:href="../../d7/d62/class_u_b_board_controller.html#af122a3bb14b0ef66b169be9fd0e5a2b3" target="_top" xlink:title="UBBoardController:\l:moveToolWidgetToScene">
<polygon fill="white" stroke="black" points="1466,-276 1466,-310 1598,-310 1598,-276 1466,-276"/>
<text text-anchor="start" x="1474" y="-297" font-family="Helvetica,sans-Serif" font-size="10.00">UBBoardController:</text>
<text text-anchor="middle" x="1532" y="-284" font-family="Helvetica,sans-Serif" font-size="10.00">:moveToolWidgetToScene</text>
</a>
</g>
<!-- Node14&#45;&gt;Node15 -->
<g id="edge28" class="edge"><title>Node14&#45;&gt;Node15</title>
<path fill="none" stroke="midnightblue" d="M1414.24,-315.756C1431.51,-312.419 1449.32,-308.977 1465.7,-305.812"/>
<polygon fill="midnightblue" stroke="midnightblue" points="1413.3,-312.373 1404.14,-317.706 1414.63,-319.246 1413.3,-312.373"/>
</g>
<!-- Node17 -->
<g id="node33" class="node"><title>Node17</title>
<a xlink:href="../../dc/db2/class_u_b_graphics_scene.html#aa86ec061e79ba18c2efe73a6bf10bf33" target="_top" xlink:title="UBGraphicsScene::addApple\lWidget">
<polygon fill="white" stroke="black" points="1460,-328 1460,-362 1604,-362 1604,-328 1460,-328"/>
<text text-anchor="start" x="1468" y="-349" font-family="Helvetica,sans-Serif" font-size="10.00">UBGraphicsScene::addApple</text>
<text text-anchor="middle" x="1532" y="-336" font-family="Helvetica,sans-Serif" font-size="10.00">Widget</text>
</a>
</g>
<!-- Node14&#45;&gt;Node17 -->
<g id="edge32" class="edge"><title>Node14&#45;&gt;Node17</title>
<path fill="none" stroke="midnightblue" d="M1414.51,-338.189C1429.61,-339.064 1445.11,-339.963 1459.69,-340.808"/>
<polygon fill="midnightblue" stroke="midnightblue" points="1414.33,-334.673 1404.14,-337.588 1413.92,-341.661 1414.33,-334.673"/>
</g>
<!-- Node19 -->
<g id="node38" class="node"><title>Node19</title>
<a xlink:href="../../dc/db2/class_u_b_graphics_scene.html#acb26de2926454faf9c5ca66989779d82" target="_top" xlink:title="UBGraphicsScene::addW3CWidget">
<polygon fill="white" stroke="black" points="1445.5,-178.5 1445.5,-199.5 1618.5,-199.5 1618.5,-178.5 1445.5,-178.5"/>
<text text-anchor="middle" x="1532" y="-186.5" font-family="Helvetica,sans-Serif" font-size="10.00">UBGraphicsScene::addW3CWidget</text>
</a>
</g>
<!-- Node14&#45;&gt;Node19 -->
<g id="edge38" class="edge"><title>Node14&#45;&gt;Node19</title>
<path fill="none" stroke="midnightblue" d="M1384.54,-311.716C1391.29,-308.481 1397.92,-304.903 1404,-301 1422.52,-289.108 1423.6,-281.677 1440,-267 1467.62,-242.282 1501.03,-214.457 1519.01,-199.638"/>
<polygon fill="midnightblue" stroke="midnightblue" points="1382.95,-308.592 1375.29,-315.913 1385.84,-314.966 1382.95,-308.592"/>
</g>
<!-- Node16 -->
<g id="node31" class="node"><title>Node16</title>
<a xlink:href="../../dc/de3/class_u_b_tool_widget.html#adc43c4c0d6cb3e0f5881df830775b5b7" target="_top" xlink:title="UBToolWidget::mouseRelease\lEvent">
<polygon fill="white" stroke="black" points="1663,-276 1663,-310 1815,-310 1815,-276 1663,-276"/>
<text text-anchor="start" x="1671" y="-297" font-family="Helvetica,sans-Serif" font-size="10.00">UBToolWidget::mouseRelease</text>
<text text-anchor="middle" x="1739" y="-284" font-family="Helvetica,sans-Serif" font-size="10.00">Event</text>
</a>
</g>
<!-- Node15&#45;&gt;Node16 -->
<g id="edge30" class="edge"><title>Node15&#45;&gt;Node16</title>
<path fill="none" stroke="midnightblue" d="M1608.37,-293C1626.11,-293 1645.01,-293 1662.75,-293"/>
<polygon fill="midnightblue" stroke="midnightblue" points="1608.07,-289.5 1598.07,-293 1608.07,-296.5 1608.07,-289.5"/>
</g>
<!-- Node17&#45;&gt;Node4 -->
<g id="edge34" class="edge"><title>Node17&#45;&gt;Node4</title>
<path fill="none" stroke="midnightblue" d="M1463.01,-365.288C1455.18,-368.022 1447.37,-370.944 1440,-374 1297.14,-433.244 1275.65,-513 1121,-513 909,-513 909,-513 909,-513 790.887,-513 756.264,-479.486 668,-401 635.433,-372.041 606.31,-329.586 591.438,-306.141"/>
<polygon fill="midnightblue" stroke="midnightblue" points="1464.21,-368.579 1472.55,-362.052 1461.96,-361.95 1464.21,-368.579"/>
</g>
<!-- Node18 -->
<g id="node36" class="node"><title>Node18</title>
<a xlink:href="../../dc/db2/class_u_b_graphics_scene.html#aff586f570c8625a51bccef943662a29d" target="_top" xlink:title="UBGraphicsScene::addWidget">
<polygon fill="white" stroke="black" points="1664,-230.5 1664,-251.5 1814,-251.5 1814,-230.5 1664,-230.5"/>
<text text-anchor="middle" x="1739" y="-238.5" font-family="Helvetica,sans-Serif" font-size="10.00">UBGraphicsScene::addWidget</text>
</a>
</g>
<!-- Node17&#45;&gt;Node18 -->
<g id="edge36" class="edge"><title>Node17&#45;&gt;Node18</title>
<path fill="none" stroke="midnightblue" d="M1613.15,-325.662C1616.94,-323.656 1620.58,-321.442 1624,-319 1646.87,-302.66 1637.48,-283.823 1660,-267 1668.91,-260.346 1679.6,-255.343 1690.21,-251.599"/>
<polygon fill="midnightblue" stroke="midnightblue" points="1611.61,-322.519 1604.09,-329.976 1614.62,-328.84 1611.61,-322.519"/>
</g>
<!-- Node19&#45;&gt;Node4 -->
<g id="edge44" class="edge"><title>Node19&#45;&gt;Node4</title>
<path fill="none" stroke="midnightblue" d="M1470.97,-176.247C1460.61,-173.935 1449.98,-171.471 1440,-169 1300.77,-134.524 1157.89,-85 1121,-85 909,-85 909,-85 909,-85 767.839,-85 637.054,-222.929 595.023,-271.958"/>
<polygon fill="midnightblue" stroke="midnightblue" points="1470.26,-179.676 1480.78,-178.411 1471.77,-172.84 1470.26,-179.676"/>
</g>
<!-- Node19&#45;&gt;Node18 -->
<g id="edge50" class="edge"><title>Node19&#45;&gt;Node18</title>
<path fill="none" stroke="midnightblue" d="M1583.92,-202.044C1618.93,-210.837 1664.5,-222.286 1697.17,-230.493"/>
<polygon fill="midnightblue" stroke="midnightblue" points="1584.44,-198.565 1573.89,-199.523 1582.74,-205.354 1584.44,-198.565"/>
</g>
<!-- Node20 -->
<g id="node40" class="node"><title>Node20</title>
<a xlink:href="../../d7/d62/class_u_b_board_controller.html#a5f701f4cd3173743effca3b3b0bd4615" target="_top" xlink:title="UBBoardController:\l:addLinkToPage">
<polygon fill="white" stroke="black" points="1688.5,-101 1688.5,-135 1789.5,-135 1789.5,-101 1688.5,-101"/>
<text text-anchor="start" x="1696.5" y="-122" font-family="Helvetica,sans-Serif" font-size="10.00">UBBoardController:</text>
<text text-anchor="middle" x="1739" y="-109" font-family="Helvetica,sans-Serif" font-size="10.00">:addLinkToPage</text>
</a>
</g>
<!-- Node19&#45;&gt;Node20 -->
<g id="edge40" class="edge"><title>Node19&#45;&gt;Node20</title>
<path fill="none" stroke="midnightblue" d="M1599.24,-176.049C1607.65,-173.942 1616.07,-171.59 1624,-169 1652.23,-159.777 1682.93,-145.96 1705.5,-135.033"/>
<polygon fill="midnightblue" stroke="midnightblue" points="1598.32,-172.67 1589.41,-178.408 1599.95,-179.477 1598.32,-172.67"/>
</g>
<!-- Node21 -->
<g id="node44" class="node"><title>Node21</title>
<a xlink:href="../../d7/d62/class_u_b_board_controller.html#af8867753146efd8498f1a308e0457c9e" target="_top" xlink:title="UBBoardController:\l:addW3cWidget">
<polygon fill="white" stroke="black" points="1688.5,-0 1688.5,-34 1789.5,-34 1789.5,-0 1688.5,-0"/>
<text text-anchor="start" x="1696.5" y="-21" font-family="Helvetica,sans-Serif" font-size="10.00">UBBoardController:</text>
<text text-anchor="middle" x="1739" y="-8" font-family="Helvetica,sans-Serif" font-size="10.00">:addW3cWidget</text>
</a>
</g>
<!-- Node19&#45;&gt;Node21 -->
<g id="edge46" class="edge"><title>Node19&#45;&gt;Node21</title>
<path fill="none" stroke="midnightblue" d="M1617.5,-173.576C1619.76,-172.173 1621.93,-170.651 1624,-169 1653.52,-145.429 1637.92,-122.651 1660,-92 1676.14,-69.598 1699.57,-48.3541 1716.72,-34.2337"/>
<polygon fill="midnightblue" stroke="midnightblue" points="1615.59,-170.626 1608.41,-178.417 1618.89,-176.803 1615.59,-170.626"/>
</g>
<!-- Node22 -->
<g id="node48" class="node"><title>Node22</title>
<a xlink:href="../../dc/db2/class_u_b_graphics_scene.html#a2729368a3a28a4d9669f23f171752194" target="_top" xlink:title="UBGraphicsScene::addOEmbed">
<polygon fill="white" stroke="red" points="1660,-178.5 1660,-199.5 1818,-199.5 1818,-178.5 1660,-178.5"/>
<text text-anchor="middle" x="1739" y="-186.5" font-family="Helvetica,sans-Serif" font-size="10.00">UBGraphicsScene::addOEmbed</text>
</a>
</g>
<!-- Node19&#45;&gt;Node22 -->
<g id="edge52" class="edge"><title>Node19&#45;&gt;Node22</title>
<path fill="none" stroke="midnightblue" d="M1628.87,-189C1639.19,-189 1649.61,-189 1659.69,-189"/>
<polygon fill="midnightblue" stroke="midnightblue" points="1628.59,-185.5 1618.59,-189 1628.59,-192.5 1628.59,-185.5"/>
</g>
<!-- Node20&#45;&gt;Node4 -->
<g id="edge42" class="edge"><title>Node20&#45;&gt;Node4</title>
<path fill="none" stroke="midnightblue" d="M1678.58,-101.006C1598.44,-80.0023 1452.28,-47 1325,-47 909,-47 909,-47 909,-47 797.585,-47 753.797,-44.9221 668,-116 617.258,-158.037 593.217,-237.114 584.735,-271.873"/>
<polygon fill="midnightblue" stroke="midnightblue" points="1677.93,-104.455 1688.49,-103.632 1679.72,-97.6883 1677.93,-104.455"/>
</g>
<!-- Node21&#45;&gt;Node4 -->
<g id="edge48" class="edge"><title>Node21&#45;&gt;Node4</title>
<path fill="none" stroke="midnightblue" d="M1677.87,-15.0805C1597.1,-12.7136 1450.39,-9 1325,-9 909,-9 909,-9 909,-9 800.35,-9 751.442,19.5863 668,-50 598.142,-108.258 584.377,-227.515 581.665,-271.877"/>
<polygon fill="midnightblue" stroke="midnightblue" points="1678.24,-18.593 1688.34,-15.3907 1678.45,-11.5961 1678.24,-18.593"/>
</g>
<!-- Node24 -->
<g id="node52" class="node"><title>Node24</title>
<a xlink:href="../../dd/dd5/class_u_b_graphics_item_delegate.html#a1de77276aba7276defacd0b87c9b87c7" target="_top" xlink:title="UBGraphicsItemDelegate\l::init">
<polygon fill="white" stroke="black" points="1261,-541 1261,-575 1389,-575 1389,-541 1261,-541"/>
<text text-anchor="start" x="1269" y="-562" font-family="Helvetica,sans-Serif" font-size="10.00">UBGraphicsItemDelegate</text>
<text text-anchor="middle" x="1325" y="-549" font-family="Helvetica,sans-Serif" font-size="10.00">::init</text>
</a>
</g>
<!-- Node23&#45;&gt;Node24 -->
<g id="edge56" class="edge"><title>Node23&#45;&gt;Node24</title>
<path fill="none" stroke="midnightblue" d="M1169.12,-489.229C1204.87,-505.003 1253.01,-526.242 1286.29,-540.924"/>
<polygon fill="midnightblue" stroke="midnightblue" points="1170.41,-485.974 1159.85,-485.14 1167.59,-492.379 1170.41,-485.974"/>
</g>
<!-- Node25 -->
<g id="node54" class="node"><title>Node25</title>
<a xlink:href="../../de/d93/class_u_b_graphics_group_container_item.html#a2aaeb364079830d1720110c30f999ec8" target="_top" xlink:title="UBGraphicsGroupContainer\lItem::UBGraphicsGroupContainerItem">
<polygon fill="white" stroke="black" points="1440.5,-591 1440.5,-625 1623.5,-625 1623.5,-591 1440.5,-591"/>
<text text-anchor="start" x="1448.5" y="-612" font-family="Helvetica,sans-Serif" font-size="10.00">UBGraphicsGroupContainer</text>
<text text-anchor="middle" x="1532" y="-599" font-family="Helvetica,sans-Serif" font-size="10.00">Item::UBGraphicsGroupContainerItem</text>
</a>
</g>
<!-- Node24&#45;&gt;Node25 -->
<g id="edge58" class="edge"><title>Node24&#45;&gt;Node25</title>
<path fill="none" stroke="midnightblue" d="M1398.91,-575.853C1419.24,-580.764 1441.24,-586.077 1461.38,-590.942"/>
<polygon fill="midnightblue" stroke="midnightblue" points="1399.62,-572.424 1389.08,-573.478 1397.98,-579.228 1399.62,-572.424"/>
</g>
<!-- Node27 -->
<g id="node58" class="node"><title>Node27</title>
<a xlink:href="../../dc/d5a/class_u_b_graphics_media_item.html#aa92cf921e88af8b52b4c7ed6466dd2d5" target="_top" xlink:title="UBGraphicsMediaItem\l::UBGraphicsMediaItem">
<polygon fill="white" stroke="black" points="1471,-539 1471,-573 1593,-573 1593,-539 1471,-539"/>
<text text-anchor="start" x="1479" y="-560" font-family="Helvetica,sans-Serif" font-size="10.00">UBGraphicsMediaItem</text>
<text text-anchor="middle" x="1532" y="-547" font-family="Helvetica,sans-Serif" font-size="10.00">::UBGraphicsMediaItem</text>
</a>
</g>
<!-- Node24&#45;&gt;Node27 -->
<g id="edge62" class="edge"><title>Node24&#45;&gt;Node27</title>
<path fill="none" stroke="midnightblue" d="M1399.31,-557.282C1422.72,-557.056 1448.3,-556.809 1470.7,-556.592"/>
<polygon fill="midnightblue" stroke="midnightblue" points="1399.04,-553.784 1389.08,-557.381 1399.11,-560.784 1399.04,-553.784"/>
</g>
<!-- Node29 -->
<g id="node62" class="node"><title>Node29</title>
<a xlink:href="../../d9/d0d/class_u_b_graphics_p_d_f_item.html#ae55063d3348b81ea8388df72069713b9" target="_top" xlink:title="UBGraphicsPDFItem:\l:UBGraphicsPDFItem">
<polygon fill="white" stroke="black" points="1475.5,-487 1475.5,-521 1588.5,-521 1588.5,-487 1475.5,-487"/>
<text text-anchor="start" x="1483.5" y="-508" font-family="Helvetica,sans-Serif" font-size="10.00">UBGraphicsPDFItem:</text>
<text text-anchor="middle" x="1532" y="-495" font-family="Helvetica,sans-Serif" font-size="10.00">:UBGraphicsPDFItem</text>
</a>
</g>
<!-- Node24&#45;&gt;Node29 -->
<g id="edge66" class="edge"><title>Node24&#45;&gt;Node29</title>
<path fill="none" stroke="midnightblue" d="M1398.93,-538.714C1424.04,-532.164 1451.68,-524.953 1475.24,-518.808"/>
<polygon fill="midnightblue" stroke="midnightblue" points="1397.87,-535.373 1389.08,-541.284 1399.64,-542.146 1397.87,-535.373"/>
</g>
<!-- Node31 -->
<g id="node66" class="node"><title>Node31</title>
<a xlink:href="../../d1/d78/class_u_b_graphics_pixmap_item.html#ad154326709d1935d96248228d21b20ae" target="_top" xlink:title="UBGraphicsPixmapItem\l::UBGraphicsPixmapItem">
<polygon fill="white" stroke="black" points="1468,-435 1468,-469 1596,-469 1596,-435 1468,-435"/>
<text text-anchor="start" x="1476" y="-456" font-family="Helvetica,sans-Serif" font-size="10.00">UBGraphicsPixmapItem</text>
<text text-anchor="middle" x="1532" y="-443" font-family="Helvetica,sans-Serif" font-size="10.00">::UBGraphicsPixmapItem</text>
</a>
</g>
<!-- Node24&#45;&gt;Node31 -->
<g id="edge70" class="edge"><title>Node24&#45;&gt;Node31</title>
<path fill="none" stroke="midnightblue" d="M1389.59,-536.299C1394.67,-533.516 1399.55,-530.424 1404,-527 1425.42,-510.527 1417.79,-493.399 1440,-478 1448.32,-472.231 1457.9,-467.735 1467.66,-464.233"/>
<polygon fill="midnightblue" stroke="midnightblue" points="1387.64,-533.36 1380.28,-540.978 1390.79,-539.614 1387.64,-533.36"/>
</g>
<!-- Node33 -->
<g id="node70" class="node"><title>Node33</title>
<a xlink:href="../../d3/d0b/class_u_b_graphics_strokes_group.html#ab3978d4c4d489c27f90baf64a506f1d8" target="_top" xlink:title="UBGraphicsStrokesGroup\l::UBGraphicsStrokesGroup">
<polygon fill="white" stroke="red" points="1464,-383 1464,-417 1600,-417 1600,-383 1464,-383"/>
<text text-anchor="start" x="1472" y="-404" font-family="Helvetica,sans-Serif" font-size="10.00">UBGraphicsStrokesGroup</text>
<text text-anchor="middle" x="1532" y="-391" font-family="Helvetica,sans-Serif" font-size="10.00">::UBGraphicsStrokesGroup</text>
</a>
</g>
<!-- Node24&#45;&gt;Node33 -->
<g id="edge74" class="edge"><title>Node24&#45;&gt;Node33</title>
<path fill="none" stroke="midnightblue" d="M1394.08,-535.406C1397.66,-532.887 1401,-530.095 1404,-527 1437.16,-492.775 1405.19,-458.55 1440,-426 1446.79,-419.651 1455.01,-414.836 1463.71,-411.187"/>
<polygon fill="midnightblue" stroke="midnightblue" points="1392.04,-532.554 1385.39,-540.799 1395.73,-538.502 1392.04,-532.554"/>
</g>
<!-- Node34 -->
<g id="node72" class="node"><title>Node34</title>
<a xlink:href="../../d1/dce/class_u_b_graphics_svg_item.html#aefe5ca00c7f91a56938b35611149a779" target="_top" xlink:title="UBGraphicsSvgItem::init">
<polygon fill="white" stroke="red" points="1469.5,-747.5 1469.5,-768.5 1594.5,-768.5 1594.5,-747.5 1469.5,-747.5"/>
<text text-anchor="middle" x="1532" y="-755.5" font-family="Helvetica,sans-Serif" font-size="10.00">UBGraphicsSvgItem::init</text>
</a>
</g>
<!-- Node24&#45;&gt;Node34 -->
<g id="edge76" class="edge"><title>Node24&#45;&gt;Node34</title>
<path fill="none" stroke="midnightblue" d="M1334.35,-584.664C1349.8,-624.61 1384.57,-699.407 1440,-738 1448.72,-744.07 1458.94,-748.348 1469.34,-751.351"/>
<polygon fill="midnightblue" stroke="midnightblue" points="1337.54,-583.207 1330.75,-575.072 1330.99,-585.664 1337.54,-583.207"/>
</g>
<!-- Node35 -->
<g id="node74" class="node"><title>Node35</title>
<a xlink:href="../../da/d65/class_u_b_graphics_text_item.html#acbf06a6d840ac7b6c95950e39dcd94b9" target="_top" xlink:title="UBGraphicsTextItem\l::UBGraphicsTextItem">
<polygon fill="white" stroke="red" points="1474.5,-695 1474.5,-729 1589.5,-729 1589.5,-695 1474.5,-695"/>
<text text-anchor="start" x="1482.5" y="-716" font-family="Helvetica,sans-Serif" font-size="10.00">UBGraphicsTextItem</text>
<text text-anchor="middle" x="1532" y="-703" font-family="Helvetica,sans-Serif" font-size="10.00">::UBGraphicsTextItem</text>
</a>
</g>
<!-- Node24&#45;&gt;Node35 -->
<g id="edge78" class="edge"><title>Node24&#45;&gt;Node35</title>
<path fill="none" stroke="midnightblue" d="M1341.45,-583.748C1361.34,-612.822 1397.49,-659.517 1440,-686 1450.42,-692.494 1462.51,-697.407 1474.42,-701.109"/>
<polygon fill="midnightblue" stroke="midnightblue" points="1344.28,-581.691 1335.81,-575.332 1338.47,-585.588 1344.28,-581.691"/>
</g>
<!-- Node36 -->
<g id="node76" class="node"><title>Node36</title>
<a xlink:href="../../d0/d16/class_u_b_graphics_widget_item.html#ac1a304e8be3f2ece6dd370210f25c90b" target="_top" xlink:title="UBGraphicsWidgetItem\l::UBGraphicsWidgetItem">
<polygon fill="white" stroke="black" points="1469,-643 1469,-677 1595,-677 1595,-643 1469,-643"/>
<text text-anchor="start" x="1477" y="-664" font-family="Helvetica,sans-Serif" font-size="10.00">UBGraphicsWidgetItem</text>
<text text-anchor="middle" x="1532" y="-651" font-family="Helvetica,sans-Serif" font-size="10.00">::UBGraphicsWidgetItem</text>
</a>
</g>
<!-- Node24&#45;&gt;Node36 -->
<g id="edge80" class="edge"><title>Node24&#45;&gt;Node36</title>
<path fill="none" stroke="midnightblue" d="M1354.78,-581.412C1377.16,-598.046 1409.13,-619.855 1440,-634 1449.05,-638.149 1458.92,-641.781 1468.71,-644.911"/>
<polygon fill="midnightblue" stroke="midnightblue" points="1356.79,-578.543 1346.7,-575.317 1352.58,-584.133 1356.79,-578.543"/>
</g>
<!-- Node26 -->
<g id="node56" class="node"><title>Node26</title>
<a xlink:href="../../de/d93/class_u_b_graphics_group_container_item.html#aeb38fce11d606a6a0c97544ff5fa776f" target="_top" xlink:title="UBGraphicsGroupContainer\lItem::deepCopy">
<polygon fill="white" stroke="black" points="1670,-591 1670,-625 1808,-625 1808,-591 1670,-591"/>
<text text-anchor="start" x="1678" y="-612" font-family="Helvetica,sans-Serif" font-size="10.00">UBGraphicsGroupContainer</text>
<text text-anchor="middle" x="1739" y="-599" font-family="Helvetica,sans-Serif" font-size="10.00">Item::deepCopy</text>
</a>
</g>
<!-- Node25&#45;&gt;Node26 -->
<g id="edge60" class="edge"><title>Node25&#45;&gt;Node26</title>
<path fill="none" stroke="midnightblue" d="M1633.88,-608C1646.03,-608 1658.21,-608 1669.75,-608"/>
<polygon fill="midnightblue" stroke="midnightblue" points="1633.7,-604.5 1623.7,-608 1633.7,-611.5 1633.7,-604.5"/>
</g>
<!-- Node28 -->
<g id="node60" class="node"><title>Node28</title>
<a xlink:href="../../dc/d5a/class_u_b_graphics_media_item.html#a8adbf02f86a23b2d2884efe8855e0556" target="_top" xlink:title="UBGraphicsMediaItem\l::deepCopy">
<polygon fill="white" stroke="black" points="1681,-539 1681,-573 1797,-573 1797,-539 1681,-539"/>
<text text-anchor="start" x="1689" y="-560" font-family="Helvetica,sans-Serif" font-size="10.00">UBGraphicsMediaItem</text>
<text text-anchor="middle" x="1739" y="-547" font-family="Helvetica,sans-Serif" font-size="10.00">::deepCopy</text>
</a>
</g>
<!-- Node27&#45;&gt;Node28 -->
<g id="edge64" class="edge"><title>Node27&#45;&gt;Node28</title>
<path fill="none" stroke="midnightblue" d="M1603.51,-556C1628.72,-556 1656.75,-556 1680.73,-556"/>
<polygon fill="midnightblue" stroke="midnightblue" points="1603.27,-552.5 1593.27,-556 1603.27,-559.5 1603.27,-552.5"/>
</g>
<!-- Node30 -->
<g id="node64" class="node"><title>Node30</title>
<a xlink:href="../../d9/d0d/class_u_b_graphics_p_d_f_item.html#a128b9926bef054d7246dfcd356571f36" target="_top" xlink:title="UBGraphicsPDFItem:\l:deepCopy">
<polygon fill="white" stroke="black" points="1682.5,-487 1682.5,-521 1795.5,-521 1795.5,-487 1682.5,-487"/>
<text text-anchor="start" x="1690.5" y="-508" font-family="Helvetica,sans-Serif" font-size="10.00">UBGraphicsPDFItem:</text>
<text text-anchor="middle" x="1739" y="-495" font-family="Helvetica,sans-Serif" font-size="10.00">:deepCopy</text>
</a>
</g>
<!-- Node29&#45;&gt;Node30 -->
<g id="edge68" class="edge"><title>Node29&#45;&gt;Node30</title>
<path fill="none" stroke="midnightblue" d="M1598.67,-504C1625.58,-504 1656.32,-504 1682.15,-504"/>
<polygon fill="midnightblue" stroke="midnightblue" points="1598.56,-500.5 1588.56,-504 1598.56,-507.5 1598.56,-500.5"/>
</g>
<!-- Node32 -->
<g id="node68" class="node"><title>Node32</title>
<a xlink:href="../../d1/d78/class_u_b_graphics_pixmap_item.html#a1b0fbc4ae6ba2796e5cccb0ea16b8c70" target="_top" xlink:title="UBGraphicsPixmapItem\l::deepCopy">
<polygon fill="white" stroke="black" points="1678,-435 1678,-469 1800,-469 1800,-435 1678,-435"/>
<text text-anchor="start" x="1686" y="-456" font-family="Helvetica,sans-Serif" font-size="10.00">UBGraphicsPixmapItem</text>
<text text-anchor="middle" x="1739" y="-443" font-family="Helvetica,sans-Serif" font-size="10.00">::deepCopy</text>
</a>
</g>
<!-- Node31&#45;&gt;Node32 -->
<g id="edge72" class="edge"><title>Node31&#45;&gt;Node32</title>
<path fill="none" stroke="midnightblue" d="M1606.31,-452C1629.72,-452 1655.3,-452 1677.7,-452"/>
<polygon fill="midnightblue" stroke="midnightblue" points="1606.08,-448.5 1596.08,-452 1606.08,-455.5 1606.08,-448.5"/>
</g>
<!-- Node37&#45;&gt;Node8 -->
<g id="edge88" class="edge"><title>Node37&#45;&gt;Node8</title>
<path fill="none" stroke="midnightblue" d="M745.153,-314.365C757.175,-331.495 773.053,-354.771 786,-376 803.397,-404.527 796.038,-420.966 822,-442 832.411,-450.435 845.5,-456.135 858.341,-459.987"/>
<polygon fill="midnightblue" stroke="midnightblue" points="747.881,-312.16 739.254,-306.01 742.163,-316.198 747.881,-312.16"/>
</g>
<!-- Node37&#45;&gt;Node9 -->
<g id="edge90" class="edge"><title>Node37&#45;&gt;Node9</title>
<path fill="none" stroke="midnightblue" d="M787.809,-286.839C865.402,-284.082 998.199,-279.364 1070.49,-276.795"/>
<polygon fill="midnightblue" stroke="midnightblue" points="787.571,-283.345 777.702,-287.198 787.82,-290.341 787.571,-283.345"/>
</g>
<!-- Node38 -->
<g id="node80" class="node"><title>Node38</title>
<a xlink:href="../../da/dd6/class_u_b_library_a_p_i.html#abeac23fcd7f64866d5686b590ec05695" target="_top" xlink:title="UBLibraryAPI::addObject">
<polygon fill="white" stroke="black" points="845.5,-165.5 845.5,-186.5 972.5,-186.5 972.5,-165.5 845.5,-165.5"/>
<text text-anchor="middle" x="909" y="-173.5" font-family="Helvetica,sans-Serif" font-size="10.00">UBLibraryAPI::addObject</text>
</a>
</g>
<!-- Node37&#45;&gt;Node38 -->
<g id="edge84" class="edge"><title>Node37&#45;&gt;Node38</title>
<path fill="none" stroke="midnightblue" d="M746.111,-263.692C763.556,-242.4 791.25,-212.813 822,-196 829.207,-192.059 837.159,-188.893 845.238,-186.35"/>
<polygon fill="midnightblue" stroke="midnightblue" points="743.232,-261.687 739.722,-271.684 748.7,-266.058 743.232,-261.687"/>
</g>
<!-- Node39 -->
<g id="node82" class="node"><title>Node39</title>
<a xlink:href="../../d5/d2b/class_u_b_widget_uniboard_a_p_i.html#a73ac1600ef3ed549d2c6c969436efb2f" target="_top" xlink:title="UBWidgetUniboardAPI\l::addObject">
<polygon fill="white" stroke="black" points="850.5,-399 850.5,-433 967.5,-433 967.5,-399 850.5,-399"/>
<text text-anchor="start" x="858.5" y="-420" font-family="Helvetica,sans-Serif" font-size="10.00">UBWidgetUniboardAPI</text>
<text text-anchor="middle" x="909" y="-407" font-family="Helvetica,sans-Serif" font-size="10.00">::addObject</text>
</a>
</g>
<!-- Node37&#45;&gt;Node39 -->
<g id="edge86" class="edge"><title>Node37&#45;&gt;Node39</title>
<path fill="none" stroke="midnightblue" d="M744.81,-314.526C762.059,-337.43 790.217,-370.373 822,-390 830.584,-395.301 840.314,-399.576 850.08,-403.008"/>
<polygon fill="midnightblue" stroke="midnightblue" points="747.494,-312.268 738.748,-306.288 741.856,-316.417 747.494,-312.268"/>
</g>
<!-- Node40 -->
<g id="node86" class="node"><title>Node40</title>
<a xlink:href="../../d8/d33/class_u_b_features_controller.html#a38042ae37804ee19bfacf4aafd096ea9" target="_top" xlink:title="UBFeaturesController\l::addItemToPage">
<polygon fill="white" stroke="black" points="853.5,-347 853.5,-381 964.5,-381 964.5,-347 853.5,-347"/>
<text text-anchor="start" x="861.5" y="-368" font-family="Helvetica,sans-Serif" font-size="10.00">UBFeaturesController</text>
<text text-anchor="middle" x="909" y="-355" font-family="Helvetica,sans-Serif" font-size="10.00">::addItemToPage</text>
</a>
</g>
<!-- Node37&#45;&gt;Node40 -->
<g id="edge92" class="edge"><title>Node37&#45;&gt;Node40</title>
<path fill="none" stroke="midnightblue" d="M765.736,-311.053C782.67,-320.147 802.976,-330.329 822,-338 831.942,-342.009 842.74,-345.723 853.239,-349.015"/>
<polygon fill="midnightblue" stroke="midnightblue" points="767.16,-307.844 756.704,-306.136 763.813,-313.992 767.16,-307.844"/>
</g>
<!-- Node41 -->
<g id="node88" class="node"><title>Node41</title>
<a xlink:href="../../d8/d33/class_u_b_features_controller.html#a0ecd4b84e703063db5c0fdf498f2cdb0" target="_top" xlink:title="UBFeaturesController\l::addItemAsBackground">
<polygon fill="white" stroke="black" points="848,-295 848,-329 970,-329 970,-295 848,-295"/>
<text text-anchor="start" x="856" y="-316" font-family="Helvetica,sans-Serif" font-size="10.00">UBFeaturesController</text>
<text text-anchor="middle" x="909" y="-303" font-family="Helvetica,sans-Serif" font-size="10.00">::addItemAsBackground</text>
</a>
</g>
<!-- Node37&#45;&gt;Node41 -->
<g id="edge94" class="edge"><title>Node37&#45;&gt;Node41</title>
<path fill="none" stroke="midnightblue" d="M787.626,-296.661C807.016,-299.112 828.485,-301.825 847.908,-304.28"/>
<polygon fill="midnightblue" stroke="midnightblue" points="788.057,-293.188 777.697,-295.407 787.179,-300.133 788.057,-293.188"/>
</g>
<!-- Node42 -->
<g id="node90" class="node"><title>Node42</title>
<a xlink:href="../../db/d78/class_w_b_web_trap_web_view.html#afdbfd6aac50cad5ac07a465baa7be0b6" target="_top" xlink:title="WBWebTrapWebView::trapElement\lAtPos">
<polygon fill="white" stroke="black" points="822.5,-205 822.5,-239 995.5,-239 995.5,-205 822.5,-205"/>
<text text-anchor="start" x="830.5" y="-226" font-family="Helvetica,sans-Serif" font-size="10.00">WBWebTrapWebView::trapElement</text>
<text text-anchor="middle" x="909" y="-213" font-family="Helvetica,sans-Serif" font-size="10.00">AtPos</text>
</a>
</g>
<!-- Node37&#45;&gt;Node42 -->
<g id="edge96" class="edge"><title>Node37&#45;&gt;Node42</title>
<path fill="none" stroke="midnightblue" d="M780.953,-268.341C794.346,-263.272 808.679,-257.897 822,-253 834.491,-248.408 848.028,-243.535 860.619,-239.046"/>
<polygon fill="midnightblue" stroke="midnightblue" points="779.504,-265.148 771.395,-271.967 781.987,-271.693 779.504,-265.148"/>
</g>
<!-- Node45 -->
<g id="node96" class="node"><title>Node45</title>
<a xlink:href="../../df/d50/class_u_b_web_controller.html#a318422dc0a027e2258180673bb333586" target="_top" xlink:title="UBWebController::capture\lEduMedia">
<polygon fill="white" stroke="black" points="843.5,-113 843.5,-147 974.5,-147 974.5,-113 843.5,-113"/>
<text text-anchor="start" x="851.5" y="-134" font-family="Helvetica,sans-Serif" font-size="10.00">UBWebController::capture</text>
<text text-anchor="middle" x="909" y="-121" font-family="Helvetica,sans-Serif" font-size="10.00">EduMedia</text>
</a>
</g>
<!-- Node37&#45;&gt;Node45 -->
<g id="edge102" class="edge"><title>Node37&#45;&gt;Node45</title>
<path fill="none" stroke="midnightblue" d="M739.01,-262.879C754.169,-232.761 783.044,-183.839 822,-156 828.413,-151.417 835.64,-147.633 843.117,-144.51"/>
<polygon fill="midnightblue" stroke="midnightblue" points="735.825,-261.425 734.575,-271.946 742.113,-264.501 735.825,-261.425"/>
</g>
<!-- Node43 -->
<g id="node92" class="node"><title>Node43</title>
<a xlink:href="../../db/d78/class_w_b_web_trap_web_view.html#a2ac308414d18186c9c4fc60bc5f46400" target="_top" xlink:title="WBWebTrapWebView::trapContent\lFromHitTest">
<polygon fill="white" stroke="black" points="1035,-154 1035,-188 1207,-188 1207,-154 1035,-154"/>
<text text-anchor="start" x="1043" y="-175" font-family="Helvetica,sans-Serif" font-size="10.00">WBWebTrapWebView::trapContent</text>
<text text-anchor="middle" x="1121" y="-162" font-family="Helvetica,sans-Serif" font-size="10.00">FromHitTest</text>
</a>
</g>
<!-- Node42&#45;&gt;Node43 -->
<g id="edge98" class="edge"><title>Node42&#45;&gt;Node43</title>
<path fill="none" stroke="midnightblue" d="M989.836,-202.554C1009.7,-197.774 1030.82,-192.693 1050.18,-188.037"/>
<polygon fill="midnightblue" stroke="midnightblue" points="988.792,-199.205 979.888,-204.947 990.429,-206.011 988.792,-199.205"/>
</g>
<!-- Node44 -->
<g id="node94" class="node"><title>Node44</title>
<a xlink:href="../../dd/df0/class_u_b_web_trap_mouse_event_mask.html#a2c69d74fef874516e38daeab13e6ecd0" target="_top" xlink:title="UBWebTrapMouseEventMask\l::mousePressEvent">
<polygon fill="white" stroke="black" points="1046.5,-206 1046.5,-240 1195.5,-240 1195.5,-206 1046.5,-206"/>
<text text-anchor="start" x="1054.5" y="-227" font-family="Helvetica,sans-Serif" font-size="10.00">UBWebTrapMouseEventMask</text>
<text text-anchor="middle" x="1121" y="-214" font-family="Helvetica,sans-Serif" font-size="10.00">::mousePressEvent</text>
</a>
</g>
<!-- Node42&#45;&gt;Node44 -->
<g id="edge100" class="edge"><title>Node42&#45;&gt;Node44</title>
<path fill="none" stroke="midnightblue" d="M1005.86,-222.457C1019.43,-222.521 1033.21,-222.586 1046.28,-222.648"/>
<polygon fill="midnightblue" stroke="midnightblue" points="1005.55,-218.955 995.534,-222.408 1005.52,-225.955 1005.55,-218.955"/>
</g>
<!-- Node46 -->
<g id="node98" class="node"><title>Node46</title>
<a xlink:href="../../df/d50/class_u_b_web_controller.html#af73cfa36d5b743fa3a652e49dd7e4831" target="_top" xlink:title="UBWebController::setupPalettes">
<polygon fill="white" stroke="black" points="1041.5,-114.5 1041.5,-135.5 1200.5,-135.5 1200.5,-114.5 1041.5,-114.5"/>
<text text-anchor="middle" x="1121" y="-122.5" font-family="Helvetica,sans-Serif" font-size="10.00">UBWebController::setupPalettes</text>
</a>
</g>
<!-- Node45&#45;&gt;Node46 -->
<g id="edge104" class="edge"><title>Node45&#45;&gt;Node46</title>
<path fill="none" stroke="midnightblue" d="M984.655,-128.216C1002.98,-127.784 1022.62,-127.32 1041.14,-126.884"/>
<polygon fill="midnightblue" stroke="midnightblue" points="984.541,-124.717 974.626,-128.452 984.706,-131.715 984.541,-124.717"/>
</g>
<!-- Node48 -->
<g id="node102" class="node"><title>Node48</title>
<a xlink:href="../../d4/d9d/class_u_b_magnifier.html#ae59609ee73c99d0246a9543d5fac4dfe" target="_top" xlink:title="UBMagnifier::UBMagnifier">
<polygon fill="white" stroke="black" points="344.5,-195.5 344.5,-216.5 475.5,-216.5 475.5,-195.5 344.5,-195.5"/>
<text text-anchor="middle" x="410" y="-203.5" font-family="Helvetica,sans-Serif" font-size="10.00">UBMagnifier::UBMagnifier</text>
</a>
</g>
<!-- Node47&#45;&gt;Node48 -->
<g id="edge108" class="edge"><title>Node47&#45;&gt;Node48</title>
<path fill="none" stroke="midnightblue" d="M296.416,-206C312.202,-206 328.759,-206 344.197,-206"/>
<polygon fill="midnightblue" stroke="midnightblue" points="296.173,-202.5 286.173,-206 296.173,-209.5 296.173,-202.5"/>
</g>
<!-- Node49&#45;&gt;Node3 -->
<g id="edge112" class="edge"><title>Node49&#45;&gt;Node3</title>
<path fill="none" stroke="midnightblue" d="M277.829,-258.769C305.235,-265.038 337.856,-272.499 363.833,-278.441"/>
<polygon fill="midnightblue" stroke="midnightblue" points="278.519,-255.337 267.99,-256.519 276.958,-262.161 278.519,-255.337"/>
</g>
<!-- Node50 -->
<g id="node107" class="node"><title>Node50</title>
<a xlink:href="../../dc/db2/class_u_b_graphics_scene.html#a2a4e3d9011f5636f040fb6582a559d84" target="_top" xlink:title="UBGraphicsScene::moveMagnifier">
<polygon fill="white" stroke="black" points="326.5,-235.5 326.5,-256.5 493.5,-256.5 493.5,-235.5 326.5,-235.5"/>
<text text-anchor="middle" x="410" y="-243.5" font-family="Helvetica,sans-Serif" font-size="10.00">UBGraphicsScene::moveMagnifier</text>
</a>
</g>
<!-- Node49&#45;&gt;Node50 -->
<g id="edge114" class="edge"><title>Node49&#45;&gt;Node50</title>
<path fill="none" stroke="midnightblue" d="M295.938,-246C305.941,-246 316.263,-246 326.42,-246"/>
<polygon fill="midnightblue" stroke="midnightblue" points="295.648,-242.5 285.648,-246 295.648,-249.5 295.648,-242.5"/>
</g>
</g>
</svg>
