<?xml version="1.0" encoding="UTF-8" standalone="no"?>
<!DOCTYPE svg PUBLIC "-//W3C//DTD SVG 1.1//EN"
 "http://www.w3.org/Graphics/SVG/1.1/DTD/svg11.dtd">
<!-- Generated by graphviz version 2.26.3 (20100126.1600)
 -->
<!-- Title: UBCookieJar::clear Pages: 1 -->
<svg width="498pt" height="70pt"
 viewBox="0.00 0.00 498.00 70.00" xmlns="http://www.w3.org/2000/svg" xmlns:xlink="http://www.w3.org/1999/xlink">
<g id="graph1" class="graph" transform="scale(1 1) rotate(0) translate(4 66)">
<title>UBCookieJar::clear</title>
<polygon fill="white" stroke="white" points="-4,5 -4,-66 495,-66 495,5 -4,5"/>
<!-- Node1 -->
<g id="node1" class="node"><title>Node1</title>
<polygon fill="#bfbfbf" stroke="black" points="0,-20.5 0,-41.5 102,-41.5 102,-20.5 0,-20.5"/>
<text text-anchor="middle" x="51" y="-28.5" font-family="Helvetica,sans-Serif" font-size="10.00">UBCookieJar::clear</text>
</g>
<!-- Node2 -->
<g id="node3" class="node"><title>Node2</title>
<a xlink:href="../../dd/d3b/class_u_b_auto_saver.html#a3b7247fb354306120ff74fff03ed7135" target="_top" xlink:title="UBAutoSaver::changeOccurred">
<polygon fill="white" stroke="black" points="138,-40.5 138,-61.5 292,-61.5 292,-40.5 138,-40.5"/>
<text text-anchor="middle" x="215" y="-48.5" font-family="Helvetica,sans-Serif" font-size="10.00">UBAutoSaver::changeOccurred</text>
</a>
</g>
<!-- Node1&#45;&gt;Node2 -->
<g id="edge2" class="edge"><title>Node1&#45;&gt;Node2</title>
<path fill="none" stroke="midnightblue" d="M102.441,-37.2733C110.543,-38.2613 119.109,-39.306 127.754,-40.3602"/>
<polygon fill="midnightblue" stroke="midnightblue" points="127.564,-43.863 137.915,-41.5994 128.412,-36.9145 127.564,-43.863"/>
</g>
<!-- Node4 -->
<g id="node7" class="node"><title>Node4</title>
<a xlink:href="../../dd/d20/class_u_b_cookie_jar.html#a99fed8dac16c9f2b5bb6a13b5233838d" target="_top" xlink:title="UBCookieJar::cookiesChanged">
<polygon fill="white" stroke="black" points="138,-0.5 138,-21.5 292,-21.5 292,-0.5 138,-0.5"/>
<text text-anchor="middle" x="215" y="-8.5" font-family="Helvetica,sans-Serif" font-size="10.00">UBCookieJar::cookiesChanged</text>
</a>
</g>
<!-- Node1&#45;&gt;Node4 -->
<g id="edge6" class="edge"><title>Node1&#45;&gt;Node4</title>
<path fill="none" stroke="midnightblue" d="M102.441,-24.7267C110.543,-23.7387 119.109,-22.694 127.754,-21.6398"/>
<polygon fill="midnightblue" stroke="midnightblue" points="128.412,-25.0855 137.915,-20.4006 127.564,-18.137 128.412,-25.0855"/>
</g>
<!-- Node3 -->
<g id="node5" class="node"><title>Node3</title>
<a xlink:href="../../dd/d3b/class_u_b_auto_saver.html#add0bbcc4aaba6dcffdaa789a58dabb13" target="_top" xlink:title="UBAutoSaver::saveIfNeccessary">
<polygon fill="white" stroke="black" points="328,-40.5 328,-61.5 490,-61.5 490,-40.5 328,-40.5"/>
<text text-anchor="middle" x="409" y="-48.5" font-family="Helvetica,sans-Serif" font-size="10.00">UBAutoSaver::saveIfNeccessary</text>
</a>
</g>
<!-- Node2&#45;&gt;Node3 -->
<g id="edge4" class="edge"><title>Node2&#45;&gt;Node3</title>
<path fill="none" stroke="midnightblue" d="M292.231,-51C300.661,-51 309.3,-51 317.876,-51"/>
<polygon fill="midnightblue" stroke="midnightblue" points="317.9,-54.5001 327.9,-51 317.9,-47.5001 317.9,-54.5001"/>
</g>
</g>
</svg>
