<?xml version="1.0" encoding="UTF-8" standalone="no"?>
<!DOCTYPE svg PUBLIC "-//W3C//DTD SVG 1.1//EN"
 "http://www.w3.org/Graphics/SVG/1.1/DTD/svg11.dtd">
<!-- Generated by graphviz version 2.26.3 (20100126.1600)
 -->
<!-- Title: Sankore&#45;gh&#45;pages/src/frameworks/ Pages: 1 -->
<svg width="220pt" height="189pt"
 viewBox="0.00 0.00 220.00 189.00" xmlns="http://www.w3.org/2000/svg" xmlns:xlink="http://www.w3.org/1999/xlink">
<g id="graph1" class="graph" transform="scale(1 1) rotate(0) translate(4 185)">
<title>Sankore&#45;gh&#45;pages/src/frameworks/</title>
<polygon fill="white" stroke="white" points="-4,5 -4,-185 217,-185 217,5 -4,5"/>
<g id="graph2" class="cluster"><title>clusterdir_f8851847c95b94b698d4f01e7f372e35</title>
<a xlink:href="dir_f8851847c95b94b698d4f01e7f372e35.html" target="_top" xlink:title="src">
<polygon fill="#ddddee" stroke="black" points="120,-64 120,-137 204,-137 204,-64 120,-64"/>
<text text-anchor="middle" x="162" y="-124" font-family="Helvetica,sans-Serif" font-size="10.00">src</text>
</a>
</g>
<!-- dir_204e0a37828fe70ffe7073e2d4563165 -->
<g id="node2" class="node"><title>dir_204e0a37828fe70ffe7073e2d4563165</title>
<a xlink:href="dir_204e0a37828fe70ffe7073e2d4563165.html" target="_top" xlink:title="frameworks">
<polygon fill="#eeeeff" stroke="black" points="196,-108 128,-108 128,-72 196,-72 196,-108"/>
<text text-anchor="middle" x="162" y="-87.5" font-family="Helvetica,sans-Serif" font-size="10.00">frameworks</text>
</a>
</g>
<!-- dir_55aa7dff72311e91c90ae626074ddca7 -->
<g id="node3" class="node"><title>dir_55aa7dff72311e91c90ae626074ddca7</title>
<a xlink:href="dir_55aa7dff72311e91c90ae626074ddca7.html" target="_top" xlink:title="core">
<polygon fill="none" stroke="black" points="118,-181 64,-181 64,-145 118,-145 118,-181"/>
<text text-anchor="middle" x="91" y="-160.5" font-family="Helvetica,sans-Serif" font-size="10.00">core</text>
</a>
</g>
<!-- dir_204e0a37828fe70ffe7073e2d4563165&#45;&gt;dir_55aa7dff72311e91c90ae626074ddca7 -->
<g id="edge15" class="edge"><title>dir_204e0a37828fe70ffe7073e2d4563165&#45;&gt;dir_55aa7dff72311e91c90ae626074ddca7</title>
<path fill="none" stroke="black" d="M140.734,-108.209C132.869,-117.273 123.96,-128.153 115,-137 114.663,-137.333 114.321,-137.666 113.976,-137.999"/>
<polygon fill="black" stroke="black" points="111.464,-135.552 106.403,-144.859 116.164,-140.739 111.464,-135.552"/>
<a xlink:href="dir_000005_000006.html" target="_top" xlink:title="14">
<text text-anchor="middle" x="112.222" y="-128.534" font-family="Helvetica,sans-Serif" font-size="10.00">14</text>
</a>
</g>
<!-- dir_db673584cccf74eb7dc72eb65f8cf944 -->
<g id="node4" class="node"><title>dir_db673584cccf74eb7dc72eb65f8cf944</title>
<a xlink:href="dir_db673584cccf74eb7dc72eb65f8cf944.html" target="_top" xlink:title="domain">
<polygon fill="none" stroke="black" points="54,-108 2.13163e-14,-108 0,-72 54,-72 54,-108"/>
<text text-anchor="middle" x="27" y="-87.5" font-family="Helvetica,sans-Serif" font-size="10.00">domain</text>
</a>
</g>
<!-- dir_204e0a37828fe70ffe7073e2d4563165&#45;&gt;dir_db673584cccf74eb7dc72eb65f8cf944 -->
<g id="edge17" class="edge"><title>dir_204e0a37828fe70ffe7073e2d4563165&#45;&gt;dir_db673584cccf74eb7dc72eb65f8cf944</title>
<path fill="none" stroke="black" d="M127.878,-90C106.664,-90 85.4508,-90 64.2371,-90"/>
<polygon fill="black" stroke="black" points="64.1582,-86.5001 54.1582,-90 64.1582,-93.5001 64.1582,-86.5001"/>
<a xlink:href="dir_000005_000008.html" target="_top" xlink:title="3">
<text text-anchor="middle" x="67.7528" y="-81.1607" font-family="Helvetica,sans-Serif" font-size="10.00">3</text>
</a>
</g>
<!-- dir_ebdfabc8c524d612380bb6416ad142cb -->
<g id="node5" class="node"><title>dir_ebdfabc8c524d612380bb6416ad142cb</title>
<a xlink:href="dir_ebdfabc8c524d612380bb6416ad142cb.html" target="_top" xlink:title="document">
<polygon fill="none" stroke="black" points="118,-36 60,-36 60,-1.77636e-14 118,-3.55271e-15 118,-36"/>
<text text-anchor="middle" x="89" y="-15.5" font-family="Helvetica,sans-Serif" font-size="10.00">document</text>
</a>
</g>
<!-- dir_204e0a37828fe70ffe7073e2d4563165&#45;&gt;dir_ebdfabc8c524d612380bb6416ad142cb -->
<g id="edge19" class="edge"><title>dir_204e0a37828fe70ffe7073e2d4563165&#45;&gt;dir_ebdfabc8c524d612380bb6416ad142cb</title>
<path fill="none" stroke="black" d="M137.627,-71.8314C128.222,-63.3694 117.675,-53.1489 108.749,-43.8971"/>
<polygon fill="black" stroke="black" points="111.1,-41.2884 101.693,-36.4133 106.006,-46.0904 111.1,-41.2884"/>
<a xlink:href="dir_000005_000021.html" target="_top" xlink:title="1">
<text text-anchor="middle" x="115.631" y="-39.4561" font-family="Helvetica,sans-Serif" font-size="10.00">1</text>
</a>
</g>
<!-- dir_e3106e48543b46def50147ecef09597d -->
<g id="node6" class="node"><title>dir_e3106e48543b46def50147ecef09597d</title>
<a xlink:href="dir_e3106e48543b46def50147ecef09597d.html" target="_top" xlink:title="globals">
<polygon fill="none" stroke="black" points="190,-36 136,-36 136,-1.77636e-14 190,-3.55271e-15 190,-36"/>
<text text-anchor="middle" x="163" y="-15.5" font-family="Helvetica,sans-Serif" font-size="10.00">globals</text>
</a>
</g>
<!-- dir_204e0a37828fe70ffe7073e2d4563165&#45;&gt;dir_e3106e48543b46def50147ecef09597d -->
<g id="edge21" class="edge"><title>dir_204e0a37828fe70ffe7073e2d4563165&#45;&gt;dir_e3106e48543b46def50147ecef09597d</title>
<path fill="none" stroke="black" d="M162.252,-71.8314C162.359,-64.131 162.486,-54.9743 162.605,-46.4166"/>
<polygon fill="black" stroke="black" points="166.105,-46.4609 162.744,-36.4133 159.106,-46.3637 166.105,-46.4609"/>
<a xlink:href="dir_000005_000023.html" target="_top" xlink:title="1">
<text text-anchor="middle" x="168.894" y="-47.5946" font-family="Helvetica,sans-Serif" font-size="10.00">1</text>
</a>
</g>
<!-- dir_55aa7dff72311e91c90ae626074ddca7&#45;&gt;dir_204e0a37828fe70ffe7073e2d4563165 -->
<g id="edge5" class="edge"><title>dir_55aa7dff72311e91c90ae626074ddca7&#45;&gt;dir_204e0a37828fe70ffe7073e2d4563165</title>
<path fill="none" stroke="black" d="M118.084,-149.662C123.348,-145.788 128.537,-141.407 133,-137 139.3,-130.779 145.575,-123.553 150.835,-116.661"/>
<polygon fill="black" stroke="black" points="153.909,-118.379 156.88,-108.209 148.215,-114.307 153.909,-118.379"/>
<a xlink:href="dir_000006_000005.html" target="_top" xlink:title="16">
<text text-anchor="middle" x="154.127" y="-120.455" font-family="Helvetica,sans-Serif" font-size="10.00">16</text>
</a>
</g>
<!-- dir_55aa7dff72311e91c90ae626074ddca7&#45;&gt;dir_db673584cccf74eb7dc72eb65f8cf944 -->
<g id="edge3" class="edge"><title>dir_55aa7dff72311e91c90ae626074ddca7&#45;&gt;dir_db673584cccf74eb7dc72eb65f8cf944</title>
<path fill="none" stroke="black" d="M65.9928,-144.831C63.5808,-142.206 61.2273,-139.536 59,-137 53.1713,-130.365 46.8949,-123.187 41.3387,-116.485"/>
<polygon fill="black" stroke="black" points="43.7704,-113.924 34.7741,-108.328 38.3171,-118.313 43.7704,-113.924"/>
<a xlink:href="dir_000006_000008.html" target="_top" xlink:title="8">
<text text-anchor="middle" x="48.236" y="-112.445" font-family="Helvetica,sans-Serif" font-size="10.00">8</text>
</a>
</g>
<!-- dir_55aa7dff72311e91c90ae626074ddca7&#45;&gt;dir_ebdfabc8c524d612380bb6416ad142cb -->
<g id="edge7" class="edge"><title>dir_55aa7dff72311e91c90ae626074ddca7&#45;&gt;dir_ebdfabc8c524d612380bb6416ad142cb</title>
<path fill="none" stroke="black" d="M86.1069,-144.929C83.2713,-120.182 82.3761,-75.4973 83.9099,-46.2926"/>
<polygon fill="black" stroke="black" points="87.4029,-46.5123 84.5857,-36.2989 80.4189,-46.0399 87.4029,-46.5123"/>
<a xlink:href="dir_000006_000021.html" target="_top" xlink:title="9">
<text text-anchor="middle" x="89.9933" y="-47.7903" font-family="Helvetica,sans-Serif" font-size="10.00">9</text>
</a>
</g>
<!-- dir_db673584cccf74eb7dc72eb65f8cf944&#45;&gt;dir_204e0a37828fe70ffe7073e2d4563165 -->
<g id="edge11" class="edge"><title>dir_db673584cccf74eb7dc72eb65f8cf944&#45;&gt;dir_204e0a37828fe70ffe7073e2d4563165</title>
<path fill="none" stroke="black" d="M54.1582,-90C75.3719,-90 96.5856,-90 117.799,-90"/>
<polygon fill="black" stroke="black" points="117.878,-93.5001 127.878,-90 117.878,-86.5001 117.878,-93.5001"/>
<a xlink:href="dir_000008_000005.html" target="_top" xlink:title="14">
<text text-anchor="middle" x="114.284" y="-93.8393" font-family="Helvetica,sans-Serif" font-size="10.00">14</text>
</a>
</g>
<!-- dir_db673584cccf74eb7dc72eb65f8cf944&#45;&gt;dir_55aa7dff72311e91c90ae626074ddca7 -->
<g id="edge9" class="edge"><title>dir_db673584cccf74eb7dc72eb65f8cf944&#45;&gt;dir_55aa7dff72311e91c90ae626074ddca7</title>
<path fill="none" stroke="black" d="M51.0994,-108.328C59.5149,-117.029 68.7103,-127.563 77,-137 77.1392,-137.158 77.2789,-137.317 77.419,-137.477"/>
<polygon fill="black" stroke="black" points="74.6052,-139.575 83.8044,-144.831 79.8908,-134.985 74.6052,-139.575"/>
<a xlink:href="dir_000008_000006.html" target="_top" xlink:title="83">
<text text-anchor="middle" x="70.1046" y="-136.222" font-family="Helvetica,sans-Serif" font-size="10.00">83</text>
</a>
</g>
<!-- dir_db673584cccf74eb7dc72eb65f8cf944&#45;&gt;dir_ebdfabc8c524d612380bb6416ad142cb -->
<g id="edge13" class="edge"><title>dir_db673584cccf74eb7dc72eb65f8cf944&#45;&gt;dir_ebdfabc8c524d612380bb6416ad142cb</title>
<path fill="none" stroke="black" d="M36.6928,-71.8314C43.1549,-63.3694 51.7707,-53.1489 60.1917,-43.8971"/>
<polygon fill="black" stroke="black" points="62.9095,-46.1146 67.1681,-36.4133 57.7892,-41.3414 62.9095,-46.1146"/>
<a xlink:href="dir_000008_000021.html" target="_top" xlink:title="14">
<text text-anchor="middle" x="62.5353" y="-48.1799" font-family="Helvetica,sans-Serif" font-size="10.00">14</text>
</a>
</g>
<!-- dir_ebdfabc8c524d612380bb6416ad142cb&#45;&gt;dir_204e0a37828fe70ffe7073e2d4563165 -->
<g id="edge27" class="edge"><title>dir_ebdfabc8c524d612380bb6416ad142cb&#45;&gt;dir_204e0a37828fe70ffe7073e2d4563165</title>
<path fill="none" stroke="black" d="M113.367,-36.1628C122.843,-44.6891 133.481,-55.0016 142.451,-64.3099"/>
<polygon fill="black" stroke="black" points="140.128,-66.9492 149.531,-71.8314 145.225,-62.151 140.128,-66.9492"/>
<a xlink:href="dir_000021_000005.html" target="_top" xlink:title="6">
<text text-anchor="middle" x="135.597" y="-63.778" font-family="Helvetica,sans-Serif" font-size="10.00">6</text>
</a>
</g>
<!-- dir_ebdfabc8c524d612380bb6416ad142cb&#45;&gt;dir_55aa7dff72311e91c90ae626074ddca7 -->
<g id="edge23" class="edge"><title>dir_ebdfabc8c524d612380bb6416ad142cb&#45;&gt;dir_55aa7dff72311e91c90ae626074ddca7</title>
<path fill="none" stroke="black" d="M93.9191,-36.2989C96.7304,-61.0583 97.6168,-105.474 96.0962,-134.591"/>
<polygon fill="black" stroke="black" points="92.5799,-134.715 95.3946,-144.929 99.5638,-135.189 92.5799,-134.715"/>
<a xlink:href="dir_000021_000006.html" target="_top" xlink:title="21">
<text text-anchor="middle" x="89.9904" y="-128.436" font-family="Helvetica,sans-Serif" font-size="10.00">21</text>
</a>
</g>
<!-- dir_ebdfabc8c524d612380bb6416ad142cb&#45;&gt;dir_db673584cccf74eb7dc72eb65f8cf944 -->
<g id="edge25" class="edge"><title>dir_ebdfabc8c524d612380bb6416ad142cb&#45;&gt;dir_db673584cccf74eb7dc72eb65f8cf944</title>
<path fill="none" stroke="black" d="M79.1201,-36.4133C72.6169,-44.9088 63.9825,-55.1366 55.5653,-64.3696"/>
<polygon fill="black" stroke="black" points="52.8645,-62.1337 48.5976,-71.8314 57.9807,-66.9112 52.8645,-62.1337"/>
<a xlink:href="dir_000021_000008.html" target="_top" xlink:title="3">
<text text-anchor="middle" x="53.2426" y="-55.0687" font-family="Helvetica,sans-Serif" font-size="10.00">3</text>
</a>
</g>
</g>
</svg>
