<?xml version="1.0" encoding="UTF-8" standalone="no"?>
<!DOCTYPE svg PUBLIC "-//W3C//DTD SVG 1.1//EN"
 "http://www.w3.org/Graphics/SVG/1.1/DTD/svg11.dtd">
<!-- Generated by graphviz version 2.26.3 (20100126.1600)
 -->
<!-- Title: UBImportDocument::addFileToDocument Pages: 1 -->
<svg width="1344pt" height="296pt"
 viewBox="0.00 0.00 1344.00 296.00" xmlns="http://www.w3.org/2000/svg" xmlns:xlink="http://www.w3.org/1999/xlink">
<g id="graph1" class="graph" transform="scale(1 1) rotate(0) translate(4 292)">
<title>UBImportDocument::addFileToDocument</title>
<polygon fill="white" stroke="white" points="-4,5 -4,-292 1341,-292 1341,5 -4,5"/>
<!-- Node1 -->
<g id="node1" class="node"><title>Node1</title>
<polygon fill="#bfbfbf" stroke="black" points="0.5,-104 0.5,-138 141.5,-138 141.5,-104 0.5,-104"/>
<text text-anchor="start" x="8.5" y="-125" font-family="Helvetica,sans-Serif" font-size="10.00">UBImportDocument::addFile</text>
<text text-anchor="middle" x="71" y="-112" font-family="Helvetica,sans-Serif" font-size="10.00">ToDocument</text>
</g>
<!-- Node2 -->
<g id="node3" class="node"><title>Node2</title>
<a xlink:href="../../d8/d81/class_u_b_application.html#afd12508537e75aaa6789431e60b60b44" target="_top" xlink:title="UBApplication::showMessage">
<polygon fill="white" stroke="black" points="178,-182.5 178,-203.5 326,-203.5 326,-182.5 178,-182.5"/>
<text text-anchor="middle" x="252" y="-190.5" font-family="Helvetica,sans-Serif" font-size="10.00">UBApplication::showMessage</text>
</a>
</g>
<!-- Node1&#45;&gt;Node2 -->
<g id="edge2" class="edge"><title>Node1&#45;&gt;Node2</title>
<path fill="none" stroke="midnightblue" d="M102.15,-138.075C123.139,-149.093 151.693,-163.153 178,-173 184.281,-175.351 190.956,-177.551 197.627,-179.569"/>
<polygon fill="midnightblue" stroke="midnightblue" points="196.772,-182.965 207.351,-182.391 198.723,-176.243 196.772,-182.965"/>
</g>
<!-- Node17 -->
<g id="node33" class="node"><title>Node17</title>
<a xlink:href="../../d2/d7a/class_u_b_file_system_utils.html#aa3c7075cc43aa4b8dcefd7d06fab2d6a" target="_top" xlink:title="UBFileSystemUtils:\l:createTempDir">
<polygon fill="white" stroke="black" points="200,-130 200,-164 304,-164 304,-130 200,-130"/>
<text text-anchor="start" x="208" y="-151" font-family="Helvetica,sans-Serif" font-size="10.00">UBFileSystemUtils:</text>
<text text-anchor="middle" x="252" y="-138" font-family="Helvetica,sans-Serif" font-size="10.00">:createTempDir</text>
</a>
</g>
<!-- Node1&#45;&gt;Node17 -->
<g id="edge32" class="edge"><title>Node1&#45;&gt;Node17</title>
<path fill="none" stroke="midnightblue" d="M141.757,-131.164C157.617,-133.442 174.328,-135.843 189.81,-138.067"/>
<polygon fill="midnightblue" stroke="midnightblue" points="189.388,-141.542 199.784,-139.499 190.384,-134.613 189.388,-141.542"/>
</g>
<!-- Node18 -->
<g id="node35" class="node"><title>Node18</title>
<a xlink:href="../../d0/dd5/class_u_b_persistence_manager.html#ad8b7a880564523143d73c6b86d887769" target="_top" xlink:title="UBPersistenceManager\l::persistenceManager">
<polygon fill="white" stroke="black" points="192,-78 192,-112 312,-112 312,-78 192,-78"/>
<text text-anchor="start" x="200" y="-99" font-family="Helvetica,sans-Serif" font-size="10.00">UBPersistenceManager</text>
<text text-anchor="middle" x="252" y="-86" font-family="Helvetica,sans-Serif" font-size="10.00">::persistenceManager</text>
</a>
</g>
<!-- Node1&#45;&gt;Node18 -->
<g id="edge34" class="edge"><title>Node1&#45;&gt;Node18</title>
<path fill="none" stroke="midnightblue" d="M141.757,-110.836C154.952,-108.941 168.735,-106.961 181.91,-105.068"/>
<polygon fill="midnightblue" stroke="midnightblue" points="182.445,-108.527 191.846,-103.641 181.45,-101.598 182.445,-108.527"/>
</g>
<!-- Node19 -->
<g id="node37" class="node"><title>Node19</title>
<a xlink:href="../../d2/d7a/class_u_b_file_system_utils.html#aff7b8489683cdec07a5ad696571138f4" target="_top" xlink:title="UBFileSystemUtils:\l:deleteDir">
<polygon fill="white" stroke="black" points="200,-26 200,-60 304,-60 304,-26 200,-26"/>
<text text-anchor="start" x="208" y="-47" font-family="Helvetica,sans-Serif" font-size="10.00">UBFileSystemUtils:</text>
<text text-anchor="middle" x="252" y="-34" font-family="Helvetica,sans-Serif" font-size="10.00">:deleteDir</text>
</a>
</g>
<!-- Node1&#45;&gt;Node19 -->
<g id="edge36" class="edge"><title>Node1&#45;&gt;Node19</title>
<path fill="none" stroke="midnightblue" d="M103.809,-103.845C124.757,-93.1961 152.647,-79.5737 178,-69 182.328,-67.1949 186.831,-65.405 191.383,-63.6588"/>
<polygon fill="midnightblue" stroke="midnightblue" points="192.621,-66.9327 200.756,-60.1451 190.164,-60.3781 192.621,-66.9327"/>
</g>
<!-- Node3 -->
<g id="node5" class="node"><title>Node3</title>
<a xlink:href="../../da/d14/class_u_b_application_controller.html#aaefcc19888d509988d3e82b334d76830" target="_top" xlink:title="UBApplicationController\l::showMessage">
<polygon fill="white" stroke="black" points="362.5,-176 362.5,-210 483.5,-210 483.5,-176 362.5,-176"/>
<text text-anchor="start" x="370.5" y="-197" font-family="Helvetica,sans-Serif" font-size="10.00">UBApplicationController</text>
<text text-anchor="middle" x="423" y="-184" font-family="Helvetica,sans-Serif" font-size="10.00">::showMessage</text>
</a>
</g>
<!-- Node2&#45;&gt;Node3 -->
<g id="edge4" class="edge"><title>Node2&#45;&gt;Node3</title>
<path fill="none" stroke="midnightblue" d="M326.009,-193C334.702,-193 343.557,-193 352.205,-193"/>
<polygon fill="midnightblue" stroke="midnightblue" points="352.24,-196.5 362.24,-193 352.24,-189.5 352.24,-196.5"/>
</g>
<!-- Node4 -->
<g id="node7" class="node"><title>Node4</title>
<a xlink:href="../../d7/d62/class_u_b_board_controller.html#a71d2fb8834fc701bed0b16bb0f0b5527" target="_top" xlink:title="UBBoardController:\l:hideMessage">
<polygon fill="white" stroke="black" points="528.5,-254 528.5,-288 629.5,-288 629.5,-254 528.5,-254"/>
<text text-anchor="start" x="536.5" y="-275" font-family="Helvetica,sans-Serif" font-size="10.00">UBBoardController:</text>
<text text-anchor="middle" x="579" y="-262" font-family="Helvetica,sans-Serif" font-size="10.00">:hideMessage</text>
</a>
</g>
<!-- Node3&#45;&gt;Node4 -->
<g id="edge6" class="edge"><title>Node3&#45;&gt;Node4</title>
<path fill="none" stroke="midnightblue" d="M453.27,-210.003C472.248,-220.468 497.329,-233.948 520,-245 523.165,-246.543 526.442,-248.099 529.758,-249.642"/>
<polygon fill="midnightblue" stroke="midnightblue" points="528.587,-252.955 539.137,-253.933 531.5,-246.59 528.587,-252.955"/>
</g>
<!-- Node6 -->
<g id="node11" class="node"><title>Node6</title>
<a xlink:href="../../d6/de0/class_u_b_document_controller.html#aa5a4bf5ad86548cda5fd75ce6eb9f28f" target="_top" xlink:title="UBDocumentController\l::showMessage">
<polygon fill="white" stroke="black" points="520,-202 520,-236 638,-236 638,-202 520,-202"/>
<text text-anchor="start" x="528" y="-223" font-family="Helvetica,sans-Serif" font-size="10.00">UBDocumentController</text>
<text text-anchor="middle" x="579" y="-210" font-family="Helvetica,sans-Serif" font-size="10.00">::showMessage</text>
</a>
</g>
<!-- Node3&#45;&gt;Node6 -->
<g id="edge10" class="edge"><title>Node3&#45;&gt;Node6</title>
<path fill="none" stroke="midnightblue" d="M483.76,-203.127C492.307,-204.551 501.145,-206.024 509.835,-207.472"/>
<polygon fill="midnightblue" stroke="midnightblue" points="509.502,-210.965 519.941,-209.157 510.653,-204.06 509.502,-210.965"/>
</g>
<!-- Node7 -->
<g id="node13" class="node"><title>Node7</title>
<a xlink:href="../../d6/de0/class_u_b_document_controller.html#a73b29c9fcfc83397a6bd30af5fdc1ed2" target="_top" xlink:title="UBDocumentController\l::hideMessage">
<polygon fill="white" stroke="black" points="520,-150 520,-184 638,-184 638,-150 520,-150"/>
<text text-anchor="start" x="528" y="-171" font-family="Helvetica,sans-Serif" font-size="10.00">UBDocumentController</text>
<text text-anchor="middle" x="579" y="-158" font-family="Helvetica,sans-Serif" font-size="10.00">::hideMessage</text>
</a>
</g>
<!-- Node3&#45;&gt;Node7 -->
<g id="edge12" class="edge"><title>Node3&#45;&gt;Node7</title>
<path fill="none" stroke="midnightblue" d="M483.76,-182.873C492.307,-181.449 501.145,-179.976 509.835,-178.528"/>
<polygon fill="midnightblue" stroke="midnightblue" points="510.653,-181.94 519.941,-176.843 509.502,-175.035 510.653,-181.94"/>
</g>
<!-- Node8 -->
<g id="node15" class="node"><title>Node8</title>
<a xlink:href="../../d7/d62/class_u_b_board_controller.html#a71ff510e4ce1e3a753f074a0e7438a00" target="_top" xlink:title="UBBoardController:\l:showMessage">
<polygon fill="white" stroke="black" points="528.5,-98 528.5,-132 629.5,-132 629.5,-98 528.5,-98"/>
<text text-anchor="start" x="536.5" y="-119" font-family="Helvetica,sans-Serif" font-size="10.00">UBBoardController:</text>
<text text-anchor="middle" x="579" y="-106" font-family="Helvetica,sans-Serif" font-size="10.00">:showMessage</text>
</a>
</g>
<!-- Node3&#45;&gt;Node8 -->
<g id="edge14" class="edge"><title>Node3&#45;&gt;Node8</title>
<path fill="none" stroke="midnightblue" d="M453.27,-175.997C472.248,-165.532 497.329,-152.052 520,-141 523.165,-139.457 526.442,-137.901 529.758,-136.358"/>
<polygon fill="midnightblue" stroke="midnightblue" points="531.5,-139.41 539.137,-132.067 528.587,-133.045 531.5,-139.41"/>
</g>
<!-- Node5 -->
<g id="node9" class="node"><title>Node5</title>
<a xlink:href="../../d5/d02/class_u_b_message_window.html#af0f92d33532361f4048ab584621518f8" target="_top" xlink:title="UBMessageWindow::hideMessage">
<polygon fill="white" stroke="black" points="677,-260.5 677,-281.5 847,-281.5 847,-260.5 677,-260.5"/>
<text text-anchor="middle" x="762" y="-268.5" font-family="Helvetica,sans-Serif" font-size="10.00">UBMessageWindow::hideMessage</text>
</a>
</g>
<!-- Node4&#45;&gt;Node5 -->
<g id="edge8" class="edge"><title>Node4&#45;&gt;Node5</title>
<path fill="none" stroke="midnightblue" d="M629.976,-271C641.492,-271 654.081,-271 666.766,-271"/>
<polygon fill="midnightblue" stroke="midnightblue" points="666.941,-274.5 676.941,-271 666.941,-267.5 666.941,-274.5"/>
</g>
<!-- Node9 -->
<g id="node17" class="node"><title>Node9</title>
<a xlink:href="../../d5/d02/class_u_b_message_window.html#a8c6e3ff66e94a5ff2e11ebf52d5a8b35" target="_top" xlink:title="UBMessageWindow::showMessage">
<polygon fill="white" stroke="black" points="674.5,-104.5 674.5,-125.5 849.5,-125.5 849.5,-104.5 674.5,-104.5"/>
<text text-anchor="middle" x="762" y="-112.5" font-family="Helvetica,sans-Serif" font-size="10.00">UBMessageWindow::showMessage</text>
</a>
</g>
<!-- Node8&#45;&gt;Node9 -->
<g id="edge16" class="edge"><title>Node8&#45;&gt;Node9</title>
<path fill="none" stroke="midnightblue" d="M629.976,-115C640.799,-115 652.571,-115 664.48,-115"/>
<polygon fill="midnightblue" stroke="midnightblue" points="664.497,-118.5 674.497,-115 664.497,-111.5 664.497,-118.5"/>
</g>
<!-- Node10 -->
<g id="node19" class="node"><title>Node10</title>
<a xlink:href="../../d6/da4/class_u_b_spinning_wheel.html#acbcc339c4ad8ac331812ef58581e8264" target="_top" xlink:title="UBSpinningWheel::startAnimation">
<polygon fill="white" stroke="black" points="886.5,-144.5 886.5,-165.5 1051.5,-165.5 1051.5,-144.5 886.5,-144.5"/>
<text text-anchor="middle" x="969" y="-152.5" font-family="Helvetica,sans-Serif" font-size="10.00">UBSpinningWheel::startAnimation</text>
</a>
</g>
<!-- Node9&#45;&gt;Node10 -->
<g id="edge18" class="edge"><title>Node9&#45;&gt;Node10</title>
<path fill="none" stroke="midnightblue" d="M816.387,-125.51C843.378,-130.725 876.17,-137.062 904.43,-142.523"/>
<polygon fill="midnightblue" stroke="midnightblue" points="904.135,-146.03 914.617,-144.491 905.463,-139.158 904.135,-146.03"/>
</g>
<!-- Node11 -->
<g id="node21" class="node"><title>Node11</title>
<a xlink:href="../../d6/da4/class_u_b_spinning_wheel.html#afce6e8912a9ea4ce878ea2a0dcd47d7e" target="_top" xlink:title="UBSpinningWheel::stopAnimation">
<polygon fill="white" stroke="black" points="887,-104.5 887,-125.5 1051,-125.5 1051,-104.5 887,-104.5"/>
<text text-anchor="middle" x="969" y="-112.5" font-family="Helvetica,sans-Serif" font-size="10.00">UBSpinningWheel::stopAnimation</text>
</a>
</g>
<!-- Node9&#45;&gt;Node11 -->
<g id="edge20" class="edge"><title>Node9&#45;&gt;Node11</title>
<path fill="none" stroke="midnightblue" d="M849.787,-115C858.673,-115 867.718,-115 876.651,-115"/>
<polygon fill="midnightblue" stroke="midnightblue" points="876.675,-118.5 886.675,-115 876.675,-111.5 876.675,-118.5"/>
</g>
<!-- Node12 -->
<g id="node23" class="node"><title>Node12</title>
<a xlink:href="../../d1/d97/class_u_b_floating_palette.html#abc34a1ea7b29b6aaa4a0ea25d5715210" target="_top" xlink:title="UBFloatingPalette:\l:adjustSizeAndPosition">
<polygon fill="white" stroke="black" points="910,-52 910,-86 1028,-86 1028,-52 910,-52"/>
<text text-anchor="start" x="918" y="-73" font-family="Helvetica,sans-Serif" font-size="10.00">UBFloatingPalette:</text>
<text text-anchor="middle" x="969" y="-60" font-family="Helvetica,sans-Serif" font-size="10.00">:adjustSizeAndPosition</text>
</a>
</g>
<!-- Node9&#45;&gt;Node12 -->
<g id="edge22" class="edge"><title>Node9&#45;&gt;Node12</title>
<path fill="none" stroke="midnightblue" d="M809.49,-104.447C836.3,-98.4889 870.285,-90.9367 899.99,-84.3355"/>
<polygon fill="midnightblue" stroke="midnightblue" points="900.881,-87.7231 909.883,-82.137 899.362,-80.8897 900.881,-87.7231"/>
</g>
<!-- Node13 -->
<g id="node25" class="node"><title>Node13</title>
<a xlink:href="../../d1/d97/class_u_b_floating_palette.html#aec5822b784da7d590ff463ed9cb44be9" target="_top" xlink:title="UBFloatingPalette:\l:preferredSize">
<polygon fill="white" stroke="black" points="1088.5,-78 1088.5,-112 1187.5,-112 1187.5,-78 1088.5,-78"/>
<text text-anchor="start" x="1096.5" y="-99" font-family="Helvetica,sans-Serif" font-size="10.00">UBFloatingPalette:</text>
<text text-anchor="middle" x="1138" y="-86" font-family="Helvetica,sans-Serif" font-size="10.00">:preferredSize</text>
</a>
</g>
<!-- Node12&#45;&gt;Node13 -->
<g id="edge24" class="edge"><title>Node12&#45;&gt;Node13</title>
<path fill="none" stroke="midnightblue" d="M1028.11,-78.0935C1044.42,-80.6038 1062.13,-83.3283 1078.47,-85.8422"/>
<polygon fill="midnightblue" stroke="midnightblue" points="1078.03,-89.3151 1088.45,-87.3765 1079.1,-82.3965 1078.03,-89.3151"/>
</g>
<!-- Node14 -->
<g id="node27" class="node"><title>Node14</title>
<a xlink:href="../../d1/d97/class_u_b_floating_palette.html#a187ee35c53cfad79bb5b30dff1800732" target="_top" xlink:title="UBFloatingPalette:\l:moveInsideParent">
<polygon fill="white" stroke="black" points="1088.5,-26 1088.5,-60 1187.5,-60 1187.5,-26 1088.5,-26"/>
<text text-anchor="start" x="1096.5" y="-47" font-family="Helvetica,sans-Serif" font-size="10.00">UBFloatingPalette:</text>
<text text-anchor="middle" x="1138" y="-34" font-family="Helvetica,sans-Serif" font-size="10.00">:moveInsideParent</text>
</a>
</g>
<!-- Node12&#45;&gt;Node14 -->
<g id="edge26" class="edge"><title>Node12&#45;&gt;Node14</title>
<path fill="none" stroke="midnightblue" d="M1028.11,-59.9065C1044.42,-57.3962 1062.13,-54.6717 1078.47,-52.1578"/>
<polygon fill="midnightblue" stroke="midnightblue" points="1079.1,-55.6035 1088.45,-50.6235 1078.03,-48.6849 1079.1,-55.6035"/>
</g>
<!-- Node15 -->
<g id="node29" class="node"><title>Node15</title>
<a xlink:href="../../d1/d97/class_u_b_floating_palette.html#a1902d37271315e9e06d6743752104f47" target="_top" xlink:title="UBFloatingPalette:\l:border">
<polygon fill="white" stroke="black" points="1230.5,-52 1230.5,-86 1329.5,-86 1329.5,-52 1230.5,-52"/>
<text text-anchor="start" x="1238.5" y="-73" font-family="Helvetica,sans-Serif" font-size="10.00">UBFloatingPalette:</text>
<text text-anchor="middle" x="1280" y="-60" font-family="Helvetica,sans-Serif" font-size="10.00">:border</text>
</a>
</g>
<!-- Node14&#45;&gt;Node15 -->
<g id="edge28" class="edge"><title>Node14&#45;&gt;Node15</title>
<path fill="none" stroke="midnightblue" d="M1187.66,-52.0935C1198.2,-54.0219 1209.42,-56.0768 1220.28,-58.0655"/>
<polygon fill="midnightblue" stroke="midnightblue" points="1219.66,-61.5093 1230.12,-59.8676 1220.92,-54.6238 1219.66,-61.5093"/>
</g>
<!-- Node16 -->
<g id="node31" class="node"><title>Node16</title>
<a xlink:href="../../d1/d97/class_u_b_floating_palette.html#acf3ead0c3d8a3bde89b934ad208e9f9a" target="_top" xlink:title="UBFloatingPalette:\l:getParentRightOffset">
<polygon fill="white" stroke="black" points="1224,-0 1224,-34 1336,-34 1336,-0 1224,-0"/>
<text text-anchor="start" x="1232" y="-21" font-family="Helvetica,sans-Serif" font-size="10.00">UBFloatingPalette:</text>
<text text-anchor="middle" x="1280" y="-8" font-family="Helvetica,sans-Serif" font-size="10.00">:getParentRightOffset</text>
</a>
</g>
<!-- Node14&#45;&gt;Node16 -->
<g id="edge30" class="edge"><title>Node14&#45;&gt;Node16</title>
<path fill="none" stroke="midnightblue" d="M1187.66,-33.9065C1196.15,-32.3531 1205.08,-30.7176 1213.91,-29.1008"/>
<polygon fill="midnightblue" stroke="midnightblue" points="1214.6,-32.5326 1223.81,-27.2887 1213.34,-25.6471 1214.6,-32.5326"/>
</g>
</g>
</svg>
