<?xml version="1.0" encoding="UTF-8" standalone="no"?>
<!DOCTYPE svg PUBLIC "-//W3C//DTD SVG 1.1//EN"
 "http://www.w3.org/Graphics/SVG/1.1/DTD/svg11.dtd">
<!-- Generated by graphviz version 2.26.3 (20100126.1600)
 -->
<!-- Title: UBSetting::reset Pages: 1 -->
<svg width="590pt" height="42pt"
 viewBox="0.00 0.00 590.00 42.00" xmlns="http://www.w3.org/2000/svg" xmlns:xlink="http://www.w3.org/1999/xlink">
<g id="graph1" class="graph" transform="scale(1 1) rotate(0) translate(4 38)">
<title>UBSetting::reset</title>
<polygon fill="white" stroke="white" points="-4,5 -4,-38 587,-38 587,5 -4,5"/>
<!-- Node1 -->
<g id="node1" class="node"><title>Node1</title>
<polygon fill="#bfbfbf" stroke="black" points="0.5,-6.5 0.5,-27.5 89.5,-27.5 89.5,-6.5 0.5,-6.5"/>
<text text-anchor="middle" x="45" y="-14.5" font-family="Helvetica,sans-Serif" font-size="10.00">UBSetting::reset</text>
</g>
<!-- Node2 -->
<g id="node3" class="node"><title>Node2</title>
<a xlink:href="../../d3/d33/class_u_b_preferences_controller.html#ab60dcebb8c91877a2e295a45efeae3a6" target="_top" xlink:title="UBPreferencesController\l::defaultSettings">
<polygon fill="white" stroke="black" points="126.5,-0 126.5,-34 251.5,-34 251.5,-0 126.5,-0"/>
<text text-anchor="start" x="134.5" y="-21" font-family="Helvetica,sans-Serif" font-size="10.00">UBPreferencesController</text>
<text text-anchor="middle" x="189" y="-8" font-family="Helvetica,sans-Serif" font-size="10.00">::defaultSettings</text>
</a>
</g>
<!-- Node1&#45;&gt;Node2 -->
<g id="edge2" class="edge"><title>Node1&#45;&gt;Node2</title>
<path fill="none" stroke="midnightblue" d="M100.036,-17C108.618,-17 117.541,-17 126.278,-17"/>
<polygon fill="midnightblue" stroke="midnightblue" points="99.7732,-13.5001 89.7731,-17 99.7731,-20.5001 99.7732,-13.5001"/>
</g>
<!-- Node3 -->
<g id="node5" class="node"><title>Node3</title>
<a xlink:href="../../d3/d33/class_u_b_preferences_controller.html#ad58e84c5ae34f18622453060ac927ac1" target="_top" xlink:title="UBPreferencesController\l::wire">
<polygon fill="white" stroke="black" points="288.5,-0 288.5,-34 413.5,-34 413.5,-0 288.5,-0"/>
<text text-anchor="start" x="296.5" y="-21" font-family="Helvetica,sans-Serif" font-size="10.00">UBPreferencesController</text>
<text text-anchor="middle" x="351" y="-8" font-family="Helvetica,sans-Serif" font-size="10.00">::wire</text>
</a>
</g>
<!-- Node2&#45;&gt;Node3 -->
<g id="edge4" class="edge"><title>Node2&#45;&gt;Node3</title>
<path fill="none" stroke="midnightblue" d="M261.885,-17C270.69,-17 279.624,-17 288.266,-17"/>
<polygon fill="midnightblue" stroke="midnightblue" points="261.633,-13.5001 251.633,-17 261.633,-20.5001 261.633,-13.5001"/>
</g>
<!-- Node4 -->
<g id="node7" class="node"><title>Node4</title>
<a xlink:href="../../d3/d33/class_u_b_preferences_controller.html#a515f90bc539e0c9410c8b2b538b17017" target="_top" xlink:title="UBPreferencesController\l::UBPreferencesController">
<polygon fill="white" stroke="black" points="450.5,-0 450.5,-34 581.5,-34 581.5,-0 450.5,-0"/>
<text text-anchor="start" x="458.5" y="-21" font-family="Helvetica,sans-Serif" font-size="10.00">UBPreferencesController</text>
<text text-anchor="middle" x="516" y="-8" font-family="Helvetica,sans-Serif" font-size="10.00">::UBPreferencesController</text>
</a>
</g>
<!-- Node3&#45;&gt;Node4 -->
<g id="edge6" class="edge"><title>Node3&#45;&gt;Node4</title>
<path fill="none" stroke="midnightblue" d="M424.031,-17C432.78,-17 441.673,-17 450.309,-17"/>
<polygon fill="midnightblue" stroke="midnightblue" points="423.85,-13.5001 413.85,-17 423.85,-20.5001 423.85,-13.5001"/>
</g>
</g>
</svg>
