<?xml version="1.0" encoding="UTF-8" standalone="no"?>
<!DOCTYPE svg PUBLIC "-//W3C//DTD SVG 1.1//EN"
 "http://www.w3.org/Graphics/SVG/1.1/DTD/svg11.dtd">
<!-- Generated by graphviz version 2.26.3 (20100126.1600)
 -->
<!-- Title: Sankore&#45;3.1/src/pdf&#45;merger/Rectangle.h Pages: 1 -->
<svg width="348pt" height="188pt"
 viewBox="0.00 0.00 348.00 188.00" xmlns="http://www.w3.org/2000/svg" xmlns:xlink="http://www.w3.org/1999/xlink">
<g id="graph1" class="graph" transform="scale(1 1) rotate(0) translate(4 184)">
<title>Sankore&#45;3.1/src/pdf&#45;merger/Rectangle.h</title>
<polygon fill="white" stroke="white" points="-4,5 -4,-184 345,-184 345,5 -4,5"/>
<!-- Node1 -->
<g id="node1" class="node"><title>Node1</title>
<polygon fill="#bfbfbf" stroke="black" points="143.5,-145 143.5,-179 248.5,-179 248.5,-145 143.5,-145"/>
<text text-anchor="start" x="151.5" y="-166" font-family="Helvetica,sans-Serif" font-size="10.00">Sankore&#45;3.1/src/pdf</text>
<text text-anchor="middle" x="196" y="-153" font-family="Helvetica,sans-Serif" font-size="10.00">&#45;merger/Rectangle.h</text>
</g>
<!-- Node2 -->
<g id="node3" class="node"><title>Node2</title>
<a xlink:href="../../d0/d28/_crop_box_element_handler_8h.html" target="_top" xlink:title="Sankore&#45;3.1/src/pdf\l&#45;merger/CropBoxElementHandler.h">
<polygon fill="white" stroke="black" points="-0.5,-73 -0.5,-107 168.5,-107 168.5,-73 -0.5,-73"/>
<text text-anchor="start" x="7.5" y="-94" font-family="Helvetica,sans-Serif" font-size="10.00">Sankore&#45;3.1/src/pdf</text>
<text text-anchor="middle" x="84" y="-81" font-family="Helvetica,sans-Serif" font-size="10.00">&#45;merger/CropBoxElementHandler.h</text>
</a>
</g>
<!-- Node1&#45;&gt;Node2 -->
<g id="edge2" class="edge"><title>Node1&#45;&gt;Node2</title>
<path fill="none" stroke="midnightblue" d="M160.788,-139.364C144.608,-128.962 125.729,-116.826 110.74,-107.19"/>
<polygon fill="midnightblue" stroke="midnightblue" points="159.153,-142.474 169.458,-144.937 162.938,-136.585 159.153,-142.474"/>
</g>
<!-- Node3 -->
<g id="node5" class="node"><title>Node3</title>
<a xlink:href="../../d7/dfc/_page_8cpp.html" target="_top" xlink:title="Sankore&#45;3.1/src/pdf\l&#45;merger/Page.cpp">
<polygon fill="white" stroke="black" points="89,-1 89,-35 191,-35 191,-1 89,-1"/>
<text text-anchor="start" x="97" y="-22" font-family="Helvetica,sans-Serif" font-size="10.00">Sankore&#45;3.1/src/pdf</text>
<text text-anchor="middle" x="140" y="-9" font-family="Helvetica,sans-Serif" font-size="10.00">&#45;merger/Page.cpp</text>
</a>
</g>
<!-- Node1&#45;&gt;Node3 -->
<g id="edge6" class="edge"><title>Node1&#45;&gt;Node3</title>
<path fill="none" stroke="midnightblue" d="M193.086,-134.814C190.451,-116.508 185.614,-92.1272 177,-72 171.366,-58.8356 162.315,-45.5485 154.575,-35.4485"/>
<polygon fill="midnightblue" stroke="midnightblue" points="189.626,-135.352 194.395,-144.813 196.567,-134.443 189.626,-135.352"/>
</g>
<!-- Node4 -->
<g id="node8" class="node"><title>Node4</title>
<a xlink:href="../../d5/d16/_rectangle_8cpp.html" target="_top" xlink:title="Sankore&#45;3.1/src/pdf\l&#45;merger/Rectangle.cpp">
<polygon fill="white" stroke="black" points="224,-73 224,-107 340,-107 340,-73 224,-73"/>
<text text-anchor="start" x="232" y="-94" font-family="Helvetica,sans-Serif" font-size="10.00">Sankore&#45;3.1/src/pdf</text>
<text text-anchor="middle" x="282" y="-81" font-family="Helvetica,sans-Serif" font-size="10.00">&#45;merger/Rectangle.cpp</text>
</a>
</g>
<!-- Node1&#45;&gt;Node4 -->
<g id="edge8" class="edge"><title>Node1&#45;&gt;Node4</title>
<path fill="none" stroke="midnightblue" d="M224.078,-138.493C236.265,-128.29 250.278,-116.558 261.467,-107.19"/>
<polygon fill="midnightblue" stroke="midnightblue" points="221.802,-135.834 216.381,-144.937 226.295,-141.201 221.802,-135.834"/>
</g>
<!-- Node2&#45;&gt;Node3 -->
<g id="edge4" class="edge"><title>Node2&#45;&gt;Node3</title>
<path fill="none" stroke="midnightblue" d="M103.606,-64.7923C111.148,-55.0958 119.585,-44.2482 126.435,-35.4407"/>
<polygon fill="midnightblue" stroke="midnightblue" points="100.648,-62.8947 97.2712,-72.937 106.173,-67.1923 100.648,-62.8947"/>
</g>
</g>
</svg>
