<?xml version="1.0" encoding="UTF-8" standalone="no"?>
<!DOCTYPE svg PUBLIC "-//W3C//DTD SVG 1.1//EN"
 "http://www.w3.org/Graphics/SVG/1.1/DTD/svg11.dtd">
<!-- Generated by graphviz version 2.26.3 (20100126.1600)
 -->
<!-- Title: UBCookieJar.cpp Pages: 1 -->
<!--zoomable 204 -->
<svg id="main" version="1.1" xmlns="http://www.w3.org/2000/svg" xmlns:xlink="http://www.w3.org/1999/xlink" xml:space="preserve" onload="init(evt)">
        <defs>
                <circle id="rim" cx="0" cy="0" r="7"/>
                <circle id="rim2" cx="0" cy="0" r="3.5"/>
                <g id="zoomPlus">
                        <use xlink:href="#rim" fill="#404040">
                                <set attributeName="fill" to="#808080" begin="zoomplus.mouseover" end="zoomplus.mouseout"/>
                        </use>
                        <path d="M-4,0h8M0,-4v8" fill="none" stroke="white" stroke-width="1.5" pointer-events="none"/>
                </g>
                <g id="zoomMin">
                        <use xlink:href="#rim" fill="#404040">
                                <set attributeName="fill" to="#808080" begin="zoomminus.mouseover" end="zoomminus.mouseout"/>
                        </use>
                        <path d="M-4,0h8" fill="none" stroke="white" stroke-width="1.5" pointer-events="none"/>
                </g>
                <g id="dirArrow">
                        <path fill="none" stroke="white" stroke-width="1.5" d="M0,-3.0v7 M-2.5,-0.5L0,-3.0L2.5,-0.5"/>
                </g>
               <g id="resetDef">
                       <use xlink:href="#rim2" fill="#404040">
                               <set attributeName="fill" to="#808080" begin="reset.mouseover" end="reset.mouseout"/>
                       </use>
               </g>
        </defs>

<script type="text/javascript">
var viewWidth = 642;
var viewHeight = 204;
var sectionId = 'dynsection-0';
</script>
<script xlink:href="../../svgpan.js"/>
<svg id="graph" class="graph">
<g id="viewport">
<title>UBCookieJar.cpp</title>
<polygon fill="white" stroke="white" points="-4,5 -4,-200 639,-200 639,5 -4,5"/>
<!-- Node1 -->
<g id="node1" class="node"><title>Node1</title>
<polygon fill="#bfbfbf" stroke="black" points="297,-174.5 297,-195.5 391,-195.5 391,-174.5 297,-174.5"/>
<text text-anchor="middle" x="344" y="-182.5" font-family="Helvetica,sans-Serif" font-size="10.00">UBCookieJar.cpp</text>
</g>
<!-- Node2 -->
<g id="node3" class="node"><title>Node2</title>
<a xlink:href="../../d5/de0/_u_b_cookie_jar_8h.html" target="_top" xlink:title="UBCookieJar.h">
<polygon fill="white" stroke="black" points="109.5,-116.5 109.5,-137.5 192.5,-137.5 192.5,-116.5 109.5,-116.5"/>
<text text-anchor="middle" x="151" y="-124.5" font-family="Helvetica,sans-Serif" font-size="10.00">UBCookieJar.h</text>
</a>
</g>
<!-- Node1&#45;&gt;Node2 -->
<g id="edge2" class="edge"><title>Node1&#45;&gt;Node2</title>
<path fill="none" stroke="midnightblue" d="M309.049,-174.497C277.313,-164.959 230.332,-150.841 195.839,-140.475"/>
<polygon fill="midnightblue" stroke="midnightblue" points="196.601,-137.049 186.016,-137.523 194.586,-143.753 196.601,-137.049"/>
</g>
<!-- Node4 -->
<g id="node7" class="node"><title>Node4</title>
<polygon fill="white" stroke="#bfbfbf" points="310,-0.5 310,-21.5 352,-21.5 352,-0.5 310,-0.5"/>
<text text-anchor="middle" x="331" y="-8.5" font-family="Helvetica,sans-Serif" font-size="10.00">QtGui</text>
</g>
<!-- Node1&#45;&gt;Node4 -->
<g id="edge28" class="edge"><title>Node1&#45;&gt;Node4</title>
<path fill="none" stroke="midnightblue" d="M296.805,-176.078C275.323,-169.406 251.87,-157.862 239,-138 229.622,-123.527 231.601,-79.3709 246,-58 258.619,-39.2705 281.299,-27.2743 300.059,-20.0924"/>
<polygon fill="midnightblue" stroke="midnightblue" points="301.454,-23.3116 309.713,-16.6755 299.118,-16.7128 301.454,-23.3116"/>
</g>
<!-- Node5 -->
<g id="node9" class="node"><title>Node5</title>
<a xlink:href="../../de/db2/_u_b_auto_saver_8h.html" target="_top" xlink:title="UBAutoSaver.h">
<polygon fill="white" stroke="black" points="247.5,-116.5 247.5,-137.5 332.5,-137.5 332.5,-116.5 247.5,-116.5"/>
<text text-anchor="middle" x="290" y="-124.5" font-family="Helvetica,sans-Serif" font-size="10.00">UBAutoSaver.h</text>
</a>
</g>
<!-- Node1&#45;&gt;Node5 -->
<g id="edge8" class="edge"><title>Node1&#45;&gt;Node5</title>
<path fill="none" stroke="midnightblue" d="M334.096,-174.362C326.484,-166.186 315.792,-154.702 306.843,-145.091"/>
<polygon fill="midnightblue" stroke="midnightblue" points="309.217,-142.505 299.842,-137.571 304.094,-147.275 309.217,-142.505"/>
</g>
<!-- Node7 -->
<g id="node13" class="node"><title>Node7</title>
<a xlink:href="../../d1/d92/_u_b_settings_8h.html" target="_top" xlink:title="core/UBSettings.h">
<polygon fill="white" stroke="black" points="349.5,-116.5 349.5,-137.5 446.5,-137.5 446.5,-116.5 349.5,-116.5"/>
<text text-anchor="middle" x="398" y="-124.5" font-family="Helvetica,sans-Serif" font-size="10.00">core/UBSettings.h</text>
</a>
</g>
<!-- Node1&#45;&gt;Node7 -->
<g id="edge12" class="edge"><title>Node1&#45;&gt;Node7</title>
<path fill="none" stroke="midnightblue" d="M353.904,-174.362C361.516,-166.186 372.208,-154.702 381.157,-145.091"/>
<polygon fill="midnightblue" stroke="midnightblue" points="383.906,-147.275 388.158,-137.571 378.783,-142.505 383.906,-147.275"/>
</g>
<!-- Node11 -->
<g id="node26" class="node"><title>Node11</title>
<polygon fill="white" stroke="#bfbfbf" points="463.5,-116.5 463.5,-137.5 522.5,-137.5 522.5,-116.5 463.5,-116.5"/>
<text text-anchor="middle" x="493" y="-124.5" font-family="Helvetica,sans-Serif" font-size="10.00">QtWebKit</text>
</g>
<!-- Node1&#45;&gt;Node11 -->
<g id="edge30" class="edge"><title>Node1&#45;&gt;Node11</title>
<path fill="none" stroke="midnightblue" d="M370.983,-174.497C394.853,-165.205 429.894,-151.565 456.307,-141.283"/>
<polygon fill="midnightblue" stroke="midnightblue" points="457.917,-144.412 465.967,-137.523 455.378,-137.889 457.917,-144.412"/>
</g>
<!-- Node12 -->
<g id="node28" class="node"><title>Node12</title>
<a xlink:href="../../db/d80/memcheck_8h.html" target="_top" xlink:title="core/memcheck.h">
<polygon fill="white" stroke="black" points="539.5,-116.5 539.5,-137.5 634.5,-137.5 634.5,-116.5 539.5,-116.5"/>
<text text-anchor="middle" x="587" y="-124.5" font-family="Helvetica,sans-Serif" font-size="10.00">core/memcheck.h</text>
</a>
</g>
<!-- Node1&#45;&gt;Node12 -->
<g id="edge32" class="edge"><title>Node1&#45;&gt;Node12</title>
<path fill="none" stroke="midnightblue" d="M388.005,-174.497C428.736,-164.775 489.407,-150.294 533.043,-139.879"/>
<polygon fill="midnightblue" stroke="midnightblue" points="533.998,-143.249 542.912,-137.523 532.373,-136.44 533.998,-143.249"/>
</g>
<!-- Node3 -->
<g id="node5" class="node"><title>Node3</title>
<polygon fill="white" stroke="#bfbfbf" points="-0.5,-58.5 -0.5,-79.5 154.5,-79.5 154.5,-58.5 -0.5,-58.5"/>
<text text-anchor="middle" x="77" y="-66.5" font-family="Helvetica,sans-Serif" font-size="10.00">QtNetwork/QNetworkCookieJar</text>
</g>
<!-- Node2&#45;&gt;Node3 -->
<g id="edge4" class="edge"><title>Node2&#45;&gt;Node3</title>
<path fill="none" stroke="midnightblue" d="M137.427,-116.362C126.579,-107.859 111.166,-95.7785 98.6215,-85.9466"/>
<polygon fill="midnightblue" stroke="midnightblue" points="100.516,-82.9848 90.4867,-79.5707 96.1982,-88.4942 100.516,-82.9848"/>
</g>
<!-- Node2&#45;&gt;Node4 -->
<g id="edge6" class="edge"><title>Node2&#45;&gt;Node4</title>
<path fill="none" stroke="midnightblue" d="M156.915,-116.405C165.769,-101.436 183.822,-74.1271 206,-58 234.472,-37.2954 273.145,-24.6169 299.901,-17.7276"/>
<polygon fill="midnightblue" stroke="midnightblue" points="300.994,-21.0634 309.875,-15.2848 299.329,-14.2644 300.994,-21.0634"/>
</g>
<!-- Node6 -->
<g id="node11" class="node"><title>Node6</title>
<polygon fill="white" stroke="#bfbfbf" points="255,-58.5 255,-79.5 303,-79.5 303,-58.5 255,-58.5"/>
<text text-anchor="middle" x="279" y="-66.5" font-family="Helvetica,sans-Serif" font-size="10.00">QtCore</text>
</g>
<!-- Node5&#45;&gt;Node6 -->
<g id="edge10" class="edge"><title>Node5&#45;&gt;Node6</title>
<path fill="none" stroke="midnightblue" d="M287.982,-116.362C286.556,-108.84 284.598,-98.5187 282.875,-89.4308"/>
<polygon fill="midnightblue" stroke="midnightblue" points="286.307,-88.7433 281.005,-79.5707 279.429,-90.0477 286.307,-88.7433"/>
</g>
<!-- Node7&#45;&gt;Node4 -->
<g id="edge16" class="edge"><title>Node7&#45;&gt;Node4</title>
<path fill="none" stroke="midnightblue" d="M383.371,-116.193C372.646,-107.533 358.524,-94.4709 350,-80 341.256,-65.1557 336.41,-46.1498 333.805,-31.845"/>
<polygon fill="midnightblue" stroke="midnightblue" points="337.261,-31.2892 332.222,-21.9692 330.349,-32.3972 337.261,-31.2892"/>
</g>
<!-- Node7&#45;&gt;Node6 -->
<g id="edge14" class="edge"><title>Node7&#45;&gt;Node6</title>
<path fill="none" stroke="midnightblue" d="M376.45,-116.497C357.864,-107.438 330.798,-94.2462 309.905,-84.0628"/>
<polygon fill="midnightblue" stroke="midnightblue" points="311.314,-80.8563 300.792,-79.6212 308.247,-87.1487 311.314,-80.8563"/>
</g>
<!-- Node8 -->
<g id="node17" class="node"><title>Node8</title>
<polygon fill="white" stroke="#bfbfbf" points="359,-58.5 359,-79.5 423,-79.5 423,-58.5 359,-58.5"/>
<text text-anchor="middle" x="391" y="-66.5" font-family="Helvetica,sans-Serif" font-size="10.00">QtNetwork</text>
</g>
<!-- Node7&#45;&gt;Node8 -->
<g id="edge18" class="edge"><title>Node7&#45;&gt;Node8</title>
<path fill="none" stroke="midnightblue" d="M396.716,-116.362C395.818,-108.922 394.59,-98.7427 393.502,-89.7276"/>
<polygon fill="midnightblue" stroke="midnightblue" points="396.949,-89.0792 392.276,-79.5707 389.999,-89.918 396.949,-89.0792"/>
</g>
<!-- Node9 -->
<g id="node19" class="node"><title>Node9</title>
<a xlink:href="../../d6/dd0/_u_b_8h.html" target="_top" xlink:title="UB.h">
<polygon fill="white" stroke="black" points="440.5,-58.5 440.5,-79.5 479.5,-79.5 479.5,-58.5 440.5,-58.5"/>
<text text-anchor="middle" x="460" y="-66.5" font-family="Helvetica,sans-Serif" font-size="10.00">UB.h</text>
</a>
</g>
<!-- Node7&#45;&gt;Node9 -->
<g id="edge20" class="edge"><title>Node7&#45;&gt;Node9</title>
<path fill="none" stroke="midnightblue" d="M409.372,-116.362C418.286,-108.023 430.879,-96.2418 441.276,-86.5162"/>
<polygon fill="midnightblue" stroke="midnightblue" points="443.789,-88.9582 448.7,-79.5707 439.007,-83.8463 443.789,-88.9582"/>
</g>
<!-- Node10 -->
<g id="node22" class="node"><title>Node10</title>
<a xlink:href="../../d3/d76/_u_b_setting_8h.html" target="_top" xlink:title="UBSetting.h">
<polygon fill="white" stroke="black" points="497,-58.5 497,-79.5 567,-79.5 567,-58.5 497,-58.5"/>
<text text-anchor="middle" x="532" y="-66.5" font-family="Helvetica,sans-Serif" font-size="10.00">UBSetting.h</text>
</a>
</g>
<!-- Node7&#45;&gt;Node10 -->
<g id="edge24" class="edge"><title>Node7&#45;&gt;Node10</title>
<path fill="none" stroke="midnightblue" d="M422.266,-116.497C443.478,-107.315 474.498,-93.8889 498.15,-83.6516"/>
<polygon fill="midnightblue" stroke="midnightblue" points="499.674,-86.8055 507.461,-79.6212 496.894,-80.3815 499.674,-86.8055"/>
</g>
<!-- Node9&#45;&gt;Node4 -->
<g id="edge22" class="edge"><title>Node9&#45;&gt;Node4</title>
<path fill="none" stroke="midnightblue" d="M440.408,-60.191C419.376,-50.735 385.699,-35.5931 361.258,-24.6045"/>
<polygon fill="midnightblue" stroke="midnightblue" points="362.621,-21.3796 352.065,-20.4711 359.75,-27.764 362.621,-21.3796"/>
</g>
<!-- Node10&#45;&gt;Node4 -->
<g id="edge26" class="edge"><title>Node10&#45;&gt;Node4</title>
<path fill="none" stroke="midnightblue" d="M496.988,-58.8972C458.906,-47.9083 398.604,-30.5077 362.123,-19.9807"/>
<polygon fill="midnightblue" stroke="midnightblue" points="362.638,-16.4867 352.06,-17.0769 360.697,-23.2122 362.638,-16.4867"/>
</g>
</g>
</svg>
        <g id="navigator" transform="translate(0 0)" fill="#404254">
                <rect fill="#f2f5e9" fill-opacity="0.5" stroke="#606060" stroke-width=".5" x="0" y="0" width="60" height="60"/>
                <use id="zoomplus" xlink:href="#zoomPlus" x="17" y="9" onmousedown="handleZoom(evt,'in')"/>
                <use id="zoomminus" xlink:href="#zoomMin" x="42" y="9" onmousedown="handleZoom(evt,'out')"/>
                <use id="reset" xlink:href="#resetDef" x="30" y="36" onmousedown="handleReset()"/>
                <g id="arrowUp" xlink:href="#dirArrow" transform="translate(30 24)" onmousedown="handlePan(0,-1)">
                  <use xlink:href="#rim" fill="#404040">
                        <set attributeName="fill" to="#808080" begin="arrowUp.mouseover" end="arrowUp.mouseout"/>
                  </use>
                  <path fill="none" stroke="white" stroke-width="1.5" d="M0,-3.0v7 M-2.5,-0.5L0,-3.0L2.5,-0.5"/>
                </g>
                <g id="arrowRight" xlink:href="#dirArrow" transform="rotate(90) translate(36 -43)" onmousedown="handlePan(1,0)">
                  <use xlink:href="#rim" fill="#404040">
                        <set attributeName="fill" to="#808080" begin="arrowRight.mouseover" end="arrowRight.mouseout"/>
                  </use>
                  <path fill="none" stroke="white" stroke-width="1.5" d="M0,-3.0v7 M-2.5,-0.5L0,-3.0L2.5,-0.5"/>
                </g>
                <g id="arrowDown" xlink:href="#dirArrow" transform="rotate(180) translate(-30 -48)" onmousedown="handlePan(0,1)">
                  <use xlink:href="#rim" fill="#404040">
                        <set attributeName="fill" to="#808080" begin="arrowDown.mouseover" end="arrowDown.mouseout"/>
                  </use>
                  <path fill="none" stroke="white" stroke-width="1.5" d="M0,-3.0v7 M-2.5,-0.5L0,-3.0L2.5,-0.5"/>
                </g>
                <g id="arrowLeft" xlink:href="#dirArrow" transform="rotate(270) translate(-36 17)" onmousedown="handlePan(-1,0)">
                  <use xlink:href="#rim" fill="#404040">
                        <set attributeName="fill" to="#808080" begin="arrowLeft.mouseover" end="arrowLeft.mouseout"/>
                  </use>
                  <path fill="none" stroke="white" stroke-width="1.5" d="M0,-3.0v7 M-2.5,-0.5L0,-3.0L2.5,-0.5"/>
                </g>
        </g>
        <svg viewBox="0 0 15 15" width="100%" height="30px" preserveAspectRatio="xMaxYMin meet">
         <g id="arrow_out" transform="scale(0.3 0.3)">
          <a xlink:href="_u_b_cookie_jar_8cpp__incl_org.svg" target="_base">
           <rect id="button" ry="5" rx="5" y="6" x="6" height="38" width="38"
                fill="#f2f5e9" fill-opacity="0.5" stroke="#606060" stroke-width="1.0"/>
           <path id="arrow"
             d="M 11.500037,31.436501 C 11.940474,20.09759 22.043105,11.32322 32.158766,21.979434 L 37.068811,17.246167 C 37.068811,17.246167 37.088388,32 37.088388,32 L 22.160133,31.978069 C 22.160133,31.978069 26.997745,27.140456 26.997745,27.140456 C 18.528582,18.264221 13.291696,25.230495 11.500037,31.436501 z"
             style="fill:#404040;"/>
          </a>
         </g>
        </svg>
</svg>
