<?xml version="1.0" encoding="UTF-8" standalone="no"?>
<!DOCTYPE svg PUBLIC "-//W3C//DTD SVG 1.1//EN"
 "http://www.w3.org/Graphics/SVG/1.1/DTD/svg11.dtd">
<!-- Generated by graphviz version 2.26.3 (20100126.1600)
 -->
<!-- Title: UBImportDocumentSetAdaptor.h Pages: 1 -->
<svg width="177pt" height="146pt"
 viewBox="0.00 0.00 177.00 146.00" xmlns="http://www.w3.org/2000/svg" xmlns:xlink="http://www.w3.org/1999/xlink">
<g id="graph1" class="graph" transform="scale(1 1) rotate(0) translate(4 142)">
<title>UBImportDocumentSetAdaptor.h</title>
<polygon fill="white" stroke="white" points="-4,5 -4,-142 174,-142 174,5 -4,5"/>
<!-- Node1 -->
<g id="node1" class="node"><title>Node1</title>
<polygon fill="#bfbfbf" stroke="black" points="-0.5,-116.5 -0.5,-137.5 160.5,-137.5 160.5,-116.5 -0.5,-116.5"/>
<text text-anchor="middle" x="80" y="-124.5" font-family="Helvetica,sans-Serif" font-size="10.00">UBImportDocumentSetAdaptor.h</text>
</g>
<!-- Node2 -->
<g id="node3" class="node"><title>Node2</title>
<polygon fill="white" stroke="#bfbfbf" points="59,-0.5 59,-21.5 101,-21.5 101,-0.5 59,-0.5"/>
<text text-anchor="middle" x="80" y="-8.5" font-family="Helvetica,sans-Serif" font-size="10.00">QtGui</text>
</g>
<!-- Node1&#45;&gt;Node2 -->
<g id="edge2" class="edge"><title>Node1&#45;&gt;Node2</title>
<path fill="none" stroke="midnightblue" d="M73.9197,-116.203C69.0674,-106.929 62.6578,-93.0334 60,-80 58.0463,-70.4194 58.0463,-67.5806 60,-58 61.8895,-48.734 65.6753,-39.0321 69.4497,-30.8653"/>
<polygon fill="midnightblue" stroke="midnightblue" points="72.6375,-32.3144 73.9197,-21.7974 66.3589,-29.2193 72.6375,-32.3144"/>
</g>
<!-- Node3 -->
<g id="node5" class="node"><title>Node3</title>
<a xlink:href="../../d7/d3f/_u_b_import_adaptor_8h.html" target="_top" xlink:title="UBImportAdaptor.h">
<polygon fill="white" stroke="black" points="68.5,-58.5 68.5,-79.5 169.5,-79.5 169.5,-58.5 68.5,-58.5"/>
<text text-anchor="middle" x="119" y="-66.5" font-family="Helvetica,sans-Serif" font-size="10.00">UBImportAdaptor.h</text>
</a>
</g>
<!-- Node1&#45;&gt;Node3 -->
<g id="edge4" class="edge"><title>Node1&#45;&gt;Node3</title>
<path fill="none" stroke="midnightblue" d="M87.1532,-116.362C92.4858,-108.431 99.9112,-97.3885 106.251,-87.9606"/>
<polygon fill="midnightblue" stroke="midnightblue" points="109.217,-89.8221 111.892,-79.5707 103.408,-85.9161 109.217,-89.8221"/>
</g>
<!-- Node3&#45;&gt;Node2 -->
<g id="edge6" class="edge"><title>Node3&#45;&gt;Node2</title>
<path fill="none" stroke="midnightblue" d="M111.847,-58.3619C106.514,-50.4313 99.0888,-39.3885 92.7494,-29.9606"/>
<polygon fill="midnightblue" stroke="midnightblue" points="95.5923,-27.9161 87.1079,-21.5707 89.7834,-31.8221 95.5923,-27.9161"/>
</g>
</g>
</svg>
