<?xml version="1.0" encoding="UTF-8" standalone="no"?>
<!DOCTYPE svg PUBLIC "-//W3C//DTD SVG 1.1//EN"
 "http://www.w3.org/Graphics/SVG/1.1/DTD/svg11.dtd">
<!-- Generated by graphviz version 2.26.3 (20100126.1600)
 -->
<!-- Title: WBBrowserWindow::loadUrl Pages: 1 -->
<svg width="544pt" height="162pt"
 viewBox="0.00 0.00 544.00 162.00" xmlns="http://www.w3.org/2000/svg" xmlns:xlink="http://www.w3.org/1999/xlink">
<g id="graph1" class="graph" transform="scale(1 1) rotate(0) translate(4 158)">
<title>WBBrowserWindow::loadUrl</title>
<polygon fill="white" stroke="white" points="-4,5 -4,-158 541,-158 541,5 -4,5"/>
<!-- Node1 -->
<g id="node1" class="node"><title>Node1</title>
<polygon fill="#bfbfbf" stroke="black" points="0.5,-83.5 0.5,-104.5 141.5,-104.5 141.5,-83.5 0.5,-83.5"/>
<text text-anchor="middle" x="71" y="-91.5" font-family="Helvetica,sans-Serif" font-size="10.00">WBBrowserWindow::loadUrl</text>
</g>
<!-- Node2 -->
<g id="node3" class="node"><title>Node2</title>
<a xlink:href="../../d4/d1c/class_w_b_browser_window.html#af69e6d75a7cab843ebf8fc1bbdce0e89" target="_top" xlink:title="WBBrowserWindow::loadUrl\lInNewTab">
<polygon fill="white" stroke="black" points="183.5,-100 183.5,-134 324.5,-134 324.5,-100 183.5,-100"/>
<text text-anchor="start" x="191.5" y="-121" font-family="Helvetica,sans-Serif" font-size="10.00">WBBrowserWindow::loadUrl</text>
<text text-anchor="middle" x="254" y="-108" font-family="Helvetica,sans-Serif" font-size="10.00">InNewTab</text>
</a>
</g>
<!-- Node1&#45;&gt;Node2 -->
<g id="edge2" class="edge"><title>Node1&#45;&gt;Node2</title>
<path fill="none" stroke="midnightblue" d="M151.787,-104.154C162.335,-105.479 173.074,-106.829 183.436,-108.131"/>
<polygon fill="midnightblue" stroke="midnightblue" points="152.111,-100.667 141.753,-102.892 151.238,-107.612 152.111,-100.667"/>
</g>
<!-- Node3 -->
<g id="node5" class="node"><title>Node3</title>
<a xlink:href="../../d4/d1c/class_w_b_browser_window.html#a78dc4fc8da7fdc428adfc652823fe67a" target="_top" xlink:title="WBBrowserWindow::loadPage">
<polygon fill="white" stroke="black" points="178.5,-60.5 178.5,-81.5 329.5,-81.5 329.5,-60.5 178.5,-60.5"/>
<text text-anchor="middle" x="254" y="-68.5" font-family="Helvetica,sans-Serif" font-size="10.00">WBBrowserWindow::loadPage</text>
</a>
</g>
<!-- Node1&#45;&gt;Node3 -->
<g id="edge4" class="edge"><title>Node1&#45;&gt;Node3</title>
<path fill="none" stroke="midnightblue" d="M151.95,-83.8259C160.705,-82.7256 169.59,-81.6088 178.28,-80.5167"/>
<polygon fill="midnightblue" stroke="midnightblue" points="151.238,-80.3878 141.753,-85.1076 152.111,-87.3332 151.238,-80.3878"/>
</g>
<!-- Node4 -->
<g id="node7" class="node"><title>Node4</title>
<a xlink:href="../../d4/d1c/class_w_b_browser_window.html#a3598ae963d79363f3c23455d1e1ccc08" target="_top" xlink:title="WBBrowserWindow::WBBrowser\lWindow">
<polygon fill="white" stroke="black" points="369.5,-120 369.5,-154 532.5,-154 532.5,-120 369.5,-120"/>
<text text-anchor="start" x="377.5" y="-141" font-family="Helvetica,sans-Serif" font-size="10.00">WBBrowserWindow::WBBrowser</text>
<text text-anchor="middle" x="451" y="-128" font-family="Helvetica,sans-Serif" font-size="10.00">Window</text>
</a>
</g>
<!-- Node3&#45;&gt;Node4 -->
<g id="edge6" class="edge"><title>Node3&#45;&gt;Node4</title>
<path fill="none" stroke="midnightblue" d="M311.524,-84.4941C317.833,-86.4585 324.102,-88.629 330,-91 346.983,-97.8267 349.156,-103.839 366,-111 373.527,-114.2 381.581,-117.189 389.62,-119.918"/>
<polygon fill="midnightblue" stroke="midnightblue" points="312.205,-81.0462 301.623,-81.5777 310.227,-87.7609 312.205,-81.0462"/>
</g>
<!-- Node5 -->
<g id="node9" class="node"><title>Node5</title>
<a xlink:href="../../d4/d1c/class_w_b_browser_window.html#a9ba2fa09219bcac87ce5f71709e1011d" target="_top" xlink:title="WBBrowserWindow::slotHome">
<polygon fill="white" stroke="black" points="375,-80.5 375,-101.5 527,-101.5 527,-80.5 375,-80.5"/>
<text text-anchor="middle" x="451" y="-88.5" font-family="Helvetica,sans-Serif" font-size="10.00">WBBrowserWindow::slotHome</text>
</a>
</g>
<!-- Node3&#45;&gt;Node5 -->
<g id="edge8" class="edge"><title>Node3&#45;&gt;Node5</title>
<path fill="none" stroke="midnightblue" d="M339.802,-79.7109C351.5,-80.8985 363.44,-82.1107 374.949,-83.2791"/>
<polygon fill="midnightblue" stroke="midnightblue" points="339.904,-76.2033 329.602,-78.6753 339.197,-83.1675 339.904,-76.2033"/>
</g>
<!-- Node6 -->
<g id="node11" class="node"><title>Node6</title>
<a xlink:href="../../d4/d1c/class_w_b_browser_window.html#aec1e4b601203eb8846fd4591e6d1d0ec" target="_top" xlink:title="WBBrowserWindow::bookmarks">
<polygon fill="white" stroke="black" points="372,-40.5 372,-61.5 530,-61.5 530,-40.5 372,-40.5"/>
<text text-anchor="middle" x="451" y="-48.5" font-family="Helvetica,sans-Serif" font-size="10.00">WBBrowserWindow::bookmarks</text>
</a>
</g>
<!-- Node3&#45;&gt;Node6 -->
<g id="edge10" class="edge"><title>Node3&#45;&gt;Node6</title>
<path fill="none" stroke="midnightblue" d="M339.709,-62.2986C350.333,-61.22 361.158,-60.121 371.68,-59.0528"/>
<polygon fill="midnightblue" stroke="midnightblue" points="339.197,-58.8325 329.602,-63.3247 339.904,-65.7967 339.197,-58.8325"/>
</g>
<!-- Node7 -->
<g id="node13" class="node"><title>Node7</title>
<a xlink:href="../../d4/d1c/class_w_b_browser_window.html#a55db99c0327f5077fb0188f77224734a" target="_top" xlink:title="WBBrowserWindow::addBookmark">
<polygon fill="white" stroke="black" points="366,-0.5 366,-21.5 536,-21.5 536,-0.5 366,-0.5"/>
<text text-anchor="middle" x="451" y="-8.5" font-family="Helvetica,sans-Serif" font-size="10.00">WBBrowserWindow::addBookmark</text>
</a>
</g>
<!-- Node3&#45;&gt;Node7 -->
<g id="edge12" class="edge"><title>Node3&#45;&gt;Node7</title>
<path fill="none" stroke="midnightblue" d="M290.377,-56.8423C312.123,-48.6722 340.413,-38.5535 366,-31 377.486,-27.6091 389.978,-24.4064 401.761,-21.5987"/>
<polygon fill="midnightblue" stroke="midnightblue" points="288.989,-53.6253 280.879,-60.4428 291.47,-60.1707 288.989,-53.6253"/>
</g>
</g>
</svg>
