<?xml version="1.0" encoding="UTF-8" standalone="no"?>
<!DOCTYPE svg PUBLIC "-//W3C//DTD SVG 1.1//EN"
 "http://www.w3.org/Graphics/SVG/1.1/DTD/svg11.dtd">
<!-- Generated by graphviz version 2.26.3 (20100126.1600)
 -->
<!-- Title: UBServerXMLHttpRequest::setVerbose Pages: 1 -->
<svg width="504pt" height="42pt"
 viewBox="0.00 0.00 504.00 42.00" xmlns="http://www.w3.org/2000/svg" xmlns:xlink="http://www.w3.org/1999/xlink">
<g id="graph1" class="graph" transform="scale(1 1) rotate(0) translate(4 38)">
<title>UBServerXMLHttpRequest::setVerbose</title>
<polygon fill="white" stroke="white" points="-4,5 -4,-38 501,-38 501,5 -4,5"/>
<!-- Node1 -->
<g id="node1" class="node"><title>Node1</title>
<polygon fill="#bfbfbf" stroke="black" points="0.5,-0 0.5,-34 135.5,-34 135.5,-0 0.5,-0"/>
<text text-anchor="start" x="8.5" y="-21" font-family="Helvetica,sans-Serif" font-size="10.00">UBServerXMLHttpRequest</text>
<text text-anchor="middle" x="68" y="-8" font-family="Helvetica,sans-Serif" font-size="10.00">::setVerbose</text>
</g>
<!-- Node2 -->
<g id="node3" class="node"><title>Node2</title>
<a xlink:href="../../dc/d9f/class_u_b_intranet_podcast_publisher.html#a5bd46ab637671de895e047500f5eb975" target="_top" xlink:title="UBIntranetPodcastPublisher\l::postVideoPublishingRequest">
<polygon fill="white" stroke="black" points="172,-0 172,-34 320,-34 320,-0 172,-0"/>
<text text-anchor="start" x="180" y="-21" font-family="Helvetica,sans-Serif" font-size="10.00">UBIntranetPodcastPublisher</text>
<text text-anchor="middle" x="246" y="-8" font-family="Helvetica,sans-Serif" font-size="10.00">::postVideoPublishingRequest</text>
</a>
</g>
<!-- Node1&#45;&gt;Node2 -->
<g id="edge2" class="edge"><title>Node1&#45;&gt;Node2</title>
<path fill="none" stroke="midnightblue" d="M145.697,-17C154.418,-17 163.286,-17 171.959,-17"/>
<polygon fill="midnightblue" stroke="midnightblue" points="145.548,-13.5001 135.548,-17 145.548,-20.5001 145.548,-13.5001"/>
</g>
<!-- Node3 -->
<g id="node5" class="node"><title>Node3</title>
<a xlink:href="../../dc/d9f/class_u_b_intranet_podcast_publisher.html#a4965ecc747e29ef3c2a180d4078e1fbd" target="_top" xlink:title="UBIntranetPodcastPublisher\l::publishVideo">
<polygon fill="white" stroke="black" points="356,-0 356,-34 496,-34 496,-0 356,-0"/>
<text text-anchor="start" x="364" y="-21" font-family="Helvetica,sans-Serif" font-size="10.00">UBIntranetPodcastPublisher</text>
<text text-anchor="middle" x="426" y="-8" font-family="Helvetica,sans-Serif" font-size="10.00">::publishVideo</text>
</a>
</g>
<!-- Node2&#45;&gt;Node3 -->
<g id="edge4" class="edge"><title>Node2&#45;&gt;Node3</title>
<path fill="none" stroke="midnightblue" d="M330.291,-17C338.885,-17 347.55,-17 355.968,-17"/>
<polygon fill="midnightblue" stroke="midnightblue" points="330.252,-13.5001 320.252,-17 330.252,-20.5001 330.252,-13.5001"/>
</g>
</g>
</svg>
