<?xml version="1.0" encoding="UTF-8" standalone="no"?>
<!DOCTYPE svg PUBLIC "-//W3C//DTD SVG 1.1//EN"
 "http://www.w3.org/Graphics/SVG/1.1/DTD/svg11.dtd">
<!-- Generated by graphviz version 2.26.3 (20100126.1600)
 -->
<!-- Title: Sankore&#45;3.1/src/gui/UBLeftPalette.h Pages: 1 -->
<svg width="1095pt" height="218pt"
 viewBox="0.00 0.00 1095.00 218.00" xmlns="http://www.w3.org/2000/svg" xmlns:xlink="http://www.w3.org/1999/xlink">
<g id="graph1" class="graph" transform="scale(1 1) rotate(0) translate(4 214)">
<title>Sankore&#45;3.1/src/gui/UBLeftPalette.h</title>
<polygon fill="white" stroke="white" points="-4,5 -4,-214 1092,-214 1092,5 -4,5"/>
<!-- Node1 -->
<g id="node1" class="node"><title>Node1</title>
<polygon fill="#bfbfbf" stroke="black" points="509.5,-175 509.5,-209 610.5,-209 610.5,-175 509.5,-175"/>
<text text-anchor="start" x="517.5" y="-196" font-family="Helvetica,sans-Serif" font-size="10.00">Sankore&#45;3.1/src/gui</text>
<text text-anchor="middle" x="560" y="-183" font-family="Helvetica,sans-Serif" font-size="10.00">/UBLeftPalette.h</text>
</g>
<!-- Node2 -->
<g id="node3" class="node"><title>Node2</title>
<a xlink:href="../../df/d43/_u_b_dock_palette_8h.html" target="_top" xlink:title="UBDockPalette.h">
<polygon fill="white" stroke="black" points="513.5,-116.5 513.5,-137.5 606.5,-137.5 606.5,-116.5 513.5,-116.5"/>
<text text-anchor="middle" x="560" y="-124.5" font-family="Helvetica,sans-Serif" font-size="10.00">UBDockPalette.h</text>
</a>
</g>
<!-- Node1&#45;&gt;Node2 -->
<g id="edge2" class="edge"><title>Node1&#45;&gt;Node2</title>
<path fill="none" stroke="midnightblue" d="M560,-174.922C560,-166.67 560,-156.692 560,-147.982"/>
<polygon fill="midnightblue" stroke="midnightblue" points="563.5,-147.852 560,-137.852 556.5,-147.852 563.5,-147.852"/>
</g>
<!-- Node3 -->
<g id="node5" class="node"><title>Node3</title>
<polygon fill="white" stroke="#bfbfbf" points="-0.5,-0.5 -0.5,-21.5 54.5,-21.5 54.5,-0.5 -0.5,-0.5"/>
<text text-anchor="middle" x="27" y="-8.5" font-family="Helvetica,sans-Serif" font-size="10.00">QWidget</text>
</g>
<!-- Node2&#45;&gt;Node3 -->
<g id="edge4" class="edge"><title>Node2&#45;&gt;Node3</title>
<path fill="none" stroke="midnightblue" d="M513.061,-126.082C390.877,-123.239 70.0475,-112.704 36,-80 23.3805,-67.8785 22.16,-47.385 23.4793,-31.8735"/>
<polygon fill="midnightblue" stroke="midnightblue" points="26.9898,-32.0082 24.7622,-21.6502 20.0443,-31.1366 26.9898,-32.0082"/>
</g>
<!-- Node4 -->
<g id="node7" class="node"><title>Node4</title>
<polygon fill="white" stroke="#bfbfbf" points="224.5,-58.5 224.5,-79.5 303.5,-79.5 303.5,-58.5 224.5,-58.5"/>
<text text-anchor="middle" x="264" y="-66.5" font-family="Helvetica,sans-Serif" font-size="10.00">QMouseEvent</text>
</g>
<!-- Node2&#45;&gt;Node4 -->
<g id="edge6" class="edge"><title>Node2&#45;&gt;Node4</title>
<path fill="none" stroke="midnightblue" d="M513.273,-118.691C465.485,-110.071 388.855,-95.9132 313.645,-80.2954"/>
<polygon fill="midnightblue" stroke="midnightblue" points="314.031,-76.8004 303.527,-78.1833 312.6,-83.6528 314.031,-76.8004"/>
</g>
<!-- Node5 -->
<g id="node9" class="node"><title>Node5</title>
<polygon fill="white" stroke="#bfbfbf" points="321,-58.5 321,-79.5 371,-79.5 371,-58.5 321,-58.5"/>
<text text-anchor="middle" x="346" y="-66.5" font-family="Helvetica,sans-Serif" font-size="10.00">QBrush</text>
</g>
<!-- Node2&#45;&gt;Node5 -->
<g id="edge8" class="edge"><title>Node2&#45;&gt;Node5</title>
<path fill="none" stroke="midnightblue" d="M516.894,-116.485C482.453,-107.917 432.75,-95.1831 380.904,-80.1623"/>
<polygon fill="midnightblue" stroke="midnightblue" points="381.781,-76.7725 371.201,-77.3315 379.821,-83.4923 381.781,-76.7725"/>
</g>
<!-- Node6 -->
<g id="node11" class="node"><title>Node6</title>
<polygon fill="white" stroke="#bfbfbf" points="389,-58.5 389,-79.5 461,-79.5 461,-58.5 389,-58.5"/>
<text text-anchor="middle" x="425" y="-66.5" font-family="Helvetica,sans-Serif" font-size="10.00">QPaintEvent</text>
</g>
<!-- Node2&#45;&gt;Node6 -->
<g id="edge10" class="edge"><title>Node2&#45;&gt;Node6</title>
<path fill="none" stroke="midnightblue" d="M535.553,-116.497C514.182,-107.315 482.931,-93.8889 459.103,-83.6516"/>
<polygon fill="midnightblue" stroke="midnightblue" points="460.291,-80.3529 449.722,-79.6212 457.528,-86.7845 460.291,-80.3529"/>
</g>
<!-- Node7 -->
<g id="node13" class="node"><title>Node7</title>
<polygon fill="white" stroke="#bfbfbf" points="479,-58.5 479,-79.5 559,-79.5 559,-58.5 479,-58.5"/>
<text text-anchor="middle" x="519" y="-66.5" font-family="Helvetica,sans-Serif" font-size="10.00">QResizeEvent</text>
</g>
<!-- Node2&#45;&gt;Node7 -->
<g id="edge12" class="edge"><title>Node2&#45;&gt;Node7</title>
<path fill="none" stroke="midnightblue" d="M552.48,-116.362C546.874,-108.431 539.068,-97.3885 532.403,-87.9606"/>
<polygon fill="midnightblue" stroke="midnightblue" points="535.103,-85.7161 526.472,-79.5707 529.387,-89.7568 535.103,-85.7161"/>
</g>
<!-- Node8 -->
<g id="node15" class="node"><title>Node8</title>
<polygon fill="white" stroke="#bfbfbf" points="577,-58.5 577,-79.5 627,-79.5 627,-58.5 577,-58.5"/>
<text text-anchor="middle" x="602" y="-66.5" font-family="Helvetica,sans-Serif" font-size="10.00">QEvent</text>
</g>
<!-- Node2&#45;&gt;Node8 -->
<g id="edge14" class="edge"><title>Node2&#45;&gt;Node8</title>
<path fill="none" stroke="midnightblue" d="M567.703,-116.362C573.446,-108.431 581.443,-97.3885 588.27,-87.9606"/>
<polygon fill="midnightblue" stroke="midnightblue" points="591.315,-89.7229 594.345,-79.5707 585.645,-85.6173 591.315,-89.7229"/>
</g>
<!-- Node9 -->
<g id="node17" class="node"><title>Node9</title>
<polygon fill="white" stroke="#bfbfbf" points="645,-58.5 645,-79.5 691,-79.5 691,-58.5 645,-58.5"/>
<text text-anchor="middle" x="668" y="-66.5" font-family="Helvetica,sans-Serif" font-size="10.00">QTime</text>
</g>
<!-- Node2&#45;&gt;Node9 -->
<g id="edge16" class="edge"><title>Node2&#45;&gt;Node9</title>
<path fill="none" stroke="midnightblue" d="M579.558,-116.497C596.198,-107.56 620.327,-94.602 639.18,-84.4772"/>
<polygon fill="midnightblue" stroke="midnightblue" points="641.069,-87.436 648.223,-79.6212 637.757,-81.2691 641.069,-87.436"/>
</g>
<!-- Node10 -->
<g id="node19" class="node"><title>Node10</title>
<polygon fill="white" stroke="#bfbfbf" points="708.5,-58.5 708.5,-79.5 755.5,-79.5 755.5,-58.5 708.5,-58.5"/>
<text text-anchor="middle" x="732" y="-66.5" font-family="Helvetica,sans-Serif" font-size="10.00">QPoint</text>
</g>
<!-- Node2&#45;&gt;Node10 -->
<g id="edge18" class="edge"><title>Node2&#45;&gt;Node10</title>
<path fill="none" stroke="midnightblue" d="M591.715,-116.425C618.109,-107.609 656.917,-94.6086 698.711,-80.4255"/>
<polygon fill="midnightblue" stroke="midnightblue" points="699.898,-83.7188 708.241,-77.1885 697.646,-77.0907 699.898,-83.7188"/>
</g>
<!-- Node11 -->
<g id="node21" class="node"><title>Node11</title>
<polygon fill="white" stroke="#bfbfbf" points="158.5,-0.5 158.5,-21.5 215.5,-21.5 215.5,-0.5 158.5,-0.5"/>
<text text-anchor="middle" x="187" y="-8.5" font-family="Helvetica,sans-Serif" font-size="10.00">QPixmap</text>
</g>
<!-- Node2&#45;&gt;Node11 -->
<g id="edge20" class="edge"><title>Node2&#45;&gt;Node11</title>
<path fill="none" stroke="midnightblue" d="M513.238,-126.216C430.241,-123.931 261.614,-114.991 216,-80 200.838,-68.369 193.526,-47.3306 190.048,-31.5316"/>
<polygon fill="midnightblue" stroke="midnightblue" points="193.472,-30.8027 188.204,-21.6108 186.59,-32.0821 193.472,-30.8027"/>
</g>
<!-- Node12 -->
<g id="node23" class="node"><title>Node12</title>
<polygon fill="white" stroke="#bfbfbf" points="772.5,-58.5 772.5,-79.5 815.5,-79.5 815.5,-58.5 772.5,-58.5"/>
<text text-anchor="middle" x="794" y="-66.5" font-family="Helvetica,sans-Serif" font-size="10.00">QMap</text>
</g>
<!-- Node2&#45;&gt;Node12 -->
<g id="edge22" class="edge"><title>Node2&#45;&gt;Node12</title>
<path fill="none" stroke="midnightblue" d="M606.612,-117.992C646.046,-109.984 704.169,-97.2743 762.702,-80.1567"/>
<polygon fill="midnightblue" stroke="midnightblue" points="763.886,-83.4562 772.478,-77.257 761.896,-76.7452 763.886,-83.4562"/>
</g>
<!-- Node13 -->
<g id="node25" class="node"><title>Node13</title>
<polygon fill="white" stroke="#bfbfbf" points="832.5,-58.5 832.5,-79.5 923.5,-79.5 923.5,-58.5 832.5,-58.5"/>
<text text-anchor="middle" x="878" y="-66.5" font-family="Helvetica,sans-Serif" font-size="10.00">QStackedWidget</text>
</g>
<!-- Node2&#45;&gt;Node13 -->
<g id="edge24" class="edge"><title>Node2&#45;&gt;Node13</title>
<path fill="none" stroke="midnightblue" d="M606.799,-119.029C657.558,-110.303 741.233,-95.6846 822.459,-80.2657"/>
<polygon fill="midnightblue" stroke="midnightblue" points="823.182,-83.691 832.351,-78.3817 821.872,-76.8146 823.182,-83.691"/>
</g>
<!-- Node14 -->
<g id="node27" class="node"><title>Node14</title>
<polygon fill="white" stroke="#bfbfbf" points="940.5,-58.5 940.5,-79.5 1017.5,-79.5 1017.5,-58.5 940.5,-58.5"/>
<text text-anchor="middle" x="979" y="-66.5" font-family="Helvetica,sans-Serif" font-size="10.00">QVBoxLayout</text>
</g>
<!-- Node2&#45;&gt;Node14 -->
<g id="edge26" class="edge"><title>Node2&#45;&gt;Node14</title>
<path fill="none" stroke="midnightblue" d="M606.632,-122.684C675.464,-115.969 808.461,-101.675 930.452,-80.1501"/>
<polygon fill="midnightblue" stroke="midnightblue" points="931.108,-83.5884 940.338,-78.3854 929.878,-76.6973 931.108,-83.5884"/>
</g>
<!-- Node15 -->
<g id="node29" class="node"><title>Node15</title>
<polygon fill="white" stroke="#bfbfbf" points="1034.5,-58.5 1034.5,-79.5 1087.5,-79.5 1087.5,-58.5 1034.5,-58.5"/>
<text text-anchor="middle" x="1061" y="-66.5" font-family="Helvetica,sans-Serif" font-size="10.00">QVector</text>
</g>
<!-- Node2&#45;&gt;Node15 -->
<g id="edge28" class="edge"><title>Node2&#45;&gt;Node15</title>
<path fill="none" stroke="midnightblue" d="M606.773,-125.435C689.541,-121.984 867.182,-111.516 1024.54,-79.9854"/>
<polygon fill="midnightblue" stroke="midnightblue" points="1025.29,-83.4033 1034.39,-77.9771 1023.9,-76.5443 1025.29,-83.4033"/>
</g>
<!-- Node16 -->
<g id="node31" class="node"><title>Node16</title>
<a xlink:href="../../d5/dba/_u_b_dock_palette_widget_8h.html" target="_top" xlink:title="UBDockPaletteWidget.h">
<polygon fill="white" stroke="black" points="45,-58.5 45,-79.5 169,-79.5 169,-58.5 45,-58.5"/>
<text text-anchor="middle" x="107" y="-66.5" font-family="Helvetica,sans-Serif" font-size="10.00">UBDockPaletteWidget.h</text>
</a>
</g>
<!-- Node2&#45;&gt;Node16 -->
<g id="edge30" class="edge"><title>Node2&#45;&gt;Node16</title>
<path fill="none" stroke="midnightblue" d="M513.237,-121.471C441.942,-112.972 301.806,-96.0019 183,-80 181.737,-79.8298 180.461,-79.657 179.177,-79.482"/>
<polygon fill="midnightblue" stroke="midnightblue" points="179.584,-76.0051 169.2,-78.1044 178.627,-82.9393 179.584,-76.0051"/>
</g>
<!-- Node16&#45;&gt;Node3 -->
<g id="edge32" class="edge"><title>Node16&#45;&gt;Node3</title>
<path fill="none" stroke="midnightblue" d="M92.3268,-58.3619C80.4859,-49.7773 63.615,-37.5459 49.9842,-27.6636"/>
<polygon fill="midnightblue" stroke="midnightblue" points="51.7307,-24.6067 41.5802,-21.5707 47.6219,-30.274 51.7307,-24.6067"/>
</g>
<!-- Node16&#45;&gt;Node11 -->
<g id="edge34" class="edge"><title>Node16&#45;&gt;Node11</title>
<path fill="none" stroke="midnightblue" d="M121.673,-58.3619C133.514,-49.7773 150.385,-37.5459 164.016,-27.6636"/>
<polygon fill="midnightblue" stroke="midnightblue" points="166.378,-30.274 172.42,-21.5707 162.269,-24.6067 166.378,-30.274"/>
</g>
<!-- Node17 -->
<g id="node35" class="node"><title>Node17</title>
<polygon fill="white" stroke="#bfbfbf" points="82,-0.5 82,-21.5 132,-21.5 132,-0.5 82,-0.5"/>
<text text-anchor="middle" x="107" y="-8.5" font-family="Helvetica,sans-Serif" font-size="10.00">QString</text>
</g>
<!-- Node16&#45;&gt;Node17 -->
<g id="edge36" class="edge"><title>Node16&#45;&gt;Node17</title>
<path fill="none" stroke="midnightblue" d="M107,-58.3619C107,-50.9219 107,-40.7427 107,-31.7276"/>
<polygon fill="midnightblue" stroke="midnightblue" points="110.5,-31.5706 107,-21.5707 103.5,-31.5707 110.5,-31.5706"/>
</g>
</g>
</svg>
