<?xml version="1.0" encoding="UTF-8" standalone="no"?>
<!DOCTYPE svg PUBLIC "-//W3C//DTD SVG 1.1//EN"
 "http://www.w3.org/Graphics/SVG/1.1/DTD/svg11.dtd">
<!-- Generated by graphviz version 2.26.3 (20100126.1600)
 -->
<!-- Title: UBDocumentManager.h Pages: 1 -->
<!--zoomable 88 -->
<svg id="main" version="1.1" xmlns="http://www.w3.org/2000/svg" xmlns:xlink="http://www.w3.org/1999/xlink" xml:space="preserve" onload="init(evt)">
        <defs>
                <circle id="rim" cx="0" cy="0" r="7"/>
                <circle id="rim2" cx="0" cy="0" r="3.5"/>
                <g id="zoomPlus">
                        <use xlink:href="#rim" fill="#404040">
                                <set attributeName="fill" to="#808080" begin="zoomplus.mouseover" end="zoomplus.mouseout"/>
                        </use>
                        <path d="M-4,0h8M0,-4v8" fill="none" stroke="white" stroke-width="1.5" pointer-events="none"/>
                </g>
                <g id="zoomMin">
                        <use xlink:href="#rim" fill="#404040">
                                <set attributeName="fill" to="#808080" begin="zoomminus.mouseover" end="zoomminus.mouseout"/>
                        </use>
                        <path d="M-4,0h8" fill="none" stroke="white" stroke-width="1.5" pointer-events="none"/>
                </g>
                <g id="dirArrow">
                        <path fill="none" stroke="white" stroke-width="1.5" d="M0,-3.0v7 M-2.5,-0.5L0,-3.0L2.5,-0.5"/>
                </g>
               <g id="resetDef">
                       <use xlink:href="#rim2" fill="#404040">
                               <set attributeName="fill" to="#808080" begin="reset.mouseover" end="reset.mouseout"/>
                       </use>
               </g>
        </defs>

<script type="text/javascript">
var viewWidth = 2104;
var viewHeight = 88;
var sectionId = 'dynsection-1';
</script>
<script xlink:href="../../svgpan.js"/>
<svg id="graph" class="graph">
<g id="viewport">
<title>UBDocumentManager.h</title>
<polygon fill="white" stroke="white" points="-4,5 -4,-84 2101,-84 2101,5 -4,5"/>
<!-- Node1 -->
<g id="node1" class="node"><title>Node1</title>
<polygon fill="#bfbfbf" stroke="black" points="956,-58.5 956,-79.5 1078,-79.5 1078,-58.5 956,-58.5"/>
<text text-anchor="middle" x="1017" y="-66.5" font-family="Helvetica,sans-Serif" font-size="10.00">UBDocumentManager.h</text>
</g>
<!-- Node2 -->
<g id="node3" class="node"><title>Node2</title>
<a xlink:href="../../d7/d94/_u_b_document_publisher_8cpp.html" target="_top" xlink:title="UBDocumentPublisher.cpp">
<polygon fill="white" stroke="black" points="-0.5,-0.5 -0.5,-21.5 134.5,-21.5 134.5,-0.5 -0.5,-0.5"/>
<text text-anchor="middle" x="67" y="-8.5" font-family="Helvetica,sans-Serif" font-size="10.00">UBDocumentPublisher.cpp</text>
</a>
</g>
<!-- Node1&#45;&gt;Node2 -->
<g id="edge2" class="edge"><title>Node1&#45;&gt;Node2</title>
<path fill="none" stroke="midnightblue" d="M945.536,-67.3352C796.183,-63.3768 440.188,-51.4375 143,-22 140.214,-21.724 137.374,-21.4193 134.506,-21.0924"/>
<polygon fill="midnightblue" stroke="midnightblue" points="945.841,-70.8443 955.929,-67.6066 946.024,-63.8467 945.841,-70.8443"/>
</g>
<!-- Node3 -->
<g id="node5" class="node"><title>Node3</title>
<a xlink:href="../../d2/dab/_u_b_export_c_f_f_8cpp.html" target="_top" xlink:title="UBExportCFF.cpp">
<polygon fill="white" stroke="black" points="152,-0.5 152,-21.5 250,-21.5 250,-0.5 152,-0.5"/>
<text text-anchor="middle" x="201" y="-8.5" font-family="Helvetica,sans-Serif" font-size="10.00">UBExportCFF.cpp</text>
</a>
</g>
<!-- Node1&#45;&gt;Node3 -->
<g id="edge4" class="edge"><title>Node1&#45;&gt;Node3</title>
<path fill="none" stroke="midnightblue" d="M945.656,-67.5588C810.962,-64.1776 510.184,-53.4803 259,-22 256.153,-21.6431 253.234,-21.2327 250.294,-20.7848"/>
<polygon fill="midnightblue" stroke="midnightblue" points="945.758,-71.0622 955.841,-67.8084 945.93,-64.0643 945.758,-71.0622"/>
</g>
<!-- Node4 -->
<g id="node7" class="node"><title>Node4</title>
<a xlink:href="../../d5/d93/_u_b_export_document_8cpp.html" target="_top" xlink:title="UBExportDocument.cpp">
<polygon fill="white" stroke="black" points="267.5,-0.5 267.5,-21.5 390.5,-21.5 390.5,-0.5 267.5,-0.5"/>
<text text-anchor="middle" x="329" y="-8.5" font-family="Helvetica,sans-Serif" font-size="10.00">UBExportDocument.cpp</text>
</a>
</g>
<!-- Node1&#45;&gt;Node4 -->
<g id="edge6" class="edge"><title>Node1&#45;&gt;Node4</title>
<path fill="none" stroke="midnightblue" d="M945.782,-65.4387C830.595,-59.2622 596.382,-44.9769 399,-22 396.312,-21.6871 393.569,-21.3467 390.8,-20.9859"/>
<polygon fill="midnightblue" stroke="midnightblue" points="945.71,-68.9397 955.881,-65.9758 946.081,-61.9496 945.71,-68.9397"/>
</g>
<!-- Node5 -->
<g id="node9" class="node"><title>Node5</title>
<a xlink:href="../../dc/d25/_u_b_export_document_set_adaptor_8cpp.html" target="_top" xlink:title="UBExportDocumentSetAdaptor.cpp">
<polygon fill="white" stroke="black" points="408,-0.5 408,-21.5 580,-21.5 580,-0.5 408,-0.5"/>
<text text-anchor="middle" x="494" y="-8.5" font-family="Helvetica,sans-Serif" font-size="10.00">UBExportDocumentSetAdaptor.cpp</text>
</a>
</g>
<!-- Node1&#45;&gt;Node5 -->
<g id="edge8" class="edge"><title>Node1&#45;&gt;Node5</title>
<path fill="none" stroke="midnightblue" d="M945.626,-61.2923C860.65,-52.0858 714.45,-36.1507 589,-22 586.113,-21.6743 583.176,-21.3418 580.211,-21.0048"/>
<polygon fill="midnightblue" stroke="midnightblue" points="945.361,-64.784 955.679,-62.3812 946.114,-57.8247 945.361,-64.784"/>
</g>
<!-- Node6 -->
<g id="node11" class="node"><title>Node6</title>
<a xlink:href="../../df/d36/_u_b_export_web_8cpp.html" target="_top" xlink:title="UBExportWeb.cpp">
<polygon fill="white" stroke="black" points="598,-0.5 598,-21.5 696,-21.5 696,-0.5 598,-0.5"/>
<text text-anchor="middle" x="647" y="-8.5" font-family="Helvetica,sans-Serif" font-size="10.00">UBExportWeb.cpp</text>
</a>
</g>
<!-- Node1&#45;&gt;Node6 -->
<g id="edge10" class="edge"><title>Node1&#45;&gt;Node6</title>
<path fill="none" stroke="midnightblue" d="M945.638,-59.035C882.32,-50.0064 787.359,-36.008 705,-22 702.07,-21.5016 699.059,-20.975 696.024,-20.4329"/>
<polygon fill="midnightblue" stroke="midnightblue" points="945.518,-62.5531 955.911,-60.4959 946.503,-55.6228 945.518,-62.5531"/>
</g>
<!-- Node7 -->
<g id="node13" class="node"><title>Node7</title>
<a xlink:href="../../db/d50/_u_b_import_c_f_f_8cpp.html" target="_top" xlink:title="UBImportCFF.cpp">
<polygon fill="white" stroke="black" points="713.5,-0.5 713.5,-21.5 810.5,-21.5 810.5,-0.5 713.5,-0.5"/>
<text text-anchor="middle" x="762" y="-8.5" font-family="Helvetica,sans-Serif" font-size="10.00">UBImportCFF.cpp</text>
</a>
</g>
<!-- Node1&#45;&gt;Node7 -->
<g id="edge12" class="edge"><title>Node1&#45;&gt;Node7</title>
<path fill="none" stroke="midnightblue" d="M961.048,-56.2737C915.241,-45.8548 851.215,-31.2921 808.265,-21.5231"/>
<polygon fill="midnightblue" stroke="midnightblue" points="960.294,-59.6915 970.821,-58.4966 961.847,-52.8659 960.294,-59.6915"/>
</g>
<!-- Node8 -->
<g id="node15" class="node"><title>Node8</title>
<a xlink:href="../../de/d6e/_u_b_import_image_8cpp.html" target="_top" xlink:title="UBImportImage.cpp">
<polygon fill="white" stroke="black" points="828,-0.5 828,-21.5 932,-21.5 932,-0.5 828,-0.5"/>
<text text-anchor="middle" x="880" y="-8.5" font-family="Helvetica,sans-Serif" font-size="10.00">UBImportImage.cpp</text>
</a>
</g>
<!-- Node1&#45;&gt;Node8 -->
<g id="edge14" class="edge"><title>Node1&#45;&gt;Node8</title>
<path fill="none" stroke="midnightblue" d="M982.701,-54.4794C958.585,-44.2695 926.86,-30.8386 905.088,-21.6212"/>
<polygon fill="midnightblue" stroke="midnightblue" points="981.617,-57.821 992.19,-58.4966 984.346,-51.3749 981.617,-57.821"/>
</g>
<!-- Node9 -->
<g id="node17" class="node"><title>Node9</title>
<a xlink:href="../../d7/ddc/_u_b_import_virtual_printer_8cpp.html" target="_top" xlink:title="UBImportVirtualPrinter.cpp">
<polygon fill="white" stroke="black" points="950,-0.5 950,-21.5 1084,-21.5 1084,-0.5 950,-0.5"/>
<text text-anchor="middle" x="1017" y="-8.5" font-family="Helvetica,sans-Serif" font-size="10.00">UBImportVirtualPrinter.cpp</text>
</a>
</g>
<!-- Node1&#45;&gt;Node9 -->
<g id="edge16" class="edge"><title>Node1&#45;&gt;Node9</title>
<path fill="none" stroke="midnightblue" d="M1017,-48.1906C1017,-39.1684 1017,-28.9941 1017,-21.5707"/>
<polygon fill="midnightblue" stroke="midnightblue" points="1013.5,-48.3619 1017,-58.3619 1020.5,-48.3619 1013.5,-48.3619"/>
</g>
<!-- Node10 -->
<g id="node19" class="node"><title>Node10</title>
<a xlink:href="../../d8/d16/_u_b_board_controller_8cpp.html" target="_top" xlink:title="UBBoardController.cpp">
<polygon fill="white" stroke="black" points="1101.5,-0.5 1101.5,-21.5 1218.5,-21.5 1218.5,-0.5 1101.5,-0.5"/>
<text text-anchor="middle" x="1160" y="-8.5" font-family="Helvetica,sans-Serif" font-size="10.00">UBBoardController.cpp</text>
</a>
</g>
<!-- Node1&#45;&gt;Node10 -->
<g id="edge18" class="edge"><title>Node1&#45;&gt;Node10</title>
<path fill="none" stroke="midnightblue" d="M1052.47,-54.6153C1077.68,-44.3889 1110.99,-30.8796 1133.81,-21.6212"/>
<polygon fill="midnightblue" stroke="midnightblue" points="1050.85,-51.4946 1042.9,-58.4966 1053.48,-57.9814 1050.85,-51.4946"/>
</g>
<!-- Node11 -->
<g id="node21" class="node"><title>Node11</title>
<a xlink:href="../../d7/da5/_u_b_application_8cpp.html" target="_top" xlink:title="UBApplication.cpp">
<polygon fill="white" stroke="black" points="1236,-0.5 1236,-21.5 1334,-21.5 1334,-0.5 1236,-0.5"/>
<text text-anchor="middle" x="1285" y="-8.5" font-family="Helvetica,sans-Serif" font-size="10.00">UBApplication.cpp</text>
</a>
</g>
<!-- Node1&#45;&gt;Node11 -->
<g id="edge20" class="edge"><title>Node1&#45;&gt;Node11</title>
<path fill="none" stroke="midnightblue" d="M1075.5,-56.3391C1123.66,-45.9159 1191.14,-31.3126 1236.38,-21.5231"/>
<polygon fill="midnightblue" stroke="midnightblue" points="1074.57,-52.9605 1065.53,-58.4966 1076.05,-59.8022 1074.57,-52.9605"/>
</g>
<!-- Node12 -->
<g id="node23" class="node"><title>Node12</title>
<a xlink:href="../../d5/d36/_u_b_application_controller_8cpp.html" target="_top" xlink:title="UBApplicationController.cpp">
<polygon fill="white" stroke="black" points="1352,-0.5 1352,-21.5 1492,-21.5 1492,-0.5 1352,-0.5"/>
<text text-anchor="middle" x="1422" y="-8.5" font-family="Helvetica,sans-Serif" font-size="10.00">UBApplicationController.cpp</text>
</a>
</g>
<!-- Node1&#45;&gt;Node12 -->
<g id="edge22" class="edge"><title>Node1&#45;&gt;Node12</title>
<path fill="none" stroke="midnightblue" d="M1088.26,-58.7942C1162.51,-48.1612 1278.11,-31.6066 1351.92,-21.0368"/>
<polygon fill="midnightblue" stroke="midnightblue" points="1087.47,-55.3716 1078.07,-60.254 1088.47,-62.3009 1087.47,-55.3716"/>
</g>
<!-- Node13 -->
<g id="node25" class="node"><title>Node13</title>
<a xlink:href="../../d3/d10/_u_b_document_manager_8cpp.html" target="_top" xlink:title="UBDocumentManager.cpp">
<polygon fill="white" stroke="black" points="1510,-0.5 1510,-21.5 1642,-21.5 1642,-0.5 1510,-0.5"/>
<text text-anchor="middle" x="1576" y="-8.5" font-family="Helvetica,sans-Serif" font-size="10.00">UBDocumentManager.cpp</text>
</a>
</g>
<!-- Node1&#45;&gt;Node13 -->
<g id="edge24" class="edge"><title>Node1&#45;&gt;Node13</title>
<path fill="none" stroke="midnightblue" d="M1088.24,-63.1775C1182.74,-55.2042 1354.65,-39.8276 1501,-22 1503.87,-21.6499 1506.81,-21.2788 1509.77,-20.8927"/>
<polygon fill="midnightblue" stroke="midnightblue" points="1087.9,-59.6939 1078.23,-64.0193 1088.49,-66.6693 1087.9,-59.6939"/>
</g>
<!-- Node14 -->
<g id="node27" class="node"><title>Node14</title>
<a xlink:href="../../d4/d39/_u_b_document_controller_8cpp.html" target="_top" xlink:title="UBDocumentController.cpp">
<polygon fill="white" stroke="black" points="1659.5,-0.5 1659.5,-21.5 1796.5,-21.5 1796.5,-0.5 1659.5,-0.5"/>
<text text-anchor="middle" x="1728" y="-8.5" font-family="Helvetica,sans-Serif" font-size="10.00">UBDocumentController.cpp</text>
</a>
</g>
<!-- Node1&#45;&gt;Node14 -->
<g id="edge26" class="edge"><title>Node1&#45;&gt;Node14</title>
<path fill="none" stroke="midnightblue" d="M1088.64,-65.2785C1206.25,-58.8117 1447.56,-44.0467 1651,-22 1653.69,-21.709 1656.42,-21.3964 1659.18,-21.0672"/>
<polygon fill="midnightblue" stroke="midnightblue" points="1088.12,-61.8011 1078.33,-65.8413 1088.5,-68.7907 1088.12,-61.8011"/>
</g>
<!-- Node15 -->
<g id="node29" class="node"><title>Node15</title>
<a xlink:href="../../d1/d94/_u_b_document_proxy_8cpp.html" target="_top" xlink:title="UBDocumentProxy.cpp">
<polygon fill="white" stroke="black" points="1814,-0.5 1814,-21.5 1934,-21.5 1934,-0.5 1814,-0.5"/>
<text text-anchor="middle" x="1874" y="-8.5" font-family="Helvetica,sans-Serif" font-size="10.00">UBDocumentProxy.cpp</text>
</a>
</g>
<!-- Node1&#45;&gt;Node15 -->
<g id="edge28" class="edge"><title>Node1&#45;&gt;Node15</title>
<path fill="none" stroke="midnightblue" d="M1088.29,-67.1004C1226.77,-62.8902 1541.67,-50.7726 1805,-22 1807.89,-21.6838 1810.85,-21.3302 1813.84,-20.949"/>
<polygon fill="midnightblue" stroke="midnightblue" points="1088.12,-63.6038 1078.23,-67.4017 1088.33,-70.6007 1088.12,-63.6038"/>
</g>
<!-- Node16 -->
<g id="node31" class="node"><title>Node16</title>
<a xlink:href="../../d6/d3c/_u_b_document_tree_widget_8cpp.html" target="_top" xlink:title="UBDocumentTreeWidget.cpp">
<polygon fill="white" stroke="black" points="1951.5,-0.5 1951.5,-21.5 2096.5,-21.5 2096.5,-0.5 1951.5,-0.5"/>
<text text-anchor="middle" x="2024" y="-8.5" font-family="Helvetica,sans-Serif" font-size="10.00">UBDocumentTreeWidget.cpp</text>
</a>
</g>
<!-- Node1&#45;&gt;Node16 -->
<g id="edge30" class="edge"><title>Node1&#45;&gt;Node16</title>
<path fill="none" stroke="midnightblue" d="M1088.44,-67.4246C1244.04,-63.5435 1625.14,-51.5966 1943,-22 1945.68,-21.75 1948.42,-21.4765 1951.18,-21.1844"/>
<polygon fill="midnightblue" stroke="midnightblue" points="1087.98,-63.9347 1078.07,-67.6795 1088.16,-70.9325 1087.98,-63.9347"/>
</g>
</g>
</svg>
        <g id="navigator" transform="translate(0 0)" fill="#404254">
                <rect fill="#f2f5e9" fill-opacity="0.5" stroke="#606060" stroke-width=".5" x="0" y="0" width="60" height="60"/>
                <use id="zoomplus" xlink:href="#zoomPlus" x="17" y="9" onmousedown="handleZoom(evt,'in')"/>
                <use id="zoomminus" xlink:href="#zoomMin" x="42" y="9" onmousedown="handleZoom(evt,'out')"/>
                <use id="reset" xlink:href="#resetDef" x="30" y="36" onmousedown="handleReset()"/>
                <g id="arrowUp" xlink:href="#dirArrow" transform="translate(30 24)" onmousedown="handlePan(0,-1)">
                  <use xlink:href="#rim" fill="#404040">
                        <set attributeName="fill" to="#808080" begin="arrowUp.mouseover" end="arrowUp.mouseout"/>
                  </use>
                  <path fill="none" stroke="white" stroke-width="1.5" d="M0,-3.0v7 M-2.5,-0.5L0,-3.0L2.5,-0.5"/>
                </g>
                <g id="arrowRight" xlink:href="#dirArrow" transform="rotate(90) translate(36 -43)" onmousedown="handlePan(1,0)">
                  <use xlink:href="#rim" fill="#404040">
                        <set attributeName="fill" to="#808080" begin="arrowRight.mouseover" end="arrowRight.mouseout"/>
                  </use>
                  <path fill="none" stroke="white" stroke-width="1.5" d="M0,-3.0v7 M-2.5,-0.5L0,-3.0L2.5,-0.5"/>
                </g>
                <g id="arrowDown" xlink:href="#dirArrow" transform="rotate(180) translate(-30 -48)" onmousedown="handlePan(0,1)">
                  <use xlink:href="#rim" fill="#404040">
                        <set attributeName="fill" to="#808080" begin="arrowDown.mouseover" end="arrowDown.mouseout"/>
                  </use>
                  <path fill="none" stroke="white" stroke-width="1.5" d="M0,-3.0v7 M-2.5,-0.5L0,-3.0L2.5,-0.5"/>
                </g>
                <g id="arrowLeft" xlink:href="#dirArrow" transform="rotate(270) translate(-36 17)" onmousedown="handlePan(-1,0)">
                  <use xlink:href="#rim" fill="#404040">
                        <set attributeName="fill" to="#808080" begin="arrowLeft.mouseover" end="arrowLeft.mouseout"/>
                  </use>
                  <path fill="none" stroke="white" stroke-width="1.5" d="M0,-3.0v7 M-2.5,-0.5L0,-3.0L2.5,-0.5"/>
                </g>
        </g>
        <svg viewBox="0 0 15 15" width="100%" height="30px" preserveAspectRatio="xMaxYMin meet">
         <g id="arrow_out" transform="scale(0.3 0.3)">
          <a xlink:href="_u_b_document_manager_8h__dep__incl_org.svg" target="_base">
           <rect id="button" ry="5" rx="5" y="6" x="6" height="38" width="38"
                fill="#f2f5e9" fill-opacity="0.5" stroke="#606060" stroke-width="1.0"/>
           <path id="arrow"
             d="M 11.500037,31.436501 C 11.940474,20.09759 22.043105,11.32322 32.158766,21.979434 L 37.068811,17.246167 C 37.068811,17.246167 37.088388,32 37.088388,32 L 22.160133,31.978069 C 22.160133,31.978069 26.997745,27.140456 26.997745,27.140456 C 18.528582,18.264221 13.291696,25.230495 11.500037,31.436501 z"
             style="fill:#404040;"/>
          </a>
         </g>
        </svg>
</svg>
