<?xml version="1.0" encoding="UTF-8" standalone="no"?>
<!DOCTYPE svg PUBLIC "-//W3C//DTD SVG 1.1//EN"
 "http://www.w3.org/Graphics/SVG/1.1/DTD/svg11.dtd">
<!-- Generated by graphviz version 2.26.3 (20100126.1600)
 -->
<!-- Title: UBLeftPalette::UBLeftPalette Pages: 1 -->
<svg width="514pt" height="110pt"
 viewBox="0.00 0.00 514.00 110.00" xmlns="http://www.w3.org/2000/svg" xmlns:xlink="http://www.w3.org/1999/xlink">
<g id="graph1" class="graph" transform="scale(1 1) rotate(0) translate(4 106)">
<title>UBLeftPalette::UBLeftPalette</title>
<polygon fill="white" stroke="white" points="-4,5 -4,-106 511,-106 511,5 -4,5"/>
<!-- Node1 -->
<g id="node1" class="node"><title>Node1</title>
<polygon fill="#bfbfbf" stroke="black" points="0,-40.5 0,-61.5 146,-61.5 146,-40.5 0,-40.5"/>
<text text-anchor="middle" x="73" y="-48.5" font-family="Helvetica,sans-Serif" font-size="10.00">UBLeftPalette::UBLeftPalette</text>
</g>
<!-- Node2 -->
<g id="node3" class="node"><title>Node2</title>
<a xlink:href="../../dc/d54/class_u_b_dock_palette.html#afda3d41a81d60507554924807ebaec2b" target="_top" xlink:title="Set the current orientation.">
<polygon fill="white" stroke="black" points="182,-80.5 182,-101.5 334,-101.5 334,-80.5 182,-80.5"/>
<text text-anchor="middle" x="258" y="-88.5" font-family="Helvetica,sans-Serif" font-size="10.00">UBDockPalette::setOrientation</text>
</a>
</g>
<!-- Node1&#45;&gt;Node2 -->
<g id="edge2" class="edge"><title>Node1&#45;&gt;Node2</title>
<path fill="none" stroke="midnightblue" d="M121.607,-61.5095C145.412,-66.6566 174.266,-72.8954 199.294,-78.3067"/>
<polygon fill="midnightblue" stroke="midnightblue" points="198.883,-81.7988 209.397,-80.4913 200.363,-74.9569 198.883,-81.7988"/>
</g>
<!-- Node4 -->
<g id="node7" class="node"><title>Node4</title>
<a xlink:href="../../db/d66/class_u_b_settings.html#a0d8ed418921c2b2d37851faeae00715d" target="_top" xlink:title="UBSettings::settings">
<polygon fill="white" stroke="black" points="204.5,-40.5 204.5,-61.5 311.5,-61.5 311.5,-40.5 204.5,-40.5"/>
<text text-anchor="middle" x="258" y="-48.5" font-family="Helvetica,sans-Serif" font-size="10.00">UBSettings::settings</text>
</a>
</g>
<!-- Node1&#45;&gt;Node4 -->
<g id="edge6" class="edge"><title>Node1&#45;&gt;Node4</title>
<path fill="none" stroke="midnightblue" d="M146.117,-51C161.872,-51 178.414,-51 193.799,-51"/>
<polygon fill="midnightblue" stroke="midnightblue" points="194.242,-54.5001 204.242,-51 194.242,-47.5001 194.242,-54.5001"/>
</g>
<!-- Node5 -->
<g id="node9" class="node"><title>Node5</title>
<a xlink:href="../../d7/d24/class_u_b_setting.html#afe671b284dd9f1e313e6f27df3ecd2a8" target="_top" xlink:title="UBSetting::get">
<polygon fill="white" stroke="black" points="217.5,-0.5 217.5,-21.5 298.5,-21.5 298.5,-0.5 217.5,-0.5"/>
<text text-anchor="middle" x="258" y="-8.5" font-family="Helvetica,sans-Serif" font-size="10.00">UBSetting::get</text>
</a>
</g>
<!-- Node1&#45;&gt;Node5 -->
<g id="edge8" class="edge"><title>Node1&#45;&gt;Node5</title>
<path fill="none" stroke="midnightblue" d="M121.607,-40.4905C147.997,-34.7845 180.592,-27.7369 207.299,-21.9623"/>
<polygon fill="midnightblue" stroke="midnightblue" points="208.188,-25.3512 217.222,-19.8168 206.708,-18.5093 208.188,-25.3512"/>
</g>
<!-- Node3 -->
<g id="node5" class="node"><title>Node3</title>
<a xlink:href="../../dc/d54/class_u_b_dock_palette.html#a92148a9db7361b6f037eda1213cde579" target="_top" xlink:title="Get the current orientation.">
<polygon fill="white" stroke="black" points="370,-80.5 370,-101.5 506,-101.5 506,-80.5 370,-80.5"/>
<text text-anchor="middle" x="438" y="-88.5" font-family="Helvetica,sans-Serif" font-size="10.00">UBDockPalette::orientation</text>
</a>
</g>
<!-- Node2&#45;&gt;Node3 -->
<g id="edge4" class="edge"><title>Node2&#45;&gt;Node3</title>
<path fill="none" stroke="midnightblue" d="M334.075,-91C342.534,-91 351.161,-91 359.647,-91"/>
<polygon fill="midnightblue" stroke="midnightblue" points="359.908,-94.5001 369.908,-91 359.908,-87.5001 359.908,-94.5001"/>
</g>
<!-- Node6 -->
<g id="node11" class="node"><title>Node6</title>
<a xlink:href="../../db/d66/class_u_b_settings.html#a30f5b15068954099f41c054979593275" target="_top" xlink:title="UBSettings::value">
<polygon fill="white" stroke="black" points="390,-0.5 390,-21.5 486,-21.5 486,-0.5 390,-0.5"/>
<text text-anchor="middle" x="438" y="-8.5" font-family="Helvetica,sans-Serif" font-size="10.00">UBSettings::value</text>
</a>
</g>
<!-- Node5&#45;&gt;Node6 -->
<g id="edge10" class="edge"><title>Node5&#45;&gt;Node6</title>
<path fill="none" stroke="midnightblue" d="M298.845,-11C322.745,-11 353.316,-11 379.713,-11"/>
<polygon fill="midnightblue" stroke="midnightblue" points="379.979,-14.5001 389.979,-11 379.979,-7.5001 379.979,-14.5001"/>
</g>
</g>
</svg>
