<?xml version="1.0" encoding="UTF-8" standalone="no"?>
<!DOCTYPE svg PUBLIC "-//W3C//DTD SVG 1.1//EN"
 "http://www.w3.org/Graphics/SVG/1.1/DTD/svg11.dtd">
<!-- Generated by graphviz version 2.26.3 (20100126.1600)
 -->
<!-- Title: UBLeftPalette::switchMode Pages: 1 -->
<svg width="422pt" height="70pt"
 viewBox="0.00 0.00 422.00 70.00" xmlns="http://www.w3.org/2000/svg" xmlns:xlink="http://www.w3.org/1999/xlink">
<g id="graph1" class="graph" transform="scale(1 1) rotate(0) translate(4 66)">
<title>UBLeftPalette::switchMode</title>
<polygon fill="white" stroke="white" points="-4,5 -4,-66 419,-66 419,5 -4,5"/>
<!-- Node1 -->
<g id="node1" class="node"><title>Node1</title>
<polygon fill="#bfbfbf" stroke="black" points="0.5,-20.5 0.5,-41.5 137.5,-41.5 137.5,-20.5 0.5,-20.5"/>
<text text-anchor="middle" x="69" y="-28.5" font-family="Helvetica,sans-Serif" font-size="10.00">UBLeftPalette::switchMode</text>
</g>
<!-- Node2 -->
<g id="node3" class="node"><title>Node2</title>
<a xlink:href="../../db/d66/class_u_b_settings.html#a0d8ed418921c2b2d37851faeae00715d" target="_top" xlink:title="UBSettings::settings">
<polygon fill="white" stroke="black" points="174.5,-40.5 174.5,-61.5 281.5,-61.5 281.5,-40.5 174.5,-40.5"/>
<text text-anchor="middle" x="228" y="-48.5" font-family="Helvetica,sans-Serif" font-size="10.00">UBSettings::settings</text>
</a>
</g>
<!-- Node1&#45;&gt;Node2 -->
<g id="edge2" class="edge"><title>Node1&#45;&gt;Node2</title>
<path fill="none" stroke="midnightblue" d="M137.815,-39.656C146.622,-40.7638 155.608,-41.8941 164.328,-42.991"/>
<polygon fill="midnightblue" stroke="midnightblue" points="164.059,-46.4846 174.417,-44.2601 164.933,-39.5393 164.059,-46.4846"/>
</g>
<!-- Node3 -->
<g id="node5" class="node"><title>Node3</title>
<a xlink:href="../../d7/d24/class_u_b_setting.html#afe671b284dd9f1e313e6f27df3ecd2a8" target="_top" xlink:title="UBSetting::get">
<polygon fill="white" stroke="black" points="187.5,-0.5 187.5,-21.5 268.5,-21.5 268.5,-0.5 187.5,-0.5"/>
<text text-anchor="middle" x="228" y="-8.5" font-family="Helvetica,sans-Serif" font-size="10.00">UBSetting::get</text>
</a>
</g>
<!-- Node1&#45;&gt;Node3 -->
<g id="edge4" class="edge"><title>Node1&#45;&gt;Node3</title>
<path fill="none" stroke="midnightblue" d="M137.815,-22.344C151.06,-20.678 164.708,-18.9613 177.252,-17.3834"/>
<polygon fill="midnightblue" stroke="midnightblue" points="178.012,-20.8155 187.497,-16.0947 177.138,-13.8702 178.012,-20.8155"/>
</g>
<!-- Node4 -->
<g id="node7" class="node"><title>Node4</title>
<a xlink:href="../../db/d66/class_u_b_settings.html#a30f5b15068954099f41c054979593275" target="_top" xlink:title="UBSettings::value">
<polygon fill="white" stroke="black" points="318,-0.5 318,-21.5 414,-21.5 414,-0.5 318,-0.5"/>
<text text-anchor="middle" x="366" y="-8.5" font-family="Helvetica,sans-Serif" font-size="10.00">UBSettings::value</text>
</a>
</g>
<!-- Node3&#45;&gt;Node4 -->
<g id="edge6" class="edge"><title>Node3&#45;&gt;Node4</title>
<path fill="none" stroke="midnightblue" d="M268.658,-11C280.829,-11 294.423,-11 307.502,-11"/>
<polygon fill="midnightblue" stroke="midnightblue" points="307.843,-14.5001 317.843,-11 307.843,-7.5001 307.843,-14.5001"/>
</g>
</g>
</svg>
