<?xml version="1.0" encoding="UTF-8" standalone="no"?>
<!DOCTYPE svg PUBLIC "-//W3C//DTD SVG 1.1//EN"
 "http://www.w3.org/Graphics/SVG/1.1/DTD/svg11.dtd">
<!-- Generated by graphviz version 2.26.3 (20100126.1600)
 -->
<!-- Title: UBGraphicsTriangle::rotationCenter Pages: 1 -->
<svg width="396pt" height="116pt"
 viewBox="0.00 0.00 396.00 116.00" xmlns="http://www.w3.org/2000/svg" xmlns:xlink="http://www.w3.org/1999/xlink">
<g id="graph1" class="graph" transform="scale(1 1) rotate(0) translate(4 112)">
<title>UBGraphicsTriangle::rotationCenter</title>
<polygon fill="white" stroke="white" points="-4,5 -4,-112 393,-112 393,5 -4,5"/>
<!-- Node1 -->
<g id="node1" class="node"><title>Node1</title>
<polygon fill="#bfbfbf" stroke="black" points="0,-22 0,-56 104,-56 104,-22 0,-22"/>
<text text-anchor="start" x="8" y="-43" font-family="Helvetica,sans-Serif" font-size="10.00">UBGraphicsTriangle</text>
<text text-anchor="middle" x="52" y="-30" font-family="Helvetica,sans-Serif" font-size="10.00">::rotationCenter</text>
</g>
<!-- Node2 -->
<g id="node3" class="node"><title>Node2</title>
<a xlink:href="../../da/dd0/class_u_b_graphics_triangle.html#a69e92a960b5217519da8bdabf15a8ab8" target="_top" xlink:title="UBGraphicsTriangle\l::paintGraduations">
<polygon fill="white" stroke="black" points="142,-74 142,-108 246,-108 246,-74 142,-74"/>
<text text-anchor="start" x="150" y="-95" font-family="Helvetica,sans-Serif" font-size="10.00">UBGraphicsTriangle</text>
<text text-anchor="middle" x="194" y="-82" font-family="Helvetica,sans-Serif" font-size="10.00">::paintGraduations</text>
</a>
</g>
<!-- Node1&#45;&gt;Node2 -->
<g id="edge2" class="edge"><title>Node1&#45;&gt;Node2</title>
<path fill="none" stroke="midnightblue" d="M108.253,-59.5997C121.227,-64.3508 134.889,-69.3536 147.399,-73.935"/>
<polygon fill="midnightblue" stroke="midnightblue" points="109.09,-56.1789 98.4961,-56.0267 106.683,-62.752 109.09,-56.1789"/>
</g>
<!-- Node4 -->
<g id="node7" class="node"><title>Node4</title>
<a xlink:href="../../da/dd0/class_u_b_graphics_triangle.html#a38e19f6246c3c232351336071972a6be" target="_top" xlink:title="UBGraphicsTriangle\l::rotateAroundCenter">
<polygon fill="white" stroke="black" points="140.5,-22 140.5,-56 247.5,-56 247.5,-22 140.5,-22"/>
<text text-anchor="start" x="148.5" y="-43" font-family="Helvetica,sans-Serif" font-size="10.00">UBGraphicsTriangle</text>
<text text-anchor="middle" x="194" y="-30" font-family="Helvetica,sans-Serif" font-size="10.00">::rotateAroundCenter</text>
</a>
</g>
<!-- Node1&#45;&gt;Node4 -->
<g id="edge6" class="edge"><title>Node1&#45;&gt;Node4</title>
<path fill="none" stroke="midnightblue" d="M114.098,-39C122.738,-39 131.557,-39 140.031,-39"/>
<polygon fill="midnightblue" stroke="midnightblue" points="114.069,-35.5001 104.069,-39 114.069,-42.5001 114.069,-35.5001"/>
</g>
<!-- Node5 -->
<g id="node9" class="node"><title>Node5</title>
<a xlink:href="../../da/dd0/class_u_b_graphics_triangle.html#a8fa65aa12c208d10ebf3ed9c85bbb34f" target="_top" xlink:title="UBGraphicsTriangle\l::mouseMoveEvent">
<polygon fill="white" stroke="black" points="284,-0 284,-34 388,-34 388,-0 284,-0"/>
<text text-anchor="start" x="292" y="-21" font-family="Helvetica,sans-Serif" font-size="10.00">UBGraphicsTriangle</text>
<text text-anchor="middle" x="336" y="-8" font-family="Helvetica,sans-Serif" font-size="10.00">::mouseMoveEvent</text>
</a>
</g>
<!-- Node1&#45;&gt;Node5 -->
<g id="edge10" class="edge"><title>Node1&#45;&gt;Node5</title>
<path fill="none" stroke="midnightblue" d="M110.718,-19.1289C120.398,-16.5853 130.405,-14.3879 140,-13 188.337,-6.00868 244.069,-8.11214 283.718,-11.311"/>
<polygon fill="midnightblue" stroke="midnightblue" points="109.48,-15.84 100.78,-21.8855 111.351,-22.5853 109.48,-15.84"/>
</g>
<!-- Node3 -->
<g id="node5" class="node"><title>Node3</title>
<a xlink:href="../../da/dd0/class_u_b_graphics_triangle.html#a81a8a1a685d90d83734417474aea694c" target="_top" xlink:title="UBGraphicsTriangle\l::paint">
<polygon fill="white" stroke="black" points="284,-74 284,-108 388,-108 388,-74 284,-74"/>
<text text-anchor="start" x="292" y="-95" font-family="Helvetica,sans-Serif" font-size="10.00">UBGraphicsTriangle</text>
<text text-anchor="middle" x="336" y="-82" font-family="Helvetica,sans-Serif" font-size="10.00">::paint</text>
</a>
</g>
<!-- Node2&#45;&gt;Node3 -->
<g id="edge4" class="edge"><title>Node2&#45;&gt;Node3</title>
<path fill="none" stroke="midnightblue" d="M256.35,-91C265.559,-91 274.966,-91 283.937,-91"/>
<polygon fill="midnightblue" stroke="midnightblue" points="256.069,-87.5001 246.069,-91 256.069,-94.5001 256.069,-87.5001"/>
</g>
<!-- Node4&#45;&gt;Node5 -->
<g id="edge8" class="edge"><title>Node4&#45;&gt;Node5</title>
<path fill="none" stroke="midnightblue" d="M257.754,-29.1227C266.415,-27.7808 275.222,-26.4164 283.651,-25.1105"/>
<polygon fill="midnightblue" stroke="midnightblue" points="257.03,-25.6929 247.684,-30.6827 258.102,-32.6104 257.03,-25.6929"/>
</g>
</g>
</svg>
