<?xml version="1.0" encoding="UTF-8" standalone="no"?>
<!DOCTYPE svg PUBLIC "-//W3C//DTD SVG 1.1//EN"
 "http://www.w3.org/Graphics/SVG/1.1/DTD/svg11.dtd">
<!-- Generated by graphviz version 2.26.3 (20100126.1600)
 -->
<!-- Title: MergePageDescription.h Pages: 1 -->
<svg width="505pt" height="204pt"
 viewBox="0.00 0.00 505.07 204.00" xmlns="http://www.w3.org/2000/svg" xmlns:xlink="http://www.w3.org/1999/xlink">
<g id="graph1" class="graph" transform="scale(1 1) rotate(0) translate(4 200)">
<title>MergePageDescription.h</title>
<polygon fill="white" stroke="white" points="-4,5 -4,-200 502.068,-200 502.068,5 -4,5"/>
<!-- Node1 -->
<g id="node1" class="node"><title>Node1</title>
<polygon fill="#bfbfbf" stroke="black" points="110.068,-174.5 110.068,-195.5 234.068,-195.5 234.068,-174.5 110.068,-174.5"/>
<text text-anchor="middle" x="172.068" y="-182.5" font-family="Helvetica,sans-Serif" font-size="10.00">MergePageDescription.h</text>
</g>
<!-- Node2 -->
<g id="node3" class="node"><title>Node2</title>
<a xlink:href="../../d3/d21/_transformation_8h.html" target="_top" xlink:title="Transformation.h">
<polygon fill="white" stroke="black" points="127.068,-116.5 127.068,-137.5 217.068,-137.5 217.068,-116.5 127.068,-116.5"/>
<text text-anchor="middle" x="172.068" y="-124.5" font-family="Helvetica,sans-Serif" font-size="10.00">Transformation.h</text>
</a>
</g>
<!-- Node1&#45;&gt;Node2 -->
<g id="edge2" class="edge"><title>Node1&#45;&gt;Node2</title>
<path fill="none" stroke="midnightblue" d="M172.068,-174.362C172.068,-166.922 172.068,-156.743 172.068,-147.728"/>
<polygon fill="midnightblue" stroke="midnightblue" points="175.568,-147.571 172.068,-137.571 168.568,-147.571 175.568,-147.571"/>
</g>
<!-- Node4 -->
<g id="node7" class="node"><title>Node4</title>
<polygon fill="white" stroke="#bfbfbf" points="194.568,-0.5 194.568,-21.5 235.568,-21.5 235.568,-0.5 194.568,-0.5"/>
<text text-anchor="middle" x="215.068" y="-8.5" font-family="Helvetica,sans-Serif" font-size="10.00">string</text>
</g>
<!-- Node1&#45;&gt;Node4 -->
<g id="edge28" class="edge"><title>Node1&#45;&gt;Node4</title>
<path fill="none" stroke="midnightblue" d="M136.41,-174.466C76.9118,-155.108 -32.1305,-110.968 10.0678,-58 31.4682,-31.1379 132.115,-18.375 183.985,-13.4952"/>
<polygon fill="midnightblue" stroke="midnightblue" points="184.621,-16.9523 194.267,-12.5713 183.994,-9.98037 184.621,-16.9523"/>
</g>
<!-- Node13 -->
<g id="node26" class="node"><title>Node13</title>
<polygon fill="white" stroke="#bfbfbf" points="234.568,-116.5 234.568,-137.5 269.568,-137.5 269.568,-116.5 234.568,-116.5"/>
<text text-anchor="middle" x="252.068" y="-124.5" font-family="Helvetica,sans-Serif" font-size="10.00">map</text>
</g>
<!-- Node1&#45;&gt;Node13 -->
<g id="edge26" class="edge"><title>Node1&#45;&gt;Node13</title>
<path fill="none" stroke="midnightblue" d="M186.741,-174.362C198.582,-165.777 215.453,-153.546 229.084,-143.664"/>
<polygon fill="midnightblue" stroke="midnightblue" points="231.446,-146.274 237.488,-137.571 227.337,-140.607 231.446,-146.274"/>
</g>
<!-- Node3 -->
<g id="node5" class="node"><title>Node3</title>
<polygon fill="white" stroke="#bfbfbf" points="217.068,-58.5 217.068,-79.5 269.068,-79.5 269.068,-58.5 217.068,-58.5"/>
<text text-anchor="middle" x="243.068" y="-66.5" font-family="Helvetica,sans-Serif" font-size="10.00">sstream</text>
</g>
<!-- Node2&#45;&gt;Node3 -->
<g id="edge4" class="edge"><title>Node2&#45;&gt;Node3</title>
<path fill="none" stroke="midnightblue" d="M185.09,-116.362C195.499,-107.859 210.287,-95.7785 222.323,-85.9466"/>
<polygon fill="midnightblue" stroke="midnightblue" points="224.598,-88.6077 230.128,-79.5707 220.169,-83.1866 224.598,-88.6077"/>
</g>
<!-- Node2&#45;&gt;Node4 -->
<g id="edge6" class="edge"><title>Node2&#45;&gt;Node4</title>
<path fill="none" stroke="midnightblue" d="M205.933,-116.474C233.685,-107.083 269.698,-92.8669 278.068,-80 291.439,-59.4444 267.05,-39.1047 244.834,-25.8938"/>
<polygon fill="midnightblue" stroke="midnightblue" points="246.311,-22.7092 235.879,-20.8574 242.879,-28.8103 246.311,-22.7092"/>
</g>
<!-- Node5 -->
<g id="node9" class="node"><title>Node5</title>
<polygon fill="white" stroke="#bfbfbf" points="18.5678,-58.5 18.5678,-79.5 65.5678,-79.5 65.5678,-58.5 18.5678,-58.5"/>
<text text-anchor="middle" x="42.0678" y="-66.5" font-family="Helvetica,sans-Serif" font-size="10.00">math.h</text>
</g>
<!-- Node2&#45;&gt;Node5 -->
<g id="edge8" class="edge"><title>Node2&#45;&gt;Node5</title>
<path fill="none" stroke="midnightblue" d="M148.526,-116.497C128.039,-107.356 98.1206,-94.0082 75.2139,-83.7883"/>
<polygon fill="midnightblue" stroke="midnightblue" points="76.4324,-80.4994 65.874,-79.6212 73.5802,-86.892 76.4324,-80.4994"/>
</g>
<!-- Node6 -->
<g id="node11" class="node"><title>Node6</title>
<polygon fill="white" stroke="#bfbfbf" points="83.0678,-58.5 83.0678,-79.5 127.068,-79.5 127.068,-58.5 83.0678,-58.5"/>
<text text-anchor="middle" x="105.068" y="-66.5" font-family="Helvetica,sans-Serif" font-size="10.00">vector</text>
</g>
<!-- Node2&#45;&gt;Node6 -->
<g id="edge10" class="edge"><title>Node2&#45;&gt;Node6</title>
<path fill="none" stroke="midnightblue" d="M159.779,-116.362C150.051,-107.941 136.27,-96.0105 124.972,-86.2308"/>
<polygon fill="midnightblue" stroke="midnightblue" points="127.13,-83.4695 117.279,-79.5707 122.549,-88.7619 127.13,-83.4695"/>
</g>
<!-- Node7 -->
<g id="node13" class="node"><title>Node7</title>
<polygon fill="white" stroke="#bfbfbf" points="145.068,-58.5 145.068,-79.5 199.068,-79.5 199.068,-58.5 145.068,-58.5"/>
<text text-anchor="middle" x="172.068" y="-66.5" font-family="Helvetica,sans-Serif" font-size="10.00">iostream</text>
</g>
<!-- Node2&#45;&gt;Node7 -->
<g id="edge12" class="edge"><title>Node2&#45;&gt;Node7</title>
<path fill="none" stroke="midnightblue" d="M172.068,-116.362C172.068,-108.922 172.068,-98.7427 172.068,-89.7276"/>
<polygon fill="midnightblue" stroke="midnightblue" points="175.568,-89.5706 172.068,-79.5707 168.568,-89.5707 175.568,-89.5706"/>
</g>
<!-- Node8 -->
<g id="node15" class="node"><title>Node8</title>
<a xlink:href="../../d9/dc1/_utils_8h.html" target="_top" xlink:title="Utils.h">
<polygon fill="white" stroke="black" points="324.568,-58.5 324.568,-79.5 369.568,-79.5 369.568,-58.5 324.568,-58.5"/>
<text text-anchor="middle" x="347.068" y="-66.5" font-family="Helvetica,sans-Serif" font-size="10.00">Utils.h</text>
</a>
</g>
<!-- Node2&#45;&gt;Node8 -->
<g id="edge14" class="edge"><title>Node2&#45;&gt;Node8</title>
<path fill="none" stroke="midnightblue" d="M203.759,-116.497C235.222,-106.069 283.207,-90.1654 314.852,-79.6773"/>
<polygon fill="midnightblue" stroke="midnightblue" points="316.119,-82.9446 324.51,-76.4762 313.917,-76.3 316.119,-82.9446"/>
</g>
<!-- Node8&#45;&gt;Node4 -->
<g id="edge20" class="edge"><title>Node8&#45;&gt;Node4</title>
<path fill="none" stroke="midnightblue" d="M324.376,-59.0294C302.478,-49.4077 269.193,-34.7822 245.106,-24.1986"/>
<polygon fill="midnightblue" stroke="midnightblue" points="246.291,-20.8964 235.728,-20.0779 243.475,-27.3051 246.291,-20.8964"/>
</g>
<!-- Node9 -->
<g id="node17" class="node"><title>Node9</title>
<a xlink:href="../../d4/d71/_config_8h.html" target="_top" xlink:title="Config.h">
<polygon fill="white" stroke="black" points="252.568,-0.5 252.568,-21.5 305.568,-21.5 305.568,-0.5 252.568,-0.5"/>
<text text-anchor="middle" x="279.068" y="-8.5" font-family="Helvetica,sans-Serif" font-size="10.00">Config.h</text>
</a>
</g>
<!-- Node8&#45;&gt;Node9 -->
<g id="edge16" class="edge"><title>Node8&#45;&gt;Node9</title>
<path fill="none" stroke="midnightblue" d="M334.596,-58.3619C324.723,-49.9408 310.735,-38.0105 299.269,-28.2308"/>
<polygon fill="midnightblue" stroke="midnightblue" points="301.341,-25.3972 291.461,-21.5707 296.798,-30.7231 301.341,-25.3972"/>
</g>
<!-- Node10 -->
<g id="node19" class="node"><title>Node10</title>
<polygon fill="white" stroke="#bfbfbf" points="323.068,-0.5 323.068,-21.5 371.068,-21.5 371.068,-0.5 323.068,-0.5"/>
<text text-anchor="middle" x="347.068" y="-8.5" font-family="Helvetica,sans-Serif" font-size="10.00">stdlib.h</text>
</g>
<!-- Node8&#45;&gt;Node10 -->
<g id="edge18" class="edge"><title>Node8&#45;&gt;Node10</title>
<path fill="none" stroke="midnightblue" d="M347.068,-58.3619C347.068,-50.9219 347.068,-40.7427 347.068,-31.7276"/>
<polygon fill="midnightblue" stroke="midnightblue" points="350.568,-31.5706 347.068,-21.5707 343.568,-31.5707 350.568,-31.5706"/>
</g>
<!-- Node11 -->
<g id="node22" class="node"><title>Node11</title>
<polygon fill="white" stroke="#bfbfbf" points="389.068,-0.5 389.068,-21.5 433.068,-21.5 433.068,-0.5 389.068,-0.5"/>
<text text-anchor="middle" x="411.068" y="-8.5" font-family="Helvetica,sans-Serif" font-size="10.00">time.h</text>
</g>
<!-- Node8&#45;&gt;Node11 -->
<g id="edge22" class="edge"><title>Node8&#45;&gt;Node11</title>
<path fill="none" stroke="midnightblue" d="M358.806,-58.3619C368.008,-50.0226 381.008,-38.2418 391.74,-28.5162"/>
<polygon fill="midnightblue" stroke="midnightblue" points="394.344,-30.8793 399.404,-21.5707 389.643,-25.6924 394.344,-30.8793"/>
</g>
<!-- Node12 -->
<g id="node24" class="node"><title>Node12</title>
<polygon fill="white" stroke="#bfbfbf" points="451.068,-0.5 451.068,-21.5 497.068,-21.5 497.068,-0.5 451.068,-0.5"/>
<text text-anchor="middle" x="474.068" y="-8.5" font-family="Helvetica,sans-Serif" font-size="10.00">stdio.h</text>
</g>
<!-- Node8&#45;&gt;Node12 -->
<g id="edge24" class="edge"><title>Node8&#45;&gt;Node12</title>
<path fill="none" stroke="midnightblue" d="M369.773,-58.6308C389.75,-49.5073 419.069,-36.1176 441.537,-25.8564"/>
<polygon fill="midnightblue" stroke="midnightblue" points="443.058,-29.0098 450.7,-21.6719 440.15,-22.6424 443.058,-29.0098"/>
</g>
</g>
</svg>
