<?xml version="1.0" encoding="UTF-8" standalone="no"?>
<!DOCTYPE svg PUBLIC "-//W3C//DTD SVG 1.1//EN"
 "http://www.w3.org/Graphics/SVG/1.1/DTD/svg11.dtd">
<!-- Generated by graphviz version 2.26.3 (20100126.1600)
 -->
<!-- Title: Sankore&#45;3.1/src/frameworks/UBPlatformUtils_win.cpp Pages: 1 -->
<svg width="668pt" height="218pt"
 viewBox="0.00 0.00 668.00 218.00" xmlns="http://www.w3.org/2000/svg" xmlns:xlink="http://www.w3.org/1999/xlink">
<g id="graph1" class="graph" transform="scale(1 1) rotate(0) translate(4 214)">
<title>Sankore&#45;3.1/src/frameworks/UBPlatformUtils_win.cpp</title>
<polygon fill="white" stroke="white" points="-4,5 -4,-214 665,-214 665,5 -4,5"/>
<!-- Node1 -->
<g id="node1" class="node"><title>Node1</title>
<polygon fill="#bfbfbf" stroke="black" points="333,-175 333,-209 473,-209 473,-175 333,-175"/>
<text text-anchor="start" x="341" y="-196" font-family="Helvetica,sans-Serif" font-size="10.00">Sankore&#45;3.1/src/frameworks</text>
<text text-anchor="middle" x="403" y="-183" font-family="Helvetica,sans-Serif" font-size="10.00">/UBPlatformUtils_win.cpp</text>
</g>
<!-- Node2 -->
<g id="node3" class="node"><title>Node2</title>
<a xlink:href="../../d8/d93/_u_b_platform_utils_8h.html" target="_top" xlink:title="UBPlatformUtils.h">
<polygon fill="white" stroke="black" points="0,-116.5 0,-137.5 96,-137.5 96,-116.5 0,-116.5"/>
<text text-anchor="middle" x="48" y="-124.5" font-family="Helvetica,sans-Serif" font-size="10.00">UBPlatformUtils.h</text>
</a>
</g>
<!-- Node1&#45;&gt;Node2 -->
<g id="edge2" class="edge"><title>Node1&#45;&gt;Node2</title>
<path fill="none" stroke="midnightblue" d="M332.813,-179.514C274.7,-169.122 189.685,-153.797 106.113,-138.195"/>
<polygon fill="midnightblue" stroke="midnightblue" points="106.668,-134.738 96.1947,-136.341 105.381,-141.619 106.668,-134.738"/>
</g>
<!-- Node5 -->
<g id="node9" class="node"><title>Node5</title>
<polygon fill="white" stroke="#bfbfbf" points="345,-0.5 345,-21.5 387,-21.5 387,-0.5 345,-0.5"/>
<text text-anchor="middle" x="366" y="-8.5" font-family="Helvetica,sans-Serif" font-size="10.00">QtGui</text>
</g>
<!-- Node1&#45;&gt;Node5 -->
<g id="edge8" class="edge"><title>Node1&#45;&gt;Node5</title>
<path fill="none" stroke="midnightblue" d="M470.622,-174.877C503.673,-162.713 533.527,-143.588 519,-116 493.344,-67.2755 433.739,-36.8065 396.958,-21.9369"/>
<polygon fill="midnightblue" stroke="midnightblue" points="397.825,-18.5187 387.236,-18.1544 395.286,-25.0423 397.825,-18.5187"/>
</g>
<!-- Node6 -->
<g id="node11" class="node"><title>Node6</title>
<polygon fill="white" stroke="#bfbfbf" points="294,-116.5 294,-137.5 354,-137.5 354,-116.5 294,-116.5"/>
<text text-anchor="middle" x="324" y="-124.5" font-family="Helvetica,sans-Serif" font-size="10.00">QProcess</text>
</g>
<!-- Node1&#45;&gt;Node6 -->
<g id="edge10" class="edge"><title>Node1&#45;&gt;Node6</title>
<path fill="none" stroke="midnightblue" d="M382.244,-174.922C370.766,-165.479 356.54,-153.774 345.021,-144.296"/>
<polygon fill="midnightblue" stroke="midnightblue" points="347.135,-141.503 337.189,-137.852 342.688,-146.909 347.135,-141.503"/>
</g>
<!-- Node7 -->
<g id="node13" class="node"><title>Node7</title>
<polygon fill="white" stroke="#bfbfbf" points="371.5,-116.5 371.5,-137.5 434.5,-137.5 434.5,-116.5 371.5,-116.5"/>
<text text-anchor="middle" x="403" y="-124.5" font-family="Helvetica,sans-Serif" font-size="10.00">windows.h</text>
</g>
<!-- Node1&#45;&gt;Node7 -->
<g id="edge12" class="edge"><title>Node1&#45;&gt;Node7</title>
<path fill="none" stroke="midnightblue" d="M403,-174.922C403,-166.67 403,-156.692 403,-147.982"/>
<polygon fill="midnightblue" stroke="midnightblue" points="406.5,-147.852 403,-137.852 399.5,-147.852 406.5,-147.852"/>
</g>
<!-- Node8 -->
<g id="node15" class="node"><title>Node8</title>
<polygon fill="white" stroke="#bfbfbf" points="452,-116.5 452,-137.5 510,-137.5 510,-116.5 452,-116.5"/>
<text text-anchor="middle" x="481" y="-124.5" font-family="Helvetica,sans-Serif" font-size="10.00">shellapi.h</text>
</g>
<!-- Node1&#45;&gt;Node8 -->
<g id="edge14" class="edge"><title>Node1&#45;&gt;Node8</title>
<path fill="none" stroke="midnightblue" d="M423.494,-174.922C434.826,-165.479 448.872,-153.774 460.245,-144.296"/>
<polygon fill="midnightblue" stroke="midnightblue" points="462.536,-146.943 467.977,-137.852 458.055,-141.565 462.536,-146.943"/>
</g>
<!-- Node9 -->
<g id="node17" class="node"><title>Node9</title>
<a xlink:href="../../d2/db5/_u_b_file_system_utils_8h.html" target="_top" xlink:title="frameworks/UBFileSystemUtils.h">
<polygon fill="white" stroke="black" points="113.5,-116.5 113.5,-137.5 276.5,-137.5 276.5,-116.5 113.5,-116.5"/>
<text text-anchor="middle" x="195" y="-124.5" font-family="Helvetica,sans-Serif" font-size="10.00">frameworks/UBFileSystemUtils.h</text>
</a>
</g>
<!-- Node1&#45;&gt;Node9 -->
<g id="edge16" class="edge"><title>Node1&#45;&gt;Node9</title>
<path fill="none" stroke="midnightblue" d="M348.35,-174.922C314.138,-164.231 270.65,-150.641 238.729,-140.665"/>
<polygon fill="midnightblue" stroke="midnightblue" points="239.387,-137.204 228.798,-137.562 237.299,-143.885 239.387,-137.204"/>
</g>
<!-- Node12 -->
<g id="node25" class="node"><title>Node12</title>
<a xlink:href="../../db/d80/memcheck_8h.html" target="_top" xlink:title="core/memcheck.h">
<polygon fill="white" stroke="black" points="565.5,-116.5 565.5,-137.5 660.5,-137.5 660.5,-116.5 565.5,-116.5"/>
<text text-anchor="middle" x="613" y="-124.5" font-family="Helvetica,sans-Serif" font-size="10.00">core/memcheck.h</text>
</a>
</g>
<!-- Node1&#45;&gt;Node12 -->
<g id="edge26" class="edge"><title>Node1&#45;&gt;Node12</title>
<path fill="none" stroke="midnightblue" d="M458.175,-174.922C492.866,-164.184 537.003,-150.523 569.268,-140.536"/>
<polygon fill="midnightblue" stroke="midnightblue" points="570.359,-143.862 578.877,-137.562 568.289,-137.175 570.359,-143.862"/>
</g>
<!-- Node3 -->
<g id="node5" class="node"><title>Node3</title>
<polygon fill="white" stroke="#bfbfbf" points="93,-58.5 93,-79.5 141,-79.5 141,-58.5 93,-58.5"/>
<text text-anchor="middle" x="117" y="-66.5" font-family="Helvetica,sans-Serif" font-size="10.00">QtCore</text>
</g>
<!-- Node2&#45;&gt;Node3 -->
<g id="edge4" class="edge"><title>Node2&#45;&gt;Node3</title>
<path fill="none" stroke="midnightblue" d="M60.6557,-116.362C70.6739,-107.941 84.8668,-96.0105 96.5013,-86.2308"/>
<polygon fill="midnightblue" stroke="midnightblue" points="99.0218,-88.6844 104.425,-79.5707 94.5176,-83.326 99.0218,-88.6844"/>
</g>
<!-- Node4 -->
<g id="node7" class="node"><title>Node4</title>
<polygon fill="white" stroke="#bfbfbf" points="26.5,-58.5 26.5,-79.5 69.5,-79.5 69.5,-58.5 26.5,-58.5"/>
<text text-anchor="middle" x="48" y="-66.5" font-family="Helvetica,sans-Serif" font-size="10.00">QIcon</text>
</g>
<!-- Node2&#45;&gt;Node4 -->
<g id="edge6" class="edge"><title>Node2&#45;&gt;Node4</title>
<path fill="none" stroke="midnightblue" d="M48,-116.362C48,-108.922 48,-98.7427 48,-89.7276"/>
<polygon fill="midnightblue" stroke="midnightblue" points="51.5001,-89.5706 48,-79.5707 44.5001,-89.5707 51.5001,-89.5706"/>
</g>
<!-- Node9&#45;&gt;Node3 -->
<g id="edge18" class="edge"><title>Node9&#45;&gt;Node3</title>
<path fill="none" stroke="midnightblue" d="M180.694,-116.362C169.149,-107.777 152.7,-95.5459 139.41,-85.6636"/>
<polygon fill="midnightblue" stroke="midnightblue" points="141.329,-82.7291 131.216,-79.5707 137.152,-88.3463 141.329,-82.7291"/>
</g>
<!-- Node10 -->
<g id="node20" class="node"><title>Node10</title>
<polygon fill="white" stroke="#bfbfbf" points="243,-58.5 243,-79.5 297,-79.5 297,-58.5 243,-58.5"/>
<text text-anchor="middle" x="270" y="-66.5" font-family="Helvetica,sans-Serif" font-size="10.00">QThread</text>
</g>
<!-- Node9&#45;&gt;Node10 -->
<g id="edge20" class="edge"><title>Node9&#45;&gt;Node10</title>
<path fill="none" stroke="midnightblue" d="M208.756,-116.362C219.751,-107.859 235.373,-95.7785 248.086,-85.9466"/>
<polygon fill="midnightblue" stroke="midnightblue" points="250.562,-88.4569 256.331,-79.5707 246.279,-82.9195 250.562,-88.4569"/>
</g>
<!-- Node11 -->
<g id="node22" class="node"><title>Node11</title>
<a xlink:href="../../d6/dd0/_u_b_8h.html" target="_top" xlink:title="core/UB.h">
<polygon fill="white" stroke="black" points="164.5,-58.5 164.5,-79.5 225.5,-79.5 225.5,-58.5 164.5,-58.5"/>
<text text-anchor="middle" x="195" y="-66.5" font-family="Helvetica,sans-Serif" font-size="10.00">core/UB.h</text>
</a>
</g>
<!-- Node9&#45;&gt;Node11 -->
<g id="edge22" class="edge"><title>Node9&#45;&gt;Node11</title>
<path fill="none" stroke="midnightblue" d="M195,-116.362C195,-108.922 195,-98.7427 195,-89.7276"/>
<polygon fill="midnightblue" stroke="midnightblue" points="198.5,-89.5706 195,-79.5707 191.5,-89.5707 198.5,-89.5706"/>
</g>
<!-- Node11&#45;&gt;Node5 -->
<g id="edge24" class="edge"><title>Node11&#45;&gt;Node5</title>
<path fill="none" stroke="midnightblue" d="M225.571,-58.6308C256.47,-48.1505 303.966,-32.0407 335.013,-21.5103"/>
<polygon fill="midnightblue" stroke="midnightblue" points="336.517,-24.6959 344.863,-18.1692 334.269,-18.0668 336.517,-24.6959"/>
</g>
</g>
</svg>
