<?xml version="1.0" encoding="UTF-8" standalone="no"?>
<!DOCTYPE svg PUBLIC "-//W3C//DTD SVG 1.1//EN"
 "http://www.w3.org/Graphics/SVG/1.1/DTD/svg11.dtd">
<!-- Generated by graphviz version 2.26.3 (20100126.1600)
 -->
<!-- Title: UBGraphicsW3CWidgetItem::textForSubElementByLocale Pages: 1 -->
<svg width="522pt" height="42pt"
 viewBox="0.00 0.00 522.00 42.00" xmlns="http://www.w3.org/2000/svg" xmlns:xlink="http://www.w3.org/1999/xlink">
<g id="graph1" class="graph" transform="scale(1 1) rotate(0) translate(4 38)">
<title>UBGraphicsW3CWidgetItem::textForSubElementByLocale</title>
<polygon fill="white" stroke="white" points="-4,5 -4,-38 519,-38 519,5 -4,5"/>
<!-- Node1 -->
<g id="node1" class="node"><title>Node1</title>
<polygon fill="#bfbfbf" stroke="black" points="0.5,-0 0.5,-34 147.5,-34 147.5,-0 0.5,-0"/>
<text text-anchor="start" x="8.5" y="-21" font-family="Helvetica,sans-Serif" font-size="10.00">UBGraphicsW3CWidgetItem</text>
<text text-anchor="middle" x="74" y="-8" font-family="Helvetica,sans-Serif" font-size="10.00">::textForSubElementByLocale</text>
</g>
<!-- Node2 -->
<g id="node3" class="node"><title>Node2</title>
<a xlink:href="../../d7/da7/class_u_b_graphics_w3_c_widget_item.html#ab2c66d142841ad2a1c0fa7cc0d068716" target="_top" xlink:title="UBGraphicsW3CWidgetItem\l::UBGraphicsW3CWidgetItem">
<polygon fill="white" stroke="black" points="184.5,-0 184.5,-34 333.5,-34 333.5,-0 184.5,-0"/>
<text text-anchor="start" x="192.5" y="-21" font-family="Helvetica,sans-Serif" font-size="10.00">UBGraphicsW3CWidgetItem</text>
<text text-anchor="middle" x="259" y="-8" font-family="Helvetica,sans-Serif" font-size="10.00">::UBGraphicsW3CWidgetItem</text>
</a>
</g>
<!-- Node1&#45;&gt;Node2 -->
<g id="edge2" class="edge"><title>Node1&#45;&gt;Node2</title>
<path fill="none" stroke="midnightblue" d="M157.65,-17C166.566,-17 175.593,-17 184.395,-17"/>
<polygon fill="midnightblue" stroke="midnightblue" points="157.649,-13.5001 147.648,-17 157.648,-20.5001 157.649,-13.5001"/>
</g>
<!-- Node3 -->
<g id="node5" class="node"><title>Node3</title>
<a xlink:href="../../d7/da7/class_u_b_graphics_w3_c_widget_item.html#acf920df1d2e797ea341429c76d75c3c7" target="_top" xlink:title="UBGraphicsW3CWidgetItem\l::deepCopy">
<polygon fill="white" stroke="black" points="370.5,-0 370.5,-34 513.5,-34 513.5,-0 370.5,-0"/>
<text text-anchor="start" x="378.5" y="-21" font-family="Helvetica,sans-Serif" font-size="10.00">UBGraphicsW3CWidgetItem</text>
<text text-anchor="middle" x="442" y="-8" font-family="Helvetica,sans-Serif" font-size="10.00">::deepCopy</text>
</a>
</g>
<!-- Node2&#45;&gt;Node3 -->
<g id="edge4" class="edge"><title>Node2&#45;&gt;Node3</title>
<path fill="none" stroke="midnightblue" d="M343.742,-17C352.689,-17 361.722,-17 370.497,-17"/>
<polygon fill="midnightblue" stroke="midnightblue" points="343.697,-13.5001 333.697,-17 343.697,-20.5001 343.697,-13.5001"/>
</g>
</g>
</svg>
