<?xml version="1.0" encoding="UTF-8" standalone="no"?>
<!DOCTYPE svg PUBLIC "-//W3C//DTD SVG 1.1//EN"
 "http://www.w3.org/Graphics/SVG/1.1/DTD/svg11.dtd">
<!-- Generated by graphviz version 2.26.3 (20100126.1600)
 -->
<!-- Title: UBCreateLinkPalette.cpp Pages: 1 -->
<!--zoomable 348 -->
<svg id="main" version="1.1" xmlns="http://www.w3.org/2000/svg" xmlns:xlink="http://www.w3.org/1999/xlink" xml:space="preserve" onload="init(evt)">
        <defs>
                <circle id="rim" cx="0" cy="0" r="7"/>
                <circle id="rim2" cx="0" cy="0" r="3.5"/>
                <g id="zoomPlus">
                        <use xlink:href="#rim" fill="#404040">
                                <set attributeName="fill" to="#808080" begin="zoomplus.mouseover" end="zoomplus.mouseout"/>
                        </use>
                        <path d="M-4,0h8M0,-4v8" fill="none" stroke="white" stroke-width="1.5" pointer-events="none"/>
                </g>
                <g id="zoomMin">
                        <use xlink:href="#rim" fill="#404040">
                                <set attributeName="fill" to="#808080" begin="zoomminus.mouseover" end="zoomminus.mouseout"/>
                        </use>
                        <path d="M-4,0h8" fill="none" stroke="white" stroke-width="1.5" pointer-events="none"/>
                </g>
                <g id="dirArrow">
                        <path fill="none" stroke="white" stroke-width="1.5" d="M0,-3.0v7 M-2.5,-0.5L0,-3.0L2.5,-0.5"/>
                </g>
               <g id="resetDef">
                       <use xlink:href="#rim2" fill="#404040">
                               <set attributeName="fill" to="#808080" begin="reset.mouseover" end="reset.mouseout"/>
                       </use>
               </g>
        </defs>

<script type="text/javascript">
var viewWidth = 2116;
var viewHeight = 348;
var sectionId = 'dynsection-0';
</script>
<script xlink:href="../../svgpan.js"/>
<svg id="graph" class="graph">
<g id="viewport">
<title>UBCreateLinkPalette.cpp</title>
<polygon fill="white" stroke="white" points="-4,5 -4,-344 2112.8,-344 2112.8,5 -4,5"/>
<!-- Node1 -->
<g id="node1" class="node"><title>Node1</title>
<polygon fill="#bfbfbf" stroke="black" points="841,-318.5 841,-339.5 969,-339.5 969,-318.5 841,-318.5"/>
<text text-anchor="middle" x="905" y="-326.5" font-family="Helvetica,sans-Serif" font-size="10.00">UBCreateLinkPalette.cpp</text>
</g>
<!-- Node2 -->
<g id="node3" class="node"><title>Node2</title>
<a xlink:href="../../d7/d9e/_u_b_create_link_palette_8h.html" target="_top" xlink:title="UBCreateLinkPalette.h">
<polygon fill="white" stroke="black" points="-0.5,-188.5 -0.5,-209.5 116.5,-209.5 116.5,-188.5 -0.5,-188.5"/>
<text text-anchor="middle" x="58" y="-196.5" font-family="Helvetica,sans-Serif" font-size="10.00">UBCreateLinkPalette.h</text>
</a>
</g>
<!-- Node1&#45;&gt;Node2 -->
<g id="edge2" class="edge"><title>Node1&#45;&gt;Node2</title>
<path fill="none" stroke="midnightblue" d="M840.738,-327.946C666.329,-324.687 192.933,-313.055 130,-282 102.068,-268.217 80.4769,-238.25 68.5008,-218.352"/>
<polygon fill="midnightblue" stroke="midnightblue" points="71.4313,-216.427 63.4083,-209.508 65.365,-219.92 71.4313,-216.427"/>
</g>
<!-- Node8 -->
<g id="node15" class="node"><title>Node8</title>
<polygon fill="white" stroke="#bfbfbf" points="504.5,-0.5 504.5,-21.5 581.5,-21.5 581.5,-0.5 504.5,-0.5"/>
<text text-anchor="middle" x="543" y="-8.5" font-family="Helvetica,sans-Serif" font-size="10.00">QVBoxLayout</text>
</g>
<!-- Node1&#45;&gt;Node8 -->
<g id="edge14" class="edge"><title>Node1&#45;&gt;Node8</title>
<path fill="none" stroke="midnightblue" d="M840.938,-326.716C668.141,-320.309 203.655,-301.37 177,-282 144.886,-258.663 144,-238.698 144,-199 144,-199 144,-199 144,-134 144,-94.0494 158.372,-79.5686 192,-58 216.978,-41.9796 403.905,-23.3923 494.311,-15.2209"/>
<polygon fill="midnightblue" stroke="midnightblue" points="494.672,-18.7027 504.319,-14.3233 494.046,-11.7307 494.672,-18.7027"/>
</g>
<!-- Node9 -->
<g id="node17" class="node"><title>Node9</title>
<polygon fill="white" stroke="#bfbfbf" points="633.5,-0.5 633.5,-21.5 724.5,-21.5 724.5,-0.5 633.5,-0.5"/>
<text text-anchor="middle" x="679" y="-8.5" font-family="Helvetica,sans-Serif" font-size="10.00">QStackedWidget</text>
</g>
<!-- Node1&#45;&gt;Node9 -->
<g id="edge16" class="edge"><title>Node1&#45;&gt;Node9</title>
<path fill="none" stroke="midnightblue" d="M840.761,-326.776C671.6,-320.647 225.144,-302.594 201,-282 172.208,-257.442 182,-236.843 182,-199 182,-199 182,-199 182,-134 182,-96.2353 188.876,-79.388 220,-58 288.085,-11.2135 507.889,-31.0674 590,-22 600.782,-20.8094 612.287,-19.4521 623.323,-18.107"/>
<polygon fill="midnightblue" stroke="midnightblue" points="623.795,-21.5755 633.293,-16.8803 622.94,-14.6279 623.795,-21.5755"/>
</g>
<!-- Node10 -->
<g id="node19" class="node"><title>Node10</title>
<polygon fill="white" stroke="#bfbfbf" points="209.5,-253.5 209.5,-274.5 280.5,-274.5 280.5,-253.5 209.5,-253.5"/>
<text text-anchor="middle" x="245" y="-261.5" font-family="Helvetica,sans-Serif" font-size="10.00">QToolButton</text>
</g>
<!-- Node1&#45;&gt;Node10 -->
<g id="edge18" class="edge"><title>Node1&#45;&gt;Node10</title>
<path fill="none" stroke="midnightblue" d="M840.97,-326.307C706.137,-320.27 396.914,-304.41 294,-282 289.163,-280.947 284.159,-279.523 279.28,-277.936"/>
<polygon fill="midnightblue" stroke="midnightblue" points="280.128,-274.524 269.533,-274.513 277.808,-281.129 280.128,-274.524"/>
</g>
<!-- Node11 -->
<g id="node21" class="node"><title>Node11</title>
<polygon fill="white" stroke="#bfbfbf" points="801.5,-0.5 801.5,-21.5 876.5,-21.5 876.5,-0.5 801.5,-0.5"/>
<text text-anchor="middle" x="839" y="-8.5" font-family="Helvetica,sans-Serif" font-size="10.00">QPushButton</text>
</g>
<!-- Node1&#45;&gt;Node11 -->
<g id="edge20" class="edge"><title>Node1&#45;&gt;Node11</title>
<path fill="none" stroke="midnightblue" d="M840.672,-325.187C641.283,-311.227 57.6304,-253.068 239,-58 276.474,-17.6954 678.179,-26.8409 733,-22 752.038,-20.3189 772.972,-18.2034 791.171,-16.2778"/>
<polygon fill="midnightblue" stroke="midnightblue" points="791.68,-19.7434 801.252,-15.2012 790.937,-12.783 791.68,-19.7434"/>
</g>
<!-- Node12 -->
<g id="node23" class="node"><title>Node12</title>
<polygon fill="white" stroke="#bfbfbf" points="1114.5,-0.5 1114.5,-21.5 1173.5,-21.5 1173.5,-0.5 1114.5,-0.5"/>
<text text-anchor="middle" x="1144" y="-8.5" font-family="Helvetica,sans-Serif" font-size="10.00">QLineEdit</text>
</g>
<!-- Node1&#45;&gt;Node12 -->
<g id="edge22" class="edge"><title>Node1&#45;&gt;Node12</title>
<path fill="none" stroke="midnightblue" d="M969.056,-323.622C1028.71,-317.288 1111.82,-304.64 1135,-282 1162.07,-255.557 1154,-236.843 1154,-199 1154,-199 1154,-199 1154,-134 1154,-97.9338 1149.68,-56.1141 1146.71,-31.7029"/>
<polygon fill="midnightblue" stroke="midnightblue" points="1150.15,-30.992 1145.43,-21.5067 1143.21,-31.8652 1150.15,-30.992"/>
</g>
<!-- Node13 -->
<g id="node25" class="node"><title>Node13</title>
<polygon fill="white" stroke="#bfbfbf" points="701.5,-253.5 701.5,-274.5 756.5,-274.5 756.5,-253.5 701.5,-253.5"/>
<text text-anchor="middle" x="729" y="-261.5" font-family="Helvetica,sans-Serif" font-size="10.00">QPainter</text>
</g>
<!-- Node1&#45;&gt;Node13 -->
<g id="edge24" class="edge"><title>Node1&#45;&gt;Node13</title>
<path fill="none" stroke="midnightblue" d="M869.108,-318.469C840.521,-309.72 799.686,-296.411 765,-282 762.768,-281.073 760.481,-280.067 758.196,-279.022"/>
<polygon fill="midnightblue" stroke="midnightblue" points="759.483,-275.757 748.952,-274.596 756.46,-282.071 759.483,-275.757"/>
</g>
<!-- Node14 -->
<g id="node27" class="node"><title>Node14</title>
<polygon fill="white" stroke="#bfbfbf" points="773.5,-253.5 773.5,-274.5 852.5,-274.5 852.5,-253.5 773.5,-253.5"/>
<text text-anchor="middle" x="813" y="-261.5" font-family="Helvetica,sans-Serif" font-size="10.00">QMouseEvent</text>
</g>
<!-- Node1&#45;&gt;Node14 -->
<g id="edge26" class="edge"><title>Node1&#45;&gt;Node14</title>
<path fill="none" stroke="midnightblue" d="M889.808,-318.267C875.205,-307.949 852.937,-292.216 836.13,-280.342"/>
<polygon fill="midnightblue" stroke="midnightblue" points="838.096,-277.446 827.909,-274.534 834.057,-283.163 838.096,-277.446"/>
</g>
<!-- Node15 -->
<g id="node29" class="node"><title>Node15</title>
<polygon fill="white" stroke="#bfbfbf" points="870,-253.5 870,-274.5 940,-274.5 940,-253.5 870,-253.5"/>
<text text-anchor="middle" x="905" y="-261.5" font-family="Helvetica,sans-Serif" font-size="10.00">QCheckBox</text>
</g>
<!-- Node1&#45;&gt;Node15 -->
<g id="edge28" class="edge"><title>Node1&#45;&gt;Node15</title>
<path fill="none" stroke="midnightblue" d="M905,-318.267C905,-309.18 905,-295.892 905,-284.74"/>
<polygon fill="midnightblue" stroke="midnightblue" points="908.5,-284.534 905,-274.534 901.5,-284.534 908.5,-284.534"/>
</g>
<!-- Node16 -->
<g id="node31" class="node"><title>Node16</title>
<polygon fill="white" stroke="#bfbfbf" points="957.5,-253.5 957.5,-274.5 1036.5,-274.5 1036.5,-253.5 957.5,-253.5"/>
<text text-anchor="middle" x="997" y="-261.5" font-family="Helvetica,sans-Serif" font-size="10.00">QButtonGroup</text>
</g>
<!-- Node1&#45;&gt;Node16 -->
<g id="edge30" class="edge"><title>Node1&#45;&gt;Node16</title>
<path fill="none" stroke="midnightblue" d="M920.192,-318.267C934.795,-307.949 957.063,-292.216 973.87,-280.342"/>
<polygon fill="midnightblue" stroke="midnightblue" points="975.943,-283.163 982.091,-274.534 971.904,-277.446 975.943,-283.163"/>
</g>
<!-- Node17 -->
<g id="node33" class="node"><title>Node17</title>
<polygon fill="white" stroke="#bfbfbf" points="1053.5,-253.5 1053.5,-274.5 1126.5,-274.5 1126.5,-253.5 1053.5,-253.5"/>
<text text-anchor="middle" x="1090" y="-261.5" font-family="Helvetica,sans-Serif" font-size="10.00">QComboBox</text>
</g>
<!-- Node1&#45;&gt;Node17 -->
<g id="edge32" class="edge"><title>Node1&#45;&gt;Node17</title>
<path fill="none" stroke="midnightblue" d="M938.28,-318.414C966.763,-309.215 1008.78,-295.311 1045,-282 1048.26,-280.803 1051.63,-279.524 1055.01,-278.221"/>
<polygon fill="midnightblue" stroke="midnightblue" points="1056.37,-281.446 1064.4,-274.533 1053.81,-274.931 1056.37,-281.446"/>
</g>
<!-- Node18 -->
<g id="node35" class="node"><title>Node18</title>
<a xlink:href="../../db/d54/_u_b_application_8h.html" target="_top" xlink:title="core/UBApplication.h">
<polygon fill="white" stroke="black" points="1506.5,-188.5 1506.5,-209.5 1615.5,-209.5 1615.5,-188.5 1506.5,-188.5"/>
<text text-anchor="middle" x="1561" y="-196.5" font-family="Helvetica,sans-Serif" font-size="10.00">core/UBApplication.h</text>
</a>
</g>
<!-- Node1&#45;&gt;Node18 -->
<g id="edge34" class="edge"><title>Node1&#45;&gt;Node18</title>
<path fill="none" stroke="midnightblue" d="M969.019,-326.364C1086.28,-320.99 1330.94,-307.106 1412,-282 1460.24,-267.06 1510.33,-235.19 1538.4,-215.578"/>
<polygon fill="midnightblue" stroke="midnightblue" points="1540.58,-218.321 1546.71,-209.678 1536.53,-212.614 1540.58,-218.321"/>
</g>
<!-- Node29 -->
<g id="node63" class="node"><title>Node29</title>
<a xlink:href="../../d6/d34/_u_b_download_manager_8h.html" target="_top" xlink:title="core/UBDownloadManager.h">
<polygon fill="white" stroke="black" points="683,-188.5 683,-209.5 825,-209.5 825,-188.5 683,-188.5"/>
<text text-anchor="middle" x="754" y="-196.5" font-family="Helvetica,sans-Serif" font-size="10.00">core/UBDownloadManager.h</text>
</a>
</g>
<!-- Node1&#45;&gt;Node29 -->
<g id="edge68" class="edge"><title>Node1&#45;&gt;Node29</title>
<path fill="none" stroke="midnightblue" d="M840.849,-323.496C785.386,-317.249 711.317,-304.823 693,-282 682.985,-269.522 685.938,-260.357 693,-246 699.395,-232.999 711.308,-222.582 722.921,-214.892"/>
<polygon fill="midnightblue" stroke="midnightblue" points="724.948,-217.755 731.646,-209.545 721.291,-211.786 724.948,-217.755"/>
</g>
<!-- Node41 -->
<g id="node90" class="node"><title>Node41</title>
<a xlink:href="../../de/d00/_u_b_document_controller_8h.html" target="_top" xlink:title="document/UBDocumentController.h">
<polygon fill="white" stroke="black" points="1190,-253.5 1190,-274.5 1362,-274.5 1362,-253.5 1190,-253.5"/>
<text text-anchor="middle" x="1276" y="-261.5" font-family="Helvetica,sans-Serif" font-size="10.00">document/UBDocumentController.h</text>
</a>
</g>
<!-- Node1&#45;&gt;Node41 -->
<g id="edge98" class="edge"><title>Node1&#45;&gt;Node41</title>
<path fill="none" stroke="midnightblue" d="M965.02,-318.484C1030.89,-306.943 1136.51,-288.44 1206.07,-276.251"/>
<polygon fill="midnightblue" stroke="midnightblue" points="1206.82,-279.674 1216.07,-274.501 1205.61,-272.779 1206.82,-279.674"/>
</g>
<!-- Node46 -->
<g id="node107" class="node"><title>Node46</title>
<a xlink:href="../../dd/ddb/_u_b_board_controller_8h.html" target="_top" xlink:title="board/UBBoardController.h">
<polygon fill="white" stroke="black" points="1924,-188.5 1924,-209.5 2058,-209.5 2058,-188.5 1924,-188.5"/>
<text text-anchor="middle" x="1991" y="-196.5" font-family="Helvetica,sans-Serif" font-size="10.00">board/UBBoardController.h</text>
</a>
</g>
<!-- Node1&#45;&gt;Node46 -->
<g id="edge122" class="edge"><title>Node1&#45;&gt;Node46</title>
<path fill="none" stroke="midnightblue" d="M969.296,-328.378C1175.15,-326.052 1809.52,-316.16 1895,-282 1929.01,-268.408 1959.34,-237.465 1976.42,-217.44"/>
<polygon fill="midnightblue" stroke="midnightblue" points="1979.22,-219.544 1982.9,-209.608 1973.83,-215.08 1979.22,-219.544"/>
</g>
<!-- Node47 -->
<g id="node112" class="node"><title>Node47</title>
<a xlink:href="../../d1/d45/_u_b_graphics_item_action_8h.html" target="_top" xlink:title="customWidgets/UBGraphics\lItemAction.h">
<polygon fill="white" stroke="black" points="1745.5,-247 1745.5,-281 1886.5,-281 1886.5,-247 1745.5,-247"/>
<text text-anchor="start" x="1753.5" y="-268" font-family="Helvetica,sans-Serif" font-size="10.00">customWidgets/UBGraphics</text>
<text text-anchor="middle" x="1816" y="-255" font-family="Helvetica,sans-Serif" font-size="10.00">ItemAction.h</text>
</a>
</g>
<!-- Node1&#45;&gt;Node47 -->
<g id="edge130" class="edge"><title>Node1&#45;&gt;Node47</title>
<path fill="none" stroke="midnightblue" d="M969.06,-324.429C1130.96,-312.878 1556.31,-282.529 1735.06,-269.775"/>
<polygon fill="midnightblue" stroke="midnightblue" points="1735.46,-273.256 1745.18,-269.053 1734.96,-266.273 1735.46,-273.256"/>
</g>
<!-- Node49 -->
<g id="node117" class="node"><title>Node49</title>
<a xlink:href="../../d2/db5/_u_b_file_system_utils_8h.html" target="_top" xlink:title="frameworks/UBFileSystemUtils.h">
<polygon fill="white" stroke="black" points="1313.5,-123.5 1313.5,-144.5 1476.5,-144.5 1476.5,-123.5 1313.5,-123.5"/>
<text text-anchor="middle" x="1395" y="-131.5" font-family="Helvetica,sans-Serif" font-size="10.00">frameworks/UBFileSystemUtils.h</text>
</a>
</g>
<!-- Node1&#45;&gt;Node49 -->
<g id="edge136" class="edge"><title>Node1&#45;&gt;Node49</title>
<path fill="none" stroke="midnightblue" d="M969.175,-326.804C1090.13,-322.052 1342.32,-308.999 1371,-282 1405.92,-249.119 1403.01,-186.89 1398.63,-154.601"/>
<polygon fill="midnightblue" stroke="midnightblue" points="1402.06,-153.877 1397.08,-144.525 1395.14,-154.941 1402.06,-153.877"/>
</g>
<!-- Node3 -->
<g id="node5" class="node"><title>Node3</title>
<polygon fill="white" stroke="#bfbfbf" points="35.5,-123.5 35.5,-144.5 78.5,-144.5 78.5,-123.5 35.5,-123.5"/>
<text text-anchor="middle" x="57" y="-131.5" font-family="Helvetica,sans-Serif" font-size="10.00">QMap</text>
</g>
<!-- Node2&#45;&gt;Node3 -->
<g id="edge4" class="edge"><title>Node2&#45;&gt;Node3</title>
<path fill="none" stroke="midnightblue" d="M57.8349,-188.267C57.6951,-179.18 57.4906,-165.892 57.3191,-154.74"/>
<polygon fill="midnightblue" stroke="midnightblue" points="60.8156,-154.479 57.1621,-144.534 53.8164,-154.586 60.8156,-154.479"/>
</g>
<!-- Node4 -->
<g id="node7" class="node"><title>Node4</title>
<polygon fill="white" stroke="#bfbfbf" points="321.5,-0.5 321.5,-21.5 368.5,-21.5 368.5,-0.5 321.5,-0.5"/>
<text text-anchor="middle" x="345" y="-8.5" font-family="Helvetica,sans-Serif" font-size="10.00">QLabel</text>
</g>
<!-- Node2&#45;&gt;Node4 -->
<g id="edge6" class="edge"><title>Node2&#45;&gt;Node4</title>
<path fill="none" stroke="midnightblue" d="M65.0678,-188.395C71.1938,-179.012 80.1292,-164.852 87,-152 108.659,-111.485 94.2337,-86.8338 130,-58 157.608,-35.7435 258.219,-21.0523 311.449,-14.6569"/>
<polygon fill="midnightblue" stroke="midnightblue" points="311.902,-18.1278 321.427,-13.4886 311.088,-11.1753 311.902,-18.1278"/>
</g>
<!-- Node5 -->
<g id="node9" class="node"><title>Node5</title>
<a xlink:href="../../d5/d6f/_u_b_floating_palette_8h.html" target="_top" xlink:title="UBFloatingPalette.h">
<polygon fill="white" stroke="black" points="277,-123.5 277,-144.5 381,-144.5 381,-123.5 277,-123.5"/>
<text text-anchor="middle" x="329" y="-131.5" font-family="Helvetica,sans-Serif" font-size="10.00">UBFloatingPalette.h</text>
</a>
</g>
<!-- Node2&#45;&gt;Node5 -->
<g id="edge8" class="edge"><title>Node2&#45;&gt;Node5</title>
<path fill="none" stroke="midnightblue" d="M101.842,-188.484C149.17,-177.133 224.584,-159.044 275.401,-146.856"/>
<polygon fill="midnightblue" stroke="midnightblue" points="276.313,-150.236 285.221,-144.501 274.68,-143.429 276.313,-150.236"/>
</g>
<!-- Node6 -->
<g id="node11" class="node"><title>Node6</title>
<polygon fill="white" stroke="#bfbfbf" points="311.5,-58.5 311.5,-79.5 366.5,-79.5 366.5,-58.5 311.5,-58.5"/>
<text text-anchor="middle" x="339" y="-66.5" font-family="Helvetica,sans-Serif" font-size="10.00">QWidget</text>
</g>
<!-- Node5&#45;&gt;Node6 -->
<g id="edge10" class="edge"><title>Node5&#45;&gt;Node6</title>
<path fill="none" stroke="midnightblue" d="M330.651,-123.267C332.049,-114.18 334.094,-100.892 335.809,-89.7395"/>
<polygon fill="midnightblue" stroke="midnightblue" points="339.318,-89.9497 337.379,-79.5337 332.399,-88.8852 339.318,-89.9497"/>
</g>
<!-- Node7 -->
<g id="node13" class="node"><title>Node7</title>
<polygon fill="white" stroke="#bfbfbf" points="247.5,-58.5 247.5,-79.5 294.5,-79.5 294.5,-58.5 247.5,-58.5"/>
<text text-anchor="middle" x="271" y="-66.5" font-family="Helvetica,sans-Serif" font-size="10.00">QPoint</text>
</g>
<!-- Node5&#45;&gt;Node7 -->
<g id="edge12" class="edge"><title>Node5&#45;&gt;Node7</title>
<path fill="none" stroke="midnightblue" d="M319.422,-123.267C310.639,-113.423 297.455,-98.6481 287.061,-86.9996"/>
<polygon fill="midnightblue" stroke="midnightblue" points="289.669,-84.6649 280.399,-79.5337 284.446,-89.3254 289.669,-84.6649"/>
</g>
<!-- Node19 -->
<g id="node37" class="node"><title>Node19</title>
<polygon fill="white" stroke="#bfbfbf" points="1606,-0.5 1606,-21.5 1648,-21.5 1648,-0.5 1606,-0.5"/>
<text text-anchor="middle" x="1627" y="-8.5" font-family="Helvetica,sans-Serif" font-size="10.00">QtGui</text>
</g>
<!-- Node18&#45;&gt;Node19 -->
<g id="edge36" class="edge"><title>Node18&#45;&gt;Node19</title>
<path fill="none" stroke="midnightblue" d="M1615.73,-188.535C1684.2,-175.382 1793.02,-154.241 1797,-152 1834.83,-130.705 1847.26,-120.457 1863,-80 1866.54,-70.8874 1869.2,-65.559 1863,-58 1837.43,-26.8353 1716.29,-15.9479 1658.21,-12.4764"/>
<polygon fill="midnightblue" stroke="midnightblue" points="1658.31,-8.9769 1648.13,-11.9112 1657.92,-15.9659 1658.31,-8.9769"/>
</g>
<!-- Node20 -->
<g id="node39" class="node"><title>Node20</title>
<polygon fill="white" stroke="#bfbfbf" points="1683.5,-123.5 1683.5,-144.5 1788.5,-144.5 1788.5,-123.5 1683.5,-123.5"/>
<text text-anchor="middle" x="1736" y="-131.5" font-family="Helvetica,sans-Serif" font-size="10.00">qtsingleapplication.h</text>
</g>
<!-- Node18&#45;&gt;Node20 -->
<g id="edge38" class="edge"><title>Node18&#45;&gt;Node20</title>
<path fill="none" stroke="midnightblue" d="M1589.51,-188.412C1619,-177.458 1665.23,-160.288 1697.85,-148.17"/>
<polygon fill="midnightblue" stroke="midnightblue" points="1699.35,-151.346 1707.51,-144.584 1696.91,-144.784 1699.35,-151.346"/>
</g>
<!-- Node21 -->
<g id="node41" class="node"><title>Node21</title>
<a xlink:href="../../d1/d9d/_uniboard_sankore_transition_8h.html" target="_top" xlink:title="transition/UniboardSankore\lTransition.h">
<polygon fill="white" stroke="black" points="1494,-117 1494,-151 1628,-151 1628,-117 1494,-117"/>
<text text-anchor="start" x="1502" y="-138" font-family="Helvetica,sans-Serif" font-size="10.00">transition/UniboardSankore</text>
<text text-anchor="middle" x="1561" y="-125" font-family="Helvetica,sans-Serif" font-size="10.00">Transition.h</text>
</a>
</g>
<!-- Node18&#45;&gt;Node21 -->
<g id="edge40" class="edge"><title>Node18&#45;&gt;Node21</title>
<path fill="none" stroke="midnightblue" d="M1561,-188.267C1561,-180.931 1561,-170.857 1561,-161.38"/>
<polygon fill="midnightblue" stroke="midnightblue" points="1564.5,-161.11 1561,-151.11 1557.5,-161.11 1564.5,-161.11"/>
</g>
<!-- Node22 -->
<g id="node43" class="node"><title>Node22</title>
<polygon fill="white" stroke="#bfbfbf" points="1629.5,-58.5 1629.5,-79.5 1682.5,-79.5 1682.5,-58.5 1629.5,-58.5"/>
<text text-anchor="middle" x="1656" y="-66.5" font-family="Helvetica,sans-Serif" font-size="10.00">QObject</text>
</g>
<!-- Node21&#45;&gt;Node22 -->
<g id="edge42" class="edge"><title>Node21&#45;&gt;Node22</title>
<path fill="none" stroke="midnightblue" d="M1585.96,-116.922C1600.12,-107.233 1617.76,-95.1645 1631.79,-85.5623"/>
<polygon fill="midnightblue" stroke="midnightblue" points="1634.15,-88.1938 1640.42,-79.6584 1630.19,-82.4167 1634.15,-88.1938"/>
</g>
<!-- Node23 -->
<g id="node45" class="node"><title>Node23</title>
<polygon fill="white" stroke="#bfbfbf" points="1533,-58.5 1533,-79.5 1589,-79.5 1589,-58.5 1533,-58.5"/>
<text text-anchor="middle" x="1561" y="-66.5" font-family="Helvetica,sans-Serif" font-size="10.00">QFileInfo</text>
</g>
<!-- Node21&#45;&gt;Node23 -->
<g id="edge44" class="edge"><title>Node21&#45;&gt;Node23</title>
<path fill="none" stroke="midnightblue" d="M1561,-116.922C1561,-108.67 1561,-98.6922 1561,-89.9818"/>
<polygon fill="midnightblue" stroke="midnightblue" points="1564.5,-89.8521 1561,-79.8521 1557.5,-89.8521 1564.5,-89.8521"/>
</g>
<!-- Node24 -->
<g id="node47" class="node"><title>Node24</title>
<polygon fill="white" stroke="#bfbfbf" points="1368,-58.5 1368,-79.5 1422,-79.5 1422,-58.5 1368,-58.5"/>
<text text-anchor="middle" x="1395" y="-66.5" font-family="Helvetica,sans-Serif" font-size="10.00">QThread</text>
</g>
<!-- Node21&#45;&gt;Node24 -->
<g id="edge46" class="edge"><title>Node21&#45;&gt;Node24</title>
<path fill="none" stroke="midnightblue" d="M1517.39,-116.922C1490.76,-106.495 1457.09,-93.3116 1431.81,-83.4127"/>
<polygon fill="midnightblue" stroke="midnightblue" points="1432.81,-80.0455 1422.22,-79.6584 1430.26,-86.5636 1432.81,-80.0455"/>
</g>
<!-- Node25 -->
<g id="node49" class="node"><title>Node25</title>
<a xlink:href="../../db/dc7/_u_b_update_dlg_8h.html" target="_top" xlink:title="gui/UBUpdateDlg.h">
<polygon fill="white" stroke="red" points="987.5,-58.5 987.5,-79.5 1088.5,-79.5 1088.5,-58.5 987.5,-58.5"/>
<text text-anchor="middle" x="1038" y="-66.5" font-family="Helvetica,sans-Serif" font-size="10.00">gui/UBUpdateDlg.h</text>
</a>
</g>
<!-- Node21&#45;&gt;Node25 -->
<g id="edge48" class="edge"><title>Node21&#45;&gt;Node25</title>
<path fill="none" stroke="midnightblue" d="M1493.96,-117.631C1490.94,-117.048 1487.94,-116.501 1485,-116 1347.88,-92.6515 1184.99,-79.0308 1098.7,-72.9112"/>
<polygon fill="midnightblue" stroke="midnightblue" points="1098.78,-69.4086 1088.56,-72.202 1098.29,-76.3915 1098.78,-69.4086"/>
</g>
<!-- Node28 -->
<g id="node60" class="node"><title>Node28</title>
<a xlink:href="../../db/dea/_u_b_document_proxy_8h.html" target="_top" xlink:title="document/UBDocumentProxy.h">
<polygon fill="white" stroke="red" points="1699.5,-58.5 1699.5,-79.5 1854.5,-79.5 1854.5,-58.5 1699.5,-58.5"/>
<text text-anchor="middle" x="1777" y="-66.5" font-family="Helvetica,sans-Serif" font-size="10.00">document/UBDocumentProxy.h</text>
</a>
</g>
<!-- Node21&#45;&gt;Node28 -->
<g id="edge64" class="edge"><title>Node21&#45;&gt;Node28</title>
<path fill="none" stroke="midnightblue" d="M1617.75,-116.922C1653.43,-106.184 1698.83,-92.523 1732.02,-82.5361"/>
<polygon fill="midnightblue" stroke="midnightblue" points="1733.33,-85.7952 1741.9,-79.562 1731.32,-79.0921 1733.33,-85.7952"/>
</g>
<!-- Node25&#45;&gt;Node4 -->
<g id="edge52" class="edge"><title>Node25&#45;&gt;Node4</title>
<path fill="none" stroke="midnightblue" d="M987.208,-59.1623C984.436,-58.7405 981.687,-58.3489 979,-58 971.481,-57.0234 509.414,-23.07 378.959,-13.4924"/>
<polygon fill="midnightblue" stroke="midnightblue" points="378.99,-9.98532 368.761,-12.7437 378.478,-16.9665 378.99,-9.98532"/>
</g>
<!-- Node25&#45;&gt;Node8 -->
<g id="edge60" class="edge"><title>Node25&#45;&gt;Node8</title>
<path fill="none" stroke="midnightblue" d="M987.196,-59.2512C984.427,-58.8064 981.681,-58.3856 979,-58 822.466,-35.488 782.057,-40.5155 625,-22 614.298,-20.7383 602.826,-19.2714 591.955,-17.828"/>
<polygon fill="midnightblue" stroke="midnightblue" points="592.137,-14.3211 581.761,-16.4586 591.206,-21.2588 592.137,-14.3211"/>
</g>
<!-- Node25&#45;&gt;Node9 -->
<g id="edge62" class="edge"><title>Node25&#45;&gt;Node9</title>
<path fill="none" stroke="midnightblue" d="M987.487,-59.4829C984.617,-58.9732 981.773,-58.4756 979,-58 893.902,-43.4043 794.904,-28.2477 734.619,-19.2216"/>
<polygon fill="midnightblue" stroke="midnightblue" points="734.962,-15.7342 724.555,-17.7179 733.928,-22.6573 734.962,-15.7342"/>
</g>
<!-- Node25&#45;&gt;Node11 -->
<g id="edge54" class="edge"><title>Node25&#45;&gt;Node11</title>
<path fill="none" stroke="midnightblue" d="M1001.96,-58.4966C969.099,-48.9183 920.383,-34.7196 884.776,-24.3418"/>
<polygon fill="midnightblue" stroke="midnightblue" points="885.685,-20.9611 875.105,-21.5231 883.726,-27.6815 885.685,-20.9611"/>
</g>
<!-- Node25&#45;&gt;Node12 -->
<g id="edge56" class="edge"><title>Node25&#45;&gt;Node12</title>
<path fill="none" stroke="midnightblue" d="M1057.44,-58.3619C1073.8,-49.4094 1097.41,-36.4908 1115.84,-26.4064"/>
<polygon fill="midnightblue" stroke="midnightblue" points="1117.59,-29.4412 1124.68,-21.5707 1114.23,-23.3004 1117.59,-29.4412"/>
</g>
<!-- Node26 -->
<g id="node51" class="node"><title>Node26</title>
<polygon fill="white" stroke="#bfbfbf" points="924,-0.5 924,-21.5 976,-21.5 976,-0.5 924,-0.5"/>
<text text-anchor="middle" x="950" y="-8.5" font-family="Helvetica,sans-Serif" font-size="10.00">QDialog</text>
</g>
<!-- Node25&#45;&gt;Node26 -->
<g id="edge50" class="edge"><title>Node25&#45;&gt;Node26</title>
<path fill="none" stroke="midnightblue" d="M1021.86,-58.3619C1008.59,-49.6138 989.568,-37.0786 974.43,-27.1015"/>
<polygon fill="midnightblue" stroke="midnightblue" points="976.314,-24.1515 966.038,-21.5707 972.462,-29.9962 976.314,-24.1515"/>
</g>
<!-- Node27 -->
<g id="node56" class="node"><title>Node27</title>
<polygon fill="white" stroke="#bfbfbf" points="994,-0.5 994,-21.5 1092,-21.5 1092,-0.5 994,-0.5"/>
<text text-anchor="middle" x="1043" y="-8.5" font-family="Helvetica,sans-Serif" font-size="10.00">QDialogButtonBox</text>
</g>
<!-- Node25&#45;&gt;Node27 -->
<g id="edge58" class="edge"><title>Node25&#45;&gt;Node27</title>
<path fill="none" stroke="midnightblue" d="M1038.92,-58.3619C1039.56,-50.9219 1040.44,-40.7427 1041.21,-31.7276"/>
<polygon fill="midnightblue" stroke="midnightblue" points="1044.72,-31.8343 1042.09,-21.5707 1037.74,-31.2331 1044.72,-31.8343"/>
</g>
<!-- Node28&#45;&gt;Node19 -->
<g id="edge66" class="edge"><title>Node28&#45;&gt;Node19</title>
<path fill="none" stroke="midnightblue" d="M1749.84,-58.4966C1723.82,-48.437 1684.62,-33.2811 1657.54,-22.8075"/>
<polygon fill="midnightblue" stroke="midnightblue" points="1658.74,-19.5209 1648.15,-19.1788 1656.22,-26.0498 1658.74,-19.5209"/>
</g>
<!-- Node29&#45;&gt;Node22 -->
<g id="edge70" class="edge"><title>Node29&#45;&gt;Node22</title>
<path fill="none" stroke="midnightblue" d="M825.2,-197.53C1029.68,-193.004 1606.11,-177.991 1637,-152 1654.78,-137.043 1657.89,-109.171 1657.64,-89.8765"/>
<polygon fill="midnightblue" stroke="midnightblue" points="1661.13,-89.507 1657.19,-79.6703 1654.13,-89.8143 1661.13,-89.507"/>
</g>
<!-- Node30 -->
<g id="node66" class="node"><title>Node30</title>
<polygon fill="white" stroke="#bfbfbf" points="1076,-123.5 1076,-144.5 1126,-144.5 1126,-123.5 1076,-123.5"/>
<text text-anchor="middle" x="1101" y="-131.5" font-family="Helvetica,sans-Serif" font-size="10.00">QString</text>
</g>
<!-- Node29&#45;&gt;Node30 -->
<g id="edge72" class="edge"><title>Node29&#45;&gt;Node30</title>
<path fill="none" stroke="midnightblue" d="M825.276,-193.835C888.515,-187.914 982.871,-175.778 1062,-152 1065.14,-151.056 1068.36,-149.904 1071.53,-148.645"/>
<polygon fill="midnightblue" stroke="midnightblue" points="1072.99,-151.825 1080.78,-144.641 1070.21,-145.401 1072.99,-151.825"/>
</g>
<!-- Node31 -->
<g id="node68" class="node"><title>Node31</title>
<polygon fill="white" stroke="#bfbfbf" points="560.5,-123.5 560.5,-144.5 613.5,-144.5 613.5,-123.5 560.5,-123.5"/>
<text text-anchor="middle" x="587" y="-131.5" font-family="Helvetica,sans-Serif" font-size="10.00">QVector</text>
</g>
<!-- Node29&#45;&gt;Node31 -->
<g id="edge74" class="edge"><title>Node29&#45;&gt;Node31</title>
<path fill="none" stroke="midnightblue" d="M720.435,-188.42C693.469,-179.594 654.816,-166.206 622,-152 619.911,-151.096 617.773,-150.122 615.634,-149.112"/>
<polygon fill="midnightblue" stroke="midnightblue" points="616.918,-145.843 606.401,-144.558 613.821,-152.121 616.918,-145.843"/>
</g>
<!-- Node32 -->
<g id="node70" class="node"><title>Node32</title>
<polygon fill="white" stroke="#bfbfbf" points="630.5,-123.5 630.5,-144.5 681.5,-144.5 681.5,-123.5 630.5,-123.5"/>
<text text-anchor="middle" x="656" y="-131.5" font-family="Helvetica,sans-Serif" font-size="10.00">QMutex</text>
</g>
<!-- Node29&#45;&gt;Node32 -->
<g id="edge76" class="edge"><title>Node29&#45;&gt;Node32</title>
<path fill="none" stroke="midnightblue" d="M737.817,-188.267C722.262,-177.949 698.541,-162.216 680.639,-150.342"/>
<polygon fill="midnightblue" stroke="midnightblue" points="682.15,-147.144 671.882,-144.534 678.281,-152.978 682.15,-147.144"/>
</g>
<!-- Node33 -->
<g id="node72" class="node"><title>Node33</title>
<polygon fill="white" stroke="#bfbfbf" points="383.5,-58.5 383.5,-79.5 454.5,-79.5 454.5,-58.5 383.5,-58.5"/>
<text text-anchor="middle" x="419" y="-66.5" font-family="Helvetica,sans-Serif" font-size="10.00">QDropEvent</text>
</g>
<!-- Node29&#45;&gt;Node33 -->
<g id="edge78" class="edge"><title>Node29&#45;&gt;Node33</title>
<path fill="none" stroke="midnightblue" d="M683.522,-188.486C643.887,-181.135 594.071,-169.454 552,-152 509.947,-134.553 466.064,-104.468 440.699,-85.711"/>
<polygon fill="midnightblue" stroke="midnightblue" points="442.632,-82.7865 432.532,-79.588 438.433,-88.3872 442.632,-82.7865"/>
</g>
<!-- Node34 -->
<g id="node74" class="node"><title>Node34</title>
<a xlink:href="../../d6/d9a/_u_b_download_thread_8h.html" target="_top" xlink:title="UBDownloadThread.h">
<polygon fill="white" stroke="black" points="826.5,-123.5 826.5,-144.5 939.5,-144.5 939.5,-123.5 826.5,-123.5"/>
<text text-anchor="middle" x="883" y="-131.5" font-family="Helvetica,sans-Serif" font-size="10.00">UBDownloadThread.h</text>
</a>
</g>
<!-- Node29&#45;&gt;Node34 -->
<g id="edge80" class="edge"><title>Node29&#45;&gt;Node34</title>
<path fill="none" stroke="midnightblue" d="M775.013,-188.412C796.19,-177.741 829.075,-161.172 852.993,-149.12"/>
<polygon fill="midnightblue" stroke="midnightblue" points="854.64,-152.209 861.996,-144.584 851.49,-145.958 854.64,-152.209"/>
</g>
<!-- Node38 -->
<g id="node83" class="node"><title>Node38</title>
<a xlink:href="../../d6/d2f/_u_b_http_get_8h.html" target="_top" xlink:title="network/UBHttpGet.h">
<polygon fill="white" stroke="black" points="698.5,-123.5 698.5,-144.5 809.5,-144.5 809.5,-123.5 698.5,-123.5"/>
<text text-anchor="middle" x="754" y="-131.5" font-family="Helvetica,sans-Serif" font-size="10.00">network/UBHttpGet.h</text>
</a>
</g>
<!-- Node29&#45;&gt;Node38 -->
<g id="edge90" class="edge"><title>Node29&#45;&gt;Node38</title>
<path fill="none" stroke="midnightblue" d="M754,-188.267C754,-179.18 754,-165.892 754,-154.74"/>
<polygon fill="midnightblue" stroke="midnightblue" points="757.5,-154.534 754,-144.534 750.5,-154.534 757.5,-154.534"/>
</g>
<!-- Node34&#45;&gt;Node24 -->
<g id="edge82" class="edge"><title>Node34&#45;&gt;Node24</title>
<path fill="none" stroke="midnightblue" d="M939.749,-126.796C1045.33,-113.392 1269.24,-84.965 1357.82,-73.7206"/>
<polygon fill="midnightblue" stroke="midnightblue" points="1358.45,-77.1683 1367.93,-72.4366 1357.57,-70.224 1358.45,-77.1683"/>
</g>
<!-- Node35 -->
<g id="node77" class="node"><title>Node35</title>
<polygon fill="white" stroke="#bfbfbf" points="657.5,-58.5 657.5,-79.5 788.5,-79.5 788.5,-58.5 657.5,-58.5"/>
<text text-anchor="middle" x="723" y="-66.5" font-family="Helvetica,sans-Serif" font-size="10.00">QNetworkAccessManager</text>
</g>
<!-- Node34&#45;&gt;Node35 -->
<g id="edge84" class="edge"><title>Node34&#45;&gt;Node35</title>
<path fill="none" stroke="midnightblue" d="M856.937,-123.412C830.206,-112.552 788.436,-95.5833 758.653,-83.4842"/>
<polygon fill="midnightblue" stroke="midnightblue" points="759.634,-80.1047 749.052,-79.5835 756.999,-86.59 759.634,-80.1047"/>
</g>
<!-- Node36 -->
<g id="node79" class="node"><title>Node36</title>
<polygon fill="white" stroke="#bfbfbf" points="872,-58.5 872,-79.5 970,-79.5 970,-58.5 872,-58.5"/>
<text text-anchor="middle" x="921" y="-66.5" font-family="Helvetica,sans-Serif" font-size="10.00">QNetworkRequest</text>
</g>
<!-- Node34&#45;&gt;Node36 -->
<g id="edge86" class="edge"><title>Node34&#45;&gt;Node36</title>
<path fill="none" stroke="midnightblue" d="M889.275,-123.267C894.808,-113.801 903.007,-99.7773 909.684,-88.3571"/>
<polygon fill="midnightblue" stroke="midnightblue" points="912.816,-89.9331 914.842,-79.5337 906.773,-86.4002 912.816,-89.9331"/>
</g>
<!-- Node37 -->
<g id="node81" class="node"><title>Node37</title>
<polygon fill="white" stroke="#bfbfbf" points="554,-58.5 554,-79.5 640,-79.5 640,-58.5 554,-58.5"/>
<text text-anchor="middle" x="597" y="-66.5" font-family="Helvetica,sans-Serif" font-size="10.00">QNetworkReply</text>
</g>
<!-- Node34&#45;&gt;Node37 -->
<g id="edge88" class="edge"><title>Node34&#45;&gt;Node37</title>
<path fill="none" stroke="midnightblue" d="M846.32,-123.424C837.103,-120.883 827.213,-118.253 818,-116 813.875,-114.991 714.135,-93.8259 650.072,-80.2455"/>
<polygon fill="midnightblue" stroke="midnightblue" points="650.625,-76.7851 640.117,-78.1353 649.174,-83.633 650.625,-76.7851"/>
</g>
<!-- Node38&#45;&gt;Node33 -->
<g id="edge96" class="edge"><title>Node38&#45;&gt;Node33</title>
<path fill="none" stroke="midnightblue" d="M719.31,-123.446C709.859,-120.79 699.583,-118.1 690,-116 593.336,-94.8177 564.857,-100.043 464.864,-80.2573"/>
<polygon fill="midnightblue" stroke="midnightblue" points="465.454,-76.8059 454.96,-78.2628 464.072,-83.6681 465.454,-76.8059"/>
</g>
<!-- Node39 -->
<g id="node85" class="node"><title>Node39</title>
<polygon fill="white" stroke="#bfbfbf" points="806,-58.5 806,-79.5 854,-79.5 854,-58.5 806,-58.5"/>
<text text-anchor="middle" x="830" y="-66.5" font-family="Helvetica,sans-Serif" font-size="10.00">QtCore</text>
</g>
<!-- Node38&#45;&gt;Node39 -->
<g id="edge92" class="edge"><title>Node38&#45;&gt;Node39</title>
<path fill="none" stroke="midnightblue" d="M766.55,-123.267C778.281,-113.233 796.001,-98.078 809.736,-86.3311"/>
<polygon fill="midnightblue" stroke="midnightblue" points="812.359,-88.6933 817.684,-79.5337 807.809,-83.3735 812.359,-88.6933"/>
</g>
<!-- Node40 -->
<g id="node87" class="node"><title>Node40</title>
<polygon fill="white" stroke="#bfbfbf" points="472,-58.5 472,-79.5 536,-79.5 536,-58.5 472,-58.5"/>
<text text-anchor="middle" x="504" y="-66.5" font-family="Helvetica,sans-Serif" font-size="10.00">QtNetwork</text>
</g>
<!-- Node38&#45;&gt;Node40 -->
<g id="edge94" class="edge"><title>Node38&#45;&gt;Node40</title>
<path fill="none" stroke="midnightblue" d="M717.164,-123.431C708.284,-120.941 698.815,-118.333 690,-116 628.819,-99.8056 610.945,-96.8615 546.128,-80.2562"/>
<polygon fill="midnightblue" stroke="midnightblue" points="546.771,-76.8075 536.214,-77.7039 545.026,-83.5865 546.771,-76.8075"/>
</g>
<!-- Node41&#45;&gt;Node18 -->
<g id="edge114" class="edge"><title>Node41&#45;&gt;Node18</title>
<path fill="none" stroke="midnightblue" d="M1322.11,-253.484C1371.98,-242.109 1451.52,-223.969 1504.97,-211.78"/>
<polygon fill="midnightblue" stroke="midnightblue" points="1505.99,-215.137 1514.96,-209.501 1504.43,-208.312 1505.99,-215.137"/>
</g>
<!-- Node41&#45;&gt;Node19 -->
<g id="edge100" class="edge"><title>Node41&#45;&gt;Node19</title>
<path fill="none" stroke="midnightblue" d="M1255.35,-253.398C1239.96,-244.227 1220.1,-229.39 1211,-210 1206.85,-201.148 1209.2,-197.61 1211,-188 1223.68,-120.39 1233.72,-89.2635 1295,-58 1347.28,-31.3251 1523.19,-17.5119 1595.53,-12.8489"/>
<polygon fill="midnightblue" stroke="midnightblue" points="1596.06,-16.3226 1605.82,-12.2026 1595.62,-9.33641 1596.06,-16.3226"/>
</g>
<!-- Node42 -->
<g id="node93" class="node"><title>Node42</title>
<a xlink:href="../../df/d8e/_u_b_document_container_8h.html" target="_top" xlink:title="document/UBDocumentContainer.h">
<polygon fill="white" stroke="black" points="1920,-123.5 1920,-144.5 2092,-144.5 2092,-123.5 1920,-123.5"/>
<text text-anchor="middle" x="2006" y="-131.5" font-family="Helvetica,sans-Serif" font-size="10.00">document/UBDocumentContainer.h</text>
</a>
</g>
<!-- Node41&#45;&gt;Node42 -->
<g id="edge102" class="edge"><title>Node41&#45;&gt;Node42</title>
<path fill="none" stroke="midnightblue" d="M1349.81,-253.475C1420.36,-243.196 1529.63,-226.702 1624,-210 1738.47,-189.741 1871.47,-162.418 1946.48,-146.655"/>
<polygon fill="midnightblue" stroke="midnightblue" points="1947.61,-149.994 1956.68,-144.509 1946.17,-143.144 1947.61,-149.994"/>
</g>
<!-- Node43 -->
<g id="node97" class="node"><title>Node43</title>
<a xlink:href="../../db/d86/_u_b_application_controller_8h.html" target="_top" xlink:title="core/UBApplicationController.h">
<polygon fill="white" stroke="black" points="1219.5,-188.5 1219.5,-209.5 1370.5,-209.5 1370.5,-188.5 1219.5,-188.5"/>
<text text-anchor="middle" x="1295" y="-196.5" font-family="Helvetica,sans-Serif" font-size="10.00">core/UBApplicationController.h</text>
</a>
</g>
<!-- Node41&#45;&gt;Node43 -->
<g id="edge108" class="edge"><title>Node41&#45;&gt;Node43</title>
<path fill="none" stroke="midnightblue" d="M1279.14,-253.267C1281.82,-244.085 1285.76,-230.615 1289.04,-219.392"/>
<polygon fill="midnightblue" stroke="midnightblue" points="1292.47,-220.114 1291.92,-209.534 1285.76,-218.15 1292.47,-220.114"/>
</g>
<!-- Node45 -->
<g id="node103" class="node"><title>Node45</title>
<a xlink:href="../../d2/df9/_u_b_message_window_8h.html" target="_top" xlink:title="gui/UBMessageWindow.h">
<polygon fill="white" stroke="black" points="535,-188.5 535,-209.5 665,-209.5 665,-188.5 535,-188.5"/>
<text text-anchor="middle" x="600" y="-196.5" font-family="Helvetica,sans-Serif" font-size="10.00">gui/UBMessageWindow.h</text>
</a>
</g>
<!-- Node41&#45;&gt;Node45 -->
<g id="edge116" class="edge"><title>Node41&#45;&gt;Node45</title>
<path fill="none" stroke="midnightblue" d="M1198.87,-253.46C1178.16,-250.819 1155.74,-248.133 1135,-246 933.859,-225.32 879.935,-232.868 675.504,-210.107"/>
<polygon fill="midnightblue" stroke="midnightblue" points="675.666,-206.604 665.338,-208.964 674.884,-213.56 675.666,-206.604"/>
</g>
<!-- Node42&#45;&gt;Node19 -->
<g id="edge104" class="edge"><title>Node42&#45;&gt;Node19</title>
<path fill="none" stroke="midnightblue" d="M1995.73,-123.402C1978.76,-106.576 1943.02,-74.0204 1906,-58 1861.79,-38.8685 1721.53,-21.4615 1658.37,-14.3683"/>
<polygon fill="midnightblue" stroke="midnightblue" points="1658.54,-10.8658 1648.21,-13.2424 1657.76,-17.8232 1658.54,-10.8658"/>
</g>
<!-- Node42&#45;&gt;Node28 -->
<g id="edge106" class="edge"><title>Node42&#45;&gt;Node28</title>
<path fill="none" stroke="midnightblue" d="M1968.95,-123.484C1929.38,-112.251 1866.56,-94.4205 1823.64,-82.2386"/>
<polygon fill="midnightblue" stroke="midnightblue" points="1824.57,-78.8641 1813.99,-79.5005 1822.66,-85.5981 1824.57,-78.8641"/>
</g>
<!-- Node43&#45;&gt;Node19 -->
<g id="edge110" class="edge"><title>Node43&#45;&gt;Node19</title>
<path fill="none" stroke="midnightblue" d="M1279.4,-188.271C1268.61,-179.831 1255.12,-167.012 1249,-152 1242.96,-137.185 1240.74,-129.7 1249,-116 1285.56,-55.3874 1511.95,-23.9809 1595.81,-14.3124"/>
<polygon fill="midnightblue" stroke="midnightblue" points="1596.21,-17.7889 1605.76,-13.1906 1595.43,-10.833 1596.21,-17.7889"/>
</g>
<!-- Node44 -->
<g id="node100" class="node"><title>Node44</title>
<polygon fill="white" stroke="#bfbfbf" points="1258,-123.5 1258,-144.5 1296,-144.5 1296,-123.5 1258,-123.5"/>
<text text-anchor="middle" x="1277" y="-131.5" font-family="Helvetica,sans-Serif" font-size="10.00">QFtp</text>
</g>
<!-- Node43&#45;&gt;Node44 -->
<g id="edge112" class="edge"><title>Node43&#45;&gt;Node44</title>
<path fill="none" stroke="midnightblue" d="M1292.03,-188.267C1289.49,-179.085 1285.75,-165.615 1282.65,-154.392"/>
<polygon fill="midnightblue" stroke="midnightblue" points="1285.96,-153.237 1279.92,-144.534 1279.21,-155.105 1285.96,-153.237"/>
</g>
<!-- Node45&#45;&gt;Node5 -->
<g id="edge120" class="edge"><title>Node45&#45;&gt;Node5</title>
<path fill="none" stroke="midnightblue" d="M556.158,-188.484C508.83,-177.133 433.416,-159.044 382.599,-146.856"/>
<polygon fill="midnightblue" stroke="midnightblue" points="383.32,-143.429 372.779,-144.501 381.687,-150.236 383.32,-143.429"/>
</g>
<!-- Node45&#45;&gt;Node19 -->
<g id="edge118" class="edge"><title>Node45&#45;&gt;Node19</title>
<path fill="none" stroke="midnightblue" d="M665.361,-189.223C668.28,-188.806 671.17,-188.396 674,-188 795.638,-170.97 829.282,-183.494 948,-152 1054.74,-123.684 1070.9,-84.9074 1178,-58 1257.54,-38.0172 1507.08,-19.2971 1595.53,-13.1288"/>
<polygon fill="midnightblue" stroke="midnightblue" points="1596,-16.6049 1605.73,-12.4233 1595.52,-9.62159 1596,-16.6049"/>
</g>
<!-- Node46&#45;&gt;Node19 -->
<g id="edge124" class="edge"><title>Node46&#45;&gt;Node19</title>
<path fill="none" stroke="midnightblue" d="M2047.55,-188.423C2067.93,-181.587 2088.87,-170.371 2101,-152 2109.82,-138.647 2110.24,-129.064 2101,-116 2049.17,-42.6996 1755.41,-18.6851 1658.22,-12.6871"/>
<polygon fill="midnightblue" stroke="midnightblue" points="1658.33,-9.18763 1648.14,-12.0868 1657.92,-16.1752 1658.33,-9.18763"/>
</g>
<!-- Node46&#45;&gt;Node22 -->
<g id="edge126" class="edge"><title>Node46&#45;&gt;Node22</title>
<path fill="none" stroke="midnightblue" d="M1973.73,-188.456C1944.87,-171.224 1884.64,-136.863 1830,-116 1773.29,-94.3497 1754.21,-97.2139 1692.55,-80.314"/>
<polygon fill="midnightblue" stroke="midnightblue" points="1693.28,-76.884 1682.71,-77.5491 1691.39,-83.6232 1693.28,-76.884"/>
</g>
<!-- Node46&#45;&gt;Node42 -->
<g id="edge128" class="edge"><title>Node46&#45;&gt;Node42</title>
<path fill="none" stroke="midnightblue" d="M1993.48,-188.267C1995.6,-179.085 1998.7,-165.615 2001.29,-154.392"/>
<polygon fill="midnightblue" stroke="midnightblue" points="2004.73,-155.065 2003.57,-144.534 1997.91,-153.491 2004.73,-155.065"/>
</g>
<!-- Node47&#45;&gt;Node22 -->
<g id="edge132" class="edge"><title>Node47&#45;&gt;Node22</title>
<path fill="none" stroke="midnightblue" d="M1819.17,-246.664C1823.64,-216.461 1828.1,-153.812 1797,-116 1795.26,-113.883 1733.66,-93.8551 1692.47,-80.6355"/>
<polygon fill="midnightblue" stroke="midnightblue" points="1693.33,-77.2365 1682.74,-77.5182 1691.19,-83.9027 1693.33,-77.2365"/>
</g>
<!-- Node48 -->
<g id="node115" class="node"><title>Node48</title>
<polygon fill="white" stroke="#bfbfbf" points="1844,-188.5 1844,-209.5 1892,-209.5 1892,-188.5 1844,-188.5"/>
<text text-anchor="middle" x="1868" y="-196.5" font-family="Helvetica,sans-Serif" font-size="10.00">phonon</text>
</g>
<!-- Node47&#45;&gt;Node48 -->
<g id="edge134" class="edge"><title>Node47&#45;&gt;Node48</title>
<path fill="none" stroke="midnightblue" d="M1829.66,-246.922C1836.85,-237.937 1845.68,-226.905 1853.05,-217.691"/>
<polygon fill="midnightblue" stroke="midnightblue" points="1855.8,-219.847 1859.32,-209.852 1850.34,-215.474 1855.8,-219.847"/>
</g>
<!-- Node49&#45;&gt;Node24 -->
<g id="edge140" class="edge"><title>Node49&#45;&gt;Node24</title>
<path fill="none" stroke="midnightblue" d="M1395,-123.267C1395,-114.18 1395,-100.892 1395,-89.7395"/>
<polygon fill="midnightblue" stroke="midnightblue" points="1398.5,-89.5337 1395,-79.5337 1391.5,-89.5337 1398.5,-89.5337"/>
</g>
<!-- Node49&#45;&gt;Node39 -->
<g id="edge138" class="edge"><title>Node49&#45;&gt;Node39</title>
<path fill="none" stroke="midnightblue" d="M1347.53,-123.435C1333.86,-120.683 1318.89,-117.947 1305,-116 1113.06,-89.0816 1057.93,-118.441 864.258,-79.849"/>
<polygon fill="midnightblue" stroke="midnightblue" points="864.826,-76.393 854.33,-77.8358 863.435,-83.2534 864.826,-76.393"/>
</g>
<!-- Node50 -->
<g id="node121" class="node"><title>Node50</title>
<a xlink:href="../../d6/dd0/_u_b_8h.html" target="_top" xlink:title="UB.h">
<polygon fill="white" stroke="black" points="1457.5,-58.5 1457.5,-79.5 1496.5,-79.5 1496.5,-58.5 1457.5,-58.5"/>
<text text-anchor="middle" x="1477" y="-66.5" font-family="Helvetica,sans-Serif" font-size="10.00">UB.h</text>
</a>
</g>
<!-- Node49&#45;&gt;Node50 -->
<g id="edge142" class="edge"><title>Node49&#45;&gt;Node50</title>
<path fill="none" stroke="midnightblue" d="M1408.54,-123.267C1421.32,-113.139 1440.68,-97.7916 1455.55,-85.9995"/>
<polygon fill="midnightblue" stroke="midnightblue" points="1458.05,-88.4885 1463.71,-79.5337 1453.7,-83.0029 1458.05,-88.4885"/>
</g>
<!-- Node50&#45;&gt;Node19 -->
<g id="edge144" class="edge"><title>Node50&#45;&gt;Node19</title>
<path fill="none" stroke="midnightblue" d="M1496.61,-61.4175C1522.01,-51.5963 1566.56,-34.3705 1596.42,-22.824"/>
<polygon fill="midnightblue" stroke="midnightblue" points="1597.87,-26.0158 1605.94,-19.1448 1595.35,-19.4869 1597.87,-26.0158"/>
</g>
</g>
</svg>
        <g id="navigator" transform="translate(0 0)" fill="#404254">
                <rect fill="#f2f5e9" fill-opacity="0.5" stroke="#606060" stroke-width=".5" x="0" y="0" width="60" height="60"/>
                <use id="zoomplus" xlink:href="#zoomPlus" x="17" y="9" onmousedown="handleZoom(evt,'in')"/>
                <use id="zoomminus" xlink:href="#zoomMin" x="42" y="9" onmousedown="handleZoom(evt,'out')"/>
                <use id="reset" xlink:href="#resetDef" x="30" y="36" onmousedown="handleReset()"/>
                <g id="arrowUp" xlink:href="#dirArrow" transform="translate(30 24)" onmousedown="handlePan(0,-1)">
                  <use xlink:href="#rim" fill="#404040">
                        <set attributeName="fill" to="#808080" begin="arrowUp.mouseover" end="arrowUp.mouseout"/>
                  </use>
                  <path fill="none" stroke="white" stroke-width="1.5" d="M0,-3.0v7 M-2.5,-0.5L0,-3.0L2.5,-0.5"/>
                </g>
                <g id="arrowRight" xlink:href="#dirArrow" transform="rotate(90) translate(36 -43)" onmousedown="handlePan(1,0)">
                  <use xlink:href="#rim" fill="#404040">
                        <set attributeName="fill" to="#808080" begin="arrowRight.mouseover" end="arrowRight.mouseout"/>
                  </use>
                  <path fill="none" stroke="white" stroke-width="1.5" d="M0,-3.0v7 M-2.5,-0.5L0,-3.0L2.5,-0.5"/>
                </g>
                <g id="arrowDown" xlink:href="#dirArrow" transform="rotate(180) translate(-30 -48)" onmousedown="handlePan(0,1)">
                  <use xlink:href="#rim" fill="#404040">
                        <set attributeName="fill" to="#808080" begin="arrowDown.mouseover" end="arrowDown.mouseout"/>
                  </use>
                  <path fill="none" stroke="white" stroke-width="1.5" d="M0,-3.0v7 M-2.5,-0.5L0,-3.0L2.5,-0.5"/>
                </g>
                <g id="arrowLeft" xlink:href="#dirArrow" transform="rotate(270) translate(-36 17)" onmousedown="handlePan(-1,0)">
                  <use xlink:href="#rim" fill="#404040">
                        <set attributeName="fill" to="#808080" begin="arrowLeft.mouseover" end="arrowLeft.mouseout"/>
                  </use>
                  <path fill="none" stroke="white" stroke-width="1.5" d="M0,-3.0v7 M-2.5,-0.5L0,-3.0L2.5,-0.5"/>
                </g>
        </g>
        <svg viewBox="0 0 15 15" width="100%" height="30px" preserveAspectRatio="xMaxYMin meet">
         <g id="arrow_out" transform="scale(0.3 0.3)">
          <a xlink:href="_u_b_create_link_palette_8cpp__incl_org.svg" target="_base">
           <rect id="button" ry="5" rx="5" y="6" x="6" height="38" width="38"
                fill="#f2f5e9" fill-opacity="0.5" stroke="#606060" stroke-width="1.0"/>
           <path id="arrow"
             d="M 11.500037,31.436501 C 11.940474,20.09759 22.043105,11.32322 32.158766,21.979434 L 37.068811,17.246167 C 37.068811,17.246167 37.088388,32 37.088388,32 L 22.160133,31.978069 C 22.160133,31.978069 26.997745,27.140456 26.997745,27.140456 C 18.528582,18.264221 13.291696,25.230495 11.500037,31.436501 z"
             style="fill:#404040;"/>
          </a>
         </g>
        </svg>
</svg>
