<?xml version="1.0" encoding="UTF-8" standalone="no"?>
<!DOCTYPE svg PUBLIC "-//W3C//DTD SVG 1.1//EN"
 "http://www.w3.org/Graphics/SVG/1.1/DTD/svg11.dtd">
<!-- Generated by graphviz version 2.26.3 (20100126.1600)
 -->
<!-- Title: GraphicsPDFItem.h Pages: 1 -->
<svg width="510pt" height="146pt"
 viewBox="0.00 0.00 510.00 146.00" xmlns="http://www.w3.org/2000/svg" xmlns:xlink="http://www.w3.org/1999/xlink">
<g id="graph1" class="graph" transform="scale(1 1) rotate(0) translate(4 142)">
<title>GraphicsPDFItem.h</title>
<polygon fill="white" stroke="white" points="-4,5 -4,-142 507,-142 507,5 -4,5"/>
<!-- Node1 -->
<g id="node1" class="node"><title>Node1</title>
<polygon fill="#bfbfbf" stroke="black" points="119,-116.5 119,-137.5 223,-137.5 223,-116.5 119,-116.5"/>
<text text-anchor="middle" x="171" y="-124.5" font-family="Helvetica,sans-Serif" font-size="10.00">GraphicsPDFItem.h</text>
</g>
<!-- Node2 -->
<g id="node3" class="node"><title>Node2</title>
<polygon fill="white" stroke="#bfbfbf" points="-0.5,-58.5 -0.5,-79.5 110.5,-79.5 110.5,-58.5 -0.5,-58.5"/>
<text text-anchor="middle" x="55" y="-66.5" font-family="Helvetica,sans-Serif" font-size="10.00">QtGui/QGraphicsItem</text>
</g>
<!-- Node1&#45;&gt;Node2 -->
<g id="edge2" class="edge"><title>Node1&#45;&gt;Node2</title>
<path fill="none" stroke="midnightblue" d="M149.993,-116.497C131.957,-107.479 105.73,-94.3649 85.4011,-84.2006"/>
<polygon fill="midnightblue" stroke="midnightblue" points="86.752,-80.9629 76.2424,-79.6212 83.6215,-87.2239 86.752,-80.9629"/>
</g>
<!-- Node3 -->
<g id="node5" class="node"><title>Node3</title>
<polygon fill="white" stroke="#bfbfbf" points="127.5,-58.5 127.5,-79.5 214.5,-79.5 214.5,-58.5 127.5,-58.5"/>
<text text-anchor="middle" x="171" y="-66.5" font-family="Helvetica,sans-Serif" font-size="10.00">QtCore/QObject</text>
</g>
<!-- Node1&#45;&gt;Node3 -->
<g id="edge4" class="edge"><title>Node1&#45;&gt;Node3</title>
<path fill="none" stroke="midnightblue" d="M171,-116.362C171,-108.922 171,-98.7427 171,-89.7276"/>
<polygon fill="midnightblue" stroke="midnightblue" points="174.5,-89.5706 171,-79.5707 167.5,-89.5707 174.5,-89.5706"/>
</g>
<!-- Node4 -->
<g id="node7" class="node"><title>Node4</title>
<a xlink:href="../../d0/db4/_p_d_f_renderer_8h.html" target="_top" xlink:title="PDFRenderer.h">
<polygon fill="white" stroke="black" points="231.5,-58.5 231.5,-79.5 316.5,-79.5 316.5,-58.5 231.5,-58.5"/>
<text text-anchor="middle" x="274" y="-66.5" font-family="Helvetica,sans-Serif" font-size="10.00">PDFRenderer.h</text>
</a>
</g>
<!-- Node1&#45;&gt;Node4 -->
<g id="edge6" class="edge"><title>Node1&#45;&gt;Node4</title>
<path fill="none" stroke="midnightblue" d="M189.892,-116.362C205.718,-107.45 228.523,-94.6087 246.395,-84.5447"/>
<polygon fill="midnightblue" stroke="midnightblue" points="248.232,-87.5271 255.228,-79.5707 244.797,-81.4276 248.232,-87.5271"/>
</g>
<!-- Node5 -->
<g id="node9" class="node"><title>Node5</title>
<polygon fill="white" stroke="#bfbfbf" points="39.5,-0.5 39.5,-21.5 92.5,-21.5 92.5,-0.5 39.5,-0.5"/>
<text text-anchor="middle" x="66" y="-8.5" font-family="Helvetica,sans-Serif" font-size="10.00">QObject</text>
</g>
<!-- Node4&#45;&gt;Node5 -->
<g id="edge8" class="edge"><title>Node4&#45;&gt;Node5</title>
<path fill="none" stroke="midnightblue" d="M233.326,-58.4319C200.315,-49.7469 152.347,-36.8839 102.399,-22.3471"/>
<polygon fill="midnightblue" stroke="midnightblue" points="103.301,-18.9644 92.7201,-19.5163 101.335,-25.6829 103.301,-18.9644"/>
</g>
<!-- Node6 -->
<g id="node11" class="node"><title>Node6</title>
<polygon fill="white" stroke="#bfbfbf" points="110,-0.5 110,-21.5 160,-21.5 160,-0.5 110,-0.5"/>
<text text-anchor="middle" x="135" y="-8.5" font-family="Helvetica,sans-Serif" font-size="10.00">QSizeF</text>
</g>
<!-- Node4&#45;&gt;Node6 -->
<g id="edge10" class="edge"><title>Node4&#45;&gt;Node6</title>
<path fill="none" stroke="midnightblue" d="M248.828,-58.4966C226.727,-49.2746 194.361,-35.7695 169.787,-25.5153"/>
<polygon fill="midnightblue" stroke="midnightblue" points="171.031,-22.2421 160.454,-21.6212 168.335,-28.7022 171.031,-22.2421"/>
</g>
<!-- Node7 -->
<g id="node13" class="node"><title>Node7</title>
<polygon fill="white" stroke="#bfbfbf" points="177.5,-0.5 177.5,-21.5 222.5,-21.5 222.5,-0.5 177.5,-0.5"/>
<text text-anchor="middle" x="200" y="-8.5" font-family="Helvetica,sans-Serif" font-size="10.00">QRect</text>
</g>
<!-- Node4&#45;&gt;Node7 -->
<g id="edge12" class="edge"><title>Node4&#45;&gt;Node7</title>
<path fill="none" stroke="midnightblue" d="M260.427,-58.3619C249.579,-49.859 234.166,-37.7785 221.621,-27.9466"/>
<polygon fill="midnightblue" stroke="midnightblue" points="223.516,-24.9848 213.487,-21.5707 219.198,-30.4942 223.516,-24.9848"/>
</g>
<!-- Node8 -->
<g id="node15" class="node"><title>Node8</title>
<polygon fill="white" stroke="#bfbfbf" points="240,-0.5 240,-21.5 308,-21.5 308,-0.5 240,-0.5"/>
<text text-anchor="middle" x="274" y="-8.5" font-family="Helvetica,sans-Serif" font-size="10.00">QByteArray</text>
</g>
<!-- Node4&#45;&gt;Node8 -->
<g id="edge14" class="edge"><title>Node4&#45;&gt;Node8</title>
<path fill="none" stroke="midnightblue" d="M274,-58.3619C274,-50.9219 274,-40.7427 274,-31.7276"/>
<polygon fill="midnightblue" stroke="midnightblue" points="277.5,-31.5706 274,-21.5707 270.5,-31.5707 277.5,-31.5706"/>
</g>
<!-- Node9 -->
<g id="node17" class="node"><title>Node9</title>
<polygon fill="white" stroke="#bfbfbf" points="326,-0.5 326,-21.5 370,-21.5 370,-0.5 326,-0.5"/>
<text text-anchor="middle" x="348" y="-8.5" font-family="Helvetica,sans-Serif" font-size="10.00">QUuid</text>
</g>
<!-- Node4&#45;&gt;Node9 -->
<g id="edge16" class="edge"><title>Node4&#45;&gt;Node9</title>
<path fill="none" stroke="midnightblue" d="M287.573,-58.3619C298.421,-49.859 313.834,-37.7785 326.379,-27.9466"/>
<polygon fill="midnightblue" stroke="midnightblue" points="328.802,-30.4942 334.513,-21.5707 324.484,-24.9848 328.802,-30.4942"/>
</g>
<!-- Node10 -->
<g id="node19" class="node"><title>Node10</title>
<polygon fill="white" stroke="#bfbfbf" points="387.5,-0.5 387.5,-21.5 430.5,-21.5 430.5,-0.5 387.5,-0.5"/>
<text text-anchor="middle" x="409" y="-8.5" font-family="Helvetica,sans-Serif" font-size="10.00">QMap</text>
</g>
<!-- Node4&#45;&gt;Node10 -->
<g id="edge18" class="edge"><title>Node4&#45;&gt;Node10</title>
<path fill="none" stroke="midnightblue" d="M298.447,-58.4966C320.753,-48.9137 353.822,-34.706 377.981,-24.3269"/>
<polygon fill="midnightblue" stroke="midnightblue" points="379.601,-27.4402 387.407,-20.277 376.837,-21.0087 379.601,-27.4402"/>
</g>
<!-- Node11 -->
<g id="node21" class="node"><title>Node11</title>
<polygon fill="white" stroke="#bfbfbf" points="447.5,-0.5 447.5,-21.5 502.5,-21.5 502.5,-0.5 447.5,-0.5"/>
<text text-anchor="middle" x="475" y="-8.5" font-family="Helvetica,sans-Serif" font-size="10.00">QPointer</text>
</g>
<!-- Node4&#45;&gt;Node11 -->
<g id="edge20" class="edge"><title>Node4&#45;&gt;Node11</title>
<path fill="none" stroke="midnightblue" d="M311.74,-58.4703C343.129,-49.6634 389.224,-36.6173 437.762,-22.3343"/>
<polygon fill="midnightblue" stroke="midnightblue" points="438.898,-25.6485 447.499,-19.462 436.917,-18.9345 438.898,-25.6485"/>
</g>
</g>
</svg>
