<?xml version="1.0" encoding="UTF-8" standalone="no"?>
<!DOCTYPE svg PUBLIC "-//W3C//DTD SVG 1.1//EN"
 "http://www.w3.org/Graphics/SVG/1.1/DTD/svg11.dtd">
<!-- Generated by graphviz version 2.26.3 (20100126.1600)
 -->
<!-- Title: UBDocumentController::selectedDocumentProxy Pages: 1 -->
<svg width="672pt" height="302pt"
 viewBox="0.00 0.00 672.00 302.00" xmlns="http://www.w3.org/2000/svg" xmlns:xlink="http://www.w3.org/1999/xlink">
<g id="graph1" class="graph" transform="scale(1 1) rotate(0) translate(4 298)">
<title>UBDocumentController::selectedDocumentProxy</title>
<polygon fill="white" stroke="white" points="-4,5 -4,-298 669,-298 669,5 -4,5"/>
<!-- Node1 -->
<g id="node1" class="node"><title>Node1</title>
<polygon fill="#bfbfbf" stroke="black" points="0,-130 0,-164 130,-164 130,-130 0,-130"/>
<text text-anchor="start" x="8" y="-151" font-family="Helvetica,sans-Serif" font-size="10.00">UBDocumentController</text>
<text text-anchor="middle" x="65" y="-138" font-family="Helvetica,sans-Serif" font-size="10.00">::selectedDocumentProxy</text>
</g>
<!-- Node2 -->
<g id="node3" class="node"><title>Node2</title>
<a xlink:href="../../d6/de0/class_u_b_document_controller.html#ae617ef6d5f7b83dd7e121da6fb389799" target="_top" xlink:title="UBDocumentController\l::openSelectedItem">
<polygon fill="white" stroke="black" points="173,-260 173,-294 291,-294 291,-260 173,-260"/>
<text text-anchor="start" x="181" y="-281" font-family="Helvetica,sans-Serif" font-size="10.00">UBDocumentController</text>
<text text-anchor="middle" x="232" y="-268" font-family="Helvetica,sans-Serif" font-size="10.00">::openSelectedItem</text>
</a>
</g>
<!-- Node1&#45;&gt;Node2 -->
<g id="edge2" class="edge"><title>Node1&#45;&gt;Node2</title>
<path fill="none" stroke="midnightblue" d="M84.2864,-172.308C103.021,-195.436 133.353,-229.252 166,-251 170.92,-254.277 176.315,-257.24 181.834,-259.89"/>
<polygon fill="midnightblue" stroke="midnightblue" points="86.8908,-169.959 77.9262,-164.313 81.4127,-174.317 86.8908,-169.959"/>
</g>
<!-- Node6 -->
<g id="node11" class="node"><title>Node6</title>
<a xlink:href="../../d6/de0/class_u_b_document_controller.html#aad9558fb0462442c6e23bb30651b162b" target="_top" xlink:title="UBDocumentController\l::addFolderOfImages">
<polygon fill="white" stroke="black" points="173,-208 173,-242 291,-242 291,-208 173,-208"/>
<text text-anchor="start" x="181" y="-229" font-family="Helvetica,sans-Serif" font-size="10.00">UBDocumentController</text>
<text text-anchor="middle" x="232" y="-216" font-family="Helvetica,sans-Serif" font-size="10.00">::addFolderOfImages</text>
</a>
</g>
<!-- Node1&#45;&gt;Node6 -->
<g id="edge10" class="edge"><title>Node1&#45;&gt;Node6</title>
<path fill="none" stroke="midnightblue" d="M105.372,-168.961C123.673,-178.61 145.714,-189.81 166,-199 172.731,-202.049 179.932,-205.097 187.013,-207.977"/>
<polygon fill="midnightblue" stroke="midnightblue" points="106.916,-165.818 96.4427,-164.22 103.634,-172.001 106.916,-165.818"/>
</g>
<!-- Node7 -->
<g id="node14" class="node"><title>Node7</title>
<a xlink:href="../../d6/de0/class_u_b_document_controller.html#af9efed5dcb8083b75ed54d20a54a89a1" target="_top" xlink:title="UBDocumentController\l::addFileToDocument">
<polygon fill="white" stroke="black" points="173,-156 173,-190 291,-190 291,-156 173,-156"/>
<text text-anchor="start" x="181" y="-177" font-family="Helvetica,sans-Serif" font-size="10.00">UBDocumentController</text>
<text text-anchor="middle" x="232" y="-164" font-family="Helvetica,sans-Serif" font-size="10.00">::addFileToDocument</text>
</a>
</g>
<!-- Node1&#45;&gt;Node7 -->
<g id="edge14" class="edge"><title>Node1&#45;&gt;Node7</title>
<path fill="none" stroke="midnightblue" d="M140.061,-158.686C151.053,-160.397 162.241,-162.139 172.854,-163.792"/>
<polygon fill="midnightblue" stroke="midnightblue" points="140.464,-155.207 130.045,-157.127 139.387,-162.124 140.464,-155.207"/>
</g>
<!-- Node8 -->
<g id="node17" class="node"><title>Node8</title>
<a xlink:href="../../d6/de0/class_u_b_document_controller.html#ae4434a0bbd63b169707ddbd593257e93" target="_top" xlink:title="UBDocumentController\l::selectionChanged">
<polygon fill="white" stroke="black" points="173,-0 173,-34 291,-34 291,-0 173,-0"/>
<text text-anchor="start" x="181" y="-21" font-family="Helvetica,sans-Serif" font-size="10.00">UBDocumentController</text>
<text text-anchor="middle" x="232" y="-8" font-family="Helvetica,sans-Serif" font-size="10.00">::selectionChanged</text>
</a>
</g>
<!-- Node1&#45;&gt;Node8 -->
<g id="edge18" class="edge"><title>Node1&#45;&gt;Node8</title>
<path fill="none" stroke="midnightblue" d="M84.2864,-121.692C103.021,-98.5643 133.353,-64.7483 166,-43 170.92,-39.7227 176.315,-36.7603 181.834,-34.11"/>
<polygon fill="midnightblue" stroke="midnightblue" points="81.4127,-119.683 77.9262,-129.687 86.8908,-124.041 81.4127,-119.683"/>
</g>
<!-- Node10 -->
<g id="node23" class="node"><title>Node10</title>
<a xlink:href="../../d6/de0/class_u_b_document_controller.html#ac1b62fab6ca258f324a5324f550dddb3" target="_top" xlink:title="UBDocumentController\l::documentSceneChanged">
<polygon fill="white" stroke="black" points="166,-104 166,-138 298,-138 298,-104 166,-104"/>
<text text-anchor="start" x="174" y="-125" font-family="Helvetica,sans-Serif" font-size="10.00">UBDocumentController</text>
<text text-anchor="middle" x="232" y="-112" font-family="Helvetica,sans-Serif" font-size="10.00">::documentSceneChanged</text>
</a>
</g>
<!-- Node1&#45;&gt;Node10 -->
<g id="edge26" class="edge"><title>Node1&#45;&gt;Node10</title>
<path fill="none" stroke="midnightblue" d="M140.035,-135.318C148.611,-133.983 157.307,-132.629 165.757,-131.313"/>
<polygon fill="midnightblue" stroke="midnightblue" points="139.387,-131.876 130.045,-136.873 140.464,-138.793 139.387,-131.876"/>
</g>
<!-- Node11 -->
<g id="node26" class="node"><title>Node11</title>
<a xlink:href="../../d6/de0/class_u_b_document_controller.html#a4f74b1a30998b934b7836731f6193222" target="_top" xlink:title="UBDocumentController\l::addImages">
<polygon fill="white" stroke="black" points="173,-52 173,-86 291,-86 291,-52 173,-52"/>
<text text-anchor="start" x="181" y="-73" font-family="Helvetica,sans-Serif" font-size="10.00">UBDocumentController</text>
<text text-anchor="middle" x="232" y="-60" font-family="Helvetica,sans-Serif" font-size="10.00">::addImages</text>
</a>
</g>
<!-- Node1&#45;&gt;Node11 -->
<g id="edge30" class="edge"><title>Node1&#45;&gt;Node11</title>
<path fill="none" stroke="midnightblue" d="M105.372,-125.039C123.673,-115.39 145.714,-104.19 166,-95 172.731,-91.9508 179.932,-88.9027 187.013,-86.0227"/>
<polygon fill="midnightblue" stroke="midnightblue" points="103.634,-121.999 96.4427,-129.78 106.916,-128.182 103.634,-121.999"/>
</g>
<!-- Node3 -->
<g id="node5" class="node"><title>Node3</title>
<a xlink:href="../../d6/de0/class_u_b_document_controller.html#abb172787a34a34cd3c2df0a1b46918c5" target="_top" xlink:title="UBDocumentController\l::setupViews">
<polygon fill="white" stroke="black" points="360,-104 360,-138 478,-138 478,-104 360,-104"/>
<text text-anchor="start" x="368" y="-125" font-family="Helvetica,sans-Serif" font-size="10.00">UBDocumentController</text>
<text text-anchor="middle" x="419" y="-112" font-family="Helvetica,sans-Serif" font-size="10.00">::setupViews</text>
</a>
</g>
<!-- Node2&#45;&gt;Node3 -->
<g id="edge4" class="edge"><title>Node2&#45;&gt;Node3</title>
<path fill="none" stroke="midnightblue" d="M291.338,-255.178C293.632,-253.849 295.863,-252.457 298,-251 345.134,-218.874 387.335,-165.29 407.117,-138.039"/>
<polygon fill="midnightblue" stroke="midnightblue" points="289.438,-252.224 282.235,-259.993 292.711,-258.411 289.438,-252.224"/>
</g>
<!-- Node5 -->
<g id="node9" class="node"><title>Node5</title>
<a xlink:href="../../d6/de0/class_u_b_document_controller.html#a3625404ac761f6772ff3b192e0bc25f8" target="_top" xlink:title="UBDocumentController\l::pageDoubleClicked">
<polygon fill="white" stroke="black" points="360,-260 360,-294 478,-294 478,-260 360,-260"/>
<text text-anchor="start" x="368" y="-281" font-family="Helvetica,sans-Serif" font-size="10.00">UBDocumentController</text>
<text text-anchor="middle" x="419" y="-268" font-family="Helvetica,sans-Serif" font-size="10.00">::pageDoubleClicked</text>
</a>
</g>
<!-- Node2&#45;&gt;Node5 -->
<g id="edge8" class="edge"><title>Node2&#45;&gt;Node5</title>
<path fill="none" stroke="midnightblue" d="M301.376,-277C320.611,-277 341.307,-277 359.896,-277"/>
<polygon fill="midnightblue" stroke="midnightblue" points="301.168,-273.5 291.168,-277 301.168,-280.5 301.168,-273.5"/>
</g>
<!-- Node4 -->
<g id="node7" class="node"><title>Node4</title>
<a xlink:href="../../d6/de0/class_u_b_document_controller.html#a38e9ea0a2dad2b1c8d9588563e9ee3bf" target="_top" xlink:title="UBDocumentController\l::UBDocumentController">
<polygon fill="white" stroke="black" points="540,-65 540,-99 664,-99 664,-65 540,-65"/>
<text text-anchor="start" x="548" y="-86" font-family="Helvetica,sans-Serif" font-size="10.00">UBDocumentController</text>
<text text-anchor="middle" x="602" y="-73" font-family="Helvetica,sans-Serif" font-size="10.00">::UBDocumentController</text>
</a>
</g>
<!-- Node3&#45;&gt;Node4 -->
<g id="edge6" class="edge"><title>Node3&#45;&gt;Node4</title>
<path fill="none" stroke="midnightblue" d="M488.043,-106.286C505.074,-102.656 523.212,-98.7908 539.892,-95.236"/>
<polygon fill="midnightblue" stroke="midnightblue" points="487.213,-102.884 478.162,-108.392 488.672,-109.73 487.213,-102.884"/>
</g>
<!-- Node6&#45;&gt;Node3 -->
<g id="edge12" class="edge"><title>Node6&#45;&gt;Node3</title>
<path fill="none" stroke="midnightblue" d="M287.894,-203.89C291.346,-202.307 294.74,-200.672 298,-199 333.359,-180.863 371.472,-155.167 395.278,-138.297"/>
<polygon fill="midnightblue" stroke="midnightblue" points="286.412,-200.718 278.671,-207.951 289.233,-207.125 286.412,-200.718"/>
</g>
<!-- Node7&#45;&gt;Node3 -->
<g id="edge16" class="edge"><title>Node7&#45;&gt;Node3</title>
<path fill="none" stroke="midnightblue" d="M300.845,-153.856C320.229,-148.466 341.136,-142.652 359.896,-137.435"/>
<polygon fill="midnightblue" stroke="midnightblue" points="299.865,-150.496 291.168,-156.547 301.74,-157.24 299.865,-150.496"/>
</g>
<!-- Node8&#45;&gt;Node3 -->
<g id="edge20" class="edge"><title>Node8&#45;&gt;Node3</title>
<path fill="none" stroke="midnightblue" d="M288.658,-38.224C291.856,-39.7601 294.991,-41.3549 298,-43 315.317,-52.4687 317.57,-58.0644 334,-69 352.289,-81.1732 373.352,-94.066 389.934,-103.968"/>
<polygon fill="midnightblue" stroke="midnightblue" points="290.081,-35.0259 279.53,-34.058 287.174,-41.3941 290.081,-35.0259"/>
</g>
<!-- Node9 -->
<g id="node20" class="node"><title>Node9</title>
<a xlink:href="../../d6/de0/class_u_b_document_controller.html#a4422bb4f77bfee61bcfbce4d64de08a0" target="_top" xlink:title="UBDocumentController\l::refreshDocumentThumbnailsView">
<polygon fill="white" stroke="black" points="334,-26 334,-60 504,-60 504,-26 334,-26"/>
<text text-anchor="start" x="342" y="-47" font-family="Helvetica,sans-Serif" font-size="10.00">UBDocumentController</text>
<text text-anchor="middle" x="419" y="-34" font-family="Helvetica,sans-Serif" font-size="10.00">::refreshDocumentThumbnailsView</text>
</a>
</g>
<!-- Node8&#45;&gt;Node9 -->
<g id="edge22" class="edge"><title>Node8&#45;&gt;Node9</title>
<path fill="none" stroke="midnightblue" d="M301.219,-26.6241C311.868,-28.1046 322.968,-29.648 333.913,-31.1697"/>
<polygon fill="midnightblue" stroke="midnightblue" points="301.555,-23.1371 291.168,-25.2266 300.591,-30.0704 301.555,-23.1371"/>
</g>
<!-- Node9&#45;&gt;Node4 -->
<g id="edge24" class="edge"><title>Node9&#45;&gt;Node4</title>
<path fill="none" stroke="midnightblue" d="M508.966,-62.1732C519.388,-64.3942 529.836,-66.6209 539.77,-68.7379"/>
<polygon fill="midnightblue" stroke="midnightblue" points="509.51,-58.7105 499,-60.0492 508.051,-65.5568 509.51,-58.7105"/>
</g>
<!-- Node10&#45;&gt;Node3 -->
<g id="edge28" class="edge"><title>Node10&#45;&gt;Node3</title>
<path fill="none" stroke="midnightblue" d="M308.2,-121C325.386,-121 343.38,-121 359.749,-121"/>
<polygon fill="midnightblue" stroke="midnightblue" points="308.192,-117.5 298.192,-121 308.192,-124.5 308.192,-117.5"/>
</g>
<!-- Node11&#45;&gt;Node3 -->
<g id="edge32" class="edge"><title>Node11&#45;&gt;Node3</title>
<path fill="none" stroke="midnightblue" d="M300.845,-88.144C320.229,-93.5343 341.136,-99.348 359.896,-104.565"/>
<polygon fill="midnightblue" stroke="midnightblue" points="301.74,-84.7602 291.168,-85.4531 299.865,-91.5043 301.74,-84.7602"/>
</g>
</g>
</svg>
