<?xml version="1.0" encoding="UTF-8" standalone="no"?>
<!DOCTYPE svg PUBLIC "-//W3C//DTD SVG 1.1//EN"
 "http://www.w3.org/Graphics/SVG/1.1/DTD/svg11.dtd">
<!-- Generated by graphviz version 2.26.3 (20100126.1600)
 -->
<!-- Title: UBDocumentController::setupToolbar Pages: 1 -->
<svg width="750pt" height="186pt"
 viewBox="0.00 0.00 750.00 186.00" xmlns="http://www.w3.org/2000/svg" xmlns:xlink="http://www.w3.org/1999/xlink">
<g id="graph1" class="graph" transform="scale(1 1) rotate(0) translate(4 182)">
<title>UBDocumentController::setupToolbar</title>
<polygon fill="white" stroke="white" points="-4,5 -4,-182 747,-182 747,5 -4,5"/>
<!-- Node1 -->
<g id="node1" class="node"><title>Node1</title>
<polygon fill="#bfbfbf" stroke="black" points="0,-104 0,-138 118,-138 118,-104 0,-104"/>
<text text-anchor="start" x="8" y="-125" font-family="Helvetica,sans-Serif" font-size="10.00">UBDocumentController</text>
<text text-anchor="middle" x="59" y="-112" font-family="Helvetica,sans-Serif" font-size="10.00">::setupToolbar</text>
</g>
<!-- Node2 -->
<g id="node3" class="node"><title>Node2</title>
<a xlink:href="../../d8/d81/class_u_b_application.html#a71985ce0344b74bc3e5ed1d7f44a2017" target="_top" xlink:title="UBApplication::app">
<polygon fill="white" stroke="black" points="178.5,-156.5 178.5,-177.5 279.5,-177.5 279.5,-156.5 178.5,-156.5"/>
<text text-anchor="middle" x="229" y="-164.5" font-family="Helvetica,sans-Serif" font-size="10.00">UBApplication::app</text>
</a>
</g>
<!-- Node1&#45;&gt;Node2 -->
<g id="edge2" class="edge"><title>Node1&#45;&gt;Node2</title>
<path fill="none" stroke="midnightblue" d="M118.022,-137.218C129.929,-140.471 142.362,-143.856 154,-147 162.228,-149.223 170.969,-151.569 179.467,-153.84"/>
<polygon fill="midnightblue" stroke="midnightblue" points="178.721,-157.264 189.285,-156.461 180.526,-150.5 178.721,-157.264"/>
</g>
<!-- Node3 -->
<g id="node5" class="node"><title>Node3</title>
<a xlink:href="../../d8/d81/class_u_b_application.html#adde68e147924747e76e51286b2ffc9e7" target="_top" xlink:title="UBApplication::insertSpace\lToToolbarBeforeAction">
<polygon fill="white" stroke="black" points="160.5,-104 160.5,-138 297.5,-138 297.5,-104 160.5,-104"/>
<text text-anchor="start" x="168.5" y="-125" font-family="Helvetica,sans-Serif" font-size="10.00">UBApplication::insertSpace</text>
<text text-anchor="middle" x="229" y="-112" font-family="Helvetica,sans-Serif" font-size="10.00">ToToolbarBeforeAction</text>
</a>
</g>
<!-- Node1&#45;&gt;Node3 -->
<g id="edge4" class="edge"><title>Node1&#45;&gt;Node3</title>
<path fill="none" stroke="midnightblue" d="M118.458,-121C128.689,-121 139.464,-121 150.11,-121"/>
<polygon fill="midnightblue" stroke="midnightblue" points="150.257,-124.5 160.256,-121 150.256,-117.5 150.257,-124.5"/>
</g>
<!-- Node4 -->
<g id="node7" class="node"><title>Node4</title>
<a xlink:href="../../d6/de0/class_u_b_document_controller.html#afc7d15a8ac67eebe5f3c5b55dc4798ff" target="_top" xlink:title="UBDocumentController\l::toggleDocumentToolsPalette">
<polygon fill="white" stroke="black" points="154.5,-52 154.5,-86 303.5,-86 303.5,-52 154.5,-52"/>
<text text-anchor="start" x="162.5" y="-73" font-family="Helvetica,sans-Serif" font-size="10.00">UBDocumentController</text>
<text text-anchor="middle" x="229" y="-60" font-family="Helvetica,sans-Serif" font-size="10.00">::toggleDocumentToolsPalette</text>
</a>
</g>
<!-- Node1&#45;&gt;Node4 -->
<g id="edge6" class="edge"><title>Node1&#45;&gt;Node4</title>
<path fill="none" stroke="midnightblue" d="M114.664,-103.973C130.221,-99.2146 147.273,-93.9989 163.349,-89.0815"/>
<polygon fill="midnightblue" stroke="midnightblue" points="164.672,-92.337 173.211,-86.065 162.624,-85.6432 164.672,-92.337"/>
</g>
<!-- Node5 -->
<g id="node9" class="node"><title>Node5</title>
<a xlink:href="../../d1/d97/class_u_b_floating_palette.html#abc34a1ea7b29b6aaa4a0ea25d5715210" target="_top" xlink:title="UBFloatingPalette:\l:adjustSizeAndPosition">
<polygon fill="white" stroke="black" points="340,-104 340,-138 458,-138 458,-104 340,-104"/>
<text text-anchor="start" x="348" y="-125" font-family="Helvetica,sans-Serif" font-size="10.00">UBFloatingPalette:</text>
<text text-anchor="middle" x="399" y="-112" font-family="Helvetica,sans-Serif" font-size="10.00">:adjustSizeAndPosition</text>
</a>
</g>
<!-- Node4&#45;&gt;Node5 -->
<g id="edge8" class="edge"><title>Node4&#45;&gt;Node5</title>
<path fill="none" stroke="midnightblue" d="M284.664,-86.0267C300.221,-90.7854 317.273,-96.0011 333.349,-100.919"/>
<polygon fill="midnightblue" stroke="midnightblue" points="332.624,-104.357 343.211,-103.935 334.672,-97.663 332.624,-104.357"/>
</g>
<!-- Node10 -->
<g id="node19" class="node"><title>Node10</title>
<a xlink:href="../../d6/de0/class_u_b_document_controller.html#abf8464ae901a12f1354e48e06fb33daf" target="_top" xlink:title="UBDocumentController\l::controlView">
<polygon fill="white" stroke="black" points="340,-52 340,-86 458,-86 458,-52 340,-52"/>
<text text-anchor="start" x="348" y="-73" font-family="Helvetica,sans-Serif" font-size="10.00">UBDocumentController</text>
<text text-anchor="middle" x="399" y="-60" font-family="Helvetica,sans-Serif" font-size="10.00">::controlView</text>
</a>
</g>
<!-- Node4&#45;&gt;Node10 -->
<g id="edge18" class="edge"><title>Node4&#45;&gt;Node10</title>
<path fill="none" stroke="midnightblue" d="M303.564,-69C312.285,-69 321.154,-69 329.798,-69"/>
<polygon fill="midnightblue" stroke="midnightblue" points="329.818,-72.5001 339.818,-69 329.818,-65.5001 329.818,-72.5001"/>
</g>
<!-- Node11 -->
<g id="node21" class="node"><title>Node11</title>
<a xlink:href="../../d1/d97/class_u_b_floating_palette.html#abc8797caf59410a7fb11bc57e74ceb8d" target="_top" xlink:title="UBFloatingPalette:\l:setCustomPosition">
<polygon fill="white" stroke="black" points="347.5,-0 347.5,-34 450.5,-34 450.5,-0 347.5,-0"/>
<text text-anchor="start" x="355.5" y="-21" font-family="Helvetica,sans-Serif" font-size="10.00">UBFloatingPalette:</text>
<text text-anchor="middle" x="399" y="-8" font-family="Helvetica,sans-Serif" font-size="10.00">:setCustomPosition</text>
</a>
</g>
<!-- Node4&#45;&gt;Node11 -->
<g id="edge20" class="edge"><title>Node4&#45;&gt;Node11</title>
<path fill="none" stroke="midnightblue" d="M284.664,-51.9733C301.501,-46.8231 320.089,-41.1375 337.296,-35.8742"/>
<polygon fill="midnightblue" stroke="midnightblue" points="338.705,-39.1032 347.244,-32.8312 336.658,-32.4094 338.705,-39.1032"/>
</g>
<!-- Node6 -->
<g id="node11" class="node"><title>Node6</title>
<a xlink:href="../../d1/d97/class_u_b_floating_palette.html#aec5822b784da7d590ff463ed9cb44be9" target="_top" xlink:title="UBFloatingPalette:\l:preferredSize">
<polygon fill="white" stroke="black" points="494.5,-130 494.5,-164 593.5,-164 593.5,-130 494.5,-130"/>
<text text-anchor="start" x="502.5" y="-151" font-family="Helvetica,sans-Serif" font-size="10.00">UBFloatingPalette:</text>
<text text-anchor="middle" x="544" y="-138" font-family="Helvetica,sans-Serif" font-size="10.00">:preferredSize</text>
</a>
</g>
<!-- Node5&#45;&gt;Node6 -->
<g id="edge10" class="edge"><title>Node5&#45;&gt;Node6</title>
<path fill="none" stroke="midnightblue" d="M458.395,-131.65C466.94,-133.182 475.736,-134.759 484.286,-136.293"/>
<polygon fill="midnightblue" stroke="midnightblue" points="483.721,-139.747 494.182,-138.067 484.956,-132.857 483.721,-139.747"/>
</g>
<!-- Node7 -->
<g id="node13" class="node"><title>Node7</title>
<a xlink:href="../../d1/d97/class_u_b_floating_palette.html#a187ee35c53cfad79bb5b30dff1800732" target="_top" xlink:title="UBFloatingPalette:\l:moveInsideParent">
<polygon fill="white" stroke="black" points="494.5,-78 494.5,-112 593.5,-112 593.5,-78 494.5,-78"/>
<text text-anchor="start" x="502.5" y="-99" font-family="Helvetica,sans-Serif" font-size="10.00">UBFloatingPalette:</text>
<text text-anchor="middle" x="544" y="-86" font-family="Helvetica,sans-Serif" font-size="10.00">:moveInsideParent</text>
</a>
</g>
<!-- Node5&#45;&gt;Node7 -->
<g id="edge12" class="edge"><title>Node5&#45;&gt;Node7</title>
<path fill="none" stroke="midnightblue" d="M458.395,-110.35C466.94,-108.818 475.736,-107.241 484.286,-105.707"/>
<polygon fill="midnightblue" stroke="midnightblue" points="484.956,-109.143 494.182,-103.933 483.721,-102.253 484.956,-109.143"/>
</g>
<!-- Node8 -->
<g id="node15" class="node"><title>Node8</title>
<a xlink:href="../../d1/d97/class_u_b_floating_palette.html#a1902d37271315e9e06d6743752104f47" target="_top" xlink:title="UBFloatingPalette:\l:border">
<polygon fill="white" stroke="black" points="636.5,-104 636.5,-138 735.5,-138 735.5,-104 636.5,-104"/>
<text text-anchor="start" x="644.5" y="-125" font-family="Helvetica,sans-Serif" font-size="10.00">UBFloatingPalette:</text>
<text text-anchor="middle" x="686" y="-112" font-family="Helvetica,sans-Serif" font-size="10.00">:border</text>
</a>
</g>
<!-- Node7&#45;&gt;Node8 -->
<g id="edge14" class="edge"><title>Node7&#45;&gt;Node8</title>
<path fill="none" stroke="midnightblue" d="M593.665,-104.094C604.197,-106.022 615.419,-108.077 626.281,-110.065"/>
<polygon fill="midnightblue" stroke="midnightblue" points="625.656,-113.509 636.123,-111.868 626.917,-106.624 625.656,-113.509"/>
</g>
<!-- Node9 -->
<g id="node17" class="node"><title>Node9</title>
<a xlink:href="../../d1/d97/class_u_b_floating_palette.html#acf3ead0c3d8a3bde89b934ad208e9f9a" target="_top" xlink:title="UBFloatingPalette:\l:getParentRightOffset">
<polygon fill="white" stroke="black" points="630,-52 630,-86 742,-86 742,-52 630,-52"/>
<text text-anchor="start" x="638" y="-73" font-family="Helvetica,sans-Serif" font-size="10.00">UBFloatingPalette:</text>
<text text-anchor="middle" x="686" y="-60" font-family="Helvetica,sans-Serif" font-size="10.00">:getParentRightOffset</text>
</a>
</g>
<!-- Node7&#45;&gt;Node9 -->
<g id="edge16" class="edge"><title>Node7&#45;&gt;Node9</title>
<path fill="none" stroke="midnightblue" d="M593.665,-85.9065C602.149,-84.3531 611.081,-82.7176 619.911,-81.1008"/>
<polygon fill="midnightblue" stroke="midnightblue" points="620.602,-84.5326 629.808,-79.2887 619.341,-77.6471 620.602,-84.5326"/>
</g>
</g>
</svg>
