<?xml version="1.0" encoding="UTF-8" standalone="no"?>
<!DOCTYPE svg PUBLIC "-//W3C//DTD SVG 1.1//EN"
 "http://www.w3.org/Graphics/SVG/1.1/DTD/svg11.dtd">
<!-- Generated by graphviz version 2.26.3 (20100126.1600)
 -->
<!-- Title: UBDocumentController::setupPalettes Pages: 1 -->
<svg width="458pt" height="94pt"
 viewBox="0.00 0.00 458.00 94.00" xmlns="http://www.w3.org/2000/svg" xmlns:xlink="http://www.w3.org/1999/xlink">
<g id="graph1" class="graph" transform="scale(1 1) rotate(0) translate(4 90)">
<title>UBDocumentController::setupPalettes</title>
<polygon fill="white" stroke="white" points="-4,5 -4,-90 455,-90 455,5 -4,5"/>
<!-- Node1 -->
<g id="node1" class="node"><title>Node1</title>
<polygon fill="#bfbfbf" stroke="black" points="0,-26 0,-60 118,-60 118,-26 0,-26"/>
<text text-anchor="start" x="8" y="-47" font-family="Helvetica,sans-Serif" font-size="10.00">UBDocumentController</text>
<text text-anchor="middle" x="59" y="-34" font-family="Helvetica,sans-Serif" font-size="10.00">::setupPalettes</text>
</g>
<!-- Node2 -->
<g id="node3" class="node"><title>Node2</title>
<a xlink:href="../../d6/de0/class_u_b_document_controller.html#abf8464ae901a12f1354e48e06fb33daf" target="_top" xlink:title="UBDocumentController\l::controlView">
<polygon fill="white" stroke="black" points="161,-52 161,-86 279,-86 279,-52 161,-52"/>
<text text-anchor="start" x="169" y="-73" font-family="Helvetica,sans-Serif" font-size="10.00">UBDocumentController</text>
<text text-anchor="middle" x="220" y="-60" font-family="Helvetica,sans-Serif" font-size="10.00">::controlView</text>
</a>
</g>
<!-- Node1&#45;&gt;Node2 -->
<g id="edge2" class="edge"><title>Node1&#45;&gt;Node2</title>
<path fill="none" stroke="midnightblue" d="M118.036,-52.5338C128.755,-54.2648 140.022,-56.0843 150.997,-57.8567"/>
<polygon fill="midnightblue" stroke="midnightblue" points="150.541,-61.3282 160.971,-59.4673 151.657,-54.4178 150.541,-61.3282"/>
</g>
<!-- Node3 -->
<g id="node5" class="node"><title>Node3</title>
<a xlink:href="../../d9/dee/class_u_b_document_tools_palette.html#a1e3c9893bdad8b3eb8c816327fc5adb7" target="_top" xlink:title="UBDocumentToolsPalette\l::isEmpty">
<polygon fill="white" stroke="black" points="154.5,-0 154.5,-34 285.5,-34 285.5,-0 154.5,-0"/>
<text text-anchor="start" x="162.5" y="-21" font-family="Helvetica,sans-Serif" font-size="10.00">UBDocumentToolsPalette</text>
<text text-anchor="middle" x="220" y="-8" font-family="Helvetica,sans-Serif" font-size="10.00">::isEmpty</text>
</a>
</g>
<!-- Node1&#45;&gt;Node3 -->
<g id="edge4" class="edge"><title>Node1&#45;&gt;Node3</title>
<path fill="none" stroke="midnightblue" d="M118.036,-33.4662C126.643,-32.0762 135.604,-30.6292 144.483,-29.1953"/>
<polygon fill="midnightblue" stroke="midnightblue" points="145.136,-32.6353 154.45,-27.5857 144.02,-25.7248 145.136,-32.6353"/>
</g>
<!-- Node4 -->
<g id="node7" class="node"><title>Node4</title>
<a xlink:href="../../de/dc5/class_u_b_action_palette.html#a6f0c33558354c13ccc5111cfa385a2ff" target="_top" xlink:title="UBActionPalette::actions">
<polygon fill="white" stroke="black" points="322.5,-6.5 322.5,-27.5 449.5,-27.5 449.5,-6.5 322.5,-6.5"/>
<text text-anchor="middle" x="386" y="-14.5" font-family="Helvetica,sans-Serif" font-size="10.00">UBActionPalette::actions</text>
</a>
</g>
<!-- Node3&#45;&gt;Node4 -->
<g id="edge6" class="edge"><title>Node3&#45;&gt;Node4</title>
<path fill="none" stroke="midnightblue" d="M285.608,-17C294.431,-17 303.528,-17 312.477,-17"/>
<polygon fill="midnightblue" stroke="midnightblue" points="312.495,-20.5001 322.495,-17 312.495,-13.5001 312.495,-20.5001"/>
</g>
</g>
</svg>
