<?xml version="1.0" encoding="UTF-8" standalone="no"?>
<!DOCTYPE svg PUBLIC "-//W3C//DTD SVG 1.1//EN"
 "http://www.w3.org/Graphics/SVG/1.1/DTD/svg11.dtd">
<!-- Generated by graphviz version 2.26.3 (20100126.1600)
 -->
<!-- Title: UBDocumentController::TreeViewSelectionChanged Pages: 1 -->
<svg width="1054pt" height="288pt"
 viewBox="0.00 0.00 1054.00 288.00" xmlns="http://www.w3.org/2000/svg" xmlns:xlink="http://www.w3.org/1999/xlink">
<g id="graph1" class="graph" transform="scale(1 1) rotate(0) translate(4 284)">
<title>UBDocumentController::TreeViewSelectionChanged</title>
<polygon fill="white" stroke="white" points="-4,5 -4,-284 1051,-284 1051,5 -4,5"/>
<!-- Node1 -->
<g id="node1" class="node"><title>Node1</title>
<polygon fill="#bfbfbf" stroke="black" points="0.5,-180 0.5,-214 143.5,-214 143.5,-180 0.5,-180"/>
<text text-anchor="start" x="8.5" y="-201" font-family="Helvetica,sans-Serif" font-size="10.00">UBDocumentController</text>
<text text-anchor="middle" x="72" y="-188" font-family="Helvetica,sans-Serif" font-size="10.00">::TreeViewSelectionChanged</text>
</g>
<!-- Node2 -->
<g id="node3" class="node"><title>Node2</title>
<a xlink:href="../../d6/de0/class_u_b_document_controller.html#a352821e8f64af5a796be4b70da70a0ef" target="_top" xlink:title="UBDocumentController\l::TreeViewSelectionChanged">
<polygon fill="white" stroke="black" points="180.5,-246 180.5,-280 323.5,-280 323.5,-246 180.5,-246"/>
<text text-anchor="start" x="188.5" y="-267" font-family="Helvetica,sans-Serif" font-size="10.00">UBDocumentController</text>
<text text-anchor="middle" x="252" y="-254" font-family="Helvetica,sans-Serif" font-size="10.00">::TreeViewSelectionChanged</text>
</a>
</g>
<!-- Node1&#45;&gt;Node2 -->
<g id="edge2" class="edge"><title>Node1&#45;&gt;Node2</title>
<path fill="none" stroke="midnightblue" d="M128.45,-217.698C153.201,-226.774 181.904,-237.298 205.411,-245.918"/>
<polygon fill="midnightblue" stroke="midnightblue" points="129.417,-214.325 118.823,-214.168 127.007,-220.897 129.417,-214.325"/>
</g>
<!-- Node3 -->
<g id="node5" class="node"><title>Node3</title>
<a xlink:href="../../d6/de0/class_u_b_document_controller.html#abb172787a34a34cd3c2df0a1b46918c5" target="_top" xlink:title="UBDocumentController\l::setupViews">
<polygon fill="white" stroke="black" points="708,-156 708,-190 826,-190 826,-156 708,-156"/>
<text text-anchor="start" x="716" y="-177" font-family="Helvetica,sans-Serif" font-size="10.00">UBDocumentController</text>
<text text-anchor="middle" x="767" y="-164" font-family="Helvetica,sans-Serif" font-size="10.00">::setupViews</text>
</a>
</g>
<!-- Node1&#45;&gt;Node3 -->
<g id="edge4" class="edge"><title>Node1&#45;&gt;Node3</title>
<path fill="none" stroke="midnightblue" d="M154.177,-203.316C266.554,-210.58 474.286,-219.107 650,-199 669.019,-196.824 689.479,-192.854 707.888,-188.66"/>
<polygon fill="midnightblue" stroke="midnightblue" points="154.143,-199.806 143.935,-202.64 153.682,-206.791 154.143,-199.806"/>
</g>
<!-- Node5 -->
<g id="node9" class="node"><title>Node5</title>
<a xlink:href="../../d6/de0/class_u_b_document_controller.html#ac1b62fab6ca258f324a5324f550dddb3" target="_top" xlink:title="UBDocumentController\l::documentSceneChanged">
<polygon fill="white" stroke="black" points="518,-156 518,-190 650,-190 650,-156 518,-156"/>
<text text-anchor="start" x="526" y="-177" font-family="Helvetica,sans-Serif" font-size="10.00">UBDocumentController</text>
<text text-anchor="middle" x="584" y="-164" font-family="Helvetica,sans-Serif" font-size="10.00">::documentSceneChanged</text>
</a>
</g>
<!-- Node1&#45;&gt;Node5 -->
<g id="edge8" class="edge"><title>Node1&#45;&gt;Node5</title>
<path fill="none" stroke="midnightblue" d="M153.882,-193.162C254.821,-188.43 424.408,-180.481 517.63,-176.111"/>
<polygon fill="midnightblue" stroke="midnightblue" points="153.556,-189.673 143.731,-193.638 153.883,-196.665 153.556,-189.673"/>
</g>
<!-- Node6 -->
<g id="node12" class="node"><title>Node6</title>
<a xlink:href="../../d0/dd5/class_u_b_persistence_manager.html#a02050499f8179287038922f42ddf2e17" target="_top" xlink:title="UBPersistenceManager\l::copyDocumentScene">
<polygon fill="white" stroke="black" points="192,-78 192,-112 312,-112 312,-78 192,-78"/>
<text text-anchor="start" x="200" y="-99" font-family="Helvetica,sans-Serif" font-size="10.00">UBPersistenceManager</text>
<text text-anchor="middle" x="252" y="-86" font-family="Helvetica,sans-Serif" font-size="10.00">::copyDocumentScene</text>
</a>
</g>
<!-- Node1&#45;&gt;Node6 -->
<g id="edge12" class="edge"><title>Node1&#45;&gt;Node6</title>
<path fill="none" stroke="midnightblue" d="M111.11,-174.837C144.344,-156.005 191.366,-129.359 221.774,-112.128"/>
<polygon fill="midnightblue" stroke="midnightblue" points="109.103,-171.952 102.128,-179.927 112.554,-178.042 109.103,-171.952"/>
</g>
<!-- Node4 -->
<g id="node7" class="node"><title>Node4</title>
<a xlink:href="../../d6/de0/class_u_b_document_controller.html#a38e9ea0a2dad2b1c8d9588563e9ee3bf" target="_top" xlink:title="UBDocumentController\l::UBDocumentController">
<polygon fill="white" stroke="black" points="903,-156 903,-190 1027,-190 1027,-156 903,-156"/>
<text text-anchor="start" x="911" y="-177" font-family="Helvetica,sans-Serif" font-size="10.00">UBDocumentController</text>
<text text-anchor="middle" x="965" y="-164" font-family="Helvetica,sans-Serif" font-size="10.00">::UBDocumentController</text>
</a>
</g>
<!-- Node3&#45;&gt;Node4 -->
<g id="edge6" class="edge"><title>Node3&#45;&gt;Node4</title>
<path fill="none" stroke="midnightblue" d="M836.241,-173C857.876,-173 881.602,-173 902.727,-173"/>
<polygon fill="midnightblue" stroke="midnightblue" points="836.138,-169.5 826.138,-173 836.138,-176.5 836.138,-169.5"/>
</g>
<!-- Node5&#45;&gt;Node3 -->
<g id="edge10" class="edge"><title>Node5&#45;&gt;Node3</title>
<path fill="none" stroke="midnightblue" d="M660.353,-173C676.172,-173 692.612,-173 707.712,-173"/>
<polygon fill="midnightblue" stroke="midnightblue" points="660.067,-169.5 650.067,-173 660.067,-176.5 660.067,-169.5"/>
</g>
<!-- Node7 -->
<g id="node14" class="node"><title>Node7</title>
<a xlink:href="../../da/dc6/class_u_b_document_container.html#aedf080a092dceadc66b0994b0bf156fe" target="_top" xlink:title="UBDocumentContainer\l::duplicatePages">
<polygon fill="white" stroke="black" points="362,-104 362,-138 480,-138 480,-104 362,-104"/>
<text text-anchor="start" x="370" y="-125" font-family="Helvetica,sans-Serif" font-size="10.00">UBDocumentContainer</text>
<text text-anchor="middle" x="421" y="-112" font-family="Helvetica,sans-Serif" font-size="10.00">::duplicatePages</text>
</a>
</g>
<!-- Node6&#45;&gt;Node7 -->
<g id="edge14" class="edge"><title>Node6&#45;&gt;Node7</title>
<path fill="none" stroke="midnightblue" d="M322.085,-105.782C335.351,-107.823 349.105,-109.939 361.987,-111.921"/>
<polygon fill="midnightblue" stroke="midnightblue" points="322.475,-102.301 312.059,-104.24 321.41,-109.22 322.475,-102.301"/>
</g>
<!-- Node12 -->
<g id="node25" class="node"><title>Node12</title>
<a xlink:href="../../dd/d5a/class_u_b_document_tree_model.html#af71ae3d84f577bbee154dea3eb0fad66" target="_top" xlink:title="UBDocumentTreeModel\l::dropMimeData">
<polygon fill="white" stroke="black" points="360,-52 360,-86 482,-86 482,-52 360,-52"/>
<text text-anchor="start" x="368" y="-73" font-family="Helvetica,sans-Serif" font-size="10.00">UBDocumentTreeModel</text>
<text text-anchor="middle" x="421" y="-60" font-family="Helvetica,sans-Serif" font-size="10.00">::dropMimeData</text>
</a>
</g>
<!-- Node6&#45;&gt;Node12 -->
<g id="edge26" class="edge"><title>Node6&#45;&gt;Node12</title>
<path fill="none" stroke="midnightblue" d="M322.044,-84.224C334.641,-82.286 347.679,-80.2801 359.995,-78.3854"/>
<polygon fill="midnightblue" stroke="midnightblue" points="321.41,-80.7802 312.059,-85.7602 322.475,-87.6988 321.41,-80.7802"/>
</g>
<!-- Node13 -->
<g id="node27" class="node"><title>Node13</title>
<a xlink:href="../../da/d16/class_u_b_document_tree_view.html#a8364df11d6b3285ea0684673801b0b6c" target="_top" xlink:title="UBDocumentTreeView\l::dropEvent">
<polygon fill="white" stroke="black" points="362.5,-0 362.5,-34 479.5,-34 479.5,-0 362.5,-0"/>
<text text-anchor="start" x="370.5" y="-21" font-family="Helvetica,sans-Serif" font-size="10.00">UBDocumentTreeView</text>
<text text-anchor="middle" x="421" y="-8" font-family="Helvetica,sans-Serif" font-size="10.00">::dropEvent</text>
</a>
</g>
<!-- Node6&#45;&gt;Node13 -->
<g id="edge28" class="edge"><title>Node6&#45;&gt;Node13</title>
<path fill="none" stroke="midnightblue" d="M295.355,-73.566C314.995,-64.0013 338.567,-52.7212 360,-43 366.5,-40.0517 373.43,-37.0065 380.199,-34.0842"/>
<polygon fill="midnightblue" stroke="midnightblue" points="293.793,-70.4338 286.344,-77.9682 296.866,-76.7233 293.793,-70.4338"/>
</g>
<!-- Node8 -->
<g id="node16" class="node"><title>Node8</title>
<a xlink:href="../../d7/d62/class_u_b_board_controller.html#ae84d5e3160402f05efcf708a8b81ba36" target="_top" xlink:title="UBBoardController:\l:duplicateScene">
<polygon fill="white" stroke="black" points="533.5,-52 533.5,-86 634.5,-86 634.5,-52 533.5,-52"/>
<text text-anchor="start" x="541.5" y="-73" font-family="Helvetica,sans-Serif" font-size="10.00">UBBoardController:</text>
<text text-anchor="middle" x="584" y="-60" font-family="Helvetica,sans-Serif" font-size="10.00">:duplicateScene</text>
</a>
</g>
<!-- Node7&#45;&gt;Node8 -->
<g id="edge16" class="edge"><title>Node7&#45;&gt;Node8</title>
<path fill="none" stroke="midnightblue" d="M484.319,-100.8C500.543,-95.6243 517.78,-90.1253 533.277,-85.1814"/>
<polygon fill="midnightblue" stroke="midnightblue" points="482.835,-97.5995 474.372,-103.973 484.963,-104.268 482.835,-97.5995"/>
</g>
<!-- Node11 -->
<g id="node22" class="node"><title>Node11</title>
<a xlink:href="../../d6/de0/class_u_b_document_controller.html#a778970871dc49c20eb0812f352a65f75" target="_top" xlink:title="UBDocumentController\l::duplicateSelectedItem">
<polygon fill="white" stroke="black" points="524.5,-104 524.5,-138 643.5,-138 643.5,-104 524.5,-104"/>
<text text-anchor="start" x="532.5" y="-125" font-family="Helvetica,sans-Serif" font-size="10.00">UBDocumentController</text>
<text text-anchor="middle" x="584" y="-112" font-family="Helvetica,sans-Serif" font-size="10.00">::duplicateSelectedItem</text>
</a>
</g>
<!-- Node7&#45;&gt;Node11 -->
<g id="edge22" class="edge"><title>Node7&#45;&gt;Node11</title>
<path fill="none" stroke="midnightblue" d="M490.559,-121C501.845,-121 513.444,-121 524.463,-121"/>
<polygon fill="midnightblue" stroke="midnightblue" points="490.308,-117.5 480.308,-121 490.308,-124.5 490.308,-117.5"/>
</g>
<!-- Node9 -->
<g id="node18" class="node"><title>Node9</title>
<a xlink:href="../../da/d05/class_u_b_scene_thumbnail_navig_pixmap.html#af93b55042d19649ab98941b749f3cb01" target="_top" xlink:title="UBSceneThumbnailNavigPixmap\l::duplicatePage">
<polygon fill="white" stroke="black" points="686,-52 686,-86 848,-86 848,-52 686,-52"/>
<text text-anchor="start" x="694" y="-73" font-family="Helvetica,sans-Serif" font-size="10.00">UBSceneThumbnailNavigPixmap</text>
<text text-anchor="middle" x="767" y="-60" font-family="Helvetica,sans-Serif" font-size="10.00">::duplicatePage</text>
</a>
</g>
<!-- Node8&#45;&gt;Node9 -->
<g id="edge18" class="edge"><title>Node8&#45;&gt;Node9</title>
<path fill="none" stroke="midnightblue" d="M645.192,-69C658.207,-69 672.145,-69 685.774,-69"/>
<polygon fill="midnightblue" stroke="midnightblue" points="644.976,-65.5001 634.976,-69 644.976,-72.5001 644.976,-65.5001"/>
</g>
<!-- Node10 -->
<g id="node20" class="node"><title>Node10</title>
<a xlink:href="../../da/d05/class_u_b_scene_thumbnail_navig_pixmap.html#a05169f2d12b103609813345624877cd6" target="_top" xlink:title="UBSceneThumbnailNavigPixmap\l::mousePressEvent">
<polygon fill="white" stroke="black" points="884,-52 884,-86 1046,-86 1046,-52 884,-52"/>
<text text-anchor="start" x="892" y="-73" font-family="Helvetica,sans-Serif" font-size="10.00">UBSceneThumbnailNavigPixmap</text>
<text text-anchor="middle" x="965" y="-60" font-family="Helvetica,sans-Serif" font-size="10.00">::mousePressEvent</text>
</a>
</g>
<!-- Node9&#45;&gt;Node10 -->
<g id="edge20" class="edge"><title>Node9&#45;&gt;Node10</title>
<path fill="none" stroke="midnightblue" d="M858.363,-69C866.817,-69 875.346,-69 883.7,-69"/>
<polygon fill="midnightblue" stroke="midnightblue" points="858.106,-65.5001 848.105,-69 858.105,-72.5001 858.106,-65.5001"/>
</g>
<!-- Node11&#45;&gt;Node3 -->
<g id="edge24" class="edge"><title>Node11&#45;&gt;Node3</title>
<path fill="none" stroke="midnightblue" d="M653.46,-140.737C671.341,-145.818 690.415,-151.238 707.726,-156.157"/>
<polygon fill="midnightblue" stroke="midnightblue" points="654.244,-137.321 643.668,-137.955 652.33,-144.055 654.244,-137.321"/>
</g>
</g>
</svg>
