<?xml version="1.0" encoding="UTF-8" standalone="no"?>
<!DOCTYPE svg PUBLIC "-//W3C//DTD SVG 1.1//EN"
 "http://www.w3.org/Graphics/SVG/1.1/DTD/svg11.dtd">
<!-- Generated by graphviz version 2.26.3 (20100126.1600)
 -->
<!-- Title: UBDocumentController::selectedDocumentProxy Pages: 1 -->
<svg width="454pt" height="146pt"
 viewBox="0.00 0.00 454.00 146.00" xmlns="http://www.w3.org/2000/svg" xmlns:xlink="http://www.w3.org/1999/xlink">
<g id="graph1" class="graph" transform="scale(1 1) rotate(0) translate(4 142)">
<title>UBDocumentController::selectedDocumentProxy</title>
<polygon fill="white" stroke="white" points="-4,5 -4,-142 451,-142 451,5 -4,5"/>
<!-- Node1 -->
<g id="node1" class="node"><title>Node1</title>
<polygon fill="#bfbfbf" stroke="black" points="0,-52 0,-86 130,-86 130,-52 0,-52"/>
<text text-anchor="start" x="8" y="-73" font-family="Helvetica,sans-Serif" font-size="10.00">UBDocumentController</text>
<text text-anchor="middle" x="65" y="-60" font-family="Helvetica,sans-Serif" font-size="10.00">::selectedDocumentProxy</text>
</g>
<!-- Node2 -->
<g id="node3" class="node"><title>Node2</title>
<a xlink:href="../../d0/dd5/class_u_b_persistence_manager.html#ad8b7a880564523143d73c6b86d887769" target="_top" xlink:title="UBPersistenceManager\l::persistenceManager">
<polygon fill="white" stroke="black" points="167,-104 167,-138 287,-138 287,-104 167,-104"/>
<text text-anchor="start" x="175" y="-125" font-family="Helvetica,sans-Serif" font-size="10.00">UBPersistenceManager</text>
<text text-anchor="middle" x="227" y="-112" font-family="Helvetica,sans-Serif" font-size="10.00">::persistenceManager</text>
</a>
</g>
<!-- Node1&#45;&gt;Node2 -->
<g id="edge2" class="edge"><title>Node1&#45;&gt;Node2</title>
<path fill="none" stroke="midnightblue" d="M118.045,-86.0267C132.73,-90.7405 148.812,-95.9027 164.005,-100.779"/>
<polygon fill="midnightblue" stroke="midnightblue" points="163.245,-104.211 173.836,-103.935 165.384,-97.5461 163.245,-104.211"/>
</g>
<!-- Node3 -->
<g id="node5" class="node"><title>Node3</title>
<a xlink:href="../../dd/d5a/class_u_b_document_tree_model.html#adc9c453bae3eb78fdf3d63db4f16f3bd" target="_top" xlink:title="UBDocumentTreeModel\l::proxyForIndex">
<polygon fill="white" stroke="black" points="166,-52 166,-86 288,-86 288,-52 166,-52"/>
<text text-anchor="start" x="174" y="-73" font-family="Helvetica,sans-Serif" font-size="10.00">UBDocumentTreeModel</text>
<text text-anchor="middle" x="227" y="-60" font-family="Helvetica,sans-Serif" font-size="10.00">::proxyForIndex</text>
</a>
</g>
<!-- Node1&#45;&gt;Node3 -->
<g id="edge4" class="edge"><title>Node1&#45;&gt;Node3</title>
<path fill="none" stroke="midnightblue" d="M130.425,-69C138.728,-69 147.258,-69 155.648,-69"/>
<polygon fill="midnightblue" stroke="midnightblue" points="155.788,-72.5001 165.788,-69 155.788,-65.5001 155.788,-72.5001"/>
</g>
<!-- Node6 -->
<g id="node11" class="node"><title>Node6</title>
<a xlink:href="../../d6/de0/class_u_b_document_controller.html#ae66d6637a55e6b886c6c1e658f7f3eb2" target="_top" xlink:title="UBDocumentController\l::firstSelectedTreeIndex">
<polygon fill="white" stroke="black" points="166.5,-0 166.5,-34 287.5,-34 287.5,-0 166.5,-0"/>
<text text-anchor="start" x="174.5" y="-21" font-family="Helvetica,sans-Serif" font-size="10.00">UBDocumentController</text>
<text text-anchor="middle" x="227" y="-8" font-family="Helvetica,sans-Serif" font-size="10.00">::firstSelectedTreeIndex</text>
</a>
</g>
<!-- Node1&#45;&gt;Node6 -->
<g id="edge10" class="edge"><title>Node1&#45;&gt;Node6</title>
<path fill="none" stroke="midnightblue" d="M118.045,-51.9733C132.73,-47.2595 148.812,-42.0973 164.005,-37.2207"/>
<polygon fill="midnightblue" stroke="midnightblue" points="165.384,-40.4539 173.836,-34.065 163.245,-33.7888 165.384,-40.4539"/>
</g>
<!-- Node4 -->
<g id="node7" class="node"><title>Node4</title>
<a xlink:href="../../dd/d5a/class_u_b_document_tree_model.html#a09f526b235ed26f15429775ae8c9b08d" target="_top" xlink:title="UBDocumentTreeModel\l::nodeFromIndex">
<polygon fill="white" stroke="black" points="324,-104 324,-138 446,-138 446,-104 324,-104"/>
<text text-anchor="start" x="332" y="-125" font-family="Helvetica,sans-Serif" font-size="10.00">UBDocumentTreeModel</text>
<text text-anchor="middle" x="385" y="-112" font-family="Helvetica,sans-Serif" font-size="10.00">::nodeFromIndex</text>
</a>
</g>
<!-- Node3&#45;&gt;Node4 -->
<g id="edge6" class="edge"><title>Node3&#45;&gt;Node4</title>
<path fill="none" stroke="midnightblue" d="M278.735,-86.0267C293.058,-90.7405 308.743,-95.9027 323.56,-100.779"/>
<polygon fill="midnightblue" stroke="midnightblue" points="322.556,-104.133 333.149,-103.935 324.744,-97.4842 322.556,-104.133"/>
</g>
<!-- Node5 -->
<g id="node9" class="node"><title>Node5</title>
<a xlink:href="../../de/d8b/class_u_b_document_tree_node.html#a089338d403f60b36f8fc64b8e05f176f" target="_top" xlink:title="UBDocumentTreeNode\l::proxyData">
<polygon fill="white" stroke="black" points="325.5,-52 325.5,-86 444.5,-86 444.5,-52 325.5,-52"/>
<text text-anchor="start" x="333.5" y="-73" font-family="Helvetica,sans-Serif" font-size="10.00">UBDocumentTreeNode</text>
<text text-anchor="middle" x="385" y="-60" font-family="Helvetica,sans-Serif" font-size="10.00">::proxyData</text>
</a>
</g>
<!-- Node3&#45;&gt;Node5 -->
<g id="edge8" class="edge"><title>Node3&#45;&gt;Node5</title>
<path fill="none" stroke="midnightblue" d="M288.087,-69C296.983,-69 306.199,-69 315.251,-69"/>
<polygon fill="midnightblue" stroke="midnightblue" points="315.375,-72.5001 325.375,-69 315.375,-65.5001 315.375,-72.5001"/>
</g>
<!-- Node7 -->
<g id="node13" class="node"><title>Node7</title>
<a xlink:href="../../d6/de0/class_u_b_document_controller.html#a2f7342bf55f69cf7e3c569e25229fa1e" target="_top" xlink:title="UBDocumentController\l::selectedTreeIndexes">
<polygon fill="white" stroke="black" points="326,-0 326,-34 444,-34 444,-0 326,-0"/>
<text text-anchor="start" x="334" y="-21" font-family="Helvetica,sans-Serif" font-size="10.00">UBDocumentController</text>
<text text-anchor="middle" x="385" y="-8" font-family="Helvetica,sans-Serif" font-size="10.00">::selectedTreeIndexes</text>
</a>
</g>
<!-- Node6&#45;&gt;Node7 -->
<g id="edge12" class="edge"><title>Node6&#45;&gt;Node7</title>
<path fill="none" stroke="midnightblue" d="M287.635,-17C296.838,-17 306.393,-17 315.762,-17"/>
<polygon fill="midnightblue" stroke="midnightblue" points="315.83,-20.5001 325.83,-17 315.83,-13.5001 315.83,-20.5001"/>
</g>
</g>
</svg>
