<?xml version="1.0" encoding="UTF-8" standalone="no"?>
<!DOCTYPE svg PUBLIC "-//W3C//DTD SVG 1.1//EN"
 "http://www.w3.org/Graphics/SVG/1.1/DTD/svg11.dtd">
<!-- Generated by graphviz version 2.26.3 (20100126.1600)
 -->
<!-- Title: UBDocumentController::pageCanBeMovedDown Pages: 1 -->
<svg width="532pt" height="42pt"
 viewBox="0.00 0.00 532.00 42.00" xmlns="http://www.w3.org/2000/svg" xmlns:xlink="http://www.w3.org/1999/xlink">
<g id="graph1" class="graph" transform="scale(1 1) rotate(0) translate(4 38)">
<title>UBDocumentController::pageCanBeMovedDown</title>
<polygon fill="white" stroke="white" points="-4,5 -4,-38 529,-38 529,5 -4,5"/>
<!-- Node1 -->
<g id="node1" class="node"><title>Node1</title>
<polygon fill="#bfbfbf" stroke="black" points="0,-0 0,-34 128,-34 128,-0 0,-0"/>
<text text-anchor="start" x="8" y="-21" font-family="Helvetica,sans-Serif" font-size="10.00">UBDocumentController</text>
<text text-anchor="middle" x="64" y="-8" font-family="Helvetica,sans-Serif" font-size="10.00">::pageCanBeMovedDown</text>
</g>
<!-- Node2 -->
<g id="node3" class="node"><title>Node2</title>
<a xlink:href="../../da/d05/class_u_b_scene_thumbnail_navig_pixmap.html#a2e00995be889b4ae68554b0d47b397f3" target="_top" xlink:title="UBSceneThumbnailNavigPixmap\l::updateButtonsState">
<polygon fill="white" stroke="black" points="164,-0 164,-34 326,-34 326,-0 164,-0"/>
<text text-anchor="start" x="172" y="-21" font-family="Helvetica,sans-Serif" font-size="10.00">UBSceneThumbnailNavigPixmap</text>
<text text-anchor="middle" x="245" y="-8" font-family="Helvetica,sans-Serif" font-size="10.00">::updateButtonsState</text>
</a>
</g>
<!-- Node1&#45;&gt;Node2 -->
<g id="edge2" class="edge"><title>Node1&#45;&gt;Node2</title>
<path fill="none" stroke="midnightblue" d="M138.26,-17C146.712,-17 155.36,-17 163.894,-17"/>
<polygon fill="midnightblue" stroke="midnightblue" points="138.069,-13.5001 128.069,-17 138.069,-20.5001 138.069,-13.5001"/>
</g>
<!-- Node3 -->
<g id="node5" class="node"><title>Node3</title>
<a xlink:href="../../da/d05/class_u_b_scene_thumbnail_navig_pixmap.html#a820876b62047e9a436a27fa2b24df031" target="_top" xlink:title="UBSceneThumbnailNavigPixmap\l::hoverEnterEvent">
<polygon fill="white" stroke="black" points="362,-0 362,-34 524,-34 524,-0 362,-0"/>
<text text-anchor="start" x="370" y="-21" font-family="Helvetica,sans-Serif" font-size="10.00">UBSceneThumbnailNavigPixmap</text>
<text text-anchor="middle" x="443" y="-8" font-family="Helvetica,sans-Serif" font-size="10.00">::hoverEnterEvent</text>
</a>
</g>
<!-- Node2&#45;&gt;Node3 -->
<g id="edge4" class="edge"><title>Node2&#45;&gt;Node3</title>
<path fill="none" stroke="midnightblue" d="M336.363,-17C344.817,-17 353.346,-17 361.7,-17"/>
<polygon fill="midnightblue" stroke="midnightblue" points="336.106,-13.5001 326.105,-17 336.105,-20.5001 336.106,-13.5001"/>
</g>
</g>
</svg>
