<?xml version="1.0" encoding="UTF-8" standalone="no"?>
<!DOCTYPE svg PUBLIC "-//W3C//DTD SVG 1.1//EN"
 "http://www.w3.org/Graphics/SVG/1.1/DTD/svg11.dtd">
<!-- Generated by graphviz version 2.26.3 (20100126.1600)
 -->
<!-- Title: UBGraphicsScene::nominalSize Pages: 1 -->
<svg width="1266pt" height="212pt"
 viewBox="0.00 0.00 1266.00 212.00" xmlns="http://www.w3.org/2000/svg" xmlns:xlink="http://www.w3.org/1999/xlink">
<g id="graph1" class="graph" transform="scale(1 1) rotate(0) translate(4 208)">
<title>UBGraphicsScene::nominalSize</title>
<polygon fill="white" stroke="white" points="-4,5 -4,-208 1263,-208 1263,5 -4,5"/>
<!-- Node1 -->
<g id="node1" class="node"><title>Node1</title>
<polygon fill="#bfbfbf" stroke="black" points="0.5,-131.5 0.5,-152.5 157.5,-152.5 157.5,-131.5 0.5,-131.5"/>
<text text-anchor="middle" x="79" y="-139.5" font-family="Helvetica,sans-Serif" font-size="10.00">UBGraphicsScene::nominalSize</text>
</g>
<!-- Node2 -->
<g id="node3" class="node"><title>Node2</title>
<a xlink:href="../../de/db4/class_u_b_document_proxy.html#addf3e5100a1a6b16b13a6ca4ebf5b091" target="_top" xlink:title="UBDocumentProxy::default\lDocumentSize">
<polygon fill="white" stroke="black" points="194.5,-125 194.5,-159 331.5,-159 331.5,-125 194.5,-125"/>
<text text-anchor="start" x="202.5" y="-146" font-family="Helvetica,sans-Serif" font-size="10.00">UBDocumentProxy::default</text>
<text text-anchor="middle" x="263" y="-133" font-family="Helvetica,sans-Serif" font-size="10.00">DocumentSize</text>
</a>
</g>
<!-- Node1&#45;&gt;Node2 -->
<g id="edge2" class="edge"><title>Node1&#45;&gt;Node2</title>
<path fill="none" stroke="midnightblue" d="M157.566,-142C166.342,-142 175.284,-142 184.065,-142"/>
<polygon fill="midnightblue" stroke="midnightblue" points="184.278,-145.5 194.278,-142 184.278,-138.5 184.278,-145.5"/>
</g>
<!-- Node3 -->
<g id="node5" class="node"><title>Node3</title>
<a xlink:href="../../de/db4/class_u_b_document_proxy.html#aba93539ec11aad9eb4156cb4edf246ba" target="_top" xlink:title="UBDocumentProxy::metaData">
<polygon fill="white" stroke="black" points="368,-171.5 368,-192.5 518,-192.5 518,-171.5 368,-171.5"/>
<text text-anchor="middle" x="443" y="-179.5" font-family="Helvetica,sans-Serif" font-size="10.00">UBDocumentProxy::metaData</text>
</a>
</g>
<!-- Node2&#45;&gt;Node3 -->
<g id="edge4" class="edge"><title>Node2&#45;&gt;Node3</title>
<path fill="none" stroke="midnightblue" d="M331.564,-157.236C349.42,-161.204 368.471,-165.438 385.678,-169.262"/>
<polygon fill="midnightblue" stroke="midnightblue" points="385.053,-172.708 395.574,-171.461 386.571,-165.875 385.053,-172.708"/>
</g>
<!-- Node4 -->
<g id="node7" class="node"><title>Node4</title>
<a xlink:href="../../db/d66/class_u_b_settings.html#a0d8ed418921c2b2d37851faeae00715d" target="_top" xlink:title="UBSettings::settings">
<polygon fill="white" stroke="black" points="389.5,-131.5 389.5,-152.5 496.5,-152.5 496.5,-131.5 389.5,-131.5"/>
<text text-anchor="middle" x="443" y="-139.5" font-family="Helvetica,sans-Serif" font-size="10.00">UBSettings::settings</text>
</a>
</g>
<!-- Node2&#45;&gt;Node4 -->
<g id="edge6" class="edge"><title>Node2&#45;&gt;Node4</title>
<path fill="none" stroke="midnightblue" d="M331.564,-142C347.293,-142 363.95,-142 379.457,-142"/>
<polygon fill="midnightblue" stroke="midnightblue" points="379.46,-145.5 389.46,-142 379.46,-138.5 379.46,-145.5"/>
</g>
<!-- Node14 -->
<g id="node28" class="node"><title>Node14</title>
<a xlink:href="../../d7/d24/class_u_b_setting.html#afe671b284dd9f1e313e6f27df3ecd2a8" target="_top" xlink:title="UBSetting::get">
<polygon fill="white" stroke="black" points="402.5,-91.5 402.5,-112.5 483.5,-112.5 483.5,-91.5 402.5,-91.5"/>
<text text-anchor="middle" x="443" y="-99.5" font-family="Helvetica,sans-Serif" font-size="10.00">UBSetting::get</text>
</a>
</g>
<!-- Node2&#45;&gt;Node14 -->
<g id="edge28" class="edge"><title>Node2&#45;&gt;Node14</title>
<path fill="none" stroke="midnightblue" d="M331.564,-126.764C351.776,-122.272 373.519,-117.44 392.386,-113.248"/>
<polygon fill="midnightblue" stroke="midnightblue" points="393.251,-116.641 402.254,-111.055 391.732,-109.807 393.251,-116.641"/>
</g>
<!-- Node5 -->
<g id="node9" class="node"><title>Node5</title>
<a xlink:href="../../db/d66/class_u_b_settings.html#ad703e9b5a7efdb68b9c6ecef0df7cce2" target="_top" xlink:title="UBSettings::UBSettings">
<polygon fill="white" stroke="black" points="554.5,-131.5 554.5,-152.5 677.5,-152.5 677.5,-131.5 554.5,-131.5"/>
<text text-anchor="middle" x="616" y="-139.5" font-family="Helvetica,sans-Serif" font-size="10.00">UBSettings::UBSettings</text>
</a>
</g>
<!-- Node4&#45;&gt;Node5 -->
<g id="edge8" class="edge"><title>Node4&#45;&gt;Node5</title>
<path fill="none" stroke="midnightblue" d="M496.79,-142C511.761,-142 528.266,-142 544.098,-142"/>
<polygon fill="midnightblue" stroke="midnightblue" points="544.382,-145.5 554.382,-142 544.382,-138.5 544.382,-145.5"/>
</g>
<!-- Node6 -->
<g id="node11" class="node"><title>Node6</title>
<a xlink:href="../../db/d66/class_u_b_settings.html#afd0d739b2cfac7e2d05be7415f6692df" target="_top" xlink:title="UBSettings::InitKeyboard\lPaletteKeyBtnSizes">
<polygon fill="white" stroke="black" points="726,-170 726,-204 854,-204 854,-170 726,-170"/>
<text text-anchor="start" x="734" y="-191" font-family="Helvetica,sans-Serif" font-size="10.00">UBSettings::InitKeyboard</text>
<text text-anchor="middle" x="790" y="-178" font-family="Helvetica,sans-Serif" font-size="10.00">PaletteKeyBtnSizes</text>
</a>
</g>
<!-- Node5&#45;&gt;Node6 -->
<g id="edge10" class="edge"><title>Node5&#45;&gt;Node6</title>
<path fill="none" stroke="midnightblue" d="M656.795,-152.551C674.491,-157.127 695.78,-162.633 716.094,-167.886"/>
<polygon fill="midnightblue" stroke="midnightblue" points="715.411,-171.325 725.968,-170.44 717.163,-164.548 715.411,-171.325"/>
</g>
<!-- Node7 -->
<g id="node13" class="node"><title>Node7</title>
<a xlink:href="../../db/d66/class_u_b_settings.html#a2d3413f8b25d64a698d6d83e0f18ff39" target="_top" xlink:title="UBSettings::getAppSettings">
<polygon fill="white" stroke="black" points="904,-132.5 904,-153.5 1044,-153.5 1044,-132.5 904,-132.5"/>
<text text-anchor="middle" x="974" y="-140.5" font-family="Helvetica,sans-Serif" font-size="10.00">UBSettings::getAppSettings</text>
</a>
</g>
<!-- Node5&#45;&gt;Node7 -->
<g id="edge12" class="edge"><title>Node5&#45;&gt;Node7</title>
<path fill="none" stroke="midnightblue" d="M677.542,-142.172C737.223,-142.339 828.094,-142.592 893.493,-142.775"/>
<polygon fill="midnightblue" stroke="midnightblue" points="893.752,-146.276 903.762,-142.804 893.772,-139.276 893.752,-146.276"/>
</g>
<!-- Node9 -->
<g id="node17" class="node"><title>Node9</title>
<a xlink:href="../../db/d66/class_u_b_settings.html#af38d2ad231149df734ca7b5486356500" target="_top" xlink:title="UBSettings::userDataDirectory">
<polygon fill="white" stroke="black" points="714,-92.5 714,-113.5 866,-113.5 866,-92.5 714,-92.5"/>
<text text-anchor="middle" x="790" y="-100.5" font-family="Helvetica,sans-Serif" font-size="10.00">UBSettings::userDataDirectory</text>
</a>
</g>
<!-- Node5&#45;&gt;Node9 -->
<g id="edge16" class="edge"><title>Node5&#45;&gt;Node9</title>
<path fill="none" stroke="midnightblue" d="M663.087,-131.446C684.654,-126.612 710.4,-120.841 733.048,-115.765"/>
<polygon fill="midnightblue" stroke="midnightblue" points="733.883,-119.165 742.875,-113.562 732.352,-112.334 733.883,-119.165"/>
</g>
<!-- Node8 -->
<g id="node15" class="node"><title>Node8</title>
<a xlink:href="../../d4/d99/class_u_b_platform_utils.html#ae595b29e794b20564550fd45515fc0a8" target="_top" xlink:title="UBPlatformUtils::application\lResourcesDirectory">
<polygon fill="white" stroke="black" points="1100,-129 1100,-163 1240,-163 1240,-129 1100,-129"/>
<text text-anchor="start" x="1108" y="-150" font-family="Helvetica,sans-Serif" font-size="10.00">UBPlatformUtils::application</text>
<text text-anchor="middle" x="1170" y="-137" font-family="Helvetica,sans-Serif" font-size="10.00">ResourcesDirectory</text>
</a>
</g>
<!-- Node7&#45;&gt;Node8 -->
<g id="edge14" class="edge"><title>Node7&#45;&gt;Node8</title>
<path fill="none" stroke="midnightblue" d="M1044.21,-144.075C1058.93,-144.3 1074.57,-144.539 1089.64,-144.77"/>
<polygon fill="midnightblue" stroke="midnightblue" points="1089.9,-148.274 1099.95,-144.928 1090.01,-141.275 1089.9,-148.274"/>
</g>
<!-- Node9&#45;&gt;Node7 -->
<g id="edge18" class="edge"><title>Node9&#45;&gt;Node7</title>
<path fill="none" stroke="midnightblue" d="M838.344,-113.51C862.02,-118.657 890.719,-124.895 915.611,-130.307"/>
<polygon fill="midnightblue" stroke="midnightblue" points="915.145,-133.787 925.66,-132.491 916.632,-126.947 915.145,-133.787"/>
</g>
<!-- Node10 -->
<g id="node20" class="node"><title>Node10</title>
<a xlink:href="../../db/d66/class_u_b_settings.html#aea5fec9db96c03162c2ce1d5d4c41ab0" target="_top" xlink:title="UBSettings::replaceWildcard">
<polygon fill="white" stroke="black" points="902.5,-92.5 902.5,-113.5 1045.5,-113.5 1045.5,-92.5 902.5,-92.5"/>
<text text-anchor="middle" x="974" y="-100.5" font-family="Helvetica,sans-Serif" font-size="10.00">UBSettings::replaceWildcard</text>
</a>
</g>
<!-- Node9&#45;&gt;Node10 -->
<g id="edge20" class="edge"><title>Node9&#45;&gt;Node10</title>
<path fill="none" stroke="midnightblue" d="M866.168,-103C874.766,-103 883.555,-103 892.221,-103"/>
<polygon fill="midnightblue" stroke="midnightblue" points="892.319,-106.5 902.319,-103 892.319,-99.5001 892.319,-106.5"/>
</g>
<!-- Node12 -->
<g id="node24" class="node"><title>Node12</title>
<a xlink:href="../../db/d66/class_u_b_settings.html#ac0b3c85870c353e48b7d2cfdff9e0eaa" target="_top" xlink:title="UBSettings::checkDirectory">
<polygon fill="white" stroke="black" points="904.5,-52.5 904.5,-73.5 1043.5,-73.5 1043.5,-52.5 904.5,-52.5"/>
<text text-anchor="middle" x="974" y="-60.5" font-family="Helvetica,sans-Serif" font-size="10.00">UBSettings::checkDirectory</text>
</a>
</g>
<!-- Node9&#45;&gt;Node12 -->
<g id="edge24" class="edge"><title>Node9&#45;&gt;Node12</title>
<path fill="none" stroke="midnightblue" d="M838.344,-92.4905C862.02,-87.3434 890.719,-81.1046 915.611,-75.6933"/>
<polygon fill="midnightblue" stroke="midnightblue" points="916.632,-79.0532 925.66,-73.5087 915.145,-72.213 916.632,-79.0532"/>
</g>
<!-- Node13 -->
<g id="node26" class="node"><title>Node13</title>
<a xlink:href="../../d2/d7a/class_u_b_file_system_utils.html#af850f64fdd630fc78510c856f00ffa4f" target="_top" xlink:title="UBFileSystemUtils:\l:normalizeFilePath">
<polygon fill="white" stroke="black" points="922,-0 922,-34 1026,-34 1026,-0 922,-0"/>
<text text-anchor="start" x="930" y="-21" font-family="Helvetica,sans-Serif" font-size="10.00">UBFileSystemUtils:</text>
<text text-anchor="middle" x="974" y="-8" font-family="Helvetica,sans-Serif" font-size="10.00">:normalizeFilePath</text>
</a>
</g>
<!-- Node9&#45;&gt;Node13 -->
<g id="edge26" class="edge"><title>Node9&#45;&gt;Node13</title>
<path fill="none" stroke="midnightblue" d="M807.83,-92.4031C829.596,-79.7134 867.746,-58.2628 902,-43 905.892,-41.2657 909.939,-39.558 914.04,-37.8974"/>
<polygon fill="midnightblue" stroke="midnightblue" points="915.634,-41.0316 923.662,-34.1179 913.075,-34.5162 915.634,-41.0316"/>
</g>
<!-- Node11 -->
<g id="node22" class="node"><title>Node11</title>
<a xlink:href="../../d4/d99/class_u_b_platform_utils.html#a4ff6063df12b6d4d0c60c1a17b434599" target="_top" xlink:title="UBPlatformUtils::osUserLoginName">
<polygon fill="white" stroke="black" points="1082.5,-89.5 1082.5,-110.5 1257.5,-110.5 1257.5,-89.5 1082.5,-89.5"/>
<text text-anchor="middle" x="1170" y="-97.5" font-family="Helvetica,sans-Serif" font-size="10.00">UBPlatformUtils::osUserLoginName</text>
</a>
</g>
<!-- Node10&#45;&gt;Node11 -->
<g id="edge22" class="edge"><title>Node10&#45;&gt;Node11</title>
<path fill="none" stroke="midnightblue" d="M1045.59,-101.904C1054.25,-101.772 1063.21,-101.635 1072.17,-101.497"/>
<polygon fill="midnightblue" stroke="midnightblue" points="1072.32,-104.996 1082.26,-101.343 1072.21,-97.9965 1072.32,-104.996"/>
</g>
<!-- Node15 -->
<g id="node30" class="node"><title>Node15</title>
<a xlink:href="../../db/d66/class_u_b_settings.html#a30f5b15068954099f41c054979593275" target="_top" xlink:title="UBSettings::value">
<polygon fill="white" stroke="black" points="568,-91.5 568,-112.5 664,-112.5 664,-91.5 568,-91.5"/>
<text text-anchor="middle" x="616" y="-99.5" font-family="Helvetica,sans-Serif" font-size="10.00">UBSettings::value</text>
</a>
</g>
<!-- Node14&#45;&gt;Node15 -->
<g id="edge30" class="edge"><title>Node14&#45;&gt;Node15</title>
<path fill="none" stroke="midnightblue" d="M483.561,-102C505.582,-102 533.2,-102 557.509,-102"/>
<polygon fill="midnightblue" stroke="midnightblue" points="557.699,-105.5 567.698,-102 557.698,-98.5001 557.699,-105.5"/>
</g>
</g>
</svg>
