<?xml version="1.0" encoding="UTF-8" standalone="no"?>
<!DOCTYPE svg PUBLIC "-//W3C//DTD SVG 1.1//EN"
 "http://www.w3.org/Graphics/SVG/1.1/DTD/svg11.dtd">
<!-- Generated by graphviz version 2.26.3 (20100126.1600)
 -->
<!-- Title: UBGraphicsScene::drawEraser Pages: 1 -->
<svg width="998pt" height="146pt"
 viewBox="0.00 0.00 998.00 146.00" xmlns="http://www.w3.org/2000/svg" xmlns:xlink="http://www.w3.org/1999/xlink">
<g id="graph1" class="graph" transform="scale(1 1) rotate(0) translate(4 142)">
<title>UBGraphicsScene::drawEraser</title>
<polygon fill="white" stroke="white" points="-4,5 -4,-142 995,-142 995,5 -4,5"/>
<!-- Node1 -->
<g id="node1" class="node"><title>Node1</title>
<polygon fill="#bfbfbf" stroke="black" points="0.5,-61.5 0.5,-82.5 153.5,-82.5 153.5,-61.5 0.5,-61.5"/>
<text text-anchor="middle" x="77" y="-69.5" font-family="Helvetica,sans-Serif" font-size="10.00">UBGraphicsScene::drawEraser</text>
</g>
<!-- Node2 -->
<g id="node3" class="node"><title>Node2</title>
<a xlink:href="../../dc/db2/class_u_b_graphics_scene.html#aa7b9011c76710841c644801d235ae3f2" target="_top" xlink:title="UBGraphicsScene::inputDevice\lPress">
<polygon fill="white" stroke="black" points="410.5,-78 410.5,-112 565.5,-112 565.5,-78 410.5,-78"/>
<text text-anchor="start" x="418.5" y="-99" font-family="Helvetica,sans-Serif" font-size="10.00">UBGraphicsScene::inputDevice</text>
<text text-anchor="middle" x="488" y="-86" font-family="Helvetica,sans-Serif" font-size="10.00">Press</text>
</a>
</g>
<!-- Node1&#45;&gt;Node2 -->
<g id="edge2" class="edge"><title>Node1&#45;&gt;Node2</title>
<path fill="none" stroke="midnightblue" d="M163.901,-76.8631C236.787,-80.9419 339.937,-86.7142 410.157,-90.6438"/>
<polygon fill="midnightblue" stroke="midnightblue" points="164.004,-73.3634 153.824,-76.2991 163.613,-80.3525 164.004,-73.3634"/>
</g>
<!-- Node8 -->
<g id="node16" class="node"><title>Node8</title>
<a xlink:href="../../dc/db2/class_u_b_graphics_scene.html#a9354a46739a316286901ebd12b2bcf1b" target="_top" xlink:title="UBGraphicsScene::inputDeviceMove">
<polygon fill="white" stroke="black" points="190.5,-40.5 190.5,-61.5 369.5,-61.5 369.5,-40.5 190.5,-40.5"/>
<text text-anchor="middle" x="280" y="-48.5" font-family="Helvetica,sans-Serif" font-size="10.00">UBGraphicsScene::inputDeviceMove</text>
</a>
</g>
<!-- Node1&#45;&gt;Node8 -->
<g id="edge16" class="edge"><title>Node1&#45;&gt;Node8</title>
<path fill="none" stroke="midnightblue" d="M163.886,-63.0118C172.596,-62.1108 181.451,-61.1947 190.19,-60.2907"/>
<polygon fill="midnightblue" stroke="midnightblue" points="163.332,-59.5503 153.746,-64.0608 164.053,-66.5131 163.332,-59.5503"/>
</g>
<!-- Node3 -->
<g id="node5" class="node"><title>Node3</title>
<a xlink:href="../../d1/d78/class_u_b_board_view.html#ad5109e5f034af7b194f4dc6606fe16e6" target="_top" xlink:title="UBBoardView::tabletEvent">
<polygon fill="white" stroke="black" points="632,-42.5 632,-63.5 766,-63.5 766,-42.5 632,-42.5"/>
<text text-anchor="middle" x="699" y="-50.5" font-family="Helvetica,sans-Serif" font-size="10.00">UBBoardView::tabletEvent</text>
</a>
</g>
<!-- Node2&#45;&gt;Node3 -->
<g id="edge4" class="edge"><title>Node2&#45;&gt;Node3</title>
<path fill="none" stroke="midnightblue" d="M575.502,-77.5825C599.5,-72.8056 624.779,-67.7739 646.171,-63.5158"/>
<polygon fill="midnightblue" stroke="midnightblue" points="574.794,-74.1547 565.67,-79.5397 576.161,-81.02 574.794,-74.1547"/>
</g>
<!-- Node4 -->
<g id="node7" class="node"><title>Node4</title>
<a xlink:href="../../d1/d78/class_u_b_board_view.html#a6fc3391590c435e0ae26c43d2bd76d14" target="_top" xlink:title="UBBoardView::mousePressEvent">
<polygon fill="white" stroke="black" points="617,-84.5 617,-105.5 781,-105.5 781,-84.5 617,-84.5"/>
<text text-anchor="middle" x="699" y="-92.5" font-family="Helvetica,sans-Serif" font-size="10.00">UBBoardView::mousePressEvent</text>
</a>
</g>
<!-- Node2&#45;&gt;Node4 -->
<g id="edge6" class="edge"><title>Node2&#45;&gt;Node4</title>
<path fill="none" stroke="midnightblue" d="M575.946,-95C589.506,-95 603.464,-95 616.89,-95"/>
<polygon fill="midnightblue" stroke="midnightblue" points="575.67,-91.5001 565.67,-95 575.67,-98.5001 575.67,-91.5001"/>
</g>
<!-- Node5 -->
<g id="node9" class="node"><title>Node5</title>
<a xlink:href="../../d1/d78/class_u_b_board_view.html#a1818c4d69a09adc9bb98079d2210564d" target="_top" xlink:title="UBBoardView::handleItemMouse\lPress">
<polygon fill="white" stroke="black" points="828.5,-104 828.5,-138 989.5,-138 989.5,-104 828.5,-104"/>
<text text-anchor="start" x="836.5" y="-125" font-family="Helvetica,sans-Serif" font-size="10.00">UBBoardView::handleItemMouse</text>
<text text-anchor="middle" x="909" y="-112" font-family="Helvetica,sans-Serif" font-size="10.00">Press</text>
</a>
</g>
<!-- Node4&#45;&gt;Node5 -->
<g id="edge8" class="edge"><title>Node4&#45;&gt;Node5</title>
<path fill="none" stroke="midnightblue" d="M791.371,-99.73C803.69,-101.17 816.244,-102.764 828.342,-104.428"/>
<polygon fill="midnightblue" stroke="midnightblue" points="791.426,-96.2137 781.094,-98.5588 790.633,-103.169 791.426,-96.2137"/>
</g>
<!-- Node6 -->
<g id="node12" class="node"><title>Node6</title>
<a xlink:href="../../d1/d78/class_u_b_board_view.html#acc4206bbb27829580a337c81708be4a3" target="_top" xlink:title="UBBoardView::mouseRelease\lEvent">
<polygon fill="white" stroke="black" points="834.5,-52 834.5,-86 983.5,-86 983.5,-52 834.5,-52"/>
<text text-anchor="start" x="842.5" y="-73" font-family="Helvetica,sans-Serif" font-size="10.00">UBBoardView::mouseRelease</text>
<text text-anchor="middle" x="909" y="-60" font-family="Helvetica,sans-Serif" font-size="10.00">Event</text>
</a>
</g>
<!-- Node4&#45;&gt;Node6 -->
<g id="edge12" class="edge"><title>Node4&#45;&gt;Node6</title>
<path fill="none" stroke="midnightblue" d="M791.075,-83.6002C805.591,-81.8031 820.44,-79.9645 834.492,-78.2247"/>
<polygon fill="midnightblue" stroke="midnightblue" points="790.588,-80.1337 781.094,-84.836 791.448,-87.0807 790.588,-80.1337"/>
</g>
<!-- Node7 -->
<g id="node14" class="node"><title>Node7</title>
<a xlink:href="../../d1/d78/class_u_b_board_view.html#a43eb1207291905e9daa7c618a3c203bb" target="_top" xlink:title="UBBoardView::mouseDouble\lClickEvent">
<polygon fill="white" stroke="black" points="837,-0 837,-34 981,-34 981,-0 837,-0"/>
<text text-anchor="start" x="845" y="-21" font-family="Helvetica,sans-Serif" font-size="10.00">UBBoardView::mouseDouble</text>
<text text-anchor="middle" x="909" y="-8" font-family="Helvetica,sans-Serif" font-size="10.00">ClickEvent</text>
</a>
</g>
<!-- Node4&#45;&gt;Node7 -->
<g id="edge14" class="edge"><title>Node4&#45;&gt;Node7</title>
<path fill="none" stroke="midnightblue" d="M771.268,-81.4413C778.437,-79.0557 785.47,-76.2639 792,-73 810.63,-63.6882 809.749,-53.0339 828,-43 834.083,-39.6558 840.662,-36.6632 847.351,-34.0058"/>
<polygon fill="midnightblue" stroke="midnightblue" points="769.979,-78.1756 761.441,-84.4489 772.027,-84.8692 769.979,-78.1756"/>
</g>
<!-- Node5&#45;&gt;Node4 -->
<g id="edge10" class="edge"><title>Node5&#45;&gt;Node4</title>
<path fill="none" stroke="midnightblue" d="M818.347,-116.47C790.916,-113.29 762.154,-109.321 739.739,-105.513"/>
<polygon fill="midnightblue" stroke="midnightblue" points="818.049,-119.959 828.379,-117.604 818.836,-113.003 818.049,-119.959"/>
</g>
<!-- Node8&#45;&gt;Node2 -->
<g id="edge26" class="edge"><title>Node8&#45;&gt;Node2</title>
<path fill="none" stroke="midnightblue" d="M339.664,-63.6211C361.622,-68.2662 386.825,-73.5976 410.151,-78.5319"/>
<polygon fill="midnightblue" stroke="midnightblue" points="340.329,-60.1845 329.821,-61.5391 338.88,-67.033 340.329,-60.1845"/>
</g>
<!-- Node8&#45;&gt;Node3 -->
<g id="edge18" class="edge"><title>Node8&#45;&gt;Node3</title>
<path fill="none" stroke="midnightblue" d="M379.944,-51.4771C457.836,-51.8489 563.843,-52.3549 631.86,-52.6795"/>
<polygon fill="midnightblue" stroke="midnightblue" points="379.646,-47.9757 369.629,-51.4278 379.612,-54.9756 379.646,-47.9757"/>
</g>
<!-- Node9 -->
<g id="node19" class="node"><title>Node9</title>
<a xlink:href="../../d1/d78/class_u_b_board_view.html#adf1b48aff41094593ba1054627b4c52b" target="_top" xlink:title="UBBoardView::mouseMoveEvent">
<polygon fill="white" stroke="black" points="406.5,-0.5 406.5,-21.5 569.5,-21.5 569.5,-0.5 406.5,-0.5"/>
<text text-anchor="middle" x="488" y="-8.5" font-family="Helvetica,sans-Serif" font-size="10.00">UBBoardView::mouseMoveEvent</text>
</a>
</g>
<!-- Node8&#45;&gt;Node9 -->
<g id="edge20" class="edge"><title>Node8&#45;&gt;Node9</title>
<path fill="none" stroke="midnightblue" d="M344.513,-38.5937C372.994,-33.1166 406.115,-26.7472 433.355,-21.5087"/>
<polygon fill="midnightblue" stroke="midnightblue" points="343.809,-35.1649 334.65,-40.4905 345.131,-42.0389 343.809,-35.1649"/>
</g>
<!-- Node10 -->
<g id="node21" class="node"><title>Node10</title>
<a xlink:href="../../d1/d78/class_u_b_board_view.html#aa0ffd2f772d688eb459b316c36404188" target="_top" xlink:title="UBBoardView::handleItemMouseMove">
<polygon fill="white" stroke="black" points="606.5,-0.5 606.5,-21.5 791.5,-21.5 791.5,-0.5 606.5,-0.5"/>
<text text-anchor="middle" x="699" y="-8.5" font-family="Helvetica,sans-Serif" font-size="10.00">UBBoardView::handleItemMouseMove</text>
</a>
</g>
<!-- Node9&#45;&gt;Node10 -->
<g id="edge22" class="edge"><title>Node9&#45;&gt;Node10</title>
<path fill="none" stroke="midnightblue" d="M579.844,-4.30052C588.652,-4.23502 597.589,-4.23321 606.404,-4.29508"/>
<polygon fill="midnightblue" stroke="midnightblue" points="579.541,-0.803361 569.578,-4.40666 579.614,-7.80299 579.541,-0.803361"/>
</g>
<!-- Node10&#45;&gt;Node9 -->
<g id="edge24" class="edge"><title>Node10&#45;&gt;Node9</title>
<path fill="none" stroke="midnightblue" d="M596.304,-17.7479C587.336,-17.7614 578.341,-17.7099 569.578,-17.5933"/>
<polygon fill="midnightblue" stroke="midnightblue" points="596.419,-21.2475 606.404,-17.7049 596.39,-14.2476 596.419,-21.2475"/>
</g>
</g>
</svg>
