<?xml version="1.0" encoding="UTF-8" standalone="no"?>
<!DOCTYPE svg PUBLIC "-//W3C//DTD SVG 1.1//EN"
 "http://www.w3.org/Graphics/SVG/1.1/DTD/svg11.dtd">
<!-- Generated by graphviz version 2.26.3 (20100126.1600)
 -->
<!-- Title: UBGraphicsScene::UBGraphicsScene Pages: 1 -->
<svg width="520pt" height="218pt"
 viewBox="0.00 0.00 520.00 218.00" xmlns="http://www.w3.org/2000/svg" xmlns:xlink="http://www.w3.org/1999/xlink">
<g id="graph1" class="graph" transform="scale(1 1) rotate(0) translate(4 214)">
<title>UBGraphicsScene::UBGraphicsScene</title>
<polygon fill="white" stroke="white" points="-4,5 -4,-214 517,-214 517,5 -4,5"/>
<!-- Node1 -->
<g id="node1" class="node"><title>Node1</title>
<polygon fill="#bfbfbf" stroke="black" points="0.5,-119 0.5,-153 157.5,-153 157.5,-119 0.5,-119"/>
<text text-anchor="start" x="8.5" y="-140" font-family="Helvetica,sans-Serif" font-size="10.00">UBGraphicsScene::UBGraphics</text>
<text text-anchor="middle" x="79" y="-127" font-family="Helvetica,sans-Serif" font-size="10.00">Scene</text>
</g>
<!-- Node2 -->
<g id="node3" class="node"><title>Node2</title>
<a xlink:href="../../d8/d1e/class_u_b_item.html#aebe809da60b1ea31f4c2fe612d2513e8" target="_top" xlink:title="UBItem::setUuid">
<polygon fill="white" stroke="black" points="230,-188.5 230,-209.5 320,-209.5 320,-188.5 230,-188.5"/>
<text text-anchor="middle" x="275" y="-196.5" font-family="Helvetica,sans-Serif" font-size="10.00">UBItem::setUuid</text>
</a>
</g>
<!-- Node1&#45;&gt;Node2 -->
<g id="edge2" class="edge"><title>Node1&#45;&gt;Node2</title>
<path fill="none" stroke="midnightblue" d="M120.924,-153.009C142.544,-161.439 169.462,-171.411 194,-179 202.345,-181.581 211.253,-184.056 219.996,-186.331"/>
<polygon fill="midnightblue" stroke="midnightblue" points="219.204,-189.741 229.758,-188.811 220.928,-182.956 219.204,-189.741"/>
</g>
<!-- Node3 -->
<g id="node5" class="node"><title>Node3</title>
<a xlink:href="../../dc/db2/class_u_b_graphics_scene.html#ab0be6ef8f35c143360e4816cef2ef80a" target="_top" xlink:title="UBGraphicsScene::setDocument">
<polygon fill="white" stroke="black" points="194,-148.5 194,-169.5 356,-169.5 356,-148.5 194,-148.5"/>
<text text-anchor="middle" x="275" y="-156.5" font-family="Helvetica,sans-Serif" font-size="10.00">UBGraphicsScene::setDocument</text>
</a>
</g>
<!-- Node1&#45;&gt;Node3 -->
<g id="edge4" class="edge"><title>Node1&#45;&gt;Node3</title>
<path fill="none" stroke="midnightblue" d="M157.591,-145.222C166.165,-146.229 174.945,-147.259 183.654,-148.281"/>
<polygon fill="midnightblue" stroke="midnightblue" points="183.489,-151.785 193.829,-149.475 184.305,-144.833 183.489,-151.785"/>
</g>
<!-- Node5 -->
<g id="node9" class="node"><title>Node5</title>
<a xlink:href="../../dc/db2/class_u_b_graphics_scene.html#a3d3e53091814e68510f12c4b40649e1b" target="_top" xlink:title="UBGraphicsScene::setView\lState">
<polygon fill="white" stroke="black" points="205.5,-96 205.5,-130 344.5,-130 344.5,-96 205.5,-96"/>
<text text-anchor="start" x="213.5" y="-117" font-family="Helvetica,sans-Serif" font-size="10.00">UBGraphicsScene::setView</text>
<text text-anchor="middle" x="275" y="-104" font-family="Helvetica,sans-Serif" font-size="10.00">State</text>
</a>
</g>
<!-- Node1&#45;&gt;Node5 -->
<g id="edge8" class="edge"><title>Node1&#45;&gt;Node5</title>
<path fill="none" stroke="midnightblue" d="M157.591,-126.778C169.906,-125.333 182.646,-123.837 194.991,-122.389"/>
<polygon fill="midnightblue" stroke="midnightblue" points="195.727,-125.827 205.251,-121.185 194.911,-118.874 195.727,-125.827"/>
</g>
<!-- Node6 -->
<g id="node11" class="node"><title>Node6</title>
<a xlink:href="../../dc/db2/class_u_b_graphics_scene.html#a94a8bb0eb91d5db7904d7bc2932cdc0e" target="_top" xlink:title="UBGraphicsScene::updateGroup\lButtonState">
<polygon fill="white" stroke="black" points="195.5,-41 195.5,-75 354.5,-75 354.5,-41 195.5,-41"/>
<text text-anchor="start" x="203.5" y="-62" font-family="Helvetica,sans-Serif" font-size="10.00">UBGraphicsScene::updateGroup</text>
<text text-anchor="middle" x="275" y="-49" font-family="Helvetica,sans-Serif" font-size="10.00">ButtonState</text>
</a>
</g>
<!-- Node1&#45;&gt;Node6 -->
<g id="edge10" class="edge"><title>Node1&#45;&gt;Node6</title>
<path fill="none" stroke="midnightblue" d="M117.362,-118.984C139.609,-109.285 168.236,-97.091 194,-87 201.236,-84.1657 208.877,-81.2856 216.459,-78.4954"/>
<polygon fill="midnightblue" stroke="midnightblue" points="217.8,-81.732 225.997,-75.0193 215.403,-75.1552 217.8,-81.732"/>
</g>
<!-- Node4 -->
<g id="node7" class="node"><title>Node4</title>
<a xlink:href="../../d3/db1/class_u_b_core_graphics_scene.html#ad92b735788dc8e172f091a13e899b783" target="_top" xlink:title="UBCoreGraphicsScene\l::setModified">
<polygon fill="white" stroke="black" points="392.5,-144 392.5,-178 511.5,-178 511.5,-144 392.5,-144"/>
<text text-anchor="start" x="400.5" y="-165" font-family="Helvetica,sans-Serif" font-size="10.00">UBCoreGraphicsScene</text>
<text text-anchor="middle" x="452" y="-152" font-family="Helvetica,sans-Serif" font-size="10.00">::setModified</text>
</a>
</g>
<!-- Node3&#45;&gt;Node4 -->
<g id="edge6" class="edge"><title>Node3&#45;&gt;Node4</title>
<path fill="none" stroke="midnightblue" d="M356.247,-159.918C364.905,-160.016 373.656,-160.115 382.166,-160.211"/>
<polygon fill="midnightblue" stroke="midnightblue" points="382.365,-163.713 392.404,-160.327 382.444,-156.714 382.365,-163.713"/>
</g>
<!-- Node7 -->
<g id="node13" class="node"><title>Node7</title>
<a xlink:href="../../d0/d58/class_u_b_drawing_controller.html#a9d2d10417806a2d7303df24b820f2ab3" target="_top" xlink:title="UBDrawingController\l::drawingController">
<polygon fill="white" stroke="black" points="397.5,-92 397.5,-126 506.5,-126 506.5,-92 397.5,-92"/>
<text text-anchor="start" x="405.5" y="-113" font-family="Helvetica,sans-Serif" font-size="10.00">UBDrawingController</text>
<text text-anchor="middle" x="452" y="-100" font-family="Helvetica,sans-Serif" font-size="10.00">::drawingController</text>
</a>
</g>
<!-- Node6&#45;&gt;Node7 -->
<g id="edge12" class="edge"><title>Node6&#45;&gt;Node7</title>
<path fill="none" stroke="midnightblue" d="M334.431,-75.1241C351.473,-80.0347 370.134,-85.4115 387.468,-90.4059"/>
<polygon fill="midnightblue" stroke="midnightblue" points="386.92,-93.8904 397.498,-93.296 388.858,-87.1641 386.92,-93.8904"/>
</g>
<!-- Node8 -->
<g id="node15" class="node"><title>Node8</title>
<a xlink:href="../../d0/d58/class_u_b_drawing_controller.html#a244d6a9a4638309428bcf0c29531b872" target="_top" xlink:title="UBDrawingController\l::stylusTool">
<polygon fill="white" stroke="black" points="397.5,-40 397.5,-74 506.5,-74 506.5,-40 397.5,-40"/>
<text text-anchor="start" x="405.5" y="-61" font-family="Helvetica,sans-Serif" font-size="10.00">UBDrawingController</text>
<text text-anchor="middle" x="452" y="-48" font-family="Helvetica,sans-Serif" font-size="10.00">::stylusTool</text>
</a>
</g>
<!-- Node6&#45;&gt;Node8 -->
<g id="edge14" class="edge"><title>Node6&#45;&gt;Node8</title>
<path fill="none" stroke="midnightblue" d="M354.698,-57.5497C365.502,-57.4887 376.483,-57.4266 386.989,-57.3673"/>
<polygon fill="midnightblue" stroke="midnightblue" points="387.331,-60.8655 397.311,-57.309 387.292,-53.8656 387.331,-60.8655"/>
</g>
<!-- Node9 -->
<g id="node17" class="node"><title>Node9</title>
<a xlink:href="../../d8/d81/class_u_b_application.html#a71985ce0344b74bc3e5ed1d7f44a2017" target="_top" xlink:title="UBApplication::app">
<polygon fill="white" stroke="black" points="401.5,-0.5 401.5,-21.5 502.5,-21.5 502.5,-0.5 401.5,-0.5"/>
<text text-anchor="middle" x="452" y="-8.5" font-family="Helvetica,sans-Serif" font-size="10.00">UBApplication::app</text>
</a>
</g>
<!-- Node6&#45;&gt;Node9 -->
<g id="edge16" class="edge"><title>Node6&#45;&gt;Node9</title>
<path fill="none" stroke="midnightblue" d="M339.151,-40.9655C359.961,-35.4398 382.718,-29.397 402.31,-24.1945"/>
<polygon fill="midnightblue" stroke="midnightblue" points="403.473,-27.5069 412.24,-21.5577 401.677,-20.7414 403.473,-27.5069"/>
</g>
</g>
</svg>
