<?xml version="1.0" encoding="UTF-8" standalone="no"?>
<!DOCTYPE svg PUBLIC "-//W3C//DTD SVG 1.1//EN"
 "http://www.w3.org/Graphics/SVG/1.1/DTD/svg11.dtd">
<!-- Generated by graphviz version 2.26.3 (20100126.1600)
 -->
<!-- Title: UBGraphicsScene::addMedia Pages: 1 -->
<svg width="1672pt" height="755pt"
 viewBox="0.00 0.00 1672.00 755.00" xmlns="http://www.w3.org/2000/svg" xmlns:xlink="http://www.w3.org/1999/xlink">
<g id="graph1" class="graph" transform="scale(1 1) rotate(0) translate(4 751)">
<title>UBGraphicsScene::addMedia</title>
<polygon fill="white" stroke="white" points="-4,5 -4,-751 1669,-751 1669,5 -4,5"/>
<!-- Node1 -->
<g id="node1" class="node"><title>Node1</title>
<polygon fill="#bfbfbf" stroke="black" points="0,-551.5 0,-572.5 146,-572.5 146,-551.5 0,-551.5"/>
<text text-anchor="middle" x="73" y="-559.5" font-family="Helvetica,sans-Serif" font-size="10.00">UBGraphicsScene::addMedia</text>
</g>
<!-- Node2 -->
<g id="node3" class="node"><title>Node2</title>
<a xlink:href="../../d7/d62/class_u_b_board_controller.html#ab6cbc7bda85279e7eee5c5923892dd1a" target="_top" xlink:title="UBBoardController:\l:downloadFinished">
<polygon fill="white" stroke="black" points="362.5,-590 362.5,-624 463.5,-624 463.5,-590 362.5,-590"/>
<text text-anchor="start" x="370.5" y="-611" font-family="Helvetica,sans-Serif" font-size="10.00">UBBoardController:</text>
<text text-anchor="middle" x="413" y="-598" font-family="Helvetica,sans-Serif" font-size="10.00">:downloadFinished</text>
</a>
</g>
<!-- Node1&#45;&gt;Node2 -->
<g id="edge2" class="edge"><title>Node1&#45;&gt;Node2</title>
<path fill="none" stroke="midnightblue" d="M120.689,-575.037C139.643,-579.781 161.725,-584.767 182,-588 243.593,-597.821 315.284,-602.714 362.265,-605.047"/>
<polygon fill="midnightblue" stroke="midnightblue" points="121.356,-571.595 110.801,-572.514 119.625,-578.378 121.356,-571.595"/>
</g>
<!-- Node47 -->
<g id="node98" class="node"><title>Node47</title>
<a xlink:href="../../d7/d62/class_u_b_board_controller.html#a8716b740e0b6759dfc26f0b1f07789eb" target="_top" xlink:title="UBBoardController:\l:addVideo">
<polygon fill="white" stroke="black" points="203.5,-545 203.5,-579 304.5,-579 304.5,-545 203.5,-545"/>
<text text-anchor="start" x="211.5" y="-566" font-family="Helvetica,sans-Serif" font-size="10.00">UBBoardController:</text>
<text text-anchor="middle" x="254" y="-553" font-family="Helvetica,sans-Serif" font-size="10.00">:addVideo</text>
</a>
</g>
<!-- Node1&#45;&gt;Node47 -->
<g id="edge102" class="edge"><title>Node1&#45;&gt;Node47</title>
<path fill="none" stroke="midnightblue" d="M156.549,-562C172.548,-562 188.839,-562 203.405,-562"/>
<polygon fill="midnightblue" stroke="midnightblue" points="156.098,-558.5 146.098,-562 156.098,-565.5 156.098,-558.5"/>
</g>
<!-- Node48 -->
<g id="node101" class="node"><title>Node48</title>
<a xlink:href="../../d7/d62/class_u_b_board_controller.html#a7e127684a3dcbc3f28e232747f78304d" target="_top" xlink:title="UBBoardController:\l:addAudio">
<polygon fill="white" stroke="black" points="203.5,-635 203.5,-669 304.5,-669 304.5,-635 203.5,-635"/>
<text text-anchor="start" x="211.5" y="-656" font-family="Helvetica,sans-Serif" font-size="10.00">UBBoardController:</text>
<text text-anchor="middle" x="254" y="-643" font-family="Helvetica,sans-Serif" font-size="10.00">:addAudio</text>
</a>
</g>
<!-- Node1&#45;&gt;Node48 -->
<g id="edge106" class="edge"><title>Node1&#45;&gt;Node48</title>
<path fill="none" stroke="midnightblue" d="M99.9737,-577.476C121.821,-589.797 153.536,-607.203 182,-621 191.797,-625.749 202.502,-630.557 212.591,-634.924"/>
<polygon fill="midnightblue" stroke="midnightblue" points="101.679,-574.419 91.2531,-572.532 98.2263,-580.509 101.679,-574.419"/>
</g>
<!-- Node49 -->
<g id="node104" class="node"><title>Node49</title>
<a xlink:href="../../dc/db2/class_u_b_graphics_scene.html#a8b4f713ed62bc53e6b4f884ac0abc29f" target="_top" xlink:title="UBGraphicsScene::addVideo">
<polygon fill="white" stroke="black" points="182,-505.5 182,-526.5 326,-526.5 326,-505.5 182,-505.5"/>
<text text-anchor="middle" x="254" y="-513.5" font-family="Helvetica,sans-Serif" font-size="10.00">UBGraphicsScene::addVideo</text>
</a>
</g>
<!-- Node1&#45;&gt;Node49 -->
<g id="edge110" class="edge"><title>Node1&#45;&gt;Node49</title>
<path fill="none" stroke="midnightblue" d="M124.512,-548.909C152.44,-541.811 186.494,-533.156 212.668,-526.504"/>
<polygon fill="midnightblue" stroke="midnightblue" points="123.355,-545.591 114.525,-551.447 125.079,-552.376 123.355,-545.591"/>
</g>
<!-- Node50 -->
<g id="node106" class="node"><title>Node50</title>
<a xlink:href="../../dc/db2/class_u_b_graphics_scene.html#a3cb053323480903a3b3b49c14cbb44e8" target="_top" xlink:title="UBGraphicsScene::addAudio">
<polygon fill="white" stroke="black" points="182,-465.5 182,-486.5 326,-486.5 326,-465.5 182,-465.5"/>
<text text-anchor="middle" x="254" y="-473.5" font-family="Helvetica,sans-Serif" font-size="10.00">UBGraphicsScene::addAudio</text>
</a>
</g>
<!-- Node1&#45;&gt;Node50 -->
<g id="edge112" class="edge"><title>Node1&#45;&gt;Node50</title>
<path fill="none" stroke="midnightblue" d="M95.8638,-545.6C117.256,-530.889 150.546,-509.585 182,-496 190.456,-492.348 199.76,-489.183 208.791,-486.516"/>
<polygon fill="midnightblue" stroke="midnightblue" points="93.6633,-542.867 87.4641,-551.459 97.6682,-548.608 93.6633,-542.867"/>
</g>
<!-- Node3 -->
<g id="node5" class="node"><title>Node3</title>
<a xlink:href="../../d7/d62/class_u_b_board_controller.html#aa728cb7c1b979b2d4ae45638a7386dde" target="_top" xlink:title="UBBoardController::init">
<polygon fill="white" stroke="black" points="500.5,-725.5 500.5,-746.5 617.5,-746.5 617.5,-725.5 500.5,-725.5"/>
<text text-anchor="middle" x="559" y="-733.5" font-family="Helvetica,sans-Serif" font-size="10.00">UBBoardController::init</text>
</a>
</g>
<!-- Node2&#45;&gt;Node3 -->
<g id="edge4" class="edge"><title>Node2&#45;&gt;Node3</title>
<path fill="none" stroke="midnightblue" d="M429.403,-632.877C445.139,-655.959 470.775,-689.355 500,-711 507.956,-716.893 517.512,-721.71 526.592,-725.487"/>
<polygon fill="midnightblue" stroke="midnightblue" points="432.134,-630.663 423.675,-624.283 426.309,-634.545 432.134,-630.663"/>
</g>
<!-- Node6 -->
<g id="node11" class="node"><title>Node6</title>
<a xlink:href="../../d7/d62/class_u_b_board_controller.html#abae2655269e06f72767de71b8513f6be" target="_top" xlink:title="UBBoardController:\l:duplicateItem">
<polygon fill="white" stroke="black" points="690.5,-472 690.5,-506 791.5,-506 791.5,-472 690.5,-472"/>
<text text-anchor="start" x="698.5" y="-493" font-family="Helvetica,sans-Serif" font-size="10.00">UBBoardController:</text>
<text text-anchor="middle" x="741" y="-480" font-family="Helvetica,sans-Serif" font-size="10.00">:duplicateItem</text>
</a>
</g>
<!-- Node2&#45;&gt;Node6 -->
<g id="edge10" class="edge"><title>Node2&#45;&gt;Node6</title>
<path fill="none" stroke="midnightblue" d="M469.787,-586.57C533.128,-563.783 634.448,-527.333 693.671,-506.027"/>
<polygon fill="midnightblue" stroke="midnightblue" points="468.569,-583.289 460.344,-589.968 470.938,-589.876 468.569,-583.289"/>
</g>
<!-- Node29 -->
<g id="node59" class="node"><title>Node29</title>
<a xlink:href="../../d7/d62/class_u_b_board_controller.html#a358f3f88d1fa9e41620170d76a806f93" target="_top" xlink:title="UBBoardController:\l:downloadURL">
<polygon fill="white" stroke="black" points="508.5,-290 508.5,-324 609.5,-324 609.5,-290 508.5,-290"/>
<text text-anchor="start" x="516.5" y="-311" font-family="Helvetica,sans-Serif" font-size="10.00">UBBoardController:</text>
<text text-anchor="middle" x="559" y="-298" font-family="Helvetica,sans-Serif" font-size="10.00">:downloadURL</text>
</a>
</g>
<!-- Node2&#45;&gt;Node29 -->
<g id="edge60" class="edge"><title>Node2&#45;&gt;Node29</title>
<path fill="none" stroke="midnightblue" d="M425.99,-580.309C455.394,-519.889 526.378,-374.031 550.678,-324.1"/>
<polygon fill="midnightblue" stroke="midnightblue" points="422.71,-579.051 421.481,-589.574 429.004,-582.114 422.71,-579.051"/>
</g>
<!-- Node4 -->
<g id="node7" class="node"><title>Node4</title>
<a xlink:href="../../d8/d81/class_u_b_application.html#add1469239e71bf24fdc61413a42a38bd" target="_top" xlink:title="UBApplication::exec">
<polygon fill="white" stroke="black" points="688,-725.5 688,-746.5 794,-746.5 794,-725.5 688,-725.5"/>
<text text-anchor="middle" x="741" y="-733.5" font-family="Helvetica,sans-Serif" font-size="10.00">UBApplication::exec</text>
</a>
</g>
<!-- Node3&#45;&gt;Node4 -->
<g id="edge6" class="edge"><title>Node3&#45;&gt;Node4</title>
<path fill="none" stroke="midnightblue" d="M627.81,-736C647.659,-736 669.01,-736 687.76,-736"/>
<polygon fill="midnightblue" stroke="midnightblue" points="627.588,-732.5 617.588,-736 627.588,-739.5 627.588,-732.5"/>
</g>
<!-- Node5 -->
<g id="node9" class="node"><title>Node5</title>
<a xlink:href="../../df/d0a/main_8cpp.html#a0ddf1224851353fc92bfbff6f499fa97" target="_top" xlink:title="main">
<polygon fill="white" stroke="black" points="934,-725.5 934,-746.5 972,-746.5 972,-725.5 934,-725.5"/>
<text text-anchor="middle" x="953" y="-733.5" font-family="Helvetica,sans-Serif" font-size="10.00">main</text>
</a>
</g>
<!-- Node4&#45;&gt;Node5 -->
<g id="edge8" class="edge"><title>Node4&#45;&gt;Node5</title>
<path fill="none" stroke="midnightblue" d="M804.343,-736C848.656,-736 904.908,-736 933.861,-736"/>
<polygon fill="midnightblue" stroke="midnightblue" points="804.223,-732.5 794.223,-736 804.223,-739.5 804.223,-732.5"/>
</g>
<!-- Node7 -->
<g id="node13" class="node"><title>Node7</title>
<a xlink:href="../../d7/d62/class_u_b_board_controller.html#a07e50010567075b570140d6143c516f5" target="_top" xlink:title="UBBoardController:\l:processMimeData">
<polygon fill="white" stroke="black" points="902.5,-313 902.5,-347 1003.5,-347 1003.5,-313 902.5,-313"/>
<text text-anchor="start" x="910.5" y="-334" font-family="Helvetica,sans-Serif" font-size="10.00">UBBoardController:</text>
<text text-anchor="middle" x="953" y="-321" font-family="Helvetica,sans-Serif" font-size="10.00">:processMimeData</text>
</a>
</g>
<!-- Node6&#45;&gt;Node7 -->
<g id="edge12" class="edge"><title>Node6&#45;&gt;Node7</title>
<path fill="none" stroke="midnightblue" d="M801.081,-476.896C810.612,-473.371 819.962,-468.834 828,-463 850.749,-446.489 845.487,-432.151 864,-411 885.053,-386.947 912.731,-362.712 931.596,-347.104"/>
<polygon fill="midnightblue" stroke="midnightblue" points="799.903,-473.599 791.533,-480.094 802.127,-480.237 799.903,-473.599"/>
</g>
<!-- Node11 -->
<g id="node21" class="node"><title>Node11</title>
<a xlink:href="../../d7/d62/class_u_b_board_controller.html#af713d6e325369af244f2af8c90299a35" target="_top" xlink:title="UBBoardController:\l:moveGraphicsWidgetToControlView">
<polygon fill="white" stroke="black" points="864,-545 864,-579 1042,-579 1042,-545 864,-545"/>
<text text-anchor="start" x="872" y="-566" font-family="Helvetica,sans-Serif" font-size="10.00">UBBoardController:</text>
<text text-anchor="middle" x="953" y="-553" font-family="Helvetica,sans-Serif" font-size="10.00">:moveGraphicsWidgetToControlView</text>
</a>
</g>
<!-- Node6&#45;&gt;Node11 -->
<g id="edge20" class="edge"><title>Node6&#45;&gt;Node11</title>
<path fill="none" stroke="midnightblue" d="M800.275,-509.411C832.793,-520.608 872.644,-534.33 903.485,-544.95"/>
<polygon fill="midnightblue" stroke="midnightblue" points="801.032,-505.97 790.437,-506.023 798.753,-512.588 801.032,-505.97"/>
</g>
<!-- Node19 -->
<g id="node39" class="node"><title>Node19</title>
<a xlink:href="../../dd/dd5/class_u_b_graphics_item_delegate.html#a525c69cb3c3c0df6c4db4d406fd80e48" target="_top" xlink:title="UBGraphicsItemDelegate\l::duplicate">
<polygon fill="white" stroke="black" points="889,-472 889,-506 1017,-506 1017,-472 889,-472"/>
<text text-anchor="start" x="897" y="-493" font-family="Helvetica,sans-Serif" font-size="10.00">UBGraphicsItemDelegate</text>
<text text-anchor="middle" x="953" y="-480" font-family="Helvetica,sans-Serif" font-size="10.00">::duplicate</text>
</a>
</g>
<!-- Node6&#45;&gt;Node19 -->
<g id="edge40" class="edge"><title>Node6&#45;&gt;Node19</title>
<path fill="none" stroke="midnightblue" d="M801.696,-489C828.954,-489 861.136,-489 888.796,-489"/>
<polygon fill="midnightblue" stroke="midnightblue" points="801.51,-485.5 791.51,-489 801.51,-492.5 801.51,-485.5"/>
</g>
<!-- Node8 -->
<g id="node15" class="node"><title>Node8</title>
<a xlink:href="../../d7/d62/class_u_b_board_controller.html#a68518a98107e994551da0a4e3a79fe2c" target="_top" xlink:title="UBBoardController:\l:paste">
<polygon fill="white" stroke="black" points="1116.5,-257 1116.5,-291 1217.5,-291 1217.5,-257 1116.5,-257"/>
<text text-anchor="start" x="1124.5" y="-278" font-family="Helvetica,sans-Serif" font-size="10.00">UBBoardController:</text>
<text text-anchor="middle" x="1167" y="-265" font-family="Helvetica,sans-Serif" font-size="10.00">:paste</text>
</a>
</g>
<!-- Node7&#45;&gt;Node8 -->
<g id="edge14" class="edge"><title>Node7&#45;&gt;Node8</title>
<path fill="none" stroke="midnightblue" d="M1013.54,-314.159C1045.97,-305.671 1085.47,-295.334 1116.28,-287.273"/>
<polygon fill="midnightblue" stroke="midnightblue" points="1012.5,-310.811 1003.72,-316.729 1014.28,-317.583 1012.5,-310.811"/>
</g>
<!-- Node10 -->
<g id="node19" class="node"><title>Node10</title>
<a xlink:href="../../d1/d78/class_u_b_board_view.html#a1bb7794094c4bb04637b0df2bc0c0fa9" target="_top" xlink:title="UBBoardView::dropEvent">
<polygon fill="white" stroke="black" points="1103,-315.5 1103,-336.5 1231,-336.5 1231,-315.5 1103,-315.5"/>
<text text-anchor="middle" x="1167" y="-323.5" font-family="Helvetica,sans-Serif" font-size="10.00">UBBoardView::dropEvent</text>
</a>
</g>
<!-- Node7&#45;&gt;Node10 -->
<g id="edge18" class="edge"><title>Node7&#45;&gt;Node10</title>
<path fill="none" stroke="midnightblue" d="M1013.72,-328.865C1041.56,-328.345 1074.58,-327.727 1102.83,-327.199"/>
<polygon fill="midnightblue" stroke="midnightblue" points="1013.65,-325.366 1003.72,-329.052 1013.78,-332.364 1013.65,-325.366"/>
</g>
<!-- Node9 -->
<g id="node17" class="node"><title>Node9</title>
<a xlink:href="../../da/d14/class_u_b_application_controller.html#a6afa41e1bc0c178acaa89684b7e9db26" target="_top" xlink:title="UBApplicationController\l::actionPaste">
<polygon fill="white" stroke="black" points="1323.5,-89 1323.5,-123 1444.5,-123 1444.5,-89 1323.5,-89"/>
<text text-anchor="start" x="1331.5" y="-110" font-family="Helvetica,sans-Serif" font-size="10.00">UBApplicationController</text>
<text text-anchor="middle" x="1384" y="-97" font-family="Helvetica,sans-Serif" font-size="10.00">::actionPaste</text>
</a>
</g>
<!-- Node8&#45;&gt;Node9 -->
<g id="edge16" class="edge"><title>Node8&#45;&gt;Node9</title>
<path fill="none" stroke="midnightblue" d="M1227.16,-256.506C1237.81,-251.267 1248.03,-244.555 1256,-236 1289.35,-200.219 1256.43,-165.573 1292,-132 1300.69,-123.798 1311.77,-118.152 1323.21,-114.275"/>
<polygon fill="midnightblue" stroke="midnightblue" points="1225.42,-253.45 1217.73,-260.74 1228.29,-259.836 1225.42,-253.45"/>
</g>
<!-- Node12 -->
<g id="node23" class="node"><title>Node12</title>
<a xlink:href="../../dc/db2/class_u_b_graphics_scene.html#aa63a9c1b5eb1de5a0d06a0f2b449648a" target="_top" xlink:title="UBGraphicsScene::addGraphics\lWidget">
<polygon fill="white" stroke="black" points="1088,-635 1088,-669 1246,-669 1246,-635 1088,-635"/>
<text text-anchor="start" x="1096" y="-656" font-family="Helvetica,sans-Serif" font-size="10.00">UBGraphicsScene::addGraphics</text>
<text text-anchor="middle" x="1167" y="-643" font-family="Helvetica,sans-Serif" font-size="10.00">Widget</text>
</a>
</g>
<!-- Node11&#45;&gt;Node12 -->
<g id="edge22" class="edge"><title>Node11&#45;&gt;Node12</title>
<path fill="none" stroke="midnightblue" d="M1002.74,-582.92C1040.29,-598.71 1091.16,-620.106 1126.3,-634.883"/>
<polygon fill="midnightblue" stroke="midnightblue" points="1004.08,-579.685 993.503,-579.034 1001.36,-586.137 1004.08,-579.685"/>
</g>
<!-- Node17 -->
<g id="node35" class="node"><title>Node17</title>
<a xlink:href="../../d8/d2c/class_u_b_graphics_widget_item_delegate.html#a2b446e23a250de4f8c162e1411058cb5" target="_top" xlink:title="UBGraphicsWidgetItemDelegate::pin">
<polygon fill="white" stroke="black" points="1078,-551.5 1078,-572.5 1256,-572.5 1256,-551.5 1078,-551.5"/>
<text text-anchor="middle" x="1167" y="-559.5" font-family="Helvetica,sans-Serif" font-size="10.00">UBGraphicsWidgetItemDelegate::pin</text>
</a>
</g>
<!-- Node11&#45;&gt;Node17 -->
<g id="edge36" class="edge"><title>Node11&#45;&gt;Node17</title>
<path fill="none" stroke="midnightblue" d="M1052.23,-562C1060.81,-562 1069.45,-562 1077.94,-562"/>
<polygon fill="midnightblue" stroke="midnightblue" points="1052.21,-558.5 1042.21,-562 1052.21,-565.5 1052.21,-558.5"/>
</g>
<!-- Node13 -->
<g id="node25" class="node"><title>Node13</title>
<a xlink:href="../../d7/d62/class_u_b_board_controller.html#af122a3bb14b0ef66b169be9fd0e5a2b3" target="_top" xlink:title="UBBoardController:\l:moveToolWidgetToScene">
<polygon fill="white" stroke="black" points="1318,-637 1318,-671 1450,-671 1450,-637 1318,-637"/>
<text text-anchor="start" x="1326" y="-658" font-family="Helvetica,sans-Serif" font-size="10.00">UBBoardController:</text>
<text text-anchor="middle" x="1384" y="-645" font-family="Helvetica,sans-Serif" font-size="10.00">:moveToolWidgetToScene</text>
</a>
</g>
<!-- Node12&#45;&gt;Node13 -->
<g id="edge24" class="edge"><title>Node12&#45;&gt;Node13</title>
<path fill="none" stroke="midnightblue" d="M1256.28,-652.823C1276.86,-653.012 1298.39,-653.211 1317.78,-653.39"/>
<polygon fill="midnightblue" stroke="midnightblue" points="1256.29,-649.323 1246.26,-652.731 1256.23,-656.323 1256.29,-649.323"/>
</g>
<!-- Node15 -->
<g id="node29" class="node"><title>Node15</title>
<a xlink:href="../../dc/db2/class_u_b_graphics_scene.html#aa86ec061e79ba18c2efe73a6bf10bf33" target="_top" xlink:title="UBGraphicsScene::addApple\lWidget">
<polygon fill="white" stroke="red" points="1312,-689 1312,-723 1456,-723 1456,-689 1312,-689"/>
<text text-anchor="start" x="1320" y="-710" font-family="Helvetica,sans-Serif" font-size="10.00">UBGraphicsScene::addApple</text>
<text text-anchor="middle" x="1384" y="-697" font-family="Helvetica,sans-Serif" font-size="10.00">Widget</text>
</a>
</g>
<!-- Node12&#45;&gt;Node15 -->
<g id="edge28" class="edge"><title>Node12&#45;&gt;Node15</title>
<path fill="none" stroke="midnightblue" d="M1245.11,-671.437C1268.17,-677.175 1293.21,-683.408 1315.61,-688.981"/>
<polygon fill="midnightblue" stroke="midnightblue" points="1245.91,-668.03 1235.36,-669.012 1244.22,-674.823 1245.91,-668.03"/>
</g>
<!-- Node16 -->
<g id="node32" class="node"><title>Node16</title>
<a xlink:href="../../dc/db2/class_u_b_graphics_scene.html#acb26de2926454faf9c5ca66989779d82" target="_top" xlink:title="UBGraphicsScene::addW3CWidget">
<polygon fill="white" stroke="red" points="1297.5,-597.5 1297.5,-618.5 1470.5,-618.5 1470.5,-597.5 1297.5,-597.5"/>
<text text-anchor="middle" x="1384" y="-605.5" font-family="Helvetica,sans-Serif" font-size="10.00">UBGraphicsScene::addW3CWidget</text>
</a>
</g>
<!-- Node12&#45;&gt;Node16 -->
<g id="edge32" class="edge"><title>Node12&#45;&gt;Node16</title>
<path fill="none" stroke="midnightblue" d="M1256.07,-633.939C1281.9,-628.703 1309.24,-623.159 1331.99,-618.547"/>
<polygon fill="midnightblue" stroke="midnightblue" points="1255.37,-630.511 1246.26,-635.928 1256.76,-637.371 1255.37,-630.511"/>
</g>
<!-- Node14 -->
<g id="node27" class="node"><title>Node14</title>
<a xlink:href="../../dc/de3/class_u_b_tool_widget.html#adc43c4c0d6cb3e0f5881df830775b5b7" target="_top" xlink:title="UBToolWidget::mouseRelease\lEvent">
<polygon fill="white" stroke="black" points="1512,-637 1512,-671 1664,-671 1664,-637 1512,-637"/>
<text text-anchor="start" x="1520" y="-658" font-family="Helvetica,sans-Serif" font-size="10.00">UBToolWidget::mouseRelease</text>
<text text-anchor="middle" x="1588" y="-645" font-family="Helvetica,sans-Serif" font-size="10.00">Event</text>
</a>
</g>
<!-- Node13&#45;&gt;Node14 -->
<g id="edge26" class="edge"><title>Node13&#45;&gt;Node14</title>
<path fill="none" stroke="midnightblue" d="M1460.53,-654C1477.31,-654 1495.07,-654 1511.83,-654"/>
<polygon fill="midnightblue" stroke="midnightblue" points="1460.23,-650.5 1450.23,-654 1460.23,-657.5 1460.23,-650.5"/>
</g>
<!-- Node15&#45;&gt;Node2 -->
<g id="edge30" class="edge"><title>Node15&#45;&gt;Node2</title>
<path fill="none" stroke="midnightblue" d="M1301.9,-703.267C1215.19,-700.618 1074.49,-697 953,-697 741,-697 741,-697 741,-697 632.054,-697 509.776,-650.253 449.971,-624.14"/>
<polygon fill="midnightblue" stroke="midnightblue" points="1301.84,-706.766 1311.94,-703.576 1302.06,-699.77 1301.84,-706.766"/>
</g>
<!-- Node16&#45;&gt;Node2 -->
<g id="edge34" class="edge"><title>Node16&#45;&gt;Node2</title>
<path fill="none" stroke="midnightblue" d="M1287.16,-607.647C1199.81,-607.359 1067.8,-607 953,-607 741,-607 741,-607 741,-607 642.771,-607 527.994,-607 463.571,-607"/>
<polygon fill="midnightblue" stroke="midnightblue" points="1287.31,-611.147 1297.32,-607.681 1287.33,-604.147 1287.31,-611.147"/>
</g>
<!-- Node18 -->
<g id="node37" class="node"><title>Node18</title>
<a xlink:href="../../d8/d2c/class_u_b_graphics_widget_item_delegate.html#a79bf31a6cda75de23b70469270de5bd9" target="_top" xlink:title="UBGraphicsWidgetItemDelegate\l::decorateMenu">
<polygon fill="white" stroke="black" points="1304.5,-545 1304.5,-579 1463.5,-579 1463.5,-545 1304.5,-545"/>
<text text-anchor="start" x="1312.5" y="-566" font-family="Helvetica,sans-Serif" font-size="10.00">UBGraphicsWidgetItemDelegate</text>
<text text-anchor="middle" x="1384" y="-553" font-family="Helvetica,sans-Serif" font-size="10.00">::decorateMenu</text>
</a>
</g>
<!-- Node17&#45;&gt;Node18 -->
<g id="edge38" class="edge"><title>Node17&#45;&gt;Node18</title>
<path fill="none" stroke="midnightblue" d="M1266.32,-562C1279.01,-562 1291.86,-562 1304.18,-562"/>
<polygon fill="midnightblue" stroke="midnightblue" points="1266.2,-558.5 1256.2,-562 1266.2,-565.5 1266.2,-558.5"/>
</g>
<!-- Node20 -->
<g id="node41" class="node"><title>Node20</title>
<a xlink:href="../../dd/dd5/class_u_b_graphics_item_delegate.html#a1de77276aba7276defacd0b87c9b87c7" target="_top" xlink:title="UBGraphicsItemDelegate\l::init">
<polygon fill="white" stroke="black" points="1103,-355 1103,-389 1231,-389 1231,-355 1103,-355"/>
<text text-anchor="start" x="1111" y="-376" font-family="Helvetica,sans-Serif" font-size="10.00">UBGraphicsItemDelegate</text>
<text text-anchor="middle" x="1167" y="-363" font-family="Helvetica,sans-Serif" font-size="10.00">::init</text>
</a>
</g>
<!-- Node19&#45;&gt;Node20 -->
<g id="edge42" class="edge"><title>Node19&#45;&gt;Node20</title>
<path fill="none" stroke="midnightblue" d="M1026.74,-469.654C1031.99,-467.612 1037.12,-465.396 1042,-463 1082.96,-442.874 1124.64,-409.349 1148.02,-389.095"/>
<polygon fill="midnightblue" stroke="midnightblue" points="1025.4,-466.417 1017.22,-473.143 1027.81,-472.99 1025.4,-466.417"/>
</g>
<!-- Node21 -->
<g id="node43" class="node"><title>Node21</title>
<a xlink:href="../../de/d93/class_u_b_graphics_group_container_item.html#a2aaeb364079830d1720110c30f999ec8" target="_top" xlink:title="UBGraphicsGroupContainer\lItem::UBGraphicsGroupContainerItem">
<polygon fill="white" stroke="red" points="1292.5,-141 1292.5,-175 1475.5,-175 1475.5,-141 1292.5,-141"/>
<text text-anchor="start" x="1300.5" y="-162" font-family="Helvetica,sans-Serif" font-size="10.00">UBGraphicsGroupContainer</text>
<text text-anchor="middle" x="1384" y="-149" font-family="Helvetica,sans-Serif" font-size="10.00">Item::UBGraphicsGroupContainerItem</text>
</a>
</g>
<!-- Node20&#45;&gt;Node21 -->
<g id="edge44" class="edge"><title>Node20&#45;&gt;Node21</title>
<path fill="none" stroke="midnightblue" d="M1240.47,-357.907C1246.22,-354.698 1251.52,-350.781 1256,-346 1306.42,-292.165 1241.35,-237.612 1292,-184 1295.19,-180.622 1298.79,-177.672 1302.66,-175.096"/>
<polygon fill="midnightblue" stroke="midnightblue" points="1238.62,-354.911 1231.11,-362.387 1241.65,-361.224 1238.62,-354.911"/>
</g>
<!-- Node22 -->
<g id="node45" class="node"><title>Node22</title>
<a xlink:href="../../dc/d5a/class_u_b_graphics_media_item.html#aa92cf921e88af8b52b4c7ed6466dd2d5" target="_top" xlink:title="UBGraphicsMediaItem\l::UBGraphicsMediaItem">
<polygon fill="white" stroke="red" points="1323,-493 1323,-527 1445,-527 1445,-493 1323,-493"/>
<text text-anchor="start" x="1331" y="-514" font-family="Helvetica,sans-Serif" font-size="10.00">UBGraphicsMediaItem</text>
<text text-anchor="middle" x="1384" y="-501" font-family="Helvetica,sans-Serif" font-size="10.00">::UBGraphicsMediaItem</text>
</a>
</g>
<!-- Node20&#45;&gt;Node22 -->
<g id="edge46" class="edge"><title>Node20&#45;&gt;Node22</title>
<path fill="none" stroke="midnightblue" d="M1188.27,-396.81C1211.37,-422.236 1250.54,-461.185 1292,-484 1301.45,-489.201 1312.04,-493.437 1322.57,-496.863"/>
<polygon fill="midnightblue" stroke="midnightblue" points="1190.63,-394.194 1181.36,-389.067 1185.41,-398.857 1190.63,-394.194"/>
</g>
<!-- Node23 -->
<g id="node47" class="node"><title>Node23</title>
<a xlink:href="../../d9/d0d/class_u_b_graphics_p_d_f_item.html#ae55063d3348b81ea8388df72069713b9" target="_top" xlink:title="UBGraphicsPDFItem:\l:UBGraphicsPDFItem">
<polygon fill="white" stroke="red" points="1327.5,-441 1327.5,-475 1440.5,-475 1440.5,-441 1327.5,-441"/>
<text text-anchor="start" x="1335.5" y="-462" font-family="Helvetica,sans-Serif" font-size="10.00">UBGraphicsPDFItem:</text>
<text text-anchor="middle" x="1384" y="-449" font-family="Helvetica,sans-Serif" font-size="10.00">:UBGraphicsPDFItem</text>
</a>
</g>
<!-- Node20&#45;&gt;Node23 -->
<g id="edge48" class="edge"><title>Node20&#45;&gt;Node23</title>
<path fill="none" stroke="midnightblue" d="M1207.88,-393.825C1231.93,-406.101 1263.18,-421.103 1292,-432 1303.18,-436.226 1315.35,-440.132 1327.06,-443.563"/>
<polygon fill="midnightblue" stroke="midnightblue" points="1209.2,-390.568 1198.71,-389.096 1205.99,-396.79 1209.2,-390.568"/>
</g>
<!-- Node24 -->
<g id="node49" class="node"><title>Node24</title>
<a xlink:href="../../d1/d78/class_u_b_graphics_pixmap_item.html#ad154326709d1935d96248228d21b20ae" target="_top" xlink:title="UBGraphicsPixmapItem\l::UBGraphicsPixmapItem">
<polygon fill="white" stroke="red" points="1320,-389 1320,-423 1448,-423 1448,-389 1320,-389"/>
<text text-anchor="start" x="1328" y="-410" font-family="Helvetica,sans-Serif" font-size="10.00">UBGraphicsPixmapItem</text>
<text text-anchor="middle" x="1384" y="-397" font-family="Helvetica,sans-Serif" font-size="10.00">::UBGraphicsPixmapItem</text>
</a>
</g>
<!-- Node20&#45;&gt;Node24 -->
<g id="edge50" class="edge"><title>Node20&#45;&gt;Node24</title>
<path fill="none" stroke="midnightblue" d="M1241.25,-383.633C1266.83,-387.641 1295.24,-392.093 1319.94,-395.963"/>
<polygon fill="midnightblue" stroke="midnightblue" points="1241.65,-380.153 1231.23,-382.063 1240.56,-387.069 1241.65,-380.153"/>
</g>
<!-- Node25 -->
<g id="node51" class="node"><title>Node25</title>
<a xlink:href="../../d3/d0b/class_u_b_graphics_strokes_group.html#ab3978d4c4d489c27f90baf64a506f1d8" target="_top" xlink:title="UBGraphicsStrokesGroup\l::UBGraphicsStrokesGroup">
<polygon fill="white" stroke="red" points="1316,-337 1316,-371 1452,-371 1452,-337 1316,-337"/>
<text text-anchor="start" x="1324" y="-358" font-family="Helvetica,sans-Serif" font-size="10.00">UBGraphicsStrokesGroup</text>
<text text-anchor="middle" x="1384" y="-345" font-family="Helvetica,sans-Serif" font-size="10.00">::UBGraphicsStrokesGroup</text>
</a>
</g>
<!-- Node20&#45;&gt;Node25 -->
<g id="edge52" class="edge"><title>Node20&#45;&gt;Node25</title>
<path fill="none" stroke="midnightblue" d="M1241.39,-365.829C1265.51,-363.828 1292.14,-361.62 1315.78,-359.659"/>
<polygon fill="midnightblue" stroke="midnightblue" points="1240.9,-362.358 1231.23,-366.672 1241.48,-369.334 1240.9,-362.358"/>
</g>
<!-- Node26 -->
<g id="node53" class="node"><title>Node26</title>
<a xlink:href="../../d1/dce/class_u_b_graphics_svg_item.html#aefe5ca00c7f91a56938b35611149a779" target="_top" xlink:title="UBGraphicsSvgItem::init">
<polygon fill="white" stroke="red" points="1321.5,-297.5 1321.5,-318.5 1446.5,-318.5 1446.5,-297.5 1321.5,-297.5"/>
<text text-anchor="middle" x="1384" y="-305.5" font-family="Helvetica,sans-Serif" font-size="10.00">UBGraphicsSvgItem::init</text>
</a>
</g>
<!-- Node20&#45;&gt;Node26 -->
<g id="edge54" class="edge"><title>Node20&#45;&gt;Node26</title>
<path fill="none" stroke="midnightblue" d="M1240.33,-351.724C1245.67,-349.898 1250.94,-347.985 1256,-346 1272.65,-339.466 1275.13,-333.946 1292,-328 1302.48,-324.305 1313.89,-321.162 1324.99,-318.539"/>
<polygon fill="midnightblue" stroke="midnightblue" points="1239.07,-348.453 1230.68,-354.913 1241.27,-355.1 1239.07,-348.453"/>
</g>
<!-- Node27 -->
<g id="node55" class="node"><title>Node27</title>
<a xlink:href="../../da/d65/class_u_b_graphics_text_item.html#acbf06a6d840ac7b6c95950e39dcd94b9" target="_top" xlink:title="UBGraphicsTextItem\l::UBGraphicsTextItem">
<polygon fill="white" stroke="red" points="1326.5,-245 1326.5,-279 1441.5,-279 1441.5,-245 1326.5,-245"/>
<text text-anchor="start" x="1334.5" y="-266" font-family="Helvetica,sans-Serif" font-size="10.00">UBGraphicsTextItem</text>
<text text-anchor="middle" x="1384" y="-253" font-family="Helvetica,sans-Serif" font-size="10.00">::UBGraphicsTextItem</text>
</a>
</g>
<!-- Node20&#45;&gt;Node27 -->
<g id="edge56" class="edge"><title>Node20&#45;&gt;Node27</title>
<path fill="none" stroke="midnightblue" d="M1240.48,-355.417C1245.98,-352.734 1251.24,-349.619 1256,-346 1280.16,-327.645 1267.76,-306.249 1292,-288 1302.08,-280.413 1314.28,-275.039 1326.46,-271.233"/>
<polygon fill="midnightblue" stroke="midnightblue" points="1238.79,-352.334 1231.02,-359.536 1241.59,-358.751 1238.79,-352.334"/>
</g>
<!-- Node28 -->
<g id="node57" class="node"><title>Node28</title>
<a xlink:href="../../d0/d16/class_u_b_graphics_widget_item.html#ac1a304e8be3f2ece6dd370210f25c90b" target="_top" xlink:title="UBGraphicsWidgetItem\l::UBGraphicsWidgetItem">
<polygon fill="white" stroke="black" points="1321,-193 1321,-227 1447,-227 1447,-193 1321,-193"/>
<text text-anchor="start" x="1329" y="-214" font-family="Helvetica,sans-Serif" font-size="10.00">UBGraphicsWidgetItem</text>
<text text-anchor="middle" x="1384" y="-201" font-family="Helvetica,sans-Serif" font-size="10.00">::UBGraphicsWidgetItem</text>
</a>
</g>
<!-- Node20&#45;&gt;Node28 -->
<g id="edge58" class="edge"><title>Node20&#45;&gt;Node28</title>
<path fill="none" stroke="midnightblue" d="M1240.55,-357.128C1246.19,-354.078 1251.45,-350.409 1256,-346 1292.95,-310.214 1254.89,-271.623 1292,-236 1300.02,-228.299 1310.15,-222.848 1320.72,-218.997"/>
<polygon fill="midnightblue" stroke="midnightblue" points="1238.98,-354.001 1231.42,-361.431 1241.96,-360.332 1238.98,-354.001"/>
</g>
<!-- Node29&#45;&gt;Node6 -->
<g id="edge62" class="edge"><title>Node29&#45;&gt;Node6</title>
<path fill="none" stroke="midnightblue" d="M568.376,-333.939C581.883,-368.824 610.126,-429.152 654,-463 664.485,-471.089 677.456,-476.668 690.152,-480.515"/>
<polygon fill="midnightblue" stroke="midnightblue" points="571.589,-332.54 564.805,-324.402 565.033,-334.994 571.589,-332.54"/>
</g>
<!-- Node29&#45;&gt;Node7 -->
<g id="edge64" class="edge"><title>Node29&#45;&gt;Node7</title>
<path fill="none" stroke="midnightblue" d="M619.565,-326.157C630.899,-329.002 642.727,-331.485 654,-333 740.693,-344.649 842.799,-339.664 902.47,-334.895"/>
<polygon fill="midnightblue" stroke="midnightblue" points="620.32,-322.736 609.759,-323.578 618.54,-329.506 620.32,-322.736"/>
</g>
<!-- Node30 -->
<g id="node63" class="node"><title>Node30</title>
<a xlink:href="../../d0/d79/class_u_b_favorite_tool_palette.html#a83161cac1258562134412dfcd60aee50" target="_top" xlink:title="UBFavoriteToolPalette\l::addFavorite">
<polygon fill="white" stroke="black" points="683,-420 683,-454 799,-454 799,-420 683,-420"/>
<text text-anchor="start" x="691" y="-441" font-family="Helvetica,sans-Serif" font-size="10.00">UBFavoriteToolPalette</text>
<text text-anchor="middle" x="741" y="-428" font-family="Helvetica,sans-Serif" font-size="10.00">::addFavorite</text>
</a>
</g>
<!-- Node29&#45;&gt;Node30 -->
<g id="edge66" class="edge"><title>Node29&#45;&gt;Node30</title>
<path fill="none" stroke="midnightblue" d="M576.06,-332.496C593.136,-356.12 621.491,-390.596 654,-411 662.812,-416.531 672.864,-420.938 682.929,-424.434"/>
<polygon fill="midnightblue" stroke="midnightblue" points="578.708,-330.178 570.083,-324.025 572.989,-334.214 578.708,-330.178"/>
</g>
<!-- Node32 -->
<g id="node67" class="node"><title>Node32</title>
<a xlink:href="../../d8/d33/class_u_b_features_controller.html#a38042ae37804ee19bfacf4aafd096ea9" target="_top" xlink:title="UBFeaturesController\l::addItemToPage">
<polygon fill="white" stroke="black" points="685.5,-238 685.5,-272 796.5,-272 796.5,-238 685.5,-238"/>
<text text-anchor="start" x="693.5" y="-259" font-family="Helvetica,sans-Serif" font-size="10.00">UBFeaturesController</text>
<text text-anchor="middle" x="741" y="-246" font-family="Helvetica,sans-Serif" font-size="10.00">::addItemToPage</text>
</a>
</g>
<!-- Node29&#45;&gt;Node32 -->
<g id="edge70" class="edge"><title>Node29&#45;&gt;Node32</title>
<path fill="none" stroke="midnightblue" d="M619.592,-289.688C640.861,-283.611 664.634,-276.819 685.467,-270.867"/>
<polygon fill="midnightblue" stroke="midnightblue" points="618.351,-286.402 609.697,-292.515 620.274,-293.133 618.351,-286.402"/>
</g>
<!-- Node35 -->
<g id="node73" class="node"><title>Node35</title>
<a xlink:href="../../d8/d33/class_u_b_features_controller.html#a0ecd4b84e703063db5c0fdf498f2cdb0" target="_top" xlink:title="UBFeaturesController\l::addItemAsBackground">
<polygon fill="white" stroke="black" points="680,-186 680,-220 802,-220 802,-186 680,-186"/>
<text text-anchor="start" x="688" y="-207" font-family="Helvetica,sans-Serif" font-size="10.00">UBFeaturesController</text>
<text text-anchor="middle" x="741" y="-194" font-family="Helvetica,sans-Serif" font-size="10.00">::addItemAsBackground</text>
</a>
</g>
<!-- Node29&#45;&gt;Node35 -->
<g id="edge76" class="edge"><title>Node29&#45;&gt;Node35</title>
<path fill="none" stroke="midnightblue" d="M582.919,-282.749C601.037,-265.596 627.295,-243.207 654,-229 662.072,-224.706 670.952,-221.023 679.86,-217.894"/>
<polygon fill="midnightblue" stroke="midnightblue" points="580.439,-280.278 575.674,-289.741 585.3,-285.315 580.439,-280.278"/>
</g>
<!-- Node37 -->
<g id="node78" class="node"><title>Node37</title>
<a xlink:href="../../da/dd6/class_u_b_library_a_p_i.html#abeac23fcd7f64866d5686b590ec05695" target="_top" xlink:title="UBLibraryAPI::addObject">
<polygon fill="white" stroke="black" points="677.5,-380.5 677.5,-401.5 804.5,-401.5 804.5,-380.5 677.5,-380.5"/>
<text text-anchor="middle" x="741" y="-388.5" font-family="Helvetica,sans-Serif" font-size="10.00">UBLibraryAPI::addObject</text>
</a>
</g>
<!-- Node29&#45;&gt;Node37 -->
<g id="edge82" class="edge"><title>Node29&#45;&gt;Node37</title>
<path fill="none" stroke="midnightblue" d="M590.913,-329.915C608.794,-341.945 631.888,-356.184 654,-366 667.071,-371.802 681.842,-376.639 695.454,-380.462"/>
<polygon fill="midnightblue" stroke="midnightblue" points="592.81,-326.972 582.581,-324.215 588.858,-332.75 592.81,-326.972"/>
</g>
<!-- Node38 -->
<g id="node80" class="node"><title>Node38</title>
<a xlink:href="../../df/d50/class_u_b_web_controller.html#a318422dc0a027e2258180673bb333586" target="_top" xlink:title="UBWebController::capture\lEduMedia">
<polygon fill="white" stroke="black" points="675.5,-8 675.5,-42 806.5,-42 806.5,-8 675.5,-8"/>
<text text-anchor="start" x="683.5" y="-29" font-family="Helvetica,sans-Serif" font-size="10.00">UBWebController::capture</text>
<text text-anchor="middle" x="741" y="-16" font-family="Helvetica,sans-Serif" font-size="10.00">EduMedia</text>
</a>
</g>
<!-- Node29&#45;&gt;Node38 -->
<g id="edge84" class="edge"><title>Node29&#45;&gt;Node38</title>
<path fill="none" stroke="midnightblue" d="M561.834,-279.78C568.555,-228.872 590.022,-118.741 654,-56 660.068,-50.0498 667.352,-45.2347 675.089,-41.3396"/>
<polygon fill="midnightblue" stroke="midnightblue" points="558.36,-279.354 560.614,-289.706 565.308,-280.208 558.36,-279.354"/>
</g>
<!-- Node41 -->
<g id="node86" class="node"><title>Node41</title>
<a xlink:href="../../d5/d2b/class_u_b_widget_uniboard_a_p_i.html#a73ac1600ef3ed549d2c6c969436efb2f" target="_top" xlink:title="UBWidgetUniboardAPI\l::addObject">
<polygon fill="white" stroke="black" points="682.5,-290 682.5,-324 799.5,-324 799.5,-290 682.5,-290"/>
<text text-anchor="start" x="690.5" y="-311" font-family="Helvetica,sans-Serif" font-size="10.00">UBWidgetUniboardAPI</text>
<text text-anchor="middle" x="741" y="-298" font-family="Helvetica,sans-Serif" font-size="10.00">::addObject</text>
</a>
</g>
<!-- Node29&#45;&gt;Node41 -->
<g id="edge90" class="edge"><title>Node29&#45;&gt;Node41</title>
<path fill="none" stroke="midnightblue" d="M619.969,-307C640.04,-307 662.307,-307 682.212,-307"/>
<polygon fill="midnightblue" stroke="midnightblue" points="619.697,-303.5 609.697,-307 619.697,-310.5 619.697,-303.5"/>
</g>
<!-- Node42 -->
<g id="node88" class="node"><title>Node42</title>
<a xlink:href="../../db/d78/class_w_b_web_trap_web_view.html#afdbfd6aac50cad5ac07a465baa7be0b6" target="_top" xlink:title="WBWebTrapWebView::trapElement\lAtPos">
<polygon fill="white" stroke="black" points="654.5,-134 654.5,-168 827.5,-168 827.5,-134 654.5,-134"/>
<text text-anchor="start" x="662.5" y="-155" font-family="Helvetica,sans-Serif" font-size="10.00">WBWebTrapWebView::trapElement</text>
<text text-anchor="middle" x="741" y="-142" font-family="Helvetica,sans-Serif" font-size="10.00">AtPos</text>
</a>
</g>
<!-- Node29&#45;&gt;Node42 -->
<g id="edge92" class="edge"><title>Node29&#45;&gt;Node42</title>
<path fill="none" stroke="midnightblue" d="M571.608,-280.613C587.024,-251.113 615.848,-203.954 654,-177 658.764,-173.634 663.968,-170.699 669.386,-168.139"/>
<polygon fill="midnightblue" stroke="midnightblue" points="568.306,-279.384 566.899,-289.885 574.548,-282.554 568.306,-279.384"/>
</g>
<!-- Node45 -->
<g id="node94" class="node"><title>Node45</title>
<a xlink:href="../../dd/dc8/class_w_b_web_page.html#a4f177fc1cee35b60e7973ff2573025e7" target="_top" xlink:title="WBWebPage::handleUnsupported\lContent">
<polygon fill="white" stroke="black" points="658,-65 658,-99 824,-99 824,-65 658,-65"/>
<text text-anchor="start" x="666" y="-86" font-family="Helvetica,sans-Serif" font-size="10.00">WBWebPage::handleUnsupported</text>
<text text-anchor="middle" x="741" y="-73" font-family="Helvetica,sans-Serif" font-size="10.00">Content</text>
</a>
</g>
<!-- Node29&#45;&gt;Node45 -->
<g id="edge98" class="edge"><title>Node29&#45;&gt;Node45</title>
<path fill="none" stroke="midnightblue" d="M567.037,-280.214C579.827,-241.553 608.157,-169.844 654,-125 664.96,-114.279 679.121,-105.746 692.823,-99.2011"/>
<polygon fill="midnightblue" stroke="midnightblue" points="563.702,-279.153 563.98,-289.744 570.367,-281.292 563.702,-279.153"/>
</g>
<!-- Node31 -->
<g id="node65" class="node"><title>Node31</title>
<a xlink:href="../../d0/d79/class_u_b_favorite_tool_palette.html#a5c96e32fc43e9342cde947b25425516c" target="_top" xlink:title="UBFavoriteToolPalette\l::UBFavoriteToolPalette">
<polygon fill="white" stroke="black" points="892,-420 892,-454 1014,-454 1014,-420 892,-420"/>
<text text-anchor="start" x="900" y="-441" font-family="Helvetica,sans-Serif" font-size="10.00">UBFavoriteToolPalette</text>
<text text-anchor="middle" x="953" y="-428" font-family="Helvetica,sans-Serif" font-size="10.00">::UBFavoriteToolPalette</text>
</a>
</g>
<!-- Node30&#45;&gt;Node31 -->
<g id="edge68" class="edge"><title>Node30&#45;&gt;Node31</title>
<path fill="none" stroke="midnightblue" d="M809.212,-437C835.82,-437 866.083,-437 891.959,-437"/>
<polygon fill="midnightblue" stroke="midnightblue" points="809.21,-433.5 799.21,-437 809.21,-440.5 809.21,-433.5"/>
</g>
<!-- Node33 -->
<g id="node69" class="node"><title>Node33</title>
<a xlink:href="../../dd/dc8/class_u_b_feature_properties.html#a6fb900fb691ba01479801333a4df226d" target="_top" xlink:title="UBFeatureProperties\l::onAddToPage">
<polygon fill="white" stroke="black" points="899,-242 899,-276 1007,-276 1007,-242 899,-242"/>
<text text-anchor="start" x="907" y="-263" font-family="Helvetica,sans-Serif" font-size="10.00">UBFeatureProperties</text>
<text text-anchor="middle" x="953" y="-250" font-family="Helvetica,sans-Serif" font-size="10.00">::onAddToPage</text>
</a>
</g>
<!-- Node32&#45;&gt;Node33 -->
<g id="edge72" class="edge"><title>Node32&#45;&gt;Node33</title>
<path fill="none" stroke="midnightblue" d="M806.916,-256.244C836.421,-256.8 870.786,-257.449 898.77,-257.977"/>
<polygon fill="midnightblue" stroke="midnightblue" points="806.765,-252.74 796.701,-256.051 806.633,-259.739 806.765,-252.74"/>
</g>
<!-- Node34 -->
<g id="node71" class="node"><title>Node34</title>
<a xlink:href="../../dd/dc8/class_u_b_feature_properties.html#ac62ad70b89370327d9ed3f9f88a68415" target="_top" xlink:title="UBFeatureProperties\l::UBFeatureProperties">
<polygon fill="white" stroke="black" points="1110,-193 1110,-227 1224,-227 1224,-193 1110,-193"/>
<text text-anchor="start" x="1118" y="-214" font-family="Helvetica,sans-Serif" font-size="10.00">UBFeatureProperties</text>
<text text-anchor="middle" x="1167" y="-201" font-family="Helvetica,sans-Serif" font-size="10.00">::UBFeatureProperties</text>
</a>
</g>
<!-- Node33&#45;&gt;Node34 -->
<g id="edge74" class="edge"><title>Node33&#45;&gt;Node34</title>
<path fill="none" stroke="midnightblue" d="M1016.78,-244.396C1046.26,-237.646 1081,-229.692 1109.64,-223.133"/>
<polygon fill="midnightblue" stroke="midnightblue" points="1015.97,-240.991 1007,-246.635 1017.53,-247.815 1015.97,-240.991"/>
</g>
<!-- Node36 -->
<g id="node75" class="node"><title>Node36</title>
<a xlink:href="../../dd/dc8/class_u_b_feature_properties.html#af183f096cbff2df0da3206b8e71c3525" target="_top" xlink:title="UBFeatureProperties\l::onSetAsBackground">
<polygon fill="white" stroke="black" points="897,-190 897,-224 1009,-224 1009,-190 897,-190"/>
<text text-anchor="start" x="905" y="-211" font-family="Helvetica,sans-Serif" font-size="10.00">UBFeatureProperties</text>
<text text-anchor="middle" x="953" y="-198" font-family="Helvetica,sans-Serif" font-size="10.00">::onSetAsBackground</text>
</a>
</g>
<!-- Node35&#45;&gt;Node36 -->
<g id="edge78" class="edge"><title>Node35&#45;&gt;Node36</title>
<path fill="none" stroke="midnightblue" d="M812.385,-204.347C839.883,-204.866 870.872,-205.45 896.747,-205.939"/>
<polygon fill="midnightblue" stroke="midnightblue" points="812.099,-200.841 802.035,-204.152 811.967,-207.84 812.099,-200.841"/>
</g>
<!-- Node36&#45;&gt;Node34 -->
<g id="edge80" class="edge"><title>Node36&#45;&gt;Node34</title>
<path fill="none" stroke="midnightblue" d="M1019.25,-207.929C1048.19,-208.334 1081.81,-208.806 1109.66,-209.196"/>
<polygon fill="midnightblue" stroke="midnightblue" points="1019.27,-204.429 1009.23,-207.788 1019.18,-211.428 1019.27,-204.429"/>
</g>
<!-- Node39 -->
<g id="node82" class="node"><title>Node39</title>
<a xlink:href="../../df/d50/class_u_b_web_controller.html#af73cfa36d5b743fa3a652e49dd7e4831" target="_top" xlink:title="UBWebController::setupPalettes">
<polygon fill="white" stroke="black" points="873.5,-6.5 873.5,-27.5 1032.5,-27.5 1032.5,-6.5 873.5,-6.5"/>
<text text-anchor="middle" x="953" y="-14.5" font-family="Helvetica,sans-Serif" font-size="10.00">UBWebController::setupPalettes</text>
</a>
</g>
<!-- Node38&#45;&gt;Node39 -->
<g id="edge86" class="edge"><title>Node38&#45;&gt;Node39</title>
<path fill="none" stroke="midnightblue" d="M816.655,-22.1451C834.979,-21.4536 854.624,-20.7123 873.136,-20.0137"/>
<polygon fill="midnightblue" stroke="midnightblue" points="816.487,-18.6488 806.626,-22.5235 816.751,-25.6439 816.487,-18.6488"/>
</g>
<!-- Node40 -->
<g id="node84" class="node"><title>Node40</title>
<a xlink:href="../../df/d50/class_u_b_web_controller.html#a56d469910c2a1c76725fbfeffb7e0054" target="_top" xlink:title="UBWebController::webBrowser\lInstance">
<polygon fill="white" stroke="red" points="1090.5,-0 1090.5,-34 1243.5,-34 1243.5,-0 1090.5,-0"/>
<text text-anchor="start" x="1098.5" y="-21" font-family="Helvetica,sans-Serif" font-size="10.00">UBWebController::webBrowser</text>
<text text-anchor="middle" x="1167" y="-8" font-family="Helvetica,sans-Serif" font-size="10.00">Instance</text>
</a>
</g>
<!-- Node39&#45;&gt;Node40 -->
<g id="edge88" class="edge"><title>Node39&#45;&gt;Node40</title>
<path fill="none" stroke="midnightblue" d="M1042.97,-17C1058.76,-17 1075.06,-17 1090.44,-17"/>
<polygon fill="midnightblue" stroke="midnightblue" points="1042.69,-13.5001 1032.69,-17 1042.69,-20.5001 1042.69,-13.5001"/>
</g>
<!-- Node43 -->
<g id="node90" class="node"><title>Node43</title>
<a xlink:href="../../db/d78/class_w_b_web_trap_web_view.html#a2ac308414d18186c9c4fc60bc5f46400" target="_top" xlink:title="WBWebTrapWebView::trapContent\lFromHitTest">
<polygon fill="white" stroke="black" points="867,-138 867,-172 1039,-172 1039,-138 867,-138"/>
<text text-anchor="start" x="875" y="-159" font-family="Helvetica,sans-Serif" font-size="10.00">WBWebTrapWebView::trapContent</text>
<text text-anchor="middle" x="953" y="-146" font-family="Helvetica,sans-Serif" font-size="10.00">FromHitTest</text>
</a>
</g>
<!-- Node42&#45;&gt;Node43 -->
<g id="edge94" class="edge"><title>Node42&#45;&gt;Node43</title>
<path fill="none" stroke="midnightblue" d="M837.607,-152.823C847.323,-153.006 857.144,-153.191 866.742,-153.372"/>
<polygon fill="midnightblue" stroke="midnightblue" points="837.599,-149.322 827.534,-152.633 837.466,-156.321 837.599,-149.322"/>
</g>
<!-- Node44 -->
<g id="node92" class="node"><title>Node44</title>
<a xlink:href="../../dd/df0/class_u_b_web_trap_mouse_event_mask.html#a2c69d74fef874516e38daeab13e6ecd0" target="_top" xlink:title="UBWebTrapMouseEventMask\l::mousePressEvent">
<polygon fill="white" stroke="black" points="878.5,-86 878.5,-120 1027.5,-120 1027.5,-86 878.5,-86"/>
<text text-anchor="start" x="886.5" y="-107" font-family="Helvetica,sans-Serif" font-size="10.00">UBWebTrapMouseEventMask</text>
<text text-anchor="middle" x="953" y="-94" font-family="Helvetica,sans-Serif" font-size="10.00">::mousePressEvent</text>
</a>
</g>
<!-- Node42&#45;&gt;Node44 -->
<g id="edge96" class="edge"><title>Node42&#45;&gt;Node44</title>
<path fill="none" stroke="midnightblue" d="M826.355,-131.674C843.538,-127.784 861.473,-123.723 878.259,-119.922"/>
<polygon fill="midnightblue" stroke="midnightblue" points="825.32,-128.32 816.34,-133.942 826.866,-135.147 825.32,-128.32"/>
</g>
<!-- Node46 -->
<g id="node96" class="node"><title>Node46</title>
<a xlink:href="../../dd/dc8/class_w_b_web_page.html#a01017231eb0981875b79223f8457b302" target="_top" xlink:title="WBWebPage::WBWebPage">
<polygon fill="white" stroke="black" points="882.5,-46.5 882.5,-67.5 1023.5,-67.5 1023.5,-46.5 882.5,-46.5"/>
<text text-anchor="middle" x="953" y="-54.5" font-family="Helvetica,sans-Serif" font-size="10.00">WBWebPage::WBWebPage</text>
</a>
</g>
<!-- Node45&#45;&gt;Node46 -->
<g id="edge100" class="edge"><title>Node45&#45;&gt;Node46</title>
<path fill="none" stroke="midnightblue" d="M834.188,-71.0108C850.369,-69.1027 866.954,-67.147 882.405,-65.3249"/>
<polygon fill="midnightblue" stroke="midnightblue" points="833.701,-67.544 824.18,-72.1911 834.521,-74.4958 833.701,-67.544"/>
</g>
<!-- Node47&#45;&gt;Node2 -->
<g id="edge104" class="edge"><title>Node47&#45;&gt;Node2</title>
<path fill="none" stroke="midnightblue" d="M314.446,-579.107C330.287,-583.591 347.2,-588.377 362.464,-592.697"/>
<polygon fill="midnightblue" stroke="midnightblue" points="315.321,-575.718 304.746,-576.362 313.415,-582.453 315.321,-575.718"/>
</g>
<!-- Node48&#45;&gt;Node2 -->
<g id="edge108" class="edge"><title>Node48&#45;&gt;Node2</title>
<path fill="none" stroke="midnightblue" d="M314.446,-634.893C330.287,-630.409 347.2,-625.623 362.464,-621.303"/>
<polygon fill="midnightblue" stroke="midnightblue" points="313.415,-631.547 304.746,-637.638 315.321,-638.282 313.415,-631.547"/>
</g>
</g>
</svg>
