<?xml version="1.0" encoding="UTF-8" standalone="no"?>
<!DOCTYPE svg PUBLIC "-//W3C//DTD SVG 1.1//EN"
 "http://www.w3.org/Graphics/SVG/1.1/DTD/svg11.dtd">
<!-- Generated by graphviz version 2.26.3 (20100126.1600)
 -->
<!-- Title: UBGraphicsScene::textUndoCommandAdded Pages: 1 -->
<svg width="856pt" height="238pt"
 viewBox="0.00 0.00 856.00 238.00" xmlns="http://www.w3.org/2000/svg" xmlns:xlink="http://www.w3.org/1999/xlink">
<g id="graph1" class="graph" transform="scale(1 1) rotate(0) translate(4 234)">
<title>UBGraphicsScene::textUndoCommandAdded</title>
<polygon fill="white" stroke="white" points="-4,5 -4,-234 853,-234 853,5 -4,5"/>
<!-- Node1 -->
<g id="node1" class="node"><title>Node1</title>
<polygon fill="#bfbfbf" stroke="black" points="0.5,-89 0.5,-123 143.5,-123 143.5,-89 0.5,-89"/>
<text text-anchor="start" x="8.5" y="-110" font-family="Helvetica,sans-Serif" font-size="10.00">UBGraphicsScene::textUndo</text>
<text text-anchor="middle" x="72" y="-97" font-family="Helvetica,sans-Serif" font-size="10.00">CommandAdded</text>
</g>
<!-- Node2 -->
<g id="node3" class="node"><title>Node2</title>
<a xlink:href="../../dc/db2/class_u_b_graphics_scene.html#aebfa0ab541a75af5b21b384e4a05c00e" target="_top" xlink:title="UBGraphicsScene::addText\lWithFont">
<polygon fill="white" stroke="black" points="190.5,-127 190.5,-161 329.5,-161 329.5,-127 190.5,-127"/>
<text text-anchor="start" x="198.5" y="-148" font-family="Helvetica,sans-Serif" font-size="10.00">UBGraphicsScene::addText</text>
<text text-anchor="middle" x="260" y="-135" font-family="Helvetica,sans-Serif" font-size="10.00">WithFont</text>
</a>
</g>
<!-- Node1&#45;&gt;Node2 -->
<g id="edge2" class="edge"><title>Node1&#45;&gt;Node2</title>
<path fill="none" stroke="midnightblue" d="M153.426,-122.458C165.763,-124.952 178.395,-127.505 190.451,-129.942"/>
<polygon fill="midnightblue" stroke="midnightblue" points="154.106,-119.025 143.611,-120.475 152.719,-125.886 154.106,-119.025"/>
</g>
<!-- Node6 -->
<g id="node11" class="node"><title>Node6</title>
<a xlink:href="../../dc/db2/class_u_b_graphics_scene.html#a0161e4cd7210721409b7da0e20fc6260" target="_top" xlink:title="UBGraphicsScene::addTextHtml">
<polygon fill="white" stroke="black" points="180,-58.5 180,-79.5 340,-79.5 340,-58.5 180,-58.5"/>
<text text-anchor="middle" x="260" y="-66.5" font-family="Helvetica,sans-Serif" font-size="10.00">UBGraphicsScene::addTextHtml</text>
</a>
</g>
<!-- Node1&#45;&gt;Node6 -->
<g id="edge10" class="edge"><title>Node1&#45;&gt;Node6</title>
<path fill="none" stroke="midnightblue" d="M153.485,-89.963C171.404,-86.4365 189.94,-82.7884 206.426,-79.5437"/>
<polygon fill="midnightblue" stroke="midnightblue" points="152.747,-86.5411 143.611,-91.9063 154.099,-93.4093 152.747,-86.5411"/>
</g>
<!-- Node3 -->
<g id="node5" class="node"><title>Node3</title>
<a xlink:href="../../d5/d2b/class_u_b_widget_uniboard_a_p_i.html#aa897f74227bb93be8921064856c9a826" target="_top" xlink:title="UBWidgetUniboardAPI\l::addText">
<polygon fill="white" stroke="black" points="392.5,-196 392.5,-230 509.5,-230 509.5,-196 392.5,-196"/>
<text text-anchor="start" x="400.5" y="-217" font-family="Helvetica,sans-Serif" font-size="10.00">UBWidgetUniboardAPI</text>
<text text-anchor="middle" x="451" y="-204" font-family="Helvetica,sans-Serif" font-size="10.00">::addText</text>
</a>
</g>
<!-- Node2&#45;&gt;Node3 -->
<g id="edge4" class="edge"><title>Node2&#45;&gt;Node3</title>
<path fill="none" stroke="midnightblue" d="M314.903,-164.624C334.188,-171.796 356.024,-179.836 376,-187 384.172,-189.931 392.865,-192.994 401.326,-195.946"/>
<polygon fill="midnightblue" stroke="midnightblue" points="315.961,-161.284 305.368,-161.072 313.517,-167.843 315.961,-161.284"/>
</g>
<!-- Node4 -->
<g id="node7" class="node"><title>Node4</title>
<a xlink:href="../../dc/db2/class_u_b_graphics_scene.html#adbfabe62d183758c50d8259d2e569152" target="_top" xlink:title="UBGraphicsScene::addText">
<polygon fill="white" stroke="black" points="381.5,-156.5 381.5,-177.5 520.5,-177.5 520.5,-156.5 381.5,-156.5"/>
<text text-anchor="middle" x="451" y="-164.5" font-family="Helvetica,sans-Serif" font-size="10.00">UBGraphicsScene::addText</text>
</a>
</g>
<!-- Node2&#45;&gt;Node4 -->
<g id="edge6" class="edge"><title>Node2&#45;&gt;Node4</title>
<path fill="none" stroke="midnightblue" d="M339.747,-153.603C353.587,-155.27 367.881,-156.991 381.423,-158.622"/>
<polygon fill="midnightblue" stroke="midnightblue" points="340.113,-150.122 329.766,-152.401 339.276,-157.072 340.113,-150.122"/>
</g>
<!-- Node5 -->
<g id="node9" class="node"><title>Node5</title>
<a xlink:href="../../dc/db2/class_u_b_graphics_scene.html#a2ae7b40259282b306f5dc21e1e12e607" target="_top" xlink:title="UBGraphicsScene::textFor\lObjectName">
<polygon fill="white" stroke="black" points="384,-104 384,-138 518,-138 518,-104 384,-104"/>
<text text-anchor="start" x="392" y="-125" font-family="Helvetica,sans-Serif" font-size="10.00">UBGraphicsScene::textFor</text>
<text text-anchor="middle" x="451" y="-112" font-family="Helvetica,sans-Serif" font-size="10.00">ObjectName</text>
</a>
</g>
<!-- Node2&#45;&gt;Node5 -->
<g id="edge8" class="edge"><title>Node2&#45;&gt;Node5</title>
<path fill="none" stroke="midnightblue" d="M339.833,-134.387C354.518,-132.618 369.71,-130.789 383.97,-129.072"/>
<polygon fill="midnightblue" stroke="midnightblue" points="339.276,-130.928 329.766,-135.599 340.113,-137.878 339.276,-130.928"/>
</g>
<!-- Node7 -->
<g id="node13" class="node"><title>Node7</title>
<a xlink:href="../../d7/d62/class_u_b_board_controller.html#a07e50010567075b570140d6143c516f5" target="_top" xlink:title="UBBoardController:\l:processMimeData">
<polygon fill="white" stroke="black" points="400.5,-52 400.5,-86 501.5,-86 501.5,-52 400.5,-52"/>
<text text-anchor="start" x="408.5" y="-73" font-family="Helvetica,sans-Serif" font-size="10.00">UBBoardController:</text>
<text text-anchor="middle" x="451" y="-60" font-family="Helvetica,sans-Serif" font-size="10.00">:processMimeData</text>
</a>
</g>
<!-- Node6&#45;&gt;Node7 -->
<g id="edge12" class="edge"><title>Node6&#45;&gt;Node7</title>
<path fill="none" stroke="midnightblue" d="M350.281,-69C367.525,-69 384.997,-69 400.438,-69"/>
<polygon fill="midnightblue" stroke="midnightblue" points="350.171,-65.5001 340.171,-69 350.171,-72.5001 350.171,-65.5001"/>
</g>
<!-- Node11 -->
<g id="node21" class="node"><title>Node11</title>
<a xlink:href="../../d1/d78/class_u_b_board_view.html#acc4206bbb27829580a337c81708be4a3" target="_top" xlink:title="UBBoardView::mouseRelease\lEvent">
<polygon fill="white" stroke="black" points="376.5,-0 376.5,-34 525.5,-34 525.5,-0 376.5,-0"/>
<text text-anchor="start" x="384.5" y="-21" font-family="Helvetica,sans-Serif" font-size="10.00">UBBoardView::mouseRelease</text>
<text text-anchor="middle" x="451" y="-8" font-family="Helvetica,sans-Serif" font-size="10.00">Event</text>
</a>
</g>
<!-- Node6&#45;&gt;Node11 -->
<g id="edge20" class="edge"><title>Node6&#45;&gt;Node11</title>
<path fill="none" stroke="midnightblue" d="M308.354,-55.8356C332.633,-49.2256 362.338,-41.1383 388.344,-34.0582"/>
<polygon fill="midnightblue" stroke="midnightblue" points="307.381,-52.473 298.652,-58.477 309.22,-59.2271 307.381,-52.473"/>
</g>
<!-- Node8 -->
<g id="node15" class="node"><title>Node8</title>
<a xlink:href="../../d7/d62/class_u_b_board_controller.html#a68518a98107e994551da0a4e3a79fe2c" target="_top" xlink:title="UBBoardController:\l:paste">
<polygon fill="white" stroke="black" points="575.5,-75 575.5,-109 676.5,-109 676.5,-75 575.5,-75"/>
<text text-anchor="start" x="583.5" y="-96" font-family="Helvetica,sans-Serif" font-size="10.00">UBBoardController:</text>
<text text-anchor="middle" x="626" y="-83" font-family="Helvetica,sans-Serif" font-size="10.00">:paste</text>
</a>
</g>
<!-- Node7&#45;&gt;Node8 -->
<g id="edge14" class="edge"><title>Node7&#45;&gt;Node8</title>
<path fill="none" stroke="midnightblue" d="M511.64,-76.9698C532.473,-79.7079 555.556,-82.7416 575.497,-85.3624"/>
<polygon fill="midnightblue" stroke="midnightblue" points="511.988,-73.4856 501.617,-75.6526 511.076,-80.4259 511.988,-73.4856"/>
</g>
<!-- Node10 -->
<g id="node19" class="node"><title>Node10</title>
<a xlink:href="../../d1/d78/class_u_b_board_view.html#a1bb7794094c4bb04637b0df2bc0c0fa9" target="_top" xlink:title="UBBoardView::dropEvent">
<polygon fill="white" stroke="black" points="562,-35.5 562,-56.5 690,-56.5 690,-35.5 562,-35.5"/>
<text text-anchor="middle" x="626" y="-43.5" font-family="Helvetica,sans-Serif" font-size="10.00">UBBoardView::dropEvent</text>
</a>
</g>
<!-- Node7&#45;&gt;Node10 -->
<g id="edge18" class="edge"><title>Node7&#45;&gt;Node10</title>
<path fill="none" stroke="midnightblue" d="M511.981,-60.9853C528.082,-58.8692 545.506,-56.5793 561.772,-54.4414"/>
<polygon fill="midnightblue" stroke="midnightblue" points="511.076,-57.5741 501.617,-62.3474 511.988,-64.5144 511.076,-57.5741"/>
</g>
<!-- Node9 -->
<g id="node17" class="node"><title>Node9</title>
<a xlink:href="../../da/d14/class_u_b_application_controller.html#a6afa41e1bc0c178acaa89684b7e9db26" target="_top" xlink:title="UBApplicationController\l::actionPaste">
<polygon fill="white" stroke="black" points="726.5,-75 726.5,-109 847.5,-109 847.5,-75 726.5,-75"/>
<text text-anchor="start" x="734.5" y="-96" font-family="Helvetica,sans-Serif" font-size="10.00">UBApplicationController</text>
<text text-anchor="middle" x="787" y="-83" font-family="Helvetica,sans-Serif" font-size="10.00">::actionPaste</text>
</a>
</g>
<!-- Node8&#45;&gt;Node9 -->
<g id="edge16" class="edge"><title>Node8&#45;&gt;Node9</title>
<path fill="none" stroke="midnightblue" d="M687.056,-92C699.89,-92 713.425,-92 726.248,-92"/>
<polygon fill="midnightblue" stroke="midnightblue" points="686.941,-88.5001 676.941,-92 686.941,-95.5001 686.941,-88.5001"/>
</g>
</g>
</svg>
