<?xml version="1.0" encoding="UTF-8" standalone="no"?>
<!DOCTYPE svg PUBLIC "-//W3C//DTD SVG 1.1//EN"
 "http://www.w3.org/Graphics/SVG/1.1/DTD/svg11.dtd">
<!-- Generated by graphviz version 2.26.3 (20100126.1600)
 -->
<!-- Title: UBGraphicsScene::arcToPolygonItem Pages: 1 -->
<svg width="684pt" height="42pt"
 viewBox="0.00 0.00 684.00 42.00" xmlns="http://www.w3.org/2000/svg" xmlns:xlink="http://www.w3.org/1999/xlink">
<g id="graph1" class="graph" transform="scale(1 1) rotate(0) translate(4 38)">
<title>UBGraphicsScene::arcToPolygonItem</title>
<polygon fill="white" stroke="white" points="-4,5 -4,-38 681,-38 681,5 -4,5"/>
<!-- Node1 -->
<g id="node1" class="node"><title>Node1</title>
<polygon fill="#bfbfbf" stroke="black" points="0.5,-6.5 0.5,-27.5 183.5,-27.5 183.5,-6.5 0.5,-6.5"/>
<text text-anchor="middle" x="92" y="-14.5" font-family="Helvetica,sans-Serif" font-size="10.00">UBGraphicsScene::arcToPolygonItem</text>
</g>
<!-- Node2 -->
<g id="node3" class="node"><title>Node2</title>
<a xlink:href="../../dc/db2/class_u_b_graphics_scene.html#a56e8a13badcf6e0c4780557e45752fbe" target="_top" xlink:title="UBGraphicsScene::drawArcTo">
<polygon fill="white" stroke="black" points="220.5,-6.5 220.5,-27.5 371.5,-27.5 371.5,-6.5 220.5,-6.5"/>
<text text-anchor="middle" x="296" y="-14.5" font-family="Helvetica,sans-Serif" font-size="10.00">UBGraphicsScene::drawArcTo</text>
</a>
</g>
<!-- Node1&#45;&gt;Node2 -->
<g id="edge2" class="edge"><title>Node1&#45;&gt;Node2</title>
<path fill="none" stroke="midnightblue" d="M193.667,-17C202.636,-17 211.609,-17 220.307,-17"/>
<polygon fill="midnightblue" stroke="midnightblue" points="193.557,-13.5001 183.557,-17 193.557,-20.5001 193.557,-13.5001"/>
</g>
<!-- Node3 -->
<g id="node5" class="node"><title>Node3</title>
<a xlink:href="../../d6/d56/class_u_b_graphics_compass.html#a3b221029aa782160327163d7d48b626f" target="_top" xlink:title="UBGraphicsCompass:\l:drawArc">
<polygon fill="white" stroke="black" points="408.5,-0 408.5,-34 523.5,-34 523.5,-0 408.5,-0"/>
<text text-anchor="start" x="416.5" y="-21" font-family="Helvetica,sans-Serif" font-size="10.00">UBGraphicsCompass:</text>
<text text-anchor="middle" x="466" y="-8" font-family="Helvetica,sans-Serif" font-size="10.00">:drawArc</text>
</a>
</g>
<!-- Node2&#45;&gt;Node3 -->
<g id="edge4" class="edge"><title>Node2&#45;&gt;Node3</title>
<path fill="none" stroke="midnightblue" d="M381.704,-17C390.709,-17 399.704,-17 408.284,-17"/>
<polygon fill="midnightblue" stroke="midnightblue" points="381.555,-13.5001 371.554,-17 381.554,-20.5001 381.555,-13.5001"/>
</g>
<!-- Node4 -->
<g id="node7" class="node"><title>Node4</title>
<a xlink:href="../../d6/d56/class_u_b_graphics_compass.html#a524de67b4d3b7dcdfc98ba061038cd14" target="_top" xlink:title="UBGraphicsCompass:\l:mouseMoveEvent">
<polygon fill="white" stroke="black" points="560.5,-0 560.5,-34 675.5,-34 675.5,-0 560.5,-0"/>
<text text-anchor="start" x="568.5" y="-21" font-family="Helvetica,sans-Serif" font-size="10.00">UBGraphicsCompass:</text>
<text text-anchor="middle" x="618" y="-8" font-family="Helvetica,sans-Serif" font-size="10.00">:mouseMoveEvent</text>
</a>
</g>
<!-- Node3&#45;&gt;Node4 -->
<g id="edge6" class="edge"><title>Node3&#45;&gt;Node4</title>
<path fill="none" stroke="midnightblue" d="M534.072,-17C542.817,-17 551.704,-17 560.263,-17"/>
<polygon fill="midnightblue" stroke="midnightblue" points="533.898,-13.5001 523.898,-17 533.898,-20.5001 533.898,-13.5001"/>
</g>
</g>
</svg>
