<?xml version="1.0" encoding="UTF-8" standalone="no"?>
<!DOCTYPE svg PUBLIC "-//W3C//DTD SVG 1.1//EN"
 "http://www.w3.org/Graphics/SVG/1.1/DTD/svg11.dtd">
<!-- Generated by graphviz version 2.26.3 (20100126.1600)
 -->
<!-- Title: UBGraphicsScene::setToolCursor Pages: 1 -->
<svg width="1110pt" height="581pt"
 viewBox="0.00 0.00 1110.00 580.88" xmlns="http://www.w3.org/2000/svg" xmlns:xlink="http://www.w3.org/1999/xlink">
<g id="graph1" class="graph" transform="scale(1 1) rotate(0) translate(4 576.879)">
<title>UBGraphicsScene::setToolCursor</title>
<polygon fill="white" stroke="white" points="-4,5 -4,-576.879 1107,-576.879 1107,5 -4,5"/>
<!-- Node1 -->
<g id="node1" class="node"><title>Node1</title>
<polygon fill="#bfbfbf" stroke="black" points="0,-456.879 0,-490.879 136,-490.879 136,-456.879 0,-456.879"/>
<text text-anchor="start" x="8" y="-477.879" font-family="Helvetica,sans-Serif" font-size="10.00">UBGraphicsScene::setTool</text>
<text text-anchor="middle" x="68" y="-464.879" font-family="Helvetica,sans-Serif" font-size="10.00">Cursor</text>
</g>
<!-- Node2 -->
<g id="node3" class="node"><title>Node2</title>
<a xlink:href="../../d7/d62/class_u_b_board_controller.html#ad363554dfb70642a295c4b002f396ec5" target="_top" xlink:title="UBBoardController:\l:setToolCursor">
<polygon fill="white" stroke="black" points="199.5,-521.879 199.5,-555.879 300.5,-555.879 300.5,-521.879 199.5,-521.879"/>
<text text-anchor="start" x="207.5" y="-542.879" font-family="Helvetica,sans-Serif" font-size="10.00">UBBoardController:</text>
<text text-anchor="middle" x="250" y="-529.879" font-family="Helvetica,sans-Serif" font-size="10.00">:setToolCursor</text>
</a>
</g>
<!-- Node1&#45;&gt;Node2 -->
<g id="edge2" class="edge"><title>Node1&#45;&gt;Node2</title>
<path fill="none" stroke="midnightblue" d="M125.43,-494.39C150.128,-503.21 178.663,-513.401 202.185,-521.802"/>
<polygon fill="midnightblue" stroke="midnightblue" points="126.413,-491.024 115.818,-490.957 124.059,-497.616 126.413,-491.024"/>
</g>
<!-- Node6 -->
<g id="node11" class="node"><title>Node6</title>
<a xlink:href="../../d1/d78/class_u_b_board_view.html#ad5109e5f034af7b194f4dc6606fe16e6" target="_top" xlink:title="UBBoardView::tabletEvent">
<polygon fill="white" stroke="black" points="183,-463.379 183,-484.379 317,-484.379 317,-463.379 183,-463.379"/>
<text text-anchor="middle" x="250" y="-471.379" font-family="Helvetica,sans-Serif" font-size="10.00">UBBoardView::tabletEvent</text>
</a>
</g>
<!-- Node1&#45;&gt;Node6 -->
<g id="edge10" class="edge"><title>Node1&#45;&gt;Node6</title>
<path fill="none" stroke="midnightblue" d="M146.214,-473.879C158.451,-473.879 171.003,-473.879 182.961,-473.879"/>
<polygon fill="midnightblue" stroke="midnightblue" points="146.029,-470.379 136.029,-473.879 146.029,-477.379 146.029,-470.379"/>
</g>
<!-- Node7 -->
<g id="node13" class="node"><title>Node7</title>
<a xlink:href="../../d7/db7/class_u_b_desktop_annotation_controller.html#a57367fb83b3b3a36fd0b3409ff6aeb47" target="_top" xlink:title="UBDesktopAnnotationController\l::switchCursor">
<polygon fill="white" stroke="black" points="172,-372.879 172,-406.879 328,-406.879 328,-372.879 172,-372.879"/>
<text text-anchor="start" x="180" y="-393.879" font-family="Helvetica,sans-Serif" font-size="10.00">UBDesktopAnnotationController</text>
<text text-anchor="middle" x="250" y="-380.879" font-family="Helvetica,sans-Serif" font-size="10.00">::switchCursor</text>
</a>
</g>
<!-- Node1&#45;&gt;Node7 -->
<g id="edge12" class="edge"><title>Node1&#45;&gt;Node7</title>
<path fill="none" stroke="midnightblue" d="M114.463,-452.434C145.081,-438.303 184.628,-420.051 213.092,-406.914"/>
<polygon fill="midnightblue" stroke="midnightblue" points="112.882,-449.309 105.27,-456.678 115.816,-455.665 112.882,-449.309"/>
</g>
<!-- Node3 -->
<g id="node5" class="node"><title>Node3</title>
<a xlink:href="../../d7/d62/class_u_b_board_controller.html#aa728cb7c1b979b2d4ae45638a7386dde" target="_top" xlink:title="UBBoardController::init">
<polygon fill="white" stroke="black" points="383.5,-538.379 383.5,-559.379 500.5,-559.379 500.5,-538.379 383.5,-538.379"/>
<text text-anchor="middle" x="442" y="-546.379" font-family="Helvetica,sans-Serif" font-size="10.00">UBBoardController::init</text>
</a>
</g>
<!-- Node2&#45;&gt;Node3 -->
<g id="edge4" class="edge"><title>Node2&#45;&gt;Node3</title>
<path fill="none" stroke="midnightblue" d="M310.744,-542.043C333.893,-543.248 360.218,-544.619 383.185,-545.816"/>
<polygon fill="midnightblue" stroke="midnightblue" points="310.865,-538.544 300.697,-541.519 310.501,-545.535 310.865,-538.544"/>
</g>
<!-- Node4 -->
<g id="node7" class="node"><title>Node4</title>
<a xlink:href="../../d8/d81/class_u_b_application.html#add1469239e71bf24fdc61413a42a38bd" target="_top" xlink:title="UBApplication::exec">
<polygon fill="white" stroke="black" points="581,-551.379 581,-572.379 687,-572.379 687,-551.379 581,-551.379"/>
<text text-anchor="middle" x="634" y="-559.379" font-family="Helvetica,sans-Serif" font-size="10.00">UBApplication::exec</text>
</a>
</g>
<!-- Node3&#45;&gt;Node4 -->
<g id="edge6" class="edge"><title>Node3&#45;&gt;Node4</title>
<path fill="none" stroke="midnightblue" d="M510.733,-553.533C533.831,-555.097 559.225,-556.816 580.931,-558.286"/>
<polygon fill="midnightblue" stroke="midnightblue" points="510.863,-550.034 500.65,-552.85 510.39,-557.018 510.863,-550.034"/>
</g>
<!-- Node5 -->
<g id="node9" class="node"><title>Node5</title>
<a xlink:href="../../df/d0a/main_8cpp.html#a0ddf1224851353fc92bfbff6f499fa97" target="_top" xlink:title="main">
<polygon fill="white" stroke="black" points="807,-551.379 807,-572.379 845,-572.379 845,-551.379 807,-551.379"/>
<text text-anchor="middle" x="826" y="-559.379" font-family="Helvetica,sans-Serif" font-size="10.00">main</text>
</a>
</g>
<!-- Node4&#45;&gt;Node5 -->
<g id="edge8" class="edge"><title>Node4&#45;&gt;Node5</title>
<path fill="none" stroke="midnightblue" d="M697.233,-561.879C735.329,-561.879 781.247,-561.879 806.672,-561.879"/>
<polygon fill="midnightblue" stroke="midnightblue" points="697.228,-558.379 687.228,-561.879 697.228,-565.379 697.228,-558.379"/>
</g>
<!-- Node8 -->
<g id="node15" class="node"><title>Node8</title>
<a xlink:href="../../d7/db7/class_u_b_desktop_annotation_controller.html#a78847388ff93c2a4ce4bf5b752a2f3d8" target="_top" xlink:title="Handles the pen action released event.">
<polygon fill="white" stroke="black" points="364,-363.879 364,-397.879 520,-397.879 520,-363.879 364,-363.879"/>
<text text-anchor="start" x="372" y="-384.879" font-family="Helvetica,sans-Serif" font-size="10.00">UBDesktopAnnotationController</text>
<text text-anchor="middle" x="442" y="-371.879" font-family="Helvetica,sans-Serif" font-size="10.00">::penActionReleased</text>
</a>
</g>
<!-- Node7&#45;&gt;Node8 -->
<g id="edge14" class="edge"><title>Node7&#45;&gt;Node8</title>
<path fill="none" stroke="midnightblue" d="M338.153,-385.747C346.769,-385.343 355.47,-384.935 363.975,-384.536"/>
<polygon fill="midnightblue" stroke="midnightblue" points="337.919,-382.254 328.094,-386.218 338.247,-389.246 337.919,-382.254"/>
</g>
<!-- Node13 -->
<g id="node29" class="node"><title>Node13</title>
<a xlink:href="../../d7/db7/class_u_b_desktop_annotation_controller.html#add19da4429f54d91ba590e46b2420127" target="_top" xlink:title="Handles the eraser action released event.">
<polygon fill="white" stroke="black" points="364,-114.879 364,-148.879 520,-148.879 520,-114.879 364,-114.879"/>
<text text-anchor="start" x="372" y="-135.879" font-family="Helvetica,sans-Serif" font-size="10.00">UBDesktopAnnotationController</text>
<text text-anchor="middle" x="442" y="-122.879" font-family="Helvetica,sans-Serif" font-size="10.00">::eraserActionReleased</text>
</a>
</g>
<!-- Node7&#45;&gt;Node13 -->
<g id="edge32" class="edge"><title>Node7&#45;&gt;Node13</title>
<path fill="none" stroke="midnightblue" d="M255.996,-362.845C268.049,-314.724 299.737,-214.005 364,-157.879 367.87,-154.499 372.195,-151.555 376.769,-148.992"/>
<polygon fill="midnightblue" stroke="midnightblue" points="252.532,-362.277 253.592,-372.819 259.338,-363.917 252.532,-362.277"/>
</g>
<!-- Node15 -->
<g id="node38" class="node"><title>Node15</title>
<a xlink:href="../../d7/db7/class_u_b_desktop_annotation_controller.html#a43a07209900734c79a2d2a014ae0fa84" target="_top" xlink:title="Handles the marker action released event.">
<polygon fill="white" stroke="black" points="364,-166.879 364,-200.879 520,-200.879 520,-166.879 364,-166.879"/>
<text text-anchor="start" x="372" y="-187.879" font-family="Helvetica,sans-Serif" font-size="10.00">UBDesktopAnnotationController</text>
<text text-anchor="middle" x="442" y="-174.879" font-family="Helvetica,sans-Serif" font-size="10.00">::markerActionReleased</text>
</a>
</g>
<!-- Node7&#45;&gt;Node15 -->
<g id="edge46" class="edge"><title>Node7&#45;&gt;Node15</title>
<path fill="none" stroke="midnightblue" d="M272.919,-365.289C312.384,-322.947 392.195,-237.316 426.141,-200.894"/>
<polygon fill="midnightblue" stroke="midnightblue" points="270.297,-362.968 266.04,-372.67 275.418,-367.741 270.297,-362.968"/>
</g>
<!-- Node17 -->
<g id="node47" class="node"><title>Node17</title>
<a xlink:href="../../d7/db7/class_u_b_desktop_annotation_controller.html#a2056eafd75265e07cf2652ae82ce1c0a" target="_top" xlink:title="UBDesktopAnnotationController\l::selectorActionReleased">
<polygon fill="white" stroke="black" points="556,-498.879 556,-532.879 712,-532.879 712,-498.879 556,-498.879"/>
<text text-anchor="start" x="564" y="-519.879" font-family="Helvetica,sans-Serif" font-size="10.00">UBDesktopAnnotationController</text>
<text text-anchor="middle" x="634" y="-506.879" font-family="Helvetica,sans-Serif" font-size="10.00">::selectorActionReleased</text>
</a>
</g>
<!-- Node7&#45;&gt;Node17 -->
<g id="edge60" class="edge"><title>Node7&#45;&gt;Node17</title>
<path fill="none" stroke="midnightblue" d="M281.543,-412.961C303.625,-428.094 334.367,-447.175 364,-458.879 426.159,-483.43 500.748,-498.15 555.763,-506.463"/>
<polygon fill="midnightblue" stroke="midnightblue" points="283.436,-410.014 273.23,-407.17 279.434,-415.758 283.436,-410.014"/>
</g>
<!-- Node18 -->
<g id="node50" class="node"><title>Node18</title>
<a xlink:href="../../d7/db7/class_u_b_desktop_annotation_controller.html#ad22aef5e3c7a3979c6de7a43cce745bf" target="_top" xlink:title="UBDesktopAnnotationController\l::pointerActionReleased">
<polygon fill="white" stroke="black" points="364,-415.879 364,-449.879 520,-449.879 520,-415.879 364,-415.879"/>
<text text-anchor="start" x="372" y="-436.879" font-family="Helvetica,sans-Serif" font-size="10.00">UBDesktopAnnotationController</text>
<text text-anchor="middle" x="442" y="-423.879" font-family="Helvetica,sans-Serif" font-size="10.00">::pointerActionReleased</text>
</a>
</g>
<!-- Node7&#45;&gt;Node18 -->
<g id="edge64" class="edge"><title>Node7&#45;&gt;Node18</title>
<path fill="none" stroke="midnightblue" d="M336.055,-409.152C346.015,-411.382 356.119,-413.645 365.933,-415.843"/>
<polygon fill="midnightblue" stroke="midnightblue" points="336.682,-405.706 326.159,-406.935 335.153,-412.536 336.682,-405.706"/>
</g>
<!-- Node9 -->
<g id="node17" class="node"><title>Node9</title>
<a xlink:href="../../d7/db7/class_u_b_desktop_annotation_controller.html#a1e31fa6fa39f439312757baadcaae17a" target="_top" xlink:title="UBDesktopAnnotationController\l::UBDesktopAnnotationController">
<polygon fill="white" stroke="black" points="940,-140.879 940,-174.879 1102,-174.879 1102,-140.879 940,-140.879"/>
<text text-anchor="start" x="948" y="-161.879" font-family="Helvetica,sans-Serif" font-size="10.00">UBDesktopAnnotationController</text>
<text text-anchor="middle" x="1021" y="-148.879" font-family="Helvetica,sans-Serif" font-size="10.00">::UBDesktopAnnotationController</text>
</a>
</g>
<!-- Node8&#45;&gt;Node9 -->
<g id="edge16" class="edge"><title>Node8&#45;&gt;Node9</title>
<path fill="none" stroke="midnightblue" d="M530.202,-396.525C631.227,-409.246 796.603,-413.535 904,-330.879 960.175,-287.645 998.785,-209.551 1013.9,-175.055"/>
<polygon fill="midnightblue" stroke="midnightblue" points="530.397,-393.02 520.026,-395.188 529.485,-399.961 530.397,-393.02"/>
</g>
<!-- Node10 -->
<g id="node19" class="node"><title>Node10</title>
<a xlink:href="../../d7/db7/class_u_b_desktop_annotation_controller.html#a50e5c475de4e1dc1133cde776a5abefa" target="_top" xlink:title="Handles the pen action pressed event.">
<polygon fill="white" stroke="black" points="556,-332.879 556,-366.879 712,-366.879 712,-332.879 556,-332.879"/>
<text text-anchor="start" x="564" y="-353.879" font-family="Helvetica,sans-Serif" font-size="10.00">UBDesktopAnnotationController</text>
<text text-anchor="middle" x="634" y="-340.879" font-family="Helvetica,sans-Serif" font-size="10.00">::penActionPressed</text>
</a>
</g>
<!-- Node8&#45;&gt;Node10 -->
<g id="edge18" class="edge"><title>Node8&#45;&gt;Node10</title>
<path fill="none" stroke="midnightblue" d="M530.153,-366.646C538.769,-365.255 547.47,-363.85 555.975,-362.477"/>
<polygon fill="midnightblue" stroke="midnightblue" points="529.408,-363.221 520.094,-368.27 530.524,-370.131 529.408,-363.221"/>
</g>
<!-- Node11 -->
<g id="node21" class="node"><title>Node11</title>
<a xlink:href="../../d7/db7/class_u_b_desktop_annotation_controller.html#ac7040fff10a317e7298cd61dea7aea7c" target="_top" xlink:title="Reconnect the pressed &amp; released signals of the property palettes.">
<polygon fill="white" stroke="black" points="748,-287.879 748,-321.879 904,-321.879 904,-287.879 748,-287.879"/>
<text text-anchor="start" x="756" y="-308.879" font-family="Helvetica,sans-Serif" font-size="10.00">UBDesktopAnnotationController</text>
<text text-anchor="middle" x="826" y="-295.879" font-family="Helvetica,sans-Serif" font-size="10.00">::onDesktopPaletteMaximized</text>
</a>
</g>
<!-- Node8&#45;&gt;Node11 -->
<g id="edge28" class="edge"><title>Node8&#45;&gt;Node11</title>
<path fill="none" stroke="midnightblue" d="M530.355,-390.948C583.98,-394.208 653.19,-393.286 712,-375.879 748.443,-365.092 784.695,-339.258 806.225,-321.911"/>
<polygon fill="midnightblue" stroke="midnightblue" points="530.399,-387.443 520.188,-390.269 529.933,-394.428 530.399,-387.443"/>
</g>
<!-- Node12 -->
<g id="node24" class="node"><title>Node12</title>
<a xlink:href="../../d7/db7/class_u_b_desktop_annotation_controller.html#a7ba6da29c94bb3aae486749be1543f67" target="_top" xlink:title="Disconnect the pressed &amp; release signals of the property palettes This is done to prevent memory leak...">
<polygon fill="white" stroke="black" points="748,-140.879 748,-174.879 904,-174.879 904,-140.879 748,-140.879"/>
<text text-anchor="start" x="756" y="-161.879" font-family="Helvetica,sans-Serif" font-size="10.00">UBDesktopAnnotationController</text>
<text text-anchor="middle" x="826" y="-148.879" font-family="Helvetica,sans-Serif" font-size="10.00">::onDesktopPaletteMinimize</text>
</a>
</g>
<!-- Node8&#45;&gt;Node12 -->
<g id="edge30" class="edge"><title>Node8&#45;&gt;Node12</title>
<path fill="none" stroke="midnightblue" d="M480.374,-358.594C557.126,-314.022 728.06,-214.756 796.669,-174.913"/>
<polygon fill="midnightblue" stroke="midnightblue" points="478.384,-355.702 471.494,-363.751 481.899,-361.756 478.384,-355.702"/>
</g>
<!-- Node10&#45;&gt;Node11 -->
<g id="edge20" class="edge"><title>Node10&#45;&gt;Node11</title>
<path fill="none" stroke="midnightblue" d="M716.361,-330.576C728.649,-327.696 741.241,-324.744 753.31,-321.916"/>
<polygon fill="midnightblue" stroke="midnightblue" points="715.524,-327.177 706.587,-332.866 717.122,-333.992 715.524,-327.177"/>
</g>
<!-- Node10&#45;&gt;Node12 -->
<g id="edge24" class="edge"><title>Node10&#45;&gt;Node12</title>
<path fill="none" stroke="midnightblue" d="M658.417,-325.462C697.924,-285.955 774.873,-209.006 808.999,-174.879"/>
<polygon fill="midnightblue" stroke="midnightblue" points="655.635,-323.294 651.039,-332.84 660.585,-328.244 655.635,-323.294"/>
</g>
<!-- Node11&#45;&gt;Node9 -->
<g id="edge22" class="edge"><title>Node11&#45;&gt;Node9</title>
<path fill="none" stroke="midnightblue" d="M857.2,-281.359C896.631,-251.634 963.55,-201.187 998.394,-174.92"/>
<polygon fill="midnightblue" stroke="midnightblue" points="854.629,-278.914 848.751,-287.728 858.843,-284.504 854.629,-278.914"/>
</g>
<!-- Node12&#45;&gt;Node9 -->
<g id="edge26" class="edge"><title>Node12&#45;&gt;Node9</title>
<path fill="none" stroke="midnightblue" d="M914.191,-157.879C922.761,-157.879 931.428,-157.879 939.924,-157.879"/>
<polygon fill="midnightblue" stroke="midnightblue" points="914.19,-154.379 904.19,-157.879 914.19,-161.379 914.19,-154.379"/>
</g>
<!-- Node13&#45;&gt;Node9 -->
<g id="edge34" class="edge"><title>Node13&#45;&gt;Node9</title>
<path fill="none" stroke="midnightblue" d="M468.767,-108.163C490.623,-90.2675 523.162,-66.8256 556,-54.879 701.587,-1.91355 761.623,26.1911 904,-34.879 954.65,-56.6043 993.733,-112.221 1011.12,-140.624"/>
<polygon fill="midnightblue" stroke="midnightblue" points="466.36,-105.614 460.935,-114.715 470.851,-110.983 466.36,-105.614"/>
</g>
<!-- Node13&#45;&gt;Node11 -->
<g id="edge42" class="edge"><title>Node13&#45;&gt;Node11</title>
<path fill="none" stroke="midnightblue" d="M514.364,-154.01C516.307,-155.233 518.191,-156.522 520,-157.879 542.487,-174.744 533.653,-192.828 556,-209.879 589.135,-235.162 694.778,-268.102 763.677,-287.808"/>
<polygon fill="midnightblue" stroke="midnightblue" points="515.955,-150.89 505.521,-149.053 512.532,-156.996 515.955,-150.89"/>
</g>
<!-- Node13&#45;&gt;Node12 -->
<g id="edge44" class="edge"><title>Node13&#45;&gt;Node12</title>
<path fill="none" stroke="midnightblue" d="M474.995,-109.407C496.9,-95.8882 526.883,-79.9671 556,-72.879 623.366,-56.4796 646.194,-51.0464 712,-72.879 752.302,-86.2502 789.91,-120.024 810.251,-140.749"/>
<polygon fill="midnightblue" stroke="midnightblue" points="473.004,-106.524 466.424,-114.828 476.747,-112.44 473.004,-106.524"/>
</g>
<!-- Node14 -->
<g id="node32" class="node"><title>Node14</title>
<a xlink:href="../../d7/db7/class_u_b_desktop_annotation_controller.html#abdf61d8594b271650f05804f3ae25896" target="_top" xlink:title="Handles the eraser action pressed event.">
<polygon fill="white" stroke="black" points="556,-114.879 556,-148.879 712,-148.879 712,-114.879 556,-114.879"/>
<text text-anchor="start" x="564" y="-135.879" font-family="Helvetica,sans-Serif" font-size="10.00">UBDesktopAnnotationController</text>
<text text-anchor="middle" x="634" y="-122.879" font-family="Helvetica,sans-Serif" font-size="10.00">::eraserActionPressed</text>
</a>
</g>
<!-- Node13&#45;&gt;Node14 -->
<g id="edge36" class="edge"><title>Node13&#45;&gt;Node14</title>
<path fill="none" stroke="midnightblue" d="M530.153,-131.879C538.769,-131.879 547.47,-131.879 555.975,-131.879"/>
<polygon fill="midnightblue" stroke="midnightblue" points="530.094,-128.379 520.094,-131.879 530.094,-135.379 530.094,-128.379"/>
</g>
<!-- Node14&#45;&gt;Node11 -->
<g id="edge38" class="edge"><title>Node14&#45;&gt;Node11</title>
<path fill="none" stroke="midnightblue" d="M705.485,-153.674C707.732,-154.998 709.911,-156.399 712,-157.879 762.067,-193.355 800.612,-257.145 817.159,-287.679"/>
<polygon fill="midnightblue" stroke="midnightblue" points="707.01,-150.52 696.534,-148.932 703.733,-156.706 707.01,-150.52"/>
</g>
<!-- Node14&#45;&gt;Node12 -->
<g id="edge40" class="edge"><title>Node14&#45;&gt;Node12</title>
<path fill="none" stroke="midnightblue" d="M722.153,-143.816C730.769,-144.983 739.47,-146.161 747.975,-147.313"/>
<polygon fill="midnightblue" stroke="midnightblue" points="722.473,-140.328 712.094,-142.454 721.534,-147.265 722.473,-140.328"/>
</g>
<!-- Node15&#45;&gt;Node9 -->
<g id="edge48" class="edge"><title>Node15&#45;&gt;Node9</title>
<path fill="none" stroke="midnightblue" d="M515.845,-161.2C517.278,-160.143 518.666,-159.036 520,-157.879 547.028,-134.438 525.566,-104.688 556,-85.879 699.324,2.70045 913.535,-98.1854 991.38,-140.742"/>
<polygon fill="midnightblue" stroke="midnightblue" points="513.737,-158.394 507.205,-166.736 517.513,-164.288 513.737,-158.394"/>
</g>
<!-- Node15&#45;&gt;Node11 -->
<g id="edge56" class="edge"><title>Node15&#45;&gt;Node11</title>
<path fill="none" stroke="midnightblue" d="M462.903,-208.911C483.828,-232.016 518.267,-265.066 556,-280.879 616.981,-306.434 692.353,-311.167 747.952,-310.237"/>
<polygon fill="midnightblue" stroke="midnightblue" points="465.329,-206.37 456.082,-201.198 460.085,-211.007 465.329,-206.37"/>
</g>
<!-- Node15&#45;&gt;Node12 -->
<g id="edge58" class="edge"><title>Node15&#45;&gt;Node12</title>
<path fill="none" stroke="midnightblue" d="M514.364,-161.748C516.307,-160.524 518.191,-159.236 520,-157.879 542.487,-141.013 531.102,-118.925 556,-105.879 636.128,-63.8956 745.575,-112.561 797.029,-140.676"/>
<polygon fill="midnightblue" stroke="midnightblue" points="512.532,-158.762 505.521,-166.705 515.955,-164.868 512.532,-158.762"/>
</g>
<!-- Node16 -->
<g id="node41" class="node"><title>Node16</title>
<a xlink:href="../../d7/db7/class_u_b_desktop_annotation_controller.html#a6daed504c528720a1e9bd06d2d4161e7" target="_top" xlink:title="Handles the marker action pressed event.">
<polygon fill="white" stroke="black" points="556,-166.879 556,-200.879 712,-200.879 712,-166.879 556,-166.879"/>
<text text-anchor="start" x="564" y="-187.879" font-family="Helvetica,sans-Serif" font-size="10.00">UBDesktopAnnotationController</text>
<text text-anchor="middle" x="634" y="-174.879" font-family="Helvetica,sans-Serif" font-size="10.00">::markerActionPressed</text>
</a>
</g>
<!-- Node15&#45;&gt;Node16 -->
<g id="edge50" class="edge"><title>Node15&#45;&gt;Node16</title>
<path fill="none" stroke="midnightblue" d="M530.153,-183.879C538.769,-183.879 547.47,-183.879 555.975,-183.879"/>
<polygon fill="midnightblue" stroke="midnightblue" points="530.094,-180.379 520.094,-183.879 530.094,-187.379 530.094,-180.379"/>
</g>
<!-- Node16&#45;&gt;Node11 -->
<g id="edge52" class="edge"><title>Node16&#45;&gt;Node11</title>
<path fill="none" stroke="midnightblue" d="M669.667,-206.357C707.02,-229.897 764.863,-266.35 798.726,-287.691"/>
<polygon fill="midnightblue" stroke="midnightblue" points="671.428,-203.329 661.102,-200.959 667.696,-209.251 671.428,-203.329"/>
</g>
<!-- Node16&#45;&gt;Node12 -->
<g id="edge54" class="edge"><title>Node16&#45;&gt;Node12</title>
<path fill="none" stroke="midnightblue" d="M722.153,-171.942C730.769,-170.775 739.47,-169.597 747.975,-168.445"/>
<polygon fill="midnightblue" stroke="midnightblue" points="721.534,-168.493 712.094,-173.304 722.473,-175.43 721.534,-168.493"/>
</g>
<!-- Node17&#45;&gt;Node11 -->
<g id="edge62" class="edge"><title>Node17&#45;&gt;Node11</title>
<path fill="none" stroke="midnightblue" d="M663.416,-491.92C678.503,-479.129 696.843,-462.779 712,-446.879 752.138,-404.775 793.47,-349.838 813.545,-322.267"/>
<polygon fill="midnightblue" stroke="midnightblue" points="660.823,-489.527 655.41,-498.635 665.321,-494.89 660.823,-489.527"/>
</g>
<!-- Node18&#45;&gt;Node11 -->
<g id="edge66" class="edge"><title>Node18&#45;&gt;Node11</title>
<path fill="none" stroke="midnightblue" d="M530.347,-433.567C584.708,-431.088 654.697,-422.553 712,-397.879 752.82,-380.302 790.815,-343.655 810.968,-321.981"/>
<polygon fill="midnightblue" stroke="midnightblue" points="529.893,-430.082 520.039,-433.973 530.169,-437.076 529.893,-430.082"/>
</g>
</g>
</svg>
