<?xml version="1.0" encoding="UTF-8" standalone="no"?>
<!DOCTYPE svg PUBLIC "-//W3C//DTD SVG 1.1//EN"
 "http://www.w3.org/Graphics/SVG/1.1/DTD/svg11.dtd">
<!-- Generated by graphviz version 2.26.3 (20100126.1600)
 -->
<!-- Title: UBGraphicsScene::selectionChangedProcessing Pages: 1 -->
<svg width="1482pt" height="372pt"
 viewBox="0.00 0.00 1482.00 372.00" xmlns="http://www.w3.org/2000/svg" xmlns:xlink="http://www.w3.org/1999/xlink">
<g id="graph1" class="graph" transform="scale(1 1) rotate(0) translate(4 368)">
<title>UBGraphicsScene::selectionChangedProcessing</title>
<polygon fill="white" stroke="white" points="-4,5 -4,-368 1479,-368 1479,5 -4,5"/>
<!-- Node1 -->
<g id="node1" class="node"><title>Node1</title>
<polygon fill="#bfbfbf" stroke="black" points="0.5,-252 0.5,-286 143.5,-286 143.5,-252 0.5,-252"/>
<text text-anchor="start" x="8.5" y="-273" font-family="Helvetica,sans-Serif" font-size="10.00">UBGraphicsScene::selection</text>
<text text-anchor="middle" x="72" y="-260" font-family="Helvetica,sans-Serif" font-size="10.00">ChangedProcessing</text>
</g>
<!-- Node2 -->
<g id="node3" class="node"><title>Node2</title>
<a xlink:href="../../d8/d81/class_u_b_application.html#afd12508537e75aaa6789431e60b60b44" target="_top" xlink:title="UBApplication::showMessage">
<polygon fill="white" stroke="black" points="180,-258.5 180,-279.5 328,-279.5 328,-258.5 180,-258.5"/>
<text text-anchor="middle" x="254" y="-266.5" font-family="Helvetica,sans-Serif" font-size="10.00">UBApplication::showMessage</text>
</a>
</g>
<!-- Node1&#45;&gt;Node2 -->
<g id="edge2" class="edge"><title>Node1&#45;&gt;Node2</title>
<path fill="none" stroke="midnightblue" d="M143.67,-269C152.178,-269 160.923,-269 169.587,-269"/>
<polygon fill="midnightblue" stroke="midnightblue" points="169.702,-272.5 179.702,-269 169.702,-265.5 169.702,-272.5"/>
</g>
<!-- Node3 -->
<g id="node5" class="node"><title>Node3</title>
<a xlink:href="../../da/d14/class_u_b_application_controller.html#aaefcc19888d509988d3e82b334d76830" target="_top" xlink:title="UBApplicationController\l::showMessage">
<polygon fill="white" stroke="black" points="364.5,-252 364.5,-286 485.5,-286 485.5,-252 364.5,-252"/>
<text text-anchor="start" x="372.5" y="-273" font-family="Helvetica,sans-Serif" font-size="10.00">UBApplicationController</text>
<text text-anchor="middle" x="425" y="-260" font-family="Helvetica,sans-Serif" font-size="10.00">::showMessage</text>
</a>
</g>
<!-- Node2&#45;&gt;Node3 -->
<g id="edge4" class="edge"><title>Node2&#45;&gt;Node3</title>
<path fill="none" stroke="midnightblue" d="M328.009,-269C336.702,-269 345.557,-269 354.205,-269"/>
<polygon fill="midnightblue" stroke="midnightblue" points="354.24,-272.5 364.24,-269 354.24,-265.5 354.24,-272.5"/>
</g>
<!-- Node4 -->
<g id="node7" class="node"><title>Node4</title>
<a xlink:href="../../d7/d62/class_u_b_board_controller.html#a71d2fb8834fc701bed0b16bb0f0b5527" target="_top" xlink:title="UBBoardController:\l:hideMessage">
<polygon fill="white" stroke="black" points="530.5,-330 530.5,-364 631.5,-364 631.5,-330 530.5,-330"/>
<text text-anchor="start" x="538.5" y="-351" font-family="Helvetica,sans-Serif" font-size="10.00">UBBoardController:</text>
<text text-anchor="middle" x="581" y="-338" font-family="Helvetica,sans-Serif" font-size="10.00">:hideMessage</text>
</a>
</g>
<!-- Node3&#45;&gt;Node4 -->
<g id="edge6" class="edge"><title>Node3&#45;&gt;Node4</title>
<path fill="none" stroke="midnightblue" d="M455.27,-286.003C474.248,-296.468 499.329,-309.948 522,-321 525.165,-322.543 528.442,-324.099 531.758,-325.642"/>
<polygon fill="midnightblue" stroke="midnightblue" points="530.587,-328.955 541.137,-329.933 533.5,-322.59 530.587,-328.955"/>
</g>
<!-- Node6 -->
<g id="node11" class="node"><title>Node6</title>
<a xlink:href="../../d6/de0/class_u_b_document_controller.html#aa5a4bf5ad86548cda5fd75ce6eb9f28f" target="_top" xlink:title="UBDocumentController\l::showMessage">
<polygon fill="white" stroke="black" points="522,-278 522,-312 640,-312 640,-278 522,-278"/>
<text text-anchor="start" x="530" y="-299" font-family="Helvetica,sans-Serif" font-size="10.00">UBDocumentController</text>
<text text-anchor="middle" x="581" y="-286" font-family="Helvetica,sans-Serif" font-size="10.00">::showMessage</text>
</a>
</g>
<!-- Node3&#45;&gt;Node6 -->
<g id="edge10" class="edge"><title>Node3&#45;&gt;Node6</title>
<path fill="none" stroke="midnightblue" d="M485.76,-279.127C494.307,-280.551 503.145,-282.024 511.835,-283.472"/>
<polygon fill="midnightblue" stroke="midnightblue" points="511.502,-286.965 521.941,-285.157 512.653,-280.06 511.502,-286.965"/>
</g>
<!-- Node7 -->
<g id="node13" class="node"><title>Node7</title>
<a xlink:href="../../d6/de0/class_u_b_document_controller.html#a73b29c9fcfc83397a6bd30af5fdc1ed2" target="_top" xlink:title="UBDocumentController\l::hideMessage">
<polygon fill="white" stroke="black" points="522,-226 522,-260 640,-260 640,-226 522,-226"/>
<text text-anchor="start" x="530" y="-247" font-family="Helvetica,sans-Serif" font-size="10.00">UBDocumentController</text>
<text text-anchor="middle" x="581" y="-234" font-family="Helvetica,sans-Serif" font-size="10.00">::hideMessage</text>
</a>
</g>
<!-- Node3&#45;&gt;Node7 -->
<g id="edge12" class="edge"><title>Node3&#45;&gt;Node7</title>
<path fill="none" stroke="midnightblue" d="M485.76,-258.873C494.307,-257.449 503.145,-255.976 511.835,-254.528"/>
<polygon fill="midnightblue" stroke="midnightblue" points="512.653,-257.94 521.941,-252.843 511.502,-251.035 512.653,-257.94"/>
</g>
<!-- Node8 -->
<g id="node15" class="node"><title>Node8</title>
<a xlink:href="../../d7/d62/class_u_b_board_controller.html#a71ff510e4ce1e3a753f074a0e7438a00" target="_top" xlink:title="UBBoardController:\l:showMessage">
<polygon fill="white" stroke="black" points="530.5,-174 530.5,-208 631.5,-208 631.5,-174 530.5,-174"/>
<text text-anchor="start" x="538.5" y="-195" font-family="Helvetica,sans-Serif" font-size="10.00">UBBoardController:</text>
<text text-anchor="middle" x="581" y="-182" font-family="Helvetica,sans-Serif" font-size="10.00">:showMessage</text>
</a>
</g>
<!-- Node3&#45;&gt;Node8 -->
<g id="edge14" class="edge"><title>Node3&#45;&gt;Node8</title>
<path fill="none" stroke="midnightblue" d="M455.27,-251.997C474.248,-241.532 499.329,-228.052 522,-217 525.165,-215.457 528.442,-213.901 531.758,-212.358"/>
<polygon fill="midnightblue" stroke="midnightblue" points="533.5,-215.41 541.137,-208.067 530.587,-209.045 533.5,-215.41"/>
</g>
<!-- Node5 -->
<g id="node9" class="node"><title>Node5</title>
<a xlink:href="../../d5/d02/class_u_b_message_window.html#af0f92d33532361f4048ab584621518f8" target="_top" xlink:title="UBMessageWindow::hideMessage">
<polygon fill="white" stroke="black" points="679,-336.5 679,-357.5 849,-357.5 849,-336.5 679,-336.5"/>
<text text-anchor="middle" x="764" y="-344.5" font-family="Helvetica,sans-Serif" font-size="10.00">UBMessageWindow::hideMessage</text>
</a>
</g>
<!-- Node4&#45;&gt;Node5 -->
<g id="edge8" class="edge"><title>Node4&#45;&gt;Node5</title>
<path fill="none" stroke="midnightblue" d="M631.976,-347C643.492,-347 656.081,-347 668.766,-347"/>
<polygon fill="midnightblue" stroke="midnightblue" points="668.941,-350.5 678.941,-347 668.941,-343.5 668.941,-350.5"/>
</g>
<!-- Node9 -->
<g id="node17" class="node"><title>Node9</title>
<a xlink:href="../../d5/d02/class_u_b_message_window.html#a8c6e3ff66e94a5ff2e11ebf52d5a8b35" target="_top" xlink:title="UBMessageWindow::showMessage">
<polygon fill="white" stroke="black" points="676.5,-180.5 676.5,-201.5 851.5,-201.5 851.5,-180.5 676.5,-180.5"/>
<text text-anchor="middle" x="764" y="-188.5" font-family="Helvetica,sans-Serif" font-size="10.00">UBMessageWindow::showMessage</text>
</a>
</g>
<!-- Node8&#45;&gt;Node9 -->
<g id="edge16" class="edge"><title>Node8&#45;&gt;Node9</title>
<path fill="none" stroke="midnightblue" d="M631.976,-191C642.799,-191 654.571,-191 666.48,-191"/>
<polygon fill="midnightblue" stroke="midnightblue" points="666.497,-194.5 676.497,-191 666.497,-187.5 666.497,-194.5"/>
</g>
<!-- Node10 -->
<g id="node19" class="node"><title>Node10</title>
<a xlink:href="../../d6/da4/class_u_b_spinning_wheel.html#acbcc339c4ad8ac331812ef58581e8264" target="_top" xlink:title="UBSpinningWheel::startAnimation">
<polygon fill="white" stroke="black" points="888.5,-220.5 888.5,-241.5 1053.5,-241.5 1053.5,-220.5 888.5,-220.5"/>
<text text-anchor="middle" x="971" y="-228.5" font-family="Helvetica,sans-Serif" font-size="10.00">UBSpinningWheel::startAnimation</text>
</a>
</g>
<!-- Node9&#45;&gt;Node10 -->
<g id="edge18" class="edge"><title>Node9&#45;&gt;Node10</title>
<path fill="none" stroke="midnightblue" d="M818.387,-201.51C845.378,-206.725 878.17,-213.062 906.43,-218.523"/>
<polygon fill="midnightblue" stroke="midnightblue" points="906.135,-222.03 916.617,-220.491 907.463,-215.158 906.135,-222.03"/>
</g>
<!-- Node11 -->
<g id="node21" class="node"><title>Node11</title>
<a xlink:href="../../d6/da4/class_u_b_spinning_wheel.html#afce6e8912a9ea4ce878ea2a0dcd47d7e" target="_top" xlink:title="UBSpinningWheel::stopAnimation">
<polygon fill="white" stroke="black" points="889,-180.5 889,-201.5 1053,-201.5 1053,-180.5 889,-180.5"/>
<text text-anchor="middle" x="971" y="-188.5" font-family="Helvetica,sans-Serif" font-size="10.00">UBSpinningWheel::stopAnimation</text>
</a>
</g>
<!-- Node9&#45;&gt;Node11 -->
<g id="edge20" class="edge"><title>Node9&#45;&gt;Node11</title>
<path fill="none" stroke="midnightblue" d="M851.787,-191C860.673,-191 869.718,-191 878.651,-191"/>
<polygon fill="midnightblue" stroke="midnightblue" points="878.675,-194.5 888.675,-191 878.675,-187.5 878.675,-194.5"/>
</g>
<!-- Node12 -->
<g id="node23" class="node"><title>Node12</title>
<a xlink:href="../../d1/d97/class_u_b_floating_palette.html#abc34a1ea7b29b6aaa4a0ea25d5715210" target="_top" xlink:title="UBFloatingPalette:\l:adjustSizeAndPosition">
<polygon fill="white" stroke="black" points="912,-128 912,-162 1030,-162 1030,-128 912,-128"/>
<text text-anchor="start" x="920" y="-149" font-family="Helvetica,sans-Serif" font-size="10.00">UBFloatingPalette:</text>
<text text-anchor="middle" x="971" y="-136" font-family="Helvetica,sans-Serif" font-size="10.00">:adjustSizeAndPosition</text>
</a>
</g>
<!-- Node9&#45;&gt;Node12 -->
<g id="edge22" class="edge"><title>Node9&#45;&gt;Node12</title>
<path fill="none" stroke="midnightblue" d="M811.49,-180.447C838.3,-174.489 872.285,-166.937 901.99,-160.336"/>
<polygon fill="midnightblue" stroke="midnightblue" points="902.881,-163.723 911.883,-158.137 901.362,-156.89 902.881,-163.723"/>
</g>
<!-- Node13 -->
<g id="node25" class="node"><title>Node13</title>
<a xlink:href="../../d1/d97/class_u_b_floating_palette.html#aec5822b784da7d590ff463ed9cb44be9" target="_top" xlink:title="UBFloatingPalette:\l:preferredSize">
<polygon fill="white" stroke="black" points="1090.5,-154 1090.5,-188 1189.5,-188 1189.5,-154 1090.5,-154"/>
<text text-anchor="start" x="1098.5" y="-175" font-family="Helvetica,sans-Serif" font-size="10.00">UBFloatingPalette:</text>
<text text-anchor="middle" x="1140" y="-162" font-family="Helvetica,sans-Serif" font-size="10.00">:preferredSize</text>
</a>
</g>
<!-- Node12&#45;&gt;Node13 -->
<g id="edge24" class="edge"><title>Node12&#45;&gt;Node13</title>
<path fill="none" stroke="midnightblue" d="M1030.11,-154.094C1046.42,-156.604 1064.13,-159.328 1080.47,-161.842"/>
<polygon fill="midnightblue" stroke="midnightblue" points="1080.03,-165.315 1090.45,-163.376 1081.1,-158.397 1080.03,-165.315"/>
</g>
<!-- Node14 -->
<g id="node27" class="node"><title>Node14</title>
<a xlink:href="../../d1/d97/class_u_b_floating_palette.html#a187ee35c53cfad79bb5b30dff1800732" target="_top" xlink:title="UBFloatingPalette:\l:moveInsideParent">
<polygon fill="white" stroke="black" points="1090.5,-102 1090.5,-136 1189.5,-136 1189.5,-102 1090.5,-102"/>
<text text-anchor="start" x="1098.5" y="-123" font-family="Helvetica,sans-Serif" font-size="10.00">UBFloatingPalette:</text>
<text text-anchor="middle" x="1140" y="-110" font-family="Helvetica,sans-Serif" font-size="10.00">:moveInsideParent</text>
</a>
</g>
<!-- Node12&#45;&gt;Node14 -->
<g id="edge26" class="edge"><title>Node12&#45;&gt;Node14</title>
<path fill="none" stroke="midnightblue" d="M1030.11,-135.906C1046.42,-133.396 1064.13,-130.672 1080.47,-128.158"/>
<polygon fill="midnightblue" stroke="midnightblue" points="1081.1,-131.603 1090.45,-126.624 1080.03,-124.685 1081.1,-131.603"/>
</g>
<!-- Node15 -->
<g id="node29" class="node"><title>Node15</title>
<a xlink:href="../../d1/d97/class_u_b_floating_palette.html#a1902d37271315e9e06d6743752104f47" target="_top" xlink:title="UBFloatingPalette:\l:border">
<polygon fill="white" stroke="black" points="1226.5,-147 1226.5,-181 1325.5,-181 1325.5,-147 1226.5,-147"/>
<text text-anchor="start" x="1234.5" y="-168" font-family="Helvetica,sans-Serif" font-size="10.00">UBFloatingPalette:</text>
<text text-anchor="middle" x="1276" y="-155" font-family="Helvetica,sans-Serif" font-size="10.00">:border</text>
</a>
</g>
<!-- Node14&#45;&gt;Node15 -->
<g id="edge28" class="edge"><title>Node14&#45;&gt;Node15</title>
<path fill="none" stroke="midnightblue" d="M1189.87,-135.501C1198.55,-138.374 1207.66,-141.389 1216.58,-144.337"/>
<polygon fill="midnightblue" stroke="midnightblue" points="1215.54,-147.683 1226.14,-147.501 1217.74,-141.037 1215.54,-147.683"/>
</g>
<!-- Node16 -->
<g id="node31" class="node"><title>Node16</title>
<a xlink:href="../../d1/d97/class_u_b_floating_palette.html#acf3ead0c3d8a3bde89b934ad208e9f9a" target="_top" xlink:title="UBFloatingPalette:\l:getParentRightOffset">
<polygon fill="white" stroke="black" points="1362,-104 1362,-138 1474,-138 1474,-104 1362,-104"/>
<text text-anchor="start" x="1370" y="-125" font-family="Helvetica,sans-Serif" font-size="10.00">UBFloatingPalette:</text>
<text text-anchor="middle" x="1418" y="-112" font-family="Helvetica,sans-Serif" font-size="10.00">:getParentRightOffset</text>
</a>
</g>
<!-- Node14&#45;&gt;Node16 -->
<g id="edge30" class="edge"><title>Node14&#45;&gt;Node16</title>
<path fill="none" stroke="midnightblue" d="M1189.7,-119.358C1234.85,-119.682 1301.79,-120.164 1351.53,-120.522"/>
<polygon fill="midnightblue" stroke="midnightblue" points="1351.53,-124.022 1361.55,-120.594 1351.58,-117.022 1351.53,-124.022"/>
</g>
<!-- Node17 -->
<g id="node33" class="node"><title>Node17</title>
<a xlink:href="../../d1/d97/class_u_b_floating_palette.html#a3f32f9c0ae03d587847f4c922309d2a3" target="_top" xlink:title="UBFloatingPalette:\l:minimizePalette">
<polygon fill="white" stroke="black" points="1226.5,-54 1226.5,-88 1325.5,-88 1325.5,-54 1226.5,-54"/>
<text text-anchor="start" x="1234.5" y="-75" font-family="Helvetica,sans-Serif" font-size="10.00">UBFloatingPalette:</text>
<text text-anchor="middle" x="1276" y="-62" font-family="Helvetica,sans-Serif" font-size="10.00">:minimizePalette</text>
</a>
</g>
<!-- Node14&#45;&gt;Node17 -->
<g id="edge32" class="edge"><title>Node14&#45;&gt;Node17</title>
<path fill="none" stroke="midnightblue" d="M1188.33,-101.942C1198.05,-98.5112 1208.36,-94.8736 1218.36,-91.3439"/>
<polygon fill="midnightblue" stroke="midnightblue" points="1219.56,-94.632 1227.82,-88.0032 1217.23,-88.031 1219.56,-94.632"/>
</g>
<!-- Node17&#45;&gt;Node16 -->
<g id="edge34" class="edge"><title>Node17&#45;&gt;Node16</title>
<path fill="none" stroke="midnightblue" d="M1324.47,-88.0673C1335.77,-92.0456 1347.92,-96.3229 1359.6,-100.435"/>
<polygon fill="midnightblue" stroke="midnightblue" points="1358.67,-103.82 1369.27,-103.84 1361,-97.2172 1358.67,-103.82"/>
</g>
<!-- Node18 -->
<g id="node36" class="node"><title>Node18</title>
<a xlink:href="../../d1/d97/class_u_b_floating_palette.html#a7e9182ed71477253b40841ade1074dd2" target="_top" xlink:title="UBFloatingPalette:\l:minimizeStart">
<polygon fill="white" stroke="black" points="1368.5,-52 1368.5,-86 1467.5,-86 1467.5,-52 1368.5,-52"/>
<text text-anchor="start" x="1376.5" y="-73" font-family="Helvetica,sans-Serif" font-size="10.00">UBFloatingPalette:</text>
<text text-anchor="middle" x="1418" y="-60" font-family="Helvetica,sans-Serif" font-size="10.00">:minimizeStart</text>
</a>
</g>
<!-- Node17&#45;&gt;Node18 -->
<g id="edge36" class="edge"><title>Node17&#45;&gt;Node18</title>
<path fill="none" stroke="midnightblue" d="M1325.66,-70.3005C1336.09,-70.1537 1347.19,-69.9973 1357.95,-69.8458"/>
<polygon fill="midnightblue" stroke="midnightblue" points="1358.17,-73.3431 1368.12,-69.7025 1358.07,-66.3438 1358.17,-73.3431"/>
</g>
<!-- Node19 -->
<g id="node38" class="node"><title>Node19</title>
<a xlink:href="../../d1/d97/class_u_b_floating_palette.html#a94541890f583373e035733f0d96b6804" target="_top" xlink:title="UBFloatingPalette:\l:maximizeStart">
<polygon fill="white" stroke="black" points="1368.5,-0 1368.5,-34 1467.5,-34 1467.5,-0 1368.5,-0"/>
<text text-anchor="start" x="1376.5" y="-21" font-family="Helvetica,sans-Serif" font-size="10.00">UBFloatingPalette:</text>
<text text-anchor="middle" x="1418" y="-8" font-family="Helvetica,sans-Serif" font-size="10.00">:maximizeStart</text>
</a>
</g>
<!-- Node17&#45;&gt;Node19 -->
<g id="edge38" class="edge"><title>Node17&#45;&gt;Node19</title>
<path fill="none" stroke="midnightblue" d="M1320.93,-53.9141C1334.4,-48.7925 1349.32,-43.1184 1363.34,-37.7861"/>
<polygon fill="midnightblue" stroke="midnightblue" points="1364.77,-40.9861 1372.88,-34.1601 1362.28,-34.4432 1364.77,-40.9861"/>
</g>
</g>
</svg>
