<?xml version="1.0" encoding="UTF-8" standalone="no"?>
<!DOCTYPE svg PUBLIC "-//W3C//DTD SVG 1.1//EN"
 "http://www.w3.org/Graphics/SVG/1.1/DTD/svg11.dtd">
<!-- Generated by graphviz version 2.26.3 (20100126.1600)
 -->
<!-- Title: UBGraphicsScene::clearContent Pages: 1 -->
<!--zoomable 302 -->
<svg id="main" version="1.1" xmlns="http://www.w3.org/2000/svg" xmlns:xlink="http://www.w3.org/1999/xlink" xml:space="preserve" onload="init(evt)">
        <defs>
                <circle id="rim" cx="0" cy="0" r="7"/>
                <circle id="rim2" cx="0" cy="0" r="3.5"/>
                <g id="zoomPlus">
                        <use xlink:href="#rim" fill="#404040">
                                <set attributeName="fill" to="#808080" begin="zoomplus.mouseover" end="zoomplus.mouseout"/>
                        </use>
                        <path d="M-4,0h8M0,-4v8" fill="none" stroke="white" stroke-width="1.5" pointer-events="none"/>
                </g>
                <g id="zoomMin">
                        <use xlink:href="#rim" fill="#404040">
                                <set attributeName="fill" to="#808080" begin="zoomminus.mouseover" end="zoomminus.mouseout"/>
                        </use>
                        <path d="M-4,0h8" fill="none" stroke="white" stroke-width="1.5" pointer-events="none"/>
                </g>
                <g id="dirArrow">
                        <path fill="none" stroke="white" stroke-width="1.5" d="M0,-3.0v7 M-2.5,-0.5L0,-3.0L2.5,-0.5"/>
                </g>
               <g id="resetDef">
                       <use xlink:href="#rim2" fill="#404040">
                               <set attributeName="fill" to="#808080" begin="reset.mouseover" end="reset.mouseout"/>
                       </use>
               </g>
        </defs>

<script type="text/javascript">
var viewWidth = 1066;
var viewHeight = 302;
var sectionId = 'dynsection-56';
</script>
<script xlink:href="../../svgpan.js"/>
<svg id="graph" class="graph">
<g id="viewport">
<title>UBGraphicsScene::clearContent</title>
<polygon fill="white" stroke="white" points="-4,5 -4,-298 1063,-298 1063,5 -4,5"/>
<!-- Node1 -->
<g id="node1" class="node"><title>Node1</title>
<polygon fill="#bfbfbf" stroke="black" points="0.5,-136.5 0.5,-157.5 159.5,-157.5 159.5,-136.5 0.5,-136.5"/>
<text text-anchor="middle" x="80" y="-144.5" font-family="Helvetica,sans-Serif" font-size="10.00">UBGraphicsScene::clearContent</text>
</g>
<!-- Node2 -->
<g id="node3" class="node"><title>Node2</title>
<a xlink:href="../../d7/d62/class_u_b_board_controller.html#aa05f3be4a1645d76f034f38269fc6cf0" target="_top" xlink:title="UBBoardController:\l:clearScene">
<polygon fill="white" stroke="black" points="223.5,-260 223.5,-294 324.5,-294 324.5,-260 223.5,-260"/>
<text text-anchor="start" x="231.5" y="-281" font-family="Helvetica,sans-Serif" font-size="10.00">UBBoardController:</text>
<text text-anchor="middle" x="274" y="-268" font-family="Helvetica,sans-Serif" font-size="10.00">:clearScene</text>
</a>
</g>
<!-- Node1&#45;&gt;Node2 -->
<g id="edge2" class="edge"><title>Node1&#45;&gt;Node2</title>
<path fill="none" stroke="midnightblue" d="M95.9944,-165.382C116.888,-188.362 155.592,-227.523 196,-251 204.393,-255.876 213.83,-259.996 223.165,-263.418"/>
<polygon fill="midnightblue" stroke="midnightblue" points="98.4069,-162.829 89.1326,-157.707 93.1884,-167.495 98.4069,-162.829"/>
</g>
<!-- Node8 -->
<g id="node15" class="node"><title>Node8</title>
<a xlink:href="../../d7/d62/class_u_b_board_controller.html#a3fe7c336f24feec07902020905386ca0" target="_top" xlink:title="UBBoardController:\l:clearSceneItems">
<polygon fill="white" stroke="black" points="223.5,-208 223.5,-242 324.5,-242 324.5,-208 223.5,-208"/>
<text text-anchor="start" x="231.5" y="-229" font-family="Helvetica,sans-Serif" font-size="10.00">UBBoardController:</text>
<text text-anchor="middle" x="274" y="-216" font-family="Helvetica,sans-Serif" font-size="10.00">:clearSceneItems</text>
</a>
</g>
<!-- Node1&#45;&gt;Node8 -->
<g id="edge14" class="edge"><title>Node1&#45;&gt;Node8</title>
<path fill="none" stroke="midnightblue" d="M111.273,-162.039C134.417,-172.918 166.851,-187.641 196,-199 204.778,-202.421 214.214,-205.806 223.386,-208.946"/>
<polygon fill="midnightblue" stroke="midnightblue" points="112.496,-158.746 101.96,-157.633 109.502,-165.074 112.496,-158.746"/>
</g>
<!-- Node9 -->
<g id="node18" class="node"><title>Node9</title>
<a xlink:href="../../d7/d62/class_u_b_board_controller.html#ab47067d535d9086bd8e9e84176c02036" target="_top" xlink:title="UBBoardController:\l:clearSceneAnnotation">
<polygon fill="white" stroke="black" points="216.5,-156 216.5,-190 331.5,-190 331.5,-156 216.5,-156"/>
<text text-anchor="start" x="224.5" y="-177" font-family="Helvetica,sans-Serif" font-size="10.00">UBBoardController:</text>
<text text-anchor="middle" x="274" y="-164" font-family="Helvetica,sans-Serif" font-size="10.00">:clearSceneAnnotation</text>
</a>
</g>
<!-- Node1&#45;&gt;Node9 -->
<g id="edge18" class="edge"><title>Node1&#45;&gt;Node9</title>
<path fill="none" stroke="midnightblue" d="M168.4,-158.847C184.637,-161.024 201.199,-163.243 216.245,-165.26"/>
<polygon fill="midnightblue" stroke="midnightblue" points="168.724,-155.36 158.348,-157.5 167.794,-162.298 168.724,-155.36"/>
</g>
<!-- Node10 -->
<g id="node21" class="node"><title>Node10</title>
<a xlink:href="../../d7/d62/class_u_b_board_controller.html#a7c98cc515d722b671686bb6a77a89a3b" target="_top" xlink:title="UBBoardController:\l:clearSceneBackground">
<polygon fill="white" stroke="black" points="214,-104 214,-138 334,-138 334,-104 214,-104"/>
<text text-anchor="start" x="222" y="-125" font-family="Helvetica,sans-Serif" font-size="10.00">UBBoardController:</text>
<text text-anchor="middle" x="274" y="-112" font-family="Helvetica,sans-Serif" font-size="10.00">:clearSceneBackground</text>
</a>
</g>
<!-- Node1&#45;&gt;Node10 -->
<g id="edge22" class="edge"><title>Node1&#45;&gt;Node10</title>
<path fill="none" stroke="midnightblue" d="M168.4,-135.153C183.785,-133.091 199.461,-130.99 213.863,-129.06"/>
<polygon fill="midnightblue" stroke="midnightblue" points="167.794,-131.702 158.348,-136.5 168.724,-138.64 167.794,-131.702"/>
</g>
<!-- Node11 -->
<g id="node24" class="node"><title>Node11</title>
<a xlink:href="../../d7/db7/class_u_b_desktop_annotation_controller.html#a3e608bc4589b513671f8d0fc27b36dc4" target="_top" xlink:title="UBDesktopAnnotationController\l::eraseDesktopAnnotations">
<polygon fill="white" stroke="black" points="196,-52 196,-86 352,-86 352,-52 196,-52"/>
<text text-anchor="start" x="204" y="-73" font-family="Helvetica,sans-Serif" font-size="10.00">UBDesktopAnnotationController</text>
<text text-anchor="middle" x="274" y="-60" font-family="Helvetica,sans-Serif" font-size="10.00">::eraseDesktopAnnotations</text>
</a>
</g>
<!-- Node1&#45;&gt;Node11 -->
<g id="edge26" class="edge"><title>Node1&#45;&gt;Node11</title>
<path fill="none" stroke="midnightblue" d="M111.273,-131.961C134.417,-121.082 166.851,-106.359 196,-95 203.847,-91.9421 212.22,-88.9127 220.46,-86.0611"/>
<polygon fill="midnightblue" stroke="midnightblue" points="109.502,-128.926 101.96,-136.367 112.496,-135.254 109.502,-128.926"/>
</g>
<!-- Node13 -->
<g id="node28" class="node"><title>Node13</title>
<a xlink:href="../../d5/d2b/class_u_b_widget_uniboard_a_p_i.html#a4c4dd082d6ed9397e4658a41f78638f5" target="_top" xlink:title="UBWidgetUniboardAPI\l::clear">
<polygon fill="white" stroke="black" points="215.5,-0 215.5,-34 332.5,-34 332.5,-0 215.5,-0"/>
<text text-anchor="start" x="223.5" y="-21" font-family="Helvetica,sans-Serif" font-size="10.00">UBWidgetUniboardAPI</text>
<text text-anchor="middle" x="274" y="-8" font-family="Helvetica,sans-Serif" font-size="10.00">::clear</text>
</a>
</g>
<!-- Node1&#45;&gt;Node13 -->
<g id="edge30" class="edge"><title>Node1&#45;&gt;Node13</title>
<path fill="none" stroke="midnightblue" d="M95.9944,-128.618C116.888,-105.638 155.592,-66.4771 196,-43 202.048,-39.4863 208.638,-36.3652 215.341,-33.615"/>
<polygon fill="midnightblue" stroke="midnightblue" points="93.1884,-126.505 89.1326,-136.293 98.4069,-131.171 93.1884,-126.505"/>
</g>
<!-- Node3 -->
<g id="node5" class="node"><title>Node3</title>
<a xlink:href="../../d7/d62/class_u_b_board_controller.html#a0292260502bb0cbe4bc3c83f3a3283bc" target="_top" xlink:title="UBBoardController:\l:connectToolbar">
<polygon fill="white" stroke="black" points="418.5,-182 418.5,-216 519.5,-216 519.5,-182 418.5,-182"/>
<text text-anchor="start" x="426.5" y="-203" font-family="Helvetica,sans-Serif" font-size="10.00">UBBoardController:</text>
<text text-anchor="middle" x="469" y="-190" font-family="Helvetica,sans-Serif" font-size="10.00">:connectToolbar</text>
</a>
</g>
<!-- Node2&#45;&gt;Node3 -->
<g id="edge4" class="edge"><title>Node2&#45;&gt;Node3</title>
<path fill="none" stroke="midnightblue" d="M334.121,-257.61C340.189,-255.459 346.236,-253.236 352,-251 379.563,-240.31 410.066,-226.692 433.015,-216.074"/>
<polygon fill="midnightblue" stroke="midnightblue" points="332.898,-254.33 324.605,-260.923 335.2,-260.941 332.898,-254.33"/>
</g>
<!-- Node4 -->
<g id="node7" class="node"><title>Node4</title>
<a xlink:href="../../d7/d62/class_u_b_board_controller.html#a6761e02604fb3aa8ecbfc5fd4a5d87f3" target="_top" xlink:title="UBBoardController:\l:setupToolbar">
<polygon fill="white" stroke="black" points="586.5,-182 586.5,-216 687.5,-216 687.5,-182 586.5,-182"/>
<text text-anchor="start" x="594.5" y="-203" font-family="Helvetica,sans-Serif" font-size="10.00">UBBoardController:</text>
<text text-anchor="middle" x="637" y="-190" font-family="Helvetica,sans-Serif" font-size="10.00">:setupToolbar</text>
</a>
</g>
<!-- Node3&#45;&gt;Node4 -->
<g id="edge6" class="edge"><title>Node3&#45;&gt;Node4</title>
<path fill="none" stroke="midnightblue" d="M529.947,-199C548.447,-199 568.563,-199 586.311,-199"/>
<polygon fill="midnightblue" stroke="midnightblue" points="529.861,-195.5 519.861,-199 529.861,-202.5 529.861,-195.5"/>
</g>
<!-- Node5 -->
<g id="node9" class="node"><title>Node5</title>
<a xlink:href="../../d7/d62/class_u_b_board_controller.html#aa728cb7c1b979b2d4ae45638a7386dde" target="_top" xlink:title="UBBoardController::init">
<polygon fill="white" stroke="black" points="724.5,-188.5 724.5,-209.5 841.5,-209.5 841.5,-188.5 724.5,-188.5"/>
<text text-anchor="middle" x="783" y="-196.5" font-family="Helvetica,sans-Serif" font-size="10.00">UBBoardController::init</text>
</a>
</g>
<!-- Node4&#45;&gt;Node5 -->
<g id="edge8" class="edge"><title>Node4&#45;&gt;Node5</title>
<path fill="none" stroke="midnightblue" d="M697.836,-199C706.631,-199 715.668,-199 724.418,-199"/>
<polygon fill="midnightblue" stroke="midnightblue" points="697.654,-195.5 687.654,-199 697.654,-202.5 697.654,-195.5"/>
</g>
<!-- Node6 -->
<g id="node11" class="node"><title>Node6</title>
<a xlink:href="../../d8/d81/class_u_b_application.html#add1469239e71bf24fdc61413a42a38bd" target="_top" xlink:title="UBApplication::exec">
<polygon fill="white" stroke="black" points="878,-188.5 878,-209.5 984,-209.5 984,-188.5 878,-188.5"/>
<text text-anchor="middle" x="931" y="-196.5" font-family="Helvetica,sans-Serif" font-size="10.00">UBApplication::exec</text>
</a>
</g>
<!-- Node5&#45;&gt;Node6 -->
<g id="edge10" class="edge"><title>Node5&#45;&gt;Node6</title>
<path fill="none" stroke="midnightblue" d="M851.947,-199C860.549,-199 869.243,-199 877.56,-199"/>
<polygon fill="midnightblue" stroke="midnightblue" points="851.919,-195.5 841.919,-199 851.919,-202.5 851.919,-195.5"/>
</g>
<!-- Node7 -->
<g id="node13" class="node"><title>Node7</title>
<a xlink:href="../../df/d0a/main_8cpp.html#a0ddf1224851353fc92bfbff6f499fa97" target="_top" xlink:title="main">
<polygon fill="white" stroke="black" points="1020,-188.5 1020,-209.5 1058,-209.5 1058,-188.5 1020,-188.5"/>
<text text-anchor="middle" x="1039" y="-196.5" font-family="Helvetica,sans-Serif" font-size="10.00">main</text>
</a>
</g>
<!-- Node6&#45;&gt;Node7 -->
<g id="edge12" class="edge"><title>Node6&#45;&gt;Node7</title>
<path fill="none" stroke="midnightblue" d="M994.214,-199C1003.49,-199 1012.4,-199 1019.79,-199"/>
<polygon fill="midnightblue" stroke="midnightblue" points="994.051,-195.5 984.051,-199 994.051,-202.5 994.051,-195.5"/>
</g>
<!-- Node8&#45;&gt;Node3 -->
<g id="edge16" class="edge"><title>Node8&#45;&gt;Node3</title>
<path fill="none" stroke="midnightblue" d="M334.758,-216.899C361.543,-213.328 392.662,-209.178 418.191,-205.775"/>
<polygon fill="midnightblue" stroke="midnightblue" points="334.175,-213.446 324.725,-218.237 335.1,-220.384 334.175,-213.446"/>
</g>
<!-- Node9&#45;&gt;Node3 -->
<g id="edge20" class="edge"><title>Node9&#45;&gt;Node3</title>
<path fill="none" stroke="midnightblue" d="M341.915,-182.055C367.04,-185.405 395.061,-189.141 418.384,-192.251"/>
<polygon fill="midnightblue" stroke="midnightblue" points="342.09,-178.548 331.715,-180.695 341.165,-185.486 342.09,-178.548"/>
</g>
<!-- Node10&#45;&gt;Node3 -->
<g id="edge24" class="edge"><title>Node10&#45;&gt;Node3</title>
<path fill="none" stroke="midnightblue" d="M337.211,-141.492C342.236,-143.297 347.215,-145.144 352,-147 379.563,-157.69 410.066,-171.308 433.015,-181.926"/>
<polygon fill="midnightblue" stroke="midnightblue" points="338.126,-138.104 327.531,-138.083 335.801,-144.706 338.126,-138.104"/>
</g>
<!-- Node12 -->
<g id="node26" class="node"><title>Node12</title>
<a xlink:href="../../d7/db7/class_u_b_desktop_annotation_controller.html#a1e31fa6fa39f439312757baadcaae17a" target="_top" xlink:title="UBDesktopAnnotationController\l::UBDesktopAnnotationController">
<polygon fill="white" stroke="black" points="388,-52 388,-86 550,-86 550,-52 388,-52"/>
<text text-anchor="start" x="396" y="-73" font-family="Helvetica,sans-Serif" font-size="10.00">UBDesktopAnnotationController</text>
<text text-anchor="middle" x="469" y="-60" font-family="Helvetica,sans-Serif" font-size="10.00">::UBDesktopAnnotationController</text>
</a>
</g>
<!-- Node11&#45;&gt;Node12 -->
<g id="edge28" class="edge"><title>Node11&#45;&gt;Node12</title>
<path fill="none" stroke="midnightblue" d="M362.191,-69C370.761,-69 379.428,-69 387.924,-69"/>
<polygon fill="midnightblue" stroke="midnightblue" points="362.19,-65.5001 352.19,-69 362.19,-72.5001 362.19,-65.5001"/>
</g>
</g>
</svg>
        <g id="navigator" transform="translate(0 0)" fill="#404254">
                <rect fill="#f2f5e9" fill-opacity="0.5" stroke="#606060" stroke-width=".5" x="0" y="0" width="60" height="60"/>
                <use id="zoomplus" xlink:href="#zoomPlus" x="17" y="9" onmousedown="handleZoom(evt,'in')"/>
                <use id="zoomminus" xlink:href="#zoomMin" x="42" y="9" onmousedown="handleZoom(evt,'out')"/>
                <use id="reset" xlink:href="#resetDef" x="30" y="36" onmousedown="handleReset()"/>
                <g id="arrowUp" xlink:href="#dirArrow" transform="translate(30 24)" onmousedown="handlePan(0,-1)">
                  <use xlink:href="#rim" fill="#404040">
                        <set attributeName="fill" to="#808080" begin="arrowUp.mouseover" end="arrowUp.mouseout"/>
                  </use>
                  <path fill="none" stroke="white" stroke-width="1.5" d="M0,-3.0v7 M-2.5,-0.5L0,-3.0L2.5,-0.5"/>
                </g>
                <g id="arrowRight" xlink:href="#dirArrow" transform="rotate(90) translate(36 -43)" onmousedown="handlePan(1,0)">
                  <use xlink:href="#rim" fill="#404040">
                        <set attributeName="fill" to="#808080" begin="arrowRight.mouseover" end="arrowRight.mouseout"/>
                  </use>
                  <path fill="none" stroke="white" stroke-width="1.5" d="M0,-3.0v7 M-2.5,-0.5L0,-3.0L2.5,-0.5"/>
                </g>
                <g id="arrowDown" xlink:href="#dirArrow" transform="rotate(180) translate(-30 -48)" onmousedown="handlePan(0,1)">
                  <use xlink:href="#rim" fill="#404040">
                        <set attributeName="fill" to="#808080" begin="arrowDown.mouseover" end="arrowDown.mouseout"/>
                  </use>
                  <path fill="none" stroke="white" stroke-width="1.5" d="M0,-3.0v7 M-2.5,-0.5L0,-3.0L2.5,-0.5"/>
                </g>
                <g id="arrowLeft" xlink:href="#dirArrow" transform="rotate(270) translate(-36 17)" onmousedown="handlePan(-1,0)">
                  <use xlink:href="#rim" fill="#404040">
                        <set attributeName="fill" to="#808080" begin="arrowLeft.mouseover" end="arrowLeft.mouseout"/>
                  </use>
                  <path fill="none" stroke="white" stroke-width="1.5" d="M0,-3.0v7 M-2.5,-0.5L0,-3.0L2.5,-0.5"/>
                </g>
        </g>
        <svg viewBox="0 0 15 15" width="100%" height="30px" preserveAspectRatio="xMaxYMin meet">
         <g id="arrow_out" transform="scale(0.3 0.3)">
          <a xlink:href="class_u_b_graphics_scene_a6e861912547654e47c26f7d8e72201e8_icgraph_org.svg" target="_base">
           <rect id="button" ry="5" rx="5" y="6" x="6" height="38" width="38"
                fill="#f2f5e9" fill-opacity="0.5" stroke="#606060" stroke-width="1.0"/>
           <path id="arrow"
             d="M 11.500037,31.436501 C 11.940474,20.09759 22.043105,11.32322 32.158766,21.979434 L 37.068811,17.246167 C 37.068811,17.246167 37.088388,32 37.088388,32 L 22.160133,31.978069 C 22.160133,31.978069 26.997745,27.140456 26.997745,27.140456 C 18.528582,18.264221 13.291696,25.230495 11.500037,31.436501 z"
             style="fill:#404040;"/>
          </a>
         </g>
        </svg>
</svg>
