<?xml version="1.0" encoding="UTF-8" standalone="no"?>
<!DOCTYPE svg PUBLIC "-//W3C//DTD SVG 1.1//EN"
 "http://www.w3.org/Graphics/SVG/1.1/DTD/svg11.dtd">
<!-- Generated by graphviz version 2.26.3 (20100126.1600)
 -->
<!-- Title: UBFeaturesModel::removeRow Pages: 1 -->
<!--zoomable 172 -->
<svg id="main" version="1.1" xmlns="http://www.w3.org/2000/svg" xmlns:xlink="http://www.w3.org/1999/xlink" xml:space="preserve" onload="init(evt)">
        <defs>
                <circle id="rim" cx="0" cy="0" r="7"/>
                <circle id="rim2" cx="0" cy="0" r="3.5"/>
                <g id="zoomPlus">
                        <use xlink:href="#rim" fill="#404040">
                                <set attributeName="fill" to="#808080" begin="zoomplus.mouseover" end="zoomplus.mouseout"/>
                        </use>
                        <path d="M-4,0h8M0,-4v8" fill="none" stroke="white" stroke-width="1.5" pointer-events="none"/>
                </g>
                <g id="zoomMin">
                        <use xlink:href="#rim" fill="#404040">
                                <set attributeName="fill" to="#808080" begin="zoomminus.mouseover" end="zoomminus.mouseout"/>
                        </use>
                        <path d="M-4,0h8" fill="none" stroke="white" stroke-width="1.5" pointer-events="none"/>
                </g>
                <g id="dirArrow">
                        <path fill="none" stroke="white" stroke-width="1.5" d="M0,-3.0v7 M-2.5,-0.5L0,-3.0L2.5,-0.5"/>
                </g>
               <g id="resetDef">
                       <use xlink:href="#rim2" fill="#404040">
                               <set attributeName="fill" to="#808080" begin="reset.mouseover" end="reset.mouseout"/>
                       </use>
               </g>
        </defs>

<script type="text/javascript">
var viewWidth = 764;
var viewHeight = 172;
var sectionId = 'dynsection-14';
</script>
<script xlink:href="../../svgpan.js"/>
<svg id="graph" class="graph">
<g id="viewport">
<title>UBFeaturesModel::removeRow</title>
<polygon fill="white" stroke="white" points="-4,5 -4,-168 761,-168 761,5 -4,5"/>
<!-- Node1 -->
<g id="node1" class="node"><title>Node1</title>
<polygon fill="#bfbfbf" stroke="black" points="0,-68.5 0,-89.5 154,-89.5 154,-68.5 0,-68.5"/>
<text text-anchor="middle" x="77" y="-76.5" font-family="Helvetica,sans-Serif" font-size="10.00">UBFeaturesModel::removeRow</text>
</g>
<!-- Node2 -->
<g id="node3" class="node"><title>Node2</title>
<a xlink:href="../../d5/d7a/class_u_b_features_model.html#a4f5b07854d8eb551451e6e1c591fcd52" target="_top" xlink:title="UBFeaturesModel::deleteFavoriteItem">
<polygon fill="white" stroke="black" points="190,-91.5 190,-112.5 372,-112.5 372,-91.5 190,-91.5"/>
<text text-anchor="middle" x="281" y="-99.5" font-family="Helvetica,sans-Serif" font-size="10.00">UBFeaturesModel::deleteFavoriteItem</text>
</a>
</g>
<!-- Node1&#45;&gt;Node2 -->
<g id="edge2" class="edge"><title>Node1&#45;&gt;Node2</title>
<path fill="none" stroke="midnightblue" d="M164.301,-88.8427C172.713,-89.7911 181.261,-90.7549 189.71,-91.7075"/>
<polygon fill="midnightblue" stroke="midnightblue" points="164.453,-85.3378 154.124,-87.6953 163.669,-92.2937 164.453,-85.3378"/>
</g>
<!-- Node5 -->
<g id="node10" class="node"><title>Node5</title>
<a xlink:href="../../d5/d7a/class_u_b_features_model.html#a73c6727d3fd9f3dc2bdb0b62ab27370c" target="_top" xlink:title="UBFeaturesModel::deleteItem">
<polygon fill="white" stroke="black" points="207.5,-46.5 207.5,-67.5 354.5,-67.5 354.5,-46.5 207.5,-46.5"/>
<text text-anchor="middle" x="281" y="-54.5" font-family="Helvetica,sans-Serif" font-size="10.00">UBFeaturesModel::deleteItem</text>
</a>
</g>
<!-- Node1&#45;&gt;Node5 -->
<g id="edge10" class="edge"><title>Node1&#45;&gt;Node5</title>
<path fill="none" stroke="midnightblue" d="M164.473,-69.5666C178.804,-68.0211 193.526,-66.4335 207.475,-64.9291"/>
<polygon fill="midnightblue" stroke="midnightblue" points="163.691,-66.1306 154.124,-70.6827 164.441,-73.0903 163.691,-66.1306"/>
</g>
<!-- Node3 -->
<g id="node5" class="node"><title>Node3</title>
<a xlink:href="../../d8/d33/class_u_b_features_controller.html#ac441a13d4bfca4a13e712cce6857bffc" target="_top" xlink:title="UBFeaturesController\l::removeFromFavorite">
<polygon fill="white" stroke="black" points="424.5,-130 424.5,-164 537.5,-164 537.5,-130 424.5,-130"/>
<text text-anchor="start" x="432.5" y="-151" font-family="Helvetica,sans-Serif" font-size="10.00">UBFeaturesController</text>
<text text-anchor="middle" x="481" y="-138" font-family="Helvetica,sans-Serif" font-size="10.00">::removeFromFavorite</text>
</a>
</g>
<!-- Node2&#45;&gt;Node3 -->
<g id="edge4" class="edge"><title>Node2&#45;&gt;Node3</title>
<path fill="none" stroke="midnightblue" d="M337.999,-114.825C365.093,-120.921 397.39,-128.188 424.43,-134.272"/>
<polygon fill="midnightblue" stroke="midnightblue" points="338.416,-111.331 327.891,-112.551 336.879,-118.16 338.416,-111.331"/>
</g>
<!-- Node4 -->
<g id="node7" class="node"><title>Node4</title>
<a xlink:href="../../d8/d33/class_u_b_features_controller.html#abf82ec95b8742869c7463f968c584164" target="_top" xlink:title="UBFeaturesController\l::moveToTrash">
<polygon fill="white" stroke="black" points="617.5,-85 617.5,-119 728.5,-119 728.5,-85 617.5,-85"/>
<text text-anchor="start" x="625.5" y="-106" font-family="Helvetica,sans-Serif" font-size="10.00">UBFeaturesController</text>
<text text-anchor="middle" x="673" y="-93" font-family="Helvetica,sans-Serif" font-size="10.00">::moveToTrash</text>
</a>
</g>
<!-- Node2&#45;&gt;Node4 -->
<g id="edge8" class="edge"><title>Node2&#45;&gt;Node4</title>
<path fill="none" stroke="midnightblue" d="M382.798,-102C457.577,-102 556.36,-102 617.24,-102"/>
<polygon fill="midnightblue" stroke="midnightblue" points="382.412,-98.5001 372.412,-102 382.412,-105.5 382.412,-98.5001"/>
</g>
<!-- Node3&#45;&gt;Node4 -->
<g id="edge6" class="edge"><title>Node3&#45;&gt;Node4</title>
<path fill="none" stroke="midnightblue" d="M547.521,-131.409C570.348,-126.059 595.638,-120.132 617.498,-115.008"/>
<polygon fill="midnightblue" stroke="midnightblue" points="546.505,-128.052 537.568,-133.742 548.103,-134.868 546.505,-128.052"/>
</g>
<!-- Node6 -->
<g id="node12" class="node"><title>Node6</title>
<a xlink:href="../../d8/d33/class_u_b_features_controller.html#ac372e53b4e31eccd99520f4e28f4b7f9" target="_top" xlink:title="UBFeaturesController\l::deleteItem">
<polygon fill="white" stroke="black" points="425.5,-40 425.5,-74 536.5,-74 536.5,-40 425.5,-40"/>
<text text-anchor="start" x="433.5" y="-61" font-family="Helvetica,sans-Serif" font-size="10.00">UBFeaturesController</text>
<text text-anchor="middle" x="481" y="-48" font-family="Helvetica,sans-Serif" font-size="10.00">::deleteItem</text>
</a>
</g>
<!-- Node5&#45;&gt;Node6 -->
<g id="edge12" class="edge"><title>Node5&#45;&gt;Node6</title>
<path fill="none" stroke="midnightblue" d="M364.875,-57C385.296,-57 406.639,-57 425.375,-57"/>
<polygon fill="midnightblue" stroke="midnightblue" points="364.621,-53.5001 354.621,-57 364.621,-60.5001 364.621,-53.5001"/>
</g>
<!-- Node7 -->
<g id="node14" class="node"><title>Node7</title>
<a xlink:href="../../d5/d7a/class_u_b_features_model.html#ad30ab5e1a702838c8664cbfcebad1606" target="_top" xlink:title="UBFeaturesModel::moveData">
<polygon fill="white" stroke="black" points="408,-0.5 408,-21.5 554,-21.5 554,-0.5 408,-0.5"/>
<text text-anchor="middle" x="481" y="-8.5" font-family="Helvetica,sans-Serif" font-size="10.00">UBFeaturesModel::moveData</text>
</a>
</g>
<!-- Node5&#45;&gt;Node7 -->
<g id="edge14" class="edge"><title>Node5&#45;&gt;Node7</title>
<path fill="none" stroke="midnightblue" d="M336.704,-44.188C367.788,-37.0389 406.027,-28.2438 435.329,-21.5042"/>
<polygon fill="midnightblue" stroke="midnightblue" points="335.845,-40.7942 326.884,-46.4467 337.414,-47.6161 335.845,-40.7942"/>
</g>
<!-- Node7&#45;&gt;Node4 -->
<g id="edge16" class="edge"><title>Node7&#45;&gt;Node4</title>
<path fill="none" stroke="midnightblue" d="M536.75,-24.5786C542.652,-26.5164 548.501,-28.6577 554,-31 588.749,-45.8015 625.634,-69.1522 648.965,-84.9988"/>
<polygon fill="midnightblue" stroke="midnightblue" points="537.409,-21.1189 526.821,-21.51 535.342,-27.8068 537.409,-21.1189"/>
</g>
<!-- Node8 -->
<g id="node17" class="node"><title>Node8</title>
<a xlink:href="../../d5/d7a/class_u_b_features_model.html#ad09e3d23fe39f4e9f727b38b6ebac1ea" target="_top" xlink:title="UBFeaturesModel::dropMimeData">
<polygon fill="white" stroke="black" points="590.5,-0.5 590.5,-21.5 755.5,-21.5 755.5,-0.5 590.5,-0.5"/>
<text text-anchor="middle" x="673" y="-8.5" font-family="Helvetica,sans-Serif" font-size="10.00">UBFeaturesModel::dropMimeData</text>
</a>
</g>
<!-- Node7&#45;&gt;Node8 -->
<g id="edge18" class="edge"><title>Node7&#45;&gt;Node8</title>
<path fill="none" stroke="midnightblue" d="M564.249,-11C572.936,-11 581.764,-11 590.443,-11"/>
<polygon fill="midnightblue" stroke="midnightblue" points="564.135,-7.5001 554.135,-11 564.135,-14.5001 564.135,-7.5001"/>
</g>
</g>
</svg>
        <g id="navigator" transform="translate(0 0)" fill="#404254">
                <rect fill="#f2f5e9" fill-opacity="0.5" stroke="#606060" stroke-width=".5" x="0" y="0" width="60" height="60"/>
                <use id="zoomplus" xlink:href="#zoomPlus" x="17" y="9" onmousedown="handleZoom(evt,'in')"/>
                <use id="zoomminus" xlink:href="#zoomMin" x="42" y="9" onmousedown="handleZoom(evt,'out')"/>
                <use id="reset" xlink:href="#resetDef" x="30" y="36" onmousedown="handleReset()"/>
                <g id="arrowUp" xlink:href="#dirArrow" transform="translate(30 24)" onmousedown="handlePan(0,-1)">
                  <use xlink:href="#rim" fill="#404040">
                        <set attributeName="fill" to="#808080" begin="arrowUp.mouseover" end="arrowUp.mouseout"/>
                  </use>
                  <path fill="none" stroke="white" stroke-width="1.5" d="M0,-3.0v7 M-2.5,-0.5L0,-3.0L2.5,-0.5"/>
                </g>
                <g id="arrowRight" xlink:href="#dirArrow" transform="rotate(90) translate(36 -43)" onmousedown="handlePan(1,0)">
                  <use xlink:href="#rim" fill="#404040">
                        <set attributeName="fill" to="#808080" begin="arrowRight.mouseover" end="arrowRight.mouseout"/>
                  </use>
                  <path fill="none" stroke="white" stroke-width="1.5" d="M0,-3.0v7 M-2.5,-0.5L0,-3.0L2.5,-0.5"/>
                </g>
                <g id="arrowDown" xlink:href="#dirArrow" transform="rotate(180) translate(-30 -48)" onmousedown="handlePan(0,1)">
                  <use xlink:href="#rim" fill="#404040">
                        <set attributeName="fill" to="#808080" begin="arrowDown.mouseover" end="arrowDown.mouseout"/>
                  </use>
                  <path fill="none" stroke="white" stroke-width="1.5" d="M0,-3.0v7 M-2.5,-0.5L0,-3.0L2.5,-0.5"/>
                </g>
                <g id="arrowLeft" xlink:href="#dirArrow" transform="rotate(270) translate(-36 17)" onmousedown="handlePan(-1,0)">
                  <use xlink:href="#rim" fill="#404040">
                        <set attributeName="fill" to="#808080" begin="arrowLeft.mouseover" end="arrowLeft.mouseout"/>
                  </use>
                  <path fill="none" stroke="white" stroke-width="1.5" d="M0,-3.0v7 M-2.5,-0.5L0,-3.0L2.5,-0.5"/>
                </g>
        </g>
        <svg viewBox="0 0 15 15" width="100%" height="30px" preserveAspectRatio="xMaxYMin meet">
         <g id="arrow_out" transform="scale(0.3 0.3)">
          <a xlink:href="class_u_b_features_model_a56acbe53b62456a7b3681162e7710e7a_icgraph_org.svg" target="_base">
           <rect id="button" ry="5" rx="5" y="6" x="6" height="38" width="38"
                fill="#f2f5e9" fill-opacity="0.5" stroke="#606060" stroke-width="1.0"/>
           <path id="arrow"
             d="M 11.500037,31.436501 C 11.940474,20.09759 22.043105,11.32322 32.158766,21.979434 L 37.068811,17.246167 C 37.068811,17.246167 37.088388,32 37.088388,32 L 22.160133,31.978069 C 22.160133,31.978069 26.997745,27.140456 26.997745,27.140456 C 18.528582,18.264221 13.291696,25.230495 11.500037,31.436501 z"
             style="fill:#404040;"/>
          </a>
         </g>
        </svg>
</svg>
