<?xml version="1.0" encoding="UTF-8" standalone="no"?>
<!DOCTYPE svg PUBLIC "-//W3C//DTD SVG 1.1//EN"
 "http://www.w3.org/Graphics/SVG/1.1/DTD/svg11.dtd">
<!-- Generated by graphviz version 2.26.3 (20100126.1600)
 -->
<!-- Title: UBFeaturesModel::deleteFavoriteItem Pages: 1 -->
<svg width="488pt" height="65pt"
 viewBox="0.00 0.00 488.00 65.00" xmlns="http://www.w3.org/2000/svg" xmlns:xlink="http://www.w3.org/1999/xlink">
<g id="graph1" class="graph" transform="scale(1 1) rotate(0) translate(4 61)">
<title>UBFeaturesModel::deleteFavoriteItem</title>
<polygon fill="white" stroke="white" points="-4,5 -4,-61 485,-61 485,5 -4,5"/>
<!-- Node1 -->
<g id="node1" class="node"><title>Node1</title>
<polygon fill="#bfbfbf" stroke="black" points="0,-6.5 0,-27.5 182,-27.5 182,-6.5 0,-6.5"/>
<text text-anchor="middle" x="91" y="-14.5" font-family="Helvetica,sans-Serif" font-size="10.00">UBFeaturesModel::deleteFavoriteItem</text>
</g>
<!-- Node2 -->
<g id="node3" class="node"><title>Node2</title>
<a xlink:href="../../d8/d33/class_u_b_features_controller.html#ac441a13d4bfca4a13e712cce6857bffc" target="_top" xlink:title="UBFeaturesController\l::removeFromFavorite">
<polygon fill="white" stroke="black" points="218.5,-23 218.5,-57 331.5,-57 331.5,-23 218.5,-23"/>
<text text-anchor="start" x="226.5" y="-44" font-family="Helvetica,sans-Serif" font-size="10.00">UBFeaturesController</text>
<text text-anchor="middle" x="275" y="-31" font-family="Helvetica,sans-Serif" font-size="10.00">::removeFromFavorite</text>
</a>
</g>
<!-- Node1&#45;&gt;Node2 -->
<g id="edge2" class="edge"><title>Node1&#45;&gt;Node2</title>
<path fill="none" stroke="midnightblue" d="M185.185,-28.7731C196.563,-30.1953 207.896,-31.612 218.488,-32.936"/>
<polygon fill="midnightblue" stroke="midnightblue" points="185.549,-25.2915 175.192,-27.524 184.681,-32.2374 185.549,-25.2915"/>
</g>
<!-- Node3 -->
<g id="node5" class="node"><title>Node3</title>
<a xlink:href="../../d8/d33/class_u_b_features_controller.html#abf82ec95b8742869c7463f968c584164" target="_top" xlink:title="UBFeaturesController\l::moveToTrash">
<polygon fill="white" stroke="black" points="368.5,-0 368.5,-34 479.5,-34 479.5,-0 368.5,-0"/>
<text text-anchor="start" x="376.5" y="-21" font-family="Helvetica,sans-Serif" font-size="10.00">UBFeaturesController</text>
<text text-anchor="middle" x="424" y="-8" font-family="Helvetica,sans-Serif" font-size="10.00">::moveToTrash</text>
</a>
</g>
<!-- Node1&#45;&gt;Node3 -->
<g id="edge6" class="edge"><title>Node1&#45;&gt;Node3</title>
<path fill="none" stroke="midnightblue" d="M192.388,-14.3906C201.051,-14.2328 209.678,-14.0983 218,-14 268.663,-13.4017 281.34,-13.1742 332,-14 343.664,-14.1901 356.157,-14.5158 368.058,-14.8842"/>
<polygon fill="midnightblue" stroke="midnightblue" points="192.15,-10.8945 182.219,-14.586 192.284,-17.8932 192.15,-10.8945"/>
</g>
<!-- Node2&#45;&gt;Node3 -->
<g id="edge4" class="edge"><title>Node2&#45;&gt;Node3</title>
<path fill="none" stroke="midnightblue" d="M341.724,-29.7003C350.634,-28.3249 359.694,-26.9264 368.387,-25.5845"/>
<polygon fill="midnightblue" stroke="midnightblue" points="341.105,-26.2544 331.756,-31.2391 342.172,-33.1725 341.105,-26.2544"/>
</g>
</g>
</svg>
