<?xml version="1.0" encoding="UTF-8" standalone="no"?>
<!DOCTYPE svg PUBLIC "-//W3C//DTD SVG 1.1//EN"
 "http://www.w3.org/Graphics/SVG/1.1/DTD/svg11.dtd">
<!-- Generated by graphviz version 2.26.3 (20100126.1600)
 -->
<!-- Title: UBFeaturesModel::deleteFavoriteItem Pages: 1 -->
<!--zoomable 189 -->
<svg id="main" version="1.1" xmlns="http://www.w3.org/2000/svg" xmlns:xlink="http://www.w3.org/1999/xlink" xml:space="preserve" onload="init(evt)">
        <defs>
                <circle id="rim" cx="0" cy="0" r="7"/>
                <circle id="rim2" cx="0" cy="0" r="3.5"/>
                <g id="zoomPlus">
                        <use xlink:href="#rim" fill="#404040">
                                <set attributeName="fill" to="#808080" begin="zoomplus.mouseover" end="zoomplus.mouseout"/>
                        </use>
                        <path d="M-4,0h8M0,-4v8" fill="none" stroke="white" stroke-width="1.5" pointer-events="none"/>
                </g>
                <g id="zoomMin">
                        <use xlink:href="#rim" fill="#404040">
                                <set attributeName="fill" to="#808080" begin="zoomminus.mouseover" end="zoomminus.mouseout"/>
                        </use>
                        <path d="M-4,0h8" fill="none" stroke="white" stroke-width="1.5" pointer-events="none"/>
                </g>
                <g id="dirArrow">
                        <path fill="none" stroke="white" stroke-width="1.5" d="M0,-3.0v7 M-2.5,-0.5L0,-3.0L2.5,-0.5"/>
                </g>
               <g id="resetDef">
                       <use xlink:href="#rim2" fill="#404040">
                               <set attributeName="fill" to="#808080" begin="reset.mouseover" end="reset.mouseout"/>
                       </use>
               </g>
        </defs>

<script type="text/javascript">
var viewWidth = 882;
var viewHeight = 189;
var sectionId = 'dynsection-4';
</script>
<script xlink:href="../../svgpan.js"/>
<svg id="graph" class="graph">
<g id="viewport">
<title>UBFeaturesModel::deleteFavoriteItem</title>
<polygon fill="white" stroke="white" points="-4,5 -4,-185 879,-185 879,5 -4,5"/>
<!-- Node1 -->
<g id="node1" class="node"><title>Node1</title>
<polygon fill="#bfbfbf" stroke="black" points="0,-73.5 0,-94.5 182,-94.5 182,-73.5 0,-73.5"/>
<text text-anchor="middle" x="91" y="-81.5" font-family="Helvetica,sans-Serif" font-size="10.00">UBFeaturesModel::deleteFavoriteItem</text>
</g>
<!-- Node2 -->
<g id="node3" class="node"><title>Node2</title>
<a xlink:href="../../d8/d33/class_u_b_features_controller.html#ac441a13d4bfca4a13e712cce6857bffc" target="_top" xlink:title="UBFeaturesController\l::removeFromFavorite">
<polygon fill="white" stroke="black" points="218.5,-45 218.5,-79 331.5,-79 331.5,-45 218.5,-45"/>
<text text-anchor="start" x="226.5" y="-66" font-family="Helvetica,sans-Serif" font-size="10.00">UBFeaturesController</text>
<text text-anchor="middle" x="275" y="-53" font-family="Helvetica,sans-Serif" font-size="10.00">::removeFromFavorite</text>
</a>
</g>
<!-- Node1&#45;&gt;Node2 -->
<g id="edge2" class="edge"><title>Node1&#45;&gt;Node2</title>
<path fill="none" stroke="midnightblue" d="M189.01,-72.2814C199.048,-71.0813 208.989,-69.8926 218.355,-68.7728"/>
<polygon fill="midnightblue" stroke="midnightblue" points="188.472,-68.8207 178.958,-73.4833 189.303,-75.7712 188.472,-68.8207"/>
</g>
<!-- Node3 -->
<g id="node5" class="node"><title>Node3</title>
<a xlink:href="../../d8/d33/class_u_b_features_controller.html#abf82ec95b8742869c7463f968c584164" target="_top" xlink:title="UBFeaturesController\l::moveToTrash">
<polygon fill="white" stroke="black" points="381.5,-93 381.5,-127 492.5,-127 492.5,-93 381.5,-93"/>
<text text-anchor="start" x="389.5" y="-114" font-family="Helvetica,sans-Serif" font-size="10.00">UBFeaturesController</text>
<text text-anchor="middle" x="437" y="-101" font-family="Helvetica,sans-Serif" font-size="10.00">::moveToTrash</text>
</a>
</g>
<!-- Node1&#45;&gt;Node3 -->
<g id="edge22" class="edge"><title>Node1&#45;&gt;Node3</title>
<path fill="none" stroke="midnightblue" d="M192.52,-91.6287C254.215,-96.2647 330.626,-102.007 381.436,-105.825"/>
<polygon fill="midnightblue" stroke="midnightblue" points="192.594,-88.1245 182.36,-90.8652 192.07,-95.1048 192.594,-88.1245"/>
</g>
<!-- Node2&#45;&gt;Node3 -->
<g id="edge4" class="edge"><title>Node2&#45;&gt;Node3</title>
<path fill="none" stroke="midnightblue" d="M341.264,-81.6337C354.617,-85.5903 368.524,-89.7107 381.465,-93.5451"/>
<polygon fill="midnightblue" stroke="midnightblue" points="342.242,-78.2732 331.66,-78.7881 340.253,-84.9848 342.242,-78.2732"/>
</g>
<!-- Node7 -->
<g id="node14" class="node"><title>Node7</title>
<a xlink:href="../../d5/d85/class_u_b_features_widget.html#a095269ae68af5472c061a94386f75f94" target="_top" xlink:title="UBFeaturesWidget::remove\lFromFavorite">
<polygon fill="white" stroke="black" points="542,-43 542,-77 680,-77 680,-43 542,-43"/>
<text text-anchor="start" x="550" y="-64" font-family="Helvetica,sans-Serif" font-size="10.00">UBFeaturesWidget::remove</text>
<text text-anchor="middle" x="611" y="-51" font-family="Helvetica,sans-Serif" font-size="10.00">FromFavorite</text>
</a>
</g>
<!-- Node2&#45;&gt;Node7 -->
<g id="edge14" class="edge"><title>Node2&#45;&gt;Node7</title>
<path fill="none" stroke="midnightblue" d="M341.769,-61.6026C399.723,-61.2576 483.305,-60.7601 541.926,-60.4112"/>
<polygon fill="midnightblue" stroke="midnightblue" points="341.597,-58.1034 331.618,-61.663 341.639,-65.1033 341.597,-58.1034"/>
</g>
<!-- Node8 -->
<g id="node17" class="node"><title>Node8</title>
<a xlink:href="../../d5/d85/class_u_b_features_widget.html#abe589d83ec3468ee0a8e73eb904057e8" target="_top" xlink:title="UBFeaturesWidget::remove\lElementsFromFavorite">
<polygon fill="white" stroke="black" points="368,-0 368,-34 506,-34 506,-0 368,-0"/>
<text text-anchor="start" x="376" y="-21" font-family="Helvetica,sans-Serif" font-size="10.00">UBFeaturesWidget::remove</text>
<text text-anchor="middle" x="437" y="-8" font-family="Helvetica,sans-Serif" font-size="10.00">ElementsFromFavorite</text>
</a>
</g>
<!-- Node2&#45;&gt;Node8 -->
<g id="edge18" class="edge"><title>Node2&#45;&gt;Node8</title>
<path fill="none" stroke="midnightblue" d="M341.481,-43.533C352.799,-40.3893 364.507,-37.1371 375.683,-34.0326"/>
<polygon fill="midnightblue" stroke="midnightblue" points="340.358,-40.2124 331.66,-46.2612 342.232,-46.957 340.358,-40.2124"/>
</g>
<!-- Node4 -->
<g id="node7" class="node"><title>Node4</title>
<a xlink:href="../../d5/d85/class_u_b_features_widget.html#abc29fb21f0baf7df508ed6bd7e8254b4" target="_top" xlink:title="UBFeaturesWidget::delete\lElements">
<polygon fill="white" stroke="black" points="545,-147 545,-181 677,-181 677,-147 545,-147"/>
<text text-anchor="start" x="553" y="-168" font-family="Helvetica,sans-Serif" font-size="10.00">UBFeaturesWidget::delete</text>
<text text-anchor="middle" x="611" y="-155" font-family="Helvetica,sans-Serif" font-size="10.00">Elements</text>
</a>
</g>
<!-- Node3&#45;&gt;Node4 -->
<g id="edge6" class="edge"><title>Node3&#45;&gt;Node4</title>
<path fill="none" stroke="midnightblue" d="M501.801,-130.111C519.628,-135.643 538.788,-141.589 556.005,-146.933"/>
<polygon fill="midnightblue" stroke="midnightblue" points="502.643,-126.707 492.055,-127.086 500.568,-133.393 502.643,-126.707"/>
</g>
<!-- Node6 -->
<g id="node11" class="node"><title>Node6</title>
<a xlink:href="../../d5/d85/class_u_b_features_widget.html#a0b6f83c32353a933b4356b21f0aa1f0c" target="_top" xlink:title="UBFeaturesWidget::delete\lSelectedElements">
<polygon fill="white" stroke="black" points="545,-95 545,-129 677,-129 677,-95 545,-95"/>
<text text-anchor="start" x="553" y="-116" font-family="Helvetica,sans-Serif" font-size="10.00">UBFeaturesWidget::delete</text>
<text text-anchor="middle" x="611" y="-103" font-family="Helvetica,sans-Serif" font-size="10.00">SelectedElements</text>
</a>
</g>
<!-- Node3&#45;&gt;Node6 -->
<g id="edge10" class="edge"><title>Node3&#45;&gt;Node6</title>
<path fill="none" stroke="midnightblue" d="M502.849,-110.757C516.561,-110.914 531.019,-111.081 544.746,-111.238"/>
<polygon fill="midnightblue" stroke="midnightblue" points="502.573,-107.254 492.533,-110.638 502.492,-114.253 502.573,-107.254"/>
</g>
<!-- Node5 -->
<g id="node9" class="node"><title>Node5</title>
<a xlink:href="../../d5/d85/class_u_b_features_widget.html#a8afc3d83bd8b57f0260c1269f63b435a" target="_top" xlink:title="UBFeaturesWidget::UBFeatures\lWidget">
<polygon fill="white" stroke="black" points="716,-69 716,-103 874,-103 874,-69 716,-69"/>
<text text-anchor="start" x="724" y="-90" font-family="Helvetica,sans-Serif" font-size="10.00">UBFeaturesWidget::UBFeatures</text>
<text text-anchor="middle" x="795" y="-77" font-family="Helvetica,sans-Serif" font-size="10.00">Widget</text>
</a>
</g>
<!-- Node4&#45;&gt;Node5 -->
<g id="edge8" class="edge"><title>Node4&#45;&gt;Node5</title>
<path fill="none" stroke="midnightblue" d="M667.129,-143.196C671.497,-141.471 675.829,-139.727 680,-138 706.622,-126.979 736.238,-113.559 758.748,-103.114"/>
<polygon fill="midnightblue" stroke="midnightblue" points="665.603,-140.034 657.555,-146.924 668.144,-146.557 665.603,-140.034"/>
</g>
<!-- Node6&#45;&gt;Node5 -->
<g id="edge12" class="edge"><title>Node6&#45;&gt;Node5</title>
<path fill="none" stroke="midnightblue" d="M687.313,-101.217C696.763,-99.8813 706.44,-98.5139 715.93,-97.173"/>
<polygon fill="midnightblue" stroke="midnightblue" points="686.58,-97.7853 677.168,-102.65 687.56,-104.716 686.58,-97.7853"/>
</g>
<!-- Node7&#45;&gt;Node5 -->
<g id="edge16" class="edge"><title>Node7&#45;&gt;Node5</title>
<path fill="none" stroke="midnightblue" d="M690.041,-71.1688C698.637,-72.3835 707.388,-73.62 715.984,-74.8347"/>
<polygon fill="midnightblue" stroke="midnightblue" points="690.43,-67.6891 680.038,-69.7554 689.45,-74.6202 690.43,-67.6891"/>
</g>
<!-- Node8&#45;&gt;Node5 -->
<g id="edge20" class="edge"><title>Node8&#45;&gt;Node5</title>
<path fill="none" stroke="midnightblue" d="M516.136,-15.5087C564.195,-16.3262 626.406,-20.4719 680,-34 710.168,-41.6149 742.251,-56.7813 764.843,-68.7788"/>
<polygon fill="midnightblue" stroke="midnightblue" points="516.147,-12.0087 506.104,-15.3826 516.059,-19.0081 516.147,-12.0087"/>
</g>
</g>
</svg>
        <g id="navigator" transform="translate(0 0)" fill="#404254">
                <rect fill="#f2f5e9" fill-opacity="0.5" stroke="#606060" stroke-width=".5" x="0" y="0" width="60" height="60"/>
                <use id="zoomplus" xlink:href="#zoomPlus" x="17" y="9" onmousedown="handleZoom(evt,'in')"/>
                <use id="zoomminus" xlink:href="#zoomMin" x="42" y="9" onmousedown="handleZoom(evt,'out')"/>
                <use id="reset" xlink:href="#resetDef" x="30" y="36" onmousedown="handleReset()"/>
                <g id="arrowUp" xlink:href="#dirArrow" transform="translate(30 24)" onmousedown="handlePan(0,-1)">
                  <use xlink:href="#rim" fill="#404040">
                        <set attributeName="fill" to="#808080" begin="arrowUp.mouseover" end="arrowUp.mouseout"/>
                  </use>
                  <path fill="none" stroke="white" stroke-width="1.5" d="M0,-3.0v7 M-2.5,-0.5L0,-3.0L2.5,-0.5"/>
                </g>
                <g id="arrowRight" xlink:href="#dirArrow" transform="rotate(90) translate(36 -43)" onmousedown="handlePan(1,0)">
                  <use xlink:href="#rim" fill="#404040">
                        <set attributeName="fill" to="#808080" begin="arrowRight.mouseover" end="arrowRight.mouseout"/>
                  </use>
                  <path fill="none" stroke="white" stroke-width="1.5" d="M0,-3.0v7 M-2.5,-0.5L0,-3.0L2.5,-0.5"/>
                </g>
                <g id="arrowDown" xlink:href="#dirArrow" transform="rotate(180) translate(-30 -48)" onmousedown="handlePan(0,1)">
                  <use xlink:href="#rim" fill="#404040">
                        <set attributeName="fill" to="#808080" begin="arrowDown.mouseover" end="arrowDown.mouseout"/>
                  </use>
                  <path fill="none" stroke="white" stroke-width="1.5" d="M0,-3.0v7 M-2.5,-0.5L0,-3.0L2.5,-0.5"/>
                </g>
                <g id="arrowLeft" xlink:href="#dirArrow" transform="rotate(270) translate(-36 17)" onmousedown="handlePan(-1,0)">
                  <use xlink:href="#rim" fill="#404040">
                        <set attributeName="fill" to="#808080" begin="arrowLeft.mouseover" end="arrowLeft.mouseout"/>
                  </use>
                  <path fill="none" stroke="white" stroke-width="1.5" d="M0,-3.0v7 M-2.5,-0.5L0,-3.0L2.5,-0.5"/>
                </g>
        </g>
        <svg viewBox="0 0 15 15" width="100%" height="30px" preserveAspectRatio="xMaxYMin meet">
         <g id="arrow_out" transform="scale(0.3 0.3)">
          <a xlink:href="class_u_b_features_model_a4f5b07854d8eb551451e6e1c591fcd52_icgraph_org.svg" target="_base">
           <rect id="button" ry="5" rx="5" y="6" x="6" height="38" width="38"
                fill="#f2f5e9" fill-opacity="0.5" stroke="#606060" stroke-width="1.0"/>
           <path id="arrow"
             d="M 11.500037,31.436501 C 11.940474,20.09759 22.043105,11.32322 32.158766,21.979434 L 37.068811,17.246167 C 37.068811,17.246167 37.088388,32 37.088388,32 L 22.160133,31.978069 C 22.160133,31.978069 26.997745,27.140456 26.997745,27.140456 C 18.528582,18.264221 13.291696,25.230495 11.500037,31.436501 z"
             style="fill:#404040;"/>
          </a>
         </g>
        </svg>
</svg>
