<?xml version="1.0" encoding="UTF-8" standalone="no"?>
<!DOCTYPE svg PUBLIC "-//W3C//DTD SVG 1.1//EN"
 "http://www.w3.org/Graphics/SVG/1.1/DTD/svg11.dtd">
<!-- Generated by graphviz version 2.26.3 (20100126.1600)
 -->
<!-- Title: UBAbstractDrawRuler.h Pages: 1 -->
<!--zoomable 146 -->
<svg id="main" version="1.1" xmlns="http://www.w3.org/2000/svg" xmlns:xlink="http://www.w3.org/1999/xlink" xml:space="preserve" onload="init(evt)">
        <defs>
                <circle id="rim" cx="0" cy="0" r="7"/>
                <circle id="rim2" cx="0" cy="0" r="3.5"/>
                <g id="zoomPlus">
                        <use xlink:href="#rim" fill="#404040">
                                <set attributeName="fill" to="#808080" begin="zoomplus.mouseover" end="zoomplus.mouseout"/>
                        </use>
                        <path d="M-4,0h8M0,-4v8" fill="none" stroke="white" stroke-width="1.5" pointer-events="none"/>
                </g>
                <g id="zoomMin">
                        <use xlink:href="#rim" fill="#404040">
                                <set attributeName="fill" to="#808080" begin="zoomminus.mouseover" end="zoomminus.mouseout"/>
                        </use>
                        <path d="M-4,0h8" fill="none" stroke="white" stroke-width="1.5" pointer-events="none"/>
                </g>
                <g id="dirArrow">
                        <path fill="none" stroke="white" stroke-width="1.5" d="M0,-3.0v7 M-2.5,-0.5L0,-3.0L2.5,-0.5"/>
                </g>
               <g id="resetDef">
                       <use xlink:href="#rim2" fill="#404040">
                               <set attributeName="fill" to="#808080" begin="reset.mouseover" end="reset.mouseout"/>
                       </use>
               </g>
        </defs>

<script type="text/javascript">
var viewWidth = 936;
var viewHeight = 146;
var sectionId = 'dynsection-1';
</script>
<script xlink:href="../../svgpan.js"/>
<svg id="graph" class="graph">
<g id="viewport">
<title>UBAbstractDrawRuler.h</title>
<polygon fill="white" stroke="white" points="-4,5 -4,-142 933,-142 933,5 -4,5"/>
<!-- Node1 -->
<g id="node1" class="node"><title>Node1</title>
<polygon fill="#bfbfbf" stroke="black" points="368,-116.5 368,-137.5 490,-137.5 490,-116.5 368,-116.5"/>
<text text-anchor="middle" x="429" y="-124.5" font-family="Helvetica,sans-Serif" font-size="10.00">UBAbstractDrawRuler.h</text>
</g>
<!-- Node2 -->
<g id="node3" class="node"><title>Node2</title>
<a xlink:href="../../d7/df9/_u_b_abstract_draw_ruler_8cpp.html" target="_top" xlink:title="UBAbstractDrawRuler.cpp">
<polygon fill="white" stroke="black" points="44.5,-58.5 44.5,-79.5 177.5,-79.5 177.5,-58.5 44.5,-58.5"/>
<text text-anchor="middle" x="111" y="-66.5" font-family="Helvetica,sans-Serif" font-size="10.00">UBAbstractDrawRuler.cpp</text>
</a>
</g>
<!-- Node1&#45;&gt;Node2 -->
<g id="edge2" class="edge"><title>Node1&#45;&gt;Node2</title>
<path fill="none" stroke="midnightblue" d="M361.369,-114.665C304.113,-104.222 222.93,-89.415 168.695,-79.5231"/>
<polygon fill="midnightblue" stroke="midnightblue" points="360.947,-118.145 371.413,-116.497 362.203,-111.259 360.947,-118.145"/>
</g>
<!-- Node3 -->
<g id="node5" class="node"><title>Node3</title>
<a xlink:href="../../d9/d02/_u_b_graphics_aristo_8h.html" target="_top" xlink:title="UBGraphicsAristo.h">
<polygon fill="white" stroke="black" points="195,-58.5 195,-79.5 299,-79.5 299,-58.5 195,-58.5"/>
<text text-anchor="middle" x="247" y="-66.5" font-family="Helvetica,sans-Serif" font-size="10.00">UBGraphicsAristo.h</text>
</a>
</g>
<!-- Node1&#45;&gt;Node3 -->
<g id="edge4" class="edge"><title>Node1&#45;&gt;Node3</title>
<path fill="none" stroke="midnightblue" d="M386.364,-113.413C353.892,-103.065 309.84,-89.0258 280.021,-79.5231"/>
<polygon fill="midnightblue" stroke="midnightblue" points="385.451,-116.795 396.041,-116.497 387.576,-110.125 385.451,-116.795"/>
</g>
<!-- Node7 -->
<g id="node13" class="node"><title>Node7</title>
<a xlink:href="../../d1/d1b/_u_b_graphics_protractor_8h.html" target="_top" xlink:title="UBGraphicsProtractor.h">
<polygon fill="white" stroke="black" points="564.5,-58.5 564.5,-79.5 685.5,-79.5 685.5,-58.5 564.5,-58.5"/>
<text text-anchor="middle" x="625" y="-66.5" font-family="Helvetica,sans-Serif" font-size="10.00">UBGraphicsProtractor.h</text>
</a>
</g>
<!-- Node1&#45;&gt;Node7 -->
<g id="edge12" class="edge"><title>Node1&#45;&gt;Node7</title>
<path fill="none" stroke="midnightblue" d="M474.464,-113.546C509.476,-103.186 557.188,-89.0668 589.439,-79.5231"/>
<polygon fill="midnightblue" stroke="midnightblue" points="473.09,-110.303 464.494,-116.497 475.076,-117.015 473.09,-110.303"/>
</g>
<!-- Node9 -->
<g id="node19" class="node"><title>Node9</title>
<a xlink:href="../../d0/dfe/_u_b_graphics_protractor_8cpp.html" target="_top" xlink:title="UBGraphicsProtractor.cpp">
<polygon fill="white" stroke="black" points="797.5,-0.5 797.5,-21.5 928.5,-21.5 928.5,-0.5 797.5,-0.5"/>
<text text-anchor="middle" x="863" y="-8.5" font-family="Helvetica,sans-Serif" font-size="10.00">UBGraphicsProtractor.cpp</text>
</a>
</g>
<!-- Node1&#45;&gt;Node9 -->
<g id="edge22" class="edge"><title>Node1&#45;&gt;Node9</title>
<path fill="none" stroke="midnightblue" d="M500.232,-118.542C554.122,-111.144 629.59,-98.6317 694,-80 748.646,-64.1928 809.747,-36.6294 841.385,-21.5676"/>
<polygon fill="midnightblue" stroke="midnightblue" points="499.533,-115.105 490.091,-119.909 500.469,-122.042 499.533,-115.105"/>
</g>
<!-- Node10 -->
<g id="node22" class="node"><title>Node10</title>
<a xlink:href="../../d4/d5a/_u_b_graphics_ruler_8h.html" target="_top" xlink:title="UBGraphicsRuler.h">
<polygon fill="white" stroke="black" points="316.5,-58.5 316.5,-79.5 417.5,-79.5 417.5,-58.5 316.5,-58.5"/>
<text text-anchor="middle" x="367" y="-66.5" font-family="Helvetica,sans-Serif" font-size="10.00">UBGraphicsRuler.h</text>
</a>
</g>
<!-- Node1&#45;&gt;Node10 -->
<g id="edge24" class="edge"><title>Node1&#45;&gt;Node10</title>
<path fill="none" stroke="midnightblue" d="M410.192,-109.405C399.783,-99.6683 387.194,-87.8914 378.3,-79.5707"/>
<polygon fill="midnightblue" stroke="midnightblue" points="407.934,-112.086 417.628,-116.362 412.717,-106.974 407.934,-112.086"/>
</g>
<!-- Node12 -->
<g id="node29" class="node"><title>Node12</title>
<a xlink:href="../../dc/dd6/_u_b_graphics_triangle_8h.html" target="_top" xlink:title="UBGraphicsTriangle.h">
<polygon fill="white" stroke="black" points="434.5,-58.5 434.5,-79.5 547.5,-79.5 547.5,-58.5 434.5,-58.5"/>
<text text-anchor="middle" x="491" y="-66.5" font-family="Helvetica,sans-Serif" font-size="10.00">UBGraphicsTriangle.h</text>
</a>
</g>
<!-- Node1&#45;&gt;Node12 -->
<g id="edge34" class="edge"><title>Node1&#45;&gt;Node12</title>
<path fill="none" stroke="midnightblue" d="M447.808,-109.405C458.217,-99.6683 470.806,-87.8914 479.7,-79.5707"/>
<polygon fill="midnightblue" stroke="midnightblue" points="445.283,-106.974 440.372,-116.362 450.066,-112.086 445.283,-106.974"/>
</g>
<!-- Node4 -->
<g id="node7" class="node"><title>Node4</title>
<a xlink:href="../../d4/dc1/_u_b_board_view_8cpp.html" target="_top" xlink:title="UBBoardView.cpp">
<polygon fill="white" stroke="black" points="261.5,-0.5 261.5,-21.5 358.5,-21.5 358.5,-0.5 261.5,-0.5"/>
<text text-anchor="middle" x="310" y="-8.5" font-family="Helvetica,sans-Serif" font-size="10.00">UBBoardView.cpp</text>
</a>
</g>
<!-- Node3&#45;&gt;Node4 -->
<g id="edge6" class="edge"><title>Node3&#45;&gt;Node4</title>
<path fill="none" stroke="midnightblue" d="M266.112,-51.405C276.688,-41.6683 289.48,-29.8914 298.518,-21.5707"/>
<polygon fill="midnightblue" stroke="midnightblue" points="263.542,-49.0138 258.555,-58.3619 268.283,-54.1637 263.542,-49.0138"/>
</g>
<!-- Node5 -->
<g id="node9" class="node"><title>Node5</title>
<a xlink:href="../../d5/de9/_u_b_graphics_scene_8cpp.html" target="_top" xlink:title="UBGraphicsScene.cpp">
<polygon fill="white" stroke="black" points="376,-0.5 376,-21.5 492,-21.5 492,-0.5 376,-0.5"/>
<text text-anchor="middle" x="434" y="-8.5" font-family="Helvetica,sans-Serif" font-size="10.00">UBGraphicsScene.cpp</text>
</a>
</g>
<!-- Node3&#45;&gt;Node5 -->
<g id="edge8" class="edge"><title>Node3&#45;&gt;Node5</title>
<path fill="none" stroke="midnightblue" d="M290.807,-55.4127C324.171,-45.0646 369.434,-31.0258 400.072,-21.5231"/>
<polygon fill="midnightblue" stroke="midnightblue" points="289.379,-52.1913 280.864,-58.4966 291.452,-58.8771 289.379,-52.1913"/>
</g>
<!-- Node6 -->
<g id="node11" class="node"><title>Node6</title>
<a xlink:href="../../d1/df7/_u_b_graphics_aristo_8cpp.html" target="_top" xlink:title="UBGraphicsAristo.cpp">
<polygon fill="white" stroke="black" points="0,-0.5 0,-21.5 114,-21.5 114,-0.5 0,-0.5"/>
<text text-anchor="middle" x="57" y="-8.5" font-family="Helvetica,sans-Serif" font-size="10.00">UBGraphicsAristo.cpp</text>
</a>
</g>
<!-- Node3&#45;&gt;Node6 -->
<g id="edge10" class="edge"><title>Node3&#45;&gt;Node6</title>
<path fill="none" stroke="midnightblue" d="M202.928,-55.5464C168.988,-45.1857 122.736,-31.0668 91.4721,-21.5231"/>
<polygon fill="midnightblue" stroke="midnightblue" points="202.006,-58.9244 212.592,-58.4966 204.05,-52.2294 202.006,-58.9244"/>
</g>
<!-- Node7&#45;&gt;Node4 -->
<g id="edge16" class="edge"><title>Node7&#45;&gt;Node4</title>
<path fill="none" stroke="midnightblue" d="M556.197,-56.6677C504.202,-47.2991 431.081,-34.0198 367,-22 364.226,-21.4798 361.378,-20.9417 358.503,-20.396"/>
<polygon fill="midnightblue" stroke="midnightblue" points="555.843,-60.1602 566.305,-58.4877 557.084,-53.271 555.843,-60.1602"/>
</g>
<!-- Node7&#45;&gt;Node5 -->
<g id="edge18" class="edge"><title>Node7&#45;&gt;Node5</title>
<path fill="none" stroke="midnightblue" d="M580.696,-55.5464C546.577,-45.1857 500.082,-31.0668 468.654,-21.5231"/>
<polygon fill="midnightblue" stroke="midnightblue" points="579.826,-58.9399 590.411,-58.4966 581.86,-52.2419 579.826,-58.9399"/>
</g>
<!-- Node8 -->
<g id="node15" class="node"><title>Node8</title>
<a xlink:href="../../dd/dc8/_u_b_svg_subset_adaptor_8cpp.html" target="_top" xlink:title="UBSvgSubsetAdaptor.cpp">
<polygon fill="white" stroke="black" points="509.5,-0.5 509.5,-21.5 640.5,-21.5 640.5,-0.5 509.5,-0.5"/>
<text text-anchor="middle" x="575" y="-8.5" font-family="Helvetica,sans-Serif" font-size="10.00">UBSvgSubsetAdaptor.cpp</text>
</a>
</g>
<!-- Node7&#45;&gt;Node8 -->
<g id="edge14" class="edge"><title>Node7&#45;&gt;Node8</title>
<path fill="none" stroke="midnightblue" d="M609.087,-50.5407C600.844,-40.9786 591.075,-29.6467 584.113,-21.5707"/>
<polygon fill="midnightblue" stroke="midnightblue" points="606.649,-53.0731 615.829,-58.3619 611.951,-48.5025 606.649,-53.0731"/>
</g>
<!-- Node7&#45;&gt;Node9 -->
<g id="edge20" class="edge"><title>Node7&#45;&gt;Node9</title>
<path fill="none" stroke="midnightblue" d="M678.031,-56.0766C720.726,-45.6718 779.985,-31.2306 819.819,-21.5231"/>
<polygon fill="midnightblue" stroke="midnightblue" points="676.987,-52.7284 668.1,-58.4966 678.644,-59.5294 676.987,-52.7284"/>
</g>
<!-- Node10&#45;&gt;Node4 -->
<g id="edge28" class="edge"><title>Node10&#45;&gt;Node4</title>
<path fill="none" stroke="midnightblue" d="M349.426,-51.118C339.913,-41.4377 328.486,-29.8098 320.388,-21.5707"/>
<polygon fill="midnightblue" stroke="midnightblue" points="347.04,-53.6829 356.545,-58.3619 352.032,-48.7763 347.04,-53.6829"/>
</g>
<!-- Node10&#45;&gt;Node5 -->
<g id="edge30" class="edge"><title>Node10&#45;&gt;Node5</title>
<path fill="none" stroke="midnightblue" d="M386.995,-51.6908C398.306,-41.8996 412.083,-29.973 421.789,-21.5707"/>
<polygon fill="midnightblue" stroke="midnightblue" points="384.559,-49.1706 379.289,-58.3619 389.14,-54.4631 384.559,-49.1706"/>
</g>
<!-- Node10&#45;&gt;Node8 -->
<g id="edge26" class="edge"><title>Node10&#45;&gt;Node8</title>
<path fill="none" stroke="midnightblue" d="M414.77,-55.6795C451.968,-45.307 502.889,-31.1078 537.262,-21.5231"/>
<polygon fill="midnightblue" stroke="midnightblue" points="413.36,-52.4392 404.667,-58.4966 415.24,-59.182 413.36,-52.4392"/>
</g>
<!-- Node11 -->
<g id="node27" class="node"><title>Node11</title>
<a xlink:href="../../db/dcd/_u_b_graphics_ruler_8cpp.html" target="_top" xlink:title="UBGraphicsRuler.cpp">
<polygon fill="white" stroke="black" points="132,-0.5 132,-21.5 244,-21.5 244,-0.5 132,-0.5"/>
<text text-anchor="middle" x="188" y="-8.5" font-family="Helvetica,sans-Serif" font-size="10.00">UBGraphicsRuler.cpp</text>
</a>
</g>
<!-- Node10&#45;&gt;Node11 -->
<g id="edge32" class="edge"><title>Node10&#45;&gt;Node11</title>
<path fill="none" stroke="midnightblue" d="M325.067,-55.4127C293.13,-45.0646 249.804,-31.0258 220.476,-21.5231"/>
<polygon fill="midnightblue" stroke="midnightblue" points="323.992,-58.7437 334.584,-58.4966 326.15,-52.0845 323.992,-58.7437"/>
</g>
<!-- Node12&#45;&gt;Node4 -->
<g id="edge38" class="edge"><title>Node12&#45;&gt;Node4</title>
<path fill="none" stroke="midnightblue" d="M448.598,-55.4127C416.305,-45.0646 372.494,-31.0258 342.839,-21.5231"/>
<polygon fill="midnightblue" stroke="midnightblue" points="447.631,-58.7781 458.222,-58.4966 449.767,-52.1119 447.631,-58.7781"/>
</g>
<!-- Node12&#45;&gt;Node5 -->
<g id="edge40" class="edge"><title>Node12&#45;&gt;Node5</title>
<path fill="none" stroke="midnightblue" d="M473.426,-51.118C463.913,-41.4377 452.486,-29.8098 444.388,-21.5707"/>
<polygon fill="midnightblue" stroke="midnightblue" points="471.04,-53.6829 480.545,-58.3619 476.032,-48.7763 471.04,-53.6829"/>
</g>
<!-- Node12&#45;&gt;Node8 -->
<g id="edge36" class="edge"><title>Node12&#45;&gt;Node8</title>
<path fill="none" stroke="midnightblue" d="M514.838,-52.5407C529.238,-42.5973 547.167,-30.2177 559.691,-21.5707"/>
<polygon fill="midnightblue" stroke="midnightblue" points="512.647,-49.7998 506.407,-58.3619 516.625,-55.5601 512.647,-49.7998"/>
</g>
<!-- Node13 -->
<g id="node34" class="node"><title>Node13</title>
<a xlink:href="../../d8/d57/_u_b_graphics_triangle_8cpp.html" target="_top" xlink:title="UBGraphicsTriangle.cpp">
<polygon fill="white" stroke="black" points="657.5,-0.5 657.5,-21.5 780.5,-21.5 780.5,-0.5 657.5,-0.5"/>
<text text-anchor="middle" x="719" y="-8.5" font-family="Helvetica,sans-Serif" font-size="10.00">UBGraphicsTriangle.cpp</text>
</a>
</g>
<!-- Node12&#45;&gt;Node13 -->
<g id="edge42" class="edge"><title>Node12&#45;&gt;Node13</title>
<path fill="none" stroke="midnightblue" d="M542.061,-56.0107C582.943,-45.6109 639.553,-31.2102 677.633,-21.5231"/>
<polygon fill="midnightblue" stroke="midnightblue" points="541.118,-52.6393 532.289,-58.4966 542.843,-59.4232 541.118,-52.6393"/>
</g>
</g>
</svg>
        <g id="navigator" transform="translate(0 0)" fill="#404254">
                <rect fill="#f2f5e9" fill-opacity="0.5" stroke="#606060" stroke-width=".5" x="0" y="0" width="60" height="60"/>
                <use id="zoomplus" xlink:href="#zoomPlus" x="17" y="9" onmousedown="handleZoom(evt,'in')"/>
                <use id="zoomminus" xlink:href="#zoomMin" x="42" y="9" onmousedown="handleZoom(evt,'out')"/>
                <use id="reset" xlink:href="#resetDef" x="30" y="36" onmousedown="handleReset()"/>
                <g id="arrowUp" xlink:href="#dirArrow" transform="translate(30 24)" onmousedown="handlePan(0,-1)">
                  <use xlink:href="#rim" fill="#404040">
                        <set attributeName="fill" to="#808080" begin="arrowUp.mouseover" end="arrowUp.mouseout"/>
                  </use>
                  <path fill="none" stroke="white" stroke-width="1.5" d="M0,-3.0v7 M-2.5,-0.5L0,-3.0L2.5,-0.5"/>
                </g>
                <g id="arrowRight" xlink:href="#dirArrow" transform="rotate(90) translate(36 -43)" onmousedown="handlePan(1,0)">
                  <use xlink:href="#rim" fill="#404040">
                        <set attributeName="fill" to="#808080" begin="arrowRight.mouseover" end="arrowRight.mouseout"/>
                  </use>
                  <path fill="none" stroke="white" stroke-width="1.5" d="M0,-3.0v7 M-2.5,-0.5L0,-3.0L2.5,-0.5"/>
                </g>
                <g id="arrowDown" xlink:href="#dirArrow" transform="rotate(180) translate(-30 -48)" onmousedown="handlePan(0,1)">
                  <use xlink:href="#rim" fill="#404040">
                        <set attributeName="fill" to="#808080" begin="arrowDown.mouseover" end="arrowDown.mouseout"/>
                  </use>
                  <path fill="none" stroke="white" stroke-width="1.5" d="M0,-3.0v7 M-2.5,-0.5L0,-3.0L2.5,-0.5"/>
                </g>
                <g id="arrowLeft" xlink:href="#dirArrow" transform="rotate(270) translate(-36 17)" onmousedown="handlePan(-1,0)">
                  <use xlink:href="#rim" fill="#404040">
                        <set attributeName="fill" to="#808080" begin="arrowLeft.mouseover" end="arrowLeft.mouseout"/>
                  </use>
                  <path fill="none" stroke="white" stroke-width="1.5" d="M0,-3.0v7 M-2.5,-0.5L0,-3.0L2.5,-0.5"/>
                </g>
        </g>
        <svg viewBox="0 0 15 15" width="100%" height="30px" preserveAspectRatio="xMaxYMin meet">
         <g id="arrow_out" transform="scale(0.3 0.3)">
          <a xlink:href="_u_b_abstract_draw_ruler_8h__dep__incl_org.svg" target="_base">
           <rect id="button" ry="5" rx="5" y="6" x="6" height="38" width="38"
                fill="#f2f5e9" fill-opacity="0.5" stroke="#606060" stroke-width="1.0"/>
           <path id="arrow"
             d="M 11.500037,31.436501 C 11.940474,20.09759 22.043105,11.32322 32.158766,21.979434 L 37.068811,17.246167 C 37.068811,17.246167 37.088388,32 37.088388,32 L 22.160133,31.978069 C 22.160133,31.978069 26.997745,27.140456 26.997745,27.140456 C 18.528582,18.264221 13.291696,25.230495 11.500037,31.436501 z"
             style="fill:#404040;"/>
          </a>
         </g>
        </svg>
</svg>
