<?xml version="1.0" encoding="UTF-8" standalone="no"?>
<!DOCTYPE svg PUBLIC "-//W3C//DTD SVG 1.1//EN"
 "http://www.w3.org/Graphics/SVG/1.1/DTD/svg11.dtd">
<!-- Generated by graphviz version 2.26.3 (20100126.1600)
 -->
<!-- Title: UBWebToolsPalette.h Pages: 1 -->
<svg width="306pt" height="204pt"
 viewBox="0.00 0.00 306.00 204.00" xmlns="http://www.w3.org/2000/svg" xmlns:xlink="http://www.w3.org/1999/xlink">
<g id="graph1" class="graph" transform="scale(1 1) rotate(0) translate(4 200)">
<title>UBWebToolsPalette.h</title>
<polygon fill="white" stroke="white" points="-4,5 -4,-200 303,-200 303,5 -4,5"/>
<!-- Node1 -->
<g id="node1" class="node"><title>Node1</title>
<polygon fill="#bfbfbf" stroke="black" points="46,-174.5 46,-195.5 160,-195.5 160,-174.5 46,-174.5"/>
<text text-anchor="middle" x="103" y="-182.5" font-family="Helvetica,sans-Serif" font-size="10.00">UBWebToolsPalette.h</text>
</g>
<!-- Node2 -->
<g id="node3" class="node"><title>Node2</title>
<a xlink:href="../../d9/d91/_u_b_action_palette_8h.html" target="_top" xlink:title="UBActionPalette.h">
<polygon fill="white" stroke="black" points="54,-116.5 54,-137.5 152,-137.5 152,-116.5 54,-116.5"/>
<text text-anchor="middle" x="103" y="-124.5" font-family="Helvetica,sans-Serif" font-size="10.00">UBActionPalette.h</text>
</a>
</g>
<!-- Node1&#45;&gt;Node2 -->
<g id="edge2" class="edge"><title>Node1&#45;&gt;Node2</title>
<path fill="none" stroke="midnightblue" d="M103,-174.362C103,-166.922 103,-156.743 103,-147.728"/>
<polygon fill="midnightblue" stroke="midnightblue" points="106.5,-147.571 103,-137.571 99.5001,-147.571 106.5,-147.571"/>
</g>
<!-- Node3 -->
<g id="node5" class="node"><title>Node3</title>
<polygon fill="white" stroke="#bfbfbf" points="0,-58.5 0,-79.5 42,-79.5 42,-58.5 0,-58.5"/>
<text text-anchor="middle" x="21" y="-66.5" font-family="Helvetica,sans-Serif" font-size="10.00">QtGui</text>
</g>
<!-- Node2&#45;&gt;Node3 -->
<g id="edge4" class="edge"><title>Node2&#45;&gt;Node3</title>
<path fill="none" stroke="midnightblue" d="M87.9599,-116.362C75.7075,-107.696 58.2005,-95.3126 44.1606,-85.3819"/>
<polygon fill="midnightblue" stroke="midnightblue" points="46.13,-82.4879 35.9447,-79.5707 42.0877,-88.2028 46.13,-82.4879"/>
</g>
<!-- Node4 -->
<g id="node7" class="node"><title>Node4</title>
<polygon fill="white" stroke="#bfbfbf" points="100.5,-0.5 100.5,-21.5 147.5,-21.5 147.5,-0.5 100.5,-0.5"/>
<text text-anchor="middle" x="124" y="-8.5" font-family="Helvetica,sans-Serif" font-size="10.00">QPoint</text>
</g>
<!-- Node2&#45;&gt;Node4 -->
<g id="edge6" class="edge"><title>Node2&#45;&gt;Node4</title>
<path fill="none" stroke="midnightblue" d="M97.3308,-116.034C90.9792,-102.244 82.3857,-77.9564 89,-58 92.4683,-47.5357 99.2712,-37.5092 105.964,-29.4248"/>
<polygon fill="midnightblue" stroke="midnightblue" points="108.74,-31.5704 112.755,-21.7661 103.502,-26.9263 108.74,-31.5704"/>
</g>
<!-- Node5 -->
<g id="node9" class="node"><title>Node5</title>
<polygon fill="white" stroke="#bfbfbf" points="97.5,-58.5 97.5,-79.5 176.5,-79.5 176.5,-58.5 97.5,-58.5"/>
<text text-anchor="middle" x="137" y="-66.5" font-family="Helvetica,sans-Serif" font-size="10.00">QButtonGroup</text>
</g>
<!-- Node2&#45;&gt;Node5 -->
<g id="edge8" class="edge"><title>Node2&#45;&gt;Node5</title>
<path fill="none" stroke="midnightblue" d="M109.236,-116.362C113.837,-108.513 120.225,-97.6159 125.714,-88.2527"/>
<polygon fill="midnightblue" stroke="midnightblue" points="128.766,-89.9677 130.803,-79.5707 122.727,-86.4276 128.766,-89.9677"/>
</g>
<!-- Node6 -->
<g id="node11" class="node"><title>Node6</title>
<a xlink:href="../../d5/d6f/_u_b_floating_palette_8h.html" target="_top" xlink:title="UBFloatingPalette.h">
<polygon fill="white" stroke="black" points="194,-58.5 194,-79.5 298,-79.5 298,-58.5 194,-58.5"/>
<text text-anchor="middle" x="246" y="-66.5" font-family="Helvetica,sans-Serif" font-size="10.00">UBFloatingPalette.h</text>
</a>
</g>
<!-- Node2&#45;&gt;Node6 -->
<g id="edge10" class="edge"><title>Node2&#45;&gt;Node6</title>
<path fill="none" stroke="midnightblue" d="M128.896,-116.497C151.633,-107.275 184.93,-93.7695 210.212,-83.5153"/>
<polygon fill="midnightblue" stroke="midnightblue" points="211.862,-86.6232 219.813,-79.6212 209.231,-80.1365 211.862,-86.6232"/>
</g>
<!-- Node6&#45;&gt;Node4 -->
<g id="edge14" class="edge"><title>Node6&#45;&gt;Node4</title>
<path fill="none" stroke="midnightblue" d="M223.907,-58.4966C204.766,-49.397 176.854,-36.1273 155.395,-25.9253"/>
<polygon fill="midnightblue" stroke="midnightblue" points="156.875,-22.7539 146.341,-21.6212 153.87,-29.0758 156.875,-22.7539"/>
</g>
<!-- Node7 -->
<g id="node13" class="node"><title>Node7</title>
<polygon fill="white" stroke="#bfbfbf" points="218.5,-0.5 218.5,-21.5 273.5,-21.5 273.5,-0.5 218.5,-0.5"/>
<text text-anchor="middle" x="246" y="-8.5" font-family="Helvetica,sans-Serif" font-size="10.00">QWidget</text>
</g>
<!-- Node6&#45;&gt;Node7 -->
<g id="edge12" class="edge"><title>Node6&#45;&gt;Node7</title>
<path fill="none" stroke="midnightblue" d="M246,-58.3619C246,-50.9219 246,-40.7427 246,-31.7276"/>
<polygon fill="midnightblue" stroke="midnightblue" points="249.5,-31.5706 246,-21.5707 242.5,-31.5707 249.5,-31.5706"/>
</g>
</g>
</svg>
