<?xml version="1.0" encoding="UTF-8" standalone="no"?>
<!DOCTYPE svg PUBLIC "-//W3C//DTD SVG 1.1//EN"
 "http://www.w3.org/Graphics/SVG/1.1/DTD/svg11.dtd">
<!-- Generated by graphviz version 2.26.3 (20100126.1600)
 -->
<!-- Title: UBGraphicsTextItem::resize Pages: 1 -->
<svg width="632pt" height="226pt"
 viewBox="0.00 0.00 632.00 226.00" xmlns="http://www.w3.org/2000/svg" xmlns:xlink="http://www.w3.org/1999/xlink">
<g id="graph1" class="graph" transform="scale(1 1) rotate(0) translate(4 222)">
<title>UBGraphicsTextItem::resize</title>
<polygon fill="white" stroke="white" points="-4,5 -4,-222 629,-222 629,5 -4,5"/>
<!-- Node1 -->
<g id="node1" class="node"><title>Node1</title>
<polygon fill="#bfbfbf" stroke="black" points="0.5,-81 0.5,-115 109.5,-115 109.5,-81 0.5,-81"/>
<text text-anchor="start" x="8.5" y="-102" font-family="Helvetica,sans-Serif" font-size="10.00">UBGraphicsTextItem</text>
<text text-anchor="middle" x="55" y="-89" font-family="Helvetica,sans-Serif" font-size="10.00">::resize</text>
</g>
<!-- Node2 -->
<g id="node3" class="node"><title>Node2</title>
<a xlink:href="../../de/d97/class_u_b_c_f_f_subset_adaptor_1_1_u_b_c_f_f_subset_reader.html#a79522f3e6b41feeaec622e47bef93568" target="_top" xlink:title="UBCFFSubsetAdaptor\l::UBCFFSubsetReader\l::parseSvgTextarea">
<polygon fill="white" stroke="black" points="160.5,-170.5 160.5,-217.5 279.5,-217.5 279.5,-170.5 160.5,-170.5"/>
<text text-anchor="start" x="168.5" y="-204.5" font-family="Helvetica,sans-Serif" font-size="10.00">UBCFFSubsetAdaptor</text>
<text text-anchor="start" x="168.5" y="-191.5" font-family="Helvetica,sans-Serif" font-size="10.00">::UBCFFSubsetReader</text>
<text text-anchor="middle" x="220" y="-178.5" font-family="Helvetica,sans-Serif" font-size="10.00">::parseSvgTextarea</text>
</a>
</g>
<!-- Node1&#45;&gt;Node2 -->
<g id="edge2" class="edge"><title>Node1&#45;&gt;Node2</title>
<path fill="none" stroke="midnightblue" d="M85.1077,-120.955C102.409,-133.6 124.845,-149.097 146,-161 151.762,-164.242 157.902,-167.406 164.088,-170.411"/>
<polygon fill="midnightblue" stroke="midnightblue" points="87.1776,-118.133 77.055,-115.005 83.0176,-123.762 87.1776,-118.133"/>
</g>
<!-- Node3 -->
<g id="node5" class="node"><title>Node3</title>
<a xlink:href="../../d8/d4f/class_u_b_svg_subset_adaptor_1_1_u_b_svg_subset_reader.html#a46189cc62ec8d97c8d79e9952249fae9" target="_top" xlink:title="UBSvgSubsetAdaptor\l::UBSvgSubsetReader\l::textItemFromSvg">
<polygon fill="white" stroke="black" points="162,-104.5 162,-151.5 278,-151.5 278,-104.5 162,-104.5"/>
<text text-anchor="start" x="170" y="-138.5" font-family="Helvetica,sans-Serif" font-size="10.00">UBSvgSubsetAdaptor</text>
<text text-anchor="start" x="170" y="-125.5" font-family="Helvetica,sans-Serif" font-size="10.00">::UBSvgSubsetReader</text>
<text text-anchor="middle" x="220" y="-112.5" font-family="Helvetica,sans-Serif" font-size="10.00">::textItemFromSvg</text>
</a>
</g>
<!-- Node1&#45;&gt;Node3 -->
<g id="edge4" class="edge"><title>Node1&#45;&gt;Node3</title>
<path fill="none" stroke="midnightblue" d="M119.891,-109.798C133.755,-112.319 148.314,-114.966 161.903,-117.437"/>
<polygon fill="midnightblue" stroke="midnightblue" points="120.407,-106.335 109.943,-107.99 119.155,-113.222 120.407,-106.335"/>
</g>
<!-- Node4 -->
<g id="node7" class="node"><title>Node4</title>
<a xlink:href="../../da/d65/class_u_b_graphics_text_item.html#af8e979ce1e9395d000f7b2d68d813009" target="_top" xlink:title="UBGraphicsTextItem\l::documentSizeChanged">
<polygon fill="white" stroke="black" points="158,-52 158,-86 282,-86 282,-52 158,-52"/>
<text text-anchor="start" x="166" y="-73" font-family="Helvetica,sans-Serif" font-size="10.00">UBGraphicsTextItem</text>
<text text-anchor="middle" x="220" y="-60" font-family="Helvetica,sans-Serif" font-size="10.00">::documentSizeChanged</text>
</a>
</g>
<!-- Node1&#45;&gt;Node4 -->
<g id="edge6" class="edge"><title>Node1&#45;&gt;Node4</title>
<path fill="none" stroke="midnightblue" d="M119.841,-86.6037C132.365,-84.4026 145.458,-82.1013 157.892,-79.9159"/>
<polygon fill="midnightblue" stroke="midnightblue" points="119.186,-83.1651 109.943,-88.3434 120.398,-90.0595 119.186,-83.1651"/>
</g>
<!-- Node7 -->
<g id="node13" class="node"><title>Node7</title>
<a xlink:href="../../d9/dbd/class_u_b_graphics_text_item_delegate.html#a292ce49af67835859e297876d3f68602" target="_top" xlink:title="UBGraphicsTextItemDelegate\l::pickFont">
<polygon fill="white" stroke="black" points="146,-0 146,-34 294,-34 294,-0 146,-0"/>
<text text-anchor="start" x="154" y="-21" font-family="Helvetica,sans-Serif" font-size="10.00">UBGraphicsTextItemDelegate</text>
<text text-anchor="middle" x="220" y="-8" font-family="Helvetica,sans-Serif" font-size="10.00">::pickFont</text>
</a>
</g>
<!-- Node1&#45;&gt;Node7 -->
<g id="edge12" class="edge"><title>Node1&#45;&gt;Node7</title>
<path fill="none" stroke="midnightblue" d="M88.9536,-75.19C105.68,-64.5536 126.419,-52.2366 146,-43 152.774,-39.8048 160.052,-36.7824 167.307,-34.0061"/>
<polygon fill="midnightblue" stroke="midnightblue" points="86.6135,-72.5344 80.1069,-80.896 90.4077,-78.417 86.6135,-72.5344"/>
</g>
<!-- Node5 -->
<g id="node9" class="node"><title>Node5</title>
<a xlink:href="../../da/d65/class_u_b_graphics_text_item.html#acbf06a6d840ac7b6c95950e39dcd94b9" target="_top" xlink:title="UBGraphicsTextItem\l::UBGraphicsTextItem">
<polygon fill="white" stroke="black" points="346.5,-52 346.5,-86 461.5,-86 461.5,-52 346.5,-52"/>
<text text-anchor="start" x="354.5" y="-73" font-family="Helvetica,sans-Serif" font-size="10.00">UBGraphicsTextItem</text>
<text text-anchor="middle" x="404" y="-60" font-family="Helvetica,sans-Serif" font-size="10.00">::UBGraphicsTextItem</text>
</a>
</g>
<!-- Node4&#45;&gt;Node5 -->
<g id="edge8" class="edge"><title>Node4&#45;&gt;Node5</title>
<path fill="none" stroke="midnightblue" d="M292.169,-69C310.114,-69 329.117,-69 346.266,-69"/>
<polygon fill="midnightblue" stroke="midnightblue" points="292.038,-65.5001 282.037,-69 292.037,-72.5001 292.038,-65.5001"/>
</g>
<!-- Node6 -->
<g id="node11" class="node"><title>Node6</title>
<a xlink:href="../../da/d65/class_u_b_graphics_text_item.html#a6be4507f88dccb25e1e063ec36cf6f47" target="_top" xlink:title="UBGraphicsTextItem\l::deepCopy">
<polygon fill="white" stroke="black" points="514.5,-52 514.5,-86 623.5,-86 623.5,-52 514.5,-52"/>
<text text-anchor="start" x="522.5" y="-73" font-family="Helvetica,sans-Serif" font-size="10.00">UBGraphicsTextItem</text>
<text text-anchor="middle" x="569" y="-60" font-family="Helvetica,sans-Serif" font-size="10.00">::deepCopy</text>
</a>
</g>
<!-- Node5&#45;&gt;Node6 -->
<g id="edge10" class="edge"><title>Node5&#45;&gt;Node6</title>
<path fill="none" stroke="midnightblue" d="M471.883,-69C486.032,-69 500.775,-69 514.372,-69"/>
<polygon fill="midnightblue" stroke="midnightblue" points="471.709,-65.5001 461.709,-69 471.709,-72.5001 471.709,-65.5001"/>
</g>
<!-- Node8 -->
<g id="node15" class="node"><title>Node8</title>
<a xlink:href="../../d9/dbd/class_u_b_graphics_text_item_delegate.html#aed68d84ee8c86411f7b9197a4220e18f" target="_top" xlink:title="UBGraphicsTextItemDelegate\l::buildButtons">
<polygon fill="white" stroke="black" points="330,-0 330,-34 478,-34 478,-0 330,-0"/>
<text text-anchor="start" x="338" y="-21" font-family="Helvetica,sans-Serif" font-size="10.00">UBGraphicsTextItemDelegate</text>
<text text-anchor="middle" x="404" y="-8" font-family="Helvetica,sans-Serif" font-size="10.00">::buildButtons</text>
</a>
</g>
<!-- Node7&#45;&gt;Node8 -->
<g id="edge14" class="edge"><title>Node7&#45;&gt;Node8</title>
<path fill="none" stroke="midnightblue" d="M304.066,-17C312.654,-17 321.336,-17 329.808,-17"/>
<polygon fill="midnightblue" stroke="midnightblue" points="304.045,-13.5001 294.044,-17 304.044,-20.5001 304.045,-13.5001"/>
</g>
</g>
</svg>
