<?xml version="1.0" encoding="UTF-8" standalone="no"?>
<!DOCTYPE svg PUBLIC "-//W3C//DTD SVG 1.1//EN"
 "http://www.w3.org/Graphics/SVG/1.1/DTD/svg11.dtd">
<!-- Generated by graphviz version 2.26.3 (20100126.1600)
 -->
<!-- Title: UBGraphicsTextItem::setTextHeight Pages: 1 -->
<!--zoomable 408 -->
<svg id="main" version="1.1" xmlns="http://www.w3.org/2000/svg" xmlns:xlink="http://www.w3.org/1999/xlink" xml:space="preserve" onload="init(evt)">
        <defs>
                <circle id="rim" cx="0" cy="0" r="7"/>
                <circle id="rim2" cx="0" cy="0" r="3.5"/>
                <g id="zoomPlus">
                        <use xlink:href="#rim" fill="#404040">
                                <set attributeName="fill" to="#808080" begin="zoomplus.mouseover" end="zoomplus.mouseout"/>
                        </use>
                        <path d="M-4,0h8M0,-4v8" fill="none" stroke="white" stroke-width="1.5" pointer-events="none"/>
                </g>
                <g id="zoomMin">
                        <use xlink:href="#rim" fill="#404040">
                                <set attributeName="fill" to="#808080" begin="zoomminus.mouseover" end="zoomminus.mouseout"/>
                        </use>
                        <path d="M-4,0h8" fill="none" stroke="white" stroke-width="1.5" pointer-events="none"/>
                </g>
                <g id="dirArrow">
                        <path fill="none" stroke="white" stroke-width="1.5" d="M0,-3.0v7 M-2.5,-0.5L0,-3.0L2.5,-0.5"/>
                </g>
               <g id="resetDef">
                       <use xlink:href="#rim2" fill="#404040">
                               <set attributeName="fill" to="#808080" begin="reset.mouseover" end="reset.mouseout"/>
                       </use>
               </g>
        </defs>

<script type="text/javascript">
var viewWidth = 808;
var viewHeight = 408;
var sectionId = 'dynsection-25';
</script>
<script xlink:href="../../svgpan.js"/>
<svg id="graph" class="graph">
<g id="viewport">
<title>UBGraphicsTextItem::setTextHeight</title>
<polygon fill="white" stroke="white" points="-4,5 -4,-404 805,-404 805,5 -4,5"/>
<!-- Node1 -->
<g id="node1" class="node"><title>Node1</title>
<polygon fill="#bfbfbf" stroke="black" points="0.5,-229 0.5,-263 109.5,-263 109.5,-229 0.5,-229"/>
<text text-anchor="start" x="8.5" y="-250" font-family="Helvetica,sans-Serif" font-size="10.00">UBGraphicsTextItem</text>
<text text-anchor="middle" x="55" y="-237" font-family="Helvetica,sans-Serif" font-size="10.00">::setTextHeight</text>
</g>
<!-- Node2 -->
<g id="node3" class="node"><title>Node2</title>
<a xlink:href="../../dc/db2/class_u_b_graphics_scene.html#aebfa0ab541a75af5b21b384e4a05c00e" target="_top" xlink:title="UBGraphicsScene::addText\lWithFont">
<polygon fill="white" stroke="black" points="146.5,-300 146.5,-334 285.5,-334 285.5,-300 146.5,-300"/>
<text text-anchor="start" x="154.5" y="-321" font-family="Helvetica,sans-Serif" font-size="10.00">UBGraphicsScene::addText</text>
<text text-anchor="middle" x="216" y="-308" font-family="Helvetica,sans-Serif" font-size="10.00">WithFont</text>
</a>
</g>
<!-- Node1&#45;&gt;Node2 -->
<g id="edge2" class="edge"><title>Node1&#45;&gt;Node2</title>
<path fill="none" stroke="midnightblue" d="M102.751,-267.058C126.491,-277.527 154.812,-290.016 177.193,-299.886"/>
<polygon fill="midnightblue" stroke="midnightblue" points="104.126,-263.839 93.5635,-263.006 101.301,-270.244 104.126,-263.839"/>
</g>
<!-- Node6 -->
<g id="node11" class="node"><title>Node6</title>
<a xlink:href="../../da/d65/class_u_b_graphics_text_item.html#a14c3b9ff16071a306fe0834577aa26fa" target="_top" xlink:title="UBGraphicsTextItem\l::copyItemParameters">
<polygon fill="white" stroke="black" points="523.5,-214 523.5,-248 636.5,-248 636.5,-214 523.5,-214"/>
<text text-anchor="start" x="531.5" y="-235" font-family="Helvetica,sans-Serif" font-size="10.00">UBGraphicsTextItem</text>
<text text-anchor="middle" x="580" y="-222" font-family="Helvetica,sans-Serif" font-size="10.00">::copyItemParameters</text>
</a>
</g>
<!-- Node1&#45;&gt;Node6 -->
<g id="edge10" class="edge"><title>Node1&#45;&gt;Node6</title>
<path fill="none" stroke="midnightblue" d="M119.726,-244.151C223.44,-241.187 425.157,-235.424 523.442,-232.616"/>
<polygon fill="midnightblue" stroke="midnightblue" points="119.594,-240.653 109.698,-244.437 119.794,-247.65 119.594,-240.653"/>
</g>
<!-- Node8 -->
<g id="node15" class="node"><title>Node8</title>
<a xlink:href="../../da/d65/class_u_b_graphics_text_item.html#a9a461e55837ce00341381e2f2bb642e8" target="_top" xlink:title="UBGraphicsTextItem\l::resize">
<polygon fill="white" stroke="black" points="161.5,-118 161.5,-152 270.5,-152 270.5,-118 161.5,-118"/>
<text text-anchor="start" x="169.5" y="-139" font-family="Helvetica,sans-Serif" font-size="10.00">UBGraphicsTextItem</text>
<text text-anchor="middle" x="216" y="-126" font-family="Helvetica,sans-Serif" font-size="10.00">::resize</text>
</a>
</g>
<!-- Node1&#45;&gt;Node8 -->
<g id="edge14" class="edge"><title>Node1&#45;&gt;Node8</title>
<path fill="none" stroke="midnightblue" d="M88.4267,-222.954C119.028,-201.856 163.62,-171.113 191.168,-152.12"/>
<polygon fill="midnightblue" stroke="midnightblue" points="86.0497,-220.342 79.8034,-228.9 90.023,-226.105 86.0497,-220.342"/>
</g>
<!-- Node3 -->
<g id="node5" class="node"><title>Node3</title>
<a xlink:href="../../dc/db2/class_u_b_graphics_scene.html#adbfabe62d183758c50d8259d2e569152" target="_top" xlink:title="UBGraphicsScene::addText">
<polygon fill="white" stroke="black" points="326.5,-378.5 326.5,-399.5 465.5,-399.5 465.5,-378.5 326.5,-378.5"/>
<text text-anchor="middle" x="396" y="-386.5" font-family="Helvetica,sans-Serif" font-size="10.00">UBGraphicsScene::addText</text>
</a>
</g>
<!-- Node2&#45;&gt;Node3 -->
<g id="edge4" class="edge"><title>Node2&#45;&gt;Node3</title>
<path fill="none" stroke="midnightblue" d="M255.761,-338.766C275.318,-348.883 299.477,-360.522 322,-369 331.341,-372.516 341.561,-375.689 351.342,-378.417"/>
<polygon fill="midnightblue" stroke="midnightblue" points="257.322,-335.633 246.84,-334.092 254.073,-341.833 257.322,-335.633"/>
</g>
<!-- Node4 -->
<g id="node7" class="node"><title>Node4</title>
<a xlink:href="../../dc/db2/class_u_b_graphics_scene.html#a2ae7b40259282b306f5dc21e1e12e607" target="_top" xlink:title="UBGraphicsScene::textFor\lObjectName">
<polygon fill="white" stroke="black" points="329,-326 329,-360 463,-360 463,-326 329,-326"/>
<text text-anchor="start" x="337" y="-347" font-family="Helvetica,sans-Serif" font-size="10.00">UBGraphicsScene::textFor</text>
<text text-anchor="middle" x="396" y="-334" font-family="Helvetica,sans-Serif" font-size="10.00">ObjectName</text>
</a>
</g>
<!-- Node2&#45;&gt;Node4 -->
<g id="edge6" class="edge"><title>Node2&#45;&gt;Node4</title>
<path fill="none" stroke="midnightblue" d="M295.708,-328.513C306.809,-330.117 318.122,-331.751 328.959,-333.316"/>
<polygon fill="midnightblue" stroke="midnightblue" points="295.99,-325.018 285.593,-327.052 294.99,-331.946 295.99,-325.018"/>
</g>
<!-- Node5 -->
<g id="node9" class="node"><title>Node5</title>
<a xlink:href="../../d5/d2b/class_u_b_widget_uniboard_a_p_i.html#aa897f74227bb93be8921064856c9a826" target="_top" xlink:title="UBWidgetUniboardAPI\l::addText">
<polygon fill="white" stroke="black" points="337.5,-274 337.5,-308 454.5,-308 454.5,-274 337.5,-274"/>
<text text-anchor="start" x="345.5" y="-295" font-family="Helvetica,sans-Serif" font-size="10.00">UBWidgetUniboardAPI</text>
<text text-anchor="middle" x="396" y="-282" font-family="Helvetica,sans-Serif" font-size="10.00">::addText</text>
</a>
</g>
<!-- Node2&#45;&gt;Node5 -->
<g id="edge8" class="edge"><title>Node2&#45;&gt;Node5</title>
<path fill="none" stroke="midnightblue" d="M295.72,-305.485C309.737,-303.46 324.092,-301.387 337.399,-299.465"/>
<polygon fill="midnightblue" stroke="midnightblue" points="294.99,-302.054 285.593,-306.948 295.99,-308.982 294.99,-302.054"/>
</g>
<!-- Node7 -->
<g id="node13" class="node"><title>Node7</title>
<a xlink:href="../../da/d65/class_u_b_graphics_text_item.html#a6be4507f88dccb25e1e063ec36cf6f47" target="_top" xlink:title="UBGraphicsTextItem\l::deepCopy">
<polygon fill="white" stroke="black" points="690.5,-180 690.5,-214 799.5,-214 799.5,-180 690.5,-180"/>
<text text-anchor="start" x="698.5" y="-201" font-family="Helvetica,sans-Serif" font-size="10.00">UBGraphicsTextItem</text>
<text text-anchor="middle" x="745" y="-188" font-family="Helvetica,sans-Serif" font-size="10.00">::deepCopy</text>
</a>
</g>
<!-- Node6&#45;&gt;Node7 -->
<g id="edge12" class="edge"><title>Node6&#45;&gt;Node7</title>
<path fill="none" stroke="midnightblue" d="M646.691,-217.258C661.192,-214.27 676.369,-211.142 690.34,-208.263"/>
<polygon fill="midnightblue" stroke="midnightblue" points="645.871,-213.853 636.784,-219.299 647.284,-220.709 645.871,-213.853"/>
</g>
<!-- Node9 -->
<g id="node17" class="node"><title>Node9</title>
<a xlink:href="../../de/d97/class_u_b_c_f_f_subset_adaptor_1_1_u_b_c_f_f_subset_reader.html#a79522f3e6b41feeaec622e47bef93568" target="_top" xlink:title="UBCFFSubsetAdaptor\l::UBCFFSubsetReader\l::parseSvgTextarea">
<polygon fill="white" stroke="black" points="336.5,-170.5 336.5,-217.5 455.5,-217.5 455.5,-170.5 336.5,-170.5"/>
<text text-anchor="start" x="344.5" y="-204.5" font-family="Helvetica,sans-Serif" font-size="10.00">UBCFFSubsetAdaptor</text>
<text text-anchor="start" x="344.5" y="-191.5" font-family="Helvetica,sans-Serif" font-size="10.00">::UBCFFSubsetReader</text>
<text text-anchor="middle" x="396" y="-178.5" font-family="Helvetica,sans-Serif" font-size="10.00">::parseSvgTextarea</text>
</a>
</g>
<!-- Node8&#45;&gt;Node9 -->
<g id="edge16" class="edge"><title>Node8&#45;&gt;Node9</title>
<path fill="none" stroke="midnightblue" d="M277.799,-155.256C296.78,-161.478 317.622,-168.309 336.449,-174.481"/>
<polygon fill="midnightblue" stroke="midnightblue" points="278.656,-151.854 268.063,-152.065 276.476,-158.506 278.656,-151.854"/>
</g>
<!-- Node10 -->
<g id="node19" class="node"><title>Node10</title>
<a xlink:href="../../da/d65/class_u_b_graphics_text_item.html#af8e979ce1e9395d000f7b2d68d813009" target="_top" xlink:title="UBGraphicsTextItem\l::documentSizeChanged">
<polygon fill="white" stroke="black" points="334,-118 334,-152 458,-152 458,-118 334,-118"/>
<text text-anchor="start" x="342" y="-139" font-family="Helvetica,sans-Serif" font-size="10.00">UBGraphicsTextItem</text>
<text text-anchor="middle" x="396" y="-126" font-family="Helvetica,sans-Serif" font-size="10.00">::documentSizeChanged</text>
</a>
</g>
<!-- Node8&#45;&gt;Node10 -->
<g id="edge18" class="edge"><title>Node8&#45;&gt;Node10</title>
<path fill="none" stroke="midnightblue" d="M281.434,-135C298.521,-135 316.888,-135 333.802,-135"/>
<polygon fill="midnightblue" stroke="midnightblue" points="280.984,-131.5 270.984,-135 280.984,-138.5 280.984,-131.5"/>
</g>
<!-- Node12 -->
<g id="node24" class="node"><title>Node12</title>
<a xlink:href="../../d9/dbd/class_u_b_graphics_text_item_delegate.html#a292ce49af67835859e297876d3f68602" target="_top" xlink:title="UBGraphicsTextItemDelegate\l::pickFont">
<polygon fill="white" stroke="black" points="322,-66 322,-100 470,-100 470,-66 322,-66"/>
<text text-anchor="start" x="330" y="-87" font-family="Helvetica,sans-Serif" font-size="10.00">UBGraphicsTextItemDelegate</text>
<text text-anchor="middle" x="396" y="-74" font-family="Helvetica,sans-Serif" font-size="10.00">::pickFont</text>
</a>
</g>
<!-- Node8&#45;&gt;Node12 -->
<g id="edge24" class="edge"><title>Node8&#45;&gt;Node12</title>
<path fill="none" stroke="midnightblue" d="M280.717,-116.304C299.079,-110.999 318.969,-105.253 336.976,-100.051"/>
<polygon fill="midnightblue" stroke="midnightblue" points="279.62,-112.978 270.984,-119.116 281.563,-119.703 279.62,-112.978"/>
</g>
<!-- Node14 -->
<g id="node28" class="node"><title>Node14</title>
<a xlink:href="../../d8/d4f/class_u_b_svg_subset_adaptor_1_1_u_b_svg_subset_reader.html#a46189cc62ec8d97c8d79e9952249fae9" target="_top" xlink:title="UBSvgSubsetAdaptor\l::UBSvgSubsetReader\l::textItemFromSvg">
<polygon fill="white" stroke="black" points="338,-0.5 338,-47.5 454,-47.5 454,-0.5 338,-0.5"/>
<text text-anchor="start" x="346" y="-34.5" font-family="Helvetica,sans-Serif" font-size="10.00">UBSvgSubsetAdaptor</text>
<text text-anchor="start" x="346" y="-21.5" font-family="Helvetica,sans-Serif" font-size="10.00">::UBSvgSubsetReader</text>
<text text-anchor="middle" x="396" y="-8.5" font-family="Helvetica,sans-Serif" font-size="10.00">::textItemFromSvg</text>
</a>
</g>
<!-- Node8&#45;&gt;Node14 -->
<g id="edge28" class="edge"><title>Node8&#45;&gt;Node14</title>
<path fill="none" stroke="midnightblue" d="M244.651,-111.287C265.347,-94.8264 294.402,-73.0567 322,-57 327.593,-53.746 333.565,-50.5959 339.6,-47.6174"/>
<polygon fill="midnightblue" stroke="midnightblue" points="242.2,-108.767 236.598,-117.76 246.585,-114.223 242.2,-108.767"/>
</g>
<!-- Node11 -->
<g id="node21" class="node"><title>Node11</title>
<a xlink:href="../../da/d65/class_u_b_graphics_text_item.html#acbf06a6d840ac7b6c95950e39dcd94b9" target="_top" xlink:title="UBGraphicsTextItem\l::UBGraphicsTextItem">
<polygon fill="white" stroke="black" points="522.5,-147 522.5,-181 637.5,-181 637.5,-147 522.5,-147"/>
<text text-anchor="start" x="530.5" y="-168" font-family="Helvetica,sans-Serif" font-size="10.00">UBGraphicsTextItem</text>
<text text-anchor="middle" x="580" y="-155" font-family="Helvetica,sans-Serif" font-size="10.00">::UBGraphicsTextItem</text>
</a>
</g>
<!-- Node10&#45;&gt;Node11 -->
<g id="edge20" class="edge"><title>Node10&#45;&gt;Node11</title>
<path fill="none" stroke="midnightblue" d="M467.918,-146.335C485.937,-149.175 505.037,-152.185 522.266,-154.901"/>
<polygon fill="midnightblue" stroke="midnightblue" points="468.46,-142.877 458.037,-144.778 467.371,-149.792 468.46,-142.877"/>
</g>
<!-- Node11&#45;&gt;Node7 -->
<g id="edge22" class="edge"><title>Node11&#45;&gt;Node7</title>
<path fill="none" stroke="midnightblue" d="M647.883,-177.577C662.032,-180.406 676.775,-183.355 690.372,-186.074"/>
<polygon fill="midnightblue" stroke="midnightblue" points="648.201,-174.071 637.709,-175.542 646.828,-180.935 648.201,-174.071"/>
</g>
<!-- Node13 -->
<g id="node26" class="node"><title>Node13</title>
<a xlink:href="../../d9/dbd/class_u_b_graphics_text_item_delegate.html#aed68d84ee8c86411f7b9197a4220e18f" target="_top" xlink:title="UBGraphicsTextItemDelegate\l::buildButtons">
<polygon fill="white" stroke="black" points="506,-66 506,-100 654,-100 654,-66 506,-66"/>
<text text-anchor="start" x="514" y="-87" font-family="Helvetica,sans-Serif" font-size="10.00">UBGraphicsTextItemDelegate</text>
<text text-anchor="middle" x="580" y="-74" font-family="Helvetica,sans-Serif" font-size="10.00">::buildButtons</text>
</a>
</g>
<!-- Node12&#45;&gt;Node13 -->
<g id="edge26" class="edge"><title>Node12&#45;&gt;Node13</title>
<path fill="none" stroke="midnightblue" d="M480.066,-83C488.654,-83 497.336,-83 505.808,-83"/>
<polygon fill="midnightblue" stroke="midnightblue" points="480.045,-79.5001 470.044,-83 480.044,-86.5001 480.045,-79.5001"/>
</g>
</g>
</svg>
        <g id="navigator" transform="translate(0 0)" fill="#404254">
                <rect fill="#f2f5e9" fill-opacity="0.5" stroke="#606060" stroke-width=".5" x="0" y="0" width="60" height="60"/>
                <use id="zoomplus" xlink:href="#zoomPlus" x="17" y="9" onmousedown="handleZoom(evt,'in')"/>
                <use id="zoomminus" xlink:href="#zoomMin" x="42" y="9" onmousedown="handleZoom(evt,'out')"/>
                <use id="reset" xlink:href="#resetDef" x="30" y="36" onmousedown="handleReset()"/>
                <g id="arrowUp" xlink:href="#dirArrow" transform="translate(30 24)" onmousedown="handlePan(0,-1)">
                  <use xlink:href="#rim" fill="#404040">
                        <set attributeName="fill" to="#808080" begin="arrowUp.mouseover" end="arrowUp.mouseout"/>
                  </use>
                  <path fill="none" stroke="white" stroke-width="1.5" d="M0,-3.0v7 M-2.5,-0.5L0,-3.0L2.5,-0.5"/>
                </g>
                <g id="arrowRight" xlink:href="#dirArrow" transform="rotate(90) translate(36 -43)" onmousedown="handlePan(1,0)">
                  <use xlink:href="#rim" fill="#404040">
                        <set attributeName="fill" to="#808080" begin="arrowRight.mouseover" end="arrowRight.mouseout"/>
                  </use>
                  <path fill="none" stroke="white" stroke-width="1.5" d="M0,-3.0v7 M-2.5,-0.5L0,-3.0L2.5,-0.5"/>
                </g>
                <g id="arrowDown" xlink:href="#dirArrow" transform="rotate(180) translate(-30 -48)" onmousedown="handlePan(0,1)">
                  <use xlink:href="#rim" fill="#404040">
                        <set attributeName="fill" to="#808080" begin="arrowDown.mouseover" end="arrowDown.mouseout"/>
                  </use>
                  <path fill="none" stroke="white" stroke-width="1.5" d="M0,-3.0v7 M-2.5,-0.5L0,-3.0L2.5,-0.5"/>
                </g>
                <g id="arrowLeft" xlink:href="#dirArrow" transform="rotate(270) translate(-36 17)" onmousedown="handlePan(-1,0)">
                  <use xlink:href="#rim" fill="#404040">
                        <set attributeName="fill" to="#808080" begin="arrowLeft.mouseover" end="arrowLeft.mouseout"/>
                  </use>
                  <path fill="none" stroke="white" stroke-width="1.5" d="M0,-3.0v7 M-2.5,-0.5L0,-3.0L2.5,-0.5"/>
                </g>
        </g>
        <svg viewBox="0 0 15 15" width="100%" height="30px" preserveAspectRatio="xMaxYMin meet">
         <g id="arrow_out" transform="scale(0.3 0.3)">
          <a xlink:href="class_u_b_graphics_text_item_a2da72b75372d127cedbc0123ba12c2f2_icgraph_org.svg" target="_base">
           <rect id="button" ry="5" rx="5" y="6" x="6" height="38" width="38"
                fill="#f2f5e9" fill-opacity="0.5" stroke="#606060" stroke-width="1.0"/>
           <path id="arrow"
             d="M 11.500037,31.436501 C 11.940474,20.09759 22.043105,11.32322 32.158766,21.979434 L 37.068811,17.246167 C 37.068811,17.246167 37.088388,32 37.088388,32 L 22.160133,31.978069 C 22.160133,31.978069 26.997745,27.140456 26.997745,27.140456 C 18.528582,18.264221 13.291696,25.230495 11.500037,31.436501 z"
             style="fill:#404040;"/>
          </a>
         </g>
        </svg>
</svg>
