<?xml version="1.0" encoding="UTF-8" standalone="no"?>
<!DOCTYPE svg PUBLIC "-//W3C//DTD SVG 1.1//EN"
 "http://www.w3.org/Graphics/SVG/1.1/DTD/svg11.dtd">
<!-- Generated by graphviz version 2.26.3 (20100126.1600)
 -->
<!-- Title: UBIntranetPodcastPublisher::postVideoPublishingResponse Pages: 1 -->
<svg width="524pt" height="42pt"
 viewBox="0.00 0.00 524.00 42.00" xmlns="http://www.w3.org/2000/svg" xmlns:xlink="http://www.w3.org/1999/xlink">
<g id="graph1" class="graph" transform="scale(1 1) rotate(0) translate(4 38)">
<title>UBIntranetPodcastPublisher::postVideoPublishingResponse</title>
<polygon fill="white" stroke="white" points="-4,5 -4,-38 521,-38 521,5 -4,5"/>
<!-- Node1 -->
<g id="node1" class="node"><title>Node1</title>
<polygon fill="#bfbfbf" stroke="black" points="0.5,-0 0.5,-34 155.5,-34 155.5,-0 0.5,-0"/>
<text text-anchor="start" x="8.5" y="-21" font-family="Helvetica,sans-Serif" font-size="10.00">UBIntranetPodcastPublisher</text>
<text text-anchor="middle" x="78" y="-8" font-family="Helvetica,sans-Serif" font-size="10.00">::postVideoPublishingResponse</text>
</g>
<!-- Node2 -->
<g id="node3" class="node"><title>Node2</title>
<a xlink:href="../../dc/d9f/class_u_b_intranet_podcast_publisher.html#a5bd46ab637671de895e047500f5eb975" target="_top" xlink:title="UBIntranetPodcastPublisher\l::postVideoPublishingRequest">
<polygon fill="white" stroke="black" points="192,-0 192,-34 340,-34 340,-0 192,-0"/>
<text text-anchor="start" x="200" y="-21" font-family="Helvetica,sans-Serif" font-size="10.00">UBIntranetPodcastPublisher</text>
<text text-anchor="middle" x="266" y="-8" font-family="Helvetica,sans-Serif" font-size="10.00">::postVideoPublishingRequest</text>
</a>
</g>
<!-- Node1&#45;&gt;Node2 -->
<g id="edge2" class="edge"><title>Node1&#45;&gt;Node2</title>
<path fill="none" stroke="midnightblue" d="M165.778,-17C174.532,-17 183.359,-17 191.953,-17"/>
<polygon fill="midnightblue" stroke="midnightblue" points="165.552,-13.5001 155.552,-17 165.552,-20.5001 165.552,-13.5001"/>
</g>
<!-- Node3 -->
<g id="node5" class="node"><title>Node3</title>
<a xlink:href="../../dc/d9f/class_u_b_intranet_podcast_publisher.html#a4965ecc747e29ef3c2a180d4078e1fbd" target="_top" xlink:title="UBIntranetPodcastPublisher\l::publishVideo">
<polygon fill="white" stroke="black" points="376,-0 376,-34 516,-34 516,-0 376,-0"/>
<text text-anchor="start" x="384" y="-21" font-family="Helvetica,sans-Serif" font-size="10.00">UBIntranetPodcastPublisher</text>
<text text-anchor="middle" x="446" y="-8" font-family="Helvetica,sans-Serif" font-size="10.00">::publishVideo</text>
</a>
</g>
<!-- Node2&#45;&gt;Node3 -->
<g id="edge4" class="edge"><title>Node2&#45;&gt;Node3</title>
<path fill="none" stroke="midnightblue" d="M350.291,-17C358.885,-17 367.55,-17 375.968,-17"/>
<polygon fill="midnightblue" stroke="midnightblue" points="350.252,-13.5001 340.252,-17 350.252,-20.5001 350.252,-13.5001"/>
</g>
</g>
</svg>
