<?xml version="1.0" encoding="UTF-8" standalone="no"?>
<!DOCTYPE svg PUBLIC "-//W3C//DTD SVG 1.1//EN"
 "http://www.w3.org/Graphics/SVG/1.1/DTD/svg11.dtd">
<!-- Generated by graphviz version 2.26.3 (20100126.1600)
 -->
<!-- Title: UBIntranetPodcastPublisher::postVideoPublishingResponse Pages: 1 -->
<!--zoomable 296 -->
<svg id="main" version="1.1" xmlns="http://www.w3.org/2000/svg" xmlns:xlink="http://www.w3.org/1999/xlink" xml:space="preserve" onload="init(evt)">
        <defs>
                <circle id="rim" cx="0" cy="0" r="7"/>
                <circle id="rim2" cx="0" cy="0" r="3.5"/>
                <g id="zoomPlus">
                        <use xlink:href="#rim" fill="#404040">
                                <set attributeName="fill" to="#808080" begin="zoomplus.mouseover" end="zoomplus.mouseout"/>
                        </use>
                        <path d="M-4,0h8M0,-4v8" fill="none" stroke="white" stroke-width="1.5" pointer-events="none"/>
                </g>
                <g id="zoomMin">
                        <use xlink:href="#rim" fill="#404040">
                                <set attributeName="fill" to="#808080" begin="zoomminus.mouseover" end="zoomminus.mouseout"/>
                        </use>
                        <path d="M-4,0h8" fill="none" stroke="white" stroke-width="1.5" pointer-events="none"/>
                </g>
                <g id="dirArrow">
                        <path fill="none" stroke="white" stroke-width="1.5" d="M0,-3.0v7 M-2.5,-0.5L0,-3.0L2.5,-0.5"/>
                </g>
               <g id="resetDef">
                       <use xlink:href="#rim2" fill="#404040">
                               <set attributeName="fill" to="#808080" begin="reset.mouseover" end="reset.mouseout"/>
                       </use>
               </g>
        </defs>

<script type="text/javascript">
var viewWidth = 1358;
var viewHeight = 296;
var sectionId = 'dynsection-3';
</script>
<script xlink:href="../../svgpan.js"/>
<svg id="graph" class="graph">
<g id="viewport">
<title>UBIntranetPodcastPublisher::postVideoPublishingResponse</title>
<polygon fill="white" stroke="white" points="-4,5 -4,-292 1355,-292 1355,5 -4,5"/>
<!-- Node1 -->
<g id="node1" class="node"><title>Node1</title>
<polygon fill="#bfbfbf" stroke="black" points="0.5,-176 0.5,-210 155.5,-210 155.5,-176 0.5,-176"/>
<text text-anchor="start" x="8.5" y="-197" font-family="Helvetica,sans-Serif" font-size="10.00">UBIntranetPodcastPublisher</text>
<text text-anchor="middle" x="78" y="-184" font-family="Helvetica,sans-Serif" font-size="10.00">::postVideoPublishingResponse</text>
</g>
<!-- Node2 -->
<g id="node3" class="node"><title>Node2</title>
<a xlink:href="../../d8/d81/class_u_b_application.html#afd12508537e75aaa6789431e60b60b44" target="_top" xlink:title="UBApplication::showMessage">
<polygon fill="white" stroke="black" points="192,-182.5 192,-203.5 340,-203.5 340,-182.5 192,-182.5"/>
<text text-anchor="middle" x="266" y="-190.5" font-family="Helvetica,sans-Serif" font-size="10.00">UBApplication::showMessage</text>
</a>
</g>
<!-- Node1&#45;&gt;Node2 -->
<g id="edge2" class="edge"><title>Node1&#45;&gt;Node2</title>
<path fill="none" stroke="midnightblue" d="M155.552,-193C164.203,-193 173.046,-193 181.776,-193"/>
<polygon fill="midnightblue" stroke="midnightblue" points="181.953,-196.5 191.953,-193 181.953,-189.5 181.953,-196.5"/>
</g>
<!-- Node3 -->
<g id="node5" class="node"><title>Node3</title>
<a xlink:href="../../da/d14/class_u_b_application_controller.html#aaefcc19888d509988d3e82b334d76830" target="_top" xlink:title="UBApplicationController\l::showMessage">
<polygon fill="white" stroke="black" points="376.5,-176 376.5,-210 497.5,-210 497.5,-176 376.5,-176"/>
<text text-anchor="start" x="384.5" y="-197" font-family="Helvetica,sans-Serif" font-size="10.00">UBApplicationController</text>
<text text-anchor="middle" x="437" y="-184" font-family="Helvetica,sans-Serif" font-size="10.00">::showMessage</text>
</a>
</g>
<!-- Node2&#45;&gt;Node3 -->
<g id="edge4" class="edge"><title>Node2&#45;&gt;Node3</title>
<path fill="none" stroke="midnightblue" d="M340.009,-193C348.702,-193 357.557,-193 366.205,-193"/>
<polygon fill="midnightblue" stroke="midnightblue" points="366.24,-196.5 376.24,-193 366.24,-189.5 366.24,-196.5"/>
</g>
<!-- Node4 -->
<g id="node7" class="node"><title>Node4</title>
<a xlink:href="../../d7/d62/class_u_b_board_controller.html#a71d2fb8834fc701bed0b16bb0f0b5527" target="_top" xlink:title="UBBoardController:\l:hideMessage">
<polygon fill="white" stroke="black" points="542.5,-254 542.5,-288 643.5,-288 643.5,-254 542.5,-254"/>
<text text-anchor="start" x="550.5" y="-275" font-family="Helvetica,sans-Serif" font-size="10.00">UBBoardController:</text>
<text text-anchor="middle" x="593" y="-262" font-family="Helvetica,sans-Serif" font-size="10.00">:hideMessage</text>
</a>
</g>
<!-- Node3&#45;&gt;Node4 -->
<g id="edge6" class="edge"><title>Node3&#45;&gt;Node4</title>
<path fill="none" stroke="midnightblue" d="M467.27,-210.003C486.248,-220.468 511.329,-233.948 534,-245 537.165,-246.543 540.442,-248.099 543.758,-249.642"/>
<polygon fill="midnightblue" stroke="midnightblue" points="542.587,-252.955 553.137,-253.933 545.5,-246.59 542.587,-252.955"/>
</g>
<!-- Node6 -->
<g id="node11" class="node"><title>Node6</title>
<a xlink:href="../../d6/de0/class_u_b_document_controller.html#aa5a4bf5ad86548cda5fd75ce6eb9f28f" target="_top" xlink:title="UBDocumentController\l::showMessage">
<polygon fill="white" stroke="black" points="534,-202 534,-236 652,-236 652,-202 534,-202"/>
<text text-anchor="start" x="542" y="-223" font-family="Helvetica,sans-Serif" font-size="10.00">UBDocumentController</text>
<text text-anchor="middle" x="593" y="-210" font-family="Helvetica,sans-Serif" font-size="10.00">::showMessage</text>
</a>
</g>
<!-- Node3&#45;&gt;Node6 -->
<g id="edge10" class="edge"><title>Node3&#45;&gt;Node6</title>
<path fill="none" stroke="midnightblue" d="M497.76,-203.127C506.307,-204.551 515.145,-206.024 523.835,-207.472"/>
<polygon fill="midnightblue" stroke="midnightblue" points="523.502,-210.965 533.941,-209.157 524.653,-204.06 523.502,-210.965"/>
</g>
<!-- Node7 -->
<g id="node13" class="node"><title>Node7</title>
<a xlink:href="../../d6/de0/class_u_b_document_controller.html#a73b29c9fcfc83397a6bd30af5fdc1ed2" target="_top" xlink:title="UBDocumentController\l::hideMessage">
<polygon fill="white" stroke="black" points="534,-150 534,-184 652,-184 652,-150 534,-150"/>
<text text-anchor="start" x="542" y="-171" font-family="Helvetica,sans-Serif" font-size="10.00">UBDocumentController</text>
<text text-anchor="middle" x="593" y="-158" font-family="Helvetica,sans-Serif" font-size="10.00">::hideMessage</text>
</a>
</g>
<!-- Node3&#45;&gt;Node7 -->
<g id="edge12" class="edge"><title>Node3&#45;&gt;Node7</title>
<path fill="none" stroke="midnightblue" d="M497.76,-182.873C506.307,-181.449 515.145,-179.976 523.835,-178.528"/>
<polygon fill="midnightblue" stroke="midnightblue" points="524.653,-181.94 533.941,-176.843 523.502,-175.035 524.653,-181.94"/>
</g>
<!-- Node8 -->
<g id="node15" class="node"><title>Node8</title>
<a xlink:href="../../d7/d62/class_u_b_board_controller.html#a71ff510e4ce1e3a753f074a0e7438a00" target="_top" xlink:title="UBBoardController:\l:showMessage">
<polygon fill="white" stroke="black" points="542.5,-98 542.5,-132 643.5,-132 643.5,-98 542.5,-98"/>
<text text-anchor="start" x="550.5" y="-119" font-family="Helvetica,sans-Serif" font-size="10.00">UBBoardController:</text>
<text text-anchor="middle" x="593" y="-106" font-family="Helvetica,sans-Serif" font-size="10.00">:showMessage</text>
</a>
</g>
<!-- Node3&#45;&gt;Node8 -->
<g id="edge14" class="edge"><title>Node3&#45;&gt;Node8</title>
<path fill="none" stroke="midnightblue" d="M467.27,-175.997C486.248,-165.532 511.329,-152.052 534,-141 537.165,-139.457 540.442,-137.901 543.758,-136.358"/>
<polygon fill="midnightblue" stroke="midnightblue" points="545.5,-139.41 553.137,-132.067 542.587,-133.045 545.5,-139.41"/>
</g>
<!-- Node5 -->
<g id="node9" class="node"><title>Node5</title>
<a xlink:href="../../d5/d02/class_u_b_message_window.html#af0f92d33532361f4048ab584621518f8" target="_top" xlink:title="UBMessageWindow::hideMessage">
<polygon fill="white" stroke="black" points="691,-260.5 691,-281.5 861,-281.5 861,-260.5 691,-260.5"/>
<text text-anchor="middle" x="776" y="-268.5" font-family="Helvetica,sans-Serif" font-size="10.00">UBMessageWindow::hideMessage</text>
</a>
</g>
<!-- Node4&#45;&gt;Node5 -->
<g id="edge8" class="edge"><title>Node4&#45;&gt;Node5</title>
<path fill="none" stroke="midnightblue" d="M643.976,-271C655.492,-271 668.081,-271 680.766,-271"/>
<polygon fill="midnightblue" stroke="midnightblue" points="680.941,-274.5 690.941,-271 680.941,-267.5 680.941,-274.5"/>
</g>
<!-- Node9 -->
<g id="node17" class="node"><title>Node9</title>
<a xlink:href="../../d5/d02/class_u_b_message_window.html#a8c6e3ff66e94a5ff2e11ebf52d5a8b35" target="_top" xlink:title="UBMessageWindow::showMessage">
<polygon fill="white" stroke="black" points="688.5,-104.5 688.5,-125.5 863.5,-125.5 863.5,-104.5 688.5,-104.5"/>
<text text-anchor="middle" x="776" y="-112.5" font-family="Helvetica,sans-Serif" font-size="10.00">UBMessageWindow::showMessage</text>
</a>
</g>
<!-- Node8&#45;&gt;Node9 -->
<g id="edge16" class="edge"><title>Node8&#45;&gt;Node9</title>
<path fill="none" stroke="midnightblue" d="M643.976,-115C654.799,-115 666.571,-115 678.48,-115"/>
<polygon fill="midnightblue" stroke="midnightblue" points="678.497,-118.5 688.497,-115 678.497,-111.5 678.497,-118.5"/>
</g>
<!-- Node10 -->
<g id="node19" class="node"><title>Node10</title>
<a xlink:href="../../d6/da4/class_u_b_spinning_wheel.html#acbcc339c4ad8ac331812ef58581e8264" target="_top" xlink:title="UBSpinningWheel::startAnimation">
<polygon fill="white" stroke="black" points="900.5,-144.5 900.5,-165.5 1065.5,-165.5 1065.5,-144.5 900.5,-144.5"/>
<text text-anchor="middle" x="983" y="-152.5" font-family="Helvetica,sans-Serif" font-size="10.00">UBSpinningWheel::startAnimation</text>
</a>
</g>
<!-- Node9&#45;&gt;Node10 -->
<g id="edge18" class="edge"><title>Node9&#45;&gt;Node10</title>
<path fill="none" stroke="midnightblue" d="M830.387,-125.51C857.378,-130.725 890.17,-137.062 918.43,-142.523"/>
<polygon fill="midnightblue" stroke="midnightblue" points="918.135,-146.03 928.617,-144.491 919.463,-139.158 918.135,-146.03"/>
</g>
<!-- Node11 -->
<g id="node21" class="node"><title>Node11</title>
<a xlink:href="../../d6/da4/class_u_b_spinning_wheel.html#afce6e8912a9ea4ce878ea2a0dcd47d7e" target="_top" xlink:title="UBSpinningWheel::stopAnimation">
<polygon fill="white" stroke="black" points="901,-104.5 901,-125.5 1065,-125.5 1065,-104.5 901,-104.5"/>
<text text-anchor="middle" x="983" y="-112.5" font-family="Helvetica,sans-Serif" font-size="10.00">UBSpinningWheel::stopAnimation</text>
</a>
</g>
<!-- Node9&#45;&gt;Node11 -->
<g id="edge20" class="edge"><title>Node9&#45;&gt;Node11</title>
<path fill="none" stroke="midnightblue" d="M863.787,-115C872.673,-115 881.718,-115 890.651,-115"/>
<polygon fill="midnightblue" stroke="midnightblue" points="890.675,-118.5 900.675,-115 890.675,-111.5 890.675,-118.5"/>
</g>
<!-- Node12 -->
<g id="node23" class="node"><title>Node12</title>
<a xlink:href="../../d1/d97/class_u_b_floating_palette.html#abc34a1ea7b29b6aaa4a0ea25d5715210" target="_top" xlink:title="UBFloatingPalette:\l:adjustSizeAndPosition">
<polygon fill="white" stroke="black" points="924,-52 924,-86 1042,-86 1042,-52 924,-52"/>
<text text-anchor="start" x="932" y="-73" font-family="Helvetica,sans-Serif" font-size="10.00">UBFloatingPalette:</text>
<text text-anchor="middle" x="983" y="-60" font-family="Helvetica,sans-Serif" font-size="10.00">:adjustSizeAndPosition</text>
</a>
</g>
<!-- Node9&#45;&gt;Node12 -->
<g id="edge22" class="edge"><title>Node9&#45;&gt;Node12</title>
<path fill="none" stroke="midnightblue" d="M823.49,-104.447C850.3,-98.4889 884.285,-90.9367 913.99,-84.3355"/>
<polygon fill="midnightblue" stroke="midnightblue" points="914.881,-87.7231 923.883,-82.137 913.362,-80.8897 914.881,-87.7231"/>
</g>
<!-- Node13 -->
<g id="node25" class="node"><title>Node13</title>
<a xlink:href="../../d1/d97/class_u_b_floating_palette.html#aec5822b784da7d590ff463ed9cb44be9" target="_top" xlink:title="UBFloatingPalette:\l:preferredSize">
<polygon fill="white" stroke="black" points="1102.5,-78 1102.5,-112 1201.5,-112 1201.5,-78 1102.5,-78"/>
<text text-anchor="start" x="1110.5" y="-99" font-family="Helvetica,sans-Serif" font-size="10.00">UBFloatingPalette:</text>
<text text-anchor="middle" x="1152" y="-86" font-family="Helvetica,sans-Serif" font-size="10.00">:preferredSize</text>
</a>
</g>
<!-- Node12&#45;&gt;Node13 -->
<g id="edge24" class="edge"><title>Node12&#45;&gt;Node13</title>
<path fill="none" stroke="midnightblue" d="M1042.11,-78.0935C1058.42,-80.6038 1076.13,-83.3283 1092.47,-85.8422"/>
<polygon fill="midnightblue" stroke="midnightblue" points="1092.03,-89.3151 1102.45,-87.3765 1093.1,-82.3965 1092.03,-89.3151"/>
</g>
<!-- Node14 -->
<g id="node27" class="node"><title>Node14</title>
<a xlink:href="../../d1/d97/class_u_b_floating_palette.html#a187ee35c53cfad79bb5b30dff1800732" target="_top" xlink:title="UBFloatingPalette:\l:moveInsideParent">
<polygon fill="white" stroke="black" points="1102.5,-26 1102.5,-60 1201.5,-60 1201.5,-26 1102.5,-26"/>
<text text-anchor="start" x="1110.5" y="-47" font-family="Helvetica,sans-Serif" font-size="10.00">UBFloatingPalette:</text>
<text text-anchor="middle" x="1152" y="-34" font-family="Helvetica,sans-Serif" font-size="10.00">:moveInsideParent</text>
</a>
</g>
<!-- Node12&#45;&gt;Node14 -->
<g id="edge26" class="edge"><title>Node12&#45;&gt;Node14</title>
<path fill="none" stroke="midnightblue" d="M1042.11,-59.9065C1058.42,-57.3962 1076.13,-54.6717 1092.47,-52.1578"/>
<polygon fill="midnightblue" stroke="midnightblue" points="1093.1,-55.6035 1102.45,-50.6235 1092.03,-48.6849 1093.1,-55.6035"/>
</g>
<!-- Node15 -->
<g id="node29" class="node"><title>Node15</title>
<a xlink:href="../../d1/d97/class_u_b_floating_palette.html#a1902d37271315e9e06d6743752104f47" target="_top" xlink:title="UBFloatingPalette:\l:border">
<polygon fill="white" stroke="black" points="1244.5,-52 1244.5,-86 1343.5,-86 1343.5,-52 1244.5,-52"/>
<text text-anchor="start" x="1252.5" y="-73" font-family="Helvetica,sans-Serif" font-size="10.00">UBFloatingPalette:</text>
<text text-anchor="middle" x="1294" y="-60" font-family="Helvetica,sans-Serif" font-size="10.00">:border</text>
</a>
</g>
<!-- Node14&#45;&gt;Node15 -->
<g id="edge28" class="edge"><title>Node14&#45;&gt;Node15</title>
<path fill="none" stroke="midnightblue" d="M1201.66,-52.0935C1212.2,-54.0219 1223.42,-56.0768 1234.28,-58.0655"/>
<polygon fill="midnightblue" stroke="midnightblue" points="1233.66,-61.5093 1244.12,-59.8676 1234.92,-54.6238 1233.66,-61.5093"/>
</g>
<!-- Node16 -->
<g id="node31" class="node"><title>Node16</title>
<a xlink:href="../../d1/d97/class_u_b_floating_palette.html#acf3ead0c3d8a3bde89b934ad208e9f9a" target="_top" xlink:title="UBFloatingPalette:\l:getParentRightOffset">
<polygon fill="white" stroke="black" points="1238,-0 1238,-34 1350,-34 1350,-0 1238,-0"/>
<text text-anchor="start" x="1246" y="-21" font-family="Helvetica,sans-Serif" font-size="10.00">UBFloatingPalette:</text>
<text text-anchor="middle" x="1294" y="-8" font-family="Helvetica,sans-Serif" font-size="10.00">:getParentRightOffset</text>
</a>
</g>
<!-- Node14&#45;&gt;Node16 -->
<g id="edge30" class="edge"><title>Node14&#45;&gt;Node16</title>
<path fill="none" stroke="midnightblue" d="M1201.66,-33.9065C1210.15,-32.3531 1219.08,-30.7176 1227.91,-29.1008"/>
<polygon fill="midnightblue" stroke="midnightblue" points="1228.6,-32.5326 1237.81,-27.2887 1227.34,-25.6471 1228.6,-32.5326"/>
</g>
</g>
</svg>
        <g id="navigator" transform="translate(0 0)" fill="#404254">
                <rect fill="#f2f5e9" fill-opacity="0.5" stroke="#606060" stroke-width=".5" x="0" y="0" width="60" height="60"/>
                <use id="zoomplus" xlink:href="#zoomPlus" x="17" y="9" onmousedown="handleZoom(evt,'in')"/>
                <use id="zoomminus" xlink:href="#zoomMin" x="42" y="9" onmousedown="handleZoom(evt,'out')"/>
                <use id="reset" xlink:href="#resetDef" x="30" y="36" onmousedown="handleReset()"/>
                <g id="arrowUp" xlink:href="#dirArrow" transform="translate(30 24)" onmousedown="handlePan(0,-1)">
                  <use xlink:href="#rim" fill="#404040">
                        <set attributeName="fill" to="#808080" begin="arrowUp.mouseover" end="arrowUp.mouseout"/>
                  </use>
                  <path fill="none" stroke="white" stroke-width="1.5" d="M0,-3.0v7 M-2.5,-0.5L0,-3.0L2.5,-0.5"/>
                </g>
                <g id="arrowRight" xlink:href="#dirArrow" transform="rotate(90) translate(36 -43)" onmousedown="handlePan(1,0)">
                  <use xlink:href="#rim" fill="#404040">
                        <set attributeName="fill" to="#808080" begin="arrowRight.mouseover" end="arrowRight.mouseout"/>
                  </use>
                  <path fill="none" stroke="white" stroke-width="1.5" d="M0,-3.0v7 M-2.5,-0.5L0,-3.0L2.5,-0.5"/>
                </g>
                <g id="arrowDown" xlink:href="#dirArrow" transform="rotate(180) translate(-30 -48)" onmousedown="handlePan(0,1)">
                  <use xlink:href="#rim" fill="#404040">
                        <set attributeName="fill" to="#808080" begin="arrowDown.mouseover" end="arrowDown.mouseout"/>
                  </use>
                  <path fill="none" stroke="white" stroke-width="1.5" d="M0,-3.0v7 M-2.5,-0.5L0,-3.0L2.5,-0.5"/>
                </g>
                <g id="arrowLeft" xlink:href="#dirArrow" transform="rotate(270) translate(-36 17)" onmousedown="handlePan(-1,0)">
                  <use xlink:href="#rim" fill="#404040">
                        <set attributeName="fill" to="#808080" begin="arrowLeft.mouseover" end="arrowLeft.mouseout"/>
                  </use>
                  <path fill="none" stroke="white" stroke-width="1.5" d="M0,-3.0v7 M-2.5,-0.5L0,-3.0L2.5,-0.5"/>
                </g>
        </g>
        <svg viewBox="0 0 15 15" width="100%" height="30px" preserveAspectRatio="xMaxYMin meet">
         <g id="arrow_out" transform="scale(0.3 0.3)">
          <a xlink:href="class_u_b_intranet_podcast_publisher_acf2339af36b92c6d132dd15519c0b056_cgraph_org.svg" target="_base">
           <rect id="button" ry="5" rx="5" y="6" x="6" height="38" width="38"
                fill="#f2f5e9" fill-opacity="0.5" stroke="#606060" stroke-width="1.0"/>
           <path id="arrow"
             d="M 11.500037,31.436501 C 11.940474,20.09759 22.043105,11.32322 32.158766,21.979434 L 37.068811,17.246167 C 37.068811,17.246167 37.088388,32 37.088388,32 L 22.160133,31.978069 C 22.160133,31.978069 26.997745,27.140456 26.997745,27.140456 C 18.528582,18.264221 13.291696,25.230495 11.500037,31.436501 z"
             style="fill:#404040;"/>
          </a>
         </g>
        </svg>
</svg>
