<?xml version="1.0" encoding="UTF-8" standalone="no"?>
<!DOCTYPE svg PUBLIC "-//W3C//DTD SVG 1.1//EN"
 "http://www.w3.org/Graphics/SVG/1.1/DTD/svg11.dtd">
<!-- Generated by graphviz version 2.26.3 (20100126.1600)
 -->
<!-- Title: UBIntranetPodcastPublisher::progress Pages: 1 -->
<svg width="1342pt" height="296pt"
 viewBox="0.00 0.00 1342.00 296.00" xmlns="http://www.w3.org/2000/svg" xmlns:xlink="http://www.w3.org/1999/xlink">
<g id="graph1" class="graph" transform="scale(1 1) rotate(0) translate(4 292)">
<title>UBIntranetPodcastPublisher::progress</title>
<polygon fill="white" stroke="white" points="-4,5 -4,-292 1339,-292 1339,5 -4,5"/>
<!-- Node1 -->
<g id="node1" class="node"><title>Node1</title>
<polygon fill="#bfbfbf" stroke="black" points="0,-176 0,-210 140,-210 140,-176 0,-176"/>
<text text-anchor="start" x="8" y="-197" font-family="Helvetica,sans-Serif" font-size="10.00">UBIntranetPodcastPublisher</text>
<text text-anchor="middle" x="70" y="-184" font-family="Helvetica,sans-Serif" font-size="10.00">::progress</text>
</g>
<!-- Node2 -->
<g id="node3" class="node"><title>Node2</title>
<a xlink:href="../../d8/d81/class_u_b_application.html#afd12508537e75aaa6789431e60b60b44" target="_top" xlink:title="UBApplication::showMessage">
<polygon fill="white" stroke="black" points="176,-182.5 176,-203.5 324,-203.5 324,-182.5 176,-182.5"/>
<text text-anchor="middle" x="250" y="-190.5" font-family="Helvetica,sans-Serif" font-size="10.00">UBApplication::showMessage</text>
</a>
</g>
<!-- Node1&#45;&gt;Node2 -->
<g id="edge2" class="edge"><title>Node1&#45;&gt;Node2</title>
<path fill="none" stroke="midnightblue" d="M140.108,-193C148.551,-193 157.24,-193 165.857,-193"/>
<polygon fill="midnightblue" stroke="midnightblue" points="165.921,-196.5 175.921,-193 165.921,-189.5 165.921,-196.5"/>
</g>
<!-- Node3 -->
<g id="node5" class="node"><title>Node3</title>
<a xlink:href="../../da/d14/class_u_b_application_controller.html#aaefcc19888d509988d3e82b334d76830" target="_top" xlink:title="UBApplicationController\l::showMessage">
<polygon fill="white" stroke="black" points="360.5,-176 360.5,-210 481.5,-210 481.5,-176 360.5,-176"/>
<text text-anchor="start" x="368.5" y="-197" font-family="Helvetica,sans-Serif" font-size="10.00">UBApplicationController</text>
<text text-anchor="middle" x="421" y="-184" font-family="Helvetica,sans-Serif" font-size="10.00">::showMessage</text>
</a>
</g>
<!-- Node2&#45;&gt;Node3 -->
<g id="edge4" class="edge"><title>Node2&#45;&gt;Node3</title>
<path fill="none" stroke="midnightblue" d="M324.009,-193C332.702,-193 341.557,-193 350.205,-193"/>
<polygon fill="midnightblue" stroke="midnightblue" points="350.24,-196.5 360.24,-193 350.24,-189.5 350.24,-196.5"/>
</g>
<!-- Node4 -->
<g id="node7" class="node"><title>Node4</title>
<a xlink:href="../../d7/d62/class_u_b_board_controller.html#a71d2fb8834fc701bed0b16bb0f0b5527" target="_top" xlink:title="UBBoardController:\l:hideMessage">
<polygon fill="white" stroke="black" points="526.5,-254 526.5,-288 627.5,-288 627.5,-254 526.5,-254"/>
<text text-anchor="start" x="534.5" y="-275" font-family="Helvetica,sans-Serif" font-size="10.00">UBBoardController:</text>
<text text-anchor="middle" x="577" y="-262" font-family="Helvetica,sans-Serif" font-size="10.00">:hideMessage</text>
</a>
</g>
<!-- Node3&#45;&gt;Node4 -->
<g id="edge6" class="edge"><title>Node3&#45;&gt;Node4</title>
<path fill="none" stroke="midnightblue" d="M451.27,-210.003C470.248,-220.468 495.329,-233.948 518,-245 521.165,-246.543 524.442,-248.099 527.758,-249.642"/>
<polygon fill="midnightblue" stroke="midnightblue" points="526.587,-252.955 537.137,-253.933 529.5,-246.59 526.587,-252.955"/>
</g>
<!-- Node6 -->
<g id="node11" class="node"><title>Node6</title>
<a xlink:href="../../d6/de0/class_u_b_document_controller.html#aa5a4bf5ad86548cda5fd75ce6eb9f28f" target="_top" xlink:title="UBDocumentController\l::showMessage">
<polygon fill="white" stroke="black" points="518,-202 518,-236 636,-236 636,-202 518,-202"/>
<text text-anchor="start" x="526" y="-223" font-family="Helvetica,sans-Serif" font-size="10.00">UBDocumentController</text>
<text text-anchor="middle" x="577" y="-210" font-family="Helvetica,sans-Serif" font-size="10.00">::showMessage</text>
</a>
</g>
<!-- Node3&#45;&gt;Node6 -->
<g id="edge10" class="edge"><title>Node3&#45;&gt;Node6</title>
<path fill="none" stroke="midnightblue" d="M481.76,-203.127C490.307,-204.551 499.145,-206.024 507.835,-207.472"/>
<polygon fill="midnightblue" stroke="midnightblue" points="507.502,-210.965 517.941,-209.157 508.653,-204.06 507.502,-210.965"/>
</g>
<!-- Node7 -->
<g id="node13" class="node"><title>Node7</title>
<a xlink:href="../../d6/de0/class_u_b_document_controller.html#a73b29c9fcfc83397a6bd30af5fdc1ed2" target="_top" xlink:title="UBDocumentController\l::hideMessage">
<polygon fill="white" stroke="black" points="518,-150 518,-184 636,-184 636,-150 518,-150"/>
<text text-anchor="start" x="526" y="-171" font-family="Helvetica,sans-Serif" font-size="10.00">UBDocumentController</text>
<text text-anchor="middle" x="577" y="-158" font-family="Helvetica,sans-Serif" font-size="10.00">::hideMessage</text>
</a>
</g>
<!-- Node3&#45;&gt;Node7 -->
<g id="edge12" class="edge"><title>Node3&#45;&gt;Node7</title>
<path fill="none" stroke="midnightblue" d="M481.76,-182.873C490.307,-181.449 499.145,-179.976 507.835,-178.528"/>
<polygon fill="midnightblue" stroke="midnightblue" points="508.653,-181.94 517.941,-176.843 507.502,-175.035 508.653,-181.94"/>
</g>
<!-- Node8 -->
<g id="node15" class="node"><title>Node8</title>
<a xlink:href="../../d7/d62/class_u_b_board_controller.html#a71ff510e4ce1e3a753f074a0e7438a00" target="_top" xlink:title="UBBoardController:\l:showMessage">
<polygon fill="white" stroke="black" points="526.5,-98 526.5,-132 627.5,-132 627.5,-98 526.5,-98"/>
<text text-anchor="start" x="534.5" y="-119" font-family="Helvetica,sans-Serif" font-size="10.00">UBBoardController:</text>
<text text-anchor="middle" x="577" y="-106" font-family="Helvetica,sans-Serif" font-size="10.00">:showMessage</text>
</a>
</g>
<!-- Node3&#45;&gt;Node8 -->
<g id="edge14" class="edge"><title>Node3&#45;&gt;Node8</title>
<path fill="none" stroke="midnightblue" d="M451.27,-175.997C470.248,-165.532 495.329,-152.052 518,-141 521.165,-139.457 524.442,-137.901 527.758,-136.358"/>
<polygon fill="midnightblue" stroke="midnightblue" points="529.5,-139.41 537.137,-132.067 526.587,-133.045 529.5,-139.41"/>
</g>
<!-- Node5 -->
<g id="node9" class="node"><title>Node5</title>
<a xlink:href="../../d5/d02/class_u_b_message_window.html#af0f92d33532361f4048ab584621518f8" target="_top" xlink:title="UBMessageWindow::hideMessage">
<polygon fill="white" stroke="black" points="675,-260.5 675,-281.5 845,-281.5 845,-260.5 675,-260.5"/>
<text text-anchor="middle" x="760" y="-268.5" font-family="Helvetica,sans-Serif" font-size="10.00">UBMessageWindow::hideMessage</text>
</a>
</g>
<!-- Node4&#45;&gt;Node5 -->
<g id="edge8" class="edge"><title>Node4&#45;&gt;Node5</title>
<path fill="none" stroke="midnightblue" d="M627.976,-271C639.492,-271 652.081,-271 664.766,-271"/>
<polygon fill="midnightblue" stroke="midnightblue" points="664.941,-274.5 674.941,-271 664.941,-267.5 664.941,-274.5"/>
</g>
<!-- Node9 -->
<g id="node17" class="node"><title>Node9</title>
<a xlink:href="../../d5/d02/class_u_b_message_window.html#a8c6e3ff66e94a5ff2e11ebf52d5a8b35" target="_top" xlink:title="UBMessageWindow::showMessage">
<polygon fill="white" stroke="black" points="672.5,-104.5 672.5,-125.5 847.5,-125.5 847.5,-104.5 672.5,-104.5"/>
<text text-anchor="middle" x="760" y="-112.5" font-family="Helvetica,sans-Serif" font-size="10.00">UBMessageWindow::showMessage</text>
</a>
</g>
<!-- Node8&#45;&gt;Node9 -->
<g id="edge16" class="edge"><title>Node8&#45;&gt;Node9</title>
<path fill="none" stroke="midnightblue" d="M627.976,-115C638.799,-115 650.571,-115 662.48,-115"/>
<polygon fill="midnightblue" stroke="midnightblue" points="662.497,-118.5 672.497,-115 662.497,-111.5 662.497,-118.5"/>
</g>
<!-- Node10 -->
<g id="node19" class="node"><title>Node10</title>
<a xlink:href="../../d6/da4/class_u_b_spinning_wheel.html#acbcc339c4ad8ac331812ef58581e8264" target="_top" xlink:title="UBSpinningWheel::startAnimation">
<polygon fill="white" stroke="black" points="884.5,-144.5 884.5,-165.5 1049.5,-165.5 1049.5,-144.5 884.5,-144.5"/>
<text text-anchor="middle" x="967" y="-152.5" font-family="Helvetica,sans-Serif" font-size="10.00">UBSpinningWheel::startAnimation</text>
</a>
</g>
<!-- Node9&#45;&gt;Node10 -->
<g id="edge18" class="edge"><title>Node9&#45;&gt;Node10</title>
<path fill="none" stroke="midnightblue" d="M814.387,-125.51C841.378,-130.725 874.17,-137.062 902.43,-142.523"/>
<polygon fill="midnightblue" stroke="midnightblue" points="902.135,-146.03 912.617,-144.491 903.463,-139.158 902.135,-146.03"/>
</g>
<!-- Node11 -->
<g id="node21" class="node"><title>Node11</title>
<a xlink:href="../../d6/da4/class_u_b_spinning_wheel.html#afce6e8912a9ea4ce878ea2a0dcd47d7e" target="_top" xlink:title="UBSpinningWheel::stopAnimation">
<polygon fill="white" stroke="black" points="885,-104.5 885,-125.5 1049,-125.5 1049,-104.5 885,-104.5"/>
<text text-anchor="middle" x="967" y="-112.5" font-family="Helvetica,sans-Serif" font-size="10.00">UBSpinningWheel::stopAnimation</text>
</a>
</g>
<!-- Node9&#45;&gt;Node11 -->
<g id="edge20" class="edge"><title>Node9&#45;&gt;Node11</title>
<path fill="none" stroke="midnightblue" d="M847.787,-115C856.673,-115 865.718,-115 874.651,-115"/>
<polygon fill="midnightblue" stroke="midnightblue" points="874.675,-118.5 884.675,-115 874.675,-111.5 874.675,-118.5"/>
</g>
<!-- Node12 -->
<g id="node23" class="node"><title>Node12</title>
<a xlink:href="../../d1/d97/class_u_b_floating_palette.html#abc34a1ea7b29b6aaa4a0ea25d5715210" target="_top" xlink:title="UBFloatingPalette:\l:adjustSizeAndPosition">
<polygon fill="white" stroke="black" points="908,-52 908,-86 1026,-86 1026,-52 908,-52"/>
<text text-anchor="start" x="916" y="-73" font-family="Helvetica,sans-Serif" font-size="10.00">UBFloatingPalette:</text>
<text text-anchor="middle" x="967" y="-60" font-family="Helvetica,sans-Serif" font-size="10.00">:adjustSizeAndPosition</text>
</a>
</g>
<!-- Node9&#45;&gt;Node12 -->
<g id="edge22" class="edge"><title>Node9&#45;&gt;Node12</title>
<path fill="none" stroke="midnightblue" d="M807.49,-104.447C834.3,-98.4889 868.285,-90.9367 897.99,-84.3355"/>
<polygon fill="midnightblue" stroke="midnightblue" points="898.881,-87.7231 907.883,-82.137 897.362,-80.8897 898.881,-87.7231"/>
</g>
<!-- Node13 -->
<g id="node25" class="node"><title>Node13</title>
<a xlink:href="../../d1/d97/class_u_b_floating_palette.html#aec5822b784da7d590ff463ed9cb44be9" target="_top" xlink:title="UBFloatingPalette:\l:preferredSize">
<polygon fill="white" stroke="black" points="1086.5,-78 1086.5,-112 1185.5,-112 1185.5,-78 1086.5,-78"/>
<text text-anchor="start" x="1094.5" y="-99" font-family="Helvetica,sans-Serif" font-size="10.00">UBFloatingPalette:</text>
<text text-anchor="middle" x="1136" y="-86" font-family="Helvetica,sans-Serif" font-size="10.00">:preferredSize</text>
</a>
</g>
<!-- Node12&#45;&gt;Node13 -->
<g id="edge24" class="edge"><title>Node12&#45;&gt;Node13</title>
<path fill="none" stroke="midnightblue" d="M1026.11,-78.0935C1042.42,-80.6038 1060.13,-83.3283 1076.47,-85.8422"/>
<polygon fill="midnightblue" stroke="midnightblue" points="1076.03,-89.3151 1086.45,-87.3765 1077.1,-82.3965 1076.03,-89.3151"/>
</g>
<!-- Node14 -->
<g id="node27" class="node"><title>Node14</title>
<a xlink:href="../../d1/d97/class_u_b_floating_palette.html#a187ee35c53cfad79bb5b30dff1800732" target="_top" xlink:title="UBFloatingPalette:\l:moveInsideParent">
<polygon fill="white" stroke="black" points="1086.5,-26 1086.5,-60 1185.5,-60 1185.5,-26 1086.5,-26"/>
<text text-anchor="start" x="1094.5" y="-47" font-family="Helvetica,sans-Serif" font-size="10.00">UBFloatingPalette:</text>
<text text-anchor="middle" x="1136" y="-34" font-family="Helvetica,sans-Serif" font-size="10.00">:moveInsideParent</text>
</a>
</g>
<!-- Node12&#45;&gt;Node14 -->
<g id="edge26" class="edge"><title>Node12&#45;&gt;Node14</title>
<path fill="none" stroke="midnightblue" d="M1026.11,-59.9065C1042.42,-57.3962 1060.13,-54.6717 1076.47,-52.1578"/>
<polygon fill="midnightblue" stroke="midnightblue" points="1077.1,-55.6035 1086.45,-50.6235 1076.03,-48.6849 1077.1,-55.6035"/>
</g>
<!-- Node15 -->
<g id="node29" class="node"><title>Node15</title>
<a xlink:href="../../d1/d97/class_u_b_floating_palette.html#a1902d37271315e9e06d6743752104f47" target="_top" xlink:title="UBFloatingPalette:\l:border">
<polygon fill="white" stroke="black" points="1228.5,-52 1228.5,-86 1327.5,-86 1327.5,-52 1228.5,-52"/>
<text text-anchor="start" x="1236.5" y="-73" font-family="Helvetica,sans-Serif" font-size="10.00">UBFloatingPalette:</text>
<text text-anchor="middle" x="1278" y="-60" font-family="Helvetica,sans-Serif" font-size="10.00">:border</text>
</a>
</g>
<!-- Node14&#45;&gt;Node15 -->
<g id="edge28" class="edge"><title>Node14&#45;&gt;Node15</title>
<path fill="none" stroke="midnightblue" d="M1185.66,-52.0935C1196.2,-54.0219 1207.42,-56.0768 1218.28,-58.0655"/>
<polygon fill="midnightblue" stroke="midnightblue" points="1217.66,-61.5093 1228.12,-59.8676 1218.92,-54.6238 1217.66,-61.5093"/>
</g>
<!-- Node16 -->
<g id="node31" class="node"><title>Node16</title>
<a xlink:href="../../d1/d97/class_u_b_floating_palette.html#acf3ead0c3d8a3bde89b934ad208e9f9a" target="_top" xlink:title="UBFloatingPalette:\l:getParentRightOffset">
<polygon fill="white" stroke="black" points="1222,-0 1222,-34 1334,-34 1334,-0 1222,-0"/>
<text text-anchor="start" x="1230" y="-21" font-family="Helvetica,sans-Serif" font-size="10.00">UBFloatingPalette:</text>
<text text-anchor="middle" x="1278" y="-8" font-family="Helvetica,sans-Serif" font-size="10.00">:getParentRightOffset</text>
</a>
</g>
<!-- Node14&#45;&gt;Node16 -->
<g id="edge30" class="edge"><title>Node14&#45;&gt;Node16</title>
<path fill="none" stroke="midnightblue" d="M1185.66,-33.9065C1194.15,-32.3531 1203.08,-30.7176 1211.91,-29.1008"/>
<polygon fill="midnightblue" stroke="midnightblue" points="1212.6,-32.5326 1221.81,-27.2887 1211.34,-25.6471 1212.6,-32.5326"/>
</g>
</g>
</svg>
