<?xml version="1.0" encoding="UTF-8" standalone="no"?>
<!DOCTYPE svg PUBLIC "-//W3C//DTD SVG 1.1//EN"
 "http://www.w3.org/Graphics/SVG/1.1/DTD/svg11.dtd">
<!-- Generated by graphviz version 2.26.3 (20100126.1600)
 -->
<!-- Title: UBActionPalette::buttonGroupClicked Pages: 1 -->
<svg width="1032pt" height="198pt"
 viewBox="0.00 0.00 1032.00 198.00" xmlns="http://www.w3.org/2000/svg" xmlns:xlink="http://www.w3.org/1999/xlink">
<g id="graph1" class="graph" transform="scale(1 1) rotate(0) translate(4 194)">
<title>UBActionPalette::buttonGroupClicked</title>
<polygon fill="white" stroke="white" points="-4,5 -4,-194 1029,-194 1029,5 -4,5"/>
<!-- Node1 -->
<g id="node1" class="node"><title>Node1</title>
<polygon fill="#bfbfbf" stroke="black" points="0.5,-29 0.5,-63 149.5,-63 149.5,-29 0.5,-29"/>
<text text-anchor="start" x="8.5" y="-50" font-family="Helvetica,sans-Serif" font-size="10.00">UBActionPalette::buttonGroup</text>
<text text-anchor="middle" x="75" y="-37" font-family="Helvetica,sans-Serif" font-size="10.00">Clicked</text>
</g>
<!-- Node2 -->
<g id="node3" class="node"><title>Node2</title>
<a xlink:href="../../de/dc5/class_u_b_action_palette.html#a13e41b19543a20da38b4eb86739f0af0" target="_top" xlink:title="UBActionPalette::groupActions">
<polygon fill="white" stroke="black" points="186,-58.5 186,-79.5 338,-79.5 338,-58.5 186,-58.5"/>
<text text-anchor="middle" x="262" y="-66.5" font-family="Helvetica,sans-Serif" font-size="10.00">UBActionPalette::groupActions</text>
</a>
</g>
<!-- Node1&#45;&gt;Node2 -->
<g id="edge2" class="edge"><title>Node1&#45;&gt;Node2</title>
<path fill="none" stroke="midnightblue" d="M159.839,-56.4347C168.519,-57.5023 177.299,-58.5822 185.877,-59.6373"/>
<polygon fill="midnightblue" stroke="midnightblue" points="160.066,-52.9364 149.714,-55.1894 159.211,-59.884 160.066,-52.9364"/>
</g>
<!-- Node9 -->
<g id="node19" class="node"><title>Node9</title>
<a xlink:href="../../d2/dfd/class_u_b_stylus_palette.html#aa0ae950323906450787a4c8f7de86f20" target="_top" xlink:title="UBStylusPalette::UBStylus\lPalette">
<polygon fill="white" stroke="black" points="377.5,-0 377.5,-34 514.5,-34 514.5,-0 377.5,-0"/>
<text text-anchor="start" x="385.5" y="-21" font-family="Helvetica,sans-Serif" font-size="10.00">UBStylusPalette::UBStylus</text>
<text text-anchor="middle" x="446" y="-8" font-family="Helvetica,sans-Serif" font-size="10.00">Palette</text>
</a>
</g>
<!-- Node1&#45;&gt;Node9 -->
<g id="edge22" class="edge"><title>Node1&#45;&gt;Node9</title>
<path fill="none" stroke="midnightblue" d="M159.994,-39.3563C225.909,-34.2039 316.078,-27.1557 377.431,-22.3598"/>
<polygon fill="midnightblue" stroke="midnightblue" points="159.328,-35.8976 149.631,-40.1663 159.873,-42.8763 159.328,-35.8976"/>
</g>
<!-- Node3 -->
<g id="node5" class="node"><title>Node3</title>
<a xlink:href="../../dc/d38/class_u_b_board_palette_manager.html#afbcd2e3da2af2a26bb84dddd061a9c5a" target="_top" xlink:title="UBBoardPaletteManager\l::setupPalettes">
<polygon fill="white" stroke="black" points="561.5,-156 561.5,-190 686.5,-190 686.5,-156 561.5,-156"/>
<text text-anchor="start" x="569.5" y="-177" font-family="Helvetica,sans-Serif" font-size="10.00">UBBoardPaletteManager</text>
<text text-anchor="middle" x="624" y="-164" font-family="Helvetica,sans-Serif" font-size="10.00">::setupPalettes</text>
</a>
</g>
<!-- Node2&#45;&gt;Node3 -->
<g id="edge4" class="edge"><title>Node2&#45;&gt;Node3</title>
<path fill="none" stroke="midnightblue" d="M280.471,-86.3668C301.382,-104.881 337.335,-133.367 374,-147 434.943,-169.659 509.634,-174.75 561.425,-175.046"/>
<polygon fill="midnightblue" stroke="midnightblue" points="282.735,-83.695 272.972,-79.5793 278.037,-88.8849 282.735,-83.695"/>
</g>
<!-- Node5 -->
<g id="node9" class="node"><title>Node5</title>
<a xlink:href="../../dc/d38/class_u_b_board_palette_manager.html#a701f0fe6a94ff400714f56dc427dae9e" target="_top" xlink:title="UBBoardPaletteManager\l::pagePaletteButtonReleased">
<polygon fill="white" stroke="black" points="374,-104 374,-138 518,-138 518,-104 374,-104"/>
<text text-anchor="start" x="382" y="-125" font-family="Helvetica,sans-Serif" font-size="10.00">UBBoardPaletteManager</text>
<text text-anchor="middle" x="446" y="-112" font-family="Helvetica,sans-Serif" font-size="10.00">::pagePaletteButtonReleased</text>
</a>
</g>
<!-- Node2&#45;&gt;Node5 -->
<g id="edge8" class="edge"><title>Node2&#45;&gt;Node5</title>
<path fill="none" stroke="midnightblue" d="M308.894,-82.2527C332.225,-88.8462 360.699,-96.8932 385.64,-103.942"/>
<polygon fill="midnightblue" stroke="midnightblue" points="309.81,-78.8745 299.235,-79.523 307.906,-85.6107 309.81,-78.8745"/>
</g>
<!-- Node8 -->
<g id="node17" class="node"><title>Node8</title>
<a xlink:href="../../d0/d79/class_u_b_favorite_tool_palette.html#a5c96e32fc43e9342cde947b25425516c" target="_top" xlink:title="UBFavoriteToolPalette\l::UBFavoriteToolPalette">
<polygon fill="white" stroke="black" points="385,-52 385,-86 507,-86 507,-52 385,-52"/>
<text text-anchor="start" x="393" y="-73" font-family="Helvetica,sans-Serif" font-size="10.00">UBFavoriteToolPalette</text>
<text text-anchor="middle" x="446" y="-60" font-family="Helvetica,sans-Serif" font-size="10.00">::UBFavoriteToolPalette</text>
</a>
</g>
<!-- Node2&#45;&gt;Node8 -->
<g id="edge18" class="edge"><title>Node2&#45;&gt;Node8</title>
<path fill="none" stroke="midnightblue" d="M348.424,-69C360.694,-69 373.096,-69 384.754,-69"/>
<polygon fill="midnightblue" stroke="midnightblue" points="348.168,-65.5001 338.168,-69 348.168,-72.5001 348.168,-65.5001"/>
</g>
<!-- Node2&#45;&gt;Node9 -->
<g id="edge20" class="edge"><title>Node2&#45;&gt;Node9</title>
<path fill="none" stroke="midnightblue" d="M308.894,-55.7473C332.225,-49.1538 360.699,-41.1068 385.64,-34.0582"/>
<polygon fill="midnightblue" stroke="midnightblue" points="307.906,-52.3893 299.235,-58.477 309.81,-59.1255 307.906,-52.3893"/>
</g>
<!-- Node4 -->
<g id="node7" class="node"><title>Node4</title>
<a xlink:href="../../dc/d38/class_u_b_board_palette_manager.html#ab2ca22bf5af16f59e273a72731a138ae" target="_top" xlink:title="UBBoardPaletteManager\l::UBBoardPaletteManager">
<polygon fill="white" stroke="black" points="892.5,-128 892.5,-162 1023.5,-162 1023.5,-128 892.5,-128"/>
<text text-anchor="start" x="900.5" y="-149" font-family="Helvetica,sans-Serif" font-size="10.00">UBBoardPaletteManager</text>
<text text-anchor="middle" x="958" y="-136" font-family="Helvetica,sans-Serif" font-size="10.00">::UBBoardPaletteManager</text>
</a>
</g>
<!-- Node3&#45;&gt;Node4 -->
<g id="edge6" class="edge"><title>Node3&#45;&gt;Node4</title>
<path fill="none" stroke="midnightblue" d="M697.058,-166.875C755.291,-161.994 836.113,-155.218 892.319,-150.506"/>
<polygon fill="midnightblue" stroke="midnightblue" points="696.495,-163.41 686.823,-167.733 697.08,-170.386 696.495,-163.41"/>
</g>
<!-- Node6 -->
<g id="node11" class="node"><title>Node6</title>
<a xlink:href="../../dc/d38/class_u_b_board_palette_manager.html#aa96583e94611d4223a2fb7d479024361" target="_top" xlink:title="UBBoardPaletteManager\l::pagePaletteButtonPressed">
<polygon fill="white" stroke="black" points="554.5,-104 554.5,-138 693.5,-138 693.5,-104 554.5,-104"/>
<text text-anchor="start" x="562.5" y="-125" font-family="Helvetica,sans-Serif" font-size="10.00">UBBoardPaletteManager</text>
<text text-anchor="middle" x="624" y="-112" font-family="Helvetica,sans-Serif" font-size="10.00">::pagePaletteButtonPressed</text>
</a>
</g>
<!-- Node5&#45;&gt;Node6 -->
<g id="edge10" class="edge"><title>Node5&#45;&gt;Node6</title>
<path fill="none" stroke="midnightblue" d="M528.305,-121C537.013,-121 545.806,-121 554.35,-121"/>
<polygon fill="midnightblue" stroke="midnightblue" points="528.143,-117.5 518.143,-121 528.143,-124.5 528.143,-117.5"/>
</g>
<!-- Node7 -->
<g id="node13" class="node"><title>Node7</title>
<a xlink:href="../../dc/d38/class_u_b_board_palette_manager.html#a10b4f132aa36e4f99495aa9442fbac23" target="_top" xlink:title="UBBoardPaletteManager\l::connectPalettes">
<polygon fill="white" stroke="black" points="730.5,-104 730.5,-138 855.5,-138 855.5,-104 730.5,-104"/>
<text text-anchor="start" x="738.5" y="-125" font-family="Helvetica,sans-Serif" font-size="10.00">UBBoardPaletteManager</text>
<text text-anchor="middle" x="793" y="-112" font-family="Helvetica,sans-Serif" font-size="10.00">::connectPalettes</text>
</a>
</g>
<!-- Node5&#45;&gt;Node7 -->
<g id="edge16" class="edge"><title>Node5&#45;&gt;Node7</title>
<path fill="none" stroke="midnightblue" d="M515.803,-101.657C528.423,-98.8878 541.533,-96.4795 554,-95 615.789,-87.6672 632.29,-87.0318 694,-95 708.54,-96.8774 723.99,-100.245 738.254,-103.947"/>
<polygon fill="midnightblue" stroke="midnightblue" points="514.776,-98.3014 505.809,-103.944 516.337,-105.125 514.776,-98.3014"/>
</g>
<!-- Node6&#45;&gt;Node7 -->
<g id="edge12" class="edge"><title>Node6&#45;&gt;Node7</title>
<path fill="none" stroke="midnightblue" d="M703.782,-121C712.745,-121 721.78,-121 730.48,-121"/>
<polygon fill="midnightblue" stroke="midnightblue" points="703.715,-117.5 693.714,-121 703.714,-124.5 703.715,-117.5"/>
</g>
<!-- Node7&#45;&gt;Node4 -->
<g id="edge14" class="edge"><title>Node7&#45;&gt;Node4</title>
<path fill="none" stroke="midnightblue" d="M866.031,-131.623C874.78,-132.895 883.673,-134.189 892.309,-135.445"/>
<polygon fill="midnightblue" stroke="midnightblue" points="866.25,-128.118 855.85,-130.142 865.242,-135.045 866.25,-128.118"/>
</g>
</g>
</svg>
