<?xml version="1.0" encoding="UTF-8" standalone="no"?>
<!DOCTYPE svg PUBLIC "-//W3C//DTD SVG 1.1//EN"
 "http://www.w3.org/Graphics/SVG/1.1/DTD/svg11.dtd">
<!-- Generated by graphviz version 2.26.3 (20100126.1600)
 -->
<!-- Title: UBActionPalette::groupActions Pages: 1 -->
<svg width="668pt" height="82pt"
 viewBox="0.00 0.00 668.00 82.00" xmlns="http://www.w3.org/2000/svg" xmlns:xlink="http://www.w3.org/1999/xlink">
<g id="graph1" class="graph" transform="scale(1 1) rotate(0) translate(4 78)">
<title>UBActionPalette::groupActions</title>
<polygon fill="white" stroke="white" points="-4,5 -4,-78 665,-78 665,5 -4,5"/>
<!-- Node1 -->
<g id="node1" class="node"><title>Node1</title>
<polygon fill="#bfbfbf" stroke="black" points="0,-29.5 0,-50.5 152,-50.5 152,-29.5 0,-29.5"/>
<text text-anchor="middle" x="76" y="-37.5" font-family="Helvetica,sans-Serif" font-size="10.00">UBActionPalette::groupActions</text>
</g>
<!-- Node2 -->
<g id="node3" class="node"><title>Node2</title>
<a xlink:href="../../de/dc5/class_u_b_action_palette.html#a40216f168183eecab89bcbafd56cbefd" target="_top" xlink:title="UBActionPalette::buttonClicked">
<polygon fill="white" stroke="black" points="188.5,-52.5 188.5,-73.5 343.5,-73.5 343.5,-52.5 188.5,-52.5"/>
<text text-anchor="middle" x="266" y="-60.5" font-family="Helvetica,sans-Serif" font-size="10.00">UBActionPalette::buttonClicked</text>
</a>
</g>
<!-- Node1&#45;&gt;Node2 -->
<g id="edge2" class="edge"><title>Node1&#45;&gt;Node2</title>
<path fill="none" stroke="midnightblue" d="M152.185,-49.2225C160.719,-50.2555 169.464,-51.314 178.129,-52.3629"/>
<polygon fill="midnightblue" stroke="midnightblue" points="177.898,-55.8605 188.246,-53.5877 178.74,-48.9113 177.898,-55.8605"/>
</g>
<!-- Node5 -->
<g id="node9" class="node"><title>Node5</title>
<a xlink:href="../../de/dc5/class_u_b_action_palette.html#ada3077d2b24368051f6d63f704bdddde" target="_top" xlink:title="UBActionPalette::buttonGroup\lClicked">
<polygon fill="white" stroke="black" points="191.5,-0 191.5,-34 340.5,-34 340.5,-0 191.5,-0"/>
<text text-anchor="start" x="199.5" y="-21" font-family="Helvetica,sans-Serif" font-size="10.00">UBActionPalette::buttonGroup</text>
<text text-anchor="middle" x="266" y="-8" font-family="Helvetica,sans-Serif" font-size="10.00">Clicked</text>
</a>
</g>
<!-- Node1&#45;&gt;Node5 -->
<g id="edge8" class="edge"><title>Node1&#45;&gt;Node5</title>
<path fill="none" stroke="midnightblue" d="M152.185,-30.7775C161.764,-29.6181 171.607,-28.4265 181.306,-27.2524"/>
<polygon fill="midnightblue" stroke="midnightblue" points="181.837,-30.7138 191.344,-26.0373 180.996,-23.7645 181.837,-30.7138"/>
</g>
<!-- Node3 -->
<g id="node5" class="node"><title>Node3</title>
<a xlink:href="../../de/dc5/class_u_b_action_palette.html#a23c62043071f0e7691a0dbdfcc20a2dd" target="_top" xlink:title="UBActionPalette::close">
<polygon fill="white" stroke="black" points="380.5,-52.5 380.5,-73.5 499.5,-73.5 499.5,-52.5 380.5,-52.5"/>
<text text-anchor="middle" x="440" y="-60.5" font-family="Helvetica,sans-Serif" font-size="10.00">UBActionPalette::close</text>
</a>
</g>
<!-- Node2&#45;&gt;Node3 -->
<g id="edge4" class="edge"><title>Node2&#45;&gt;Node3</title>
<path fill="none" stroke="midnightblue" d="M343.586,-63C352.444,-63 361.435,-63 370.184,-63"/>
<polygon fill="midnightblue" stroke="midnightblue" points="370.321,-66.5001 380.321,-63 370.321,-59.5001 370.321,-66.5001"/>
</g>
<!-- Node4 -->
<g id="node7" class="node"><title>Node4</title>
<a xlink:href="../../de/dc5/class_u_b_action_palette.html#aa1e453b054ded51a722466d5dbfb7d39" target="_top" xlink:title="UBActionPalette::closed">
<polygon fill="white" stroke="black" points="536,-52.5 536,-73.5 660,-73.5 660,-52.5 536,-52.5"/>
<text text-anchor="middle" x="598" y="-60.5" font-family="Helvetica,sans-Serif" font-size="10.00">UBActionPalette::closed</text>
</a>
</g>
<!-- Node3&#45;&gt;Node4 -->
<g id="edge6" class="edge"><title>Node3&#45;&gt;Node4</title>
<path fill="none" stroke="midnightblue" d="M499.733,-63C508.212,-63 517.007,-63 525.693,-63"/>
<polygon fill="midnightblue" stroke="midnightblue" points="525.815,-66.5001 535.815,-63 525.815,-59.5001 525.815,-66.5001"/>
</g>
</g>
</svg>
