<?xml version="1.0" encoding="UTF-8" standalone="no"?>
<!DOCTYPE svg PUBLIC "-//W3C//DTD SVG 1.1//EN"
 "http://www.w3.org/Graphics/SVG/1.1/DTD/svg11.dtd">
<!-- Generated by graphviz version 2.26.3 (20100126.1600)
 -->
<!-- Title: UBActionPalette::setActions Pages: 1 -->
<!--zoomable 78 -->
<svg id="main" version="1.1" xmlns="http://www.w3.org/2000/svg" xmlns:xlink="http://www.w3.org/1999/xlink" xml:space="preserve" onload="init(evt)">
        <defs>
                <circle id="rim" cx="0" cy="0" r="7"/>
                <circle id="rim2" cx="0" cy="0" r="3.5"/>
                <g id="zoomPlus">
                        <use xlink:href="#rim" fill="#404040">
                                <set attributeName="fill" to="#808080" begin="zoomplus.mouseover" end="zoomplus.mouseout"/>
                        </use>
                        <path d="M-4,0h8M0,-4v8" fill="none" stroke="white" stroke-width="1.5" pointer-events="none"/>
                </g>
                <g id="zoomMin">
                        <use xlink:href="#rim" fill="#404040">
                                <set attributeName="fill" to="#808080" begin="zoomminus.mouseover" end="zoomminus.mouseout"/>
                        </use>
                        <path d="M-4,0h8" fill="none" stroke="white" stroke-width="1.5" pointer-events="none"/>
                </g>
                <g id="dirArrow">
                        <path fill="none" stroke="white" stroke-width="1.5" d="M0,-3.0v7 M-2.5,-0.5L0,-3.0L2.5,-0.5"/>
                </g>
               <g id="resetDef">
                       <use xlink:href="#rim2" fill="#404040">
                               <set attributeName="fill" to="#808080" begin="reset.mouseover" end="reset.mouseout"/>
                       </use>
               </g>
        </defs>

<script type="text/javascript">
var viewWidth = 1030;
var viewHeight = 78;
var sectionId = 'dynsection-27';
</script>
<script xlink:href="../../svgpan.js"/>
<svg id="graph" class="graph">
<g id="viewport">
<title>UBActionPalette::setActions</title>
<polygon fill="white" stroke="white" points="-4,5 -4,-74 1027,-74 1027,5 -4,5"/>
<!-- Node1 -->
<g id="node1" class="node"><title>Node1</title>
<polygon fill="#bfbfbf" stroke="black" points="0,-18.5 0,-39.5 142,-39.5 142,-18.5 0,-18.5"/>
<text text-anchor="middle" x="71" y="-26.5" font-family="Helvetica,sans-Serif" font-size="10.00">UBActionPalette::setActions</text>
</g>
<!-- Node2 -->
<g id="node3" class="node"><title>Node2</title>
<a xlink:href="../../de/dc5/class_u_b_action_palette.html#a116bac7a7085808b3b1c1fd51e124956" target="_top" xlink:title="UBActionPalette::addAction">
<polygon fill="white" stroke="black" points="178.5,-39.5 178.5,-60.5 317.5,-60.5 317.5,-39.5 178.5,-39.5"/>
<text text-anchor="middle" x="248" y="-47.5" font-family="Helvetica,sans-Serif" font-size="10.00">UBActionPalette::addAction</text>
</a>
</g>
<!-- Node1&#45;&gt;Node2 -->
<g id="edge2" class="edge"><title>Node1&#45;&gt;Node2</title>
<path fill="none" stroke="midnightblue" d="M142.228,-37.4507C150.789,-38.4665 159.575,-39.5089 168.248,-40.5379"/>
<polygon fill="midnightblue" stroke="midnightblue" points="168.014,-44.0346 178.357,-41.7372 168.839,-37.0833 168.014,-44.0346"/>
</g>
<!-- Node7 -->
<g id="node13" class="node"><title>Node7</title>
<a xlink:href="../../de/dc5/class_u_b_action_palette.html#a2a996cf0d279955a5322800493ad0119" target="_top" xlink:title="UBActionPalette::actionChanged">
<polygon fill="white" stroke="black" points="544.5,-0.5 544.5,-21.5 705.5,-21.5 705.5,-0.5 544.5,-0.5"/>
<text text-anchor="middle" x="625" y="-8.5" font-family="Helvetica,sans-Serif" font-size="10.00">UBActionPalette::actionChanged</text>
</a>
</g>
<!-- Node1&#45;&gt;Node7 -->
<g id="edge14" class="edge"><title>Node1&#45;&gt;Node7</title>
<path fill="none" stroke="midnightblue" d="M142.009,-26.6928C242.097,-23.4409 424.671,-17.5089 534.411,-13.9433"/>
<polygon fill="midnightblue" stroke="midnightblue" points="534.59,-17.4395 544.471,-13.6165 534.363,-10.4431 534.59,-17.4395"/>
</g>
<!-- Node3 -->
<g id="node5" class="node"><title>Node3</title>
<a xlink:href="../../de/dc5/class_u_b_action_palette.html#af55ffe5dc6a804711b1ae31e76cfedb3" target="_top" xlink:title="UBActionPalette::createPalette\lButton">
<polygon fill="white" stroke="black" points="354.5,-36 354.5,-70 507.5,-70 507.5,-36 354.5,-36"/>
<text text-anchor="start" x="362.5" y="-57" font-family="Helvetica,sans-Serif" font-size="10.00">UBActionPalette::createPalette</text>
<text text-anchor="middle" x="431" y="-44" font-family="Helvetica,sans-Serif" font-size="10.00">Button</text>
</a>
</g>
<!-- Node2&#45;&gt;Node3 -->
<g id="edge4" class="edge"><title>Node2&#45;&gt;Node3</title>
<path fill="none" stroke="midnightblue" d="M317.706,-51.1427C326.44,-51.2859 335.454,-51.4337 344.406,-51.5804"/>
<polygon fill="midnightblue" stroke="midnightblue" points="344.411,-55.0809 354.467,-51.7454 344.526,-48.0818 344.411,-55.0809"/>
</g>
<!-- Node4 -->
<g id="node7" class="node"><title>Node4</title>
<a xlink:href="../../de/dc5/class_u_b_action_palette.html#a40216f168183eecab89bcbafd56cbefd" target="_top" xlink:title="UBActionPalette::buttonClicked">
<polygon fill="white" stroke="black" points="547.5,-42.5 547.5,-63.5 702.5,-63.5 702.5,-42.5 547.5,-42.5"/>
<text text-anchor="middle" x="625" y="-50.5" font-family="Helvetica,sans-Serif" font-size="10.00">UBActionPalette::buttonClicked</text>
</a>
</g>
<!-- Node3&#45;&gt;Node4 -->
<g id="edge6" class="edge"><title>Node3&#45;&gt;Node4</title>
<path fill="none" stroke="midnightblue" d="M507.674,-53C517.342,-53 527.293,-53 537.118,-53"/>
<polygon fill="midnightblue" stroke="midnightblue" points="537.294,-56.5001 547.293,-53 537.293,-49.5001 537.294,-56.5001"/>
</g>
<!-- Node3&#45;&gt;Node7 -->
<g id="edge12" class="edge"><title>Node3&#45;&gt;Node7</title>
<path fill="none" stroke="midnightblue" d="M507.674,-36.4005C527.244,-32.1636 547.97,-27.6765 566.469,-23.6717"/>
<polygon fill="midnightblue" stroke="midnightblue" points="567.462,-27.0378 576.495,-21.501 565.981,-20.1963 567.462,-27.0378"/>
</g>
<!-- Node5 -->
<g id="node9" class="node"><title>Node5</title>
<a xlink:href="../../de/dc5/class_u_b_action_palette.html#a23c62043071f0e7691a0dbdfcc20a2dd" target="_top" xlink:title="UBActionPalette::close">
<polygon fill="white" stroke="black" points="742.5,-42.5 742.5,-63.5 861.5,-63.5 861.5,-42.5 742.5,-42.5"/>
<text text-anchor="middle" x="802" y="-50.5" font-family="Helvetica,sans-Serif" font-size="10.00">UBActionPalette::close</text>
</a>
</g>
<!-- Node4&#45;&gt;Node5 -->
<g id="edge8" class="edge"><title>Node4&#45;&gt;Node5</title>
<path fill="none" stroke="midnightblue" d="M702.635,-53C712.389,-53 722.323,-53 731.951,-53"/>
<polygon fill="midnightblue" stroke="midnightblue" points="732.256,-56.5001 742.256,-53 732.256,-49.5001 732.256,-56.5001"/>
</g>
<!-- Node6 -->
<g id="node11" class="node"><title>Node6</title>
<a xlink:href="../../de/dc5/class_u_b_action_palette.html#aa1e453b054ded51a722466d5dbfb7d39" target="_top" xlink:title="UBActionPalette::closed">
<polygon fill="white" stroke="black" points="898,-42.5 898,-63.5 1022,-63.5 1022,-42.5 898,-42.5"/>
<text text-anchor="middle" x="960" y="-50.5" font-family="Helvetica,sans-Serif" font-size="10.00">UBActionPalette::closed</text>
</a>
</g>
<!-- Node5&#45;&gt;Node6 -->
<g id="edge10" class="edge"><title>Node5&#45;&gt;Node6</title>
<path fill="none" stroke="midnightblue" d="M861.733,-53C870.212,-53 879.007,-53 887.693,-53"/>
<polygon fill="midnightblue" stroke="midnightblue" points="887.815,-56.5001 897.815,-53 887.815,-49.5001 887.815,-56.5001"/>
</g>
</g>
</svg>
        <g id="navigator" transform="translate(0 0)" fill="#404254">
                <rect fill="#f2f5e9" fill-opacity="0.5" stroke="#606060" stroke-width=".5" x="0" y="0" width="60" height="60"/>
                <use id="zoomplus" xlink:href="#zoomPlus" x="17" y="9" onmousedown="handleZoom(evt,'in')"/>
                <use id="zoomminus" xlink:href="#zoomMin" x="42" y="9" onmousedown="handleZoom(evt,'out')"/>
                <use id="reset" xlink:href="#resetDef" x="30" y="36" onmousedown="handleReset()"/>
                <g id="arrowUp" xlink:href="#dirArrow" transform="translate(30 24)" onmousedown="handlePan(0,-1)">
                  <use xlink:href="#rim" fill="#404040">
                        <set attributeName="fill" to="#808080" begin="arrowUp.mouseover" end="arrowUp.mouseout"/>
                  </use>
                  <path fill="none" stroke="white" stroke-width="1.5" d="M0,-3.0v7 M-2.5,-0.5L0,-3.0L2.5,-0.5"/>
                </g>
                <g id="arrowRight" xlink:href="#dirArrow" transform="rotate(90) translate(36 -43)" onmousedown="handlePan(1,0)">
                  <use xlink:href="#rim" fill="#404040">
                        <set attributeName="fill" to="#808080" begin="arrowRight.mouseover" end="arrowRight.mouseout"/>
                  </use>
                  <path fill="none" stroke="white" stroke-width="1.5" d="M0,-3.0v7 M-2.5,-0.5L0,-3.0L2.5,-0.5"/>
                </g>
                <g id="arrowDown" xlink:href="#dirArrow" transform="rotate(180) translate(-30 -48)" onmousedown="handlePan(0,1)">
                  <use xlink:href="#rim" fill="#404040">
                        <set attributeName="fill" to="#808080" begin="arrowDown.mouseover" end="arrowDown.mouseout"/>
                  </use>
                  <path fill="none" stroke="white" stroke-width="1.5" d="M0,-3.0v7 M-2.5,-0.5L0,-3.0L2.5,-0.5"/>
                </g>
                <g id="arrowLeft" xlink:href="#dirArrow" transform="rotate(270) translate(-36 17)" onmousedown="handlePan(-1,0)">
                  <use xlink:href="#rim" fill="#404040">
                        <set attributeName="fill" to="#808080" begin="arrowLeft.mouseover" end="arrowLeft.mouseout"/>
                  </use>
                  <path fill="none" stroke="white" stroke-width="1.5" d="M0,-3.0v7 M-2.5,-0.5L0,-3.0L2.5,-0.5"/>
                </g>
        </g>
        <svg viewBox="0 0 15 15" width="100%" height="30px" preserveAspectRatio="xMaxYMin meet">
         <g id="arrow_out" transform="scale(0.3 0.3)">
          <a xlink:href="class_u_b_action_palette_ae928fec429c08192e49470821f3006f4_cgraph_org.svg" target="_base">
           <rect id="button" ry="5" rx="5" y="6" x="6" height="38" width="38"
                fill="#f2f5e9" fill-opacity="0.5" stroke="#606060" stroke-width="1.0"/>
           <path id="arrow"
             d="M 11.500037,31.436501 C 11.940474,20.09759 22.043105,11.32322 32.158766,21.979434 L 37.068811,17.246167 C 37.068811,17.246167 37.088388,32 37.088388,32 L 22.160133,31.978069 C 22.160133,31.978069 26.997745,27.140456 26.997745,27.140456 C 18.528582,18.264221 13.291696,25.230495 11.500037,31.436501 z"
             style="fill:#404040;"/>
          </a>
         </g>
        </svg>
</svg>
