<?xml version="1.0" encoding="UTF-8" standalone="no"?>
<!DOCTYPE svg PUBLIC "-//W3C//DTD SVG 1.1//EN"
 "http://www.w3.org/Graphics/SVG/1.1/DTD/svg11.dtd">
<!-- Generated by graphviz version 2.26.3 (20100126.1600)
 -->
<!-- Title: UBActionPalette::setAutoClose Pages: 1 -->
<svg width="468pt" height="42pt"
 viewBox="0.00 0.00 468.00 42.00" xmlns="http://www.w3.org/2000/svg" xmlns:xlink="http://www.w3.org/1999/xlink">
<g id="graph1" class="graph" transform="scale(1 1) rotate(0) translate(4 38)">
<title>UBActionPalette::setAutoClose</title>
<polygon fill="white" stroke="white" points="-4,5 -4,-38 465,-38 465,5 -4,5"/>
<!-- Node1 -->
<g id="node1" class="node"><title>Node1</title>
<polygon fill="#bfbfbf" stroke="black" points="0.5,-0 0.5,-34 129.5,-34 129.5,-0 0.5,-0"/>
<text text-anchor="start" x="8.5" y="-21" font-family="Helvetica,sans-Serif" font-size="10.00">UBActionPalette::setAuto</text>
<text text-anchor="middle" x="65" y="-8" font-family="Helvetica,sans-Serif" font-size="10.00">Close</text>
</g>
<!-- Node2 -->
<g id="node3" class="node"><title>Node2</title>
<a xlink:href="../../dc/d38/class_u_b_board_palette_manager.html#afbcd2e3da2af2a26bb84dddd061a9c5a" target="_top" xlink:title="UBBoardPaletteManager\l::setupPalettes">
<polygon fill="white" stroke="black" points="166.5,-0 166.5,-34 291.5,-34 291.5,-0 166.5,-0"/>
<text text-anchor="start" x="174.5" y="-21" font-family="Helvetica,sans-Serif" font-size="10.00">UBBoardPaletteManager</text>
<text text-anchor="middle" x="229" y="-8" font-family="Helvetica,sans-Serif" font-size="10.00">::setupPalettes</text>
</a>
</g>
<!-- Node1&#45;&gt;Node2 -->
<g id="edge2" class="edge"><title>Node1&#45;&gt;Node2</title>
<path fill="none" stroke="midnightblue" d="M140.038,-17C148.806,-17 157.682,-17 166.26,-17"/>
<polygon fill="midnightblue" stroke="midnightblue" points="139.817,-13.5001 129.817,-17 139.817,-20.5001 139.817,-13.5001"/>
</g>
<!-- Node3 -->
<g id="node5" class="node"><title>Node3</title>
<a xlink:href="../../dc/d38/class_u_b_board_palette_manager.html#ab2ca22bf5af16f59e273a72731a138ae" target="_top" xlink:title="UBBoardPaletteManager\l::UBBoardPaletteManager">
<polygon fill="white" stroke="black" points="328.5,-0 328.5,-34 459.5,-34 459.5,-0 328.5,-0"/>
<text text-anchor="start" x="336.5" y="-21" font-family="Helvetica,sans-Serif" font-size="10.00">UBBoardPaletteManager</text>
<text text-anchor="middle" x="394" y="-8" font-family="Helvetica,sans-Serif" font-size="10.00">::UBBoardPaletteManager</text>
</a>
</g>
<!-- Node2&#45;&gt;Node3 -->
<g id="edge4" class="edge"><title>Node2&#45;&gt;Node3</title>
<path fill="none" stroke="midnightblue" d="M302.031,-17C310.78,-17 319.673,-17 328.309,-17"/>
<polygon fill="midnightblue" stroke="midnightblue" points="301.85,-13.5001 291.85,-17 301.85,-20.5001 301.85,-13.5001"/>
</g>
</g>
</svg>
