<?xml version="1.0" encoding="UTF-8" standalone="no"?>
<!DOCTYPE svg PUBLIC "-//W3C//DTD SVG 1.1//EN"
 "http://www.w3.org/Graphics/SVG/1.1/DTD/svg11.dtd">
<!-- Generated by graphviz version 2.26.3 (20100126.1600)
 -->
<!-- Title: UBActionPalette::closed Pages: 1 -->
<svg width="488pt" height="250pt"
 viewBox="0.00 0.00 488.00 250.00" xmlns="http://www.w3.org/2000/svg" xmlns:xlink="http://www.w3.org/1999/xlink">
<g id="graph1" class="graph" transform="scale(1 1) rotate(0) translate(4 246)">
<title>UBActionPalette::closed</title>
<polygon fill="white" stroke="white" points="-4,5 -4,-246 485,-246 485,5 -4,5"/>
<!-- Node1 -->
<g id="node1" class="node"><title>Node1</title>
<polygon fill="#bfbfbf" stroke="black" points="0,-74.5 0,-95.5 124,-95.5 124,-74.5 0,-74.5"/>
<text text-anchor="middle" x="62" y="-82.5" font-family="Helvetica,sans-Serif" font-size="10.00">UBActionPalette::closed</text>
</g>
<!-- Node2 -->
<g id="node3" class="node"><title>Node2</title>
<a xlink:href="../../de/dc5/class_u_b_action_palette.html#a23c62043071f0e7691a0dbdfcc20a2dd" target="_top" xlink:title="UBActionPalette::close">
<polygon fill="white" stroke="black" points="161.5,-110.5 161.5,-131.5 280.5,-131.5 280.5,-110.5 161.5,-110.5"/>
<text text-anchor="middle" x="221" y="-118.5" font-family="Helvetica,sans-Serif" font-size="10.00">UBActionPalette::close</text>
</a>
</g>
<!-- Node1&#45;&gt;Node2 -->
<g id="edge2" class="edge"><title>Node1&#45;&gt;Node2</title>
<path fill="none" stroke="midnightblue" d="M118.412,-97.7725C136.787,-101.933 156.964,-106.501 174.526,-110.477"/>
<polygon fill="midnightblue" stroke="midnightblue" points="118.943,-94.3042 108.417,-95.5095 117.397,-101.131 118.943,-94.3042"/>
</g>
<!-- Node7 -->
<g id="node13" class="node"><title>Node7</title>
<a xlink:href="../../d6/d6e/class_u_b_keyboard_palette.html#a17a1566aada47c89954068f3bcbd4e2d" target="_top" xlink:title="UBKeyboardPalette::init">
<polygon fill="white" stroke="black" points="160,-38.5 160,-59.5 282,-59.5 282,-38.5 160,-38.5"/>
<text text-anchor="middle" x="221" y="-46.5" font-family="Helvetica,sans-Serif" font-size="10.00">UBKeyboardPalette::init</text>
</a>
</g>
<!-- Node1&#45;&gt;Node7 -->
<g id="edge12" class="edge"><title>Node1&#45;&gt;Node7</title>
<path fill="none" stroke="midnightblue" d="M118.412,-72.2275C136.787,-68.0672 156.964,-63.4988 174.526,-59.5225"/>
<polygon fill="midnightblue" stroke="midnightblue" points="117.397,-68.8686 108.417,-74.4905 118.943,-75.6958 117.397,-68.8686"/>
</g>
<!-- Node3 -->
<g id="node5" class="node"><title>Node3</title>
<a xlink:href="../../de/dd8/class_u_b_desktop_pen_palette.html#aef31c4aef4db735b604264cdf7818427" target="_top" xlink:title="UBDesktopPenPalette\l::UBDesktopPenPalette">
<polygon fill="white" stroke="black" points="338,-208 338,-242 460,-242 460,-208 338,-208"/>
<text text-anchor="start" x="346" y="-229" font-family="Helvetica,sans-Serif" font-size="10.00">UBDesktopPenPalette</text>
<text text-anchor="middle" x="399" y="-216" font-family="Helvetica,sans-Serif" font-size="10.00">::UBDesktopPenPalette</text>
</a>
</g>
<!-- Node2&#45;&gt;Node3 -->
<g id="edge4" class="edge"><title>Node2&#45;&gt;Node3</title>
<path fill="none" stroke="midnightblue" d="M238.751,-138.672C257.171,-156.145 287.504,-182.58 318,-199 324.242,-202.361 330.991,-205.376 337.837,-208.056"/>
<polygon fill="midnightblue" stroke="midnightblue" points="241.019,-135.996 231.395,-131.566 236.155,-141.031 241.019,-135.996"/>
</g>
<!-- Node4 -->
<g id="node7" class="node"><title>Node4</title>
<a xlink:href="../../d5/d5e/class_u_b_desktop_eraser_palette.html#a120edf48766c1aa8db17b106a93f7e73" target="_top" xlink:title="UBDesktopEraserPalette\l::UBDesktopEraserPalette">
<polygon fill="white" stroke="black" points="332.5,-156 332.5,-190 465.5,-190 465.5,-156 332.5,-156"/>
<text text-anchor="start" x="340.5" y="-177" font-family="Helvetica,sans-Serif" font-size="10.00">UBDesktopEraserPalette</text>
<text text-anchor="middle" x="399" y="-164" font-family="Helvetica,sans-Serif" font-size="10.00">::UBDesktopEraserPalette</text>
</a>
</g>
<!-- Node2&#45;&gt;Node4 -->
<g id="edge6" class="edge"><title>Node2&#45;&gt;Node4</title>
<path fill="none" stroke="midnightblue" d="M266.667,-134.341C289.181,-140.918 316.588,-148.925 340.608,-155.942"/>
<polygon fill="midnightblue" stroke="midnightblue" points="267.601,-130.968 257.021,-131.523 265.638,-137.687 267.601,-130.968"/>
</g>
<!-- Node5 -->
<g id="node9" class="node"><title>Node5</title>
<a xlink:href="../../dc/d7b/class_u_b_desktop_marker_palette.html#ab9e24b301b52b1d303e0e9f3915b9ad9" target="_top" xlink:title="UBDesktopMarkerPalette\l::UBDesktopMarkerPalette">
<polygon fill="white" stroke="black" points="332,-104 332,-138 466,-138 466,-104 332,-104"/>
<text text-anchor="start" x="340" y="-125" font-family="Helvetica,sans-Serif" font-size="10.00">UBDesktopMarkerPalette</text>
<text text-anchor="middle" x="399" y="-112" font-family="Helvetica,sans-Serif" font-size="10.00">::UBDesktopMarkerPalette</text>
</a>
</g>
<!-- Node2&#45;&gt;Node5 -->
<g id="edge8" class="edge"><title>Node2&#45;&gt;Node5</title>
<path fill="none" stroke="midnightblue" d="M290.899,-121C304.332,-121 318.375,-121 331.724,-121"/>
<polygon fill="midnightblue" stroke="midnightblue" points="290.767,-117.5 280.767,-121 290.767,-124.5 290.767,-117.5"/>
</g>
<!-- Node6 -->
<g id="node11" class="node"><title>Node6</title>
<a xlink:href="../../de/dc5/class_u_b_action_palette.html#ac2780ac183ab9614a28199e252f0d447" target="_top" xlink:title="UBActionPalette::mouseRelease\lEvent">
<polygon fill="white" stroke="black" points="318.5,-52 318.5,-86 479.5,-86 479.5,-52 318.5,-52"/>
<text text-anchor="start" x="326.5" y="-73" font-family="Helvetica,sans-Serif" font-size="10.00">UBActionPalette::mouseRelease</text>
<text text-anchor="middle" x="399" y="-60" font-family="Helvetica,sans-Serif" font-size="10.00">Event</text>
</a>
</g>
<!-- Node2&#45;&gt;Node6 -->
<g id="edge10" class="edge"><title>Node2&#45;&gt;Node6</title>
<path fill="none" stroke="midnightblue" d="M266.667,-107.659C289.181,-101.082 316.588,-93.0754 340.608,-86.0582"/>
<polygon fill="midnightblue" stroke="midnightblue" points="265.638,-104.313 257.021,-110.477 267.601,-111.032 265.638,-104.313"/>
</g>
<!-- Node8 -->
<g id="node15" class="node"><title>Node8</title>
<a xlink:href="../../d6/d6e/class_u_b_keyboard_palette.html#aa37fa74f921fa125b304707b858c4d24" target="_top" xlink:title="UBKeyboardPalette:\l:UBKeyboardPalette">
<polygon fill="white" stroke="black" points="346,-0 346,-34 452,-34 452,-0 346,-0"/>
<text text-anchor="start" x="354" y="-21" font-family="Helvetica,sans-Serif" font-size="10.00">UBKeyboardPalette:</text>
<text text-anchor="middle" x="399" y="-8" font-family="Helvetica,sans-Serif" font-size="10.00">:UBKeyboardPalette</text>
</a>
</g>
<!-- Node7&#45;&gt;Node8 -->
<g id="edge14" class="edge"><title>Node7&#45;&gt;Node8</title>
<path fill="none" stroke="midnightblue" d="M289.706,-36.6484C308.384,-33.2905 328.323,-29.706 345.987,-26.5305"/>
<polygon fill="midnightblue" stroke="midnightblue" points="289,-33.2191 279.777,-38.4333 290.239,-40.1086 289,-33.2191"/>
</g>
</g>
</svg>
