<?xml version="1.0" encoding="UTF-8" standalone="no"?>
<!DOCTYPE svg PUBLIC "-//W3C//DTD SVG 1.1//EN"
 "http://www.w3.org/Graphics/SVG/1.1/DTD/svg11.dtd">
<!-- Generated by graphviz version 2.26.3 (20100126.1600)
 -->
<!-- Title: UBFeaturesController::moveToTrash Pages: 1 -->
<!--zoomable 680 -->
<svg id="main" version="1.1" xmlns="http://www.w3.org/2000/svg" xmlns:xlink="http://www.w3.org/1999/xlink" xml:space="preserve" onload="init(evt)">
        <defs>
                <circle id="rim" cx="0" cy="0" r="7"/>
                <circle id="rim2" cx="0" cy="0" r="3.5"/>
                <g id="zoomPlus">
                        <use xlink:href="#rim" fill="#404040">
                                <set attributeName="fill" to="#808080" begin="zoomplus.mouseover" end="zoomplus.mouseout"/>
                        </use>
                        <path d="M-4,0h8M0,-4v8" fill="none" stroke="white" stroke-width="1.5" pointer-events="none"/>
                </g>
                <g id="zoomMin">
                        <use xlink:href="#rim" fill="#404040">
                                <set attributeName="fill" to="#808080" begin="zoomminus.mouseover" end="zoomminus.mouseout"/>
                        </use>
                        <path d="M-4,0h8" fill="none" stroke="white" stroke-width="1.5" pointer-events="none"/>
                </g>
                <g id="dirArrow">
                        <path fill="none" stroke="white" stroke-width="1.5" d="M0,-3.0v7 M-2.5,-0.5L0,-3.0L2.5,-0.5"/>
                </g>
               <g id="resetDef">
                       <use xlink:href="#rim2" fill="#404040">
                               <set attributeName="fill" to="#808080" begin="reset.mouseover" end="reset.mouseout"/>
                       </use>
               </g>
        </defs>

<script type="text/javascript">
var viewWidth = 1110;
var viewHeight = 680;
var sectionId = 'dynsection-57';
</script>
<script xlink:href="../../svgpan.js"/>
<svg id="graph" class="graph">
<g id="viewport">
<title>UBFeaturesController::moveToTrash</title>
<polygon fill="white" stroke="white" points="-4,5 -4,-676 1107,-676 1107,5 -4,5"/>
<!-- Node1 -->
<g id="node1" class="node"><title>Node1</title>
<polygon fill="#bfbfbf" stroke="black" points="0.5,-134 0.5,-168 111.5,-168 111.5,-134 0.5,-134"/>
<text text-anchor="start" x="8.5" y="-155" font-family="Helvetica,sans-Serif" font-size="10.00">UBFeaturesController</text>
<text text-anchor="middle" x="56" y="-142" font-family="Helvetica,sans-Serif" font-size="10.00">::moveToTrash</text>
</g>
<!-- Node2 -->
<g id="node3" class="node"><title>Node2</title>
<a xlink:href="../../d5/d7a/class_u_b_features_model.html#ad30ab5e1a702838c8664cbfcebad1606" target="_top" xlink:title="UBFeaturesModel::moveData">
<polygon fill="white" stroke="black" points="152,-381.5 152,-402.5 298,-402.5 298,-381.5 152,-381.5"/>
<text text-anchor="middle" x="225" y="-389.5" font-family="Helvetica,sans-Serif" font-size="10.00">UBFeaturesModel::moveData</text>
</a>
</g>
<!-- Node1&#45;&gt;Node2 -->
<g id="edge2" class="edge"><title>Node1&#45;&gt;Node2</title>
<path fill="none" stroke="midnightblue" d="M68.1541,-168.332C98.8838,-212.154 179.513,-327.134 211.573,-372.853"/>
<polygon fill="midnightblue" stroke="midnightblue" points="208.868,-375.092 217.476,-381.27 214.6,-371.073 208.868,-375.092"/>
</g>
<!-- Node3 -->
<g id="node5" class="node"><title>Node3</title>
<a xlink:href="../../db/d98/class_u_b_feature.html#a4ceaa848c777bba908e70888cc8b0008" target="_top" xlink:title="UBFeature::getFullPath">
<polygon fill="white" stroke="black" points="369.5,-650.5 369.5,-671.5 488.5,-671.5 488.5,-650.5 369.5,-650.5"/>
<text text-anchor="middle" x="429" y="-658.5" font-family="Helvetica,sans-Serif" font-size="10.00">UBFeature::getFullPath</text>
</a>
</g>
<!-- Node1&#45;&gt;Node3 -->
<g id="edge66" class="edge"><title>Node1&#45;&gt;Node3</title>
<path fill="none" stroke="midnightblue" d="M59.7887,-168.061C69.7965,-211.06 99.5441,-326.528 148,-412 213.222,-527.046 225.067,-572.183 338,-641 344.604,-645.024 351.916,-648.243 359.441,-650.817"/>
<polygon fill="midnightblue" stroke="midnightblue" points="358.462,-654.178 369.048,-653.744 360.502,-647.482 358.462,-654.178"/>
</g>
<!-- Node21 -->
<g id="node42" class="node"><title>Node21</title>
<a xlink:href="../../d2/d9e/struct_category_data.html#a12f08c37bc3241d3346228a5b262c4fa" target="_top" xlink:title="CategoryData::categoryFeature">
<polygon fill="white" stroke="black" points="148,-72.5 148,-93.5 302,-93.5 302,-72.5 148,-72.5"/>
<text text-anchor="middle" x="225" y="-80.5" font-family="Helvetica,sans-Serif" font-size="10.00">CategoryData::categoryFeature</text>
</a>
</g>
<!-- Node1&#45;&gt;Node21 -->
<g id="edge42" class="edge"><title>Node1&#45;&gt;Node21</title>
<path fill="none" stroke="midnightblue" d="M84.6301,-133.908C102.401,-123.85 125.976,-111.479 148,-103 154.235,-100.599 160.863,-98.392 167.514,-96.3904"/>
<polygon fill="midnightblue" stroke="midnightblue" points="168.58,-99.7257 177.229,-93.6065 166.652,-92.9965 168.58,-99.7257"/>
</g>
<!-- Node22 -->
<g id="node44" class="node"><title>Node22</title>
<a xlink:href="../../d8/d33/class_u_b_features_controller.html#ac441a13d4bfca4a13e712cce6857bffc" target="_top" xlink:title="UBFeaturesController\l::removeFromFavorite">
<polygon fill="white" stroke="black" points="168.5,-112 168.5,-146 281.5,-146 281.5,-112 168.5,-112"/>
<text text-anchor="start" x="176.5" y="-133" font-family="Helvetica,sans-Serif" font-size="10.00">UBFeaturesController</text>
<text text-anchor="middle" x="225" y="-120" font-family="Helvetica,sans-Serif" font-size="10.00">::removeFromFavorite</text>
</a>
</g>
<!-- Node1&#45;&gt;Node22 -->
<g id="edge44" class="edge"><title>Node1&#45;&gt;Node22</title>
<path fill="none" stroke="midnightblue" d="M111.805,-143.735C126.711,-141.795 142.969,-139.679 158.394,-137.671"/>
<polygon fill="midnightblue" stroke="midnightblue" points="158.922,-141.131 168.387,-136.37 158.019,-134.19 158.922,-141.131"/>
</g>
<!-- Node31 -->
<g id="node62" class="node"><title>Node31</title>
<a xlink:href="../../d5/d7a/class_u_b_features_model.html#a4f5b07854d8eb551451e6e1c591fcd52" target="_top" xlink:title="UBFeaturesModel::deleteFavoriteItem">
<polygon fill="white" stroke="black" points="338,-118.5 338,-139.5 520,-139.5 520,-118.5 338,-118.5"/>
<text text-anchor="middle" x="429" y="-126.5" font-family="Helvetica,sans-Serif" font-size="10.00">UBFeaturesModel::deleteFavoriteItem</text>
</a>
</g>
<!-- Node1&#45;&gt;Node31 -->
<g id="edge68" class="edge"><title>Node1&#45;&gt;Node31</title>
<path fill="none" stroke="midnightblue" d="M111.937,-153.821C123.838,-154.312 136.332,-154.746 148,-155 216.428,-156.487 233.904,-161.899 302,-155 315.71,-153.611 345.365,-147.601 372.573,-141.709"/>
<polygon fill="midnightblue" stroke="midnightblue" points="373.428,-145.105 382.452,-139.553 371.935,-138.266 373.428,-145.105"/>
</g>
<!-- Node32 -->
<g id="node67" class="node"><title>Node32</title>
<a xlink:href="../../d8/d33/class_u_b_features_controller.html#a8592ae0251869b74f510efa3a8a9b457" target="_top" xlink:title="UBFeaturesController\l::fileNameFromUrl">
<polygon fill="white" stroke="black" points="169.5,-20 169.5,-54 280.5,-54 280.5,-20 169.5,-20"/>
<text text-anchor="start" x="177.5" y="-41" font-family="Helvetica,sans-Serif" font-size="10.00">UBFeaturesController</text>
<text text-anchor="middle" x="225" y="-28" font-family="Helvetica,sans-Serif" font-size="10.00">::fileNameFromUrl</text>
</a>
</g>
<!-- Node1&#45;&gt;Node32 -->
<g id="edge70" class="edge"><title>Node1&#45;&gt;Node32</title>
<path fill="none" stroke="midnightblue" d="M69.8793,-133.771C86.541,-114.12 116.236,-82.2313 148,-63 151.838,-60.6764 155.91,-58.529 160.1,-56.5497"/>
<polygon fill="midnightblue" stroke="midnightblue" points="161.649,-59.6922 169.412,-52.4823 158.847,-53.2774 161.649,-59.6922"/>
</g>
<!-- Node2&#45;&gt;Node3 -->
<g id="edge4" class="edge"><title>Node2&#45;&gt;Node3</title>
<path fill="none" stroke="midnightblue" d="M231.06,-402.773C244.697,-427.241 278.443,-489.066 302,-543 320.573,-585.522 303.04,-610.489 338,-641 344.238,-646.444 351.62,-650.511 359.439,-653.534"/>
<polygon fill="midnightblue" stroke="midnightblue" points="358.552,-656.926 369.145,-656.725 360.738,-650.276 358.552,-656.926"/>
</g>
<!-- Node4 -->
<g id="node7" class="node"><title>Node4</title>
<a xlink:href="../../db/d98/class_u_b_feature.html#abe1b7ac8f7fe9f69c3b2a467733aaa8b" target="_top" xlink:title="UBFeature::getVirtualPath">
<polygon fill="white" stroke="black" points="363.5,-610.5 363.5,-631.5 494.5,-631.5 494.5,-610.5 363.5,-610.5"/>
<text text-anchor="middle" x="429" y="-618.5" font-family="Helvetica,sans-Serif" font-size="10.00">UBFeature::getVirtualPath</text>
</a>
</g>
<!-- Node2&#45;&gt;Node4 -->
<g id="edge6" class="edge"><title>Node2&#45;&gt;Node4</title>
<path fill="none" stroke="midnightblue" d="M230.392,-402.548C251.649,-444.048 328.92,-594.158 338,-601 342.8,-604.617 348.124,-607.605 353.718,-610.071"/>
<polygon fill="midnightblue" stroke="midnightblue" points="352.753,-613.449 363.344,-613.747 355.25,-606.91 352.753,-613.449"/>
</g>
<!-- Node5 -->
<g id="node9" class="node"><title>Node5</title>
<a xlink:href="../../db/d98/class_u_b_feature.html#a9e48a4ed3645dd5e1aea16d73ce4feff" target="_top" xlink:title="UBFeature::getType">
<polygon fill="white" stroke="black" points="376.5,-570.5 376.5,-591.5 481.5,-591.5 481.5,-570.5 376.5,-570.5"/>
<text text-anchor="middle" x="429" y="-578.5" font-family="Helvetica,sans-Serif" font-size="10.00">UBFeature::getType</text>
</a>
</g>
<!-- Node2&#45;&gt;Node5 -->
<g id="edge8" class="edge"><title>Node2&#45;&gt;Node5</title>
<path fill="none" stroke="midnightblue" d="M228.867,-402.793C240.311,-433.089 277.072,-519.416 338,-561 346.417,-566.745 356.203,-570.873 366.173,-573.833"/>
<polygon fill="midnightblue" stroke="midnightblue" points="365.604,-577.301 376.162,-576.42 367.359,-570.524 365.604,-577.301"/>
</g>
<!-- Node6 -->
<g id="node11" class="node"><title>Node6</title>
<a xlink:href="../../db/d98/class_u_b_feature.html#a624b02d751fd78a6698e51d3ef645e2e" target="_top" xlink:title="UBFeature::getThumbnail">
<polygon fill="white" stroke="black" points="365,-530.5 365,-551.5 493,-551.5 493,-530.5 365,-530.5"/>
<text text-anchor="middle" x="429" y="-538.5" font-family="Helvetica,sans-Serif" font-size="10.00">UBFeature::getThumbnail</text>
</a>
</g>
<!-- Node2&#45;&gt;Node6 -->
<g id="edge10" class="edge"><title>Node2&#45;&gt;Node6</title>
<path fill="none" stroke="midnightblue" d="M231.052,-402.713C245.802,-427.771 286.228,-490.395 338,-521 343.391,-524.187 349.234,-526.868 355.267,-529.122"/>
<polygon fill="midnightblue" stroke="midnightblue" points="354.274,-532.48 364.868,-532.325 356.49,-525.84 354.274,-532.48"/>
</g>
<!-- Node7 -->
<g id="node13" class="node"><title>Node7</title>
<a xlink:href="../../db/d98/class_u_b_feature.html#a175da54d5e0d135c43b44009601a1380" target="_top" xlink:title="UBFeature::getFullVirtualPath">
<polygon fill="white" stroke="black" points="355.5,-490.5 355.5,-511.5 502.5,-511.5 502.5,-490.5 355.5,-490.5"/>
<text text-anchor="middle" x="429" y="-498.5" font-family="Helvetica,sans-Serif" font-size="10.00">UBFeature::getFullVirtualPath</text>
</a>
</g>
<!-- Node2&#45;&gt;Node7 -->
<g id="edge12" class="edge"><title>Node2&#45;&gt;Node7</title>
<path fill="none" stroke="midnightblue" d="M235.107,-402.652C253.638,-421.516 295.107,-460.716 338,-481 343.027,-483.377 348.344,-485.476 353.784,-487.33"/>
<polygon fill="midnightblue" stroke="midnightblue" points="353.082,-490.777 363.67,-490.407 355.162,-484.093 353.082,-490.777"/>
</g>
<!-- Node8 -->
<g id="node15" class="node"><title>Node8</title>
<a xlink:href="../../d2/d7a/class_u_b_file_system_utils.html#a6fbd2eaf3729eead6e9a8a85e230af96" target="_top" xlink:title="UBFileSystemUtils::copy">
<polygon fill="white" stroke="black" points="365,-450.5 365,-471.5 493,-471.5 493,-450.5 365,-450.5"/>
<text text-anchor="middle" x="429" y="-458.5" font-family="Helvetica,sans-Serif" font-size="10.00">UBFileSystemUtils::copy</text>
</a>
</g>
<!-- Node2&#45;&gt;Node8 -->
<g id="edge14" class="edge"><title>Node2&#45;&gt;Node8</title>
<path fill="none" stroke="midnightblue" d="M246.186,-402.657C268.544,-413.551 305.04,-430.342 338,-441 345.965,-443.576 354.428,-445.927 362.863,-448.04"/>
<polygon fill="midnightblue" stroke="midnightblue" points="362.179,-451.475 372.72,-450.41 363.815,-444.669 362.179,-451.475"/>
</g>
<!-- Node11 -->
<g id="node22" class="node"><title>Node11</title>
<a xlink:href="../../d8/d33/class_u_b_features_controller.html#a5b6f8bf56a0ddac3270956cd51a132cf" target="_top" xlink:title="UBFeaturesController\l::deleteItem">
<polygon fill="white" stroke="black" points="373.5,-398 373.5,-432 484.5,-432 484.5,-398 373.5,-398"/>
<text text-anchor="start" x="381.5" y="-419" font-family="Helvetica,sans-Serif" font-size="10.00">UBFeaturesController</text>
<text text-anchor="middle" x="429" y="-406" font-family="Helvetica,sans-Serif" font-size="10.00">::deleteItem</text>
</a>
</g>
<!-- Node2&#45;&gt;Node11 -->
<g id="edge22" class="edge"><title>Node2&#45;&gt;Node11</title>
<path fill="none" stroke="midnightblue" d="M298.072,-400.239C319.393,-402.642 342.551,-405.253 363.38,-407.602"/>
<polygon fill="midnightblue" stroke="midnightblue" points="363.071,-411.089 373.4,-408.731 363.855,-404.133 363.071,-411.089"/>
</g>
<!-- Node14 -->
<g id="node28" class="node"><title>Node14</title>
<a xlink:href="../../db/d98/class_u_b_feature.html#a0eb5ba733c1e431896544808b130300f" target="_top" xlink:title="UBFeature::setFullPath">
<polygon fill="white" stroke="black" points="369.5,-358.5 369.5,-379.5 488.5,-379.5 488.5,-358.5 369.5,-358.5"/>
<text text-anchor="middle" x="429" y="-366.5" font-family="Helvetica,sans-Serif" font-size="10.00">UBFeature::setFullPath</text>
</a>
</g>
<!-- Node2&#45;&gt;Node14 -->
<g id="edge28" class="edge"><title>Node2&#45;&gt;Node14</title>
<path fill="none" stroke="midnightblue" d="M298.072,-383.761C317.933,-381.522 339.389,-379.103 359.072,-376.884"/>
<polygon fill="midnightblue" stroke="midnightblue" points="359.64,-380.342 369.185,-375.744 358.855,-373.386 359.64,-380.342"/>
</g>
<!-- Node15 -->
<g id="node30" class="node"><title>Node15</title>
<a xlink:href="../../db/d98/class_u_b_feature.html#a8f3a6a2de89aff39d6ee29ca4e12e1bd" target="_top" xlink:title="UBFeature::setPermissions">
<polygon fill="white" stroke="black" points="360.5,-318.5 360.5,-339.5 497.5,-339.5 497.5,-318.5 360.5,-318.5"/>
<text text-anchor="middle" x="429" y="-326.5" font-family="Helvetica,sans-Serif" font-size="10.00">UBFeature::setPermissions</text>
</a>
</g>
<!-- Node2&#45;&gt;Node15 -->
<g id="edge30" class="edge"><title>Node2&#45;&gt;Node15</title>
<path fill="none" stroke="midnightblue" d="M249.77,-381.363C272.424,-371.926 307.024,-358.243 338,-349 346.651,-346.419 355.855,-344.012 364.961,-341.827"/>
<polygon fill="midnightblue" stroke="midnightblue" points="365.824,-345.22 374.771,-339.545 364.238,-338.402 365.824,-345.22"/>
</g>
<!-- Node16 -->
<g id="node32" class="node"><title>Node16</title>
<a xlink:href="../../db/d98/class_u_b_feature.html#afdae8ba02969f87bb67322a609ae4f7d" target="_top" xlink:title="UBFeature::getPermissions">
<polygon fill="white" stroke="black" points="360.5,-278.5 360.5,-299.5 497.5,-299.5 497.5,-278.5 360.5,-278.5"/>
<text text-anchor="middle" x="429" y="-286.5" font-family="Helvetica,sans-Serif" font-size="10.00">UBFeature::getPermissions</text>
</a>
</g>
<!-- Node2&#45;&gt;Node16 -->
<g id="edge32" class="edge"><title>Node2&#45;&gt;Node16</title>
<path fill="none" stroke="midnightblue" d="M236.164,-381.251C255.35,-363.403 296.529,-327.765 338,-309 343.381,-306.565 349.079,-304.418 354.893,-302.526"/>
<polygon fill="midnightblue" stroke="midnightblue" points="356.175,-305.795 364.753,-299.576 354.169,-299.089 356.175,-305.795"/>
</g>
<!-- Node17 -->
<g id="node34" class="node"><title>Node17</title>
<a xlink:href="../../db/d98/class_u_b_feature.html#a58695954a19840ff0b9776ef949367ca" target="_top" xlink:title="UBFeature::setFullVirtualPath">
<polygon fill="white" stroke="black" points="355.5,-238.5 355.5,-259.5 502.5,-259.5 502.5,-238.5 355.5,-238.5"/>
<text text-anchor="middle" x="429" y="-246.5" font-family="Helvetica,sans-Serif" font-size="10.00">UBFeature::setFullVirtualPath</text>
</a>
</g>
<!-- Node2&#45;&gt;Node17 -->
<g id="edge34" class="edge"><title>Node2&#45;&gt;Node17</title>
<path fill="none" stroke="midnightblue" d="M231.41,-381.432C246.63,-357.314 287.478,-298.064 338,-269 341.707,-266.868 345.619,-264.962 349.653,-263.26"/>
<polygon fill="midnightblue" stroke="midnightblue" points="351.128,-266.445 359.253,-259.645 348.661,-259.894 351.128,-266.445"/>
</g>
<!-- Node18 -->
<g id="node36" class="node"><title>Node18</title>
<a xlink:href="../../d5/d7a/class_u_b_features_model.html#ac904dec2116695af0fdc95f23d3940f2" target="_top" xlink:title="UBFeaturesModel::addItem">
<polygon fill="white" stroke="black" points="360.5,-198.5 360.5,-219.5 497.5,-219.5 497.5,-198.5 360.5,-198.5"/>
<text text-anchor="middle" x="429" y="-206.5" font-family="Helvetica,sans-Serif" font-size="10.00">UBFeaturesModel::addItem</text>
</a>
</g>
<!-- Node2&#45;&gt;Node18 -->
<g id="edge36" class="edge"><title>Node2&#45;&gt;Node18</title>
<path fill="none" stroke="midnightblue" d="M229.153,-381.163C241.092,-351.559 278.505,-268.876 338,-229 341.989,-226.326 346.277,-224.004 350.74,-221.987"/>
<polygon fill="midnightblue" stroke="midnightblue" points="352.11,-225.209 360.109,-218.262 349.523,-218.704 352.11,-225.209"/>
</g>
<!-- Node19 -->
<g id="node38" class="node"><title>Node19</title>
<a xlink:href="../../d5/d7a/class_u_b_features_model.html#a73c6727d3fd9f3dc2bdb0b62ab27370c" target="_top" xlink:title="UBFeaturesModel::deleteItem">
<polygon fill="white" stroke="black" points="355.5,-158.5 355.5,-179.5 502.5,-179.5 502.5,-158.5 355.5,-158.5"/>
<text text-anchor="middle" x="429" y="-166.5" font-family="Helvetica,sans-Serif" font-size="10.00">UBFeaturesModel::deleteItem</text>
</a>
</g>
<!-- Node2&#45;&gt;Node19 -->
<g id="edge38" class="edge"><title>Node2&#45;&gt;Node19</title>
<path fill="none" stroke="midnightblue" d="M227.659,-381.082C236.616,-346.759 269.068,-240.28 338,-189 340.515,-187.129 343.17,-185.427 345.93,-183.879"/>
<polygon fill="midnightblue" stroke="midnightblue" points="347.596,-186.961 355.058,-179.44 344.534,-180.666 347.596,-186.961"/>
</g>
<!-- Node9 -->
<g id="node17" class="node"><title>Node9</title>
<a xlink:href="../../d2/d7a/class_u_b_file_system_utils.html#a8289391e8ff8c366727435455aa8a733" target="_top" xlink:title="UBFileSystemUtils:\l:copyDir">
<polygon fill="white" stroke="black" points="581,-496 581,-530 685,-530 685,-496 581,-496"/>
<text text-anchor="start" x="589" y="-517" font-family="Helvetica,sans-Serif" font-size="10.00">UBFileSystemUtils:</text>
<text text-anchor="middle" x="633" y="-504" font-family="Helvetica,sans-Serif" font-size="10.00">:copyDir</text>
</a>
</g>
<!-- Node8&#45;&gt;Node9 -->
<g id="edge16" class="edge"><title>Node8&#45;&gt;Node9</title>
<path fill="none" stroke="midnightblue" d="M479.666,-471.574C492.835,-474.476 506.979,-477.729 520,-481 536.54,-485.156 554.334,-490.012 570.798,-494.667"/>
<polygon fill="midnightblue" stroke="midnightblue" points="570.277,-498.158 580.854,-497.531 572.195,-491.426 570.277,-498.158"/>
</g>
<!-- Node10 -->
<g id="node19" class="node"><title>Node10</title>
<a xlink:href="../../d2/d7a/class_u_b_file_system_utils.html#a21fb5e77a59d910b4aa94a0e71f04578" target="_top" xlink:title="UBFileSystemUtils:\l:copyFile">
<polygon fill="white" stroke="black" points="581,-444 581,-478 685,-478 685,-444 581,-444"/>
<text text-anchor="start" x="589" y="-465" font-family="Helvetica,sans-Serif" font-size="10.00">UBFileSystemUtils:</text>
<text text-anchor="middle" x="633" y="-452" font-family="Helvetica,sans-Serif" font-size="10.00">:copyFile</text>
</a>
</g>
<!-- Node8&#45;&gt;Node10 -->
<g id="edge18" class="edge"><title>Node8&#45;&gt;Node10</title>
<path fill="none" stroke="midnightblue" d="M493.267,-454.678C517.997,-454.091 546.172,-454.108 570.713,-454.727"/>
<polygon fill="midnightblue" stroke="midnightblue" points="570.888,-458.234 580.987,-455.029 571.094,-451.237 570.888,-458.234"/>
</g>
<!-- Node10&#45;&gt;Node8 -->
<g id="edge20" class="edge"><title>Node10&#45;&gt;Node8</title>
<path fill="none" stroke="midnightblue" d="M580.987,-466.971C557.421,-467.769 529.125,-467.954 503.371,-467.525"/>
<polygon fill="midnightblue" stroke="midnightblue" points="503.335,-464.024 493.267,-467.322 503.194,-471.022 503.335,-464.024"/>
</g>
<!-- Node12 -->
<g id="node24" class="node"><title>Node12</title>
<a xlink:href="../../d2/d7a/class_u_b_file_system_utils.html#aad4d371b5e6400a42c44bec5f26ec5fd" target="_top" xlink:title="UBFileSystemUtils:\l:thumbnailPath">
<polygon fill="white" stroke="black" points="581,-392 581,-426 685,-426 685,-392 581,-392"/>
<text text-anchor="start" x="589" y="-413" font-family="Helvetica,sans-Serif" font-size="10.00">UBFileSystemUtils:</text>
<text text-anchor="middle" x="633" y="-400" font-family="Helvetica,sans-Serif" font-size="10.00">:thumbnailPath</text>
</a>
</g>
<!-- Node11&#45;&gt;Node12 -->
<g id="edge24" class="edge"><title>Node11&#45;&gt;Node12</title>
<path fill="none" stroke="midnightblue" d="M484.744,-413.36C511.314,-412.579 543.197,-411.641 570.576,-410.836"/>
<polygon fill="midnightblue" stroke="midnightblue" points="570.936,-414.327 580.829,-410.534 570.73,-407.33 570.936,-414.327"/>
</g>
<!-- Node13 -->
<g id="node26" class="node"><title>Node13</title>
<a xlink:href="../../d2/d7a/class_u_b_file_system_utils.html#aff7b8489683cdec07a5ad696571138f4" target="_top" xlink:title="UBFileSystemUtils:\l:deleteDir">
<polygon fill="white" stroke="black" points="581,-340 581,-374 685,-374 685,-340 581,-340"/>
<text text-anchor="start" x="589" y="-361" font-family="Helvetica,sans-Serif" font-size="10.00">UBFileSystemUtils:</text>
<text text-anchor="middle" x="633" y="-348" font-family="Helvetica,sans-Serif" font-size="10.00">:deleteDir</text>
</a>
</g>
<!-- Node11&#45;&gt;Node13 -->
<g id="edge26" class="edge"><title>Node11&#45;&gt;Node13</title>
<path fill="none" stroke="midnightblue" d="M484.744,-399.151C511.431,-391.564 543.478,-382.452 570.938,-374.645"/>
<polygon fill="midnightblue" stroke="midnightblue" points="572.167,-377.934 580.829,-371.833 570.253,-371.201 572.167,-377.934"/>
</g>
<!-- Node20 -->
<g id="node40" class="node"><title>Node20</title>
<a xlink:href="../../d5/d7a/class_u_b_features_model.html#a56acbe53b62456a7b3681162e7710e7a" target="_top" xlink:title="UBFeaturesModel::removeRow">
<polygon fill="white" stroke="black" points="556,-138.5 556,-159.5 710,-159.5 710,-138.5 556,-138.5"/>
<text text-anchor="middle" x="633" y="-146.5" font-family="Helvetica,sans-Serif" font-size="10.00">UBFeaturesModel::removeRow</text>
</a>
</g>
<!-- Node19&#45;&gt;Node20 -->
<g id="edge40" class="edge"><title>Node19&#45;&gt;Node20</title>
<path fill="none" stroke="midnightblue" d="M502.649,-161.78C516.516,-160.42 531.143,-158.986 545.388,-157.589"/>
<polygon fill="midnightblue" stroke="midnightblue" points="546.066,-161.04 555.676,-156.581 545.383,-154.073 546.066,-161.04"/>
</g>
<!-- Node23 -->
<g id="node46" class="node"><title>Node23</title>
<a xlink:href="../../d8/d33/class_u_b_features_controller.html#a506840b8854ab756bf4a5170841e4058" target="_top" xlink:title="UBFeaturesController\l::saveFavoriteList">
<polygon fill="white" stroke="black" points="373.5,-66 373.5,-100 484.5,-100 484.5,-66 373.5,-66"/>
<text text-anchor="start" x="381.5" y="-87" font-family="Helvetica,sans-Serif" font-size="10.00">UBFeaturesController</text>
<text text-anchor="middle" x="429" y="-74" font-family="Helvetica,sans-Serif" font-size="10.00">::saveFavoriteList</text>
</a>
</g>
<!-- Node22&#45;&gt;Node23 -->
<g id="edge46" class="edge"><title>Node22&#45;&gt;Node23</title>
<path fill="none" stroke="midnightblue" d="M281.554,-116.248C306.962,-110.518 337.098,-103.723 363.484,-97.7733"/>
<polygon fill="midnightblue" stroke="midnightblue" points="364.409,-101.153 373.395,-95.5385 362.87,-94.324 364.409,-101.153"/>
</g>
<!-- Node22&#45;&gt;Node31 -->
<g id="edge62" class="edge"><title>Node22&#45;&gt;Node31</title>
<path fill="none" stroke="midnightblue" d="M281.554,-129C295.87,-129 311.687,-129 327.488,-129"/>
<polygon fill="midnightblue" stroke="midnightblue" points="327.854,-132.5 337.854,-129 327.854,-125.5 327.854,-132.5"/>
</g>
<!-- Node24 -->
<g id="node48" class="node"><title>Node24</title>
<a xlink:href="../../db/d66/class_u_b_settings.html#af38d2ad231149df734ca7b5486356500" target="_top" xlink:title="UBSettings::userDataDirectory">
<polygon fill="white" stroke="black" points="557,-72.5 557,-93.5 709,-93.5 709,-72.5 557,-72.5"/>
<text text-anchor="middle" x="633" y="-80.5" font-family="Helvetica,sans-Serif" font-size="10.00">UBSettings::userDataDirectory</text>
</a>
</g>
<!-- Node23&#45;&gt;Node24 -->
<g id="edge48" class="edge"><title>Node23&#45;&gt;Node24</title>
<path fill="none" stroke="midnightblue" d="M484.744,-83C503.803,-83 525.597,-83 546.501,-83"/>
<polygon fill="midnightblue" stroke="midnightblue" points="546.675,-86.5001 556.675,-83 546.675,-79.5001 546.675,-86.5001"/>
</g>
<!-- Node25 -->
<g id="node50" class="node"><title>Node25</title>
<a xlink:href="../../db/d66/class_u_b_settings.html#a2d3413f8b25d64a698d6d83e0f18ff39" target="_top" xlink:title="UBSettings::getAppSettings">
<polygon fill="white" stroke="black" points="748,-133.5 748,-154.5 888,-154.5 888,-133.5 748,-133.5"/>
<text text-anchor="middle" x="818" y="-141.5" font-family="Helvetica,sans-Serif" font-size="10.00">UBSettings::getAppSettings</text>
</a>
</g>
<!-- Node24&#45;&gt;Node25 -->
<g id="edge50" class="edge"><title>Node24&#45;&gt;Node25</title>
<path fill="none" stroke="midnightblue" d="M661.644,-93.6429C684.396,-101.974 717.083,-113.673 746,-123 754.016,-125.586 762.578,-128.205 770.899,-130.677"/>
<polygon fill="midnightblue" stroke="midnightblue" points="769.927,-134.039 780.508,-133.499 771.9,-127.323 769.927,-134.039"/>
</g>
<!-- Node27 -->
<g id="node54" class="node"><title>Node27</title>
<a xlink:href="../../db/d66/class_u_b_settings.html#aea5fec9db96c03162c2ce1d5d4c41ab0" target="_top" xlink:title="UBSettings::replaceWildcard">
<polygon fill="white" stroke="black" points="746.5,-92.5 746.5,-113.5 889.5,-113.5 889.5,-92.5 746.5,-92.5"/>
<text text-anchor="middle" x="818" y="-100.5" font-family="Helvetica,sans-Serif" font-size="10.00">UBSettings::replaceWildcard</text>
</a>
</g>
<!-- Node24&#45;&gt;Node27 -->
<g id="edge54" class="edge"><title>Node24&#45;&gt;Node27</title>
<path fill="none" stroke="midnightblue" d="M709.047,-91.2213C718.026,-92.192 727.219,-93.1858 736.271,-94.1645"/>
<polygon fill="midnightblue" stroke="midnightblue" points="736.096,-97.6658 746.414,-95.261 736.848,-90.7064 736.096,-97.6658"/>
</g>
<!-- Node29 -->
<g id="node58" class="node"><title>Node29</title>
<a xlink:href="../../db/d66/class_u_b_settings.html#ac0b3c85870c353e48b7d2cfdff9e0eaa" target="_top" xlink:title="UBSettings::checkDirectory">
<polygon fill="white" stroke="black" points="748.5,-52.5 748.5,-73.5 887.5,-73.5 887.5,-52.5 748.5,-52.5"/>
<text text-anchor="middle" x="818" y="-60.5" font-family="Helvetica,sans-Serif" font-size="10.00">UBSettings::checkDirectory</text>
</a>
</g>
<!-- Node24&#45;&gt;Node29 -->
<g id="edge58" class="edge"><title>Node24&#45;&gt;Node29</title>
<path fill="none" stroke="midnightblue" d="M709.047,-74.7787C718.737,-73.7311 728.675,-72.6567 738.419,-71.6034"/>
<polygon fill="midnightblue" stroke="midnightblue" points="738.917,-75.07 748.483,-70.5153 738.165,-68.1105 738.917,-75.07"/>
</g>
<!-- Node30 -->
<g id="node60" class="node"><title>Node30</title>
<a xlink:href="../../d2/d7a/class_u_b_file_system_utils.html#af850f64fdd630fc78510c856f00ffa4f" target="_top" xlink:title="UBFileSystemUtils:\l:normalizeFilePath">
<polygon fill="white" stroke="black" points="766,-0 766,-34 870,-34 870,-0 766,-0"/>
<text text-anchor="start" x="774" y="-21" font-family="Helvetica,sans-Serif" font-size="10.00">UBFileSystemUtils:</text>
<text text-anchor="middle" x="818" y="-8" font-family="Helvetica,sans-Serif" font-size="10.00">:normalizeFilePath</text>
</a>
</g>
<!-- Node24&#45;&gt;Node30 -->
<g id="edge60" class="edge"><title>Node24&#45;&gt;Node30</title>
<path fill="none" stroke="midnightblue" d="M662.723,-72.396C689.011,-63.0175 728.108,-49.0697 760.492,-37.5164"/>
<polygon fill="midnightblue" stroke="midnightblue" points="762.063,-40.6721 770.305,-34.0154 759.711,-34.0791 762.063,-40.6721"/>
</g>
<!-- Node26 -->
<g id="node52" class="node"><title>Node26</title>
<a xlink:href="../../d4/d99/class_u_b_platform_utils.html#ae595b29e794b20564550fd45515fc0a8" target="_top" xlink:title="UBPlatformUtils::application\lResourcesDirectory">
<polygon fill="white" stroke="black" points="944,-130 944,-164 1084,-164 1084,-130 944,-130"/>
<text text-anchor="start" x="952" y="-151" font-family="Helvetica,sans-Serif" font-size="10.00">UBPlatformUtils::application</text>
<text text-anchor="middle" x="1014" y="-138" font-family="Helvetica,sans-Serif" font-size="10.00">ResourcesDirectory</text>
</a>
</g>
<!-- Node25&#45;&gt;Node26 -->
<g id="edge52" class="edge"><title>Node25&#45;&gt;Node26</title>
<path fill="none" stroke="midnightblue" d="M888.207,-145.075C902.933,-145.3 918.572,-145.539 933.635,-145.77"/>
<polygon fill="midnightblue" stroke="midnightblue" points="933.902,-149.274 943.954,-145.928 934.009,-142.275 933.902,-149.274"/>
</g>
<!-- Node28 -->
<g id="node56" class="node"><title>Node28</title>
<a xlink:href="../../d4/d99/class_u_b_platform_utils.html#a4ff6063df12b6d4d0c60c1a17b434599" target="_top" xlink:title="UBPlatformUtils::osUserLoginName">
<polygon fill="white" stroke="black" points="926.5,-90.5 926.5,-111.5 1101.5,-111.5 1101.5,-90.5 926.5,-90.5"/>
<text text-anchor="middle" x="1014" y="-98.5" font-family="Helvetica,sans-Serif" font-size="10.00">UBPlatformUtils::osUserLoginName</text>
</a>
</g>
<!-- Node27&#45;&gt;Node28 -->
<g id="edge56" class="edge"><title>Node27&#45;&gt;Node28</title>
<path fill="none" stroke="midnightblue" d="M889.592,-102.269C898.253,-102.181 907.211,-102.09 916.167,-101.998"/>
<polygon fill="midnightblue" stroke="midnightblue" points="916.298,-105.497 926.261,-101.895 916.226,-98.4976 916.298,-105.497"/>
</g>
<!-- Node31&#45;&gt;Node20 -->
<g id="edge64" class="edge"><title>Node31&#45;&gt;Node20</title>
<path fill="none" stroke="midnightblue" d="M520.26,-137.947C528.707,-138.775 537.253,-139.613 545.664,-140.438"/>
<polygon fill="midnightblue" stroke="midnightblue" points="545.546,-143.943 555.84,-141.435 546.229,-136.976 545.546,-143.943"/>
</g>
</g>
</svg>
        <g id="navigator" transform="translate(0 0)" fill="#404254">
                <rect fill="#f2f5e9" fill-opacity="0.5" stroke="#606060" stroke-width=".5" x="0" y="0" width="60" height="60"/>
                <use id="zoomplus" xlink:href="#zoomPlus" x="17" y="9" onmousedown="handleZoom(evt,'in')"/>
                <use id="zoomminus" xlink:href="#zoomMin" x="42" y="9" onmousedown="handleZoom(evt,'out')"/>
                <use id="reset" xlink:href="#resetDef" x="30" y="36" onmousedown="handleReset()"/>
                <g id="arrowUp" xlink:href="#dirArrow" transform="translate(30 24)" onmousedown="handlePan(0,-1)">
                  <use xlink:href="#rim" fill="#404040">
                        <set attributeName="fill" to="#808080" begin="arrowUp.mouseover" end="arrowUp.mouseout"/>
                  </use>
                  <path fill="none" stroke="white" stroke-width="1.5" d="M0,-3.0v7 M-2.5,-0.5L0,-3.0L2.5,-0.5"/>
                </g>
                <g id="arrowRight" xlink:href="#dirArrow" transform="rotate(90) translate(36 -43)" onmousedown="handlePan(1,0)">
                  <use xlink:href="#rim" fill="#404040">
                        <set attributeName="fill" to="#808080" begin="arrowRight.mouseover" end="arrowRight.mouseout"/>
                  </use>
                  <path fill="none" stroke="white" stroke-width="1.5" d="M0,-3.0v7 M-2.5,-0.5L0,-3.0L2.5,-0.5"/>
                </g>
                <g id="arrowDown" xlink:href="#dirArrow" transform="rotate(180) translate(-30 -48)" onmousedown="handlePan(0,1)">
                  <use xlink:href="#rim" fill="#404040">
                        <set attributeName="fill" to="#808080" begin="arrowDown.mouseover" end="arrowDown.mouseout"/>
                  </use>
                  <path fill="none" stroke="white" stroke-width="1.5" d="M0,-3.0v7 M-2.5,-0.5L0,-3.0L2.5,-0.5"/>
                </g>
                <g id="arrowLeft" xlink:href="#dirArrow" transform="rotate(270) translate(-36 17)" onmousedown="handlePan(-1,0)">
                  <use xlink:href="#rim" fill="#404040">
                        <set attributeName="fill" to="#808080" begin="arrowLeft.mouseover" end="arrowLeft.mouseout"/>
                  </use>
                  <path fill="none" stroke="white" stroke-width="1.5" d="M0,-3.0v7 M-2.5,-0.5L0,-3.0L2.5,-0.5"/>
                </g>
        </g>
        <svg viewBox="0 0 15 15" width="100%" height="30px" preserveAspectRatio="xMaxYMin meet">
         <g id="arrow_out" transform="scale(0.3 0.3)">
          <a xlink:href="class_u_b_features_controller_abf82ec95b8742869c7463f968c584164_cgraph_org.svg" target="_base">
           <rect id="button" ry="5" rx="5" y="6" x="6" height="38" width="38"
                fill="#f2f5e9" fill-opacity="0.5" stroke="#606060" stroke-width="1.0"/>
           <path id="arrow"
             d="M 11.500037,31.436501 C 11.940474,20.09759 22.043105,11.32322 32.158766,21.979434 L 37.068811,17.246167 C 37.068811,17.246167 37.088388,32 37.088388,32 L 22.160133,31.978069 C 22.160133,31.978069 26.997745,27.140456 26.997745,27.140456 C 18.528582,18.264221 13.291696,25.230495 11.500037,31.436501 z"
             style="fill:#404040;"/>
          </a>
         </g>
        </svg>
</svg>
