<?xml version="1.0" encoding="UTF-8" standalone="no"?>
<!DOCTYPE svg PUBLIC "-//W3C//DTD SVG 1.1//EN"
 "http://www.w3.org/Graphics/SVG/1.1/DTD/svg11.dtd">
<!-- Generated by graphviz version 2.26.3 (20100126.1600)
 -->
<!-- Title: UBFeaturesController::createThumbnail Pages: 1 -->
<!--zoomable 146 -->
<svg id="main" version="1.1" xmlns="http://www.w3.org/2000/svg" xmlns:xlink="http://www.w3.org/1999/xlink" xml:space="preserve" onload="init(evt)">
        <defs>
                <circle id="rim" cx="0" cy="0" r="7"/>
                <circle id="rim2" cx="0" cy="0" r="3.5"/>
                <g id="zoomPlus">
                        <use xlink:href="#rim" fill="#404040">
                                <set attributeName="fill" to="#808080" begin="zoomplus.mouseover" end="zoomplus.mouseout"/>
                        </use>
                        <path d="M-4,0h8M0,-4v8" fill="none" stroke="white" stroke-width="1.5" pointer-events="none"/>
                </g>
                <g id="zoomMin">
                        <use xlink:href="#rim" fill="#404040">
                                <set attributeName="fill" to="#808080" begin="zoomminus.mouseover" end="zoomminus.mouseout"/>
                        </use>
                        <path d="M-4,0h8" fill="none" stroke="white" stroke-width="1.5" pointer-events="none"/>
                </g>
                <g id="dirArrow">
                        <path fill="none" stroke="white" stroke-width="1.5" d="M0,-3.0v7 M-2.5,-0.5L0,-3.0L2.5,-0.5"/>
                </g>
               <g id="resetDef">
                       <use xlink:href="#rim2" fill="#404040">
                               <set attributeName="fill" to="#808080" begin="reset.mouseover" end="reset.mouseout"/>
                       </use>
               </g>
        </defs>

<script type="text/javascript">
var viewWidth = 874;
var viewHeight = 146;
var sectionId = 'dynsection-22';
</script>
<script xlink:href="../../svgpan.js"/>
<svg id="graph" class="graph">
<g id="viewport">
<title>UBFeaturesController::createThumbnail</title>
<polygon fill="white" stroke="white" points="-4,5 -4,-142 871,-142 871,5 -4,5"/>
<!-- Node1 -->
<g id="node1" class="node"><title>Node1</title>
<polygon fill="#bfbfbf" stroke="black" points="0.5,-52 0.5,-86 111.5,-86 111.5,-52 0.5,-52"/>
<text text-anchor="start" x="8.5" y="-73" font-family="Helvetica,sans-Serif" font-size="10.00">UBFeaturesController</text>
<text text-anchor="middle" x="56" y="-60" font-family="Helvetica,sans-Serif" font-size="10.00">::createThumbnail</text>
</g>
<!-- Node2 -->
<g id="node3" class="node"><title>Node2</title>
<a xlink:href="../../d8/d33/class_u_b_features_controller.html#acd936b126d7479f4e62b9f3e5ee218b3" target="_top" xlink:title="UBFeaturesController\l::createBookmark">
<polygon fill="white" stroke="black" points="148.5,-104 148.5,-138 259.5,-138 259.5,-104 148.5,-104"/>
<text text-anchor="start" x="156.5" y="-125" font-family="Helvetica,sans-Serif" font-size="10.00">UBFeaturesController</text>
<text text-anchor="middle" x="204" y="-112" font-family="Helvetica,sans-Serif" font-size="10.00">::createBookmark</text>
</a>
</g>
<!-- Node1&#45;&gt;Node2 -->
<g id="edge2" class="edge"><title>Node1&#45;&gt;Node2</title>
<path fill="none" stroke="midnightblue" d="M114.232,-89.4601C127.873,-94.2527 142.263,-99.3087 155.43,-103.935"/>
<polygon fill="midnightblue" stroke="midnightblue" points="115.056,-86.0396 104.461,-86.0267 112.735,-92.6438 115.056,-86.0396"/>
</g>
<!-- Node9 -->
<g id="node17" class="node"><title>Node9</title>
<a xlink:href="../../d8/d33/class_u_b_features_controller.html#abb30e018775b9f1b24af1417a95591f0" target="_top" xlink:title="UBFeaturesController\l::createLink">
<polygon fill="white" stroke="black" points="148.5,-52 148.5,-86 259.5,-86 259.5,-52 148.5,-52"/>
<text text-anchor="start" x="156.5" y="-73" font-family="Helvetica,sans-Serif" font-size="10.00">UBFeaturesController</text>
<text text-anchor="middle" x="204" y="-60" font-family="Helvetica,sans-Serif" font-size="10.00">::createLink</text>
</a>
</g>
<!-- Node1&#45;&gt;Node9 -->
<g id="edge16" class="edge"><title>Node1&#45;&gt;Node9</title>
<path fill="none" stroke="midnightblue" d="M121.768,-69C130.576,-69 139.542,-69 148.158,-69"/>
<polygon fill="midnightblue" stroke="midnightblue" points="121.531,-65.5001 111.531,-69 121.531,-72.5001 121.531,-65.5001"/>
</g>
<!-- Node11 -->
<g id="node22" class="node"><title>Node11</title>
<a xlink:href="../../d8/d33/class_u_b_features_controller.html#a7d71c50db359949131a49e2a1f46524f" target="_top" xlink:title="UBFeaturesController\l::importImage">
<polygon fill="white" stroke="black" points="148.5,-0 148.5,-34 259.5,-34 259.5,-0 148.5,-0"/>
<text text-anchor="start" x="156.5" y="-21" font-family="Helvetica,sans-Serif" font-size="10.00">UBFeaturesController</text>
<text text-anchor="middle" x="204" y="-8" font-family="Helvetica,sans-Serif" font-size="10.00">::importImage</text>
</a>
</g>
<!-- Node1&#45;&gt;Node11 -->
<g id="edge22" class="edge"><title>Node1&#45;&gt;Node11</title>
<path fill="none" stroke="midnightblue" d="M114.232,-48.5399C127.873,-43.7473 142.263,-38.6913 155.43,-34.065"/>
<polygon fill="midnightblue" stroke="midnightblue" points="112.735,-45.3562 104.461,-51.9733 115.056,-51.9604 112.735,-45.3562"/>
</g>
<!-- Node3 -->
<g id="node5" class="node"><title>Node3</title>
<a xlink:href="../../d5/d85/class_u_b_features_widget.html#af136c56999bd58253550b801bd878861" target="_top" xlink:title="UBFeaturesWidget::create\lBookmark">
<polygon fill="white" stroke="black" points="305.5,-104 305.5,-138 438.5,-138 438.5,-104 305.5,-104"/>
<text text-anchor="start" x="313.5" y="-125" font-family="Helvetica,sans-Serif" font-size="10.00">UBFeaturesWidget::create</text>
<text text-anchor="middle" x="372" y="-112" font-family="Helvetica,sans-Serif" font-size="10.00">Bookmark</text>
</a>
</g>
<!-- Node2&#45;&gt;Node3 -->
<g id="edge4" class="edge"><title>Node2&#45;&gt;Node3</title>
<path fill="none" stroke="midnightblue" d="M269.974,-121C281.557,-121 293.62,-121 305.225,-121"/>
<polygon fill="midnightblue" stroke="midnightblue" points="269.942,-117.5 259.942,-121 269.942,-124.5 269.942,-117.5"/>
</g>
<!-- Node4 -->
<g id="node7" class="node"><title>Node4</title>
<a xlink:href="../../d9/d3a/class_u_b_trap_web_page_content_controller.html#adc738e0c68ed861cce64a1389d2aee5d" target="_top" xlink:title="UBTrapWebPageContentController\l::addLink">
<polygon fill="white" stroke="black" points="484,-52 484,-86 654,-86 654,-52 484,-52"/>
<text text-anchor="start" x="492" y="-73" font-family="Helvetica,sans-Serif" font-size="10.00">UBTrapWebPageContentController</text>
<text text-anchor="middle" x="569" y="-60" font-family="Helvetica,sans-Serif" font-size="10.00">::addLink</text>
</a>
</g>
<!-- Node3&#45;&gt;Node4 -->
<g id="edge6" class="edge"><title>Node3&#45;&gt;Node4</title>
<path fill="none" stroke="midnightblue" d="M446.35,-101.375C465.432,-96.3378 485.802,-90.9608 504.35,-86.065"/>
<polygon fill="midnightblue" stroke="midnightblue" points="445.281,-98.0369 436.505,-103.973 447.067,-104.805 445.281,-98.0369"/>
</g>
<!-- Node7 -->
<g id="node13" class="node"><title>Node7</title>
<a xlink:href="../../df/d50/class_u_b_web_controller.html#a1c968fdcb4f2075a984356ff375316bc" target="_top" xlink:title="UBWebController::onAction\lBookmark">
<polygon fill="white" stroke="black" points="500.5,-104 500.5,-138 637.5,-138 637.5,-104 500.5,-104"/>
<text text-anchor="start" x="508.5" y="-125" font-family="Helvetica,sans-Serif" font-size="10.00">UBWebController::onAction</text>
<text text-anchor="middle" x="569" y="-112" font-family="Helvetica,sans-Serif" font-size="10.00">Bookmark</text>
</a>
</g>
<!-- Node3&#45;&gt;Node7 -->
<g id="edge12" class="edge"><title>Node3&#45;&gt;Node7</title>
<path fill="none" stroke="midnightblue" d="M449.093,-121C466.005,-121 483.803,-121 500.358,-121"/>
<polygon fill="midnightblue" stroke="midnightblue" points="448.695,-117.5 438.695,-121 448.695,-124.5 448.695,-117.5"/>
</g>
<!-- Node5 -->
<g id="node9" class="node"><title>Node5</title>
<a xlink:href="../../d9/d3a/class_u_b_trap_web_page_content_controller.html#a2c3abe64d01d7cc3b5e97e7dbf06cc4b" target="_top" xlink:title="UBTrapWebPageContentController\l::addLinkToLibrary">
<polygon fill="white" stroke="black" points="693,-55 693,-89 863,-89 863,-55 693,-55"/>
<text text-anchor="start" x="701" y="-76" font-family="Helvetica,sans-Serif" font-size="10.00">UBTrapWebPageContentController</text>
<text text-anchor="middle" x="778" y="-63" font-family="Helvetica,sans-Serif" font-size="10.00">::addLinkToLibrary</text>
</a>
</g>
<!-- Node4&#45;&gt;Node5 -->
<g id="edge8" class="edge"><title>Node4&#45;&gt;Node5</title>
<path fill="none" stroke="midnightblue" d="M664.255,-70.3673C673.749,-70.5036 683.346,-70.6413 692.728,-70.776"/>
<polygon fill="midnightblue" stroke="midnightblue" points="664.058,-66.8642 654.008,-70.2202 663.957,-73.8635 664.058,-66.8642"/>
</g>
<!-- Node6 -->
<g id="node11" class="node"><title>Node6</title>
<a xlink:href="../../d9/d3a/class_u_b_trap_web_page_content_controller.html#a9e18874e464df8ae3ea8f154334bd758" target="_top" xlink:title="UBTrapWebPageContentController\l::addLinkToBoard">
<polygon fill="white" stroke="black" points="693,-3 693,-37 863,-37 863,-3 693,-3"/>
<text text-anchor="start" x="701" y="-24" font-family="Helvetica,sans-Serif" font-size="10.00">UBTrapWebPageContentController</text>
<text text-anchor="middle" x="778" y="-11" font-family="Helvetica,sans-Serif" font-size="10.00">::addLinkToBoard</text>
</a>
</g>
<!-- Node4&#45;&gt;Node6 -->
<g id="edge10" class="edge"><title>Node4&#45;&gt;Node6</title>
<path fill="none" stroke="midnightblue" d="M651.304,-49.7039C669.122,-45.5264 687.843,-41.1373 705.263,-37.0532"/>
<polygon fill="midnightblue" stroke="midnightblue" points="650.449,-46.3094 641.512,-51.9997 652.046,-53.1246 650.449,-46.3094"/>
</g>
<!-- Node8 -->
<g id="node15" class="node"><title>Node8</title>
<a xlink:href="../../df/d50/class_u_b_web_controller.html#ad520d21522662fba52976d79aaff4cfd" target="_top" xlink:title="UBWebController::UBWebController">
<polygon fill="white" stroke="black" points="690,-110.5 690,-131.5 866,-131.5 866,-110.5 690,-110.5"/>
<text text-anchor="middle" x="778" y="-118.5" font-family="Helvetica,sans-Serif" font-size="10.00">UBWebController::UBWebController</text>
</a>
</g>
<!-- Node7&#45;&gt;Node8 -->
<g id="edge14" class="edge"><title>Node7&#45;&gt;Node8</title>
<path fill="none" stroke="midnightblue" d="M648.028,-121C661.682,-121 675.954,-121 689.831,-121"/>
<polygon fill="midnightblue" stroke="midnightblue" points="647.724,-117.5 637.724,-121 647.724,-124.5 647.724,-117.5"/>
</g>
<!-- Node10 -->
<g id="node19" class="node"><title>Node10</title>
<a xlink:href="../../d5/d85/class_u_b_features_widget.html#ab83c320466c7891343ffa9d08aa2998d" target="_top" xlink:title="UBFeaturesWidget::createLink">
<polygon fill="white" stroke="black" points="296.5,-58.5 296.5,-79.5 447.5,-79.5 447.5,-58.5 296.5,-58.5"/>
<text text-anchor="middle" x="372" y="-66.5" font-family="Helvetica,sans-Serif" font-size="10.00">UBFeaturesWidget::createLink</text>
</a>
</g>
<!-- Node9&#45;&gt;Node10 -->
<g id="edge18" class="edge"><title>Node9&#45;&gt;Node10</title>
<path fill="none" stroke="midnightblue" d="M270.218,-69C278.769,-69 287.578,-69 296.267,-69"/>
<polygon fill="midnightblue" stroke="midnightblue" points="269.942,-65.5001 259.942,-69 269.942,-72.5001 269.942,-65.5001"/>
</g>
<!-- Node10&#45;&gt;Node4 -->
<g id="edge20" class="edge"><title>Node10&#45;&gt;Node4</title>
<path fill="none" stroke="midnightblue" d="M457.675,-69C466.323,-69 475.105,-69 483.748,-69"/>
<polygon fill="midnightblue" stroke="midnightblue" points="457.602,-65.5001 447.602,-69 457.602,-72.5001 457.602,-65.5001"/>
</g>
</g>
</svg>
        <g id="navigator" transform="translate(0 0)" fill="#404254">
                <rect fill="#f2f5e9" fill-opacity="0.5" stroke="#606060" stroke-width=".5" x="0" y="0" width="60" height="60"/>
                <use id="zoomplus" xlink:href="#zoomPlus" x="17" y="9" onmousedown="handleZoom(evt,'in')"/>
                <use id="zoomminus" xlink:href="#zoomMin" x="42" y="9" onmousedown="handleZoom(evt,'out')"/>
                <use id="reset" xlink:href="#resetDef" x="30" y="36" onmousedown="handleReset()"/>
                <g id="arrowUp" xlink:href="#dirArrow" transform="translate(30 24)" onmousedown="handlePan(0,-1)">
                  <use xlink:href="#rim" fill="#404040">
                        <set attributeName="fill" to="#808080" begin="arrowUp.mouseover" end="arrowUp.mouseout"/>
                  </use>
                  <path fill="none" stroke="white" stroke-width="1.5" d="M0,-3.0v7 M-2.5,-0.5L0,-3.0L2.5,-0.5"/>
                </g>
                <g id="arrowRight" xlink:href="#dirArrow" transform="rotate(90) translate(36 -43)" onmousedown="handlePan(1,0)">
                  <use xlink:href="#rim" fill="#404040">
                        <set attributeName="fill" to="#808080" begin="arrowRight.mouseover" end="arrowRight.mouseout"/>
                  </use>
                  <path fill="none" stroke="white" stroke-width="1.5" d="M0,-3.0v7 M-2.5,-0.5L0,-3.0L2.5,-0.5"/>
                </g>
                <g id="arrowDown" xlink:href="#dirArrow" transform="rotate(180) translate(-30 -48)" onmousedown="handlePan(0,1)">
                  <use xlink:href="#rim" fill="#404040">
                        <set attributeName="fill" to="#808080" begin="arrowDown.mouseover" end="arrowDown.mouseout"/>
                  </use>
                  <path fill="none" stroke="white" stroke-width="1.5" d="M0,-3.0v7 M-2.5,-0.5L0,-3.0L2.5,-0.5"/>
                </g>
                <g id="arrowLeft" xlink:href="#dirArrow" transform="rotate(270) translate(-36 17)" onmousedown="handlePan(-1,0)">
                  <use xlink:href="#rim" fill="#404040">
                        <set attributeName="fill" to="#808080" begin="arrowLeft.mouseover" end="arrowLeft.mouseout"/>
                  </use>
                  <path fill="none" stroke="white" stroke-width="1.5" d="M0,-3.0v7 M-2.5,-0.5L0,-3.0L2.5,-0.5"/>
                </g>
        </g>
        <svg viewBox="0 0 15 15" width="100%" height="30px" preserveAspectRatio="xMaxYMin meet">
         <g id="arrow_out" transform="scale(0.3 0.3)">
          <a xlink:href="class_u_b_features_controller_ad6fad2a4b8b47890a5853b53bd048aa9_icgraph_org.svg" target="_base">
           <rect id="button" ry="5" rx="5" y="6" x="6" height="38" width="38"
                fill="#f2f5e9" fill-opacity="0.5" stroke="#606060" stroke-width="1.0"/>
           <path id="arrow"
             d="M 11.500037,31.436501 C 11.940474,20.09759 22.043105,11.32322 32.158766,21.979434 L 37.068811,17.246167 C 37.068811,17.246167 37.088388,32 37.088388,32 L 22.160133,31.978069 C 22.160133,31.978069 26.997745,27.140456 26.997745,27.140456 C 18.528582,18.264221 13.291696,25.230495 11.500037,31.436501 z"
             style="fill:#404040;"/>
          </a>
         </g>
        </svg>
</svg>
