<?xml version="1.0" encoding="UTF-8" standalone="no"?>
<!DOCTYPE svg PUBLIC "-//W3C//DTD SVG 1.1//EN"
 "http://www.w3.org/Graphics/SVG/1.1/DTD/svg11.dtd">
<!-- Generated by graphviz version 2.26.3 (20100126.1600)
 -->
<!-- Title: UBFeaturesController::addDownloadedFile Pages: 1 -->
<!--zoomable 516 -->
<svg id="main" version="1.1" xmlns="http://www.w3.org/2000/svg" xmlns:xlink="http://www.w3.org/1999/xlink" xml:space="preserve" onload="init(evt)">
        <defs>
                <circle id="rim" cx="0" cy="0" r="7"/>
                <circle id="rim2" cx="0" cy="0" r="3.5"/>
                <g id="zoomPlus">
                        <use xlink:href="#rim" fill="#404040">
                                <set attributeName="fill" to="#808080" begin="zoomplus.mouseover" end="zoomplus.mouseout"/>
                        </use>
                        <path d="M-4,0h8M0,-4v8" fill="none" stroke="white" stroke-width="1.5" pointer-events="none"/>
                </g>
                <g id="zoomMin">
                        <use xlink:href="#rim" fill="#404040">
                                <set attributeName="fill" to="#808080" begin="zoomminus.mouseover" end="zoomminus.mouseout"/>
                        </use>
                        <path d="M-4,0h8" fill="none" stroke="white" stroke-width="1.5" pointer-events="none"/>
                </g>
                <g id="dirArrow">
                        <path fill="none" stroke="white" stroke-width="1.5" d="M0,-3.0v7 M-2.5,-0.5L0,-3.0L2.5,-0.5"/>
                </g>
               <g id="resetDef">
                       <use xlink:href="#rim2" fill="#404040">
                               <set attributeName="fill" to="#808080" begin="reset.mouseover" end="reset.mouseout"/>
                       </use>
               </g>
        </defs>

<script type="text/javascript">
var viewWidth = 660;
var viewHeight = 516;
var sectionId = 'dynsection-2';
</script>
<script xlink:href="../../svgpan.js"/>
<svg id="graph" class="graph">
<g id="viewport">
<title>UBFeaturesController::addDownloadedFile</title>
<polygon fill="white" stroke="white" points="-4,5 -4,-512 657,-512 657,5 -4,5"/>
<!-- Node1 -->
<g id="node1" class="node"><title>Node1</title>
<polygon fill="#bfbfbf" stroke="black" points="0.5,-236 0.5,-270 111.5,-270 111.5,-236 0.5,-236"/>
<text text-anchor="start" x="8.5" y="-257" font-family="Helvetica,sans-Serif" font-size="10.00">UBFeaturesController</text>
<text text-anchor="middle" x="56" y="-244" font-family="Helvetica,sans-Serif" font-size="10.00">::addDownloadedFile</text>
</g>
<!-- Node2 -->
<g id="node3" class="node"><title>Node2</title>
<a xlink:href="../../d8/d33/class_u_b_features_controller.html#ae98f808560a2988579f61f6202debbbb" target="_top" xlink:title="UBFeaturesController\l::getDestinationCategoryFor\lMimeType">
<polygon fill="white" stroke="black" points="155,-460.5 155,-507.5 295,-507.5 295,-460.5 155,-460.5"/>
<text text-anchor="start" x="163" y="-494.5" font-family="Helvetica,sans-Serif" font-size="10.00">UBFeaturesController</text>
<text text-anchor="start" x="163" y="-481.5" font-family="Helvetica,sans-Serif" font-size="10.00">::getDestinationCategoryFor</text>
<text text-anchor="middle" x="225" y="-468.5" font-family="Helvetica,sans-Serif" font-size="10.00">MimeType</text>
</a>
</g>
<!-- Node1&#45;&gt;Node2 -->
<g id="edge2" class="edge"><title>Node1&#45;&gt;Node2</title>
<path fill="none" stroke="midnightblue" d="M59.6008,-270.264C68.3016,-307.964 93.8669,-398.471 148,-451 149.109,-452.076 150.259,-453.12 151.443,-454.132"/>
<polygon fill="midnightblue" stroke="midnightblue" points="149.625,-457.144 159.72,-460.361 153.835,-451.551 149.625,-457.144"/>
</g>
<!-- Node3 -->
<g id="node5" class="node"><title>Node3</title>
<a xlink:href="../../d2/d9e/struct_category_data.html#a23a8249beaef2e6ab2a8e6bda8e175a6" target="_top" xlink:title="CategoryData::isNull">
<polygon fill="white" stroke="black" points="171,-420.5 171,-441.5 279,-441.5 279,-420.5 171,-420.5"/>
<text text-anchor="middle" x="225" y="-428.5" font-family="Helvetica,sans-Serif" font-size="10.00">CategoryData::isNull</text>
</a>
</g>
<!-- Node1&#45;&gt;Node3 -->
<g id="edge4" class="edge"><title>Node1&#45;&gt;Node3</title>
<path fill="none" stroke="midnightblue" d="M61.0222,-270.018C71.5418,-302.609 99.0602,-373.887 148,-411 152.091,-414.102 156.617,-416.725 161.366,-418.943"/>
<polygon fill="midnightblue" stroke="midnightblue" points="160.135,-422.22 170.717,-422.727 162.76,-415.731 160.135,-422.22"/>
</g>
<!-- Node4 -->
<g id="node7" class="node"><title>Node4</title>
<a xlink:href="../../d2/d9e/struct_category_data.html#a12f08c37bc3241d3346228a5b262c4fa" target="_top" xlink:title="CategoryData::categoryFeature">
<polygon fill="white" stroke="black" points="148,-380.5 148,-401.5 302,-401.5 302,-380.5 148,-380.5"/>
<text text-anchor="middle" x="225" y="-388.5" font-family="Helvetica,sans-Serif" font-size="10.00">CategoryData::categoryFeature</text>
</a>
</g>
<!-- Node1&#45;&gt;Node4 -->
<g id="edge6" class="edge"><title>Node1&#45;&gt;Node4</title>
<path fill="none" stroke="midnightblue" d="M64.7133,-270.371C78.658,-296.349 108.489,-345.037 148,-371 150.976,-372.955 154.133,-374.72 157.405,-376.312"/>
<polygon fill="midnightblue" stroke="midnightblue" points="156.305,-379.648 166.876,-380.358 159.055,-373.21 156.305,-379.648"/>
</g>
<!-- Node5 -->
<g id="node9" class="node"><title>Node5</title>
<a xlink:href="../../d2/d9e/struct_category_data.html#ae5da36a3b7327e15fd29b87c20e6ac39" target="_top" xlink:title="CategoryData::pathData">
<polygon fill="white" stroke="black" points="163.5,-340.5 163.5,-361.5 286.5,-361.5 286.5,-340.5 163.5,-340.5"/>
<text text-anchor="middle" x="225" y="-348.5" font-family="Helvetica,sans-Serif" font-size="10.00">CategoryData::pathData</text>
</a>
</g>
<!-- Node1&#45;&gt;Node5 -->
<g id="edge8" class="edge"><title>Node1&#45;&gt;Node5</title>
<path fill="none" stroke="midnightblue" d="M71.6082,-270.178C88.6902,-287.955 117.704,-315.278 148,-331 152.482,-333.326 157.255,-335.396 162.143,-337.234"/>
<polygon fill="midnightblue" stroke="midnightblue" points="161.047,-340.558 171.642,-340.493 163.319,-333.937 161.047,-340.558"/>
</g>
<!-- Node6 -->
<g id="node11" class="node"><title>Node6</title>
<a xlink:href="../../d8/d33/class_u_b_features_controller.html#aac768032f25aac61193518cfc41b73c7" target="_top" xlink:title="UBFeaturesController\l::importImage">
<polygon fill="white" stroke="black" points="169.5,-288 169.5,-322 280.5,-322 280.5,-288 169.5,-288"/>
<text text-anchor="start" x="177.5" y="-309" font-family="Helvetica,sans-Serif" font-size="10.00">UBFeaturesController</text>
<text text-anchor="middle" x="225" y="-296" font-family="Helvetica,sans-Serif" font-size="10.00">::importImage</text>
</a>
</g>
<!-- Node1&#45;&gt;Node6 -->
<g id="edge10" class="edge"><title>Node1&#45;&gt;Node6</title>
<path fill="none" stroke="midnightblue" d="M111.337,-270.027C126.802,-274.785 143.754,-280.001 159.735,-284.919"/>
<polygon fill="midnightblue" stroke="midnightblue" points="158.952,-288.339 169.539,-287.935 161.01,-281.649 158.952,-288.339"/>
</g>
<!-- Node7 -->
<g id="node13" class="node"><title>Node7</title>
<a xlink:href="../../d2/d7a/class_u_b_file_system_utils.html#a6442ee44c32b953a061c8a1c8eedae21" target="_top" xlink:title="UBFileSystemUtils:\l:expandZipToDir">
<polygon fill="white" stroke="black" points="173,-236 173,-270 277,-270 277,-236 173,-236"/>
<text text-anchor="start" x="181" y="-257" font-family="Helvetica,sans-Serif" font-size="10.00">UBFileSystemUtils:</text>
<text text-anchor="middle" x="225" y="-244" font-family="Helvetica,sans-Serif" font-size="10.00">:expandZipToDir</text>
</a>
</g>
<!-- Node1&#45;&gt;Node7 -->
<g id="edge12" class="edge"><title>Node1&#45;&gt;Node7</title>
<path fill="none" stroke="midnightblue" d="M111.805,-253C128.127,-253 146.07,-253 162.765,-253"/>
<polygon fill="midnightblue" stroke="midnightblue" points="162.972,-256.5 172.972,-253 162.972,-249.5 162.972,-256.5"/>
</g>
<!-- Node8 -->
<g id="node15" class="node"><title>Node8</title>
<a xlink:href="../../d2/d7a/class_u_b_file_system_utils.html#a8289391e8ff8c366727435455aa8a733" target="_top" xlink:title="UBFileSystemUtils:\l:copyDir">
<polygon fill="white" stroke="black" points="173,-184 173,-218 277,-218 277,-184 173,-184"/>
<text text-anchor="start" x="181" y="-205" font-family="Helvetica,sans-Serif" font-size="10.00">UBFileSystemUtils:</text>
<text text-anchor="middle" x="225" y="-192" font-family="Helvetica,sans-Serif" font-size="10.00">:copyDir</text>
</a>
</g>
<!-- Node1&#45;&gt;Node8 -->
<g id="edge14" class="edge"><title>Node1&#45;&gt;Node8</title>
<path fill="none" stroke="midnightblue" d="M111.337,-235.973C127.914,-230.873 146.198,-225.247 163.165,-220.026"/>
<polygon fill="midnightblue" stroke="midnightblue" points="164.452,-223.292 172.98,-217.006 162.393,-216.602 164.452,-223.292"/>
</g>
<!-- Node9 -->
<g id="node17" class="node"><title>Node9</title>
<a xlink:href="../../db/d98/class_u_b_feature.html#a175da54d5e0d135c43b44009601a1380" target="_top" xlink:title="UBFeature::getFullVirtualPath">
<polygon fill="white" stroke="black" points="151.5,-144.5 151.5,-165.5 298.5,-165.5 298.5,-144.5 151.5,-144.5"/>
<text text-anchor="middle" x="225" y="-152.5" font-family="Helvetica,sans-Serif" font-size="10.00">UBFeature::getFullVirtualPath</text>
</a>
</g>
<!-- Node1&#45;&gt;Node9 -->
<g id="edge16" class="edge"><title>Node1&#45;&gt;Node9</title>
<path fill="none" stroke="midnightblue" d="M71.6082,-235.822C88.6902,-218.045 117.704,-190.722 148,-175 152.482,-172.674 157.255,-170.604 162.143,-168.766"/>
<polygon fill="midnightblue" stroke="midnightblue" points="163.319,-172.063 171.642,-165.507 161.047,-165.442 163.319,-172.063"/>
</g>
<!-- Node10 -->
<g id="node19" class="node"><title>Node10</title>
<a xlink:href="../../d8/d33/class_u_b_features_controller.html#a321bfa51fce6d90a82e1eba0c37ac205" target="_top" xlink:title="UBFeaturesController\l::getIcon">
<polygon fill="white" stroke="black" points="169.5,-92 169.5,-126 280.5,-126 280.5,-92 169.5,-92"/>
<text text-anchor="start" x="177.5" y="-113" font-family="Helvetica,sans-Serif" font-size="10.00">UBFeaturesController</text>
<text text-anchor="middle" x="225" y="-100" font-family="Helvetica,sans-Serif" font-size="10.00">::getIcon</text>
</a>
</g>
<!-- Node1&#45;&gt;Node10 -->
<g id="edge18" class="edge"><title>Node1&#45;&gt;Node10</title>
<path fill="none" stroke="midnightblue" d="M64.9523,-235.979C79.2092,-210.458 109.442,-162.359 148,-135 151.725,-132.357 155.74,-129.966 159.911,-127.806"/>
<polygon fill="midnightblue" stroke="midnightblue" points="161.668,-130.849 169.241,-123.44 158.7,-124.509 161.668,-130.849"/>
</g>
<!-- Node14 -->
<g id="node27" class="node"><title>Node14</title>
<a xlink:href="../../d8/d33/class_u_b_features_controller.html#a37995e9bde0b05ca141651d80b0e9be2" target="_top" xlink:title="UBFeaturesController\l::fileTypeFromUrl">
<polygon fill="white" stroke="black" points="169.5,-40 169.5,-74 280.5,-74 280.5,-40 169.5,-40"/>
<text text-anchor="start" x="177.5" y="-61" font-family="Helvetica,sans-Serif" font-size="10.00">UBFeaturesController</text>
<text text-anchor="middle" x="225" y="-48" font-family="Helvetica,sans-Serif" font-size="10.00">::fileTypeFromUrl</text>
</a>
</g>
<!-- Node1&#45;&gt;Node14 -->
<g id="edge26" class="edge"><title>Node1&#45;&gt;Node14</title>
<path fill="none" stroke="midnightblue" d="M60.6574,-235.826C70.7718,-201.732 97.9576,-125.167 148,-83 151.716,-79.869 155.825,-77.1099 160.155,-74.6793"/>
<polygon fill="midnightblue" stroke="midnightblue" points="161.899,-77.7213 169.297,-70.1375 158.784,-71.4522 161.899,-77.7213"/>
</g>
<!-- Node17 -->
<g id="node33" class="node"><title>Node17</title>
<a xlink:href="../../d5/d7a/class_u_b_features_model.html#ac904dec2116695af0fdc95f23d3940f2" target="_top" xlink:title="UBFeaturesModel::addItem">
<polygon fill="white" stroke="black" points="156.5,-0.5 156.5,-21.5 293.5,-21.5 293.5,-0.5 156.5,-0.5"/>
<text text-anchor="middle" x="225" y="-8.5" font-family="Helvetica,sans-Serif" font-size="10.00">UBFeaturesModel::addItem</text>
</a>
</g>
<!-- Node1&#45;&gt;Node17 -->
<g id="edge32" class="edge"><title>Node1&#45;&gt;Node17</title>
<path fill="none" stroke="midnightblue" d="M57.9394,-235.851C63.5943,-194.139 83.9493,-86.728 148,-31 149.778,-29.4531 151.661,-28.0236 153.627,-26.7027"/>
<polygon fill="midnightblue" stroke="midnightblue" points="155.721,-29.5401 162.712,-21.5794 152.282,-23.4428 155.721,-29.5401"/>
</g>
<!-- Node11 -->
<g id="node21" class="node"><title>Node11</title>
<a xlink:href="../../d0/d16/class_u_b_graphics_widget_item.html#a09904301830055140477650fd7215061" target="_top" xlink:title="UBGraphicsWidgetItem\l::iconFilePath">
<polygon fill="white" stroke="black" points="346,-135 346,-169 466,-169 466,-135 346,-135"/>
<text text-anchor="start" x="354" y="-156" font-family="Helvetica,sans-Serif" font-size="10.00">UBGraphicsWidgetItem</text>
<text text-anchor="middle" x="406" y="-143" font-family="Helvetica,sans-Serif" font-size="10.00">::iconFilePath</text>
</a>
</g>
<!-- Node10&#45;&gt;Node11 -->
<g id="edge20" class="edge"><title>Node10&#45;&gt;Node11</title>
<path fill="none" stroke="midnightblue" d="M280.783,-122.252C298.136,-126.375 317.496,-130.974 335.706,-135.3"/>
<polygon fill="midnightblue" stroke="midnightblue" points="335.146,-138.765 345.684,-137.671 336.764,-131.954 335.146,-138.765"/>
</g>
<!-- Node13 -->
<g id="node25" class="node"><title>Node13</title>
<a xlink:href="../../df/d8e/class_u_b_tools_manager.html#a9180b06fd04c30bcbd4cb9e9aedfe80a" target="_top" xlink:title="UBToolsManager::manager">
<polygon fill="white" stroke="black" points="338,-95.5 338,-116.5 474,-116.5 474,-95.5 338,-95.5"/>
<text text-anchor="middle" x="406" y="-103.5" font-family="Helvetica,sans-Serif" font-size="10.00">UBToolsManager::manager</text>
</a>
</g>
<!-- Node10&#45;&gt;Node13 -->
<g id="edge24" class="edge"><title>Node10&#45;&gt;Node13</title>
<path fill="none" stroke="midnightblue" d="M280.783,-108.075C295.609,-107.83 311.9,-107.56 327.687,-107.298"/>
<polygon fill="midnightblue" stroke="midnightblue" points="328.028,-110.793 337.969,-107.128 327.912,-103.794 328.028,-110.793"/>
</g>
<!-- Node12 -->
<g id="node23" class="node"><title>Node12</title>
<a xlink:href="../../d2/d7a/class_u_b_file_system_utils.html#aeb559ce0c1f2d4b139560e170f657faa" target="_top" xlink:title="UBFileSystemUtils:\l:getFirstExistingFileFromList">
<polygon fill="white" stroke="black" points="510,-135 510,-169 652,-169 652,-135 510,-135"/>
<text text-anchor="start" x="518" y="-156" font-family="Helvetica,sans-Serif" font-size="10.00">UBFileSystemUtils:</text>
<text text-anchor="middle" x="581" y="-143" font-family="Helvetica,sans-Serif" font-size="10.00">:getFirstExistingFileFromList</text>
</a>
</g>
<!-- Node11&#45;&gt;Node12 -->
<g id="edge22" class="edge"><title>Node11&#45;&gt;Node12</title>
<path fill="none" stroke="midnightblue" d="M466.225,-152C476.974,-152 488.333,-152 499.559,-152"/>
<polygon fill="midnightblue" stroke="midnightblue" points="499.809,-155.5 509.809,-152 499.809,-148.5 499.809,-155.5"/>
</g>
<!-- Node15 -->
<g id="node29" class="node"><title>Node15</title>
<a xlink:href="../../d2/d7a/class_u_b_file_system_utils.html#a272b08b8f8907091333982fb53a7aa2a" target="_top" xlink:title="UBFileSystemUtils:\l:mimeTypeFromFileName">
<polygon fill="white" stroke="black" points="341,-40 341,-74 471,-74 471,-40 341,-40"/>
<text text-anchor="start" x="349" y="-61" font-family="Helvetica,sans-Serif" font-size="10.00">UBFileSystemUtils:</text>
<text text-anchor="middle" x="406" y="-48" font-family="Helvetica,sans-Serif" font-size="10.00">:mimeTypeFromFileName</text>
</a>
</g>
<!-- Node14&#45;&gt;Node15 -->
<g id="edge28" class="edge"><title>Node14&#45;&gt;Node15</title>
<path fill="none" stroke="midnightblue" d="M280.783,-57C296.524,-57 313.917,-57 330.605,-57"/>
<polygon fill="midnightblue" stroke="midnightblue" points="330.884,-60.5001 340.884,-57 330.884,-53.5001 330.884,-60.5001"/>
</g>
<!-- Node16 -->
<g id="node31" class="node"><title>Node16</title>
<a xlink:href="../../d2/d7a/class_u_b_file_system_utils.html#a8dcbcd889a2c79495470ff11f955c0b6" target="_top" xlink:title="UBFileSystemUtils:\l:extension">
<polygon fill="white" stroke="black" points="529,-40 529,-74 633,-74 633,-40 529,-40"/>
<text text-anchor="start" x="537" y="-61" font-family="Helvetica,sans-Serif" font-size="10.00">UBFileSystemUtils:</text>
<text text-anchor="middle" x="581" y="-48" font-family="Helvetica,sans-Serif" font-size="10.00">:extension</text>
</a>
</g>
<!-- Node15&#45;&gt;Node16 -->
<g id="edge30" class="edge"><title>Node15&#45;&gt;Node16</title>
<path fill="none" stroke="midnightblue" d="M471.164,-57C486.639,-57 503.114,-57 518.469,-57"/>
<polygon fill="midnightblue" stroke="midnightblue" points="518.894,-60.5001 528.894,-57 518.894,-53.5001 518.894,-60.5001"/>
</g>
</g>
</svg>
        <g id="navigator" transform="translate(0 0)" fill="#404254">
                <rect fill="#f2f5e9" fill-opacity="0.5" stroke="#606060" stroke-width=".5" x="0" y="0" width="60" height="60"/>
                <use id="zoomplus" xlink:href="#zoomPlus" x="17" y="9" onmousedown="handleZoom(evt,'in')"/>
                <use id="zoomminus" xlink:href="#zoomMin" x="42" y="9" onmousedown="handleZoom(evt,'out')"/>
                <use id="reset" xlink:href="#resetDef" x="30" y="36" onmousedown="handleReset()"/>
                <g id="arrowUp" xlink:href="#dirArrow" transform="translate(30 24)" onmousedown="handlePan(0,-1)">
                  <use xlink:href="#rim" fill="#404040">
                        <set attributeName="fill" to="#808080" begin="arrowUp.mouseover" end="arrowUp.mouseout"/>
                  </use>
                  <path fill="none" stroke="white" stroke-width="1.5" d="M0,-3.0v7 M-2.5,-0.5L0,-3.0L2.5,-0.5"/>
                </g>
                <g id="arrowRight" xlink:href="#dirArrow" transform="rotate(90) translate(36 -43)" onmousedown="handlePan(1,0)">
                  <use xlink:href="#rim" fill="#404040">
                        <set attributeName="fill" to="#808080" begin="arrowRight.mouseover" end="arrowRight.mouseout"/>
                  </use>
                  <path fill="none" stroke="white" stroke-width="1.5" d="M0,-3.0v7 M-2.5,-0.5L0,-3.0L2.5,-0.5"/>
                </g>
                <g id="arrowDown" xlink:href="#dirArrow" transform="rotate(180) translate(-30 -48)" onmousedown="handlePan(0,1)">
                  <use xlink:href="#rim" fill="#404040">
                        <set attributeName="fill" to="#808080" begin="arrowDown.mouseover" end="arrowDown.mouseout"/>
                  </use>
                  <path fill="none" stroke="white" stroke-width="1.5" d="M0,-3.0v7 M-2.5,-0.5L0,-3.0L2.5,-0.5"/>
                </g>
                <g id="arrowLeft" xlink:href="#dirArrow" transform="rotate(270) translate(-36 17)" onmousedown="handlePan(-1,0)">
                  <use xlink:href="#rim" fill="#404040">
                        <set attributeName="fill" to="#808080" begin="arrowLeft.mouseover" end="arrowLeft.mouseout"/>
                  </use>
                  <path fill="none" stroke="white" stroke-width="1.5" d="M0,-3.0v7 M-2.5,-0.5L0,-3.0L2.5,-0.5"/>
                </g>
        </g>
        <svg viewBox="0 0 15 15" width="100%" height="30px" preserveAspectRatio="xMaxYMin meet">
         <g id="arrow_out" transform="scale(0.3 0.3)">
          <a xlink:href="class_u_b_features_controller_a36791ecaf11ce57e9844374ddf18c030_cgraph_org.svg" target="_base">
           <rect id="button" ry="5" rx="5" y="6" x="6" height="38" width="38"
                fill="#f2f5e9" fill-opacity="0.5" stroke="#606060" stroke-width="1.0"/>
           <path id="arrow"
             d="M 11.500037,31.436501 C 11.940474,20.09759 22.043105,11.32322 32.158766,21.979434 L 37.068811,17.246167 C 37.068811,17.246167 37.088388,32 37.088388,32 L 22.160133,31.978069 C 22.160133,31.978069 26.997745,27.140456 26.997745,27.140456 C 18.528582,18.264221 13.291696,25.230495 11.500037,31.436501 z"
             style="fill:#404040;"/>
          </a>
         </g>
        </svg>
</svg>
