<?xml version="1.0" encoding="UTF-8" standalone="no"?>
<!DOCTYPE svg PUBLIC "-//W3C//DTD SVG 1.1//EN"
 "http://www.w3.org/Graphics/SVG/1.1/DTD/svg11.dtd">
<!-- Generated by graphviz version 2.26.3 (20100126.1600)
 -->
<!-- Title: UBFeaturesController::searchStarted Pages: 1 -->
<svg width="486pt" height="94pt"
 viewBox="0.00 0.00 486.00 94.00" xmlns="http://www.w3.org/2000/svg" xmlns:xlink="http://www.w3.org/1999/xlink">
<g id="graph1" class="graph" transform="scale(1 1) rotate(0) translate(4 90)">
<title>UBFeaturesController::searchStarted</title>
<polygon fill="white" stroke="white" points="-4,5 -4,-90 483,-90 483,5 -4,5"/>
<!-- Node1 -->
<g id="node1" class="node"><title>Node1</title>
<polygon fill="#bfbfbf" stroke="black" points="0.5,-26 0.5,-60 111.5,-60 111.5,-26 0.5,-26"/>
<text text-anchor="start" x="8.5" y="-47" font-family="Helvetica,sans-Serif" font-size="10.00">UBFeaturesController</text>
<text text-anchor="middle" x="56" y="-34" font-family="Helvetica,sans-Serif" font-size="10.00">::searchStarted</text>
</g>
<!-- Node2 -->
<g id="node3" class="node"><title>Node2</title>
<a xlink:href="../../d5/d85/class_u_b_features_widget.html#ad08129e54711f6cccd0b1c18f11fc6fb" target="_top" xlink:title="UBFeaturesWidget::search\lStarted">
<polygon fill="white" stroke="black" points="148.5,-52 148.5,-86 283.5,-86 283.5,-52 148.5,-52"/>
<text text-anchor="start" x="156.5" y="-73" font-family="Helvetica,sans-Serif" font-size="10.00">UBFeaturesWidget::search</text>
<text text-anchor="middle" x="216" y="-60" font-family="Helvetica,sans-Serif" font-size="10.00">Started</text>
</a>
</g>
<!-- Node1&#45;&gt;Node2 -->
<g id="edge2" class="edge"><title>Node1&#45;&gt;Node2</title>
<path fill="none" stroke="midnightblue" d="M121.44,-53.6339C130.349,-55.0817 139.508,-56.57 148.454,-58.0237"/>
<polygon fill="midnightblue" stroke="midnightblue" points="121.943,-50.1699 111.511,-52.0206 120.82,-57.0793 121.943,-50.1699"/>
</g>
<!-- Node4 -->
<g id="node7" class="node"><title>Node4</title>
<a xlink:href="../../d5/d85/class_u_b_features_widget.html#a3049241166f14ca4411a2a829ffebb83" target="_top" xlink:title="UBFeaturesWidget::current\lSelected">
<polygon fill="white" stroke="black" points="148,-0 148,-34 284,-34 284,-0 148,-0"/>
<text text-anchor="start" x="156" y="-21" font-family="Helvetica,sans-Serif" font-size="10.00">UBFeaturesWidget::current</text>
<text text-anchor="middle" x="216" y="-8" font-family="Helvetica,sans-Serif" font-size="10.00">Selected</text>
</a>
</g>
<!-- Node1&#45;&gt;Node4 -->
<g id="edge6" class="edge"><title>Node1&#45;&gt;Node4</title>
<path fill="none" stroke="midnightblue" d="M121.57,-32.3448C130.253,-30.9339 139.17,-29.4849 147.894,-28.0673"/>
<polygon fill="midnightblue" stroke="midnightblue" points="120.82,-28.9207 111.511,-33.9794 121.943,-35.8301 120.82,-28.9207"/>
</g>
<!-- Node3 -->
<g id="node5" class="node"><title>Node3</title>
<a xlink:href="../../d5/d85/class_u_b_features_widget.html#a8afc3d83bd8b57f0260c1269f63b435a" target="_top" xlink:title="UBFeaturesWidget::UBFeatures\lWidget">
<polygon fill="white" stroke="black" points="320,-26 320,-60 478,-60 478,-26 320,-26"/>
<text text-anchor="start" x="328" y="-47" font-family="Helvetica,sans-Serif" font-size="10.00">UBFeaturesWidget::UBFeatures</text>
<text text-anchor="middle" x="399" y="-34" font-family="Helvetica,sans-Serif" font-size="10.00">Widget</text>
</a>
</g>
<!-- Node2&#45;&gt;Node3 -->
<g id="edge4" class="edge"><title>Node2&#45;&gt;Node3</title>
<path fill="none" stroke="midnightblue" d="M293.704,-57.9601C302.374,-56.7282 311.214,-55.4723 319.902,-54.238"/>
<polygon fill="midnightblue" stroke="midnightblue" points="293.031,-54.5205 283.623,-59.3924 294.015,-61.4509 293.031,-54.5205"/>
</g>
<!-- Node4&#45;&gt;Node3 -->
<g id="edge8" class="edge"><title>Node4&#45;&gt;Node3</title>
<path fill="none" stroke="midnightblue" d="M294.303,-28.125C302.711,-29.3196 311.27,-30.5357 319.69,-31.7319"/>
<polygon fill="midnightblue" stroke="midnightblue" points="294.535,-24.623 284.142,-26.6814 293.551,-31.5534 294.535,-24.623"/>
</g>
</g>
</svg>
