<?xml version="1.0" encoding="UTF-8" standalone="no"?>
<!DOCTYPE svg PUBLIC "-//W3C//DTD SVG 1.1//EN"
 "http://www.w3.org/Graphics/SVG/1.1/DTD/svg11.dtd">
<!-- Generated by graphviz version 2.26.3 (20100126.1600)
 -->
<!-- Title: UBFeaturesController::getIcon Pages: 1 -->
<!--zoomable 82 -->
<svg id="main" version="1.1" xmlns="http://www.w3.org/2000/svg" xmlns:xlink="http://www.w3.org/1999/xlink" xml:space="preserve" onload="init(evt)">
        <defs>
                <circle id="rim" cx="0" cy="0" r="7"/>
                <circle id="rim2" cx="0" cy="0" r="3.5"/>
                <g id="zoomPlus">
                        <use xlink:href="#rim" fill="#404040">
                                <set attributeName="fill" to="#808080" begin="zoomplus.mouseover" end="zoomplus.mouseout"/>
                        </use>
                        <path d="M-4,0h8M0,-4v8" fill="none" stroke="white" stroke-width="1.5" pointer-events="none"/>
                </g>
                <g id="zoomMin">
                        <use xlink:href="#rim" fill="#404040">
                                <set attributeName="fill" to="#808080" begin="zoomminus.mouseover" end="zoomminus.mouseout"/>
                        </use>
                        <path d="M-4,0h8" fill="none" stroke="white" stroke-width="1.5" pointer-events="none"/>
                </g>
                <g id="dirArrow">
                        <path fill="none" stroke="white" stroke-width="1.5" d="M0,-3.0v7 M-2.5,-0.5L0,-3.0L2.5,-0.5"/>
                </g>
               <g id="resetDef">
                       <use xlink:href="#rim2" fill="#404040">
                               <set attributeName="fill" to="#808080" begin="reset.mouseover" end="reset.mouseout"/>
                       </use>
               </g>
        </defs>

<script type="text/javascript">
var viewWidth = 502;
var viewHeight = 82;
var sectionId = 'dynsection-39';
</script>
<script xlink:href="../../svgpan.js"/>
<svg id="graph" class="graph">
<g id="viewport">
<title>UBFeaturesController::getIcon</title>
<polygon fill="white" stroke="white" points="-4,5 -4,-78 499,-78 499,5 -4,5"/>
<!-- Node1 -->
<g id="node1" class="node"><title>Node1</title>
<polygon fill="#bfbfbf" stroke="black" points="0.5,-17 0.5,-51 111.5,-51 111.5,-17 0.5,-17"/>
<text text-anchor="start" x="8.5" y="-38" font-family="Helvetica,sans-Serif" font-size="10.00">UBFeaturesController</text>
<text text-anchor="middle" x="56" y="-25" font-family="Helvetica,sans-Serif" font-size="10.00">::getIcon</text>
</g>
<!-- Node2 -->
<g id="node3" class="node"><title>Node2</title>
<a xlink:href="../../d0/d16/class_u_b_graphics_widget_item.html#a09904301830055140477650fd7215061" target="_top" xlink:title="UBGraphicsWidgetItem\l::iconFilePath">
<polygon fill="white" stroke="black" points="156,-40 156,-74 276,-74 276,-40 156,-40"/>
<text text-anchor="start" x="164" y="-61" font-family="Helvetica,sans-Serif" font-size="10.00">UBGraphicsWidgetItem</text>
<text text-anchor="middle" x="216" y="-48" font-family="Helvetica,sans-Serif" font-size="10.00">::iconFilePath</text>
</a>
</g>
<!-- Node1&#45;&gt;Node2 -->
<g id="edge2" class="edge"><title>Node1&#45;&gt;Node2</title>
<path fill="none" stroke="midnightblue" d="M111.511,-41.9797C122.611,-43.5753 134.406,-45.2709 145.923,-46.9265"/>
<polygon fill="midnightblue" stroke="midnightblue" points="145.552,-50.409 155.948,-48.3675 146.548,-43.4802 145.552,-50.409"/>
</g>
<!-- Node4 -->
<g id="node7" class="node"><title>Node4</title>
<a xlink:href="../../df/d8e/class_u_b_tools_manager.html#a9180b06fd04c30bcbd4cb9e9aedfe80a" target="_top" xlink:title="UBToolsManager::manager">
<polygon fill="white" stroke="black" points="148,-0.5 148,-21.5 284,-21.5 284,-0.5 148,-0.5"/>
<text text-anchor="middle" x="216" y="-8.5" font-family="Helvetica,sans-Serif" font-size="10.00">UBToolsManager::manager</text>
</a>
</g>
<!-- Node1&#45;&gt;Node4 -->
<g id="edge6" class="edge"><title>Node1&#45;&gt;Node4</title>
<path fill="none" stroke="midnightblue" d="M111.511,-26.0203C120.036,-24.7948 128.972,-23.5103 137.877,-22.2302"/>
<polygon fill="midnightblue" stroke="midnightblue" points="138.493,-25.6776 147.894,-20.7903 137.497,-18.7489 138.493,-25.6776"/>
</g>
<!-- Node3 -->
<g id="node5" class="node"><title>Node3</title>
<a xlink:href="../../d2/d7a/class_u_b_file_system_utils.html#aeb559ce0c1f2d4b139560e170f657faa" target="_top" xlink:title="UBFileSystemUtils:\l:getFirstExistingFileFromList">
<polygon fill="white" stroke="black" points="336,-40 336,-74 478,-74 478,-40 336,-40"/>
<text text-anchor="start" x="344" y="-61" font-family="Helvetica,sans-Serif" font-size="10.00">UBFileSystemUtils:</text>
<text text-anchor="middle" x="407" y="-48" font-family="Helvetica,sans-Serif" font-size="10.00">:getFirstExistingFileFromList</text>
</a>
</g>
<!-- Node2&#45;&gt;Node3 -->
<g id="edge4" class="edge"><title>Node2&#45;&gt;Node3</title>
<path fill="none" stroke="midnightblue" d="M276.171,-57C291.837,-57 308.979,-57 325.545,-57"/>
<polygon fill="midnightblue" stroke="midnightblue" points="325.767,-60.5001 335.767,-57 325.767,-53.5001 325.767,-60.5001"/>
</g>
<!-- Node5 -->
<g id="node9" class="node"><title>Node5</title>
<a xlink:href="../../df/d8e/class_u_b_tools_manager.html#ae77093006c5aa21be9c55d9fdf219dc0" target="_top" xlink:title="UBToolsManager::UBToolsManager">
<polygon fill="white" stroke="black" points="320,-0.5 320,-21.5 494,-21.5 494,-0.5 320,-0.5"/>
<text text-anchor="middle" x="407" y="-8.5" font-family="Helvetica,sans-Serif" font-size="10.00">UBToolsManager::UBToolsManager</text>
</a>
</g>
<!-- Node4&#45;&gt;Node5 -->
<g id="edge8" class="edge"><title>Node4&#45;&gt;Node5</title>
<path fill="none" stroke="midnightblue" d="M284.146,-11C292.463,-11 301.081,-11 309.719,-11"/>
<polygon fill="midnightblue" stroke="midnightblue" points="309.851,-14.5001 319.851,-11 309.851,-7.5001 309.851,-14.5001"/>
</g>
</g>
</svg>
        <g id="navigator" transform="translate(0 0)" fill="#404254">
                <rect fill="#f2f5e9" fill-opacity="0.5" stroke="#606060" stroke-width=".5" x="0" y="0" width="60" height="60"/>
                <use id="zoomplus" xlink:href="#zoomPlus" x="17" y="9" onmousedown="handleZoom(evt,'in')"/>
                <use id="zoomminus" xlink:href="#zoomMin" x="42" y="9" onmousedown="handleZoom(evt,'out')"/>
                <use id="reset" xlink:href="#resetDef" x="30" y="36" onmousedown="handleReset()"/>
                <g id="arrowUp" xlink:href="#dirArrow" transform="translate(30 24)" onmousedown="handlePan(0,-1)">
                  <use xlink:href="#rim" fill="#404040">
                        <set attributeName="fill" to="#808080" begin="arrowUp.mouseover" end="arrowUp.mouseout"/>
                  </use>
                  <path fill="none" stroke="white" stroke-width="1.5" d="M0,-3.0v7 M-2.5,-0.5L0,-3.0L2.5,-0.5"/>
                </g>
                <g id="arrowRight" xlink:href="#dirArrow" transform="rotate(90) translate(36 -43)" onmousedown="handlePan(1,0)">
                  <use xlink:href="#rim" fill="#404040">
                        <set attributeName="fill" to="#808080" begin="arrowRight.mouseover" end="arrowRight.mouseout"/>
                  </use>
                  <path fill="none" stroke="white" stroke-width="1.5" d="M0,-3.0v7 M-2.5,-0.5L0,-3.0L2.5,-0.5"/>
                </g>
                <g id="arrowDown" xlink:href="#dirArrow" transform="rotate(180) translate(-30 -48)" onmousedown="handlePan(0,1)">
                  <use xlink:href="#rim" fill="#404040">
                        <set attributeName="fill" to="#808080" begin="arrowDown.mouseover" end="arrowDown.mouseout"/>
                  </use>
                  <path fill="none" stroke="white" stroke-width="1.5" d="M0,-3.0v7 M-2.5,-0.5L0,-3.0L2.5,-0.5"/>
                </g>
                <g id="arrowLeft" xlink:href="#dirArrow" transform="rotate(270) translate(-36 17)" onmousedown="handlePan(-1,0)">
                  <use xlink:href="#rim" fill="#404040">
                        <set attributeName="fill" to="#808080" begin="arrowLeft.mouseover" end="arrowLeft.mouseout"/>
                  </use>
                  <path fill="none" stroke="white" stroke-width="1.5" d="M0,-3.0v7 M-2.5,-0.5L0,-3.0L2.5,-0.5"/>
                </g>
        </g>
        <svg viewBox="0 0 15 15" width="100%" height="30px" preserveAspectRatio="xMaxYMin meet">
         <g id="arrow_out" transform="scale(0.3 0.3)">
          <a xlink:href="class_u_b_features_controller_a321bfa51fce6d90a82e1eba0c37ac205_cgraph_org.svg" target="_base">
           <rect id="button" ry="5" rx="5" y="6" x="6" height="38" width="38"
                fill="#f2f5e9" fill-opacity="0.5" stroke="#606060" stroke-width="1.0"/>
           <path id="arrow"
             d="M 11.500037,31.436501 C 11.940474,20.09759 22.043105,11.32322 32.158766,21.979434 L 37.068811,17.246167 C 37.068811,17.246167 37.088388,32 37.088388,32 L 22.160133,31.978069 C 22.160133,31.978069 26.997745,27.140456 26.997745,27.140456 C 18.528582,18.264221 13.291696,25.230495 11.500037,31.436501 z"
             style="fill:#404040;"/>
          </a>
         </g>
        </svg>
</svg>
