<?xml version="1.0" encoding="UTF-8" standalone="no"?>
<!DOCTYPE svg PUBLIC "-//W3C//DTD SVG 1.1//EN"
 "http://www.w3.org/Graphics/SVG/1.1/DTD/svg11.dtd">
<!-- Generated by graphviz version 2.26.3 (20100126.1600)
 -->
<!-- Title: UBFeaturesController::removeFromFavorite Pages: 1 -->
<!--zoomable 172 -->
<svg id="main" version="1.1" xmlns="http://www.w3.org/2000/svg" xmlns:xlink="http://www.w3.org/1999/xlink" xml:space="preserve" onload="init(evt)">
        <defs>
                <circle id="rim" cx="0" cy="0" r="7"/>
                <circle id="rim2" cx="0" cy="0" r="3.5"/>
                <g id="zoomPlus">
                        <use xlink:href="#rim" fill="#404040">
                                <set attributeName="fill" to="#808080" begin="zoomplus.mouseover" end="zoomplus.mouseout"/>
                        </use>
                        <path d="M-4,0h8M0,-4v8" fill="none" stroke="white" stroke-width="1.5" pointer-events="none"/>
                </g>
                <g id="zoomMin">
                        <use xlink:href="#rim" fill="#404040">
                                <set attributeName="fill" to="#808080" begin="zoomminus.mouseover" end="zoomminus.mouseout"/>
                        </use>
                        <path d="M-4,0h8" fill="none" stroke="white" stroke-width="1.5" pointer-events="none"/>
                </g>
                <g id="dirArrow">
                        <path fill="none" stroke="white" stroke-width="1.5" d="M0,-3.0v7 M-2.5,-0.5L0,-3.0L2.5,-0.5"/>
                </g>
               <g id="resetDef">
                       <use xlink:href="#rim2" fill="#404040">
                               <set attributeName="fill" to="#808080" begin="reset.mouseover" end="reset.mouseout"/>
                       </use>
               </g>
        </defs>

<script type="text/javascript">
var viewWidth = 922;
var viewHeight = 172;
var sectionId = 'dynsection-62';
</script>
<script xlink:href="../../svgpan.js"/>
<svg id="graph" class="graph">
<g id="viewport">
<title>UBFeaturesController::removeFromFavorite</title>
<polygon fill="white" stroke="white" points="-4,5 -4,-168 919,-168 919,5 -4,5"/>
<!-- Node1 -->
<g id="node1" class="node"><title>Node1</title>
<polygon fill="#bfbfbf" stroke="black" points="0.5,-43 0.5,-77 113.5,-77 113.5,-43 0.5,-43"/>
<text text-anchor="start" x="8.5" y="-64" font-family="Helvetica,sans-Serif" font-size="10.00">UBFeaturesController</text>
<text text-anchor="middle" x="57" y="-51" font-family="Helvetica,sans-Serif" font-size="10.00">::removeFromFavorite</text>
</g>
<!-- Node2 -->
<g id="node3" class="node"><title>Node2</title>
<a xlink:href="../../d8/d33/class_u_b_features_controller.html#a506840b8854ab756bf4a5170841e4058" target="_top" xlink:title="UBFeaturesController\l::saveFavoriteList">
<polygon fill="white" stroke="black" points="185.5,-66 185.5,-100 296.5,-100 296.5,-66 185.5,-66"/>
<text text-anchor="start" x="193.5" y="-87" font-family="Helvetica,sans-Serif" font-size="10.00">UBFeaturesController</text>
<text text-anchor="middle" x="241" y="-74" font-family="Helvetica,sans-Serif" font-size="10.00">::saveFavoriteList</text>
</a>
</g>
<!-- Node1&#45;&gt;Node2 -->
<g id="edge2" class="edge"><title>Node1&#45;&gt;Node2</title>
<path fill="none" stroke="midnightblue" d="M113.707,-67.0884C133.219,-69.5274 155.227,-72.2784 175.388,-74.7985"/>
<polygon fill="midnightblue" stroke="midnightblue" points="175.07,-78.286 185.427,-76.0534 175.939,-71.34 175.07,-78.286"/>
</g>
<!-- Node10 -->
<g id="node19" class="node"><title>Node10</title>
<a xlink:href="../../d5/d7a/class_u_b_features_model.html#a4f5b07854d8eb551451e6e1c591fcd52" target="_top" xlink:title="UBFeaturesModel::deleteFavoriteItem">
<polygon fill="white" stroke="black" points="150,-26.5 150,-47.5 332,-47.5 332,-26.5 150,-26.5"/>
<text text-anchor="middle" x="241" y="-34.5" font-family="Helvetica,sans-Serif" font-size="10.00">UBFeaturesModel::deleteFavoriteItem</text>
</a>
</g>
<!-- Node1&#45;&gt;Node10 -->
<g id="edge18" class="edge"><title>Node1&#45;&gt;Node10</title>
<path fill="none" stroke="midnightblue" d="M113.707,-52.9116C124.243,-51.5946 135.506,-50.1868 146.813,-48.7733"/>
<polygon fill="midnightblue" stroke="midnightblue" points="147.255,-52.2454 156.744,-47.532 146.387,-45.2995 147.255,-52.2454"/>
</g>
<!-- Node3 -->
<g id="node5" class="node"><title>Node3</title>
<a xlink:href="../../db/d66/class_u_b_settings.html#af38d2ad231149df734ca7b5486356500" target="_top" xlink:title="UBSettings::userDataDirectory">
<polygon fill="white" stroke="black" points="369,-72.5 369,-93.5 521,-93.5 521,-72.5 369,-72.5"/>
<text text-anchor="middle" x="445" y="-80.5" font-family="Helvetica,sans-Serif" font-size="10.00">UBSettings::userDataDirectory</text>
</a>
</g>
<!-- Node2&#45;&gt;Node3 -->
<g id="edge4" class="edge"><title>Node2&#45;&gt;Node3</title>
<path fill="none" stroke="midnightblue" d="M296.744,-83C315.803,-83 337.597,-83 358.501,-83"/>
<polygon fill="midnightblue" stroke="midnightblue" points="358.675,-86.5001 368.675,-83 358.675,-79.5001 358.675,-86.5001"/>
</g>
<!-- Node4 -->
<g id="node7" class="node"><title>Node4</title>
<a xlink:href="../../db/d66/class_u_b_settings.html#a2d3413f8b25d64a698d6d83e0f18ff39" target="_top" xlink:title="UBSettings::getAppSettings">
<polygon fill="white" stroke="black" points="560,-135.5 560,-156.5 700,-156.5 700,-135.5 560,-135.5"/>
<text text-anchor="middle" x="630" y="-143.5" font-family="Helvetica,sans-Serif" font-size="10.00">UBSettings::getAppSettings</text>
</a>
</g>
<!-- Node3&#45;&gt;Node4 -->
<g id="edge6" class="edge"><title>Node3&#45;&gt;Node4</title>
<path fill="none" stroke="midnightblue" d="M474.18,-93.6093C496.947,-101.819 529.401,-113.373 558,-123 567.23,-126.107 577.16,-129.346 586.608,-132.379"/>
<polygon fill="midnightblue" stroke="midnightblue" points="585.64,-135.743 596.23,-135.45 587.769,-129.075 585.64,-135.743"/>
</g>
<!-- Node6 -->
<g id="node11" class="node"><title>Node6</title>
<a xlink:href="../../db/d66/class_u_b_settings.html#aea5fec9db96c03162c2ce1d5d4c41ab0" target="_top" xlink:title="UBSettings::replaceWildcard">
<polygon fill="white" stroke="black" points="558.5,-92.5 558.5,-113.5 701.5,-113.5 701.5,-92.5 558.5,-92.5"/>
<text text-anchor="middle" x="630" y="-100.5" font-family="Helvetica,sans-Serif" font-size="10.00">UBSettings::replaceWildcard</text>
</a>
</g>
<!-- Node3&#45;&gt;Node6 -->
<g id="edge10" class="edge"><title>Node3&#45;&gt;Node6</title>
<path fill="none" stroke="midnightblue" d="M521.047,-91.2213C530.026,-92.192 539.219,-93.1858 548.271,-94.1645"/>
<polygon fill="midnightblue" stroke="midnightblue" points="548.096,-97.6658 558.414,-95.261 548.848,-90.7064 548.096,-97.6658"/>
</g>
<!-- Node8 -->
<g id="node15" class="node"><title>Node8</title>
<a xlink:href="../../db/d66/class_u_b_settings.html#ac0b3c85870c353e48b7d2cfdff9e0eaa" target="_top" xlink:title="UBSettings::checkDirectory">
<polygon fill="white" stroke="black" points="560.5,-52.5 560.5,-73.5 699.5,-73.5 699.5,-52.5 560.5,-52.5"/>
<text text-anchor="middle" x="630" y="-60.5" font-family="Helvetica,sans-Serif" font-size="10.00">UBSettings::checkDirectory</text>
</a>
</g>
<!-- Node3&#45;&gt;Node8 -->
<g id="edge14" class="edge"><title>Node3&#45;&gt;Node8</title>
<path fill="none" stroke="midnightblue" d="M521.047,-74.7787C530.737,-73.7311 540.675,-72.6567 550.419,-71.6034"/>
<polygon fill="midnightblue" stroke="midnightblue" points="550.917,-75.07 560.483,-70.5153 550.165,-68.1105 550.917,-75.07"/>
</g>
<!-- Node9 -->
<g id="node17" class="node"><title>Node9</title>
<a xlink:href="../../d2/d7a/class_u_b_file_system_utils.html#af850f64fdd630fc78510c856f00ffa4f" target="_top" xlink:title="UBFileSystemUtils:\l:normalizeFilePath">
<polygon fill="white" stroke="black" points="578,-0 578,-34 682,-34 682,-0 578,-0"/>
<text text-anchor="start" x="586" y="-21" font-family="Helvetica,sans-Serif" font-size="10.00">UBFileSystemUtils:</text>
<text text-anchor="middle" x="630" y="-8" font-family="Helvetica,sans-Serif" font-size="10.00">:normalizeFilePath</text>
</a>
</g>
<!-- Node3&#45;&gt;Node9 -->
<g id="edge16" class="edge"><title>Node3&#45;&gt;Node9</title>
<path fill="none" stroke="midnightblue" d="M477.332,-72.4442C491.143,-67.8419 507.411,-62.2967 522,-57 538.137,-51.1413 541.925,-49.0269 558,-43 562.777,-41.2088 567.741,-39.3701 572.728,-37.5384"/>
<polygon fill="midnightblue" stroke="midnightblue" points="574.112,-40.759 582.303,-34.0391 571.709,-34.1843 574.112,-40.759"/>
</g>
<!-- Node5 -->
<g id="node9" class="node"><title>Node5</title>
<a xlink:href="../../d4/d99/class_u_b_platform_utils.html#ae595b29e794b20564550fd45515fc0a8" target="_top" xlink:title="UBPlatformUtils::application\lResourcesDirectory">
<polygon fill="white" stroke="black" points="756,-130 756,-164 896,-164 896,-130 756,-130"/>
<text text-anchor="start" x="764" y="-151" font-family="Helvetica,sans-Serif" font-size="10.00">UBPlatformUtils::application</text>
<text text-anchor="middle" x="826" y="-138" font-family="Helvetica,sans-Serif" font-size="10.00">ResourcesDirectory</text>
</a>
</g>
<!-- Node4&#45;&gt;Node5 -->
<g id="edge8" class="edge"><title>Node4&#45;&gt;Node5</title>
<path fill="none" stroke="midnightblue" d="M700.207,-146.358C714.933,-146.433 730.572,-146.513 745.635,-146.59"/>
<polygon fill="midnightblue" stroke="midnightblue" points="745.936,-150.091 755.954,-146.643 745.972,-143.092 745.936,-150.091"/>
</g>
<!-- Node7 -->
<g id="node13" class="node"><title>Node7</title>
<a xlink:href="../../d4/d99/class_u_b_platform_utils.html#a4ff6063df12b6d4d0c60c1a17b434599" target="_top" xlink:title="UBPlatformUtils::osUserLoginName">
<polygon fill="white" stroke="black" points="738.5,-90.5 738.5,-111.5 913.5,-111.5 913.5,-90.5 738.5,-90.5"/>
<text text-anchor="middle" x="826" y="-98.5" font-family="Helvetica,sans-Serif" font-size="10.00">UBPlatformUtils::osUserLoginName</text>
</a>
</g>
<!-- Node6&#45;&gt;Node7 -->
<g id="edge12" class="edge"><title>Node6&#45;&gt;Node7</title>
<path fill="none" stroke="midnightblue" d="M701.592,-102.269C710.253,-102.181 719.211,-102.09 728.167,-101.998"/>
<polygon fill="midnightblue" stroke="midnightblue" points="728.298,-105.497 738.261,-101.895 728.226,-98.4976 728.298,-105.497"/>
</g>
<!-- Node11 -->
<g id="node21" class="node"><title>Node11</title>
<a xlink:href="../../d5/d7a/class_u_b_features_model.html#a56acbe53b62456a7b3681162e7710e7a" target="_top" xlink:title="UBFeaturesModel::removeRow">
<polygon fill="white" stroke="black" points="368,-26.5 368,-47.5 522,-47.5 522,-26.5 368,-26.5"/>
<text text-anchor="middle" x="445" y="-34.5" font-family="Helvetica,sans-Serif" font-size="10.00">UBFeaturesModel::removeRow</text>
</a>
</g>
<!-- Node10&#45;&gt;Node11 -->
<g id="edge20" class="edge"><title>Node10&#45;&gt;Node11</title>
<path fill="none" stroke="midnightblue" d="M332.26,-37C340.707,-37 349.253,-37 357.664,-37"/>
<polygon fill="midnightblue" stroke="midnightblue" points="357.84,-40.5001 367.84,-37 357.84,-33.5001 357.84,-40.5001"/>
</g>
</g>
</svg>
        <g id="navigator" transform="translate(0 0)" fill="#404254">
                <rect fill="#f2f5e9" fill-opacity="0.5" stroke="#606060" stroke-width=".5" x="0" y="0" width="60" height="60"/>
                <use id="zoomplus" xlink:href="#zoomPlus" x="17" y="9" onmousedown="handleZoom(evt,'in')"/>
                <use id="zoomminus" xlink:href="#zoomMin" x="42" y="9" onmousedown="handleZoom(evt,'out')"/>
                <use id="reset" xlink:href="#resetDef" x="30" y="36" onmousedown="handleReset()"/>
                <g id="arrowUp" xlink:href="#dirArrow" transform="translate(30 24)" onmousedown="handlePan(0,-1)">
                  <use xlink:href="#rim" fill="#404040">
                        <set attributeName="fill" to="#808080" begin="arrowUp.mouseover" end="arrowUp.mouseout"/>
                  </use>
                  <path fill="none" stroke="white" stroke-width="1.5" d="M0,-3.0v7 M-2.5,-0.5L0,-3.0L2.5,-0.5"/>
                </g>
                <g id="arrowRight" xlink:href="#dirArrow" transform="rotate(90) translate(36 -43)" onmousedown="handlePan(1,0)">
                  <use xlink:href="#rim" fill="#404040">
                        <set attributeName="fill" to="#808080" begin="arrowRight.mouseover" end="arrowRight.mouseout"/>
                  </use>
                  <path fill="none" stroke="white" stroke-width="1.5" d="M0,-3.0v7 M-2.5,-0.5L0,-3.0L2.5,-0.5"/>
                </g>
                <g id="arrowDown" xlink:href="#dirArrow" transform="rotate(180) translate(-30 -48)" onmousedown="handlePan(0,1)">
                  <use xlink:href="#rim" fill="#404040">
                        <set attributeName="fill" to="#808080" begin="arrowDown.mouseover" end="arrowDown.mouseout"/>
                  </use>
                  <path fill="none" stroke="white" stroke-width="1.5" d="M0,-3.0v7 M-2.5,-0.5L0,-3.0L2.5,-0.5"/>
                </g>
                <g id="arrowLeft" xlink:href="#dirArrow" transform="rotate(270) translate(-36 17)" onmousedown="handlePan(-1,0)">
                  <use xlink:href="#rim" fill="#404040">
                        <set attributeName="fill" to="#808080" begin="arrowLeft.mouseover" end="arrowLeft.mouseout"/>
                  </use>
                  <path fill="none" stroke="white" stroke-width="1.5" d="M0,-3.0v7 M-2.5,-0.5L0,-3.0L2.5,-0.5"/>
                </g>
        </g>
        <svg viewBox="0 0 15 15" width="100%" height="30px" preserveAspectRatio="xMaxYMin meet">
         <g id="arrow_out" transform="scale(0.3 0.3)">
          <a xlink:href="class_u_b_features_controller_ac441a13d4bfca4a13e712cce6857bffc_cgraph_org.svg" target="_base">
           <rect id="button" ry="5" rx="5" y="6" x="6" height="38" width="38"
                fill="#f2f5e9" fill-opacity="0.5" stroke="#606060" stroke-width="1.0"/>
           <path id="arrow"
             d="M 11.500037,31.436501 C 11.940474,20.09759 22.043105,11.32322 32.158766,21.979434 L 37.068811,17.246167 C 37.068811,17.246167 37.088388,32 37.088388,32 L 22.160133,31.978069 C 22.160133,31.978069 26.997745,27.140456 26.997745,27.140456 C 18.528582,18.264221 13.291696,25.230495 11.500037,31.436501 z"
             style="fill:#404040;"/>
          </a>
         </g>
        </svg>
</svg>
