<?xml version="1.0" encoding="UTF-8" standalone="no"?>
<!DOCTYPE svg PUBLIC "-//W3C//DTD SVG 1.1//EN"
 "http://www.w3.org/Graphics/SVG/1.1/DTD/svg11.dtd">
<!-- Generated by graphviz version 2.26.3 (20100126.1600)
 -->
<!-- Title: UBFeaturesController::importImage Pages: 1 -->
<!--zoomable 202 -->
<svg id="main" version="1.1" xmlns="http://www.w3.org/2000/svg" xmlns:xlink="http://www.w3.org/1999/xlink" xml:space="preserve" onload="init(evt)">
        <defs>
                <circle id="rim" cx="0" cy="0" r="7"/>
                <circle id="rim2" cx="0" cy="0" r="3.5"/>
                <g id="zoomPlus">
                        <use xlink:href="#rim" fill="#404040">
                                <set attributeName="fill" to="#808080" begin="zoomplus.mouseover" end="zoomplus.mouseout"/>
                        </use>
                        <path d="M-4,0h8M0,-4v8" fill="none" stroke="white" stroke-width="1.5" pointer-events="none"/>
                </g>
                <g id="zoomMin">
                        <use xlink:href="#rim" fill="#404040">
                                <set attributeName="fill" to="#808080" begin="zoomminus.mouseover" end="zoomminus.mouseout"/>
                        </use>
                        <path d="M-4,0h8" fill="none" stroke="white" stroke-width="1.5" pointer-events="none"/>
                </g>
                <g id="dirArrow">
                        <path fill="none" stroke="white" stroke-width="1.5" d="M0,-3.0v7 M-2.5,-0.5L0,-3.0L2.5,-0.5"/>
                </g>
               <g id="resetDef">
                       <use xlink:href="#rim2" fill="#404040">
                               <set attributeName="fill" to="#808080" begin="reset.mouseover" end="reset.mouseout"/>
                       </use>
               </g>
        </defs>

<script type="text/javascript">
var viewWidth = 616;
var viewHeight = 202;
var sectionId = 'dynsection-45';
</script>
<script xlink:href="../../svgpan.js"/>
<svg id="graph" class="graph">
<g id="viewport">
<title>UBFeaturesController::importImage</title>
<polygon fill="white" stroke="white" points="-4,5 -4,-198 613,-198 613,5 -4,5"/>
<!-- Node1 -->
<g id="node1" class="node"><title>Node1</title>
<polygon fill="#bfbfbf" stroke="black" points="0.5,-80 0.5,-114 111.5,-114 111.5,-80 0.5,-80"/>
<text text-anchor="start" x="8.5" y="-101" font-family="Helvetica,sans-Serif" font-size="10.00">UBFeaturesController</text>
<text text-anchor="middle" x="56" y="-88" font-family="Helvetica,sans-Serif" font-size="10.00">::importImage</text>
</g>
<!-- Node2 -->
<g id="node3" class="node"><title>Node2</title>
<a xlink:href="../../d2/d9e/struct_category_data.html#ae5da36a3b7327e15fd29b87c20e6ac39" target="_top" xlink:title="CategoryData::pathData">
<polygon fill="white" stroke="black" points="163.5,-172.5 163.5,-193.5 286.5,-193.5 286.5,-172.5 163.5,-172.5"/>
<text text-anchor="middle" x="225" y="-180.5" font-family="Helvetica,sans-Serif" font-size="10.00">CategoryData::pathData</text>
</a>
</g>
<!-- Node1&#45;&gt;Node2 -->
<g id="edge2" class="edge"><title>Node1&#45;&gt;Node2</title>
<path fill="none" stroke="midnightblue" d="M75.469,-114.257C93.2236,-129.156 120.766,-150.238 148,-163 153.003,-165.344 158.322,-167.444 163.737,-169.319"/>
<polygon fill="midnightblue" stroke="midnightblue" points="162.947,-172.741 173.538,-172.454 165.08,-166.074 162.947,-172.741"/>
</g>
<!-- Node3 -->
<g id="node5" class="node"><title>Node3</title>
<a xlink:href="../../d2/d9e/struct_category_data.html#a12f08c37bc3241d3346228a5b262c4fa" target="_top" xlink:title="CategoryData::categoryFeature">
<polygon fill="white" stroke="black" points="148,-132.5 148,-153.5 302,-153.5 302,-132.5 148,-132.5"/>
<text text-anchor="middle" x="225" y="-140.5" font-family="Helvetica,sans-Serif" font-size="10.00">CategoryData::categoryFeature</text>
</a>
</g>
<!-- Node1&#45;&gt;Node3 -->
<g id="edge4" class="edge"><title>Node1&#45;&gt;Node3</title>
<path fill="none" stroke="midnightblue" d="M111.897,-113.002C123.8,-116.353 136.306,-119.829 148,-123 156.426,-125.285 165.386,-127.66 174.102,-129.943"/>
<polygon fill="midnightblue" stroke="midnightblue" points="173.238,-133.335 183.797,-132.471 175.004,-126.561 173.238,-133.335"/>
</g>
<!-- Node4 -->
<g id="node7" class="node"><title>Node4</title>
<a xlink:href="../../d8/d33/class_u_b_features_controller.html#ad6fad2a4b8b47890a5853b53bd048aa9" target="_top" xlink:title="UBFeaturesController\l::createThumbnail">
<polygon fill="white" stroke="black" points="169.5,-80 169.5,-114 280.5,-114 280.5,-80 169.5,-80"/>
<text text-anchor="start" x="177.5" y="-101" font-family="Helvetica,sans-Serif" font-size="10.00">UBFeaturesController</text>
<text text-anchor="middle" x="225" y="-88" font-family="Helvetica,sans-Serif" font-size="10.00">::createThumbnail</text>
</a>
</g>
<!-- Node1&#45;&gt;Node4 -->
<g id="edge6" class="edge"><title>Node1&#45;&gt;Node4</title>
<path fill="none" stroke="midnightblue" d="M111.805,-97C126.948,-97 143.486,-97 159.128,-97"/>
<polygon fill="midnightblue" stroke="midnightblue" points="159.253,-100.5 169.253,-97 159.253,-93.5001 159.253,-100.5"/>
</g>
<!-- Node7 -->
<g id="node13" class="node"><title>Node7</title>
<a xlink:href="../../db/d98/class_u_b_feature.html#a175da54d5e0d135c43b44009601a1380" target="_top" xlink:title="UBFeature::getFullVirtualPath">
<polygon fill="white" stroke="black" points="151.5,-40.5 151.5,-61.5 298.5,-61.5 298.5,-40.5 151.5,-40.5"/>
<text text-anchor="middle" x="225" y="-48.5" font-family="Helvetica,sans-Serif" font-size="10.00">UBFeature::getFullVirtualPath</text>
</a>
</g>
<!-- Node1&#45;&gt;Node7 -->
<g id="edge12" class="edge"><title>Node1&#45;&gt;Node7</title>
<path fill="none" stroke="midnightblue" d="M111.897,-80.9976C123.8,-77.6474 136.306,-74.1708 148,-71 156.426,-68.7153 165.386,-66.3395 174.102,-64.0569"/>
<polygon fill="midnightblue" stroke="midnightblue" points="175.004,-67.4388 183.797,-61.5292 173.238,-60.6652 175.004,-67.4388"/>
</g>
<!-- Node8 -->
<g id="node15" class="node"><title>Node8</title>
<a xlink:href="../../d5/d7a/class_u_b_features_model.html#ac904dec2116695af0fdc95f23d3940f2" target="_top" xlink:title="UBFeaturesModel::addItem">
<polygon fill="white" stroke="black" points="156.5,-0.5 156.5,-21.5 293.5,-21.5 293.5,-0.5 156.5,-0.5"/>
<text text-anchor="middle" x="225" y="-8.5" font-family="Helvetica,sans-Serif" font-size="10.00">UBFeaturesModel::addItem</text>
</a>
</g>
<!-- Node1&#45;&gt;Node8 -->
<g id="edge14" class="edge"><title>Node1&#45;&gt;Node8</title>
<path fill="none" stroke="midnightblue" d="M75.469,-79.7427C93.2236,-64.8439 120.766,-43.7617 148,-31 153.003,-28.6558 158.322,-26.5558 163.737,-24.6811"/>
<polygon fill="midnightblue" stroke="midnightblue" points="165.08,-27.926 173.538,-21.5456 162.947,-21.2588 165.08,-27.926"/>
</g>
<!-- Node5 -->
<g id="node9" class="node"><title>Node5</title>
<a xlink:href="../../d2/d7a/class_u_b_file_system_utils.html#a272b08b8f8907091333982fb53a7aa2a" target="_top" xlink:title="UBFileSystemUtils:\l:mimeTypeFromFileName">
<polygon fill="white" stroke="black" points="338,-80 338,-114 468,-114 468,-80 338,-80"/>
<text text-anchor="start" x="346" y="-101" font-family="Helvetica,sans-Serif" font-size="10.00">UBFileSystemUtils:</text>
<text text-anchor="middle" x="403" y="-88" font-family="Helvetica,sans-Serif" font-size="10.00">:mimeTypeFromFileName</text>
</a>
</g>
<!-- Node4&#45;&gt;Node5 -->
<g id="edge8" class="edge"><title>Node4&#45;&gt;Node5</title>
<path fill="none" stroke="midnightblue" d="M280.832,-97C295.635,-97 311.868,-97 327.528,-97"/>
<polygon fill="midnightblue" stroke="midnightblue" points="327.715,-100.5 337.715,-97 327.715,-93.5001 327.715,-100.5"/>
</g>
<!-- Node6 -->
<g id="node11" class="node"><title>Node6</title>
<a xlink:href="../../d2/d7a/class_u_b_file_system_utils.html#a8dcbcd889a2c79495470ff11f955c0b6" target="_top" xlink:title="UBFileSystemUtils:\l:extension">
<polygon fill="white" stroke="black" points="504,-80 504,-114 608,-114 608,-80 504,-80"/>
<text text-anchor="start" x="512" y="-101" font-family="Helvetica,sans-Serif" font-size="10.00">UBFileSystemUtils:</text>
<text text-anchor="middle" x="556" y="-88" font-family="Helvetica,sans-Serif" font-size="10.00">:extension</text>
</a>
</g>
<!-- Node5&#45;&gt;Node6 -->
<g id="edge10" class="edge"><title>Node5&#45;&gt;Node6</title>
<path fill="none" stroke="midnightblue" d="M468.33,-97C476.76,-97 485.375,-97 493.754,-97"/>
<polygon fill="midnightblue" stroke="midnightblue" points="493.829,-100.5 503.829,-97 493.829,-93.5001 493.829,-100.5"/>
</g>
</g>
</svg>
        <g id="navigator" transform="translate(0 0)" fill="#404254">
                <rect fill="#f2f5e9" fill-opacity="0.5" stroke="#606060" stroke-width=".5" x="0" y="0" width="60" height="60"/>
                <use id="zoomplus" xlink:href="#zoomPlus" x="17" y="9" onmousedown="handleZoom(evt,'in')"/>
                <use id="zoomminus" xlink:href="#zoomMin" x="42" y="9" onmousedown="handleZoom(evt,'out')"/>
                <use id="reset" xlink:href="#resetDef" x="30" y="36" onmousedown="handleReset()"/>
                <g id="arrowUp" xlink:href="#dirArrow" transform="translate(30 24)" onmousedown="handlePan(0,-1)">
                  <use xlink:href="#rim" fill="#404040">
                        <set attributeName="fill" to="#808080" begin="arrowUp.mouseover" end="arrowUp.mouseout"/>
                  </use>
                  <path fill="none" stroke="white" stroke-width="1.5" d="M0,-3.0v7 M-2.5,-0.5L0,-3.0L2.5,-0.5"/>
                </g>
                <g id="arrowRight" xlink:href="#dirArrow" transform="rotate(90) translate(36 -43)" onmousedown="handlePan(1,0)">
                  <use xlink:href="#rim" fill="#404040">
                        <set attributeName="fill" to="#808080" begin="arrowRight.mouseover" end="arrowRight.mouseout"/>
                  </use>
                  <path fill="none" stroke="white" stroke-width="1.5" d="M0,-3.0v7 M-2.5,-0.5L0,-3.0L2.5,-0.5"/>
                </g>
                <g id="arrowDown" xlink:href="#dirArrow" transform="rotate(180) translate(-30 -48)" onmousedown="handlePan(0,1)">
                  <use xlink:href="#rim" fill="#404040">
                        <set attributeName="fill" to="#808080" begin="arrowDown.mouseover" end="arrowDown.mouseout"/>
                  </use>
                  <path fill="none" stroke="white" stroke-width="1.5" d="M0,-3.0v7 M-2.5,-0.5L0,-3.0L2.5,-0.5"/>
                </g>
                <g id="arrowLeft" xlink:href="#dirArrow" transform="rotate(270) translate(-36 17)" onmousedown="handlePan(-1,0)">
                  <use xlink:href="#rim" fill="#404040">
                        <set attributeName="fill" to="#808080" begin="arrowLeft.mouseover" end="arrowLeft.mouseout"/>
                  </use>
                  <path fill="none" stroke="white" stroke-width="1.5" d="M0,-3.0v7 M-2.5,-0.5L0,-3.0L2.5,-0.5"/>
                </g>
        </g>
        <svg viewBox="0 0 15 15" width="100%" height="30px" preserveAspectRatio="xMaxYMin meet">
         <g id="arrow_out" transform="scale(0.3 0.3)">
          <a xlink:href="class_u_b_features_controller_a7d71c50db359949131a49e2a1f46524f_cgraph_org.svg" target="_base">
           <rect id="button" ry="5" rx="5" y="6" x="6" height="38" width="38"
                fill="#f2f5e9" fill-opacity="0.5" stroke="#606060" stroke-width="1.0"/>
           <path id="arrow"
             d="M 11.500037,31.436501 C 11.940474,20.09759 22.043105,11.32322 32.158766,21.979434 L 37.068811,17.246167 C 37.068811,17.246167 37.088388,32 37.088388,32 L 22.160133,31.978069 C 22.160133,31.978069 26.997745,27.140456 26.997745,27.140456 C 18.528582,18.264221 13.291696,25.230495 11.500037,31.436501 z"
             style="fill:#404040;"/>
          </a>
         </g>
        </svg>
</svg>
