<?xml version="1.0" encoding="UTF-8" standalone="no"?>
<!DOCTYPE svg PUBLIC "-//W3C//DTD SVG 1.1//EN"
 "http://www.w3.org/Graphics/SVG/1.1/DTD/svg11.dtd">
<!-- Generated by graphviz version 2.26.3 (20100126.1600)
 -->
<!-- Title: UBFeature::operator== Pages: 1 -->
<svg width="294pt" height="150pt"
 viewBox="0.00 0.00 294.00 150.00" xmlns="http://www.w3.org/2000/svg" xmlns:xlink="http://www.w3.org/1999/xlink">
<g id="graph1" class="graph" transform="scale(1 1) rotate(0) translate(4 146)">
<title>UBFeature::operator==</title>
<polygon fill="white" stroke="white" points="-4,5 -4,-146 291,-146 291,5 -4,5"/>
<!-- Node1 -->
<g id="node1" class="node"><title>Node1</title>
<polygon fill="#bfbfbf" stroke="black" points="0.5,-60.5 0.5,-81.5 117.5,-81.5 117.5,-60.5 0.5,-60.5"/>
<text text-anchor="middle" x="59" y="-68.5" font-family="Helvetica,sans-Serif" font-size="10.00">UBFeature::operator==</text>
</g>
<!-- Node2 -->
<g id="node3" class="node"><title>Node2</title>
<a xlink:href="../../db/d98/class_u_b_feature.html#abe1b7ac8f7fe9f69c3b2a467733aaa8b" target="_top" xlink:title="UBFeature::getVirtualPath">
<polygon fill="white" stroke="black" points="154.5,-120.5 154.5,-141.5 285.5,-141.5 285.5,-120.5 154.5,-120.5"/>
<text text-anchor="middle" x="220" y="-128.5" font-family="Helvetica,sans-Serif" font-size="10.00">UBFeature::getVirtualPath</text>
</a>
</g>
<!-- Node1&#45;&gt;Node2 -->
<g id="edge2" class="edge"><title>Node1&#45;&gt;Node2</title>
<path fill="none" stroke="midnightblue" d="M82.1563,-81.5497C101.229,-90.0442 129.088,-102.008 154,-111 160.06,-113.187 166.489,-115.339 172.864,-117.373"/>
<polygon fill="midnightblue" stroke="midnightblue" points="172.187,-120.828 182.775,-120.461 174.269,-114.145 172.187,-120.828"/>
</g>
<!-- Node3 -->
<g id="node5" class="node"><title>Node3</title>
<a xlink:href="../../db/d98/class_u_b_feature.html#a5f863075343c08c09bd45c230c739ac9" target="_top" xlink:title="UBFeature::getName">
<polygon fill="white" stroke="black" points="165,-80.5 165,-101.5 275,-101.5 275,-80.5 165,-80.5"/>
<text text-anchor="middle" x="220" y="-88.5" font-family="Helvetica,sans-Serif" font-size="10.00">UBFeature::getName</text>
</a>
</g>
<!-- Node1&#45;&gt;Node3 -->
<g id="edge4" class="edge"><title>Node1&#45;&gt;Node3</title>
<path fill="none" stroke="midnightblue" d="M117.58,-78.277C129.662,-79.7779 142.456,-81.3673 154.758,-82.8954"/>
<polygon fill="midnightblue" stroke="midnightblue" points="154.593,-86.4017 164.948,-84.1613 155.456,-79.4551 154.593,-86.4017"/>
</g>
<!-- Node4 -->
<g id="node7" class="node"><title>Node4</title>
<a xlink:href="../../db/d98/class_u_b_feature.html#a4ceaa848c777bba908e70888cc8b0008" target="_top" xlink:title="UBFeature::getFullPath">
<polygon fill="white" stroke="black" points="160.5,-40.5 160.5,-61.5 279.5,-61.5 279.5,-40.5 160.5,-40.5"/>
<text text-anchor="middle" x="220" y="-48.5" font-family="Helvetica,sans-Serif" font-size="10.00">UBFeature::getFullPath</text>
</a>
</g>
<!-- Node1&#45;&gt;Node4 -->
<g id="edge6" class="edge"><title>Node1&#45;&gt;Node4</title>
<path fill="none" stroke="midnightblue" d="M117.58,-63.723C128.25,-62.3975 139.476,-61.003 150.427,-59.6426"/>
<polygon fill="midnightblue" stroke="midnightblue" points="150.891,-63.112 160.383,-58.4059 150.028,-56.1654 150.891,-63.112"/>
</g>
<!-- Node5 -->
<g id="node9" class="node"><title>Node5</title>
<a xlink:href="../../db/d98/class_u_b_feature.html#a9e48a4ed3645dd5e1aea16d73ce4feff" target="_top" xlink:title="UBFeature::getType">
<polygon fill="white" stroke="black" points="167.5,-0.5 167.5,-21.5 272.5,-21.5 272.5,-0.5 167.5,-0.5"/>
<text text-anchor="middle" x="220" y="-8.5" font-family="Helvetica,sans-Serif" font-size="10.00">UBFeature::getType</text>
</a>
</g>
<!-- Node1&#45;&gt;Node5 -->
<g id="edge8" class="edge"><title>Node1&#45;&gt;Node5</title>
<path fill="none" stroke="midnightblue" d="M82.1563,-60.4503C101.229,-51.9558 129.088,-39.9916 154,-31 160.06,-28.8127 166.489,-26.6612 172.864,-24.6272"/>
<polygon fill="midnightblue" stroke="midnightblue" points="174.269,-27.8553 182.775,-21.5392 172.187,-21.1721 174.269,-27.8553"/>
</g>
</g>
</svg>
