<?xml version="1.0" encoding="UTF-8" standalone="no"?>
<!DOCTYPE svg PUBLIC "-//W3C//DTD SVG 1.1//EN"
 "http://www.w3.org/Graphics/SVG/1.1/DTD/svg11.dtd">
<!-- Generated by graphviz version 2.26.3 (20100126.1600)
 -->
<!-- Title: UBToolWidget::initialize Pages: 1 -->
<!--zoomable 226 -->
<svg id="main" version="1.1" xmlns="http://www.w3.org/2000/svg" xmlns:xlink="http://www.w3.org/1999/xlink" xml:space="preserve" onload="init(evt)">
        <defs>
                <circle id="rim" cx="0" cy="0" r="7"/>
                <circle id="rim2" cx="0" cy="0" r="3.5"/>
                <g id="zoomPlus">
                        <use xlink:href="#rim" fill="#404040">
                                <set attributeName="fill" to="#808080" begin="zoomplus.mouseover" end="zoomplus.mouseout"/>
                        </use>
                        <path d="M-4,0h8M0,-4v8" fill="none" stroke="white" stroke-width="1.5" pointer-events="none"/>
                </g>
                <g id="zoomMin">
                        <use xlink:href="#rim" fill="#404040">
                                <set attributeName="fill" to="#808080" begin="zoomminus.mouseover" end="zoomminus.mouseout"/>
                        </use>
                        <path d="M-4,0h8" fill="none" stroke="white" stroke-width="1.5" pointer-events="none"/>
                </g>
                <g id="dirArrow">
                        <path fill="none" stroke="white" stroke-width="1.5" d="M0,-3.0v7 M-2.5,-0.5L0,-3.0L2.5,-0.5"/>
                </g>
               <g id="resetDef">
                       <use xlink:href="#rim2" fill="#404040">
                               <set attributeName="fill" to="#808080" begin="reset.mouseover" end="reset.mouseout"/>
                       </use>
               </g>
        </defs>

<script type="text/javascript">
var viewWidth = 838;
var viewHeight = 226;
var sectionId = 'dynsection-5';
</script>
<script xlink:href="../../svgpan.js"/>
<svg id="graph" class="graph">
<g id="viewport">
<title>UBToolWidget::initialize</title>
<polygon fill="white" stroke="white" points="-4,5 -4,-222 835,-222 835,5 -4,5"/>
<!-- Node1 -->
<g id="node1" class="node"><title>Node1</title>
<polygon fill="#bfbfbf" stroke="black" points="0,-92.5 0,-113.5 122,-113.5 122,-92.5 0,-92.5"/>
<text text-anchor="middle" x="61" y="-100.5" font-family="Helvetica,sans-Serif" font-size="10.00">UBToolWidget::initialize</text>
</g>
<!-- Node2 -->
<g id="node3" class="node"><title>Node2</title>
<a xlink:href="../../d0/d16/class_u_b_graphics_widget_item.html#ad7cad83001340bbfd1ec361a09f6a454" target="_top" xlink:title="UBGraphicsWidgetItem\l::scene">
<polygon fill="white" stroke="black" points="176,-184 176,-218 296,-218 296,-184 176,-184"/>
<text text-anchor="start" x="184" y="-205" font-family="Helvetica,sans-Serif" font-size="10.00">UBGraphicsWidgetItem</text>
<text text-anchor="middle" x="236" y="-192" font-family="Helvetica,sans-Serif" font-size="10.00">::scene</text>
</a>
</g>
<!-- Node1&#45;&gt;Node2 -->
<g id="edge2" class="edge"><title>Node1&#45;&gt;Node2</title>
<path fill="none" stroke="midnightblue" d="M72.7184,-113.659C90.1647,-129.051 124.518,-157.563 158,-175 161.462,-176.803 165.074,-178.517 168.765,-180.141"/>
<polygon fill="midnightblue" stroke="midnightblue" points="167.483,-183.399 178.061,-183.992 170.161,-176.931 167.483,-183.399"/>
</g>
<!-- Node3 -->
<g id="node5" class="node"><title>Node3</title>
<a xlink:href="../../d3/db1/class_u_b_core_graphics_scene.html#a310c66a09239231971b65da11d89886f" target="_top" xlink:title="UBCoreGraphicsScene\l::removeItemFromDeletion">
<polygon fill="white" stroke="black" points="169.5,-132 169.5,-166 302.5,-166 302.5,-132 169.5,-132"/>
<text text-anchor="start" x="177.5" y="-153" font-family="Helvetica,sans-Serif" font-size="10.00">UBCoreGraphicsScene</text>
<text text-anchor="middle" x="236" y="-140" font-family="Helvetica,sans-Serif" font-size="10.00">::removeItemFromDeletion</text>
</a>
</g>
<!-- Node1&#45;&gt;Node3 -->
<g id="edge4" class="edge"><title>Node1&#45;&gt;Node3</title>
<path fill="none" stroke="midnightblue" d="M101.149,-113.553C119.007,-118.248 140.631,-123.932 161.284,-129.36"/>
<polygon fill="midnightblue" stroke="midnightblue" points="160.443,-132.758 171.005,-131.915 162.223,-125.988 160.443,-132.758"/>
</g>
<!-- Node4 -->
<g id="node7" class="node"><title>Node4</title>
<a xlink:href="../../dc/db2/class_u_b_graphics_scene.html#a769a40e7bebcaf040e391eed5f5d3f56" target="_top" xlink:title="UBGraphicsScene::removeItem">
<polygon fill="white" stroke="black" points="158.5,-92.5 158.5,-113.5 313.5,-113.5 313.5,-92.5 158.5,-92.5"/>
<text text-anchor="middle" x="236" y="-100.5" font-family="Helvetica,sans-Serif" font-size="10.00">UBGraphicsScene::removeItem</text>
</a>
</g>
<!-- Node1&#45;&gt;Node4 -->
<g id="edge6" class="edge"><title>Node1&#45;&gt;Node4</title>
<path fill="none" stroke="midnightblue" d="M122.207,-103C130.566,-103 139.278,-103 147.998,-103"/>
<polygon fill="midnightblue" stroke="midnightblue" points="148.215,-106.5 158.215,-103 148.215,-99.5001 148.215,-106.5"/>
</g>
<!-- Node11 -->
<g id="node21" class="node"><title>Node11</title>
<a xlink:href="../../db/d66/class_u_b_settings.html#a0d8ed418921c2b2d37851faeae00715d" target="_top" xlink:title="UBSettings::settings">
<polygon fill="white" stroke="black" points="182.5,-52.5 182.5,-73.5 289.5,-73.5 289.5,-52.5 182.5,-52.5"/>
<text text-anchor="middle" x="236" y="-60.5" font-family="Helvetica,sans-Serif" font-size="10.00">UBSettings::settings</text>
</a>
</g>
<!-- Node1&#45;&gt;Node11 -->
<g id="edge20" class="edge"><title>Node1&#45;&gt;Node11</title>
<path fill="none" stroke="midnightblue" d="M106.979,-92.4905C129.398,-87.3663 156.55,-81.1601 180.151,-75.7655"/>
<polygon fill="midnightblue" stroke="midnightblue" points="181.056,-79.149 190.024,-73.5087 179.496,-72.325 181.056,-79.149"/>
</g>
<!-- Node12 -->
<g id="node23" class="node"><title>Node12</title>
<a xlink:href="../../d0/d16/class_u_b_graphics_widget_item.html#a55d8bd17009ad1e73955744866d40fb1" target="_top" xlink:title="UBGraphicsWidgetItem\l::mainHtml">
<polygon fill="white" stroke="black" points="176,-0 176,-34 296,-34 296,-0 176,-0"/>
<text text-anchor="start" x="184" y="-21" font-family="Helvetica,sans-Serif" font-size="10.00">UBGraphicsWidgetItem</text>
<text text-anchor="middle" x="236" y="-8" font-family="Helvetica,sans-Serif" font-size="10.00">::mainHtml</text>
</a>
</g>
<!-- Node1&#45;&gt;Node12 -->
<g id="edge22" class="edge"><title>Node1&#45;&gt;Node12</title>
<path fill="none" stroke="midnightblue" d="M75.8375,-92.2968C94.3559,-79.3047 127.334,-57.3567 158,-43 161.854,-41.1957 165.868,-39.459 169.953,-37.7987"/>
<polygon fill="midnightblue" stroke="midnightblue" points="171.513,-40.9476 179.57,-34.0673 168.981,-34.4216 171.513,-40.9476"/>
</g>
<!-- Node5 -->
<g id="node9" class="node"><title>Node5</title>
<a xlink:href="../../d7/d62/class_u_b_board_controller.html#a3e83388ec403a3bec62277e1b1a0144f" target="_top" xlink:title="UBBoardController:\l:freezeW3CWidget">
<polygon fill="white" stroke="black" points="359.5,-112 359.5,-146 460.5,-146 460.5,-112 359.5,-112"/>
<text text-anchor="start" x="367.5" y="-133" font-family="Helvetica,sans-Serif" font-size="10.00">UBBoardController:</text>
<text text-anchor="middle" x="410" y="-120" font-family="Helvetica,sans-Serif" font-size="10.00">:freezeW3CWidget</text>
</a>
</g>
<!-- Node4&#45;&gt;Node5 -->
<g id="edge8" class="edge"><title>Node4&#45;&gt;Node5</title>
<path fill="none" stroke="midnightblue" d="M306.271,-113.5C320.54,-115.632 335.432,-117.858 349.334,-119.935"/>
<polygon fill="midnightblue" stroke="midnightblue" points="348.852,-123.402 359.259,-121.418 349.886,-116.479 348.852,-123.402"/>
</g>
<!-- Node9 -->
<g id="node17" class="node"><title>Node9</title>
<a xlink:href="../../d3/db1/class_u_b_core_graphics_scene.html#aa834de4c7e8874b466bdbccda0ef2053" target="_top" xlink:title="UBCoreGraphicsScene\l::deleteItem">
<polygon fill="white" stroke="black" points="350.5,-60 350.5,-94 469.5,-94 469.5,-60 350.5,-60"/>
<text text-anchor="start" x="358.5" y="-81" font-family="Helvetica,sans-Serif" font-size="10.00">UBCoreGraphicsScene</text>
<text text-anchor="middle" x="410" y="-68" font-family="Helvetica,sans-Serif" font-size="10.00">::deleteItem</text>
</a>
</g>
<!-- Node4&#45;&gt;Node9 -->
<g id="edge16" class="edge"><title>Node4&#45;&gt;Node9</title>
<path fill="none" stroke="midnightblue" d="M306.271,-92.4997C317.464,-90.8272 329.041,-89.0973 340.222,-87.4265"/>
<polygon fill="midnightblue" stroke="midnightblue" points="340.985,-90.8516 350.358,-85.9121 339.95,-83.9284 340.985,-90.8516"/>
</g>
<!-- Node6 -->
<g id="node11" class="node"><title>Node6</title>
<a xlink:href="../../d7/da7/class_u_b_graphics_w3_c_widget_item.html#adc5e2a6da0f030dbcf3b1fe0b4f1cfd6" target="_top" xlink:title="UBGraphicsW3CWidgetItem\l::freezedWidgetFilePath">
<polygon fill="white" stroke="black" points="508.5,-161 508.5,-195 651.5,-195 651.5,-161 508.5,-161"/>
<text text-anchor="start" x="516.5" y="-182" font-family="Helvetica,sans-Serif" font-size="10.00">UBGraphicsW3CWidgetItem</text>
<text text-anchor="middle" x="580" y="-169" font-family="Helvetica,sans-Serif" font-size="10.00">::freezedWidgetFilePath</text>
</a>
</g>
<!-- Node5&#45;&gt;Node6 -->
<g id="edge10" class="edge"><title>Node5&#45;&gt;Node6</title>
<path fill="none" stroke="midnightblue" d="M460.545,-143.569C476.418,-148.144 494.22,-153.275 511.136,-158.151"/>
<polygon fill="midnightblue" stroke="midnightblue" points="510.395,-161.58 520.973,-160.986 512.333,-154.854 510.395,-161.58"/>
</g>
<!-- Node8 -->
<g id="node15" class="node"><title>Node8</title>
<a xlink:href="../../d0/d16/class_u_b_graphics_widget_item.html#aadbdbf82a7420d3760df51e7cfdbe1da" target="_top" xlink:title="UBGraphicsWidgetItem\l::loadMainHtml">
<polygon fill="white" stroke="black" points="520,-109 520,-143 640,-143 640,-109 520,-109"/>
<text text-anchor="start" x="528" y="-130" font-family="Helvetica,sans-Serif" font-size="10.00">UBGraphicsWidgetItem</text>
<text text-anchor="middle" x="580" y="-117" font-family="Helvetica,sans-Serif" font-size="10.00">::loadMainHtml</text>
</a>
</g>
<!-- Node5&#45;&gt;Node8 -->
<g id="edge14" class="edge"><title>Node5&#45;&gt;Node8</title>
<path fill="none" stroke="midnightblue" d="M460.545,-128.108C475.945,-127.836 493.161,-127.532 509.623,-127.242"/>
<polygon fill="midnightblue" stroke="midnightblue" points="509.816,-130.739 519.752,-127.063 509.692,-123.74 509.816,-130.739"/>
</g>
<!-- Node7 -->
<g id="node13" class="node"><title>Node7</title>
<a xlink:href="../../d4/d99/class_u_b_platform_utils.html#ae595b29e794b20564550fd45515fc0a8" target="_top" xlink:title="UBPlatformUtils::application\lResourcesDirectory">
<polygon fill="white" stroke="black" points="690,-161 690,-195 830,-195 830,-161 690,-161"/>
<text text-anchor="start" x="698" y="-182" font-family="Helvetica,sans-Serif" font-size="10.00">UBPlatformUtils::application</text>
<text text-anchor="middle" x="760" y="-169" font-family="Helvetica,sans-Serif" font-size="10.00">ResourcesDirectory</text>
</a>
</g>
<!-- Node6&#45;&gt;Node7 -->
<g id="edge12" class="edge"><title>Node6&#45;&gt;Node7</title>
<path fill="none" stroke="midnightblue" d="M651.658,-178C660.874,-178 670.357,-178 679.7,-178"/>
<polygon fill="midnightblue" stroke="midnightblue" points="679.763,-181.5 689.763,-178 679.763,-174.5 679.763,-181.5"/>
</g>
<!-- Node10 -->
<g id="node19" class="node"><title>Node10</title>
<a xlink:href="../../d3/dbd/class_u_b_graphics_item.html#a83e8d1b8f4bbbc024a15f645a39d6e49" target="_top" xlink:title="UBGraphicsItem::clearSource">
<polygon fill="white" stroke="black" points="506.5,-66.5 506.5,-87.5 653.5,-87.5 653.5,-66.5 506.5,-66.5"/>
<text text-anchor="middle" x="580" y="-74.5" font-family="Helvetica,sans-Serif" font-size="10.00">UBGraphicsItem::clearSource</text>
</a>
</g>
<!-- Node9&#45;&gt;Node10 -->
<g id="edge18" class="edge"><title>Node9&#45;&gt;Node10</title>
<path fill="none" stroke="midnightblue" d="M469.936,-77C478.479,-77 487.393,-77 496.288,-77"/>
<polygon fill="midnightblue" stroke="midnightblue" points="496.302,-80.5001 506.302,-77 496.302,-73.5001 496.302,-80.5001"/>
</g>
</g>
</svg>
        <g id="navigator" transform="translate(0 0)" fill="#404254">
                <rect fill="#f2f5e9" fill-opacity="0.5" stroke="#606060" stroke-width=".5" x="0" y="0" width="60" height="60"/>
                <use id="zoomplus" xlink:href="#zoomPlus" x="17" y="9" onmousedown="handleZoom(evt,'in')"/>
                <use id="zoomminus" xlink:href="#zoomMin" x="42" y="9" onmousedown="handleZoom(evt,'out')"/>
                <use id="reset" xlink:href="#resetDef" x="30" y="36" onmousedown="handleReset()"/>
                <g id="arrowUp" xlink:href="#dirArrow" transform="translate(30 24)" onmousedown="handlePan(0,-1)">
                  <use xlink:href="#rim" fill="#404040">
                        <set attributeName="fill" to="#808080" begin="arrowUp.mouseover" end="arrowUp.mouseout"/>
                  </use>
                  <path fill="none" stroke="white" stroke-width="1.5" d="M0,-3.0v7 M-2.5,-0.5L0,-3.0L2.5,-0.5"/>
                </g>
                <g id="arrowRight" xlink:href="#dirArrow" transform="rotate(90) translate(36 -43)" onmousedown="handlePan(1,0)">
                  <use xlink:href="#rim" fill="#404040">
                        <set attributeName="fill" to="#808080" begin="arrowRight.mouseover" end="arrowRight.mouseout"/>
                  </use>
                  <path fill="none" stroke="white" stroke-width="1.5" d="M0,-3.0v7 M-2.5,-0.5L0,-3.0L2.5,-0.5"/>
                </g>
                <g id="arrowDown" xlink:href="#dirArrow" transform="rotate(180) translate(-30 -48)" onmousedown="handlePan(0,1)">
                  <use xlink:href="#rim" fill="#404040">
                        <set attributeName="fill" to="#808080" begin="arrowDown.mouseover" end="arrowDown.mouseout"/>
                  </use>
                  <path fill="none" stroke="white" stroke-width="1.5" d="M0,-3.0v7 M-2.5,-0.5L0,-3.0L2.5,-0.5"/>
                </g>
                <g id="arrowLeft" xlink:href="#dirArrow" transform="rotate(270) translate(-36 17)" onmousedown="handlePan(-1,0)">
                  <use xlink:href="#rim" fill="#404040">
                        <set attributeName="fill" to="#808080" begin="arrowLeft.mouseover" end="arrowLeft.mouseout"/>
                  </use>
                  <path fill="none" stroke="white" stroke-width="1.5" d="M0,-3.0v7 M-2.5,-0.5L0,-3.0L2.5,-0.5"/>
                </g>
        </g>
        <svg viewBox="0 0 15 15" width="100%" height="30px" preserveAspectRatio="xMaxYMin meet">
         <g id="arrow_out" transform="scale(0.3 0.3)">
          <a xlink:href="class_u_b_tool_widget_af4bde7866db04746f6153e8c88f55dc9_cgraph_org.svg" target="_base">
           <rect id="button" ry="5" rx="5" y="6" x="6" height="38" width="38"
                fill="#f2f5e9" fill-opacity="0.5" stroke="#606060" stroke-width="1.0"/>
           <path id="arrow"
             d="M 11.500037,31.436501 C 11.940474,20.09759 22.043105,11.32322 32.158766,21.979434 L 37.068811,17.246167 C 37.068811,17.246167 37.088388,32 37.088388,32 L 22.160133,31.978069 C 22.160133,31.978069 26.997745,27.140456 26.997745,27.140456 C 18.528582,18.264221 13.291696,25.230495 11.500037,31.436501 z"
             style="fill:#404040;"/>
          </a>
         </g>
        </svg>
</svg>
