<?xml version="1.0" encoding="UTF-8" standalone="no"?>
<!DOCTYPE svg PUBLIC "-//W3C//DTD SVG 1.1//EN"
 "http://www.w3.org/Graphics/SVG/1.1/DTD/svg11.dtd">
<!-- Generated by graphviz version 2.26.3 (20100126.1600)
 -->
<!-- Title: UBGraphicsTriangle::calculatePoints Pages: 1 -->
<svg width="404pt" height="160pt"
 viewBox="0.00 0.00 404.00 160.00" xmlns="http://www.w3.org/2000/svg" xmlns:xlink="http://www.w3.org/1999/xlink">
<g id="graph1" class="graph" transform="scale(1 1) rotate(0) translate(4 156)">
<title>UBGraphicsTriangle::calculatePoints</title>
<polygon fill="white" stroke="white" points="-4,5 -4,-156 401,-156 401,5 -4,5"/>
<!-- Node1 -->
<g id="node1" class="node"><title>Node1</title>
<polygon fill="#bfbfbf" stroke="black" points="0,-52 0,-86 104,-86 104,-52 0,-52"/>
<text text-anchor="start" x="8" y="-73" font-family="Helvetica,sans-Serif" font-size="10.00">UBGraphicsTriangle</text>
<text text-anchor="middle" x="52" y="-60" font-family="Helvetica,sans-Serif" font-size="10.00">::calculatePoints</text>
</g>
<!-- Node2 -->
<g id="node3" class="node"><title>Node2</title>
<a xlink:href="../../da/dd0/class_u_b_graphics_triangle.html#ab1afffb0752a15e39924ca03cb030d2e" target="_top" xlink:title="UBGraphicsTriangle\l::setOrientation">
<polygon fill="white" stroke="black" points="140,-52 140,-86 244,-86 244,-52 140,-52"/>
<text text-anchor="start" x="148" y="-73" font-family="Helvetica,sans-Serif" font-size="10.00">UBGraphicsTriangle</text>
<text text-anchor="middle" x="192" y="-60" font-family="Helvetica,sans-Serif" font-size="10.00">::setOrientation</text>
</a>
</g>
<!-- Node1&#45;&gt;Node2 -->
<g id="edge2" class="edge"><title>Node1&#45;&gt;Node2</title>
<path fill="none" stroke="midnightblue" d="M114.387,-69C122.885,-69 131.534,-69 139.826,-69"/>
<polygon fill="midnightblue" stroke="midnightblue" points="114.131,-65.5001 104.131,-69 114.131,-72.5001 114.131,-65.5001"/>
</g>
<!-- Node3 -->
<g id="node5" class="node"><title>Node3</title>
<a xlink:href="../../d8/d4f/class_u_b_svg_subset_adaptor_1_1_u_b_svg_subset_reader.html#a0c9eb6d73f24e9ee46e4dc299edf4665" target="_top" xlink:title="UBSvgSubsetAdaptor\l::UBSvgSubsetReader\l::triangleFromSvg">
<polygon fill="white" stroke="black" points="280,-104.5 280,-151.5 396,-151.5 396,-104.5 280,-104.5"/>
<text text-anchor="start" x="288" y="-138.5" font-family="Helvetica,sans-Serif" font-size="10.00">UBSvgSubsetAdaptor</text>
<text text-anchor="start" x="288" y="-125.5" font-family="Helvetica,sans-Serif" font-size="10.00">::UBSvgSubsetReader</text>
<text text-anchor="middle" x="338" y="-112.5" font-family="Helvetica,sans-Serif" font-size="10.00">::triangleFromSvg</text>
</a>
</g>
<!-- Node2&#45;&gt;Node3 -->
<g id="edge4" class="edge"><title>Node2&#45;&gt;Node3</title>
<path fill="none" stroke="midnightblue" d="M243.814,-89.9386C255.481,-94.6534 267.939,-99.6877 279.846,-104.5"/>
<polygon fill="midnightblue" stroke="midnightblue" points="244.812,-86.567 234.229,-86.0652 242.189,-93.0571 244.812,-86.567"/>
</g>
<!-- Node4 -->
<g id="node7" class="node"><title>Node4</title>
<a xlink:href="../../da/dd0/class_u_b_graphics_triangle.html#ac3779cb4d0959cd49db4ba70638904a5" target="_top" xlink:title="UBGraphicsTriangle\l::setRect">
<polygon fill="white" stroke="black" points="286,-52 286,-86 390,-86 390,-52 286,-52"/>
<text text-anchor="start" x="294" y="-73" font-family="Helvetica,sans-Serif" font-size="10.00">UBGraphicsTriangle</text>
<text text-anchor="middle" x="338" y="-60" font-family="Helvetica,sans-Serif" font-size="10.00">::setRect</text>
</a>
</g>
<!-- Node2&#45;&gt;Node4 -->
<g id="edge6" class="edge"><title>Node2&#45;&gt;Node4</title>
<path fill="none" stroke="midnightblue" d="M254.52,-69C264.871,-69 275.509,-69 285.577,-69"/>
<polygon fill="midnightblue" stroke="midnightblue" points="254.297,-65.5001 244.297,-69 254.297,-72.5001 254.297,-65.5001"/>
</g>
<!-- Node5 -->
<g id="node9" class="node"><title>Node5</title>
<a xlink:href="../../da/dd0/class_u_b_graphics_triangle.html#aabf836e45bdb067d16abedd5b4fde345" target="_top" xlink:title="UBGraphicsTriangle\l::mouseReleaseEvent">
<polygon fill="white" stroke="black" points="281.5,-0 281.5,-34 394.5,-34 394.5,-0 281.5,-0"/>
<text text-anchor="start" x="289.5" y="-21" font-family="Helvetica,sans-Serif" font-size="10.00">UBGraphicsTriangle</text>
<text text-anchor="middle" x="338" y="-8" font-family="Helvetica,sans-Serif" font-size="10.00">::mouseReleaseEvent</text>
</a>
</g>
<!-- Node2&#45;&gt;Node5 -->
<g id="edge8" class="edge"><title>Node2&#45;&gt;Node5</title>
<path fill="none" stroke="midnightblue" d="M249.446,-48.5399C262.902,-43.7473 277.097,-38.6913 290.087,-34.065"/>
<polygon fill="midnightblue" stroke="midnightblue" points="248.052,-45.3209 239.806,-51.9733 250.401,-51.9151 248.052,-45.3209"/>
</g>
</g>
</svg>
