<?xml version="1.0" encoding="UTF-8" standalone="no"?>
<!DOCTYPE svg PUBLIC "-//W3C//DTD SVG 1.1//EN"
 "http://www.w3.org/Graphics/SVG/1.1/DTD/svg11.dtd">
<!-- Generated by graphviz version 2.26.3 (20100126.1600)
 -->
<!-- Title: UBSvgSubsetRasterizer::rasterizeToFile Pages: 1 -->
<svg width="284pt" height="42pt"
 viewBox="0.00 0.00 284.00 42.00" xmlns="http://www.w3.org/2000/svg" xmlns:xlink="http://www.w3.org/1999/xlink">
<g id="graph1" class="graph" transform="scale(1 1) rotate(0) translate(4 38)">
<title>UBSvgSubsetRasterizer::rasterizeToFile</title>
<polygon fill="white" stroke="white" points="-4,5 -4,-38 281,-38 281,5 -4,5"/>
<!-- Node1 -->
<g id="node1" class="node"><title>Node1</title>
<polygon fill="#bfbfbf" stroke="black" points="0,-0 0,-34 124,-34 124,-0 0,-0"/>
<text text-anchor="start" x="8" y="-21" font-family="Helvetica,sans-Serif" font-size="10.00">UBSvgSubsetRasterizer</text>
<text text-anchor="middle" x="62" y="-8" font-family="Helvetica,sans-Serif" font-size="10.00">::rasterizeToFile</text>
</g>
<!-- Node2 -->
<g id="node3" class="node"><title>Node2</title>
<a xlink:href="../../da/d3c/class_u_b_document_publisher.html#ab8e8d3cbfb56648b5789087b34ff98f1" target="_top" xlink:title="UBDocumentPublisher\l::rasterizeScenes">
<polygon fill="white" stroke="black" points="160,-0 160,-34 276,-34 276,-0 160,-0"/>
<text text-anchor="start" x="168" y="-21" font-family="Helvetica,sans-Serif" font-size="10.00">UBDocumentPublisher</text>
<text text-anchor="middle" x="218" y="-8" font-family="Helvetica,sans-Serif" font-size="10.00">::rasterizeScenes</text>
</a>
</g>
<!-- Node1&#45;&gt;Node2 -->
<g id="edge2" class="edge"><title>Node1&#45;&gt;Node2</title>
<path fill="none" stroke="midnightblue" d="M134.164,-17C142.793,-17 151.517,-17 159.912,-17"/>
<polygon fill="midnightblue" stroke="midnightblue" points="134.104,-13.5001 124.104,-17 134.104,-20.5001 134.104,-13.5001"/>
</g>
</g>
</svg>
