<?xml version="1.0" encoding="UTF-8" standalone="no"?>
<!DOCTYPE svg PUBLIC "-//W3C//DTD SVG 1.1//EN"
 "http://www.w3.org/Graphics/SVG/1.1/DTD/svg11.dtd">
<!-- Generated by graphviz version 2.26.3 (20100126.1600)
 -->
<!-- Title: UBGraphicsItemDelegate::update Pages: 1 -->
<!--zoomable 250 -->
<svg id="main" version="1.1" xmlns="http://www.w3.org/2000/svg" xmlns:xlink="http://www.w3.org/1999/xlink" xml:space="preserve" onload="init(evt)">
        <defs>
                <circle id="rim" cx="0" cy="0" r="7"/>
                <circle id="rim2" cx="0" cy="0" r="3.5"/>
                <g id="zoomPlus">
                        <use xlink:href="#rim" fill="#404040">
                                <set attributeName="fill" to="#808080" begin="zoomplus.mouseover" end="zoomplus.mouseout"/>
                        </use>
                        <path d="M-4,0h8M0,-4v8" fill="none" stroke="white" stroke-width="1.5" pointer-events="none"/>
                </g>
                <g id="zoomMin">
                        <use xlink:href="#rim" fill="#404040">
                                <set attributeName="fill" to="#808080" begin="zoomminus.mouseover" end="zoomminus.mouseout"/>
                        </use>
                        <path d="M-4,0h8" fill="none" stroke="white" stroke-width="1.5" pointer-events="none"/>
                </g>
                <g id="dirArrow">
                        <path fill="none" stroke="white" stroke-width="1.5" d="M0,-3.0v7 M-2.5,-0.5L0,-3.0L2.5,-0.5"/>
                </g>
               <g id="resetDef">
                       <use xlink:href="#rim2" fill="#404040">
                               <set attributeName="fill" to="#808080" begin="reset.mouseover" end="reset.mouseout"/>
                       </use>
               </g>
        </defs>

<script type="text/javascript">
var viewWidth = 1134;
var viewHeight = 250;
var sectionId = 'dynsection-69';
</script>
<script xlink:href="../../svgpan.js"/>
<svg id="graph" class="graph">
<g id="viewport">
<title>UBGraphicsItemDelegate::update</title>
<polygon fill="white" stroke="white" points="-4,5 -4,-246 1131,-246 1131,5 -4,5"/>
<!-- Node1 -->
<g id="node1" class="node"><title>Node1</title>
<polygon fill="#bfbfbf" stroke="black" points="0,-150 0,-184 128,-184 128,-150 0,-150"/>
<text text-anchor="start" x="8" y="-171" font-family="Helvetica,sans-Serif" font-size="10.00">UBGraphicsItemDelegate</text>
<text text-anchor="middle" x="64" y="-158" font-family="Helvetica,sans-Serif" font-size="10.00">::update</text>
</g>
<!-- Node2 -->
<g id="node3" class="node"><title>Node2</title>
<a xlink:href="../../d2/df2/class_u_b_graphics_item_undo_command.html#ad72c268f481bda2170f4b0cafe193bd5" target="_top" xlink:title="UBGraphicsItemUndoCommand\l::undo">
<polygon fill="white" stroke="black" points="165,-202 165,-236 323,-236 323,-202 165,-202"/>
<text text-anchor="start" x="173" y="-223" font-family="Helvetica,sans-Serif" font-size="10.00">UBGraphicsItemUndoCommand</text>
<text text-anchor="middle" x="244" y="-210" font-family="Helvetica,sans-Serif" font-size="10.00">::undo</text>
</a>
</g>
<!-- Node1&#45;&gt;Node2 -->
<g id="edge2" class="edge"><title>Node1&#45;&gt;Node2</title>
<path fill="none" stroke="midnightblue" d="M132.895,-186.903C150.052,-191.859 168.293,-197.129 184.929,-201.935"/>
<polygon fill="midnightblue" stroke="midnightblue" points="133.517,-183.44 122.939,-184.027 131.574,-190.165 133.517,-183.44"/>
</g>
<!-- Node3 -->
<g id="node5" class="node"><title>Node3</title>
<a xlink:href="../../d2/df2/class_u_b_graphics_item_undo_command.html#a85f77fad80b241baaf0c35b98ee7de82" target="_top" xlink:title="UBGraphicsItemUndoCommand\l::redo">
<polygon fill="white" stroke="black" points="165,-150 165,-184 323,-184 323,-150 165,-150"/>
<text text-anchor="start" x="173" y="-171" font-family="Helvetica,sans-Serif" font-size="10.00">UBGraphicsItemUndoCommand</text>
<text text-anchor="middle" x="244" y="-158" font-family="Helvetica,sans-Serif" font-size="10.00">::redo</text>
</a>
</g>
<!-- Node1&#45;&gt;Node3 -->
<g id="edge4" class="edge"><title>Node1&#45;&gt;Node3</title>
<path fill="none" stroke="midnightblue" d="M138.322,-167C147.022,-167 155.924,-167 164.689,-167"/>
<polygon fill="midnightblue" stroke="midnightblue" points="138.222,-163.5 128.222,-167 138.222,-170.5 138.222,-163.5"/>
</g>
<!-- Node4 -->
<g id="node7" class="node"><title>Node4</title>
<a xlink:href="../../dc/db2/class_u_b_graphics_scene.html#a6e861912547654e47c26f7d8e72201e8" target="_top" xlink:title="UBGraphicsScene::clearContent">
<polygon fill="white" stroke="black" points="164.5,-110.5 164.5,-131.5 323.5,-131.5 323.5,-110.5 164.5,-110.5"/>
<text text-anchor="middle" x="244" y="-118.5" font-family="Helvetica,sans-Serif" font-size="10.00">UBGraphicsScene::clearContent</text>
</a>
</g>
<!-- Node1&#45;&gt;Node4 -->
<g id="edge6" class="edge"><title>Node1&#45;&gt;Node4</title>
<path fill="none" stroke="midnightblue" d="M138.076,-147.657C146.811,-145.401 155.602,-143.142 164,-141 176.208,-137.887 189.476,-134.551 201.633,-131.513"/>
<polygon fill="midnightblue" stroke="midnightblue" points="137.065,-144.303 128.261,-150.197 138.819,-151.08 137.065,-144.303"/>
</g>
<!-- Node5 -->
<g id="node9" class="node"><title>Node5</title>
<a xlink:href="../../d5/d2b/class_u_b_widget_uniboard_a_p_i.html#a4c4dd082d6ed9397e4658a41f78638f5" target="_top" xlink:title="UBWidgetUniboardAPI\l::clear">
<polygon fill="white" stroke="black" points="361.5,-208 361.5,-242 478.5,-242 478.5,-208 361.5,-208"/>
<text text-anchor="start" x="369.5" y="-229" font-family="Helvetica,sans-Serif" font-size="10.00">UBWidgetUniboardAPI</text>
<text text-anchor="middle" x="420" y="-216" font-family="Helvetica,sans-Serif" font-size="10.00">::clear</text>
</a>
</g>
<!-- Node4&#45;&gt;Node5 -->
<g id="edge8" class="edge"><title>Node4&#45;&gt;Node5</title>
<path fill="none" stroke="midnightblue" d="M316.028,-135.973C318.807,-137.491 321.479,-139.161 324,-141 348.513,-158.878 337.033,-179.175 360,-199 363.867,-202.338 368.229,-205.306 372.791,-207.931"/>
<polygon fill="midnightblue" stroke="midnightblue" points="317.381,-132.741 306.845,-131.627 314.387,-139.068 317.381,-132.741"/>
</g>
<!-- Node6 -->
<g id="node11" class="node"><title>Node6</title>
<a xlink:href="../../d7/d62/class_u_b_board_controller.html#aa05f3be4a1645d76f034f38269fc6cf0" target="_top" xlink:title="UBBoardController:\l:clearScene">
<polygon fill="white" stroke="black" points="369.5,-156 369.5,-190 470.5,-190 470.5,-156 369.5,-156"/>
<text text-anchor="start" x="377.5" y="-177" font-family="Helvetica,sans-Serif" font-size="10.00">UBBoardController:</text>
<text text-anchor="middle" x="420" y="-164" font-family="Helvetica,sans-Serif" font-size="10.00">:clearScene</text>
</a>
</g>
<!-- Node4&#45;&gt;Node6 -->
<g id="edge10" class="edge"><title>Node4&#45;&gt;Node6</title>
<path fill="none" stroke="midnightblue" d="M298.521,-134.034C307.077,-136.251 315.8,-138.612 324,-141 339.518,-145.519 356.281,-150.923 371.39,-155.992"/>
<polygon fill="midnightblue" stroke="midnightblue" points="299.149,-130.582 288.594,-131.505 297.42,-137.366 299.149,-130.582"/>
</g>
<!-- Node12 -->
<g id="node23" class="node"><title>Node12</title>
<a xlink:href="../../d7/d62/class_u_b_board_controller.html#a3fe7c336f24feec07902020905386ca0" target="_top" xlink:title="UBBoardController:\l:clearSceneItems">
<polygon fill="white" stroke="black" points="369.5,-104 369.5,-138 470.5,-138 470.5,-104 369.5,-104"/>
<text text-anchor="start" x="377.5" y="-125" font-family="Helvetica,sans-Serif" font-size="10.00">UBBoardController:</text>
<text text-anchor="middle" x="420" y="-112" font-family="Helvetica,sans-Serif" font-size="10.00">:clearSceneItems</text>
</a>
</g>
<!-- Node4&#45;&gt;Node12 -->
<g id="edge22" class="edge"><title>Node4&#45;&gt;Node12</title>
<path fill="none" stroke="midnightblue" d="M333.757,-121C345.976,-121 358.149,-121 369.335,-121"/>
<polygon fill="midnightblue" stroke="midnightblue" points="333.504,-117.5 323.504,-121 333.504,-124.5 333.504,-117.5"/>
</g>
<!-- Node13 -->
<g id="node26" class="node"><title>Node13</title>
<a xlink:href="../../d7/d62/class_u_b_board_controller.html#ab47067d535d9086bd8e9e84176c02036" target="_top" xlink:title="UBBoardController:\l:clearSceneAnnotation">
<polygon fill="white" stroke="black" points="362.5,-52 362.5,-86 477.5,-86 477.5,-52 362.5,-52"/>
<text text-anchor="start" x="370.5" y="-73" font-family="Helvetica,sans-Serif" font-size="10.00">UBBoardController:</text>
<text text-anchor="middle" x="420" y="-60" font-family="Helvetica,sans-Serif" font-size="10.00">:clearSceneAnnotation</text>
</a>
</g>
<!-- Node4&#45;&gt;Node13 -->
<g id="edge26" class="edge"><title>Node4&#45;&gt;Node13</title>
<path fill="none" stroke="midnightblue" d="M289.454,-107.57C311.658,-101.01 338.621,-93.0439 362.264,-86.0582"/>
<polygon fill="midnightblue" stroke="midnightblue" points="288.215,-104.287 279.616,-110.477 290.198,-111 288.215,-104.287"/>
</g>
<!-- Node14 -->
<g id="node29" class="node"><title>Node14</title>
<a xlink:href="../../d7/d62/class_u_b_board_controller.html#a7c98cc515d722b671686bb6a77a89a3b" target="_top" xlink:title="UBBoardController:\l:clearSceneBackground">
<polygon fill="white" stroke="black" points="360,-0 360,-34 480,-34 480,-0 360,-0"/>
<text text-anchor="start" x="368" y="-21" font-family="Helvetica,sans-Serif" font-size="10.00">UBBoardController:</text>
<text text-anchor="middle" x="420" y="-8" font-family="Helvetica,sans-Serif" font-size="10.00">:clearSceneBackground</text>
</a>
</g>
<!-- Node4&#45;&gt;Node14 -->
<g id="edge30" class="edge"><title>Node4&#45;&gt;Node14</title>
<path fill="none" stroke="midnightblue" d="M266.421,-104.114C289.234,-87.3738 325.977,-61.6062 360,-43 365.677,-39.8951 371.801,-36.8839 377.891,-34.0786"/>
<polygon fill="midnightblue" stroke="midnightblue" points="264.067,-101.502 258.112,-110.265 268.232,-107.128 264.067,-101.502"/>
</g>
<!-- Node7 -->
<g id="node13" class="node"><title>Node7</title>
<a xlink:href="../../d7/d62/class_u_b_board_controller.html#a0292260502bb0cbe4bc3c83f3a3283bc" target="_top" xlink:title="UBBoardController:\l:connectToolbar">
<polygon fill="white" stroke="black" points="516.5,-78 516.5,-112 617.5,-112 617.5,-78 516.5,-78"/>
<text text-anchor="start" x="524.5" y="-99" font-family="Helvetica,sans-Serif" font-size="10.00">UBBoardController:</text>
<text text-anchor="middle" x="567" y="-86" font-family="Helvetica,sans-Serif" font-size="10.00">:connectToolbar</text>
</a>
</g>
<!-- Node6&#45;&gt;Node7 -->
<g id="edge12" class="edge"><title>Node6&#45;&gt;Node7</title>
<path fill="none" stroke="midnightblue" d="M470.501,-151.685C473.737,-150.144 476.927,-148.576 480,-147 500.825,-136.321 523.494,-122.703 540.47,-112.082"/>
<polygon fill="midnightblue" stroke="midnightblue" points="468.924,-148.558 461.32,-155.936 471.865,-154.91 468.924,-148.558"/>
</g>
<!-- Node8 -->
<g id="node15" class="node"><title>Node8</title>
<a xlink:href="../../d7/d62/class_u_b_board_controller.html#a6761e02604fb3aa8ecbfc5fd4a5d87f3" target="_top" xlink:title="UBBoardController:\l:setupToolbar">
<polygon fill="white" stroke="black" points="654.5,-78 654.5,-112 755.5,-112 755.5,-78 654.5,-78"/>
<text text-anchor="start" x="662.5" y="-99" font-family="Helvetica,sans-Serif" font-size="10.00">UBBoardController:</text>
<text text-anchor="middle" x="705" y="-86" font-family="Helvetica,sans-Serif" font-size="10.00">:setupToolbar</text>
</a>
</g>
<!-- Node7&#45;&gt;Node8 -->
<g id="edge14" class="edge"><title>Node7&#45;&gt;Node8</title>
<path fill="none" stroke="midnightblue" d="M627.882,-95C636.74,-95 645.779,-95 654.404,-95"/>
<polygon fill="midnightblue" stroke="midnightblue" points="627.603,-91.5001 617.603,-95 627.602,-98.5001 627.603,-91.5001"/>
</g>
<!-- Node9 -->
<g id="node17" class="node"><title>Node9</title>
<a xlink:href="../../d7/d62/class_u_b_board_controller.html#aa728cb7c1b979b2d4ae45638a7386dde" target="_top" xlink:title="UBBoardController::init">
<polygon fill="white" stroke="black" points="792.5,-84.5 792.5,-105.5 909.5,-105.5 909.5,-84.5 792.5,-84.5"/>
<text text-anchor="middle" x="851" y="-92.5" font-family="Helvetica,sans-Serif" font-size="10.00">UBBoardController::init</text>
</a>
</g>
<!-- Node8&#45;&gt;Node9 -->
<g id="edge16" class="edge"><title>Node8&#45;&gt;Node9</title>
<path fill="none" stroke="midnightblue" d="M765.836,-95C774.631,-95 783.668,-95 792.418,-95"/>
<polygon fill="midnightblue" stroke="midnightblue" points="765.654,-91.5001 755.654,-95 765.654,-98.5001 765.654,-91.5001"/>
</g>
<!-- Node10 -->
<g id="node19" class="node"><title>Node10</title>
<a xlink:href="../../d8/d81/class_u_b_application.html#add1469239e71bf24fdc61413a42a38bd" target="_top" xlink:title="UBApplication::exec">
<polygon fill="white" stroke="black" points="946,-84.5 946,-105.5 1052,-105.5 1052,-84.5 946,-84.5"/>
<text text-anchor="middle" x="999" y="-92.5" font-family="Helvetica,sans-Serif" font-size="10.00">UBApplication::exec</text>
</a>
</g>
<!-- Node9&#45;&gt;Node10 -->
<g id="edge18" class="edge"><title>Node9&#45;&gt;Node10</title>
<path fill="none" stroke="midnightblue" d="M919.947,-95C928.549,-95 937.243,-95 945.56,-95"/>
<polygon fill="midnightblue" stroke="midnightblue" points="919.919,-91.5001 909.919,-95 919.919,-98.5001 919.919,-91.5001"/>
</g>
<!-- Node11 -->
<g id="node21" class="node"><title>Node11</title>
<a xlink:href="../../df/d0a/main_8cpp.html#a0ddf1224851353fc92bfbff6f499fa97" target="_top" xlink:title="main">
<polygon fill="white" stroke="black" points="1088,-84.5 1088,-105.5 1126,-105.5 1126,-84.5 1088,-84.5"/>
<text text-anchor="middle" x="1107" y="-92.5" font-family="Helvetica,sans-Serif" font-size="10.00">main</text>
</a>
</g>
<!-- Node10&#45;&gt;Node11 -->
<g id="edge20" class="edge"><title>Node10&#45;&gt;Node11</title>
<path fill="none" stroke="midnightblue" d="M1062.21,-95C1071.49,-95 1080.4,-95 1087.79,-95"/>
<polygon fill="midnightblue" stroke="midnightblue" points="1062.05,-91.5001 1052.05,-95 1062.05,-98.5001 1062.05,-91.5001"/>
</g>
<!-- Node12&#45;&gt;Node7 -->
<g id="edge24" class="edge"><title>Node12&#45;&gt;Node7</title>
<path fill="none" stroke="midnightblue" d="M480.459,-110.307C492.375,-108.199 504.764,-106.008 516.318,-103.964"/>
<polygon fill="midnightblue" stroke="midnightblue" points="479.827,-106.864 470.589,-112.052 481.046,-113.757 479.827,-106.864"/>
</g>
<!-- Node13&#45;&gt;Node7 -->
<g id="edge28" class="edge"><title>Node13&#45;&gt;Node7</title>
<path fill="none" stroke="midnightblue" d="M487.61,-80.9583C497.216,-82.6573 506.957,-84.3802 516.171,-86.0099"/>
<polygon fill="midnightblue" stroke="midnightblue" points="488.133,-77.4965 477.676,-79.2013 486.914,-84.3895 488.133,-77.4965"/>
</g>
<!-- Node14&#45;&gt;Node7 -->
<g id="edge32" class="edge"><title>Node14&#45;&gt;Node7</title>
<path fill="none" stroke="midnightblue" d="M470.501,-38.315C473.737,-39.8556 476.927,-41.4241 480,-43 500.825,-53.6786 523.494,-67.297 540.47,-77.9182"/>
<polygon fill="midnightblue" stroke="midnightblue" points="471.865,-35.0896 461.32,-34.064 468.924,-41.4418 471.865,-35.0896"/>
</g>
</g>
</svg>
        <g id="navigator" transform="translate(0 0)" fill="#404254">
                <rect fill="#f2f5e9" fill-opacity="0.5" stroke="#606060" stroke-width=".5" x="0" y="0" width="60" height="60"/>
                <use id="zoomplus" xlink:href="#zoomPlus" x="17" y="9" onmousedown="handleZoom(evt,'in')"/>
                <use id="zoomminus" xlink:href="#zoomMin" x="42" y="9" onmousedown="handleZoom(evt,'out')"/>
                <use id="reset" xlink:href="#resetDef" x="30" y="36" onmousedown="handleReset()"/>
                <g id="arrowUp" xlink:href="#dirArrow" transform="translate(30 24)" onmousedown="handlePan(0,-1)">
                  <use xlink:href="#rim" fill="#404040">
                        <set attributeName="fill" to="#808080" begin="arrowUp.mouseover" end="arrowUp.mouseout"/>
                  </use>
                  <path fill="none" stroke="white" stroke-width="1.5" d="M0,-3.0v7 M-2.5,-0.5L0,-3.0L2.5,-0.5"/>
                </g>
                <g id="arrowRight" xlink:href="#dirArrow" transform="rotate(90) translate(36 -43)" onmousedown="handlePan(1,0)">
                  <use xlink:href="#rim" fill="#404040">
                        <set attributeName="fill" to="#808080" begin="arrowRight.mouseover" end="arrowRight.mouseout"/>
                  </use>
                  <path fill="none" stroke="white" stroke-width="1.5" d="M0,-3.0v7 M-2.5,-0.5L0,-3.0L2.5,-0.5"/>
                </g>
                <g id="arrowDown" xlink:href="#dirArrow" transform="rotate(180) translate(-30 -48)" onmousedown="handlePan(0,1)">
                  <use xlink:href="#rim" fill="#404040">
                        <set attributeName="fill" to="#808080" begin="arrowDown.mouseover" end="arrowDown.mouseout"/>
                  </use>
                  <path fill="none" stroke="white" stroke-width="1.5" d="M0,-3.0v7 M-2.5,-0.5L0,-3.0L2.5,-0.5"/>
                </g>
                <g id="arrowLeft" xlink:href="#dirArrow" transform="rotate(270) translate(-36 17)" onmousedown="handlePan(-1,0)">
                  <use xlink:href="#rim" fill="#404040">
                        <set attributeName="fill" to="#808080" begin="arrowLeft.mouseover" end="arrowLeft.mouseout"/>
                  </use>
                  <path fill="none" stroke="white" stroke-width="1.5" d="M0,-3.0v7 M-2.5,-0.5L0,-3.0L2.5,-0.5"/>
                </g>
        </g>
        <svg viewBox="0 0 15 15" width="100%" height="30px" preserveAspectRatio="xMaxYMin meet">
         <g id="arrow_out" transform="scale(0.3 0.3)">
          <a xlink:href="class_u_b_graphics_item_delegate_a25ea09abfab2c00bb19c08a995cd819e_icgraph_org.svg" target="_base">
           <rect id="button" ry="5" rx="5" y="6" x="6" height="38" width="38"
                fill="#f2f5e9" fill-opacity="0.5" stroke="#606060" stroke-width="1.0"/>
           <path id="arrow"
             d="M 11.500037,31.436501 C 11.940474,20.09759 22.043105,11.32322 32.158766,21.979434 L 37.068811,17.246167 C 37.068811,17.246167 37.088388,32 37.088388,32 L 22.160133,31.978069 C 22.160133,31.978069 26.997745,27.140456 26.997745,27.140456 C 18.528582,18.264221 13.291696,25.230495 11.500037,31.436501 z"
             style="fill:#404040;"/>
          </a>
         </g>
        </svg>
</svg>
