<?xml version="1.0" encoding="UTF-8" standalone="no"?>
<!DOCTYPE svg PUBLIC "-//W3C//DTD SVG 1.1//EN"
 "http://www.w3.org/Graphics/SVG/1.1/DTD/svg11.dtd">
<!-- Generated by graphviz version 2.26.3 (20100126.1600)
 -->
<!-- Title: UBGraphicsItemDelegate::mouseReleaseEvent Pages: 1 -->
<!--zoomable 696 -->
<svg id="main" version="1.1" xmlns="http://www.w3.org/2000/svg" xmlns:xlink="http://www.w3.org/1999/xlink" xml:space="preserve" onload="init(evt)">
        <defs>
                <circle id="rim" cx="0" cy="0" r="7"/>
                <circle id="rim2" cx="0" cy="0" r="3.5"/>
                <g id="zoomPlus">
                        <use xlink:href="#rim" fill="#404040">
                                <set attributeName="fill" to="#808080" begin="zoomplus.mouseover" end="zoomplus.mouseout"/>
                        </use>
                        <path d="M-4,0h8M0,-4v8" fill="none" stroke="white" stroke-width="1.5" pointer-events="none"/>
                </g>
                <g id="zoomMin">
                        <use xlink:href="#rim" fill="#404040">
                                <set attributeName="fill" to="#808080" begin="zoomminus.mouseover" end="zoomminus.mouseout"/>
                        </use>
                        <path d="M-4,0h8" fill="none" stroke="white" stroke-width="1.5" pointer-events="none"/>
                </g>
                <g id="dirArrow">
                        <path fill="none" stroke="white" stroke-width="1.5" d="M0,-3.0v7 M-2.5,-0.5L0,-3.0L2.5,-0.5"/>
                </g>
               <g id="resetDef">
                       <use xlink:href="#rim2" fill="#404040">
                               <set attributeName="fill" to="#808080" begin="reset.mouseover" end="reset.mouseout"/>
                       </use>
               </g>
        </defs>

<script type="text/javascript">
var viewWidth = 1688;
var viewHeight = 696;
var sectionId = 'dynsection-43';
</script>
<script xlink:href="../../svgpan.js"/>
<svg id="graph" class="graph">
<g id="viewport">
<title>UBGraphicsItemDelegate::mouseReleaseEvent</title>
<polygon fill="white" stroke="white" points="-4,5 -4,-692.159 1685,-692.159 1685,5 -4,5"/>
<!-- Node1 -->
<g id="node1" class="node"><title>Node1</title>
<polygon fill="#bfbfbf" stroke="black" points="0,-223.918 0,-257.918 128,-257.918 128,-223.918 0,-223.918"/>
<text text-anchor="start" x="8" y="-244.918" font-family="Helvetica,sans-Serif" font-size="10.00">UBGraphicsItemDelegate</text>
<text text-anchor="middle" x="64" y="-231.918" font-family="Helvetica,sans-Serif" font-size="10.00">::mouseReleaseEvent</text>
</g>
<!-- Node2 -->
<g id="node3" class="node"><title>Node2</title>
<a xlink:href="../../d0/d58/class_u_b_drawing_controller.html#a9d2d10417806a2d7303df24b820f2ab3" target="_top" xlink:title="UBDrawingController\l::drawingController">
<polygon fill="white" stroke="black" points="173.5,-327.918 173.5,-361.918 282.5,-361.918 282.5,-327.918 173.5,-327.918"/>
<text text-anchor="start" x="181.5" y="-348.918" font-family="Helvetica,sans-Serif" font-size="10.00">UBDrawingController</text>
<text text-anchor="middle" x="228" y="-335.918" font-family="Helvetica,sans-Serif" font-size="10.00">::drawingController</text>
</a>
</g>
<!-- Node1&#45;&gt;Node2 -->
<g id="edge2" class="edge"><title>Node1&#45;&gt;Node2</title>
<path fill="none" stroke="midnightblue" d="M82.7739,-258.159C102.063,-275.226 133.501,-301.287 164,-318.918 166.665,-320.459 169.44,-321.952 172.275,-323.392"/>
<polygon fill="midnightblue" stroke="midnightblue" points="170.944,-326.635 181.474,-327.801 173.969,-320.323 170.944,-326.635"/>
</g>
<!-- Node33 -->
<g id="node79" class="node"><title>Node33</title>
<a xlink:href="../../d0/d58/class_u_b_drawing_controller.html#a244d6a9a4638309428bcf0c29531b872" target="_top" xlink:title="UBDrawingController\l::stylusTool">
<polygon fill="white" stroke="black" points="173.5,-275.918 173.5,-309.918 282.5,-309.918 282.5,-275.918 173.5,-275.918"/>
<text text-anchor="start" x="181.5" y="-296.918" font-family="Helvetica,sans-Serif" font-size="10.00">UBDrawingController</text>
<text text-anchor="middle" x="228" y="-283.918" font-family="Helvetica,sans-Serif" font-size="10.00">::stylusTool</text>
</a>
</g>
<!-- Node1&#45;&gt;Node33 -->
<g id="edge92" class="edge"><title>Node1&#45;&gt;Node33</title>
<path fill="none" stroke="midnightblue" d="M117.7,-257.945C132.566,-262.658 148.847,-267.821 164.227,-272.697"/>
<polygon fill="midnightblue" stroke="midnightblue" points="163.589,-276.167 174.18,-275.853 165.705,-269.494 163.589,-276.167"/>
</g>
<!-- Node34 -->
<g id="node81" class="node"><title>Node34</title>
<a xlink:href="../../dd/dfb/class_u_b_graphics_item_action.html#a20f6321da9c93720ed36426693be51c5" target="_top" xlink:title="UBGraphicsItemAction\l::play">
<polygon fill="white" stroke="black" points="169.5,-223.918 169.5,-257.918 286.5,-257.918 286.5,-223.918 169.5,-223.918"/>
<text text-anchor="start" x="177.5" y="-244.918" font-family="Helvetica,sans-Serif" font-size="10.00">UBGraphicsItemAction</text>
<text text-anchor="middle" x="228" y="-231.918" font-family="Helvetica,sans-Serif" font-size="10.00">::play</text>
</a>
</g>
<!-- Node1&#45;&gt;Node34 -->
<g id="edge94" class="edge"><title>Node1&#45;&gt;Node34</title>
<path fill="none" stroke="midnightblue" d="M128.346,-240.918C138.509,-240.918 149.052,-240.918 159.309,-240.918"/>
<polygon fill="midnightblue" stroke="midnightblue" points="159.446,-244.418 169.446,-240.918 159.446,-237.418 159.446,-244.418"/>
</g>
<!-- Node35 -->
<g id="node83" class="node"><title>Node35</title>
<a xlink:href="../../dd/dd5/class_u_b_graphics_item_delegate.html#ad45be6a0cc44a46d51b7fd70eb5a3c79" target="_top" xlink:title="UBGraphicsItemDelegate\l::delegated">
<polygon fill="white" stroke="black" points="164,-171.918 164,-205.918 292,-205.918 292,-171.918 164,-171.918"/>
<text text-anchor="start" x="172" y="-192.918" font-family="Helvetica,sans-Serif" font-size="10.00">UBGraphicsItemDelegate</text>
<text text-anchor="middle" x="228" y="-179.918" font-family="Helvetica,sans-Serif" font-size="10.00">::delegated</text>
</a>
</g>
<!-- Node1&#45;&gt;Node35 -->
<g id="edge96" class="edge"><title>Node1&#45;&gt;Node35</title>
<path fill="none" stroke="midnightblue" d="M117.7,-223.891C132.566,-219.177 148.847,-214.015 164.227,-209.139"/>
<polygon fill="midnightblue" stroke="midnightblue" points="165.705,-212.342 174.18,-205.983 163.589,-205.669 165.705,-212.342"/>
</g>
<!-- Node36 -->
<g id="node85" class="node"><title>Node36</title>
<a xlink:href="../../dd/dd5/class_u_b_graphics_item_delegate.html#a8b36311f147288058a2f5468776dd630" target="_top" xlink:title="UBGraphicsItemDelegate\l::commitUndoStep">
<polygon fill="white" stroke="black" points="164,-119.918 164,-153.918 292,-153.918 292,-119.918 164,-119.918"/>
<text text-anchor="start" x="172" y="-140.918" font-family="Helvetica,sans-Serif" font-size="10.00">UBGraphicsItemDelegate</text>
<text text-anchor="middle" x="228" y="-127.918" font-family="Helvetica,sans-Serif" font-size="10.00">::commitUndoStep</text>
</a>
</g>
<!-- Node1&#45;&gt;Node36 -->
<g id="edge98" class="edge"><title>Node1&#45;&gt;Node36</title>
<path fill="none" stroke="midnightblue" d="M82.7739,-223.676C102.063,-206.61 133.501,-180.549 164,-162.918 166.665,-161.377 169.44,-159.884 172.275,-158.444"/>
<polygon fill="midnightblue" stroke="midnightblue" points="173.969,-161.513 181.474,-154.035 170.944,-155.201 173.969,-161.513"/>
</g>
<!-- Node3 -->
<g id="node5" class="node"><title>Node3</title>
<a xlink:href="../../d0/d58/class_u_b_drawing_controller.html#a381f5fe1a1745d30bc1abb102ebb3c15" target="_top" xlink:title="UBDrawingController\l::UBDrawingController">
<polygon fill="white" stroke="black" points="337.5,-327.918 337.5,-361.918 452.5,-361.918 452.5,-327.918 337.5,-327.918"/>
<text text-anchor="start" x="345.5" y="-348.918" font-family="Helvetica,sans-Serif" font-size="10.00">UBDrawingController</text>
<text text-anchor="middle" x="395" y="-335.918" font-family="Helvetica,sans-Serif" font-size="10.00">::UBDrawingController</text>
</a>
</g>
<!-- Node2&#45;&gt;Node3 -->
<g id="edge4" class="edge"><title>Node2&#45;&gt;Node3</title>
<path fill="none" stroke="midnightblue" d="M282.682,-344.918C296.903,-344.918 312.396,-344.918 327.204,-344.918"/>
<polygon fill="midnightblue" stroke="midnightblue" points="327.324,-348.418 337.323,-344.918 327.323,-341.418 327.324,-348.418"/>
</g>
<!-- Node4 -->
<g id="node7" class="node"><title>Node4</title>
<a xlink:href="../../db/d66/class_u_b_settings.html#a0d8ed418921c2b2d37851faeae00715d" target="_top" xlink:title="UBSettings::settings">
<polygon fill="white" stroke="black" points="816.5,-574.418 816.5,-595.418 923.5,-595.418 923.5,-574.418 816.5,-574.418"/>
<text text-anchor="middle" x="870" y="-582.418" font-family="Helvetica,sans-Serif" font-size="10.00">UBSettings::settings</text>
</a>
</g>
<!-- Node3&#45;&gt;Node4 -->
<g id="edge6" class="edge"><title>Node3&#45;&gt;Node4</title>
<path fill="none" stroke="midnightblue" d="M398.026,-362.326C408.891,-422.607 447.96,-620.741 498,-656.918 608.005,-736.447 782.37,-640.985 845.864,-600.966"/>
<polygon fill="midnightblue" stroke="midnightblue" points="847.876,-603.833 854.407,-595.491 844.099,-597.94 847.876,-603.833"/>
</g>
<!-- Node14 -->
<g id="node28" class="node"><title>Node14</title>
<a xlink:href="../../d0/d58/class_u_b_drawing_controller.html#a6f11f789e8f99d826910541657502b35" target="_top" xlink:title="UBDrawingController\l::colorPaletteChanged">
<polygon fill="white" stroke="black" points="813.5,-84.918 813.5,-118.918 926.5,-118.918 926.5,-84.918 813.5,-84.918"/>
<text text-anchor="start" x="821.5" y="-105.918" font-family="Helvetica,sans-Serif" font-size="10.00">UBDrawingController</text>
<text text-anchor="middle" x="870" y="-92.918" font-family="Helvetica,sans-Serif" font-size="10.00">::colorPaletteChanged</text>
</a>
</g>
<!-- Node3&#45;&gt;Node14 -->
<g id="edge28" class="edge"><title>Node3&#45;&gt;Node14</title>
<path fill="none" stroke="midnightblue" d="M401.854,-327.768C414.552,-295.689 442.242,-224.295 462,-162.918 480.371,-105.85 450.285,-69.2156 498,-32.918 600.523,45.0728 764.277,-36.9211 835.283,-79.552"/>
<polygon fill="midnightblue" stroke="midnightblue" points="833.512,-82.5718 843.872,-84.7903 837.157,-76.5955 833.512,-82.5718"/>
</g>
<!-- Node15 -->
<g id="node30" class="node"><title>Node15</title>
<a xlink:href="../../d0/d58/class_u_b_drawing_controller.html#ac50b8d2611584f1b6ce34246bcd89ec6" target="_top" xlink:title="UBDrawingController\l::penToolSelected">
<polygon fill="white" stroke="black" points="503.5,-613.918 503.5,-647.918 612.5,-647.918 612.5,-613.918 503.5,-613.918"/>
<text text-anchor="start" x="511.5" y="-634.918" font-family="Helvetica,sans-Serif" font-size="10.00">UBDrawingController</text>
<text text-anchor="middle" x="558" y="-621.918" font-family="Helvetica,sans-Serif" font-size="10.00">::penToolSelected</text>
</a>
</g>
<!-- Node3&#45;&gt;Node15 -->
<g id="edge30" class="edge"><title>Node3&#45;&gt;Node15</title>
<path fill="none" stroke="midnightblue" d="M397.239,-362.244C404.003,-407.896 428.239,-532.908 498,-604.918 498.911,-605.858 499.861,-606.766 500.846,-607.644"/>
<polygon fill="midnightblue" stroke="midnightblue" points="498.886,-610.55 508.977,-613.779 503.103,-604.962 498.886,-610.55"/>
</g>
<!-- Node22 -->
<g id="node46" class="node"><title>Node22</title>
<a xlink:href="../../d0/d58/class_u_b_drawing_controller.html#ac9bd7039ea57fe9a8162b31ed4758148" target="_top" xlink:title="UBDrawingController\l::eraserToolSelected">
<polygon fill="white" stroke="black" points="503.5,-561.918 503.5,-595.918 612.5,-595.918 612.5,-561.918 503.5,-561.918"/>
<text text-anchor="start" x="511.5" y="-582.918" font-family="Helvetica,sans-Serif" font-size="10.00">UBDrawingController</text>
<text text-anchor="middle" x="558" y="-569.918" font-family="Helvetica,sans-Serif" font-size="10.00">::eraserToolSelected</text>
</a>
</g>
<!-- Node3&#45;&gt;Node22 -->
<g id="edge48" class="edge"><title>Node3&#45;&gt;Node22</title>
<path fill="none" stroke="midnightblue" d="M399.166,-362.16C409.426,-401.196 439.435,-497.26 498,-552.918 499.106,-553.969 500.261,-554.981 501.457,-555.956"/>
<polygon fill="midnightblue" stroke="midnightblue" points="499.664,-558.973 509.859,-561.856 503.687,-553.245 499.664,-558.973"/>
</g>
<!-- Node23 -->
<g id="node49" class="node"><title>Node23</title>
<a xlink:href="../../d0/d58/class_u_b_drawing_controller.html#ac4008b36aa26e54eb31c34525eda6b7b" target="_top" xlink:title="UBDrawingController\l::markerToolSelected">
<polygon fill="white" stroke="black" points="503,-509.918 503,-543.918 613,-543.918 613,-509.918 503,-509.918"/>
<text text-anchor="start" x="511" y="-530.918" font-family="Helvetica,sans-Serif" font-size="10.00">UBDrawingController</text>
<text text-anchor="middle" x="558" y="-517.918" font-family="Helvetica,sans-Serif" font-size="10.00">::markerToolSelected</text>
</a>
</g>
<!-- Node3&#45;&gt;Node23 -->
<g id="edge52" class="edge"><title>Node3&#45;&gt;Node23</title>
<path fill="none" stroke="midnightblue" d="M402.364,-362.276C416.55,-393.847 450.513,-461.076 498,-500.918 499.5,-502.177 501.071,-503.384 502.695,-504.541"/>
<polygon fill="midnightblue" stroke="midnightblue" points="500.869,-507.527 511.192,-509.911 504.609,-501.609 500.869,-507.527"/>
</g>
<!-- Node24 -->
<g id="node52" class="node"><title>Node24</title>
<a xlink:href="../../d0/d58/class_u_b_drawing_controller.html#a26cd871f064f2f1949bd3b46982b7c18" target="_top" xlink:title="UBDrawingController\l::selectorToolSelected">
<polygon fill="white" stroke="black" points="501,-457.918 501,-491.918 615,-491.918 615,-457.918 501,-457.918"/>
<text text-anchor="start" x="509" y="-478.918" font-family="Helvetica,sans-Serif" font-size="10.00">UBDrawingController</text>
<text text-anchor="middle" x="558" y="-465.918" font-family="Helvetica,sans-Serif" font-size="10.00">::selectorToolSelected</text>
</a>
</g>
<!-- Node3&#45;&gt;Node24 -->
<g id="edge56" class="edge"><title>Node3&#45;&gt;Node24</title>
<path fill="none" stroke="midnightblue" d="M408.383,-362.028C426.635,-384.439 461.286,-423.824 498,-448.918 500.091,-450.347 502.274,-451.725 504.516,-453.049"/>
<polygon fill="midnightblue" stroke="midnightblue" points="502.935,-456.174 513.391,-457.888 506.286,-450.028 502.935,-456.174"/>
</g>
<!-- Node25 -->
<g id="node55" class="node"><title>Node25</title>
<a xlink:href="../../d0/d58/class_u_b_drawing_controller.html#a684d708764de024a6ef0b77d14b7f0e3" target="_top" xlink:title="UBDrawingController\l::playToolSelected">
<polygon fill="white" stroke="black" points="503.5,-405.918 503.5,-439.918 612.5,-439.918 612.5,-405.918 503.5,-405.918"/>
<text text-anchor="start" x="511.5" y="-426.918" font-family="Helvetica,sans-Serif" font-size="10.00">UBDrawingController</text>
<text text-anchor="middle" x="558" y="-413.918" font-family="Helvetica,sans-Serif" font-size="10.00">::playToolSelected</text>
</a>
</g>
<!-- Node3&#45;&gt;Node25 -->
<g id="edge60" class="edge"><title>Node3&#45;&gt;Node25</title>
<path fill="none" stroke="midnightblue" d="M427.694,-362.04C447.824,-372.428 474.238,-385.783 498,-396.918 501.386,-398.505 504.894,-400.113 508.436,-401.712"/>
<polygon fill="midnightblue" stroke="midnightblue" points="507.275,-405.027 517.834,-405.9 510.124,-398.633 507.275,-405.027"/>
</g>
<!-- Node26 -->
<g id="node58" class="node"><title>Node26</title>
<a xlink:href="../../d0/d58/class_u_b_drawing_controller.html#af8d76f9b5b29b793a0b2b710cd7a970b" target="_top" xlink:title="UBDrawingController\l::handToolSelected">
<polygon fill="white" stroke="black" points="503.5,-353.918 503.5,-387.918 612.5,-387.918 612.5,-353.918 503.5,-353.918"/>
<text text-anchor="start" x="511.5" y="-374.918" font-family="Helvetica,sans-Serif" font-size="10.00">UBDrawingController</text>
<text text-anchor="middle" x="558" y="-361.918" font-family="Helvetica,sans-Serif" font-size="10.00">::handToolSelected</text>
</a>
</g>
<!-- Node3&#45;&gt;Node26 -->
<g id="edge64" class="edge"><title>Node3&#45;&gt;Node26</title>
<path fill="none" stroke="midnightblue" d="M452.927,-354.158C465.979,-356.24 479.914,-358.463 493.227,-360.586"/>
<polygon fill="midnightblue" stroke="midnightblue" points="492.835,-364.068 503.261,-362.187 493.937,-357.155 492.835,-364.068"/>
</g>
<!-- Node27 -->
<g id="node61" class="node"><title>Node27</title>
<a xlink:href="../../d0/d58/class_u_b_drawing_controller.html#afb286643f18871b50ebd9421ca692914" target="_top" xlink:title="UBDrawingController\l::zoomInToolSelected">
<polygon fill="white" stroke="black" points="502,-301.918 502,-335.918 614,-335.918 614,-301.918 502,-301.918"/>
<text text-anchor="start" x="510" y="-322.918" font-family="Helvetica,sans-Serif" font-size="10.00">UBDrawingController</text>
<text text-anchor="middle" x="558" y="-309.918" font-family="Helvetica,sans-Serif" font-size="10.00">::zoomInToolSelected</text>
</a>
</g>
<!-- Node3&#45;&gt;Node27 -->
<g id="edge68" class="edge"><title>Node3&#45;&gt;Node27</title>
<path fill="none" stroke="midnightblue" d="M452.927,-335.678C465.49,-333.674 478.871,-331.54 491.728,-329.489"/>
<polygon fill="midnightblue" stroke="midnightblue" points="492.577,-332.898 501.901,-327.866 491.475,-325.985 492.577,-332.898"/>
</g>
<!-- Node28 -->
<g id="node64" class="node"><title>Node28</title>
<a xlink:href="../../d0/d58/class_u_b_drawing_controller.html#a767b7c2868c614a0905cb9951ed11672" target="_top" xlink:title="UBDrawingController\l::zoomOutToolSelected">
<polygon fill="white" stroke="black" points="498.5,-249.918 498.5,-283.918 617.5,-283.918 617.5,-249.918 498.5,-249.918"/>
<text text-anchor="start" x="506.5" y="-270.918" font-family="Helvetica,sans-Serif" font-size="10.00">UBDrawingController</text>
<text text-anchor="middle" x="558" y="-257.918" font-family="Helvetica,sans-Serif" font-size="10.00">::zoomOutToolSelected</text>
</a>
</g>
<!-- Node3&#45;&gt;Node28 -->
<g id="edge72" class="edge"><title>Node3&#45;&gt;Node28</title>
<path fill="none" stroke="midnightblue" d="M427.694,-327.796C447.824,-317.408 474.238,-304.053 498,-292.918 501.386,-291.331 504.894,-289.723 508.436,-288.124"/>
<polygon fill="midnightblue" stroke="midnightblue" points="510.124,-291.203 517.834,-283.936 507.275,-284.809 510.124,-291.203"/>
</g>
<!-- Node29 -->
<g id="node67" class="node"><title>Node29</title>
<a xlink:href="../../d0/d58/class_u_b_drawing_controller.html#a9ba30f83d57b0caab30ae82bc8f1e1ee" target="_top" xlink:title="UBDrawingController\l::pointerToolSelected">
<polygon fill="white" stroke="black" points="503.5,-197.918 503.5,-231.918 612.5,-231.918 612.5,-197.918 503.5,-197.918"/>
<text text-anchor="start" x="511.5" y="-218.918" font-family="Helvetica,sans-Serif" font-size="10.00">UBDrawingController</text>
<text text-anchor="middle" x="558" y="-205.918" font-family="Helvetica,sans-Serif" font-size="10.00">::pointerToolSelected</text>
</a>
</g>
<!-- Node3&#45;&gt;Node29 -->
<g id="edge76" class="edge"><title>Node3&#45;&gt;Node29</title>
<path fill="none" stroke="midnightblue" d="M408.383,-327.808C426.635,-305.397 461.286,-266.012 498,-240.918 500.091,-239.489 502.274,-238.111 504.516,-236.787"/>
<polygon fill="midnightblue" stroke="midnightblue" points="506.286,-239.808 513.391,-231.948 502.935,-233.662 506.286,-239.808"/>
</g>
<!-- Node30 -->
<g id="node70" class="node"><title>Node30</title>
<a xlink:href="../../d0/d58/class_u_b_drawing_controller.html#a2cbdc9d4445dd8abcc4a59b2a6d28c0d" target="_top" xlink:title="UBDrawingController\l::lineToolSelected">
<polygon fill="white" stroke="black" points="503.5,-145.918 503.5,-179.918 612.5,-179.918 612.5,-145.918 503.5,-145.918"/>
<text text-anchor="start" x="511.5" y="-166.918" font-family="Helvetica,sans-Serif" font-size="10.00">UBDrawingController</text>
<text text-anchor="middle" x="558" y="-153.918" font-family="Helvetica,sans-Serif" font-size="10.00">::lineToolSelected</text>
</a>
</g>
<!-- Node3&#45;&gt;Node30 -->
<g id="edge80" class="edge"><title>Node3&#45;&gt;Node30</title>
<path fill="none" stroke="midnightblue" d="M402.364,-327.56C416.55,-295.989 450.513,-228.76 498,-188.918 499.5,-187.659 501.071,-186.452 502.695,-185.295"/>
<polygon fill="midnightblue" stroke="midnightblue" points="504.609,-188.227 511.192,-179.925 500.869,-182.309 504.609,-188.227"/>
</g>
<!-- Node31 -->
<g id="node73" class="node"><title>Node31</title>
<a xlink:href="../../d0/d58/class_u_b_drawing_controller.html#aec62d39119a747c11bf8b46f9e19b7ca" target="_top" xlink:title="UBDrawingController\l::textToolSelected">
<polygon fill="white" stroke="black" points="503.5,-93.918 503.5,-127.918 612.5,-127.918 612.5,-93.918 503.5,-93.918"/>
<text text-anchor="start" x="511.5" y="-114.918" font-family="Helvetica,sans-Serif" font-size="10.00">UBDrawingController</text>
<text text-anchor="middle" x="558" y="-101.918" font-family="Helvetica,sans-Serif" font-size="10.00">::textToolSelected</text>
</a>
</g>
<!-- Node3&#45;&gt;Node31 -->
<g id="edge84" class="edge"><title>Node3&#45;&gt;Node31</title>
<path fill="none" stroke="midnightblue" d="M399.166,-327.676C409.426,-288.64 439.435,-192.576 498,-136.918 499.106,-135.867 500.261,-134.855 501.457,-133.88"/>
<polygon fill="midnightblue" stroke="midnightblue" points="503.687,-136.591 509.859,-127.98 499.664,-130.863 503.687,-136.591"/>
</g>
<!-- Node32 -->
<g id="node76" class="node"><title>Node32</title>
<a xlink:href="../../d0/d58/class_u_b_drawing_controller.html#a6746622a5b605c5de8e3d5bdabf05aee" target="_top" xlink:title="UBDrawingController\l::captureToolSelected">
<polygon fill="white" stroke="black" points="502,-41.918 502,-75.918 614,-75.918 614,-41.918 502,-41.918"/>
<text text-anchor="start" x="510" y="-62.918" font-family="Helvetica,sans-Serif" font-size="10.00">UBDrawingController</text>
<text text-anchor="middle" x="558" y="-49.918" font-family="Helvetica,sans-Serif" font-size="10.00">::captureToolSelected</text>
</a>
</g>
<!-- Node3&#45;&gt;Node32 -->
<g id="edge88" class="edge"><title>Node3&#45;&gt;Node32</title>
<path fill="none" stroke="midnightblue" d="M401.381,-327.768C422.442,-271.308 488.921,-94.2897 498,-84.918 498.911,-83.9777 499.861,-83.0694 500.846,-82.1921"/>
<polygon fill="midnightblue" stroke="midnightblue" points="503.103,-84.8741 508.977,-76.0569 498.886,-79.2863 503.103,-84.8741"/>
</g>
<!-- Node5 -->
<g id="node9" class="node"><title>Node5</title>
<a xlink:href="../../db/d66/class_u_b_settings.html#ad703e9b5a7efdb68b9c6ecef0df7cce2" target="_top" xlink:title="UBSettings::UBSettings">
<polygon fill="white" stroke="black" points="976.5,-574.418 976.5,-595.418 1099.5,-595.418 1099.5,-574.418 976.5,-574.418"/>
<text text-anchor="middle" x="1038" y="-582.418" font-family="Helvetica,sans-Serif" font-size="10.00">UBSettings::UBSettings</text>
</a>
</g>
<!-- Node4&#45;&gt;Node5 -->
<g id="edge8" class="edge"><title>Node4&#45;&gt;Node5</title>
<path fill="none" stroke="midnightblue" d="M923.618,-584.918C937.141,-584.918 951.878,-584.918 966.138,-584.918"/>
<polygon fill="midnightblue" stroke="midnightblue" points="966.413,-588.418 976.413,-584.918 966.413,-581.418 966.413,-588.418"/>
</g>
<!-- Node6 -->
<g id="node11" class="node"><title>Node6</title>
<a xlink:href="../../db/d66/class_u_b_settings.html#afd0d739b2cfac7e2d05be7415f6692df" target="_top" xlink:title="UBSettings::InitKeyboard\lPaletteKeyBtnSizes">
<polygon fill="white" stroke="black" points="1148,-612.918 1148,-646.918 1276,-646.918 1276,-612.918 1148,-612.918"/>
<text text-anchor="start" x="1156" y="-633.918" font-family="Helvetica,sans-Serif" font-size="10.00">UBSettings::InitKeyboard</text>
<text text-anchor="middle" x="1212" y="-620.918" font-family="Helvetica,sans-Serif" font-size="10.00">PaletteKeyBtnSizes</text>
</a>
</g>
<!-- Node5&#45;&gt;Node6 -->
<g id="edge10" class="edge"><title>Node5&#45;&gt;Node6</title>
<path fill="none" stroke="midnightblue" d="M1078.8,-595.468C1096.49,-600.045 1117.78,-605.551 1138.09,-610.804"/>
<polygon fill="midnightblue" stroke="midnightblue" points="1137.41,-614.243 1147.97,-613.358 1139.16,-607.466 1137.41,-614.243"/>
</g>
<!-- Node7 -->
<g id="node13" class="node"><title>Node7</title>
<a xlink:href="../../db/d66/class_u_b_settings.html#a2d3413f8b25d64a698d6d83e0f18ff39" target="_top" xlink:title="UBSettings::getAppSettings">
<polygon fill="white" stroke="black" points="1326,-575.418 1326,-596.418 1466,-596.418 1466,-575.418 1326,-575.418"/>
<text text-anchor="middle" x="1396" y="-583.418" font-family="Helvetica,sans-Serif" font-size="10.00">UBSettings::getAppSettings</text>
</a>
</g>
<!-- Node5&#45;&gt;Node7 -->
<g id="edge12" class="edge"><title>Node5&#45;&gt;Node7</title>
<path fill="none" stroke="midnightblue" d="M1099.54,-585.09C1159.22,-585.257 1250.09,-585.51 1315.49,-585.693"/>
<polygon fill="midnightblue" stroke="midnightblue" points="1315.75,-589.194 1325.76,-585.722 1315.77,-582.194 1315.75,-589.194"/>
</g>
<!-- Node9 -->
<g id="node17" class="node"><title>Node9</title>
<a xlink:href="../../db/d66/class_u_b_settings.html#af38d2ad231149df734ca7b5486356500" target="_top" xlink:title="UBSettings::userDataDirectory">
<polygon fill="white" stroke="black" points="1136,-535.418 1136,-556.418 1288,-556.418 1288,-535.418 1136,-535.418"/>
<text text-anchor="middle" x="1212" y="-543.418" font-family="Helvetica,sans-Serif" font-size="10.00">UBSettings::userDataDirectory</text>
</a>
</g>
<!-- Node5&#45;&gt;Node9 -->
<g id="edge16" class="edge"><title>Node5&#45;&gt;Node9</title>
<path fill="none" stroke="midnightblue" d="M1085.09,-574.364C1106.65,-569.53 1132.4,-563.759 1155.05,-558.683"/>
<polygon fill="midnightblue" stroke="midnightblue" points="1155.88,-562.083 1164.88,-556.48 1154.35,-555.252 1155.88,-562.083"/>
</g>
<!-- Node8 -->
<g id="node15" class="node"><title>Node8</title>
<a xlink:href="../../d4/d99/class_u_b_platform_utils.html#ae595b29e794b20564550fd45515fc0a8" target="_top" xlink:title="UBPlatformUtils::application\lResourcesDirectory">
<polygon fill="white" stroke="black" points="1522,-571.918 1522,-605.918 1662,-605.918 1662,-571.918 1522,-571.918"/>
<text text-anchor="start" x="1530" y="-592.918" font-family="Helvetica,sans-Serif" font-size="10.00">UBPlatformUtils::application</text>
<text text-anchor="middle" x="1592" y="-579.918" font-family="Helvetica,sans-Serif" font-size="10.00">ResourcesDirectory</text>
</a>
</g>
<!-- Node7&#45;&gt;Node8 -->
<g id="edge14" class="edge"><title>Node7&#45;&gt;Node8</title>
<path fill="none" stroke="midnightblue" d="M1466.21,-586.993C1480.93,-587.218 1496.57,-587.457 1511.64,-587.688"/>
<polygon fill="midnightblue" stroke="midnightblue" points="1511.9,-591.192 1521.95,-587.846 1512.01,-584.193 1511.9,-591.192"/>
</g>
<!-- Node9&#45;&gt;Node7 -->
<g id="edge18" class="edge"><title>Node9&#45;&gt;Node7</title>
<path fill="none" stroke="midnightblue" d="M1260.34,-556.427C1284.02,-561.575 1312.72,-567.813 1337.61,-573.225"/>
<polygon fill="midnightblue" stroke="midnightblue" points="1337.14,-576.705 1347.66,-575.409 1338.63,-569.865 1337.14,-576.705"/>
</g>
<!-- Node10 -->
<g id="node20" class="node"><title>Node10</title>
<a xlink:href="../../db/d66/class_u_b_settings.html#aea5fec9db96c03162c2ce1d5d4c41ab0" target="_top" xlink:title="UBSettings::replaceWildcard">
<polygon fill="white" stroke="black" points="1324.5,-535.418 1324.5,-556.418 1467.5,-556.418 1467.5,-535.418 1324.5,-535.418"/>
<text text-anchor="middle" x="1396" y="-543.418" font-family="Helvetica,sans-Serif" font-size="10.00">UBSettings::replaceWildcard</text>
</a>
</g>
<!-- Node9&#45;&gt;Node10 -->
<g id="edge20" class="edge"><title>Node9&#45;&gt;Node10</title>
<path fill="none" stroke="midnightblue" d="M1288.17,-545.918C1296.77,-545.918 1305.55,-545.918 1314.22,-545.918"/>
<polygon fill="midnightblue" stroke="midnightblue" points="1314.32,-549.418 1324.32,-545.918 1314.32,-542.418 1314.32,-549.418"/>
</g>
<!-- Node12 -->
<g id="node24" class="node"><title>Node12</title>
<a xlink:href="../../db/d66/class_u_b_settings.html#ac0b3c85870c353e48b7d2cfdff9e0eaa" target="_top" xlink:title="UBSettings::checkDirectory">
<polygon fill="white" stroke="black" points="1326.5,-495.418 1326.5,-516.418 1465.5,-516.418 1465.5,-495.418 1326.5,-495.418"/>
<text text-anchor="middle" x="1396" y="-503.418" font-family="Helvetica,sans-Serif" font-size="10.00">UBSettings::checkDirectory</text>
</a>
</g>
<!-- Node9&#45;&gt;Node12 -->
<g id="edge24" class="edge"><title>Node9&#45;&gt;Node12</title>
<path fill="none" stroke="midnightblue" d="M1260.34,-535.408C1284.02,-530.261 1312.72,-524.023 1337.61,-518.611"/>
<polygon fill="midnightblue" stroke="midnightblue" points="1338.63,-521.971 1347.66,-516.427 1337.14,-515.131 1338.63,-521.971"/>
</g>
<!-- Node13 -->
<g id="node26" class="node"><title>Node13</title>
<a xlink:href="../../d2/d7a/class_u_b_file_system_utils.html#af850f64fdd630fc78510c856f00ffa4f" target="_top" xlink:title="UBFileSystemUtils:\l:normalizeFilePath">
<polygon fill="white" stroke="black" points="1344,-442.918 1344,-476.918 1448,-476.918 1448,-442.918 1344,-442.918"/>
<text text-anchor="start" x="1352" y="-463.918" font-family="Helvetica,sans-Serif" font-size="10.00">UBFileSystemUtils:</text>
<text text-anchor="middle" x="1396" y="-450.918" font-family="Helvetica,sans-Serif" font-size="10.00">:normalizeFilePath</text>
</a>
</g>
<!-- Node9&#45;&gt;Node13 -->
<g id="edge26" class="edge"><title>Node9&#45;&gt;Node13</title>
<path fill="none" stroke="midnightblue" d="M1229.83,-535.321C1251.6,-522.631 1289.75,-501.181 1324,-485.918 1327.89,-484.184 1331.94,-482.476 1336.04,-480.815"/>
<polygon fill="midnightblue" stroke="midnightblue" points="1337.63,-483.95 1345.66,-477.036 1335.08,-477.434 1337.63,-483.95"/>
</g>
<!-- Node11 -->
<g id="node22" class="node"><title>Node11</title>
<a xlink:href="../../d4/d99/class_u_b_platform_utils.html#a4ff6063df12b6d4d0c60c1a17b434599" target="_top" xlink:title="UBPlatformUtils::osUserLoginName">
<polygon fill="white" stroke="black" points="1504.5,-532.418 1504.5,-553.418 1679.5,-553.418 1679.5,-532.418 1504.5,-532.418"/>
<text text-anchor="middle" x="1592" y="-540.418" font-family="Helvetica,sans-Serif" font-size="10.00">UBPlatformUtils::osUserLoginName</text>
</a>
</g>
<!-- Node10&#45;&gt;Node11 -->
<g id="edge22" class="edge"><title>Node10&#45;&gt;Node11</title>
<path fill="none" stroke="midnightblue" d="M1467.59,-544.822C1476.25,-544.69 1485.21,-544.552 1494.17,-544.415"/>
<polygon fill="midnightblue" stroke="midnightblue" points="1494.32,-547.914 1504.26,-544.261 1494.21,-540.914 1494.32,-547.914"/>
</g>
<!-- Node16 -->
<g id="node32" class="node"><title>Node16</title>
<a xlink:href="../../d0/d58/class_u_b_drawing_controller.html#ac5790e8e77299a58ba6f2692133b7009" target="_top" xlink:title="UBDrawingController\l::setStylusTool">
<polygon fill="white" stroke="black" points="654.5,-327.918 654.5,-361.918 763.5,-361.918 763.5,-327.918 654.5,-327.918"/>
<text text-anchor="start" x="662.5" y="-348.918" font-family="Helvetica,sans-Serif" font-size="10.00">UBDrawingController</text>
<text text-anchor="middle" x="709" y="-335.918" font-family="Helvetica,sans-Serif" font-size="10.00">::setStylusTool</text>
</a>
</g>
<!-- Node15&#45;&gt;Node16 -->
<g id="edge32" class="edge"><title>Node15&#45;&gt;Node16</title>
<path fill="none" stroke="midnightblue" d="M607.168,-613.916C611.136,-611.309 614.83,-608.326 618,-604.918 680.797,-537.413 700.621,-424.129 706.581,-372.299"/>
<polygon fill="midnightblue" stroke="midnightblue" points="710.077,-372.525 707.653,-362.211 703.116,-371.785 710.077,-372.525"/>
</g>
<!-- Node16&#45;&gt;Node4 -->
<g id="edge40" class="edge"><title>Node16&#45;&gt;Node4</title>
<path fill="none" stroke="midnightblue" d="M720.579,-362.178C749.854,-405.818 826.666,-520.321 857.209,-565.85"/>
<polygon fill="midnightblue" stroke="midnightblue" points="854.354,-567.878 862.832,-574.232 860.167,-563.978 854.354,-567.878"/>
</g>
<!-- Node16&#45;&gt;Node14 -->
<g id="edge46" class="edge"><title>Node16&#45;&gt;Node14</title>
<path fill="none" stroke="midnightblue" d="M720.321,-327.831C748.15,-285.828 820.026,-177.344 853.005,-127.568"/>
<polygon fill="midnightblue" stroke="midnightblue" points="856.086,-129.256 858.691,-118.986 850.25,-125.39 856.086,-129.256"/>
</g>
<!-- Node17 -->
<g id="node34" class="node"><title>Node17</title>
<a xlink:href="../../d7/d62/class_u_b_board_controller.html#a5bf93ad343de7f09150d634ef3a8c459" target="_top" xlink:title="UBBoardController:\l:activeScene">
<polygon fill="white" stroke="black" points="819.5,-431.918 819.5,-465.918 920.5,-465.918 920.5,-431.918 819.5,-431.918"/>
<text text-anchor="start" x="827.5" y="-452.918" font-family="Helvetica,sans-Serif" font-size="10.00">UBBoardController:</text>
<text text-anchor="middle" x="870" y="-439.918" font-family="Helvetica,sans-Serif" font-size="10.00">:activeScene</text>
</a>
</g>
<!-- Node16&#45;&gt;Node17 -->
<g id="edge34" class="edge"><title>Node16&#45;&gt;Node17</title>
<path fill="none" stroke="midnightblue" d="M725.368,-362.148C742.581,-379.452 771.131,-405.921 800,-422.918 803.205,-424.805 806.57,-426.595 810.02,-428.287"/>
<polygon fill="midnightblue" stroke="midnightblue" points="808.749,-431.554 819.298,-432.535 811.662,-425.19 808.749,-431.554"/>
</g>
<!-- Node18 -->
<g id="node36" class="node"><title>Node18</title>
<a xlink:href="../../dc/db2/class_u_b_graphics_scene.html#a6cfc68b3907297af710a1d8d1492d4ea" target="_top" xlink:title="UBGraphicsScene::deselect\lAllItems">
<polygon fill="white" stroke="black" points="800,-379.918 800,-413.918 940,-413.918 940,-379.918 800,-379.918"/>
<text text-anchor="start" x="808" y="-400.918" font-family="Helvetica,sans-Serif" font-size="10.00">UBGraphicsScene::deselect</text>
<text text-anchor="middle" x="870" y="-387.918" font-family="Helvetica,sans-Serif" font-size="10.00">AllItems</text>
</a>
</g>
<!-- Node16&#45;&gt;Node18 -->
<g id="edge36" class="edge"><title>Node16&#45;&gt;Node18</title>
<path fill="none" stroke="midnightblue" d="M761.717,-361.945C776.312,-366.658 792.295,-371.821 807.393,-376.697"/>
<polygon fill="midnightblue" stroke="midnightblue" points="806.572,-380.11 817.164,-379.853 808.724,-373.449 806.572,-380.11"/>
</g>
<!-- Node19 -->
<g id="node38" class="node"><title>Node19</title>
<a xlink:href="../../d0/d58/class_u_b_drawing_controller.html#a02acf3adbfc4a9aa14da3efd01b7a530" target="_top" xlink:title="UBDrawingController\l::lineWidthIndexChanged">
<polygon fill="white" stroke="black" points="807,-327.918 807,-361.918 933,-361.918 933,-327.918 807,-327.918"/>
<text text-anchor="start" x="815" y="-348.918" font-family="Helvetica,sans-Serif" font-size="10.00">UBDrawingController</text>
<text text-anchor="middle" x="870" y="-335.918" font-family="Helvetica,sans-Serif" font-size="10.00">::lineWidthIndexChanged</text>
</a>
</g>
<!-- Node16&#45;&gt;Node19 -->
<g id="edge38" class="edge"><title>Node16&#45;&gt;Node19</title>
<path fill="none" stroke="midnightblue" d="M763.507,-344.918C774.193,-344.918 785.564,-344.918 796.747,-344.918"/>
<polygon fill="midnightblue" stroke="midnightblue" points="796.939,-348.418 806.939,-344.918 796.939,-341.418 796.939,-348.418"/>
</g>
<!-- Node20 -->
<g id="node41" class="node"><title>Node20</title>
<a xlink:href="../../d0/d58/class_u_b_drawing_controller.html#a42605540fe8451289997d9b61a89e642" target="_top" xlink:title="UBDrawingController\l::colorIndexChanged">
<polygon fill="white" stroke="black" points="815.5,-275.918 815.5,-309.918 924.5,-309.918 924.5,-275.918 815.5,-275.918"/>
<text text-anchor="start" x="823.5" y="-296.918" font-family="Helvetica,sans-Serif" font-size="10.00">UBDrawingController</text>
<text text-anchor="middle" x="870" y="-283.918" font-family="Helvetica,sans-Serif" font-size="10.00">::colorIndexChanged</text>
</a>
</g>
<!-- Node16&#45;&gt;Node20 -->
<g id="edge42" class="edge"><title>Node16&#45;&gt;Node20</title>
<path fill="none" stroke="midnightblue" d="M761.717,-327.891C776.312,-323.177 792.295,-318.015 807.393,-313.139"/>
<polygon fill="midnightblue" stroke="midnightblue" points="808.724,-316.387 817.164,-309.983 806.572,-309.726 808.724,-316.387"/>
</g>
<!-- Node21 -->
<g id="node43" class="node"><title>Node21</title>
<a xlink:href="../../d0/d58/class_u_b_drawing_controller.html#ae9ae9cf749d8ce65205cf8c50df67502" target="_top" xlink:title="UBDrawingController\l::stylusToolChanged">
<polygon fill="white" stroke="black" points="815.5,-223.918 815.5,-257.918 924.5,-257.918 924.5,-223.918 815.5,-223.918"/>
<text text-anchor="start" x="823.5" y="-244.918" font-family="Helvetica,sans-Serif" font-size="10.00">UBDrawingController</text>
<text text-anchor="middle" x="870" y="-231.918" font-family="Helvetica,sans-Serif" font-size="10.00">::stylusToolChanged</text>
</a>
</g>
<!-- Node16&#45;&gt;Node21 -->
<g id="edge44" class="edge"><title>Node16&#45;&gt;Node21</title>
<path fill="none" stroke="midnightblue" d="M725.368,-327.688C742.581,-310.384 771.131,-283.915 800,-266.918 802.793,-265.274 805.708,-263.702 808.694,-262.206"/>
<polygon fill="midnightblue" stroke="midnightblue" points="810.241,-265.346 817.818,-257.941 807.277,-259.005 810.241,-265.346"/>
</g>
<!-- Node22&#45;&gt;Node16 -->
<g id="edge50" class="edge"><title>Node22&#45;&gt;Node16</title>
<path fill="none" stroke="midnightblue" d="M606.605,-561.843C610.738,-559.245 614.623,-556.284 618,-552.918 669.715,-501.383 694.234,-415.532 703.838,-372.003"/>
<polygon fill="midnightblue" stroke="midnightblue" points="707.279,-372.649 705.917,-362.142 700.429,-371.205 707.279,-372.649"/>
</g>
<!-- Node23&#45;&gt;Node16 -->
<g id="edge54" class="edge"><title>Node23&#45;&gt;Node16</title>
<path fill="none" stroke="midnightblue" d="M605.605,-509.779C610.04,-507.177 614.264,-504.233 618,-500.918 658.594,-464.895 685.896,-406.266 699.322,-372.07"/>
<polygon fill="midnightblue" stroke="midnightblue" points="702.757,-372.885 703.042,-362.294 696.214,-370.395 702.757,-372.885"/>
</g>
<!-- Node24&#45;&gt;Node16 -->
<g id="edge58" class="edge"><title>Node24&#45;&gt;Node16</title>
<path fill="none" stroke="midnightblue" d="M603.433,-457.843C608.535,-455.174 613.507,-452.197 618,-448.918 648.073,-426.971 675.124,-393.419 691.767,-370.394"/>
<polygon fill="midnightblue" stroke="midnightblue" points="694.695,-372.314 697.62,-362.131 688.983,-368.268 694.695,-372.314"/>
</g>
<!-- Node25&#45;&gt;Node16 -->
<g id="edge62" class="edge"><title>Node25&#45;&gt;Node16</title>
<path fill="none" stroke="midnightblue" d="M598.945,-405.894C605.377,-403.014 611.909,-399.967 618,-396.918 636.123,-387.848 655.701,-376.828 672.038,-367.271"/>
<polygon fill="midnightblue" stroke="midnightblue" points="673.914,-370.227 680.75,-362.133 670.358,-364.198 673.914,-370.227"/>
</g>
<!-- Node26&#45;&gt;Node16 -->
<g id="edge66" class="edge"><title>Node26&#45;&gt;Node16</title>
<path fill="none" stroke="midnightblue" d="M612.514,-361.531C622.821,-359.757 633.695,-357.884 644.28,-356.062"/>
<polygon fill="midnightblue" stroke="midnightblue" points="645.051,-359.481 654.312,-354.334 643.863,-352.582 645.051,-359.481"/>
</g>
<!-- Node27&#45;&gt;Node16 -->
<g id="edge70" class="edge"><title>Node27&#45;&gt;Node16</title>
<path fill="none" stroke="midnightblue" d="M614.227,-328.599C624.1,-330.299 634.445,-332.081 644.522,-333.816"/>
<polygon fill="midnightblue" stroke="midnightblue" points="644.033,-337.283 654.482,-335.531 645.221,-330.385 644.033,-337.283"/>
</g>
<!-- Node28&#45;&gt;Node16 -->
<g id="edge74" class="edge"><title>Node28&#45;&gt;Node16</title>
<path fill="none" stroke="midnightblue" d="M598.945,-283.942C605.377,-286.822 611.909,-289.869 618,-292.918 636.123,-301.988 655.701,-313.008 672.038,-322.565"/>
<polygon fill="midnightblue" stroke="midnightblue" points="670.358,-325.638 680.75,-327.703 673.914,-319.608 670.358,-325.638"/>
</g>
<!-- Node29&#45;&gt;Node16 -->
<g id="edge78" class="edge"><title>Node29&#45;&gt;Node16</title>
<path fill="none" stroke="midnightblue" d="M603.433,-231.993C608.535,-234.662 613.507,-237.639 618,-240.918 648.073,-262.865 675.124,-296.417 691.767,-319.442"/>
<polygon fill="midnightblue" stroke="midnightblue" points="688.983,-321.568 697.62,-327.705 694.695,-317.522 688.983,-321.568"/>
</g>
<!-- Node30&#45;&gt;Node16 -->
<g id="edge82" class="edge"><title>Node30&#45;&gt;Node16</title>
<path fill="none" stroke="midnightblue" d="M605.605,-180.057C610.04,-182.659 614.264,-185.602 618,-188.918 658.594,-224.941 685.896,-283.57 699.322,-317.766"/>
<polygon fill="midnightblue" stroke="midnightblue" points="696.214,-319.441 703.042,-327.542 702.757,-316.951 696.214,-319.441"/>
</g>
<!-- Node31&#45;&gt;Node16 -->
<g id="edge86" class="edge"><title>Node31&#45;&gt;Node16</title>
<path fill="none" stroke="midnightblue" d="M606.605,-127.992C610.738,-130.591 614.623,-133.552 618,-136.918 669.715,-188.453 694.234,-274.304 703.838,-317.833"/>
<polygon fill="midnightblue" stroke="midnightblue" points="700.429,-318.631 705.917,-327.694 707.279,-317.187 700.429,-318.631"/>
</g>
<!-- Node32&#45;&gt;Node16 -->
<g id="edge90" class="edge"><title>Node32&#45;&gt;Node16</title>
<path fill="none" stroke="midnightblue" d="M607.168,-75.9196C611.136,-78.5267 614.83,-81.51 618,-84.918 680.797,-152.423 700.621,-265.707 706.581,-317.536"/>
<polygon fill="midnightblue" stroke="midnightblue" points="703.116,-318.051 707.653,-327.625 710.077,-317.311 703.116,-318.051"/>
</g>
<!-- Node37 -->
<g id="node87" class="node"><title>Node37</title>
<a xlink:href="../../d7/dad/class_u_b_resizable_graphics_item.html#a97d0d97df113d870f0e463ace0b050c7" target="_top" xlink:title="UBResizableGraphicsItem\l::size">
<polygon fill="white" stroke="black" points="328.5,-119.918 328.5,-153.918 461.5,-153.918 461.5,-119.918 328.5,-119.918"/>
<text text-anchor="start" x="336.5" y="-140.918" font-family="Helvetica,sans-Serif" font-size="10.00">UBResizableGraphicsItem</text>
<text text-anchor="middle" x="395" y="-127.918" font-family="Helvetica,sans-Serif" font-size="10.00">::size</text>
</a>
</g>
<!-- Node36&#45;&gt;Node37 -->
<g id="edge100" class="edge"><title>Node36&#45;&gt;Node37</title>
<path fill="none" stroke="midnightblue" d="M292.089,-136.918C300.617,-136.918 309.432,-136.918 318.149,-136.918"/>
<polygon fill="midnightblue" stroke="midnightblue" points="318.315,-140.418 328.315,-136.918 318.315,-133.418 318.315,-140.418"/>
</g>
</g>
</svg>
        <g id="navigator" transform="translate(0 0)" fill="#404254">
                <rect fill="#f2f5e9" fill-opacity="0.5" stroke="#606060" stroke-width=".5" x="0" y="0" width="60" height="60"/>
                <use id="zoomplus" xlink:href="#zoomPlus" x="17" y="9" onmousedown="handleZoom(evt,'in')"/>
                <use id="zoomminus" xlink:href="#zoomMin" x="42" y="9" onmousedown="handleZoom(evt,'out')"/>
                <use id="reset" xlink:href="#resetDef" x="30" y="36" onmousedown="handleReset()"/>
                <g id="arrowUp" xlink:href="#dirArrow" transform="translate(30 24)" onmousedown="handlePan(0,-1)">
                  <use xlink:href="#rim" fill="#404040">
                        <set attributeName="fill" to="#808080" begin="arrowUp.mouseover" end="arrowUp.mouseout"/>
                  </use>
                  <path fill="none" stroke="white" stroke-width="1.5" d="M0,-3.0v7 M-2.5,-0.5L0,-3.0L2.5,-0.5"/>
                </g>
                <g id="arrowRight" xlink:href="#dirArrow" transform="rotate(90) translate(36 -43)" onmousedown="handlePan(1,0)">
                  <use xlink:href="#rim" fill="#404040">
                        <set attributeName="fill" to="#808080" begin="arrowRight.mouseover" end="arrowRight.mouseout"/>
                  </use>
                  <path fill="none" stroke="white" stroke-width="1.5" d="M0,-3.0v7 M-2.5,-0.5L0,-3.0L2.5,-0.5"/>
                </g>
                <g id="arrowDown" xlink:href="#dirArrow" transform="rotate(180) translate(-30 -48)" onmousedown="handlePan(0,1)">
                  <use xlink:href="#rim" fill="#404040">
                        <set attributeName="fill" to="#808080" begin="arrowDown.mouseover" end="arrowDown.mouseout"/>
                  </use>
                  <path fill="none" stroke="white" stroke-width="1.5" d="M0,-3.0v7 M-2.5,-0.5L0,-3.0L2.5,-0.5"/>
                </g>
                <g id="arrowLeft" xlink:href="#dirArrow" transform="rotate(270) translate(-36 17)" onmousedown="handlePan(-1,0)">
                  <use xlink:href="#rim" fill="#404040">
                        <set attributeName="fill" to="#808080" begin="arrowLeft.mouseover" end="arrowLeft.mouseout"/>
                  </use>
                  <path fill="none" stroke="white" stroke-width="1.5" d="M0,-3.0v7 M-2.5,-0.5L0,-3.0L2.5,-0.5"/>
                </g>
        </g>
        <svg viewBox="0 0 15 15" width="100%" height="30px" preserveAspectRatio="xMaxYMin meet">
         <g id="arrow_out" transform="scale(0.3 0.3)">
          <a xlink:href="class_u_b_graphics_item_delegate_a76f992490575724a33bc0813f80f7a98_cgraph_org.svg" target="_base">
           <rect id="button" ry="5" rx="5" y="6" x="6" height="38" width="38"
                fill="#f2f5e9" fill-opacity="0.5" stroke="#606060" stroke-width="1.0"/>
           <path id="arrow"
             d="M 11.500037,31.436501 C 11.940474,20.09759 22.043105,11.32322 32.158766,21.979434 L 37.068811,17.246167 C 37.068811,17.246167 37.088388,32 37.088388,32 L 22.160133,31.978069 C 22.160133,31.978069 26.997745,27.140456 26.997745,27.140456 C 18.528582,18.264221 13.291696,25.230495 11.500037,31.436501 z"
             style="fill:#404040;"/>
          </a>
         </g>
        </svg>
</svg>
