<?xml version="1.0" encoding="UTF-8" standalone="no"?>
<!DOCTYPE svg PUBLIC "-//W3C//DTD SVG 1.1//EN"
 "http://www.w3.org/Graphics/SVG/1.1/DTD/svg11.dtd">
<!-- Generated by graphviz version 2.26.3 (20100126.1600)
 -->
<!-- Title: UBGraphicsItemDelegate::update Pages: 1 -->
<svg width="1230pt" height="302pt"
 viewBox="0.00 0.00 1230.00 302.00" xmlns="http://www.w3.org/2000/svg" xmlns:xlink="http://www.w3.org/1999/xlink">
<g id="graph1" class="graph" transform="scale(1 1) rotate(0) translate(4 298)">
<title>UBGraphicsItemDelegate::update</title>
<polygon fill="white" stroke="white" points="-4,5 -4,-298 1227,-298 1227,5 -4,5"/>
<!-- Node1 -->
<g id="node1" class="node"><title>Node1</title>
<polygon fill="#bfbfbf" stroke="black" points="0,-176 0,-210 128,-210 128,-176 0,-176"/>
<text text-anchor="start" x="8" y="-197" font-family="Helvetica,sans-Serif" font-size="10.00">UBGraphicsItemDelegate</text>
<text text-anchor="middle" x="64" y="-184" font-family="Helvetica,sans-Serif" font-size="10.00">::update</text>
</g>
<!-- Node2 -->
<g id="node3" class="node"><title>Node2</title>
<a xlink:href="../../d2/df2/class_u_b_graphics_item_undo_command.html#ad72c268f481bda2170f4b0cafe193bd5" target="_top" xlink:title="UBGraphicsItemUndoCommand\l::undo">
<polygon fill="white" stroke="black" points="165,-228 165,-262 323,-262 323,-228 165,-228"/>
<text text-anchor="start" x="173" y="-249" font-family="Helvetica,sans-Serif" font-size="10.00">UBGraphicsItemUndoCommand</text>
<text text-anchor="middle" x="244" y="-236" font-family="Helvetica,sans-Serif" font-size="10.00">::undo</text>
</a>
</g>
<!-- Node1&#45;&gt;Node2 -->
<g id="edge2" class="edge"><title>Node1&#45;&gt;Node2</title>
<path fill="none" stroke="midnightblue" d="M132.895,-212.903C150.052,-217.859 168.293,-223.129 184.929,-227.935"/>
<polygon fill="midnightblue" stroke="midnightblue" points="133.517,-209.44 122.939,-210.027 131.574,-216.165 133.517,-209.44"/>
</g>
<!-- Node3 -->
<g id="node5" class="node"><title>Node3</title>
<a xlink:href="../../d2/df2/class_u_b_graphics_item_undo_command.html#a85f77fad80b241baaf0c35b98ee7de82" target="_top" xlink:title="UBGraphicsItemUndoCommand\l::redo">
<polygon fill="white" stroke="black" points="165,-176 165,-210 323,-210 323,-176 165,-176"/>
<text text-anchor="start" x="173" y="-197" font-family="Helvetica,sans-Serif" font-size="10.00">UBGraphicsItemUndoCommand</text>
<text text-anchor="middle" x="244" y="-184" font-family="Helvetica,sans-Serif" font-size="10.00">::redo</text>
</a>
</g>
<!-- Node1&#45;&gt;Node3 -->
<g id="edge4" class="edge"><title>Node1&#45;&gt;Node3</title>
<path fill="none" stroke="midnightblue" d="M138.322,-193C147.022,-193 155.924,-193 164.689,-193"/>
<polygon fill="midnightblue" stroke="midnightblue" points="138.222,-189.5 128.222,-193 138.222,-196.5 138.222,-189.5"/>
</g>
<!-- Node4 -->
<g id="node7" class="node"><title>Node4</title>
<a xlink:href="../../dc/db2/class_u_b_graphics_scene.html#a6e861912547654e47c26f7d8e72201e8" target="_top" xlink:title="UBGraphicsScene::clearContent">
<polygon fill="white" stroke="black" points="164.5,-136.5 164.5,-157.5 323.5,-157.5 323.5,-136.5 164.5,-136.5"/>
<text text-anchor="middle" x="244" y="-144.5" font-family="Helvetica,sans-Serif" font-size="10.00">UBGraphicsScene::clearContent</text>
</a>
</g>
<!-- Node1&#45;&gt;Node4 -->
<g id="edge6" class="edge"><title>Node1&#45;&gt;Node4</title>
<path fill="none" stroke="midnightblue" d="M138.076,-173.657C146.811,-171.401 155.602,-169.142 164,-167 176.208,-163.887 189.476,-160.551 201.633,-157.513"/>
<polygon fill="midnightblue" stroke="midnightblue" points="137.065,-170.303 128.261,-176.197 138.819,-177.08 137.065,-170.303"/>
</g>
<!-- Node5 -->
<g id="node9" class="node"><title>Node5</title>
<a xlink:href="../../d7/d62/class_u_b_board_controller.html#aa05f3be4a1645d76f034f38269fc6cf0" target="_top" xlink:title="UBBoardController:\l:clearScene">
<polygon fill="white" stroke="black" points="387.5,-260 387.5,-294 488.5,-294 488.5,-260 387.5,-260"/>
<text text-anchor="start" x="395.5" y="-281" font-family="Helvetica,sans-Serif" font-size="10.00">UBBoardController:</text>
<text text-anchor="middle" x="438" y="-268" font-family="Helvetica,sans-Serif" font-size="10.00">:clearScene</text>
</a>
</g>
<!-- Node4&#45;&gt;Node5 -->
<g id="edge8" class="edge"><title>Node4&#45;&gt;Node5</title>
<path fill="none" stroke="midnightblue" d="M317.805,-162.4C319.971,-163.805 322.045,-165.335 324,-167 354.923,-193.335 330.11,-223.498 360,-251 367.668,-258.056 377.305,-263.201 387.165,-266.953"/>
<polygon fill="midnightblue" stroke="midnightblue" points="319.493,-159.334 309.045,-157.572 316.114,-165.464 319.493,-159.334"/>
</g>
<!-- Node11 -->
<g id="node21" class="node"><title>Node11</title>
<a xlink:href="../../d7/d62/class_u_b_board_controller.html#a3fe7c336f24feec07902020905386ca0" target="_top" xlink:title="UBBoardController:\l:clearSceneItems">
<polygon fill="white" stroke="black" points="387.5,-208 387.5,-242 488.5,-242 488.5,-208 387.5,-208"/>
<text text-anchor="start" x="395.5" y="-229" font-family="Helvetica,sans-Serif" font-size="10.00">UBBoardController:</text>
<text text-anchor="middle" x="438" y="-216" font-family="Helvetica,sans-Serif" font-size="10.00">:clearSceneItems</text>
</a>
</g>
<!-- Node4&#45;&gt;Node11 -->
<g id="edge20" class="edge"><title>Node4&#45;&gt;Node11</title>
<path fill="none" stroke="midnightblue" d="M310.495,-160.933C315.166,-162.724 319.715,-164.738 324,-167 342.93,-176.996 341.467,-188.285 360,-199 368.403,-203.858 377.845,-207.97 387.182,-211.389"/>
<polygon fill="midnightblue" stroke="midnightblue" points="311.381,-157.535 300.787,-157.56 309.084,-164.148 311.381,-157.535"/>
</g>
<!-- Node12 -->
<g id="node24" class="node"><title>Node12</title>
<a xlink:href="../../d7/d62/class_u_b_board_controller.html#ab47067d535d9086bd8e9e84176c02036" target="_top" xlink:title="UBBoardController:\l:clearSceneAnnotation">
<polygon fill="white" stroke="black" points="380.5,-156 380.5,-190 495.5,-190 495.5,-156 380.5,-156"/>
<text text-anchor="start" x="388.5" y="-177" font-family="Helvetica,sans-Serif" font-size="10.00">UBBoardController:</text>
<text text-anchor="middle" x="438" y="-164" font-family="Helvetica,sans-Serif" font-size="10.00">:clearSceneAnnotation</text>
</a>
</g>
<!-- Node4&#45;&gt;Node12 -->
<g id="edge24" class="edge"><title>Node4&#45;&gt;Node12</title>
<path fill="none" stroke="midnightblue" d="M332.4,-158.847C348.637,-161.024 365.199,-163.243 380.245,-165.26"/>
<polygon fill="midnightblue" stroke="midnightblue" points="332.724,-155.36 322.348,-157.5 331.794,-162.298 332.724,-155.36"/>
</g>
<!-- Node13 -->
<g id="node27" class="node"><title>Node13</title>
<a xlink:href="../../d7/d62/class_u_b_board_controller.html#a7c98cc515d722b671686bb6a77a89a3b" target="_top" xlink:title="UBBoardController:\l:clearSceneBackground">
<polygon fill="white" stroke="black" points="378,-104 378,-138 498,-138 498,-104 378,-104"/>
<text text-anchor="start" x="386" y="-125" font-family="Helvetica,sans-Serif" font-size="10.00">UBBoardController:</text>
<text text-anchor="middle" x="438" y="-112" font-family="Helvetica,sans-Serif" font-size="10.00">:clearSceneBackground</text>
</a>
</g>
<!-- Node4&#45;&gt;Node13 -->
<g id="edge28" class="edge"><title>Node4&#45;&gt;Node13</title>
<path fill="none" stroke="midnightblue" d="M332.4,-135.153C347.785,-133.091 363.461,-130.99 377.863,-129.06"/>
<polygon fill="midnightblue" stroke="midnightblue" points="331.794,-131.702 322.348,-136.5 332.724,-138.64 331.794,-131.702"/>
</g>
<!-- Node14 -->
<g id="node30" class="node"><title>Node14</title>
<a xlink:href="../../d7/db7/class_u_b_desktop_annotation_controller.html#a3e608bc4589b513671f8d0fc27b36dc4" target="_top" xlink:title="UBDesktopAnnotationController\l::eraseDesktopAnnotations">
<polygon fill="white" stroke="black" points="360,-52 360,-86 516,-86 516,-52 360,-52"/>
<text text-anchor="start" x="368" y="-73" font-family="Helvetica,sans-Serif" font-size="10.00">UBDesktopAnnotationController</text>
<text text-anchor="middle" x="438" y="-60" font-family="Helvetica,sans-Serif" font-size="10.00">::eraseDesktopAnnotations</text>
</a>
</g>
<!-- Node4&#45;&gt;Node14 -->
<g id="edge32" class="edge"><title>Node4&#45;&gt;Node14</title>
<path fill="none" stroke="midnightblue" d="M275.273,-131.961C298.417,-121.082 330.851,-106.359 360,-95 367.847,-91.9421 376.22,-88.9127 384.46,-86.0611"/>
<polygon fill="midnightblue" stroke="midnightblue" points="273.502,-128.926 265.96,-136.367 276.496,-135.254 273.502,-128.926"/>
</g>
<!-- Node16 -->
<g id="node34" class="node"><title>Node16</title>
<a xlink:href="../../d5/d2b/class_u_b_widget_uniboard_a_p_i.html#a4c4dd082d6ed9397e4658a41f78638f5" target="_top" xlink:title="UBWidgetUniboardAPI\l::clear">
<polygon fill="white" stroke="black" points="379.5,-0 379.5,-34 496.5,-34 496.5,-0 379.5,-0"/>
<text text-anchor="start" x="387.5" y="-21" font-family="Helvetica,sans-Serif" font-size="10.00">UBWidgetUniboardAPI</text>
<text text-anchor="middle" x="438" y="-8" font-family="Helvetica,sans-Serif" font-size="10.00">::clear</text>
</a>
</g>
<!-- Node4&#45;&gt;Node16 -->
<g id="edge36" class="edge"><title>Node4&#45;&gt;Node16</title>
<path fill="none" stroke="midnightblue" d="M259.994,-128.618C280.888,-105.638 319.592,-66.4771 360,-43 366.048,-39.4863 372.638,-36.3652 379.341,-33.615"/>
<polygon fill="midnightblue" stroke="midnightblue" points="257.188,-126.505 253.133,-136.293 262.407,-131.171 257.188,-126.505"/>
</g>
<!-- Node6 -->
<g id="node11" class="node"><title>Node6</title>
<a xlink:href="../../d7/d62/class_u_b_board_controller.html#a0292260502bb0cbe4bc3c83f3a3283bc" target="_top" xlink:title="UBBoardController:\l:connectToolbar">
<polygon fill="white" stroke="black" points="582.5,-182 582.5,-216 683.5,-216 683.5,-182 582.5,-182"/>
<text text-anchor="start" x="590.5" y="-203" font-family="Helvetica,sans-Serif" font-size="10.00">UBBoardController:</text>
<text text-anchor="middle" x="633" y="-190" font-family="Helvetica,sans-Serif" font-size="10.00">:connectToolbar</text>
</a>
</g>
<!-- Node5&#45;&gt;Node6 -->
<g id="edge10" class="edge"><title>Node5&#45;&gt;Node6</title>
<path fill="none" stroke="midnightblue" d="M498.121,-257.61C504.189,-255.459 510.236,-253.236 516,-251 543.563,-240.31 574.066,-226.692 597.015,-216.074"/>
<polygon fill="midnightblue" stroke="midnightblue" points="496.898,-254.33 488.605,-260.923 499.2,-260.941 496.898,-254.33"/>
</g>
<!-- Node7 -->
<g id="node13" class="node"><title>Node7</title>
<a xlink:href="../../d7/d62/class_u_b_board_controller.html#a6761e02604fb3aa8ecbfc5fd4a5d87f3" target="_top" xlink:title="UBBoardController:\l:setupToolbar">
<polygon fill="white" stroke="black" points="750.5,-182 750.5,-216 851.5,-216 851.5,-182 750.5,-182"/>
<text text-anchor="start" x="758.5" y="-203" font-family="Helvetica,sans-Serif" font-size="10.00">UBBoardController:</text>
<text text-anchor="middle" x="801" y="-190" font-family="Helvetica,sans-Serif" font-size="10.00">:setupToolbar</text>
</a>
</g>
<!-- Node6&#45;&gt;Node7 -->
<g id="edge12" class="edge"><title>Node6&#45;&gt;Node7</title>
<path fill="none" stroke="midnightblue" d="M693.947,-199C712.447,-199 732.563,-199 750.311,-199"/>
<polygon fill="midnightblue" stroke="midnightblue" points="693.861,-195.5 683.861,-199 693.861,-202.5 693.861,-195.5"/>
</g>
<!-- Node8 -->
<g id="node15" class="node"><title>Node8</title>
<a xlink:href="../../d7/d62/class_u_b_board_controller.html#aa728cb7c1b979b2d4ae45638a7386dde" target="_top" xlink:title="UBBoardController::init">
<polygon fill="white" stroke="black" points="888.5,-188.5 888.5,-209.5 1005.5,-209.5 1005.5,-188.5 888.5,-188.5"/>
<text text-anchor="middle" x="947" y="-196.5" font-family="Helvetica,sans-Serif" font-size="10.00">UBBoardController::init</text>
</a>
</g>
<!-- Node7&#45;&gt;Node8 -->
<g id="edge14" class="edge"><title>Node7&#45;&gt;Node8</title>
<path fill="none" stroke="midnightblue" d="M861.836,-199C870.631,-199 879.668,-199 888.418,-199"/>
<polygon fill="midnightblue" stroke="midnightblue" points="861.654,-195.5 851.654,-199 861.654,-202.5 861.654,-195.5"/>
</g>
<!-- Node9 -->
<g id="node17" class="node"><title>Node9</title>
<a xlink:href="../../d8/d81/class_u_b_application.html#add1469239e71bf24fdc61413a42a38bd" target="_top" xlink:title="UBApplication::exec">
<polygon fill="white" stroke="black" points="1042,-188.5 1042,-209.5 1148,-209.5 1148,-188.5 1042,-188.5"/>
<text text-anchor="middle" x="1095" y="-196.5" font-family="Helvetica,sans-Serif" font-size="10.00">UBApplication::exec</text>
</a>
</g>
<!-- Node8&#45;&gt;Node9 -->
<g id="edge16" class="edge"><title>Node8&#45;&gt;Node9</title>
<path fill="none" stroke="midnightblue" d="M1015.95,-199C1024.55,-199 1033.24,-199 1041.56,-199"/>
<polygon fill="midnightblue" stroke="midnightblue" points="1015.92,-195.5 1005.92,-199 1015.92,-202.5 1015.92,-195.5"/>
</g>
<!-- Node10 -->
<g id="node19" class="node"><title>Node10</title>
<a xlink:href="../../df/d0a/main_8cpp.html#a0ddf1224851353fc92bfbff6f499fa97" target="_top" xlink:title="main">
<polygon fill="white" stroke="black" points="1184,-188.5 1184,-209.5 1222,-209.5 1222,-188.5 1184,-188.5"/>
<text text-anchor="middle" x="1203" y="-196.5" font-family="Helvetica,sans-Serif" font-size="10.00">main</text>
</a>
</g>
<!-- Node9&#45;&gt;Node10 -->
<g id="edge18" class="edge"><title>Node9&#45;&gt;Node10</title>
<path fill="none" stroke="midnightblue" d="M1158.21,-199C1167.49,-199 1176.4,-199 1183.79,-199"/>
<polygon fill="midnightblue" stroke="midnightblue" points="1158.05,-195.5 1148.05,-199 1158.05,-202.5 1158.05,-195.5"/>
</g>
<!-- Node11&#45;&gt;Node6 -->
<g id="edge22" class="edge"><title>Node11&#45;&gt;Node6</title>
<path fill="none" stroke="midnightblue" d="M498.758,-216.899C525.543,-213.328 556.662,-209.178 582.191,-205.775"/>
<polygon fill="midnightblue" stroke="midnightblue" points="498.175,-213.446 488.725,-218.237 499.1,-220.384 498.175,-213.446"/>
</g>
<!-- Node12&#45;&gt;Node6 -->
<g id="edge26" class="edge"><title>Node12&#45;&gt;Node6</title>
<path fill="none" stroke="midnightblue" d="M505.915,-182.055C531.04,-185.405 559.061,-189.141 582.384,-192.251"/>
<polygon fill="midnightblue" stroke="midnightblue" points="506.09,-178.548 495.715,-180.695 505.165,-185.486 506.09,-178.548"/>
</g>
<!-- Node13&#45;&gt;Node6 -->
<g id="edge30" class="edge"><title>Node13&#45;&gt;Node6</title>
<path fill="none" stroke="midnightblue" d="M501.211,-141.492C506.236,-143.297 511.215,-145.144 516,-147 543.563,-157.69 574.066,-171.308 597.015,-181.926"/>
<polygon fill="midnightblue" stroke="midnightblue" points="502.126,-138.104 491.531,-138.083 499.801,-144.706 502.126,-138.104"/>
</g>
<!-- Node15 -->
<g id="node32" class="node"><title>Node15</title>
<a xlink:href="../../d7/db7/class_u_b_desktop_annotation_controller.html#a1e31fa6fa39f439312757baadcaae17a" target="_top" xlink:title="UBDesktopAnnotationController\l::UBDesktopAnnotationController">
<polygon fill="white" stroke="black" points="552,-52 552,-86 714,-86 714,-52 552,-52"/>
<text text-anchor="start" x="560" y="-73" font-family="Helvetica,sans-Serif" font-size="10.00">UBDesktopAnnotationController</text>
<text text-anchor="middle" x="633" y="-60" font-family="Helvetica,sans-Serif" font-size="10.00">::UBDesktopAnnotationController</text>
</a>
</g>
<!-- Node14&#45;&gt;Node15 -->
<g id="edge34" class="edge"><title>Node14&#45;&gt;Node15</title>
<path fill="none" stroke="midnightblue" d="M526.191,-69C534.761,-69 543.428,-69 551.924,-69"/>
<polygon fill="midnightblue" stroke="midnightblue" points="526.19,-65.5001 516.19,-69 526.19,-72.5001 526.19,-65.5001"/>
</g>
</g>
</svg>
