<?xml version="1.0" encoding="UTF-8" standalone="no"?>
<!DOCTYPE svg PUBLIC "-//W3C//DTD SVG 1.1//EN"
 "http://www.w3.org/Graphics/SVG/1.1/DTD/svg11.dtd">
<!-- Generated by graphviz version 2.26.3 (20100126.1600)
 -->
<!-- Title: Sankore&#45;3.1/src/api/UBWidgetUniboardAPI.h Pages: 1 -->
<svg width="1016pt" height="218pt"
 viewBox="0.00 0.00 1016.00 218.00" xmlns="http://www.w3.org/2000/svg" xmlns:xlink="http://www.w3.org/1999/xlink">
<g id="graph1" class="graph" transform="scale(1 1) rotate(0) translate(4 214)">
<title>Sankore&#45;3.1/src/api/UBWidgetUniboardAPI.h</title>
<polygon fill="white" stroke="white" points="-4,5 -4,-214 1013,-214 1013,5 -4,5"/>
<!-- Node1 -->
<g id="node1" class="node"><title>Node1</title>
<polygon fill="#bfbfbf" stroke="black" points="194,-175 194,-209 322,-209 322,-175 194,-175"/>
<text text-anchor="start" x="202" y="-196" font-family="Helvetica,sans-Serif" font-size="10.00">Sankore&#45;3.1/src/api</text>
<text text-anchor="middle" x="258" y="-183" font-family="Helvetica,sans-Serif" font-size="10.00">/UBWidgetUniboardAPI.h</text>
</g>
<!-- Node2 -->
<g id="node3" class="node"><title>Node2</title>
<polygon fill="white" stroke="#bfbfbf" points="288,-0.5 288,-21.5 336,-21.5 336,-0.5 288,-0.5"/>
<text text-anchor="middle" x="312" y="-8.5" font-family="Helvetica,sans-Serif" font-size="10.00">QtCore</text>
</g>
<!-- Node1&#45;&gt;Node2 -->
<g id="edge2" class="edge"><title>Node1&#45;&gt;Node2</title>
<path fill="none" stroke="midnightblue" d="M272.056,-174.552C279.461,-164.453 288.018,-151.165 293,-138 306.541,-102.219 310.466,-57.3412 311.582,-31.6406"/>
<polygon fill="midnightblue" stroke="midnightblue" points="315.082,-31.6928 311.915,-21.5824 308.086,-31.4611 315.082,-31.6928"/>
</g>
<!-- Node3 -->
<g id="node5" class="node"><title>Node3</title>
<polygon fill="white" stroke="#bfbfbf" points="126,-116.5 126,-137.5 284,-137.5 284,-116.5 126,-116.5"/>
<text text-anchor="middle" x="205" y="-124.5" font-family="Helvetica,sans-Serif" font-size="10.00">QGraphicsSceneDragDropEvent</text>
</g>
<!-- Node1&#45;&gt;Node3 -->
<g id="edge4" class="edge"><title>Node1&#45;&gt;Node3</title>
<path fill="none" stroke="midnightblue" d="M244.075,-174.922C236.749,-165.937 227.753,-154.905 220.241,-145.691"/>
<polygon fill="midnightblue" stroke="midnightblue" points="222.881,-143.391 213.849,-137.852 217.455,-147.814 222.881,-143.391"/>
</g>
<!-- Node4 -->
<g id="node7" class="node"><title>Node4</title>
<a xlink:href="../../da/d32/_u_b_w3_c_widget_a_p_i_8h.html" target="_top" xlink:title="UBW3CWidgetAPI.h">
<polygon fill="white" stroke="black" points="-0.5,-116.5 -0.5,-137.5 108.5,-137.5 108.5,-116.5 -0.5,-116.5"/>
<text text-anchor="middle" x="54" y="-124.5" font-family="Helvetica,sans-Serif" font-size="10.00">UBW3CWidgetAPI.h</text>
</a>
</g>
<!-- Node1&#45;&gt;Node4 -->
<g id="edge6" class="edge"><title>Node1&#45;&gt;Node4</title>
<path fill="none" stroke="midnightblue" d="M204.401,-174.922C170.847,-164.231 128.195,-150.641 96.8884,-140.665"/>
<polygon fill="midnightblue" stroke="midnightblue" points="97.739,-137.263 87.1484,-137.562 95.6138,-143.933 97.739,-137.263"/>
</g>
<!-- Node5 -->
<g id="node10" class="node"><title>Node5</title>
<a xlink:href="../../d6/d34/_u_b_download_manager_8h.html" target="_top" xlink:title="core/UBDownloadManager.h">
<polygon fill="white" stroke="black" points="503,-116.5 503,-137.5 645,-137.5 645,-116.5 503,-116.5"/>
<text text-anchor="middle" x="574" y="-124.5" font-family="Helvetica,sans-Serif" font-size="10.00">core/UBDownloadManager.h</text>
</a>
</g>
<!-- Node1&#45;&gt;Node5 -->
<g id="edge10" class="edge"><title>Node1&#45;&gt;Node5</title>
<path fill="none" stroke="midnightblue" d="M322.328,-178.768C378.05,-167.306 458.098,-150.841 512.864,-139.575"/>
<polygon fill="midnightblue" stroke="midnightblue" points="513.695,-142.978 522.784,-137.535 512.284,-136.121 513.695,-142.978"/>
</g>
<!-- Node4&#45;&gt;Node2 -->
<g id="edge8" class="edge"><title>Node4&#45;&gt;Node2</title>
<path fill="none" stroke="midnightblue" d="M77.8096,-116.295C124.197,-95.4385 226.735,-49.336 279.393,-25.6603"/>
<polygon fill="midnightblue" stroke="midnightblue" points="280.935,-28.8046 288.621,-21.5117 278.065,-22.4202 280.935,-28.8046"/>
</g>
<!-- Node6 -->
<g id="node12" class="node"><title>Node6</title>
<polygon fill="white" stroke="#bfbfbf" points="773.5,-58.5 773.5,-79.5 826.5,-79.5 826.5,-58.5 773.5,-58.5"/>
<text text-anchor="middle" x="800" y="-66.5" font-family="Helvetica,sans-Serif" font-size="10.00">QObject</text>
</g>
<!-- Node5&#45;&gt;Node6 -->
<g id="edge12" class="edge"><title>Node5&#45;&gt;Node6</title>
<path fill="none" stroke="midnightblue" d="M620.529,-116.419C657.139,-107.897 709.639,-95.2476 763.572,-80.2998"/>
<polygon fill="midnightblue" stroke="midnightblue" points="764.609,-83.6441 773.299,-77.5828 762.726,-76.9022 764.609,-83.6441"/>
</g>
<!-- Node7 -->
<g id="node14" class="node"><title>Node7</title>
<polygon fill="white" stroke="#bfbfbf" points="844,-58.5 844,-79.5 894,-79.5 894,-58.5 844,-58.5"/>
<text text-anchor="middle" x="869" y="-66.5" font-family="Helvetica,sans-Serif" font-size="10.00">QString</text>
</g>
<!-- Node5&#45;&gt;Node7 -->
<g id="edge14" class="edge"><title>Node5&#45;&gt;Node7</title>
<path fill="none" stroke="midnightblue" d="M645.169,-116.837C695.585,-109.027 764.908,-97.0552 834.098,-79.9928"/>
<polygon fill="midnightblue" stroke="midnightblue" points="835.007,-83.3734 843.859,-77.5513 833.308,-76.5827 835.007,-83.3734"/>
</g>
<!-- Node8 -->
<g id="node16" class="node"><title>Node8</title>
<polygon fill="white" stroke="#bfbfbf" points="339.5,-58.5 339.5,-79.5 392.5,-79.5 392.5,-58.5 339.5,-58.5"/>
<text text-anchor="middle" x="366" y="-66.5" font-family="Helvetica,sans-Serif" font-size="10.00">QVector</text>
</g>
<!-- Node5&#45;&gt;Node8 -->
<g id="edge16" class="edge"><title>Node5&#45;&gt;Node8</title>
<path fill="none" stroke="midnightblue" d="M533.326,-116.432C500.315,-107.747 452.347,-94.8839 402.399,-80.3471"/>
<polygon fill="midnightblue" stroke="midnightblue" points="403.301,-76.9644 392.72,-77.5163 401.335,-83.6829 403.301,-76.9644"/>
</g>
<!-- Node9 -->
<g id="node18" class="node"><title>Node9</title>
<polygon fill="white" stroke="#bfbfbf" points="409.5,-58.5 409.5,-79.5 460.5,-79.5 460.5,-58.5 409.5,-58.5"/>
<text text-anchor="middle" x="435" y="-66.5" font-family="Helvetica,sans-Serif" font-size="10.00">QMutex</text>
</g>
<!-- Node5&#45;&gt;Node9 -->
<g id="edge18" class="edge"><title>Node5&#45;&gt;Node9</title>
<path fill="none" stroke="midnightblue" d="M548.828,-116.497C526.727,-107.275 494.361,-93.7695 469.787,-83.5153"/>
<polygon fill="midnightblue" stroke="midnightblue" points="471.031,-80.2421 460.454,-79.6212 468.335,-86.7022 471.031,-80.2421"/>
</g>
<!-- Node10 -->
<g id="node20" class="node"><title>Node10</title>
<polygon fill="white" stroke="#bfbfbf" points="497.5,-0.5 497.5,-21.5 568.5,-21.5 568.5,-0.5 497.5,-0.5"/>
<text text-anchor="middle" x="533" y="-8.5" font-family="Helvetica,sans-Serif" font-size="10.00">QDropEvent</text>
</g>
<!-- Node5&#45;&gt;Node10 -->
<g id="edge20" class="edge"><title>Node5&#45;&gt;Node10</title>
<path fill="none" stroke="midnightblue" d="M582.622,-116.331C592.733,-102.434 606.925,-77.6019 597,-58 590.285,-44.7384 577.873,-34.3101 565.754,-26.681"/>
<polygon fill="midnightblue" stroke="midnightblue" points="567.469,-23.6297 557.066,-21.6202 563.945,-29.6782 567.469,-23.6297"/>
</g>
<!-- Node11 -->
<g id="node22" class="node"><title>Node11</title>
<a xlink:href="../../d6/d9a/_u_b_download_thread_8h.html" target="_top" xlink:title="UBDownloadThread.h">
<polygon fill="white" stroke="black" points="643.5,-58.5 643.5,-79.5 756.5,-79.5 756.5,-58.5 643.5,-58.5"/>
<text text-anchor="middle" x="700" y="-66.5" font-family="Helvetica,sans-Serif" font-size="10.00">UBDownloadThread.h</text>
</a>
</g>
<!-- Node5&#45;&gt;Node11 -->
<g id="edge22" class="edge"><title>Node5&#45;&gt;Node11</title>
<path fill="none" stroke="midnightblue" d="M596.818,-116.497C616.586,-107.397 645.413,-94.1273 667.576,-83.9253"/>
<polygon fill="midnightblue" stroke="midnightblue" points="669.306,-86.982 676.926,-79.6212 666.379,-80.6234 669.306,-86.982"/>
</g>
<!-- Node16 -->
<g id="node32" class="node"><title>Node16</title>
<a xlink:href="../../d6/d2f/_u_b_http_get_8h.html" target="_top" xlink:title="network/UBHttpGet.h">
<polygon fill="white" stroke="black" points="477.5,-58.5 477.5,-79.5 588.5,-79.5 588.5,-58.5 477.5,-58.5"/>
<text text-anchor="middle" x="533" y="-66.5" font-family="Helvetica,sans-Serif" font-size="10.00">network/UBHttpGet.h</text>
</a>
</g>
<!-- Node5&#45;&gt;Node16 -->
<g id="edge32" class="edge"><title>Node5&#45;&gt;Node16</title>
<path fill="none" stroke="midnightblue" d="M566.48,-116.362C560.874,-108.431 553.068,-97.3885 546.403,-87.9606"/>
<polygon fill="midnightblue" stroke="midnightblue" points="549.103,-85.7161 540.472,-79.5707 543.387,-89.7568 549.103,-85.7161"/>
</g>
<!-- Node12 -->
<g id="node24" class="node"><title>Node12</title>
<polygon fill="white" stroke="#bfbfbf" points="690,-0.5 690,-21.5 744,-21.5 744,-0.5 690,-0.5"/>
<text text-anchor="middle" x="717" y="-8.5" font-family="Helvetica,sans-Serif" font-size="10.00">QThread</text>
</g>
<!-- Node11&#45;&gt;Node12 -->
<g id="edge24" class="edge"><title>Node11&#45;&gt;Node12</title>
<path fill="none" stroke="midnightblue" d="M703.118,-58.3619C705.323,-50.8401 708.348,-40.5187 711.012,-31.4308"/>
<polygon fill="midnightblue" stroke="midnightblue" points="714.448,-32.1514 713.902,-21.5707 707.73,-30.1825 714.448,-32.1514"/>
</g>
<!-- Node13 -->
<g id="node26" class="node"><title>Node13</title>
<polygon fill="white" stroke="#bfbfbf" points="761.5,-0.5 761.5,-21.5 892.5,-21.5 892.5,-0.5 761.5,-0.5"/>
<text text-anchor="middle" x="827" y="-8.5" font-family="Helvetica,sans-Serif" font-size="10.00">QNetworkAccessManager</text>
</g>
<!-- Node11&#45;&gt;Node13 -->
<g id="edge26" class="edge"><title>Node11&#45;&gt;Node13</title>
<path fill="none" stroke="midnightblue" d="M722.999,-58.4966C743.013,-49.3562 772.241,-36.0082 794.619,-25.7883"/>
<polygon fill="midnightblue" stroke="midnightblue" points="796.101,-28.9592 803.743,-21.6212 793.193,-22.5918 796.101,-28.9592"/>
</g>
<!-- Node14 -->
<g id="node28" class="node"><title>Node14</title>
<polygon fill="white" stroke="#bfbfbf" points="910,-0.5 910,-21.5 1008,-21.5 1008,-0.5 910,-0.5"/>
<text text-anchor="middle" x="959" y="-8.5" font-family="Helvetica,sans-Serif" font-size="10.00">QNetworkRequest</text>
</g>
<!-- Node11&#45;&gt;Node14 -->
<g id="edge28" class="edge"><title>Node11&#45;&gt;Node14</title>
<path fill="none" stroke="midnightblue" d="M746.903,-58.4966C790.498,-48.7341 855.526,-34.1718 902.076,-23.7474"/>
<polygon fill="midnightblue" stroke="midnightblue" points="903.016,-27.1238 912.009,-21.5231 901.486,-20.293 903.016,-27.1238"/>
</g>
<!-- Node15 -->
<g id="node30" class="node"><title>Node15</title>
<polygon fill="white" stroke="#bfbfbf" points="586,-0.5 586,-21.5 672,-21.5 672,-0.5 586,-0.5"/>
<text text-anchor="middle" x="629" y="-8.5" font-family="Helvetica,sans-Serif" font-size="10.00">QNetworkReply</text>
</g>
<!-- Node11&#45;&gt;Node15 -->
<g id="edge30" class="edge"><title>Node11&#45;&gt;Node15</title>
<path fill="none" stroke="midnightblue" d="M686.978,-58.3619C676.569,-49.859 661.781,-37.7785 649.745,-27.9466"/>
<polygon fill="midnightblue" stroke="midnightblue" points="651.899,-25.1866 641.94,-21.5707 647.47,-30.6077 651.899,-25.1866"/>
</g>
<!-- Node16&#45;&gt;Node2 -->
<g id="edge34" class="edge"><title>Node16&#45;&gt;Node2</title>
<path fill="none" stroke="midnightblue" d="M492.979,-58.4966C450.87,-47.4454 385.325,-30.2438 345.745,-19.8562"/>
<polygon fill="midnightblue" stroke="midnightblue" points="346.593,-16.4602 336.032,-17.307 344.816,-23.2309 346.593,-16.4602"/>
</g>
<!-- Node16&#45;&gt;Node10 -->
<g id="edge38" class="edge"><title>Node16&#45;&gt;Node10</title>
<path fill="none" stroke="midnightblue" d="M533,-58.3619C533,-50.9219 533,-40.7427 533,-31.7276"/>
<polygon fill="midnightblue" stroke="midnightblue" points="536.5,-31.5706 533,-21.5707 529.5,-31.5707 536.5,-31.5706"/>
</g>
<!-- Node17 -->
<g id="node35" class="node"><title>Node17</title>
<polygon fill="white" stroke="#bfbfbf" points="416,-0.5 416,-21.5 480,-21.5 480,-0.5 416,-0.5"/>
<text text-anchor="middle" x="448" y="-8.5" font-family="Helvetica,sans-Serif" font-size="10.00">QtNetwork</text>
</g>
<!-- Node16&#45;&gt;Node17 -->
<g id="edge36" class="edge"><title>Node16&#45;&gt;Node17</title>
<path fill="none" stroke="midnightblue" d="M517.41,-58.3619C504.709,-49.6955 486.562,-37.3126 472.008,-27.3819"/>
<polygon fill="midnightblue" stroke="midnightblue" points="473.724,-24.316 463.491,-21.5707 469.779,-30.0982 473.724,-24.316"/>
</g>
</g>
</svg>
