<?xml version="1.0" encoding="UTF-8" standalone="no"?>
<!DOCTYPE svg PUBLIC "-//W3C//DTD SVG 1.1//EN"
 "http://www.w3.org/Graphics/SVG/1.1/DTD/svg11.dtd">
<!-- Generated by graphviz version 2.26.3 (20100126.1600)
 -->
<!-- Title: UBWaveRecorder::init Pages: 1 -->
<svg width="726pt" height="134pt"
 viewBox="0.00 0.00 726.00 134.00" xmlns="http://www.w3.org/2000/svg" xmlns:xlink="http://www.w3.org/1999/xlink">
<g id="graph1" class="graph" transform="scale(1 1) rotate(0) translate(4 130)">
<title>UBWaveRecorder::init</title>
<polygon fill="white" stroke="white" points="-4,5 -4,-130 723,-130 723,5 -4,5"/>
<!-- Node1 -->
<g id="node1" class="node"><title>Node1</title>
<polygon fill="#bfbfbf" stroke="black" points="0.5,-33.5 0.5,-54.5 115.5,-54.5 115.5,-33.5 0.5,-33.5"/>
<text text-anchor="middle" x="58" y="-41.5" font-family="Helvetica,sans-Serif" font-size="10.00">UBWaveRecorder::init</text>
</g>
<!-- Node2 -->
<g id="node3" class="node"><title>Node2</title>
<a xlink:href="../../d3/d73/class_u_b_wave_recorder.html#ab2761c0b676e24cffb2ab6bdad9066cf" target="_top" xlink:title="UBWaveRecorder::waveInProc">
<polygon fill="white" stroke="black" points="152,-54.5 152,-75.5 306,-75.5 306,-54.5 152,-54.5"/>
<text text-anchor="middle" x="229" y="-62.5" font-family="Helvetica,sans-Serif" font-size="10.00">UBWaveRecorder::waveInProc</text>
</a>
</g>
<!-- Node1&#45;&gt;Node2 -->
<g id="edge2" class="edge"><title>Node1&#45;&gt;Node2</title>
<path fill="none" stroke="midnightblue" d="M115.893,-51.1096C124.18,-52.1274 132.855,-53.1927 141.557,-54.2613"/>
<polygon fill="midnightblue" stroke="midnightblue" points="141.41,-57.7696 151.762,-55.5147 142.264,-50.8218 141.41,-57.7696"/>
</g>
<!-- Node6 -->
<g id="node11" class="node"><title>Node6</title>
<a xlink:href="../../d3/d73/class_u_b_wave_recorder.html#a1b40b030701a293fcb7f7e3c5229d311" target="_top" xlink:title="UBWaveRecorder::setLastError\lMessage">
<polygon fill="white" stroke="black" points="348.5,-0 348.5,-34 503.5,-34 503.5,-0 348.5,-0"/>
<text text-anchor="start" x="356.5" y="-21" font-family="Helvetica,sans-Serif" font-size="10.00">UBWaveRecorder::setLastError</text>
<text text-anchor="middle" x="426" y="-8" font-family="Helvetica,sans-Serif" font-size="10.00">Message</text>
</a>
</g>
<!-- Node1&#45;&gt;Node6 -->
<g id="edge12" class="edge"><title>Node1&#45;&gt;Node6</title>
<path fill="none" stroke="midnightblue" d="M115.905,-39.7515C175.492,-35.3797 269.073,-28.5136 337.858,-23.4669"/>
<polygon fill="midnightblue" stroke="midnightblue" points="338.53,-26.9271 348.247,-22.7047 338.018,-19.9459 338.53,-26.9271"/>
</g>
<!-- Node3 -->
<g id="node5" class="node"><title>Node3</title>
<a xlink:href="../../d3/d73/class_u_b_wave_recorder.html#a156eb0b9e6845214d6bd46829a8f3aa2" target="_top" xlink:title="UBWaveRecorder::isRecording">
<polygon fill="white" stroke="black" points="349,-104.5 349,-125.5 503,-125.5 503,-104.5 349,-104.5"/>
<text text-anchor="middle" x="426" y="-112.5" font-family="Helvetica,sans-Serif" font-size="10.00">UBWaveRecorder::isRecording</text>
</a>
</g>
<!-- Node2&#45;&gt;Node3 -->
<g id="edge4" class="edge"><title>Node2&#45;&gt;Node3</title>
<path fill="none" stroke="midnightblue" d="M267.637,-75.5213C289.437,-81.3914 317.199,-88.7564 342,-95 351.279,-97.3359 361.153,-99.7503 370.748,-102.059"/>
<polygon fill="midnightblue" stroke="midnightblue" points="370.07,-105.495 380.61,-104.419 371.699,-98.6875 370.07,-105.495"/>
</g>
<!-- Node4 -->
<g id="node7" class="node"><title>Node4</title>
<a xlink:href="../../d3/d73/class_u_b_wave_recorder.html#a0d79f55f2b1403e0a2dc3dd495bc2fb4" target="_top" xlink:title="UBWaveRecorder::emitNewWave\lBuffer">
<polygon fill="white" stroke="black" points="342.5,-52 342.5,-86 509.5,-86 509.5,-52 342.5,-52"/>
<text text-anchor="start" x="350.5" y="-73" font-family="Helvetica,sans-Serif" font-size="10.00">UBWaveRecorder::emitNewWave</text>
<text text-anchor="middle" x="426" y="-60" font-family="Helvetica,sans-Serif" font-size="10.00">Buffer</text>
</a>
</g>
<!-- Node2&#45;&gt;Node4 -->
<g id="edge6" class="edge"><title>Node2&#45;&gt;Node4</title>
<path fill="none" stroke="midnightblue" d="M306.012,-66.5637C314.544,-66.7369 323.302,-66.9148 332.013,-67.0916"/>
<polygon fill="midnightblue" stroke="midnightblue" points="332.132,-70.5947 342.201,-67.2985 332.274,-63.5961 332.132,-70.5947"/>
</g>
<!-- Node2&#45;&gt;Node6 -->
<g id="edge10" class="edge"><title>Node2&#45;&gt;Node6</title>
<path fill="none" stroke="midnightblue" d="M272.232,-54.4662C293.93,-49.1795 320.918,-42.6038 346.199,-36.4438"/>
<polygon fill="midnightblue" stroke="midnightblue" points="347.273,-39.7846 356.161,-34.0167 345.616,-32.9835 347.273,-39.7846"/>
</g>
<!-- Node5 -->
<g id="node9" class="node"><title>Node5</title>
<a xlink:href="../../d3/d73/class_u_b_wave_recorder.html#a4a856b9f77365a638191857455046bf7" target="_top" xlink:title="UBWaveRecorder::newWaveBuffer">
<polygon fill="white" stroke="black" points="546,-58.5 546,-79.5 718,-79.5 718,-58.5 546,-58.5"/>
<text text-anchor="middle" x="632" y="-66.5" font-family="Helvetica,sans-Serif" font-size="10.00">UBWaveRecorder::newWaveBuffer</text>
</a>
</g>
<!-- Node4&#45;&gt;Node5 -->
<g id="edge8" class="edge"><title>Node4&#45;&gt;Node5</title>
<path fill="none" stroke="midnightblue" d="M509.788,-69C518.355,-69 527.105,-69 535.791,-69"/>
<polygon fill="midnightblue" stroke="midnightblue" points="535.943,-72.5001 545.943,-69 535.943,-65.5001 535.943,-72.5001"/>
</g>
</g>
</svg>
