<?xml version="1.0" encoding="UTF-8" standalone="no"?>
<!DOCTYPE svg PUBLIC "-//W3C//DTD SVG 1.1//EN"
 "http://www.w3.org/Graphics/SVG/1.1/DTD/svg11.dtd">
<!-- Generated by graphviz version 2.26.3 (20100126.1600)
 -->
<!-- Title: WBTabWidget::loadUrlInCurrentTab Pages: 1 -->
<svg width="1162pt" height="179pt"
 viewBox="0.00 0.00 1162.00 178.83" xmlns="http://www.w3.org/2000/svg" xmlns:xlink="http://www.w3.org/1999/xlink">
<g id="graph1" class="graph" transform="scale(1 1) rotate(0) translate(4 174.828)">
<title>WBTabWidget::loadUrlInCurrentTab</title>
<polygon fill="white" stroke="white" points="-4,5 -4,-174.828 1159,-174.828 1159,5 -4,5"/>
<!-- Node1 -->
<g id="node1" class="node"><title>Node1</title>
<polygon fill="#bfbfbf" stroke="black" points="0,-72.7903 0,-93.7903 174,-93.7903 174,-72.7903 0,-72.7903"/>
<text text-anchor="middle" x="87" y="-80.7903" font-family="Helvetica,sans-Serif" font-size="10.00">WBTabWidget::loadUrlInCurrentTab</text>
</g>
<!-- Node2 -->
<g id="node3" class="node"><title>Node2</title>
<a xlink:href="../../d4/d1c/class_w_b_browser_window.html#af1feb1efb3072427b2bf17c16d975bd7" target="_top" xlink:title="WBBrowserWindow::loadUrl">
<polygon fill="white" stroke="black" points="212.5,-100.79 212.5,-121.79 353.5,-121.79 353.5,-100.79 212.5,-100.79"/>
<text text-anchor="middle" x="283" y="-108.79" font-family="Helvetica,sans-Serif" font-size="10.00">WBBrowserWindow::loadUrl</text>
</a>
</g>
<!-- Node1&#45;&gt;Node2 -->
<g id="edge2" class="edge"><title>Node1&#45;&gt;Node2</title>
<path fill="none" stroke="midnightblue" d="M170.573,-95.2292C184.468,-97.2143 198.759,-99.2559 212.296,-101.19"/>
<polygon fill="midnightblue" stroke="midnightblue" points="170.935,-91.7456 160.541,-93.7961 169.945,-98.6752 170.935,-91.7456"/>
</g>
<!-- Node10 -->
<g id="node23" class="node"><title>Node10</title>
<a xlink:href="../../de/dc7/class_w_b_tab_widget.html#ac13e3480eb515ce4e64814001ea0059f" target="_top" xlink:title="WBTabWidget::aboutToShow\lRecentTriggeredAction">
<polygon fill="white" stroke="black" points="210,-38.2903 210,-72.2903 356,-72.2903 356,-38.2903 210,-38.2903"/>
<text text-anchor="start" x="218" y="-59.2903" font-family="Helvetica,sans-Serif" font-size="10.00">WBTabWidget::aboutToShow</text>
<text text-anchor="middle" x="283" y="-46.2903" font-family="Helvetica,sans-Serif" font-size="10.00">RecentTriggeredAction</text>
</a>
</g>
<!-- Node1&#45;&gt;Node10 -->
<g id="edge26" class="edge"><title>Node1&#45;&gt;Node10</title>
<path fill="none" stroke="midnightblue" d="M170.822,-71.3157C183.753,-69.4684 197.021,-67.573 209.699,-65.7619"/>
<polygon fill="midnightblue" stroke="midnightblue" points="169.945,-67.9053 160.541,-72.7844 170.935,-74.835 169.945,-67.9053"/>
</g>
<!-- Node3 -->
<g id="node5" class="node"><title>Node3</title>
<a xlink:href="../../d4/d1c/class_w_b_browser_window.html#aa3a0cae69350d9f5c42b1a4a541bef05" target="_top" xlink:title="WBBrowserWindow::setupToolBar">
<polygon fill="white" stroke="black" points="786,-76.7903 786,-97.7903 954,-97.7903 954,-76.7903 786,-76.7903"/>
<text text-anchor="middle" x="870" y="-84.7903" font-family="Helvetica,sans-Serif" font-size="10.00">WBBrowserWindow::setupToolBar</text>
</a>
</g>
<!-- Node2&#45;&gt;Node3 -->
<g id="edge4" class="edge"><title>Node2&#45;&gt;Node3</title>
<path fill="none" stroke="midnightblue" d="M317.042,-125.651C338.193,-133.783 366.181,-143.137 392,-147.29 549.092,-172.561 595.145,-183.847 750,-147.29 790.351,-137.765 832.604,-112.478 854.606,-97.9533"/>
<polygon fill="midnightblue" stroke="midnightblue" points="318.131,-122.318 307.544,-121.905 315.562,-128.83 318.131,-122.318"/>
</g>
<!-- Node5 -->
<g id="node9" class="node"><title>Node5</title>
<a xlink:href="../../d4/d1c/class_w_b_browser_window.html#af69e6d75a7cab843ebf8fc1bbdce0e89" target="_top" xlink:title="WBBrowserWindow::loadUrl\lInNewTab">
<polygon fill="white" stroke="black" points="397.5,-104.29 397.5,-138.29 538.5,-138.29 538.5,-104.29 397.5,-104.29"/>
<text text-anchor="start" x="405.5" y="-125.29" font-family="Helvetica,sans-Serif" font-size="10.00">WBBrowserWindow::loadUrl</text>
<text text-anchor="middle" x="468" y="-112.29" font-family="Helvetica,sans-Serif" font-size="10.00">InNewTab</text>
</a>
</g>
<!-- Node2&#45;&gt;Node5 -->
<g id="edge8" class="edge"><title>Node2&#45;&gt;Node5</title>
<path fill="none" stroke="midnightblue" d="M363.876,-115.662C375.011,-116.264 386.374,-116.878 397.307,-117.469"/>
<polygon fill="midnightblue" stroke="midnightblue" points="363.907,-112.159 353.732,-115.114 363.529,-119.148 363.907,-112.159"/>
</g>
<!-- Node6 -->
<g id="node11" class="node"><title>Node6</title>
<a xlink:href="../../d4/d1c/class_w_b_browser_window.html#a78dc4fc8da7fdc428adfc652823fe67a" target="_top" xlink:title="WBBrowserWindow::loadPage">
<polygon fill="white" stroke="black" points="392.5,-64.7903 392.5,-85.7903 543.5,-85.7903 543.5,-64.7903 392.5,-64.7903"/>
<text text-anchor="middle" x="468" y="-72.7903" font-family="Helvetica,sans-Serif" font-size="10.00">WBBrowserWindow::loadPage</text>
</a>
</g>
<!-- Node2&#45;&gt;Node6 -->
<g id="edge10" class="edge"><title>Node2&#45;&gt;Node6</title>
<path fill="none" stroke="midnightblue" d="M346.86,-98.8635C368.709,-94.6117 392.925,-89.8995 413.926,-85.8128"/>
<polygon fill="midnightblue" stroke="midnightblue" points="346.154,-95.4351 337.007,-100.781 347.491,-102.306 346.154,-95.4351"/>
</g>
<!-- Node4 -->
<g id="node7" class="node"><title>Node4</title>
<a xlink:href="../../d4/d1c/class_w_b_browser_window.html#a3598ae963d79363f3c23455d1e1ccc08" target="_top" xlink:title="WBBrowserWindow::WBBrowser\lWindow">
<polygon fill="white" stroke="black" points="990.5,-30.2903 990.5,-64.2903 1153.5,-64.2903 1153.5,-30.2903 990.5,-30.2903"/>
<text text-anchor="start" x="998.5" y="-51.2903" font-family="Helvetica,sans-Serif" font-size="10.00">WBBrowserWindow::WBBrowser</text>
<text text-anchor="middle" x="1072" y="-38.2903" font-family="Helvetica,sans-Serif" font-size="10.00">Window</text>
</a>
</g>
<!-- Node3&#45;&gt;Node4 -->
<g id="edge6" class="edge"><title>Node3&#45;&gt;Node4</title>
<path fill="none" stroke="midnightblue" d="M932.951,-74.8246C951.122,-71.2266 971.216,-67.2475 990.348,-63.4589"/>
<polygon fill="midnightblue" stroke="midnightblue" points="932.203,-71.4049 923.073,-76.7807 933.563,-78.2715 932.203,-71.4049"/>
</g>
<!-- Node6&#45;&gt;Node4 -->
<g id="edge12" class="edge"><title>Node6&#45;&gt;Node4</title>
<path fill="none" stroke="midnightblue" d="M529.45,-61.4488C534.467,-59.6209 539.379,-57.5749 544,-55.2903 562.17,-46.3064 560.827,-33.8686 580,-27.2903 726.357,22.9258 911.703,-7.86463 1007.74,-30.216"/>
<polygon fill="midnightblue" stroke="midnightblue" points="528.096,-58.2108 519.722,-64.7006 530.316,-64.8497 528.096,-58.2108"/>
</g>
<!-- Node7 -->
<g id="node14" class="node"><title>Node7</title>
<a xlink:href="../../d4/d1c/class_w_b_browser_window.html#a9ba2fa09219bcac87ce5f71709e1011d" target="_top" xlink:title="WBBrowserWindow::slotHome">
<polygon fill="white" stroke="black" points="589,-116.79 589,-137.79 741,-137.79 741,-116.79 589,-116.79"/>
<text text-anchor="middle" x="665" y="-124.79" font-family="Helvetica,sans-Serif" font-size="10.00">WBBrowserWindow::slotHome</text>
</a>
</g>
<!-- Node6&#45;&gt;Node7 -->
<g id="edge14" class="edge"><title>Node6&#45;&gt;Node7</title>
<path fill="none" stroke="midnightblue" d="M519.751,-88.4304C527.89,-90.6347 536.191,-92.964 544,-95.2903 560.163,-100.106 563.775,-102.687 580,-107.29 591.813,-110.642 604.661,-113.874 616.705,-116.728"/>
<polygon fill="midnightblue" stroke="midnightblue" points="520.512,-85.011 509.947,-85.8122 518.706,-91.774 520.512,-85.011"/>
</g>
<!-- Node8 -->
<g id="node17" class="node"><title>Node8</title>
<a xlink:href="../../d4/d1c/class_w_b_browser_window.html#aec1e4b601203eb8846fd4591e6d1d0ec" target="_top" xlink:title="WBBrowserWindow::bookmarks">
<polygon fill="white" stroke="black" points="586,-76.7903 586,-97.7903 744,-97.7903 744,-76.7903 586,-76.7903"/>
<text text-anchor="middle" x="665" y="-84.7903" font-family="Helvetica,sans-Serif" font-size="10.00">WBBrowserWindow::bookmarks</text>
</a>
</g>
<!-- Node6&#45;&gt;Node8 -->
<g id="edge18" class="edge"><title>Node6&#45;&gt;Node8</title>
<path fill="none" stroke="midnightblue" d="M553.709,-80.5111C564.333,-81.1583 575.158,-81.8177 585.68,-82.4586"/>
<polygon fill="midnightblue" stroke="midnightblue" points="553.796,-77.01 543.602,-79.8955 553.371,-83.9971 553.796,-77.01"/>
</g>
<!-- Node9 -->
<g id="node20" class="node"><title>Node9</title>
<a xlink:href="../../d4/d1c/class_w_b_browser_window.html#a55db99c0327f5077fb0188f77224734a" target="_top" xlink:title="WBBrowserWindow::addBookmark">
<polygon fill="white" stroke="black" points="580,-36.7903 580,-57.7903 750,-57.7903 750,-36.7903 580,-36.7903"/>
<text text-anchor="middle" x="665" y="-44.7903" font-family="Helvetica,sans-Serif" font-size="10.00">WBBrowserWindow::addBookmark</text>
</a>
</g>
<!-- Node6&#45;&gt;Node9 -->
<g id="edge22" class="edge"><title>Node6&#45;&gt;Node9</title>
<path fill="none" stroke="midnightblue" d="M552.179,-63.3258C565.087,-61.4911 578.331,-59.6087 590.997,-57.8084"/>
<polygon fill="midnightblue" stroke="midnightblue" points="551.324,-59.912 541.916,-64.7844 552.309,-66.8424 551.324,-59.912"/>
</g>
<!-- Node7&#45;&gt;Node3 -->
<g id="edge16" class="edge"><title>Node7&#45;&gt;Node3</title>
<path fill="none" stroke="midnightblue" d="M728.95,-114.812C756.938,-109.351 789.413,-103.015 816.143,-97.799"/>
<polygon fill="midnightblue" stroke="midnightblue" points="728.006,-111.43 718.861,-116.781 729.347,-118.301 728.006,-111.43"/>
</g>
<!-- Node8&#45;&gt;Node3 -->
<g id="edge20" class="edge"><title>Node8&#45;&gt;Node3</title>
<path fill="none" stroke="midnightblue" d="M754.576,-87.2903C764.969,-87.2903 775.543,-87.2903 785.86,-87.2903"/>
<polygon fill="midnightblue" stroke="midnightblue" points="754.258,-83.7904 744.258,-87.2903 754.258,-90.7904 754.258,-83.7904"/>
</g>
<!-- Node9&#45;&gt;Node3 -->
<g id="edge24" class="edge"><title>Node9&#45;&gt;Node3</title>
<path fill="none" stroke="midnightblue" d="M728.95,-59.7684C756.938,-65.2293 789.413,-71.566 816.143,-76.7816"/>
<polygon fill="midnightblue" stroke="midnightblue" points="729.347,-56.2798 718.861,-57.7998 728.006,-63.1502 729.347,-56.2798"/>
</g>
<!-- Node11 -->
<g id="node25" class="node"><title>Node11</title>
<a xlink:href="../../de/dc7/class_w_b_tab_widget.html#ad9df03455c950de64486d38fc120b41e" target="_top" xlink:title="WBTabWidget::WBTabWidget">
<polygon fill="white" stroke="black" points="393,-24.7903 393,-45.7903 543,-45.7903 543,-24.7903 393,-24.7903"/>
<text text-anchor="middle" x="468" y="-32.7903" font-family="Helvetica,sans-Serif" font-size="10.00">WBTabWidget::WBTabWidget</text>
</a>
</g>
<!-- Node10&#45;&gt;Node11 -->
<g id="edge28" class="edge"><title>Node10&#45;&gt;Node11</title>
<path fill="none" stroke="midnightblue" d="M366.145,-46.3016C375.087,-45.3349 384.148,-44.3554 392.987,-43.3998"/>
<polygon fill="midnightblue" stroke="midnightblue" points="365.683,-42.8311 356.117,-47.3857 366.435,-49.7906 365.683,-42.8311"/>
</g>
</g>
</svg>
