<?xml version="1.0" encoding="UTF-8" standalone="no"?>
<!DOCTYPE svg PUBLIC "-//W3C//DTD SVG 1.1//EN"
 "http://www.w3.org/Graphics/SVG/1.1/DTD/svg11.dtd">
<!-- Generated by graphviz version 2.26.3 (20100126.1600)
 -->
<!-- Title: WBDownloadManager::setRemovePolicy Pages: 1 -->
<svg width="514pt" height="42pt"
 viewBox="0.00 0.00 514.00 42.00" xmlns="http://www.w3.org/2000/svg" xmlns:xlink="http://www.w3.org/1999/xlink">
<g id="graph1" class="graph" transform="scale(1 1) rotate(0) translate(4 38)">
<title>WBDownloadManager::setRemovePolicy</title>
<polygon fill="white" stroke="white" points="-4,5 -4,-38 511,-38 511,5 -4,5"/>
<!-- Node1 -->
<g id="node1" class="node"><title>Node1</title>
<polygon fill="#bfbfbf" stroke="black" points="0.5,-0 0.5,-34 117.5,-34 117.5,-0 0.5,-0"/>
<text text-anchor="start" x="8.5" y="-21" font-family="Helvetica,sans-Serif" font-size="10.00">WBDownloadManager:</text>
<text text-anchor="middle" x="59" y="-8" font-family="Helvetica,sans-Serif" font-size="10.00">:setRemovePolicy</text>
</g>
<!-- Node2 -->
<g id="node3" class="node"><title>Node2</title>
<a xlink:href="../../dd/d3b/class_u_b_auto_saver.html#a3b7247fb354306120ff74fff03ed7135" target="_top" xlink:title="UBAutoSaver::changeOccurred">
<polygon fill="white" stroke="black" points="154,-6.5 154,-27.5 308,-27.5 308,-6.5 154,-6.5"/>
<text text-anchor="middle" x="231" y="-14.5" font-family="Helvetica,sans-Serif" font-size="10.00">UBAutoSaver::changeOccurred</text>
</a>
</g>
<!-- Node1&#45;&gt;Node2 -->
<g id="edge2" class="edge"><title>Node1&#45;&gt;Node2</title>
<path fill="none" stroke="midnightblue" d="M117.712,-17C126.035,-17 134.74,-17 143.465,-17"/>
<polygon fill="midnightblue" stroke="midnightblue" points="143.696,-20.5001 153.696,-17 143.696,-13.5001 143.696,-20.5001"/>
</g>
<!-- Node3 -->
<g id="node5" class="node"><title>Node3</title>
<a xlink:href="../../dd/d3b/class_u_b_auto_saver.html#add0bbcc4aaba6dcffdaa789a58dabb13" target="_top" xlink:title="UBAutoSaver::saveIfNeccessary">
<polygon fill="white" stroke="black" points="344,-6.5 344,-27.5 506,-27.5 506,-6.5 344,-6.5"/>
<text text-anchor="middle" x="425" y="-14.5" font-family="Helvetica,sans-Serif" font-size="10.00">UBAutoSaver::saveIfNeccessary</text>
</a>
</g>
<!-- Node2&#45;&gt;Node3 -->
<g id="edge4" class="edge"><title>Node2&#45;&gt;Node3</title>
<path fill="none" stroke="midnightblue" d="M308.231,-17C316.661,-17 325.3,-17 333.876,-17"/>
<polygon fill="midnightblue" stroke="midnightblue" points="333.9,-20.5001 343.9,-17 333.9,-13.5001 333.9,-20.5001"/>
</g>
</g>
</svg>
