<?xml version="1.0" encoding="UTF-8" standalone="no"?>
<!DOCTYPE svg PUBLIC "-//W3C//DTD SVG 1.1//EN"
 "http://www.w3.org/Graphics/SVG/1.1/DTD/svg11.dtd">
<!-- Generated by graphviz version 2.26.3 (20100126.1600)
 -->
<!-- Title: UBGraphicsSvgItem::setUuid Pages: 1 -->
<svg width="572pt" height="404pt"
 viewBox="0.00 0.00 572.00 403.80" xmlns="http://www.w3.org/2000/svg" xmlns:xlink="http://www.w3.org/1999/xlink">
<g id="graph1" class="graph" transform="scale(1 1) rotate(0) translate(4 399.801)">
<title>UBGraphicsSvgItem::setUuid</title>
<polygon fill="white" stroke="white" points="-4,5 -4,-399.801 569,-399.801 569,5 -4,5"/>
<!-- Node1 -->
<g id="node1" class="node"><title>Node1</title>
<polygon fill="#bfbfbf" stroke="black" points="0,-156.801 0,-190.801 110,-190.801 110,-156.801 0,-156.801"/>
<text text-anchor="start" x="8" y="-177.801" font-family="Helvetica,sans-Serif" font-size="10.00">UBGraphicsSvgItem:</text>
<text text-anchor="middle" x="55" y="-164.801" font-family="Helvetica,sans-Serif" font-size="10.00">:setUuid</text>
</g>
<!-- Node2 -->
<g id="node3" class="node"><title>Node2</title>
<a xlink:href="../../de/d97/class_u_b_c_f_f_subset_adaptor_1_1_u_b_c_f_f_subset_reader.html#ae49a2c63e579de0988559bdc7cbd3324" target="_top" xlink:title="UBCFFSubsetAdaptor\l::UBCFFSubsetReader\l::parseSvgRect">
<polygon fill="white" stroke="black" points="149.5,-348.301 149.5,-395.301 268.5,-395.301 268.5,-348.301 149.5,-348.301"/>
<text text-anchor="start" x="157.5" y="-382.301" font-family="Helvetica,sans-Serif" font-size="10.00">UBCFFSubsetAdaptor</text>
<text text-anchor="start" x="157.5" y="-369.301" font-family="Helvetica,sans-Serif" font-size="10.00">::UBCFFSubsetReader</text>
<text text-anchor="middle" x="209" y="-356.301" font-family="Helvetica,sans-Serif" font-size="10.00">::parseSvgRect</text>
</a>
</g>
<!-- Node1&#45;&gt;Node2 -->
<g id="edge2" class="edge"><title>Node1&#45;&gt;Node2</title>
<path fill="none" stroke="midnightblue" d="M64.1278,-200.476C77.3777,-235.885 104.932,-298.606 146,-338.801 149.441,-342.169 153.296,-345.277 157.359,-348.125"/>
<polygon fill="midnightblue" stroke="midnightblue" points="67.3294,-199.039 60.6229,-190.837 60.7508,-201.431 67.3294,-199.039"/>
</g>
<!-- Node3 -->
<g id="node5" class="node"><title>Node3</title>
<a xlink:href="../../de/d97/class_u_b_c_f_f_subset_adaptor_1_1_u_b_c_f_f_subset_reader.html#a6b8b7bbd96f3369dae7506459bec898f" target="_top" xlink:title="UBCFFSubsetAdaptor\l::UBCFFSubsetReader\l::parseSvgEllipse">
<polygon fill="white" stroke="black" points="149.5,-282.301 149.5,-329.301 268.5,-329.301 268.5,-282.301 149.5,-282.301"/>
<text text-anchor="start" x="157.5" y="-316.301" font-family="Helvetica,sans-Serif" font-size="10.00">UBCFFSubsetAdaptor</text>
<text text-anchor="start" x="157.5" y="-303.301" font-family="Helvetica,sans-Serif" font-size="10.00">::UBCFFSubsetReader</text>
<text text-anchor="middle" x="209" y="-290.301" font-family="Helvetica,sans-Serif" font-size="10.00">::parseSvgEllipse</text>
</a>
</g>
<!-- Node1&#45;&gt;Node3 -->
<g id="edge4" class="edge"><title>Node1&#45;&gt;Node3</title>
<path fill="none" stroke="midnightblue" d="M73.9727,-198.906C91.1092,-220.4 117.888,-251.207 146,-272.801 150.308,-276.11 154.997,-279.257 159.808,-282.199"/>
<polygon fill="midnightblue" stroke="midnightblue" points="76.6038,-196.589 67.6775,-190.882 71.0965,-200.91 76.6038,-196.589"/>
</g>
<!-- Node4 -->
<g id="node7" class="node"><title>Node4</title>
<a xlink:href="../../de/d97/class_u_b_c_f_f_subset_adaptor_1_1_u_b_c_f_f_subset_reader.html#acb1597facd760ea21ac280c2dd0bf637" target="_top" xlink:title="UBCFFSubsetAdaptor\l::UBCFFSubsetReader\l::parseSvgPolygon">
<polygon fill="white" stroke="black" points="149.5,-216.301 149.5,-263.301 268.5,-263.301 268.5,-216.301 149.5,-216.301"/>
<text text-anchor="start" x="157.5" y="-250.301" font-family="Helvetica,sans-Serif" font-size="10.00">UBCFFSubsetAdaptor</text>
<text text-anchor="start" x="157.5" y="-237.301" font-family="Helvetica,sans-Serif" font-size="10.00">::UBCFFSubsetReader</text>
<text text-anchor="middle" x="209" y="-224.301" font-family="Helvetica,sans-Serif" font-size="10.00">::parseSvgPolygon</text>
</a>
</g>
<!-- Node1&#45;&gt;Node4 -->
<g id="edge6" class="edge"><title>Node1&#45;&gt;Node4</title>
<path fill="none" stroke="midnightblue" d="M104.627,-195.069C120.403,-201.83 137.942,-209.347 154.07,-216.259"/>
<polygon fill="midnightblue" stroke="midnightblue" points="105.63,-191.691 95.0597,-190.969 102.872,-198.125 105.63,-191.691"/>
</g>
<!-- Node5 -->
<g id="node9" class="node"><title>Node5</title>
<a xlink:href="../../de/d97/class_u_b_c_f_f_subset_adaptor_1_1_u_b_c_f_f_subset_reader.html#ad0288f4a6fae34ff2d0213e26753663c" target="_top" xlink:title="UBCFFSubsetAdaptor\l::UBCFFSubsetReader\l::parseSvgPolyline">
<polygon fill="white" stroke="black" points="149.5,-150.301 149.5,-197.301 268.5,-197.301 268.5,-150.301 149.5,-150.301"/>
<text text-anchor="start" x="157.5" y="-184.301" font-family="Helvetica,sans-Serif" font-size="10.00">UBCFFSubsetAdaptor</text>
<text text-anchor="start" x="157.5" y="-171.301" font-family="Helvetica,sans-Serif" font-size="10.00">::UBCFFSubsetReader</text>
<text text-anchor="middle" x="209" y="-158.301" font-family="Helvetica,sans-Serif" font-size="10.00">::parseSvgPolyline</text>
</a>
</g>
<!-- Node1&#45;&gt;Node5 -->
<g id="edge8" class="edge"><title>Node1&#45;&gt;Node5</title>
<path fill="none" stroke="midnightblue" d="M120.426,-173.801C130,-173.801 139.817,-173.801 149.269,-173.801"/>
<polygon fill="midnightblue" stroke="midnightblue" points="120.163,-170.301 110.163,-173.801 120.163,-177.301 120.163,-170.301"/>
</g>
<!-- Node6 -->
<g id="node11" class="node"><title>Node6</title>
<a xlink:href="../../de/d97/class_u_b_c_f_f_subset_adaptor_1_1_u_b_c_f_f_subset_reader.html#a04e743869af8fba54da24d2e1c1ff95c" target="_top" xlink:title="UBCFFSubsetAdaptor\l::UBCFFSubsetReader\l::parseSvgText">
<polygon fill="white" stroke="black" points="149.5,-84.3006 149.5,-131.301 268.5,-131.301 268.5,-84.3006 149.5,-84.3006"/>
<text text-anchor="start" x="157.5" y="-118.301" font-family="Helvetica,sans-Serif" font-size="10.00">UBCFFSubsetAdaptor</text>
<text text-anchor="start" x="157.5" y="-105.301" font-family="Helvetica,sans-Serif" font-size="10.00">::UBCFFSubsetReader</text>
<text text-anchor="middle" x="209" y="-92.3006" font-family="Helvetica,sans-Serif" font-size="10.00">::parseSvgText</text>
</a>
</g>
<!-- Node1&#45;&gt;Node6 -->
<g id="edge10" class="edge"><title>Node1&#45;&gt;Node6</title>
<path fill="none" stroke="midnightblue" d="M104.627,-152.532C120.403,-145.771 137.942,-138.254 154.07,-131.342"/>
<polygon fill="midnightblue" stroke="midnightblue" points="102.872,-149.476 95.0597,-156.632 105.63,-155.91 102.872,-149.476"/>
</g>
<!-- Node7 -->
<g id="node13" class="node"><title>Node7</title>
<a xlink:href="../../d1/dce/class_u_b_graphics_svg_item.html#aefe5ca00c7f91a56938b35611149a779" target="_top" xlink:title="UBGraphicsSvgItem::init">
<polygon fill="white" stroke="black" points="146.5,-44.3006 146.5,-65.3006 271.5,-65.3006 271.5,-44.3006 146.5,-44.3006"/>
<text text-anchor="middle" x="209" y="-52.3006" font-family="Helvetica,sans-Serif" font-size="10.00">UBGraphicsSvgItem::init</text>
</a>
</g>
<!-- Node1&#45;&gt;Node7 -->
<g id="edge12" class="edge"><title>Node1&#45;&gt;Node7</title>
<path fill="none" stroke="midnightblue" d="M72.5144,-148.208C89.0457,-125.863 115.759,-94.0748 146,-74.8006 151.903,-71.0383 158.57,-67.9334 165.301,-65.3862"/>
<polygon fill="midnightblue" stroke="midnightblue" points="69.5028,-146.4 66.4849,-156.556 75.1775,-150.498 69.5028,-146.4"/>
</g>
<!-- Node9 -->
<g id="node17" class="node"><title>Node9</title>
<a xlink:href="../../d1/dce/class_u_b_graphics_svg_item.html#a312cf73a521c514c48a0e866771ba75e" target="_top" xlink:title="UBGraphicsSvgItem:\l:deepCopy">
<polygon fill="white" stroke="black" points="454,-17.8006 454,-51.8006 564,-51.8006 564,-17.8006 454,-17.8006"/>
<text text-anchor="start" x="462" y="-38.8006" font-family="Helvetica,sans-Serif" font-size="10.00">UBGraphicsSvgItem:</text>
<text text-anchor="middle" x="509" y="-25.8006" font-family="Helvetica,sans-Serif" font-size="10.00">:deepCopy</text>
</a>
</g>
<!-- Node1&#45;&gt;Node9 -->
<g id="edge18" class="edge"><title>Node1&#45;&gt;Node9</title>
<path fill="none" stroke="midnightblue" d="M63.7013,-147.106C76.0934,-113.988 102.302,-58.9478 146,-34.8006 243.356,18.9975 379.018,-1.38696 453.887,-19.2358"/>
<polygon fill="midnightblue" stroke="midnightblue" points="60.3701,-146.027 60.2949,-156.621 66.9606,-148.386 60.3701,-146.027"/>
</g>
<!-- Node8 -->
<g id="node15" class="node"><title>Node8</title>
<a xlink:href="../../d1/dce/class_u_b_graphics_svg_item.html#a47ac7a4adf4bb678692aa98cc30809bf" target="_top" xlink:title="UBGraphicsSvgItem:\l:UBGraphicsSvgItem">
<polygon fill="white" stroke="black" points="308,-40.8006 308,-74.8006 418,-74.8006 418,-40.8006 308,-40.8006"/>
<text text-anchor="start" x="316" y="-61.8006" font-family="Helvetica,sans-Serif" font-size="10.00">UBGraphicsSvgItem:</text>
<text text-anchor="middle" x="363" y="-48.8006" font-family="Helvetica,sans-Serif" font-size="10.00">:UBGraphicsSvgItem</text>
</a>
</g>
<!-- Node7&#45;&gt;Node8 -->
<g id="edge14" class="edge"><title>Node7&#45;&gt;Node8</title>
<path fill="none" stroke="midnightblue" d="M281.843,-56.2196C290.587,-56.39 299.403,-56.5617 307.837,-56.726"/>
<polygon fill="midnightblue" stroke="midnightblue" points="281.704,-52.7163 271.638,-56.0208 281.568,-59.715 281.704,-52.7163"/>
</g>
<!-- Node8&#45;&gt;Node9 -->
<g id="edge16" class="edge"><title>Node8&#45;&gt;Node9</title>
<path fill="none" stroke="midnightblue" d="M428.131,-47.5402C436.676,-46.1941 445.366,-44.8252 453.726,-43.5082"/>
<polygon fill="midnightblue" stroke="midnightblue" points="427.53,-44.0917 418.196,-49.1053 428.619,-51.0064 427.53,-44.0917"/>
</g>
</g>
</svg>
