<?xml version="1.0" encoding="UTF-8" standalone="no"?>
<!DOCTYPE svg PUBLIC "-//W3C//DTD SVG 1.1//EN"
 "http://www.w3.org/Graphics/SVG/1.1/DTD/svg11.dtd">
<!-- Generated by graphviz version 2.26.3 (20100126.1600)
 -->
<!-- Title: UBGraphicsCache::setHoleSize Pages: 1 -->
<svg width="458pt" height="142pt"
 viewBox="0.00 0.00 458.00 142.00" xmlns="http://www.w3.org/2000/svg" xmlns:xlink="http://www.w3.org/1999/xlink">
<g id="graph1" class="graph" transform="scale(1 1) rotate(0) translate(4 138)">
<title>UBGraphicsCache::setHoleSize</title>
<polygon fill="white" stroke="white" points="-4,5 -4,-138 455,-138 455,5 -4,5"/>
<!-- Node1 -->
<g id="node1" class="node"><title>Node1</title>
<polygon fill="#bfbfbf" stroke="black" points="0,-60.5 0,-81.5 158,-81.5 158,-60.5 0,-60.5"/>
<text text-anchor="middle" x="79" y="-68.5" font-family="Helvetica,sans-Serif" font-size="10.00">UBGraphicsCache::setHoleSize</text>
</g>
<!-- Node2 -->
<g id="node3" class="node"><title>Node2</title>
<a xlink:href="../../d7/d62/class_u_b_board_controller.html#ab71662c63aac8470984b04499e906d3a" target="_top" xlink:title="UBBoardController:\l:controlView">
<polygon fill="white" stroke="black" points="197.5,-100 197.5,-134 298.5,-134 298.5,-100 197.5,-100"/>
<text text-anchor="start" x="205.5" y="-121" font-family="Helvetica,sans-Serif" font-size="10.00">UBBoardController:</text>
<text text-anchor="middle" x="248" y="-108" font-family="Helvetica,sans-Serif" font-size="10.00">:controlView</text>
</a>
</g>
<!-- Node1&#45;&gt;Node2 -->
<g id="edge2" class="edge"><title>Node1&#45;&gt;Node2</title>
<path fill="none" stroke="midnightblue" d="M117.772,-81.5533C138.407,-87.17 164.249,-94.2038 187.461,-100.522"/>
<polygon fill="midnightblue" stroke="midnightblue" points="186.656,-103.93 197.225,-103.179 188.495,-97.1759 186.656,-103.93"/>
</g>
<!-- Node3 -->
<g id="node5" class="node"><title>Node3</title>
<a xlink:href="../../db/d66/class_u_b_settings.html#a0d8ed418921c2b2d37851faeae00715d" target="_top" xlink:title="UBSettings::settings">
<polygon fill="white" stroke="black" points="194.5,-60.5 194.5,-81.5 301.5,-81.5 301.5,-60.5 194.5,-60.5"/>
<text text-anchor="middle" x="248" y="-68.5" font-family="Helvetica,sans-Serif" font-size="10.00">UBSettings::settings</text>
</a>
</g>
<!-- Node1&#45;&gt;Node3 -->
<g id="edge4" class="edge"><title>Node1&#45;&gt;Node3</title>
<path fill="none" stroke="midnightblue" d="M158.057,-71C166.73,-71 175.479,-71 183.938,-71"/>
<polygon fill="midnightblue" stroke="midnightblue" points="184.086,-74.5001 194.086,-71 184.086,-67.5001 184.086,-74.5001"/>
</g>
<!-- Node4 -->
<g id="node7" class="node"><title>Node4</title>
<a xlink:href="../../d7/d24/class_u_b_setting.html#a5dc12b91ffabb031a3a7a8322f5d30ed" target="_top" xlink:title="UBSetting::set">
<polygon fill="white" stroke="black" points="207.5,-20.5 207.5,-41.5 288.5,-41.5 288.5,-20.5 207.5,-20.5"/>
<text text-anchor="middle" x="248" y="-28.5" font-family="Helvetica,sans-Serif" font-size="10.00">UBSetting::set</text>
</a>
</g>
<!-- Node1&#45;&gt;Node4 -->
<g id="edge6" class="edge"><title>Node1&#45;&gt;Node4</title>
<path fill="none" stroke="midnightblue" d="M123.403,-60.4905C146.165,-55.103 173.98,-48.5194 197.551,-42.9406"/>
<polygon fill="midnightblue" stroke="midnightblue" points="198.441,-46.3268 207.366,-40.6176 196.828,-39.515 198.441,-46.3268"/>
</g>
<!-- Node5 -->
<g id="node9" class="node"><title>Node5</title>
<a xlink:href="../../db/d66/class_u_b_settings.html#acf2a7dc86ac6849cdae8ad611ba71878" target="_top" xlink:title="UBSettings::setValue">
<polygon fill="white" stroke="black" points="338.5,-40.5 338.5,-61.5 449.5,-61.5 449.5,-40.5 338.5,-40.5"/>
<text text-anchor="middle" x="394" y="-48.5" font-family="Helvetica,sans-Serif" font-size="10.00">UBSettings::setValue</text>
</a>
</g>
<!-- Node4&#45;&gt;Node5 -->
<g id="edge8" class="edge"><title>Node4&#45;&gt;Node5</title>
<path fill="none" stroke="midnightblue" d="M288.669,-36.5711C300.906,-38.2474 314.662,-40.1318 328.095,-41.9719"/>
<polygon fill="midnightblue" stroke="midnightblue" points="327.891,-45.4765 338.273,-43.3662 328.841,-38.5413 327.891,-45.4765"/>
</g>
<!-- Node6 -->
<g id="node11" class="node"><title>Node6</title>
<a xlink:href="../../d7/d24/class_u_b_setting.html#a0f7d1e100a9d7d35a58c818a356702c7" target="_top" xlink:title="UBSetting::changed">
<polygon fill="white" stroke="black" points="342,-0.5 342,-21.5 446,-21.5 446,-0.5 342,-0.5"/>
<text text-anchor="middle" x="394" y="-8.5" font-family="Helvetica,sans-Serif" font-size="10.00">UBSetting::changed</text>
</a>
</g>
<!-- Node4&#45;&gt;Node6 -->
<g id="edge10" class="edge"><title>Node4&#45;&gt;Node6</title>
<path fill="none" stroke="midnightblue" d="M288.669,-25.4289C302.037,-23.5976 317.218,-21.518 331.81,-19.5192"/>
<polygon fill="midnightblue" stroke="midnightblue" points="332.356,-22.9772 341.788,-18.1523 331.406,-16.0419 332.356,-22.9772"/>
</g>
</g>
</svg>
