<?xml version="1.0" encoding="UTF-8" standalone="no"?>
<!DOCTYPE svg PUBLIC "-//W3C//DTD SVG 1.1//EN"
 "http://www.w3.org/Graphics/SVG/1.1/DTD/svg11.dtd">
<!-- Generated by graphviz version 2.26.3 (20100126.1600)
 -->
<!-- Title: UBDockTeacherGuideWidget.cpp Pages: 1 -->
<svg width="2147pt" height="392pt"
 viewBox="0.00 0.00 2147.00 392.00" xmlns="http://www.w3.org/2000/svg" xmlns:xlink="http://www.w3.org/1999/xlink">
<g id="graph1" class="graph" transform="scale(1 1) rotate(0) translate(4 388)">
<title>UBDockTeacherGuideWidget.cpp</title>
<polygon fill="white" stroke="white" points="-4,5 -4,-388 2144,-388 2144,5 -4,5"/>
<!-- Node1 -->
<g id="node1" class="node"><title>Node1</title>
<polygon fill="#bfbfbf" stroke="black" points="1756,-362.5 1756,-383.5 1920,-383.5 1920,-362.5 1756,-362.5"/>
<text text-anchor="middle" x="1838" y="-370.5" font-family="Helvetica,sans-Serif" font-size="10.00">UBDockTeacherGuideWidget.cpp</text>
</g>
<!-- Node2 -->
<g id="node3" class="node"><title>Node2</title>
<a xlink:href="../../db/d54/_u_b_application_8h.html" target="_top" xlink:title="core/UBApplication.h">
<polygon fill="white" stroke="black" points="177.5,-304.5 177.5,-325.5 286.5,-325.5 286.5,-304.5 177.5,-304.5"/>
<text text-anchor="middle" x="232" y="-312.5" font-family="Helvetica,sans-Serif" font-size="10.00">core/UBApplication.h</text>
</a>
</g>
<!-- Node1&#45;&gt;Node2 -->
<g id="edge2" class="edge"><title>Node1&#45;&gt;Node2</title>
<path fill="none" stroke="midnightblue" d="M1755.87,-370.034C1474.19,-359.861 550.631,-326.507 296.967,-317.346"/>
<polygon fill="midnightblue" stroke="midnightblue" points="296.928,-313.843 286.808,-316.979 296.675,-320.838 296.928,-313.843"/>
</g>
<!-- Node25 -->
<g id="node54" class="node"><title>Node25</title>
<a xlink:href="../../df/d99/_sankore-gh-pages_2src_2globals_2_u_b_globals_8h.html" target="_top" xlink:title="globals/UBGlobals.h">
<polygon fill="white" stroke="black" points="1921,-304.5 1921,-325.5 2027,-325.5 2027,-304.5 1921,-304.5"/>
<text text-anchor="middle" x="1974" y="-312.5" font-family="Helvetica,sans-Serif" font-size="10.00">globals/UBGlobals.h</text>
</a>
</g>
<!-- Node1&#45;&gt;Node25 -->
<g id="edge58" class="edge"><title>Node1&#45;&gt;Node25</title>
<path fill="none" stroke="midnightblue" d="M1862.63,-362.497C1884.16,-353.315 1915.64,-339.889 1939.64,-329.652"/>
<polygon fill="midnightblue" stroke="midnightblue" points="1941.27,-332.764 1949.1,-325.621 1938.52,-326.325 1941.27,-332.764"/>
</g>
<!-- Node28 -->
<g id="node60" class="node"><title>Node28</title>
<a xlink:href="../../db/dd4/_u_b_dock_teacher_guide_widget_8h.html" target="_top" xlink:title="UBDockTeacherGuideWidget.h">
<polygon fill="white" stroke="black" points="1601,-304.5 1601,-325.5 1755,-325.5 1755,-304.5 1601,-304.5"/>
<text text-anchor="middle" x="1678" y="-312.5" font-family="Helvetica,sans-Serif" font-size="10.00">UBDockTeacherGuideWidget.h</text>
</a>
</g>
<!-- Node1&#45;&gt;Node28 -->
<g id="edge64" class="edge"><title>Node1&#45;&gt;Node28</title>
<path fill="none" stroke="midnightblue" d="M1809.03,-362.497C1783.17,-353.123 1745.1,-339.324 1716.65,-329.012"/>
<polygon fill="midnightblue" stroke="midnightblue" points="1717.62,-325.641 1707.03,-325.523 1715.24,-332.222 1717.62,-325.641"/>
</g>
<!-- Node32 -->
<g id="node69" class="node"><title>Node32</title>
<a xlink:href="../../d9/dd8/_u_b_teacher_guide_widget_8h.html" target="_top" xlink:title="UBTeacherGuideWidget.h">
<polygon fill="white" stroke="black" points="1772.5,-304.5 1772.5,-325.5 1903.5,-325.5 1903.5,-304.5 1772.5,-304.5"/>
<text text-anchor="middle" x="1838" y="-312.5" font-family="Helvetica,sans-Serif" font-size="10.00">UBTeacherGuideWidget.h</text>
</a>
</g>
<!-- Node1&#45;&gt;Node32 -->
<g id="edge74" class="edge"><title>Node1&#45;&gt;Node32</title>
<path fill="none" stroke="midnightblue" d="M1838,-362.362C1838,-354.922 1838,-344.743 1838,-335.728"/>
<polygon fill="midnightblue" stroke="midnightblue" points="1841.5,-335.571 1838,-325.571 1834.5,-335.571 1841.5,-335.571"/>
</g>
<!-- Node50 -->
<g id="node118" class="node"><title>Node50</title>
<a xlink:href="../../db/d80/memcheck_8h.html" target="_top" xlink:title="core/memcheck.h">
<polygon fill="white" stroke="black" points="2044.5,-304.5 2044.5,-325.5 2139.5,-325.5 2139.5,-304.5 2044.5,-304.5"/>
<text text-anchor="middle" x="2092" y="-312.5" font-family="Helvetica,sans-Serif" font-size="10.00">core/memcheck.h</text>
</a>
</g>
<!-- Node1&#45;&gt;Node50 -->
<g id="edge136" class="edge"><title>Node1&#45;&gt;Node50</title>
<path fill="none" stroke="midnightblue" d="M1884,-362.497C1926.66,-352.755 1990.26,-338.233 2035.89,-327.813"/>
<polygon fill="midnightblue" stroke="midnightblue" points="2036.95,-331.161 2045.92,-325.523 2035.39,-324.337 2036.95,-331.161"/>
</g>
<!-- Node3 -->
<g id="node5" class="node"><title>Node3</title>
<polygon fill="white" stroke="#bfbfbf" points="281,-0.5 281,-21.5 323,-21.5 323,-0.5 281,-0.5"/>
<text text-anchor="middle" x="302" y="-8.5" font-family="Helvetica,sans-Serif" font-size="10.00">QtGui</text>
</g>
<!-- Node2&#45;&gt;Node3 -->
<g id="edge4" class="edge"><title>Node2&#45;&gt;Node3</title>
<path fill="none" stroke="midnightblue" d="M215.487,-304.321C187.084,-284.505 132,-239.101 132,-185 132,-185 132,-185 132,-127 132,-60.4519 221.985,-29.3359 271.019,-17.3205"/>
<polygon fill="midnightblue" stroke="midnightblue" points="271.867,-20.7167 280.813,-15.0406 270.28,-13.8989 271.867,-20.7167"/>
</g>
<!-- Node4 -->
<g id="node7" class="node"><title>Node4</title>
<polygon fill="white" stroke="#bfbfbf" points="-0.5,-239.5 -0.5,-260.5 104.5,-260.5 104.5,-239.5 -0.5,-239.5"/>
<text text-anchor="middle" x="52" y="-247.5" font-family="Helvetica,sans-Serif" font-size="10.00">qtsingleapplication.h</text>
</g>
<!-- Node2&#45;&gt;Node4 -->
<g id="edge6" class="edge"><title>Node2&#45;&gt;Node4</title>
<path fill="none" stroke="midnightblue" d="M202.679,-304.412C172.214,-293.411 124.387,-276.14 90.8058,-264.013"/>
<polygon fill="midnightblue" stroke="midnightblue" points="91.9025,-260.688 81.3082,-260.584 89.5249,-267.272 91.9025,-260.688"/>
</g>
<!-- Node5 -->
<g id="node9" class="node"><title>Node5</title>
<a xlink:href="../../d1/d9d/_uniboard_sankore_transition_8h.html" target="_top" xlink:title="transition/UniboardSankore\lTransition.h">
<polygon fill="white" stroke="black" points="264,-233 264,-267 398,-267 398,-233 264,-233"/>
<text text-anchor="start" x="272" y="-254" font-family="Helvetica,sans-Serif" font-size="10.00">transition/UniboardSankore</text>
<text text-anchor="middle" x="331" y="-241" font-family="Helvetica,sans-Serif" font-size="10.00">Transition.h</text>
</a>
</g>
<!-- Node2&#45;&gt;Node5 -->
<g id="edge8" class="edge"><title>Node2&#45;&gt;Node5</title>
<path fill="none" stroke="midnightblue" d="M248.348,-304.267C261.323,-295.748 279.921,-283.537 296.191,-272.854"/>
<polygon fill="midnightblue" stroke="midnightblue" points="298.502,-275.524 304.94,-267.11 294.66,-269.673 298.502,-275.524"/>
</g>
<!-- Node6 -->
<g id="node11" class="node"><title>Node6</title>
<polygon fill="white" stroke="#bfbfbf" points="697.5,-174.5 697.5,-195.5 750.5,-195.5 750.5,-174.5 697.5,-174.5"/>
<text text-anchor="middle" x="724" y="-182.5" font-family="Helvetica,sans-Serif" font-size="10.00">QObject</text>
</g>
<!-- Node5&#45;&gt;Node6 -->
<g id="edge10" class="edge"><title>Node5&#45;&gt;Node6</title>
<path fill="none" stroke="midnightblue" d="M398.224,-243.008C468.42,-234.999 581.752,-220.078 687.485,-196.11"/>
<polygon fill="midnightblue" stroke="midnightblue" points="688.403,-199.49 697.364,-193.839 686.834,-192.668 688.403,-199.49"/>
</g>
<!-- Node7 -->
<g id="node13" class="node"><title>Node7</title>
<polygon fill="white" stroke="#bfbfbf" points="169,-174.5 169,-195.5 225,-195.5 225,-174.5 169,-174.5"/>
<text text-anchor="middle" x="197" y="-182.5" font-family="Helvetica,sans-Serif" font-size="10.00">QFileInfo</text>
</g>
<!-- Node5&#45;&gt;Node7 -->
<g id="edge12" class="edge"><title>Node5&#45;&gt;Node7</title>
<path fill="none" stroke="midnightblue" d="M295.793,-232.922C274.774,-222.726 248.319,-209.894 228.077,-200.074"/>
<polygon fill="midnightblue" stroke="midnightblue" points="229.498,-196.874 218.973,-195.658 226.442,-203.172 229.498,-196.874"/>
</g>
<!-- Node8 -->
<g id="node15" class="node"><title>Node8</title>
<polygon fill="white" stroke="#bfbfbf" points="243,-174.5 243,-195.5 297,-195.5 297,-174.5 243,-174.5"/>
<text text-anchor="middle" x="270" y="-182.5" font-family="Helvetica,sans-Serif" font-size="10.00">QThread</text>
</g>
<!-- Node5&#45;&gt;Node8 -->
<g id="edge14" class="edge"><title>Node5&#45;&gt;Node8</title>
<path fill="none" stroke="midnightblue" d="M314.973,-232.922C306.455,-223.845 295.976,-212.679 287.277,-203.41"/>
<polygon fill="midnightblue" stroke="midnightblue" points="289.58,-200.749 280.184,-195.852 284.475,-205.539 289.58,-200.749"/>
</g>
<!-- Node9 -->
<g id="node17" class="node"><title>Node9</title>
<a xlink:href="../../db/dc7/_u_b_update_dlg_8h.html" target="_top" xlink:title="gui/UBUpdateDlg.h">
<polygon fill="white" stroke="black" points="579.5,-174.5 579.5,-195.5 680.5,-195.5 680.5,-174.5 579.5,-174.5"/>
<text text-anchor="middle" x="630" y="-182.5" font-family="Helvetica,sans-Serif" font-size="10.00">gui/UBUpdateDlg.h</text>
</a>
</g>
<!-- Node5&#45;&gt;Node9 -->
<g id="edge16" class="edge"><title>Node5&#45;&gt;Node9</title>
<path fill="none" stroke="midnightblue" d="M398.101,-235.413C450.13,-224.102 521.523,-208.582 571.299,-197.761"/>
<polygon fill="midnightblue" stroke="midnightblue" points="572.237,-201.139 581.265,-195.595 570.75,-194.299 572.237,-201.139"/>
</g>
<!-- Node18 -->
<g id="node35" class="node"><title>Node18</title>
<a xlink:href="../../db/dea/_u_b_document_proxy_8h.html" target="_top" xlink:title="document/UBDocumentProxy.h">
<polygon fill="white" stroke="black" points="314.5,-174.5 314.5,-195.5 469.5,-195.5 469.5,-174.5 314.5,-174.5"/>
<text text-anchor="middle" x="392" y="-182.5" font-family="Helvetica,sans-Serif" font-size="10.00">document/UBDocumentProxy.h</text>
</a>
</g>
<!-- Node5&#45;&gt;Node18 -->
<g id="edge34" class="edge"><title>Node5&#45;&gt;Node18</title>
<path fill="none" stroke="midnightblue" d="M347.027,-232.922C355.545,-223.845 366.024,-212.679 374.723,-203.41"/>
<polygon fill="midnightblue" stroke="midnightblue" points="377.525,-205.539 381.816,-195.852 372.42,-200.749 377.525,-205.539"/>
</g>
<!-- Node10 -->
<g id="node19" class="node"><title>Node10</title>
<polygon fill="white" stroke="#bfbfbf" points="584,-116.5 584,-137.5 636,-137.5 636,-116.5 584,-116.5"/>
<text text-anchor="middle" x="610" y="-124.5" font-family="Helvetica,sans-Serif" font-size="10.00">QDialog</text>
</g>
<!-- Node9&#45;&gt;Node10 -->
<g id="edge18" class="edge"><title>Node9&#45;&gt;Node10</title>
<path fill="none" stroke="midnightblue" d="M626.332,-174.362C623.71,-166.758 620.101,-156.294 616.943,-147.135"/>
<polygon fill="midnightblue" stroke="midnightblue" points="620.214,-145.883 613.645,-137.571 613.596,-148.165 620.214,-145.883"/>
</g>
<!-- Node11 -->
<g id="node21" class="node"><title>Node11</title>
<polygon fill="white" stroke="#bfbfbf" points="767.5,-116.5 767.5,-137.5 814.5,-137.5 814.5,-116.5 767.5,-116.5"/>
<text text-anchor="middle" x="791" y="-124.5" font-family="Helvetica,sans-Serif" font-size="10.00">QLabel</text>
</g>
<!-- Node9&#45;&gt;Node11 -->
<g id="edge20" class="edge"><title>Node9&#45;&gt;Node11</title>
<path fill="none" stroke="midnightblue" d="M659.156,-174.497C686.878,-164.51 728.543,-149.5 757.592,-139.035"/>
<polygon fill="midnightblue" stroke="midnightblue" points="759.075,-142.221 767.297,-135.539 756.702,-135.636 759.075,-142.221"/>
</g>
<!-- Node12 -->
<g id="node23" class="node"><title>Node12</title>
<polygon fill="white" stroke="#bfbfbf" points="888.5,-58.5 888.5,-79.5 963.5,-79.5 963.5,-58.5 888.5,-58.5"/>
<text text-anchor="middle" x="926" y="-66.5" font-family="Helvetica,sans-Serif" font-size="10.00">QPushButton</text>
</g>
<!-- Node9&#45;&gt;Node12 -->
<g id="edge22" class="edge"><title>Node9&#45;&gt;Node12</title>
<path fill="none" stroke="midnightblue" d="M634.993,-174.403C642.877,-158.913 659.741,-130.37 683,-116 714.964,-96.2513 816.659,-81.551 877.896,-74.2178"/>
<polygon fill="midnightblue" stroke="midnightblue" points="878.573,-77.6624 888.096,-73.0195 877.756,-70.7102 878.573,-77.6624"/>
</g>
<!-- Node13 -->
<g id="node25" class="node"><title>Node13</title>
<polygon fill="white" stroke="#bfbfbf" points="691.5,-116.5 691.5,-137.5 750.5,-137.5 750.5,-116.5 691.5,-116.5"/>
<text text-anchor="middle" x="721" y="-124.5" font-family="Helvetica,sans-Serif" font-size="10.00">QLineEdit</text>
</g>
<!-- Node9&#45;&gt;Node13 -->
<g id="edge24" class="edge"><title>Node9&#45;&gt;Node13</title>
<path fill="none" stroke="midnightblue" d="M646.691,-174.362C660.416,-165.614 680.084,-153.079 695.737,-143.101"/>
<polygon fill="midnightblue" stroke="midnightblue" points="697.863,-145.897 704.415,-137.571 694.101,-139.994 697.863,-145.897"/>
</g>
<!-- Node14 -->
<g id="node27" class="node"><title>Node14</title>
<polygon fill="white" stroke="#bfbfbf" points="468,-116.5 468,-137.5 566,-137.5 566,-116.5 468,-116.5"/>
<text text-anchor="middle" x="517" y="-124.5" font-family="Helvetica,sans-Serif" font-size="10.00">QDialogButtonBox</text>
</g>
<!-- Node9&#45;&gt;Node14 -->
<g id="edge26" class="edge"><title>Node9&#45;&gt;Node14</title>
<path fill="none" stroke="midnightblue" d="M609.537,-174.497C591.967,-165.479 566.418,-152.365 546.615,-142.201"/>
<polygon fill="midnightblue" stroke="midnightblue" points="548.188,-139.074 537.693,-137.621 544.991,-145.301 548.188,-139.074"/>
</g>
<!-- Node15 -->
<g id="node29" class="node"><title>Node15</title>
<polygon fill="white" stroke="#bfbfbf" points="831.5,-116.5 831.5,-137.5 908.5,-137.5 908.5,-116.5 831.5,-116.5"/>
<text text-anchor="middle" x="870" y="-124.5" font-family="Helvetica,sans-Serif" font-size="10.00">QVBoxLayout</text>
</g>
<!-- Node9&#45;&gt;Node15 -->
<g id="edge28" class="edge"><title>Node9&#45;&gt;Node15</title>
<path fill="none" stroke="midnightblue" d="M673.462,-174.497C715.193,-164.412 778.12,-149.204 821.47,-138.728"/>
<polygon fill="midnightblue" stroke="midnightblue" points="822.326,-142.122 831.224,-136.371 820.682,-135.318 822.326,-142.122"/>
</g>
<!-- Node16 -->
<g id="node31" class="node"><title>Node16</title>
<polygon fill="white" stroke="#bfbfbf" points="1034,-116.5 1034,-137.5 1112,-137.5 1112,-116.5 1034,-116.5"/>
<text text-anchor="middle" x="1073" y="-124.5" font-family="Helvetica,sans-Serif" font-size="10.00">QHBoxLayout</text>
</g>
<!-- Node9&#45;&gt;Node16 -->
<g id="edge30" class="edge"><title>Node9&#45;&gt;Node16</title>
<path fill="none" stroke="midnightblue" d="M680.807,-175.269C683.575,-174.819 686.32,-174.393 689,-174 834.408,-152.688 875.139,-162.377 1023.83,-138.039"/>
<polygon fill="midnightblue" stroke="midnightblue" points="1024.49,-141.477 1033.78,-136.386 1023.34,-134.572 1024.49,-141.477"/>
</g>
<!-- Node17 -->
<g id="node33" class="node"><title>Node17</title>
<polygon fill="white" stroke="#bfbfbf" points="925.5,-116.5 925.5,-137.5 1016.5,-137.5 1016.5,-116.5 925.5,-116.5"/>
<text text-anchor="middle" x="971" y="-124.5" font-family="Helvetica,sans-Serif" font-size="10.00">QStackedWidget</text>
</g>
<!-- Node9&#45;&gt;Node17 -->
<g id="edge32" class="edge"><title>Node9&#45;&gt;Node17</title>
<path fill="none" stroke="midnightblue" d="M680.514,-175.487C683.384,-174.976 686.227,-174.477 689,-174 786.942,-157.141 814.351,-156.282 915.353,-138.245"/>
<polygon fill="midnightblue" stroke="midnightblue" points="916.14,-141.66 925.362,-136.445 914.901,-134.77 916.14,-141.66"/>
</g>
<!-- Node18&#45;&gt;Node3 -->
<g id="edge36" class="edge"><title>Node18&#45;&gt;Node3</title>
<path fill="none" stroke="midnightblue" d="M329.172,-174.48C272.897,-164.419 197.878,-149.168 189,-138 170.188,-114.335 203.513,-72.2545 217,-58 225.241,-49.2898 250.559,-35.7519 271.436,-25.4385"/>
<polygon fill="midnightblue" stroke="midnightblue" points="273.182,-28.4816 280.639,-20.9557 270.116,-22.1885 273.182,-28.4816"/>
</g>
<!-- Node19 -->
<g id="node38" class="node"><title>Node19</title>
<a xlink:href="../../d7/dca/_u_b_string_utils_8h.html" target="_top" xlink:title="frameworks/UBStringUtils.h">
<polygon fill="white" stroke="black" points="197.5,-116.5 197.5,-137.5 336.5,-137.5 336.5,-116.5 197.5,-116.5"/>
<text text-anchor="middle" x="267" y="-124.5" font-family="Helvetica,sans-Serif" font-size="10.00">frameworks/UBStringUtils.h</text>
</a>
</g>
<!-- Node18&#45;&gt;Node19 -->
<g id="edge38" class="edge"><title>Node18&#45;&gt;Node19</title>
<path fill="none" stroke="midnightblue" d="M369.363,-174.497C349.752,-165.397 321.154,-152.127 299.167,-141.925"/>
<polygon fill="midnightblue" stroke="midnightblue" points="300.435,-138.655 289.891,-137.621 297.488,-145.005 300.435,-138.655"/>
</g>
<!-- Node21 -->
<g id="node42" class="node"><title>Node21</title>
<a xlink:href="../../d1/d92/_u_b_settings_8h.html" target="_top" xlink:title="core/UBSettings.h">
<polygon fill="white" stroke="black" points="353.5,-116.5 353.5,-137.5 450.5,-137.5 450.5,-116.5 353.5,-116.5"/>
<text text-anchor="middle" x="402" y="-124.5" font-family="Helvetica,sans-Serif" font-size="10.00">core/UBSettings.h</text>
</a>
</g>
<!-- Node18&#45;&gt;Node21 -->
<g id="edge42" class="edge"><title>Node18&#45;&gt;Node21</title>
<path fill="none" stroke="midnightblue" d="M393.834,-174.362C395.131,-166.84 396.911,-156.519 398.477,-147.431"/>
<polygon fill="midnightblue" stroke="midnightblue" points="401.927,-148.02 400.177,-137.571 395.029,-146.831 401.927,-148.02"/>
</g>
<!-- Node20 -->
<g id="node40" class="node"><title>Node20</title>
<polygon fill="white" stroke="#bfbfbf" points="226,-58.5 226,-79.5 274,-79.5 274,-58.5 226,-58.5"/>
<text text-anchor="middle" x="250" y="-66.5" font-family="Helvetica,sans-Serif" font-size="10.00">QtCore</text>
</g>
<!-- Node19&#45;&gt;Node20 -->
<g id="edge40" class="edge"><title>Node19&#45;&gt;Node20</title>
<path fill="none" stroke="midnightblue" d="M263.882,-116.362C261.677,-108.84 258.652,-98.5187 255.988,-89.4308"/>
<polygon fill="midnightblue" stroke="midnightblue" points="259.27,-88.1825 253.098,-79.5707 252.552,-90.1514 259.27,-88.1825"/>
</g>
<!-- Node21&#45;&gt;Node3 -->
<g id="edge46" class="edge"><title>Node21&#45;&gt;Node3</title>
<path fill="none" stroke="midnightblue" d="M372.226,-116.39C354.911,-108.778 334.006,-96.8665 321,-80 310.359,-66.2001 305.675,-46.811 303.614,-32.0988"/>
<polygon fill="midnightblue" stroke="midnightblue" points="307.068,-31.4868 302.495,-21.9299 300.11,-32.2529 307.068,-31.4868"/>
</g>
<!-- Node21&#45;&gt;Node20 -->
<g id="edge44" class="edge"><title>Node21&#45;&gt;Node20</title>
<path fill="none" stroke="midnightblue" d="M374.474,-116.497C349.025,-106.786 311.131,-92.3263 283.843,-81.9138"/>
<polygon fill="midnightblue" stroke="midnightblue" points="284.903,-78.5721 274.312,-78.277 282.407,-85.1121 284.903,-78.5721"/>
</g>
<!-- Node22 -->
<g id="node46" class="node"><title>Node22</title>
<polygon fill="white" stroke="#bfbfbf" points="386,-58.5 386,-79.5 450,-79.5 450,-58.5 386,-58.5"/>
<text text-anchor="middle" x="418" y="-66.5" font-family="Helvetica,sans-Serif" font-size="10.00">QtNetwork</text>
</g>
<!-- Node21&#45;&gt;Node22 -->
<g id="edge48" class="edge"><title>Node21&#45;&gt;Node22</title>
<path fill="none" stroke="midnightblue" d="M404.935,-116.362C407.01,-108.84 409.857,-98.5187 412.364,-89.4308"/>
<polygon fill="midnightblue" stroke="midnightblue" points="415.799,-90.1414 415.084,-79.5707 409.051,-88.2798 415.799,-90.1414"/>
</g>
<!-- Node23 -->
<g id="node48" class="node"><title>Node23</title>
<a xlink:href="../../d6/dd0/_u_b_8h.html" target="_top" xlink:title="UB.h">
<polygon fill="white" stroke="black" points="329.5,-58.5 329.5,-79.5 368.5,-79.5 368.5,-58.5 329.5,-58.5"/>
<text text-anchor="middle" x="349" y="-66.5" font-family="Helvetica,sans-Serif" font-size="10.00">UB.h</text>
</a>
</g>
<!-- Node21&#45;&gt;Node23 -->
<g id="edge50" class="edge"><title>Node21&#45;&gt;Node23</title>
<path fill="none" stroke="midnightblue" d="M392.279,-116.362C384.808,-108.186 374.314,-96.7025 365.531,-87.0907"/>
<polygon fill="midnightblue" stroke="midnightblue" points="367.989,-84.5918 358.659,-79.5707 362.821,-89.3138 367.989,-84.5918"/>
</g>
<!-- Node24 -->
<g id="node51" class="node"><title>Node24</title>
<a xlink:href="../../d3/d76/_u_b_setting_8h.html" target="_top" xlink:title="UBSetting.h">
<polygon fill="white" stroke="black" points="468,-58.5 468,-79.5 538,-79.5 538,-58.5 468,-58.5"/>
<text text-anchor="middle" x="503" y="-66.5" font-family="Helvetica,sans-Serif" font-size="10.00">UBSetting.h</text>
</a>
</g>
<!-- Node21&#45;&gt;Node24 -->
<g id="edge54" class="edge"><title>Node21&#45;&gt;Node24</title>
<path fill="none" stroke="midnightblue" d="M420.525,-116.362C435.901,-107.532 457.996,-94.844 475.447,-84.8224"/>
<polygon fill="midnightblue" stroke="midnightblue" points="477.664,-87.5857 484.592,-79.5707 474.178,-81.5154 477.664,-87.5857"/>
</g>
<!-- Node23&#45;&gt;Node3 -->
<g id="edge52" class="edge"><title>Node23&#45;&gt;Node3</title>
<path fill="none" stroke="midnightblue" d="M340.379,-58.3619C333.82,-50.2678 324.634,-38.9318 316.894,-29.3796"/>
<polygon fill="midnightblue" stroke="midnightblue" points="319.581,-27.1364 310.566,-21.5707 314.142,-31.5436 319.581,-27.1364"/>
</g>
<!-- Node24&#45;&gt;Node3 -->
<g id="edge56" class="edge"><title>Node24&#45;&gt;Node3</title>
<path fill="none" stroke="midnightblue" d="M467.988,-58.8972C429.906,-47.9083 369.604,-30.5077 333.123,-19.9807"/>
<polygon fill="midnightblue" stroke="midnightblue" points="333.638,-16.4867 323.06,-17.0769 331.697,-23.2122 333.638,-16.4867"/>
</g>
<!-- Node26 -->
<g id="node56" class="node"><title>Node26</title>
<polygon fill="white" stroke="#bfbfbf" points="1872,-174.5 1872,-195.5 1922,-195.5 1922,-174.5 1872,-174.5"/>
<text text-anchor="middle" x="1897" y="-182.5" font-family="Helvetica,sans-Serif" font-size="10.00">QString</text>
</g>
<!-- Node25&#45;&gt;Node26 -->
<g id="edge60" class="edge"><title>Node25&#45;&gt;Node26</title>
<path fill="none" stroke="midnightblue" d="M1941.67,-304.367C1924.85,-297.001 1905.8,-285.344 1896,-268 1885.2,-248.882 1887.61,-223.117 1891.33,-205.391"/>
<polygon fill="midnightblue" stroke="midnightblue" points="1894.77,-206.067 1893.71,-195.525 1887.96,-204.425 1894.77,-206.067"/>
</g>
<!-- Node27 -->
<g id="node58" class="node"><title>Node27</title>
<polygon fill="white" stroke="#bfbfbf" points="2051,-239.5 2051,-260.5 2091,-260.5 2091,-239.5 2051,-239.5"/>
<text text-anchor="middle" x="2071" y="-247.5" font-family="Helvetica,sans-Serif" font-size="10.00">QFile</text>
</g>
<!-- Node25&#45;&gt;Node27 -->
<g id="edge62" class="edge"><title>Node25&#45;&gt;Node27</title>
<path fill="none" stroke="midnightblue" d="M1990.02,-304.267C2005.41,-293.949 2028.89,-278.216 2046.61,-266.342"/>
<polygon fill="midnightblue" stroke="midnightblue" points="2048.92,-269.008 2055.28,-260.534 2045.02,-263.193 2048.92,-269.008"/>
</g>
<!-- Node29 -->
<g id="node62" class="node"><title>Node29</title>
<a xlink:href="../../d5/dba/_u_b_dock_palette_widget_8h.html" target="_top" xlink:title="UBDockPaletteWidget.h">
<polygon fill="white" stroke="black" points="1725,-239.5 1725,-260.5 1849,-260.5 1849,-239.5 1725,-239.5"/>
<text text-anchor="middle" x="1787" y="-247.5" font-family="Helvetica,sans-Serif" font-size="10.00">UBDockPaletteWidget.h</text>
</a>
</g>
<!-- Node28&#45;&gt;Node29 -->
<g id="edge66" class="edge"><title>Node28&#45;&gt;Node29</title>
<path fill="none" stroke="midnightblue" d="M1696,-304.267C1713.62,-293.76 1740.66,-277.637 1760.68,-265.692"/>
<polygon fill="midnightblue" stroke="midnightblue" points="1762.54,-268.662 1769.34,-260.534 1758.95,-262.649 1762.54,-268.662"/>
</g>
<!-- Node29&#45;&gt;Node26 -->
<g id="edge72" class="edge"><title>Node29&#45;&gt;Node26</title>
<path fill="none" stroke="midnightblue" d="M1805.16,-239.267C1822.94,-228.76 1850.23,-212.637 1870.44,-200.692"/>
<polygon fill="midnightblue" stroke="midnightblue" points="1872.35,-203.634 1879.17,-195.534 1868.78,-197.608 1872.35,-203.634"/>
</g>
<!-- Node30 -->
<g id="node64" class="node"><title>Node30</title>
<polygon fill="white" stroke="#bfbfbf" points="1368.5,-58.5 1368.5,-79.5 1423.5,-79.5 1423.5,-58.5 1368.5,-58.5"/>
<text text-anchor="middle" x="1396" y="-66.5" font-family="Helvetica,sans-Serif" font-size="10.00">QWidget</text>
</g>
<!-- Node29&#45;&gt;Node30 -->
<g id="edge68" class="edge"><title>Node29&#45;&gt;Node30</title>
<path fill="none" stroke="midnightblue" d="M1797.06,-239.449C1806.05,-229.247 1818.61,-212.889 1824,-196 1834.81,-162.126 1848.73,-142.477 1825,-116 1799.09,-87.1006 1534.09,-74.193 1434,-70.3221"/>
<polygon fill="midnightblue" stroke="midnightblue" points="1433.86,-66.8144 1423.73,-69.9346 1433.6,-73.8094 1433.86,-66.8144"/>
</g>
<!-- Node31 -->
<g id="node66" class="node"><title>Node31</title>
<polygon fill="white" stroke="#bfbfbf" points="1758.5,-174.5 1758.5,-195.5 1815.5,-195.5 1815.5,-174.5 1758.5,-174.5"/>
<text text-anchor="middle" x="1787" y="-182.5" font-family="Helvetica,sans-Serif" font-size="10.00">QPixmap</text>
</g>
<!-- Node29&#45;&gt;Node31 -->
<g id="edge70" class="edge"><title>Node29&#45;&gt;Node31</title>
<path fill="none" stroke="midnightblue" d="M1787,-239.267C1787,-230.18 1787,-216.892 1787,-205.74"/>
<polygon fill="midnightblue" stroke="midnightblue" points="1790.5,-205.534 1787,-195.534 1783.5,-205.534 1790.5,-205.534"/>
</g>
<!-- Node33 -->
<g id="node71" class="node"><title>Node33</title>
<a xlink:href="../../d3/df5/_u_b_teacher_guide_widgets_tools_8h.html" target="_top" xlink:title="UBTeacherGuideWidgetsTools.h">
<polygon fill="white" stroke="black" points="1093,-239.5 1093,-260.5 1253,-260.5 1253,-239.5 1093,-239.5"/>
<text text-anchor="middle" x="1173" y="-247.5" font-family="Helvetica,sans-Serif" font-size="10.00">UBTeacherGuideWidgetsTools.h</text>
</a>
</g>
<!-- Node32&#45;&gt;Node33 -->
<g id="edge76" class="edge"><title>Node32&#45;&gt;Node33</title>
<path fill="none" stroke="midnightblue" d="M1772.26,-305.031C1769.47,-304.67 1766.71,-304.325 1764,-304 1587.24,-282.805 1379.86,-265.621 1263.71,-256.689"/>
<polygon fill="midnightblue" stroke="midnightblue" points="1263.69,-253.177 1253.45,-255.903 1263.15,-260.157 1263.69,-253.177"/>
</g>
<!-- Node48 -->
<g id="node113" class="node"><title>Node48</title>
<a xlink:href="../../d6/dbb/_i_data_storage_8h.html" target="_top" xlink:title="interfaces/IDataStorage.h">
<polygon fill="white" stroke="black" points="1905,-239.5 1905,-260.5 2033,-260.5 2033,-239.5 1905,-239.5"/>
<text text-anchor="middle" x="1969" y="-247.5" font-family="Helvetica,sans-Serif" font-size="10.00">interfaces/IDataStorage.h</text>
</a>
</g>
<!-- Node32&#45;&gt;Node48 -->
<g id="edge130" class="edge"><title>Node32&#45;&gt;Node48</title>
<path fill="none" stroke="midnightblue" d="M1859.34,-304.412C1880.84,-293.741 1914.24,-277.172 1938.53,-265.12"/>
<polygon fill="midnightblue" stroke="midnightblue" points="1940.27,-268.164 1947.67,-260.584 1937.16,-261.893 1940.27,-268.164"/>
</g>
<!-- Node33&#45;&gt;Node6 -->
<g id="edge78" class="edge"><title>Node33&#45;&gt;Node6</title>
<path fill="none" stroke="midnightblue" d="M1092.91,-242.705C1010.06,-234.394 877.194,-218.924 764,-196 762.906,-195.778 761.798,-195.543 760.681,-195.297"/>
<polygon fill="midnightblue" stroke="midnightblue" points="761.1,-191.798 750.558,-192.85 759.455,-198.602 761.1,-191.798"/>
</g>
<!-- Node33&#45;&gt;Node11 -->
<g id="edge84" class="edge"><title>Node33&#45;&gt;Node11</title>
<path fill="none" stroke="midnightblue" d="M1092.73,-244.736C1006.5,-237.778 876.298,-223.103 835,-196 817.364,-184.426 805.384,-163.067 798.432,-147.167"/>
<polygon fill="midnightblue" stroke="midnightblue" points="801.581,-145.617 794.581,-137.664 795.093,-148.246 801.581,-145.617"/>
</g>
<!-- Node33&#45;&gt;Node13 -->
<g id="edge90" class="edge"><title>Node33&#45;&gt;Node13</title>
<path fill="none" stroke="midnightblue" d="M1092.64,-242.918C1001.34,-234.029 858.593,-217.326 809,-196 781.258,-184.07 754.74,-161.164 738.201,-145.024"/>
<polygon fill="midnightblue" stroke="midnightblue" points="740.46,-142.333 730.921,-137.722 735.503,-147.275 740.46,-142.333"/>
</g>
<!-- Node33&#45;&gt;Node17 -->
<g id="edge94" class="edge"><title>Node33&#45;&gt;Node17</title>
<path fill="none" stroke="midnightblue" d="M1179.67,-239.386C1188.78,-223.405 1202.32,-193.013 1187,-174 1185.72,-172.407 1090.19,-152.059 1026.62,-138.664"/>
<polygon fill="midnightblue" stroke="midnightblue" points="1027.22,-135.214 1016.71,-136.578 1025.78,-142.063 1027.22,-135.214"/>
</g>
<!-- Node34 -->
<g id="node74" class="node"><title>Node34</title>
<polygon fill="white" stroke="#bfbfbf" points="1456,-174.5 1456,-195.5 1550,-195.5 1550,-174.5 1456,-174.5"/>
<text text-anchor="middle" x="1503" y="-182.5" font-family="Helvetica,sans-Serif" font-size="10.00">QTreeWidgetItem</text>
</g>
<!-- Node33&#45;&gt;Node34 -->
<g id="edge80" class="edge"><title>Node33&#45;&gt;Node34</title>
<path fill="none" stroke="midnightblue" d="M1226.39,-239.484C1286.61,-227.623 1384.17,-208.407 1445.88,-196.251"/>
<polygon fill="midnightblue" stroke="midnightblue" points="1446.71,-199.656 1455.84,-194.289 1445.35,-192.788 1446.71,-199.656"/>
</g>
<!-- Node35 -->
<g id="node76" class="node"><title>Node35</title>
<polygon fill="white" stroke="#bfbfbf" points="1567.5,-174.5 1567.5,-195.5 1628.5,-195.5 1628.5,-174.5 1567.5,-174.5"/>
<text text-anchor="middle" x="1598" y="-182.5" font-family="Helvetica,sans-Serif" font-size="10.00">QTextEdit</text>
</g>
<!-- Node33&#45;&gt;Node35 -->
<g id="edge82" class="edge"><title>Node33&#45;&gt;Node35</title>
<path fill="none" stroke="midnightblue" d="M1253.02,-242.017C1329.17,-233.689 1447.05,-218.902 1557.46,-196.127"/>
<polygon fill="midnightblue" stroke="midnightblue" points="1558.37,-199.514 1567.44,-194.043 1556.94,-192.662 1558.37,-199.514"/>
</g>
<!-- Node36 -->
<g id="node79" class="node"><title>Node36</title>
<polygon fill="white" stroke="#bfbfbf" points="1646,-174.5 1646,-195.5 1740,-195.5 1740,-174.5 1646,-174.5"/>
<text text-anchor="middle" x="1693" y="-182.5" font-family="Helvetica,sans-Serif" font-size="10.00">QDragEnterEvent</text>
</g>
<!-- Node33&#45;&gt;Node36 -->
<g id="edge86" class="edge"><title>Node33&#45;&gt;Node36</title>
<path fill="none" stroke="midnightblue" d="M1253.31,-242.575C1343.86,-233.77 1495.66,-217.703 1635.92,-196.077"/>
<polygon fill="midnightblue" stroke="midnightblue" points="1636.65,-199.505 1645.99,-194.51 1635.57,-192.588 1636.65,-199.505"/>
</g>
<!-- Node37 -->
<g id="node81" class="node"><title>Node37</title>
<polygon fill="white" stroke="#bfbfbf" points="843.5,-174.5 843.5,-195.5 914.5,-195.5 914.5,-174.5 843.5,-174.5"/>
<text text-anchor="middle" x="879" y="-182.5" font-family="Helvetica,sans-Serif" font-size="10.00">QDropEvent</text>
</g>
<!-- Node33&#45;&gt;Node37 -->
<g id="edge88" class="edge"><title>Node33&#45;&gt;Node37</title>
<path fill="none" stroke="midnightblue" d="M1121.66,-239.416C1073.22,-229.316 998.324,-213.407 924.458,-196.295"/>
<polygon fill="midnightblue" stroke="midnightblue" points="925.051,-192.84 914.518,-193.984 923.465,-199.658 925.051,-192.84"/>
</g>
<!-- Node38 -->
<g id="node84" class="node"><title>Node38</title>
<polygon fill="white" stroke="#bfbfbf" points="931.5,-174.5 931.5,-195.5 1000.5,-195.5 1000.5,-174.5 931.5,-174.5"/>
<text text-anchor="middle" x="966" y="-182.5" font-family="Helvetica,sans-Serif" font-size="10.00">QMimeData</text>
</g>
<!-- Node33&#45;&gt;Node38 -->
<g id="edge92" class="edge"><title>Node33&#45;&gt;Node38</title>
<path fill="none" stroke="midnightblue" d="M1139.28,-239.412C1103.95,-228.316 1048.3,-210.843 1009.64,-198.702"/>
<polygon fill="midnightblue" stroke="midnightblue" points="1010.29,-195.24 999.704,-195.584 1008.2,-201.919 1010.29,-195.24"/>
</g>
<!-- Node39 -->
<g id="node87" class="node"><title>Node39</title>
<polygon fill="white" stroke="#bfbfbf" points="1018,-174.5 1018,-195.5 1084,-195.5 1084,-174.5 1018,-174.5"/>
<text text-anchor="middle" x="1051" y="-182.5" font-family="Helvetica,sans-Serif" font-size="10.00">QWebView</text>
</g>
<!-- Node33&#45;&gt;Node39 -->
<g id="edge96" class="edge"><title>Node33&#45;&gt;Node39</title>
<path fill="none" stroke="midnightblue" d="M1153.13,-239.412C1133.28,-228.836 1102.55,-212.465 1079.98,-200.441"/>
<polygon fill="midnightblue" stroke="midnightblue" points="1081.34,-197.197 1070.86,-195.584 1078.04,-203.375 1081.34,-197.197"/>
</g>
<!-- Node40 -->
<g id="node89" class="node"><title>Node40</title>
<polygon fill="white" stroke="#bfbfbf" points="1101.5,-174.5 1101.5,-195.5 1178.5,-195.5 1178.5,-174.5 1101.5,-174.5"/>
<text text-anchor="middle" x="1140" y="-182.5" font-family="Helvetica,sans-Serif" font-size="10.00">QFocusEvent</text>
</g>
<!-- Node33&#45;&gt;Node40 -->
<g id="edge98" class="edge"><title>Node33&#45;&gt;Node40</title>
<path fill="none" stroke="midnightblue" d="M1167.55,-239.267C1162.79,-229.896 1155.77,-216.057 1150,-204.7"/>
<polygon fill="midnightblue" stroke="midnightblue" points="1153,-202.866 1145.35,-195.534 1146.75,-206.035 1153,-202.866"/>
</g>
<!-- Node41 -->
<g id="node91" class="node"><title>Node41</title>
<polygon fill="white" stroke="#bfbfbf" points="1737.5,-116.5 1737.5,-137.5 1816.5,-137.5 1816.5,-116.5 1737.5,-116.5"/>
<text text-anchor="middle" x="1777" y="-124.5" font-family="Helvetica,sans-Serif" font-size="10.00">QMouseEvent</text>
</g>
<!-- Node33&#45;&gt;Node41 -->
<g id="edge100" class="edge"><title>Node33&#45;&gt;Node41</title>
<path fill="none" stroke="midnightblue" d="M1244.1,-239.464C1291.83,-231.016 1355.51,-217.045 1409,-196 1427.16,-188.855 1428.51,-180.248 1447,-174 1563.66,-134.576 1602.63,-158.832 1727.33,-138.137"/>
<polygon fill="midnightblue" stroke="midnightblue" points="1727.99,-141.574 1737.25,-136.426 1726.8,-134.676 1727.99,-141.574"/>
</g>
<!-- Node42 -->
<g id="node93" class="node"><title>Node42</title>
<a xlink:href="../../d5/dc0/_u_b_media_widget_8h.html" target="_top" xlink:title="customWidgets/UBMediaWidget.h">
<polygon fill="white" stroke="black" points="1233.5,-174.5 1233.5,-195.5 1400.5,-195.5 1400.5,-174.5 1233.5,-174.5"/>
<text text-anchor="middle" x="1317" y="-182.5" font-family="Helvetica,sans-Serif" font-size="10.00">customWidgets/UBMediaWidget.h</text>
</a>
</g>
<!-- Node33&#45;&gt;Node42 -->
<g id="edge102" class="edge"><title>Node33&#45;&gt;Node42</title>
<path fill="none" stroke="midnightblue" d="M1196.46,-239.412C1220.31,-228.647 1257.45,-211.878 1284.21,-199.801"/>
<polygon fill="midnightblue" stroke="midnightblue" points="1285.88,-202.888 1293.55,-195.584 1283,-196.508 1285.88,-202.888"/>
</g>
<!-- Node42&#45;&gt;Node11 -->
<g id="edge110" class="edge"><title>Node42&#45;&gt;Node11</title>
<path fill="none" stroke="midnightblue" d="M1233.24,-177.549C1107.61,-166.305 879.868,-145.634 824.452,-137.506"/>
<polygon fill="midnightblue" stroke="midnightblue" points="825.038,-134.056 814.588,-135.804 823.848,-140.954 825.038,-134.056"/>
</g>
<!-- Node42&#45;&gt;Node15 -->
<g id="edge106" class="edge"><title>Node42&#45;&gt;Node15</title>
<path fill="none" stroke="midnightblue" d="M1233.48,-177.956C1154.58,-170.669 1032.78,-157.79 918.619,-138.147"/>
<polygon fill="midnightblue" stroke="midnightblue" points="919.11,-134.68 908.657,-136.412 917.909,-141.576 919.11,-134.68"/>
</g>
<!-- Node42&#45;&gt;Node16 -->
<g id="edge108" class="edge"><title>Node42&#45;&gt;Node16</title>
<path fill="none" stroke="midnightblue" d="M1272.81,-174.497C1230.26,-164.381 1166.03,-149.113 1121.94,-138.634"/>
<polygon fill="midnightblue" stroke="midnightblue" points="1122.57,-135.185 1112.03,-136.277 1120.95,-141.995 1122.57,-135.185"/>
</g>
<!-- Node42&#45;&gt;Node17 -->
<g id="edge116" class="edge"><title>Node42&#45;&gt;Node17</title>
<path fill="none" stroke="midnightblue" d="M1246.35,-174.466C1189.56,-165.805 1107.46,-152.856 1026.96,-138.31"/>
<polygon fill="midnightblue" stroke="midnightblue" points="1027.1,-134.779 1016.64,-136.435 1025.85,-141.667 1027.1,-134.779"/>
</g>
<!-- Node42&#45;&gt;Node30 -->
<g id="edge104" class="edge"><title>Node42&#45;&gt;Node30</title>
<path fill="none" stroke="midnightblue" d="M1336.18,-174.469C1349.51,-166.21 1366.66,-153.529 1377,-138 1386.66,-123.496 1391.44,-104.174 1393.78,-89.6668"/>
<polygon fill="midnightblue" stroke="midnightblue" points="1397.26,-90.0517 1395.14,-79.671 1390.33,-89.1075 1397.26,-90.0517"/>
</g>
<!-- Node42&#45;&gt;Node41 -->
<g id="edge114" class="edge"><title>Node42&#45;&gt;Node41</title>
<path fill="none" stroke="midnightblue" d="M1400.84,-175.494C1507.55,-163.389 1682.72,-143.489 1727.27,-137.837"/>
<polygon fill="midnightblue" stroke="midnightblue" points="1727.82,-141.294 1737.26,-136.468 1726.87,-134.359 1727.82,-141.294"/>
</g>
<!-- Node43 -->
<g id="node99" class="node"><title>Node43</title>
<polygon fill="white" stroke="#bfbfbf" points="1423.5,-116.5 1423.5,-137.5 1472.5,-137.5 1472.5,-116.5 1423.5,-116.5"/>
<text text-anchor="middle" x="1448" y="-124.5" font-family="Helvetica,sans-Serif" font-size="10.00">QSlider</text>
</g>
<!-- Node42&#45;&gt;Node43 -->
<g id="edge112" class="edge"><title>Node42&#45;&gt;Node43</title>
<path fill="none" stroke="midnightblue" d="M1340.72,-174.497C1361.37,-165.356 1391.52,-152.008 1414.6,-141.788"/>
<polygon fill="midnightblue" stroke="midnightblue" points="1416.28,-144.87 1424.01,-137.621 1413.45,-138.469 1416.28,-144.87"/>
</g>
<!-- Node44 -->
<g id="node103" class="node"><title>Node44</title>
<polygon fill="white" stroke="#bfbfbf" points="1490,-116.5 1490,-137.5 1596,-137.5 1596,-116.5 1490,-116.5"/>
<text text-anchor="middle" x="1543" y="-124.5" font-family="Helvetica,sans-Serif" font-size="10.00">phonon/MediaObject</text>
</g>
<!-- Node42&#45;&gt;Node44 -->
<g id="edge118" class="edge"><title>Node42&#45;&gt;Node44</title>
<path fill="none" stroke="midnightblue" d="M1357.93,-174.497C1395.65,-164.816 1451.76,-150.416 1492.3,-140.01"/>
<polygon fill="midnightblue" stroke="midnightblue" points="1493.18,-143.399 1502,-137.523 1491.44,-136.619 1493.18,-143.399"/>
</g>
<!-- Node45 -->
<g id="node105" class="node"><title>Node45</title>
<polygon fill="white" stroke="#bfbfbf" points="1613.5,-116.5 1613.5,-137.5 1720.5,-137.5 1720.5,-116.5 1613.5,-116.5"/>
<text text-anchor="middle" x="1667" y="-124.5" font-family="Helvetica,sans-Serif" font-size="10.00">phonon/VideoWidget</text>
</g>
<!-- Node42&#45;&gt;Node45 -->
<g id="edge120" class="edge"><title>Node42&#45;&gt;Node45</title>
<path fill="none" stroke="midnightblue" d="M1383.1,-174.479C1439.22,-165.485 1522.17,-152.049 1603.35,-138.267"/>
<polygon fill="midnightblue" stroke="midnightblue" points="1603.97,-141.712 1613.24,-136.585 1602.79,-134.812 1603.97,-141.712"/>
</g>
<!-- Node46 -->
<g id="node107" class="node"><title>Node46</title>
<polygon fill="white" stroke="#bfbfbf" points="1263.5,-116.5 1263.5,-137.5 1368.5,-137.5 1368.5,-116.5 1263.5,-116.5"/>
<text text-anchor="middle" x="1316" y="-124.5" font-family="Helvetica,sans-Serif" font-size="10.00">phonon/AudioOutput</text>
</g>
<!-- Node42&#45;&gt;Node46 -->
<g id="edge122" class="edge"><title>Node42&#45;&gt;Node46</title>
<path fill="none" stroke="midnightblue" d="M1316.82,-174.362C1316.69,-166.922 1316.51,-156.743 1316.36,-147.728"/>
<polygon fill="midnightblue" stroke="midnightblue" points="1319.85,-147.509 1316.18,-137.571 1312.86,-147.63 1319.85,-147.509"/>
</g>
<!-- Node47 -->
<g id="node109" class="node"><title>Node47</title>
<a xlink:href="../../d7/d31/_u_b_actionable_widget_8h.html" target="_top" xlink:title="UBActionableWidget.h">
<polygon fill="white" stroke="red" points="1130,-116.5 1130,-137.5 1246,-137.5 1246,-116.5 1130,-116.5"/>
<text text-anchor="middle" x="1188" y="-124.5" font-family="Helvetica,sans-Serif" font-size="10.00">UBActionableWidget.h</text>
</a>
</g>
<!-- Node42&#45;&gt;Node47 -->
<g id="edge124" class="edge"><title>Node42&#45;&gt;Node47</title>
<path fill="none" stroke="midnightblue" d="M1293.64,-174.497C1273.31,-165.356 1243.62,-152.008 1220.89,-141.788"/>
<polygon fill="midnightblue" stroke="midnightblue" points="1222.18,-138.53 1211.62,-137.621 1219.31,-144.914 1222.18,-138.53"/>
</g>
<!-- Node47&#45;&gt;Node12 -->
<g id="edge128" class="edge"><title>Node47&#45;&gt;Node12</title>
<path fill="none" stroke="midnightblue" d="M1140.55,-116.497C1093.29,-106.035 1021.13,-90.0603 973.764,-79.5736"/>
<polygon fill="midnightblue" stroke="midnightblue" points="974.276,-76.1024 963.756,-77.3582 972.763,-82.937 974.276,-76.1024"/>
</g>
<!-- Node47&#45;&gt;Node30 -->
<g id="edge126" class="edge"><title>Node47&#45;&gt;Node30</title>
<path fill="none" stroke="midnightblue" d="M1225.67,-116.497C1263.23,-106.023 1320.6,-90.0252 1358.2,-79.5391"/>
<polygon fill="midnightblue" stroke="midnightblue" points="1359.56,-82.7943 1368.25,-76.7369 1357.68,-76.0515 1359.56,-82.7943"/>
</g>
<!-- Node48&#45;&gt;Node26 -->
<g id="edge132" class="edge"><title>Node48&#45;&gt;Node26</title>
<path fill="none" stroke="midnightblue" d="M1957.11,-239.267C1946,-229.233 1929.21,-214.078 1916.2,-202.331"/>
<polygon fill="midnightblue" stroke="midnightblue" points="1918.44,-199.637 1908.67,-195.534 1913.75,-204.833 1918.44,-199.637"/>
</g>
<!-- Node49 -->
<g id="node116" class="node"><title>Node49</title>
<polygon fill="white" stroke="#bfbfbf" points="1947.5,-174.5 1947.5,-195.5 1990.5,-195.5 1990.5,-174.5 1947.5,-174.5"/>
<text text-anchor="middle" x="1969" y="-182.5" font-family="Helvetica,sans-Serif" font-size="10.00">QMap</text>
</g>
<!-- Node48&#45;&gt;Node49 -->
<g id="edge134" class="edge"><title>Node48&#45;&gt;Node49</title>
<path fill="none" stroke="midnightblue" d="M1969,-239.267C1969,-230.18 1969,-216.892 1969,-205.74"/>
<polygon fill="midnightblue" stroke="midnightblue" points="1972.5,-205.534 1969,-195.534 1965.5,-205.534 1972.5,-205.534"/>
</g>
</g>
</svg>
