<?xml version="1.0" encoding="UTF-8" standalone="no"?>
<!DOCTYPE svg PUBLIC "-//W3C//DTD SVG 1.1//EN"
 "http://www.w3.org/Graphics/SVG/1.1/DTD/svg11.dtd">
<!-- Generated by graphviz version 2.26.3 (20100126.1600)
 -->
<!-- Title: UBBoardController::copy Pages: 1 -->
<svg width="292pt" height="94pt"
 viewBox="0.00 0.00 292.00 94.00" xmlns="http://www.w3.org/2000/svg" xmlns:xlink="http://www.w3.org/1999/xlink">
<g id="graph1" class="graph" transform="scale(1 1) rotate(0) translate(4 90)">
<title>UBBoardController::copy</title>
<polygon fill="white" stroke="white" points="-4,5 -4,-90 289,-90 289,5 -4,5"/>
<!-- Node1 -->
<g id="node1" class="node"><title>Node1</title>
<polygon fill="#bfbfbf" stroke="black" points="0.5,-32.5 0.5,-53.5 125.5,-53.5 125.5,-32.5 0.5,-32.5"/>
<text text-anchor="middle" x="63" y="-40.5" font-family="Helvetica,sans-Serif" font-size="10.00">UBBoardController::copy</text>
</g>
<!-- Node2 -->
<g id="node3" class="node"><title>Node2</title>
<a xlink:href="../../d7/d62/class_u_b_board_controller.html#aa6b980ad198948e01707821585f1ed23" target="_top" xlink:title="UBBoardController:\l:addScene">
<polygon fill="white" stroke="black" points="172.5,-52 172.5,-86 273.5,-86 273.5,-52 172.5,-52"/>
<text text-anchor="start" x="180.5" y="-73" font-family="Helvetica,sans-Serif" font-size="10.00">UBBoardController:</text>
<text text-anchor="middle" x="223" y="-60" font-family="Helvetica,sans-Serif" font-size="10.00">:addScene</text>
</a>
</g>
<!-- Node1&#45;&gt;Node2 -->
<g id="edge2" class="edge"><title>Node1&#45;&gt;Node2</title>
<path fill="none" stroke="midnightblue" d="M135.992,-54.8612C148.245,-56.8522 160.718,-58.8792 172.251,-60.7533"/>
<polygon fill="midnightblue" stroke="midnightblue" points="136.209,-51.3506 125.777,-53.2013 135.086,-58.26 136.209,-51.3506"/>
</g>
<!-- Node3 -->
<g id="node5" class="node"><title>Node3</title>
<a xlink:href="../../da/d14/class_u_b_application_controller.html#a8f2c3d6040b3d7ad8723aeb9f618d86a" target="_top" xlink:title="UBApplicationController\l::actionCopy">
<polygon fill="white" stroke="black" points="162.5,-0 162.5,-34 283.5,-34 283.5,-0 162.5,-0"/>
<text text-anchor="start" x="170.5" y="-21" font-family="Helvetica,sans-Serif" font-size="10.00">UBApplicationController</text>
<text text-anchor="middle" x="223" y="-8" font-family="Helvetica,sans-Serif" font-size="10.00">::actionCopy</text>
</a>
</g>
<!-- Node1&#45;&gt;Node3 -->
<g id="edge4" class="edge"><title>Node1&#45;&gt;Node3</title>
<path fill="none" stroke="midnightblue" d="M135.787,-31.1721C144.72,-29.7205 153.774,-28.2492 162.498,-26.8315"/>
<polygon fill="midnightblue" stroke="midnightblue" points="135.086,-27.74 125.777,-32.7987 136.209,-34.6494 135.086,-27.74"/>
</g>
</g>
</svg>
