<?xml version="1.0" encoding="UTF-8" standalone="no"?>
<!DOCTYPE svg PUBLIC "-//W3C//DTD SVG 1.1//EN"
 "http://www.w3.org/Graphics/SVG/1.1/DTD/svg11.dtd">
<!-- Generated by graphviz version 2.26.3 (20100126.1600)
 -->
<!-- Title: UBBoardController::centerOn Pages: 1 -->
<svg width="1118pt" height="264pt"
 viewBox="0.00 0.00 1118.00 264.00" xmlns="http://www.w3.org/2000/svg" xmlns:xlink="http://www.w3.org/1999/xlink">
<g id="graph1" class="graph" transform="scale(1 1) rotate(0) translate(4 260)">
<title>UBBoardController::centerOn</title>
<polygon fill="white" stroke="white" points="-4,5 -4,-260 1115,-260 1115,5 -4,5"/>
<!-- Node1 -->
<g id="node1" class="node"><title>Node1</title>
<polygon fill="#bfbfbf" stroke="black" points="0.5,-163 0.5,-197 101.5,-197 101.5,-163 0.5,-163"/>
<text text-anchor="start" x="8.5" y="-184" font-family="Helvetica,sans-Serif" font-size="10.00">UBBoardController:</text>
<text text-anchor="middle" x="51" y="-171" font-family="Helvetica,sans-Serif" font-size="10.00">:centerOn</text>
</g>
<!-- Node2 -->
<g id="node3" class="node"><title>Node2</title>
<a xlink:href="../../d5/d2b/class_u_b_widget_uniboard_a_p_i.html#a7e1a78f50c82b289fcec72f357394a05" target="_top" xlink:title="UBWidgetUniboardAPI\l::centerOn">
<polygon fill="white" stroke="black" points="138.5,-189 138.5,-223 255.5,-223 255.5,-189 138.5,-189"/>
<text text-anchor="start" x="146.5" y="-210" font-family="Helvetica,sans-Serif" font-size="10.00">UBWidgetUniboardAPI</text>
<text text-anchor="middle" x="197" y="-197" font-family="Helvetica,sans-Serif" font-size="10.00">::centerOn</text>
</a>
</g>
<!-- Node1&#45;&gt;Node2 -->
<g id="edge2" class="edge"><title>Node1&#45;&gt;Node2</title>
<path fill="none" stroke="midnightblue" d="M111.549,-190.783C120.434,-192.365 129.573,-193.992 138.418,-195.568"/>
<polygon fill="midnightblue" stroke="midnightblue" points="112.113,-187.328 101.654,-189.021 110.885,-194.22 112.113,-187.328"/>
</g>
<!-- Node3 -->
<g id="node5" class="node"><title>Node3</title>
<a xlink:href="../../d7/d62/class_u_b_board_controller.html#a05fa2d82c7201cf4d833b4a6366db700" target="_top" xlink:title="UBBoardController:\l:centerRestore">
<polygon fill="white" stroke="black" points="146.5,-137 146.5,-171 247.5,-171 247.5,-137 146.5,-137"/>
<text text-anchor="start" x="154.5" y="-158" font-family="Helvetica,sans-Serif" font-size="10.00">UBBoardController:</text>
<text text-anchor="middle" x="197" y="-145" font-family="Helvetica,sans-Serif" font-size="10.00">:centerRestore</text>
</a>
</g>
<!-- Node1&#45;&gt;Node3 -->
<g id="edge4" class="edge"><title>Node1&#45;&gt;Node3</title>
<path fill="none" stroke="midnightblue" d="M111.676,-169.195C123.24,-167.135 135.228,-165 146.436,-163.005"/>
<polygon fill="midnightblue" stroke="midnightblue" points="110.885,-165.78 101.654,-170.979 112.113,-172.672 110.885,-165.78"/>
</g>
<!-- Node4 -->
<g id="node7" class="node"><title>Node4</title>
<a xlink:href="../../d7/d62/class_u_b_board_controller.html#a6bba5ca7dd09235d5b31b19ad6e71cec" target="_top" xlink:title="UBBoardController:\l:stylusToolDoubleClicked">
<polygon fill="white" stroke="black" points="442,-222 442,-256 570,-256 570,-222 442,-222"/>
<text text-anchor="start" x="450" y="-243" font-family="Helvetica,sans-Serif" font-size="10.00">UBBoardController:</text>
<text text-anchor="middle" x="506" y="-230" font-family="Helvetica,sans-Serif" font-size="10.00">:stylusToolDoubleClicked</text>
</a>
</g>
<!-- Node3&#45;&gt;Node4 -->
<g id="edge6" class="edge"><title>Node3&#45;&gt;Node4</title>
<path fill="none" stroke="midnightblue" d="M257.439,-170.626C311.305,-185.443 389.798,-207.035 444.103,-221.973"/>
<polygon fill="midnightblue" stroke="midnightblue" points="258.249,-167.219 247.679,-167.941 256.393,-173.968 258.249,-167.219"/>
</g>
<!-- Node5 -->
<g id="node9" class="node"><title>Node5</title>
<a xlink:href="../../d7/d62/class_u_b_board_controller.html#a0df0eca517bd4e5754f49ce1395ec1b1" target="_top" xlink:title="UBBoardController:\l:zoomRestore">
<polygon fill="white" stroke="black" points="292.5,-137 292.5,-171 393.5,-171 393.5,-137 292.5,-137"/>
<text text-anchor="start" x="300.5" y="-158" font-family="Helvetica,sans-Serif" font-size="10.00">UBBoardController:</text>
<text text-anchor="middle" x="343" y="-145" font-family="Helvetica,sans-Serif" font-size="10.00">:zoomRestore</text>
</a>
</g>
<!-- Node3&#45;&gt;Node5 -->
<g id="edge8" class="edge"><title>Node3&#45;&gt;Node5</title>
<path fill="none" stroke="midnightblue" d="M257.676,-154C269.24,-154 281.228,-154 292.436,-154"/>
<polygon fill="midnightblue" stroke="midnightblue" points="257.654,-150.5 247.654,-154 257.654,-157.5 257.654,-150.5"/>
</g>
<!-- Node13 -->
<g id="node27" class="node"><title>Node13</title>
<a xlink:href="../../dc/d38/class_u_b_board_palette_manager.html#aa645559babafcde7a56e954bea0fec5d" target="_top" xlink:title="UBBoardPaletteManager\l::panButtonReleased">
<polygon fill="white" stroke="black" points="443.5,-38 443.5,-72 568.5,-72 568.5,-38 443.5,-38"/>
<text text-anchor="start" x="451.5" y="-59" font-family="Helvetica,sans-Serif" font-size="10.00">UBBoardPaletteManager</text>
<text text-anchor="middle" x="506" y="-46" font-family="Helvetica,sans-Serif" font-size="10.00">::panButtonReleased</text>
</a>
</g>
<!-- Node3&#45;&gt;Node13 -->
<g id="edge28" class="edge"><title>Node3&#45;&gt;Node13</title>
<path fill="none" stroke="midnightblue" d="M257.247,-134.698C314.031,-116.505 398.306,-89.5037 452.701,-72.0764"/>
<polygon fill="midnightblue" stroke="midnightblue" points="256.134,-131.379 247.679,-137.763 258.27,-138.045 256.134,-131.379"/>
</g>
<!-- Node5&#45;&gt;Node4 -->
<g id="edge10" class="edge"><title>Node5&#45;&gt;Node4</title>
<path fill="none" stroke="midnightblue" d="M372.932,-177.222C389.172,-189.053 409.975,-203.009 430,-213 436.489,-216.237 443.477,-219.232 450.495,-221.95"/>
<polygon fill="midnightblue" stroke="midnightblue" points="375.002,-174.4 364.883,-171.261 370.836,-180.025 375.002,-174.4"/>
</g>
<!-- Node6 -->
<g id="node12" class="node"><title>Node6</title>
<a xlink:href="../../dc/d38/class_u_b_board_palette_manager.html#a6cf926e346fc40b30c864e3680489a76" target="_top" xlink:title="UBBoardPaletteManager\l::zoomButtonReleased">
<polygon fill="white" stroke="black" points="443.5,-170 443.5,-204 568.5,-204 568.5,-170 443.5,-170"/>
<text text-anchor="start" x="451.5" y="-191" font-family="Helvetica,sans-Serif" font-size="10.00">UBBoardPaletteManager</text>
<text text-anchor="middle" x="506" y="-178" font-family="Helvetica,sans-Serif" font-size="10.00">::zoomButtonReleased</text>
</a>
</g>
<!-- Node5&#45;&gt;Node6 -->
<g id="edge12" class="edge"><title>Node5&#45;&gt;Node6</title>
<path fill="none" stroke="midnightblue" d="M403.828,-166.315C416.712,-168.923 430.334,-171.681 443.286,-174.303"/>
<polygon fill="midnightblue" stroke="midnightblue" points="404.176,-162.814 393.681,-164.261 402.787,-169.675 404.176,-162.814"/>
</g>
<!-- Node10 -->
<g id="node21" class="node"><title>Node10</title>
<a xlink:href="../../d1/d78/class_u_b_board_view.html#a9216e870eac1d8f36049186dc8ab1410" target="_top" xlink:title="UBBoardView::keyPressEvent">
<polygon fill="white" stroke="black" points="430.5,-130.5 430.5,-151.5 581.5,-151.5 581.5,-130.5 430.5,-130.5"/>
<text text-anchor="middle" x="506" y="-138.5" font-family="Helvetica,sans-Serif" font-size="10.00">UBBoardView::keyPressEvent</text>
</a>
</g>
<!-- Node5&#45;&gt;Node10 -->
<g id="edge22" class="edge"><title>Node5&#45;&gt;Node10</title>
<path fill="none" stroke="midnightblue" d="M403.664,-149.162C412.322,-148.471 421.316,-147.754 430.219,-147.044"/>
<polygon fill="midnightblue" stroke="midnightblue" points="403.371,-145.674 393.681,-149.958 403.927,-152.652 403.371,-145.674"/>
</g>
<!-- Node11 -->
<g id="node23" class="node"><title>Node11</title>
<a xlink:href="../../db/dbc/class_u_b_zoom_palette.html#a437798f0413c23b772d8d2c164d20593" target="_top" xlink:title="UBZoomPalette::goHundred">
<polygon fill="white" stroke="black" points="436,-90.5 436,-111.5 576,-111.5 576,-90.5 436,-90.5"/>
<text text-anchor="middle" x="506" y="-98.5" font-family="Helvetica,sans-Serif" font-size="10.00">UBZoomPalette::goHundred</text>
</a>
</g>
<!-- Node5&#45;&gt;Node11 -->
<g id="edge24" class="edge"><title>Node5&#45;&gt;Node11</title>
<path fill="none" stroke="midnightblue" d="M394.67,-133.379C406.217,-129.058 418.462,-124.695 430,-121 440.525,-117.629 451.998,-114.389 462.766,-111.535"/>
<polygon fill="midnightblue" stroke="midnightblue" points="393.274,-130.165 385.165,-136.984 395.756,-136.71 393.274,-130.165"/>
</g>
<!-- Node7 -->
<g id="node14" class="node"><title>Node7</title>
<a xlink:href="../../dc/d38/class_u_b_board_palette_manager.html#a10b4f132aa36e4f99495aa9442fbac23" target="_top" xlink:title="UBBoardPaletteManager\l::connectPalettes">
<polygon fill="white" stroke="black" points="816.5,-87 816.5,-121 941.5,-121 941.5,-87 816.5,-87"/>
<text text-anchor="start" x="824.5" y="-108" font-family="Helvetica,sans-Serif" font-size="10.00">UBBoardPaletteManager</text>
<text text-anchor="middle" x="879" y="-95" font-family="Helvetica,sans-Serif" font-size="10.00">::connectPalettes</text>
</a>
</g>
<!-- Node6&#45;&gt;Node7 -->
<g id="edge14" class="edge"><title>Node6&#45;&gt;Node7</title>
<path fill="none" stroke="midnightblue" d="M578.767,-193.992C635.201,-196.896 714.563,-195.404 780,-173 811.713,-162.142 842.457,-137.903 861.055,-121.251"/>
<polygon fill="midnightblue" stroke="midnightblue" points="578.689,-190.481 568.505,-193.402 578.287,-197.47 578.689,-190.481"/>
</g>
<!-- Node9 -->
<g id="node18" class="node"><title>Node9</title>
<a xlink:href="../../dc/d38/class_u_b_board_palette_manager.html#a30956e342957e4ae27f7e37cc8d6bd49" target="_top" xlink:title="UBBoardPaletteManager\l::zoomButtonPressed">
<polygon fill="white" stroke="black" points="636.5,-130 636.5,-164 761.5,-164 761.5,-130 636.5,-130"/>
<text text-anchor="start" x="644.5" y="-151" font-family="Helvetica,sans-Serif" font-size="10.00">UBBoardPaletteManager</text>
<text text-anchor="middle" x="699" y="-138" font-family="Helvetica,sans-Serif" font-size="10.00">::zoomButtonPressed</text>
</a>
</g>
<!-- Node6&#45;&gt;Node9 -->
<g id="edge18" class="edge"><title>Node6&#45;&gt;Node9</title>
<path fill="none" stroke="midnightblue" d="M578.473,-171.98C597.5,-168.036 617.857,-163.817 636.323,-159.99"/>
<polygon fill="midnightblue" stroke="midnightblue" points="577.743,-168.556 568.662,-174.013 579.164,-175.411 577.743,-168.556"/>
</g>
<!-- Node8 -->
<g id="node16" class="node"><title>Node8</title>
<a xlink:href="../../dc/d38/class_u_b_board_palette_manager.html#ab2ca22bf5af16f59e273a72731a138ae" target="_top" xlink:title="UBBoardPaletteManager\l::UBBoardPaletteManager">
<polygon fill="white" stroke="black" points="978.5,-87 978.5,-121 1109.5,-121 1109.5,-87 978.5,-87"/>
<text text-anchor="start" x="986.5" y="-108" font-family="Helvetica,sans-Serif" font-size="10.00">UBBoardPaletteManager</text>
<text text-anchor="middle" x="1044" y="-95" font-family="Helvetica,sans-Serif" font-size="10.00">::UBBoardPaletteManager</text>
</a>
</g>
<!-- Node7&#45;&gt;Node8 -->
<g id="edge16" class="edge"><title>Node7&#45;&gt;Node8</title>
<path fill="none" stroke="midnightblue" d="M952.031,-104C960.78,-104 969.673,-104 978.309,-104"/>
<polygon fill="midnightblue" stroke="midnightblue" points="951.85,-100.5 941.85,-104 951.85,-107.5 951.85,-100.5"/>
</g>
<!-- Node9&#45;&gt;Node7 -->
<g id="edge20" class="edge"><title>Node9&#45;&gt;Node7</title>
<path fill="none" stroke="midnightblue" d="M771.776,-129.615C786.503,-126.096 801.87,-122.426 816.217,-118.998"/>
<polygon fill="midnightblue" stroke="midnightblue" points="770.616,-126.293 761.703,-132.021 772.242,-133.102 770.616,-126.293"/>
</g>
<!-- Node12 -->
<g id="node25" class="node"><title>Node12</title>
<a xlink:href="../../db/dbc/class_u_b_zoom_palette.html#a7f74e9a8df1069509c0ae86bbfec0c57" target="_top" xlink:title="UBZoomPalette::UBZoomPalette">
<polygon fill="white" stroke="black" points="618,-90.5 618,-111.5 780,-111.5 780,-90.5 618,-90.5"/>
<text text-anchor="middle" x="699" y="-98.5" font-family="Helvetica,sans-Serif" font-size="10.00">UBZoomPalette::UBZoomPalette</text>
</a>
</g>
<!-- Node11&#45;&gt;Node12 -->
<g id="edge26" class="edge"><title>Node11&#45;&gt;Node12</title>
<path fill="none" stroke="midnightblue" d="M586.448,-101C596.775,-101 607.355,-101 617.696,-101"/>
<polygon fill="midnightblue" stroke="midnightblue" points="586.223,-97.5001 576.223,-101 586.223,-104.5 586.223,-97.5001"/>
</g>
<!-- Node13&#45;&gt;Node7 -->
<g id="edge30" class="edge"><title>Node13&#45;&gt;Node7</title>
<path fill="none" stroke="midnightblue" d="M578.681,-59.2404C634.098,-63.1148 712.181,-69.9552 780,-81 791.843,-82.9287 804.379,-85.4556 816.405,-88.1267"/>
<polygon fill="midnightblue" stroke="midnightblue" points="578.82,-55.7418 568.604,-58.5511 578.342,-62.7255 578.82,-55.7418"/>
</g>
<!-- Node14 -->
<g id="node30" class="node"><title>Node14</title>
<a xlink:href="../../dc/d38/class_u_b_board_palette_manager.html#a664c10cf1683712e650606d33711b12a" target="_top" xlink:title="UBBoardPaletteManager\l::panButtonPressed">
<polygon fill="white" stroke="black" points="636.5,-0 636.5,-34 761.5,-34 761.5,-0 636.5,-0"/>
<text text-anchor="start" x="644.5" y="-21" font-family="Helvetica,sans-Serif" font-size="10.00">UBBoardPaletteManager</text>
<text text-anchor="middle" x="699" y="-8" font-family="Helvetica,sans-Serif" font-size="10.00">::panButtonPressed</text>
</a>
</g>
<!-- Node13&#45;&gt;Node14 -->
<g id="edge32" class="edge"><title>Node13&#45;&gt;Node14</title>
<path fill="none" stroke="midnightblue" d="M578.735,-40.6792C597.686,-36.9478 617.942,-32.9597 636.323,-29.3406"/>
<polygon fill="midnightblue" stroke="midnightblue" points="577.797,-37.2965 568.662,-42.6625 579.149,-44.1647 577.797,-37.2965"/>
</g>
<!-- Node14&#45;&gt;Node7 -->
<g id="edge34" class="edge"><title>Node14&#45;&gt;Node7</title>
<path fill="none" stroke="midnightblue" d="M756.385,-37.7359C764.396,-40.9852 772.461,-44.4494 780,-48 804.832,-59.6949 831.884,-75.1995 851.426,-86.9289"/>
<polygon fill="midnightblue" stroke="midnightblue" points="757.626,-34.4628 747.04,-34.0279 755.044,-40.9694 757.626,-34.4628"/>
</g>
</g>
</svg>
