<?xml version="1.0" encoding="UTF-8" standalone="no"?>
<!DOCTYPE svg PUBLIC "-//W3C//DTD SVG 1.1//EN"
 "http://www.w3.org/Graphics/SVG/1.1/DTD/svg11.dtd">
<!-- Generated by graphviz version 2.26.3 (20100126.1600)
 -->
<!-- Title: UBBoardController::moveGraphicsWidgetToControlView Pages: 1 -->
<svg width="2024pt" height="724pt"
 viewBox="0.00 0.00 2024.00 724.00" xmlns="http://www.w3.org/2000/svg" xmlns:xlink="http://www.w3.org/1999/xlink">
<g id="graph1" class="graph" transform="scale(1 1) rotate(0) translate(4 720)">
<title>UBBoardController::moveGraphicsWidgetToControlView</title>
<polygon fill="white" stroke="white" points="-4,5 -4,-720 2021,-720 2021,5 -4,5"/>
<!-- Node1 -->
<g id="node1" class="node"><title>Node1</title>
<polygon fill="#bfbfbf" stroke="black" points="0,-322 0,-356 178,-356 178,-322 0,-322"/>
<text text-anchor="start" x="8" y="-343" font-family="Helvetica,sans-Serif" font-size="10.00">UBBoardController:</text>
<text text-anchor="middle" x="89" y="-330" font-family="Helvetica,sans-Serif" font-size="10.00">:moveGraphicsWidgetToControlView</text>
</g>
<!-- Node2 -->
<g id="node3" class="node"><title>Node2</title>
<a xlink:href="../../dc/db2/class_u_b_graphics_scene.html#aa63a9c1b5eb1de5a0d06a0f2b449648a" target="_top" xlink:title="UBGraphicsScene::addGraphics\lWidget">
<polygon fill="white" stroke="black" points="224,-322 224,-356 382,-356 382,-322 224,-322"/>
<text text-anchor="start" x="232" y="-343" font-family="Helvetica,sans-Serif" font-size="10.00">UBGraphicsScene::addGraphics</text>
<text text-anchor="middle" x="303" y="-330" font-family="Helvetica,sans-Serif" font-size="10.00">Widget</text>
</a>
</g>
<!-- Node1&#45;&gt;Node2 -->
<g id="edge2" class="edge"><title>Node1&#45;&gt;Node2</title>
<path fill="none" stroke="midnightblue" d="M188.556,-339C200.386,-339 212.338,-339 223.83,-339"/>
<polygon fill="midnightblue" stroke="midnightblue" points="188.206,-335.5 178.206,-339 188.206,-342.5 188.206,-335.5"/>
</g>
<!-- Node49 -->
<g id="node104" class="node"><title>Node49</title>
<a xlink:href="../../d8/d2c/class_u_b_graphics_widget_item_delegate.html#a2b446e23a250de4f8c162e1411058cb5" target="_top" xlink:title="UBGraphicsWidgetItemDelegate::pin">
<polygon fill="white" stroke="black" points="214,-256.5 214,-277.5 392,-277.5 392,-256.5 214,-256.5"/>
<text text-anchor="middle" x="303" y="-264.5" font-family="Helvetica,sans-Serif" font-size="10.00">UBGraphicsWidgetItemDelegate::pin</text>
</a>
</g>
<!-- Node1&#45;&gt;Node49 -->
<g id="edge110" class="edge"><title>Node1&#45;&gt;Node49</title>
<path fill="none" stroke="midnightblue" d="M149.315,-318.707C189.072,-305.331 239.525,-288.356 271.548,-277.582"/>
<polygon fill="midnightblue" stroke="midnightblue" points="148.077,-315.431 139.715,-321.937 150.309,-322.065 148.077,-315.431"/>
</g>
<!-- Node3 -->
<g id="node5" class="node"><title>Node3</title>
<a xlink:href="../../d7/d62/class_u_b_board_controller.html#af122a3bb14b0ef66b169be9fd0e5a2b3" target="_top" xlink:title="UBBoardController:\l:moveToolWidgetToScene">
<polygon fill="white" stroke="black" points="449,-276 449,-310 581,-310 581,-276 449,-276"/>
<text text-anchor="start" x="457" y="-297" font-family="Helvetica,sans-Serif" font-size="10.00">UBBoardController:</text>
<text text-anchor="middle" x="515" y="-284" font-family="Helvetica,sans-Serif" font-size="10.00">:moveToolWidgetToScene</text>
</a>
</g>
<!-- Node2&#45;&gt;Node3 -->
<g id="edge4" class="edge"><title>Node2&#45;&gt;Node3</title>
<path fill="none" stroke="midnightblue" d="M391.604,-319.775C410.822,-315.605 430.825,-311.264 448.991,-307.323"/>
<polygon fill="midnightblue" stroke="midnightblue" points="390.67,-316.396 381.64,-321.937 392.154,-323.237 390.67,-316.396"/>
</g>
<!-- Node5 -->
<g id="node9" class="node"><title>Node5</title>
<a xlink:href="../../dc/db2/class_u_b_graphics_scene.html#aa86ec061e79ba18c2efe73a6bf10bf33" target="_top" xlink:title="UBGraphicsScene::addApple\lWidget">
<polygon fill="white" stroke="black" points="443,-387 443,-421 587,-421 587,-387 443,-387"/>
<text text-anchor="start" x="451" y="-408" font-family="Helvetica,sans-Serif" font-size="10.00">UBGraphicsScene::addApple</text>
<text text-anchor="middle" x="515" y="-395" font-family="Helvetica,sans-Serif" font-size="10.00">Widget</text>
</a>
</g>
<!-- Node2&#45;&gt;Node5 -->
<g id="edge8" class="edge"><title>Node2&#45;&gt;Node5</title>
<path fill="none" stroke="midnightblue" d="M368.373,-359.044C397.487,-367.97 431.419,-378.374 459.304,-386.923"/>
<polygon fill="midnightblue" stroke="midnightblue" points="369.287,-355.663 358.701,-356.078 367.235,-362.356 369.287,-355.663"/>
</g>
<!-- Node39 -->
<g id="node80" class="node"><title>Node39</title>
<a xlink:href="../../dc/db2/class_u_b_graphics_scene.html#acb26de2926454faf9c5ca66989779d82" target="_top" xlink:title="UBGraphicsScene::addW3CWidget">
<polygon fill="white" stroke="black" points="428.5,-328.5 428.5,-349.5 601.5,-349.5 601.5,-328.5 428.5,-328.5"/>
<text text-anchor="middle" x="515" y="-336.5" font-family="Helvetica,sans-Serif" font-size="10.00">UBGraphicsScene::addW3CWidget</text>
</a>
</g>
<!-- Node2&#45;&gt;Node39 -->
<g id="edge82" class="edge"><title>Node2&#45;&gt;Node39</title>
<path fill="none" stroke="midnightblue" d="M392.578,-339C404.438,-339 416.58,-339 428.389,-339"/>
<polygon fill="midnightblue" stroke="midnightblue" points="392.242,-335.5 382.242,-339 392.242,-342.5 392.242,-335.5"/>
</g>
<!-- Node4 -->
<g id="node7" class="node"><title>Node4</title>
<a xlink:href="../../dc/de3/class_u_b_tool_widget.html#adc43c4c0d6cb3e0f5881df830775b5b7" target="_top" xlink:title="UBToolWidget::mouseRelease\lEvent">
<polygon fill="white" stroke="black" points="641,-155 641,-189 793,-189 793,-155 641,-155"/>
<text text-anchor="start" x="649" y="-176" font-family="Helvetica,sans-Serif" font-size="10.00">UBToolWidget::mouseRelease</text>
<text text-anchor="middle" x="717" y="-163" font-family="Helvetica,sans-Serif" font-size="10.00">Event</text>
</a>
</g>
<!-- Node3&#45;&gt;Node4 -->
<g id="edge6" class="edge"><title>Node3&#45;&gt;Node4</title>
<path fill="none" stroke="midnightblue" d="M590.385,-274.906C594.503,-272.582 598.416,-269.959 602,-267 628.674,-244.978 611.632,-220.387 638,-198 641.962,-194.636 646.373,-191.704 651.027,-189.148"/>
<polygon fill="midnightblue" stroke="midnightblue" points="588.483,-271.942 581.09,-279.531 591.602,-278.209 588.483,-271.942"/>
</g>
<!-- Node6 -->
<g id="node11" class="node"><title>Node6</title>
<a xlink:href="../../d7/d62/class_u_b_board_controller.html#ab6cbc7bda85279e7eee5c5923892dd1a" target="_top" xlink:title="UBBoardController:\l:downloadFinished">
<polygon fill="white" stroke="black" points="866.5,-346 866.5,-380 967.5,-380 967.5,-346 866.5,-346"/>
<text text-anchor="start" x="874.5" y="-367" font-family="Helvetica,sans-Serif" font-size="10.00">UBBoardController:</text>
<text text-anchor="middle" x="917" y="-354" font-family="Helvetica,sans-Serif" font-size="10.00">:downloadFinished</text>
</a>
</g>
<!-- Node5&#45;&gt;Node6 -->
<g id="edge10" class="edge"><title>Node5&#45;&gt;Node6</title>
<path fill="none" stroke="midnightblue" d="M597.258,-422.791C653.85,-432.587 730.354,-439.611 796,-424 831.475,-415.564 868.35,-394.981 891.924,-380.053"/>
<polygon fill="midnightblue" stroke="midnightblue" points="597.747,-419.323 587.286,-421 596.51,-426.212 597.747,-419.323"/>
</g>
<!-- Node38 -->
<g id="node78" class="node"><title>Node38</title>
<a xlink:href="../../dc/db2/class_u_b_graphics_scene.html#aff586f570c8625a51bccef943662a29d" target="_top" xlink:title="UBGraphicsScene::addWidget">
<polygon fill="white" stroke="black" points="642,-393.5 642,-414.5 792,-414.5 792,-393.5 642,-393.5"/>
<text text-anchor="middle" x="717" y="-401.5" font-family="Helvetica,sans-Serif" font-size="10.00">UBGraphicsScene::addWidget</text>
</a>
</g>
<!-- Node5&#45;&gt;Node38 -->
<g id="edge80" class="edge"><title>Node5&#45;&gt;Node38</title>
<path fill="none" stroke="midnightblue" d="M597.199,-404C611.98,-404 627.318,-404 641.885,-404"/>
<polygon fill="midnightblue" stroke="midnightblue" points="597.071,-400.5 587.071,-404 597.071,-407.5 597.071,-400.5"/>
</g>
<!-- Node7 -->
<g id="node13" class="node"><title>Node7</title>
<a xlink:href="../../d7/d62/class_u_b_board_controller.html#aa728cb7c1b979b2d4ae45638a7386dde" target="_top" xlink:title="UBBoardController::init">
<polygon fill="white" stroke="black" points="1067.5,-306.5 1067.5,-327.5 1184.5,-327.5 1184.5,-306.5 1067.5,-306.5"/>
<text text-anchor="middle" x="1126" y="-314.5" font-family="Helvetica,sans-Serif" font-size="10.00">UBBoardController::init</text>
</a>
</g>
<!-- Node6&#45;&gt;Node7 -->
<g id="edge12" class="edge"><title>Node6&#45;&gt;Node7</title>
<path fill="none" stroke="midnightblue" d="M977.705,-349.639C1009.63,-342.612 1048.22,-334.119 1078.03,-327.559"/>
<polygon fill="midnightblue" stroke="midnightblue" points="976.607,-346.297 967.593,-351.865 978.112,-353.133 976.607,-346.297"/>
</g>
<!-- Node10 -->
<g id="node19" class="node"><title>Node10</title>
<a xlink:href="../../d7/d62/class_u_b_board_controller.html#abae2655269e06f72767de71b8513f6be" target="_top" xlink:title="UBBoardController:\l:duplicateItem">
<polygon fill="white" stroke="black" points="1286.5,-534 1286.5,-568 1387.5,-568 1387.5,-534 1286.5,-534"/>
<text text-anchor="start" x="1294.5" y="-555" font-family="Helvetica,sans-Serif" font-size="10.00">UBBoardController:</text>
<text text-anchor="middle" x="1337" y="-542" font-family="Helvetica,sans-Serif" font-size="10.00">:duplicateItem</text>
</a>
</g>
<!-- Node6&#45;&gt;Node10 -->
<g id="edge18" class="edge"><title>Node6&#45;&gt;Node10</title>
<path fill="none" stroke="midnightblue" d="M962.076,-384.38C1046.28,-424.277 1221.53,-507.123 1250,-519 1262.33,-524.144 1275.81,-529.316 1288.39,-533.957"/>
<polygon fill="midnightblue" stroke="midnightblue" points="963.539,-381.2 953.003,-380.08 960.541,-387.525 963.539,-381.2"/>
</g>
<!-- Node22 -->
<g id="node44" class="node"><title>Node22</title>
<a xlink:href="../../d7/d62/class_u_b_board_controller.html#a358f3f88d1fa9e41620170d76a806f93" target="_top" xlink:title="UBBoardController:\l:downloadURL">
<polygon fill="white" stroke="black" points="1075.5,-346 1075.5,-380 1176.5,-380 1176.5,-346 1075.5,-346"/>
<text text-anchor="start" x="1083.5" y="-367" font-family="Helvetica,sans-Serif" font-size="10.00">UBBoardController:</text>
<text text-anchor="middle" x="1126" y="-354" font-family="Helvetica,sans-Serif" font-size="10.00">:downloadURL</text>
</a>
</g>
<!-- Node6&#45;&gt;Node22 -->
<g id="edge44" class="edge"><title>Node6&#45;&gt;Node22</title>
<path fill="none" stroke="midnightblue" d="M977.81,-363C1008.7,-363 1045.8,-363 1075.15,-363"/>
<polygon fill="midnightblue" stroke="midnightblue" points="977.593,-359.5 967.593,-363 977.593,-366.5 977.593,-359.5"/>
</g>
<!-- Node8 -->
<g id="node15" class="node"><title>Node8</title>
<a xlink:href="../../d8/d81/class_u_b_application.html#add1469239e71bf24fdc61413a42a38bd" target="_top" xlink:title="UBApplication::exec">
<polygon fill="white" stroke="black" points="1284,-26.5 1284,-47.5 1390,-47.5 1390,-26.5 1284,-26.5"/>
<text text-anchor="middle" x="1337" y="-34.5" font-family="Helvetica,sans-Serif" font-size="10.00">UBApplication::exec</text>
</a>
</g>
<!-- Node7&#45;&gt;Node8 -->
<g id="edge14" class="edge"><title>Node7&#45;&gt;Node8</title>
<path fill="none" stroke="midnightblue" d="M1194.22,-310.299C1201.63,-307.151 1208.48,-302.846 1214,-297 1280.23,-226.892 1193.53,-161.185 1250,-83 1262.31,-65.9642 1282.87,-54.6796 1300.92,-47.5524"/>
<polygon fill="midnightblue" stroke="midnightblue" points="1192.84,-307.072 1184.57,-313.696 1195.17,-313.674 1192.84,-307.072"/>
</g>
<!-- Node9 -->
<g id="node17" class="node"><title>Node9</title>
<a xlink:href="../../df/d0a/main_8cpp.html#a0ddf1224851353fc92bfbff6f499fa97" target="_top" xlink:title="main">
<polygon fill="white" stroke="black" points="1527,-0.5 1527,-21.5 1565,-21.5 1565,-0.5 1527,-0.5"/>
<text text-anchor="middle" x="1546" y="-8.5" font-family="Helvetica,sans-Serif" font-size="10.00">main</text>
</a>
</g>
<!-- Node8&#45;&gt;Node9 -->
<g id="edge16" class="edge"><title>Node8&#45;&gt;Node9</title>
<path fill="none" stroke="midnightblue" d="M1399.96,-29.1682C1443.49,-23.7526 1498.51,-16.9078 1526.98,-13.3655"/>
<polygon fill="midnightblue" stroke="midnightblue" points="1399.5,-25.6977 1390.01,-30.4055 1400.37,-32.6441 1399.5,-25.6977"/>
</g>
<!-- Node10&#45;&gt;Node1 -->
<g id="edge28" class="edge"><title>Node10&#45;&gt;Node1</title>
<path fill="none" stroke="midnightblue" d="M1276.27,-542.986C1194.71,-532.934 1045.21,-517 917,-517 515,-517 515,-517 515,-517 349.079,-517 172.954,-400.619 111.61,-356.067"/>
<polygon fill="midnightblue" stroke="midnightblue" points="1276,-546.479 1286.36,-544.242 1276.87,-539.533 1276,-546.479"/>
</g>
<!-- Node11 -->
<g id="node21" class="node"><title>Node11</title>
<a xlink:href="../../d7/d62/class_u_b_board_controller.html#a07e50010567075b570140d6143c516f5" target="_top" xlink:title="UBBoardController:\l:processMimeData">
<polygon fill="white" stroke="black" points="1495.5,-489 1495.5,-523 1596.5,-523 1596.5,-489 1495.5,-489"/>
<text text-anchor="start" x="1503.5" y="-510" font-family="Helvetica,sans-Serif" font-size="10.00">UBBoardController:</text>
<text text-anchor="middle" x="1546" y="-497" font-family="Helvetica,sans-Serif" font-size="10.00">:processMimeData</text>
</a>
</g>
<!-- Node10&#45;&gt;Node11 -->
<g id="edge20" class="edge"><title>Node10&#45;&gt;Node11</title>
<path fill="none" stroke="midnightblue" d="M1397.41,-537.994C1428.38,-531.326 1465.67,-523.296 1495.15,-516.949"/>
<polygon fill="midnightblue" stroke="midnightblue" points="1396.63,-534.58 1387.59,-540.107 1398.11,-541.423 1396.63,-534.58"/>
</g>
<!-- Node15 -->
<g id="node30" class="node"><title>Node15</title>
<a xlink:href="../../dd/dd5/class_u_b_graphics_item_delegate.html#a525c69cb3c3c0df6c4db4d406fd80e48" target="_top" xlink:title="UBGraphicsItemDelegate\l::duplicate">
<polygon fill="white" stroke="black" points="1482,-549 1482,-583 1610,-583 1610,-549 1482,-549"/>
<text text-anchor="start" x="1490" y="-570" font-family="Helvetica,sans-Serif" font-size="10.00">UBGraphicsItemDelegate</text>
<text text-anchor="middle" x="1546" y="-557" font-family="Helvetica,sans-Serif" font-size="10.00">::duplicate</text>
</a>
</g>
<!-- Node10&#45;&gt;Node15 -->
<g id="edge30" class="edge"><title>Node10&#45;&gt;Node15</title>
<path fill="none" stroke="midnightblue" d="M1397.81,-555.364C1424.11,-557.252 1454.92,-559.463 1481.61,-561.379"/>
<polygon fill="midnightblue" stroke="midnightblue" points="1397.82,-551.856 1387.59,-554.631 1397.32,-558.838 1397.82,-551.856"/>
</g>
<!-- Node12 -->
<g id="node23" class="node"><title>Node12</title>
<a xlink:href="../../d7/d62/class_u_b_board_controller.html#a68518a98107e994551da0a4e3a79fe2c" target="_top" xlink:title="UBBoardController:\l:paste">
<polygon fill="white" stroke="black" points="1681.5,-429 1681.5,-463 1782.5,-463 1782.5,-429 1681.5,-429"/>
<text text-anchor="start" x="1689.5" y="-450" font-family="Helvetica,sans-Serif" font-size="10.00">UBBoardController:</text>
<text text-anchor="middle" x="1732" y="-437" font-family="Helvetica,sans-Serif" font-size="10.00">:paste</text>
</a>
</g>
<!-- Node11&#45;&gt;Node12 -->
<g id="edge22" class="edge"><title>Node11&#45;&gt;Node12</title>
<path fill="none" stroke="midnightblue" d="M1606.25,-488.07C1614.91,-485.411 1623.69,-482.668 1632,-480 1648.67,-474.647 1666.82,-468.556 1683.03,-463.023"/>
<polygon fill="midnightblue" stroke="midnightblue" points="1605.11,-484.759 1596.57,-491.027 1607.15,-491.454 1605.11,-484.759"/>
</g>
<!-- Node14 -->
<g id="node27" class="node"><title>Node14</title>
<a xlink:href="../../d1/d78/class_u_b_board_view.html#a1bb7794094c4bb04637b0df2bc0c0fa9" target="_top" xlink:title="UBBoardView::dropEvent">
<polygon fill="white" stroke="black" points="1668,-495.5 1668,-516.5 1796,-516.5 1796,-495.5 1668,-495.5"/>
<text text-anchor="middle" x="1732" y="-503.5" font-family="Helvetica,sans-Serif" font-size="10.00">UBBoardView::dropEvent</text>
</a>
</g>
<!-- Node11&#45;&gt;Node14 -->
<g id="edge26" class="edge"><title>Node11&#45;&gt;Node14</title>
<path fill="none" stroke="midnightblue" d="M1606.84,-506C1626.4,-506 1648.13,-506 1667.92,-506"/>
<polygon fill="midnightblue" stroke="midnightblue" points="1606.83,-502.5 1596.83,-506 1606.83,-509.5 1606.83,-502.5"/>
</g>
<!-- Node13 -->
<g id="node25" class="node"><title>Node13</title>
<a xlink:href="../../da/d14/class_u_b_application_controller.html#a6afa41e1bc0c178acaa89684b7e9db26" target="_top" xlink:title="UBApplicationController\l::actionPaste">
<polygon fill="white" stroke="black" points="1863.5,-422 1863.5,-456 1984.5,-456 1984.5,-422 1863.5,-422"/>
<text text-anchor="start" x="1871.5" y="-443" font-family="Helvetica,sans-Serif" font-size="10.00">UBApplicationController</text>
<text text-anchor="middle" x="1924" y="-430" font-family="Helvetica,sans-Serif" font-size="10.00">::actionPaste</text>
</a>
</g>
<!-- Node12&#45;&gt;Node13 -->
<g id="edge24" class="edge"><title>Node12&#45;&gt;Node13</title>
<path fill="none" stroke="midnightblue" d="M1792.82,-443.782C1815.37,-442.96 1840.92,-442.029 1863.44,-441.208"/>
<polygon fill="midnightblue" stroke="midnightblue" points="1792.56,-440.29 1782.7,-444.152 1792.82,-447.285 1792.56,-440.29"/>
</g>
<!-- Node16 -->
<g id="node32" class="node"><title>Node16</title>
<a xlink:href="../../dd/dd5/class_u_b_graphics_item_delegate.html#a1de77276aba7276defacd0b87c9b87c7" target="_top" xlink:title="UBGraphicsItemDelegate\l::init">
<polygon fill="white" stroke="red" points="1668,-552 1668,-586 1796,-586 1796,-552 1668,-552"/>
<text text-anchor="start" x="1676" y="-573" font-family="Helvetica,sans-Serif" font-size="10.00">UBGraphicsItemDelegate</text>
<text text-anchor="middle" x="1732" y="-560" font-family="Helvetica,sans-Serif" font-size="10.00">::init</text>
</a>
</g>
<!-- Node15&#45;&gt;Node16 -->
<g id="edge32" class="edge"><title>Node15&#45;&gt;Node16</title>
<path fill="none" stroke="midnightblue" d="M1620.24,-567.197C1636.01,-567.452 1652.52,-567.718 1667.87,-567.966"/>
<polygon fill="midnightblue" stroke="midnightblue" points="1620.07,-563.694 1610.01,-567.032 1619.95,-570.693 1620.07,-563.694"/>
</g>
<!-- Node17 -->
<g id="node34" class="node"><title>Node17</title>
<a xlink:href="../../de/d93/class_u_b_graphics_group_container_item.html#a2aaeb364079830d1720110c30f999ec8" target="_top" xlink:title="UBGraphicsGroupContainer\lItem::UBGraphicsGroupContainerItem">
<polygon fill="white" stroke="red" points="1832.5,-578 1832.5,-612 2015.5,-612 2015.5,-578 1832.5,-578"/>
<text text-anchor="start" x="1840.5" y="-599" font-family="Helvetica,sans-Serif" font-size="10.00">UBGraphicsGroupContainer</text>
<text text-anchor="middle" x="1924" y="-586" font-family="Helvetica,sans-Serif" font-size="10.00">Item::UBGraphicsGroupContainerItem</text>
</a>
</g>
<!-- Node16&#45;&gt;Node17 -->
<g id="edge34" class="edge"><title>Node16&#45;&gt;Node17</title>
<path fill="none" stroke="midnightblue" d="M1806.38,-579.072C1814.83,-580.217 1823.52,-581.393 1832.16,-582.564"/>
<polygon fill="midnightblue" stroke="midnightblue" points="1806.58,-575.567 1796.2,-577.694 1805.64,-582.504 1806.58,-575.567"/>
</g>
<!-- Node18 -->
<g id="node36" class="node"><title>Node18</title>
<a xlink:href="../../dc/d5a/class_u_b_graphics_media_item.html#aa92cf921e88af8b52b4c7ed6466dd2d5" target="_top" xlink:title="UBGraphicsMediaItem\l::UBGraphicsMediaItem">
<polygon fill="white" stroke="red" points="1863,-526 1863,-560 1985,-560 1985,-526 1863,-526"/>
<text text-anchor="start" x="1871" y="-547" font-family="Helvetica,sans-Serif" font-size="10.00">UBGraphicsMediaItem</text>
<text text-anchor="middle" x="1924" y="-534" font-family="Helvetica,sans-Serif" font-size="10.00">::UBGraphicsMediaItem</text>
</a>
</g>
<!-- Node16&#45;&gt;Node18 -->
<g id="edge36" class="edge"><title>Node16&#45;&gt;Node18</title>
<path fill="none" stroke="midnightblue" d="M1806.16,-558.957C1824.89,-556.421 1844.78,-553.727 1862.79,-551.289"/>
<polygon fill="midnightblue" stroke="midnightblue" points="1805.64,-555.496 1796.2,-560.306 1806.58,-562.433 1805.64,-555.496"/>
</g>
<!-- Node19 -->
<g id="node38" class="node"><title>Node19</title>
<a xlink:href="../../d9/d0d/class_u_b_graphics_p_d_f_item.html#ae55063d3348b81ea8388df72069713b9" target="_top" xlink:title="UBGraphicsPDFItem:\l:UBGraphicsPDFItem">
<polygon fill="white" stroke="red" points="1867.5,-474 1867.5,-508 1980.5,-508 1980.5,-474 1867.5,-474"/>
<text text-anchor="start" x="1875.5" y="-495" font-family="Helvetica,sans-Serif" font-size="10.00">UBGraphicsPDFItem:</text>
<text text-anchor="middle" x="1924" y="-482" font-family="Helvetica,sans-Serif" font-size="10.00">:UBGraphicsPDFItem</text>
</a>
</g>
<!-- Node16&#45;&gt;Node19 -->
<g id="edge38" class="edge"><title>Node16&#45;&gt;Node19</title>
<path fill="none" stroke="midnightblue" d="M1769.92,-546.95C1788.26,-536.895 1810.84,-525.391 1832,-517 1843.26,-512.534 1855.58,-508.501 1867.44,-505.017"/>
<polygon fill="midnightblue" stroke="midnightblue" points="1768.05,-543.982 1761.01,-551.9 1771.45,-550.1 1768.05,-543.982"/>
</g>
<!-- Node20 -->
<g id="node40" class="node"><title>Node20</title>
<a xlink:href="../../d1/d78/class_u_b_graphics_pixmap_item.html#ad154326709d1935d96248228d21b20ae" target="_top" xlink:title="UBGraphicsPixmapItem\l::UBGraphicsPixmapItem">
<polygon fill="white" stroke="red" points="1860,-682 1860,-716 1988,-716 1988,-682 1860,-682"/>
<text text-anchor="start" x="1868" y="-703" font-family="Helvetica,sans-Serif" font-size="10.00">UBGraphicsPixmapItem</text>
<text text-anchor="middle" x="1924" y="-690" font-family="Helvetica,sans-Serif" font-size="10.00">::UBGraphicsPixmapItem</text>
</a>
</g>
<!-- Node16&#45;&gt;Node20 -->
<g id="edge40" class="edge"><title>Node16&#45;&gt;Node20</title>
<path fill="none" stroke="midnightblue" d="M1749.95,-594.267C1768.06,-617.959 1798.14,-652.691 1832,-673 1840.54,-678.122 1850.13,-682.271 1859.81,-685.622"/>
<polygon fill="midnightblue" stroke="midnightblue" points="1752.62,-591.998 1743.83,-586.085 1747.01,-596.19 1752.62,-591.998"/>
</g>
<!-- Node21 -->
<g id="node42" class="node"><title>Node21</title>
<a xlink:href="../../d3/d0b/class_u_b_graphics_strokes_group.html#ab3978d4c4d489c27f90baf64a506f1d8" target="_top" xlink:title="UBGraphicsStrokesGroup\l::UBGraphicsStrokesGroup">
<polygon fill="white" stroke="red" points="1856,-630 1856,-664 1992,-664 1992,-630 1856,-630"/>
<text text-anchor="start" x="1864" y="-651" font-family="Helvetica,sans-Serif" font-size="10.00">UBGraphicsStrokesGroup</text>
<text text-anchor="middle" x="1924" y="-638" font-family="Helvetica,sans-Serif" font-size="10.00">::UBGraphicsStrokesGroup</text>
</a>
</g>
<!-- Node16&#45;&gt;Node21 -->
<g id="edge42" class="edge"><title>Node16&#45;&gt;Node21</title>
<path fill="none" stroke="midnightblue" d="M1769.92,-591.05C1788.26,-601.105 1810.84,-612.609 1832,-621 1840.18,-624.242 1848.91,-627.256 1857.62,-629.998"/>
<polygon fill="midnightblue" stroke="midnightblue" points="1771.45,-587.9 1761.01,-586.1 1768.05,-594.018 1771.45,-587.9"/>
</g>
<!-- Node22&#45;&gt;Node10 -->
<g id="edge50" class="edge"><title>Node22&#45;&gt;Node10</title>
<path fill="none" stroke="midnightblue" d="M1164.91,-385.859C1181.81,-397.356 1200.73,-412.561 1214,-430 1240.08,-464.289 1218.96,-490.124 1250,-520 1260.05,-529.674 1273.32,-536.353 1286.45,-540.955"/>
<polygon fill="midnightblue" stroke="midnightblue" points="1166.57,-382.765 1156.29,-380.193 1162.73,-388.613 1166.57,-382.765"/>
</g>
<!-- Node22&#45;&gt;Node11 -->
<g id="edge52" class="edge"><title>Node22&#45;&gt;Node11</title>
<path fill="none" stroke="midnightblue" d="M1162.01,-386C1178.96,-397.881 1198.76,-413.362 1214,-430 1234.24,-452.093 1224.24,-471.703 1250,-487 1325.94,-532.086 1432.97,-525.291 1495.36,-515.893"/>
<polygon fill="midnightblue" stroke="midnightblue" points="1163.67,-382.895 1153.44,-380.129 1159.71,-388.669 1163.67,-382.895"/>
</g>
<!-- Node23 -->
<g id="node46" class="node"><title>Node23</title>
<a xlink:href="../../da/dd6/class_u_b_library_a_p_i.html#abeac23fcd7f64866d5686b590ec05695" target="_top" xlink:title="UBLibraryAPI::addObject">
<polygon fill="white" stroke="black" points="1273.5,-352.5 1273.5,-373.5 1400.5,-373.5 1400.5,-352.5 1273.5,-352.5"/>
<text text-anchor="middle" x="1337" y="-360.5" font-family="Helvetica,sans-Serif" font-size="10.00">UBLibraryAPI::addObject</text>
</a>
</g>
<!-- Node22&#45;&gt;Node23 -->
<g id="edge46" class="edge"><title>Node22&#45;&gt;Node23</title>
<path fill="none" stroke="midnightblue" d="M1186.68,-363C1213.8,-363 1245.78,-363 1273.25,-363"/>
<polygon fill="midnightblue" stroke="midnightblue" points="1186.54,-359.5 1176.54,-363 1186.54,-366.5 1186.54,-359.5"/>
</g>
<!-- Node24 -->
<g id="node48" class="node"><title>Node24</title>
<a xlink:href="../../d5/d2b/class_u_b_widget_uniboard_a_p_i.html#a73ac1600ef3ed549d2c6c969436efb2f" target="_top" xlink:title="UBWidgetUniboardAPI\l::addObject">
<polygon fill="white" stroke="black" points="1278.5,-300 1278.5,-334 1395.5,-334 1395.5,-300 1278.5,-300"/>
<text text-anchor="start" x="1286.5" y="-321" font-family="Helvetica,sans-Serif" font-size="10.00">UBWidgetUniboardAPI</text>
<text text-anchor="middle" x="1337" y="-308" font-family="Helvetica,sans-Serif" font-size="10.00">::addObject</text>
</a>
</g>
<!-- Node22&#45;&gt;Node24 -->
<g id="edge48" class="edge"><title>Node22&#45;&gt;Node24</title>
<path fill="none" stroke="midnightblue" d="M1186.49,-349.813C1215.32,-343.527 1249.67,-336.038 1278.28,-329.802"/>
<polygon fill="midnightblue" stroke="midnightblue" points="1185.56,-346.432 1176.54,-351.982 1187.06,-353.271 1185.56,-346.432"/>
</g>
<!-- Node25 -->
<g id="node52" class="node"><title>Node25</title>
<a xlink:href="../../d8/d33/class_u_b_features_controller.html#a38042ae37804ee19bfacf4aafd096ea9" target="_top" xlink:title="UBFeaturesController\l::addItemToPage">
<polygon fill="white" stroke="black" points="1281.5,-248 1281.5,-282 1392.5,-282 1392.5,-248 1281.5,-248"/>
<text text-anchor="start" x="1289.5" y="-269" font-family="Helvetica,sans-Serif" font-size="10.00">UBFeaturesController</text>
<text text-anchor="middle" x="1337" y="-256" font-family="Helvetica,sans-Serif" font-size="10.00">::addItemToPage</text>
</a>
</g>
<!-- Node22&#45;&gt;Node25 -->
<g id="edge54" class="edge"><title>Node22&#45;&gt;Node25</title>
<path fill="none" stroke="midnightblue" d="M1186.48,-350.569C1196.16,-347.082 1205.7,-342.642 1214,-337 1235.47,-322.405 1228.55,-305.628 1250,-291 1259.38,-284.605 1270.36,-279.75 1281.31,-276.075"/>
<polygon fill="midnightblue" stroke="midnightblue" points="1185.21,-347.302 1176.81,-353.749 1187.4,-353.952 1185.21,-347.302"/>
</g>
<!-- Node27 -->
<g id="node56" class="node"><title>Node27</title>
<a xlink:href="../../d8/d33/class_u_b_features_controller.html#a0ecd4b84e703063db5c0fdf498f2cdb0" target="_top" xlink:title="UBFeaturesController\l::addItemAsBackground">
<polygon fill="white" stroke="black" points="1276,-196 1276,-230 1398,-230 1398,-196 1276,-196"/>
<text text-anchor="start" x="1284" y="-217" font-family="Helvetica,sans-Serif" font-size="10.00">UBFeaturesController</text>
<text text-anchor="middle" x="1337" y="-204" font-family="Helvetica,sans-Serif" font-size="10.00">::addItemAsBackground</text>
</a>
</g>
<!-- Node22&#45;&gt;Node27 -->
<g id="edge58" class="edge"><title>Node22&#45;&gt;Node27</title>
<path fill="none" stroke="midnightblue" d="M1186.48,-353.293C1196.56,-349.509 1206.25,-344.265 1214,-337 1247.86,-305.269 1216.19,-270.784 1250,-239 1257.35,-232.089 1266.46,-227.009 1276,-223.275"/>
<polygon fill="midnightblue" stroke="midnightblue" points="1185.15,-350.046 1176.74,-356.491 1187.33,-356.697 1185.15,-350.046"/>
</g>
<!-- Node29 -->
<g id="node60" class="node"><title>Node29</title>
<a xlink:href="../../d0/d79/class_u_b_favorite_tool_palette.html#a83161cac1258562134412dfcd60aee50" target="_top" xlink:title="UBFavoriteToolPalette\l::addFavorite">
<polygon fill="white" stroke="black" points="1279,-144 1279,-178 1395,-178 1395,-144 1279,-144"/>
<text text-anchor="start" x="1287" y="-165" font-family="Helvetica,sans-Serif" font-size="10.00">UBFavoriteToolPalette</text>
<text text-anchor="middle" x="1337" y="-152" font-family="Helvetica,sans-Serif" font-size="10.00">::addFavorite</text>
</a>
</g>
<!-- Node22&#45;&gt;Node29 -->
<g id="edge62" class="edge"><title>Node22&#45;&gt;Node29</title>
<path fill="none" stroke="midnightblue" d="M1186.19,-354.392C1196.58,-350.519 1206.44,-344.96 1214,-337 1261.21,-287.283 1202.87,-236.79 1250,-187 1257.8,-178.757 1268.1,-173.094 1278.87,-169.212"/>
<polygon fill="midnightblue" stroke="midnightblue" points="1185.01,-351.097 1176.56,-357.496 1187.16,-357.759 1185.01,-351.097"/>
</g>
<!-- Node31 -->
<g id="node64" class="node"><title>Node31</title>
<a xlink:href="../../db/d78/class_w_b_web_trap_web_view.html#afdbfd6aac50cad5ac07a465baa7be0b6" target="_top" xlink:title="WBWebTrapWebView::trapElement\lAtPos">
<polygon fill="white" stroke="black" points="1250.5,-92 1250.5,-126 1423.5,-126 1423.5,-92 1250.5,-92"/>
<text text-anchor="start" x="1258.5" y="-113" font-family="Helvetica,sans-Serif" font-size="10.00">WBWebTrapWebView::trapElement</text>
<text text-anchor="middle" x="1337" y="-100" font-family="Helvetica,sans-Serif" font-size="10.00">AtPos</text>
</a>
</g>
<!-- Node22&#45;&gt;Node31 -->
<g id="edge66" class="edge"><title>Node22&#45;&gt;Node31</title>
<path fill="none" stroke="midnightblue" d="M1186.58,-354.745C1196.93,-350.841 1206.68,-345.18 1214,-337 1274.81,-269.042 1189.3,-203.053 1250,-135 1253.04,-131.588 1256.51,-128.616 1260.27,-126.027"/>
<polygon fill="midnightblue" stroke="midnightblue" points="1185.39,-351.449 1176.96,-357.859 1187.55,-358.108 1185.39,-351.449"/>
</g>
<!-- Node34 -->
<g id="node70" class="node"><title>Node34</title>
<a xlink:href="../../dd/dc8/class_w_b_web_page.html#a4f177fc1cee35b60e7973ff2573025e7" target="_top" xlink:title="WBWebPage::handleUnsupported\lContent">
<polygon fill="white" stroke="black" points="1254,-444 1254,-478 1420,-478 1420,-444 1254,-444"/>
<text text-anchor="start" x="1262" y="-465" font-family="Helvetica,sans-Serif" font-size="10.00">WBWebPage::handleUnsupported</text>
<text text-anchor="middle" x="1337" y="-452" font-family="Helvetica,sans-Serif" font-size="10.00">Content</text>
</a>
</g>
<!-- Node22&#45;&gt;Node34 -->
<g id="edge72" class="edge"><title>Node22&#45;&gt;Node34</title>
<path fill="none" stroke="midnightblue" d="M1159.69,-385.487C1184.01,-400.978 1218.05,-421.181 1250,-435 1257.52,-438.254 1265.58,-441.259 1273.64,-443.982"/>
<polygon fill="midnightblue" stroke="midnightblue" points="1161.5,-382.487 1151.2,-380.014 1157.71,-388.372 1161.5,-382.487"/>
</g>
<!-- Node36 -->
<g id="node74" class="node"><title>Node36</title>
<a xlink:href="../../df/d50/class_u_b_web_controller.html#a318422dc0a027e2258180673bb333586" target="_top" xlink:title="UBWebController::capture\lEduMedia">
<polygon fill="white" stroke="black" points="1271.5,-392 1271.5,-426 1402.5,-426 1402.5,-392 1271.5,-392"/>
<text text-anchor="start" x="1279.5" y="-413" font-family="Helvetica,sans-Serif" font-size="10.00">UBWebController::capture</text>
<text text-anchor="middle" x="1337" y="-400" font-family="Helvetica,sans-Serif" font-size="10.00">EduMedia</text>
</a>
</g>
<!-- Node22&#45;&gt;Node36 -->
<g id="edge76" class="edge"><title>Node22&#45;&gt;Node36</title>
<path fill="none" stroke="midnightblue" d="M1186.46,-376.181C1212.99,-381.964 1244.19,-388.767 1271.29,-394.675"/>
<polygon fill="midnightblue" stroke="midnightblue" points="1187.06,-372.729 1176.54,-374.018 1185.56,-379.568 1187.06,-372.729"/>
</g>
<!-- Node26 -->
<g id="node54" class="node"><title>Node26</title>
<a xlink:href="../../dd/dc8/class_u_b_feature_properties.html#a6fb900fb691ba01479801333a4df226d" target="_top" xlink:title="UBFeatureProperties\l::onAddToPage">
<polygon fill="white" stroke="red" points="1492,-248 1492,-282 1600,-282 1600,-248 1492,-248"/>
<text text-anchor="start" x="1500" y="-269" font-family="Helvetica,sans-Serif" font-size="10.00">UBFeatureProperties</text>
<text text-anchor="middle" x="1546" y="-256" font-family="Helvetica,sans-Serif" font-size="10.00">::onAddToPage</text>
</a>
</g>
<!-- Node25&#45;&gt;Node26 -->
<g id="edge56" class="edge"><title>Node25&#45;&gt;Node26</title>
<path fill="none" stroke="midnightblue" d="M1403.05,-265C1431.66,-265 1464.74,-265 1491.87,-265"/>
<polygon fill="midnightblue" stroke="midnightblue" points="1402.73,-261.5 1392.73,-265 1402.73,-268.5 1402.73,-261.5"/>
</g>
<!-- Node28 -->
<g id="node58" class="node"><title>Node28</title>
<a xlink:href="../../dd/dc8/class_u_b_feature_properties.html#af183f096cbff2df0da3206b8e71c3525" target="_top" xlink:title="UBFeatureProperties\l::onSetAsBackground">
<polygon fill="white" stroke="red" points="1490,-196 1490,-230 1602,-230 1602,-196 1490,-196"/>
<text text-anchor="start" x="1498" y="-217" font-family="Helvetica,sans-Serif" font-size="10.00">UBFeatureProperties</text>
<text text-anchor="middle" x="1546" y="-204" font-family="Helvetica,sans-Serif" font-size="10.00">::onSetAsBackground</text>
</a>
</g>
<!-- Node27&#45;&gt;Node28 -->
<g id="edge60" class="edge"><title>Node27&#45;&gt;Node28</title>
<path fill="none" stroke="midnightblue" d="M1408.07,-213C1434.79,-213 1464.75,-213 1489.92,-213"/>
<polygon fill="midnightblue" stroke="midnightblue" points="1408.01,-209.5 1398.01,-213 1408.01,-216.5 1408.01,-209.5"/>
</g>
<!-- Node30 -->
<g id="node62" class="node"><title>Node30</title>
<a xlink:href="../../d0/d79/class_u_b_favorite_tool_palette.html#a5c96e32fc43e9342cde947b25425516c" target="_top" xlink:title="UBFavoriteToolPalette\l::UBFavoriteToolPalette">
<polygon fill="white" stroke="black" points="1485,-144 1485,-178 1607,-178 1607,-144 1485,-144"/>
<text text-anchor="start" x="1493" y="-165" font-family="Helvetica,sans-Serif" font-size="10.00">UBFavoriteToolPalette</text>
<text text-anchor="middle" x="1546" y="-152" font-family="Helvetica,sans-Serif" font-size="10.00">::UBFavoriteToolPalette</text>
</a>
</g>
<!-- Node29&#45;&gt;Node30 -->
<g id="edge64" class="edge"><title>Node29&#45;&gt;Node30</title>
<path fill="none" stroke="midnightblue" d="M1405.24,-161C1430.88,-161 1459.85,-161 1484.81,-161"/>
<polygon fill="midnightblue" stroke="midnightblue" points="1405.22,-157.5 1395.22,-161 1405.22,-164.5 1405.22,-157.5"/>
</g>
<!-- Node32 -->
<g id="node66" class="node"><title>Node32</title>
<a xlink:href="../../db/d78/class_w_b_web_trap_web_view.html#a2ac308414d18186c9c4fc60bc5f46400" target="_top" xlink:title="WBWebTrapWebView::trapContent\lFromHitTest">
<polygon fill="white" stroke="black" points="1460,-92 1460,-126 1632,-126 1632,-92 1460,-92"/>
<text text-anchor="start" x="1468" y="-113" font-family="Helvetica,sans-Serif" font-size="10.00">WBWebTrapWebView::trapContent</text>
<text text-anchor="middle" x="1546" y="-100" font-family="Helvetica,sans-Serif" font-size="10.00">FromHitTest</text>
</a>
</g>
<!-- Node31&#45;&gt;Node32 -->
<g id="edge68" class="edge"><title>Node31&#45;&gt;Node32</title>
<path fill="none" stroke="midnightblue" d="M1433.72,-109C1442.45,-109 1451.25,-109 1459.88,-109"/>
<polygon fill="midnightblue" stroke="midnightblue" points="1433.52,-105.5 1423.52,-109 1433.52,-112.5 1433.52,-105.5"/>
</g>
<!-- Node33 -->
<g id="node68" class="node"><title>Node33</title>
<a xlink:href="../../dd/df0/class_u_b_web_trap_mouse_event_mask.html#a2c69d74fef874516e38daeab13e6ecd0" target="_top" xlink:title="UBWebTrapMouseEventMask\l::mousePressEvent">
<polygon fill="white" stroke="black" points="1471.5,-40 1471.5,-74 1620.5,-74 1620.5,-40 1471.5,-40"/>
<text text-anchor="start" x="1479.5" y="-61" font-family="Helvetica,sans-Serif" font-size="10.00">UBWebTrapMouseEventMask</text>
<text text-anchor="middle" x="1546" y="-48" font-family="Helvetica,sans-Serif" font-size="10.00">::mousePressEvent</text>
</a>
</g>
<!-- Node31&#45;&gt;Node33 -->
<g id="edge70" class="edge"><title>Node31&#45;&gt;Node33</title>
<path fill="none" stroke="midnightblue" d="M1415.32,-89.5132C1435.73,-84.4365 1457.55,-79.0057 1477.41,-74.065"/>
<polygon fill="midnightblue" stroke="midnightblue" points="1414.29,-86.1623 1405.43,-91.9733 1415.98,-92.9552 1414.29,-86.1623"/>
</g>
<!-- Node35 -->
<g id="node72" class="node"><title>Node35</title>
<a xlink:href="../../dd/dc8/class_w_b_web_page.html#a01017231eb0981875b79223f8457b302" target="_top" xlink:title="WBWebPage::WBWebPage">
<polygon fill="white" stroke="black" points="1475.5,-449.5 1475.5,-470.5 1616.5,-470.5 1616.5,-449.5 1475.5,-449.5"/>
<text text-anchor="middle" x="1546" y="-457.5" font-family="Helvetica,sans-Serif" font-size="10.00">WBWebPage::WBWebPage</text>
</a>
</g>
<!-- Node34&#45;&gt;Node35 -->
<g id="edge74" class="edge"><title>Node34&#45;&gt;Node35</title>
<path fill="none" stroke="midnightblue" d="M1430.53,-460.552C1445.53,-460.481 1460.85,-460.407 1475.21,-460.339"/>
<polygon fill="midnightblue" stroke="midnightblue" points="1430.19,-457.054 1420.2,-460.602 1430.22,-464.054 1430.19,-457.054"/>
</g>
<!-- Node37 -->
<g id="node76" class="node"><title>Node37</title>
<a xlink:href="../../df/d50/class_u_b_web_controller.html#af73cfa36d5b743fa3a652e49dd7e4831" target="_top" xlink:title="UBWebController::setupPalettes">
<polygon fill="white" stroke="red" points="1466.5,-398.5 1466.5,-419.5 1625.5,-419.5 1625.5,-398.5 1466.5,-398.5"/>
<text text-anchor="middle" x="1546" y="-406.5" font-family="Helvetica,sans-Serif" font-size="10.00">UBWebController::setupPalettes</text>
</a>
</g>
<!-- Node36&#45;&gt;Node37 -->
<g id="edge78" class="edge"><title>Node36&#45;&gt;Node37</title>
<path fill="none" stroke="midnightblue" d="M1412.68,-409C1430.13,-409 1448.75,-409 1466.36,-409"/>
<polygon fill="midnightblue" stroke="midnightblue" points="1412.56,-405.5 1402.56,-409 1412.56,-412.5 1412.56,-405.5"/>
</g>
<!-- Node39&#45;&gt;Node6 -->
<g id="edge94" class="edge"><title>Node39&#45;&gt;Node6</title>
<path fill="none" stroke="midnightblue" d="M611.839,-344.781C691.951,-349.564 802.567,-356.168 866.264,-359.971"/>
<polygon fill="midnightblue" stroke="midnightblue" points="611.924,-341.28 601.733,-344.178 611.507,-348.268 611.924,-341.28"/>
</g>
<!-- Node39&#45;&gt;Node38 -->
<g id="edge100" class="edge"><title>Node39&#45;&gt;Node38</title>
<path fill="none" stroke="midnightblue" d="M556.852,-352.701C580.632,-360.464 610.966,-370.327 638,-379 652.931,-383.79 669.469,-389.033 683.539,-393.476"/>
<polygon fill="midnightblue" stroke="midnightblue" points="557.684,-349.291 547.091,-349.513 555.51,-355.945 557.684,-349.291"/>
</g>
<!-- Node40 -->
<g id="node82" class="node"><title>Node40</title>
<a xlink:href="../../d7/d62/class_u_b_board_controller.html#a5f701f4cd3173743effca3b3b0bd4615" target="_top" xlink:title="UBBoardController:\l:addLinkToPage">
<polygon fill="white" stroke="black" points="666.5,-251 666.5,-285 767.5,-285 767.5,-251 666.5,-251"/>
<text text-anchor="start" x="674.5" y="-272" font-family="Helvetica,sans-Serif" font-size="10.00">UBBoardController:</text>
<text text-anchor="middle" x="717" y="-259" font-family="Helvetica,sans-Serif" font-size="10.00">:addLinkToPage</text>
</a>
</g>
<!-- Node39&#45;&gt;Node40 -->
<g id="edge84" class="edge"><title>Node39&#45;&gt;Node40</title>
<path fill="none" stroke="midnightblue" d="M584.901,-325.439C590.779,-323.547 596.552,-321.41 602,-319 619.815,-311.12 620.567,-302.691 638,-294 646.916,-289.555 656.765,-285.617 666.396,-282.236"/>
<polygon fill="midnightblue" stroke="midnightblue" points="583.537,-322.193 574.948,-328.396 585.531,-328.903 583.537,-322.193"/>
</g>
<!-- Node44 -->
<g id="node92" class="node"><title>Node44</title>
<a xlink:href="../../d7/d62/class_u_b_board_controller.html#af8867753146efd8498f1a308e0457c9e" target="_top" xlink:title="UBBoardController:\l:addW3cWidget">
<polygon fill="white" stroke="black" points="666.5,-303 666.5,-337 767.5,-337 767.5,-303 666.5,-303"/>
<text text-anchor="start" x="674.5" y="-324" font-family="Helvetica,sans-Serif" font-size="10.00">UBBoardController:</text>
<text text-anchor="middle" x="717" y="-311" font-family="Helvetica,sans-Serif" font-size="10.00">:addW3cWidget</text>
</a>
</g>
<!-- Node39&#45;&gt;Node44 -->
<g id="edge96" class="edge"><title>Node39&#45;&gt;Node44</title>
<path fill="none" stroke="midnightblue" d="M611.726,-329.902C630.674,-328.12 649.823,-326.319 666.499,-324.75"/>
<polygon fill="midnightblue" stroke="midnightblue" points="611.174,-326.438 601.545,-330.86 611.829,-333.408 611.174,-326.438"/>
</g>
<!-- Node45 -->
<g id="node96" class="node"><title>Node45</title>
<a xlink:href="../../dc/db2/class_u_b_graphics_scene.html#a2729368a3a28a4d9669f23f171752194" target="_top" xlink:title="UBGraphicsScene::addOEmbed">
<polygon fill="white" stroke="black" points="638,-207.5 638,-228.5 796,-228.5 796,-207.5 638,-207.5"/>
<text text-anchor="middle" x="717" y="-215.5" font-family="Helvetica,sans-Serif" font-size="10.00">UBGraphicsScene::addOEmbed</text>
</a>
</g>
<!-- Node39&#45;&gt;Node45 -->
<g id="edge102" class="edge"><title>Node39&#45;&gt;Node45</title>
<path fill="none" stroke="midnightblue" d="M595.517,-323.599C597.774,-322.192 599.943,-320.662 602,-319 631.382,-295.254 609.454,-266.745 638,-242 644.607,-236.273 652.551,-231.912 660.819,-228.592"/>
<polygon fill="midnightblue" stroke="midnightblue" points="593.606,-320.651 586.425,-328.441 596.896,-326.83 593.606,-320.651"/>
</g>
<!-- Node40&#45;&gt;Node6 -->
<g id="edge86" class="edge"><title>Node40&#45;&gt;Node6</title>
<path fill="none" stroke="midnightblue" d="M777.143,-286.388C783.578,-288.771 789.971,-291.322 796,-294 829.812,-309.023 866.429,-330.735 890.42,-345.775"/>
<polygon fill="midnightblue" stroke="midnightblue" points="778.317,-283.091 767.722,-283.021 775.961,-289.682 778.317,-283.091"/>
</g>
<!-- Node41 -->
<g id="node85" class="node"><title>Node41</title>
<a xlink:href="../../d9/d3a/class_u_b_trap_web_page_content_controller.html#adc738e0c68ed861cce64a1389d2aee5d" target="_top" xlink:title="UBTrapWebPageContentController\l::addLink">
<polygon fill="white" stroke="black" points="832,-253 832,-287 1002,-287 1002,-253 832,-253"/>
<text text-anchor="start" x="840" y="-274" font-family="Helvetica,sans-Serif" font-size="10.00">UBTrapWebPageContentController</text>
<text text-anchor="middle" x="917" y="-261" font-family="Helvetica,sans-Serif" font-size="10.00">::addLink</text>
</a>
</g>
<!-- Node40&#45;&gt;Node41 -->
<g id="edge88" class="edge"><title>Node40&#45;&gt;Node41</title>
<path fill="none" stroke="midnightblue" d="M778.024,-268.61C794.963,-268.78 813.671,-268.967 831.724,-269.147"/>
<polygon fill="midnightblue" stroke="midnightblue" points="777.762,-265.108 767.727,-268.507 777.691,-272.107 777.762,-265.108"/>
</g>
<!-- Node42 -->
<g id="node87" class="node"><title>Node42</title>
<a xlink:href="../../d9/d3a/class_u_b_trap_web_page_content_controller.html#a2c3abe64d01d7cc3b5e97e7dbf06cc4b" target="_top" xlink:title="UBTrapWebPageContentController\l::addLinkToLibrary">
<polygon fill="white" stroke="black" points="1041,-254 1041,-288 1211,-288 1211,-254 1041,-254"/>
<text text-anchor="start" x="1049" y="-275" font-family="Helvetica,sans-Serif" font-size="10.00">UBTrapWebPageContentController</text>
<text text-anchor="middle" x="1126" y="-262" font-family="Helvetica,sans-Serif" font-size="10.00">::addLinkToLibrary</text>
</a>
</g>
<!-- Node41&#45;&gt;Node42 -->
<g id="edge90" class="edge"><title>Node41&#45;&gt;Node42</title>
<path fill="none" stroke="midnightblue" d="M1012.26,-270.456C1021.75,-270.501 1031.35,-270.547 1040.73,-270.592"/>
<polygon fill="midnightblue" stroke="midnightblue" points="1012.02,-266.955 1002.01,-270.407 1011.99,-273.955 1012.02,-266.955"/>
</g>
<!-- Node43 -->
<g id="node89" class="node"><title>Node43</title>
<a xlink:href="../../d9/d3a/class_u_b_trap_web_page_content_controller.html#a9e18874e464df8ae3ea8f154334bd758" target="_top" xlink:title="UBTrapWebPageContentController\l::addLinkToBoard">
<polygon fill="white" stroke="black" points="1041,-202 1041,-236 1211,-236 1211,-202 1041,-202"/>
<text text-anchor="start" x="1049" y="-223" font-family="Helvetica,sans-Serif" font-size="10.00">UBTrapWebPageContentController</text>
<text text-anchor="middle" x="1126" y="-210" font-family="Helvetica,sans-Serif" font-size="10.00">::addLinkToBoard</text>
</a>
</g>
<!-- Node41&#45;&gt;Node43 -->
<g id="edge92" class="edge"><title>Node41&#45;&gt;Node43</title>
<path fill="none" stroke="midnightblue" d="M996.692,-250.554C1016.28,-245.774 1037.1,-240.693 1056.18,-236.037"/>
<polygon fill="midnightblue" stroke="midnightblue" points="995.77,-247.176 986.885,-252.947 997.429,-253.976 995.77,-247.176"/>
</g>
<!-- Node44&#45;&gt;Node6 -->
<g id="edge98" class="edge"><title>Node44&#45;&gt;Node6</title>
<path fill="none" stroke="midnightblue" d="M777.532,-333.014C805.9,-339.114 839.317,-346.298 866.327,-352.105"/>
<polygon fill="midnightblue" stroke="midnightblue" points="778.239,-329.587 767.727,-330.906 776.768,-336.43 778.239,-329.587"/>
</g>
<!-- Node46 -->
<g id="node98" class="node"><title>Node46</title>
<a xlink:href="../../df/d50/class_u_b_web_controller.html#ae652b7467df50b60c8d074d94abf698b" target="_top" xlink:title="UBWebController::captureo\lEmbed">
<polygon fill="white" stroke="black" points="848.5,-149 848.5,-183 985.5,-183 985.5,-149 848.5,-149"/>
<text text-anchor="start" x="856.5" y="-170" font-family="Helvetica,sans-Serif" font-size="10.00">UBWebController::captureo</text>
<text text-anchor="middle" x="917" y="-157" font-family="Helvetica,sans-Serif" font-size="10.00">Embed</text>
</a>
</g>
<!-- Node45&#45;&gt;Node46 -->
<g id="edge104" class="edge"><title>Node45&#45;&gt;Node46</title>
<path fill="none" stroke="midnightblue" d="M768.599,-205.021C777.732,-202.7 787.149,-200.291 796,-198 814.512,-193.209 834.595,-187.931 852.981,-183.066"/>
<polygon fill="midnightblue" stroke="midnightblue" points="767.673,-201.645 758.84,-207.495 769.394,-208.43 767.673,-201.645"/>
</g>
<!-- Node47 -->
<g id="node100" class="node"><title>Node47</title>
<a xlink:href="../../df/d50/class_u_b_web_controller.html#abee1408edc0bda4a434f313d7e6eece4" target="_top" xlink:title="UBWebController::onOEmbed\lParsed">
<polygon fill="white" stroke="black" points="843,-201 843,-235 991,-235 991,-201 843,-201"/>
<text text-anchor="start" x="851" y="-222" font-family="Helvetica,sans-Serif" font-size="10.00">UBWebController::onOEmbed</text>
<text text-anchor="middle" x="917" y="-209" font-family="Helvetica,sans-Serif" font-size="10.00">Parsed</text>
</a>
</g>
<!-- Node45&#45;&gt;Node47 -->
<g id="edge106" class="edge"><title>Node45&#45;&gt;Node47</title>
<path fill="none" stroke="midnightblue" d="M806.232,-218C818.439,-218 830.862,-218 842.763,-218"/>
<polygon fill="midnightblue" stroke="midnightblue" points="806.045,-214.5 796.045,-218 806.045,-221.5 806.045,-214.5"/>
</g>
<!-- Node48 -->
<g id="node102" class="node"><title>Node48</title>
<a xlink:href="../../df/d50/class_u_b_web_controller.html#ad520d21522662fba52976d79aaff4cfd" target="_top" xlink:title="UBWebController::UBWebController">
<polygon fill="white" stroke="black" points="1038,-162.5 1038,-183.5 1214,-183.5 1214,-162.5 1038,-162.5"/>
<text text-anchor="middle" x="1126" y="-170.5" font-family="Helvetica,sans-Serif" font-size="10.00">UBWebController::UBWebController</text>
</a>
</g>
<!-- Node47&#45;&gt;Node48 -->
<g id="edge108" class="edge"><title>Node47&#45;&gt;Node48</title>
<path fill="none" stroke="midnightblue" d="M1001.08,-199.898C1026.91,-194.336 1054.47,-188.4 1077.12,-183.524"/>
<polygon fill="midnightblue" stroke="midnightblue" points="1000.31,-196.481 991.274,-202.008 1001.79,-203.325 1000.31,-196.481"/>
</g>
<!-- Node50 -->
<g id="node106" class="node"><title>Node50</title>
<a xlink:href="../../d8/d2c/class_u_b_graphics_widget_item_delegate.html#a79bf31a6cda75de23b70469270de5bd9" target="_top" xlink:title="UBGraphicsWidgetItemDelegate\l::decorateMenu">
<polygon fill="white" stroke="black" points="435.5,-224 435.5,-258 594.5,-258 594.5,-224 435.5,-224"/>
<text text-anchor="start" x="443.5" y="-245" font-family="Helvetica,sans-Serif" font-size="10.00">UBGraphicsWidgetItemDelegate</text>
<text text-anchor="middle" x="515" y="-232" font-family="Helvetica,sans-Serif" font-size="10.00">::decorateMenu</text>
</a>
</g>
<!-- Node49&#45;&gt;Node50 -->
<g id="edge112" class="edge"><title>Node49&#45;&gt;Node50</title>
<path fill="none" stroke="midnightblue" d="M398.794,-255.252C410.977,-253.757 423.342,-252.241 435.237,-250.782"/>
<polygon fill="midnightblue" stroke="midnightblue" points="398.117,-251.808 388.617,-256.5 398.969,-258.756 398.117,-251.808"/>
</g>
</g>
</svg>
