<?xml version="1.0" encoding="UTF-8" standalone="no"?>
<!DOCTYPE svg PUBLIC "-//W3C//DTD SVG 1.1//EN"
 "http://www.w3.org/Graphics/SVG/1.1/DTD/svg11.dtd">
<!-- Generated by graphviz version 2.26.3 (20100126.1600)
 -->
<!-- Title: UBBoardController::boardViewResized Pages: 1 -->
<svg width="618pt" height="42pt"
 viewBox="0.00 0.00 618.00 42.00" xmlns="http://www.w3.org/2000/svg" xmlns:xlink="http://www.w3.org/1999/xlink">
<g id="graph1" class="graph" transform="scale(1 1) rotate(0) translate(4 38)">
<title>UBBoardController::boardViewResized</title>
<polygon fill="white" stroke="white" points="-4,5 -4,-38 615,-38 615,5 -4,5"/>
<!-- Node1 -->
<g id="node1" class="node"><title>Node1</title>
<polygon fill="#bfbfbf" stroke="black" points="0.5,-0 0.5,-34 101.5,-34 101.5,-0 0.5,-0"/>
<text text-anchor="start" x="8.5" y="-21" font-family="Helvetica,sans-Serif" font-size="10.00">UBBoardController:</text>
<text text-anchor="middle" x="51" y="-8" font-family="Helvetica,sans-Serif" font-size="10.00">:boardViewResized</text>
</g>
<!-- Node2 -->
<g id="node3" class="node"><title>Node2</title>
<a xlink:href="../../d7/d62/class_u_b_board_controller.html#a50a3a56de6549d3c324468d3ede35137" target="_top" xlink:title="UBBoardController:\l:setupViews">
<polygon fill="white" stroke="black" points="138.5,-0 138.5,-34 239.5,-34 239.5,-0 138.5,-0"/>
<text text-anchor="start" x="146.5" y="-21" font-family="Helvetica,sans-Serif" font-size="10.00">UBBoardController:</text>
<text text-anchor="middle" x="189" y="-8" font-family="Helvetica,sans-Serif" font-size="10.00">:setupViews</text>
</a>
</g>
<!-- Node1&#45;&gt;Node2 -->
<g id="edge2" class="edge"><title>Node1&#45;&gt;Node2</title>
<path fill="none" stroke="midnightblue" d="M111.882,-17C120.74,-17 129.779,-17 138.404,-17"/>
<polygon fill="midnightblue" stroke="midnightblue" points="111.603,-13.5001 101.603,-17 111.602,-20.5001 111.603,-13.5001"/>
</g>
<!-- Node3 -->
<g id="node5" class="node"><title>Node3</title>
<a xlink:href="../../d7/d62/class_u_b_board_controller.html#aa728cb7c1b979b2d4ae45638a7386dde" target="_top" xlink:title="UBBoardController::init">
<polygon fill="white" stroke="black" points="276.5,-6.5 276.5,-27.5 393.5,-27.5 393.5,-6.5 276.5,-6.5"/>
<text text-anchor="middle" x="335" y="-14.5" font-family="Helvetica,sans-Serif" font-size="10.00">UBBoardController::init</text>
</a>
</g>
<!-- Node2&#45;&gt;Node3 -->
<g id="edge4" class="edge"><title>Node2&#45;&gt;Node3</title>
<path fill="none" stroke="midnightblue" d="M249.836,-17C258.631,-17 267.668,-17 276.418,-17"/>
<polygon fill="midnightblue" stroke="midnightblue" points="249.654,-13.5001 239.654,-17 249.654,-20.5001 249.654,-13.5001"/>
</g>
<!-- Node4 -->
<g id="node7" class="node"><title>Node4</title>
<a xlink:href="../../d8/d81/class_u_b_application.html#add1469239e71bf24fdc61413a42a38bd" target="_top" xlink:title="UBApplication::exec">
<polygon fill="white" stroke="black" points="430,-6.5 430,-27.5 536,-27.5 536,-6.5 430,-6.5"/>
<text text-anchor="middle" x="483" y="-14.5" font-family="Helvetica,sans-Serif" font-size="10.00">UBApplication::exec</text>
</a>
</g>
<!-- Node3&#45;&gt;Node4 -->
<g id="edge6" class="edge"><title>Node3&#45;&gt;Node4</title>
<path fill="none" stroke="midnightblue" d="M403.947,-17C412.549,-17 421.243,-17 429.56,-17"/>
<polygon fill="midnightblue" stroke="midnightblue" points="403.919,-13.5001 393.919,-17 403.919,-20.5001 403.919,-13.5001"/>
</g>
<!-- Node5 -->
<g id="node9" class="node"><title>Node5</title>
<a xlink:href="../../df/d0a/main_8cpp.html#a0ddf1224851353fc92bfbff6f499fa97" target="_top" xlink:title="main">
<polygon fill="white" stroke="black" points="572,-6.5 572,-27.5 610,-27.5 610,-6.5 572,-6.5"/>
<text text-anchor="middle" x="591" y="-14.5" font-family="Helvetica,sans-Serif" font-size="10.00">main</text>
</a>
</g>
<!-- Node4&#45;&gt;Node5 -->
<g id="edge8" class="edge"><title>Node4&#45;&gt;Node5</title>
<path fill="none" stroke="midnightblue" d="M546.214,-17C555.495,-17 564.401,-17 571.793,-17"/>
<polygon fill="midnightblue" stroke="midnightblue" points="546.051,-13.5001 536.051,-17 546.051,-20.5001 546.051,-13.5001"/>
</g>
</g>
</svg>
