<?xml version="1.0" encoding="UTF-8" standalone="no"?>
<!DOCTYPE svg PUBLIC "-//W3C//DTD SVG 1.1//EN"
 "http://www.w3.org/Graphics/SVG/1.1/DTD/svg11.dtd">
<!-- Generated by graphviz version 2.26.3 (20100126.1600)
 -->
<!-- Title: UBBoardController::setWidePageSize Pages: 1 -->
<!--zoomable 569 -->
<svg id="main" version="1.1" xmlns="http://www.w3.org/2000/svg" xmlns:xlink="http://www.w3.org/1999/xlink" xml:space="preserve" onload="init(evt)">
        <defs>
                <circle id="rim" cx="0" cy="0" r="7"/>
                <circle id="rim2" cx="0" cy="0" r="3.5"/>
                <g id="zoomPlus">
                        <use xlink:href="#rim" fill="#404040">
                                <set attributeName="fill" to="#808080" begin="zoomplus.mouseover" end="zoomplus.mouseout"/>
                        </use>
                        <path d="M-4,0h8M0,-4v8" fill="none" stroke="white" stroke-width="1.5" pointer-events="none"/>
                </g>
                <g id="zoomMin">
                        <use xlink:href="#rim" fill="#404040">
                                <set attributeName="fill" to="#808080" begin="zoomminus.mouseover" end="zoomminus.mouseout"/>
                        </use>
                        <path d="M-4,0h8" fill="none" stroke="white" stroke-width="1.5" pointer-events="none"/>
                </g>
                <g id="dirArrow">
                        <path fill="none" stroke="white" stroke-width="1.5" d="M0,-3.0v7 M-2.5,-0.5L0,-3.0L2.5,-0.5"/>
                </g>
               <g id="resetDef">
                       <use xlink:href="#rim2" fill="#404040">
                               <set attributeName="fill" to="#808080" begin="reset.mouseover" end="reset.mouseout"/>
                       </use>
               </g>
        </defs>

<script type="text/javascript">
var viewWidth = 1202;
var viewHeight = 569;
var sectionId = 'dynsection-152';
</script>
<script xlink:href="../../svgpan.js"/>
<svg id="graph" class="graph">
<g id="viewport">
<title>UBBoardController::setWidePageSize</title>
<polygon fill="white" stroke="white" points="-4,5 -4,-564.663 1199,-564.663 1199,5 -4,5"/>
<!-- Node1 -->
<g id="node1" class="node"><title>Node1</title>
<polygon fill="#bfbfbf" stroke="black" points="0.5,-217 0.5,-251 101.5,-251 101.5,-217 0.5,-217"/>
<text text-anchor="start" x="8.5" y="-238" font-family="Helvetica,sans-Serif" font-size="10.00">UBBoardController:</text>
<text text-anchor="middle" x="51" y="-225" font-family="Helvetica,sans-Serif" font-size="10.00">:setWidePageSize</text>
</g>
<!-- Node2 -->
<g id="node3" class="node"><title>Node2</title>
<a xlink:href="../../db/d66/class_u_b_settings.html#a0d8ed418921c2b2d37851faeae00715d" target="_top" xlink:title="UBSettings::settings">
<polygon fill="white" stroke="black" points="913.5,-193.5 913.5,-214.5 1020.5,-214.5 1020.5,-193.5 913.5,-193.5"/>
<text text-anchor="middle" x="967" y="-201.5" font-family="Helvetica,sans-Serif" font-size="10.00">UBSettings::settings</text>
</a>
</g>
<!-- Node1&#45;&gt;Node2 -->
<g id="edge2" class="edge"><title>Node1&#45;&gt;Node2</title>
<path fill="none" stroke="midnightblue" d="M61.9896,-216.793C97.9971,-162.754 218.443,-0 363,-0 363,-0 363,-0 571,-0 733.2,-0 895.426,-136.926 948.766,-186.419"/>
<polygon fill="midnightblue" stroke="midnightblue" points="946.422,-189.019 956.104,-193.319 951.217,-183.919 946.422,-189.019"/>
</g>
<!-- Node3 -->
<g id="node5" class="node"><title>Node3</title>
<a xlink:href="../../dc/db2/class_u_b_graphics_scene.html#aec88131e2343abb3e86dc5efcd8de622" target="_top" xlink:title="UBGraphicsScene::nominalSize">
<polygon fill="white" stroke="black" points="492.5,-300.5 492.5,-321.5 649.5,-321.5 649.5,-300.5 492.5,-300.5"/>
<text text-anchor="middle" x="571" y="-308.5" font-family="Helvetica,sans-Serif" font-size="10.00">UBGraphicsScene::nominalSize</text>
</a>
</g>
<!-- Node1&#45;&gt;Node3 -->
<g id="edge4" class="edge"><title>Node1&#45;&gt;Node3</title>
<path fill="none" stroke="midnightblue" d="M101.807,-241.523C192.137,-254.899 381.364,-282.919 489.886,-298.989"/>
<polygon fill="midnightblue" stroke="midnightblue" points="489.404,-302.456 499.809,-300.458 490.429,-295.531 489.404,-302.456"/>
</g>
<!-- Node8 -->
<g id="node16" class="node"><title>Node8</title>
<a xlink:href="../../d7/d62/class_u_b_board_controller.html#ad0826689aa9e177e31aea29fa68eedd9" target="_top" xlink:title="UBBoardController:\l:setPageSize">
<polygon fill="white" stroke="black" points="138.5,-332 138.5,-366 239.5,-366 239.5,-332 138.5,-332"/>
<text text-anchor="start" x="146.5" y="-353" font-family="Helvetica,sans-Serif" font-size="10.00">UBBoardController:</text>
<text text-anchor="middle" x="189" y="-340" font-family="Helvetica,sans-Serif" font-size="10.00">:setPageSize</text>
</a>
</g>
<!-- Node1&#45;&gt;Node8 -->
<g id="edge16" class="edge"><title>Node1&#45;&gt;Node8</title>
<path fill="none" stroke="midnightblue" d="M71.66,-251.217C95.2368,-270.864 133.946,-303.121 160.409,-325.174"/>
<polygon fill="midnightblue" stroke="midnightblue" points="158.276,-327.953 168.199,-331.666 162.757,-322.575 158.276,-327.953"/>
</g>
<!-- Node4 -->
<g id="node7" class="node"><title>Node4</title>
<a xlink:href="../../de/db4/class_u_b_document_proxy.html#addf3e5100a1a6b16b13a6ca4ebf5b091" target="_top" xlink:title="UBDocumentProxy::default\lDocumentSize">
<polygon fill="white" stroke="black" points="705.5,-300 705.5,-334 842.5,-334 842.5,-300 705.5,-300"/>
<text text-anchor="start" x="713.5" y="-321" font-family="Helvetica,sans-Serif" font-size="10.00">UBDocumentProxy::default</text>
<text text-anchor="middle" x="774" y="-308" font-family="Helvetica,sans-Serif" font-size="10.00">DocumentSize</text>
</a>
</g>
<!-- Node3&#45;&gt;Node4 -->
<g id="edge6" class="edge"><title>Node3&#45;&gt;Node4</title>
<path fill="none" stroke="midnightblue" d="M649.776,-313.328C664.626,-313.767 680.161,-314.226 695.018,-314.666"/>
<polygon fill="midnightblue" stroke="midnightblue" points="695.079,-318.169 705.178,-314.966 695.286,-311.172 695.079,-318.169"/>
</g>
<!-- Node4&#45;&gt;Node2 -->
<g id="edge10" class="edge"><title>Node4&#45;&gt;Node2</title>
<path fill="none" stroke="midnightblue" d="M825.71,-299.93C835.978,-295.856 846.511,-291.17 856,-286 890.361,-267.28 926.057,-239.071 947.4,-221.1"/>
<polygon fill="midnightblue" stroke="midnightblue" points="949.765,-223.682 955.103,-214.53 945.223,-218.356 949.765,-223.682"/>
</g>
<!-- Node5 -->
<g id="node9" class="node"><title>Node5</title>
<a xlink:href="../../de/db4/class_u_b_document_proxy.html#aba93539ec11aad9eb4156cb4edf246ba" target="_top" xlink:title="UBDocumentProxy::metaData">
<polygon fill="white" stroke="black" points="892,-336.5 892,-357.5 1042,-357.5 1042,-336.5 892,-336.5"/>
<text text-anchor="middle" x="967" y="-344.5" font-family="Helvetica,sans-Serif" font-size="10.00">UBDocumentProxy::metaData</text>
</a>
</g>
<!-- Node4&#45;&gt;Node5 -->
<g id="edge8" class="edge"><title>Node4&#45;&gt;Node5</title>
<path fill="none" stroke="midnightblue" d="M842.588,-327.661C857.697,-330.01 873.806,-332.514 889.248,-334.914"/>
<polygon fill="midnightblue" stroke="midnightblue" points="888.863,-338.396 899.282,-336.474 889.938,-331.479 888.863,-338.396"/>
</g>
<!-- Node6 -->
<g id="node12" class="node"><title>Node6</title>
<a xlink:href="../../d7/d24/class_u_b_setting.html#afe671b284dd9f1e313e6f27df3ecd2a8" target="_top" xlink:title="UBSetting::get">
<polygon fill="white" stroke="black" points="926.5,-296.5 926.5,-317.5 1007.5,-317.5 1007.5,-296.5 926.5,-296.5"/>
<text text-anchor="middle" x="967" y="-304.5" font-family="Helvetica,sans-Serif" font-size="10.00">UBSetting::get</text>
</a>
</g>
<!-- Node4&#45;&gt;Node6 -->
<g id="edge12" class="edge"><title>Node4&#45;&gt;Node6</title>
<path fill="none" stroke="midnightblue" d="M842.588,-313.446C866.923,-312.185 893.849,-310.79 916.41,-309.621"/>
<polygon fill="midnightblue" stroke="midnightblue" points="916.638,-313.114 926.443,-309.101 916.276,-306.124 916.638,-313.114"/>
</g>
<!-- Node7 -->
<g id="node14" class="node"><title>Node7</title>
<a xlink:href="../../db/d66/class_u_b_settings.html#a30f5b15068954099f41c054979593275" target="_top" xlink:title="UBSettings::value">
<polygon fill="white" stroke="black" points="1088,-296.5 1088,-317.5 1184,-317.5 1184,-296.5 1088,-296.5"/>
<text text-anchor="middle" x="1136" y="-304.5" font-family="Helvetica,sans-Serif" font-size="10.00">UBSettings::value</text>
</a>
</g>
<!-- Node6&#45;&gt;Node7 -->
<g id="edge14" class="edge"><title>Node6&#45;&gt;Node7</title>
<path fill="none" stroke="midnightblue" d="M1007.91,-307C1028.93,-307 1054.9,-307 1077.95,-307"/>
<polygon fill="midnightblue" stroke="midnightblue" points="1077.97,-310.5 1087.97,-307 1077.97,-303.5 1077.97,-310.5"/>
</g>
<!-- Node8&#45;&gt;Node2 -->
<g id="edge60" class="edge"><title>Node8&#45;&gt;Node2</title>
<path fill="none" stroke="midnightblue" d="M221.657,-331.811C237.646,-324.062 257.416,-315.448 276,-310 439.882,-261.959 487.206,-278.957 656,-253 741.59,-239.838 840.355,-224.2 903.206,-214.192"/>
<polygon fill="midnightblue" stroke="midnightblue" points="904.036,-217.604 913.361,-212.574 902.935,-210.691 904.036,-217.604"/>
</g>
<!-- Node8&#45;&gt;Node3 -->
<g id="edge18" class="edge"><title>Node8&#45;&gt;Node3</title>
<path fill="none" stroke="midnightblue" d="M239.799,-335.842C251.612,-333.195 264.189,-330.706 276,-329 344.889,-319.05 423.602,-314.59 482.385,-312.597"/>
<polygon fill="midnightblue" stroke="midnightblue" points="482.499,-316.095 492.381,-312.275 482.274,-309.099 482.499,-316.095"/>
</g>
<!-- Node9 -->
<g id="node19" class="node"><title>Node9</title>
<a xlink:href="../../dc/db2/class_u_b_graphics_scene.html#a30821700452b29351caedb551fc1e834" target="_top" xlink:title="UBGraphicsScene::setNominalSize">
<polygon fill="white" stroke="black" points="276.5,-378.5 276.5,-399.5 449.5,-399.5 449.5,-378.5 276.5,-378.5"/>
<text text-anchor="middle" x="363" y="-386.5" font-family="Helvetica,sans-Serif" font-size="10.00">UBGraphicsScene::setNominalSize</text>
</a>
</g>
<!-- Node8&#45;&gt;Node9 -->
<g id="edge20" class="edge"><title>Node8&#45;&gt;Node9</title>
<path fill="none" stroke="midnightblue" d="M239.796,-360.677C260.925,-365.534 285.522,-371.189 307.157,-376.163"/>
<polygon fill="midnightblue" stroke="midnightblue" points="306.658,-379.639 317.188,-378.468 308.226,-372.817 306.658,-379.639"/>
</g>
<!-- Node12 -->
<g id="node27" class="node"><title>Node12</title>
<a xlink:href="../../de/db4/class_u_b_document_proxy.html#a541c361c5a415640974ecf94147126b1" target="_top" xlink:title="UBDocumentProxy::setMetaData">
<polygon fill="white" stroke="black" points="692,-444.5 692,-465.5 856,-465.5 856,-444.5 692,-444.5"/>
<text text-anchor="middle" x="774" y="-452.5" font-family="Helvetica,sans-Serif" font-size="10.00">UBDocumentProxy::setMetaData</text>
</a>
</g>
<!-- Node8&#45;&gt;Node12 -->
<g id="edge56" class="edge"><title>Node8&#45;&gt;Node12</title>
<path fill="none" stroke="midnightblue" d="M192.503,-366.041C200.5,-400.032 223.611,-475.756 276,-508 419.854,-596.539 491.733,-554.364 656,-515 691.12,-506.584 727.586,-485.893 750.512,-471.167"/>
<polygon fill="midnightblue" stroke="midnightblue" points="752.456,-474.078 758.891,-465.661 748.612,-468.227 752.456,-474.078"/>
</g>
<!-- Node17 -->
<g id="node37" class="node"><title>Node17</title>
<a xlink:href="../../d7/d62/class_u_b_board_controller.html#a6dd49077c4806bcddb8339961424bfce" target="_top" xlink:title="UBBoardController:\l:updateSystemScaleFactor">
<polygon fill="white" stroke="black" points="295.5,-164 295.5,-198 430.5,-198 430.5,-164 295.5,-164"/>
<text text-anchor="start" x="303.5" y="-185" font-family="Helvetica,sans-Serif" font-size="10.00">UBBoardController:</text>
<text text-anchor="middle" x="363" y="-172" font-family="Helvetica,sans-Serif" font-size="10.00">:updateSystemScaleFactor</text>
</a>
</g>
<!-- Node8&#45;&gt;Node17 -->
<g id="edge40" class="edge"><title>Node8&#45;&gt;Node17</title>
<path fill="none" stroke="midnightblue" d="M204.625,-331.819C221.731,-313.211 250.171,-282.855 276,-258 294.985,-239.731 317.247,-220.058 334.499,-205.17"/>
<polygon fill="midnightblue" stroke="midnightblue" points="337.223,-207.444 342.529,-198.273 332.662,-202.134 337.223,-207.444"/>
</g>
<!-- Node22 -->
<g id="node49" class="node"><title>Node22</title>
<a xlink:href="../../da/dc6/class_u_b_document_container.html#a859116555c2e46b6949e6e1cc613d754" target="_top" xlink:title="UBDocumentContainer\l::selectedDocument">
<polygon fill="white" stroke="black" points="304,-465 304,-499 422,-499 422,-465 304,-465"/>
<text text-anchor="start" x="312" y="-486" font-family="Helvetica,sans-Serif" font-size="10.00">UBDocumentContainer</text>
<text text-anchor="middle" x="363" y="-473" font-family="Helvetica,sans-Serif" font-size="10.00">::selectedDocument</text>
</a>
</g>
<!-- Node8&#45;&gt;Node22 -->
<g id="edge54" class="edge"><title>Node8&#45;&gt;Node22</title>
<path fill="none" stroke="midnightblue" d="M198.441,-366.151C212.349,-389.837 240.571,-432.316 276,-456 281.635,-459.767 287.832,-463.002 294.243,-465.778"/>
<polygon fill="midnightblue" stroke="midnightblue" points="293.161,-469.114 303.748,-469.524 295.728,-462.601 293.161,-469.114"/>
</g>
<!-- Node23 -->
<g id="node52" class="node"><title>Node23</title>
<a xlink:href="../../dc/d4c/class_u_b_string_utils.html#aca5c79d1ca00f4ecbf5e014b7d9810a6" target="_top" xlink:title="UBStringUtils::toUtcIsoDateTime">
<polygon fill="white" stroke="black" points="281.5,-338.5 281.5,-359.5 444.5,-359.5 444.5,-338.5 281.5,-338.5"/>
<text text-anchor="middle" x="363" y="-346.5" font-family="Helvetica,sans-Serif" font-size="10.00">UBStringUtils::toUtcIsoDateTime</text>
</a>
</g>
<!-- Node8&#45;&gt;Node23 -->
<g id="edge58" class="edge"><title>Node8&#45;&gt;Node23</title>
<path fill="none" stroke="midnightblue" d="M239.796,-349C249.678,-349 260.318,-349 271.06,-349"/>
<polygon fill="midnightblue" stroke="midnightblue" points="271.367,-352.5 281.367,-349 271.367,-345.5 271.367,-352.5"/>
</g>
<!-- Node24 -->
<g id="node55" class="node"><title>Node24</title>
<a xlink:href="../../d7/d24/class_u_b_setting.html#a5dc12b91ffabb031a3a7a8322f5d30ed" target="_top" xlink:title="UBSetting::set">
<polygon fill="white" stroke="black" points="322.5,-425.5 322.5,-446.5 403.5,-446.5 403.5,-425.5 322.5,-425.5"/>
<text text-anchor="middle" x="363" y="-433.5" font-family="Helvetica,sans-Serif" font-size="10.00">UBSetting::set</text>
</a>
</g>
<!-- Node8&#45;&gt;Node24 -->
<g id="edge62" class="edge"><title>Node8&#45;&gt;Node24</title>
<path fill="none" stroke="midnightblue" d="M210.039,-366.229C226.997,-379.423 251.906,-397.292 276,-409 287.448,-414.563 300.297,-419.297 312.535,-423.173"/>
<polygon fill="midnightblue" stroke="midnightblue" points="311.594,-426.545 322.18,-426.097 313.625,-419.846 311.594,-426.545"/>
</g>
<!-- Node9&#45;&gt;Node3 -->
<g id="edge22" class="edge"><title>Node9&#45;&gt;Node3</title>
<path fill="none" stroke="midnightblue" d="M428.271,-378.46C435.853,-375.951 443.272,-372.845 450,-369 470.199,-357.457 465.831,-342.595 486,-331 489.875,-328.772 493.985,-326.792 498.224,-325.033"/>
<polygon fill="midnightblue" stroke="midnightblue" points="499.517,-328.286 507.671,-321.522 497.078,-321.725 499.517,-328.286"/>
</g>
<!-- Node10 -->
<g id="node22" class="node"><title>Node10</title>
<a xlink:href="../../dc/db2/class_u_b_graphics_scene.html#a83c404a044e0e608b63b998751af645d" target="_top" xlink:title="UBGraphicsScene::pageSize\lChanged">
<polygon fill="white" stroke="black" points="499,-340 499,-374 643,-374 643,-340 499,-340"/>
<text text-anchor="start" x="507" y="-361" font-family="Helvetica,sans-Serif" font-size="10.00">UBGraphicsScene::pageSize</text>
<text text-anchor="middle" x="571" y="-348" font-family="Helvetica,sans-Serif" font-size="10.00">Changed</text>
</a>
</g>
<!-- Node9&#45;&gt;Node10 -->
<g id="edge24" class="edge"><title>Node9&#45;&gt;Node10</title>
<path fill="none" stroke="midnightblue" d="M431.395,-378.478C449.762,-375.652 469.815,-372.567 488.845,-369.639"/>
<polygon fill="midnightblue" stroke="midnightblue" points="489.639,-373.058 498.991,-368.078 488.575,-366.14 489.639,-373.058"/>
</g>
<!-- Node11 -->
<g id="node24" class="node"><title>Node11</title>
<a xlink:href="../../de/db4/class_u_b_document_proxy.html#a956c4570c8f97908895dd5169e3a8af1" target="_top" xlink:title="UBDocumentProxy::setDefault\lDocumentSize">
<polygon fill="white" stroke="black" points="495,-392 495,-426 647,-426 647,-392 495,-392"/>
<text text-anchor="start" x="503" y="-413" font-family="Helvetica,sans-Serif" font-size="10.00">UBDocumentProxy::setDefault</text>
<text text-anchor="middle" x="571" y="-400" font-family="Helvetica,sans-Serif" font-size="10.00">DocumentSize</text>
</a>
</g>
<!-- Node9&#45;&gt;Node11 -->
<g id="edge26" class="edge"><title>Node9&#45;&gt;Node11</title>
<path fill="none" stroke="midnightblue" d="M449.705,-397.337C461.257,-398.448 473.103,-399.587 484.65,-400.697"/>
<polygon fill="midnightblue" stroke="midnightblue" points="484.416,-404.191 494.705,-401.664 485.086,-397.223 484.416,-404.191"/>
</g>
<!-- Node11&#45;&gt;Node4 -->
<g id="edge28" class="edge"><title>Node11&#45;&gt;Node4</title>
<path fill="none" stroke="midnightblue" d="M632.389,-391.938C640.427,-389.206 648.478,-386.211 656,-383 684.779,-370.717 715.582,-353.33 738.498,-339.485"/>
<polygon fill="midnightblue" stroke="midnightblue" points="740.474,-342.379 747.183,-334.179 736.825,-336.406 740.474,-342.379"/>
</g>
<!-- Node11&#45;&gt;Node12 -->
<g id="edge30" class="edge"><title>Node11&#45;&gt;Node12</title>
<path fill="none" stroke="midnightblue" d="M646.301,-426.063C669.883,-431.407 695.49,-437.21 717.54,-442.206"/>
<polygon fill="midnightblue" stroke="midnightblue" points="716.874,-445.644 727.4,-444.44 718.421,-438.817 716.874,-445.644"/>
</g>
<!-- Node16 -->
<g id="node35" class="node"><title>Node16</title>
<a xlink:href="../../de/db4/class_u_b_document_proxy.html#a19487b8fe303e9a06b08ca5bd0fc505c" target="_top" xlink:title="UBDocumentProxy::default\lDocumentSizeChanged">
<polygon fill="white" stroke="black" points="705.5,-392 705.5,-426 842.5,-426 842.5,-392 705.5,-392"/>
<text text-anchor="start" x="713.5" y="-413" font-family="Helvetica,sans-Serif" font-size="10.00">UBDocumentProxy::default</text>
<text text-anchor="middle" x="774" y="-400" font-family="Helvetica,sans-Serif" font-size="10.00">DocumentSizeChanged</text>
</a>
</g>
<!-- Node11&#45;&gt;Node16 -->
<g id="edge38" class="edge"><title>Node11&#45;&gt;Node16</title>
<path fill="none" stroke="midnightblue" d="M647.167,-409C662.856,-409 679.408,-409 695.189,-409"/>
<polygon fill="midnightblue" stroke="midnightblue" points="695.431,-412.5 705.43,-409 695.43,-405.5 695.431,-412.5"/>
</g>
<!-- Node13 -->
<g id="node29" class="node"><title>Node13</title>
<a xlink:href="../../d2/da1/class_u_b_document_manager.html#a76098e4be543e87a5fc05c6d471a2670" target="_top" xlink:title="UBDocumentManager:\l:documentManager">
<polygon fill="white" stroke="black" points="909,-448 909,-482 1025,-482 1025,-448 909,-448"/>
<text text-anchor="start" x="917" y="-469" font-family="Helvetica,sans-Serif" font-size="10.00">UBDocumentManager:</text>
<text text-anchor="middle" x="967" y="-456" font-family="Helvetica,sans-Serif" font-size="10.00">:documentManager</text>
</a>
</g>
<!-- Node12&#45;&gt;Node13 -->
<g id="edge32" class="edge"><title>Node12&#45;&gt;Node13</title>
<path fill="none" stroke="midnightblue" d="M856.129,-459.255C870.273,-459.988 884.838,-460.743 898.573,-461.455"/>
<polygon fill="midnightblue" stroke="midnightblue" points="898.725,-464.967 908.893,-461.989 899.087,-457.976 898.725,-464.967"/>
</g>
<!-- Node14 -->
<g id="node31" class="node"><title>Node14</title>
<a xlink:href="../../d2/da1/class_u_b_document_manager.html#af14733ff65800757f9ce8fcd8ae965b1" target="_top" xlink:title="UBDocumentManager:\l:emitDocumentUpdated">
<polygon fill="white" stroke="black" points="907,-396 907,-430 1027,-430 1027,-396 907,-396"/>
<text text-anchor="start" x="915" y="-417" font-family="Helvetica,sans-Serif" font-size="10.00">UBDocumentManager:</text>
<text text-anchor="middle" x="967" y="-404" font-family="Helvetica,sans-Serif" font-size="10.00">:emitDocumentUpdated</text>
</a>
</g>
<!-- Node12&#45;&gt;Node14 -->
<g id="edge34" class="edge"><title>Node12&#45;&gt;Node14</title>
<path fill="none" stroke="midnightblue" d="M822.702,-444.402C845.178,-439.511 872.281,-433.612 896.901,-428.255"/>
<polygon fill="midnightblue" stroke="midnightblue" points="897.89,-431.621 906.917,-426.075 896.402,-424.782 897.89,-431.621"/>
</g>
<!-- Node15 -->
<g id="node33" class="node"><title>Node15</title>
<a xlink:href="../../d2/da1/class_u_b_document_manager.html#a0e26ccb4bc2fafa07f56ad5985154fbe" target="_top" xlink:title="UBDocumentManager:\l:documentUpdated">
<polygon fill="white" stroke="black" points="1078,-396 1078,-430 1194,-430 1194,-396 1078,-396"/>
<text text-anchor="start" x="1086" y="-417" font-family="Helvetica,sans-Serif" font-size="10.00">UBDocumentManager:</text>
<text text-anchor="middle" x="1136" y="-404" font-family="Helvetica,sans-Serif" font-size="10.00">:documentUpdated</text>
</a>
</g>
<!-- Node14&#45;&gt;Node15 -->
<g id="edge36" class="edge"><title>Node14&#45;&gt;Node15</title>
<path fill="none" stroke="midnightblue" d="M1027.06,-413C1040.21,-413 1054.23,-413 1067.68,-413"/>
<polygon fill="midnightblue" stroke="midnightblue" points="1067.84,-416.5 1077.84,-413 1067.84,-409.5 1067.84,-416.5"/>
</g>
<!-- Node17&#45;&gt;Node2 -->
<g id="edge44" class="edge"><title>Node17&#45;&gt;Node2</title>
<path fill="none" stroke="midnightblue" d="M430.752,-167.976C448.648,-165.088 467.994,-162.454 486,-161 636.424,-148.85 813.116,-175.045 904.768,-191.669"/>
<polygon fill="midnightblue" stroke="midnightblue" points="904.243,-195.131 914.711,-193.496 905.508,-188.246 904.243,-195.131"/>
</g>
<!-- Node17&#45;&gt;Node3 -->
<g id="edge42" class="edge"><title>Node17&#45;&gt;Node3</title>
<path fill="none" stroke="midnightblue" d="M408.254,-198.012C422.139,-204.083 437.138,-211.542 450,-220 468.135,-231.925 468.992,-239.515 486,-253 505.193,-268.217 528.208,-283.77 545.446,-294.935"/>
<polygon fill="midnightblue" stroke="midnightblue" points="543.576,-297.894 553.883,-300.349 547.356,-292.003 543.576,-297.894"/>
</g>
<!-- Node18 -->
<g id="node41" class="node"><title>Node18</title>
<a xlink:href="../../d7/d62/class_u_b_board_controller.html#ad0b66f7f22704b350af880fc771d0c9a" target="_top" xlink:title="UBBoardController:\l:controlViewport">
<polygon fill="white" stroke="black" points="520.5,-28 520.5,-62 621.5,-62 621.5,-28 520.5,-28"/>
<text text-anchor="start" x="528.5" y="-49" font-family="Helvetica,sans-Serif" font-size="10.00">UBBoardController:</text>
<text text-anchor="middle" x="571" y="-36" font-family="Helvetica,sans-Serif" font-size="10.00">:controlViewport</text>
</a>
</g>
<!-- Node17&#45;&gt;Node18 -->
<g id="edge46" class="edge"><title>Node17&#45;&gt;Node18</title>
<path fill="none" stroke="midnightblue" d="M377.565,-163.965C398.991,-139.927 441.328,-96.1791 486,-71 493.619,-66.7058 502.03,-63.0387 510.509,-59.9315"/>
<polygon fill="midnightblue" stroke="midnightblue" points="511.745,-63.2077 520.073,-56.6576 509.478,-56.585 511.745,-63.2077"/>
</g>
<!-- Node19 -->
<g id="node43" class="node"><title>Node19</title>
<a xlink:href="../../d7/d62/class_u_b_board_controller.html#a696505e51a5a2c14cfaaffc2f2be590d" target="_top" xlink:title="UBBoardController:\l:systemScaleFactorChanged">
<polygon fill="white" stroke="black" points="499.5,-210 499.5,-244 642.5,-244 642.5,-210 499.5,-210"/>
<text text-anchor="start" x="507.5" y="-231" font-family="Helvetica,sans-Serif" font-size="10.00">UBBoardController:</text>
<text text-anchor="middle" x="571" y="-218" font-family="Helvetica,sans-Serif" font-size="10.00">:systemScaleFactorChanged</text>
</a>
</g>
<!-- Node17&#45;&gt;Node19 -->
<g id="edge48" class="edge"><title>Node17&#45;&gt;Node19</title>
<path fill="none" stroke="midnightblue" d="M430.532,-195.935C449.305,-200.087 469.894,-204.64 489.382,-208.95"/>
<polygon fill="midnightblue" stroke="midnightblue" points="488.631,-212.368 499.151,-211.11 490.143,-205.533 488.631,-212.368"/>
</g>
<!-- Node20 -->
<g id="node45" class="node"><title>Node20</title>
<a xlink:href="../../dc/db2/class_u_b_graphics_scene.html#a2c461538b738de847dfe029bb27b7439" target="_top" xlink:title="UBGraphicsScene::viewState">
<polygon fill="white" stroke="black" points="497.5,-170.5 497.5,-191.5 644.5,-191.5 644.5,-170.5 497.5,-170.5"/>
<text text-anchor="middle" x="571" y="-178.5" font-family="Helvetica,sans-Serif" font-size="10.00">UBGraphicsScene::viewState</text>
</a>
</g>
<!-- Node17&#45;&gt;Node20 -->
<g id="edge50" class="edge"><title>Node17&#45;&gt;Node20</title>
<path fill="none" stroke="midnightblue" d="M430.532,-181C448.631,-181 468.417,-181 487.278,-181"/>
<polygon fill="midnightblue" stroke="midnightblue" points="487.342,-184.5 497.342,-181 487.342,-177.5 487.342,-184.5"/>
</g>
<!-- Node21 -->
<g id="node47" class="node"><title>Node21</title>
<a xlink:href="../../dc/db2/class_u_b_graphics_scene.html#af42d001c250f1368e664c3243500373f" target="_top" xlink:title="UBGraphicsScene::setBackground\lZoomFactor">
<polygon fill="white" stroke="black" points="486.5,-80 486.5,-114 655.5,-114 655.5,-80 486.5,-80"/>
<text text-anchor="start" x="494.5" y="-101" font-family="Helvetica,sans-Serif" font-size="10.00">UBGraphicsScene::setBackground</text>
<text text-anchor="middle" x="571" y="-88" font-family="Helvetica,sans-Serif" font-size="10.00">ZoomFactor</text>
</a>
</g>
<!-- Node17&#45;&gt;Node21 -->
<g id="edge52" class="edge"><title>Node17&#45;&gt;Node21</title>
<path fill="none" stroke="midnightblue" d="M400.995,-163.962C425.184,-153.281 457.261,-139.422 486,-128 494.775,-124.512 504.117,-120.953 513.274,-117.549"/>
<polygon fill="midnightblue" stroke="midnightblue" points="514.548,-120.809 522.72,-114.066 512.126,-114.242 514.548,-120.809"/>
</g>
<!-- Node25 -->
<g id="node57" class="node"><title>Node25</title>
<a xlink:href="../../db/d66/class_u_b_settings.html#acf2a7dc86ac6849cdae8ad611ba71878" target="_top" xlink:title="UBSettings::setValue">
<polygon fill="white" stroke="black" points="515.5,-444.5 515.5,-465.5 626.5,-465.5 626.5,-444.5 515.5,-444.5"/>
<text text-anchor="middle" x="571" y="-452.5" font-family="Helvetica,sans-Serif" font-size="10.00">UBSettings::setValue</text>
</a>
</g>
<!-- Node24&#45;&gt;Node25 -->
<g id="edge64" class="edge"><title>Node24&#45;&gt;Node25</title>
<path fill="none" stroke="midnightblue" d="M403.598,-439.708C432.42,-442.341 471.746,-445.934 505.04,-448.975"/>
<polygon fill="midnightblue" stroke="midnightblue" points="504.884,-452.475 515.16,-449.899 505.52,-445.504 504.884,-452.475"/>
</g>
<!-- Node26 -->
<g id="node59" class="node"><title>Node26</title>
<a xlink:href="../../d7/d24/class_u_b_setting.html#a0f7d1e100a9d7d35a58c818a356702c7" target="_top" xlink:title="UBSetting::changed">
<polygon fill="white" stroke="black" points="519,-484.5 519,-505.5 623,-505.5 623,-484.5 519,-484.5"/>
<text text-anchor="middle" x="571" y="-492.5" font-family="Helvetica,sans-Serif" font-size="10.00">UBSetting::changed</text>
</a>
</g>
<!-- Node24&#45;&gt;Node26 -->
<g id="edge66" class="edge"><title>Node24&#45;&gt;Node26</title>
<path fill="none" stroke="midnightblue" d="M403.923,-443.121C418.69,-446.284 435.327,-450.548 450,-456 466.959,-462.302 469.058,-468.655 486,-475 493.287,-477.729 501.069,-480.168 508.854,-482.323"/>
<polygon fill="midnightblue" stroke="midnightblue" points="508.12,-485.749 518.681,-484.902 509.897,-478.978 508.12,-485.749"/>
</g>
</g>
</svg>
        <g id="navigator" transform="translate(0 0)" fill="#404254">
                <rect fill="#f2f5e9" fill-opacity="0.5" stroke="#606060" stroke-width=".5" x="0" y="0" width="60" height="60"/>
                <use id="zoomplus" xlink:href="#zoomPlus" x="17" y="9" onmousedown="handleZoom(evt,'in')"/>
                <use id="zoomminus" xlink:href="#zoomMin" x="42" y="9" onmousedown="handleZoom(evt,'out')"/>
                <use id="reset" xlink:href="#resetDef" x="30" y="36" onmousedown="handleReset()"/>
                <g id="arrowUp" xlink:href="#dirArrow" transform="translate(30 24)" onmousedown="handlePan(0,-1)">
                  <use xlink:href="#rim" fill="#404040">
                        <set attributeName="fill" to="#808080" begin="arrowUp.mouseover" end="arrowUp.mouseout"/>
                  </use>
                  <path fill="none" stroke="white" stroke-width="1.5" d="M0,-3.0v7 M-2.5,-0.5L0,-3.0L2.5,-0.5"/>
                </g>
                <g id="arrowRight" xlink:href="#dirArrow" transform="rotate(90) translate(36 -43)" onmousedown="handlePan(1,0)">
                  <use xlink:href="#rim" fill="#404040">
                        <set attributeName="fill" to="#808080" begin="arrowRight.mouseover" end="arrowRight.mouseout"/>
                  </use>
                  <path fill="none" stroke="white" stroke-width="1.5" d="M0,-3.0v7 M-2.5,-0.5L0,-3.0L2.5,-0.5"/>
                </g>
                <g id="arrowDown" xlink:href="#dirArrow" transform="rotate(180) translate(-30 -48)" onmousedown="handlePan(0,1)">
                  <use xlink:href="#rim" fill="#404040">
                        <set attributeName="fill" to="#808080" begin="arrowDown.mouseover" end="arrowDown.mouseout"/>
                  </use>
                  <path fill="none" stroke="white" stroke-width="1.5" d="M0,-3.0v7 M-2.5,-0.5L0,-3.0L2.5,-0.5"/>
                </g>
                <g id="arrowLeft" xlink:href="#dirArrow" transform="rotate(270) translate(-36 17)" onmousedown="handlePan(-1,0)">
                  <use xlink:href="#rim" fill="#404040">
                        <set attributeName="fill" to="#808080" begin="arrowLeft.mouseover" end="arrowLeft.mouseout"/>
                  </use>
                  <path fill="none" stroke="white" stroke-width="1.5" d="M0,-3.0v7 M-2.5,-0.5L0,-3.0L2.5,-0.5"/>
                </g>
        </g>
        <svg viewBox="0 0 15 15" width="100%" height="30px" preserveAspectRatio="xMaxYMin meet">
         <g id="arrow_out" transform="scale(0.3 0.3)">
          <a xlink:href="class_u_b_board_controller_a8ba21cf9f9bcd0680e90a67964bc75f2_cgraph_org.svg" target="_base">
           <rect id="button" ry="5" rx="5" y="6" x="6" height="38" width="38"
                fill="#f2f5e9" fill-opacity="0.5" stroke="#606060" stroke-width="1.0"/>
           <path id="arrow"
             d="M 11.500037,31.436501 C 11.940474,20.09759 22.043105,11.32322 32.158766,21.979434 L 37.068811,17.246167 C 37.068811,17.246167 37.088388,32 37.088388,32 L 22.160133,31.978069 C 22.160133,31.978069 26.997745,27.140456 26.997745,27.140456 C 18.528582,18.264221 13.291696,25.230495 11.500037,31.436501 z"
             style="fill:#404040;"/>
          </a>
         </g>
        </svg>
</svg>
