<?xml version="1.0" encoding="UTF-8" standalone="no"?>
<!DOCTYPE svg PUBLIC "-//W3C//DTD SVG 1.1//EN"
 "http://www.w3.org/Graphics/SVG/1.1/DTD/svg11.dtd">
<!-- Generated by graphviz version 2.26.3 (20100126.1600)
 -->
<!-- Title: UBBoardController::UBBoardController Pages: 1 -->
<!--zoomable 281 -->
<svg id="main" version="1.1" xmlns="http://www.w3.org/2000/svg" xmlns:xlink="http://www.w3.org/1999/xlink" xml:space="preserve" onload="init(evt)">
        <defs>
                <circle id="rim" cx="0" cy="0" r="7"/>
                <circle id="rim2" cx="0" cy="0" r="3.5"/>
                <g id="zoomPlus">
                        <use xlink:href="#rim" fill="#404040">
                                <set attributeName="fill" to="#808080" begin="zoomplus.mouseover" end="zoomplus.mouseout"/>
                        </use>
                        <path d="M-4,0h8M0,-4v8" fill="none" stroke="white" stroke-width="1.5" pointer-events="none"/>
                </g>
                <g id="zoomMin">
                        <use xlink:href="#rim" fill="#404040">
                                <set attributeName="fill" to="#808080" begin="zoomminus.mouseover" end="zoomminus.mouseout"/>
                        </use>
                        <path d="M-4,0h8" fill="none" stroke="white" stroke-width="1.5" pointer-events="none"/>
                </g>
                <g id="dirArrow">
                        <path fill="none" stroke="white" stroke-width="1.5" d="M0,-3.0v7 M-2.5,-0.5L0,-3.0L2.5,-0.5"/>
                </g>
               <g id="resetDef">
                       <use xlink:href="#rim2" fill="#404040">
                               <set attributeName="fill" to="#808080" begin="reset.mouseover" end="reset.mouseout"/>
                       </use>
               </g>
        </defs>

<script type="text/javascript">
var viewWidth = 1036;
var viewHeight = 281;
var sectionId = 'dynsection-2';
</script>
<script xlink:href="../../svgpan.js"/>
<svg id="graph" class="graph">
<g id="viewport">
<title>UBBoardController::UBBoardController</title>
<polygon fill="white" stroke="white" points="-4,5 -4,-277 1033,-277 1033,5 -4,5"/>
<!-- Node1 -->
<g id="node1" class="node"><title>Node1</title>
<polygon fill="#bfbfbf" stroke="black" points="0.5,-94 0.5,-128 101.5,-128 101.5,-94 0.5,-94"/>
<text text-anchor="start" x="8.5" y="-115" font-family="Helvetica,sans-Serif" font-size="10.00">UBBoardController:</text>
<text text-anchor="middle" x="51" y="-102" font-family="Helvetica,sans-Serif" font-size="10.00">:UBBoardController</text>
</g>
<!-- Node2 -->
<g id="node3" class="node"><title>Node2</title>
<a xlink:href="../../db/d66/class_u_b_settings.html#a0d8ed418921c2b2d37851faeae00715d" target="_top" xlink:title="UBSettings::settings">
<polygon fill="white" stroke="black" points="159.5,-200.5 159.5,-221.5 266.5,-221.5 266.5,-200.5 159.5,-200.5"/>
<text text-anchor="middle" x="213" y="-208.5" font-family="Helvetica,sans-Serif" font-size="10.00">UBSettings::settings</text>
</a>
</g>
<!-- Node1&#45;&gt;Node2 -->
<g id="edge2" class="edge"><title>Node1&#45;&gt;Node2</title>
<path fill="none" stroke="midnightblue" d="M65.203,-128.296C81.093,-146.529 108.501,-174.806 138,-191 142.138,-193.272 146.548,-195.296 151.078,-197.099"/>
<polygon fill="midnightblue" stroke="midnightblue" points="149.902,-200.395 160.497,-200.495 152.277,-193.81 149.902,-200.395"/>
</g>
<!-- Node12 -->
<g id="node24" class="node"><title>Node12</title>
<a xlink:href="../../d7/d24/class_u_b_setting.html#afe671b284dd9f1e313e6f27df3ecd2a8" target="_top" xlink:title="UBSetting::get">
<polygon fill="white" stroke="black" points="172.5,-160.5 172.5,-181.5 253.5,-181.5 253.5,-160.5 172.5,-160.5"/>
<text text-anchor="middle" x="213" y="-168.5" font-family="Helvetica,sans-Serif" font-size="10.00">UBSetting::get</text>
</a>
</g>
<!-- Node1&#45;&gt;Node12 -->
<g id="edge24" class="edge"><title>Node1&#45;&gt;Node12</title>
<path fill="none" stroke="midnightblue" d="M84.7353,-128.14C100.631,-135.791 120.014,-144.52 138,-151 145.752,-153.792 154.079,-156.392 162.264,-158.731"/>
<polygon fill="midnightblue" stroke="midnightblue" points="161.559,-162.167 172.13,-161.451 163.42,-155.419 161.559,-162.167"/>
</g>
<!-- Node14 -->
<g id="node28" class="node"><title>Node14</title>
<a xlink:href="../../db/d66/class_u_b_settings.html#a92682392a72ab8c73355572de1a21672" target="_top" xlink:title="UBSettings::penColorIndex">
<polygon fill="white" stroke="black" points="145,-120.5 145,-141.5 281,-141.5 281,-120.5 145,-120.5"/>
<text text-anchor="middle" x="213" y="-128.5" font-family="Helvetica,sans-Serif" font-size="10.00">UBSettings::penColorIndex</text>
</a>
</g>
<!-- Node1&#45;&gt;Node14 -->
<g id="edge28" class="edge"><title>Node1&#45;&gt;Node14</title>
<path fill="none" stroke="midnightblue" d="M101.813,-117.273C112.257,-118.563 123.481,-119.948 134.639,-121.326"/>
<polygon fill="midnightblue" stroke="midnightblue" points="134.489,-124.834 144.843,-122.586 135.347,-117.887 134.489,-124.834"/>
</g>
<!-- Node15 -->
<g id="node31" class="node"><title>Node15</title>
<a xlink:href="../../db/d66/class_u_b_settings.html#a74efce0dd871313e0c9cabdc84a0a5d0" target="_top" xlink:title="UBSettings::markerColorIndex">
<polygon fill="white" stroke="black" points="138,-80.5 138,-101.5 288,-101.5 288,-80.5 138,-80.5"/>
<text text-anchor="middle" x="213" y="-88.5" font-family="Helvetica,sans-Serif" font-size="10.00">UBSettings::markerColorIndex</text>
</a>
</g>
<!-- Node1&#45;&gt;Node15 -->
<g id="edge32" class="edge"><title>Node1&#45;&gt;Node15</title>
<path fill="none" stroke="midnightblue" d="M101.813,-104.727C110.106,-103.703 118.891,-102.618 127.744,-101.525"/>
<polygon fill="midnightblue" stroke="midnightblue" points="128.25,-104.99 137.746,-100.291 127.392,-98.0424 128.25,-104.99"/>
</g>
<!-- Node16 -->
<g id="node34" class="node"><title>Node16</title>
<a xlink:href="../../db/d66/class_u_b_settings.html#aedb07c4d22207e705dfabfe7497d078d" target="_top" xlink:title="UBSettings::penColors">
<polygon fill="white" stroke="black" points="154.5,-40.5 154.5,-61.5 271.5,-61.5 271.5,-40.5 154.5,-40.5"/>
<text text-anchor="middle" x="213" y="-48.5" font-family="Helvetica,sans-Serif" font-size="10.00">UBSettings::penColors</text>
</a>
</g>
<!-- Node1&#45;&gt;Node16 -->
<g id="edge36" class="edge"><title>Node1&#45;&gt;Node16</title>
<path fill="none" stroke="midnightblue" d="M84.7353,-93.8605C100.631,-86.2095 120.014,-77.4795 138,-71 144.712,-68.5822 151.854,-66.3091 158.963,-64.2242"/>
<polygon fill="midnightblue" stroke="midnightblue" points="159.922,-67.5906 168.592,-61.5021 158.017,-60.8546 159.922,-67.5906"/>
</g>
<!-- Node18 -->
<g id="node38" class="node"><title>Node18</title>
<a xlink:href="../../db/d66/class_u_b_settings.html#a3796f6c804d5079753f29d253facee99" target="_top" xlink:title="UBSettings::markerColors">
<polygon fill="white" stroke="black" points="147.5,-0.5 147.5,-21.5 278.5,-21.5 278.5,-0.5 147.5,-0.5"/>
<text text-anchor="middle" x="213" y="-8.5" font-family="Helvetica,sans-Serif" font-size="10.00">UBSettings::markerColors</text>
</a>
</g>
<!-- Node1&#45;&gt;Node18 -->
<g id="edge40" class="edge"><title>Node1&#45;&gt;Node18</title>
<path fill="none" stroke="midnightblue" d="M65.203,-93.7044C81.093,-75.4715 108.501,-47.194 138,-31 142.138,-28.7282 146.548,-26.7037 151.078,-24.9013"/>
<polygon fill="midnightblue" stroke="midnightblue" points="152.277,-28.1899 160.497,-21.5055 149.902,-21.6048 152.277,-28.1899"/>
</g>
<!-- Node3 -->
<g id="node5" class="node"><title>Node3</title>
<a xlink:href="../../db/d66/class_u_b_settings.html#ad703e9b5a7efdb68b9c6ecef0df7cce2" target="_top" xlink:title="UBSettings::UBSettings">
<polygon fill="white" stroke="black" points="324.5,-200.5 324.5,-221.5 447.5,-221.5 447.5,-200.5 324.5,-200.5"/>
<text text-anchor="middle" x="386" y="-208.5" font-family="Helvetica,sans-Serif" font-size="10.00">UBSettings::UBSettings</text>
</a>
</g>
<!-- Node2&#45;&gt;Node3 -->
<g id="edge4" class="edge"><title>Node2&#45;&gt;Node3</title>
<path fill="none" stroke="midnightblue" d="M266.79,-211C281.761,-211 298.266,-211 314.098,-211"/>
<polygon fill="midnightblue" stroke="midnightblue" points="314.382,-214.5 324.382,-211 314.382,-207.5 314.382,-214.5"/>
</g>
<!-- Node4 -->
<g id="node7" class="node"><title>Node4</title>
<a xlink:href="../../db/d66/class_u_b_settings.html#afd0d739b2cfac7e2d05be7415f6692df" target="_top" xlink:title="UBSettings::InitKeyboard\lPaletteKeyBtnSizes">
<polygon fill="white" stroke="black" points="496,-239 496,-273 624,-273 624,-239 496,-239"/>
<text text-anchor="start" x="504" y="-260" font-family="Helvetica,sans-Serif" font-size="10.00">UBSettings::InitKeyboard</text>
<text text-anchor="middle" x="560" y="-247" font-family="Helvetica,sans-Serif" font-size="10.00">PaletteKeyBtnSizes</text>
</a>
</g>
<!-- Node3&#45;&gt;Node4 -->
<g id="edge6" class="edge"><title>Node3&#45;&gt;Node4</title>
<path fill="none" stroke="midnightblue" d="M426.795,-221.551C444.491,-226.127 465.78,-231.633 486.094,-236.886"/>
<polygon fill="midnightblue" stroke="midnightblue" points="485.411,-240.325 495.968,-239.44 487.163,-233.548 485.411,-240.325"/>
</g>
<!-- Node5 -->
<g id="node9" class="node"><title>Node5</title>
<a xlink:href="../../db/d66/class_u_b_settings.html#a2d3413f8b25d64a698d6d83e0f18ff39" target="_top" xlink:title="UBSettings::getAppSettings">
<polygon fill="white" stroke="black" points="674,-201.5 674,-222.5 814,-222.5 814,-201.5 674,-201.5"/>
<text text-anchor="middle" x="744" y="-209.5" font-family="Helvetica,sans-Serif" font-size="10.00">UBSettings::getAppSettings</text>
</a>
</g>
<!-- Node3&#45;&gt;Node5 -->
<g id="edge8" class="edge"><title>Node3&#45;&gt;Node5</title>
<path fill="none" stroke="midnightblue" d="M447.542,-211.172C507.223,-211.339 598.094,-211.592 663.493,-211.775"/>
<polygon fill="midnightblue" stroke="midnightblue" points="663.752,-215.276 673.762,-211.804 663.772,-208.276 663.752,-215.276"/>
</g>
<!-- Node7 -->
<g id="node13" class="node"><title>Node7</title>
<a xlink:href="../../db/d66/class_u_b_settings.html#af38d2ad231149df734ca7b5486356500" target="_top" xlink:title="UBSettings::userDataDirectory">
<polygon fill="white" stroke="black" points="484,-161.5 484,-182.5 636,-182.5 636,-161.5 484,-161.5"/>
<text text-anchor="middle" x="560" y="-169.5" font-family="Helvetica,sans-Serif" font-size="10.00">UBSettings::userDataDirectory</text>
</a>
</g>
<!-- Node3&#45;&gt;Node7 -->
<g id="edge12" class="edge"><title>Node3&#45;&gt;Node7</title>
<path fill="none" stroke="midnightblue" d="M433.087,-200.446C454.654,-195.612 480.4,-189.841 503.048,-184.765"/>
<polygon fill="midnightblue" stroke="midnightblue" points="503.883,-188.165 512.875,-182.562 502.352,-181.334 503.883,-188.165"/>
</g>
<!-- Node6 -->
<g id="node11" class="node"><title>Node6</title>
<a xlink:href="../../d4/d99/class_u_b_platform_utils.html#ae595b29e794b20564550fd45515fc0a8" target="_top" xlink:title="UBPlatformUtils::application\lResourcesDirectory">
<polygon fill="white" stroke="black" points="870,-198 870,-232 1010,-232 1010,-198 870,-198"/>
<text text-anchor="start" x="878" y="-219" font-family="Helvetica,sans-Serif" font-size="10.00">UBPlatformUtils::application</text>
<text text-anchor="middle" x="940" y="-206" font-family="Helvetica,sans-Serif" font-size="10.00">ResourcesDirectory</text>
</a>
</g>
<!-- Node5&#45;&gt;Node6 -->
<g id="edge10" class="edge"><title>Node5&#45;&gt;Node6</title>
<path fill="none" stroke="midnightblue" d="M814.207,-213.075C828.933,-213.3 844.572,-213.539 859.635,-213.77"/>
<polygon fill="midnightblue" stroke="midnightblue" points="859.902,-217.274 869.954,-213.928 860.009,-210.275 859.902,-217.274"/>
</g>
<!-- Node7&#45;&gt;Node5 -->
<g id="edge14" class="edge"><title>Node7&#45;&gt;Node5</title>
<path fill="none" stroke="midnightblue" d="M608.344,-182.51C632.02,-187.657 660.719,-193.895 685.611,-199.307"/>
<polygon fill="midnightblue" stroke="midnightblue" points="685.145,-202.787 695.66,-201.491 686.632,-195.947 685.145,-202.787"/>
</g>
<!-- Node8 -->
<g id="node16" class="node"><title>Node8</title>
<a xlink:href="../../db/d66/class_u_b_settings.html#aea5fec9db96c03162c2ce1d5d4c41ab0" target="_top" xlink:title="UBSettings::replaceWildcard">
<polygon fill="white" stroke="black" points="672.5,-161.5 672.5,-182.5 815.5,-182.5 815.5,-161.5 672.5,-161.5"/>
<text text-anchor="middle" x="744" y="-169.5" font-family="Helvetica,sans-Serif" font-size="10.00">UBSettings::replaceWildcard</text>
</a>
</g>
<!-- Node7&#45;&gt;Node8 -->
<g id="edge16" class="edge"><title>Node7&#45;&gt;Node8</title>
<path fill="none" stroke="midnightblue" d="M636.168,-172C644.766,-172 653.555,-172 662.221,-172"/>
<polygon fill="midnightblue" stroke="midnightblue" points="662.319,-175.5 672.319,-172 662.319,-168.5 662.319,-175.5"/>
</g>
<!-- Node10 -->
<g id="node20" class="node"><title>Node10</title>
<a xlink:href="../../db/d66/class_u_b_settings.html#ac0b3c85870c353e48b7d2cfdff9e0eaa" target="_top" xlink:title="UBSettings::checkDirectory">
<polygon fill="white" stroke="black" points="674.5,-121.5 674.5,-142.5 813.5,-142.5 813.5,-121.5 674.5,-121.5"/>
<text text-anchor="middle" x="744" y="-129.5" font-family="Helvetica,sans-Serif" font-size="10.00">UBSettings::checkDirectory</text>
</a>
</g>
<!-- Node7&#45;&gt;Node10 -->
<g id="edge20" class="edge"><title>Node7&#45;&gt;Node10</title>
<path fill="none" stroke="midnightblue" d="M608.344,-161.49C632.02,-156.343 660.719,-150.105 685.611,-144.693"/>
<polygon fill="midnightblue" stroke="midnightblue" points="686.632,-148.053 695.66,-142.509 685.145,-141.213 686.632,-148.053"/>
</g>
<!-- Node11 -->
<g id="node22" class="node"><title>Node11</title>
<a xlink:href="../../d2/d7a/class_u_b_file_system_utils.html#af850f64fdd630fc78510c856f00ffa4f" target="_top" xlink:title="UBFileSystemUtils:\l:normalizeFilePath">
<polygon fill="white" stroke="black" points="692,-69 692,-103 796,-103 796,-69 692,-69"/>
<text text-anchor="start" x="700" y="-90" font-family="Helvetica,sans-Serif" font-size="10.00">UBFileSystemUtils:</text>
<text text-anchor="middle" x="744" y="-77" font-family="Helvetica,sans-Serif" font-size="10.00">:normalizeFilePath</text>
</a>
</g>
<!-- Node7&#45;&gt;Node11 -->
<g id="edge22" class="edge"><title>Node7&#45;&gt;Node11</title>
<path fill="none" stroke="midnightblue" d="M577.83,-161.403C599.596,-148.713 637.746,-127.263 672,-112 675.892,-110.266 679.939,-108.558 684.04,-106.897"/>
<polygon fill="midnightblue" stroke="midnightblue" points="685.634,-110.032 693.662,-103.118 683.075,-103.516 685.634,-110.032"/>
</g>
<!-- Node9 -->
<g id="node18" class="node"><title>Node9</title>
<a xlink:href="../../d4/d99/class_u_b_platform_utils.html#a4ff6063df12b6d4d0c60c1a17b434599" target="_top" xlink:title="UBPlatformUtils::osUserLoginName">
<polygon fill="white" stroke="black" points="852.5,-158.5 852.5,-179.5 1027.5,-179.5 1027.5,-158.5 852.5,-158.5"/>
<text text-anchor="middle" x="940" y="-166.5" font-family="Helvetica,sans-Serif" font-size="10.00">UBPlatformUtils::osUserLoginName</text>
</a>
</g>
<!-- Node8&#45;&gt;Node9 -->
<g id="edge18" class="edge"><title>Node8&#45;&gt;Node9</title>
<path fill="none" stroke="midnightblue" d="M815.592,-170.904C824.253,-170.772 833.211,-170.635 842.167,-170.497"/>
<polygon fill="midnightblue" stroke="midnightblue" points="842.316,-173.996 852.261,-170.343 842.209,-166.996 842.316,-173.996"/>
</g>
<!-- Node13 -->
<g id="node26" class="node"><title>Node13</title>
<a xlink:href="../../db/d66/class_u_b_settings.html#a30f5b15068954099f41c054979593275" target="_top" xlink:title="UBSettings::value">
<polygon fill="white" stroke="black" points="338,-120.5 338,-141.5 434,-141.5 434,-120.5 338,-120.5"/>
<text text-anchor="middle" x="386" y="-128.5" font-family="Helvetica,sans-Serif" font-size="10.00">UBSettings::value</text>
</a>
</g>
<!-- Node12&#45;&gt;Node13 -->
<g id="edge26" class="edge"><title>Node12&#45;&gt;Node13</title>
<path fill="none" stroke="midnightblue" d="M253.561,-161.622C276.572,-156.301 305.694,-149.568 330.767,-143.771"/>
<polygon fill="midnightblue" stroke="midnightblue" points="331.559,-147.18 340.514,-141.517 329.982,-140.36 331.559,-147.18"/>
</g>
<!-- Node14&#45;&gt;Node13 -->
<g id="edge30" class="edge"><title>Node14&#45;&gt;Node13</title>
<path fill="none" stroke="midnightblue" d="M281.374,-131C296.722,-131 312.866,-131 327.756,-131"/>
<polygon fill="midnightblue" stroke="midnightblue" points="327.839,-134.5 337.839,-131 327.839,-127.5 327.839,-134.5"/>
</g>
<!-- Node15&#45;&gt;Node13 -->
<g id="edge34" class="edge"><title>Node15&#45;&gt;Node13</title>
<path fill="none" stroke="midnightblue" d="M258.454,-101.51C280.616,-106.634 307.458,-112.84 330.789,-118.235"/>
<polygon fill="midnightblue" stroke="midnightblue" points="330.018,-121.649 340.55,-120.491 331.595,-114.828 330.018,-121.649"/>
</g>
<!-- Node17 -->
<g id="node36" class="node"><title>Node17</title>
<a xlink:href="../../da/df0/class_u_b_color_list_setting.html#a033ee9638cea8e690183c285fd62ea1f" target="_top" xlink:title="UBColorListSetting\l::colors">
<polygon fill="white" stroke="black" points="335.5,-14 335.5,-48 436.5,-48 436.5,-14 335.5,-14"/>
<text text-anchor="start" x="343.5" y="-35" font-family="Helvetica,sans-Serif" font-size="10.00">UBColorListSetting</text>
<text text-anchor="middle" x="386" y="-22" font-family="Helvetica,sans-Serif" font-size="10.00">::colors</text>
</a>
</g>
<!-- Node16&#45;&gt;Node17 -->
<g id="edge38" class="edge"><title>Node16&#45;&gt;Node17</title>
<path fill="none" stroke="midnightblue" d="M271.57,-44.2289C288.86,-42.2301 307.817,-40.0384 325.242,-38.0241"/>
<polygon fill="midnightblue" stroke="midnightblue" points="325.768,-41.4867 335.3,-36.8613 324.964,-34.533 325.768,-41.4867"/>
</g>
<!-- Node18&#45;&gt;Node17 -->
<g id="edge42" class="edge"><title>Node18&#45;&gt;Node17</title>
<path fill="none" stroke="midnightblue" d="M278.897,-18.6182C294.104,-20.3762 310.212,-22.2384 325.19,-23.97"/>
<polygon fill="midnightblue" stroke="midnightblue" points="325.018,-27.4733 335.354,-25.145 325.822,-20.5197 325.018,-27.4733"/>
</g>
</g>
</svg>
        <g id="navigator" transform="translate(0 0)" fill="#404254">
                <rect fill="#f2f5e9" fill-opacity="0.5" stroke="#606060" stroke-width=".5" x="0" y="0" width="60" height="60"/>
                <use id="zoomplus" xlink:href="#zoomPlus" x="17" y="9" onmousedown="handleZoom(evt,'in')"/>
                <use id="zoomminus" xlink:href="#zoomMin" x="42" y="9" onmousedown="handleZoom(evt,'out')"/>
                <use id="reset" xlink:href="#resetDef" x="30" y="36" onmousedown="handleReset()"/>
                <g id="arrowUp" xlink:href="#dirArrow" transform="translate(30 24)" onmousedown="handlePan(0,-1)">
                  <use xlink:href="#rim" fill="#404040">
                        <set attributeName="fill" to="#808080" begin="arrowUp.mouseover" end="arrowUp.mouseout"/>
                  </use>
                  <path fill="none" stroke="white" stroke-width="1.5" d="M0,-3.0v7 M-2.5,-0.5L0,-3.0L2.5,-0.5"/>
                </g>
                <g id="arrowRight" xlink:href="#dirArrow" transform="rotate(90) translate(36 -43)" onmousedown="handlePan(1,0)">
                  <use xlink:href="#rim" fill="#404040">
                        <set attributeName="fill" to="#808080" begin="arrowRight.mouseover" end="arrowRight.mouseout"/>
                  </use>
                  <path fill="none" stroke="white" stroke-width="1.5" d="M0,-3.0v7 M-2.5,-0.5L0,-3.0L2.5,-0.5"/>
                </g>
                <g id="arrowDown" xlink:href="#dirArrow" transform="rotate(180) translate(-30 -48)" onmousedown="handlePan(0,1)">
                  <use xlink:href="#rim" fill="#404040">
                        <set attributeName="fill" to="#808080" begin="arrowDown.mouseover" end="arrowDown.mouseout"/>
                  </use>
                  <path fill="none" stroke="white" stroke-width="1.5" d="M0,-3.0v7 M-2.5,-0.5L0,-3.0L2.5,-0.5"/>
                </g>
                <g id="arrowLeft" xlink:href="#dirArrow" transform="rotate(270) translate(-36 17)" onmousedown="handlePan(-1,0)">
                  <use xlink:href="#rim" fill="#404040">
                        <set attributeName="fill" to="#808080" begin="arrowLeft.mouseover" end="arrowLeft.mouseout"/>
                  </use>
                  <path fill="none" stroke="white" stroke-width="1.5" d="M0,-3.0v7 M-2.5,-0.5L0,-3.0L2.5,-0.5"/>
                </g>
        </g>
        <svg viewBox="0 0 15 15" width="100%" height="30px" preserveAspectRatio="xMaxYMin meet">
         <g id="arrow_out" transform="scale(0.3 0.3)">
          <a xlink:href="class_u_b_board_controller_a6d5d5894174958720c91e1e1f19b150f_cgraph_org.svg" target="_base">
           <rect id="button" ry="5" rx="5" y="6" x="6" height="38" width="38"
                fill="#f2f5e9" fill-opacity="0.5" stroke="#606060" stroke-width="1.0"/>
           <path id="arrow"
             d="M 11.500037,31.436501 C 11.940474,20.09759 22.043105,11.32322 32.158766,21.979434 L 37.068811,17.246167 C 37.068811,17.246167 37.088388,32 37.088388,32 L 22.160133,31.978069 C 22.160133,31.978069 26.997745,27.140456 26.997745,27.140456 C 18.528582,18.264221 13.291696,25.230495 11.500037,31.436501 z"
             style="fill:#404040;"/>
          </a>
         </g>
        </svg>
</svg>
