<?xml version="1.0" encoding="UTF-8" standalone="no"?>
<!DOCTYPE svg PUBLIC "-//W3C//DTD SVG 1.1//EN"
 "http://www.w3.org/Graphics/SVG/1.1/DTD/svg11.dtd">
<!-- Generated by graphviz version 2.26.3 (20100126.1600)
 -->
<!-- Title: UBBoardController::onDownloadModalFinished Pages: 1 -->
<svg width="516pt" height="42pt"
 viewBox="0.00 0.00 516.00 42.00" xmlns="http://www.w3.org/2000/svg" xmlns:xlink="http://www.w3.org/1999/xlink">
<g id="graph1" class="graph" transform="scale(1 1) rotate(0) translate(4 38)">
<title>UBBoardController::onDownloadModalFinished</title>
<polygon fill="white" stroke="white" points="-4,5 -4,-38 513,-38 513,5 -4,5"/>
<!-- Node1 -->
<g id="node1" class="node"><title>Node1</title>
<polygon fill="#bfbfbf" stroke="black" points="0.5,-0 0.5,-34 137.5,-34 137.5,-0 0.5,-0"/>
<text text-anchor="start" x="8.5" y="-21" font-family="Helvetica,sans-Serif" font-size="10.00">UBBoardController:</text>
<text text-anchor="middle" x="69" y="-8" font-family="Helvetica,sans-Serif" font-size="10.00">:onDownloadModalFinished</text>
</g>
<!-- Node2 -->
<g id="node3" class="node"><title>Node2</title>
<a xlink:href="../../d7/d62/class_u_b_board_controller.html#aa728cb7c1b979b2d4ae45638a7386dde" target="_top" xlink:title="UBBoardController::init">
<polygon fill="white" stroke="black" points="174.5,-6.5 174.5,-27.5 291.5,-27.5 291.5,-6.5 174.5,-6.5"/>
<text text-anchor="middle" x="233" y="-14.5" font-family="Helvetica,sans-Serif" font-size="10.00">UBBoardController::init</text>
</a>
</g>
<!-- Node1&#45;&gt;Node2 -->
<g id="edge2" class="edge"><title>Node1&#45;&gt;Node2</title>
<path fill="none" stroke="midnightblue" d="M147.677,-17C156.642,-17 165.661,-17 174.302,-17"/>
<polygon fill="midnightblue" stroke="midnightblue" points="147.601,-13.5001 137.601,-17 147.6,-20.5001 147.601,-13.5001"/>
</g>
<!-- Node3 -->
<g id="node5" class="node"><title>Node3</title>
<a xlink:href="../../d8/d81/class_u_b_application.html#add1469239e71bf24fdc61413a42a38bd" target="_top" xlink:title="UBApplication::exec">
<polygon fill="white" stroke="black" points="328,-6.5 328,-27.5 434,-27.5 434,-6.5 328,-6.5"/>
<text text-anchor="middle" x="381" y="-14.5" font-family="Helvetica,sans-Serif" font-size="10.00">UBApplication::exec</text>
</a>
</g>
<!-- Node2&#45;&gt;Node3 -->
<g id="edge4" class="edge"><title>Node2&#45;&gt;Node3</title>
<path fill="none" stroke="midnightblue" d="M301.947,-17C310.549,-17 319.243,-17 327.56,-17"/>
<polygon fill="midnightblue" stroke="midnightblue" points="301.919,-13.5001 291.919,-17 301.919,-20.5001 301.919,-13.5001"/>
</g>
<!-- Node4 -->
<g id="node7" class="node"><title>Node4</title>
<a xlink:href="../../df/d0a/main_8cpp.html#a0ddf1224851353fc92bfbff6f499fa97" target="_top" xlink:title="main">
<polygon fill="white" stroke="black" points="470,-6.5 470,-27.5 508,-27.5 508,-6.5 470,-6.5"/>
<text text-anchor="middle" x="489" y="-14.5" font-family="Helvetica,sans-Serif" font-size="10.00">main</text>
</a>
</g>
<!-- Node3&#45;&gt;Node4 -->
<g id="edge6" class="edge"><title>Node3&#45;&gt;Node4</title>
<path fill="none" stroke="midnightblue" d="M444.214,-17C453.495,-17 462.401,-17 469.793,-17"/>
<polygon fill="midnightblue" stroke="midnightblue" points="444.051,-13.5001 434.051,-17 444.051,-20.5001 444.051,-13.5001"/>
</g>
</g>
</svg>
