<?xml version="1.0" encoding="UTF-8" standalone="no"?>
<!DOCTYPE svg PUBLIC "-//W3C//DTD SVG 1.1//EN"
 "http://www.w3.org/Graphics/SVG/1.1/DTD/svg11.dtd">
<!-- Generated by graphviz version 2.26.3 (20100126.1600)
 -->
<!-- Title: UBBoardController::regenerateThumbnails Pages: 1 -->
<!--zoomable 290 -->
<svg id="main" version="1.1" xmlns="http://www.w3.org/2000/svg" xmlns:xlink="http://www.w3.org/1999/xlink" xml:space="preserve" onload="init(evt)">
        <defs>
                <circle id="rim" cx="0" cy="0" r="7"/>
                <circle id="rim2" cx="0" cy="0" r="3.5"/>
                <g id="zoomPlus">
                        <use xlink:href="#rim" fill="#404040">
                                <set attributeName="fill" to="#808080" begin="zoomplus.mouseover" end="zoomplus.mouseout"/>
                        </use>
                        <path d="M-4,0h8M0,-4v8" fill="none" stroke="white" stroke-width="1.5" pointer-events="none"/>
                </g>
                <g id="zoomMin">
                        <use xlink:href="#rim" fill="#404040">
                                <set attributeName="fill" to="#808080" begin="zoomminus.mouseover" end="zoomminus.mouseout"/>
                        </use>
                        <path d="M-4,0h8" fill="none" stroke="white" stroke-width="1.5" pointer-events="none"/>
                </g>
                <g id="dirArrow">
                        <path fill="none" stroke="white" stroke-width="1.5" d="M0,-3.0v7 M-2.5,-0.5L0,-3.0L2.5,-0.5"/>
                </g>
               <g id="resetDef">
                       <use xlink:href="#rim2" fill="#404040">
                               <set attributeName="fill" to="#808080" begin="reset.mouseover" end="reset.mouseout"/>
                       </use>
               </g>
        </defs>

<script type="text/javascript">
var viewWidth = 606;
var viewHeight = 290;
var sectionId = 'dynsection-121';
</script>
<script xlink:href="../../svgpan.js"/>
<svg id="graph" class="graph">
<g id="viewport">
<title>UBBoardController::regenerateThumbnails</title>
<polygon fill="white" stroke="white" points="-4,5 -4,-286 603,-286 603,5 -4,5"/>
<!-- Node1 -->
<g id="node1" class="node"><title>Node1</title>
<polygon fill="#bfbfbf" stroke="black" points="0,-118 0,-152 116,-152 116,-118 0,-118"/>
<text text-anchor="start" x="8" y="-139" font-family="Helvetica,sans-Serif" font-size="10.00">UBBoardController:</text>
<text text-anchor="middle" x="58" y="-126" font-family="Helvetica,sans-Serif" font-size="10.00">:regenerateThumbnails</text>
</g>
<!-- Node2 -->
<g id="node3" class="node"><title>Node2</title>
<a xlink:href="../../d3/dcc/class_u_b_document_navigator.html#a19e6b14c3fa310dac6714a4b941b588a" target="_top" xlink:title="Generate the thumbnails.">
<polygon fill="white" stroke="black" points="152,-118 152,-152 270,-152 270,-118 152,-118"/>
<text text-anchor="start" x="160" y="-139" font-family="Helvetica,sans-Serif" font-size="10.00">UBDocumentNavigator</text>
<text text-anchor="middle" x="211" y="-126" font-family="Helvetica,sans-Serif" font-size="10.00">::generateThumbnails</text>
</a>
</g>
<!-- Node1&#45;&gt;Node2 -->
<g id="edge2" class="edge"><title>Node1&#45;&gt;Node2</title>
<path fill="none" stroke="midnightblue" d="M116.279,-135C124.564,-135 133.152,-135 141.623,-135"/>
<polygon fill="midnightblue" stroke="midnightblue" points="141.868,-138.5 151.868,-135 141.868,-131.5 141.868,-138.5"/>
</g>
<!-- Node3 -->
<g id="node5" class="node"><title>Node3</title>
<a xlink:href="../../da/dc6/class_u_b_document_container.html#ae84266eece665659405100eaf4e7d8d0" target="_top" xlink:title="UBDocumentContainer\l::pageCount">
<polygon fill="white" stroke="black" points="321,-248 321,-282 439,-282 439,-248 321,-248"/>
<text text-anchor="start" x="329" y="-269" font-family="Helvetica,sans-Serif" font-size="10.00">UBDocumentContainer</text>
<text text-anchor="middle" x="380" y="-256" font-family="Helvetica,sans-Serif" font-size="10.00">::pageCount</text>
</a>
</g>
<!-- Node2&#45;&gt;Node3 -->
<g id="edge4" class="edge"><title>Node2&#45;&gt;Node3</title>
<path fill="none" stroke="midnightblue" d="M222.516,-152.166C238.659,-175.007 270.099,-215.261 306,-239 308.265,-240.497 310.625,-241.919 313.053,-243.268"/>
<polygon fill="midnightblue" stroke="midnightblue" points="311.586,-246.448 322.089,-247.839 314.746,-240.202 311.586,-246.448"/>
</g>
<!-- Node4 -->
<g id="node7" class="node"><title>Node4</title>
<a xlink:href="../../da/dc6/class_u_b_document_container.html#a4482fb1ef69c93fca33e2fb69d5e40b7" target="_top" xlink:title="UBDocumentContainer\l::pageAt">
<polygon fill="white" stroke="black" points="321,-196 321,-230 439,-230 439,-196 321,-196"/>
<text text-anchor="start" x="329" y="-217" font-family="Helvetica,sans-Serif" font-size="10.00">UBDocumentContainer</text>
<text text-anchor="middle" x="380" y="-204" font-family="Helvetica,sans-Serif" font-size="10.00">::pageAt</text>
</a>
</g>
<!-- Node2&#45;&gt;Node4 -->
<g id="edge6" class="edge"><title>Node2&#45;&gt;Node4</title>
<path fill="none" stroke="midnightblue" d="M239.484,-152.184C258.038,-162.975 282.988,-176.741 306,-187 310.027,-188.795 314.218,-190.552 318.469,-192.251"/>
<polygon fill="midnightblue" stroke="midnightblue" points="317.238,-195.528 327.827,-195.873 319.764,-189 317.238,-195.528"/>
</g>
<!-- Node5 -->
<g id="node9" class="node"><title>Node5</title>
<a xlink:href="../../da/dc6/class_u_b_document_container.html#ad573f4f006c0eac302455c6bd20421a7" target="_top" xlink:title="UBDocumentContainer\l::pageFromSceneIndex">
<polygon fill="white" stroke="black" points="321,-144 321,-178 439,-178 439,-144 321,-144"/>
<text text-anchor="start" x="329" y="-165" font-family="Helvetica,sans-Serif" font-size="10.00">UBDocumentContainer</text>
<text text-anchor="middle" x="380" y="-152" font-family="Helvetica,sans-Serif" font-size="10.00">::pageFromSceneIndex</text>
</a>
</g>
<!-- Node2&#45;&gt;Node5 -->
<g id="edge8" class="edge"><title>Node2&#45;&gt;Node5</title>
<path fill="none" stroke="midnightblue" d="M270.108,-144.094C283.23,-146.112 297.253,-148.27 310.74,-150.345"/>
<polygon fill="midnightblue" stroke="midnightblue" points="310.509,-153.85 320.925,-151.912 311.574,-146.932 310.509,-153.85"/>
</g>
<!-- Node7 -->
<g id="node13" class="node"><title>Node7</title>
<a xlink:href="../../da/dc6/class_u_b_document_container.html#a859116555c2e46b6949e6e1cc613d754" target="_top" xlink:title="UBDocumentContainer\l::selectedDocument">
<polygon fill="white" stroke="black" points="321,-92 321,-126 439,-126 439,-92 321,-92"/>
<text text-anchor="start" x="329" y="-113" font-family="Helvetica,sans-Serif" font-size="10.00">UBDocumentContainer</text>
<text text-anchor="middle" x="380" y="-100" font-family="Helvetica,sans-Serif" font-size="10.00">::selectedDocument</text>
</a>
</g>
<!-- Node2&#45;&gt;Node7 -->
<g id="edge12" class="edge"><title>Node2&#45;&gt;Node7</title>
<path fill="none" stroke="midnightblue" d="M270.108,-125.906C283.23,-123.888 297.253,-121.73 310.74,-119.655"/>
<polygon fill="midnightblue" stroke="midnightblue" points="311.574,-123.068 320.925,-118.088 310.509,-116.15 311.574,-123.068"/>
</g>
<!-- Node8 -->
<g id="node15" class="node"><title>Node8</title>
<a xlink:href="../../de/d65/class_u_b_thumbnail.html#a0ff204ad591df994cadf60bf9fe24db3" target="_top" xlink:title="UBThumbnail::setLabel">
<polygon fill="white" stroke="black" points="320.5,-52.5 320.5,-73.5 439.5,-73.5 439.5,-52.5 320.5,-52.5"/>
<text text-anchor="middle" x="380" y="-60.5" font-family="Helvetica,sans-Serif" font-size="10.00">UBThumbnail::setLabel</text>
</a>
</g>
<!-- Node2&#45;&gt;Node8 -->
<g id="edge14" class="edge"><title>Node2&#45;&gt;Node8</title>
<path fill="none" stroke="midnightblue" d="M238.007,-117.968C256.575,-106.828 282.101,-92.6117 306,-83 311.834,-80.6536 318.035,-78.4921 324.27,-76.5271"/>
<polygon fill="midnightblue" stroke="midnightblue" points="325.468,-79.8219 334.045,-73.6026 323.462,-73.1155 325.468,-79.8219"/>
</g>
<!-- Node10 -->
<g id="node19" class="node"><title>Node10</title>
<a xlink:href="../../d3/d5d/class_u_b_img_text_thumbnail_element.html#aed1ed25175ba1e7f8551e5b9812772cc" target="_top" xlink:title="UBImgTextThumbnailElement\l::setBorder">
<polygon fill="white" stroke="black" points="306,-0 306,-34 454,-34 454,-0 306,-0"/>
<text text-anchor="start" x="314" y="-21" font-family="Helvetica,sans-Serif" font-size="10.00">UBImgTextThumbnailElement</text>
<text text-anchor="middle" x="380" y="-8" font-family="Helvetica,sans-Serif" font-size="10.00">::setBorder</text>
</a>
</g>
<!-- Node2&#45;&gt;Node10 -->
<g id="edge18" class="edge"><title>Node2&#45;&gt;Node10</title>
<path fill="none" stroke="midnightblue" d="M224.72,-117.776C241.8,-97.3578 272.799,-63.5212 306,-43 308.581,-41.4048 311.273,-39.8903 314.038,-38.4546"/>
<polygon fill="midnightblue" stroke="midnightblue" points="315.556,-41.6083 323.066,-34.1349 312.534,-35.2939 315.556,-41.6083"/>
</g>
<!-- Node6 -->
<g id="node11" class="node"><title>Node6</title>
<a xlink:href="../../db/d66/class_u_b_settings.html#a0d8ed418921c2b2d37851faeae00715d" target="_top" xlink:title="UBSettings::settings">
<polygon fill="white" stroke="black" points="490.5,-150.5 490.5,-171.5 597.5,-171.5 597.5,-150.5 490.5,-150.5"/>
<text text-anchor="middle" x="544" y="-158.5" font-family="Helvetica,sans-Serif" font-size="10.00">UBSettings::settings</text>
</a>
</g>
<!-- Node5&#45;&gt;Node6 -->
<g id="edge10" class="edge"><title>Node5&#45;&gt;Node6</title>
<path fill="none" stroke="midnightblue" d="M439.208,-161C452.514,-161 466.691,-161 480.176,-161"/>
<polygon fill="midnightblue" stroke="midnightblue" points="480.329,-164.5 490.329,-161 480.329,-157.5 480.329,-164.5"/>
</g>
<!-- Node9 -->
<g id="node17" class="node"><title>Node9</title>
<a xlink:href="../../de/d65/class_u_b_thumbnail.html#a21a445699f315e12eddc316ee15ca80d" target="_top" xlink:title="UBThumbnail::label">
<polygon fill="white" stroke="black" points="493,-52.5 493,-73.5 595,-73.5 595,-52.5 493,-52.5"/>
<text text-anchor="middle" x="544" y="-60.5" font-family="Helvetica,sans-Serif" font-size="10.00">UBThumbnail::label</text>
</a>
</g>
<!-- Node8&#45;&gt;Node9 -->
<g id="edge16" class="edge"><title>Node8&#45;&gt;Node9</title>
<path fill="none" stroke="midnightblue" d="M439.672,-63C453.674,-63 468.617,-63 482.69,-63"/>
<polygon fill="midnightblue" stroke="midnightblue" points="482.758,-66.5001 492.758,-63 482.758,-59.5001 482.758,-66.5001"/>
</g>
</g>
</svg>
        <g id="navigator" transform="translate(0 0)" fill="#404254">
                <rect fill="#f2f5e9" fill-opacity="0.5" stroke="#606060" stroke-width=".5" x="0" y="0" width="60" height="60"/>
                <use id="zoomplus" xlink:href="#zoomPlus" x="17" y="9" onmousedown="handleZoom(evt,'in')"/>
                <use id="zoomminus" xlink:href="#zoomMin" x="42" y="9" onmousedown="handleZoom(evt,'out')"/>
                <use id="reset" xlink:href="#resetDef" x="30" y="36" onmousedown="handleReset()"/>
                <g id="arrowUp" xlink:href="#dirArrow" transform="translate(30 24)" onmousedown="handlePan(0,-1)">
                  <use xlink:href="#rim" fill="#404040">
                        <set attributeName="fill" to="#808080" begin="arrowUp.mouseover" end="arrowUp.mouseout"/>
                  </use>
                  <path fill="none" stroke="white" stroke-width="1.5" d="M0,-3.0v7 M-2.5,-0.5L0,-3.0L2.5,-0.5"/>
                </g>
                <g id="arrowRight" xlink:href="#dirArrow" transform="rotate(90) translate(36 -43)" onmousedown="handlePan(1,0)">
                  <use xlink:href="#rim" fill="#404040">
                        <set attributeName="fill" to="#808080" begin="arrowRight.mouseover" end="arrowRight.mouseout"/>
                  </use>
                  <path fill="none" stroke="white" stroke-width="1.5" d="M0,-3.0v7 M-2.5,-0.5L0,-3.0L2.5,-0.5"/>
                </g>
                <g id="arrowDown" xlink:href="#dirArrow" transform="rotate(180) translate(-30 -48)" onmousedown="handlePan(0,1)">
                  <use xlink:href="#rim" fill="#404040">
                        <set attributeName="fill" to="#808080" begin="arrowDown.mouseover" end="arrowDown.mouseout"/>
                  </use>
                  <path fill="none" stroke="white" stroke-width="1.5" d="M0,-3.0v7 M-2.5,-0.5L0,-3.0L2.5,-0.5"/>
                </g>
                <g id="arrowLeft" xlink:href="#dirArrow" transform="rotate(270) translate(-36 17)" onmousedown="handlePan(-1,0)">
                  <use xlink:href="#rim" fill="#404040">
                        <set attributeName="fill" to="#808080" begin="arrowLeft.mouseover" end="arrowLeft.mouseout"/>
                  </use>
                  <path fill="none" stroke="white" stroke-width="1.5" d="M0,-3.0v7 M-2.5,-0.5L0,-3.0L2.5,-0.5"/>
                </g>
        </g>
        <svg viewBox="0 0 15 15" width="100%" height="30px" preserveAspectRatio="xMaxYMin meet">
         <g id="arrow_out" transform="scale(0.3 0.3)">
          <a xlink:href="class_u_b_board_controller_a0702e13749c6107a18719f8a23502928_cgraph_org.svg" target="_base">
           <rect id="button" ry="5" rx="5" y="6" x="6" height="38" width="38"
                fill="#f2f5e9" fill-opacity="0.5" stroke="#606060" stroke-width="1.0"/>
           <path id="arrow"
             d="M 11.500037,31.436501 C 11.940474,20.09759 22.043105,11.32322 32.158766,21.979434 L 37.068811,17.246167 C 37.068811,17.246167 37.088388,32 37.088388,32 L 22.160133,31.978069 C 22.160133,31.978069 26.997745,27.140456 26.997745,27.140456 C 18.528582,18.264221 13.291696,25.230495 11.500037,31.436501 z"
             style="fill:#404040;"/>
          </a>
         </g>
        </svg>
</svg>
