<?xml version="1.0" encoding="UTF-8" standalone="no"?>
<!DOCTYPE svg PUBLIC "-//W3C//DTD SVG 1.1//EN"
 "http://www.w3.org/Graphics/SVG/1.1/DTD/svg11.dtd">
<!-- Generated by graphviz version 2.26.3 (20100126.1600)
 -->
<!-- Title: UBBoardController::addAudio Pages: 1 -->
<svg width="1454pt" height="1032pt"
 viewBox="0.00 0.00 1454.00 1032.00" xmlns="http://www.w3.org/2000/svg" xmlns:xlink="http://www.w3.org/1999/xlink">
<g id="graph1" class="graph" transform="scale(1 1) rotate(0) translate(4 1028)">
<title>UBBoardController::addAudio</title>
<polygon fill="white" stroke="white" points="-4,5 -4,-1028 1451,-1028 1451,5 -4,5"/>
<!-- Node1 -->
<g id="node1" class="node"><title>Node1</title>
<polygon fill="#bfbfbf" stroke="black" points="0.5,-120 0.5,-154 101.5,-154 101.5,-120 0.5,-120"/>
<text text-anchor="start" x="8.5" y="-141" font-family="Helvetica,sans-Serif" font-size="10.00">UBBoardController:</text>
<text text-anchor="middle" x="51" y="-128" font-family="Helvetica,sans-Serif" font-size="10.00">:addAudio</text>
</g>
<!-- Node2 -->
<g id="node3" class="node"><title>Node2</title>
<a xlink:href="../../d7/d62/class_u_b_board_controller.html#ab6cbc7bda85279e7eee5c5923892dd1a" target="_top" xlink:title="UBBoardController:\l:downloadFinished">
<polygon fill="white" stroke="black" points="138.5,-120 138.5,-154 239.5,-154 239.5,-120 138.5,-120"/>
<text text-anchor="start" x="146.5" y="-141" font-family="Helvetica,sans-Serif" font-size="10.00">UBBoardController:</text>
<text text-anchor="middle" x="189" y="-128" font-family="Helvetica,sans-Serif" font-size="10.00">:downloadFinished</text>
</a>
</g>
<!-- Node1&#45;&gt;Node2 -->
<g id="edge2" class="edge"><title>Node1&#45;&gt;Node2</title>
<path fill="none" stroke="midnightblue" d="M111.882,-137C120.74,-137 129.779,-137 138.404,-137"/>
<polygon fill="midnightblue" stroke="midnightblue" points="111.603,-133.5 101.603,-137 111.602,-140.5 111.603,-133.5"/>
</g>
<!-- Node3 -->
<g id="node5" class="node"><title>Node3</title>
<a xlink:href="../../d7/d62/class_u_b_board_controller.html#aa728cb7c1b979b2d4ae45638a7386dde" target="_top" xlink:title="UBBoardController::init">
<polygon fill="white" stroke="black" points="276.5,-615.5 276.5,-636.5 393.5,-636.5 393.5,-615.5 276.5,-615.5"/>
<text text-anchor="middle" x="335" y="-623.5" font-family="Helvetica,sans-Serif" font-size="10.00">UBBoardController::init</text>
</a>
</g>
<!-- Node2&#45;&gt;Node3 -->
<g id="edge4" class="edge"><title>Node2&#45;&gt;Node3</title>
<path fill="none" stroke="midnightblue" d="M191.048,-164.59C196.853,-231.919 217.007,-408.934 276,-543 288.532,-571.48 311.719,-600.031 324.987,-615.093"/>
<polygon fill="midnightblue" stroke="midnightblue" points="194.517,-164.07 190.208,-154.391 187.541,-164.645 194.517,-164.07"/>
</g>
<!-- Node6 -->
<g id="node11" class="node"><title>Node6</title>
<a xlink:href="../../d7/d62/class_u_b_board_controller.html#abae2655269e06f72767de71b8513f6be" target="_top" xlink:title="UBBoardController:\l:duplicateItem">
<polygon fill="white" stroke="black" points="466.5,-607 466.5,-641 567.5,-641 567.5,-607 466.5,-607"/>
<text text-anchor="start" x="474.5" y="-628" font-family="Helvetica,sans-Serif" font-size="10.00">UBBoardController:</text>
<text text-anchor="middle" x="517" y="-615" font-family="Helvetica,sans-Serif" font-size="10.00">:duplicateItem</text>
</a>
</g>
<!-- Node2&#45;&gt;Node6 -->
<g id="edge10" class="edge"><title>Node2&#45;&gt;Node6</title>
<path fill="none" stroke="midnightblue" d="M193.278,-164.178C202.318,-216.048 226.71,-331.511 276,-416 326.384,-502.365 349.952,-520.085 430,-580 443.957,-590.447 460.767,-599.61 475.874,-606.831"/>
<polygon fill="midnightblue" stroke="midnightblue" points="196.694,-163.387 191.579,-154.109 189.792,-164.552 196.694,-163.387"/>
</g>
<!-- Node33 -->
<g id="node70" class="node"><title>Node33</title>
<a xlink:href="../../d7/d62/class_u_b_board_controller.html#a358f3f88d1fa9e41620170d76a806f93" target="_top" xlink:title="UBBoardController:\l:downloadURL">
<polygon fill="white" stroke="black" points="284.5,-373 284.5,-407 385.5,-407 385.5,-373 284.5,-373"/>
<text text-anchor="start" x="292.5" y="-394" font-family="Helvetica,sans-Serif" font-size="10.00">UBBoardController:</text>
<text text-anchor="middle" x="335" y="-381" font-family="Helvetica,sans-Serif" font-size="10.00">:downloadURL</text>
</a>
</g>
<!-- Node2&#45;&gt;Node33 -->
<g id="edge74" class="edge"><title>Node2&#45;&gt;Node33</title>
<path fill="none" stroke="midnightblue" d="M204.19,-163.322C234.135,-215.214 300.051,-329.438 325.088,-372.823"/>
<polygon fill="midnightblue" stroke="midnightblue" points="207.065,-161.302 199.035,-154.39 201.002,-164.8 207.065,-161.302"/>
</g>
<!-- Node4 -->
<g id="node7" class="node"><title>Node4</title>
<a xlink:href="../../d8/d81/class_u_b_application.html#add1469239e71bf24fdc61413a42a38bd" target="_top" xlink:title="UBApplication::exec">
<polygon fill="white" stroke="black" points="464,-674.5 464,-695.5 570,-695.5 570,-674.5 464,-674.5"/>
<text text-anchor="middle" x="517" y="-682.5" font-family="Helvetica,sans-Serif" font-size="10.00">UBApplication::exec</text>
</a>
</g>
<!-- Node3&#45;&gt;Node4 -->
<g id="edge6" class="edge"><title>Node3&#45;&gt;Node4</title>
<path fill="none" stroke="midnightblue" d="M377.267,-639.702C409.939,-650.293 454.5,-664.739 484.437,-674.444"/>
<polygon fill="midnightblue" stroke="midnightblue" points="378.13,-636.302 367.538,-636.548 375.971,-642.961 378.13,-636.302"/>
</g>
<!-- Node5 -->
<g id="node9" class="node"><title>Node5</title>
<a xlink:href="../../df/d0a/main_8cpp.html#a0ddf1224851353fc92bfbff6f499fa97" target="_top" xlink:title="main">
<polygon fill="white" stroke="black" points="710,-690.5 710,-711.5 748,-711.5 748,-690.5 710,-690.5"/>
<text text-anchor="middle" x="729" y="-698.5" font-family="Helvetica,sans-Serif" font-size="10.00">main</text>
</a>
</g>
<!-- Node4&#45;&gt;Node5 -->
<g id="edge8" class="edge"><title>Node4&#45;&gt;Node5</title>
<path fill="none" stroke="midnightblue" d="M580.343,-689.781C624.656,-693.125 680.908,-697.37 709.861,-699.556"/>
<polygon fill="midnightblue" stroke="midnightblue" points="580.458,-686.279 570.223,-689.017 579.931,-693.26 580.458,-686.279"/>
</g>
<!-- Node7 -->
<g id="node13" class="node"><title>Node7</title>
<a xlink:href="../../d7/d62/class_u_b_board_controller.html#a07e50010567075b570140d6143c516f5" target="_top" xlink:title="UBBoardController:\l:processMimeData">
<polygon fill="white" stroke="black" points="678.5,-534 678.5,-568 779.5,-568 779.5,-534 678.5,-534"/>
<text text-anchor="start" x="686.5" y="-555" font-family="Helvetica,sans-Serif" font-size="10.00">UBBoardController:</text>
<text text-anchor="middle" x="729" y="-542" font-family="Helvetica,sans-Serif" font-size="10.00">:processMimeData</text>
</a>
</g>
<!-- Node6&#45;&gt;Node7 -->
<g id="edge12" class="edge"><title>Node6&#45;&gt;Node7</title>
<path fill="none" stroke="midnightblue" d="M576.485,-603.483C585.74,-600.096 595.16,-596.534 604,-593 620.258,-586.501 623.56,-583.024 640,-577 652.243,-572.514 665.648,-568.264 678.255,-564.549"/>
<polygon fill="midnightblue" stroke="midnightblue" points="575.144,-600.246 566.932,-606.941 577.526,-606.828 575.144,-600.246"/>
</g>
<!-- Node11 -->
<g id="node21" class="node"><title>Node11</title>
<a xlink:href="../../d7/d62/class_u_b_board_controller.html#af713d6e325369af244f2af8c90299a35" target="_top" xlink:title="UBBoardController:\l:moveGraphicsWidgetToControlView">
<polygon fill="white" stroke="black" points="640,-586 640,-620 818,-620 818,-586 640,-586"/>
<text text-anchor="start" x="648" y="-607" font-family="Helvetica,sans-Serif" font-size="10.00">UBBoardController:</text>
<text text-anchor="middle" x="729" y="-594" font-family="Helvetica,sans-Serif" font-size="10.00">:moveGraphicsWidgetToControlView</text>
</a>
</g>
<!-- Node6&#45;&gt;Node11 -->
<g id="edge20" class="edge"><title>Node6&#45;&gt;Node11</title>
<path fill="none" stroke="midnightblue" d="M577.698,-617.987C597.077,-616.068 618.944,-613.902 639.906,-611.825"/>
<polygon fill="midnightblue" stroke="midnightblue" points="577.116,-614.528 567.51,-618.997 577.806,-621.494 577.116,-614.528"/>
</g>
<!-- Node23 -->
<g id="node50" class="node"><title>Node23</title>
<a xlink:href="../../dd/dd5/class_u_b_graphics_item_delegate.html#a525c69cb3c3c0df6c4db4d406fd80e48" target="_top" xlink:title="UBGraphicsItemDelegate\l::duplicate">
<polygon fill="white" stroke="black" points="665,-638 665,-672 793,-672 793,-638 665,-638"/>
<text text-anchor="start" x="673" y="-659" font-family="Helvetica,sans-Serif" font-size="10.00">UBGraphicsItemDelegate</text>
<text text-anchor="middle" x="729" y="-646" font-family="Helvetica,sans-Serif" font-size="10.00">::duplicate</text>
</a>
</g>
<!-- Node6&#45;&gt;Node23 -->
<g id="edge54" class="edge"><title>Node6&#45;&gt;Node23</title>
<path fill="none" stroke="midnightblue" d="M577.696,-632.875C604.954,-636.861 637.136,-641.567 664.796,-645.612"/>
<polygon fill="midnightblue" stroke="midnightblue" points="577.911,-629.37 567.51,-631.386 576.898,-636.296 577.911,-629.37"/>
</g>
<!-- Node8 -->
<g id="node15" class="node"><title>Node8</title>
<a xlink:href="../../d7/d62/class_u_b_board_controller.html#a68518a98107e994551da0a4e3a79fe2c" target="_top" xlink:title="UBBoardController:\l:paste">
<polygon fill="white" stroke="black" points="892.5,-534 892.5,-568 993.5,-568 993.5,-534 892.5,-534"/>
<text text-anchor="start" x="900.5" y="-555" font-family="Helvetica,sans-Serif" font-size="10.00">UBBoardController:</text>
<text text-anchor="middle" x="943" y="-542" font-family="Helvetica,sans-Serif" font-size="10.00">:paste</text>
</a>
</g>
<!-- Node7&#45;&gt;Node8 -->
<g id="edge14" class="edge"><title>Node7&#45;&gt;Node8</title>
<path fill="none" stroke="midnightblue" d="M789.956,-551C822.311,-551 861.607,-551 892.279,-551"/>
<polygon fill="midnightblue" stroke="midnightblue" points="789.715,-547.5 779.715,-551 789.715,-554.5 789.715,-547.5"/>
</g>
<!-- Node10 -->
<g id="node19" class="node"><title>Node10</title>
<a xlink:href="../../d1/d78/class_u_b_board_view.html#a1bb7794094c4bb04637b0df2bc0c0fa9" target="_top" xlink:title="UBBoardView::dropEvent">
<polygon fill="white" stroke="black" points="879,-442.5 879,-463.5 1007,-463.5 1007,-442.5 879,-442.5"/>
<text text-anchor="middle" x="943" y="-450.5" font-family="Helvetica,sans-Serif" font-size="10.00">UBBoardView::dropEvent</text>
</a>
</g>
<!-- Node7&#45;&gt;Node10 -->
<g id="edge18" class="edge"><title>Node7&#45;&gt;Node10</title>
<path fill="none" stroke="midnightblue" d="M775.973,-529.486C789.918,-522.374 804.945,-513.966 818,-505 835.646,-492.88 834.951,-482.768 854,-473 861.751,-469.025 870.279,-465.836 878.893,-463.277"/>
<polygon fill="midnightblue" stroke="midnightblue" points="774.382,-526.368 766.997,-533.965 777.507,-532.632 774.382,-526.368"/>
</g>
<!-- Node9 -->
<g id="node17" class="node"><title>Node9</title>
<a xlink:href="../../da/d14/class_u_b_application_controller.html#a6afa41e1bc0c178acaa89684b7e9db26" target="_top" xlink:title="UBApplicationController\l::actionPaste">
<polygon fill="white" stroke="black" points="1099.5,-534 1099.5,-568 1220.5,-568 1220.5,-534 1099.5,-534"/>
<text text-anchor="start" x="1107.5" y="-555" font-family="Helvetica,sans-Serif" font-size="10.00">UBApplicationController</text>
<text text-anchor="middle" x="1160" y="-542" font-family="Helvetica,sans-Serif" font-size="10.00">::actionPaste</text>
</a>
</g>
<!-- Node8&#45;&gt;Node9 -->
<g id="edge16" class="edge"><title>Node8&#45;&gt;Node9</title>
<path fill="none" stroke="midnightblue" d="M1003.88,-551C1033.69,-551 1069.48,-551 1099.27,-551"/>
<polygon fill="midnightblue" stroke="midnightblue" points="1003.6,-547.5 993.603,-551 1003.6,-554.5 1003.6,-547.5"/>
</g>
<!-- Node12 -->
<g id="node23" class="node"><title>Node12</title>
<a xlink:href="../../dc/db2/class_u_b_graphics_scene.html#aa63a9c1b5eb1de5a0d06a0f2b449648a" target="_top" xlink:title="UBGraphicsScene::addGraphics\lWidget">
<polygon fill="white" stroke="black" points="864,-482 864,-516 1022,-516 1022,-482 864,-482"/>
<text text-anchor="start" x="872" y="-503" font-family="Helvetica,sans-Serif" font-size="10.00">UBGraphicsScene::addGraphics</text>
<text text-anchor="middle" x="943" y="-490" font-family="Helvetica,sans-Serif" font-size="10.00">Widget</text>
</a>
</g>
<!-- Node11&#45;&gt;Node12 -->
<g id="edge22" class="edge"><title>Node11&#45;&gt;Node12</title>
<path fill="none" stroke="midnightblue" d="M812.069,-580.917C814.109,-579.681 816.09,-578.377 818,-577 840.8,-560.559 831.2,-541.441 854,-525 858.7,-521.611 863.839,-518.66 869.199,-516.093"/>
<polygon fill="midnightblue" stroke="midnightblue" points="809.946,-578.085 802.801,-585.907 813.265,-584.248 809.946,-578.085"/>
</g>
<!-- Node21 -->
<g id="node46" class="node"><title>Node21</title>
<a xlink:href="../../d8/d2c/class_u_b_graphics_widget_item_delegate.html#a2b446e23a250de4f8c162e1411058cb5" target="_top" xlink:title="UBGraphicsWidgetItemDelegate::pin">
<polygon fill="white" stroke="black" points="854,-592.5 854,-613.5 1032,-613.5 1032,-592.5 854,-592.5"/>
<text text-anchor="middle" x="943" y="-600.5" font-family="Helvetica,sans-Serif" font-size="10.00">UBGraphicsWidgetItemDelegate::pin</text>
</a>
</g>
<!-- Node11&#45;&gt;Node21 -->
<g id="edge50" class="edge"><title>Node11&#45;&gt;Node21</title>
<path fill="none" stroke="midnightblue" d="M828.23,-603C836.807,-603 845.45,-603 853.939,-603"/>
<polygon fill="midnightblue" stroke="midnightblue" points="828.206,-599.5 818.206,-603 828.206,-606.5 828.206,-599.5"/>
</g>
<!-- Node13 -->
<g id="node25" class="node"><title>Node13</title>
<a xlink:href="../../d7/d62/class_u_b_board_controller.html#af122a3bb14b0ef66b169be9fd0e5a2b3" target="_top" xlink:title="UBBoardController:\l:moveToolWidgetToScene">
<polygon fill="white" stroke="black" points="1094,-482 1094,-516 1226,-516 1226,-482 1094,-482"/>
<text text-anchor="start" x="1102" y="-503" font-family="Helvetica,sans-Serif" font-size="10.00">UBBoardController:</text>
<text text-anchor="middle" x="1160" y="-490" font-family="Helvetica,sans-Serif" font-size="10.00">:moveToolWidgetToScene</text>
</a>
</g>
<!-- Node12&#45;&gt;Node13 -->
<g id="edge24" class="edge"><title>Node12&#45;&gt;Node13</title>
<path fill="none" stroke="midnightblue" d="M1032.28,-499C1052.86,-499 1074.39,-499 1093.78,-499"/>
<polygon fill="midnightblue" stroke="midnightblue" points="1032.26,-495.5 1022.26,-499 1032.26,-502.5 1032.26,-495.5"/>
</g>
<!-- Node15 -->
<g id="node29" class="node"><title>Node15</title>
<a xlink:href="../../dc/db2/class_u_b_graphics_scene.html#aa86ec061e79ba18c2efe73a6bf10bf33" target="_top" xlink:title="UBGraphicsScene::addApple\lWidget">
<polygon fill="white" stroke="black" points="1088,-138 1088,-172 1232,-172 1232,-138 1088,-138"/>
<text text-anchor="start" x="1096" y="-159" font-family="Helvetica,sans-Serif" font-size="10.00">UBGraphicsScene::addApple</text>
<text text-anchor="middle" x="1160" y="-146" font-family="Helvetica,sans-Serif" font-size="10.00">Widget</text>
</a>
</g>
<!-- Node12&#45;&gt;Node15 -->
<g id="edge28" class="edge"><title>Node12&#45;&gt;Node15</title>
<path fill="none" stroke="midnightblue" d="M1028.42,-476.017C1029.65,-475.052 1030.84,-474.047 1032,-473 1125.72,-388.084 1152.04,-225.03 1158.29,-172.069"/>
<polygon fill="midnightblue" stroke="midnightblue" points="1026.16,-473.319 1019.83,-481.816 1030.08,-479.12 1026.16,-473.319"/>
</g>
<!-- Node17 -->
<g id="node34" class="node"><title>Node17</title>
<a xlink:href="../../dc/db2/class_u_b_graphics_scene.html#acb26de2926454faf9c5ca66989779d82" target="_top" xlink:title="UBGraphicsScene::addW3CWidget">
<polygon fill="white" stroke="black" points="1073.5,-96.5 1073.5,-117.5 1246.5,-117.5 1246.5,-96.5 1073.5,-96.5"/>
<text text-anchor="middle" x="1160" y="-104.5" font-family="Helvetica,sans-Serif" font-size="10.00">UBGraphicsScene::addW3CWidget</text>
</a>
</g>
<!-- Node12&#45;&gt;Node17 -->
<g id="edge34" class="edge"><title>Node12&#45;&gt;Node17</title>
<path fill="none" stroke="midnightblue" d="M1029.75,-475.513C1030.53,-474.702 1031.28,-473.865 1032,-473 1130.49,-354.973 966.617,-244.553 1068,-129 1072.01,-124.432 1076.78,-120.726 1082.01,-117.726"/>
<polygon fill="midnightblue" stroke="midnightblue" points="1027.42,-472.901 1022.17,-482.1 1032.01,-478.187 1027.42,-472.901"/>
</g>
<!-- Node14 -->
<g id="node27" class="node"><title>Node14</title>
<a xlink:href="../../dc/de3/class_u_b_tool_widget.html#adc43c4c0d6cb3e0f5881df830775b5b7" target="_top" xlink:title="UBToolWidget::mouseRelease\lEvent">
<polygon fill="white" stroke="black" points="1291,-482 1291,-516 1443,-516 1443,-482 1291,-482"/>
<text text-anchor="start" x="1299" y="-503" font-family="Helvetica,sans-Serif" font-size="10.00">UBToolWidget::mouseRelease</text>
<text text-anchor="middle" x="1367" y="-490" font-family="Helvetica,sans-Serif" font-size="10.00">Event</text>
</a>
</g>
<!-- Node13&#45;&gt;Node14 -->
<g id="edge26" class="edge"><title>Node13&#45;&gt;Node14</title>
<path fill="none" stroke="midnightblue" d="M1236.37,-499C1254.11,-499 1273.01,-499 1290.75,-499"/>
<polygon fill="midnightblue" stroke="midnightblue" points="1236.07,-495.5 1226.07,-499 1236.07,-502.5 1236.07,-495.5"/>
</g>
<!-- Node15&#45;&gt;Node2 -->
<g id="edge30" class="edge"><title>Node15&#45;&gt;Node2</title>
<path fill="none" stroke="midnightblue" d="M1077.94,-149.533C991.252,-144.237 850.566,-137 729,-137 517,-137 517,-137 517,-137 418.771,-137 303.994,-137 239.571,-137"/>
<polygon fill="midnightblue" stroke="midnightblue" points="1077.78,-153.03 1087.97,-150.153 1078.21,-146.043 1077.78,-153.03"/>
</g>
<!-- Node16 -->
<g id="node32" class="node"><title>Node16</title>
<a xlink:href="../../dc/db2/class_u_b_graphics_scene.html#aff586f570c8625a51bccef943662a29d" target="_top" xlink:title="UBGraphicsScene::addWidget">
<polygon fill="white" stroke="black" points="1292,-144.5 1292,-165.5 1442,-165.5 1442,-144.5 1292,-144.5"/>
<text text-anchor="middle" x="1367" y="-152.5" font-family="Helvetica,sans-Serif" font-size="10.00">UBGraphicsScene::addWidget</text>
</a>
</g>
<!-- Node15&#45;&gt;Node16 -->
<g id="edge32" class="edge"><title>Node15&#45;&gt;Node16</title>
<path fill="none" stroke="midnightblue" d="M1242.22,-155C1258.65,-155 1275.82,-155 1291.99,-155"/>
<polygon fill="midnightblue" stroke="midnightblue" points="1242.11,-151.5 1232.11,-155 1242.11,-158.5 1242.11,-151.5"/>
</g>
<!-- Node17&#45;&gt;Node2 -->
<g id="edge40" class="edge"><title>Node17&#45;&gt;Node2</title>
<path fill="none" stroke="midnightblue" d="M1063.17,-104.176C975.822,-101.873 843.822,-99 729,-99 517,-99 517,-99 517,-99 418.257,-99 303.898,-116.204 239.641,-127.46"/>
<polygon fill="midnightblue" stroke="midnightblue" points="1063.24,-107.679 1073.33,-104.447 1063.43,-100.682 1063.24,-107.679"/>
</g>
<!-- Node17&#45;&gt;Node16 -->
<g id="edge46" class="edge"><title>Node17&#45;&gt;Node16</title>
<path fill="none" stroke="midnightblue" d="M1215.45,-119.858C1248.69,-127.565 1290.42,-137.243 1321.68,-144.491"/>
<polygon fill="midnightblue" stroke="midnightblue" points="1215.96,-116.383 1205.43,-117.534 1214.38,-123.202 1215.96,-116.383"/>
</g>
<!-- Node18 -->
<g id="node36" class="node"><title>Node18</title>
<a xlink:href="../../d7/d62/class_u_b_board_controller.html#a5f701f4cd3173743effca3b3b0bd4615" target="_top" xlink:title="UBBoardController:\l:addLinkToPage">
<polygon fill="white" stroke="red" points="1316.5,-52 1316.5,-86 1417.5,-86 1417.5,-52 1316.5,-52"/>
<text text-anchor="start" x="1324.5" y="-73" font-family="Helvetica,sans-Serif" font-size="10.00">UBBoardController:</text>
<text text-anchor="middle" x="1367" y="-60" font-family="Helvetica,sans-Serif" font-size="10.00">:addLinkToPage</text>
</a>
</g>
<!-- Node17&#45;&gt;Node18 -->
<g id="edge36" class="edge"><title>Node17&#45;&gt;Node18</title>
<path fill="none" stroke="midnightblue" d="M1227.41,-94.6261C1256.29,-89.3244 1289.45,-83.2358 1316.21,-78.3241"/>
<polygon fill="midnightblue" stroke="midnightblue" points="1226.59,-91.2172 1217.39,-96.4653 1227.85,-98.1022 1226.59,-91.2172"/>
</g>
<!-- Node19 -->
<g id="node40" class="node"><title>Node19</title>
<a xlink:href="../../d7/d62/class_u_b_board_controller.html#af8867753146efd8498f1a308e0457c9e" target="_top" xlink:title="UBBoardController:\l:addW3cWidget">
<polygon fill="white" stroke="black" points="1316.5,-0 1316.5,-34 1417.5,-34 1417.5,-0 1316.5,-0"/>
<text text-anchor="start" x="1324.5" y="-21" font-family="Helvetica,sans-Serif" font-size="10.00">UBBoardController:</text>
<text text-anchor="middle" x="1367" y="-8" font-family="Helvetica,sans-Serif" font-size="10.00">:addW3cWidget</text>
</a>
</g>
<!-- Node17&#45;&gt;Node19 -->
<g id="edge42" class="edge"><title>Node17&#45;&gt;Node19</title>
<path fill="none" stroke="midnightblue" d="M1188.22,-91.3965C1213.79,-77.6178 1252.76,-57.5183 1288,-43 1297.08,-39.2599 1306.91,-35.6722 1316.45,-32.4199"/>
<polygon fill="midnightblue" stroke="midnightblue" points="1186.23,-88.4955 1179.11,-96.3431 1189.57,-94.6472 1186.23,-88.4955"/>
</g>
<!-- Node20 -->
<g id="node44" class="node"><title>Node20</title>
<a xlink:href="../../dc/db2/class_u_b_graphics_scene.html#a2729368a3a28a4d9669f23f171752194" target="_top" xlink:title="UBGraphicsScene::addOEmbed">
<polygon fill="white" stroke="red" points="1288,-104.5 1288,-125.5 1446,-125.5 1446,-104.5 1288,-104.5"/>
<text text-anchor="middle" x="1367" y="-112.5" font-family="Helvetica,sans-Serif" font-size="10.00">UBGraphicsScene::addOEmbed</text>
</a>
</g>
<!-- Node17&#45;&gt;Node20 -->
<g id="edge48" class="edge"><title>Node17&#45;&gt;Node20</title>
<path fill="none" stroke="midnightblue" d="M1256.87,-110.744C1267.19,-111.143 1277.61,-111.545 1287.69,-111.935"/>
<polygon fill="midnightblue" stroke="midnightblue" points="1256.71,-107.235 1246.59,-110.346 1256.44,-114.23 1256.71,-107.235"/>
</g>
<!-- Node18&#45;&gt;Node2 -->
<g id="edge38" class="edge"><title>Node18&#45;&gt;Node2</title>
<path fill="none" stroke="midnightblue" d="M1306.25,-67.1338C1223.93,-64.7698 1072.38,-61 943,-61 517,-61 517,-61 517,-61 408.274,-61 380.712,-73.7326 276,-103 259.913,-107.496 242.688,-113.878 227.844,-119.901"/>
<polygon fill="midnightblue" stroke="midnightblue" points="1306.33,-70.6374 1316.42,-67.429 1306.53,-63.6404 1306.33,-70.6374"/>
</g>
<!-- Node19&#45;&gt;Node2 -->
<g id="edge44" class="edge"><title>Node19&#45;&gt;Node2</title>
<path fill="none" stroke="midnightblue" d="M1306.24,-17.4665C1223.92,-18.0575 1072.36,-19 943,-19 517,-19 517,-19 517,-19 407.697,-19 375.098,-21.8839 276,-68 248.56,-80.7697 222.055,-103.828 205.658,-119.753"/>
<polygon fill="midnightblue" stroke="midnightblue" points="1306.44,-20.9653 1316.42,-17.3927 1306.39,-13.9655 1306.44,-20.9653"/>
</g>
<!-- Node22 -->
<g id="node48" class="node"><title>Node22</title>
<a xlink:href="../../d8/d2c/class_u_b_graphics_widget_item_delegate.html#a79bf31a6cda75de23b70469270de5bd9" target="_top" xlink:title="UBGraphicsWidgetItemDelegate\l::decorateMenu">
<polygon fill="white" stroke="black" points="1080.5,-586 1080.5,-620 1239.5,-620 1239.5,-586 1080.5,-586"/>
<text text-anchor="start" x="1088.5" y="-607" font-family="Helvetica,sans-Serif" font-size="10.00">UBGraphicsWidgetItemDelegate</text>
<text text-anchor="middle" x="1160" y="-594" font-family="Helvetica,sans-Serif" font-size="10.00">::decorateMenu</text>
</a>
</g>
<!-- Node21&#45;&gt;Node22 -->
<g id="edge52" class="edge"><title>Node21&#45;&gt;Node22</title>
<path fill="none" stroke="midnightblue" d="M1042.32,-603C1055.01,-603 1067.86,-603 1080.18,-603"/>
<polygon fill="midnightblue" stroke="midnightblue" points="1042.2,-599.5 1032.2,-603 1042.2,-606.5 1042.2,-599.5"/>
</g>
<!-- Node24 -->
<g id="node52" class="node"><title>Node24</title>
<a xlink:href="../../dd/dd5/class_u_b_graphics_item_delegate.html#a1de77276aba7276defacd0b87c9b87c7" target="_top" xlink:title="UBGraphicsItemDelegate\l::init">
<polygon fill="white" stroke="black" points="879,-788 879,-822 1007,-822 1007,-788 879,-788"/>
<text text-anchor="start" x="887" y="-809" font-family="Helvetica,sans-Serif" font-size="10.00">UBGraphicsItemDelegate</text>
<text text-anchor="middle" x="943" y="-796" font-family="Helvetica,sans-Serif" font-size="10.00">::init</text>
</a>
</g>
<!-- Node23&#45;&gt;Node24 -->
<g id="edge56" class="edge"><title>Node23&#45;&gt;Node24</title>
<path fill="none" stroke="midnightblue" d="M802.9,-673.4C808.143,-675.665 813.234,-678.189 818,-681 866.449,-709.57 909.828,-761.129 930.396,-787.871"/>
<polygon fill="midnightblue" stroke="midnightblue" points="803.923,-670.04 793.337,-669.598 801.337,-676.545 803.923,-670.04"/>
</g>
<!-- Node25 -->
<g id="node54" class="node"><title>Node25</title>
<a xlink:href="../../de/d93/class_u_b_graphics_group_container_item.html#a2aaeb364079830d1720110c30f999ec8" target="_top" xlink:title="UBGraphicsGroupContainer\lItem::UBGraphicsGroupContainerItem">
<polygon fill="white" stroke="red" points="1068.5,-638 1068.5,-672 1251.5,-672 1251.5,-638 1068.5,-638"/>
<text text-anchor="start" x="1076.5" y="-659" font-family="Helvetica,sans-Serif" font-size="10.00">UBGraphicsGroupContainer</text>
<text text-anchor="middle" x="1160" y="-646" font-family="Helvetica,sans-Serif" font-size="10.00">Item::UBGraphicsGroupContainerItem</text>
</a>
</g>
<!-- Node24&#45;&gt;Node25 -->
<g id="edge58" class="edge"><title>Node24&#45;&gt;Node25</title>
<path fill="none" stroke="midnightblue" d="M961.934,-779.665C984.271,-751.529 1023.98,-706.698 1068,-681 1073.73,-677.653 1079.92,-674.717 1086.28,-672.145"/>
<polygon fill="midnightblue" stroke="midnightblue" points="958.964,-777.782 955.574,-787.821 964.484,-782.087 958.964,-777.782"/>
</g>
<!-- Node26 -->
<g id="node56" class="node"><title>Node26</title>
<a xlink:href="../../dc/d5a/class_u_b_graphics_media_item.html#aa92cf921e88af8b52b4c7ed6466dd2d5" target="_top" xlink:title="UBGraphicsMediaItem\l::UBGraphicsMediaItem">
<polygon fill="white" stroke="red" points="1099,-990 1099,-1024 1221,-1024 1221,-990 1099,-990"/>
<text text-anchor="start" x="1107" y="-1011" font-family="Helvetica,sans-Serif" font-size="10.00">UBGraphicsMediaItem</text>
<text text-anchor="middle" x="1160" y="-998" font-family="Helvetica,sans-Serif" font-size="10.00">::UBGraphicsMediaItem</text>
</a>
</g>
<!-- Node24&#45;&gt;Node26 -->
<g id="edge60" class="edge"><title>Node24&#45;&gt;Node26</title>
<path fill="none" stroke="midnightblue" d="M954.582,-831.304C972.969,-869.99 1012.52,-941.867 1068,-981 1077.22,-987.506 1088.04,-992.39 1098.95,-996.055"/>
<polygon fill="midnightblue" stroke="midnightblue" points="957.752,-829.82 950.366,-822.224 951.402,-832.768 957.752,-829.82"/>
</g>
<!-- Node27 -->
<g id="node58" class="node"><title>Node27</title>
<a xlink:href="../../d9/d0d/class_u_b_graphics_p_d_f_item.html#ae55063d3348b81ea8388df72069713b9" target="_top" xlink:title="UBGraphicsPDFItem:\l:UBGraphicsPDFItem">
<polygon fill="white" stroke="red" points="1103.5,-938 1103.5,-972 1216.5,-972 1216.5,-938 1103.5,-938"/>
<text text-anchor="start" x="1111.5" y="-959" font-family="Helvetica,sans-Serif" font-size="10.00">UBGraphicsPDFItem:</text>
<text text-anchor="middle" x="1160" y="-946" font-family="Helvetica,sans-Serif" font-size="10.00">:UBGraphicsPDFItem</text>
</a>
</g>
<!-- Node24&#45;&gt;Node27 -->
<g id="edge62" class="edge"><title>Node24&#45;&gt;Node27</title>
<path fill="none" stroke="midnightblue" d="M961.934,-830.335C984.271,-858.471 1023.98,-903.302 1068,-929 1078.75,-935.276 1091.1,-940.106 1103.18,-943.799"/>
<polygon fill="midnightblue" stroke="midnightblue" points="964.484,-827.913 955.574,-822.179 958.964,-832.218 964.484,-827.913"/>
</g>
<!-- Node28 -->
<g id="node60" class="node"><title>Node28</title>
<a xlink:href="../../d1/d78/class_u_b_graphics_pixmap_item.html#ad154326709d1935d96248228d21b20ae" target="_top" xlink:title="UBGraphicsPixmapItem\l::UBGraphicsPixmapItem">
<polygon fill="white" stroke="red" points="1096,-886 1096,-920 1224,-920 1224,-886 1096,-886"/>
<text text-anchor="start" x="1104" y="-907" font-family="Helvetica,sans-Serif" font-size="10.00">UBGraphicsPixmapItem</text>
<text text-anchor="middle" x="1160" y="-894" font-family="Helvetica,sans-Serif" font-size="10.00">::UBGraphicsPixmapItem</text>
</a>
</g>
<!-- Node24&#45;&gt;Node28 -->
<g id="edge64" class="edge"><title>Node24&#45;&gt;Node28</title>
<path fill="none" stroke="midnightblue" d="M976.927,-827.619C1001.42,-843.172 1035.73,-863.395 1068,-877 1076.87,-880.74 1086.44,-884.12 1095.95,-887.111"/>
<polygon fill="midnightblue" stroke="midnightblue" points="978.674,-824.582 968.368,-822.122 974.89,-830.471 978.674,-824.582"/>
</g>
<!-- Node29 -->
<g id="node62" class="node"><title>Node29</title>
<a xlink:href="../../d3/d0b/class_u_b_graphics_strokes_group.html#ab3978d4c4d489c27f90baf64a506f1d8" target="_top" xlink:title="UBGraphicsStrokesGroup\l::UBGraphicsStrokesGroup">
<polygon fill="white" stroke="red" points="1092,-834 1092,-868 1228,-868 1228,-834 1092,-834"/>
<text text-anchor="start" x="1100" y="-855" font-family="Helvetica,sans-Serif" font-size="10.00">UBGraphicsStrokesGroup</text>
<text text-anchor="middle" x="1160" y="-842" font-family="Helvetica,sans-Serif" font-size="10.00">::UBGraphicsStrokesGroup</text>
</a>
</g>
<!-- Node24&#45;&gt;Node29 -->
<g id="edge66" class="edge"><title>Node24&#45;&gt;Node29</title>
<path fill="none" stroke="midnightblue" d="M1017.07,-820.702C1041.28,-825.833 1068.03,-831.504 1091.78,-836.539"/>
<polygon fill="midnightblue" stroke="midnightblue" points="1017.73,-817.265 1007.23,-818.615 1016.28,-824.113 1017.73,-817.265"/>
</g>
<!-- Node30 -->
<g id="node64" class="node"><title>Node30</title>
<a xlink:href="../../d1/dce/class_u_b_graphics_svg_item.html#aefe5ca00c7f91a56938b35611149a779" target="_top" xlink:title="UBGraphicsSvgItem::init">
<polygon fill="white" stroke="red" points="1097.5,-794.5 1097.5,-815.5 1222.5,-815.5 1222.5,-794.5 1097.5,-794.5"/>
<text text-anchor="middle" x="1160" y="-802.5" font-family="Helvetica,sans-Serif" font-size="10.00">UBGraphicsSvgItem::init</text>
</a>
</g>
<!-- Node24&#45;&gt;Node30 -->
<g id="edge68" class="edge"><title>Node24&#45;&gt;Node30</title>
<path fill="none" stroke="midnightblue" d="M1017.43,-805C1043.48,-805 1072.45,-805 1097.43,-805"/>
<polygon fill="midnightblue" stroke="midnightblue" points="1017.23,-801.5 1007.23,-805 1017.23,-808.5 1017.23,-801.5"/>
</g>
<!-- Node31 -->
<g id="node66" class="node"><title>Node31</title>
<a xlink:href="../../da/d65/class_u_b_graphics_text_item.html#acbf06a6d840ac7b6c95950e39dcd94b9" target="_top" xlink:title="UBGraphicsTextItem\l::UBGraphicsTextItem">
<polygon fill="white" stroke="red" points="1102.5,-742 1102.5,-776 1217.5,-776 1217.5,-742 1102.5,-742"/>
<text text-anchor="start" x="1110.5" y="-763" font-family="Helvetica,sans-Serif" font-size="10.00">UBGraphicsTextItem</text>
<text text-anchor="middle" x="1160" y="-750" font-family="Helvetica,sans-Serif" font-size="10.00">::UBGraphicsTextItem</text>
</a>
</g>
<!-- Node24&#45;&gt;Node31 -->
<g id="edge70" class="edge"><title>Node24&#45;&gt;Node31</title>
<path fill="none" stroke="midnightblue" d="M1017.29,-789.252C1045.06,-783.365 1076.16,-776.773 1102.22,-771.248"/>
<polygon fill="midnightblue" stroke="midnightblue" points="1016.28,-785.887 1007.23,-791.385 1017.73,-792.735 1016.28,-785.887"/>
</g>
<!-- Node32 -->
<g id="node68" class="node"><title>Node32</title>
<a xlink:href="../../d0/d16/class_u_b_graphics_widget_item.html#ac1a304e8be3f2ece6dd370210f25c90b" target="_top" xlink:title="UBGraphicsWidgetItem\l::UBGraphicsWidgetItem">
<polygon fill="white" stroke="black" points="1097,-690 1097,-724 1223,-724 1223,-690 1097,-690"/>
<text text-anchor="start" x="1105" y="-711" font-family="Helvetica,sans-Serif" font-size="10.00">UBGraphicsWidgetItem</text>
<text text-anchor="middle" x="1160" y="-698" font-family="Helvetica,sans-Serif" font-size="10.00">::UBGraphicsWidgetItem</text>
</a>
</g>
<!-- Node24&#45;&gt;Node32 -->
<g id="edge72" class="edge"><title>Node24&#45;&gt;Node32</title>
<path fill="none" stroke="midnightblue" d="M976.927,-782.381C1001.42,-766.828 1035.73,-746.605 1068,-733 1077.18,-729.131 1087.11,-725.647 1096.93,-722.581"/>
<polygon fill="midnightblue" stroke="midnightblue" points="974.89,-779.529 968.368,-787.878 978.674,-785.418 974.89,-779.529"/>
</g>
<!-- Node33&#45;&gt;Node6 -->
<g id="edge76" class="edge"><title>Node33&#45;&gt;Node6</title>
<path fill="none" stroke="midnightblue" d="M347.667,-416.666C359.66,-441.952 378.14,-481.021 394,-515 410.149,-549.598 401.813,-567.245 430,-593 440.18,-602.302 453.339,-608.852 466.326,-613.45"/>
<polygon fill="midnightblue" stroke="midnightblue" points="350.705,-414.902 343.256,-407.369 344.381,-417.903 350.705,-414.902"/>
</g>
<!-- Node33&#45;&gt;Node7 -->
<g id="edge78" class="edge"><title>Node33&#45;&gt;Node7</title>
<path fill="none" stroke="midnightblue" d="M347.764,-416.125C370.31,-461.738 416.116,-551.854 430,-560 470.705,-583.883 604.322,-569.317 678.405,-558.859"/>
<polygon fill="midnightblue" stroke="midnightblue" points="350.884,-414.538 343.326,-407.113 344.604,-417.63 350.884,-414.538"/>
</g>
<!-- Node34 -->
<g id="node74" class="node"><title>Node34</title>
<a xlink:href="../../d0/d79/class_u_b_favorite_tool_palette.html#a83161cac1258562134412dfcd60aee50" target="_top" xlink:title="UBFavoriteToolPalette\l::addFavorite">
<polygon fill="white" stroke="black" points="459,-217 459,-251 575,-251 575,-217 459,-217"/>
<text text-anchor="start" x="467" y="-238" font-family="Helvetica,sans-Serif" font-size="10.00">UBFavoriteToolPalette</text>
<text text-anchor="middle" x="517" y="-225" font-family="Helvetica,sans-Serif" font-size="10.00">::addFavorite</text>
</a>
</g>
<!-- Node33&#45;&gt;Node34 -->
<g id="edge80" class="edge"><title>Node33&#45;&gt;Node34</title>
<path fill="none" stroke="midnightblue" d="M347.608,-363.613C363.024,-334.113 391.848,-286.954 430,-260 438.626,-253.906 448.697,-249.22 458.864,-245.624"/>
<polygon fill="midnightblue" stroke="midnightblue" points="344.306,-362.384 342.899,-372.885 350.548,-365.554 344.306,-362.384"/>
</g>
<!-- Node36 -->
<g id="node78" class="node"><title>Node36</title>
<a xlink:href="../../d8/d33/class_u_b_features_controller.html#a38042ae37804ee19bfacf4aafd096ea9" target="_top" xlink:title="UBFeaturesController\l::addItemToPage">
<polygon fill="white" stroke="black" points="461.5,-165 461.5,-199 572.5,-199 572.5,-165 461.5,-165"/>
<text text-anchor="start" x="469.5" y="-186" font-family="Helvetica,sans-Serif" font-size="10.00">UBFeaturesController</text>
<text text-anchor="middle" x="517" y="-173" font-family="Helvetica,sans-Serif" font-size="10.00">::addItemToPage</text>
</a>
</g>
<!-- Node33&#45;&gt;Node36 -->
<g id="edge84" class="edge"><title>Node33&#45;&gt;Node36</title>
<path fill="none" stroke="midnightblue" d="M341.816,-363.061C353.269,-323.288 380.165,-249.136 430,-208 438.997,-200.574 450.061,-195.269 461.247,-191.478"/>
<polygon fill="midnightblue" stroke="midnightblue" points="338.401,-362.281 339.111,-372.852 345.148,-364.146 338.401,-362.281"/>
</g>
<!-- Node39 -->
<g id="node84" class="node"><title>Node39</title>
<a xlink:href="../../d8/d33/class_u_b_features_controller.html#a0ecd4b84e703063db5c0fdf498f2cdb0" target="_top" xlink:title="UBFeaturesController\l::addItemAsBackground">
<polygon fill="white" stroke="black" points="456,-373 456,-407 578,-407 578,-373 456,-373"/>
<text text-anchor="start" x="464" y="-394" font-family="Helvetica,sans-Serif" font-size="10.00">UBFeaturesController</text>
<text text-anchor="middle" x="517" y="-381" font-family="Helvetica,sans-Serif" font-size="10.00">::addItemAsBackground</text>
</a>
</g>
<!-- Node33&#45;&gt;Node39 -->
<g id="edge90" class="edge"><title>Node33&#45;&gt;Node39</title>
<path fill="none" stroke="midnightblue" d="M395.893,-390C415.213,-390 436.574,-390 455.908,-390"/>
<polygon fill="midnightblue" stroke="midnightblue" points="395.697,-386.5 385.697,-390 395.697,-393.5 395.697,-386.5"/>
</g>
<!-- Node41 -->
<g id="node89" class="node"><title>Node41</title>
<a xlink:href="../../da/dd6/class_u_b_library_a_p_i.html#abeac23fcd7f64866d5686b590ec05695" target="_top" xlink:title="UBLibraryAPI::addObject">
<polygon fill="white" stroke="black" points="453.5,-529.5 453.5,-550.5 580.5,-550.5 580.5,-529.5 453.5,-529.5"/>
<text text-anchor="middle" x="517" y="-537.5" font-family="Helvetica,sans-Serif" font-size="10.00">UBLibraryAPI::addObject</text>
</a>
</g>
<!-- Node33&#45;&gt;Node41 -->
<g id="edge96" class="edge"><title>Node33&#45;&gt;Node41</title>
<path fill="none" stroke="midnightblue" d="M347.104,-416.448C362.187,-446.337 390.83,-494.178 430,-520 437.117,-524.692 445.191,-528.29 453.483,-531.049"/>
<polygon fill="midnightblue" stroke="midnightblue" points="350.228,-414.868 342.687,-407.425 343.941,-417.946 350.228,-414.868"/>
</g>
<!-- Node42 -->
<g id="node91" class="node"><title>Node42</title>
<a xlink:href="../../df/d50/class_u_b_web_controller.html#a318422dc0a027e2258180673bb333586" target="_top" xlink:title="UBWebController::capture\lEduMedia">
<polygon fill="white" stroke="black" points="451.5,-477 451.5,-511 582.5,-511 582.5,-477 451.5,-477"/>
<text text-anchor="start" x="459.5" y="-498" font-family="Helvetica,sans-Serif" font-size="10.00">UBWebController::capture</text>
<text text-anchor="middle" x="517" y="-485" font-family="Helvetica,sans-Serif" font-size="10.00">EduMedia</text>
</a>
</g>
<!-- Node33&#45;&gt;Node42 -->
<g id="edge98" class="edge"><title>Node33&#45;&gt;Node42</title>
<path fill="none" stroke="midnightblue" d="M358.919,-414.251C377.037,-431.404 403.295,-453.793 430,-468 436.68,-471.554 443.914,-474.689 451.259,-477.438"/>
<polygon fill="midnightblue" stroke="midnightblue" points="361.3,-411.685 351.674,-407.259 356.439,-416.722 361.3,-411.685"/>
</g>
<!-- Node45 -->
<g id="node97" class="node"><title>Node45</title>
<a xlink:href="../../d5/d2b/class_u_b_widget_uniboard_a_p_i.html#a73ac1600ef3ed549d2c6c969436efb2f" target="_top" xlink:title="UBWidgetUniboardAPI\l::addObject">
<polygon fill="white" stroke="black" points="458.5,-425 458.5,-459 575.5,-459 575.5,-425 458.5,-425"/>
<text text-anchor="start" x="466.5" y="-446" font-family="Helvetica,sans-Serif" font-size="10.00">UBWidgetUniboardAPI</text>
<text text-anchor="middle" x="517" y="-433" font-family="Helvetica,sans-Serif" font-size="10.00">::addObject</text>
</a>
</g>
<!-- Node33&#45;&gt;Node45 -->
<g id="edge104" class="edge"><title>Node33&#45;&gt;Node45</title>
<path fill="none" stroke="midnightblue" d="M395.417,-407.262C415.631,-413.038 438.124,-419.464 458.212,-425.203"/>
<polygon fill="midnightblue" stroke="midnightblue" points="396.274,-403.867 385.697,-404.485 394.351,-410.598 396.274,-403.867"/>
</g>
<!-- Node46 -->
<g id="node99" class="node"><title>Node46</title>
<a xlink:href="../../db/d78/class_w_b_web_trap_web_view.html#afdbfd6aac50cad5ac07a465baa7be0b6" target="_top" xlink:title="WBWebTrapWebView::trapElement\lAtPos">
<polygon fill="white" stroke="black" points="430.5,-321 430.5,-355 603.5,-355 603.5,-321 430.5,-321"/>
<text text-anchor="start" x="438.5" y="-342" font-family="Helvetica,sans-Serif" font-size="10.00">WBWebTrapWebView::trapElement</text>
<text text-anchor="middle" x="517" y="-329" font-family="Helvetica,sans-Serif" font-size="10.00">AtPos</text>
</a>
</g>
<!-- Node33&#45;&gt;Node46 -->
<g id="edge106" class="edge"><title>Node33&#45;&gt;Node46</title>
<path fill="none" stroke="midnightblue" d="M395.55,-372.7C415.4,-367.029 437.435,-360.733 457.227,-355.078"/>
<polygon fill="midnightblue" stroke="midnightblue" points="394.351,-369.402 385.697,-375.515 396.274,-376.133 394.351,-369.402"/>
</g>
<!-- Node49 -->
<g id="node105" class="node"><title>Node49</title>
<a xlink:href="../../dd/dc8/class_w_b_web_page.html#a4f177fc1cee35b60e7973ff2573025e7" target="_top" xlink:title="WBWebPage::handleUnsupported\lContent">
<polygon fill="white" stroke="black" points="434,-269 434,-303 600,-303 600,-269 434,-269"/>
<text text-anchor="start" x="442" y="-290" font-family="Helvetica,sans-Serif" font-size="10.00">WBWebPage::handleUnsupported</text>
<text text-anchor="middle" x="517" y="-277" font-family="Helvetica,sans-Serif" font-size="10.00">Content</text>
</a>
</g>
<!-- Node33&#45;&gt;Node49 -->
<g id="edge112" class="edge"><title>Node33&#45;&gt;Node49</title>
<path fill="none" stroke="midnightblue" d="M358.919,-365.749C377.037,-348.596 403.295,-326.207 430,-312 436.263,-308.668 443.012,-305.704 449.883,-303.082"/>
<polygon fill="midnightblue" stroke="midnightblue" points="356.439,-363.278 351.674,-372.741 361.3,-368.315 356.439,-363.278"/>
</g>
<!-- Node35 -->
<g id="node76" class="node"><title>Node35</title>
<a xlink:href="../../d0/d79/class_u_b_favorite_tool_palette.html#a5c96e32fc43e9342cde947b25425516c" target="_top" xlink:title="UBFavoriteToolPalette\l::UBFavoriteToolPalette">
<polygon fill="white" stroke="black" points="668,-217 668,-251 790,-251 790,-217 668,-217"/>
<text text-anchor="start" x="676" y="-238" font-family="Helvetica,sans-Serif" font-size="10.00">UBFavoriteToolPalette</text>
<text text-anchor="middle" x="729" y="-225" font-family="Helvetica,sans-Serif" font-size="10.00">::UBFavoriteToolPalette</text>
</a>
</g>
<!-- Node34&#45;&gt;Node35 -->
<g id="edge82" class="edge"><title>Node34&#45;&gt;Node35</title>
<path fill="none" stroke="midnightblue" d="M585.212,-234C611.82,-234 642.083,-234 667.959,-234"/>
<polygon fill="midnightblue" stroke="midnightblue" points="585.21,-230.5 575.21,-234 585.21,-237.5 585.21,-230.5"/>
</g>
<!-- Node37 -->
<g id="node80" class="node"><title>Node37</title>
<a xlink:href="../../dd/dc8/class_u_b_feature_properties.html#a6fb900fb691ba01479801333a4df226d" target="_top" xlink:title="UBFeatureProperties\l::onAddToPage">
<polygon fill="white" stroke="black" points="675,-165 675,-199 783,-199 783,-165 675,-165"/>
<text text-anchor="start" x="683" y="-186" font-family="Helvetica,sans-Serif" font-size="10.00">UBFeatureProperties</text>
<text text-anchor="middle" x="729" y="-173" font-family="Helvetica,sans-Serif" font-size="10.00">::onAddToPage</text>
</a>
</g>
<!-- Node36&#45;&gt;Node37 -->
<g id="edge86" class="edge"><title>Node36&#45;&gt;Node37</title>
<path fill="none" stroke="midnightblue" d="M582.916,-182C612.421,-182 646.786,-182 674.77,-182"/>
<polygon fill="midnightblue" stroke="midnightblue" points="582.701,-178.5 572.701,-182 582.7,-185.5 582.701,-178.5"/>
</g>
<!-- Node38 -->
<g id="node82" class="node"><title>Node38</title>
<a xlink:href="../../dd/dc8/class_u_b_feature_properties.html#ac62ad70b89370327d9ed3f9f88a68415" target="_top" xlink:title="UBFeatureProperties\l::UBFeatureProperties">
<polygon fill="white" stroke="black" points="886,-237 886,-271 1000,-271 1000,-237 886,-237"/>
<text text-anchor="start" x="894" y="-258" font-family="Helvetica,sans-Serif" font-size="10.00">UBFeatureProperties</text>
<text text-anchor="middle" x="943" y="-245" font-family="Helvetica,sans-Serif" font-size="10.00">::UBFeatureProperties</text>
</a>
</g>
<!-- Node37&#45;&gt;Node38 -->
<g id="edge88" class="edge"><title>Node37&#45;&gt;Node38</title>
<path fill="none" stroke="midnightblue" d="M793.106,-200.157C801.507,-202.703 809.979,-205.356 818,-208 845.123,-216.941 875.168,-227.961 899.003,-236.973"/>
<polygon fill="midnightblue" stroke="midnightblue" points="793.891,-196.739 783.308,-197.224 791.884,-203.445 793.891,-196.739"/>
</g>
<!-- Node40 -->
<g id="node86" class="node"><title>Node40</title>
<a xlink:href="../../dd/dc8/class_u_b_feature_properties.html#af183f096cbff2df0da3206b8e71c3525" target="_top" xlink:title="UBFeatureProperties\l::onSetAsBackground">
<polygon fill="white" stroke="black" points="673,-413 673,-447 785,-447 785,-413 673,-413"/>
<text text-anchor="start" x="681" y="-434" font-family="Helvetica,sans-Serif" font-size="10.00">UBFeatureProperties</text>
<text text-anchor="middle" x="729" y="-421" font-family="Helvetica,sans-Serif" font-size="10.00">::onSetAsBackground</text>
</a>
</g>
<!-- Node39&#45;&gt;Node40 -->
<g id="edge92" class="edge"><title>Node39&#45;&gt;Node40</title>
<path fill="none" stroke="midnightblue" d="M588.022,-403.4C615.61,-408.606 646.758,-414.483 672.747,-419.386"/>
<polygon fill="midnightblue" stroke="midnightblue" points="588.51,-399.931 578.035,-401.516 587.212,-406.809 588.51,-399.931"/>
</g>
<!-- Node40&#45;&gt;Node38 -->
<g id="edge94" class="edge"><title>Node40&#45;&gt;Node38</title>
<path fill="none" stroke="midnightblue" d="M794.921,-415.608C803.029,-412.454 810.936,-408.63 818,-404 872.153,-368.51 915.082,-302.479 933.39,-271.236"/>
<polygon fill="midnightblue" stroke="midnightblue" points="793.599,-412.363 785.35,-419.011 795.944,-418.959 793.599,-412.363"/>
</g>
<!-- Node43 -->
<g id="node93" class="node"><title>Node43</title>
<a xlink:href="../../df/d50/class_u_b_web_controller.html#af73cfa36d5b743fa3a652e49dd7e4831" target="_top" xlink:title="UBWebController::setupPalettes">
<polygon fill="white" stroke="black" points="649.5,-474.5 649.5,-495.5 808.5,-495.5 808.5,-474.5 649.5,-474.5"/>
<text text-anchor="middle" x="729" y="-482.5" font-family="Helvetica,sans-Serif" font-size="10.00">UBWebController::setupPalettes</text>
</a>
</g>
<!-- Node42&#45;&gt;Node43 -->
<g id="edge100" class="edge"><title>Node42&#45;&gt;Node43</title>
<path fill="none" stroke="midnightblue" d="M592.655,-490.788C610.979,-490.01 630.624,-489.176 649.136,-488.39"/>
<polygon fill="midnightblue" stroke="midnightblue" points="592.469,-487.293 582.626,-491.214 592.766,-494.287 592.469,-487.293"/>
</g>
<!-- Node44 -->
<g id="node95" class="node"><title>Node44</title>
<a xlink:href="../../df/d50/class_u_b_web_controller.html#a56d469910c2a1c76725fbfeffb7e0054" target="_top" xlink:title="UBWebController::webBrowser\lInstance">
<polygon fill="white" stroke="red" points="866.5,-390 866.5,-424 1019.5,-424 1019.5,-390 866.5,-390"/>
<text text-anchor="start" x="874.5" y="-411" font-family="Helvetica,sans-Serif" font-size="10.00">UBWebController::webBrowser</text>
<text text-anchor="middle" x="943" y="-398" font-family="Helvetica,sans-Serif" font-size="10.00">Instance</text>
</a>
</g>
<!-- Node43&#45;&gt;Node44 -->
<g id="edge102" class="edge"><title>Node43&#45;&gt;Node44</title>
<path fill="none" stroke="midnightblue" d="M778.612,-471.293C791.681,-467.022 805.591,-461.869 818,-456 835.164,-447.883 836.713,-440.852 854,-433 861.181,-429.738 868.874,-426.772 876.62,-424.108"/>
<polygon fill="midnightblue" stroke="midnightblue" points="777.303,-468.036 768.821,-474.384 779.41,-474.711 777.303,-468.036"/>
</g>
<!-- Node47 -->
<g id="node101" class="node"><title>Node47</title>
<a xlink:href="../../db/d78/class_w_b_web_trap_web_view.html#a2ac308414d18186c9c4fc60bc5f46400" target="_top" xlink:title="WBWebTrapWebView::trapContent\lFromHitTest">
<polygon fill="white" stroke="black" points="643,-361 643,-395 815,-395 815,-361 643,-361"/>
<text text-anchor="start" x="651" y="-382" font-family="Helvetica,sans-Serif" font-size="10.00">WBWebTrapWebView::trapContent</text>
<text text-anchor="middle" x="729" y="-369" font-family="Helvetica,sans-Serif" font-size="10.00">FromHitTest</text>
</a>
</g>
<!-- Node46&#45;&gt;Node47 -->
<g id="edge108" class="edge"><title>Node46&#45;&gt;Node47</title>
<path fill="none" stroke="midnightblue" d="M613.607,-356.228C623.323,-358.061 633.144,-359.914 642.742,-361.725"/>
<polygon fill="midnightblue" stroke="midnightblue" points="614.01,-352.742 603.534,-354.327 612.712,-359.621 614.01,-352.742"/>
</g>
<!-- Node48 -->
<g id="node103" class="node"><title>Node48</title>
<a xlink:href="../../dd/df0/class_u_b_web_trap_mouse_event_mask.html#a2c69d74fef874516e38daeab13e6ecd0" target="_top" xlink:title="UBWebTrapMouseEventMask\l::mousePressEvent">
<polygon fill="white" stroke="black" points="654.5,-309 654.5,-343 803.5,-343 803.5,-309 654.5,-309"/>
<text text-anchor="start" x="662.5" y="-330" font-family="Helvetica,sans-Serif" font-size="10.00">UBWebTrapMouseEventMask</text>
<text text-anchor="middle" x="729" y="-317" font-family="Helvetica,sans-Serif" font-size="10.00">::mousePressEvent</text>
</a>
</g>
<!-- Node46&#45;&gt;Node48 -->
<g id="edge110" class="edge"><title>Node46&#45;&gt;Node48</title>
<path fill="none" stroke="midnightblue" d="M613.859,-332.517C627.432,-331.749 641.206,-330.969 654.283,-330.229"/>
<polygon fill="midnightblue" stroke="midnightblue" points="613.32,-329.042 603.534,-333.102 613.716,-336.031 613.32,-329.042"/>
</g>
<!-- Node50 -->
<g id="node107" class="node"><title>Node50</title>
<a xlink:href="../../dd/dc8/class_w_b_web_page.html#a01017231eb0981875b79223f8457b302" target="_top" xlink:title="WBWebPage::WBWebPage">
<polygon fill="white" stroke="black" points="658.5,-269.5 658.5,-290.5 799.5,-290.5 799.5,-269.5 658.5,-269.5"/>
<text text-anchor="middle" x="729" y="-277.5" font-family="Helvetica,sans-Serif" font-size="10.00">WBWebPage::WBWebPage</text>
</a>
</g>
<!-- Node49&#45;&gt;Node50 -->
<g id="edge114" class="edge"><title>Node49&#45;&gt;Node50</title>
<path fill="none" stroke="midnightblue" d="M610.188,-283.363C626.369,-282.905 642.954,-282.435 658.405,-281.998"/>
<polygon fill="midnightblue" stroke="midnightblue" points="610.076,-279.864 600.18,-283.646 610.275,-286.861 610.076,-279.864"/>
</g>
</g>
</svg>
