<?xml version="1.0" encoding="UTF-8" standalone="no"?>
<!DOCTYPE svg PUBLIC "-//W3C//DTD SVG 1.1//EN"
 "http://www.w3.org/Graphics/SVG/1.1/DTD/svg11.dtd">
<!-- Generated by graphviz version 2.26.3 (20100126.1600)
 -->
<!-- Title: UBBoardController::cut Pages: 1 -->
<svg width="1212pt" height="354pt"
 viewBox="0.00 0.00 1212.00 354.00" xmlns="http://www.w3.org/2000/svg" xmlns:xlink="http://www.w3.org/1999/xlink">
<g id="graph1" class="graph" transform="scale(1 1) rotate(0) translate(4 350)">
<title>UBBoardController::cut</title>
<polygon fill="white" stroke="white" points="-4,5 -4,-350 1209,-350 1209,5 -4,5"/>
<!-- Node1 -->
<g id="node1" class="node"><title>Node1</title>
<polygon fill="#bfbfbf" stroke="black" points="0,-138.5 0,-159.5 118,-159.5 118,-138.5 0,-138.5"/>
<text text-anchor="middle" x="59" y="-146.5" font-family="Helvetica,sans-Serif" font-size="10.00">UBBoardController::cut</text>
</g>
<!-- Node2 -->
<g id="node3" class="node"><title>Node2</title>
<a xlink:href="../../dc/db2/class_u_b_graphics_scene.html#a18e33c67e244cacb4fbf5fd0abda84cf" target="_top" xlink:title="UBGraphicsScene::tools">
<polygon fill="white" stroke="black" points="173.5,-241.5 173.5,-262.5 298.5,-262.5 298.5,-241.5 173.5,-241.5"/>
<text text-anchor="middle" x="236" y="-249.5" font-family="Helvetica,sans-Serif" font-size="10.00">UBGraphicsScene::tools</text>
</a>
</g>
<!-- Node1&#45;&gt;Node2 -->
<g id="edge2" class="edge"><title>Node1&#45;&gt;Node2</title>
<path fill="none" stroke="midnightblue" d="M68.0614,-159.728C83.7133,-177.544 117.648,-213.137 154,-232 158.325,-234.244 162.909,-236.243 167.613,-238.022"/>
<polygon fill="midnightblue" stroke="midnightblue" points="166.797,-241.442 177.392,-241.373 169.067,-234.82 166.797,-241.442"/>
</g>
<!-- Node3 -->
<g id="node5" class="node"><title>Node3</title>
<a xlink:href="../../d8/d1e/class_u_b_item.html#a5ef870748a215b3f5f3218d0178b17b9" target="_top" xlink:title="UBItem::deepCopy">
<polygon fill="white" stroke="black" points="185.5,-201.5 185.5,-222.5 286.5,-222.5 286.5,-201.5 185.5,-201.5"/>
<text text-anchor="middle" x="236" y="-209.5" font-family="Helvetica,sans-Serif" font-size="10.00">UBItem::deepCopy</text>
</a>
</g>
<!-- Node1&#45;&gt;Node3 -->
<g id="edge4" class="edge"><title>Node1&#45;&gt;Node3</title>
<path fill="none" stroke="midnightblue" d="M79.3062,-159.526C98.2419,-169.017 127.473,-182.85 154,-192 161.128,-194.458 168.703,-196.737 176.257,-198.807"/>
<polygon fill="midnightblue" stroke="midnightblue" points="175.576,-202.247 186.137,-201.408 177.358,-195.478 175.576,-202.247"/>
</g>
<!-- Node4 -->
<g id="node7" class="node"><title>Node4</title>
<a xlink:href="../../d3/dbd/class_u_b_graphics_item.html#afddba655f7a4db42baf53bc797bc6ab9" target="_top" xlink:title="UBGraphicsItem::remove">
<polygon fill="white" stroke="black" points="172,-161.5 172,-182.5 300,-182.5 300,-161.5 172,-161.5"/>
<text text-anchor="middle" x="236" y="-169.5" font-family="Helvetica,sans-Serif" font-size="10.00">UBGraphicsItem::remove</text>
</a>
</g>
<!-- Node1&#45;&gt;Node4 -->
<g id="edge6" class="edge"><title>Node1&#45;&gt;Node4</title>
<path fill="none" stroke="midnightblue" d="M118.431,-156.723C132.384,-158.536 147.422,-160.49 161.929,-162.375"/>
<polygon fill="midnightblue" stroke="midnightblue" points="161.5,-165.848 171.867,-163.666 162.402,-158.907 161.5,-165.848"/>
</g>
<!-- Node21 -->
<g id="node41" class="node"><title>Node21</title>
<a xlink:href="../../da/dc6/class_u_b_document_container.html#a859116555c2e46b6949e6e1cc613d754" target="_top" xlink:title="UBDocumentContainer\l::selectedDocument">
<polygon fill="white" stroke="black" points="177,-109 177,-143 295,-143 295,-109 177,-109"/>
<text text-anchor="start" x="185" y="-130" font-family="Helvetica,sans-Serif" font-size="10.00">UBDocumentContainer</text>
<text text-anchor="middle" x="236" y="-117" font-family="Helvetica,sans-Serif" font-size="10.00">::selectedDocument</text>
</a>
</g>
<!-- Node1&#45;&gt;Node21 -->
<g id="edge40" class="edge"><title>Node1&#45;&gt;Node21</title>
<path fill="none" stroke="midnightblue" d="M118.431,-141.277C133.837,-139.275 150.565,-137.102 166.44,-135.039"/>
<polygon fill="midnightblue" stroke="midnightblue" points="167.26,-138.462 176.726,-133.702 166.358,-131.52 167.26,-138.462"/>
</g>
<!-- Node22 -->
<g id="node43" class="node"><title>Node22</title>
<a xlink:href="../../de/db4/class_u_b_document_proxy.html#a541c361c5a415640974ecf94147126b1" target="_top" xlink:title="UBDocumentProxy::setMetaData">
<polygon fill="white" stroke="black" points="154,-69.5 154,-90.5 318,-90.5 318,-69.5 154,-69.5"/>
<text text-anchor="middle" x="236" y="-77.5" font-family="Helvetica,sans-Serif" font-size="10.00">UBDocumentProxy::setMetaData</text>
</a>
</g>
<!-- Node1&#45;&gt;Node22 -->
<g id="edge42" class="edge"><title>Node1&#45;&gt;Node22</title>
<path fill="none" stroke="midnightblue" d="M76.285,-138.492C94.8993,-127.56 125.666,-110.591 154,-100 160.7,-97.4956 167.826,-95.2191 174.972,-93.1747"/>
<polygon fill="midnightblue" stroke="midnightblue" points="175.961,-96.533 184.692,-90.531 174.124,-89.7784 175.961,-96.533"/>
</g>
<!-- Node26 -->
<g id="node51" class="node"><title>Node26</title>
<a xlink:href="../../dc/d4c/class_u_b_string_utils.html#aca5c79d1ca00f4ecbf5e014b7d9810a6" target="_top" xlink:title="UBStringUtils::toUtcIsoDateTime">
<polygon fill="white" stroke="black" points="154.5,-29.5 154.5,-50.5 317.5,-50.5 317.5,-29.5 154.5,-29.5"/>
<text text-anchor="middle" x="236" y="-37.5" font-family="Helvetica,sans-Serif" font-size="10.00">UBStringUtils::toUtcIsoDateTime</text>
</a>
</g>
<!-- Node1&#45;&gt;Node26 -->
<g id="edge50" class="edge"><title>Node1&#45;&gt;Node26</title>
<path fill="none" stroke="midnightblue" d="M67.1568,-138.379C82.1972,-119.562 116.235,-80.4364 154,-60 158.209,-57.7226 162.678,-55.7007 167.273,-53.9063"/>
<polygon fill="midnightblue" stroke="midnightblue" points="168.571,-57.1599 176.837,-50.5335 166.243,-50.5584 168.571,-57.1599"/>
</g>
<!-- Node5 -->
<g id="node9" class="node"><title>Node5</title>
<a xlink:href="../../d3/dbd/class_u_b_graphics_item.html#ac8a143db621d9be68be5f3c9da0f1405" target="_top" xlink:title="UBGraphicsItem::Delegate">
<polygon fill="white" stroke="black" points="354,-207.5 354,-228.5 488,-228.5 488,-207.5 354,-207.5"/>
<text text-anchor="middle" x="421" y="-215.5" font-family="Helvetica,sans-Serif" font-size="10.00">UBGraphicsItem::Delegate</text>
</a>
</g>
<!-- Node4&#45;&gt;Node5 -->
<g id="edge8" class="edge"><title>Node4&#45;&gt;Node5</title>
<path fill="none" stroke="midnightblue" d="M279.423,-182.522C291.884,-185.56 305.485,-188.894 318,-192 334.75,-196.157 353.018,-200.749 369.455,-204.902"/>
<polygon fill="midnightblue" stroke="midnightblue" points="368.87,-208.364 379.423,-207.424 370.587,-201.578 368.87,-208.364"/>
</g>
<!-- Node6 -->
<g id="node11" class="node"><title>Node6</title>
<a xlink:href="../../dd/dd5/class_u_b_graphics_item_delegate.html#a2ae1e0d0f30bebf2a25d444c509e28b9" target="_top" xlink:title="UBGraphicsItemDelegate\l::remove">
<polygon fill="white" stroke="black" points="357,-155 357,-189 485,-189 485,-155 357,-155"/>
<text text-anchor="start" x="365" y="-176" font-family="Helvetica,sans-Serif" font-size="10.00">UBGraphicsItemDelegate</text>
<text text-anchor="middle" x="421" y="-163" font-family="Helvetica,sans-Serif" font-size="10.00">::remove</text>
</a>
</g>
<!-- Node4&#45;&gt;Node6 -->
<g id="edge10" class="edge"><title>Node4&#45;&gt;Node6</title>
<path fill="none" stroke="midnightblue" d="M300.185,-172C315.252,-172 331.428,-172 346.89,-172"/>
<polygon fill="midnightblue" stroke="midnightblue" points="346.929,-175.5 356.929,-172 346.929,-168.5 346.929,-175.5"/>
</g>
<!-- Node7 -->
<g id="node13" class="node"><title>Node7</title>
<a xlink:href="../../d5/ded/class_u_b_graphics_delegate_frame.html#aacd9c3fb5b977bd0251bdbab346578e7" target="_top" xlink:title="UBGraphicsDelegateFrame\l::setAntiScale">
<polygon fill="white" stroke="black" points="533.5,-208 533.5,-242 670.5,-242 670.5,-208 533.5,-208"/>
<text text-anchor="start" x="541.5" y="-229" font-family="Helvetica,sans-Serif" font-size="10.00">UBGraphicsDelegateFrame</text>
<text text-anchor="middle" x="602" y="-216" font-family="Helvetica,sans-Serif" font-size="10.00">::setAntiScale</text>
</a>
</g>
<!-- Node6&#45;&gt;Node7 -->
<g id="edge12" class="edge"><title>Node6&#45;&gt;Node7</title>
<path fill="none" stroke="midnightblue" d="M479.266,-189.061C496.705,-194.168 515.981,-199.812 533.989,-205.085"/>
<polygon fill="midnightblue" stroke="midnightblue" points="533.263,-208.519 543.843,-207.971 535.23,-201.801 533.263,-208.519"/>
</g>
<!-- Node8 -->
<g id="node15" class="node"><title>Node8</title>
<a xlink:href="../../d5/ded/class_u_b_graphics_delegate_frame.html#abfe38268d0d095ab895a27c0a8b5a833" target="_top" xlink:title="UBGraphicsDelegateFrame\l::positionHandles">
<polygon fill="white" stroke="black" points="533.5,-156 533.5,-190 670.5,-190 670.5,-156 533.5,-156"/>
<text text-anchor="start" x="541.5" y="-177" font-family="Helvetica,sans-Serif" font-size="10.00">UBGraphicsDelegateFrame</text>
<text text-anchor="middle" x="602" y="-164" font-family="Helvetica,sans-Serif" font-size="10.00">::positionHandles</text>
</a>
</g>
<!-- Node6&#45;&gt;Node8 -->
<g id="edge14" class="edge"><title>Node6&#45;&gt;Node8</title>
<path fill="none" stroke="midnightblue" d="M485.069,-172.354C497.426,-172.422 510.504,-172.494 523.265,-172.565"/>
<polygon fill="midnightblue" stroke="midnightblue" points="523.392,-176.066 533.411,-172.621 523.431,-169.066 523.392,-176.066"/>
</g>
<!-- Node14 -->
<g id="node27" class="node"><title>Node14</title>
<a xlink:href="../../dc/db2/class_u_b_graphics_scene.html#a769a40e7bebcaf040e391eed5f5d3f56" target="_top" xlink:title="UBGraphicsScene::removeItem">
<polygon fill="white" stroke="black" points="524.5,-59.5 524.5,-80.5 679.5,-80.5 679.5,-59.5 524.5,-59.5"/>
<text text-anchor="middle" x="602" y="-67.5" font-family="Helvetica,sans-Serif" font-size="10.00">UBGraphicsScene::removeItem</text>
</a>
</g>
<!-- Node6&#45;&gt;Node14 -->
<g id="edge26" class="edge"><title>Node6&#45;&gt;Node14</title>
<path fill="none" stroke="midnightblue" d="M451.295,-154.927C485.699,-135.54 541.347,-104.18 574.532,-85.4792"/>
<polygon fill="midnightblue" stroke="midnightblue" points="576.266,-88.5194 583.26,-80.5607 572.83,-82.421 576.266,-88.5194"/>
</g>
<!-- Node9 -->
<g id="node17" class="node"><title>Node9</title>
<a xlink:href="../../dd/dd5/class_u_b_graphics_item_delegate.html#af64a99fb8ca196adcd2d7c1aacedb562" target="_top" xlink:title="UBGraphicsItemDelegate\l::getToolBarItem">
<polygon fill="white" stroke="black" points="716,-312 716,-346 844,-346 844,-312 716,-312"/>
<text text-anchor="start" x="724" y="-333" font-family="Helvetica,sans-Serif" font-size="10.00">UBGraphicsItemDelegate</text>
<text text-anchor="middle" x="780" y="-320" font-family="Helvetica,sans-Serif" font-size="10.00">::getToolBarItem</text>
</a>
</g>
<!-- Node8&#45;&gt;Node9 -->
<g id="edge16" class="edge"><title>Node8&#45;&gt;Node9</title>
<path fill="none" stroke="midnightblue" d="M668.451,-190.048C672.638,-192.624 676.549,-195.588 680,-199 714.785,-233.387 682.335,-267.515 716,-303 716.905,-303.954 717.851,-304.875 718.831,-305.762"/>
<polygon fill="midnightblue" stroke="midnightblue" points="716.867,-308.666 726.943,-311.941 721.108,-303.097 716.867,-308.666"/>
</g>
<!-- Node10 -->
<g id="node19" class="node"><title>Node10</title>
<a xlink:href="../../dd/ddb/class_u_b_graphics_tool_bar_item.html#a8e37445297c7cb9aa0001554312a001d" target="_top" xlink:title="UBGraphicsToolBarItem\l::isVisibleOnBoard">
<polygon fill="white" stroke="black" points="718.5,-260 718.5,-294 841.5,-294 841.5,-260 718.5,-260"/>
<text text-anchor="start" x="726.5" y="-281" font-family="Helvetica,sans-Serif" font-size="10.00">UBGraphicsToolBarItem</text>
<text text-anchor="middle" x="780" y="-268" font-family="Helvetica,sans-Serif" font-size="10.00">::isVisibleOnBoard</text>
</a>
</g>
<!-- Node8&#45;&gt;Node10 -->
<g id="edge18" class="edge"><title>Node8&#45;&gt;Node10</title>
<path fill="none" stroke="midnightblue" d="M665.521,-190.174C670.64,-192.734 675.546,-195.66 680,-199 702.487,-215.865 694.065,-233.422 716,-251 717.544,-252.237 719.155,-253.423 720.818,-254.559"/>
<polygon fill="midnightblue" stroke="midnightblue" points="719.13,-257.629 729.494,-259.829 722.764,-251.646 719.13,-257.629"/>
</g>
<!-- Node11 -->
<g id="node21" class="node"><title>Node11</title>
<a xlink:href="../../dd/ddb/class_u_b_graphics_tool_bar_item.html#ad5c8346dab076b19a05ff0940d945a66" target="_top" xlink:title="UBGraphicsToolBarItem\l::isShifting">
<polygon fill="white" stroke="black" points="718.5,-208 718.5,-242 841.5,-242 841.5,-208 718.5,-208"/>
<text text-anchor="start" x="726.5" y="-229" font-family="Helvetica,sans-Serif" font-size="10.00">UBGraphicsToolBarItem</text>
<text text-anchor="middle" x="780" y="-216" font-family="Helvetica,sans-Serif" font-size="10.00">::isShifting</text>
</a>
</g>
<!-- Node8&#45;&gt;Node11 -->
<g id="edge20" class="edge"><title>Node8&#45;&gt;Node11</title>
<path fill="none" stroke="midnightblue" d="M660.284,-190.027C676.727,-194.83 694.764,-200.1 711.736,-205.058"/>
<polygon fill="midnightblue" stroke="midnightblue" points="711.005,-208.49 721.585,-207.935 712.968,-201.771 711.005,-208.49"/>
</g>
<!-- Node12 -->
<g id="node23" class="node"><title>Node12</title>
<a xlink:href="../../dd/dd5/class_u_b_graphics_item_delegate.html#a0cb52bb59aadb21de40ad65dc87fe87a" target="_top" xlink:title="UBGraphicsItemDelegate\l::antiScaleRatio">
<polygon fill="white" stroke="black" points="716,-156 716,-190 844,-190 844,-156 716,-156"/>
<text text-anchor="start" x="724" y="-177" font-family="Helvetica,sans-Serif" font-size="10.00">UBGraphicsItemDelegate</text>
<text text-anchor="middle" x="780" y="-164" font-family="Helvetica,sans-Serif" font-size="10.00">::antiScaleRatio</text>
</a>
</g>
<!-- Node8&#45;&gt;Node12 -->
<g id="edge22" class="edge"><title>Node8&#45;&gt;Node12</title>
<path fill="none" stroke="midnightblue" d="M670.565,-173C682.078,-173 694.074,-173 705.724,-173"/>
<polygon fill="midnightblue" stroke="midnightblue" points="705.852,-176.5 715.852,-173 705.852,-169.5 705.852,-176.5"/>
</g>
<!-- Node13 -->
<g id="node25" class="node"><title>Node13</title>
<a xlink:href="../../dd/dd5/class_u_b_graphics_item_delegate.html#ad9e31d0b5977088ca59b6ff94c9a9b92" target="_top" xlink:title="UBGraphicsItemDelegate\l::canRotate">
<polygon fill="white" stroke="black" points="716,-104 716,-138 844,-138 844,-104 716,-104"/>
<text text-anchor="start" x="724" y="-125" font-family="Helvetica,sans-Serif" font-size="10.00">UBGraphicsItemDelegate</text>
<text text-anchor="middle" x="780" y="-112" font-family="Helvetica,sans-Serif" font-size="10.00">::canRotate</text>
</a>
</g>
<!-- Node8&#45;&gt;Node13 -->
<g id="edge24" class="edge"><title>Node8&#45;&gt;Node13</title>
<path fill="none" stroke="midnightblue" d="M660.284,-155.973C676.727,-151.17 694.764,-145.9 711.736,-140.942"/>
<polygon fill="midnightblue" stroke="midnightblue" points="712.968,-144.229 721.585,-138.065 711.005,-137.51 712.968,-144.229"/>
</g>
<!-- Node15 -->
<g id="node29" class="node"><title>Node15</title>
<a xlink:href="../../d7/d62/class_u_b_board_controller.html#a3e83388ec403a3bec62277e1b1a0144f" target="_top" xlink:title="UBBoardController:\l:freezeW3CWidget">
<polygon fill="white" stroke="black" points="729.5,-52 729.5,-86 830.5,-86 830.5,-52 729.5,-52"/>
<text text-anchor="start" x="737.5" y="-73" font-family="Helvetica,sans-Serif" font-size="10.00">UBBoardController:</text>
<text text-anchor="middle" x="780" y="-60" font-family="Helvetica,sans-Serif" font-size="10.00">:freezeW3CWidget</text>
</a>
</g>
<!-- Node14&#45;&gt;Node15 -->
<g id="edge28" class="edge"><title>Node14&#45;&gt;Node15</title>
<path fill="none" stroke="midnightblue" d="M679.556,-69.5643C692.862,-69.4895 706.515,-69.4128 719.299,-69.341"/>
<polygon fill="midnightblue" stroke="midnightblue" points="719.362,-72.8408 729.342,-69.2846 719.323,-65.8409 719.362,-72.8408"/>
</g>
<!-- Node19 -->
<g id="node37" class="node"><title>Node19</title>
<a xlink:href="../../d3/db1/class_u_b_core_graphics_scene.html#aa834de4c7e8874b466bdbccda0ef2053" target="_top" xlink:title="UBCoreGraphicsScene\l::deleteItem">
<polygon fill="white" stroke="black" points="720.5,-0 720.5,-34 839.5,-34 839.5,-0 720.5,-0"/>
<text text-anchor="start" x="728.5" y="-21" font-family="Helvetica,sans-Serif" font-size="10.00">UBCoreGraphicsScene</text>
<text text-anchor="middle" x="780" y="-8" font-family="Helvetica,sans-Serif" font-size="10.00">::deleteItem</text>
</a>
</g>
<!-- Node14&#45;&gt;Node19 -->
<g id="edge36" class="edge"><title>Node14&#45;&gt;Node19</title>
<path fill="none" stroke="midnightblue" d="M645.463,-59.4114C656.75,-56.5097 668.864,-53.2609 680,-50 693.342,-46.093 707.581,-41.5953 721.007,-37.2026"/>
<polygon fill="midnightblue" stroke="midnightblue" points="722.215,-40.4896 730.615,-34.0326 720.022,-33.8421 722.215,-40.4896"/>
</g>
<!-- Node16 -->
<g id="node31" class="node"><title>Node16</title>
<a xlink:href="../../d7/da7/class_u_b_graphics_w3_c_widget_item.html#adc5e2a6da0f030dbcf3b1fe0b4f1cfd6" target="_top" xlink:title="UBGraphicsW3CWidgetItem\l::freezedWidgetFilePath">
<polygon fill="white" stroke="black" points="882.5,-101 882.5,-135 1025.5,-135 1025.5,-101 882.5,-101"/>
<text text-anchor="start" x="890.5" y="-122" font-family="Helvetica,sans-Serif" font-size="10.00">UBGraphicsW3CWidgetItem</text>
<text text-anchor="middle" x="954" y="-109" font-family="Helvetica,sans-Serif" font-size="10.00">::freezedWidgetFilePath</text>
</a>
</g>
<!-- Node15&#45;&gt;Node16 -->
<g id="edge30" class="edge"><title>Node15&#45;&gt;Node16</title>
<path fill="none" stroke="midnightblue" d="M830.796,-83.3046C847.384,-87.9761 866.111,-93.2495 883.863,-98.2487"/>
<polygon fill="midnightblue" stroke="midnightblue" points="883.031,-101.65 893.605,-100.992 884.928,-94.9125 883.031,-101.65"/>
</g>
<!-- Node18 -->
<g id="node35" class="node"><title>Node18</title>
<a xlink:href="../../d0/d16/class_u_b_graphics_widget_item.html#aadbdbf82a7420d3760df51e7cfdbe1da" target="_top" xlink:title="UBGraphicsWidgetItem\l::loadMainHtml">
<polygon fill="white" stroke="black" points="894,-49 894,-83 1014,-83 1014,-49 894,-49"/>
<text text-anchor="start" x="902" y="-70" font-family="Helvetica,sans-Serif" font-size="10.00">UBGraphicsWidgetItem</text>
<text text-anchor="middle" x="954" y="-57" font-family="Helvetica,sans-Serif" font-size="10.00">::loadMainHtml</text>
</a>
</g>
<!-- Node15&#45;&gt;Node18 -->
<g id="edge34" class="edge"><title>Node15&#45;&gt;Node18</title>
<path fill="none" stroke="midnightblue" d="M830.796,-68.1242C847.315,-67.8394 865.953,-67.5181 883.639,-67.2131"/>
<polygon fill="midnightblue" stroke="midnightblue" points="883.98,-70.7079 893.918,-67.0359 883.859,-63.7089 883.98,-70.7079"/>
</g>
<!-- Node17 -->
<g id="node33" class="node"><title>Node17</title>
<a xlink:href="../../d4/d99/class_u_b_platform_utils.html#ae595b29e794b20564550fd45515fc0a8" target="_top" xlink:title="UBPlatformUtils::application\lResourcesDirectory">
<polygon fill="white" stroke="black" points="1064,-101 1064,-135 1204,-135 1204,-101 1064,-101"/>
<text text-anchor="start" x="1072" y="-122" font-family="Helvetica,sans-Serif" font-size="10.00">UBPlatformUtils::application</text>
<text text-anchor="middle" x="1134" y="-109" font-family="Helvetica,sans-Serif" font-size="10.00">ResourcesDirectory</text>
</a>
</g>
<!-- Node16&#45;&gt;Node17 -->
<g id="edge32" class="edge"><title>Node16&#45;&gt;Node17</title>
<path fill="none" stroke="midnightblue" d="M1025.66,-118C1034.87,-118 1044.36,-118 1053.7,-118"/>
<polygon fill="midnightblue" stroke="midnightblue" points="1053.76,-121.5 1063.76,-118 1053.76,-114.5 1053.76,-121.5"/>
</g>
<!-- Node20 -->
<g id="node39" class="node"><title>Node20</title>
<a xlink:href="../../d3/dbd/class_u_b_graphics_item.html#a83e8d1b8f4bbbc024a15f645a39d6e49" target="_top" xlink:title="UBGraphicsItem::clearSource">
<polygon fill="white" stroke="black" points="880.5,-6.5 880.5,-27.5 1027.5,-27.5 1027.5,-6.5 880.5,-6.5"/>
<text text-anchor="middle" x="954" y="-14.5" font-family="Helvetica,sans-Serif" font-size="10.00">UBGraphicsItem::clearSource</text>
</a>
</g>
<!-- Node19&#45;&gt;Node20 -->
<g id="edge38" class="edge"><title>Node19&#45;&gt;Node20</title>
<path fill="none" stroke="midnightblue" d="M839.881,-17C849.687,-17 860.003,-17 870.26,-17"/>
<polygon fill="midnightblue" stroke="midnightblue" points="870.474,-20.5001 880.474,-17 870.474,-13.5001 870.474,-20.5001"/>
</g>
<!-- Node23 -->
<g id="node45" class="node"><title>Node23</title>
<a xlink:href="../../d2/da1/class_u_b_document_manager.html#a76098e4be543e87a5fc05c6d471a2670" target="_top" xlink:title="UBDocumentManager:\l:documentManager">
<polygon fill="white" stroke="black" points="363,-63 363,-97 479,-97 479,-63 363,-63"/>
<text text-anchor="start" x="371" y="-84" font-family="Helvetica,sans-Serif" font-size="10.00">UBDocumentManager:</text>
<text text-anchor="middle" x="421" y="-71" font-family="Helvetica,sans-Serif" font-size="10.00">:documentManager</text>
</a>
</g>
<!-- Node22&#45;&gt;Node23 -->
<g id="edge44" class="edge"><title>Node22&#45;&gt;Node23</title>
<path fill="none" stroke="midnightblue" d="M318.221,-80C329.747,-80 341.488,-80 352.718,-80"/>
<polygon fill="midnightblue" stroke="midnightblue" points="352.865,-83.5001 362.865,-80 352.865,-76.5001 352.865,-83.5001"/>
</g>
<!-- Node24 -->
<g id="node47" class="node"><title>Node24</title>
<a xlink:href="../../d2/da1/class_u_b_document_manager.html#af14733ff65800757f9ce8fcd8ae965b1" target="_top" xlink:title="UBDocumentManager:\l:emitDocumentUpdated">
<polygon fill="white" stroke="black" points="361,-8 361,-42 481,-42 481,-8 361,-8"/>
<text text-anchor="start" x="369" y="-29" font-family="Helvetica,sans-Serif" font-size="10.00">UBDocumentManager:</text>
<text text-anchor="middle" x="421" y="-16" font-family="Helvetica,sans-Serif" font-size="10.00">:emitDocumentUpdated</text>
</a>
</g>
<!-- Node22&#45;&gt;Node24 -->
<g id="edge46" class="edge"><title>Node22&#45;&gt;Node24</title>
<path fill="none" stroke="midnightblue" d="M282.161,-69.498C293.904,-66.6193 306.463,-63.3599 318,-60 333.023,-55.6247 349.111,-50.4154 364,-45.3703"/>
<polygon fill="midnightblue" stroke="midnightblue" points="365.26,-48.6384 373.588,-42.0891 362.994,-42.0155 365.26,-48.6384"/>
</g>
<!-- Node25 -->
<g id="node49" class="node"><title>Node25</title>
<a xlink:href="../../d2/da1/class_u_b_document_manager.html#a0e26ccb4bc2fafa07f56ad5985154fbe" target="_top" xlink:title="UBDocumentManager:\l:documentUpdated">
<polygon fill="white" stroke="black" points="544,-7 544,-41 660,-41 660,-7 544,-7"/>
<text text-anchor="start" x="552" y="-28" font-family="Helvetica,sans-Serif" font-size="10.00">UBDocumentManager:</text>
<text text-anchor="middle" x="602" y="-15" font-family="Helvetica,sans-Serif" font-size="10.00">:documentUpdated</text>
</a>
</g>
<!-- Node24&#45;&gt;Node25 -->
<g id="edge48" class="edge"><title>Node24&#45;&gt;Node25</title>
<path fill="none" stroke="midnightblue" d="M481.019,-24.6684C497.965,-24.5748 516.526,-24.4722 533.91,-24.3762"/>
<polygon fill="midnightblue" stroke="midnightblue" points="534.008,-27.8758 543.988,-24.3205 533.969,-20.8759 534.008,-27.8758"/>
</g>
</g>
</svg>
