<?xml version="1.0" encoding="UTF-8" standalone="no"?>
<!DOCTYPE svg PUBLIC "-//W3C//DTD SVG 1.1//EN"
 "http://www.w3.org/Graphics/SVG/1.1/DTD/svg11.dtd">
<!-- Generated by graphviz version 2.26.3 (20100126.1600)
 -->
<!-- Title: UBBoardController::blackout Pages: 1 -->
<svg width="836pt" height="70pt"
 viewBox="0.00 0.00 836.00 70.00" xmlns="http://www.w3.org/2000/svg" xmlns:xlink="http://www.w3.org/1999/xlink">
<g id="graph1" class="graph" transform="scale(1 1) rotate(0) translate(4 66)">
<title>UBBoardController::blackout</title>
<polygon fill="white" stroke="white" points="-4,5 -4,-66 833,-66 833,5 -4,5"/>
<!-- Node1 -->
<g id="node1" class="node"><title>Node1</title>
<polygon fill="#bfbfbf" stroke="black" points="0.5,-14 0.5,-48 101.5,-48 101.5,-14 0.5,-14"/>
<text text-anchor="start" x="8.5" y="-35" font-family="Helvetica,sans-Serif" font-size="10.00">UBBoardController:</text>
<text text-anchor="middle" x="51" y="-22" font-family="Helvetica,sans-Serif" font-size="10.00">:blackout</text>
</g>
<!-- Node2 -->
<g id="node3" class="node"><title>Node2</title>
<a xlink:href="../../da/d14/class_u_b_application_controller.html#aaafa825c25da0324cf8323307fd61ed3" target="_top" xlink:title="UBApplicationController\l::blackout">
<polygon fill="white" stroke="black" points="138.5,-14 138.5,-48 259.5,-48 259.5,-14 138.5,-14"/>
<text text-anchor="start" x="146.5" y="-35" font-family="Helvetica,sans-Serif" font-size="10.00">UBApplicationController</text>
<text text-anchor="middle" x="199" y="-22" font-family="Helvetica,sans-Serif" font-size="10.00">::blackout</text>
</a>
</g>
<!-- Node1&#45;&gt;Node2 -->
<g id="edge2" class="edge"><title>Node1&#45;&gt;Node2</title>
<path fill="none" stroke="midnightblue" d="M101.519,-31C110.159,-31 119.275,-31 128.324,-31"/>
<polygon fill="midnightblue" stroke="midnightblue" points="128.484,-34.5001 138.484,-31 128.484,-27.5001 128.484,-34.5001"/>
</g>
<!-- Node3 -->
<g id="node5" class="node"><title>Node3</title>
<a xlink:href="../../dd/d0f/class_u_b_display_manager.html#ad63e13d90aee1a779ba82c72345fbad7" target="_top" xlink:title="UBDisplayManager::blackout">
<polygon fill="white" stroke="black" points="296,-20.5 296,-41.5 440,-41.5 440,-20.5 296,-20.5"/>
<text text-anchor="middle" x="368" y="-28.5" font-family="Helvetica,sans-Serif" font-size="10.00">UBDisplayManager::blackout</text>
</a>
</g>
<!-- Node2&#45;&gt;Node3 -->
<g id="edge4" class="edge"><title>Node2&#45;&gt;Node3</title>
<path fill="none" stroke="midnightblue" d="M259.536,-31C267.977,-31 276.766,-31 285.526,-31"/>
<polygon fill="midnightblue" stroke="midnightblue" points="285.773,-34.5001 295.773,-31 285.773,-27.5001 285.773,-34.5001"/>
</g>
<!-- Node4 -->
<g id="node7" class="node"><title>Node4</title>
<a xlink:href="../../dd/d0f/class_u_b_display_manager.html#a0d39dbe11146c6e9ebbe03f14bbebd2e" target="_top" xlink:title="UBDisplayManager::unBlackout">
<polygon fill="white" stroke="black" points="479,-40.5 479,-61.5 635,-61.5 635,-40.5 479,-40.5"/>
<text text-anchor="middle" x="557" y="-48.5" font-family="Helvetica,sans-Serif" font-size="10.00">UBDisplayManager::unBlackout</text>
</a>
</g>
<!-- Node3&#45;&gt;Node4 -->
<g id="edge6" class="edge"><title>Node3&#45;&gt;Node4</title>
<path fill="none" stroke="midnightblue" d="M440.262,-38.6468C449.522,-39.6266 459.084,-40.6385 468.564,-41.6417"/>
<polygon fill="midnightblue" stroke="midnightblue" points="468.488,-45.1531 478.801,-42.725 469.225,-38.192 468.488,-45.1531"/>
</g>
<!-- Node6 -->
<g id="node11" class="node"><title>Node6</title>
<a xlink:href="../../d4/d99/class_u_b_platform_utils.html#a68a5c07988899d87cfbb9e9e1daca556" target="_top" xlink:title="UBPlatformUtils::fadeDisplayOut">
<polygon fill="white" stroke="black" points="476.5,-0.5 476.5,-21.5 637.5,-21.5 637.5,-0.5 476.5,-0.5"/>
<text text-anchor="middle" x="557" y="-8.5" font-family="Helvetica,sans-Serif" font-size="10.00">UBPlatformUtils::fadeDisplayOut</text>
</a>
</g>
<!-- Node3&#45;&gt;Node6 -->
<g id="edge10" class="edge"><title>Node3&#45;&gt;Node6</title>
<path fill="none" stroke="midnightblue" d="M440.262,-23.3532C448.726,-22.4576 457.442,-21.5353 466.117,-20.6172"/>
<polygon fill="midnightblue" stroke="midnightblue" points="466.689,-24.0764 476.265,-19.5434 465.952,-17.1152 466.689,-24.0764"/>
</g>
<!-- Node5 -->
<g id="node9" class="node"><title>Node5</title>
<a xlink:href="../../d4/d99/class_u_b_platform_utils.html#a8d5f0c37f7f7e9d0c8dd4b6592d9dddb" target="_top" xlink:title="UBPlatformUtils::fadeDisplayIn">
<polygon fill="white" stroke="black" points="674,-40.5 674,-61.5 828,-61.5 828,-40.5 674,-40.5"/>
<text text-anchor="middle" x="751" y="-48.5" font-family="Helvetica,sans-Serif" font-size="10.00">UBPlatformUtils::fadeDisplayIn</text>
</a>
</g>
<!-- Node4&#45;&gt;Node5 -->
<g id="edge8" class="edge"><title>Node4&#45;&gt;Node5</title>
<path fill="none" stroke="midnightblue" d="M635.069,-51C644.424,-51 654.025,-51 663.503,-51"/>
<polygon fill="midnightblue" stroke="midnightblue" points="663.722,-54.5001 673.722,-51 663.722,-47.5001 663.722,-54.5001"/>
</g>
</g>
</svg>
