<?xml version="1.0" encoding="UTF-8" standalone="no"?>
<!DOCTYPE svg PUBLIC "-//W3C//DTD SVG 1.1//EN"
 "http://www.w3.org/Graphics/SVG/1.1/DTD/svg11.dtd">
<!-- Generated by graphviz version 2.26.3 (20100126.1600)
 -->
<!-- Title: UBResources::buildFontList Pages: 1 -->
<!--zoomable 243 -->
<svg id="main" version="1.1" xmlns="http://www.w3.org/2000/svg" xmlns:xlink="http://www.w3.org/1999/xlink" xml:space="preserve" onload="init(evt)">
        <defs>
                <circle id="rim" cx="0" cy="0" r="7"/>
                <circle id="rim2" cx="0" cy="0" r="3.5"/>
                <g id="zoomPlus">
                        <use xlink:href="#rim" fill="#404040">
                                <set attributeName="fill" to="#808080" begin="zoomplus.mouseover" end="zoomplus.mouseout"/>
                        </use>
                        <path d="M-4,0h8M0,-4v8" fill="none" stroke="white" stroke-width="1.5" pointer-events="none"/>
                </g>
                <g id="zoomMin">
                        <use xlink:href="#rim" fill="#404040">
                                <set attributeName="fill" to="#808080" begin="zoomminus.mouseover" end="zoomminus.mouseout"/>
                        </use>
                        <path d="M-4,0h8" fill="none" stroke="white" stroke-width="1.5" pointer-events="none"/>
                </g>
                <g id="dirArrow">
                        <path fill="none" stroke="white" stroke-width="1.5" d="M0,-3.0v7 M-2.5,-0.5L0,-3.0L2.5,-0.5"/>
                </g>
               <g id="resetDef">
                       <use xlink:href="#rim2" fill="#404040">
                               <set attributeName="fill" to="#808080" begin="reset.mouseover" end="reset.mouseout"/>
                       </use>
               </g>
        </defs>

<script type="text/javascript">
var viewWidth = 1136;
var viewHeight = 243;
var sectionId = 'dynsection-2';
</script>
<script xlink:href="../../svgpan.js"/>
<svg id="graph" class="graph">
<g id="viewport">
<title>UBResources::buildFontList</title>
<polygon fill="white" stroke="white" points="-4,5 -4,-239 1133,-239 1133,5 -4,5"/>
<!-- Node1 -->
<g id="node1" class="node"><title>Node1</title>
<polygon fill="#bfbfbf" stroke="black" points="0,-58.5 0,-79.5 140,-79.5 140,-58.5 0,-58.5"/>
<text text-anchor="middle" x="70" y="-66.5" font-family="Helvetica,sans-Serif" font-size="10.00">UBResources::buildFontList</text>
</g>
<!-- Node2 -->
<g id="node3" class="node"><title>Node2</title>
<a xlink:href="../../db/d66/class_u_b_settings.html#a0d8ed418921c2b2d37851faeae00715d" target="_top" xlink:title="UBSettings::settings">
<polygon fill="white" stroke="black" points="199.5,-109.5 199.5,-130.5 306.5,-130.5 306.5,-109.5 199.5,-109.5"/>
<text text-anchor="middle" x="253" y="-117.5" font-family="Helvetica,sans-Serif" font-size="10.00">UBSettings::settings</text>
</a>
</g>
<!-- Node1&#45;&gt;Node2 -->
<g id="edge2" class="edge"><title>Node1&#45;&gt;Node2</title>
<path fill="none" stroke="midnightblue" d="M107.918,-79.5672C136.135,-87.4311 174.85,-98.2205 205.19,-106.676"/>
<polygon fill="midnightblue" stroke="midnightblue" points="204.558,-110.133 215.131,-109.446 206.438,-103.39 204.558,-110.133"/>
</g>
<!-- Node12 -->
<g id="node24" class="node"><title>Node12</title>
<a xlink:href="../../db/d66/class_u_b_settings.html#adcdef136a2f203e0ddf283196fff991a" target="_top" xlink:title="UBSettings::applicationCustom\lFontDirectory">
<polygon fill="white" stroke="black" points="176,-52 176,-86 330,-86 330,-52 176,-52"/>
<text text-anchor="start" x="184" y="-73" font-family="Helvetica,sans-Serif" font-size="10.00">UBSettings::applicationCustom</text>
<text text-anchor="middle" x="253" y="-60" font-family="Helvetica,sans-Serif" font-size="10.00">FontDirectory</text>
</a>
</g>
<!-- Node1&#45;&gt;Node12 -->
<g id="edge24" class="edge"><title>Node1&#45;&gt;Node12</title>
<path fill="none" stroke="midnightblue" d="M140.229,-69C148.633,-69 157.29,-69 165.895,-69"/>
<polygon fill="midnightblue" stroke="midnightblue" points="165.955,-72.5001 175.955,-69 165.955,-65.5001 165.955,-72.5001"/>
</g>
<!-- Node14 -->
<g id="node29" class="node"><title>Node14</title>
<a xlink:href="../../d2/d7a/class_u_b_file_system_utils.html#a0116cc080d1cb3ef854125e0088c8cf6" target="_top" xlink:title="UBFileSystemUtils:\l:allFiles">
<polygon fill="white" stroke="black" points="201,-0 201,-34 305,-34 305,-0 201,-0"/>
<text text-anchor="start" x="209" y="-21" font-family="Helvetica,sans-Serif" font-size="10.00">UBFileSystemUtils:</text>
<text text-anchor="middle" x="253" y="-8" font-family="Helvetica,sans-Serif" font-size="10.00">:allFiles</text>
</a>
</g>
<!-- Node1&#45;&gt;Node14 -->
<g id="edge30" class="edge"><title>Node1&#45;&gt;Node14</title>
<path fill="none" stroke="midnightblue" d="M107.033,-58.477C131.136,-51.6279 163.168,-42.5259 191.084,-34.5937"/>
<polygon fill="midnightblue" stroke="midnightblue" points="192.104,-37.9425 200.766,-31.8424 190.19,-31.2091 192.104,-37.9425"/>
</g>
<!-- Node3 -->
<g id="node5" class="node"><title>Node3</title>
<a xlink:href="../../db/d66/class_u_b_settings.html#ad703e9b5a7efdb68b9c6ecef0df7cce2" target="_top" xlink:title="UBSettings::UBSettings">
<polygon fill="white" stroke="black" points="395.5,-118.5 395.5,-139.5 518.5,-139.5 518.5,-118.5 395.5,-118.5"/>
<text text-anchor="middle" x="457" y="-126.5" font-family="Helvetica,sans-Serif" font-size="10.00">UBSettings::UBSettings</text>
</a>
</g>
<!-- Node2&#45;&gt;Node3 -->
<g id="edge4" class="edge"><title>Node2&#45;&gt;Node3</title>
<path fill="none" stroke="midnightblue" d="M306.599,-122.365C330.673,-123.427 359.429,-124.695 385.319,-125.838"/>
<polygon fill="midnightblue" stroke="midnightblue" points="385.316,-129.341 395.46,-126.285 385.624,-122.348 385.316,-129.341"/>
</g>
<!-- Node4 -->
<g id="node7" class="node"><title>Node4</title>
<a xlink:href="../../db/d66/class_u_b_settings.html#afd0d739b2cfac7e2d05be7415f6692df" target="_top" xlink:title="UBSettings::InitKeyboard\lPaletteKeyBtnSizes">
<polygon fill="white" stroke="black" points="596,-115 596,-149 724,-149 724,-115 596,-115"/>
<text text-anchor="start" x="604" y="-136" font-family="Helvetica,sans-Serif" font-size="10.00">UBSettings::InitKeyboard</text>
<text text-anchor="middle" x="660" y="-123" font-family="Helvetica,sans-Serif" font-size="10.00">PaletteKeyBtnSizes</text>
</a>
</g>
<!-- Node3&#45;&gt;Node4 -->
<g id="edge6" class="edge"><title>Node3&#45;&gt;Node4</title>
<path fill="none" stroke="midnightblue" d="M518.734,-129.912C539.78,-130.223 563.536,-130.574 585.478,-130.899"/>
<polygon fill="midnightblue" stroke="midnightblue" points="585.698,-134.402 595.748,-131.05 585.801,-127.403 585.698,-134.402"/>
</g>
<!-- Node5 -->
<g id="node9" class="node"><title>Node5</title>
<a xlink:href="../../db/d66/class_u_b_settings.html#a2d3413f8b25d64a698d6d83e0f18ff39" target="_top" xlink:title="UBSettings::getAppSettings">
<polygon fill="white" stroke="black" points="774,-77.5 774,-98.5 914,-98.5 914,-77.5 774,-77.5"/>
<text text-anchor="middle" x="844" y="-85.5" font-family="Helvetica,sans-Serif" font-size="10.00">UBSettings::getAppSettings</text>
</a>
</g>
<!-- Node3&#45;&gt;Node5 -->
<g id="edge8" class="edge"><title>Node3&#45;&gt;Node5</title>
<path fill="none" stroke="midnightblue" d="M507.785,-118.481C530.941,-114.027 558.763,-109.149 584,-106 643.982,-98.5153 712.166,-93.9405 763.657,-91.2768"/>
<polygon fill="midnightblue" stroke="midnightblue" points="763.914,-94.7684 773.725,-90.7693 763.561,-87.7773 763.914,-94.7684"/>
</g>
<!-- Node7 -->
<g id="node13" class="node"><title>Node7</title>
<a xlink:href="../../db/d66/class_u_b_settings.html#af38d2ad231149df734ca7b5486356500" target="_top" xlink:title="UBSettings::userDataDirectory">
<polygon fill="white" stroke="black" points="584,-167.5 584,-188.5 736,-188.5 736,-167.5 584,-167.5"/>
<text text-anchor="middle" x="660" y="-175.5" font-family="Helvetica,sans-Serif" font-size="10.00">UBSettings::userDataDirectory</text>
</a>
</g>
<!-- Node3&#45;&gt;Node7 -->
<g id="edge12" class="edge"><title>Node3&#45;&gt;Node7</title>
<path fill="none" stroke="midnightblue" d="M500.549,-139.512C531.483,-146.979 573.218,-157.053 606.23,-165.021"/>
<polygon fill="midnightblue" stroke="midnightblue" points="605.632,-168.477 616.174,-167.421 607.274,-161.672 605.632,-168.477"/>
</g>
<!-- Node6 -->
<g id="node11" class="node"><title>Node6</title>
<a xlink:href="../../d4/d99/class_u_b_platform_utils.html#ae595b29e794b20564550fd45515fc0a8" target="_top" xlink:title="UBPlatformUtils::application\lResourcesDirectory">
<polygon fill="white" stroke="black" points="970,-50 970,-84 1110,-84 1110,-50 970,-50"/>
<text text-anchor="start" x="978" y="-71" font-family="Helvetica,sans-Serif" font-size="10.00">UBPlatformUtils::application</text>
<text text-anchor="middle" x="1040" y="-58" font-family="Helvetica,sans-Serif" font-size="10.00">ResourcesDirectory</text>
</a>
</g>
<!-- Node5&#45;&gt;Node6 -->
<g id="edge10" class="edge"><title>Node5&#45;&gt;Node6</title>
<path fill="none" stroke="midnightblue" d="M914.207,-80.4778C928.933,-78.9001 944.572,-77.2245 959.635,-75.6105"/>
<polygon fill="midnightblue" stroke="midnightblue" points="960.384,-79.0504 969.954,-74.5049 959.638,-72.0903 960.384,-79.0504"/>
</g>
<!-- Node7&#45;&gt;Node5 -->
<g id="edge14" class="edge"><title>Node7&#45;&gt;Node5</title>
<path fill="none" stroke="midnightblue" d="M716.971,-167.424C723.675,-164.92 730.187,-161.825 736,-158 757.686,-143.729 750.784,-126.963 772,-112 777.229,-108.312 783.065,-105.16 789.09,-102.473"/>
<polygon fill="midnightblue" stroke="midnightblue" points="790.683,-105.604 798.652,-98.6223 788.069,-99.1107 790.683,-105.604"/>
</g>
<!-- Node8 -->
<g id="node16" class="node"><title>Node8</title>
<a xlink:href="../../db/d66/class_u_b_settings.html#aea5fec9db96c03162c2ce1d5d4c41ab0" target="_top" xlink:title="UBSettings::replaceWildcard">
<polygon fill="white" stroke="black" points="772.5,-121.5 772.5,-142.5 915.5,-142.5 915.5,-121.5 772.5,-121.5"/>
<text text-anchor="middle" x="844" y="-129.5" font-family="Helvetica,sans-Serif" font-size="10.00">UBSettings::replaceWildcard</text>
</a>
</g>
<!-- Node7&#45;&gt;Node8 -->
<g id="edge16" class="edge"><title>Node7&#45;&gt;Node8</title>
<path fill="none" stroke="midnightblue" d="M702.213,-167.447C728.978,-160.756 763.787,-152.053 792.217,-144.946"/>
<polygon fill="midnightblue" stroke="midnightblue" points="793.131,-148.325 801.983,-142.504 791.433,-141.534 793.131,-148.325"/>
</g>
<!-- Node10 -->
<g id="node20" class="node"><title>Node10</title>
<a xlink:href="../../db/d66/class_u_b_settings.html#ac0b3c85870c353e48b7d2cfdff9e0eaa" target="_top" xlink:title="UBSettings::checkDirectory">
<polygon fill="white" stroke="black" points="774.5,-213.5 774.5,-234.5 913.5,-234.5 913.5,-213.5 774.5,-213.5"/>
<text text-anchor="middle" x="844" y="-221.5" font-family="Helvetica,sans-Serif" font-size="10.00">UBSettings::checkDirectory</text>
</a>
</g>
<!-- Node7&#45;&gt;Node10 -->
<g id="edge20" class="edge"><title>Node7&#45;&gt;Node10</title>
<path fill="none" stroke="midnightblue" d="M702.213,-188.553C728.978,-195.244 763.787,-203.947 792.217,-211.054"/>
<polygon fill="midnightblue" stroke="midnightblue" points="791.433,-214.466 801.983,-213.496 793.131,-207.675 791.433,-214.466"/>
</g>
<!-- Node11 -->
<g id="node22" class="node"><title>Node11</title>
<a xlink:href="../../d2/d7a/class_u_b_file_system_utils.html#af850f64fdd630fc78510c856f00ffa4f" target="_top" xlink:title="UBFileSystemUtils:\l:normalizeFilePath">
<polygon fill="white" stroke="black" points="792,-161 792,-195 896,-195 896,-161 792,-161"/>
<text text-anchor="start" x="800" y="-182" font-family="Helvetica,sans-Serif" font-size="10.00">UBFileSystemUtils:</text>
<text text-anchor="middle" x="844" y="-169" font-family="Helvetica,sans-Serif" font-size="10.00">:normalizeFilePath</text>
</a>
</g>
<!-- Node7&#45;&gt;Node11 -->
<g id="edge22" class="edge"><title>Node7&#45;&gt;Node11</title>
<path fill="none" stroke="midnightblue" d="M736.168,-178C751.284,-178 766.987,-178 781.58,-178"/>
<polygon fill="midnightblue" stroke="midnightblue" points="781.985,-181.5 791.985,-178 781.985,-174.5 781.985,-181.5"/>
</g>
<!-- Node9 -->
<g id="node18" class="node"><title>Node9</title>
<a xlink:href="../../d4/d99/class_u_b_platform_utils.html#a4ff6063df12b6d4d0c60c1a17b434599" target="_top" xlink:title="UBPlatformUtils::osUserLoginName">
<polygon fill="white" stroke="black" points="952.5,-121.5 952.5,-142.5 1127.5,-142.5 1127.5,-121.5 952.5,-121.5"/>
<text text-anchor="middle" x="1040" y="-129.5" font-family="Helvetica,sans-Serif" font-size="10.00">UBPlatformUtils::osUserLoginName</text>
</a>
</g>
<!-- Node8&#45;&gt;Node9 -->
<g id="edge18" class="edge"><title>Node8&#45;&gt;Node9</title>
<path fill="none" stroke="midnightblue" d="M915.592,-132C924.253,-132 933.211,-132 942.167,-132"/>
<polygon fill="midnightblue" stroke="midnightblue" points="942.261,-135.5 952.261,-132 942.261,-128.5 942.261,-135.5"/>
</g>
<!-- Node13 -->
<g id="node26" class="node"><title>Node13</title>
<a xlink:href="../../db/d66/class_u_b_settings.html#a7fe813cc5c24f87615cdeb7a33c2b890" target="_top" xlink:title="UBSettings::applicationCustomization\lDirectory">
<polygon fill="white" stroke="black" points="366,-50 366,-84 548,-84 548,-50 366,-50"/>
<text text-anchor="start" x="374" y="-71" font-family="Helvetica,sans-Serif" font-size="10.00">UBSettings::applicationCustomization</text>
<text text-anchor="middle" x="457" y="-58" font-family="Helvetica,sans-Serif" font-size="10.00">Directory</text>
</a>
</g>
<!-- Node12&#45;&gt;Node13 -->
<g id="edge26" class="edge"><title>Node12&#45;&gt;Node13</title>
<path fill="none" stroke="midnightblue" d="M330.124,-68.2439C338.477,-68.162 347.067,-68.0778 355.651,-67.9936"/>
<polygon fill="midnightblue" stroke="midnightblue" points="355.745,-71.493 365.71,-67.895 355.676,-64.4933 355.745,-71.493"/>
</g>
<!-- Node13&#45;&gt;Node6 -->
<g id="edge28" class="edge"><title>Node13&#45;&gt;Node6</title>
<path fill="none" stroke="midnightblue" d="M548.094,-67C661.022,-67 851.727,-67 959.51,-67"/>
<polygon fill="midnightblue" stroke="midnightblue" points="959.677,-70.5001 969.677,-67 959.677,-63.5001 959.677,-70.5001"/>
</g>
</g>
</svg>
        <g id="navigator" transform="translate(0 0)" fill="#404254">
                <rect fill="#f2f5e9" fill-opacity="0.5" stroke="#606060" stroke-width=".5" x="0" y="0" width="60" height="60"/>
                <use id="zoomplus" xlink:href="#zoomPlus" x="17" y="9" onmousedown="handleZoom(evt,'in')"/>
                <use id="zoomminus" xlink:href="#zoomMin" x="42" y="9" onmousedown="handleZoom(evt,'out')"/>
                <use id="reset" xlink:href="#resetDef" x="30" y="36" onmousedown="handleReset()"/>
                <g id="arrowUp" xlink:href="#dirArrow" transform="translate(30 24)" onmousedown="handlePan(0,-1)">
                  <use xlink:href="#rim" fill="#404040">
                        <set attributeName="fill" to="#808080" begin="arrowUp.mouseover" end="arrowUp.mouseout"/>
                  </use>
                  <path fill="none" stroke="white" stroke-width="1.5" d="M0,-3.0v7 M-2.5,-0.5L0,-3.0L2.5,-0.5"/>
                </g>
                <g id="arrowRight" xlink:href="#dirArrow" transform="rotate(90) translate(36 -43)" onmousedown="handlePan(1,0)">
                  <use xlink:href="#rim" fill="#404040">
                        <set attributeName="fill" to="#808080" begin="arrowRight.mouseover" end="arrowRight.mouseout"/>
                  </use>
                  <path fill="none" stroke="white" stroke-width="1.5" d="M0,-3.0v7 M-2.5,-0.5L0,-3.0L2.5,-0.5"/>
                </g>
                <g id="arrowDown" xlink:href="#dirArrow" transform="rotate(180) translate(-30 -48)" onmousedown="handlePan(0,1)">
                  <use xlink:href="#rim" fill="#404040">
                        <set attributeName="fill" to="#808080" begin="arrowDown.mouseover" end="arrowDown.mouseout"/>
                  </use>
                  <path fill="none" stroke="white" stroke-width="1.5" d="M0,-3.0v7 M-2.5,-0.5L0,-3.0L2.5,-0.5"/>
                </g>
                <g id="arrowLeft" xlink:href="#dirArrow" transform="rotate(270) translate(-36 17)" onmousedown="handlePan(-1,0)">
                  <use xlink:href="#rim" fill="#404040">
                        <set attributeName="fill" to="#808080" begin="arrowLeft.mouseover" end="arrowLeft.mouseout"/>
                  </use>
                  <path fill="none" stroke="white" stroke-width="1.5" d="M0,-3.0v7 M-2.5,-0.5L0,-3.0L2.5,-0.5"/>
                </g>
        </g>
        <svg viewBox="0 0 15 15" width="100%" height="30px" preserveAspectRatio="xMaxYMin meet">
         <g id="arrow_out" transform="scale(0.3 0.3)">
          <a xlink:href="class_u_b_resources_a0ca38a6493402486f68bf3cb3dbc9003_cgraph_org.svg" target="_base">
           <rect id="button" ry="5" rx="5" y="6" x="6" height="38" width="38"
                fill="#f2f5e9" fill-opacity="0.5" stroke="#606060" stroke-width="1.0"/>
           <path id="arrow"
             d="M 11.500037,31.436501 C 11.940474,20.09759 22.043105,11.32322 32.158766,21.979434 L 37.068811,17.246167 C 37.068811,17.246167 37.088388,32 37.088388,32 L 22.160133,31.978069 C 22.160133,31.978069 26.997745,27.140456 26.997745,27.140456 C 18.528582,18.264221 13.291696,25.230495 11.500037,31.436501 z"
             style="fill:#404040;"/>
          </a>
         </g>
        </svg>
</svg>
