<?xml version="1.0" encoding="UTF-8" standalone="no"?>
<!DOCTYPE svg PUBLIC "-//W3C//DTD SVG 1.1//EN"
 "http://www.w3.org/Graphics/SVG/1.1/DTD/svg11.dtd">
<!-- Generated by graphviz version 2.26.3 (20100126.1600)
 -->
<!-- Title: UBResources::resources Pages: 1 -->
<!--zoomable 1009 -->
<svg id="main" version="1.1" xmlns="http://www.w3.org/2000/svg" xmlns:xlink="http://www.w3.org/1999/xlink" xml:space="preserve" onload="init(evt)">
        <defs>
                <circle id="rim" cx="0" cy="0" r="7"/>
                <circle id="rim2" cx="0" cy="0" r="3.5"/>
                <g id="zoomPlus">
                        <use xlink:href="#rim" fill="#404040">
                                <set attributeName="fill" to="#808080" begin="zoomplus.mouseover" end="zoomplus.mouseout"/>
                        </use>
                        <path d="M-4,0h8M0,-4v8" fill="none" stroke="white" stroke-width="1.5" pointer-events="none"/>
                </g>
                <g id="zoomMin">
                        <use xlink:href="#rim" fill="#404040">
                                <set attributeName="fill" to="#808080" begin="zoomminus.mouseover" end="zoomminus.mouseout"/>
                        </use>
                        <path d="M-4,0h8" fill="none" stroke="white" stroke-width="1.5" pointer-events="none"/>
                </g>
                <g id="dirArrow">
                        <path fill="none" stroke="white" stroke-width="1.5" d="M0,-3.0v7 M-2.5,-0.5L0,-3.0L2.5,-0.5"/>
                </g>
               <g id="resetDef">
                       <use xlink:href="#rim2" fill="#404040">
                               <set attributeName="fill" to="#808080" begin="reset.mouseover" end="reset.mouseout"/>
                       </use>
               </g>
        </defs>

<script type="text/javascript">
var viewWidth = 1286;
var viewHeight = 1009;
var sectionId = 'dynsection-7';
</script>
<script xlink:href="../../svgpan.js"/>
<svg id="graph" class="graph">
<g id="viewport">
<title>UBResources::resources</title>
<polygon fill="white" stroke="white" points="-4,5 -4,-1004.88 1283,-1004.88 1283,5 -4,5"/>
<!-- Node1 -->
<g id="node1" class="node"><title>Node1</title>
<polygon fill="#bfbfbf" stroke="black" points="0.5,-370.5 0.5,-391.5 127.5,-391.5 127.5,-370.5 0.5,-370.5"/>
<text text-anchor="middle" x="64" y="-378.5" font-family="Helvetica,sans-Serif" font-size="10.00">UBResources::resources</text>
</g>
<!-- Node2 -->
<g id="node3" class="node"><title>Node2</title>
<a xlink:href="../../d1/d78/class_u_b_board_view.html#a2c6d79af6b95057a648ca9235dea89ac" target="_top" xlink:title="UBBoardView::setToolCursor">
<polygon fill="white" stroke="black" points="165,-540.5 165,-561.5 311,-561.5 311,-540.5 165,-540.5"/>
<text text-anchor="middle" x="238" y="-548.5" font-family="Helvetica,sans-Serif" font-size="10.00">UBBoardView::setToolCursor</text>
</a>
</g>
<!-- Node1&#45;&gt;Node2 -->
<g id="edge2" class="edge"><title>Node1&#45;&gt;Node2</title>
<path fill="none" stroke="midnightblue" d="M77.4131,-399.629C95.4827,-424.021 129.389,-467.387 164,-499 181.738,-515.202 204.706,-530.612 220.317,-540.389"/>
<polygon fill="midnightblue" stroke="midnightblue" points="80.2336,-397.556 71.5004,-391.558 74.5867,-401.693 80.2336,-397.556"/>
</g>
<!-- Node21 -->
<g id="node57" class="node"><title>Node21</title>
<a xlink:href="../../d8/d81/class_u_b_application.html#aa24444ac89dc690b6b339635275d87c8" target="_top" xlink:title="UBApplication::UBApplication">
<polygon fill="white" stroke="black" points="164.5,-468.5 164.5,-489.5 311.5,-489.5 311.5,-468.5 164.5,-468.5"/>
<text text-anchor="middle" x="238" y="-476.5" font-family="Helvetica,sans-Serif" font-size="10.00">UBApplication::UBApplication</text>
</a>
</g>
<!-- Node1&#45;&gt;Node21 -->
<g id="edge72" class="edge"><title>Node1&#45;&gt;Node21</title>
<path fill="none" stroke="midnightblue" d="M81.9906,-398.709C100.91,-416.394 132.287,-443.161 164,-459 171.501,-462.746 179.791,-465.86 188.029,-468.425"/>
<polygon fill="midnightblue" stroke="midnightblue" points="84.3345,-396.108 74.6801,-391.744 79.506,-401.176 84.3345,-396.108"/>
</g>
<!-- Node22 -->
<g id="node59" class="node"><title>Node22</title>
<a xlink:href="../../d5/ded/class_u_b_graphics_delegate_frame.html#a1fe045788e162a9a91ff51296caa307b" target="_top" xlink:title="UBGraphicsDelegateFrame\l::UBGraphicsDelegateFrame">
<polygon fill="white" stroke="black" points="166.5,-416 166.5,-450 309.5,-450 309.5,-416 166.5,-416"/>
<text text-anchor="start" x="174.5" y="-437" font-family="Helvetica,sans-Serif" font-size="10.00">UBGraphicsDelegateFrame</text>
<text text-anchor="middle" x="238" y="-424" font-family="Helvetica,sans-Serif" font-size="10.00">::UBGraphicsDelegateFrame</text>
</a>
</g>
<!-- Node1&#45;&gt;Node22 -->
<g id="edge74" class="edge"><title>Node1&#45;&gt;Node22</title>
<path fill="none" stroke="midnightblue" d="M108.938,-394.43C130.889,-400.99 157.545,-408.956 180.92,-415.942"/>
<polygon fill="midnightblue" stroke="midnightblue" points="109.795,-391.033 99.2115,-391.523 107.791,-397.74 109.795,-391.033"/>
</g>
<!-- Node23 -->
<g id="node61" class="node"><title>Node23</title>
<a xlink:href="../../d9/dbd/class_u_b_graphics_text_item_delegate.html#ace94fb205d9e2e71e843fb4da43b1286" target="_top" xlink:title="UBGraphicsTextItemDelegate\l::customize">
<polygon fill="white" stroke="black" points="164,-364 164,-398 312,-398 312,-364 164,-364"/>
<text text-anchor="start" x="172" y="-385" font-family="Helvetica,sans-Serif" font-size="10.00">UBGraphicsTextItemDelegate</text>
<text text-anchor="middle" x="238" y="-372" font-family="Helvetica,sans-Serif" font-size="10.00">::customize</text>
</a>
</g>
<!-- Node1&#45;&gt;Node23 -->
<g id="edge76" class="edge"><title>Node1&#45;&gt;Node23</title>
<path fill="none" stroke="midnightblue" d="M137.829,-381C146.456,-381 155.26,-381 163.891,-381"/>
<polygon fill="midnightblue" stroke="midnightblue" points="137.803,-377.5 127.803,-381 137.803,-384.5 137.803,-377.5"/>
</g>
<!-- Node26 -->
<g id="node67" class="node"><title>Node26</title>
<a xlink:href="../../d0/de1/class_u_b_abstract_draw_ruler.html#a9ccae35c7d0e3b26f817ed62097ce75f" target="_top" xlink:title="UBAbstractDrawRuler\l::rotateCursor">
<polygon fill="white" stroke="black" points="181,-260 181,-294 295,-294 295,-260 181,-260"/>
<text text-anchor="start" x="189" y="-281" font-family="Helvetica,sans-Serif" font-size="10.00">UBAbstractDrawRuler</text>
<text text-anchor="middle" x="238" y="-268" font-family="Helvetica,sans-Serif" font-size="10.00">::rotateCursor</text>
</a>
</g>
<!-- Node1&#45;&gt;Node26 -->
<g id="edge82" class="edge"><title>Node1&#45;&gt;Node26</title>
<path fill="none" stroke="midnightblue" d="M82.5542,-363.488C101.704,-346.18 133.062,-319.907 164,-303 169.975,-299.735 176.438,-296.753 182.972,-294.069"/>
<polygon fill="midnightblue" stroke="midnightblue" points="80.1305,-360.962 75.1317,-370.303 84.8648,-366.118 80.1305,-360.962"/>
</g>
<!-- Node33 -->
<g id="node81" class="node"><title>Node33</title>
<a xlink:href="../../d0/de1/class_u_b_abstract_draw_ruler.html#add025983828cc0c47fb21046397a0f7c" target="_top" xlink:title="UBAbstractDrawRuler\l::drawRulerLineCursor">
<polygon fill="white" stroke="black" points="181,-312 181,-346 295,-346 295,-312 181,-312"/>
<text text-anchor="start" x="189" y="-333" font-family="Helvetica,sans-Serif" font-size="10.00">UBAbstractDrawRuler</text>
<text text-anchor="middle" x="238" y="-320" font-family="Helvetica,sans-Serif" font-size="10.00">::drawRulerLineCursor</text>
</a>
</g>
<!-- Node1&#45;&gt;Node33 -->
<g id="edge96" class="edge"><title>Node1&#45;&gt;Node33</title>
<path fill="none" stroke="midnightblue" d="M108.938,-367.57C130.889,-361.01 157.545,-353.044 180.92,-346.058"/>
<polygon fill="midnightblue" stroke="midnightblue" points="107.791,-364.26 99.2115,-370.477 109.795,-370.967 107.791,-364.26"/>
</g>
<!-- Node34 -->
<g id="node86" class="node"><title>Node34</title>
<a xlink:href="../../d6/d56/class_u_b_graphics_compass.html#a0ebb4fb01f3fcabad833c1e1b9483cd4" target="_top" xlink:title="UBGraphicsCompass:\l:rotateCursor">
<polygon fill="white" stroke="black" points="180.5,-52 180.5,-86 295.5,-86 295.5,-52 180.5,-52"/>
<text text-anchor="start" x="188.5" y="-73" font-family="Helvetica,sans-Serif" font-size="10.00">UBGraphicsCompass:</text>
<text text-anchor="middle" x="238" y="-60" font-family="Helvetica,sans-Serif" font-size="10.00">:rotateCursor</text>
</a>
</g>
<!-- Node1&#45;&gt;Node34 -->
<g id="edge104" class="edge"><title>Node1&#45;&gt;Node34</title>
<path fill="none" stroke="midnightblue" d="M75.0546,-361.178C106.909,-304.06 198.52,-139.791 228.429,-86.1613"/>
<polygon fill="midnightblue" stroke="midnightblue" points="71.8034,-359.822 69.9895,-370.26 77.917,-363.231 71.8034,-359.822"/>
</g>
<!-- Node3 -->
<g id="node5" class="node"><title>Node3</title>
<a xlink:href="../../d7/d62/class_u_b_board_controller.html#ad363554dfb70642a295c4b002f396ec5" target="_top" xlink:title="UBBoardController:\l:setToolCursor">
<polygon fill="white" stroke="black" points="375.5,-477 375.5,-511 476.5,-511 476.5,-477 375.5,-477"/>
<text text-anchor="start" x="383.5" y="-498" font-family="Helvetica,sans-Serif" font-size="10.00">UBBoardController:</text>
<text text-anchor="middle" x="426" y="-485" font-family="Helvetica,sans-Serif" font-size="10.00">:setToolCursor</text>
</a>
</g>
<!-- Node2&#45;&gt;Node3 -->
<g id="edge4" class="edge"><title>Node2&#45;&gt;Node3</title>
<path fill="none" stroke="midnightblue" d="M282.781,-537.423C310.605,-528.987 346.442,-518.121 375.307,-509.37"/>
<polygon fill="midnightblue" stroke="midnightblue" points="281.475,-534.161 272.921,-540.412 283.506,-540.86 281.475,-534.161"/>
</g>
<!-- Node7 -->
<g id="node13" class="node"><title>Node7</title>
<a xlink:href="../../d1/d78/class_u_b_board_view.html#ad5109e5f034af7b194f4dc6606fe16e6" target="_top" xlink:title="UBBoardView::tabletEvent">
<polygon fill="white" stroke="black" points="359,-638.5 359,-659.5 493,-659.5 493,-638.5 359,-638.5"/>
<text text-anchor="middle" x="426" y="-646.5" font-family="Helvetica,sans-Serif" font-size="10.00">UBBoardView::tabletEvent</text>
</a>
</g>
<!-- Node2&#45;&gt;Node7 -->
<g id="edge12" class="edge"><title>Node2&#45;&gt;Node7</title>
<path fill="none" stroke="midnightblue" d="M257.792,-568.469C278.801,-586.149 313.648,-613.083 348,-629 356.118,-632.761 365.052,-635.892 373.887,-638.472"/>
<polygon fill="midnightblue" stroke="midnightblue" points="259.807,-565.587 249.934,-561.742 255.254,-570.904 259.807,-565.587"/>
</g>
<!-- Node8 -->
<g id="node15" class="node"><title>Node8</title>
<a xlink:href="../../d1/d78/class_u_b_board_view.html#acc4206bbb27829580a337c81708be4a3" target="_top" xlink:title="UBBoardView::mouseRelease\lEvent">
<polygon fill="white" stroke="black" points="351.5,-586 351.5,-620 500.5,-620 500.5,-586 351.5,-586"/>
<text text-anchor="start" x="359.5" y="-607" font-family="Helvetica,sans-Serif" font-size="10.00">UBBoardView::mouseRelease</text>
<text text-anchor="middle" x="426" y="-594" font-family="Helvetica,sans-Serif" font-size="10.00">Event</text>
</a>
</g>
<!-- Node2&#45;&gt;Node8 -->
<g id="edge14" class="edge"><title>Node2&#45;&gt;Node8</title>
<path fill="none" stroke="midnightblue" d="M285.913,-564.253C309.752,-570.846 338.845,-578.893 364.328,-585.942"/>
<polygon fill="midnightblue" stroke="midnightblue" points="286.616,-560.816 276.045,-561.523 284.75,-567.562 286.616,-560.816"/>
</g>
<!-- Node9 -->
<g id="node17" class="node"><title>Node9</title>
<a xlink:href="../../d7/db7/class_u_b_desktop_annotation_controller.html#a57367fb83b3b3a36fd0b3409ff6aeb47" target="_top" xlink:title="UBDesktopAnnotationController\l::switchCursor">
<polygon fill="white" stroke="black" points="348,-534 348,-568 504,-568 504,-534 348,-534"/>
<text text-anchor="start" x="356" y="-555" font-family="Helvetica,sans-Serif" font-size="10.00">UBDesktopAnnotationController</text>
<text text-anchor="middle" x="426" y="-542" font-family="Helvetica,sans-Serif" font-size="10.00">::switchCursor</text>
</a>
</g>
<!-- Node2&#45;&gt;Node9 -->
<g id="edge16" class="edge"><title>Node2&#45;&gt;Node9</title>
<path fill="none" stroke="midnightblue" d="M321.409,-551C330.148,-551 339.012,-551 347.692,-551"/>
<polygon fill="midnightblue" stroke="midnightblue" points="321.224,-547.5 311.224,-551 321.224,-554.5 321.224,-547.5"/>
</g>
<!-- Node4 -->
<g id="node7" class="node"><title>Node4</title>
<a xlink:href="../../d7/d62/class_u_b_board_controller.html#aa728cb7c1b979b2d4ae45638a7386dde" target="_top" xlink:title="UBBoardController::init">
<polygon fill="white" stroke="black" points="559.5,-463.5 559.5,-484.5 676.5,-484.5 676.5,-463.5 559.5,-463.5"/>
<text text-anchor="middle" x="618" y="-471.5" font-family="Helvetica,sans-Serif" font-size="10.00">UBBoardController::init</text>
</a>
</g>
<!-- Node3&#45;&gt;Node4 -->
<g id="edge6" class="edge"><title>Node3&#45;&gt;Node4</title>
<path fill="none" stroke="midnightblue" d="M486.744,-487.673C509.893,-485.261 536.218,-482.519 559.185,-480.127"/>
<polygon fill="midnightblue" stroke="midnightblue" points="486.28,-484.202 476.697,-488.719 487.006,-491.164 486.28,-484.202"/>
</g>
<!-- Node5 -->
<g id="node9" class="node"><title>Node5</title>
<a xlink:href="../../d8/d81/class_u_b_application.html#add1469239e71bf24fdc61413a42a38bd" target="_top" xlink:title="UBApplication::exec">
<polygon fill="white" stroke="black" points="757,-423.5 757,-444.5 863,-444.5 863,-423.5 757,-423.5"/>
<text text-anchor="middle" x="810" y="-431.5" font-family="Helvetica,sans-Serif" font-size="10.00">UBApplication::exec</text>
</a>
</g>
<!-- Node4&#45;&gt;Node5 -->
<g id="edge8" class="edge"><title>Node4&#45;&gt;Node5</title>
<path fill="none" stroke="midnightblue" d="M678.24,-461.45C704.374,-456.005 734.633,-449.701 759.558,-444.509"/>
<polygon fill="midnightblue" stroke="midnightblue" points="677.522,-458.024 668.446,-463.49 678.949,-464.877 677.522,-458.024"/>
</g>
<!-- Node6 -->
<g id="node11" class="node"><title>Node6</title>
<a xlink:href="../../df/d0a/main_8cpp.html#a0ddf1224851353fc92bfbff6f499fa97" target="_top" xlink:title="main">
<polygon fill="white" stroke="black" points="983,-423.5 983,-444.5 1021,-444.5 1021,-423.5 983,-423.5"/>
<text text-anchor="middle" x="1002" y="-431.5" font-family="Helvetica,sans-Serif" font-size="10.00">main</text>
</a>
</g>
<!-- Node5&#45;&gt;Node6 -->
<g id="edge10" class="edge"><title>Node5&#45;&gt;Node6</title>
<path fill="none" stroke="midnightblue" d="M873.233,-434C911.329,-434 957.247,-434 982.672,-434"/>
<polygon fill="midnightblue" stroke="midnightblue" points="873.228,-430.5 863.228,-434 873.228,-437.5 873.228,-430.5"/>
</g>
<!-- Node10 -->
<g id="node19" class="node"><title>Node10</title>
<a xlink:href="../../d7/db7/class_u_b_desktop_annotation_controller.html#a78847388ff93c2a4ce4bf5b752a2f3d8" target="_top" xlink:title="Handles the pen action released event.">
<polygon fill="white" stroke="black" points="540,-733 540,-767 696,-767 696,-733 540,-733"/>
<text text-anchor="start" x="548" y="-754" font-family="Helvetica,sans-Serif" font-size="10.00">UBDesktopAnnotationController</text>
<text text-anchor="middle" x="618" y="-741" font-family="Helvetica,sans-Serif" font-size="10.00">::penActionReleased</text>
</a>
</g>
<!-- Node9&#45;&gt;Node10 -->
<g id="edge18" class="edge"><title>Node9&#45;&gt;Node10</title>
<path fill="none" stroke="midnightblue" d="M499.239,-573.396C500.882,-574.539 502.473,-575.739 504,-577 529.168,-597.776 522.478,-613.467 540,-641 561.239,-674.373 588.666,-711.49 604.697,-732.661"/>
<polygon fill="midnightblue" stroke="midnightblue" points="500.999,-570.37 490.641,-568.146 497.352,-576.344 500.999,-570.37"/>
</g>
<!-- Node15 -->
<g id="node33" class="node"><title>Node15</title>
<a xlink:href="../../d7/db7/class_u_b_desktop_annotation_controller.html#add19da4429f54d91ba590e46b2420127" target="_top" xlink:title="Handles the eraser action released event.">
<polygon fill="white" stroke="black" points="540,-899 540,-933 696,-933 696,-899 540,-899"/>
<text text-anchor="start" x="548" y="-920" font-family="Helvetica,sans-Serif" font-size="10.00">UBDesktopAnnotationController</text>
<text text-anchor="middle" x="618" y="-907" font-family="Helvetica,sans-Serif" font-size="10.00">::eraserActionReleased</text>
</a>
</g>
<!-- Node9&#45;&gt;Node15 -->
<g id="edge36" class="edge"><title>Node9&#45;&gt;Node15</title>
<path fill="none" stroke="midnightblue" d="M502.036,-574.866C502.711,-575.557 503.366,-576.268 504,-577 562.86,-644.926 509.718,-691.375 540,-776 556.873,-823.154 588.581,-873.211 605.92,-898.777"/>
<polygon fill="midnightblue" stroke="midnightblue" points="504.031,-571.97 494.13,-568.199 499.518,-577.321 504.031,-571.97"/>
</g>
<!-- Node17 -->
<g id="node42" class="node"><title>Node17</title>
<a xlink:href="../../d7/db7/class_u_b_desktop_annotation_controller.html#a43a07209900734c79a2d2a014ae0fa84" target="_top" xlink:title="Handles the marker action released event.">
<polygon fill="white" stroke="black" points="540,-598 540,-632 696,-632 696,-598 540,-598"/>
<text text-anchor="start" x="548" y="-619" font-family="Helvetica,sans-Serif" font-size="10.00">UBDesktopAnnotationController</text>
<text text-anchor="middle" x="618" y="-606" font-family="Helvetica,sans-Serif" font-size="10.00">::markerActionReleased</text>
</a>
</g>
<!-- Node9&#45;&gt;Node17 -->
<g id="edge50" class="edge"><title>Node9&#45;&gt;Node17</title>
<path fill="none" stroke="midnightblue" d="M486.868,-571.289C512.642,-579.881 542.336,-589.779 566.942,-597.981"/>
<polygon fill="midnightblue" stroke="midnightblue" points="487.794,-567.909 477.2,-568.067 485.58,-574.549 487.794,-567.909"/>
</g>
<!-- Node19 -->
<g id="node51" class="node"><title>Node19</title>
<a xlink:href="../../d7/db7/class_u_b_desktop_annotation_controller.html#a2056eafd75265e07cf2652ae82ce1c0a" target="_top" xlink:title="UBDesktopAnnotationController\l::selectorActionReleased">
<polygon fill="white" stroke="black" points="732,-515 732,-549 888,-549 888,-515 732,-515"/>
<text text-anchor="start" x="740" y="-536" font-family="Helvetica,sans-Serif" font-size="10.00">UBDesktopAnnotationController</text>
<text text-anchor="middle" x="810" y="-523" font-family="Helvetica,sans-Serif" font-size="10.00">::selectorActionReleased</text>
</a>
</g>
<!-- Node9&#45;&gt;Node19 -->
<g id="edge64" class="edge"><title>Node9&#45;&gt;Node19</title>
<path fill="none" stroke="midnightblue" d="M514.506,-546.621C580.181,-543.371 668.898,-538.982 731.938,-535.862"/>
<polygon fill="midnightblue" stroke="midnightblue" points="513.986,-543.142 504.171,-547.132 514.332,-550.134 513.986,-543.142"/>
</g>
<!-- Node20 -->
<g id="node54" class="node"><title>Node20</title>
<a xlink:href="../../d7/db7/class_u_b_desktop_annotation_controller.html#ad22aef5e3c7a3979c6de7a43cce745bf" target="_top" xlink:title="UBDesktopAnnotationController\l::pointerActionReleased">
<polygon fill="white" stroke="black" points="732,-463 732,-497 888,-497 888,-463 732,-463"/>
<text text-anchor="start" x="740" y="-484" font-family="Helvetica,sans-Serif" font-size="10.00">UBDesktopAnnotationController</text>
<text text-anchor="middle" x="810" y="-471" font-family="Helvetica,sans-Serif" font-size="10.00">::pointerActionReleased</text>
</a>
</g>
<!-- Node9&#45;&gt;Node20 -->
<g id="edge68" class="edge"><title>Node9&#45;&gt;Node20</title>
<path fill="none" stroke="midnightblue" d="M514.101,-534.71C579.816,-522.56 668.768,-506.113 731.938,-494.433"/>
<polygon fill="midnightblue" stroke="midnightblue" points="513.368,-531.287 504.171,-536.547 514.641,-538.17 513.368,-531.287"/>
</g>
<!-- Node11 -->
<g id="node21" class="node"><title>Node11</title>
<a xlink:href="../../d7/db7/class_u_b_desktop_annotation_controller.html#a1e31fa6fa39f439312757baadcaae17a" target="_top" xlink:title="UBDesktopAnnotationController\l::UBDesktopAnnotationController">
<polygon fill="white" stroke="black" points="1116,-835 1116,-869 1278,-869 1278,-835 1116,-835"/>
<text text-anchor="start" x="1124" y="-856" font-family="Helvetica,sans-Serif" font-size="10.00">UBDesktopAnnotationController</text>
<text text-anchor="middle" x="1197" y="-843" font-family="Helvetica,sans-Serif" font-size="10.00">::UBDesktopAnnotationController</text>
</a>
</g>
<!-- Node10&#45;&gt;Node11 -->
<g id="edge20" class="edge"><title>Node10&#45;&gt;Node11</title>
<path fill="none" stroke="midnightblue" d="M632.574,-776.07C661.426,-827.461 723.754,-937.306 732,-942 880.817,-1026.71 1095.23,-914.045 1170.03,-869.067"/>
<polygon fill="midnightblue" stroke="midnightblue" points="635.54,-774.204 627.597,-767.193 629.434,-777.627 635.54,-774.204"/>
</g>
<!-- Node12 -->
<g id="node23" class="node"><title>Node12</title>
<a xlink:href="../../d7/db7/class_u_b_desktop_annotation_controller.html#a50e5c475de4e1dc1133cde776a5abefa" target="_top" xlink:title="Handles the pen action pressed event.">
<polygon fill="white" stroke="black" points="732,-733 732,-767 888,-767 888,-733 732,-733"/>
<text text-anchor="start" x="740" y="-754" font-family="Helvetica,sans-Serif" font-size="10.00">UBDesktopAnnotationController</text>
<text text-anchor="middle" x="810" y="-741" font-family="Helvetica,sans-Serif" font-size="10.00">::penActionPressed</text>
</a>
</g>
<!-- Node10&#45;&gt;Node12 -->
<g id="edge22" class="edge"><title>Node10&#45;&gt;Node12</title>
<path fill="none" stroke="midnightblue" d="M706.153,-750C714.769,-750 723.47,-750 731.975,-750"/>
<polygon fill="midnightblue" stroke="midnightblue" points="706.094,-746.5 696.094,-750 706.094,-753.5 706.094,-746.5"/>
</g>
<!-- Node13 -->
<g id="node25" class="node"><title>Node13</title>
<a xlink:href="../../d7/db7/class_u_b_desktop_annotation_controller.html#ac7040fff10a317e7298cd61dea7aea7c" target="_top" xlink:title="Reconnect the pressed &amp; released signals of the property palettes.">
<polygon fill="white" stroke="black" points="924,-681 924,-715 1080,-715 1080,-681 924,-681"/>
<text text-anchor="start" x="932" y="-702" font-family="Helvetica,sans-Serif" font-size="10.00">UBDesktopAnnotationController</text>
<text text-anchor="middle" x="1002" y="-689" font-family="Helvetica,sans-Serif" font-size="10.00">::onDesktopPaletteMaximized</text>
</a>
</g>
<!-- Node10&#45;&gt;Node13 -->
<g id="edge32" class="edge"><title>Node10&#45;&gt;Node13</title>
<path fill="none" stroke="midnightblue" d="M643.222,-726.034C664.86,-707.241 697.872,-682.558 732,-672 804.881,-649.453 893.644,-665.854 949.003,-680.938"/>
<polygon fill="midnightblue" stroke="midnightblue" points="640.646,-723.642 635.507,-732.907 645.302,-728.869 640.646,-723.642"/>
</g>
<!-- Node14 -->
<g id="node28" class="node"><title>Node14</title>
<a xlink:href="../../d7/db7/class_u_b_desktop_annotation_controller.html#a7ba6da29c94bb3aae486749be1543f67" target="_top" xlink:title="Disconnect the pressed &amp; release signals of the property palettes This is done to prevent memory leak...">
<polygon fill="white" stroke="black" points="924,-835 924,-869 1080,-869 1080,-835 924,-835"/>
<text text-anchor="start" x="932" y="-856" font-family="Helvetica,sans-Serif" font-size="10.00">UBDesktopAnnotationController</text>
<text text-anchor="middle" x="1002" y="-843" font-family="Helvetica,sans-Serif" font-size="10.00">::onDesktopPaletteMinimize</text>
</a>
</g>
<!-- Node10&#45;&gt;Node14 -->
<g id="edge34" class="edge"><title>Node10&#45;&gt;Node14</title>
<path fill="none" stroke="midnightblue" d="M638.315,-775.224C659.029,-798.784 693.518,-832.438 732,-847 793.388,-870.23 868.382,-869.548 923.742,-864.159"/>
<polygon fill="midnightblue" stroke="midnightblue" points="640.742,-772.678 631.578,-767.36 635.426,-777.232 640.742,-772.678"/>
</g>
<!-- Node12&#45;&gt;Node13 -->
<g id="edge24" class="edge"><title>Node12&#45;&gt;Node13</title>
<path fill="none" stroke="midnightblue" d="M882.719,-730.305C901.242,-725.288 920.997,-719.938 938.991,-715.065"/>
<polygon fill="midnightblue" stroke="midnightblue" points="881.605,-726.981 872.868,-732.973 883.435,-733.737 881.605,-726.981"/>
</g>
<!-- Node12&#45;&gt;Node14 -->
<g id="edge28" class="edge"><title>Node12&#45;&gt;Node14</title>
<path fill="none" stroke="midnightblue" d="M851.264,-771.922C886.738,-790.767 937.186,-817.567 969.759,-834.872"/>
<polygon fill="midnightblue" stroke="midnightblue" points="852.61,-768.673 842.136,-767.073 849.326,-774.855 852.61,-768.673"/>
</g>
<!-- Node13&#45;&gt;Node11 -->
<g id="edge26" class="edge"><title>Node13&#45;&gt;Node11</title>
<path fill="none" stroke="midnightblue" d="M1031.58,-721.357C1071.1,-752.574 1140.23,-807.169 1175.29,-834.854"/>
<polygon fill="midnightblue" stroke="midnightblue" points="1033.63,-718.52 1023.61,-715.069 1029.29,-724.014 1033.63,-718.52"/>
</g>
<!-- Node14&#45;&gt;Node11 -->
<g id="edge30" class="edge"><title>Node14&#45;&gt;Node11</title>
<path fill="none" stroke="midnightblue" d="M1090.19,-852C1098.76,-852 1107.43,-852 1115.92,-852"/>
<polygon fill="midnightblue" stroke="midnightblue" points="1090.19,-848.5 1080.19,-852 1090.19,-855.5 1090.19,-848.5"/>
</g>
<!-- Node15&#45;&gt;Node11 -->
<g id="edge38" class="edge"><title>Node15&#45;&gt;Node11</title>
<path fill="none" stroke="midnightblue" d="M664.273,-937.044C750.013,-972.827 937.786,-1036 1080,-975 1130.65,-953.275 1169.73,-897.658 1187.12,-869.255"/>
<polygon fill="midnightblue" stroke="midnightblue" points="665.395,-933.718 654.822,-933.037 662.663,-940.163 665.395,-933.718"/>
</g>
<!-- Node15&#45;&gt;Node13 -->
<g id="edge46" class="edge"><title>Node15&#45;&gt;Node13</title>
<path fill="none" stroke="midnightblue" d="M663.62,-894.456C718.053,-868.27 811.33,-821.875 888,-776 920.308,-756.669 955.865,-731.711 978.535,-715.3"/>
<polygon fill="midnightblue" stroke="midnightblue" points="662.077,-891.314 654.573,-898.793 665.104,-897.626 662.077,-891.314"/>
</g>
<!-- Node15&#45;&gt;Node14 -->
<g id="edge48" class="edge"><title>Node15&#45;&gt;Node14</title>
<path fill="none" stroke="midnightblue" d="M677.506,-935.794C733.383,-951.144 818.544,-966.113 888,-942 929.449,-927.61 967.219,-891.204 987.162,-869.357"/>
<polygon fill="midnightblue" stroke="midnightblue" points="678.343,-932.394 667.767,-933.034 676.434,-939.128 678.343,-932.394"/>
</g>
<!-- Node16 -->
<g id="node36" class="node"><title>Node16</title>
<a xlink:href="../../d7/db7/class_u_b_desktop_annotation_controller.html#abdf61d8594b271650f05804f3ae25896" target="_top" xlink:title="Handles the eraser action pressed event.">
<polygon fill="white" stroke="black" points="732,-899 732,-933 888,-933 888,-899 732,-899"/>
<text text-anchor="start" x="740" y="-920" font-family="Helvetica,sans-Serif" font-size="10.00">UBDesktopAnnotationController</text>
<text text-anchor="middle" x="810" y="-907" font-family="Helvetica,sans-Serif" font-size="10.00">::eraserActionPressed</text>
</a>
</g>
<!-- Node15&#45;&gt;Node16 -->
<g id="edge40" class="edge"><title>Node15&#45;&gt;Node16</title>
<path fill="none" stroke="midnightblue" d="M706.153,-916C714.769,-916 723.47,-916 731.975,-916"/>
<polygon fill="midnightblue" stroke="midnightblue" points="706.094,-912.5 696.094,-916 706.094,-919.5 706.094,-912.5"/>
</g>
<!-- Node16&#45;&gt;Node13 -->
<g id="edge42" class="edge"><title>Node16&#45;&gt;Node13</title>
<path fill="none" stroke="midnightblue" d="M831.913,-891.12C871.344,-846.349 953.282,-753.315 987.004,-715.027"/>
<polygon fill="midnightblue" stroke="midnightblue" points="829.049,-889.076 825.066,-898.894 834.302,-893.703 829.049,-889.076"/>
</g>
<!-- Node16&#45;&gt;Node14 -->
<g id="edge44" class="edge"><title>Node16&#45;&gt;Node14</title>
<path fill="none" stroke="midnightblue" d="M870.868,-895.711C896.642,-887.119 926.336,-877.221 950.942,-869.019"/>
<polygon fill="midnightblue" stroke="midnightblue" points="869.58,-892.451 861.2,-898.933 871.794,-899.091 869.58,-892.451"/>
</g>
<!-- Node17&#45;&gt;Node11 -->
<g id="edge52" class="edge"><title>Node17&#45;&gt;Node11</title>
<path fill="none" stroke="midnightblue" d="M706.465,-602.401C806.636,-593.053 970.157,-593.225 1080,-672 1139.82,-714.899 1176.98,-798.74 1190.83,-834.818"/>
<polygon fill="midnightblue" stroke="midnightblue" points="705.982,-598.931 696.373,-603.395 706.668,-605.898 705.982,-598.931"/>
</g>
<!-- Node17&#45;&gt;Node13 -->
<g id="edge60" class="edge"><title>Node17&#45;&gt;Node13</title>
<path fill="none" stroke="midnightblue" d="M706.315,-623.84C759.494,-630.29 828.256,-640.627 888,-656 913.023,-662.439 940.201,-672.332 961.743,-680.9"/>
<polygon fill="midnightblue" stroke="midnightblue" points="706.577,-620.347 696.234,-622.641 705.751,-627.298 706.577,-620.347"/>
</g>
<!-- Node17&#45;&gt;Node14 -->
<g id="edge62" class="edge"><title>Node17&#45;&gt;Node14</title>
<path fill="none" stroke="midnightblue" d="M636.407,-640.485C652.284,-662.524 675.78,-695.274 696,-724 712.179,-746.986 709.12,-759.672 732,-776 788.683,-816.451 866.288,-835.424 923.754,-844.293"/>
<polygon fill="midnightblue" stroke="midnightblue" points="639.199,-638.373 630.512,-632.309 633.521,-642.467 639.199,-638.373"/>
</g>
<!-- Node18 -->
<g id="node45" class="node"><title>Node18</title>
<a xlink:href="../../d7/db7/class_u_b_desktop_annotation_controller.html#a6daed504c528720a1e9bd06d2d4161e7" target="_top" xlink:title="Handles the marker action pressed event.">
<polygon fill="white" stroke="black" points="732,-681 732,-715 888,-715 888,-681 732,-681"/>
<text text-anchor="start" x="740" y="-702" font-family="Helvetica,sans-Serif" font-size="10.00">UBDesktopAnnotationController</text>
<text text-anchor="middle" x="810" y="-689" font-family="Helvetica,sans-Serif" font-size="10.00">::markerActionPressed</text>
</a>
</g>
<!-- Node17&#45;&gt;Node18 -->
<g id="edge54" class="edge"><title>Node17&#45;&gt;Node18</title>
<path fill="none" stroke="midnightblue" d="M667.006,-636.185C699.141,-650.077 740.602,-668 770.597,-680.967"/>
<polygon fill="midnightblue" stroke="midnightblue" points="668.35,-632.953 657.783,-632.198 665.573,-639.378 668.35,-632.953"/>
</g>
<!-- Node18&#45;&gt;Node13 -->
<g id="edge56" class="edge"><title>Node18&#45;&gt;Node13</title>
<path fill="none" stroke="midnightblue" d="M898.153,-698C906.769,-698 915.47,-698 923.975,-698"/>
<polygon fill="midnightblue" stroke="midnightblue" points="898.094,-694.5 888.094,-698 898.094,-701.5 898.094,-694.5"/>
</g>
<!-- Node18&#45;&gt;Node14 -->
<g id="edge58" class="edge"><title>Node18&#45;&gt;Node14</title>
<path fill="none" stroke="midnightblue" d="M880.508,-719.512C883.089,-720.923 885.597,-722.417 888,-724 933.975,-754.284 973.036,-807.644 991.167,-834.912"/>
<polygon fill="midnightblue" stroke="midnightblue" points="882.005,-716.348 871.492,-715.034 878.891,-722.617 882.005,-716.348"/>
</g>
<!-- Node19&#45;&gt;Node13 -->
<g id="edge66" class="edge"><title>Node19&#45;&gt;Node13</title>
<path fill="none" stroke="midnightblue" d="M837.702,-555.951C876.988,-589.917 947.922,-651.245 982.284,-680.954"/>
<polygon fill="midnightblue" stroke="midnightblue" points="839.678,-553.032 829.824,-549.14 835.1,-558.328 839.678,-553.032"/>
</g>
<!-- Node20&#45;&gt;Node13 -->
<g id="edge70" class="edge"><title>Node20&#45;&gt;Node13</title>
<path fill="none" stroke="midnightblue" d="M883.065,-502.352C884.767,-503.509 886.416,-504.724 888,-506 948.065,-554.41 983.634,-643.576 996.495,-680.883"/>
<polygon fill="midnightblue" stroke="midnightblue" points="884.548,-499.162 874.167,-497.047 880.963,-505.174 884.548,-499.162"/>
</g>
<!-- Node24 -->
<g id="node63" class="node"><title>Node24</title>
<a xlink:href="../../d9/dbd/class_u_b_graphics_text_item_delegate.html#a292ce49af67835859e297876d3f68602" target="_top" xlink:title="UBGraphicsTextItemDelegate\l::pickFont">
<polygon fill="white" stroke="black" points="352,-416 352,-450 500,-450 500,-416 352,-416"/>
<text text-anchor="start" x="360" y="-437" font-family="Helvetica,sans-Serif" font-size="10.00">UBGraphicsTextItemDelegate</text>
<text text-anchor="middle" x="426" y="-424" font-family="Helvetica,sans-Serif" font-size="10.00">::pickFont</text>
</a>
</g>
<!-- Node23&#45;&gt;Node24 -->
<g id="edge78" class="edge"><title>Node23&#45;&gt;Node24</title>
<path fill="none" stroke="midnightblue" d="M309.204,-400.695C327.342,-405.712 346.684,-411.062 364.303,-415.935"/>
<polygon fill="midnightblue" stroke="midnightblue" points="310.129,-397.319 299.558,-398.027 308.263,-404.066 310.129,-397.319"/>
</g>
<!-- Node25 -->
<g id="node65" class="node"><title>Node25</title>
<a xlink:href="../../d9/dbd/class_u_b_graphics_text_item_delegate.html#aed68d84ee8c86411f7b9197a4220e18f" target="_top" xlink:title="UBGraphicsTextItemDelegate\l::buildButtons">
<polygon fill="white" stroke="black" points="544,-411 544,-445 692,-445 692,-411 544,-411"/>
<text text-anchor="start" x="552" y="-432" font-family="Helvetica,sans-Serif" font-size="10.00">UBGraphicsTextItemDelegate</text>
<text text-anchor="middle" x="618" y="-419" font-family="Helvetica,sans-Serif" font-size="10.00">::buildButtons</text>
</a>
</g>
<!-- Node24&#45;&gt;Node25 -->
<g id="edge80" class="edge"><title>Node24&#45;&gt;Node25</title>
<path fill="none" stroke="midnightblue" d="M510.418,-430.802C521.594,-430.511 532.982,-430.214 543.965,-429.928"/>
<polygon fill="midnightblue" stroke="midnightblue" points="510.138,-427.308 500.232,-431.067 510.32,-434.305 510.138,-427.308"/>
</g>
<!-- Node27 -->
<g id="node69" class="node"><title>Node27</title>
<a xlink:href="../../dc/dfd/class_u_b_graphics_aristo.html#af0efa637a7053d42593a8e54a041bf3f" target="_top" xlink:title="UBGraphicsAristo::hoverEnter\lEvent">
<polygon fill="white" stroke="black" points="351.5,-312 351.5,-346 500.5,-346 500.5,-312 351.5,-312"/>
<text text-anchor="start" x="359.5" y="-333" font-family="Helvetica,sans-Serif" font-size="10.00">UBGraphicsAristo::hoverEnter</text>
<text text-anchor="middle" x="426" y="-320" font-family="Helvetica,sans-Serif" font-size="10.00">Event</text>
</a>
</g>
<!-- Node26&#45;&gt;Node27 -->
<g id="edge84" class="edge"><title>Node26&#45;&gt;Node27</title>
<path fill="none" stroke="midnightblue" d="M304.862,-295.494C324.301,-300.87 345.433,-306.716 364.525,-311.996"/>
<polygon fill="midnightblue" stroke="midnightblue" points="305.743,-292.106 295.172,-292.814 303.877,-298.853 305.743,-292.106"/>
</g>
<!-- Node28 -->
<g id="node71" class="node"><title>Node28</title>
<a xlink:href="../../dc/dfd/class_u_b_graphics_aristo.html#a07eb72e705daa05c9a5bcbf6baa3b914" target="_top" xlink:title="UBGraphicsAristo::hoverMove\lEvent">
<polygon fill="white" stroke="black" points="351.5,-208 351.5,-242 500.5,-242 500.5,-208 351.5,-208"/>
<text text-anchor="start" x="359.5" y="-229" font-family="Helvetica,sans-Serif" font-size="10.00">UBGraphicsAristo::hoverMove</text>
<text text-anchor="middle" x="426" y="-216" font-family="Helvetica,sans-Serif" font-size="10.00">Event</text>
</a>
</g>
<!-- Node26&#45;&gt;Node28 -->
<g id="edge86" class="edge"><title>Node26&#45;&gt;Node28</title>
<path fill="none" stroke="midnightblue" d="M304.862,-258.506C324.301,-253.13 345.433,-247.284 364.525,-242.004"/>
<polygon fill="midnightblue" stroke="midnightblue" points="303.877,-255.147 295.172,-261.186 305.743,-261.894 303.877,-255.147"/>
</g>
<!-- Node29 -->
<g id="node73" class="node"><title>Node29</title>
<a xlink:href="../../db/dd7/class_u_b_graphics_ruler.html#ae820116cd0b0d1582b95159dd778b76c" target="_top" xlink:title="UBGraphicsRuler::hoverMove\lEvent">
<polygon fill="white" stroke="black" points="352.5,-156 352.5,-190 499.5,-190 499.5,-156 352.5,-156"/>
<text text-anchor="start" x="360.5" y="-177" font-family="Helvetica,sans-Serif" font-size="10.00">UBGraphicsRuler::hoverMove</text>
<text text-anchor="middle" x="426" y="-164" font-family="Helvetica,sans-Serif" font-size="10.00">Event</text>
</a>
</g>
<!-- Node26&#45;&gt;Node29 -->
<g id="edge88" class="edge"><title>Node26&#45;&gt;Node29</title>
<path fill="none" stroke="midnightblue" d="M266.314,-253.364C287.691,-236.431 318.322,-214.048 348,-199 354.366,-195.772 361.22,-192.814 368.13,-190.142"/>
<polygon fill="midnightblue" stroke="midnightblue" points="263.918,-250.799 258.313,-259.79 268.302,-256.257 263.918,-250.799"/>
</g>
<!-- Node30 -->
<g id="node75" class="node"><title>Node30</title>
<a xlink:href="../../db/dd7/class_u_b_graphics_ruler.html#ab92e30dce1a9c167ff52545610fb6edf" target="_top" xlink:title="UBGraphicsRuler::hoverEnter\lEvent">
<polygon fill="white" stroke="black" points="353,-260 353,-294 499,-294 499,-260 353,-260"/>
<text text-anchor="start" x="361" y="-281" font-family="Helvetica,sans-Serif" font-size="10.00">UBGraphicsRuler::hoverEnter</text>
<text text-anchor="middle" x="426" y="-268" font-family="Helvetica,sans-Serif" font-size="10.00">Event</text>
</a>
</g>
<!-- Node26&#45;&gt;Node30 -->
<g id="edge90" class="edge"><title>Node26&#45;&gt;Node30</title>
<path fill="none" stroke="midnightblue" d="M305.588,-277C320.9,-277 337.23,-277 352.763,-277"/>
<polygon fill="midnightblue" stroke="midnightblue" points="305.172,-273.5 295.172,-277 305.172,-280.5 305.172,-273.5"/>
</g>
<!-- Node31 -->
<g id="node77" class="node"><title>Node31</title>
<a xlink:href="../../da/dd0/class_u_b_graphics_triangle.html#a6fff939815a5e24edfb96351138f50ab" target="_top" xlink:title="UBGraphicsTriangle\l::hoverEnterEvent">
<polygon fill="white" stroke="black" points="374,-364 374,-398 478,-398 478,-364 374,-364"/>
<text text-anchor="start" x="382" y="-385" font-family="Helvetica,sans-Serif" font-size="10.00">UBGraphicsTriangle</text>
<text text-anchor="middle" x="426" y="-372" font-family="Helvetica,sans-Serif" font-size="10.00">::hoverEnterEvent</text>
</a>
</g>
<!-- Node26&#45;&gt;Node31 -->
<g id="edge92" class="edge"><title>Node26&#45;&gt;Node31</title>
<path fill="none" stroke="midnightblue" d="M304.21,-297.738C306.923,-299.369 309.535,-301.12 312,-303 334.351,-320.046 325.513,-338.135 348,-355 355.651,-360.738 364.64,-365.254 373.742,-368.794"/>
<polygon fill="midnightblue" stroke="midnightblue" points="305.724,-294.578 295.257,-292.932 302.413,-300.746 305.724,-294.578"/>
</g>
<!-- Node32 -->
<g id="node79" class="node"><title>Node32</title>
<a xlink:href="../../da/dd0/class_u_b_graphics_triangle.html#a799ab25a8ba3db55b33b27a7a303747c" target="_top" xlink:title="UBGraphicsTriangle\l::hoverMoveEvent">
<polygon fill="white" stroke="black" points="374,-104 374,-138 478,-138 478,-104 374,-104"/>
<text text-anchor="start" x="382" y="-125" font-family="Helvetica,sans-Serif" font-size="10.00">UBGraphicsTriangle</text>
<text text-anchor="middle" x="426" y="-112" font-family="Helvetica,sans-Serif" font-size="10.00">::hoverMoveEvent</text>
</a>
</g>
<!-- Node26&#45;&gt;Node32 -->
<g id="edge94" class="edge"><title>Node26&#45;&gt;Node32</title>
<path fill="none" stroke="midnightblue" d="M253.594,-251.169C272.492,-221.937 306.955,-174.789 348,-147 355.801,-141.718 364.764,-137.432 373.772,-133.979"/>
<polygon fill="midnightblue" stroke="midnightblue" points="250.633,-249.303 248.239,-259.624 256.546,-253.048 250.633,-249.303"/>
</g>
<!-- Node33&#45;&gt;Node27 -->
<g id="edge98" class="edge"><title>Node33&#45;&gt;Node27</title>
<path fill="none" stroke="midnightblue" d="M305.335,-329C320.272,-329 336.188,-329 351.396,-329"/>
<polygon fill="midnightblue" stroke="midnightblue" points="305.172,-325.5 295.172,-329 305.172,-332.5 305.172,-325.5"/>
</g>
<!-- Node33&#45;&gt;Node30 -->
<g id="edge100" class="edge"><title>Node33&#45;&gt;Node30</title>
<path fill="none" stroke="midnightblue" d="M304.862,-310.506C324.301,-305.13 345.433,-299.284 364.525,-294.004"/>
<polygon fill="midnightblue" stroke="midnightblue" points="303.877,-307.147 295.172,-313.186 305.743,-313.894 303.877,-307.147"/>
</g>
<!-- Node33&#45;&gt;Node31 -->
<g id="edge102" class="edge"><title>Node33&#45;&gt;Node31</title>
<path fill="none" stroke="midnightblue" d="M305.052,-347.546C327.687,-353.807 352.598,-360.697 373.901,-366.59"/>
<polygon fill="midnightblue" stroke="midnightblue" points="305.743,-344.106 295.172,-344.814 303.877,-350.853 305.743,-344.106"/>
</g>
<!-- Node35 -->
<g id="node88" class="node"><title>Node35</title>
<a xlink:href="../../d6/d56/class_u_b_graphics_compass.html#a2667b78936a87cf0b86573c4847df86d" target="_top" xlink:title="UBGraphicsCompass:\l:hoverEnterEvent">
<polygon fill="white" stroke="black" points="368.5,-0 368.5,-34 483.5,-34 483.5,-0 368.5,-0"/>
<text text-anchor="start" x="376.5" y="-21" font-family="Helvetica,sans-Serif" font-size="10.00">UBGraphicsCompass:</text>
<text text-anchor="middle" x="426" y="-8" font-family="Helvetica,sans-Serif" font-size="10.00">:hoverEnterEvent</text>
</a>
</g>
<!-- Node34&#45;&gt;Node35 -->
<g id="edge106" class="edge"><title>Node34&#45;&gt;Node35</title>
<path fill="none" stroke="midnightblue" d="M305.334,-50.3757C325.979,-44.6655 348.494,-38.4378 368.425,-32.9249"/>
<polygon fill="midnightblue" stroke="midnightblue" points="304.389,-47.0056 295.684,-53.0449 306.255,-53.7523 304.389,-47.0056"/>
</g>
<!-- Node36 -->
<g id="node90" class="node"><title>Node36</title>
<a xlink:href="../../d6/d56/class_u_b_graphics_compass.html#abf554765c0e6a0f5d04d366feefc16e5" target="_top" xlink:title="UBGraphicsCompass:\l:hoverMoveEvent">
<polygon fill="white" stroke="black" points="368.5,-52 368.5,-86 483.5,-86 483.5,-52 368.5,-52"/>
<text text-anchor="start" x="376.5" y="-73" font-family="Helvetica,sans-Serif" font-size="10.00">UBGraphicsCompass:</text>
<text text-anchor="middle" x="426" y="-60" font-family="Helvetica,sans-Serif" font-size="10.00">:hoverMoveEvent</text>
</a>
</g>
<!-- Node34&#45;&gt;Node36 -->
<g id="edge108" class="edge"><title>Node34&#45;&gt;Node36</title>
<path fill="none" stroke="midnightblue" d="M305.895,-69C326.386,-69 348.675,-69 368.425,-69"/>
<polygon fill="midnightblue" stroke="midnightblue" points="305.684,-65.5001 295.684,-69 305.684,-72.5001 305.684,-65.5001"/>
</g>
</g>
</svg>
        <g id="navigator" transform="translate(0 0)" fill="#404254">
                <rect fill="#f2f5e9" fill-opacity="0.5" stroke="#606060" stroke-width=".5" x="0" y="0" width="60" height="60"/>
                <use id="zoomplus" xlink:href="#zoomPlus" x="17" y="9" onmousedown="handleZoom(evt,'in')"/>
                <use id="zoomminus" xlink:href="#zoomMin" x="42" y="9" onmousedown="handleZoom(evt,'out')"/>
                <use id="reset" xlink:href="#resetDef" x="30" y="36" onmousedown="handleReset()"/>
                <g id="arrowUp" xlink:href="#dirArrow" transform="translate(30 24)" onmousedown="handlePan(0,-1)">
                  <use xlink:href="#rim" fill="#404040">
                        <set attributeName="fill" to="#808080" begin="arrowUp.mouseover" end="arrowUp.mouseout"/>
                  </use>
                  <path fill="none" stroke="white" stroke-width="1.5" d="M0,-3.0v7 M-2.5,-0.5L0,-3.0L2.5,-0.5"/>
                </g>
                <g id="arrowRight" xlink:href="#dirArrow" transform="rotate(90) translate(36 -43)" onmousedown="handlePan(1,0)">
                  <use xlink:href="#rim" fill="#404040">
                        <set attributeName="fill" to="#808080" begin="arrowRight.mouseover" end="arrowRight.mouseout"/>
                  </use>
                  <path fill="none" stroke="white" stroke-width="1.5" d="M0,-3.0v7 M-2.5,-0.5L0,-3.0L2.5,-0.5"/>
                </g>
                <g id="arrowDown" xlink:href="#dirArrow" transform="rotate(180) translate(-30 -48)" onmousedown="handlePan(0,1)">
                  <use xlink:href="#rim" fill="#404040">
                        <set attributeName="fill" to="#808080" begin="arrowDown.mouseover" end="arrowDown.mouseout"/>
                  </use>
                  <path fill="none" stroke="white" stroke-width="1.5" d="M0,-3.0v7 M-2.5,-0.5L0,-3.0L2.5,-0.5"/>
                </g>
                <g id="arrowLeft" xlink:href="#dirArrow" transform="rotate(270) translate(-36 17)" onmousedown="handlePan(-1,0)">
                  <use xlink:href="#rim" fill="#404040">
                        <set attributeName="fill" to="#808080" begin="arrowLeft.mouseover" end="arrowLeft.mouseout"/>
                  </use>
                  <path fill="none" stroke="white" stroke-width="1.5" d="M0,-3.0v7 M-2.5,-0.5L0,-3.0L2.5,-0.5"/>
                </g>
        </g>
        <svg viewBox="0 0 15 15" width="100%" height="30px" preserveAspectRatio="xMaxYMin meet">
         <g id="arrow_out" transform="scale(0.3 0.3)">
          <a xlink:href="class_u_b_resources_af681f547d1374c661b79246375397337_icgraph_org.svg" target="_base">
           <rect id="button" ry="5" rx="5" y="6" x="6" height="38" width="38"
                fill="#f2f5e9" fill-opacity="0.5" stroke="#606060" stroke-width="1.0"/>
           <path id="arrow"
             d="M 11.500037,31.436501 C 11.940474,20.09759 22.043105,11.32322 32.158766,21.979434 L 37.068811,17.246167 C 37.068811,17.246167 37.088388,32 37.088388,32 L 22.160133,31.978069 C 22.160133,31.978069 26.997745,27.140456 26.997745,27.140456 C 18.528582,18.264221 13.291696,25.230495 11.500037,31.436501 z"
             style="fill:#404040;"/>
          </a>
         </g>
        </svg>
</svg>
