<?xml version="1.0" encoding="UTF-8" standalone="no"?>
<!DOCTYPE svg PUBLIC "-//W3C//DTD SVG 1.1//EN"
 "http://www.w3.org/Graphics/SVG/1.1/DTD/svg11.dtd">
<!-- Generated by graphviz version 2.26.3 (20100126.1600)
 -->
<!-- Title: Sankore&#45;3.1/src/frameworks/UBStringUtils.cpp Pages: 1 -->
<svg width="204pt" height="160pt"
 viewBox="0.00 0.00 204.00 160.00" xmlns="http://www.w3.org/2000/svg" xmlns:xlink="http://www.w3.org/1999/xlink">
<g id="graph1" class="graph" transform="scale(1 1) rotate(0) translate(4 156)">
<title>Sankore&#45;3.1/src/frameworks/UBStringUtils.cpp</title>
<polygon fill="white" stroke="white" points="-4,5 -4,-156 201,-156 201,5 -4,5"/>
<!-- Node1 -->
<g id="node1" class="node"><title>Node1</title>
<polygon fill="#bfbfbf" stroke="black" points="25,-117 25,-151 165,-151 165,-117 25,-117"/>
<text text-anchor="start" x="33" y="-138" font-family="Helvetica,sans-Serif" font-size="10.00">Sankore&#45;3.1/src/frameworks</text>
<text text-anchor="middle" x="95" y="-125" font-family="Helvetica,sans-Serif" font-size="10.00">/UBStringUtils.cpp</text>
</g>
<!-- Node2 -->
<g id="node3" class="node"><title>Node2</title>
<a xlink:href="../../d7/dca/_u_b_string_utils_8h.html" target="_top" xlink:title="UBStringUtils.h">
<polygon fill="white" stroke="black" points="-0.5,-58.5 -0.5,-79.5 84.5,-79.5 84.5,-58.5 -0.5,-58.5"/>
<text text-anchor="middle" x="42" y="-66.5" font-family="Helvetica,sans-Serif" font-size="10.00">UBStringUtils.h</text>
</a>
</g>
<!-- Node1&#45;&gt;Node2 -->
<g id="edge2" class="edge"><title>Node1&#45;&gt;Node2</title>
<path fill="none" stroke="midnightblue" d="M81.0749,-116.922C73.7486,-107.937 64.753,-96.9047 57.2405,-87.6912"/>
<polygon fill="midnightblue" stroke="midnightblue" points="59.8806,-85.3905 50.8486,-79.8521 54.4555,-89.8141 59.8806,-85.3905"/>
</g>
<!-- Node4 -->
<g id="node7" class="node"><title>Node4</title>
<a xlink:href="../../db/d80/memcheck_8h.html" target="_top" xlink:title="core/memcheck.h">
<polygon fill="white" stroke="black" points="101.5,-58.5 101.5,-79.5 196.5,-79.5 196.5,-58.5 101.5,-58.5"/>
<text text-anchor="middle" x="149" y="-66.5" font-family="Helvetica,sans-Serif" font-size="10.00">core/memcheck.h</text>
</a>
</g>
<!-- Node1&#45;&gt;Node4 -->
<g id="edge6" class="edge"><title>Node1&#45;&gt;Node4</title>
<path fill="none" stroke="midnightblue" d="M109.188,-116.922C116.652,-107.937 125.818,-96.9047 133.472,-87.6912"/>
<polygon fill="midnightblue" stroke="midnightblue" points="136.286,-89.7806 139.984,-79.8521 130.902,-85.3074 136.286,-89.7806"/>
</g>
<!-- Node3 -->
<g id="node5" class="node"><title>Node3</title>
<polygon fill="white" stroke="#bfbfbf" points="18,-0.5 18,-21.5 66,-21.5 66,-0.5 18,-0.5"/>
<text text-anchor="middle" x="42" y="-8.5" font-family="Helvetica,sans-Serif" font-size="10.00">QtCore</text>
</g>
<!-- Node2&#45;&gt;Node3 -->
<g id="edge4" class="edge"><title>Node2&#45;&gt;Node3</title>
<path fill="none" stroke="midnightblue" d="M42,-58.3619C42,-50.9219 42,-40.7427 42,-31.7276"/>
<polygon fill="midnightblue" stroke="midnightblue" points="45.5001,-31.5706 42,-21.5707 38.5001,-31.5707 45.5001,-31.5706"/>
</g>
</g>
</svg>
