<?xml version="1.0" encoding="UTF-8" standalone="no"?>
<!DOCTYPE svg PUBLIC "-//W3C//DTD SVG 1.1//EN"
 "http://www.w3.org/Graphics/SVG/1.1/DTD/svg11.dtd">
<!-- Generated by graphviz version 2.26.3 (20100126.1600)
 -->
<!-- Title: UBDocumentContainer::addPixmapAt Pages: 1 -->
<svg width="992pt" height="172pt"
 viewBox="0.00 0.00 992.00 172.00" xmlns="http://www.w3.org/2000/svg" xmlns:xlink="http://www.w3.org/1999/xlink">
<g id="graph1" class="graph" transform="scale(1 1) rotate(0) translate(4 168)">
<title>UBDocumentContainer::addPixmapAt</title>
<polygon fill="white" stroke="white" points="-4,5 -4,-168 989,-168 989,5 -4,5"/>
<!-- Node1 -->
<g id="node1" class="node"><title>Node1</title>
<polygon fill="#bfbfbf" stroke="black" points="0,-52 0,-86 118,-86 118,-52 0,-52"/>
<text text-anchor="start" x="8" y="-73" font-family="Helvetica,sans-Serif" font-size="10.00">UBDocumentContainer</text>
<text text-anchor="middle" x="59" y="-60" font-family="Helvetica,sans-Serif" font-size="10.00">::addPixmapAt</text>
</g>
<!-- Node2 -->
<g id="node3" class="node"><title>Node2</title>
<a xlink:href="../../d0/dd5/class_u_b_persistence_manager.html#a02050499f8179287038922f42ddf2e17" target="_top" xlink:title="UBPersistenceManager\l::copyDocumentScene">
<polygon fill="white" stroke="black" points="154,-52 154,-86 274,-86 274,-52 154,-52"/>
<text text-anchor="start" x="162" y="-73" font-family="Helvetica,sans-Serif" font-size="10.00">UBPersistenceManager</text>
<text text-anchor="middle" x="214" y="-60" font-family="Helvetica,sans-Serif" font-size="10.00">::copyDocumentScene</text>
</a>
</g>
<!-- Node1&#45;&gt;Node2 -->
<g id="edge2" class="edge"><title>Node1&#45;&gt;Node2</title>
<path fill="none" stroke="midnightblue" d="M128.047,-69C136.647,-69 145.387,-69 153.838,-69"/>
<polygon fill="midnightblue" stroke="midnightblue" points="128.041,-65.5001 118.041,-69 128.041,-72.5001 128.041,-65.5001"/>
</g>
<!-- Node3 -->
<g id="node5" class="node"><title>Node3</title>
<a xlink:href="../../da/dc6/class_u_b_document_container.html#aedf080a092dceadc66b0994b0bf156fe" target="_top" xlink:title="UBDocumentContainer\l::duplicatePages">
<polygon fill="white" stroke="black" points="312,-104 312,-138 430,-138 430,-104 312,-104"/>
<text text-anchor="start" x="320" y="-125" font-family="Helvetica,sans-Serif" font-size="10.00">UBDocumentContainer</text>
<text text-anchor="middle" x="371" y="-112" font-family="Helvetica,sans-Serif" font-size="10.00">::duplicatePages</text>
</a>
</g>
<!-- Node2&#45;&gt;Node3 -->
<g id="edge4" class="edge"><title>Node2&#45;&gt;Node3</title>
<path fill="none" stroke="midnightblue" d="M274.932,-89.1812C289.65,-94.0562 305.238,-99.2189 319.477,-103.935"/>
<polygon fill="midnightblue" stroke="midnightblue" points="276.001,-85.8484 265.408,-86.0267 273.8,-92.4934 276.001,-85.8484"/>
</g>
<!-- Node10 -->
<g id="node19" class="node"><title>Node10</title>
<a xlink:href="../../dd/d5a/class_u_b_document_tree_model.html#af71ae3d84f577bbee154dea3eb0fad66" target="_top" xlink:title="UBDocumentTreeModel\l::dropMimeData">
<polygon fill="white" stroke="black" points="310,-52 310,-86 432,-86 432,-52 310,-52"/>
<text text-anchor="start" x="318" y="-73" font-family="Helvetica,sans-Serif" font-size="10.00">UBDocumentTreeModel</text>
<text text-anchor="middle" x="371" y="-60" font-family="Helvetica,sans-Serif" font-size="10.00">::dropMimeData</text>
</a>
</g>
<!-- Node2&#45;&gt;Node10 -->
<g id="edge18" class="edge"><title>Node2&#45;&gt;Node10</title>
<path fill="none" stroke="midnightblue" d="M284.491,-69C292.959,-69 301.552,-69 309.871,-69"/>
<polygon fill="midnightblue" stroke="midnightblue" points="284.251,-65.5001 274.251,-69 284.251,-72.5001 284.251,-65.5001"/>
</g>
<!-- Node11 -->
<g id="node21" class="node"><title>Node11</title>
<a xlink:href="../../da/d16/class_u_b_document_tree_view.html#a8364df11d6b3285ea0684673801b0b6c" target="_top" xlink:title="UBDocumentTreeView\l::dropEvent">
<polygon fill="white" stroke="black" points="312.5,-0 312.5,-34 429.5,-34 429.5,-0 312.5,-0"/>
<text text-anchor="start" x="320.5" y="-21" font-family="Helvetica,sans-Serif" font-size="10.00">UBDocumentTreeView</text>
<text text-anchor="middle" x="371" y="-8" font-family="Helvetica,sans-Serif" font-size="10.00">::dropEvent</text>
</a>
</g>
<!-- Node2&#45;&gt;Node11 -->
<g id="edge20" class="edge"><title>Node2&#45;&gt;Node11</title>
<path fill="none" stroke="midnightblue" d="M274.932,-48.8188C289.65,-43.9438 305.238,-38.7811 319.477,-34.065"/>
<polygon fill="midnightblue" stroke="midnightblue" points="273.8,-45.5066 265.408,-51.9733 276.001,-52.1516 273.8,-45.5066"/>
</g>
<!-- Node4 -->
<g id="node7" class="node"><title>Node4</title>
<a xlink:href="../../d7/d62/class_u_b_board_controller.html#ae84d5e3160402f05efcf708a8b81ba36" target="_top" xlink:title="UBBoardController:\l:duplicateScene">
<polygon fill="white" stroke="black" points="477.5,-130 477.5,-164 578.5,-164 578.5,-130 477.5,-130"/>
<text text-anchor="start" x="485.5" y="-151" font-family="Helvetica,sans-Serif" font-size="10.00">UBBoardController:</text>
<text text-anchor="middle" x="528" y="-138" font-family="Helvetica,sans-Serif" font-size="10.00">:duplicateScene</text>
</a>
</g>
<!-- Node3&#45;&gt;Node4 -->
<g id="edge6" class="edge"><title>Node3&#45;&gt;Node4</title>
<path fill="none" stroke="midnightblue" d="M440.253,-132.469C452.709,-134.531 465.48,-136.646 477.287,-138.602"/>
<polygon fill="midnightblue" stroke="midnightblue" points="440.792,-129.01 430.355,-130.829 439.649,-135.916 440.792,-129.01"/>
</g>
<!-- Node7 -->
<g id="node13" class="node"><title>Node7</title>
<a xlink:href="../../d6/de0/class_u_b_document_controller.html#a778970871dc49c20eb0812f352a65f75" target="_top" xlink:title="UBDocumentController\l::duplicateSelectedItem">
<polygon fill="white" stroke="black" points="468.5,-78 468.5,-112 587.5,-112 587.5,-78 468.5,-78"/>
<text text-anchor="start" x="476.5" y="-99" font-family="Helvetica,sans-Serif" font-size="10.00">UBDocumentController</text>
<text text-anchor="middle" x="528" y="-86" font-family="Helvetica,sans-Serif" font-size="10.00">::duplicateSelectedItem</text>
</a>
</g>
<!-- Node3&#45;&gt;Node7 -->
<g id="edge12" class="edge"><title>Node3&#45;&gt;Node7</title>
<path fill="none" stroke="midnightblue" d="M440.369,-109.512C449.684,-107.97 459.172,-106.398 468.3,-104.887"/>
<polygon fill="midnightblue" stroke="midnightblue" points="439.649,-106.084 430.355,-111.171 440.792,-112.99 439.649,-106.084"/>
</g>
<!-- Node5 -->
<g id="node9" class="node"><title>Node5</title>
<a xlink:href="../../da/d05/class_u_b_scene_thumbnail_navig_pixmap.html#af93b55042d19649ab98941b749f3cb01" target="_top" xlink:title="UBSceneThumbnailNavigPixmap\l::duplicatePage">
<polygon fill="white" stroke="black" points="624,-130 624,-164 786,-164 786,-130 624,-130"/>
<text text-anchor="start" x="632" y="-151" font-family="Helvetica,sans-Serif" font-size="10.00">UBSceneThumbnailNavigPixmap</text>
<text text-anchor="middle" x="705" y="-138" font-family="Helvetica,sans-Serif" font-size="10.00">::duplicatePage</text>
</a>
</g>
<!-- Node4&#45;&gt;Node5 -->
<g id="edge8" class="edge"><title>Node4&#45;&gt;Node5</title>
<path fill="none" stroke="midnightblue" d="M588.869,-147C600.148,-147 612.093,-147 623.864,-147"/>
<polygon fill="midnightblue" stroke="midnightblue" points="588.721,-143.5 578.721,-147 588.721,-150.5 588.721,-143.5"/>
</g>
<!-- Node6 -->
<g id="node11" class="node"><title>Node6</title>
<a xlink:href="../../da/d05/class_u_b_scene_thumbnail_navig_pixmap.html#a05169f2d12b103609813345624877cd6" target="_top" xlink:title="UBSceneThumbnailNavigPixmap\l::mousePressEvent">
<polygon fill="white" stroke="black" points="822,-130 822,-164 984,-164 984,-130 822,-130"/>
<text text-anchor="start" x="830" y="-151" font-family="Helvetica,sans-Serif" font-size="10.00">UBSceneThumbnailNavigPixmap</text>
<text text-anchor="middle" x="903" y="-138" font-family="Helvetica,sans-Serif" font-size="10.00">::mousePressEvent</text>
</a>
</g>
<!-- Node5&#45;&gt;Node6 -->
<g id="edge10" class="edge"><title>Node5&#45;&gt;Node6</title>
<path fill="none" stroke="midnightblue" d="M796.363,-147C804.817,-147 813.346,-147 821.7,-147"/>
<polygon fill="midnightblue" stroke="midnightblue" points="796.106,-143.5 786.105,-147 796.105,-150.5 796.106,-143.5"/>
</g>
<!-- Node8 -->
<g id="node15" class="node"><title>Node8</title>
<a xlink:href="../../d6/de0/class_u_b_document_controller.html#abb172787a34a34cd3c2df0a1b46918c5" target="_top" xlink:title="UBDocumentController\l::setupViews">
<polygon fill="white" stroke="black" points="646,-78 646,-112 764,-112 764,-78 646,-78"/>
<text text-anchor="start" x="654" y="-99" font-family="Helvetica,sans-Serif" font-size="10.00">UBDocumentController</text>
<text text-anchor="middle" x="705" y="-86" font-family="Helvetica,sans-Serif" font-size="10.00">::setupViews</text>
</a>
</g>
<!-- Node7&#45;&gt;Node8 -->
<g id="edge14" class="edge"><title>Node7&#45;&gt;Node8</title>
<path fill="none" stroke="midnightblue" d="M598.141,-95C613.901,-95 630.474,-95 645.739,-95"/>
<polygon fill="midnightblue" stroke="midnightblue" points="597.924,-91.5001 587.924,-95 597.924,-98.5001 597.924,-91.5001"/>
</g>
<!-- Node9 -->
<g id="node17" class="node"><title>Node9</title>
<a xlink:href="../../d6/de0/class_u_b_document_controller.html#a38e9ea0a2dad2b1c8d9588563e9ee3bf" target="_top" xlink:title="UBDocumentController\l::UBDocumentController">
<polygon fill="white" stroke="black" points="841,-78 841,-112 965,-112 965,-78 841,-78"/>
<text text-anchor="start" x="849" y="-99" font-family="Helvetica,sans-Serif" font-size="10.00">UBDocumentController</text>
<text text-anchor="middle" x="903" y="-86" font-family="Helvetica,sans-Serif" font-size="10.00">::UBDocumentController</text>
</a>
</g>
<!-- Node8&#45;&gt;Node9 -->
<g id="edge16" class="edge"><title>Node8&#45;&gt;Node9</title>
<path fill="none" stroke="midnightblue" d="M774.241,-95C795.876,-95 819.602,-95 840.727,-95"/>
<polygon fill="midnightblue" stroke="midnightblue" points="774.138,-91.5001 764.138,-95 774.138,-98.5001 774.138,-91.5001"/>
</g>
</g>
</svg>
