<?xml version="1.0" encoding="UTF-8" standalone="no"?>
<!DOCTYPE svg PUBLIC "-//W3C//DTD SVG 1.1//EN"
 "http://www.w3.org/Graphics/SVG/1.1/DTD/svg11.dtd">
<!-- Generated by graphviz version 2.26.3 (20100126.1600)
 -->
<!-- Title: UBDocumentContainer::sceneIndexFromPage Pages: 1 -->
<svg width="1010pt" height="212pt"
 viewBox="0.00 0.00 1010.00 212.00" xmlns="http://www.w3.org/2000/svg" xmlns:xlink="http://www.w3.org/1999/xlink">
<g id="graph1" class="graph" transform="scale(1 1) rotate(0) translate(4 208)">
<title>UBDocumentContainer::sceneIndexFromPage</title>
<polygon fill="white" stroke="white" points="-4,5 -4,-208 1007,-208 1007,5 -4,5"/>
<!-- Node1 -->
<g id="node1" class="node"><title>Node1</title>
<polygon fill="#bfbfbf" stroke="black" points="0,-125 0,-159 118,-159 118,-125 0,-125"/>
<text text-anchor="start" x="8" y="-146" font-family="Helvetica,sans-Serif" font-size="10.00">UBDocumentContainer</text>
<text text-anchor="middle" x="59" y="-133" font-family="Helvetica,sans-Serif" font-size="10.00">::sceneIndexFromPage</text>
</g>
<!-- Node2 -->
<g id="node3" class="node"><title>Node2</title>
<a xlink:href="../../db/d66/class_u_b_settings.html#a0d8ed418921c2b2d37851faeae00715d" target="_top" xlink:title="UBSettings::settings">
<polygon fill="white" stroke="black" points="154.5,-131.5 154.5,-152.5 261.5,-152.5 261.5,-131.5 154.5,-131.5"/>
<text text-anchor="middle" x="208" y="-139.5" font-family="Helvetica,sans-Serif" font-size="10.00">UBSettings::settings</text>
</a>
</g>
<!-- Node1&#45;&gt;Node2 -->
<g id="edge2" class="edge"><title>Node1&#45;&gt;Node2</title>
<path fill="none" stroke="midnightblue" d="M118.317,-142C126.74,-142 135.435,-142 143.943,-142"/>
<polygon fill="midnightblue" stroke="midnightblue" points="144.199,-145.5 154.199,-142 144.199,-138.5 144.199,-145.5"/>
</g>
<!-- Node3 -->
<g id="node5" class="node"><title>Node3</title>
<a xlink:href="../../db/d66/class_u_b_settings.html#ad703e9b5a7efdb68b9c6ecef0df7cce2" target="_top" xlink:title="UBSettings::UBSettings">
<polygon fill="white" stroke="black" points="298.5,-131.5 298.5,-152.5 421.5,-152.5 421.5,-131.5 298.5,-131.5"/>
<text text-anchor="middle" x="360" y="-139.5" font-family="Helvetica,sans-Serif" font-size="10.00">UBSettings::UBSettings</text>
</a>
</g>
<!-- Node2&#45;&gt;Node3 -->
<g id="edge4" class="edge"><title>Node2&#45;&gt;Node3</title>
<path fill="none" stroke="midnightblue" d="M261.59,-142C270.222,-142 279.277,-142 288.253,-142"/>
<polygon fill="midnightblue" stroke="midnightblue" points="288.327,-145.5 298.327,-142 288.327,-138.5 288.327,-145.5"/>
</g>
<!-- Node4 -->
<g id="node7" class="node"><title>Node4</title>
<a xlink:href="../../db/d66/class_u_b_settings.html#afd0d739b2cfac7e2d05be7415f6692df" target="_top" xlink:title="UBSettings::InitKeyboard\lPaletteKeyBtnSizes">
<polygon fill="white" stroke="black" points="470,-170 470,-204 598,-204 598,-170 470,-170"/>
<text text-anchor="start" x="478" y="-191" font-family="Helvetica,sans-Serif" font-size="10.00">UBSettings::InitKeyboard</text>
<text text-anchor="middle" x="534" y="-178" font-family="Helvetica,sans-Serif" font-size="10.00">PaletteKeyBtnSizes</text>
</a>
</g>
<!-- Node3&#45;&gt;Node4 -->
<g id="edge6" class="edge"><title>Node3&#45;&gt;Node4</title>
<path fill="none" stroke="midnightblue" d="M400.795,-152.551C418.491,-157.127 439.78,-162.633 460.094,-167.886"/>
<polygon fill="midnightblue" stroke="midnightblue" points="459.411,-171.325 469.968,-170.44 461.163,-164.548 459.411,-171.325"/>
</g>
<!-- Node5 -->
<g id="node9" class="node"><title>Node5</title>
<a xlink:href="../../db/d66/class_u_b_settings.html#a2d3413f8b25d64a698d6d83e0f18ff39" target="_top" xlink:title="UBSettings::getAppSettings">
<polygon fill="white" stroke="black" points="648,-132.5 648,-153.5 788,-153.5 788,-132.5 648,-132.5"/>
<text text-anchor="middle" x="718" y="-140.5" font-family="Helvetica,sans-Serif" font-size="10.00">UBSettings::getAppSettings</text>
</a>
</g>
<!-- Node3&#45;&gt;Node5 -->
<g id="edge8" class="edge"><title>Node3&#45;&gt;Node5</title>
<path fill="none" stroke="midnightblue" d="M421.542,-142.172C481.223,-142.339 572.094,-142.592 637.493,-142.775"/>
<polygon fill="midnightblue" stroke="midnightblue" points="637.752,-146.276 647.762,-142.804 637.772,-139.276 637.752,-146.276"/>
</g>
<!-- Node7 -->
<g id="node13" class="node"><title>Node7</title>
<a xlink:href="../../db/d66/class_u_b_settings.html#af38d2ad231149df734ca7b5486356500" target="_top" xlink:title="UBSettings::userDataDirectory">
<polygon fill="white" stroke="black" points="458,-92.5 458,-113.5 610,-113.5 610,-92.5 458,-92.5"/>
<text text-anchor="middle" x="534" y="-100.5" font-family="Helvetica,sans-Serif" font-size="10.00">UBSettings::userDataDirectory</text>
</a>
</g>
<!-- Node3&#45;&gt;Node7 -->
<g id="edge12" class="edge"><title>Node3&#45;&gt;Node7</title>
<path fill="none" stroke="midnightblue" d="M407.087,-131.446C428.654,-126.612 454.4,-120.841 477.048,-115.765"/>
<polygon fill="midnightblue" stroke="midnightblue" points="477.883,-119.165 486.875,-113.562 476.352,-112.334 477.883,-119.165"/>
</g>
<!-- Node6 -->
<g id="node11" class="node"><title>Node6</title>
<a xlink:href="../../d4/d99/class_u_b_platform_utils.html#ae595b29e794b20564550fd45515fc0a8" target="_top" xlink:title="UBPlatformUtils::application\lResourcesDirectory">
<polygon fill="white" stroke="black" points="844,-129 844,-163 984,-163 984,-129 844,-129"/>
<text text-anchor="start" x="852" y="-150" font-family="Helvetica,sans-Serif" font-size="10.00">UBPlatformUtils::application</text>
<text text-anchor="middle" x="914" y="-137" font-family="Helvetica,sans-Serif" font-size="10.00">ResourcesDirectory</text>
</a>
</g>
<!-- Node5&#45;&gt;Node6 -->
<g id="edge10" class="edge"><title>Node5&#45;&gt;Node6</title>
<path fill="none" stroke="midnightblue" d="M788.207,-144.075C802.933,-144.3 818.572,-144.539 833.635,-144.77"/>
<polygon fill="midnightblue" stroke="midnightblue" points="833.902,-148.274 843.954,-144.928 834.009,-141.275 833.902,-148.274"/>
</g>
<!-- Node7&#45;&gt;Node5 -->
<g id="edge14" class="edge"><title>Node7&#45;&gt;Node5</title>
<path fill="none" stroke="midnightblue" d="M582.344,-113.51C606.02,-118.657 634.719,-124.895 659.611,-130.307"/>
<polygon fill="midnightblue" stroke="midnightblue" points="659.145,-133.787 669.66,-132.491 660.632,-126.947 659.145,-133.787"/>
</g>
<!-- Node8 -->
<g id="node16" class="node"><title>Node8</title>
<a xlink:href="../../db/d66/class_u_b_settings.html#aea5fec9db96c03162c2ce1d5d4c41ab0" target="_top" xlink:title="UBSettings::replaceWildcard">
<polygon fill="white" stroke="black" points="646.5,-92.5 646.5,-113.5 789.5,-113.5 789.5,-92.5 646.5,-92.5"/>
<text text-anchor="middle" x="718" y="-100.5" font-family="Helvetica,sans-Serif" font-size="10.00">UBSettings::replaceWildcard</text>
</a>
</g>
<!-- Node7&#45;&gt;Node8 -->
<g id="edge16" class="edge"><title>Node7&#45;&gt;Node8</title>
<path fill="none" stroke="midnightblue" d="M610.168,-103C618.766,-103 627.555,-103 636.221,-103"/>
<polygon fill="midnightblue" stroke="midnightblue" points="636.319,-106.5 646.319,-103 636.319,-99.5001 636.319,-106.5"/>
</g>
<!-- Node10 -->
<g id="node20" class="node"><title>Node10</title>
<a xlink:href="../../db/d66/class_u_b_settings.html#ac0b3c85870c353e48b7d2cfdff9e0eaa" target="_top" xlink:title="UBSettings::checkDirectory">
<polygon fill="white" stroke="black" points="648.5,-52.5 648.5,-73.5 787.5,-73.5 787.5,-52.5 648.5,-52.5"/>
<text text-anchor="middle" x="718" y="-60.5" font-family="Helvetica,sans-Serif" font-size="10.00">UBSettings::checkDirectory</text>
</a>
</g>
<!-- Node7&#45;&gt;Node10 -->
<g id="edge20" class="edge"><title>Node7&#45;&gt;Node10</title>
<path fill="none" stroke="midnightblue" d="M582.344,-92.4905C606.02,-87.3434 634.719,-81.1046 659.611,-75.6933"/>
<polygon fill="midnightblue" stroke="midnightblue" points="660.632,-79.0532 669.66,-73.5087 659.145,-72.213 660.632,-79.0532"/>
</g>
<!-- Node11 -->
<g id="node22" class="node"><title>Node11</title>
<a xlink:href="../../d2/d7a/class_u_b_file_system_utils.html#af850f64fdd630fc78510c856f00ffa4f" target="_top" xlink:title="UBFileSystemUtils:\l:normalizeFilePath">
<polygon fill="white" stroke="black" points="666,-0 666,-34 770,-34 770,-0 666,-0"/>
<text text-anchor="start" x="674" y="-21" font-family="Helvetica,sans-Serif" font-size="10.00">UBFileSystemUtils:</text>
<text text-anchor="middle" x="718" y="-8" font-family="Helvetica,sans-Serif" font-size="10.00">:normalizeFilePath</text>
</a>
</g>
<!-- Node7&#45;&gt;Node11 -->
<g id="edge22" class="edge"><title>Node7&#45;&gt;Node11</title>
<path fill="none" stroke="midnightblue" d="M551.83,-92.4031C573.596,-79.7134 611.746,-58.2628 646,-43 649.892,-41.2657 653.939,-39.558 658.04,-37.8974"/>
<polygon fill="midnightblue" stroke="midnightblue" points="659.634,-41.0316 667.662,-34.1179 657.075,-34.5162 659.634,-41.0316"/>
</g>
<!-- Node9 -->
<g id="node18" class="node"><title>Node9</title>
<a xlink:href="../../d4/d99/class_u_b_platform_utils.html#a4ff6063df12b6d4d0c60c1a17b434599" target="_top" xlink:title="UBPlatformUtils::osUserLoginName">
<polygon fill="white" stroke="black" points="826.5,-89.5 826.5,-110.5 1001.5,-110.5 1001.5,-89.5 826.5,-89.5"/>
<text text-anchor="middle" x="914" y="-97.5" font-family="Helvetica,sans-Serif" font-size="10.00">UBPlatformUtils::osUserLoginName</text>
</a>
</g>
<!-- Node8&#45;&gt;Node9 -->
<g id="edge18" class="edge"><title>Node8&#45;&gt;Node9</title>
<path fill="none" stroke="midnightblue" d="M789.592,-101.904C798.253,-101.772 807.211,-101.635 816.167,-101.497"/>
<polygon fill="midnightblue" stroke="midnightblue" points="816.316,-104.996 826.261,-101.343 816.209,-97.9965 816.316,-104.996"/>
</g>
</g>
</svg>
