<?xml version="1.0" encoding="UTF-8" standalone="no"?>
<!DOCTYPE svg PUBLIC "-//W3C//DTD SVG 1.1//EN"
 "http://www.w3.org/Graphics/SVG/1.1/DTD/svg11.dtd">
<!-- Generated by graphviz version 2.26.3 (20100126.1600)
 -->
<!-- Title: UBExportPDF.h Pages: 1 -->
<svg width="548pt" height="88pt"
 viewBox="0.00 0.00 548.00 88.00" xmlns="http://www.w3.org/2000/svg" xmlns:xlink="http://www.w3.org/1999/xlink">
<g id="graph1" class="graph" transform="scale(1 1) rotate(0) translate(4 84)">
<title>UBExportPDF.h</title>
<polygon fill="white" stroke="white" points="-4,5 -4,-84 545,-84 545,5 -4,5"/>
<!-- Node1 -->
<g id="node1" class="node"><title>Node1</title>
<polygon fill="#bfbfbf" stroke="black" points="205,-58.5 205,-79.5 293,-79.5 293,-58.5 205,-58.5"/>
<text text-anchor="middle" x="249" y="-66.5" font-family="Helvetica,sans-Serif" font-size="10.00">UBExportPDF.h</text>
</g>
<!-- Node2 -->
<g id="node3" class="node"><title>Node2</title>
<a xlink:href="../../d6/d4c/_u_b_export_full_p_d_f_8cpp.html" target="_top" xlink:title="UBExportFullPDF.cpp">
<polygon fill="white" stroke="black" points="0,-0.5 0,-21.5 114,-21.5 114,-0.5 0,-0.5"/>
<text text-anchor="middle" x="57" y="-8.5" font-family="Helvetica,sans-Serif" font-size="10.00">UBExportFullPDF.cpp</text>
</a>
</g>
<!-- Node1&#45;&gt;Node2 -->
<g id="edge2" class="edge"><title>Node1&#45;&gt;Node2</title>
<path fill="none" stroke="midnightblue" d="M204.464,-55.5464C170.167,-45.1857 123.428,-31.0668 91.835,-21.5231"/>
<polygon fill="midnightblue" stroke="midnightblue" points="203.645,-58.9553 214.23,-58.4966 205.67,-52.2543 203.645,-58.9553"/>
</g>
<!-- Node3 -->
<g id="node5" class="node"><title>Node3</title>
<a xlink:href="../../d5/d5d/_u_b_export_p_d_f_8cpp.html" target="_top" xlink:title="UBExportPDF.cpp">
<polygon fill="white" stroke="black" points="132,-0.5 132,-21.5 230,-21.5 230,-0.5 132,-0.5"/>
<text text-anchor="middle" x="181" y="-8.5" font-family="Helvetica,sans-Serif" font-size="10.00">UBExportPDF.cpp</text>
</a>
</g>
<!-- Node1&#45;&gt;Node3 -->
<g id="edge4" class="edge"><title>Node1&#45;&gt;Node3</title>
<path fill="none" stroke="midnightblue" d="M228.706,-51.6908C217.227,-41.8996 203.244,-29.973 193.393,-21.5707"/>
<polygon fill="midnightblue" stroke="midnightblue" points="226.648,-54.5353 236.528,-58.3619 231.191,-49.2095 226.648,-54.5353"/>
</g>
<!-- Node4 -->
<g id="node7" class="node"><title>Node4</title>
<a xlink:href="../../d7/d99/_u_b_persistence_manager_8cpp.html" target="_top" xlink:title="UBPersistenceManager.cpp">
<polygon fill="white" stroke="black" points="247.5,-0.5 247.5,-21.5 386.5,-21.5 386.5,-0.5 247.5,-0.5"/>
<text text-anchor="middle" x="317" y="-8.5" font-family="Helvetica,sans-Serif" font-size="10.00">UBPersistenceManager.cpp</text>
</a>
</g>
<!-- Node1&#45;&gt;Node4 -->
<g id="edge6" class="edge"><title>Node1&#45;&gt;Node4</title>
<path fill="none" stroke="midnightblue" d="M269.294,-51.6908C280.773,-41.8996 294.756,-29.973 304.607,-21.5707"/>
<polygon fill="midnightblue" stroke="midnightblue" points="266.809,-49.2095 261.472,-58.3619 271.352,-54.5353 266.809,-49.2095"/>
</g>
<!-- Node5 -->
<g id="node9" class="node"><title>Node5</title>
<a xlink:href="../../d4/d39/_u_b_document_controller_8cpp.html" target="_top" xlink:title="UBDocumentController.cpp">
<polygon fill="white" stroke="black" points="403.5,-0.5 403.5,-21.5 540.5,-21.5 540.5,-0.5 403.5,-0.5"/>
<text text-anchor="middle" x="472" y="-8.5" font-family="Helvetica,sans-Serif" font-size="10.00">UBDocumentController.cpp</text>
</a>
</g>
<!-- Node1&#45;&gt;Node5 -->
<g id="edge8" class="edge"><title>Node1&#45;&gt;Node5</title>
<path fill="none" stroke="midnightblue" d="M299.196,-55.9447C339.161,-45.5501 394.374,-31.1897 431.541,-21.5231"/>
<polygon fill="midnightblue" stroke="midnightblue" points="298.181,-52.5921 289.384,-58.4966 299.943,-59.3667 298.181,-52.5921"/>
</g>
</g>
</svg>
