<?xml version="1.0" encoding="UTF-8" standalone="no"?>
<!DOCTYPE svg PUBLIC "-//W3C//DTD SVG 1.1//EN"
 "http://www.w3.org/Graphics/SVG/1.1/DTD/svg11.dtd">
<!-- Generated by graphviz version 2.26.3 (20100126.1600)
 -->
<!-- Title: UBWidgetMessageAPI.h Pages: 1 -->
<!--zoomable 378 -->
<svg id="main" version="1.1" xmlns="http://www.w3.org/2000/svg" xmlns:xlink="http://www.w3.org/1999/xlink" xml:space="preserve" onload="init(evt)">
        <defs>
                <circle id="rim" cx="0" cy="0" r="7"/>
                <circle id="rim2" cx="0" cy="0" r="3.5"/>
                <g id="zoomPlus">
                        <use xlink:href="#rim" fill="#404040">
                                <set attributeName="fill" to="#808080" begin="zoomplus.mouseover" end="zoomplus.mouseout"/>
                        </use>
                        <path d="M-4,0h8M0,-4v8" fill="none" stroke="white" stroke-width="1.5" pointer-events="none"/>
                </g>
                <g id="zoomMin">
                        <use xlink:href="#rim" fill="#404040">
                                <set attributeName="fill" to="#808080" begin="zoomminus.mouseover" end="zoomminus.mouseout"/>
                        </use>
                        <path d="M-4,0h8" fill="none" stroke="white" stroke-width="1.5" pointer-events="none"/>
                </g>
                <g id="dirArrow">
                        <path fill="none" stroke="white" stroke-width="1.5" d="M0,-3.0v7 M-2.5,-0.5L0,-3.0L2.5,-0.5"/>
                </g>
               <g id="resetDef">
                       <use xlink:href="#rim2" fill="#404040">
                               <set attributeName="fill" to="#808080" begin="reset.mouseover" end="reset.mouseout"/>
                       </use>
               </g>
        </defs>

<script type="text/javascript">
var viewWidth = 768;
var viewHeight = 378;
var sectionId = 'dynsection-0';
</script>
<script xlink:href="../../svgpan.js"/>
<svg id="graph" class="graph">
<g id="viewport">
<title>UBWidgetMessageAPI.h</title>
<polygon fill="white" stroke="white" points="-4,5 -4,-374 765,-374 765,5 -4,5"/>
<!-- Node1 -->
<g id="node1" class="node"><title>Node1</title>
<polygon fill="#bfbfbf" stroke="black" points="504,-348.5 504,-369.5 630,-369.5 630,-348.5 504,-348.5"/>
<text text-anchor="middle" x="567" y="-356.5" font-family="Helvetica,sans-Serif" font-size="10.00">UBWidgetMessageAPI.h</text>
</g>
<!-- Node2 -->
<g id="node3" class="node"><title>Node2</title>
<polygon fill="white" stroke="#bfbfbf" points="608,-58.5 608,-79.5 656,-79.5 656,-58.5 608,-58.5"/>
<text text-anchor="middle" x="632" y="-66.5" font-family="Helvetica,sans-Serif" font-size="10.00">QtCore</text>
</g>
<!-- Node1&#45;&gt;Node2 -->
<g id="edge2" class="edge"><title>Node1&#45;&gt;Node2</title>
<path fill="none" stroke="midnightblue" d="M628.863,-348.495C685.315,-334.946 760,-305.256 760,-243 760,-243 760,-243 760,-185 760,-133.853 703.191,-99.3709 665.265,-82.0496"/>
<polygon fill="midnightblue" stroke="midnightblue" points="666.639,-78.8305 656.076,-78.0159 663.826,-85.2401 666.639,-78.8305"/>
</g>
<!-- Node3 -->
<g id="node5" class="node"><title>Node3</title>
<a xlink:href="../../d7/dd8/_u_b_graphics_widget_item_8h.html" target="_top" xlink:title="domain/UBGraphicsWidgetItem.h">
<polygon fill="white" stroke="black" points="292.5,-290.5 292.5,-311.5 455.5,-311.5 455.5,-290.5 292.5,-290.5"/>
<text text-anchor="middle" x="374" y="-298.5" font-family="Helvetica,sans-Serif" font-size="10.00">domain/UBGraphicsWidgetItem.h</text>
</a>
</g>
<!-- Node1&#45;&gt;Node3 -->
<g id="edge4" class="edge"><title>Node1&#45;&gt;Node3</title>
<path fill="none" stroke="midnightblue" d="M532.049,-348.497C500.313,-338.959 453.332,-324.841 418.839,-314.475"/>
<polygon fill="midnightblue" stroke="midnightblue" points="419.601,-311.049 409.016,-311.523 417.586,-317.753 419.601,-311.049"/>
</g>
<!-- Node4 -->
<g id="node7" class="node"><title>Node4</title>
<polygon fill="white" stroke="#bfbfbf" points="397,-0.5 397,-21.5 439,-21.5 439,-0.5 397,-0.5"/>
<text text-anchor="middle" x="418" y="-8.5" font-family="Helvetica,sans-Serif" font-size="10.00">QtGui</text>
</g>
<!-- Node3&#45;&gt;Node4 -->
<g id="edge6" class="edge"><title>Node3&#45;&gt;Node4</title>
<path fill="none" stroke="midnightblue" d="M455.151,-290.448C557.983,-274.759 722,-240.963 722,-185 722,-185 722,-185 722,-127 722,-91.7737 711.753,-78.3511 683,-58 645.763,-31.6435 511.142,-18.149 449.372,-13.23"/>
<polygon fill="midnightblue" stroke="midnightblue" points="449.31,-9.71493 439.071,-12.4358 448.772,-16.6942 449.31,-9.71493"/>
</g>
<!-- Node5 -->
<g id="node9" class="node"><title>Node5</title>
<polygon fill="white" stroke="#bfbfbf" points="-0.5,-232.5 -0.5,-253.5 58.5,-253.5 58.5,-232.5 -0.5,-232.5"/>
<text text-anchor="middle" x="29" y="-240.5" font-family="Helvetica,sans-Serif" font-size="10.00">QtWebKit</text>
</g>
<!-- Node3&#45;&gt;Node5 -->
<g id="edge8" class="edge"><title>Node3&#45;&gt;Node5</title>
<path fill="none" stroke="midnightblue" d="M292.348,-291.434C232.608,-283.756 149.49,-271.666 68.6254,-254.176"/>
<polygon fill="midnightblue" stroke="midnightblue" points="69.2944,-250.739 58.7767,-252.016 67.7949,-257.577 69.2944,-250.739"/>
</g>
<!-- Node6 -->
<g id="node11" class="node"><title>Node6</title>
<polygon fill="white" stroke="#bfbfbf" points="75.5,-232.5 75.5,-253.5 156.5,-253.5 156.5,-232.5 75.5,-232.5"/>
<text text-anchor="middle" x="116" y="-240.5" font-family="Helvetica,sans-Serif" font-size="10.00">QDomElement</text>
</g>
<!-- Node3&#45;&gt;Node6 -->
<g id="edge10" class="edge"><title>Node3&#45;&gt;Node6</title>
<path fill="none" stroke="midnightblue" d="M327.278,-290.497C281.958,-280.308 213.383,-264.892 166.745,-254.408"/>
<polygon fill="midnightblue" stroke="midnightblue" points="167.375,-250.962 156.851,-252.184 165.84,-257.792 167.375,-250.962"/>
</g>
<!-- Node7 -->
<g id="node13" class="node"><title>Node7</title>
<a xlink:href="../../d6/dd0/_u_b_8h.html" target="_top" xlink:title="core/UB.h">
<polygon fill="white" stroke="black" points="209.5,-58.5 209.5,-79.5 270.5,-79.5 270.5,-58.5 209.5,-58.5"/>
<text text-anchor="middle" x="240" y="-66.5" font-family="Helvetica,sans-Serif" font-size="10.00">core/UB.h</text>
</a>
</g>
<!-- Node3&#45;&gt;Node7 -->
<g id="edge12" class="edge"><title>Node3&#45;&gt;Node7</title>
<path fill="none" stroke="midnightblue" d="M358.264,-290.291C334.175,-273.118 288.202,-237.14 262,-196 241.174,-163.301 238.46,-116.694 238.882,-89.9805"/>
<polygon fill="midnightblue" stroke="midnightblue" points="242.384,-89.9566 239.211,-79.8483 235.388,-89.7294 242.384,-89.9566"/>
</g>
<!-- Node8 -->
<g id="node16" class="node"><title>Node8</title>
<a xlink:href="../../d6/d46/_u_b_item_8h.html" target="_top" xlink:title="UBItem.h">
<polygon fill="white" stroke="black" points="344.5,-232.5 344.5,-253.5 403.5,-253.5 403.5,-232.5 344.5,-232.5"/>
<text text-anchor="middle" x="374" y="-240.5" font-family="Helvetica,sans-Serif" font-size="10.00">UBItem.h</text>
</a>
</g>
<!-- Node3&#45;&gt;Node8 -->
<g id="edge16" class="edge"><title>Node3&#45;&gt;Node8</title>
<path fill="none" stroke="midnightblue" d="M374,-290.362C374,-282.922 374,-272.743 374,-263.728"/>
<polygon fill="midnightblue" stroke="midnightblue" points="377.5,-263.571 374,-253.571 370.5,-263.571 377.5,-263.571"/>
</g>
<!-- Node15 -->
<g id="node38" class="node"><title>Node15</title>
<a xlink:href="../../d1/de0/_u_b_resizable_graphics_item_8h.html" target="_top" xlink:title="UBResizableGraphicsItem.h">
<polygon fill="white" stroke="black" points="553.5,-174.5 553.5,-195.5 694.5,-195.5 694.5,-174.5 553.5,-174.5"/>
<text text-anchor="middle" x="624" y="-182.5" font-family="Helvetica,sans-Serif" font-size="10.00">UBResizableGraphicsItem.h</text>
</a>
</g>
<!-- Node3&#45;&gt;Node15 -->
<g id="edge46" class="edge"><title>Node3&#45;&gt;Node15</title>
<path fill="none" stroke="midnightblue" d="M397.071,-290.295C441.927,-269.482 540.967,-223.527 592.086,-199.808"/>
<polygon fill="midnightblue" stroke="midnightblue" points="593.748,-202.896 601.346,-195.512 590.801,-196.546 593.748,-202.896"/>
</g>
<!-- Node7&#45;&gt;Node4 -->
<g id="edge14" class="edge"><title>Node7&#45;&gt;Node4</title>
<path fill="none" stroke="midnightblue" d="M270.599,-59.0294C303.158,-48.4205 354.386,-31.7283 387.07,-21.0783"/>
<polygon fill="midnightblue" stroke="midnightblue" points="388.559,-24.2742 396.983,-17.8482 386.391,-17.6186 388.559,-24.2742"/>
</g>
<!-- Node8&#45;&gt;Node4 -->
<g id="edge18" class="edge"><title>Node8&#45;&gt;Node4</title>
<path fill="none" stroke="midnightblue" d="M403.11,-232.447C454.838,-213.035 559.214,-170.662 579,-138 597.361,-107.69 548.817,-61.9955 544,-58 516.433,-35.135 476.661,-22.7962 449.209,-16.5786"/>
<polygon fill="midnightblue" stroke="midnightblue" points="449.851,-13.137 439.342,-14.4862 448.399,-19.9847 449.851,-13.137"/>
</g>
<!-- Node8&#45;&gt;Node7 -->
<g id="edge44" class="edge"><title>Node8&#45;&gt;Node7</title>
<path fill="none" stroke="midnightblue" d="M344.242,-234.918C323.514,-227.844 296.694,-215.575 280,-196 253.632,-165.082 244.616,-116.745 241.554,-89.4881"/>
<polygon fill="midnightblue" stroke="midnightblue" points="245.037,-89.1428 240.598,-79.5228 238.069,-89.8114 245.037,-89.1428"/>
</g>
<!-- Node9 -->
<g id="node19" class="node"><title>Node9</title>
<a xlink:href="../../d0/d4e/_u_b_graphics_item_delegate_8h.html" target="_top" xlink:title="domain/UBGraphicsItemDelegate.h">
<polygon fill="white" stroke="black" points="288.5,-174.5 288.5,-195.5 459.5,-195.5 459.5,-174.5 288.5,-174.5"/>
<text text-anchor="middle" x="374" y="-182.5" font-family="Helvetica,sans-Serif" font-size="10.00">domain/UBGraphicsItemDelegate.h</text>
</a>
</g>
<!-- Node8&#45;&gt;Node9 -->
<g id="edge20" class="edge"><title>Node8&#45;&gt;Node9</title>
<path fill="none" stroke="midnightblue" d="M374,-232.362C374,-224.922 374,-214.743 374,-205.728"/>
<polygon fill="midnightblue" stroke="midnightblue" points="377.5,-205.571 374,-195.571 370.5,-205.571 377.5,-205.571"/>
</g>
<!-- Node9&#45;&gt;Node4 -->
<g id="edge22" class="edge"><title>Node9&#45;&gt;Node4</title>
<path fill="none" stroke="midnightblue" d="M353.645,-174.453C340.523,-166.416 324.549,-154.009 317,-138 312.83,-129.156 313.64,-125.182 317,-116 331.071,-77.5403 367.744,-45.7284 392.801,-27.5395"/>
<polygon fill="midnightblue" stroke="midnightblue" points="394.958,-30.3015 401.123,-21.6854 390.93,-24.5761 394.958,-30.3015"/>
</g>
<!-- Node9&#45;&gt;Node7 -->
<g id="edge28" class="edge"><title>Node9&#45;&gt;Node7</title>
<path fill="none" stroke="midnightblue" d="M344.86,-174.381C325.964,-166.456 301.668,-154.204 284,-138 268.857,-124.112 256.781,-103.894 249.139,-88.9302"/>
<polygon fill="midnightblue" stroke="midnightblue" points="252.098,-87.0121 244.574,-79.5528 245.804,-90.076 252.098,-87.0121"/>
</g>
<!-- Node10 -->
<g id="node22" class="node"><title>Node10</title>
<polygon fill="white" stroke="#bfbfbf" points="440,-116.5 440,-137.5 484,-137.5 484,-116.5 440,-116.5"/>
<text text-anchor="middle" x="462" y="-124.5" font-family="Helvetica,sans-Serif" font-size="10.00">QtSvg</text>
</g>
<!-- Node9&#45;&gt;Node10 -->
<g id="edge24" class="edge"><title>Node9&#45;&gt;Node10</title>
<path fill="none" stroke="midnightblue" d="M390.141,-174.362C403.414,-165.614 422.432,-153.079 437.57,-143.101"/>
<polygon fill="midnightblue" stroke="midnightblue" points="439.538,-145.996 445.962,-137.571 435.686,-140.151 439.538,-145.996"/>
</g>
<!-- Node11 -->
<g id="node24" class="node"><title>Node11</title>
<polygon fill="white" stroke="#bfbfbf" points="501.5,-116.5 501.5,-137.5 570.5,-137.5 570.5,-116.5 501.5,-116.5"/>
<text text-anchor="middle" x="536" y="-124.5" font-family="Helvetica,sans-Serif" font-size="10.00">QMimeData</text>
</g>
<!-- Node9&#45;&gt;Node11 -->
<g id="edge26" class="edge"><title>Node9&#45;&gt;Node11</title>
<path fill="none" stroke="midnightblue" d="M403.337,-174.497C429.519,-165.123 468.06,-151.324 496.863,-141.012"/>
<polygon fill="midnightblue" stroke="midnightblue" points="498.373,-144.189 506.608,-137.523 496.013,-137.599 498.373,-144.189"/>
</g>
<!-- Node12 -->
<g id="node27" class="node"><title>Node12</title>
<a xlink:href="../../d1/d92/_u_b_settings_8h.html" target="_top" xlink:title="core/UBSettings.h">
<polygon fill="white" stroke="black" points="325.5,-116.5 325.5,-137.5 422.5,-137.5 422.5,-116.5 325.5,-116.5"/>
<text text-anchor="middle" x="374" y="-124.5" font-family="Helvetica,sans-Serif" font-size="10.00">core/UBSettings.h</text>
</a>
</g>
<!-- Node9&#45;&gt;Node12 -->
<g id="edge30" class="edge"><title>Node9&#45;&gt;Node12</title>
<path fill="none" stroke="midnightblue" d="M374,-174.362C374,-166.922 374,-156.743 374,-147.728"/>
<polygon fill="midnightblue" stroke="midnightblue" points="377.5,-147.571 374,-137.571 370.5,-147.571 377.5,-147.571"/>
</g>
<!-- Node12&#45;&gt;Node2 -->
<g id="edge32" class="edge"><title>Node12&#45;&gt;Node2</title>
<path fill="none" stroke="midnightblue" d="M420.722,-116.497C471.78,-105.018 552.352,-86.9053 597.822,-76.6835"/>
<polygon fill="midnightblue" stroke="midnightblue" points="598.789,-80.0535 607.778,-74.4453 597.254,-73.2239 598.789,-80.0535"/>
</g>
<!-- Node12&#45;&gt;Node4 -->
<g id="edge34" class="edge"><title>Node12&#45;&gt;Node4</title>
<path fill="none" stroke="midnightblue" d="M371.643,-116.264C369.094,-102.295 366.342,-77.3859 374,-58 378.528,-46.5388 387.316,-36.2323 395.856,-28.2117"/>
<polygon fill="midnightblue" stroke="midnightblue" points="398.28,-30.7411 403.499,-21.5208 393.67,-25.474 398.28,-30.7411"/>
</g>
<!-- Node12&#45;&gt;Node7 -->
<g id="edge38" class="edge"><title>Node12&#45;&gt;Node7</title>
<path fill="none" stroke="midnightblue" d="M349.734,-116.497C328.522,-107.315 297.502,-93.8889 273.85,-83.6516"/>
<polygon fill="midnightblue" stroke="midnightblue" points="275.106,-80.3815 264.539,-79.6212 272.326,-86.8055 275.106,-80.3815"/>
</g>
<!-- Node13 -->
<g id="node31" class="node"><title>Node13</title>
<polygon fill="white" stroke="#bfbfbf" points="471,-58.5 471,-79.5 535,-79.5 535,-58.5 471,-58.5"/>
<text text-anchor="middle" x="503" y="-66.5" font-family="Helvetica,sans-Serif" font-size="10.00">QtNetwork</text>
</g>
<!-- Node12&#45;&gt;Node13 -->
<g id="edge36" class="edge"><title>Node12&#45;&gt;Node13</title>
<path fill="none" stroke="midnightblue" d="M397.361,-116.497C417.691,-107.356 447.378,-94.0082 470.109,-83.7883"/>
<polygon fill="midnightblue" stroke="midnightblue" points="471.692,-86.9142 479.377,-79.6212 468.821,-80.5298 471.692,-86.9142"/>
</g>
<!-- Node14 -->
<g id="node34" class="node"><title>Node14</title>
<a xlink:href="../../d3/d76/_u_b_setting_8h.html" target="_top" xlink:title="UBSetting.h">
<polygon fill="white" stroke="black" points="383,-58.5 383,-79.5 453,-79.5 453,-58.5 383,-58.5"/>
<text text-anchor="middle" x="418" y="-66.5" font-family="Helvetica,sans-Serif" font-size="10.00">UBSetting.h</text>
</a>
</g>
<!-- Node12&#45;&gt;Node14 -->
<g id="edge40" class="edge"><title>Node12&#45;&gt;Node14</title>
<path fill="none" stroke="midnightblue" d="M382.07,-116.362C388.149,-108.35 396.637,-97.1605 403.837,-87.6696"/>
<polygon fill="midnightblue" stroke="midnightblue" points="406.725,-89.653 409.981,-79.5707 401.149,-85.4222 406.725,-89.653"/>
</g>
<!-- Node14&#45;&gt;Node4 -->
<g id="edge42" class="edge"><title>Node14&#45;&gt;Node4</title>
<path fill="none" stroke="midnightblue" d="M418,-58.3619C418,-50.9219 418,-40.7427 418,-31.7276"/>
<polygon fill="midnightblue" stroke="midnightblue" points="421.5,-31.5706 418,-21.5707 414.5,-31.5707 421.5,-31.5706"/>
</g>
<!-- Node15&#45;&gt;Node4 -->
<g id="edge48" class="edge"><title>Node15&#45;&gt;Node4</title>
<path fill="none" stroke="midnightblue" d="M633.565,-174.198C653.316,-150.558 694.398,-93.5189 665,-58 637.957,-25.3254 509.638,-15.1744 449.386,-12.1799"/>
<polygon fill="midnightblue" stroke="midnightblue" points="449.456,-8.6795 439.306,-11.7145 449.134,-15.672 449.456,-8.6795"/>
</g>
</g>
</svg>
        <g id="navigator" transform="translate(0 0)" fill="#404254">
                <rect fill="#f2f5e9" fill-opacity="0.5" stroke="#606060" stroke-width=".5" x="0" y="0" width="60" height="60"/>
                <use id="zoomplus" xlink:href="#zoomPlus" x="17" y="9" onmousedown="handleZoom(evt,'in')"/>
                <use id="zoomminus" xlink:href="#zoomMin" x="42" y="9" onmousedown="handleZoom(evt,'out')"/>
                <use id="reset" xlink:href="#resetDef" x="30" y="36" onmousedown="handleReset()"/>
                <g id="arrowUp" xlink:href="#dirArrow" transform="translate(30 24)" onmousedown="handlePan(0,-1)">
                  <use xlink:href="#rim" fill="#404040">
                        <set attributeName="fill" to="#808080" begin="arrowUp.mouseover" end="arrowUp.mouseout"/>
                  </use>
                  <path fill="none" stroke="white" stroke-width="1.5" d="M0,-3.0v7 M-2.5,-0.5L0,-3.0L2.5,-0.5"/>
                </g>
                <g id="arrowRight" xlink:href="#dirArrow" transform="rotate(90) translate(36 -43)" onmousedown="handlePan(1,0)">
                  <use xlink:href="#rim" fill="#404040">
                        <set attributeName="fill" to="#808080" begin="arrowRight.mouseover" end="arrowRight.mouseout"/>
                  </use>
                  <path fill="none" stroke="white" stroke-width="1.5" d="M0,-3.0v7 M-2.5,-0.5L0,-3.0L2.5,-0.5"/>
                </g>
                <g id="arrowDown" xlink:href="#dirArrow" transform="rotate(180) translate(-30 -48)" onmousedown="handlePan(0,1)">
                  <use xlink:href="#rim" fill="#404040">
                        <set attributeName="fill" to="#808080" begin="arrowDown.mouseover" end="arrowDown.mouseout"/>
                  </use>
                  <path fill="none" stroke="white" stroke-width="1.5" d="M0,-3.0v7 M-2.5,-0.5L0,-3.0L2.5,-0.5"/>
                </g>
                <g id="arrowLeft" xlink:href="#dirArrow" transform="rotate(270) translate(-36 17)" onmousedown="handlePan(-1,0)">
                  <use xlink:href="#rim" fill="#404040">
                        <set attributeName="fill" to="#808080" begin="arrowLeft.mouseover" end="arrowLeft.mouseout"/>
                  </use>
                  <path fill="none" stroke="white" stroke-width="1.5" d="M0,-3.0v7 M-2.5,-0.5L0,-3.0L2.5,-0.5"/>
                </g>
        </g>
        <svg viewBox="0 0 15 15" width="100%" height="30px" preserveAspectRatio="xMaxYMin meet">
         <g id="arrow_out" transform="scale(0.3 0.3)">
          <a xlink:href="_u_b_widget_message_a_p_i_8h__incl_org.svg" target="_base">
           <rect id="button" ry="5" rx="5" y="6" x="6" height="38" width="38"
                fill="#f2f5e9" fill-opacity="0.5" stroke="#606060" stroke-width="1.0"/>
           <path id="arrow"
             d="M 11.500037,31.436501 C 11.940474,20.09759 22.043105,11.32322 32.158766,21.979434 L 37.068811,17.246167 C 37.068811,17.246167 37.088388,32 37.088388,32 L 22.160133,31.978069 C 22.160133,31.978069 26.997745,27.140456 26.997745,27.140456 C 18.528582,18.264221 13.291696,25.230495 11.500037,31.436501 z"
             style="fill:#404040;"/>
          </a>
         </g>
        </svg>
</svg>
