<?xml version="1.0" encoding="UTF-8" standalone="no"?>
<!DOCTYPE svg PUBLIC "-//W3C//DTD SVG 1.1//EN"
 "http://www.w3.org/Graphics/SVG/1.1/DTD/svg11.dtd">
<!-- Generated by graphviz version 2.26.3 (20100126.1600)
 -->
<!-- Title: UBCustomCaptureWindow::getSelectedPixmap Pages: 1 -->
<svg width="544pt" height="82pt"
 viewBox="0.00 0.00 544.00 82.00" xmlns="http://www.w3.org/2000/svg" xmlns:xlink="http://www.w3.org/1999/xlink">
<g id="graph1" class="graph" transform="scale(1 1) rotate(0) translate(4 78)">
<title>UBCustomCaptureWindow::getSelectedPixmap</title>
<polygon fill="white" stroke="white" points="-4,5 -4,-78 541,-78 541,5 -4,5"/>
<!-- Node1 -->
<g id="node1" class="node"><title>Node1</title>
<polygon fill="#bfbfbf" stroke="black" points="0.5,-17 0.5,-51 135.5,-51 135.5,-17 0.5,-17"/>
<text text-anchor="start" x="8.5" y="-38" font-family="Helvetica,sans-Serif" font-size="10.00">UBCustomCaptureWindow</text>
<text text-anchor="middle" x="68" y="-25" font-family="Helvetica,sans-Serif" font-size="10.00">::getSelectedPixmap</text>
</g>
<!-- Node2 -->
<g id="node3" class="node"><title>Node2</title>
<a xlink:href="../../d7/db7/class_u_b_desktop_annotation_controller.html#ae51d5a0076cc7e04d4db8d5881b64c4a" target="_top" xlink:title="UBDesktopAnnotationController\l::customCapture">
<polygon fill="white" stroke="black" points="177,-40 177,-74 333,-74 333,-40 177,-40"/>
<text text-anchor="start" x="185" y="-61" font-family="Helvetica,sans-Serif" font-size="10.00">UBDesktopAnnotationController</text>
<text text-anchor="middle" x="255" y="-48" font-family="Helvetica,sans-Serif" font-size="10.00">::customCapture</text>
</a>
</g>
<!-- Node1&#45;&gt;Node2 -->
<g id="edge2" class="edge"><title>Node1&#45;&gt;Node2</title>
<path fill="none" stroke="midnightblue" d="M145.68,-43.5543C155.956,-44.8181 166.494,-46.1142 176.779,-47.3792"/>
<polygon fill="midnightblue" stroke="midnightblue" points="145.864,-40.0505 135.511,-42.3035 145.009,-46.9982 145.864,-40.0505"/>
</g>
<!-- Node4 -->
<g id="node7" class="node"><title>Node4</title>
<a xlink:href="../../df/d50/class_u_b_web_controller.html#a9064dd8d6030e3ca52233b36acbfa66a" target="_top" xlink:title="UBWebController::customCapture">
<polygon fill="white" stroke="black" points="172,-0.5 172,-21.5 338,-21.5 338,-0.5 172,-0.5"/>
<text text-anchor="middle" x="255" y="-8.5" font-family="Helvetica,sans-Serif" font-size="10.00">UBWebController::customCapture</text>
</a>
</g>
<!-- Node1&#45;&gt;Node4 -->
<g id="edge6" class="edge"><title>Node1&#45;&gt;Node4</title>
<path fill="none" stroke="midnightblue" d="M145.61,-24.4544C154.302,-23.3853 163.184,-22.2929 171.941,-21.2158"/>
<polygon fill="midnightblue" stroke="midnightblue" points="145.009,-21.0018 135.511,-25.6965 145.864,-27.9495 145.009,-21.0018"/>
</g>
<!-- Node3 -->
<g id="node5" class="node"><title>Node3</title>
<a xlink:href="../../d7/db7/class_u_b_desktop_annotation_controller.html#a1e31fa6fa39f439312757baadcaae17a" target="_top" xlink:title="UBDesktopAnnotationController\l::UBDesktopAnnotationController">
<polygon fill="white" stroke="black" points="374,-40 374,-74 536,-74 536,-40 374,-40"/>
<text text-anchor="start" x="382" y="-61" font-family="Helvetica,sans-Serif" font-size="10.00">UBDesktopAnnotationController</text>
<text text-anchor="middle" x="455" y="-48" font-family="Helvetica,sans-Serif" font-size="10.00">::UBDesktopAnnotationController</text>
</a>
</g>
<!-- Node2&#45;&gt;Node3 -->
<g id="edge4" class="edge"><title>Node2&#45;&gt;Node3</title>
<path fill="none" stroke="midnightblue" d="M343.296,-57C353.478,-57 363.823,-57 373.904,-57"/>
<polygon fill="midnightblue" stroke="midnightblue" points="343.185,-53.5001 333.185,-57 343.184,-60.5001 343.185,-53.5001"/>
</g>
<!-- Node5 -->
<g id="node9" class="node"><title>Node5</title>
<a xlink:href="../../df/d50/class_u_b_web_controller.html#af73cfa36d5b743fa3a652e49dd7e4831" target="_top" xlink:title="UBWebController::setupPalettes">
<polygon fill="white" stroke="black" points="375.5,-0.5 375.5,-21.5 534.5,-21.5 534.5,-0.5 375.5,-0.5"/>
<text text-anchor="middle" x="455" y="-8.5" font-family="Helvetica,sans-Serif" font-size="10.00">UBWebController::setupPalettes</text>
</a>
</g>
<!-- Node4&#45;&gt;Node5 -->
<g id="edge8" class="edge"><title>Node4&#45;&gt;Node5</title>
<path fill="none" stroke="midnightblue" d="M348.268,-11C357.334,-11 366.474,-11 375.388,-11"/>
<polygon fill="midnightblue" stroke="midnightblue" points="348.081,-7.5001 338.08,-11 348.08,-14.5001 348.081,-7.5001"/>
</g>
</g>
</svg>
