<?xml version="1.0" encoding="UTF-8" standalone="no"?>
<!DOCTYPE svg PUBLIC "-//W3C//DTD SVG 1.1//EN"
 "http://www.w3.org/Graphics/SVG/1.1/DTD/svg11.dtd">
<!-- Generated by graphviz version 2.26.3 (20100126.1600)
 -->
<!-- Title: ub_message_output Pages: 1 -->
<svg width="440pt" height="76pt"
 viewBox="0.00 0.00 440.00 76.00" xmlns="http://www.w3.org/2000/svg" xmlns:xlink="http://www.w3.org/1999/xlink">
<g id="graph1" class="graph" transform="scale(1 1) rotate(0) translate(4 72)">
<title>ub_message_output</title>
<polygon fill="white" stroke="white" points="-4,5 -4,-72 437,-72 437,5 -4,5"/>
<!-- Node1 -->
<g id="node1" class="node"><title>Node1</title>
<polygon fill="#bfbfbf" stroke="black" points="0,-26.5 0,-47.5 104,-47.5 104,-26.5 0,-26.5"/>
<text text-anchor="middle" x="52" y="-34.5" font-family="Helvetica,sans-Serif" font-size="10.00">ub_message_output</text>
</g>
<!-- Node2 -->
<g id="node3" class="node"><title>Node2</title>
<a xlink:href="../../d8/d81/class_u_b_application.html#a71985ce0344b74bc3e5ed1d7f44a2017" target="_top" xlink:title="UBApplication::app">
<polygon fill="white" stroke="black" points="165.5,-46.5 165.5,-67.5 266.5,-67.5 266.5,-46.5 165.5,-46.5"/>
<text text-anchor="middle" x="216" y="-54.5" font-family="Helvetica,sans-Serif" font-size="10.00">UBApplication::app</text>
</a>
</g>
<!-- Node1&#45;&gt;Node2 -->
<g id="edge2" class="edge"><title>Node1&#45;&gt;Node2</title>
<path fill="none" stroke="midnightblue" d="M104.342,-43.3831C120.489,-45.3523 138.409,-47.5377 155.082,-49.5709"/>
<polygon fill="midnightblue" stroke="midnightblue" points="154.924,-53.0776 165.275,-50.814 155.772,-46.1291 154.924,-53.0776"/>
</g>
<!-- Node3 -->
<g id="node5" class="node"><title>Node3</title>
<a xlink:href="../../db/d66/class_u_b_settings.html#af38d2ad231149df734ca7b5486356500" target="_top" xlink:title="UBSettings::userDataDirectory">
<polygon fill="white" stroke="black" points="140,-6.5 140,-27.5 292,-27.5 292,-6.5 140,-6.5"/>
<text text-anchor="middle" x="216" y="-14.5" font-family="Helvetica,sans-Serif" font-size="10.00">UBSettings::userDataDirectory</text>
</a>
</g>
<!-- Node1&#45;&gt;Node3 -->
<g id="edge4" class="edge"><title>Node1&#45;&gt;Node3</title>
<path fill="none" stroke="midnightblue" d="M104.342,-30.6169C112.494,-29.6227 121.099,-28.5733 129.767,-27.5163"/>
<polygon fill="midnightblue" stroke="midnightblue" points="130.445,-30.9596 139.948,-26.2747 129.598,-24.011 130.445,-30.9596"/>
</g>
<!-- Node4 -->
<g id="node7" class="node"><title>Node4</title>
<a xlink:href="../../d2/d7a/class_u_b_file_system_utils.html#af850f64fdd630fc78510c856f00ffa4f" target="_top" xlink:title="UBFileSystemUtils:\l:normalizeFilePath">
<polygon fill="white" stroke="black" points="328,-0 328,-34 432,-34 432,-0 328,-0"/>
<text text-anchor="start" x="336" y="-21" font-family="Helvetica,sans-Serif" font-size="10.00">UBFileSystemUtils:</text>
<text text-anchor="middle" x="380" y="-8" font-family="Helvetica,sans-Serif" font-size="10.00">:normalizeFilePath</text>
</a>
</g>
<!-- Node3&#45;&gt;Node4 -->
<g id="edge6" class="edge"><title>Node3&#45;&gt;Node4</title>
<path fill="none" stroke="midnightblue" d="M292.239,-17C300.802,-17 309.45,-17 317.805,-17"/>
<polygon fill="midnightblue" stroke="midnightblue" points="317.828,-20.5001 327.828,-17 317.828,-13.5001 317.828,-20.5001"/>
</g>
</g>
</svg>
