<?xml version="1.0" encoding="UTF-8" standalone="no"?>
<!DOCTYPE svg PUBLIC "-//W3C//DTD SVG 1.1//EN"
 "http://www.w3.org/Graphics/SVG/1.1/DTD/svg11.dtd">
<!-- Generated by graphviz version 2.26.3 (20100126.1600)
 -->
<!-- Title: UBSettings::userTrashDirPath Pages: 1 -->
<svg width="668pt" height="146pt"
 viewBox="0.00 0.00 668.00 146.00" xmlns="http://www.w3.org/2000/svg" xmlns:xlink="http://www.w3.org/1999/xlink">
<g id="graph1" class="graph" transform="scale(1 1) rotate(0) translate(4 142)">
<title>UBSettings::userTrashDirPath</title>
<polygon fill="white" stroke="white" points="-4,5 -4,-142 665,-142 665,5 -4,5"/>
<!-- Node1 -->
<g id="node1" class="node"><title>Node1</title>
<polygon fill="#bfbfbf" stroke="black" points="0.5,-33.5 0.5,-54.5 149.5,-54.5 149.5,-33.5 0.5,-33.5"/>
<text text-anchor="middle" x="75" y="-41.5" font-family="Helvetica,sans-Serif" font-size="10.00">UBSettings::userTrashDirPath</text>
</g>
<!-- Node2 -->
<g id="node3" class="node"><title>Node2</title>
<a xlink:href="../../db/d98/class_u_b_feature.html#a6da410ea00a0f35e4b04dfff0cf8038d" target="_top" xlink:title="UBFeature::inTrash">
<polygon fill="white" stroke="black" points="191,-58.5 191,-79.5 293,-79.5 293,-58.5 191,-58.5"/>
<text text-anchor="middle" x="242" y="-66.5" font-family="Helvetica,sans-Serif" font-size="10.00">UBFeature::inTrash</text>
</a>
</g>
<!-- Node1&#45;&gt;Node2 -->
<g id="edge2" class="edge"><title>Node1&#45;&gt;Node2</title>
<path fill="none" stroke="midnightblue" d="M155.406,-56.0369C167.442,-57.8386 179.563,-59.6531 190.768,-61.3305"/>
<polygon fill="midnightblue" stroke="midnightblue" points="155.747,-52.549 145.339,-54.5298 154.711,-59.4718 155.747,-52.549"/>
</g>
<!-- Node6 -->
<g id="node12" class="node"><title>Node6</title>
<a xlink:href="../../d8/d33/class_u_b_features_controller.html#a2b4de09d84eb26fdd0cceee62f412865" target="_top" xlink:title="UBFeaturesController\l::initHardcodedData">
<polygon fill="white" stroke="black" points="186.5,-3 186.5,-37 297.5,-37 297.5,-3 186.5,-3"/>
<text text-anchor="start" x="194.5" y="-24" font-family="Helvetica,sans-Serif" font-size="10.00">UBFeaturesController</text>
<text text-anchor="middle" x="242" y="-11" font-family="Helvetica,sans-Serif" font-size="10.00">::initHardcodedData</text>
</a>
</g>
<!-- Node1&#45;&gt;Node6 -->
<g id="edge12" class="edge"><title>Node1&#45;&gt;Node6</title>
<path fill="none" stroke="midnightblue" d="M158.189,-32.0447C167.75,-30.6707 177.316,-29.2959 186.386,-27.9924"/>
<polygon fill="midnightblue" stroke="midnightblue" points="157.649,-28.5862 148.249,-33.4733 158.645,-35.5151 157.649,-28.5862"/>
</g>
<!-- Node3 -->
<g id="node5" class="node"><title>Node3</title>
<a xlink:href="../../d5/d85/class_u_b_features_widget.html#abc29fb21f0baf7df508ed6bd7e8254b4" target="_top" xlink:title="UBFeaturesWidget::delete\lElements">
<polygon fill="white" stroke="black" points="334,-104 334,-138 466,-138 466,-104 334,-104"/>
<text text-anchor="start" x="342" y="-125" font-family="Helvetica,sans-Serif" font-size="10.00">UBFeaturesWidget::delete</text>
<text text-anchor="middle" x="400" y="-112" font-family="Helvetica,sans-Serif" font-size="10.00">Elements</text>
</a>
</g>
<!-- Node2&#45;&gt;Node3 -->
<g id="edge4" class="edge"><title>Node2&#45;&gt;Node3</title>
<path fill="none" stroke="midnightblue" d="M283.616,-82.6963C303.392,-89.205 327.23,-97.0505 348.169,-103.942"/>
<polygon fill="midnightblue" stroke="midnightblue" points="284.567,-79.3246 273.974,-79.523 282.378,-85.9738 284.567,-79.3246"/>
</g>
<!-- Node5 -->
<g id="node9" class="node"><title>Node5</title>
<a xlink:href="../../d5/d85/class_u_b_features_widget.html#a0b6f83c32353a933b4356b21f0aa1f0c" target="_top" xlink:title="UBFeaturesWidget::delete\lSelectedElements">
<polygon fill="white" stroke="black" points="334,-52 334,-86 466,-86 466,-52 334,-52"/>
<text text-anchor="start" x="342" y="-73" font-family="Helvetica,sans-Serif" font-size="10.00">UBFeaturesWidget::delete</text>
<text text-anchor="middle" x="400" y="-60" font-family="Helvetica,sans-Serif" font-size="10.00">SelectedElements</text>
</a>
</g>
<!-- Node2&#45;&gt;Node5 -->
<g id="edge8" class="edge"><title>Node2&#45;&gt;Node5</title>
<path fill="none" stroke="midnightblue" d="M303.533,-69C313.518,-69 323.894,-69 333.981,-69"/>
<polygon fill="midnightblue" stroke="midnightblue" points="303.298,-65.5001 293.298,-69 303.298,-72.5001 303.298,-65.5001"/>
</g>
<!-- Node4 -->
<g id="node7" class="node"><title>Node4</title>
<a xlink:href="../../d5/d85/class_u_b_features_widget.html#a8afc3d83bd8b57f0260c1269f63b435a" target="_top" xlink:title="UBFeaturesWidget::UBFeatures\lWidget">
<polygon fill="white" stroke="black" points="502,-78 502,-112 660,-112 660,-78 502,-78"/>
<text text-anchor="start" x="510" y="-99" font-family="Helvetica,sans-Serif" font-size="10.00">UBFeaturesWidget::UBFeatures</text>
<text text-anchor="middle" x="581" y="-86" font-family="Helvetica,sans-Serif" font-size="10.00">Widget</text>
</a>
</g>
<!-- Node3&#45;&gt;Node4 -->
<g id="edge6" class="edge"><title>Node3&#45;&gt;Node4</title>
<path fill="none" stroke="midnightblue" d="M476.031,-110.078C484.564,-108.853 493.273,-107.602 501.845,-106.37"/>
<polygon fill="midnightblue" stroke="midnightblue" points="475.514,-106.617 466.113,-111.503 476.51,-113.546 475.514,-106.617"/>
</g>
<!-- Node5&#45;&gt;Node4 -->
<g id="edge10" class="edge"><title>Node5&#45;&gt;Node4</title>
<path fill="none" stroke="midnightblue" d="M476.031,-79.9216C484.564,-81.1473 493.273,-82.3984 501.845,-83.6296"/>
<polygon fill="midnightblue" stroke="midnightblue" points="476.51,-76.4545 466.113,-78.497 475.514,-83.3834 476.51,-76.4545"/>
</g>
<!-- Node7 -->
<g id="node14" class="node"><title>Node7</title>
<a xlink:href="../../d8/d33/class_u_b_features_controller.html#ad7cbd54520c41aad81eec981e4a3132e" target="_top" xlink:title="UBFeaturesController\l::UBFeaturesController">
<polygon fill="white" stroke="black" points="341.5,-0 341.5,-34 458.5,-34 458.5,-0 341.5,-0"/>
<text text-anchor="start" x="349.5" y="-21" font-family="Helvetica,sans-Serif" font-size="10.00">UBFeaturesController</text>
<text text-anchor="middle" x="400" y="-8" font-family="Helvetica,sans-Serif" font-size="10.00">::UBFeaturesController</text>
</a>
</g>
<!-- Node6&#45;&gt;Node7 -->
<g id="edge14" class="edge"><title>Node6&#45;&gt;Node7</title>
<path fill="none" stroke="midnightblue" d="M307.791,-18.7508C318.913,-18.5396 330.394,-18.3216 341.318,-18.1142"/>
<polygon fill="midnightblue" stroke="midnightblue" points="307.637,-15.253 297.705,-18.9423 307.77,-22.2517 307.637,-15.253"/>
</g>
</g>
</svg>
