<?xml version="1.0" encoding="UTF-8" standalone="no"?>
<!DOCTYPE svg PUBLIC "-//W3C//DTD SVG 1.1//EN"
 "http://www.w3.org/Graphics/SVG/1.1/DTD/svg11.dtd">
<!-- Generated by graphviz version 2.26.3 (20100126.1600)
 -->
<!-- Title: UBSettings::userWidgetPath Pages: 1 -->
<svg width="1680pt" height="642pt"
 viewBox="0.00 0.00 1680.00 642.00" xmlns="http://www.w3.org/2000/svg" xmlns:xlink="http://www.w3.org/1999/xlink">
<g id="graph1" class="graph" transform="scale(1 1) rotate(0) translate(4 638)">
<title>UBSettings::userWidgetPath</title>
<polygon fill="white" stroke="white" points="-4,5 -4,-638 1677,-638 1677,5 -4,5"/>
<!-- Node1 -->
<g id="node1" class="node"><title>Node1</title>
<polygon fill="#bfbfbf" stroke="black" points="0.5,-372.5 0.5,-393.5 143.5,-393.5 143.5,-372.5 0.5,-372.5"/>
<text text-anchor="middle" x="72" y="-380.5" font-family="Helvetica,sans-Serif" font-size="10.00">UBSettings::userWidgetPath</text>
</g>
<!-- Node2 -->
<g id="node3" class="node"><title>Node2</title>
<a xlink:href="../../d7/da7/class_u_b_graphics_w3_c_widget_item.html#a45afba72a128d4ce3b27b4de99d0e062" target="_top" xlink:title="UBGraphicsW3CWidgetItem\l::createNPAPIWrapper">
<polygon fill="white" stroke="black" points="180.5,-410 180.5,-444 323.5,-444 323.5,-410 180.5,-410"/>
<text text-anchor="start" x="188.5" y="-431" font-family="Helvetica,sans-Serif" font-size="10.00">UBGraphicsW3CWidgetItem</text>
<text text-anchor="middle" x="252" y="-418" font-family="Helvetica,sans-Serif" font-size="10.00">::createNPAPIWrapper</text>
</a>
</g>
<!-- Node1&#45;&gt;Node2 -->
<g id="edge2" class="edge"><title>Node1&#45;&gt;Node2</title>
<path fill="none" stroke="midnightblue" d="M125.066,-395.972C142.954,-400.344 163.198,-405.293 182.179,-409.933"/>
<polygon fill="midnightblue" stroke="midnightblue" points="125.66,-392.514 115.114,-393.539 123.997,-399.314 125.66,-392.514"/>
</g>
<!-- Node48 -->
<g id="node100" class="node"><title>Node48</title>
<a xlink:href="../../db/d66/class_u_b_settings.html#a57d6f29c76bbeead514da60c99cc6b71" target="_top" xlink:title="UBSettings::userRelative\lWidgetPath">
<polygon fill="white" stroke="black" points="188,-323 188,-357 316,-357 316,-323 188,-323"/>
<text text-anchor="start" x="196" y="-344" font-family="Helvetica,sans-Serif" font-size="10.00">UBSettings::userRelative</text>
<text text-anchor="middle" x="252" y="-331" font-family="Helvetica,sans-Serif" font-size="10.00">WidgetPath</text>
</a>
</g>
<!-- Node1&#45;&gt;Node48 -->
<g id="edge104" class="edge"><title>Node1&#45;&gt;Node48</title>
<path fill="none" stroke="midnightblue" d="M125.92,-370.119C145.342,-365.479 167.451,-360.198 187.672,-355.367"/>
<polygon fill="midnightblue" stroke="midnightblue" points="124.946,-366.753 116.033,-372.481 126.573,-373.562 124.946,-366.753"/>
</g>
<!-- Node3 -->
<g id="node5" class="node"><title>Node3</title>
<a xlink:href="../../d7/d62/class_u_b_board_controller.html#ab6cbc7bda85279e7eee5c5923892dd1a" target="_top" xlink:title="UBBoardController:\l:downloadFinished">
<polygon fill="white" stroke="black" points="365.5,-481 365.5,-515 466.5,-515 466.5,-481 365.5,-481"/>
<text text-anchor="start" x="373.5" y="-502" font-family="Helvetica,sans-Serif" font-size="10.00">UBBoardController:</text>
<text text-anchor="middle" x="416" y="-489" font-family="Helvetica,sans-Serif" font-size="10.00">:downloadFinished</text>
</a>
</g>
<!-- Node2&#45;&gt;Node3 -->
<g id="edge4" class="edge"><title>Node2&#45;&gt;Node3</title>
<path fill="none" stroke="midnightblue" d="M300.64,-448.058C324.823,-458.527 353.671,-471.016 376.47,-480.886"/>
<polygon fill="midnightblue" stroke="midnightblue" points="301.85,-444.767 291.282,-444.006 299.068,-451.191 301.85,-444.767"/>
</g>
<!-- Node4 -->
<g id="node7" class="node"><title>Node4</title>
<a xlink:href="../../d7/d62/class_u_b_board_controller.html#aa728cb7c1b979b2d4ae45638a7386dde" target="_top" xlink:title="UBBoardController::init">
<polygon fill="white" stroke="black" points="508.5,-546.5 508.5,-567.5 625.5,-567.5 625.5,-546.5 508.5,-546.5"/>
<text text-anchor="middle" x="567" y="-554.5" font-family="Helvetica,sans-Serif" font-size="10.00">UBBoardController::init</text>
</a>
</g>
<!-- Node3&#45;&gt;Node4 -->
<g id="edge6" class="edge"><title>Node3&#45;&gt;Node4</title>
<path fill="none" stroke="midnightblue" d="M469.028,-518.72C493.02,-528.094 520.344,-538.77 540.029,-546.462"/>
<polygon fill="midnightblue" stroke="midnightblue" points="470.264,-515.445 459.675,-515.065 467.716,-521.965 470.264,-515.445"/>
</g>
<!-- Node7 -->
<g id="node13" class="node"><title>Node7</title>
<a xlink:href="../../d7/d62/class_u_b_board_controller.html#abae2655269e06f72767de71b8513f6be" target="_top" xlink:title="UBBoardController:\l:duplicateItem">
<polygon fill="white" stroke="black" points="698.5,-442 698.5,-476 799.5,-476 799.5,-442 698.5,-442"/>
<text text-anchor="start" x="706.5" y="-463" font-family="Helvetica,sans-Serif" font-size="10.00">UBBoardController:</text>
<text text-anchor="middle" x="749" y="-450" font-family="Helvetica,sans-Serif" font-size="10.00">:duplicateItem</text>
</a>
</g>
<!-- Node3&#45;&gt;Node7 -->
<g id="edge12" class="edge"><title>Node3&#45;&gt;Node7</title>
<path fill="none" stroke="midnightblue" d="M476.857,-490.873C540.448,-483.425 639.065,-471.875 698.495,-464.915"/>
<polygon fill="midnightblue" stroke="midnightblue" points="476.1,-487.437 466.576,-492.077 476.915,-494.39 476.1,-487.437"/>
</g>
<!-- Node30 -->
<g id="node61" class="node"><title>Node30</title>
<a xlink:href="../../d7/d62/class_u_b_board_controller.html#a358f3f88d1fa9e41620170d76a806f93" target="_top" xlink:title="UBBoardController:\l:downloadURL">
<polygon fill="white" stroke="black" points="516.5,-274 516.5,-308 617.5,-308 617.5,-274 516.5,-274"/>
<text text-anchor="start" x="524.5" y="-295" font-family="Helvetica,sans-Serif" font-size="10.00">UBBoardController:</text>
<text text-anchor="middle" x="567" y="-282" font-family="Helvetica,sans-Serif" font-size="10.00">:downloadURL</text>
</a>
</g>
<!-- Node3&#45;&gt;Node30 -->
<g id="edge62" class="edge"><title>Node3&#45;&gt;Node30</title>
<path fill="none" stroke="midnightblue" d="M434.608,-472.491C465.842,-429.674 527.997,-344.468 554.528,-308.098"/>
<polygon fill="midnightblue" stroke="midnightblue" points="431.68,-470.566 428.614,-480.707 437.335,-474.691 431.68,-470.566"/>
</g>
<!-- Node5 -->
<g id="node9" class="node"><title>Node5</title>
<a xlink:href="../../d8/d81/class_u_b_application.html#add1469239e71bf24fdc61413a42a38bd" target="_top" xlink:title="UBApplication::exec">
<polygon fill="white" stroke="black" points="696,-546.5 696,-567.5 802,-567.5 802,-546.5 696,-546.5"/>
<text text-anchor="middle" x="749" y="-554.5" font-family="Helvetica,sans-Serif" font-size="10.00">UBApplication::exec</text>
</a>
</g>
<!-- Node4&#45;&gt;Node5 -->
<g id="edge8" class="edge"><title>Node4&#45;&gt;Node5</title>
<path fill="none" stroke="midnightblue" d="M635.81,-557C655.659,-557 677.01,-557 695.76,-557"/>
<polygon fill="midnightblue" stroke="midnightblue" points="635.588,-553.5 625.588,-557 635.588,-560.5 635.588,-553.5"/>
</g>
<!-- Node6 -->
<g id="node11" class="node"><title>Node6</title>
<a xlink:href="../../df/d0a/main_8cpp.html#a0ddf1224851353fc92bfbff6f499fa97" target="_top" xlink:title="main">
<polygon fill="white" stroke="black" points="942,-546.5 942,-567.5 980,-567.5 980,-546.5 942,-546.5"/>
<text text-anchor="middle" x="961" y="-554.5" font-family="Helvetica,sans-Serif" font-size="10.00">main</text>
</a>
</g>
<!-- Node5&#45;&gt;Node6 -->
<g id="edge10" class="edge"><title>Node5&#45;&gt;Node6</title>
<path fill="none" stroke="midnightblue" d="M812.343,-557C856.656,-557 912.908,-557 941.861,-557"/>
<polygon fill="midnightblue" stroke="midnightblue" points="812.223,-553.5 802.223,-557 812.223,-560.5 812.223,-553.5"/>
</g>
<!-- Node8 -->
<g id="node15" class="node"><title>Node8</title>
<a xlink:href="../../d7/d62/class_u_b_board_controller.html#a07e50010567075b570140d6143c516f5" target="_top" xlink:title="UBBoardController:\l:processMimeData">
<polygon fill="white" stroke="black" points="910.5,-352 910.5,-386 1011.5,-386 1011.5,-352 910.5,-352"/>
<text text-anchor="start" x="918.5" y="-373" font-family="Helvetica,sans-Serif" font-size="10.00">UBBoardController:</text>
<text text-anchor="middle" x="961" y="-360" font-family="Helvetica,sans-Serif" font-size="10.00">:processMimeData</text>
</a>
</g>
<!-- Node7&#45;&gt;Node8 -->
<g id="edge14" class="edge"><title>Node7&#45;&gt;Node8</title>
<path fill="none" stroke="midnightblue" d="M809.342,-445.471C818.624,-442.132 827.828,-438.026 836,-433 855.816,-420.812 852.146,-407.127 872,-395 883.539,-387.952 897.088,-382.73 910.086,-378.894"/>
<polygon fill="midnightblue" stroke="midnightblue" points="808.067,-442.206 799.68,-448.68 810.273,-448.85 808.067,-442.206"/>
</g>
<!-- Node12 -->
<g id="node23" class="node"><title>Node12</title>
<a xlink:href="../../d7/d62/class_u_b_board_controller.html#af713d6e325369af244f2af8c90299a35" target="_top" xlink:title="UBBoardController:\l:moveGraphicsWidgetToControlView">
<polygon fill="white" stroke="black" points="872,-456 872,-490 1050,-490 1050,-456 872,-456"/>
<text text-anchor="start" x="880" y="-477" font-family="Helvetica,sans-Serif" font-size="10.00">UBBoardController:</text>
<text text-anchor="middle" x="961" y="-464" font-family="Helvetica,sans-Serif" font-size="10.00">:moveGraphicsWidgetToControlView</text>
</a>
</g>
<!-- Node7&#45;&gt;Node12 -->
<g id="edge22" class="edge"><title>Node7&#45;&gt;Node12</title>
<path fill="none" stroke="midnightblue" d="M809.698,-463.008C829.077,-464.288 850.944,-465.732 871.906,-467.116"/>
<polygon fill="midnightblue" stroke="midnightblue" points="809.719,-459.502 799.51,-462.336 809.258,-466.487 809.719,-459.502"/>
</g>
<!-- Node20 -->
<g id="node41" class="node"><title>Node20</title>
<a xlink:href="../../dd/dd5/class_u_b_graphics_item_delegate.html#a525c69cb3c3c0df6c4db4d406fd80e48" target="_top" xlink:title="UBGraphicsItemDelegate\l::duplicate">
<polygon fill="white" stroke="black" points="897,-404 897,-438 1025,-438 1025,-404 897,-404"/>
<text text-anchor="start" x="905" y="-425" font-family="Helvetica,sans-Serif" font-size="10.00">UBGraphicsItemDelegate</text>
<text text-anchor="middle" x="961" y="-412" font-family="Helvetica,sans-Serif" font-size="10.00">::duplicate</text>
</a>
</g>
<!-- Node7&#45;&gt;Node20 -->
<g id="edge42" class="edge"><title>Node7&#45;&gt;Node20</title>
<path fill="none" stroke="midnightblue" d="M809.696,-448.12C836.954,-443.235 869.136,-437.466 896.796,-432.508"/>
<polygon fill="midnightblue" stroke="midnightblue" points="808.736,-444.737 799.51,-449.946 809.971,-451.627 808.736,-444.737"/>
</g>
<!-- Node9 -->
<g id="node17" class="node"><title>Node9</title>
<a xlink:href="../../d7/d62/class_u_b_board_controller.html#a68518a98107e994551da0a4e3a79fe2c" target="_top" xlink:title="UBBoardController:\l:paste">
<polygon fill="white" stroke="black" points="1124.5,-185 1124.5,-219 1225.5,-219 1225.5,-185 1124.5,-185"/>
<text text-anchor="start" x="1132.5" y="-206" font-family="Helvetica,sans-Serif" font-size="10.00">UBBoardController:</text>
<text text-anchor="middle" x="1175" y="-193" font-family="Helvetica,sans-Serif" font-size="10.00">:paste</text>
</a>
</g>
<!-- Node8&#45;&gt;Node9 -->
<g id="edge16" class="edge"><title>Node8&#45;&gt;Node9</title>
<path fill="none" stroke="midnightblue" d="M1021.34,-359.984C1031.89,-356.147 1042.02,-350.706 1050,-343 1086.7,-307.557 1050.4,-270.544 1086,-234 1096.31,-223.415 1110.37,-216.317 1124.27,-211.563"/>
<polygon fill="midnightblue" stroke="midnightblue" points="1020.06,-356.718 1011.59,-363.077 1022.18,-363.391 1020.06,-356.718"/>
</g>
<!-- Node11 -->
<g id="node21" class="node"><title>Node11</title>
<a xlink:href="../../d1/d78/class_u_b_board_view.html#a1bb7794094c4bb04637b0df2bc0c0fa9" target="_top" xlink:title="UBBoardView::dropEvent">
<polygon fill="white" stroke="black" points="1111,-243.5 1111,-264.5 1239,-264.5 1239,-243.5 1111,-243.5"/>
<text text-anchor="middle" x="1175" y="-251.5" font-family="Helvetica,sans-Serif" font-size="10.00">UBBoardView::dropEvent</text>
</a>
</g>
<!-- Node8&#45;&gt;Node11 -->
<g id="edge20" class="edge"><title>Node8&#45;&gt;Node11</title>
<path fill="none" stroke="midnightblue" d="M1021.09,-358.659C1031.48,-354.938 1041.62,-349.879 1050,-343 1076.74,-321.061 1058.58,-295.084 1086,-274 1093.28,-268.401 1101.83,-264.313 1110.7,-261.338"/>
<polygon fill="midnightblue" stroke="midnightblue" points="1019.99,-355.336 1011.53,-361.713 1022.12,-362.005 1019.99,-355.336"/>
</g>
<!-- Node10 -->
<g id="node19" class="node"><title>Node10</title>
<a xlink:href="../../da/d14/class_u_b_application_controller.html#a6afa41e1bc0c178acaa89684b7e9db26" target="_top" xlink:title="UBApplicationController\l::actionPaste">
<polygon fill="white" stroke="black" points="1331.5,-0 1331.5,-34 1452.5,-34 1452.5,-0 1331.5,-0"/>
<text text-anchor="start" x="1339.5" y="-21" font-family="Helvetica,sans-Serif" font-size="10.00">UBApplicationController</text>
<text text-anchor="middle" x="1392" y="-8" font-family="Helvetica,sans-Serif" font-size="10.00">::actionPaste</text>
</a>
</g>
<!-- Node9&#45;&gt;Node10 -->
<g id="edge18" class="edge"><title>Node9&#45;&gt;Node10</title>
<path fill="none" stroke="midnightblue" d="M1206.51,-178.599C1225.01,-163.663 1247.86,-143.019 1264,-121 1286.57,-90.2032 1270.97,-67.7979 1300,-43 1308.96,-35.3462 1320.03,-29.9379 1331.34,-26.1184"/>
<polygon fill="midnightblue" stroke="midnightblue" points="1204.29,-175.893 1198.61,-184.84 1208.63,-181.384 1204.29,-175.893"/>
</g>
<!-- Node13 -->
<g id="node25" class="node"><title>Node13</title>
<a xlink:href="../../dc/db2/class_u_b_graphics_scene.html#aa63a9c1b5eb1de5a0d06a0f2b449648a" target="_top" xlink:title="UBGraphicsScene::addGraphics\lWidget">
<polygon fill="white" stroke="black" points="1096,-553 1096,-587 1254,-587 1254,-553 1096,-553"/>
<text text-anchor="start" x="1104" y="-574" font-family="Helvetica,sans-Serif" font-size="10.00">UBGraphicsScene::addGraphics</text>
<text text-anchor="middle" x="1175" y="-561" font-family="Helvetica,sans-Serif" font-size="10.00">Widget</text>
</a>
</g>
<!-- Node12&#45;&gt;Node13 -->
<g id="edge24" class="edge"><title>Node12&#45;&gt;Node13</title>
<path fill="none" stroke="midnightblue" d="M1008.28,-494.43C1047.08,-512.02 1101.31,-536.597 1137.25,-552.89"/>
<polygon fill="midnightblue" stroke="midnightblue" points="1009.32,-491.059 998.766,-490.118 1006.43,-497.435 1009.32,-491.059"/>
</g>
<!-- Node18 -->
<g id="node37" class="node"><title>Node18</title>
<a xlink:href="../../d8/d2c/class_u_b_graphics_widget_item_delegate.html#a2b446e23a250de4f8c162e1411058cb5" target="_top" xlink:title="UBGraphicsWidgetItemDelegate::pin">
<polygon fill="white" stroke="black" points="1086,-462.5 1086,-483.5 1264,-483.5 1264,-462.5 1086,-462.5"/>
<text text-anchor="middle" x="1175" y="-470.5" font-family="Helvetica,sans-Serif" font-size="10.00">UBGraphicsWidgetItemDelegate::pin</text>
</a>
</g>
<!-- Node12&#45;&gt;Node18 -->
<g id="edge38" class="edge"><title>Node12&#45;&gt;Node18</title>
<path fill="none" stroke="midnightblue" d="M1060.23,-473C1068.81,-473 1077.45,-473 1085.94,-473"/>
<polygon fill="midnightblue" stroke="midnightblue" points="1060.21,-469.5 1050.21,-473 1060.21,-476.5 1060.21,-469.5"/>
</g>
<!-- Node14 -->
<g id="node27" class="node"><title>Node14</title>
<a xlink:href="../../d7/d62/class_u_b_board_controller.html#af122a3bb14b0ef66b169be9fd0e5a2b3" target="_top" xlink:title="UBBoardController:\l:moveToolWidgetToScene">
<polygon fill="white" stroke="black" points="1326,-560 1326,-594 1458,-594 1458,-560 1326,-560"/>
<text text-anchor="start" x="1334" y="-581" font-family="Helvetica,sans-Serif" font-size="10.00">UBBoardController:</text>
<text text-anchor="middle" x="1392" y="-568" font-family="Helvetica,sans-Serif" font-size="10.00">:moveToolWidgetToScene</text>
</a>
</g>
<!-- Node13&#45;&gt;Node14 -->
<g id="edge26" class="edge"><title>Node13&#45;&gt;Node14</title>
<path fill="none" stroke="midnightblue" d="M1264.28,-572.88C1284.86,-573.544 1306.39,-574.238 1325.78,-574.864"/>
<polygon fill="midnightblue" stroke="midnightblue" points="1264.37,-569.381 1254.26,-572.557 1264.15,-576.378 1264.37,-569.381"/>
</g>
<!-- Node16 -->
<g id="node31" class="node"><title>Node16</title>
<a xlink:href="../../dc/db2/class_u_b_graphics_scene.html#aa86ec061e79ba18c2efe73a6bf10bf33" target="_top" xlink:title="UBGraphicsScene::addApple\lWidget">
<polygon fill="white" stroke="red" points="1320,-508 1320,-542 1464,-542 1464,-508 1320,-508"/>
<text text-anchor="start" x="1328" y="-529" font-family="Helvetica,sans-Serif" font-size="10.00">UBGraphicsScene::addApple</text>
<text text-anchor="middle" x="1392" y="-516" font-family="Helvetica,sans-Serif" font-size="10.00">Widget</text>
</a>
</g>
<!-- Node13&#45;&gt;Node16 -->
<g id="edge30" class="edge"><title>Node13&#45;&gt;Node16</title>
<path fill="none" stroke="midnightblue" d="M1264.16,-551.511C1282.68,-547.671 1301.97,-543.67 1319.79,-539.975"/>
<polygon fill="midnightblue" stroke="midnightblue" points="1263.34,-548.105 1254.26,-553.563 1264.77,-554.959 1263.34,-548.105"/>
</g>
<!-- Node17 -->
<g id="node34" class="node"><title>Node17</title>
<a xlink:href="../../dc/db2/class_u_b_graphics_scene.html#acb26de2926454faf9c5ca66989779d82" target="_top" xlink:title="UBGraphicsScene::addW3CWidget">
<polygon fill="white" stroke="red" points="1305.5,-612.5 1305.5,-633.5 1478.5,-633.5 1478.5,-612.5 1305.5,-612.5"/>
<text text-anchor="middle" x="1392" y="-620.5" font-family="Helvetica,sans-Serif" font-size="10.00">UBGraphicsScene::addW3CWidget</text>
</a>
</g>
<!-- Node13&#45;&gt;Node17 -->
<g id="edge34" class="edge"><title>Node13&#45;&gt;Node17</title>
<path fill="none" stroke="midnightblue" d="M1247.47,-589.709C1264.65,-594.223 1282.94,-598.897 1300,-603 1313.35,-606.211 1327.84,-609.469 1341.29,-612.396"/>
<polygon fill="midnightblue" stroke="midnightblue" points="1248.06,-586.245 1237.49,-587.076 1246.27,-593.013 1248.06,-586.245"/>
</g>
<!-- Node15 -->
<g id="node29" class="node"><title>Node15</title>
<a xlink:href="../../dc/de3/class_u_b_tool_widget.html#adc43c4c0d6cb3e0f5881df830775b5b7" target="_top" xlink:title="UBToolWidget::mouseRelease\lEvent">
<polygon fill="white" stroke="black" points="1520,-560 1520,-594 1672,-594 1672,-560 1520,-560"/>
<text text-anchor="start" x="1528" y="-581" font-family="Helvetica,sans-Serif" font-size="10.00">UBToolWidget::mouseRelease</text>
<text text-anchor="middle" x="1596" y="-568" font-family="Helvetica,sans-Serif" font-size="10.00">Event</text>
</a>
</g>
<!-- Node14&#45;&gt;Node15 -->
<g id="edge28" class="edge"><title>Node14&#45;&gt;Node15</title>
<path fill="none" stroke="midnightblue" d="M1468.53,-577C1485.31,-577 1503.07,-577 1519.83,-577"/>
<polygon fill="midnightblue" stroke="midnightblue" points="1468.23,-573.5 1458.23,-577 1468.23,-580.5 1468.23,-573.5"/>
</g>
<!-- Node16&#45;&gt;Node3 -->
<g id="edge32" class="edge"><title>Node16&#45;&gt;Node3</title>
<path fill="none" stroke="midnightblue" d="M1309.9,-522.874C1223.19,-520.814 1082.48,-518 961,-518 749,-518 749,-518 749,-518 648.804,-518 531.955,-508.866 466.718,-502.944"/>
<polygon fill="midnightblue" stroke="midnightblue" points="1309.86,-526.374 1319.94,-523.115 1310.03,-519.376 1309.86,-526.374"/>
</g>
<!-- Node17&#45;&gt;Node3 -->
<g id="edge36" class="edge"><title>Node17&#45;&gt;Node3</title>
<path fill="none" stroke="midnightblue" d="M1295.16,-621.588C1207.81,-620.437 1075.81,-619 961,-619 749,-619 749,-619 749,-619 640.274,-619 606.322,-623.412 508,-577 476.587,-562.172 447.448,-533.64 430.702,-515.229"/>
<polygon fill="midnightblue" stroke="midnightblue" points="1295.28,-625.09 1305.32,-621.723 1295.37,-618.09 1295.28,-625.09"/>
</g>
<!-- Node19 -->
<g id="node39" class="node"><title>Node19</title>
<a xlink:href="../../d8/d2c/class_u_b_graphics_widget_item_delegate.html#a79bf31a6cda75de23b70469270de5bd9" target="_top" xlink:title="UBGraphicsWidgetItemDelegate\l::decorateMenu">
<polygon fill="white" stroke="black" points="1312.5,-456 1312.5,-490 1471.5,-490 1471.5,-456 1312.5,-456"/>
<text text-anchor="start" x="1320.5" y="-477" font-family="Helvetica,sans-Serif" font-size="10.00">UBGraphicsWidgetItemDelegate</text>
<text text-anchor="middle" x="1392" y="-464" font-family="Helvetica,sans-Serif" font-size="10.00">::decorateMenu</text>
</a>
</g>
<!-- Node18&#45;&gt;Node19 -->
<g id="edge40" class="edge"><title>Node18&#45;&gt;Node19</title>
<path fill="none" stroke="midnightblue" d="M1274.32,-473C1287.01,-473 1299.86,-473 1312.18,-473"/>
<polygon fill="midnightblue" stroke="midnightblue" points="1274.2,-469.5 1264.2,-473 1274.2,-476.5 1274.2,-469.5"/>
</g>
<!-- Node21 -->
<g id="node43" class="node"><title>Node21</title>
<a xlink:href="../../dd/dd5/class_u_b_graphics_item_delegate.html#a1de77276aba7276defacd0b87c9b87c7" target="_top" xlink:title="UBGraphicsItemDelegate\l::init">
<polygon fill="white" stroke="black" points="1111,-283 1111,-317 1239,-317 1239,-283 1111,-283"/>
<text text-anchor="start" x="1119" y="-304" font-family="Helvetica,sans-Serif" font-size="10.00">UBGraphicsItemDelegate</text>
<text text-anchor="middle" x="1175" y="-291" font-family="Helvetica,sans-Serif" font-size="10.00">::init</text>
</a>
</g>
<!-- Node20&#45;&gt;Node21 -->
<g id="edge44" class="edge"><title>Node20&#45;&gt;Node21</title>
<path fill="none" stroke="midnightblue" d="M1034.8,-401.768C1040.03,-399.699 1045.15,-397.446 1050,-395 1091.86,-373.891 1133.9,-338.263 1156.98,-317.154"/>
<polygon fill="midnightblue" stroke="midnightblue" points="1033.45,-398.534 1025.29,-405.293 1035.89,-405.097 1033.45,-398.534"/>
</g>
<!-- Node22 -->
<g id="node45" class="node"><title>Node22</title>
<a xlink:href="../../de/d93/class_u_b_graphics_group_container_item.html#a2aaeb364079830d1720110c30f999ec8" target="_top" xlink:title="UBGraphicsGroupContainer\lItem::UBGraphicsGroupContainerItem">
<polygon fill="white" stroke="red" points="1300.5,-156 1300.5,-190 1483.5,-190 1483.5,-156 1300.5,-156"/>
<text text-anchor="start" x="1308.5" y="-177" font-family="Helvetica,sans-Serif" font-size="10.00">UBGraphicsGroupContainer</text>
<text text-anchor="middle" x="1392" y="-164" font-family="Helvetica,sans-Serif" font-size="10.00">Item::UBGraphicsGroupContainerItem</text>
</a>
</g>
<!-- Node21&#45;&gt;Node22 -->
<g id="edge46" class="edge"><title>Node21&#45;&gt;Node22</title>
<path fill="none" stroke="midnightblue" d="M1248.64,-284.114C1254.15,-281.278 1259.36,-277.937 1264,-274 1292.19,-250.074 1271.7,-222.801 1300,-199 1304.06,-195.581 1308.55,-192.611 1313.29,-190.03"/>
<polygon fill="midnightblue" stroke="midnightblue" points="1246.8,-281.108 1239.13,-288.424 1249.69,-287.483 1246.8,-281.108"/>
</g>
<!-- Node23 -->
<g id="node47" class="node"><title>Node23</title>
<a xlink:href="../../dc/d5a/class_u_b_graphics_media_item.html#aa92cf921e88af8b52b4c7ed6466dd2d5" target="_top" xlink:title="UBGraphicsMediaItem\l::UBGraphicsMediaItem">
<polygon fill="white" stroke="red" points="1331,-104 1331,-138 1453,-138 1453,-104 1331,-104"/>
<text text-anchor="start" x="1339" y="-125" font-family="Helvetica,sans-Serif" font-size="10.00">UBGraphicsMediaItem</text>
<text text-anchor="middle" x="1392" y="-112" font-family="Helvetica,sans-Serif" font-size="10.00">::UBGraphicsMediaItem</text>
</a>
</g>
<!-- Node21&#45;&gt;Node23 -->
<g id="edge48" class="edge"><title>Node21&#45;&gt;Node23</title>
<path fill="none" stroke="midnightblue" d="M1248.46,-285.476C1254.17,-282.355 1259.46,-278.575 1264,-274 1305.32,-232.349 1258.5,-188.468 1300,-147 1308.45,-138.553 1319.43,-132.801 1330.84,-128.896"/>
<polygon fill="midnightblue" stroke="midnightblue" points="1246.75,-282.415 1239.21,-289.859 1249.75,-288.74 1246.75,-282.415"/>
</g>
<!-- Node24 -->
<g id="node49" class="node"><title>Node24</title>
<a xlink:href="../../d9/d0d/class_u_b_graphics_p_d_f_item.html#ae55063d3348b81ea8388df72069713b9" target="_top" xlink:title="UBGraphicsPDFItem:\l:UBGraphicsPDFItem">
<polygon fill="white" stroke="red" points="1335.5,-52 1335.5,-86 1448.5,-86 1448.5,-52 1335.5,-52"/>
<text text-anchor="start" x="1343.5" y="-73" font-family="Helvetica,sans-Serif" font-size="10.00">UBGraphicsPDFItem:</text>
<text text-anchor="middle" x="1392" y="-60" font-family="Helvetica,sans-Serif" font-size="10.00">:UBGraphicsPDFItem</text>
</a>
</g>
<!-- Node21&#45;&gt;Node24 -->
<g id="edge50" class="edge"><title>Node21&#45;&gt;Node24</title>
<path fill="none" stroke="midnightblue" d="M1248.57,-286.002C1254.3,-282.774 1259.57,-278.825 1264,-274 1318.87,-214.212 1244.87,-154.546 1300,-95 1309.25,-85.013 1322.01,-78.7564 1335.09,-74.8649"/>
<polygon fill="midnightblue" stroke="midnightblue" points="1246.73,-283.006 1239.24,-290.505 1249.77,-289.311 1246.73,-283.006"/>
</g>
<!-- Node25 -->
<g id="node51" class="node"><title>Node25</title>
<a xlink:href="../../d1/d78/class_u_b_graphics_pixmap_item.html#ad154326709d1935d96248228d21b20ae" target="_top" xlink:title="UBGraphicsPixmapItem\l::UBGraphicsPixmapItem">
<polygon fill="white" stroke="red" points="1328,-404 1328,-438 1456,-438 1456,-404 1328,-404"/>
<text text-anchor="start" x="1336" y="-425" font-family="Helvetica,sans-Serif" font-size="10.00">UBGraphicsPixmapItem</text>
<text text-anchor="middle" x="1392" y="-412" font-family="Helvetica,sans-Serif" font-size="10.00">::UBGraphicsPixmapItem</text>
</a>
</g>
<!-- Node21&#45;&gt;Node25 -->
<g id="edge52" class="edge"><title>Node21&#45;&gt;Node25</title>
<path fill="none" stroke="midnightblue" d="M1200.58,-324.083C1224.57,-345.481 1262.31,-376.2 1300,-395 1308.76,-399.371 1318.37,-403.108 1327.98,-406.271"/>
<polygon fill="midnightblue" stroke="midnightblue" points="1202.75,-321.329 1192.99,-317.214 1198.06,-326.519 1202.75,-321.329"/>
</g>
<!-- Node26 -->
<g id="node53" class="node"><title>Node26</title>
<a xlink:href="../../d3/d0b/class_u_b_graphics_strokes_group.html#ab3978d4c4d489c27f90baf64a506f1d8" target="_top" xlink:title="UBGraphicsStrokesGroup\l::UBGraphicsStrokesGroup">
<polygon fill="white" stroke="red" points="1324,-352 1324,-386 1460,-386 1460,-352 1324,-352"/>
<text text-anchor="start" x="1332" y="-373" font-family="Helvetica,sans-Serif" font-size="10.00">UBGraphicsStrokesGroup</text>
<text text-anchor="middle" x="1392" y="-360" font-family="Helvetica,sans-Serif" font-size="10.00">::UBGraphicsStrokesGroup</text>
</a>
</g>
<!-- Node21&#45;&gt;Node26 -->
<g id="edge54" class="edge"><title>Node21&#45;&gt;Node26</title>
<path fill="none" stroke="midnightblue" d="M1232.09,-320.392C1253.33,-327.777 1277.68,-336.014 1300,-343 1309.66,-346.025 1319.94,-349.084 1330,-351.99"/>
<polygon fill="midnightblue" stroke="midnightblue" points="1233.17,-317.06 1222.58,-317.066 1230.86,-323.669 1233.17,-317.06"/>
</g>
<!-- Node27 -->
<g id="node55" class="node"><title>Node27</title>
<a xlink:href="../../d1/dce/class_u_b_graphics_svg_item.html#aefe5ca00c7f91a56938b35611149a779" target="_top" xlink:title="UBGraphicsSvgItem::init">
<polygon fill="white" stroke="red" points="1329.5,-312.5 1329.5,-333.5 1454.5,-333.5 1454.5,-312.5 1329.5,-312.5"/>
<text text-anchor="middle" x="1392" y="-320.5" font-family="Helvetica,sans-Serif" font-size="10.00">UBGraphicsSvgItem::init</text>
</a>
</g>
<!-- Node21&#45;&gt;Node27 -->
<g id="edge56" class="edge"><title>Node21&#45;&gt;Node27</title>
<path fill="none" stroke="midnightblue" d="M1249.43,-307.889C1275.48,-310.65 1304.45,-313.72 1329.43,-316.368"/>
<polygon fill="midnightblue" stroke="midnightblue" points="1249.54,-304.381 1239.23,-306.807 1248.8,-311.342 1249.54,-304.381"/>
</g>
<!-- Node28 -->
<g id="node57" class="node"><title>Node28</title>
<a xlink:href="../../da/d65/class_u_b_graphics_text_item.html#acbf06a6d840ac7b6c95950e39dcd94b9" target="_top" xlink:title="UBGraphicsTextItem\l::UBGraphicsTextItem">
<polygon fill="white" stroke="red" points="1334.5,-260 1334.5,-294 1449.5,-294 1449.5,-260 1334.5,-260"/>
<text text-anchor="start" x="1342.5" y="-281" font-family="Helvetica,sans-Serif" font-size="10.00">UBGraphicsTextItem</text>
<text text-anchor="middle" x="1392" y="-268" font-family="Helvetica,sans-Serif" font-size="10.00">::UBGraphicsTextItem</text>
</a>
</g>
<!-- Node21&#45;&gt;Node28 -->
<g id="edge58" class="edge"><title>Node21&#45;&gt;Node28</title>
<path fill="none" stroke="midnightblue" d="M1249.29,-292.126C1277.06,-289.183 1308.16,-285.886 1334.22,-283.124"/>
<polygon fill="midnightblue" stroke="midnightblue" points="1248.8,-288.658 1239.23,-293.193 1249.54,-295.619 1248.8,-288.658"/>
</g>
<!-- Node29 -->
<g id="node59" class="node"><title>Node29</title>
<a xlink:href="../../d0/d16/class_u_b_graphics_widget_item.html#ac1a304e8be3f2ece6dd370210f25c90b" target="_top" xlink:title="UBGraphicsWidgetItem\l::UBGraphicsWidgetItem">
<polygon fill="white" stroke="black" points="1329,-208 1329,-242 1455,-242 1455,-208 1329,-208"/>
<text text-anchor="start" x="1337" y="-229" font-family="Helvetica,sans-Serif" font-size="10.00">UBGraphicsWidgetItem</text>
<text text-anchor="middle" x="1392" y="-216" font-family="Helvetica,sans-Serif" font-size="10.00">::UBGraphicsWidgetItem</text>
</a>
</g>
<!-- Node21&#45;&gt;Node29 -->
<g id="edge60" class="edge"><title>Node21&#45;&gt;Node29</title>
<path fill="none" stroke="midnightblue" d="M1248.58,-280.317C1253.86,-278.353 1259.05,-276.247 1264,-274 1281.29,-266.148 1282.68,-258.776 1300,-251 1309.09,-246.921 1318.97,-243.326 1328.77,-240.212"/>
<polygon fill="midnightblue" stroke="midnightblue" points="1247.27,-277.068 1239.01,-283.697 1249.6,-283.669 1247.27,-277.068"/>
</g>
<!-- Node30&#45;&gt;Node7 -->
<g id="edge64" class="edge"><title>Node30&#45;&gt;Node7</title>
<path fill="none" stroke="midnightblue" d="M577.896,-317.449C592.418,-349.466 621.123,-402.832 662,-433 672.655,-440.863 685.684,-446.366 698.383,-450.21"/>
<polygon fill="midnightblue" stroke="midnightblue" points="581.078,-315.991 573.847,-308.248 574.671,-318.811 581.078,-315.991"/>
</g>
<!-- Node30&#45;&gt;Node8 -->
<g id="edge66" class="edge"><title>Node30&#45;&gt;Node8</title>
<path fill="none" stroke="midnightblue" d="M600.26,-313.655C617.839,-324.45 640.238,-336.416 662,-343 746.41,-368.537 849.9,-371.672 910.345,-370.864"/>
<polygon fill="midnightblue" stroke="midnightblue" points="601.86,-310.527 591.535,-308.152 598.126,-316.448 601.86,-310.527"/>
</g>
<!-- Node31 -->
<g id="node65" class="node"><title>Node31</title>
<a xlink:href="../../d0/d79/class_u_b_favorite_tool_palette.html#a83161cac1258562134412dfcd60aee50" target="_top" xlink:title="UBFavoriteToolPalette\l::addFavorite">
<polygon fill="white" stroke="black" points="691,-196 691,-230 807,-230 807,-196 691,-196"/>
<text text-anchor="start" x="699" y="-217" font-family="Helvetica,sans-Serif" font-size="10.00">UBFavoriteToolPalette</text>
<text text-anchor="middle" x="749" y="-204" font-family="Helvetica,sans-Serif" font-size="10.00">::addFavorite</text>
</a>
</g>
<!-- Node30&#45;&gt;Node31 -->
<g id="edge68" class="edge"><title>Node30&#45;&gt;Node31</title>
<path fill="none" stroke="midnightblue" d="M617.836,-269.433C620.627,-267.991 623.366,-266.509 626,-265 643.125,-255.189 644.297,-247.726 662,-239 671.05,-234.54 681.012,-230.684 690.865,-227.411"/>
<polygon fill="midnightblue" stroke="midnightblue" points="616.222,-266.327 608.806,-273.894 619.322,-272.603 616.222,-266.327"/>
</g>
<!-- Node33 -->
<g id="node69" class="node"><title>Node33</title>
<a xlink:href="../../d8/d33/class_u_b_features_controller.html#a38042ae37804ee19bfacf4aafd096ea9" target="_top" xlink:title="UBFeaturesController\l::addItemToPage">
<polygon fill="white" stroke="black" points="693.5,-144 693.5,-178 804.5,-178 804.5,-144 693.5,-144"/>
<text text-anchor="start" x="701.5" y="-165" font-family="Helvetica,sans-Serif" font-size="10.00">UBFeaturesController</text>
<text text-anchor="middle" x="749" y="-152" font-family="Helvetica,sans-Serif" font-size="10.00">::addItemToPage</text>
</a>
</g>
<!-- Node30&#45;&gt;Node33 -->
<g id="edge72" class="edge"><title>Node30&#45;&gt;Node33</title>
<path fill="none" stroke="midnightblue" d="M622.64,-268.047C623.805,-267.07 624.927,-266.054 626,-265 653.231,-238.237 633.155,-212.015 662,-187 670.932,-179.254 682.098,-173.815 693.422,-169.996"/>
<polygon fill="midnightblue" stroke="midnightblue" points="620.501,-265.274 614.436,-273.961 624.595,-270.953 620.501,-265.274"/>
</g>
<!-- Node36 -->
<g id="node75" class="node"><title>Node36</title>
<a xlink:href="../../d8/d33/class_u_b_features_controller.html#a0ecd4b84e703063db5c0fdf498f2cdb0" target="_top" xlink:title="UBFeaturesController\l::addItemAsBackground">
<polygon fill="white" stroke="black" points="688,-52 688,-86 810,-86 810,-52 688,-52"/>
<text text-anchor="start" x="696" y="-73" font-family="Helvetica,sans-Serif" font-size="10.00">UBFeaturesController</text>
<text text-anchor="middle" x="749" y="-60" font-family="Helvetica,sans-Serif" font-size="10.00">::addItemAsBackground</text>
</a>
</g>
<!-- Node30&#45;&gt;Node36 -->
<g id="edge78" class="edge"><title>Node30&#45;&gt;Node36</title>
<path fill="none" stroke="midnightblue" d="M624.12,-267.163C624.77,-266.462 625.398,-265.741 626,-265 674.694,-205.054 609.666,-151.796 662,-95 668.944,-87.4645 677.97,-82.0795 687.574,-78.2387"/>
<polygon fill="midnightblue" stroke="midnightblue" points="621.603,-264.714 616.376,-273.93 626.209,-269.985 621.603,-264.714"/>
</g>
<!-- Node38 -->
<g id="node80" class="node"><title>Node38</title>
<a xlink:href="../../da/dd6/class_u_b_library_a_p_i.html#abeac23fcd7f64866d5686b590ec05695" target="_top" xlink:title="UBLibraryAPI::addObject">
<polygon fill="white" stroke="black" points="685.5,-104.5 685.5,-125.5 812.5,-125.5 812.5,-104.5 685.5,-104.5"/>
<text text-anchor="middle" x="749" y="-112.5" font-family="Helvetica,sans-Serif" font-size="10.00">UBLibraryAPI::addObject</text>
</a>
</g>
<!-- Node30&#45;&gt;Node38 -->
<g id="edge84" class="edge"><title>Node30&#45;&gt;Node38</title>
<path fill="none" stroke="midnightblue" d="M623.709,-267.462C624.503,-266.667 625.268,-265.847 626,-265 665.212,-219.649 618.681,-176.446 662,-135 668.607,-128.679 676.79,-124.209 685.471,-121.073"/>
<polygon fill="midnightblue" stroke="midnightblue" points="621.351,-264.87 615.874,-273.94 625.811,-270.264 621.351,-264.87"/>
</g>
<!-- Node39 -->
<g id="node82" class="node"><title>Node39</title>
<a xlink:href="../../df/d50/class_u_b_web_controller.html#a318422dc0a027e2258180673bb333586" target="_top" xlink:title="UBWebController::capture\lEduMedia">
<polygon fill="white" stroke="black" points="683.5,-0 683.5,-34 814.5,-34 814.5,-0 683.5,-0"/>
<text text-anchor="start" x="691.5" y="-21" font-family="Helvetica,sans-Serif" font-size="10.00">UBWebController::capture</text>
<text text-anchor="middle" x="749" y="-8" font-family="Helvetica,sans-Serif" font-size="10.00">EduMedia</text>
</a>
</g>
<!-- Node30&#45;&gt;Node39 -->
<g id="edge86" class="edge"><title>Node30&#45;&gt;Node39</title>
<path fill="none" stroke="midnightblue" d="M624.482,-266.848C625.006,-266.247 625.512,-265.631 626,-265 687.146,-185.928 596.047,-118.109 662,-43 667.825,-36.3665 675.264,-31.3909 683.334,-27.6655"/>
<polygon fill="midnightblue" stroke="midnightblue" points="621.831,-264.531 616.825,-273.869 626.561,-269.69 621.831,-264.531"/>
</g>
<!-- Node42 -->
<g id="node88" class="node"><title>Node42</title>
<a xlink:href="../../d5/d2b/class_u_b_widget_uniboard_a_p_i.html#a73ac1600ef3ed549d2c6c969436efb2f" target="_top" xlink:title="UBWidgetUniboardAPI\l::addObject">
<polygon fill="white" stroke="black" points="690.5,-390 690.5,-424 807.5,-424 807.5,-390 690.5,-390"/>
<text text-anchor="start" x="698.5" y="-411" font-family="Helvetica,sans-Serif" font-size="10.00">UBWidgetUniboardAPI</text>
<text text-anchor="middle" x="749" y="-398" font-family="Helvetica,sans-Serif" font-size="10.00">::addObject</text>
</a>
</g>
<!-- Node30&#45;&gt;Node42 -->
<g id="edge92" class="edge"><title>Node30&#45;&gt;Node42</title>
<path fill="none" stroke="midnightblue" d="M589.439,-315.742C607.506,-334.43 634.364,-359.581 662,-376 670.96,-381.324 680.979,-385.942 690.941,-389.871"/>
<polygon fill="midnightblue" stroke="midnightblue" points="591.68,-313.018 582.258,-308.172 586.602,-317.836 591.68,-313.018"/>
</g>
<!-- Node43 -->
<g id="node90" class="node"><title>Node43</title>
<a xlink:href="../../db/d78/class_w_b_web_trap_web_view.html#afdbfd6aac50cad5ac07a465baa7be0b6" target="_top" xlink:title="WBWebTrapWebView::trapElement\lAtPos">
<polygon fill="white" stroke="black" points="662.5,-300 662.5,-334 835.5,-334 835.5,-300 662.5,-300"/>
<text text-anchor="start" x="670.5" y="-321" font-family="Helvetica,sans-Serif" font-size="10.00">WBWebTrapWebView::trapElement</text>
<text text-anchor="middle" x="749" y="-308" font-family="Helvetica,sans-Serif" font-size="10.00">AtPos</text>
</a>
</g>
<!-- Node30&#45;&gt;Node43 -->
<g id="edge94" class="edge"><title>Node30&#45;&gt;Node43</title>
<path fill="none" stroke="midnightblue" d="M627.695,-299.671C638.815,-301.259 650.617,-302.945 662.322,-304.617"/>
<polygon fill="midnightblue" stroke="midnightblue" points="628.092,-296.192 617.697,-298.242 627.102,-303.122 628.092,-296.192"/>
</g>
<!-- Node46 -->
<g id="node96" class="node"><title>Node46</title>
<a xlink:href="../../dd/dc8/class_w_b_web_page.html#a4f177fc1cee35b60e7973ff2573025e7" target="_top" xlink:title="WBWebPage::handleUnsupported\lContent">
<polygon fill="white" stroke="black" points="666,-248 666,-282 832,-282 832,-248 666,-248"/>
<text text-anchor="start" x="674" y="-269" font-family="Helvetica,sans-Serif" font-size="10.00">WBWebPage::handleUnsupported</text>
<text text-anchor="middle" x="749" y="-256" font-family="Helvetica,sans-Serif" font-size="10.00">Content</text>
</a>
</g>
<!-- Node30&#45;&gt;Node46 -->
<g id="edge100" class="edge"><title>Node30&#45;&gt;Node46</title>
<path fill="none" stroke="midnightblue" d="M627.737,-282.323C639.945,-280.579 652.973,-278.718 665.794,-276.887"/>
<polygon fill="midnightblue" stroke="midnightblue" points="627.102,-278.878 617.697,-283.758 628.092,-285.808 627.102,-278.878"/>
</g>
<!-- Node32 -->
<g id="node67" class="node"><title>Node32</title>
<a xlink:href="../../d0/d79/class_u_b_favorite_tool_palette.html#a5c96e32fc43e9342cde947b25425516c" target="_top" xlink:title="UBFavoriteToolPalette\l::UBFavoriteToolPalette">
<polygon fill="white" stroke="black" points="900,-156 900,-190 1022,-190 1022,-156 900,-156"/>
<text text-anchor="start" x="908" y="-177" font-family="Helvetica,sans-Serif" font-size="10.00">UBFavoriteToolPalette</text>
<text text-anchor="middle" x="961" y="-164" font-family="Helvetica,sans-Serif" font-size="10.00">::UBFavoriteToolPalette</text>
</a>
</g>
<!-- Node31&#45;&gt;Node32 -->
<g id="edge70" class="edge"><title>Node31&#45;&gt;Node32</title>
<path fill="none" stroke="midnightblue" d="M817.212,-200.13C843.82,-195.109 874.083,-189.399 899.959,-184.517"/>
<polygon fill="midnightblue" stroke="midnightblue" points="816.388,-196.723 807.21,-202.017 817.686,-203.602 816.388,-196.723"/>
</g>
<!-- Node34 -->
<g id="node71" class="node"><title>Node34</title>
<a xlink:href="../../dd/dc8/class_u_b_feature_properties.html#a6fb900fb691ba01479801333a4df226d" target="_top" xlink:title="UBFeatureProperties\l::onAddToPage">
<polygon fill="white" stroke="black" points="907,-104 907,-138 1015,-138 1015,-104 907,-104"/>
<text text-anchor="start" x="915" y="-125" font-family="Helvetica,sans-Serif" font-size="10.00">UBFeatureProperties</text>
<text text-anchor="middle" x="961" y="-112" font-family="Helvetica,sans-Serif" font-size="10.00">::onAddToPage</text>
</a>
</g>
<!-- Node33&#45;&gt;Node34 -->
<g id="edge74" class="edge"><title>Node33&#45;&gt;Node34</title>
<path fill="none" stroke="midnightblue" d="M814.53,-148.636C844.121,-143.053 878.664,-136.535 906.77,-131.232"/>
<polygon fill="midnightblue" stroke="midnightblue" points="813.878,-145.197 804.701,-150.49 815.176,-152.076 813.878,-145.197"/>
</g>
<!-- Node35 -->
<g id="node73" class="node"><title>Node35</title>
<a xlink:href="../../dd/dc8/class_u_b_feature_properties.html#ac62ad70b89370327d9ed3f9f88a68415" target="_top" xlink:title="UBFeatureProperties\l::UBFeatureProperties">
<polygon fill="white" stroke="black" points="1118,-78 1118,-112 1232,-112 1232,-78 1118,-78"/>
<text text-anchor="start" x="1126" y="-99" font-family="Helvetica,sans-Serif" font-size="10.00">UBFeatureProperties</text>
<text text-anchor="middle" x="1175" y="-86" font-family="Helvetica,sans-Serif" font-size="10.00">::UBFeatureProperties</text>
</a>
</g>
<!-- Node34&#45;&gt;Node35 -->
<g id="edge76" class="edge"><title>Node34&#45;&gt;Node35</title>
<path fill="none" stroke="midnightblue" d="M1025.17,-113.204C1054.56,-109.633 1089.12,-105.433 1117.64,-101.969"/>
<polygon fill="midnightblue" stroke="midnightblue" points="1024.51,-109.758 1015,-114.439 1025.35,-116.707 1024.51,-109.758"/>
</g>
<!-- Node37 -->
<g id="node77" class="node"><title>Node37</title>
<a xlink:href="../../dd/dc8/class_u_b_feature_properties.html#af183f096cbff2df0da3206b8e71c3525" target="_top" xlink:title="UBFeatureProperties\l::onSetAsBackground">
<polygon fill="white" stroke="black" points="905,-52 905,-86 1017,-86 1017,-52 905,-52"/>
<text text-anchor="start" x="913" y="-73" font-family="Helvetica,sans-Serif" font-size="10.00">UBFeatureProperties</text>
<text text-anchor="middle" x="961" y="-60" font-family="Helvetica,sans-Serif" font-size="10.00">::onSetAsBackground</text>
</a>
</g>
<!-- Node36&#45;&gt;Node37 -->
<g id="edge80" class="edge"><title>Node36&#45;&gt;Node37</title>
<path fill="none" stroke="midnightblue" d="M820.385,-69C847.883,-69 878.872,-69 904.747,-69"/>
<polygon fill="midnightblue" stroke="midnightblue" points="820.035,-65.5001 810.035,-69 820.035,-72.5001 820.035,-65.5001"/>
</g>
<!-- Node37&#45;&gt;Node35 -->
<g id="edge82" class="edge"><title>Node37&#45;&gt;Node35</title>
<path fill="none" stroke="midnightblue" d="M1027.25,-77.0492C1056.19,-80.5655 1089.81,-84.6499 1117.66,-88.0335"/>
<polygon fill="midnightblue" stroke="midnightblue" points="1027.58,-73.5629 1017.23,-75.8312 1026.73,-80.5118 1027.58,-73.5629"/>
</g>
<!-- Node40 -->
<g id="node84" class="node"><title>Node40</title>
<a xlink:href="../../df/d50/class_u_b_web_controller.html#af73cfa36d5b743fa3a652e49dd7e4831" target="_top" xlink:title="UBWebController::setupPalettes">
<polygon fill="white" stroke="black" points="881.5,-6.5 881.5,-27.5 1040.5,-27.5 1040.5,-6.5 881.5,-6.5"/>
<text text-anchor="middle" x="961" y="-14.5" font-family="Helvetica,sans-Serif" font-size="10.00">UBWebController::setupPalettes</text>
</a>
</g>
<!-- Node39&#45;&gt;Node40 -->
<g id="edge88" class="edge"><title>Node39&#45;&gt;Node40</title>
<path fill="none" stroke="midnightblue" d="M824.655,-17C842.979,-17 862.624,-17 881.136,-17"/>
<polygon fill="midnightblue" stroke="midnightblue" points="824.626,-13.5001 814.626,-17 824.626,-20.5001 824.626,-13.5001"/>
</g>
<!-- Node41 -->
<g id="node86" class="node"><title>Node41</title>
<a xlink:href="../../df/d50/class_u_b_web_controller.html#a56d469910c2a1c76725fbfeffb7e0054" target="_top" xlink:title="UBWebController::webBrowser\lInstance">
<polygon fill="white" stroke="red" points="1098.5,-0 1098.5,-34 1251.5,-34 1251.5,-0 1098.5,-0"/>
<text text-anchor="start" x="1106.5" y="-21" font-family="Helvetica,sans-Serif" font-size="10.00">UBWebController::webBrowser</text>
<text text-anchor="middle" x="1175" y="-8" font-family="Helvetica,sans-Serif" font-size="10.00">Instance</text>
</a>
</g>
<!-- Node40&#45;&gt;Node41 -->
<g id="edge90" class="edge"><title>Node40&#45;&gt;Node41</title>
<path fill="none" stroke="midnightblue" d="M1050.97,-17C1066.76,-17 1083.06,-17 1098.44,-17"/>
<polygon fill="midnightblue" stroke="midnightblue" points="1050.69,-13.5001 1040.69,-17 1050.69,-20.5001 1050.69,-13.5001"/>
</g>
<!-- Node44 -->
<g id="node92" class="node"><title>Node44</title>
<a xlink:href="../../db/d78/class_w_b_web_trap_web_view.html#a2ac308414d18186c9c4fc60bc5f46400" target="_top" xlink:title="WBWebTrapWebView::trapContent\lFromHitTest">
<polygon fill="white" stroke="black" points="875,-248 875,-282 1047,-282 1047,-248 875,-248"/>
<text text-anchor="start" x="883" y="-269" font-family="Helvetica,sans-Serif" font-size="10.00">WBWebTrapWebView::trapContent</text>
<text text-anchor="middle" x="961" y="-256" font-family="Helvetica,sans-Serif" font-size="10.00">FromHitTest</text>
</a>
</g>
<!-- Node43&#45;&gt;Node44 -->
<g id="edge96" class="edge"><title>Node43&#45;&gt;Node44</title>
<path fill="none" stroke="midnightblue" d="M828.164,-297.582C848.942,-292.486 871.193,-287.028 891.427,-282.065"/>
<polygon fill="midnightblue" stroke="midnightblue" points="827.295,-294.192 818.417,-299.973 828.963,-300.99 827.295,-294.192"/>
</g>
<!-- Node45 -->
<g id="node94" class="node"><title>Node45</title>
<a xlink:href="../../dd/df0/class_u_b_web_trap_mouse_event_mask.html#a2c69d74fef874516e38daeab13e6ecd0" target="_top" xlink:title="UBWebTrapMouseEventMask\l::mousePressEvent">
<polygon fill="white" stroke="black" points="886.5,-300 886.5,-334 1035.5,-334 1035.5,-300 886.5,-300"/>
<text text-anchor="start" x="894.5" y="-321" font-family="Helvetica,sans-Serif" font-size="10.00">UBWebTrapMouseEventMask</text>
<text text-anchor="middle" x="961" y="-308" font-family="Helvetica,sans-Serif" font-size="10.00">::mousePressEvent</text>
</a>
</g>
<!-- Node43&#45;&gt;Node45 -->
<g id="edge98" class="edge"><title>Node43&#45;&gt;Node45</title>
<path fill="none" stroke="midnightblue" d="M845.859,-317C859.432,-317 873.206,-317 886.283,-317"/>
<polygon fill="midnightblue" stroke="midnightblue" points="845.534,-313.5 835.534,-317 845.534,-320.5 845.534,-313.5"/>
</g>
<!-- Node47 -->
<g id="node98" class="node"><title>Node47</title>
<a xlink:href="../../dd/dc8/class_w_b_web_page.html#a01017231eb0981875b79223f8457b302" target="_top" xlink:title="WBWebPage::WBWebPage">
<polygon fill="white" stroke="black" points="890.5,-208.5 890.5,-229.5 1031.5,-229.5 1031.5,-208.5 890.5,-208.5"/>
<text text-anchor="middle" x="961" y="-216.5" font-family="Helvetica,sans-Serif" font-size="10.00">WBWebPage::WBWebPage</text>
</a>
</g>
<!-- Node46&#45;&gt;Node47 -->
<g id="edge102" class="edge"><title>Node46&#45;&gt;Node47</title>
<path fill="none" stroke="midnightblue" d="M837.725,-245.748C863.27,-240.206 890.19,-234.364 912.334,-229.56"/>
<polygon fill="midnightblue" stroke="midnightblue" points="836.67,-242.396 827.64,-247.937 838.154,-249.237 836.67,-242.396"/>
</g>
<!-- Node49 -->
<g id="node102" class="node"><title>Node49</title>
<a xlink:href="../../d8/d33/class_u_b_features_controller.html#a2b4de09d84eb26fdd0cceee62f412865" target="_top" xlink:title="UBFeaturesController\l::initHardcodedData">
<polygon fill="white" stroke="black" points="360.5,-305 360.5,-339 471.5,-339 471.5,-305 360.5,-305"/>
<text text-anchor="start" x="368.5" y="-326" font-family="Helvetica,sans-Serif" font-size="10.00">UBFeaturesController</text>
<text text-anchor="middle" x="416" y="-313" font-family="Helvetica,sans-Serif" font-size="10.00">::initHardcodedData</text>
</a>
</g>
<!-- Node48&#45;&gt;Node49 -->
<g id="edge106" class="edge"><title>Node48&#45;&gt;Node49</title>
<path fill="none" stroke="midnightblue" d="M326.324,-331.842C337.763,-330.587 349.403,-329.309 360.343,-328.109"/>
<polygon fill="midnightblue" stroke="midnightblue" points="325.905,-328.367 316.346,-332.938 326.669,-335.326 325.905,-328.367"/>
</g>
<!-- Node50 -->
<g id="node104" class="node"><title>Node50</title>
<a xlink:href="../../d8/d33/class_u_b_features_controller.html#ad7cbd54520c41aad81eec981e4a3132e" target="_top" xlink:title="UBFeaturesController\l::UBFeaturesController">
<polygon fill="white" stroke="black" points="508.5,-222 508.5,-256 625.5,-256 625.5,-222 508.5,-222"/>
<text text-anchor="start" x="516.5" y="-243" font-family="Helvetica,sans-Serif" font-size="10.00">UBFeaturesController</text>
<text text-anchor="middle" x="567" y="-230" font-family="Helvetica,sans-Serif" font-size="10.00">::UBFeaturesController</text>
</a>
</g>
<!-- Node49&#45;&gt;Node50 -->
<g id="edge108" class="edge"><title>Node49&#45;&gt;Node50</title>
<path fill="none" stroke="midnightblue" d="M450.12,-299.278C467.174,-288.332 488.323,-275.366 508,-265 513.843,-261.922 520.126,-258.881 526.337,-256.025"/>
<polygon fill="midnightblue" stroke="midnightblue" points="448.096,-296.419 441.605,-304.793 451.901,-302.294 448.096,-296.419"/>
</g>
</g>
</svg>
