<?xml version="1.0" encoding="UTF-8" standalone="no"?>
<!DOCTYPE svg PUBLIC "-//W3C//DTD SVG 1.1//EN"
 "http://www.w3.org/Graphics/SVG/1.1/DTD/svg11.dtd">
<!-- Generated by graphviz version 2.26.3 (20100126.1600)
 -->
<!-- Title: UBSettings::setMarkerColorIndex Pages: 1 -->
<svg width="466pt" height="70pt"
 viewBox="0.00 0.00 466.00 70.00" xmlns="http://www.w3.org/2000/svg" xmlns:xlink="http://www.w3.org/1999/xlink">
<g id="graph1" class="graph" transform="scale(1 1) rotate(0) translate(4 66)">
<title>UBSettings::setMarkerColorIndex</title>
<polygon fill="white" stroke="white" points="-4,5 -4,-66 463,-66 463,5 -4,5"/>
<!-- Node1 -->
<g id="node1" class="node"><title>Node1</title>
<polygon fill="#bfbfbf" stroke="black" points="0,-14 0,-48 140,-48 140,-14 0,-14"/>
<text text-anchor="start" x="8" y="-35" font-family="Helvetica,sans-Serif" font-size="10.00">UBSettings::setMarkerColor</text>
<text text-anchor="middle" x="70" y="-22" font-family="Helvetica,sans-Serif" font-size="10.00">Index</text>
</g>
<!-- Node2 -->
<g id="node3" class="node"><title>Node2</title>
<a xlink:href="../../db/d66/class_u_b_settings.html#a74efce0dd871313e0c9cabdc84a0a5d0" target="_top" xlink:title="UBSettings::markerColorIndex">
<polygon fill="white" stroke="black" points="176,-40.5 176,-61.5 326,-61.5 326,-40.5 176,-40.5"/>
<text text-anchor="middle" x="251" y="-48.5" font-family="Helvetica,sans-Serif" font-size="10.00">UBSettings::markerColorIndex</text>
</a>
</g>
<!-- Node1&#45;&gt;Node2 -->
<g id="edge2" class="edge"><title>Node1&#45;&gt;Node2</title>
<path fill="none" stroke="midnightblue" d="M140.238,-38.7611C148.595,-39.6845 157.194,-40.6347 165.731,-41.5781"/>
<polygon fill="midnightblue" stroke="midnightblue" points="165.382,-45.0607 175.706,-42.6803 166.151,-38.1031 165.382,-45.0607"/>
</g>
<!-- Node4 -->
<g id="node7" class="node"><title>Node4</title>
<a xlink:href="../../db/d66/class_u_b_settings.html#acf2a7dc86ac6849cdae8ad611ba71878" target="_top" xlink:title="UBSettings::setValue">
<polygon fill="white" stroke="black" points="195.5,-0.5 195.5,-21.5 306.5,-21.5 306.5,-0.5 195.5,-0.5"/>
<text text-anchor="middle" x="251" y="-8.5" font-family="Helvetica,sans-Serif" font-size="10.00">UBSettings::setValue</text>
</a>
</g>
<!-- Node1&#45;&gt;Node4 -->
<g id="edge6" class="edge"><title>Node1&#45;&gt;Node4</title>
<path fill="none" stroke="midnightblue" d="M140.238,-23.2389C155.094,-21.5973 170.718,-19.8709 185.395,-18.2492"/>
<polygon fill="midnightblue" stroke="midnightblue" points="185.828,-21.7227 195.383,-17.1455 185.059,-14.7651 185.828,-21.7227"/>
</g>
<!-- Node3 -->
<g id="node5" class="node"><title>Node3</title>
<a xlink:href="../../db/d66/class_u_b_settings.html#a30f5b15068954099f41c054979593275" target="_top" xlink:title="UBSettings::value">
<polygon fill="white" stroke="black" points="362,-40.5 362,-61.5 458,-61.5 458,-40.5 362,-40.5"/>
<text text-anchor="middle" x="410" y="-48.5" font-family="Helvetica,sans-Serif" font-size="10.00">UBSettings::value</text>
</a>
</g>
<!-- Node2&#45;&gt;Node3 -->
<g id="edge4" class="edge"><title>Node2&#45;&gt;Node3</title>
<path fill="none" stroke="midnightblue" d="M326.309,-51C334.775,-51 343.304,-51 351.511,-51"/>
<polygon fill="midnightblue" stroke="midnightblue" points="351.706,-54.5001 361.706,-51 351.706,-47.5001 351.706,-54.5001"/>
</g>
</g>
</svg>
