<?xml version="1.0" encoding="UTF-8" standalone="no"?>
<!DOCTYPE svg PUBLIC "-//W3C//DTD SVG 1.1//EN"
 "http://www.w3.org/Graphics/SVG/1.1/DTD/svg11.dtd">
<!-- Generated by graphviz version 2.26.3 (20100126.1600)
 -->
<!-- Title: UBSettings::penColors Pages: 1 -->
<svg width="852pt" height="339pt"
 viewBox="0.00 0.00 852.00 339.00" xmlns="http://www.w3.org/2000/svg" xmlns:xlink="http://www.w3.org/1999/xlink">
<g id="graph1" class="graph" transform="scale(1 1) rotate(0) translate(4 335)">
<title>UBSettings::penColors</title>
<polygon fill="white" stroke="white" points="-4,5 -4,-335 849,-335 849,5 -4,5"/>
<!-- Node1 -->
<g id="node1" class="node"><title>Node1</title>
<polygon fill="#bfbfbf" stroke="black" points="0.5,-173.5 0.5,-194.5 117.5,-194.5 117.5,-173.5 0.5,-173.5"/>
<text text-anchor="middle" x="59" y="-181.5" font-family="Helvetica,sans-Serif" font-size="10.00">UBSettings::penColors</text>
</g>
<!-- Node2 -->
<g id="node3" class="node"><title>Node2</title>
<a xlink:href="../../d5/d2b/class_u_b_widget_uniboard_a_p_i.html#a14d16c4c2e1e817d2dcbf435cac487d5" target="_top" xlink:title="UBWidgetUniboardAPI\l::setPenColor">
<polygon fill="white" stroke="black" points="158.5,-297 158.5,-331 275.5,-331 275.5,-297 158.5,-297"/>
<text text-anchor="start" x="166.5" y="-318" font-family="Helvetica,sans-Serif" font-size="10.00">UBWidgetUniboardAPI</text>
<text text-anchor="middle" x="217" y="-305" font-family="Helvetica,sans-Serif" font-size="10.00">::setPenColor</text>
</a>
</g>
<!-- Node1&#45;&gt;Node2 -->
<g id="edge2" class="edge"><title>Node1&#45;&gt;Node2</title>
<path fill="none" stroke="midnightblue" d="M72.0589,-202.742C88.7716,-225.547 119.695,-263.973 154,-288 158.652,-291.258 163.774,-294.209 169.027,-296.852"/>
<polygon fill="midnightblue" stroke="midnightblue" points="74.8562,-200.637 66.1799,-194.556 69.1706,-204.72 74.8562,-200.637"/>
</g>
<!-- Node3 -->
<g id="node5" class="node"><title>Node3</title>
<a xlink:href="../../d7/d62/class_u_b_board_controller.html#a6d5d5894174958720c91e1e1f19b150f" target="_top" xlink:title="UBBoardController:\l:UBBoardController">
<polygon fill="white" stroke="black" points="166.5,-245 166.5,-279 267.5,-279 267.5,-245 166.5,-245"/>
<text text-anchor="start" x="174.5" y="-266" font-family="Helvetica,sans-Serif" font-size="10.00">UBBoardController:</text>
<text text-anchor="middle" x="217" y="-253" font-family="Helvetica,sans-Serif" font-size="10.00">:UBBoardController</text>
</a>
</g>
<!-- Node1&#45;&gt;Node3 -->
<g id="edge4" class="edge"><title>Node1&#45;&gt;Node3</title>
<path fill="none" stroke="midnightblue" d="M85.7862,-199.687C104.596,-210.448 130.493,-224.757 154,-236 160.298,-239.012 167.039,-242.017 173.685,-244.858"/>
<polygon fill="midnightblue" stroke="midnightblue" points="87.3167,-196.529 76.9048,-194.569 83.8213,-202.594 87.3167,-196.529"/>
</g>
<!-- Node4 -->
<g id="node7" class="node"><title>Node4</title>
<a xlink:href="../../d7/d62/class_u_b_board_controller.html#a7d9d265f0f98e913898c06bf897dbf2f" target="_top" xlink:title="UBBoardController:\l:setColorIndex">
<polygon fill="white" stroke="black" points="166.5,-193 166.5,-227 267.5,-227 267.5,-193 166.5,-193"/>
<text text-anchor="start" x="174.5" y="-214" font-family="Helvetica,sans-Serif" font-size="10.00">UBBoardController:</text>
<text text-anchor="middle" x="217" y="-201" font-family="Helvetica,sans-Serif" font-size="10.00">:setColorIndex</text>
</a>
</g>
<!-- Node1&#45;&gt;Node4 -->
<g id="edge6" class="edge"><title>Node1&#45;&gt;Node4</title>
<path fill="none" stroke="midnightblue" d="M128.069,-195.366C140.961,-197.487 154.211,-199.668 166.417,-201.676"/>
<polygon fill="midnightblue" stroke="midnightblue" points="128.269,-191.852 117.833,-193.681 127.132,-198.759 128.269,-191.852"/>
</g>
<!-- Node9 -->
<g id="node17" class="node"><title>Node9</title>
<a xlink:href="../../d3/d33/class_u_b_preferences_controller.html#ab60dcebb8c91877a2e295a45efeae3a6" target="_top" xlink:title="UBPreferencesController\l::defaultSettings">
<polygon fill="white" stroke="black" points="154.5,-89 154.5,-123 279.5,-123 279.5,-89 154.5,-89"/>
<text text-anchor="start" x="162.5" y="-110" font-family="Helvetica,sans-Serif" font-size="10.00">UBPreferencesController</text>
<text text-anchor="middle" x="217" y="-97" font-family="Helvetica,sans-Serif" font-size="10.00">::defaultSettings</text>
</a>
</g>
<!-- Node1&#45;&gt;Node9 -->
<g id="edge16" class="edge"><title>Node1&#45;&gt;Node9</title>
<path fill="none" stroke="midnightblue" d="M85.7862,-168.313C104.596,-157.552 130.493,-143.243 154,-132 160.298,-128.988 167.039,-125.983 173.685,-123.142"/>
<polygon fill="midnightblue" stroke="midnightblue" points="83.8213,-165.406 76.9048,-173.431 87.3167,-171.471 83.8213,-165.406"/>
</g>
<!-- Node12 -->
<g id="node23" class="node"><title>Node12</title>
<a xlink:href="../../db/d66/class_u_b_settings.html#a27b620db7e6282d277935289450229a6" target="_top" xlink:title="UBSettings::penColor">
<polygon fill="white" stroke="black" points="161,-46.5 161,-67.5 273,-67.5 273,-46.5 161,-46.5"/>
<text text-anchor="middle" x="217" y="-54.5" font-family="Helvetica,sans-Serif" font-size="10.00">UBSettings::penColor</text>
</a>
</g>
<!-- Node1&#45;&gt;Node12 -->
<g id="edge22" class="edge"><title>Node1&#45;&gt;Node12</title>
<path fill="none" stroke="midnightblue" d="M71.898,-165.023C88.4476,-141.98 119.206,-103.313 154,-80 161.545,-74.9447 170.341,-70.8348 178.925,-67.5635"/>
<polygon fill="midnightblue" stroke="midnightblue" points="68.967,-163.107 66.0823,-173.301 74.6948,-167.131 68.967,-163.107"/>
</g>
<!-- Node16 -->
<g id="node31" class="node"><title>Node16</title>
<a xlink:href="../../d3/dce/class_u_b_toolbar_button_group.html#aa209164c95dd708651983a8b4ae6581d" target="_top" xlink:title="UBToolbarButtonGroup\l::colorPaletteChanged">
<polygon fill="white" stroke="black" points="158,-141 158,-175 276,-175 276,-141 158,-141"/>
<text text-anchor="start" x="166" y="-162" font-family="Helvetica,sans-Serif" font-size="10.00">UBToolbarButtonGroup</text>
<text text-anchor="middle" x="217" y="-149" font-family="Helvetica,sans-Serif" font-size="10.00">::colorPaletteChanged</text>
</a>
</g>
<!-- Node1&#45;&gt;Node16 -->
<g id="edge30" class="edge"><title>Node1&#45;&gt;Node16</title>
<path fill="none" stroke="midnightblue" d="M127.762,-172.685C137.789,-171.035 148.04,-169.348 157.854,-167.733"/>
<polygon fill="midnightblue" stroke="midnightblue" points="127.132,-169.241 117.833,-174.319 128.269,-176.148 127.132,-169.241"/>
</g>
<!-- Node5 -->
<g id="node9" class="node"><title>Node5</title>
<a xlink:href="../../d7/d62/class_u_b_board_controller.html#a6761e02604fb3aa8ecbfc5fd4a5d87f3" target="_top" xlink:title="UBBoardController:\l:setupToolbar">
<polygon fill="white" stroke="black" points="337.5,-167 337.5,-201 438.5,-201 438.5,-167 337.5,-167"/>
<text text-anchor="start" x="345.5" y="-188" font-family="Helvetica,sans-Serif" font-size="10.00">UBBoardController:</text>
<text text-anchor="middle" x="388" y="-175" font-family="Helvetica,sans-Serif" font-size="10.00">:setupToolbar</text>
</a>
</g>
<!-- Node4&#45;&gt;Node5 -->
<g id="edge8" class="edge"><title>Node4&#45;&gt;Node5</title>
<path fill="none" stroke="midnightblue" d="M277.838,-200.75C297.323,-197.787 318.676,-194.54 337.353,-191.701"/>
<polygon fill="midnightblue" stroke="midnightblue" points="277.203,-197.306 267.843,-202.27 278.255,-204.226 277.203,-197.306"/>
</g>
<!-- Node6 -->
<g id="node11" class="node"><title>Node6</title>
<a xlink:href="../../d7/d62/class_u_b_board_controller.html#aa728cb7c1b979b2d4ae45638a7386dde" target="_top" xlink:title="UBBoardController::init">
<polygon fill="white" stroke="black" points="503.5,-173.5 503.5,-194.5 620.5,-194.5 620.5,-173.5 503.5,-173.5"/>
<text text-anchor="middle" x="562" y="-181.5" font-family="Helvetica,sans-Serif" font-size="10.00">UBBoardController::init</text>
</a>
</g>
<!-- Node5&#45;&gt;Node6 -->
<g id="edge10" class="edge"><title>Node5&#45;&gt;Node6</title>
<path fill="none" stroke="midnightblue" d="M449.001,-184C466.687,-184 485.95,-184 503.48,-184"/>
<polygon fill="midnightblue" stroke="midnightblue" points="448.796,-180.5 438.796,-184 448.796,-187.5 448.796,-180.5"/>
</g>
<!-- Node7 -->
<g id="node13" class="node"><title>Node7</title>
<a xlink:href="../../d8/d81/class_u_b_application.html#add1469239e71bf24fdc61413a42a38bd" target="_top" xlink:title="UBApplication::exec">
<polygon fill="white" stroke="black" points="664,-173.5 664,-194.5 770,-194.5 770,-173.5 664,-173.5"/>
<text text-anchor="middle" x="717" y="-181.5" font-family="Helvetica,sans-Serif" font-size="10.00">UBApplication::exec</text>
</a>
</g>
<!-- Node6&#45;&gt;Node7 -->
<g id="edge12" class="edge"><title>Node6&#45;&gt;Node7</title>
<path fill="none" stroke="midnightblue" d="M630.727,-184C641.86,-184 653.238,-184 663.925,-184"/>
<polygon fill="midnightblue" stroke="midnightblue" points="630.599,-180.5 620.599,-184 630.599,-187.5 630.599,-180.5"/>
</g>
<!-- Node8 -->
<g id="node15" class="node"><title>Node8</title>
<a xlink:href="../../df/d0a/main_8cpp.html#a0ddf1224851353fc92bfbff6f499fa97" target="_top" xlink:title="main">
<polygon fill="white" stroke="black" points="806,-173.5 806,-194.5 844,-194.5 844,-173.5 806,-173.5"/>
<text text-anchor="middle" x="825" y="-181.5" font-family="Helvetica,sans-Serif" font-size="10.00">main</text>
</a>
</g>
<!-- Node7&#45;&gt;Node8 -->
<g id="edge14" class="edge"><title>Node7&#45;&gt;Node8</title>
<path fill="none" stroke="midnightblue" d="M780.214,-184C789.495,-184 798.401,-184 805.793,-184"/>
<polygon fill="midnightblue" stroke="midnightblue" points="780.051,-180.5 770.051,-184 780.051,-187.5 780.051,-180.5"/>
</g>
<!-- Node10 -->
<g id="node19" class="node"><title>Node10</title>
<a xlink:href="../../d3/d33/class_u_b_preferences_controller.html#ad58e84c5ae34f18622453060ac927ac1" target="_top" xlink:title="UBPreferencesController\l::wire">
<polygon fill="white" stroke="black" points="325.5,-92 325.5,-126 450.5,-126 450.5,-92 325.5,-92"/>
<text text-anchor="start" x="333.5" y="-113" font-family="Helvetica,sans-Serif" font-size="10.00">UBPreferencesController</text>
<text text-anchor="middle" x="388" y="-100" font-family="Helvetica,sans-Serif" font-size="10.00">::wire</text>
</a>
</g>
<!-- Node9&#45;&gt;Node10 -->
<g id="edge18" class="edge"><title>Node9&#45;&gt;Node10</title>
<path fill="none" stroke="midnightblue" d="M289.94,-107.28C301.709,-107.486 313.804,-107.698 325.304,-107.9"/>
<polygon fill="midnightblue" stroke="midnightblue" points="289.763,-103.776 279.703,-107.1 289.64,-110.775 289.763,-103.776"/>
</g>
<!-- Node11 -->
<g id="node21" class="node"><title>Node11</title>
<a xlink:href="../../d3/d33/class_u_b_preferences_controller.html#a515f90bc539e0c9410c8b2b538b17017" target="_top" xlink:title="UBPreferencesController\l::UBPreferencesController">
<polygon fill="white" stroke="black" points="496.5,-92 496.5,-126 627.5,-126 627.5,-92 496.5,-92"/>
<text text-anchor="start" x="504.5" y="-113" font-family="Helvetica,sans-Serif" font-size="10.00">UBPreferencesController</text>
<text text-anchor="middle" x="562" y="-100" font-family="Helvetica,sans-Serif" font-size="10.00">::UBPreferencesController</text>
</a>
</g>
<!-- Node10&#45;&gt;Node11 -->
<g id="edge20" class="edge"><title>Node10&#45;&gt;Node11</title>
<path fill="none" stroke="midnightblue" d="M461.009,-109C472.732,-109 484.804,-109 496.342,-109"/>
<polygon fill="midnightblue" stroke="midnightblue" points="460.818,-105.5 450.818,-109 460.818,-112.5 460.818,-105.5"/>
</g>
<!-- Node13 -->
<g id="node25" class="node"><title>Node13</title>
<a xlink:href="../../d0/d58/class_u_b_drawing_controller.html#afae64ee4b072bcc20b5234eec4dc5f56" target="_top" xlink:title="UBDrawingController\l::toolColor">
<polygon fill="white" stroke="black" points="333.5,-40 333.5,-74 442.5,-74 442.5,-40 333.5,-40"/>
<text text-anchor="start" x="341.5" y="-61" font-family="Helvetica,sans-Serif" font-size="10.00">UBDrawingController</text>
<text text-anchor="middle" x="388" y="-48" font-family="Helvetica,sans-Serif" font-size="10.00">::toolColor</text>
</a>
</g>
<!-- Node12&#45;&gt;Node13 -->
<g id="edge24" class="edge"><title>Node12&#45;&gt;Node13</title>
<path fill="none" stroke="midnightblue" d="M283.572,-57C300.046,-57 317.506,-57 333.338,-57"/>
<polygon fill="midnightblue" stroke="midnightblue" points="283.466,-53.5001 273.466,-57 283.466,-60.5001 283.466,-53.5001"/>
</g>
<!-- Node15 -->
<g id="node29" class="node"><title>Node15</title>
<a xlink:href="../../db/d66/class_u_b_settings.html#ad4124c28d4b3ea74065ac5dc022bcdc7" target="_top" xlink:title="UBSettings::currentPenColor">
<polygon fill="white" stroke="black" points="316.5,-0.5 316.5,-21.5 459.5,-21.5 459.5,-0.5 316.5,-0.5"/>
<text text-anchor="middle" x="388" y="-8.5" font-family="Helvetica,sans-Serif" font-size="10.00">UBSettings::currentPenColor</text>
</a>
</g>
<!-- Node12&#45;&gt;Node15 -->
<g id="edge28" class="edge"><title>Node12&#45;&gt;Node15</title>
<path fill="none" stroke="midnightblue" d="M266.013,-43.8152C292.333,-36.7349 324.332,-28.1271 348.952,-21.5042"/>
<polygon fill="midnightblue" stroke="midnightblue" points="264.978,-40.469 256.231,-46.4467 266.797,-47.2287 264.978,-40.469"/>
</g>
<!-- Node14 -->
<g id="node27" class="node"><title>Node14</title>
<a xlink:href="../../d0/d58/class_u_b_drawing_controller.html#abf7c58880089c0cced9c2b91ff98314c" target="_top" xlink:title="UBDrawingController\l::currentToolColor">
<polygon fill="white" stroke="black" points="507.5,-40 507.5,-74 616.5,-74 616.5,-40 507.5,-40"/>
<text text-anchor="start" x="515.5" y="-61" font-family="Helvetica,sans-Serif" font-size="10.00">UBDrawingController</text>
<text text-anchor="middle" x="562" y="-48" font-family="Helvetica,sans-Serif" font-size="10.00">::currentToolColor</text>
</a>
</g>
<!-- Node13&#45;&gt;Node14 -->
<g id="edge26" class="edge"><title>Node13&#45;&gt;Node14</title>
<path fill="none" stroke="midnightblue" d="M452.685,-57C470.653,-57 489.983,-57 507.317,-57"/>
<polygon fill="midnightblue" stroke="midnightblue" points="452.577,-53.5001 442.577,-57 452.577,-60.5001 452.577,-53.5001"/>
</g>
<!-- Node16&#45;&gt;Node5 -->
<g id="edge32" class="edge"><title>Node16&#45;&gt;Node5</title>
<path fill="none" stroke="midnightblue" d="M286.255,-168.53C303.328,-171.126 321.299,-173.858 337.307,-176.292"/>
<polygon fill="midnightblue" stroke="midnightblue" points="286.74,-165.064 276.328,-167.021 285.688,-171.984 286.74,-165.064"/>
</g>
</g>
</svg>
