<?xml version="1.0" encoding="UTF-8" standalone="no"?>
<!DOCTYPE svg PUBLIC "-//W3C//DTD SVG 1.1//EN"
 "http://www.w3.org/Graphics/SVG/1.1/DTD/svg11.dtd">
<!-- Generated by graphviz version 2.26.3 (20100126.1600)
 -->
<!-- Title: UBSettings::setProxyPassword Pages: 1 -->
<svg width="882pt" height="90pt"
 viewBox="0.00 0.00 882.00 90.00" xmlns="http://www.w3.org/2000/svg" xmlns:xlink="http://www.w3.org/1999/xlink">
<g id="graph1" class="graph" transform="scale(1 1) rotate(0) translate(4 86)">
<title>UBSettings::setProxyPassword</title>
<polygon fill="white" stroke="white" points="-4,5 -4,-86 879,-86 879,5 -4,5"/>
<!-- Node1 -->
<g id="node1" class="node"><title>Node1</title>
<polygon fill="#bfbfbf" stroke="black" points="0.5,-20.5 0.5,-41.5 155.5,-41.5 155.5,-20.5 0.5,-20.5"/>
<text text-anchor="middle" x="78" y="-28.5" font-family="Helvetica,sans-Serif" font-size="10.00">UBSettings::setProxyPassword</text>
</g>
<!-- Node2 -->
<g id="node3" class="node"><title>Node2</title>
<a xlink:href="../../db/d66/class_u_b_settings.html#a20c9289b181a34a32128f0a463ace726" target="_top" xlink:title="UBSettings::setPassword">
<polygon fill="white" stroke="black" points="202,-40.5 202,-61.5 332,-61.5 332,-40.5 202,-40.5"/>
<text text-anchor="middle" x="267" y="-48.5" font-family="Helvetica,sans-Serif" font-size="10.00">UBSettings::setPassword</text>
</a>
</g>
<!-- Node1&#45;&gt;Node2 -->
<g id="edge2" class="edge"><title>Node1&#45;&gt;Node2</title>
<path fill="none" stroke="midnightblue" d="M155.692,-39.2213C167.582,-40.4796 179.84,-41.7767 191.679,-43.0295"/>
<polygon fill="midnightblue" stroke="midnightblue" points="191.642,-46.545 201.954,-44.1169 192.378,-39.5839 191.642,-46.545"/>
</g>
<!-- Node7 -->
<g id="node13" class="node"><title>Node7</title>
<a xlink:href="../../db/d66/class_u_b_settings.html#abbc40418a1408fcf5a05ef0fe512e818" target="_top" xlink:title="UBSettings::removePassword">
<polygon fill="white" stroke="black" points="192.5,-0.5 192.5,-21.5 341.5,-21.5 341.5,-0.5 192.5,-0.5"/>
<text text-anchor="middle" x="267" y="-8.5" font-family="Helvetica,sans-Serif" font-size="10.00">UBSettings::removePassword</text>
</a>
</g>
<!-- Node1&#45;&gt;Node7 -->
<g id="edge12" class="edge"><title>Node1&#45;&gt;Node7</title>
<path fill="none" stroke="midnightblue" d="M155.692,-22.7787C164.495,-21.8471 173.499,-20.8943 182.385,-19.954"/>
<polygon fill="midnightblue" stroke="midnightblue" points="182.774,-23.4324 192.35,-18.8994 182.038,-16.4713 182.774,-23.4324"/>
</g>
<!-- Node3 -->
<g id="node5" class="node"><title>Node3</title>
<a xlink:href="../../dc/d5a/class_u_b_crypto_utils.html#a4c45d0ac631978066fc4df0b6c0f982a" target="_top" xlink:title="UBCryptoUtils::instance">
<polygon fill="white" stroke="black" points="395.5,-60.5 395.5,-81.5 518.5,-81.5 518.5,-60.5 395.5,-60.5"/>
<text text-anchor="middle" x="457" y="-68.5" font-family="Helvetica,sans-Serif" font-size="10.00">UBCryptoUtils::instance</text>
</a>
</g>
<!-- Node2&#45;&gt;Node3 -->
<g id="edge4" class="edge"><title>Node2&#45;&gt;Node3</title>
<path fill="none" stroke="midnightblue" d="M332.121,-57.8549C349.273,-59.6603 367.872,-61.6181 385.347,-63.4575"/>
<polygon fill="midnightblue" stroke="midnightblue" points="385.175,-66.9587 395.486,-64.5249 385.908,-59.9972 385.175,-66.9587"/>
</g>
<!-- Node6 -->
<g id="node11" class="node"><title>Node6</title>
<a xlink:href="../../dc/d5a/class_u_b_crypto_utils.html#a0a214cd089f3e728eb1758df195bbdb3" target="_top" xlink:title="UBCryptoUtils::symetricEncrypt">
<polygon fill="white" stroke="black" points="378,-20.5 378,-41.5 536,-41.5 536,-20.5 378,-20.5"/>
<text text-anchor="middle" x="457" y="-28.5" font-family="Helvetica,sans-Serif" font-size="10.00">UBCryptoUtils::symetricEncrypt</text>
</a>
</g>
<!-- Node2&#45;&gt;Node6 -->
<g id="edge10" class="edge"><title>Node2&#45;&gt;Node6</title>
<path fill="none" stroke="midnightblue" d="M332.121,-44.1451C343.619,-42.9348 355.767,-41.6561 367.791,-40.3905"/>
<polygon fill="midnightblue" stroke="midnightblue" points="368.266,-43.8599 377.844,-39.3322 367.533,-36.8983 368.266,-43.8599"/>
</g>
<!-- Node4 -->
<g id="node7" class="node"><title>Node4</title>
<a xlink:href="../../dc/d5a/class_u_b_crypto_utils.html#aef49c3c3a3fba206944a39eb05ac454e" target="_top" xlink:title="UBCryptoUtils::UBCryptoUtils">
<polygon fill="white" stroke="black" points="572,-60.5 572,-81.5 722,-81.5 722,-60.5 572,-60.5"/>
<text text-anchor="middle" x="647" y="-68.5" font-family="Helvetica,sans-Serif" font-size="10.00">UBCryptoUtils::UBCryptoUtils</text>
</a>
</g>
<!-- Node3&#45;&gt;Node4 -->
<g id="edge6" class="edge"><title>Node3&#45;&gt;Node4</title>
<path fill="none" stroke="midnightblue" d="M518.688,-71C532.29,-71 546.935,-71 561.295,-71"/>
<polygon fill="midnightblue" stroke="midnightblue" points="561.681,-74.5001 571.681,-71 561.681,-67.5001 561.681,-74.5001"/>
</g>
<!-- Node5 -->
<g id="node9" class="node"><title>Node5</title>
<a xlink:href="../../dc/d5a/class_u_b_crypto_utils.html#afdca9150e121df3b94097d57440ae0fc" target="_top" xlink:title="UBCryptoUtils::aesInit">
<polygon fill="white" stroke="black" points="758,-60.5 758,-81.5 874,-81.5 874,-60.5 758,-60.5"/>
<text text-anchor="middle" x="816" y="-68.5" font-family="Helvetica,sans-Serif" font-size="10.00">UBCryptoUtils::aesInit</text>
</a>
</g>
<!-- Node4&#45;&gt;Node5 -->
<g id="edge8" class="edge"><title>Node4&#45;&gt;Node5</title>
<path fill="none" stroke="midnightblue" d="M722.11,-71C730.634,-71 739.286,-71 747.715,-71"/>
<polygon fill="midnightblue" stroke="midnightblue" points="747.862,-74.5001 757.862,-71 747.862,-67.5001 747.862,-74.5001"/>
</g>
</g>
</svg>
