<?xml version="1.0" encoding="UTF-8" standalone="no"?>
<!DOCTYPE svg PUBLIC "-//W3C//DTD SVG 1.1//EN"
 "http://www.w3.org/Graphics/SVG/1.1/DTD/svg11.dtd">
<!-- Generated by graphviz version 2.26.3 (20100126.1600)
 -->
<!-- Title: UBSettings::isDarkBackground Pages: 1 -->
<svg width="850pt" height="186pt"
 viewBox="0.00 0.00 850.00 186.00" xmlns="http://www.w3.org/2000/svg" xmlns:xlink="http://www.w3.org/1999/xlink">
<g id="graph1" class="graph" transform="scale(1 1) rotate(0) translate(4 182)">
<title>UBSettings::isDarkBackground</title>
<polygon fill="white" stroke="white" points="-4,5 -4,-182 847,-182 847,5 -4,5"/>
<!-- Node1 -->
<g id="node1" class="node"><title>Node1</title>
<polygon fill="#bfbfbf" stroke="black" points="0.5,-84.5 0.5,-105.5 153.5,-105.5 153.5,-84.5 0.5,-84.5"/>
<text text-anchor="middle" x="77" y="-92.5" font-family="Helvetica,sans-Serif" font-size="10.00">UBSettings::isDarkBackground</text>
</g>
<!-- Node2 -->
<g id="node3" class="node"><title>Node2</title>
<a xlink:href="../../db/d66/class_u_b_settings.html#ad4124c28d4b3ea74065ac5dc022bcdc7" target="_top" xlink:title="UBSettings::currentPenColor">
<polygon fill="white" stroke="black" points="190.5,-156.5 190.5,-177.5 333.5,-177.5 333.5,-156.5 190.5,-156.5"/>
<text text-anchor="middle" x="262" y="-164.5" font-family="Helvetica,sans-Serif" font-size="10.00">UBSettings::currentPenColor</text>
</a>
</g>
<!-- Node1&#45;&gt;Node2 -->
<g id="edge2" class="edge"><title>Node1&#45;&gt;Node2</title>
<path fill="none" stroke="midnightblue" d="M106.429,-110.125C128.919,-121.293 160.901,-136.341 190,-147 199.502,-150.48 209.898,-153.697 219.76,-156.487"/>
<polygon fill="midnightblue" stroke="midnightblue" points="107.915,-106.955 97.4075,-105.601 104.777,-113.212 107.915,-106.955"/>
</g>
<!-- Node3 -->
<g id="node5" class="node"><title>Node3</title>
<a xlink:href="../../db/d66/class_u_b_settings.html#affdc42a5394182b71057c49f370b8a41" target="_top" xlink:title="UBSettings::currentMarker\lColor">
<polygon fill="white" stroke="black" points="195.5,-104 195.5,-138 328.5,-138 328.5,-104 195.5,-104"/>
<text text-anchor="start" x="203.5" y="-125" font-family="Helvetica,sans-Serif" font-size="10.00">UBSettings::currentMarker</text>
<text text-anchor="middle" x="262" y="-112" font-family="Helvetica,sans-Serif" font-size="10.00">Color</text>
</a>
</g>
<!-- Node1&#45;&gt;Node3 -->
<g id="edge4" class="edge"><title>Node1&#45;&gt;Node3</title>
<path fill="none" stroke="midnightblue" d="M161.947,-106.938C173.156,-108.514 184.515,-110.11 195.358,-111.634"/>
<polygon fill="midnightblue" stroke="midnightblue" points="162.103,-103.426 151.713,-105.5 161.129,-110.358 162.103,-103.426"/>
</g>
<!-- Node4 -->
<g id="node7" class="node"><title>Node4</title>
<a xlink:href="../../da/d65/class_u_b_graphics_text_item.html#a6fd257fac2fd660d0c3094ddcac6b367" target="_top" xlink:title="UBGraphicsTextItem\l::paint">
<polygon fill="white" stroke="black" points="207.5,-52 207.5,-86 316.5,-86 316.5,-52 207.5,-52"/>
<text text-anchor="start" x="215.5" y="-73" font-family="Helvetica,sans-Serif" font-size="10.00">UBGraphicsTextItem</text>
<text text-anchor="middle" x="262" y="-60" font-family="Helvetica,sans-Serif" font-size="10.00">::paint</text>
</a>
</g>
<!-- Node1&#45;&gt;Node4 -->
<g id="edge6" class="edge"><title>Node1&#45;&gt;Node4</title>
<path fill="none" stroke="midnightblue" d="M161.847,-83.0756C177.359,-80.8955 193.16,-78.6749 207.489,-76.6611"/>
<polygon fill="midnightblue" stroke="midnightblue" points="161.129,-79.642 151.713,-84.4997 162.103,-86.5739 161.129,-79.642"/>
</g>
<!-- Node5 -->
<g id="node9" class="node"><title>Node5</title>
<a xlink:href="../../d3/dce/class_u_b_toolbar_button_group.html#aa209164c95dd708651983a8b4ae6581d" target="_top" xlink:title="UBToolbarButtonGroup\l::colorPaletteChanged">
<polygon fill="white" stroke="black" points="203,-0 203,-34 321,-34 321,-0 203,-0"/>
<text text-anchor="start" x="211" y="-21" font-family="Helvetica,sans-Serif" font-size="10.00">UBToolbarButtonGroup</text>
<text text-anchor="middle" x="262" y="-8" font-family="Helvetica,sans-Serif" font-size="10.00">::colorPaletteChanged</text>
</a>
</g>
<!-- Node1&#45;&gt;Node5 -->
<g id="edge8" class="edge"><title>Node1&#45;&gt;Node5</title>
<path fill="none" stroke="midnightblue" d="M107.506,-80.109C130.072,-69.3035 161.674,-54.6074 190,-43 197.379,-39.9764 205.253,-36.9419 212.987,-34.0677"/>
<polygon fill="midnightblue" stroke="midnightblue" points="105.916,-76.99 98.4238,-84.4814 108.952,-83.2971 105.916,-76.99"/>
</g>
<!-- Node6 -->
<g id="node11" class="node"><title>Node6</title>
<a xlink:href="../../d7/d62/class_u_b_board_controller.html#a6761e02604fb3aa8ecbfc5fd4a5d87f3" target="_top" xlink:title="UBBoardController:\l:setupToolbar">
<polygon fill="white" stroke="black" points="370.5,-0 370.5,-34 471.5,-34 471.5,-0 370.5,-0"/>
<text text-anchor="start" x="378.5" y="-21" font-family="Helvetica,sans-Serif" font-size="10.00">UBBoardController:</text>
<text text-anchor="middle" x="421" y="-8" font-family="Helvetica,sans-Serif" font-size="10.00">:setupToolbar</text>
</a>
</g>
<!-- Node5&#45;&gt;Node6 -->
<g id="edge10" class="edge"><title>Node5&#45;&gt;Node6</title>
<path fill="none" stroke="midnightblue" d="M331.563,-17C344.609,-17 358.017,-17 370.353,-17"/>
<polygon fill="midnightblue" stroke="midnightblue" points="331.206,-13.5001 321.206,-17 331.206,-20.5001 331.206,-13.5001"/>
</g>
<!-- Node7 -->
<g id="node13" class="node"><title>Node7</title>
<a xlink:href="../../d7/d62/class_u_b_board_controller.html#aa728cb7c1b979b2d4ae45638a7386dde" target="_top" xlink:title="UBBoardController::init">
<polygon fill="white" stroke="black" points="508.5,-6.5 508.5,-27.5 625.5,-27.5 625.5,-6.5 508.5,-6.5"/>
<text text-anchor="middle" x="567" y="-14.5" font-family="Helvetica,sans-Serif" font-size="10.00">UBBoardController::init</text>
</a>
</g>
<!-- Node6&#45;&gt;Node7 -->
<g id="edge12" class="edge"><title>Node6&#45;&gt;Node7</title>
<path fill="none" stroke="midnightblue" d="M481.836,-17C490.631,-17 499.668,-17 508.418,-17"/>
<polygon fill="midnightblue" stroke="midnightblue" points="481.654,-13.5001 471.654,-17 481.654,-20.5001 481.654,-13.5001"/>
</g>
<!-- Node8 -->
<g id="node15" class="node"><title>Node8</title>
<a xlink:href="../../d8/d81/class_u_b_application.html#add1469239e71bf24fdc61413a42a38bd" target="_top" xlink:title="UBApplication::exec">
<polygon fill="white" stroke="black" points="662,-6.5 662,-27.5 768,-27.5 768,-6.5 662,-6.5"/>
<text text-anchor="middle" x="715" y="-14.5" font-family="Helvetica,sans-Serif" font-size="10.00">UBApplication::exec</text>
</a>
</g>
<!-- Node7&#45;&gt;Node8 -->
<g id="edge14" class="edge"><title>Node7&#45;&gt;Node8</title>
<path fill="none" stroke="midnightblue" d="M635.947,-17C644.549,-17 653.243,-17 661.56,-17"/>
<polygon fill="midnightblue" stroke="midnightblue" points="635.919,-13.5001 625.919,-17 635.919,-20.5001 635.919,-13.5001"/>
</g>
<!-- Node9 -->
<g id="node17" class="node"><title>Node9</title>
<a xlink:href="../../df/d0a/main_8cpp.html#a0ddf1224851353fc92bfbff6f499fa97" target="_top" xlink:title="main">
<polygon fill="white" stroke="black" points="804,-6.5 804,-27.5 842,-27.5 842,-6.5 804,-6.5"/>
<text text-anchor="middle" x="823" y="-14.5" font-family="Helvetica,sans-Serif" font-size="10.00">main</text>
</a>
</g>
<!-- Node8&#45;&gt;Node9 -->
<g id="edge16" class="edge"><title>Node8&#45;&gt;Node9</title>
<path fill="none" stroke="midnightblue" d="M778.214,-17C787.495,-17 796.401,-17 803.793,-17"/>
<polygon fill="midnightblue" stroke="midnightblue" points="778.051,-13.5001 768.051,-17 778.051,-20.5001 778.051,-13.5001"/>
</g>
</g>
</svg>
