<?xml version="1.0" encoding="UTF-8" standalone="no"?>
<!DOCTYPE svg PUBLIC "-//W3C//DTD SVG 1.1//EN"
 "http://www.w3.org/Graphics/SVG/1.1/DTD/svg11.dtd">
<!-- Generated by graphviz version 2.26.3 (20100126.1600)
 -->
<!-- Title: UBSceneThumbnailPixmap::proxy Pages: 1 -->
<!--zoomable 369 -->
<svg id="main" version="1.1" xmlns="http://www.w3.org/2000/svg" xmlns:xlink="http://www.w3.org/1999/xlink" xml:space="preserve" onload="init(evt)">
        <defs>
                <circle id="rim" cx="0" cy="0" r="7"/>
                <circle id="rim2" cx="0" cy="0" r="3.5"/>
                <g id="zoomPlus">
                        <use xlink:href="#rim" fill="#404040">
                                <set attributeName="fill" to="#808080" begin="zoomplus.mouseover" end="zoomplus.mouseout"/>
                        </use>
                        <path d="M-4,0h8M0,-4v8" fill="none" stroke="white" stroke-width="1.5" pointer-events="none"/>
                </g>
                <g id="zoomMin">
                        <use xlink:href="#rim" fill="#404040">
                                <set attributeName="fill" to="#808080" begin="zoomminus.mouseover" end="zoomminus.mouseout"/>
                        </use>
                        <path d="M-4,0h8" fill="none" stroke="white" stroke-width="1.5" pointer-events="none"/>
                </g>
                <g id="dirArrow">
                        <path fill="none" stroke="white" stroke-width="1.5" d="M0,-3.0v7 M-2.5,-0.5L0,-3.0L2.5,-0.5"/>
                </g>
               <g id="resetDef">
                       <use xlink:href="#rim2" fill="#404040">
                               <set attributeName="fill" to="#808080" begin="reset.mouseover" end="reset.mouseout"/>
                       </use>
               </g>
        </defs>

<script type="text/javascript">
var viewWidth = 856;
var viewHeight = 369;
var sectionId = 'dynsection-2';
</script>
<script xlink:href="../../svgpan.js"/>
<svg id="graph" class="graph">
<g id="viewport">
<title>UBSceneThumbnailPixmap::proxy</title>
<polygon fill="white" stroke="white" points="-4,5 -4,-364.841 853,-364.841 853,5 -4,5"/>
<!-- Node1 -->
<g id="node1" class="node"><title>Node1</title>
<polygon fill="#bfbfbf" stroke="black" points="0.5,-156 0.5,-190 137.5,-190 137.5,-156 0.5,-156"/>
<text text-anchor="start" x="8.5" y="-177" font-family="Helvetica,sans-Serif" font-size="10.00">UBSceneThumbnailPixmap</text>
<text text-anchor="middle" x="69" y="-164" font-family="Helvetica,sans-Serif" font-size="10.00">::proxy</text>
</g>
<!-- Node2 -->
<g id="node3" class="node"><title>Node2</title>
<a xlink:href="../../d6/de0/class_u_b_document_controller.html#ae617ef6d5f7b83dd7e121da6fb389799" target="_top" xlink:title="UBDocumentController\l::openSelectedItem">
<polygon fill="white" stroke="black" points="196,-298 196,-332 314,-332 314,-298 196,-298"/>
<text text-anchor="start" x="204" y="-319" font-family="Helvetica,sans-Serif" font-size="10.00">UBDocumentController</text>
<text text-anchor="middle" x="255" y="-306" font-family="Helvetica,sans-Serif" font-size="10.00">::openSelectedItem</text>
</a>
</g>
<!-- Node1&#45;&gt;Node2 -->
<g id="edge2" class="edge"><title>Node1&#45;&gt;Node2</title>
<path fill="none" stroke="midnightblue" d="M90.9151,-197.935C111.024,-219.821 142.404,-251.573 174,-274 186.724,-283.032 201.721,-291.21 215.329,-297.843"/>
<polygon fill="midnightblue" stroke="midnightblue" points="93.3485,-195.408 84.0371,-190.353 88.164,-200.111 93.3485,-195.408"/>
</g>
<!-- Node6 -->
<g id="node11" class="node"><title>Node6</title>
<a xlink:href="../../d6/de0/class_u_b_document_controller.html#a778970871dc49c20eb0812f352a65f75" target="_top" xlink:title="UBDocumentController\l::duplicateSelectedItem">
<polygon fill="white" stroke="black" points="393.5,-246 393.5,-280 512.5,-280 512.5,-246 393.5,-246"/>
<text text-anchor="start" x="401.5" y="-267" font-family="Helvetica,sans-Serif" font-size="10.00">UBDocumentController</text>
<text text-anchor="middle" x="453" y="-254" font-family="Helvetica,sans-Serif" font-size="10.00">::duplicateSelectedItem</text>
</a>
</g>
<!-- Node1&#45;&gt;Node6 -->
<g id="edge10" class="edge"><title>Node1&#45;&gt;Node6</title>
<path fill="none" stroke="midnightblue" d="M111.385,-194.534C130.156,-203.288 152.758,-212.784 174,-219 247.889,-240.621 336.084,-252.271 393.247,-258.049"/>
<polygon fill="midnightblue" stroke="midnightblue" points="112.758,-191.312 102.224,-190.181 109.753,-197.634 112.758,-191.312"/>
</g>
<!-- Node7 -->
<g id="node14" class="node"><title>Node7</title>
<a xlink:href="../../d6/de0/class_u_b_document_controller.html#ac16595f1d24ef3f455f1ef2bcf68daba" target="_top" xlink:title="UBDocumentController\l::thumbnailPageDoubleClicked">
<polygon fill="white" stroke="black" points="377.5,-194 377.5,-228 528.5,-228 528.5,-194 377.5,-194"/>
<text text-anchor="start" x="385.5" y="-215" font-family="Helvetica,sans-Serif" font-size="10.00">UBDocumentController</text>
<text text-anchor="middle" x="453" y="-202" font-family="Helvetica,sans-Serif" font-size="10.00">::thumbnailPageDoubleClicked</text>
</a>
</g>
<!-- Node1&#45;&gt;Node7 -->
<g id="edge14" class="edge"><title>Node1&#45;&gt;Node7</title>
<path fill="none" stroke="midnightblue" d="M138.589,-192.294C150.331,-194.954 162.455,-197.339 174,-199 242.383,-208.836 321.085,-211.44 377.429,-211.816"/>
<polygon fill="midnightblue" stroke="midnightblue" points="139.373,-188.882 128.837,-190.004 137.772,-195.697 139.373,-188.882"/>
</g>
<!-- Node8 -->
<g id="node17" class="node"><title>Node8</title>
<a xlink:href="../../d6/de0/class_u_b_document_controller.html#a5ec643da575f84730aada35064084cb5" target="_top" xlink:title="UBDocumentController\l::addToDocument">
<polygon fill="white" stroke="black" points="196,-156 196,-190 314,-190 314,-156 196,-156"/>
<text text-anchor="start" x="204" y="-177" font-family="Helvetica,sans-Serif" font-size="10.00">UBDocumentController</text>
<text text-anchor="middle" x="255" y="-164" font-family="Helvetica,sans-Serif" font-size="10.00">::addToDocument</text>
</a>
</g>
<!-- Node1&#45;&gt;Node8 -->
<g id="edge18" class="edge"><title>Node1&#45;&gt;Node8</title>
<path fill="none" stroke="midnightblue" d="M148.117,-173C164.074,-173 180.589,-173 195.725,-173"/>
<polygon fill="midnightblue" stroke="midnightblue" points="147.731,-169.5 137.731,-173 147.731,-176.5 147.731,-169.5"/>
</g>
<!-- Node9 -->
<g id="node20" class="node"><title>Node9</title>
<a xlink:href="../../d6/de0/class_u_b_document_controller.html#ac47e0182c9e5d2455472da574883c10b" target="_top" xlink:title="UBDocumentController\l::deletePages">
<polygon fill="white" stroke="black" points="196,-104 196,-138 314,-138 314,-104 196,-104"/>
<text text-anchor="start" x="204" y="-125" font-family="Helvetica,sans-Serif" font-size="10.00">UBDocumentController</text>
<text text-anchor="middle" x="255" y="-112" font-family="Helvetica,sans-Serif" font-size="10.00">::deletePages</text>
</a>
</g>
<!-- Node1&#45;&gt;Node9 -->
<g id="edge22" class="edge"><title>Node1&#45;&gt;Node9</title>
<path fill="none" stroke="midnightblue" d="M139.746,-153.222C158.259,-148.046 178.022,-142.521 195.861,-137.534"/>
<polygon fill="midnightblue" stroke="midnightblue" points="138.592,-149.91 129.903,-155.973 140.476,-156.651 138.592,-149.91"/>
</g>
<!-- Node11 -->
<g id="node25" class="node"><title>Node11</title>
<a xlink:href="../../d2/dd6/class_u_b_document_thumbnail_widget.html#a6d3fecab28e74030ec98a9b24a71b07f" target="_top" xlink:title="UBDocumentThumbnailWidget\l::mouseMoveEvent">
<polygon fill="white" stroke="black" points="179,-52 179,-86 331,-86 331,-52 179,-52"/>
<text text-anchor="start" x="187" y="-73" font-family="Helvetica,sans-Serif" font-size="10.00">UBDocumentThumbnailWidget</text>
<text text-anchor="middle" x="255" y="-60" font-family="Helvetica,sans-Serif" font-size="10.00">::mouseMoveEvent</text>
</a>
</g>
<!-- Node1&#45;&gt;Node11 -->
<g id="edge28" class="edge"><title>Node1&#45;&gt;Node11</title>
<path fill="none" stroke="midnightblue" d="M95.6952,-149.28C115.993,-132.248 145.243,-109.78 174,-95 180.437,-91.6919 187.377,-88.6976 194.392,-86.0182"/>
<polygon fill="midnightblue" stroke="midnightblue" points="93.1797,-146.825 87.8397,-155.976 97.7206,-152.152 93.1797,-146.825"/>
</g>
<!-- Node12 -->
<g id="node27" class="node"><title>Node12</title>
<a xlink:href="../../da/d05/class_u_b_scene_thumbnail_navig_pixmap.html#a2e00995be889b4ae68554b0d47b397f3" target="_top" xlink:title="UBSceneThumbnailNavigPixmap\l::updateButtonsState">
<polygon fill="white" stroke="black" points="174,-0 174,-34 336,-34 336,-0 174,-0"/>
<text text-anchor="start" x="182" y="-21" font-family="Helvetica,sans-Serif" font-size="10.00">UBSceneThumbnailNavigPixmap</text>
<text text-anchor="middle" x="255" y="-8" font-family="Helvetica,sans-Serif" font-size="10.00">::updateButtonsState</text>
</a>
</g>
<!-- Node1&#45;&gt;Node12 -->
<g id="edge30" class="edge"><title>Node1&#45;&gt;Node12</title>
<path fill="none" stroke="midnightblue" d="M83.7802,-146.686C101.558,-117.333 134.056,-70.3854 174,-43 178.873,-39.6594 184.2,-36.728 189.721,-34.1595"/>
<polygon fill="midnightblue" stroke="midnightblue" points="80.6151,-145.163 78.5347,-155.551 86.6394,-148.728 80.6151,-145.163"/>
</g>
<!-- Node3 -->
<g id="node5" class="node"><title>Node3</title>
<a xlink:href="../../d6/de0/class_u_b_document_controller.html#abb172787a34a34cd3c2df0a1b46918c5" target="_top" xlink:title="UBDocumentController\l::setupViews">
<polygon fill="white" stroke="black" points="570,-194 570,-228 688,-228 688,-194 570,-194"/>
<text text-anchor="start" x="578" y="-215" font-family="Helvetica,sans-Serif" font-size="10.00">UBDocumentController</text>
<text text-anchor="middle" x="629" y="-202" font-family="Helvetica,sans-Serif" font-size="10.00">::setupViews</text>
</a>
</g>
<!-- Node2&#45;&gt;Node3 -->
<g id="edge4" class="edge"><title>Node2&#45;&gt;Node3</title>
<path fill="none" stroke="midnightblue" d="M306.116,-335.465C364.534,-355.425 461.424,-377.853 534,-341 581.107,-317.08 610.438,-257.622 622.565,-228.137"/>
<polygon fill="midnightblue" stroke="midnightblue" points="306.97,-332.055 296.376,-332.038 304.647,-338.659 306.97,-332.055"/>
</g>
<!-- Node5 -->
<g id="node9" class="node"><title>Node5</title>
<a xlink:href="../../d6/de0/class_u_b_document_controller.html#a3625404ac761f6772ff3b192e0bc25f8" target="_top" xlink:title="UBDocumentController\l::pageDoubleClicked">
<polygon fill="white" stroke="black" points="394,-298 394,-332 512,-332 512,-298 394,-298"/>
<text text-anchor="start" x="402" y="-319" font-family="Helvetica,sans-Serif" font-size="10.00">UBDocumentController</text>
<text text-anchor="middle" x="453" y="-306" font-family="Helvetica,sans-Serif" font-size="10.00">::pageDoubleClicked</text>
</a>
</g>
<!-- Node2&#45;&gt;Node5 -->
<g id="edge8" class="edge"><title>Node2&#45;&gt;Node5</title>
<path fill="none" stroke="midnightblue" d="M324.372,-315C347.036,-315 371.982,-315 393.824,-315"/>
<polygon fill="midnightblue" stroke="midnightblue" points="324.138,-311.5 314.138,-315 324.138,-318.5 324.138,-311.5"/>
</g>
<!-- Node4 -->
<g id="node7" class="node"><title>Node4</title>
<a xlink:href="../../d6/de0/class_u_b_document_controller.html#a38e9ea0a2dad2b1c8d9588563e9ee3bf" target="_top" xlink:title="UBDocumentController\l::UBDocumentController">
<polygon fill="white" stroke="black" points="724,-194 724,-228 848,-228 848,-194 724,-194"/>
<text text-anchor="start" x="732" y="-215" font-family="Helvetica,sans-Serif" font-size="10.00">UBDocumentController</text>
<text text-anchor="middle" x="786" y="-202" font-family="Helvetica,sans-Serif" font-size="10.00">::UBDocumentController</text>
</a>
</g>
<!-- Node3&#45;&gt;Node4 -->
<g id="edge6" class="edge"><title>Node3&#45;&gt;Node4</title>
<path fill="none" stroke="midnightblue" d="M698.569,-211C707.021,-211 715.613,-211 723.946,-211"/>
<polygon fill="midnightblue" stroke="midnightblue" points="698.355,-207.5 688.355,-211 698.355,-214.5 698.355,-207.5"/>
</g>
<!-- Node6&#45;&gt;Node3 -->
<g id="edge12" class="edge"><title>Node6&#45;&gt;Node3</title>
<path fill="none" stroke="midnightblue" d="M520.364,-243.097C537.139,-238.141 554.975,-232.871 571.242,-228.065"/>
<polygon fill="midnightblue" stroke="midnightblue" points="519.227,-239.783 510.629,-245.973 521.211,-246.496 519.227,-239.783"/>
</g>
<!-- Node7&#45;&gt;Node3 -->
<g id="edge16" class="edge"><title>Node7&#45;&gt;Node3</title>
<path fill="none" stroke="midnightblue" d="M538.733,-211C549.271,-211 559.854,-211 569.874,-211"/>
<polygon fill="midnightblue" stroke="midnightblue" points="538.661,-207.5 528.661,-211 538.661,-214.5 538.661,-207.5"/>
</g>
<!-- Node8&#45;&gt;Node3 -->
<g id="edge20" class="edge"><title>Node8&#45;&gt;Node3</title>
<path fill="none" stroke="midnightblue" d="M324.448,-171.688C381.156,-171.645 463.203,-173.933 534,-185 547.431,-187.1 561.682,-190.402 574.948,-193.959"/>
<polygon fill="midnightblue" stroke="midnightblue" points="324.151,-168.189 314.162,-171.722 324.174,-175.189 324.151,-168.189"/>
</g>
<!-- Node10 -->
<g id="node22" class="node"><title>Node10</title>
<a xlink:href="../../d6/de0/class_u_b_document_controller.html#a585faed52b3ca1aa66bad2d0383eb026" target="_top" xlink:title="UBDocumentController\l::deleteSelectedItem">
<polygon fill="white" stroke="black" points="394,-104 394,-138 512,-138 512,-104 394,-104"/>
<text text-anchor="start" x="402" y="-125" font-family="Helvetica,sans-Serif" font-size="10.00">UBDocumentController</text>
<text text-anchor="middle" x="453" y="-112" font-family="Helvetica,sans-Serif" font-size="10.00">::deleteSelectedItem</text>
</a>
</g>
<!-- Node9&#45;&gt;Node10 -->
<g id="edge24" class="edge"><title>Node9&#45;&gt;Node10</title>
<path fill="none" stroke="midnightblue" d="M324.372,-121C347.036,-121 371.982,-121 393.824,-121"/>
<polygon fill="midnightblue" stroke="midnightblue" points="324.138,-117.5 314.138,-121 324.138,-124.5 324.138,-117.5"/>
</g>
<!-- Node10&#45;&gt;Node3 -->
<g id="edge26" class="edge"><title>Node10&#45;&gt;Node3</title>
<path fill="none" stroke="midnightblue" d="M511.398,-141.815C519.098,-145.004 526.808,-148.431 534,-152 558.87,-164.341 585.598,-181.305 604.348,-193.876"/>
<polygon fill="midnightblue" stroke="midnightblue" points="512.63,-138.538 502.046,-138.049 510.015,-145.031 512.63,-138.538"/>
</g>
<!-- Node13 -->
<g id="node29" class="node"><title>Node13</title>
<a xlink:href="../../da/d05/class_u_b_scene_thumbnail_navig_pixmap.html#a820876b62047e9a436a27fa2b24df031" target="_top" xlink:title="UBSceneThumbnailNavigPixmap\l::hoverEnterEvent">
<polygon fill="white" stroke="black" points="372,-0 372,-34 534,-34 534,-0 372,-0"/>
<text text-anchor="start" x="380" y="-21" font-family="Helvetica,sans-Serif" font-size="10.00">UBSceneThumbnailNavigPixmap</text>
<text text-anchor="middle" x="453" y="-8" font-family="Helvetica,sans-Serif" font-size="10.00">::hoverEnterEvent</text>
</a>
</g>
<!-- Node12&#45;&gt;Node13 -->
<g id="edge32" class="edge"><title>Node12&#45;&gt;Node13</title>
<path fill="none" stroke="midnightblue" d="M346.363,-17C354.817,-17 363.346,-17 371.7,-17"/>
<polygon fill="midnightblue" stroke="midnightblue" points="346.106,-13.5001 336.105,-17 346.105,-20.5001 346.106,-13.5001"/>
</g>
</g>
</svg>
        <g id="navigator" transform="translate(0 0)" fill="#404254">
                <rect fill="#f2f5e9" fill-opacity="0.5" stroke="#606060" stroke-width=".5" x="0" y="0" width="60" height="60"/>
                <use id="zoomplus" xlink:href="#zoomPlus" x="17" y="9" onmousedown="handleZoom(evt,'in')"/>
                <use id="zoomminus" xlink:href="#zoomMin" x="42" y="9" onmousedown="handleZoom(evt,'out')"/>
                <use id="reset" xlink:href="#resetDef" x="30" y="36" onmousedown="handleReset()"/>
                <g id="arrowUp" xlink:href="#dirArrow" transform="translate(30 24)" onmousedown="handlePan(0,-1)">
                  <use xlink:href="#rim" fill="#404040">
                        <set attributeName="fill" to="#808080" begin="arrowUp.mouseover" end="arrowUp.mouseout"/>
                  </use>
                  <path fill="none" stroke="white" stroke-width="1.5" d="M0,-3.0v7 M-2.5,-0.5L0,-3.0L2.5,-0.5"/>
                </g>
                <g id="arrowRight" xlink:href="#dirArrow" transform="rotate(90) translate(36 -43)" onmousedown="handlePan(1,0)">
                  <use xlink:href="#rim" fill="#404040">
                        <set attributeName="fill" to="#808080" begin="arrowRight.mouseover" end="arrowRight.mouseout"/>
                  </use>
                  <path fill="none" stroke="white" stroke-width="1.5" d="M0,-3.0v7 M-2.5,-0.5L0,-3.0L2.5,-0.5"/>
                </g>
                <g id="arrowDown" xlink:href="#dirArrow" transform="rotate(180) translate(-30 -48)" onmousedown="handlePan(0,1)">
                  <use xlink:href="#rim" fill="#404040">
                        <set attributeName="fill" to="#808080" begin="arrowDown.mouseover" end="arrowDown.mouseout"/>
                  </use>
                  <path fill="none" stroke="white" stroke-width="1.5" d="M0,-3.0v7 M-2.5,-0.5L0,-3.0L2.5,-0.5"/>
                </g>
                <g id="arrowLeft" xlink:href="#dirArrow" transform="rotate(270) translate(-36 17)" onmousedown="handlePan(-1,0)">
                  <use xlink:href="#rim" fill="#404040">
                        <set attributeName="fill" to="#808080" begin="arrowLeft.mouseover" end="arrowLeft.mouseout"/>
                  </use>
                  <path fill="none" stroke="white" stroke-width="1.5" d="M0,-3.0v7 M-2.5,-0.5L0,-3.0L2.5,-0.5"/>
                </g>
        </g>
        <svg viewBox="0 0 15 15" width="100%" height="30px" preserveAspectRatio="xMaxYMin meet">
         <g id="arrow_out" transform="scale(0.3 0.3)">
          <a xlink:href="class_u_b_scene_thumbnail_pixmap_ae7da44d7a27c5ed55eb753200fcd8d2e_icgraph_org.svg" target="_base">
           <rect id="button" ry="5" rx="5" y="6" x="6" height="38" width="38"
                fill="#f2f5e9" fill-opacity="0.5" stroke="#606060" stroke-width="1.0"/>
           <path id="arrow"
             d="M 11.500037,31.436501 C 11.940474,20.09759 22.043105,11.32322 32.158766,21.979434 L 37.068811,17.246167 C 37.068811,17.246167 37.088388,32 37.088388,32 L 22.160133,31.978069 C 22.160133,31.978069 26.997745,27.140456 26.997745,27.140456 C 18.528582,18.264221 13.291696,25.230495 11.500037,31.436501 z"
             style="fill:#404040;"/>
          </a>
         </g>
        </svg>
</svg>
