<?xml version="1.0" encoding="UTF-8" standalone="no"?>
<!DOCTYPE svg PUBLIC "-//W3C//DTD SVG 1.1//EN"
 "http://www.w3.org/Graphics/SVG/1.1/DTD/svg11.dtd">
<!-- Generated by graphviz version 2.26.3 (20100126.1600)
 -->
<!-- Title: UBBoardPaletteManager::changeMode Pages: 1 -->
<!--zoomable 146 -->
<svg id="main" version="1.1" xmlns="http://www.w3.org/2000/svg" xmlns:xlink="http://www.w3.org/1999/xlink" xml:space="preserve" onload="init(evt)">
        <defs>
                <circle id="rim" cx="0" cy="0" r="7"/>
                <circle id="rim2" cx="0" cy="0" r="3.5"/>
                <g id="zoomPlus">
                        <use xlink:href="#rim" fill="#404040">
                                <set attributeName="fill" to="#808080" begin="zoomplus.mouseover" end="zoomplus.mouseout"/>
                        </use>
                        <path d="M-4,0h8M0,-4v8" fill="none" stroke="white" stroke-width="1.5" pointer-events="none"/>
                </g>
                <g id="zoomMin">
                        <use xlink:href="#rim" fill="#404040">
                                <set attributeName="fill" to="#808080" begin="zoomminus.mouseover" end="zoomminus.mouseout"/>
                        </use>
                        <path d="M-4,0h8" fill="none" stroke="white" stroke-width="1.5" pointer-events="none"/>
                </g>
                <g id="dirArrow">
                        <path fill="none" stroke="white" stroke-width="1.5" d="M0,-3.0v7 M-2.5,-0.5L0,-3.0L2.5,-0.5"/>
                </g>
               <g id="resetDef">
                       <use xlink:href="#rim2" fill="#404040">
                               <set attributeName="fill" to="#808080" begin="reset.mouseover" end="reset.mouseout"/>
                       </use>
               </g>
        </defs>

<script type="text/javascript">
var viewWidth = 638;
var viewHeight = 146;
var sectionId = 'dynsection-16';
</script>
<script xlink:href="../../svgpan.js"/>
<svg id="graph" class="graph">
<g id="viewport">
<title>UBBoardPaletteManager::changeMode</title>
<polygon fill="white" stroke="white" points="-4,5 -4,-142 635,-142 635,5 -4,5"/>
<!-- Node1 -->
<g id="node1" class="node"><title>Node1</title>
<polygon fill="#bfbfbf" stroke="black" points="0.5,-52 0.5,-86 125.5,-86 125.5,-52 0.5,-52"/>
<text text-anchor="start" x="8.5" y="-73" font-family="Helvetica,sans-Serif" font-size="10.00">UBBoardPaletteManager</text>
<text text-anchor="middle" x="63" y="-60" font-family="Helvetica,sans-Serif" font-size="10.00">::changeMode</text>
</g>
<!-- Node2 -->
<g id="node3" class="node"><title>Node2</title>
<a xlink:href="../../dc/d38/class_u_b_board_palette_manager.html#a282dd0808ac559cd857b0a3850da0dcf" target="_top" xlink:title="Set up the dock palette widgets.">
<polygon fill="white" stroke="black" points="162.5,-104 162.5,-138 299.5,-138 299.5,-104 162.5,-104"/>
<text text-anchor="start" x="170.5" y="-125" font-family="Helvetica,sans-Serif" font-size="10.00">UBBoardPaletteManager</text>
<text text-anchor="middle" x="231" y="-112" font-family="Helvetica,sans-Serif" font-size="10.00">::setupDockPaletteWidgets</text>
</a>
</g>
<!-- Node1&#45;&gt;Node2 -->
<g id="edge2" class="edge"><title>Node1&#45;&gt;Node2</title>
<path fill="none" stroke="midnightblue" d="M127.751,-89.042C143.633,-93.9578 160.485,-99.1739 175.867,-103.935"/>
<polygon fill="midnightblue" stroke="midnightblue" points="128.597,-85.6401 118.009,-86.0267 126.527,-92.3272 128.597,-85.6401"/>
</g>
<!-- Node5 -->
<g id="node9" class="node"><title>Node5</title>
<a xlink:href="../../dc/d38/class_u_b_board_palette_manager.html#a36b62f79ec7e8ecb4da952faf8e0ba56" target="_top" xlink:title="UBBoardPaletteManager\l::slot_changeMainMode">
<polygon fill="white" stroke="black" points="168.5,-52 168.5,-86 293.5,-86 293.5,-52 168.5,-52"/>
<text text-anchor="start" x="176.5" y="-73" font-family="Helvetica,sans-Serif" font-size="10.00">UBBoardPaletteManager</text>
<text text-anchor="middle" x="231" y="-60" font-family="Helvetica,sans-Serif" font-size="10.00">::slot_changeMainMode</text>
</a>
</g>
<!-- Node1&#45;&gt;Node5 -->
<g id="edge8" class="edge"><title>Node1&#45;&gt;Node5</title>
<path fill="none" stroke="midnightblue" d="M135.85,-69C146.691,-69 157.785,-69 168.391,-69"/>
<polygon fill="midnightblue" stroke="midnightblue" points="135.557,-65.5001 125.557,-69 135.557,-72.5001 135.557,-65.5001"/>
</g>
<!-- Node6 -->
<g id="node11" class="node"><title>Node6</title>
<a xlink:href="../../dc/d38/class_u_b_board_palette_manager.html#ac34e34de42e7826f10b024d97aeccd3b" target="_top" xlink:title="UBBoardPaletteManager\l::slot_changeDesktopMode">
<polygon fill="white" stroke="black" points="163,-0 163,-34 299,-34 299,-0 163,-0"/>
<text text-anchor="start" x="171" y="-21" font-family="Helvetica,sans-Serif" font-size="10.00">UBBoardPaletteManager</text>
<text text-anchor="middle" x="231" y="-8" font-family="Helvetica,sans-Serif" font-size="10.00">::slot_changeDesktopMode</text>
</a>
</g>
<!-- Node1&#45;&gt;Node6 -->
<g id="edge10" class="edge"><title>Node1&#45;&gt;Node6</title>
<path fill="none" stroke="midnightblue" d="M127.751,-48.958C143.633,-44.0422 160.485,-38.8261 175.867,-34.065"/>
<polygon fill="midnightblue" stroke="midnightblue" points="126.527,-45.6728 118.009,-51.9733 128.597,-52.3599 126.527,-45.6728"/>
</g>
<!-- Node3 -->
<g id="node5" class="node"><title>Node3</title>
<a xlink:href="../../dc/d38/class_u_b_board_palette_manager.html#afbcd2e3da2af2a26bb84dddd061a9c5a" target="_top" xlink:title="UBBoardPaletteManager\l::setupPalettes">
<polygon fill="white" stroke="black" points="336.5,-104 336.5,-138 461.5,-138 461.5,-104 336.5,-104"/>
<text text-anchor="start" x="344.5" y="-125" font-family="Helvetica,sans-Serif" font-size="10.00">UBBoardPaletteManager</text>
<text text-anchor="middle" x="399" y="-112" font-family="Helvetica,sans-Serif" font-size="10.00">::setupPalettes</text>
</a>
</g>
<!-- Node2&#45;&gt;Node3 -->
<g id="edge4" class="edge"><title>Node2&#45;&gt;Node3</title>
<path fill="none" stroke="midnightblue" d="M309.854,-121C318.793,-121 327.809,-121 336.497,-121"/>
<polygon fill="midnightblue" stroke="midnightblue" points="309.817,-117.5 299.817,-121 309.817,-124.5 309.817,-117.5"/>
</g>
<!-- Node4 -->
<g id="node7" class="node"><title>Node4</title>
<a xlink:href="../../dc/d38/class_u_b_board_palette_manager.html#ab2ca22bf5af16f59e273a72731a138ae" target="_top" xlink:title="UBBoardPaletteManager\l::UBBoardPaletteManager">
<polygon fill="white" stroke="black" points="498.5,-104 498.5,-138 629.5,-138 629.5,-104 498.5,-104"/>
<text text-anchor="start" x="506.5" y="-125" font-family="Helvetica,sans-Serif" font-size="10.00">UBBoardPaletteManager</text>
<text text-anchor="middle" x="564" y="-112" font-family="Helvetica,sans-Serif" font-size="10.00">::UBBoardPaletteManager</text>
</a>
</g>
<!-- Node3&#45;&gt;Node4 -->
<g id="edge6" class="edge"><title>Node3&#45;&gt;Node4</title>
<path fill="none" stroke="midnightblue" d="M472.031,-121C480.78,-121 489.673,-121 498.309,-121"/>
<polygon fill="midnightblue" stroke="midnightblue" points="471.85,-117.5 461.85,-121 471.85,-124.5 471.85,-117.5"/>
</g>
</g>
</svg>
        <g id="navigator" transform="translate(0 0)" fill="#404254">
                <rect fill="#f2f5e9" fill-opacity="0.5" stroke="#606060" stroke-width=".5" x="0" y="0" width="60" height="60"/>
                <use id="zoomplus" xlink:href="#zoomPlus" x="17" y="9" onmousedown="handleZoom(evt,'in')"/>
                <use id="zoomminus" xlink:href="#zoomMin" x="42" y="9" onmousedown="handleZoom(evt,'out')"/>
                <use id="reset" xlink:href="#resetDef" x="30" y="36" onmousedown="handleReset()"/>
                <g id="arrowUp" xlink:href="#dirArrow" transform="translate(30 24)" onmousedown="handlePan(0,-1)">
                  <use xlink:href="#rim" fill="#404040">
                        <set attributeName="fill" to="#808080" begin="arrowUp.mouseover" end="arrowUp.mouseout"/>
                  </use>
                  <path fill="none" stroke="white" stroke-width="1.5" d="M0,-3.0v7 M-2.5,-0.5L0,-3.0L2.5,-0.5"/>
                </g>
                <g id="arrowRight" xlink:href="#dirArrow" transform="rotate(90) translate(36 -43)" onmousedown="handlePan(1,0)">
                  <use xlink:href="#rim" fill="#404040">
                        <set attributeName="fill" to="#808080" begin="arrowRight.mouseover" end="arrowRight.mouseout"/>
                  </use>
                  <path fill="none" stroke="white" stroke-width="1.5" d="M0,-3.0v7 M-2.5,-0.5L0,-3.0L2.5,-0.5"/>
                </g>
                <g id="arrowDown" xlink:href="#dirArrow" transform="rotate(180) translate(-30 -48)" onmousedown="handlePan(0,1)">
                  <use xlink:href="#rim" fill="#404040">
                        <set attributeName="fill" to="#808080" begin="arrowDown.mouseover" end="arrowDown.mouseout"/>
                  </use>
                  <path fill="none" stroke="white" stroke-width="1.5" d="M0,-3.0v7 M-2.5,-0.5L0,-3.0L2.5,-0.5"/>
                </g>
                <g id="arrowLeft" xlink:href="#dirArrow" transform="rotate(270) translate(-36 17)" onmousedown="handlePan(-1,0)">
                  <use xlink:href="#rim" fill="#404040">
                        <set attributeName="fill" to="#808080" begin="arrowLeft.mouseover" end="arrowLeft.mouseout"/>
                  </use>
                  <path fill="none" stroke="white" stroke-width="1.5" d="M0,-3.0v7 M-2.5,-0.5L0,-3.0L2.5,-0.5"/>
                </g>
        </g>
        <svg viewBox="0 0 15 15" width="100%" height="30px" preserveAspectRatio="xMaxYMin meet">
         <g id="arrow_out" transform="scale(0.3 0.3)">
          <a xlink:href="class_u_b_board_palette_manager_a0fb81635b0f7c6afdcd982d61b9acc66_icgraph_org.svg" target="_base">
           <rect id="button" ry="5" rx="5" y="6" x="6" height="38" width="38"
                fill="#f2f5e9" fill-opacity="0.5" stroke="#606060" stroke-width="1.0"/>
           <path id="arrow"
             d="M 11.500037,31.436501 C 11.940474,20.09759 22.043105,11.32322 32.158766,21.979434 L 37.068811,17.246167 C 37.068811,17.246167 37.088388,32 37.088388,32 L 22.160133,31.978069 C 22.160133,31.978069 26.997745,27.140456 26.997745,27.140456 C 18.528582,18.264221 13.291696,25.230495 11.500037,31.436501 z"
             style="fill:#404040;"/>
          </a>
         </g>
        </svg>
</svg>
