<?xml version="1.0" encoding="UTF-8" standalone="no"?>
<!DOCTYPE svg PUBLIC "-//W3C//DTD SVG 1.1//EN"
 "http://www.w3.org/Graphics/SVG/1.1/DTD/svg11.dtd">
<!-- Generated by graphviz version 2.26.3 (20100126.1600)
 -->
<!-- Title: UBBoardPaletteManager::addItem Pages: 1 -->
<svg width="572pt" height="120pt"
 viewBox="0.00 0.00 572.00 120.00" xmlns="http://www.w3.org/2000/svg" xmlns:xlink="http://www.w3.org/1999/xlink">
<g id="graph1" class="graph" transform="scale(1 1) rotate(0) translate(4 116)">
<title>UBBoardPaletteManager::addItem</title>
<polygon fill="white" stroke="white" points="-4,5 -4,-116 569,-116 569,5 -4,5"/>
<!-- Node1 -->
<g id="node1" class="node"><title>Node1</title>
<polygon fill="#bfbfbf" stroke="black" points="0.5,-52 0.5,-86 125.5,-86 125.5,-52 0.5,-52"/>
<text text-anchor="start" x="8.5" y="-73" font-family="Helvetica,sans-Serif" font-size="10.00">UBBoardPaletteManager</text>
<text text-anchor="middle" x="63" y="-60" font-family="Helvetica,sans-Serif" font-size="10.00">::addItem</text>
</g>
<!-- Node2 -->
<g id="node3" class="node"><title>Node2</title>
<a xlink:href="../../d1/d97/class_u_b_floating_palette.html#abc34a1ea7b29b6aaa4a0ea25d5715210" target="_top" xlink:title="UBFloatingPalette:\l:adjustSizeAndPosition">
<polygon fill="white" stroke="black" points="162,-52 162,-86 280,-86 280,-52 162,-52"/>
<text text-anchor="start" x="170" y="-73" font-family="Helvetica,sans-Serif" font-size="10.00">UBFloatingPalette:</text>
<text text-anchor="middle" x="221" y="-60" font-family="Helvetica,sans-Serif" font-size="10.00">:adjustSizeAndPosition</text>
</a>
</g>
<!-- Node1&#45;&gt;Node2 -->
<g id="edge2" class="edge"><title>Node1&#45;&gt;Node2</title>
<path fill="none" stroke="midnightblue" d="M125.9,-69C134.436,-69 143.233,-69 151.871,-69"/>
<polygon fill="midnightblue" stroke="midnightblue" points="151.912,-72.5001 161.912,-69 151.912,-65.5001 151.912,-72.5001"/>
</g>
<!-- Node3 -->
<g id="node5" class="node"><title>Node3</title>
<a xlink:href="../../d1/d97/class_u_b_floating_palette.html#aec5822b784da7d590ff463ed9cb44be9" target="_top" xlink:title="UBFloatingPalette:\l:preferredSize">
<polygon fill="white" stroke="black" points="316.5,-78 316.5,-112 415.5,-112 415.5,-78 316.5,-78"/>
<text text-anchor="start" x="324.5" y="-99" font-family="Helvetica,sans-Serif" font-size="10.00">UBFloatingPalette:</text>
<text text-anchor="middle" x="366" y="-86" font-family="Helvetica,sans-Serif" font-size="10.00">:preferredSize</text>
</a>
</g>
<!-- Node2&#45;&gt;Node3 -->
<g id="edge4" class="edge"><title>Node2&#45;&gt;Node3</title>
<path fill="none" stroke="midnightblue" d="M280.395,-79.6502C288.94,-81.1823 297.736,-82.7595 306.286,-84.2927"/>
<polygon fill="midnightblue" stroke="midnightblue" points="305.721,-87.7471 316.182,-86.0671 306.956,-80.857 305.721,-87.7471"/>
</g>
<!-- Node4 -->
<g id="node7" class="node"><title>Node4</title>
<a xlink:href="../../d1/d97/class_u_b_floating_palette.html#a187ee35c53cfad79bb5b30dff1800732" target="_top" xlink:title="UBFloatingPalette:\l:moveInsideParent">
<polygon fill="white" stroke="black" points="316.5,-26 316.5,-60 415.5,-60 415.5,-26 316.5,-26"/>
<text text-anchor="start" x="324.5" y="-47" font-family="Helvetica,sans-Serif" font-size="10.00">UBFloatingPalette:</text>
<text text-anchor="middle" x="366" y="-34" font-family="Helvetica,sans-Serif" font-size="10.00">:moveInsideParent</text>
</a>
</g>
<!-- Node2&#45;&gt;Node4 -->
<g id="edge6" class="edge"><title>Node2&#45;&gt;Node4</title>
<path fill="none" stroke="midnightblue" d="M280.395,-58.3498C288.94,-56.8177 297.736,-55.2405 306.286,-53.7073"/>
<polygon fill="midnightblue" stroke="midnightblue" points="306.956,-57.143 316.182,-51.9329 305.721,-50.2529 306.956,-57.143"/>
</g>
<!-- Node5 -->
<g id="node9" class="node"><title>Node5</title>
<a xlink:href="../../d1/d97/class_u_b_floating_palette.html#a1902d37271315e9e06d6743752104f47" target="_top" xlink:title="UBFloatingPalette:\l:border">
<polygon fill="white" stroke="black" points="458.5,-52 458.5,-86 557.5,-86 557.5,-52 458.5,-52"/>
<text text-anchor="start" x="466.5" y="-73" font-family="Helvetica,sans-Serif" font-size="10.00">UBFloatingPalette:</text>
<text text-anchor="middle" x="508" y="-60" font-family="Helvetica,sans-Serif" font-size="10.00">:border</text>
</a>
</g>
<!-- Node4&#45;&gt;Node5 -->
<g id="edge8" class="edge"><title>Node4&#45;&gt;Node5</title>
<path fill="none" stroke="midnightblue" d="M415.665,-52.0935C426.197,-54.0219 437.419,-56.0768 448.281,-58.0655"/>
<polygon fill="midnightblue" stroke="midnightblue" points="447.656,-61.5093 458.123,-59.8676 448.917,-54.6238 447.656,-61.5093"/>
</g>
<!-- Node6 -->
<g id="node11" class="node"><title>Node6</title>
<a xlink:href="../../d1/d97/class_u_b_floating_palette.html#acf3ead0c3d8a3bde89b934ad208e9f9a" target="_top" xlink:title="UBFloatingPalette:\l:getParentRightOffset">
<polygon fill="white" stroke="black" points="452,-0 452,-34 564,-34 564,-0 452,-0"/>
<text text-anchor="start" x="460" y="-21" font-family="Helvetica,sans-Serif" font-size="10.00">UBFloatingPalette:</text>
<text text-anchor="middle" x="508" y="-8" font-family="Helvetica,sans-Serif" font-size="10.00">:getParentRightOffset</text>
</a>
</g>
<!-- Node4&#45;&gt;Node6 -->
<g id="edge10" class="edge"><title>Node4&#45;&gt;Node6</title>
<path fill="none" stroke="midnightblue" d="M415.665,-33.9065C424.149,-32.3531 433.081,-30.7176 441.911,-29.1008"/>
<polygon fill="midnightblue" stroke="midnightblue" points="442.602,-32.5326 451.808,-27.2887 441.341,-25.6471 442.602,-32.5326"/>
</g>
</g>
</svg>
