<?xml version="1.0" encoding="UTF-8" standalone="no"?>
<!DOCTYPE svg PUBLIC "-//W3C//DTD SVG 1.1//EN"
 "http://www.w3.org/Graphics/SVG/1.1/DTD/svg11.dtd">
<!-- Generated by graphviz version 2.26.3 (20100126.1600)
 -->
<!-- Title: UBBoardPaletteManager::toggleErasePalette Pages: 1 -->
<svg width="722pt" height="146pt"
 viewBox="0.00 0.00 722.00 146.00" xmlns="http://www.w3.org/2000/svg" xmlns:xlink="http://www.w3.org/1999/xlink">
<g id="graph1" class="graph" transform="scale(1 1) rotate(0) translate(4 142)">
<title>UBBoardPaletteManager::toggleErasePalette</title>
<polygon fill="white" stroke="white" points="-4,5 -4,-142 719,-142 719,5 -4,5"/>
<!-- Node1 -->
<g id="node1" class="node"><title>Node1</title>
<polygon fill="#bfbfbf" stroke="black" points="0.5,-78 0.5,-112 125.5,-112 125.5,-78 0.5,-78"/>
<text text-anchor="start" x="8.5" y="-99" font-family="Helvetica,sans-Serif" font-size="10.00">UBBoardPaletteManager</text>
<text text-anchor="middle" x="63" y="-86" font-family="Helvetica,sans-Serif" font-size="10.00">::toggleErasePalette</text>
</g>
<!-- Node2 -->
<g id="node3" class="node"><title>Node2</title>
<a xlink:href="../../d1/d78/class_u_b_board_view.html#af1ecc328373e86fc00110611606b62e4" target="_top" xlink:title="UBBoardView::longPressEvent">
<polygon fill="white" stroke="black" points="162.5,-84.5 162.5,-105.5 315.5,-105.5 315.5,-84.5 162.5,-84.5"/>
<text text-anchor="middle" x="239" y="-92.5" font-family="Helvetica,sans-Serif" font-size="10.00">UBBoardView::longPressEvent</text>
</a>
</g>
<!-- Node1&#45;&gt;Node2 -->
<g id="edge2" class="edge"><title>Node1&#45;&gt;Node2</title>
<path fill="none" stroke="midnightblue" d="M135.774,-95C144.588,-95 153.612,-95 162.478,-95"/>
<polygon fill="midnightblue" stroke="midnightblue" points="135.547,-91.5001 125.547,-95 135.547,-98.5001 135.547,-91.5001"/>
</g>
<!-- Node3 -->
<g id="node5" class="node"><title>Node3</title>
<a xlink:href="../../d1/d78/class_u_b_board_view.html#a6fc3391590c435e0ae26c43d2bd76d14" target="_top" xlink:title="UBBoardView::mousePressEvent">
<polygon fill="white" stroke="black" points="352,-84.5 352,-105.5 516,-105.5 516,-84.5 352,-84.5"/>
<text text-anchor="middle" x="434" y="-92.5" font-family="Helvetica,sans-Serif" font-size="10.00">UBBoardView::mousePressEvent</text>
</a>
</g>
<!-- Node2&#45;&gt;Node3 -->
<g id="edge4" class="edge"><title>Node2&#45;&gt;Node3</title>
<path fill="none" stroke="midnightblue" d="M325.68,-95C334.405,-95 343.246,-95 351.921,-95"/>
<polygon fill="midnightblue" stroke="midnightblue" points="325.51,-91.5001 315.509,-95 325.509,-98.5001 325.51,-91.5001"/>
</g>
<!-- Node4 -->
<g id="node7" class="node"><title>Node4</title>
<a xlink:href="../../d1/d78/class_u_b_board_view.html#a1818c4d69a09adc9bb98079d2210564d" target="_top" xlink:title="UBBoardView::handleItemMouse\lPress">
<polygon fill="white" stroke="black" points="552.5,-104 552.5,-138 713.5,-138 713.5,-104 552.5,-104"/>
<text text-anchor="start" x="560.5" y="-125" font-family="Helvetica,sans-Serif" font-size="10.00">UBBoardView::handleItemMouse</text>
<text text-anchor="middle" x="633" y="-112" font-family="Helvetica,sans-Serif" font-size="10.00">Press</text>
</a>
</g>
<!-- Node3&#45;&gt;Node4 -->
<g id="edge6" class="edge"><title>Node3&#45;&gt;Node4</title>
<path fill="none" stroke="midnightblue" d="M526.256,-100.319C535.305,-101.462 544.434,-102.69 553.342,-103.963"/>
<polygon fill="midnightblue" stroke="midnightblue" points="526.443,-96.8161 516.09,-99.068 525.587,-103.764 526.443,-96.8161"/>
</g>
<!-- Node5 -->
<g id="node10" class="node"><title>Node5</title>
<a xlink:href="../../d1/d78/class_u_b_board_view.html#acc4206bbb27829580a337c81708be4a3" target="_top" xlink:title="UBBoardView::mouseRelease\lEvent">
<polygon fill="white" stroke="black" points="558.5,-52 558.5,-86 707.5,-86 707.5,-52 558.5,-52"/>
<text text-anchor="start" x="566.5" y="-73" font-family="Helvetica,sans-Serif" font-size="10.00">UBBoardView::mouseRelease</text>
<text text-anchor="middle" x="633" y="-60" font-family="Helvetica,sans-Serif" font-size="10.00">Event</text>
</a>
</g>
<!-- Node3&#45;&gt;Node5 -->
<g id="edge10" class="edge"><title>Node3&#45;&gt;Node5</title>
<path fill="none" stroke="midnightblue" d="M524.338,-83.1971C535.748,-81.7063 547.32,-80.1944 558.448,-78.7405"/>
<polygon fill="midnightblue" stroke="midnightblue" points="523.83,-79.7336 514.367,-84.4997 524.736,-86.6746 523.83,-79.7336"/>
</g>
<!-- Node6 -->
<g id="node12" class="node"><title>Node6</title>
<a xlink:href="../../d1/d78/class_u_b_board_view.html#a43eb1207291905e9daa7c618a3c203bb" target="_top" xlink:title="UBBoardView::mouseDouble\lClickEvent">
<polygon fill="white" stroke="black" points="561,-0 561,-34 705,-34 705,-0 561,-0"/>
<text text-anchor="start" x="569" y="-21" font-family="Helvetica,sans-Serif" font-size="10.00">UBBoardView::mouseDouble</text>
<text text-anchor="middle" x="633" y="-8" font-family="Helvetica,sans-Serif" font-size="10.00">ClickEvent</text>
</a>
</g>
<!-- Node3&#45;&gt;Node6 -->
<g id="edge12" class="edge"><title>Node3&#45;&gt;Node6</title>
<path fill="none" stroke="midnightblue" d="M465.488,-80.0492C489.046,-69.1279 522.2,-54.3134 552,-43 560.008,-39.9596 568.546,-36.9624 576.961,-34.1447"/>
<polygon fill="midnightblue" stroke="midnightblue" points="463.913,-76.9219 456.331,-84.3223 466.873,-83.2652 463.913,-76.9219"/>
</g>
<!-- Node4&#45;&gt;Node3 -->
<g id="edge8" class="edge"><title>Node4&#45;&gt;Node3</title>
<path fill="none" stroke="midnightblue" d="M542.235,-115.868C517.833,-112.81 492.724,-109.114 472.842,-105.556"/>
<polygon fill="midnightblue" stroke="midnightblue" points="541.915,-119.355 552.265,-117.094 542.764,-112.407 541.915,-119.355"/>
</g>
</g>
</svg>
