<?xml version="1.0" encoding="UTF-8" standalone="no"?>
<!DOCTYPE svg PUBLIC "-//W3C//DTD SVG 1.1//EN"
 "http://www.w3.org/Graphics/SVG/1.1/DTD/svg11.dtd">
<!-- Generated by graphviz version 2.26.3 (20100126.1600)
 -->
<!-- Title: UBGraphicsWidgetItem::setUuid Pages: 1 -->
<svg width="1764pt" height="694pt"
 viewBox="0.00 0.00 1764.00 694.00" xmlns="http://www.w3.org/2000/svg" xmlns:xlink="http://www.w3.org/1999/xlink">
<g id="graph1" class="graph" transform="scale(1 1) rotate(0) translate(4 690)">
<title>UBGraphicsWidgetItem::setUuid</title>
<polygon fill="white" stroke="white" points="-4,5 -4,-690 1761,-690 1761,5 -4,5"/>
<!-- Node1 -->
<g id="node1" class="node"><title>Node1</title>
<polygon fill="#bfbfbf" stroke="black" points="0,-618 0,-652 120,-652 120,-618 0,-618"/>
<text text-anchor="start" x="8" y="-639" font-family="Helvetica,sans-Serif" font-size="10.00">UBGraphicsWidgetItem</text>
<text text-anchor="middle" x="60" y="-626" font-family="Helvetica,sans-Serif" font-size="10.00">::setUuid</text>
</g>
<!-- Node2 -->
<g id="node3" class="node"><title>Node2</title>
<a xlink:href="../../d7/d62/class_u_b_board_controller.html#a5f701f4cd3173743effca3b3b0bd4615" target="_top" xlink:title="UBBoardController:\l:addLinkToPage">
<polygon fill="white" stroke="black" points="156.5,-618 156.5,-652 257.5,-652 257.5,-618 156.5,-618"/>
<text text-anchor="start" x="164.5" y="-639" font-family="Helvetica,sans-Serif" font-size="10.00">UBBoardController:</text>
<text text-anchor="middle" x="207" y="-626" font-family="Helvetica,sans-Serif" font-size="10.00">:addLinkToPage</text>
</a>
</g>
<!-- Node1&#45;&gt;Node2 -->
<g id="edge2" class="edge"><title>Node1&#45;&gt;Node2</title>
<path fill="none" stroke="midnightblue" d="M130.47,-635C139.255,-635 148.097,-635 156.495,-635"/>
<polygon fill="midnightblue" stroke="midnightblue" points="130.215,-631.5 120.215,-635 130.215,-638.5 130.215,-631.5"/>
</g>
<!-- Node3 -->
<g id="node5" class="node"><title>Node3</title>
<a xlink:href="../../d7/d62/class_u_b_board_controller.html#ab6cbc7bda85279e7eee5c5923892dd1a" target="_top" xlink:title="UBBoardController:\l:downloadFinished">
<polygon fill="white" stroke="black" points="294.5,-536 294.5,-570 395.5,-570 395.5,-536 294.5,-536"/>
<text text-anchor="start" x="302.5" y="-557" font-family="Helvetica,sans-Serif" font-size="10.00">UBBoardController:</text>
<text text-anchor="middle" x="345" y="-544" font-family="Helvetica,sans-Serif" font-size="10.00">:downloadFinished</text>
</a>
</g>
<!-- Node1&#45;&gt;Node3 -->
<g id="edge112" class="edge"><title>Node1&#45;&gt;Node3</title>
<path fill="none" stroke="midnightblue" d="M129.028,-615.139C180,-600.474 248.237,-580.841 294.258,-567.6"/>
<polygon fill="midnightblue" stroke="midnightblue" points="128.041,-611.781 119.398,-617.91 129.976,-618.508 128.041,-611.781"/>
</g>
<!-- Node19 -->
<g id="node40" class="node"><title>Node19</title>
<a xlink:href="../../d7/d62/class_u_b_board_controller.html#af8867753146efd8498f1a308e0457c9e" target="_top" xlink:title="UBBoardController:\l:addW3cWidget">
<polygon fill="white" stroke="black" points="1452.5,-603 1452.5,-637 1553.5,-637 1553.5,-603 1452.5,-603"/>
<text text-anchor="start" x="1460.5" y="-624" font-family="Helvetica,sans-Serif" font-size="10.00">UBBoardController:</text>
<text text-anchor="middle" x="1503" y="-611" font-family="Helvetica,sans-Serif" font-size="10.00">:addW3cWidget</text>
</a>
</g>
<!-- Node1&#45;&gt;Node19 -->
<g id="edge114" class="edge"><title>Node1&#45;&gt;Node19</title>
<path fill="none" stroke="midnightblue" d="M127.818,-654.568C137.238,-656.934 146.828,-659.16 156,-661 239.076,-677.667 260.268,-686 345,-686 345,-686 345,-686 1089,-686 1221.46,-686 1374.83,-652.641 1452.43,-633.356"/>
<polygon fill="midnightblue" stroke="midnightblue" points="128.644,-651.167 118.088,-652.062 126.899,-657.946 128.644,-651.167"/>
</g>
<!-- Node2&#45;&gt;Node3 -->
<g id="edge4" class="edge"><title>Node2&#45;&gt;Node3</title>
<path fill="none" stroke="midnightblue" d="M244.572,-612.675C267.105,-599.285 295.325,-582.517 316.109,-570.167"/>
<polygon fill="midnightblue" stroke="midnightblue" points="242.738,-609.693 235.929,-617.81 246.314,-615.711 242.738,-609.693"/>
</g>
<!-- Node4 -->
<g id="node7" class="node"><title>Node4</title>
<a xlink:href="../../d7/d62/class_u_b_board_controller.html#aa728cb7c1b979b2d4ae45638a7386dde" target="_top" xlink:title="UBBoardController::init">
<polygon fill="white" stroke="black" points="432.5,-484.5 432.5,-505.5 549.5,-505.5 549.5,-484.5 432.5,-484.5"/>
<text text-anchor="middle" x="491" y="-492.5" font-family="Helvetica,sans-Serif" font-size="10.00">UBBoardController::init</text>
</a>
</g>
<!-- Node3&#45;&gt;Node4 -->
<g id="edge6" class="edge"><title>Node3&#45;&gt;Node4</title>
<path fill="none" stroke="midnightblue" d="M397.521,-532.136C420.176,-523.136 445.694,-512.998 464.338,-505.592"/>
<polygon fill="midnightblue" stroke="midnightblue" points="396.016,-528.967 388.015,-535.912 398.601,-535.473 396.016,-528.967"/>
</g>
<!-- Node7 -->
<g id="node13" class="node"><title>Node7</title>
<a xlink:href="../../d7/d62/class_u_b_board_controller.html#abae2655269e06f72767de71b8513f6be" target="_top" xlink:title="UBBoardController:\l:duplicateItem">
<polygon fill="white" stroke="black" points="622.5,-338 622.5,-372 723.5,-372 723.5,-338 622.5,-338"/>
<text text-anchor="start" x="630.5" y="-359" font-family="Helvetica,sans-Serif" font-size="10.00">UBBoardController:</text>
<text text-anchor="middle" x="673" y="-346" font-family="Helvetica,sans-Serif" font-size="10.00">:duplicateItem</text>
</a>
</g>
<!-- Node3&#45;&gt;Node7 -->
<g id="edge12" class="edge"><title>Node3&#45;&gt;Node7</title>
<path fill="none" stroke="midnightblue" d="M368.693,-528.542C385.407,-512.126 408.859,-490.711 432,-475 496.965,-430.893 580.454,-392.997 630.175,-372.155"/>
<polygon fill="midnightblue" stroke="midnightblue" points="366.127,-526.157 361.513,-535.694 371.068,-531.117 366.127,-526.157"/>
</g>
<!-- Node40 -->
<g id="node84" class="node"><title>Node40</title>
<a xlink:href="../../d7/d62/class_u_b_board_controller.html#a358f3f88d1fa9e41620170d76a806f93" target="_top" xlink:title="UBBoardController:\l:downloadURL">
<polygon fill="white" stroke="black" points="440.5,-196 440.5,-230 541.5,-230 541.5,-196 440.5,-196"/>
<text text-anchor="start" x="448.5" y="-217" font-family="Helvetica,sans-Serif" font-size="10.00">UBBoardController:</text>
<text text-anchor="middle" x="491" y="-204" font-family="Helvetica,sans-Serif" font-size="10.00">:downloadURL</text>
</a>
</g>
<!-- Node3&#45;&gt;Node40 -->
<g id="edge88" class="edge"><title>Node3&#45;&gt;Node40</title>
<path fill="none" stroke="midnightblue" d="M356.497,-526.226C385.269,-459.223 459.773,-285.72 483.574,-230.293"/>
<polygon fill="midnightblue" stroke="midnightblue" points="353.171,-525.102 352.441,-535.672 359.603,-527.864 353.171,-525.102"/>
</g>
<!-- Node5 -->
<g id="node9" class="node"><title>Node5</title>
<a xlink:href="../../d8/d81/class_u_b_application.html#add1469239e71bf24fdc61413a42a38bd" target="_top" xlink:title="UBApplication::exec">
<polygon fill="white" stroke="black" points="620,-484.5 620,-505.5 726,-505.5 726,-484.5 620,-484.5"/>
<text text-anchor="middle" x="673" y="-492.5" font-family="Helvetica,sans-Serif" font-size="10.00">UBApplication::exec</text>
</a>
</g>
<!-- Node4&#45;&gt;Node5 -->
<g id="edge8" class="edge"><title>Node4&#45;&gt;Node5</title>
<path fill="none" stroke="midnightblue" d="M559.81,-495C579.659,-495 601.01,-495 619.76,-495"/>
<polygon fill="midnightblue" stroke="midnightblue" points="559.588,-491.5 549.588,-495 559.588,-498.5 559.588,-491.5"/>
</g>
<!-- Node6 -->
<g id="node11" class="node"><title>Node6</title>
<a xlink:href="../../df/d0a/main_8cpp.html#a0ddf1224851353fc92bfbff6f499fa97" target="_top" xlink:title="main">
<polygon fill="white" stroke="black" points="866,-484.5 866,-505.5 904,-505.5 904,-484.5 866,-484.5"/>
<text text-anchor="middle" x="885" y="-492.5" font-family="Helvetica,sans-Serif" font-size="10.00">main</text>
</a>
</g>
<!-- Node5&#45;&gt;Node6 -->
<g id="edge10" class="edge"><title>Node5&#45;&gt;Node6</title>
<path fill="none" stroke="midnightblue" d="M736.343,-495C780.656,-495 836.908,-495 865.861,-495"/>
<polygon fill="midnightblue" stroke="midnightblue" points="736.223,-491.5 726.223,-495 736.223,-498.5 736.223,-491.5"/>
</g>
<!-- Node8 -->
<g id="node15" class="node"><title>Node8</title>
<a xlink:href="../../d7/d62/class_u_b_board_controller.html#a07e50010567075b570140d6143c516f5" target="_top" xlink:title="UBBoardController:\l:processMimeData">
<polygon fill="white" stroke="black" points="834.5,-248 834.5,-282 935.5,-282 935.5,-248 834.5,-248"/>
<text text-anchor="start" x="842.5" y="-269" font-family="Helvetica,sans-Serif" font-size="10.00">UBBoardController:</text>
<text text-anchor="middle" x="885" y="-256" font-family="Helvetica,sans-Serif" font-size="10.00">:processMimeData</text>
</a>
</g>
<!-- Node7&#45;&gt;Node8 -->
<g id="edge14" class="edge"><title>Node7&#45;&gt;Node8</title>
<path fill="none" stroke="midnightblue" d="M733.43,-338.61C742.437,-335.688 751.534,-332.46 760,-329 776.747,-322.155 779.927,-318.304 796,-310 813.997,-300.702 834.134,-290.503 850.696,-282.169"/>
<polygon fill="midnightblue" stroke="midnightblue" points="732.218,-335.322 723.726,-341.657 734.315,-342 732.218,-335.322"/>
</g>
<!-- Node12 -->
<g id="node23" class="node"><title>Node12</title>
<a xlink:href="../../d7/d62/class_u_b_board_controller.html#af713d6e325369af244f2af8c90299a35" target="_top" xlink:title="UBBoardController:\l:moveGraphicsWidgetToControlView">
<polygon fill="white" stroke="black" points="796,-423 796,-457 974,-457 974,-423 796,-423"/>
<text text-anchor="start" x="804" y="-444" font-family="Helvetica,sans-Serif" font-size="10.00">UBBoardController:</text>
<text text-anchor="middle" x="885" y="-431" font-family="Helvetica,sans-Serif" font-size="10.00">:moveGraphicsWidgetToControlView</text>
</a>
</g>
<!-- Node7&#45;&gt;Node12 -->
<g id="edge22" class="edge"><title>Node7&#45;&gt;Node12</title>
<path fill="none" stroke="midnightblue" d="M725.03,-375.861C761.118,-390.33 808.587,-409.363 842.422,-422.929"/>
<polygon fill="midnightblue" stroke="midnightblue" points="726.231,-372.572 715.646,-372.099 723.626,-379.069 726.231,-372.572"/>
</g>
<!-- Node22 -->
<g id="node48" class="node"><title>Node22</title>
<a xlink:href="../../dd/dd5/class_u_b_graphics_item_delegate.html#a525c69cb3c3c0df6c4db4d406fd80e48" target="_top" xlink:title="UBGraphicsItemDelegate\l::duplicate">
<polygon fill="white" stroke="black" points="821,-319 821,-353 949,-353 949,-319 821,-319"/>
<text text-anchor="start" x="829" y="-340" font-family="Helvetica,sans-Serif" font-size="10.00">UBGraphicsItemDelegate</text>
<text text-anchor="middle" x="885" y="-327" font-family="Helvetica,sans-Serif" font-size="10.00">::duplicate</text>
</a>
</g>
<!-- Node7&#45;&gt;Node22 -->
<g id="edge52" class="edge"><title>Node7&#45;&gt;Node22</title>
<path fill="none" stroke="midnightblue" d="M733.696,-349.56C760.954,-347.117 793.136,-344.233 820.796,-341.754"/>
<polygon fill="midnightblue" stroke="midnightblue" points="733.158,-346.094 723.51,-350.473 733.782,-353.066 733.158,-346.094"/>
</g>
<!-- Node9 -->
<g id="node17" class="node"><title>Node9</title>
<a xlink:href="../../d7/d62/class_u_b_board_controller.html#a68518a98107e994551da0a4e3a79fe2c" target="_top" xlink:title="UBBoardController:\l:paste">
<polygon fill="white" stroke="black" points="1038.5,-98 1038.5,-132 1139.5,-132 1139.5,-98 1038.5,-98"/>
<text text-anchor="start" x="1046.5" y="-119" font-family="Helvetica,sans-Serif" font-size="10.00">UBBoardController:</text>
<text text-anchor="middle" x="1089" y="-106" font-family="Helvetica,sans-Serif" font-size="10.00">:paste</text>
</a>
</g>
<!-- Node8&#45;&gt;Node9 -->
<g id="edge16" class="edge"><title>Node8&#45;&gt;Node9</title>
<path fill="none" stroke="midnightblue" d="M945.112,-252.27C955.164,-248.806 965.18,-244.452 974,-239 1019.95,-210.595 1059.26,-158.964 1077.73,-132.168"/>
<polygon fill="midnightblue" stroke="midnightblue" points="943.971,-248.96 935.501,-255.325 946.092,-255.631 943.971,-248.96"/>
</g>
<!-- Node11 -->
<g id="node21" class="node"><title>Node11</title>
<a xlink:href="../../d1/d78/class_u_b_board_view.html#a1bb7794094c4bb04637b0df2bc0c0fa9" target="_top" xlink:title="UBBoardView::dropEvent">
<polygon fill="white" stroke="black" points="1025,-244.5 1025,-265.5 1153,-265.5 1153,-244.5 1025,-244.5"/>
<text text-anchor="middle" x="1089" y="-252.5" font-family="Helvetica,sans-Serif" font-size="10.00">UBBoardView::dropEvent</text>
</a>
</g>
<!-- Node8&#45;&gt;Node11 -->
<g id="edge20" class="edge"><title>Node8&#45;&gt;Node11</title>
<path fill="none" stroke="midnightblue" d="M945.727,-262.023C970.601,-260.804 999.415,-259.391 1024.65,-258.154"/>
<polygon fill="midnightblue" stroke="midnightblue" points="945.506,-258.53 935.689,-262.515 945.848,-265.521 945.506,-258.53"/>
</g>
<!-- Node10 -->
<g id="node19" class="node"><title>Node10</title>
<a xlink:href="../../da/d14/class_u_b_application_controller.html#a6afa41e1bc0c178acaa89684b7e9db26" target="_top" xlink:title="UBApplicationController\l::actionPaste">
<polygon fill="white" stroke="black" points="1235.5,-5 1235.5,-39 1356.5,-39 1356.5,-5 1235.5,-5"/>
<text text-anchor="start" x="1243.5" y="-26" font-family="Helvetica,sans-Serif" font-size="10.00">UBApplicationController</text>
<text text-anchor="middle" x="1296" y="-13" font-family="Helvetica,sans-Serif" font-size="10.00">::actionPaste</text>
</a>
</g>
<!-- Node9&#45;&gt;Node10 -->
<g id="edge18" class="edge"><title>Node9&#45;&gt;Node10</title>
<path fill="none" stroke="midnightblue" d="M1122.51,-92.4375C1144.84,-78.1742 1175.27,-60.1963 1204,-48 1213.93,-43.784 1224.75,-40.0328 1235.37,-36.7821"/>
<polygon fill="midnightblue" stroke="midnightblue" points="1120.56,-89.5292 1114.06,-97.8989 1124.36,-95.4069 1120.56,-89.5292"/>
</g>
<!-- Node13 -->
<g id="node25" class="node"><title>Node13</title>
<a xlink:href="../../dc/db2/class_u_b_graphics_scene.html#aa63a9c1b5eb1de5a0d06a0f2b449648a" target="_top" xlink:title="UBGraphicsScene::addGraphics\lWidget">
<polygon fill="white" stroke="black" points="1010,-466 1010,-500 1168,-500 1168,-466 1010,-466"/>
<text text-anchor="start" x="1018" y="-487" font-family="Helvetica,sans-Serif" font-size="10.00">UBGraphicsScene::addGraphics</text>
<text text-anchor="middle" x="1089" y="-474" font-family="Helvetica,sans-Serif" font-size="10.00">Widget</text>
</a>
</g>
<!-- Node12&#45;&gt;Node13 -->
<g id="edge24" class="edge"><title>Node12&#45;&gt;Node13</title>
<path fill="none" stroke="midnightblue" d="M975.825,-459.145C987.168,-461.535 998.698,-463.966 1009.84,-466.315"/>
<polygon fill="midnightblue" stroke="midnightblue" points="976.426,-455.694 965.919,-457.056 974.982,-462.544 976.426,-455.694"/>
</g>
<!-- Node14 -->
<g id="node27" class="node"><title>Node14</title>
<a xlink:href="../../d7/d62/class_u_b_board_controller.html#af122a3bb14b0ef66b169be9fd0e5a2b3" target="_top" xlink:title="UBBoardController:\l:moveToolWidgetToScene">
<polygon fill="white" stroke="black" points="1230,-461 1230,-495 1362,-495 1362,-461 1230,-461"/>
<text text-anchor="start" x="1238" y="-482" font-family="Helvetica,sans-Serif" font-size="10.00">UBBoardController:</text>
<text text-anchor="middle" x="1296" y="-469" font-family="Helvetica,sans-Serif" font-size="10.00">:moveToolWidgetToScene</text>
</a>
</g>
<!-- Node13&#45;&gt;Node14 -->
<g id="edge26" class="edge"><title>Node13&#45;&gt;Node14</title>
<path fill="none" stroke="midnightblue" d="M1178.24,-480.845C1195.51,-480.427 1213.32,-479.997 1229.7,-479.602"/>
<polygon fill="midnightblue" stroke="midnightblue" points="1178.06,-477.348 1168.14,-481.088 1178.23,-484.346 1178.06,-477.348"/>
</g>
<!-- Node16 -->
<g id="node31" class="node"><title>Node16</title>
<a xlink:href="../../dc/db2/class_u_b_graphics_scene.html#aa86ec061e79ba18c2efe73a6bf10bf33" target="_top" xlink:title="UBGraphicsScene::addApple\lWidget">
<polygon fill="white" stroke="black" points="1224,-513 1224,-547 1368,-547 1368,-513 1224,-513"/>
<text text-anchor="start" x="1232" y="-534" font-family="Helvetica,sans-Serif" font-size="10.00">UBGraphicsScene::addApple</text>
<text text-anchor="middle" x="1296" y="-521" font-family="Helvetica,sans-Serif" font-size="10.00">Widget</text>
</a>
</g>
<!-- Node13&#45;&gt;Node16 -->
<g id="edge30" class="edge"><title>Node13&#45;&gt;Node16</title>
<path fill="none" stroke="midnightblue" d="M1174.22,-502.35C1190.76,-506.104 1207.94,-510.005 1224,-513.651"/>
<polygon fill="midnightblue" stroke="midnightblue" points="1174.55,-498.836 1164.02,-500.035 1173,-505.662 1174.55,-498.836"/>
</g>
<!-- Node18 -->
<g id="node36" class="node"><title>Node18</title>
<a xlink:href="../../dc/db2/class_u_b_graphics_scene.html#acb26de2926454faf9c5ca66989779d82" target="_top" xlink:title="UBGraphicsScene::addW3CWidget">
<polygon fill="white" stroke="black" points="1209.5,-565.5 1209.5,-586.5 1382.5,-586.5 1382.5,-565.5 1209.5,-565.5"/>
<text text-anchor="middle" x="1296" y="-573.5" font-family="Helvetica,sans-Serif" font-size="10.00">UBGraphicsScene::addW3CWidget</text>
</a>
</g>
<!-- Node13&#45;&gt;Node18 -->
<g id="edge36" class="edge"><title>Node13&#45;&gt;Node18</title>
<path fill="none" stroke="midnightblue" d="M1118.68,-505.986C1141.01,-522.211 1172.97,-543.25 1204,-556 1213.22,-559.789 1223.27,-562.908 1233.23,-565.461"/>
<polygon fill="midnightblue" stroke="midnightblue" points="1120.75,-503.157 1110.62,-500.031 1116.59,-508.788 1120.75,-503.157"/>
</g>
<!-- Node15 -->
<g id="node29" class="node"><title>Node15</title>
<a xlink:href="../../dc/de3/class_u_b_tool_widget.html#adc43c4c0d6cb3e0f5881df830775b5b7" target="_top" xlink:title="UBToolWidget::mouseRelease\lEvent">
<polygon fill="white" stroke="black" points="1427,-461 1427,-495 1579,-495 1579,-461 1427,-461"/>
<text text-anchor="start" x="1435" y="-482" font-family="Helvetica,sans-Serif" font-size="10.00">UBToolWidget::mouseRelease</text>
<text text-anchor="middle" x="1503" y="-469" font-family="Helvetica,sans-Serif" font-size="10.00">Event</text>
</a>
</g>
<!-- Node14&#45;&gt;Node15 -->
<g id="edge28" class="edge"><title>Node14&#45;&gt;Node15</title>
<path fill="none" stroke="midnightblue" d="M1372.37,-478C1390.11,-478 1409.01,-478 1426.75,-478"/>
<polygon fill="midnightblue" stroke="midnightblue" points="1372.07,-474.5 1362.07,-478 1372.07,-481.5 1372.07,-474.5"/>
</g>
<!-- Node16&#45;&gt;Node3 -->
<g id="edge32" class="edge"><title>Node16&#45;&gt;Node3</title>
<path fill="none" stroke="midnightblue" d="M1213.86,-531.269C1130.9,-532.441 999.053,-534 885,-534 673,-534 673,-534 673,-534 574.606,-534 459.887,-542.627 395.518,-548.255"/>
<polygon fill="midnightblue" stroke="midnightblue" points="1214.04,-534.767 1223.99,-531.125 1213.94,-527.768 1214.04,-534.767"/>
</g>
<!-- Node17 -->
<g id="node34" class="node"><title>Node17</title>
<a xlink:href="../../dc/db2/class_u_b_graphics_scene.html#aff586f570c8625a51bccef943662a29d" target="_top" xlink:title="UBGraphicsScene::addWidget">
<polygon fill="white" stroke="black" points="1428,-520.5 1428,-541.5 1578,-541.5 1578,-520.5 1428,-520.5"/>
<text text-anchor="middle" x="1503" y="-528.5" font-family="Helvetica,sans-Serif" font-size="10.00">UBGraphicsScene::addWidget</text>
</a>
</g>
<!-- Node16&#45;&gt;Node17 -->
<g id="edge34" class="edge"><title>Node16&#45;&gt;Node17</title>
<path fill="none" stroke="midnightblue" d="M1378.22,-530.397C1394.65,-530.477 1411.82,-530.56 1427.99,-530.638"/>
<polygon fill="midnightblue" stroke="midnightblue" points="1378.12,-526.897 1368.11,-530.348 1378.09,-533.897 1378.12,-526.897"/>
</g>
<!-- Node18&#45;&gt;Node2 -->
<g id="edge38" class="edge"><title>Node18&#45;&gt;Node2</title>
<path fill="none" stroke="midnightblue" d="M1250.72,-589.238C1175.49,-610.031 1019.67,-648 885,-648 491,-648 491,-648 491,-648 409.19,-648 314.263,-642.55 257.5,-638.708"/>
<polygon fill="midnightblue" stroke="midnightblue" points="1251.67,-592.608 1260.36,-586.547 1249.79,-585.866 1251.67,-592.608"/>
</g>
<!-- Node18&#45;&gt;Node3 -->
<g id="edge40" class="edge"><title>Node18&#45;&gt;Node3</title>
<path fill="none" stroke="midnightblue" d="M1199.2,-574.527C1115.91,-573.386 992.546,-572 885,-572 673,-572 673,-572 673,-572 574.606,-572 459.887,-563.373 395.518,-557.745"/>
<polygon fill="midnightblue" stroke="midnightblue" points="1199.36,-578.029 1209.41,-574.668 1199.46,-571.03 1199.36,-578.029"/>
</g>
<!-- Node18&#45;&gt;Node17 -->
<g id="edge46" class="edge"><title>Node18&#45;&gt;Node17</title>
<path fill="none" stroke="midnightblue" d="M1354.51,-563.28C1386.06,-556.421 1424.53,-548.058 1454.41,-541.562"/>
<polygon fill="midnightblue" stroke="midnightblue" points="1353.56,-559.905 1344.53,-565.449 1355.05,-566.745 1353.56,-559.905"/>
</g>
<!-- Node18&#45;&gt;Node19 -->
<g id="edge42" class="edge"><title>Node18&#45;&gt;Node19</title>
<path fill="none" stroke="midnightblue" d="M1355.7,-588.69C1386.31,-595.197 1423.19,-603.035 1452.38,-609.241"/>
<polygon fill="midnightblue" stroke="midnightblue" points="1356.09,-585.195 1345.58,-586.539 1354.64,-592.042 1356.09,-585.195"/>
</g>
<!-- Node20 -->
<g id="node44" class="node"><title>Node20</title>
<a xlink:href="../../dc/db2/class_u_b_graphics_scene.html#a2729368a3a28a4d9669f23f171752194" target="_top" xlink:title="UBGraphicsScene::addOEmbed">
<polygon fill="white" stroke="black" points="1424,-563.5 1424,-584.5 1582,-584.5 1582,-563.5 1424,-563.5"/>
<text text-anchor="middle" x="1503" y="-571.5" font-family="Helvetica,sans-Serif" font-size="10.00">UBGraphicsScene::addOEmbed</text>
</a>
</g>
<!-- Node18&#45;&gt;Node20 -->
<g id="edge48" class="edge"><title>Node18&#45;&gt;Node20</title>
<path fill="none" stroke="midnightblue" d="M1392.87,-575.064C1403.19,-574.964 1413.61,-574.864 1423.69,-574.766"/>
<polygon fill="midnightblue" stroke="midnightblue" points="1392.55,-571.567 1382.59,-575.163 1392.62,-578.567 1392.55,-571.567"/>
</g>
<!-- Node19&#45;&gt;Node3 -->
<g id="edge44" class="edge"><title>Node19&#45;&gt;Node3</title>
<path fill="none" stroke="midnightblue" d="M1441.81,-618.354C1330.84,-615.515 1089.01,-610 885,-610 673,-610 673,-610 673,-610 565.006,-610 537.64,-601.424 432,-579 420.126,-576.48 407.524,-573.123 395.707,-569.662"/>
<polygon fill="midnightblue" stroke="midnightblue" points="1442.05,-621.861 1452.13,-618.62 1442.23,-614.863 1442.05,-621.861"/>
</g>
<!-- Node21 -->
<g id="node46" class="node"><title>Node21</title>
<a xlink:href="../../df/d50/class_u_b_web_controller.html#ae652b7467df50b60c8d074d94abf698b" target="_top" xlink:title="UBWebController::captureo\lEmbed">
<polygon fill="white" stroke="black" points="1618.5,-557 1618.5,-591 1755.5,-591 1755.5,-557 1618.5,-557"/>
<text text-anchor="start" x="1626.5" y="-578" font-family="Helvetica,sans-Serif" font-size="10.00">UBWebController::captureo</text>
<text text-anchor="middle" x="1687" y="-565" font-family="Helvetica,sans-Serif" font-size="10.00">Embed</text>
</a>
</g>
<!-- Node20&#45;&gt;Node21 -->
<g id="edge50" class="edge"><title>Node20&#45;&gt;Node21</title>
<path fill="none" stroke="midnightblue" d="M1592.34,-574C1601.1,-574 1609.89,-574 1618.39,-574"/>
<polygon fill="midnightblue" stroke="midnightblue" points="1592.1,-570.5 1582.1,-574 1592.1,-577.5 1592.1,-570.5"/>
</g>
<!-- Node23 -->
<g id="node50" class="node"><title>Node23</title>
<a xlink:href="../../dd/dd5/class_u_b_graphics_item_delegate.html#a1de77276aba7276defacd0b87c9b87c7" target="_top" xlink:title="UBGraphicsItemDelegate\l::init">
<polygon fill="white" stroke="black" points="1025,-284 1025,-318 1153,-318 1153,-284 1025,-284"/>
<text text-anchor="start" x="1033" y="-305" font-family="Helvetica,sans-Serif" font-size="10.00">UBGraphicsItemDelegate</text>
<text text-anchor="middle" x="1089" y="-292" font-family="Helvetica,sans-Serif" font-size="10.00">::init</text>
</a>
</g>
<!-- Node22&#45;&gt;Node23 -->
<g id="edge54" class="edge"><title>Node22&#45;&gt;Node23</title>
<path fill="none" stroke="midnightblue" d="M959.301,-323.252C980.735,-319.575 1003.93,-315.595 1024.71,-312.031"/>
<polygon fill="midnightblue" stroke="midnightblue" points="958.531,-319.833 949.267,-324.974 959.715,-326.732 958.531,-319.833"/>
</g>
<!-- Node24 -->
<g id="node52" class="node"><title>Node24</title>
<a xlink:href="../../de/d93/class_u_b_graphics_group_container_item.html#a2aaeb364079830d1720110c30f999ec8" target="_top" xlink:title="UBGraphicsGroupContainer\lItem::UBGraphicsGroupContainerItem">
<polygon fill="white" stroke="black" points="1204.5,-213 1204.5,-247 1387.5,-247 1387.5,-213 1204.5,-213"/>
<text text-anchor="start" x="1212.5" y="-234" font-family="Helvetica,sans-Serif" font-size="10.00">UBGraphicsGroupContainer</text>
<text text-anchor="middle" x="1296" y="-221" font-family="Helvetica,sans-Serif" font-size="10.00">Item::UBGraphicsGroupContainerItem</text>
</a>
</g>
<!-- Node23&#45;&gt;Node24 -->
<g id="edge56" class="edge"><title>Node23&#45;&gt;Node24</title>
<path fill="none" stroke="midnightblue" d="M1154.31,-280.466C1158.98,-278.706 1163.58,-276.877 1168,-275 1184.65,-267.925 1187.2,-262.719 1204,-256 1212.01,-252.794 1220.57,-249.818 1229.11,-247.111"/>
<polygon fill="midnightblue" stroke="midnightblue" points="1152.88,-277.263 1144.69,-283.978 1155.28,-283.839 1152.88,-277.263"/>
</g>
<!-- Node26 -->
<g id="node56" class="node"><title>Node26</title>
<a xlink:href="../../dc/d5a/class_u_b_graphics_media_item.html#aa92cf921e88af8b52b4c7ed6466dd2d5" target="_top" xlink:title="UBGraphicsMediaItem\l::UBGraphicsMediaItem">
<polygon fill="white" stroke="black" points="1235,-161 1235,-195 1357,-195 1357,-161 1235,-161"/>
<text text-anchor="start" x="1243" y="-182" font-family="Helvetica,sans-Serif" font-size="10.00">UBGraphicsMediaItem</text>
<text text-anchor="middle" x="1296" y="-169" font-family="Helvetica,sans-Serif" font-size="10.00">::UBGraphicsMediaItem</text>
</a>
</g>
<!-- Node23&#45;&gt;Node26 -->
<g id="edge60" class="edge"><title>Node23&#45;&gt;Node26</title>
<path fill="none" stroke="midnightblue" d="M1161.79,-279.744C1163.96,-278.267 1166.04,-276.688 1168,-275 1194.84,-251.945 1176.68,-226.479 1204,-204 1212.84,-196.724 1223.6,-191.481 1234.6,-187.704"/>
<polygon fill="midnightblue" stroke="midnightblue" points="1159.86,-276.82 1153.07,-284.95 1163.45,-282.832 1159.86,-276.82"/>
</g>
<!-- Node28 -->
<g id="node60" class="node"><title>Node28</title>
<a xlink:href="../../d9/d0d/class_u_b_graphics_p_d_f_item.html#ae55063d3348b81ea8388df72069713b9" target="_top" xlink:title="UBGraphicsPDFItem:\l:UBGraphicsPDFItem">
<polygon fill="white" stroke="black" points="1239.5,-109 1239.5,-143 1352.5,-143 1352.5,-109 1239.5,-109"/>
<text text-anchor="start" x="1247.5" y="-130" font-family="Helvetica,sans-Serif" font-size="10.00">UBGraphicsPDFItem:</text>
<text text-anchor="middle" x="1296" y="-117" font-family="Helvetica,sans-Serif" font-size="10.00">:UBGraphicsPDFItem</text>
</a>
</g>
<!-- Node23&#45;&gt;Node28 -->
<g id="edge64" class="edge"><title>Node23&#45;&gt;Node28</title>
<path fill="none" stroke="midnightblue" d="M1161.92,-280.428C1164.07,-278.758 1166.11,-276.952 1168,-275 1207.6,-234.06 1163.54,-192.089 1204,-152 1213.55,-142.538 1226.27,-136.461 1239.19,-132.573"/>
<polygon fill="midnightblue" stroke="midnightblue" points="1159.53,-277.807 1153.1,-286.222 1163.38,-283.658 1159.53,-277.807"/>
</g>
<!-- Node30 -->
<g id="node64" class="node"><title>Node30</title>
<a xlink:href="../../d1/d78/class_u_b_graphics_pixmap_item.html#ad154326709d1935d96248228d21b20ae" target="_top" xlink:title="UBGraphicsPixmapItem\l::UBGraphicsPixmapItem">
<polygon fill="white" stroke="black" points="1232,-57 1232,-91 1360,-91 1360,-57 1232,-57"/>
<text text-anchor="start" x="1240" y="-78" font-family="Helvetica,sans-Serif" font-size="10.00">UBGraphicsPixmapItem</text>
<text text-anchor="middle" x="1296" y="-65" font-family="Helvetica,sans-Serif" font-size="10.00">::UBGraphicsPixmapItem</text>
</a>
</g>
<!-- Node23&#45;&gt;Node30 -->
<g id="edge68" class="edge"><title>Node23&#45;&gt;Node30</title>
<path fill="none" stroke="midnightblue" d="M1161.52,-281.118C1163.84,-279.257 1166.02,-277.223 1168,-275 1220.83,-215.715 1149.92,-158.148 1204,-100 1211.57,-91.8566 1221.48,-86.1949 1231.99,-82.2736"/>
<polygon fill="midnightblue" stroke="midnightblue" points="1159.43,-278.302 1153.11,-286.799 1163.35,-284.104 1159.43,-278.302"/>
</g>
<!-- Node32 -->
<g id="node68" class="node"><title>Node32</title>
<a xlink:href="../../d3/d0b/class_u_b_graphics_strokes_group.html#ab3978d4c4d489c27f90baf64a506f1d8" target="_top" xlink:title="UBGraphicsStrokesGroup\l::UBGraphicsStrokesGroup">
<polygon fill="white" stroke="black" points="1228,-409 1228,-443 1364,-443 1364,-409 1228,-409"/>
<text text-anchor="start" x="1236" y="-430" font-family="Helvetica,sans-Serif" font-size="10.00">UBGraphicsStrokesGroup</text>
<text text-anchor="middle" x="1296" y="-417" font-family="Helvetica,sans-Serif" font-size="10.00">::UBGraphicsStrokesGroup</text>
</a>
</g>
<!-- Node23&#45;&gt;Node32 -->
<g id="edge72" class="edge"><title>Node23&#45;&gt;Node32</title>
<path fill="none" stroke="midnightblue" d="M1111.51,-325.764C1133.17,-348.186 1167.88,-380.59 1204,-400 1211.46,-404.007 1219.59,-407.449 1227.84,-410.393"/>
<polygon fill="midnightblue" stroke="midnightblue" points="1113.83,-323.129 1104.41,-318.286 1108.76,-327.948 1113.83,-323.129"/>
</g>
<!-- Node34 -->
<g id="node72" class="node"><title>Node34</title>
<a xlink:href="../../d1/dce/class_u_b_graphics_svg_item.html#aefe5ca00c7f91a56938b35611149a779" target="_top" xlink:title="UBGraphicsSvgItem::init">
<polygon fill="white" stroke="black" points="1233.5,-369.5 1233.5,-390.5 1358.5,-390.5 1358.5,-369.5 1233.5,-369.5"/>
<text text-anchor="middle" x="1296" y="-377.5" font-family="Helvetica,sans-Serif" font-size="10.00">UBGraphicsSvgItem::init</text>
</a>
</g>
<!-- Node23&#45;&gt;Node34 -->
<g id="edge76" class="edge"><title>Node23&#45;&gt;Node34</title>
<path fill="none" stroke="midnightblue" d="M1126.35,-323.306C1148.32,-335.62 1177.01,-350.331 1204,-360 1214.31,-363.694 1225.52,-366.824 1236.46,-369.433"/>
<polygon fill="midnightblue" stroke="midnightblue" points="1127.79,-320.099 1117.37,-318.198 1124.33,-326.184 1127.79,-320.099"/>
</g>
<!-- Node37 -->
<g id="node78" class="node"><title>Node37</title>
<a xlink:href="../../da/d65/class_u_b_graphics_text_item.html#acbf06a6d840ac7b6c95950e39dcd94b9" target="_top" xlink:title="UBGraphicsTextItem\l::UBGraphicsTextItem">
<polygon fill="white" stroke="black" points="1238.5,-265 1238.5,-299 1353.5,-299 1353.5,-265 1238.5,-265"/>
<text text-anchor="start" x="1246.5" y="-286" font-family="Helvetica,sans-Serif" font-size="10.00">UBGraphicsTextItem</text>
<text text-anchor="middle" x="1296" y="-273" font-family="Helvetica,sans-Serif" font-size="10.00">::UBGraphicsTextItem</text>
</a>
</g>
<!-- Node23&#45;&gt;Node37 -->
<g id="edge82" class="edge"><title>Node23&#45;&gt;Node37</title>
<path fill="none" stroke="midnightblue" d="M1163.13,-294.196C1187.82,-291.93 1214.93,-289.441 1238.2,-287.306"/>
<polygon fill="midnightblue" stroke="midnightblue" points="1162.72,-290.719 1153.08,-295.118 1163.36,-297.69 1162.72,-290.719"/>
</g>
<!-- Node39 -->
<g id="node82" class="node"><title>Node39</title>
<a xlink:href="../../d0/d16/class_u_b_graphics_widget_item.html#ac1a304e8be3f2ece6dd370210f25c90b" target="_top" xlink:title="UBGraphicsWidgetItem\l::UBGraphicsWidgetItem">
<polygon fill="white" stroke="black" points="1233,-317 1233,-351 1359,-351 1359,-317 1233,-317"/>
<text text-anchor="start" x="1241" y="-338" font-family="Helvetica,sans-Serif" font-size="10.00">UBGraphicsWidgetItem</text>
<text text-anchor="middle" x="1296" y="-325" font-family="Helvetica,sans-Serif" font-size="10.00">::UBGraphicsWidgetItem</text>
</a>
</g>
<!-- Node23&#45;&gt;Node39 -->
<g id="edge86" class="edge"><title>Node23&#45;&gt;Node39</title>
<path fill="none" stroke="midnightblue" d="M1163.07,-312.809C1185.94,-316.454 1210.89,-320.431 1232.93,-323.946"/>
<polygon fill="midnightblue" stroke="midnightblue" points="1163.5,-309.333 1153.08,-311.215 1162.4,-316.246 1163.5,-309.333"/>
</g>
<!-- Node25 -->
<g id="node54" class="node"><title>Node25</title>
<a xlink:href="../../de/d93/class_u_b_graphics_group_container_item.html#aeb38fce11d606a6a0c97544ff5fa776f" target="_top" xlink:title="UBGraphicsGroupContainer\lItem::deepCopy">
<polygon fill="white" stroke="black" points="1434,-213 1434,-247 1572,-247 1572,-213 1434,-213"/>
<text text-anchor="start" x="1442" y="-234" font-family="Helvetica,sans-Serif" font-size="10.00">UBGraphicsGroupContainer</text>
<text text-anchor="middle" x="1503" y="-221" font-family="Helvetica,sans-Serif" font-size="10.00">Item::deepCopy</text>
</a>
</g>
<!-- Node24&#45;&gt;Node25 -->
<g id="edge58" class="edge"><title>Node24&#45;&gt;Node25</title>
<path fill="none" stroke="midnightblue" d="M1397.88,-230C1410.03,-230 1422.21,-230 1433.75,-230"/>
<polygon fill="midnightblue" stroke="midnightblue" points="1397.7,-226.5 1387.7,-230 1397.7,-233.5 1397.7,-226.5"/>
</g>
<!-- Node27 -->
<g id="node58" class="node"><title>Node27</title>
<a xlink:href="../../dc/d5a/class_u_b_graphics_media_item.html#a8adbf02f86a23b2d2884efe8855e0556" target="_top" xlink:title="UBGraphicsMediaItem\l::deepCopy">
<polygon fill="white" stroke="black" points="1445,-161 1445,-195 1561,-195 1561,-161 1445,-161"/>
<text text-anchor="start" x="1453" y="-182" font-family="Helvetica,sans-Serif" font-size="10.00">UBGraphicsMediaItem</text>
<text text-anchor="middle" x="1503" y="-169" font-family="Helvetica,sans-Serif" font-size="10.00">::deepCopy</text>
</a>
</g>
<!-- Node26&#45;&gt;Node27 -->
<g id="edge62" class="edge"><title>Node26&#45;&gt;Node27</title>
<path fill="none" stroke="midnightblue" d="M1367.51,-178C1392.72,-178 1420.75,-178 1444.73,-178"/>
<polygon fill="midnightblue" stroke="midnightblue" points="1367.27,-174.5 1357.27,-178 1367.27,-181.5 1367.27,-174.5"/>
</g>
<!-- Node29 -->
<g id="node62" class="node"><title>Node29</title>
<a xlink:href="../../d9/d0d/class_u_b_graphics_p_d_f_item.html#a128b9926bef054d7246dfcd356571f36" target="_top" xlink:title="UBGraphicsPDFItem:\l:deepCopy">
<polygon fill="white" stroke="black" points="1446.5,-109 1446.5,-143 1559.5,-143 1559.5,-109 1446.5,-109"/>
<text text-anchor="start" x="1454.5" y="-130" font-family="Helvetica,sans-Serif" font-size="10.00">UBGraphicsPDFItem:</text>
<text text-anchor="middle" x="1503" y="-117" font-family="Helvetica,sans-Serif" font-size="10.00">:deepCopy</text>
</a>
</g>
<!-- Node28&#45;&gt;Node29 -->
<g id="edge66" class="edge"><title>Node28&#45;&gt;Node29</title>
<path fill="none" stroke="midnightblue" d="M1362.67,-126C1389.58,-126 1420.32,-126 1446.15,-126"/>
<polygon fill="midnightblue" stroke="midnightblue" points="1362.56,-122.5 1352.56,-126 1362.56,-129.5 1362.56,-122.5"/>
</g>
<!-- Node31 -->
<g id="node66" class="node"><title>Node31</title>
<a xlink:href="../../d1/d78/class_u_b_graphics_pixmap_item.html#a1b0fbc4ae6ba2796e5cccb0ea16b8c70" target="_top" xlink:title="UBGraphicsPixmapItem\l::deepCopy">
<polygon fill="white" stroke="black" points="1442,-57 1442,-91 1564,-91 1564,-57 1442,-57"/>
<text text-anchor="start" x="1450" y="-78" font-family="Helvetica,sans-Serif" font-size="10.00">UBGraphicsPixmapItem</text>
<text text-anchor="middle" x="1503" y="-65" font-family="Helvetica,sans-Serif" font-size="10.00">::deepCopy</text>
</a>
</g>
<!-- Node30&#45;&gt;Node31 -->
<g id="edge70" class="edge"><title>Node30&#45;&gt;Node31</title>
<path fill="none" stroke="midnightblue" d="M1370.31,-74C1393.72,-74 1419.3,-74 1441.7,-74"/>
<polygon fill="midnightblue" stroke="midnightblue" points="1370.08,-70.5001 1360.08,-74 1370.08,-77.5001 1370.08,-70.5001"/>
</g>
<!-- Node33 -->
<g id="node70" class="node"><title>Node33</title>
<a xlink:href="../../d3/d0b/class_u_b_graphics_strokes_group.html#a4932a359f046811fc1d555d5d6b49b38" target="_top" xlink:title="UBGraphicsStrokesGroup\l::deepCopy">
<polygon fill="white" stroke="black" points="1438,-409 1438,-443 1568,-443 1568,-409 1438,-409"/>
<text text-anchor="start" x="1446" y="-430" font-family="Helvetica,sans-Serif" font-size="10.00">UBGraphicsStrokesGroup</text>
<text text-anchor="middle" x="1503" y="-417" font-family="Helvetica,sans-Serif" font-size="10.00">::deepCopy</text>
</a>
</g>
<!-- Node32&#45;&gt;Node33 -->
<g id="edge74" class="edge"><title>Node32&#45;&gt;Node33</title>
<path fill="none" stroke="midnightblue" d="M1374.21,-426C1395.14,-426 1417.55,-426 1437.71,-426"/>
<polygon fill="midnightblue" stroke="midnightblue" points="1374.07,-422.5 1364.07,-426 1374.07,-429.5 1374.07,-422.5"/>
</g>
<!-- Node35 -->
<g id="node74" class="node"><title>Node35</title>
<a xlink:href="../../d1/dce/class_u_b_graphics_svg_item.html#a47ac7a4adf4bb678692aa98cc30809bf" target="_top" xlink:title="UBGraphicsSvgItem:\l:UBGraphicsSvgItem">
<polygon fill="white" stroke="black" points="1448,-357 1448,-391 1558,-391 1558,-357 1448,-357"/>
<text text-anchor="start" x="1456" y="-378" font-family="Helvetica,sans-Serif" font-size="10.00">UBGraphicsSvgItem:</text>
<text text-anchor="middle" x="1503" y="-365" font-family="Helvetica,sans-Serif" font-size="10.00">:UBGraphicsSvgItem</text>
</a>
</g>
<!-- Node34&#45;&gt;Node35 -->
<g id="edge78" class="edge"><title>Node34&#45;&gt;Node35</title>
<path fill="none" stroke="midnightblue" d="M1368.85,-377.888C1394.84,-377.135 1423.67,-376.3 1447.91,-375.597"/>
<polygon fill="midnightblue" stroke="midnightblue" points="1368.56,-374.395 1358.67,-378.184 1368.77,-381.392 1368.56,-374.395"/>
</g>
<!-- Node36 -->
<g id="node76" class="node"><title>Node36</title>
<a xlink:href="../../d1/dce/class_u_b_graphics_svg_item.html#a312cf73a521c514c48a0e866771ba75e" target="_top" xlink:title="UBGraphicsSvgItem:\l:deepCopy">
<polygon fill="white" stroke="black" points="1632,-357 1632,-391 1742,-391 1742,-357 1632,-357"/>
<text text-anchor="start" x="1640" y="-378" font-family="Helvetica,sans-Serif" font-size="10.00">UBGraphicsSvgItem:</text>
<text text-anchor="middle" x="1687" y="-365" font-family="Helvetica,sans-Serif" font-size="10.00">:deepCopy</text>
</a>
</g>
<!-- Node35&#45;&gt;Node36 -->
<g id="edge80" class="edge"><title>Node35&#45;&gt;Node36</title>
<path fill="none" stroke="midnightblue" d="M1568.23,-374C1589.03,-374 1611.82,-374 1631.83,-374"/>
<polygon fill="midnightblue" stroke="midnightblue" points="1568.21,-370.5 1558.21,-374 1568.21,-377.5 1568.21,-370.5"/>
</g>
<!-- Node38 -->
<g id="node80" class="node"><title>Node38</title>
<a xlink:href="../../da/d65/class_u_b_graphics_text_item.html#a6be4507f88dccb25e1e063ec36cf6f47" target="_top" xlink:title="UBGraphicsTextItem\l::deepCopy">
<polygon fill="white" stroke="black" points="1448.5,-265 1448.5,-299 1557.5,-299 1557.5,-265 1448.5,-265"/>
<text text-anchor="start" x="1456.5" y="-286" font-family="Helvetica,sans-Serif" font-size="10.00">UBGraphicsTextItem</text>
<text text-anchor="middle" x="1503" y="-273" font-family="Helvetica,sans-Serif" font-size="10.00">::deepCopy</text>
</a>
</g>
<!-- Node37&#45;&gt;Node38 -->
<g id="edge84" class="edge"><title>Node37&#45;&gt;Node38</title>
<path fill="none" stroke="midnightblue" d="M1363.97,-282C1391.39,-282 1422.6,-282 1448.49,-282"/>
<polygon fill="midnightblue" stroke="midnightblue" points="1363.66,-278.5 1353.66,-282 1363.66,-285.5 1363.66,-278.5"/>
</g>
<!-- Node40&#45;&gt;Node7 -->
<g id="edge94" class="edge"><title>Node40&#45;&gt;Node7</title>
<path fill="none" stroke="midnightblue" d="M505.85,-239.024C522.213,-265.427 550.92,-305.639 586,-329 596.89,-336.252 609.864,-341.535 622.426,-345.363"/>
<polygon fill="midnightblue" stroke="midnightblue" points="508.753,-237.061 500.586,-230.311 502.761,-240.68 508.753,-237.061"/>
</g>
<!-- Node40&#45;&gt;Node8 -->
<g id="edge96" class="edge"><title>Node40&#45;&gt;Node8</title>
<path fill="none" stroke="midnightblue" d="M551.691,-231.356C563.012,-234.281 574.804,-236.998 586,-239 672.427,-254.454 774.617,-260.828 834.377,-263.38"/>
<polygon fill="midnightblue" stroke="midnightblue" points="552.453,-227.937 541.889,-228.744 550.651,-234.701 552.453,-227.937"/>
</g>
<!-- Node41 -->
<g id="node86" class="node"><title>Node41</title>
<a xlink:href="../../da/dd6/class_u_b_library_a_p_i.html#abeac23fcd7f64866d5686b590ec05695" target="_top" xlink:title="UBLibraryAPI::addObject">
<polygon fill="white" stroke="black" points="609.5,-156.5 609.5,-177.5 736.5,-177.5 736.5,-156.5 609.5,-156.5"/>
<text text-anchor="middle" x="673" y="-164.5" font-family="Helvetica,sans-Serif" font-size="10.00">UBLibraryAPI::addObject</text>
</a>
</g>
<!-- Node40&#45;&gt;Node41 -->
<g id="edge90" class="edge"><title>Node40&#45;&gt;Node41</title>
<path fill="none" stroke="midnightblue" d="M551.57,-196.022C562.986,-192.936 574.842,-189.808 586,-187 598.775,-183.785 612.658,-180.5 625.505,-177.546"/>
<polygon fill="midnightblue" stroke="midnightblue" points="550.41,-192.711 541.68,-198.715 552.248,-199.465 550.41,-192.711"/>
</g>
<!-- Node42 -->
<g id="node88" class="node"><title>Node42</title>
<a xlink:href="../../d5/d2b/class_u_b_widget_uniboard_a_p_i.html#a73ac1600ef3ed549d2c6c969436efb2f" target="_top" xlink:title="UBWidgetUniboardAPI\l::addObject">
<polygon fill="white" stroke="black" points="614.5,-52 614.5,-86 731.5,-86 731.5,-52 614.5,-52"/>
<text text-anchor="start" x="622.5" y="-73" font-family="Helvetica,sans-Serif" font-size="10.00">UBWidgetUniboardAPI</text>
<text text-anchor="middle" x="673" y="-60" font-family="Helvetica,sans-Serif" font-size="10.00">::addObject</text>
</a>
</g>
<!-- Node40&#45;&gt;Node42 -->
<g id="edge92" class="edge"><title>Node40&#45;&gt;Node42</title>
<path fill="none" stroke="midnightblue" d="M505.474,-186.966C521.703,-160.112 550.461,-118.882 586,-95 594.505,-89.2848 604.3,-84.7957 614.181,-81.2784"/>
<polygon fill="midnightblue" stroke="midnightblue" points="502.323,-185.42 500.266,-195.813 508.355,-188.971 502.323,-185.42"/>
</g>
<!-- Node43 -->
<g id="node92" class="node"><title>Node43</title>
<a xlink:href="../../d8/d33/class_u_b_features_controller.html#a38042ae37804ee19bfacf4aafd096ea9" target="_top" xlink:title="UBFeaturesController\l::addItemToPage">
<polygon fill="white" stroke="black" points="617.5,-0 617.5,-34 728.5,-34 728.5,-0 617.5,-0"/>
<text text-anchor="start" x="625.5" y="-21" font-family="Helvetica,sans-Serif" font-size="10.00">UBFeaturesController</text>
<text text-anchor="middle" x="673" y="-8" font-family="Helvetica,sans-Serif" font-size="10.00">::addItemToPage</text>
</a>
</g>
<!-- Node40&#45;&gt;Node43 -->
<g id="edge98" class="edge"><title>Node40&#45;&gt;Node43</title>
<path fill="none" stroke="midnightblue" d="M498.861,-186.198C511.243,-148.659 538.862,-80.7926 586,-43 595.102,-35.7029 606.211,-30.452 617.406,-26.674"/>
<polygon fill="midnightblue" stroke="midnightblue" points="495.461,-185.341 495.769,-195.931 502.132,-187.46 495.461,-185.341"/>
</g>
<!-- Node44 -->
<g id="node94" class="node"><title>Node44</title>
<a xlink:href="../../d8/d33/class_u_b_features_controller.html#a0ecd4b84e703063db5c0fdf498f2cdb0" target="_top" xlink:title="UBFeaturesController\l::addItemAsBackground">
<polygon fill="white" stroke="black" points="612,-286 612,-320 734,-320 734,-286 612,-286"/>
<text text-anchor="start" x="620" y="-307" font-family="Helvetica,sans-Serif" font-size="10.00">UBFeaturesController</text>
<text text-anchor="middle" x="673" y="-294" font-family="Helvetica,sans-Serif" font-size="10.00">::addItemAsBackground</text>
</a>
</g>
<!-- Node40&#45;&gt;Node44 -->
<g id="edge100" class="edge"><title>Node40&#45;&gt;Node44</title>
<path fill="none" stroke="midnightblue" d="M523.536,-235.619C541.438,-247.438 564.356,-261.571 586,-272 596.545,-277.081 608.15,-281.785 619.354,-285.914"/>
<polygon fill="midnightblue" stroke="midnightblue" points="525.436,-232.679 515.178,-230.029 521.544,-238.497 525.436,-232.679"/>
</g>
<!-- Node45 -->
<g id="node96" class="node"><title>Node45</title>
<a xlink:href="../../db/d78/class_w_b_web_trap_web_view.html#afdbfd6aac50cad5ac07a465baa7be0b6" target="_top" xlink:title="WBWebTrapWebView::trapElement\lAtPos">
<polygon fill="white" stroke="black" points="586.5,-196 586.5,-230 759.5,-230 759.5,-196 586.5,-196"/>
<text text-anchor="start" x="594.5" y="-217" font-family="Helvetica,sans-Serif" font-size="10.00">WBWebTrapWebView::trapElement</text>
<text text-anchor="middle" x="673" y="-204" font-family="Helvetica,sans-Serif" font-size="10.00">AtPos</text>
</a>
</g>
<!-- Node40&#45;&gt;Node45 -->
<g id="edge102" class="edge"><title>Node40&#45;&gt;Node45</title>
<path fill="none" stroke="midnightblue" d="M552.036,-213C563.056,-213 574.736,-213 586.322,-213"/>
<polygon fill="midnightblue" stroke="midnightblue" points="551.697,-209.5 541.697,-213 551.697,-216.5 551.697,-209.5"/>
</g>
<!-- Node48 -->
<g id="node102" class="node"><title>Node48</title>
<a xlink:href="../../df/d50/class_u_b_web_controller.html#a318422dc0a027e2258180673bb333586" target="_top" xlink:title="UBWebController::capture\lEduMedia">
<polygon fill="white" stroke="black" points="607.5,-104 607.5,-138 738.5,-138 738.5,-104 607.5,-104"/>
<text text-anchor="start" x="615.5" y="-125" font-family="Helvetica,sans-Serif" font-size="10.00">UBWebController::capture</text>
<text text-anchor="middle" x="673" y="-112" font-family="Helvetica,sans-Serif" font-size="10.00">EduMedia</text>
</a>
</g>
<!-- Node40&#45;&gt;Node48 -->
<g id="edge108" class="edge"><title>Node40&#45;&gt;Node48</title>
<path fill="none" stroke="midnightblue" d="M520.032,-189.205C538.115,-175.332 562.365,-158.382 586,-147 592.817,-143.717 600.137,-140.751 607.531,-138.099"/>
<polygon fill="midnightblue" stroke="midnightblue" points="517.406,-186.815 511.68,-195.73 521.715,-192.332 517.406,-186.815"/>
</g>
<!-- Node46 -->
<g id="node98" class="node"><title>Node46</title>
<a xlink:href="../../db/d78/class_w_b_web_trap_web_view.html#a2ac308414d18186c9c4fc60bc5f46400" target="_top" xlink:title="WBWebTrapWebView::trapContent\lFromHitTest">
<polygon fill="white" stroke="black" points="799,-144 799,-178 971,-178 971,-144 799,-144"/>
<text text-anchor="start" x="807" y="-165" font-family="Helvetica,sans-Serif" font-size="10.00">WBWebTrapWebView::trapContent</text>
<text text-anchor="middle" x="885" y="-152" font-family="Helvetica,sans-Serif" font-size="10.00">FromHitTest</text>
</a>
</g>
<!-- Node45&#45;&gt;Node46 -->
<g id="edge104" class="edge"><title>Node45&#45;&gt;Node46</title>
<path fill="none" stroke="midnightblue" d="M752.164,-193.582C772.942,-188.486 795.193,-183.028 815.427,-178.065"/>
<polygon fill="midnightblue" stroke="midnightblue" points="751.295,-190.192 742.417,-195.973 752.963,-196.99 751.295,-190.192"/>
</g>
<!-- Node47 -->
<g id="node100" class="node"><title>Node47</title>
<a xlink:href="../../dd/df0/class_u_b_web_trap_mouse_event_mask.html#a2c69d74fef874516e38daeab13e6ecd0" target="_top" xlink:title="UBWebTrapMouseEventMask\l::mousePressEvent">
<polygon fill="white" stroke="black" points="810.5,-196 810.5,-230 959.5,-230 959.5,-196 810.5,-196"/>
<text text-anchor="start" x="818.5" y="-217" font-family="Helvetica,sans-Serif" font-size="10.00">UBWebTrapMouseEventMask</text>
<text text-anchor="middle" x="885" y="-204" font-family="Helvetica,sans-Serif" font-size="10.00">::mousePressEvent</text>
</a>
</g>
<!-- Node45&#45;&gt;Node47 -->
<g id="edge106" class="edge"><title>Node45&#45;&gt;Node47</title>
<path fill="none" stroke="midnightblue" d="M769.859,-213C783.432,-213 797.206,-213 810.283,-213"/>
<polygon fill="midnightblue" stroke="midnightblue" points="769.534,-209.5 759.534,-213 769.534,-216.5 769.534,-209.5"/>
</g>
<!-- Node49 -->
<g id="node104" class="node"><title>Node49</title>
<a xlink:href="../../df/d50/class_u_b_web_controller.html#af73cfa36d5b743fa3a652e49dd7e4831" target="_top" xlink:title="UBWebController::setupPalettes">
<polygon fill="white" stroke="black" points="805.5,-104.5 805.5,-125.5 964.5,-125.5 964.5,-104.5 805.5,-104.5"/>
<text text-anchor="middle" x="885" y="-112.5" font-family="Helvetica,sans-Serif" font-size="10.00">UBWebController::setupPalettes</text>
</a>
</g>
<!-- Node48&#45;&gt;Node49 -->
<g id="edge110" class="edge"><title>Node48&#45;&gt;Node49</title>
<path fill="none" stroke="midnightblue" d="M748.655,-118.859C766.979,-118.34 786.624,-117.784 805.136,-117.26"/>
<polygon fill="midnightblue" stroke="midnightblue" points="748.523,-115.361 738.626,-119.143 748.721,-122.358 748.523,-115.361"/>
</g>
</g>
</svg>
