<?xml version="1.0" encoding="UTF-8" standalone="no"?>
<!DOCTYPE svg PUBLIC "-//W3C//DTD SVG 1.1//EN"
 "http://www.w3.org/Graphics/SVG/1.1/DTD/svg11.dtd">
<!-- Generated by graphviz version 2.26.3 (20100126.1600)
 -->
<!-- Title: UBGraphicsWidgetItem::paint Pages: 1 -->
<svg width="976pt" height="120pt"
 viewBox="0.00 0.00 976.00 120.00" xmlns="http://www.w3.org/2000/svg" xmlns:xlink="http://www.w3.org/1999/xlink">
<g id="graph1" class="graph" transform="scale(1 1) rotate(0) translate(4 116)">
<title>UBGraphicsWidgetItem::paint</title>
<polygon fill="white" stroke="white" points="-4,5 -4,-116 973,-116 973,5 -4,5"/>
<!-- Node1 -->
<g id="node1" class="node"><title>Node1</title>
<polygon fill="#bfbfbf" stroke="black" points="0,-52 0,-86 120,-86 120,-52 0,-52"/>
<text text-anchor="start" x="8" y="-73" font-family="Helvetica,sans-Serif" font-size="10.00">UBGraphicsWidgetItem</text>
<text text-anchor="middle" x="60" y="-60" font-family="Helvetica,sans-Serif" font-size="10.00">::paint</text>
</g>
<!-- Node2 -->
<g id="node3" class="node"><title>Node2</title>
<a xlink:href="../../d0/d16/class_u_b_graphics_widget_item.html#a3f2ad28f828946720871513620210585" target="_top" xlink:title="UBGraphicsWidgetItem\l::takeSnapshot">
<polygon fill="white" stroke="black" points="156,-52 156,-86 276,-86 276,-52 156,-52"/>
<text text-anchor="start" x="164" y="-73" font-family="Helvetica,sans-Serif" font-size="10.00">UBGraphicsWidgetItem</text>
<text text-anchor="middle" x="216" y="-60" font-family="Helvetica,sans-Serif" font-size="10.00">::takeSnapshot</text>
</a>
</g>
<!-- Node1&#45;&gt;Node2 -->
<g id="edge2" class="edge"><title>Node1&#45;&gt;Node2</title>
<path fill="none" stroke="midnightblue" d="M130.538,-69C138.99,-69 147.56,-69 155.847,-69"/>
<polygon fill="midnightblue" stroke="midnightblue" points="130.314,-65.5001 120.314,-69 130.314,-72.5001 130.314,-65.5001"/>
</g>
<!-- Node3 -->
<g id="node5" class="node"><title>Node3</title>
<a xlink:href="../../d0/d16/class_u_b_graphics_widget_item.html#a1af419d1aa29398ca4946109953345ed" target="_top" xlink:title="UBGraphicsWidgetItem\l::freeze">
<polygon fill="white" stroke="black" points="317,-78 317,-112 437,-112 437,-78 317,-78"/>
<text text-anchor="start" x="325" y="-99" font-family="Helvetica,sans-Serif" font-size="10.00">UBGraphicsWidgetItem</text>
<text text-anchor="middle" x="377" y="-86" font-family="Helvetica,sans-Serif" font-size="10.00">::freeze</text>
</a>
</g>
<!-- Node2&#45;&gt;Node3 -->
<g id="edge4" class="edge"><title>Node2&#45;&gt;Node3</title>
<path fill="none" stroke="midnightblue" d="M286.433,-80.3743C296.554,-82.0087 306.89,-83.6779 316.788,-85.2764"/>
<polygon fill="midnightblue" stroke="midnightblue" points="286.839,-76.8945 276.409,-78.7554 285.723,-83.805 286.839,-76.8945"/>
</g>
<!-- Node4 -->
<g id="node7" class="node"><title>Node4</title>
<a xlink:href="../../d0/d16/class_u_b_graphics_widget_item.html#af915a16e794c31017fd82348894971f3" target="_top" xlink:title="UBGraphicsWidgetItem\l::mainFrameLoadFinished">
<polygon fill="white" stroke="black" points="312.5,-26 312.5,-60 441.5,-60 441.5,-26 312.5,-26"/>
<text text-anchor="start" x="320.5" y="-47" font-family="Helvetica,sans-Serif" font-size="10.00">UBGraphicsWidgetItem</text>
<text text-anchor="middle" x="377" y="-34" font-family="Helvetica,sans-Serif" font-size="10.00">::mainFrameLoadFinished</text>
</a>
</g>
<!-- Node2&#45;&gt;Node4 -->
<g id="edge6" class="edge"><title>Node2&#45;&gt;Node4</title>
<path fill="none" stroke="midnightblue" d="M286.467,-57.6202C295.118,-56.2232 303.926,-54.8008 312.483,-53.419"/>
<polygon fill="midnightblue" stroke="midnightblue" points="285.723,-54.195 276.409,-59.2446 286.839,-61.1055 285.723,-54.195"/>
</g>
<!-- Node5 -->
<g id="node9" class="node"><title>Node5</title>
<a xlink:href="../../d0/d16/class_u_b_graphics_widget_item.html#a49d7af8c415d8448a9cededd97df9a56" target="_top" xlink:title="UBGraphicsWidgetItem\l::initialize">
<polygon fill="white" stroke="black" points="478,-26 478,-60 598,-60 598,-26 478,-26"/>
<text text-anchor="start" x="486" y="-47" font-family="Helvetica,sans-Serif" font-size="10.00">UBGraphicsWidgetItem</text>
<text text-anchor="middle" x="538" y="-34" font-family="Helvetica,sans-Serif" font-size="10.00">::initialize</text>
</a>
</g>
<!-- Node4&#45;&gt;Node5 -->
<g id="edge8" class="edge"><title>Node4&#45;&gt;Node5</title>
<path fill="none" stroke="midnightblue" d="M451.761,-43C460.511,-43 469.351,-43 477.865,-43"/>
<polygon fill="midnightblue" stroke="midnightblue" points="451.557,-39.5001 441.557,-43 451.557,-46.5001 451.557,-39.5001"/>
</g>
<!-- Node6 -->
<g id="node11" class="node"><title>Node6</title>
<a xlink:href="../../dd/d03/class_u_b_graphics_apple_widget_item.html#a3f66fa0eaecafd9f739fb3a3759738ea" target="_top" xlink:title="UBGraphicsAppleWidgetItem\l::UBGraphicsAppleWidgetItem">
<polygon fill="white" stroke="black" points="634.5,-52 634.5,-86 785.5,-86 785.5,-52 634.5,-52"/>
<text text-anchor="start" x="642.5" y="-73" font-family="Helvetica,sans-Serif" font-size="10.00">UBGraphicsAppleWidgetItem</text>
<text text-anchor="middle" x="710" y="-60" font-family="Helvetica,sans-Serif" font-size="10.00">::UBGraphicsAppleWidgetItem</text>
</a>
</g>
<!-- Node5&#45;&gt;Node6 -->
<g id="edge10" class="edge"><title>Node5&#45;&gt;Node6</title>
<path fill="none" stroke="midnightblue" d="M608.193,-53.6106C616.847,-54.9188 625.723,-56.2605 634.453,-57.5801"/>
<polygon fill="midnightblue" stroke="midnightblue" points="608.568,-50.1276 598.157,-52.0935 607.522,-57.049 608.568,-50.1276"/>
</g>
<!-- Node8 -->
<g id="node15" class="node"><title>Node8</title>
<a xlink:href="../../d7/da7/class_u_b_graphics_w3_c_widget_item.html#ab2c66d142841ad2a1c0fa7cc0d068716" target="_top" xlink:title="UBGraphicsW3CWidgetItem\l::UBGraphicsW3CWidgetItem">
<polygon fill="white" stroke="black" points="635.5,-0 635.5,-34 784.5,-34 784.5,-0 635.5,-0"/>
<text text-anchor="start" x="643.5" y="-21" font-family="Helvetica,sans-Serif" font-size="10.00">UBGraphicsW3CWidgetItem</text>
<text text-anchor="middle" x="710" y="-8" font-family="Helvetica,sans-Serif" font-size="10.00">::UBGraphicsW3CWidgetItem</text>
</a>
</g>
<!-- Node5&#45;&gt;Node8 -->
<g id="edge14" class="edge"><title>Node5&#45;&gt;Node8</title>
<path fill="none" stroke="midnightblue" d="M608.156,-32.3951C617.12,-31.0399 626.323,-29.6488 635.356,-28.2835"/>
<polygon fill="midnightblue" stroke="midnightblue" points="607.522,-28.951 598.157,-33.9065 608.568,-35.8724 607.522,-28.951"/>
</g>
<!-- Node7 -->
<g id="node13" class="node"><title>Node7</title>
<a xlink:href="../../dd/d03/class_u_b_graphics_apple_widget_item.html#ae49df281f365ca52cf00315eecb45a71" target="_top" xlink:title="UBGraphicsAppleWidgetItem\l::deepCopy">
<polygon fill="white" stroke="black" points="822.5,-52 822.5,-86 967.5,-86 967.5,-52 822.5,-52"/>
<text text-anchor="start" x="830.5" y="-73" font-family="Helvetica,sans-Serif" font-size="10.00">UBGraphicsAppleWidgetItem</text>
<text text-anchor="middle" x="895" y="-60" font-family="Helvetica,sans-Serif" font-size="10.00">::deepCopy</text>
</a>
</g>
<!-- Node6&#45;&gt;Node7 -->
<g id="edge12" class="edge"><title>Node6&#45;&gt;Node7</title>
<path fill="none" stroke="midnightblue" d="M795.586,-69C804.556,-69 813.613,-69 822.417,-69"/>
<polygon fill="midnightblue" stroke="midnightblue" points="795.513,-65.5001 785.513,-69 795.513,-72.5001 795.513,-65.5001"/>
</g>
<!-- Node9 -->
<g id="node17" class="node"><title>Node9</title>
<a xlink:href="../../d7/da7/class_u_b_graphics_w3_c_widget_item.html#acf920df1d2e797ea341429c76d75c3c7" target="_top" xlink:title="UBGraphicsW3CWidgetItem\l::deepCopy">
<polygon fill="white" stroke="black" points="823.5,-0 823.5,-34 966.5,-34 966.5,-0 823.5,-0"/>
<text text-anchor="start" x="831.5" y="-21" font-family="Helvetica,sans-Serif" font-size="10.00">UBGraphicsW3CWidgetItem</text>
<text text-anchor="middle" x="895" y="-8" font-family="Helvetica,sans-Serif" font-size="10.00">::deepCopy</text>
</a>
</g>
<!-- Node8&#45;&gt;Node9 -->
<g id="edge16" class="edge"><title>Node8&#45;&gt;Node9</title>
<path fill="none" stroke="midnightblue" d="M794.942,-17C804.425,-17 814.014,-17 823.308,-17"/>
<polygon fill="midnightblue" stroke="midnightblue" points="794.713,-13.5001 784.713,-17 794.713,-20.5001 794.713,-13.5001"/>
</g>
</g>
</svg>
