<?xml version="1.0" encoding="UTF-8" standalone="no"?>
<!DOCTYPE svg PUBLIC "-//W3C//DTD SVG 1.1//EN"
 "http://www.w3.org/Graphics/SVG/1.1/DTD/svg11.dtd">
<!-- Generated by graphviz version 2.26.3 (20100126.1600)
 -->
<!-- Title: UBGraphicsStroke.h Pages: 1 -->
<svg width="120pt" height="146pt"
 viewBox="0.00 0.00 120.00 146.00" xmlns="http://www.w3.org/2000/svg" xmlns:xlink="http://www.w3.org/1999/xlink">
<g id="graph1" class="graph" transform="scale(1 1) rotate(0) translate(4 142)">
<title>UBGraphicsStroke.h</title>
<polygon fill="white" stroke="white" points="-4,5 -4,-142 117,-142 117,5 -4,5"/>
<!-- Node1 -->
<g id="node1" class="node"><title>Node1</title>
<polygon fill="#bfbfbf" stroke="black" points="-0.5,-116.5 -0.5,-137.5 106.5,-137.5 106.5,-116.5 -0.5,-116.5"/>
<text text-anchor="middle" x="53" y="-124.5" font-family="Helvetica,sans-Serif" font-size="10.00">UBGraphicsStroke.h</text>
</g>
<!-- Node2 -->
<g id="node3" class="node"><title>Node2</title>
<polygon fill="white" stroke="#bfbfbf" points="32,-0.5 32,-21.5 74,-21.5 74,-0.5 32,-0.5"/>
<text text-anchor="middle" x="53" y="-8.5" font-family="Helvetica,sans-Serif" font-size="10.00">QtGui</text>
</g>
<!-- Node1&#45;&gt;Node2 -->
<g id="edge2" class="edge"><title>Node1&#45;&gt;Node2</title>
<path fill="none" stroke="midnightblue" d="M50.0467,-116.276C47.6034,-106.816 44.3267,-92.6108 43,-80 41.977,-70.2759 41.977,-67.7241 43,-58 43.9225,-49.2315 45.7877,-39.6925 47.66,-31.5135"/>
<polygon fill="midnightblue" stroke="midnightblue" points="51.0783,-32.2687 50.0467,-21.7243 44.2775,-30.6106 51.0783,-32.2687"/>
</g>
<!-- Node3 -->
<g id="node5" class="node"><title>Node3</title>
<a xlink:href="../../d6/dd0/_u_b_8h.html" target="_top" xlink:title="core/UB.h">
<polygon fill="white" stroke="black" points="51.5,-58.5 51.5,-79.5 112.5,-79.5 112.5,-58.5 51.5,-58.5"/>
<text text-anchor="middle" x="82" y="-66.5" font-family="Helvetica,sans-Serif" font-size="10.00">core/UB.h</text>
</a>
</g>
<!-- Node1&#45;&gt;Node3 -->
<g id="edge4" class="edge"><title>Node1&#45;&gt;Node3</title>
<path fill="none" stroke="midnightblue" d="M58.319,-116.362C62.2026,-108.595 67.5787,-97.8426 72.2271,-88.5458"/>
<polygon fill="midnightblue" stroke="midnightblue" points="75.373,-90.0802 76.7147,-79.5707 69.112,-86.9497 75.373,-90.0802"/>
</g>
<!-- Node3&#45;&gt;Node2 -->
<g id="edge6" class="edge"><title>Node3&#45;&gt;Node2</title>
<path fill="none" stroke="midnightblue" d="M76.681,-58.3619C72.7974,-50.5949 67.4213,-39.8426 62.7729,-30.5458"/>
<polygon fill="midnightblue" stroke="midnightblue" points="65.888,-28.9497 58.2853,-21.5707 59.627,-32.0802 65.888,-28.9497"/>
</g>
</g>
</svg>
