<?xml version="1.0" encoding="UTF-8" standalone="no"?>
<!DOCTYPE svg PUBLIC "-//W3C//DTD SVG 1.1//EN"
 "http://www.w3.org/Graphics/SVG/1.1/DTD/svg11.dtd">
<!-- Generated by graphviz version 2.26.3 (20100126.1600)
 -->
<!-- Title: UBDocumentPublisher::getBase64Of Pages: 1 -->
<svg width="592pt" height="42pt"
 viewBox="0.00 0.00 592.00 42.00" xmlns="http://www.w3.org/2000/svg" xmlns:xlink="http://www.w3.org/1999/xlink">
<g id="graph1" class="graph" transform="scale(1 1) rotate(0) translate(4 38)">
<title>UBDocumentPublisher::getBase64Of</title>
<polygon fill="white" stroke="white" points="-4,5 -4,-38 589,-38 589,5 -4,5"/>
<!-- Node1 -->
<g id="node1" class="node"><title>Node1</title>
<polygon fill="#bfbfbf" stroke="black" points="0,-0 0,-34 116,-34 116,-0 0,-0"/>
<text text-anchor="start" x="8" y="-21" font-family="Helvetica,sans-Serif" font-size="10.00">UBDocumentPublisher</text>
<text text-anchor="middle" x="58" y="-8" font-family="Helvetica,sans-Serif" font-size="10.00">::getBase64Of</text>
</g>
<!-- Node2 -->
<g id="node3" class="node"><title>Node2</title>
<a xlink:href="../../da/d3c/class_u_b_document_publisher.html#aa1c9b34c126b5eaa4024fa22b00dfdf4" target="_top" xlink:title="UBDocumentPublisher\l::sendUbw">
<polygon fill="white" stroke="black" points="152,-0 152,-34 268,-34 268,-0 152,-0"/>
<text text-anchor="start" x="160" y="-21" font-family="Helvetica,sans-Serif" font-size="10.00">UBDocumentPublisher</text>
<text text-anchor="middle" x="210" y="-8" font-family="Helvetica,sans-Serif" font-size="10.00">::sendUbw</text>
</a>
</g>
<!-- Node1&#45;&gt;Node2 -->
<g id="edge2" class="edge"><title>Node1&#45;&gt;Node2</title>
<path fill="none" stroke="midnightblue" d="M126.542,-17C134.986,-17 143.554,-17 151.824,-17"/>
<polygon fill="midnightblue" stroke="midnightblue" points="126.332,-13.5001 116.332,-17 126.332,-20.5001 126.332,-13.5001"/>
</g>
<!-- Node3 -->
<g id="node5" class="node"><title>Node3</title>
<a xlink:href="../../da/d3c/class_u_b_document_publisher.html#adca541347ad643ceea47eeb3f48bc24a" target="_top" xlink:title="UBDocumentPublisher\l::publish">
<polygon fill="white" stroke="black" points="304,-0 304,-34 420,-34 420,-0 304,-0"/>
<text text-anchor="start" x="312" y="-21" font-family="Helvetica,sans-Serif" font-size="10.00">UBDocumentPublisher</text>
<text text-anchor="middle" x="362" y="-8" font-family="Helvetica,sans-Serif" font-size="10.00">::publish</text>
</a>
</g>
<!-- Node2&#45;&gt;Node3 -->
<g id="edge4" class="edge"><title>Node2&#45;&gt;Node3</title>
<path fill="none" stroke="midnightblue" d="M278.542,-17C286.986,-17 295.554,-17 303.824,-17"/>
<polygon fill="midnightblue" stroke="midnightblue" points="278.332,-13.5001 268.332,-17 278.332,-20.5001 278.332,-13.5001"/>
</g>
<!-- Node4 -->
<g id="node7" class="node"><title>Node4</title>
<a xlink:href="../../de/d5f/class_u_b_web_publisher.html#acf1964056e5008ca164f974cc55e8b24" target="_top" xlink:title="UBWebPublisher::persist">
<polygon fill="white" stroke="black" points="456.5,-6.5 456.5,-27.5 583.5,-27.5 583.5,-6.5 456.5,-6.5"/>
<text text-anchor="middle" x="520" y="-14.5" font-family="Helvetica,sans-Serif" font-size="10.00">UBWebPublisher::persist</text>
</a>
</g>
<!-- Node3&#45;&gt;Node4 -->
<g id="edge6" class="edge"><title>Node3&#45;&gt;Node4</title>
<path fill="none" stroke="midnightblue" d="M430.658,-17C439.17,-17 447.844,-17 456.277,-17"/>
<polygon fill="midnightblue" stroke="midnightblue" points="430.384,-13.5001 420.384,-17 430.384,-20.5001 430.384,-13.5001"/>
</g>
</g>
</svg>
