<?xml version="1.0" encoding="UTF-8" standalone="no"?>
<!DOCTYPE svg PUBLIC "-//W3C//DTD SVG 1.1//EN"
 "http://www.w3.org/Graphics/SVG/1.1/DTD/svg11.dtd">
<!-- Generated by graphviz version 2.26.3 (20100126.1600)
 -->
<!-- Title: GraphicsPDFItem::boundingRect Pages: 1 -->
<svg width="336pt" height="70pt"
 viewBox="0.00 0.00 336.00 70.00" xmlns="http://www.w3.org/2000/svg" xmlns:xlink="http://www.w3.org/1999/xlink">
<g id="graph1" class="graph" transform="scale(1 1) rotate(0) translate(4 66)">
<title>GraphicsPDFItem::boundingRect</title>
<polygon fill="white" stroke="white" points="-4,5 -4,-66 333,-66 333,5 -4,5"/>
<!-- Node1 -->
<g id="node1" class="node"><title>Node1</title>
<polygon fill="#bfbfbf" stroke="black" points="0.5,-20.5 0.5,-41.5 161.5,-41.5 161.5,-20.5 0.5,-20.5"/>
<text text-anchor="middle" x="81" y="-28.5" font-family="Helvetica,sans-Serif" font-size="10.00">GraphicsPDFItem::boundingRect</text>
</g>
<!-- Node2 -->
<g id="node3" class="node"><title>Node2</title>
<a xlink:href="../../d7/dc9/class_p_d_f_renderer.html#acd219d79f7b7235c7562a57708147cf9" target="_top" xlink:title="PDFRenderer::isValid">
<polygon fill="white" stroke="black" points="207,-40.5 207,-61.5 319,-61.5 319,-40.5 207,-40.5"/>
<text text-anchor="middle" x="263" y="-48.5" font-family="Helvetica,sans-Serif" font-size="10.00">PDFRenderer::isValid</text>
</a>
</g>
<!-- Node1&#45;&gt;Node2 -->
<g id="edge2" class="edge"><title>Node1&#45;&gt;Node2</title>
<path fill="none" stroke="midnightblue" d="M161.623,-39.8596C173.343,-41.1476 185.296,-42.4611 196.69,-43.7132"/>
<polygon fill="midnightblue" stroke="midnightblue" points="196.652,-47.23 206.974,-44.8433 197.417,-40.2719 196.652,-47.23"/>
</g>
<!-- Node3 -->
<g id="node5" class="node"><title>Node3</title>
<a xlink:href="../../d7/dc9/class_p_d_f_renderer.html#a505aa007882410f037a5ae711c535412" target="_top" xlink:title="PDFRenderer::pageSizeF">
<polygon fill="white" stroke="black" points="198.5,-0.5 198.5,-21.5 327.5,-21.5 327.5,-0.5 198.5,-0.5"/>
<text text-anchor="middle" x="263" y="-8.5" font-family="Helvetica,sans-Serif" font-size="10.00">PDFRenderer::pageSizeF</text>
</a>
</g>
<!-- Node1&#45;&gt;Node3 -->
<g id="edge4" class="edge"><title>Node1&#45;&gt;Node3</title>
<path fill="none" stroke="midnightblue" d="M161.623,-22.1404C170.438,-21.1716 179.386,-20.1884 188.128,-19.2277"/>
<polygon fill="midnightblue" stroke="midnightblue" points="188.719,-22.6839 198.277,-18.1125 187.954,-15.7258 188.719,-22.6839"/>
</g>
</g>
</svg>
