<?xml version="1.0" encoding="UTF-8" standalone="no"?>
<!DOCTYPE svg PUBLIC "-//W3C//DTD SVG 1.1//EN"
 "http://www.w3.org/Graphics/SVG/1.1/DTD/svg11.dtd">
<!-- Generated by graphviz version 2.26.3 (20100126.1600)
 -->
<!-- Title: UBPersistenceManager::persistDocumentScene Pages: 1 -->
<!--zoomable 829 -->
<svg id="main" version="1.1" xmlns="http://www.w3.org/2000/svg" xmlns:xlink="http://www.w3.org/1999/xlink" xml:space="preserve" onload="init(evt)">
        <defs>
                <circle id="rim" cx="0" cy="0" r="7"/>
                <circle id="rim2" cx="0" cy="0" r="3.5"/>
                <g id="zoomPlus">
                        <use xlink:href="#rim" fill="#404040">
                                <set attributeName="fill" to="#808080" begin="zoomplus.mouseover" end="zoomplus.mouseout"/>
                        </use>
                        <path d="M-4,0h8M0,-4v8" fill="none" stroke="white" stroke-width="1.5" pointer-events="none"/>
                </g>
                <g id="zoomMin">
                        <use xlink:href="#rim" fill="#404040">
                                <set attributeName="fill" to="#808080" begin="zoomminus.mouseover" end="zoomminus.mouseout"/>
                        </use>
                        <path d="M-4,0h8" fill="none" stroke="white" stroke-width="1.5" pointer-events="none"/>
                </g>
                <g id="dirArrow">
                        <path fill="none" stroke="white" stroke-width="1.5" d="M0,-3.0v7 M-2.5,-0.5L0,-3.0L2.5,-0.5"/>
                </g>
               <g id="resetDef">
                       <use xlink:href="#rim2" fill="#404040">
                               <set attributeName="fill" to="#808080" begin="reset.mouseover" end="reset.mouseout"/>
                       </use>
               </g>
        </defs>

<script type="text/javascript">
var viewWidth = 1234;
var viewHeight = 829;
var sectionId = 'dynsection-57';
</script>
<script xlink:href="../../svgpan.js"/>
<svg id="graph" class="graph">
<g id="viewport">
<title>UBPersistenceManager::persistDocumentScene</title>
<polygon fill="white" stroke="white" points="-4,5 -4,-825.103 1231,-825.103 1231,5 -4,5"/>
<!-- Node1 -->
<g id="node1" class="node"><title>Node1</title>
<polygon fill="#bfbfbf" stroke="black" points="0.5,-274 0.5,-308 125.5,-308 125.5,-274 0.5,-274"/>
<text text-anchor="start" x="8.5" y="-295" font-family="Helvetica,sans-Serif" font-size="10.00">UBPersistenceManager</text>
<text text-anchor="middle" x="63" y="-282" font-family="Helvetica,sans-Serif" font-size="10.00">::persistDocumentScene</text>
</g>
<!-- Node2 -->
<g id="node3" class="node"><title>Node2</title>
<a xlink:href="../../dc/db2/class_u_b_graphics_scene.html#a6cfc68b3907297af710a1d8d1492d4ea" target="_top" xlink:title="UBGraphicsScene::deselect\lAllItems">
<polygon fill="white" stroke="black" points="168,-720 168,-754 308,-754 308,-720 168,-720"/>
<text text-anchor="start" x="176" y="-741" font-family="Helvetica,sans-Serif" font-size="10.00">UBGraphicsScene::deselect</text>
<text text-anchor="middle" x="238" y="-728" font-family="Helvetica,sans-Serif" font-size="10.00">AllItems</text>
</a>
</g>
<!-- Node1&#45;&gt;Node2 -->
<g id="edge2" class="edge"><title>Node1&#45;&gt;Node2</title>
<path fill="none" stroke="midnightblue" d="M64.8735,-308.478C72.8675,-380.006 106.281,-649.526 162,-711 162.773,-711.852 163.574,-712.677 164.403,-713.474"/>
<polygon fill="midnightblue" stroke="midnightblue" points="162.502,-716.436 172.498,-719.947 166.873,-710.968 162.502,-716.436"/>
</g>
<!-- Node3 -->
<g id="node5" class="node"><title>Node3</title>
<a xlink:href="../../de/db4/class_u_b_document_proxy.html#af57e2a3250ad6ae4c18fc5762e37f8a1" target="_top" xlink:title="UBDocumentProxy::persistencePath">
<polygon fill="white" stroke="black" points="353,-655.5 353,-676.5 531,-676.5 531,-655.5 353,-655.5"/>
<text text-anchor="middle" x="442" y="-663.5" font-family="Helvetica,sans-Serif" font-size="10.00">UBDocumentProxy::persistencePath</text>
</a>
</g>
<!-- Node1&#45;&gt;Node3 -->
<g id="edge4" class="edge"><title>Node1&#45;&gt;Node3</title>
<path fill="none" stroke="midnightblue" d="M70.3561,-308.216C84.9262,-341.21 119.73,-414.793 162,-468 232.259,-556.438 251.522,-583.686 350,-639 359.556,-644.367 370.282,-648.76 380.945,-652.324"/>
<polygon fill="midnightblue" stroke="midnightblue" points="380.095,-655.725 390.684,-655.369 382.184,-649.044 380.095,-655.725"/>
</g>
<!-- Node4 -->
<g id="node7" class="node"><title>Node4</title>
<a xlink:href="../../d7/d62/class_u_b_board_controller.html#a536e1388e74f79a2120d0e585b862033" target="_top" xlink:title="UBBoardController:\l:paletteManager">
<polygon fill="white" stroke="black" points="391.5,-383 391.5,-417 492.5,-417 492.5,-383 391.5,-383"/>
<text text-anchor="start" x="399.5" y="-404" font-family="Helvetica,sans-Serif" font-size="10.00">UBBoardController:</text>
<text text-anchor="middle" x="442" y="-391" font-family="Helvetica,sans-Serif" font-size="10.00">:paletteManager</text>
</a>
</g>
<!-- Node1&#45;&gt;Node4 -->
<g id="edge6" class="edge"><title>Node1&#45;&gt;Node4</title>
<path fill="none" stroke="midnightblue" d="M99.1167,-308.034C117.636,-316.327 140.719,-325.994 162,-333 236.235,-357.44 324.244,-377.02 381.506,-388.559"/>
<polygon fill="midnightblue" stroke="midnightblue" points="380.987,-392.024 391.479,-390.55 382.357,-385.16 380.987,-392.024"/>
</g>
<!-- Node5 -->
<g id="node9" class="node"><title>Node5</title>
<a xlink:href="../../d8/d81/class_u_b_application.html#a71985ce0344b74bc3e5ed1d7f44a2017" target="_top" xlink:title="UBApplication::app">
<polygon fill="white" stroke="black" points="187.5,-144.5 187.5,-165.5 288.5,-165.5 288.5,-144.5 187.5,-144.5"/>
<text text-anchor="middle" x="238" y="-152.5" font-family="Helvetica,sans-Serif" font-size="10.00">UBApplication::app</text>
</a>
</g>
<!-- Node1&#45;&gt;Node5 -->
<g id="edge8" class="edge"><title>Node1&#45;&gt;Node5</title>
<path fill="none" stroke="midnightblue" d="M72.8054,-273.95C88.3716,-248.447 121.195,-200.629 162,-175 166.766,-172.007 171.969,-169.459 177.345,-167.29"/>
<polygon fill="midnightblue" stroke="midnightblue" points="178.914,-170.446 187.151,-163.783 176.557,-163.855 178.914,-170.446"/>
</g>
<!-- Node6 -->
<g id="node11" class="node"><title>Node6</title>
<a xlink:href="../../dc/d38/class_u_b_board_palette_manager.html#acb290823de3668d04b0f653e5a8f01e8" target="_top" xlink:title="UBBoardPaletteManager\l::teacherGuideDockWidget">
<polygon fill="white" stroke="black" points="375,-331 375,-365 509,-365 509,-331 375,-331"/>
<text text-anchor="start" x="383" y="-352" font-family="Helvetica,sans-Serif" font-size="10.00">UBBoardPaletteManager</text>
<text text-anchor="middle" x="442" y="-339" font-family="Helvetica,sans-Serif" font-size="10.00">::teacherGuideDockWidget</text>
</a>
</g>
<!-- Node1&#45;&gt;Node6 -->
<g id="edge10" class="edge"><title>Node1&#45;&gt;Node6</title>
<path fill="none" stroke="midnightblue" d="M125.537,-302.013C137.626,-304.064 150.199,-306.144 162,-308 230.385,-318.754 308.364,-329.794 364.633,-337.544"/>
<polygon fill="midnightblue" stroke="midnightblue" points="364.496,-341.058 374.879,-338.952 365.449,-334.123 364.496,-341.058"/>
</g>
<!-- Node7 -->
<g id="node13" class="node"><title>Node7</title>
<a xlink:href="../../db/d9c/class_u_b_dock_teacher_guide_widget.html#ac1f1d73be89ff66f9f83dc7472a0c203" target="_top" xlink:title="UBDockTeacherGuideWidget\l::teacherGuideWidget">
<polygon fill="white" stroke="black" points="369,-279 369,-313 515,-313 515,-279 369,-279"/>
<text text-anchor="start" x="377" y="-300" font-family="Helvetica,sans-Serif" font-size="10.00">UBDockTeacherGuideWidget</text>
<text text-anchor="middle" x="442" y="-287" font-family="Helvetica,sans-Serif" font-size="10.00">::teacherGuideWidget</text>
</a>
</g>
<!-- Node1&#45;&gt;Node7 -->
<g id="edge12" class="edge"><title>Node1&#45;&gt;Node7</title>
<path fill="none" stroke="midnightblue" d="M125.584,-291.826C189.309,-292.666 288.471,-293.975 358.782,-294.902"/>
<polygon fill="midnightblue" stroke="midnightblue" points="358.894,-298.404 368.939,-295.036 358.986,-291.404 358.894,-298.404"/>
</g>
<!-- Node8 -->
<g id="node15" class="node"><title>Node8</title>
<a xlink:href="../../dc/d87/class_u_b_teacher_guide_widget.html#ae2222a39f9d47f140deb9841fac1e5e7" target="_top" xlink:title="UBTeacherGuideWidget\l::isModified">
<polygon fill="white" stroke="black" points="381,-227 381,-261 503,-261 503,-227 381,-227"/>
<text text-anchor="start" x="389" y="-248" font-family="Helvetica,sans-Serif" font-size="10.00">UBTeacherGuideWidget</text>
<text text-anchor="middle" x="442" y="-235" font-family="Helvetica,sans-Serif" font-size="10.00">::isModified</text>
</a>
</g>
<!-- Node1&#45;&gt;Node8 -->
<g id="edge14" class="edge"><title>Node1&#45;&gt;Node8</title>
<path fill="none" stroke="midnightblue" d="M125.584,-283.239C193.016,-274.877 300.129,-261.594 370.748,-252.836"/>
<polygon fill="midnightblue" stroke="midnightblue" points="371.4,-256.282 380.893,-251.578 370.539,-249.335 371.4,-256.282"/>
</g>
<!-- Node13 -->
<g id="node26" class="node"><title>Node13</title>
<a xlink:href="../../de/db4/class_u_b_document_proxy.html#a5616a9b21de8f24ca6605a05f792b387" target="_top" xlink:title="UBDocumentProxy::isModified">
<polygon fill="white" stroke="black" points="162,-104.5 162,-125.5 314,-125.5 314,-104.5 162,-104.5"/>
<text text-anchor="middle" x="238" y="-112.5" font-family="Helvetica,sans-Serif" font-size="10.00">UBDocumentProxy::isModified</text>
</a>
</g>
<!-- Node1&#45;&gt;Node13 -->
<g id="edge26" class="edge"><title>Node1&#45;&gt;Node13</title>
<path fill="none" stroke="midnightblue" d="M68.9561,-273.946C81.1337,-241.65 112.025,-171.539 162,-135 164.507,-133.167 167.17,-131.501 169.94,-129.989"/>
<polygon fill="midnightblue" stroke="midnightblue" points="171.553,-133.098 179.095,-125.657 168.559,-126.77 171.553,-133.098"/>
</g>
<!-- Node14 -->
<g id="node28" class="node"><title>Node14</title>
<a xlink:href="../../dc/d51/class_u_b_metadata_dc_subset_adaptor.html#a39cfa5435d5166fe515da61200777e45" target="_top" xlink:title="UBMetadataDcSubsetAdaptor\l::persist">
<polygon fill="white" stroke="black" points="163.5,-668 163.5,-702 312.5,-702 312.5,-668 163.5,-668"/>
<text text-anchor="start" x="171.5" y="-689" font-family="Helvetica,sans-Serif" font-size="10.00">UBMetadataDcSubsetAdaptor</text>
<text text-anchor="middle" x="238" y="-676" font-family="Helvetica,sans-Serif" font-size="10.00">::persist</text>
</a>
</g>
<!-- Node1&#45;&gt;Node14 -->
<g id="edge28" class="edge"><title>Node1&#45;&gt;Node14</title>
<path fill="none" stroke="midnightblue" d="M66.5254,-308.318C76.5901,-355.504 108.245,-489.467 162,-589 176.319,-615.513 198.082,-642.098 214.655,-660.546"/>
<polygon fill="midnightblue" stroke="midnightblue" points="212.074,-662.91 221.404,-667.931 217.241,-658.188 212.074,-662.91"/>
</g>
<!-- Node21 -->
<g id="node44" class="node"><title>Node21</title>
<a xlink:href="../../d3/db1/class_u_b_core_graphics_scene.html#a401164930b6963b7ec2f1d157f9dca4b" target="_top" xlink:title="UBCoreGraphicsScene\l::isModified">
<polygon fill="white" stroke="black" points="382.5,-175 382.5,-209 501.5,-209 501.5,-175 382.5,-175"/>
<text text-anchor="start" x="390.5" y="-196" font-family="Helvetica,sans-Serif" font-size="10.00">UBCoreGraphicsScene</text>
<text text-anchor="middle" x="442" y="-183" font-family="Helvetica,sans-Serif" font-size="10.00">::isModified</text>
</a>
</g>
<!-- Node1&#45;&gt;Node21 -->
<g id="edge46" class="edge"><title>Node1&#45;&gt;Node21</title>
<path fill="none" stroke="midnightblue" d="M109.522,-273.921C125.983,-268.172 144.707,-261.963 162,-257 232.931,-236.645 315.341,-218.118 372.302,-206.099"/>
<polygon fill="midnightblue" stroke="midnightblue" points="373.211,-209.484 382.279,-204.005 371.774,-202.633 373.211,-209.484"/>
</g>
<!-- Node22 -->
<g id="node46" class="node"><title>Node22</title>
<a xlink:href="../../d3/df9/class_u_b_svg_subset_adaptor.html#ae0246b7ed5045d7515cad861681d7db0" target="_top" xlink:title="UBSvgSubsetAdaptor\l::persistScene">
<polygon fill="white" stroke="black" points="181.5,-52 181.5,-86 294.5,-86 294.5,-52 181.5,-52"/>
<text text-anchor="start" x="189.5" y="-73" font-family="Helvetica,sans-Serif" font-size="10.00">UBSvgSubsetAdaptor</text>
<text text-anchor="middle" x="238" y="-60" font-family="Helvetica,sans-Serif" font-size="10.00">::persistScene</text>
</a>
</g>
<!-- Node1&#45;&gt;Node22 -->
<g id="edge48" class="edge"><title>Node1&#45;&gt;Node22</title>
<path fill="none" stroke="midnightblue" d="M66.9562,-273.87C76.5577,-236.075 104.64,-144.94 162,-95 165.195,-92.2186 168.701,-89.7312 172.401,-87.5072"/>
<polygon fill="midnightblue" stroke="midnightblue" points="174.127,-90.5537 181.327,-82.7814 170.851,-84.3673 174.127,-90.5537"/>
</g>
<!-- Node23 -->
<g id="node48" class="node"><title>Node23</title>
<a xlink:href="../../d0/d06/class_u_b_thumbnail_adaptor.html#a83dbb324cc019a5e6862d497e9c4a5d6" target="_top" xlink:title="UBThumbnailAdaptor\l::persistScene">
<polygon fill="white" stroke="black" points="183,-425 183,-459 293,-459 293,-425 183,-425"/>
<text text-anchor="start" x="191" y="-446" font-family="Helvetica,sans-Serif" font-size="10.00">UBThumbnailAdaptor</text>
<text text-anchor="middle" x="238" y="-433" font-family="Helvetica,sans-Serif" font-size="10.00">::persistScene</text>
</a>
</g>
<!-- Node1&#45;&gt;Node23 -->
<g id="edge50" class="edge"><title>Node1&#45;&gt;Node23</title>
<path fill="none" stroke="midnightblue" d="M74.737,-308.176C91.7445,-332.079 125.252,-375.627 162,-404 169.713,-409.955 178.505,-415.367 187.307,-420.12"/>
<polygon fill="midnightblue" stroke="midnightblue" points="185.945,-423.355 196.437,-424.829 189.154,-417.134 185.945,-423.355"/>
</g>
<!-- Node31 -->
<g id="node73" class="node"><title>Node31</title>
<a xlink:href="../../d3/db1/class_u_b_core_graphics_scene.html#ad92b735788dc8e172f091a13e899b783" target="_top" xlink:title="UBCoreGraphicsScene\l::setModified">
<polygon fill="white" stroke="black" points="178.5,-0 178.5,-34 297.5,-34 297.5,-0 178.5,-0"/>
<text text-anchor="start" x="186.5" y="-21" font-family="Helvetica,sans-Serif" font-size="10.00">UBCoreGraphicsScene</text>
<text text-anchor="middle" x="238" y="-8" font-family="Helvetica,sans-Serif" font-size="10.00">::setModified</text>
</a>
</g>
<!-- Node1&#45;&gt;Node31 -->
<g id="edge84" class="edge"><title>Node1&#45;&gt;Node31</title>
<path fill="none" stroke="midnightblue" d="M64.9349,-273.846C70.8633,-229.294 92.798,-108.813 162,-43 164.3,-40.8122 166.793,-38.8078 169.425,-36.9717"/>
<polygon fill="midnightblue" stroke="midnightblue" points="171.481,-39.819 178.241,-31.6611 167.869,-33.8228 171.481,-39.819"/>
</g>
<!-- Node32 -->
<g id="node75" class="node"><title>Node32</title>
<a xlink:href="../../d2/d79/class_u_b_scene_cache.html#aa3377f2b95c0245c99e6ee6932f78472" target="_top" xlink:title="UBSceneCache::insert">
<polygon fill="white" stroke="black" points="179.5,-184.5 179.5,-205.5 296.5,-205.5 296.5,-184.5 179.5,-184.5"/>
<text text-anchor="middle" x="238" y="-192.5" font-family="Helvetica,sans-Serif" font-size="10.00">UBSceneCache::insert</text>
</a>
</g>
<!-- Node1&#45;&gt;Node32 -->
<g id="edge86" class="edge"><title>Node1&#45;&gt;Node32</title>
<path fill="none" stroke="midnightblue" d="M83.0506,-273.803C102.255,-258.039 132.582,-234.942 162,-220 170.367,-215.75 179.611,-212.002 188.687,-208.787"/>
<polygon fill="midnightblue" stroke="midnightblue" points="190.059,-212.018 198.419,-205.509 187.825,-205.384 190.059,-212.018"/>
</g>
<!-- Node9 -->
<g id="node17" class="node"><title>Node9</title>
<a xlink:href="../../db/df0/class_u_b_teacher_guide_page_zero_widget.html#a6e39668afac1561e8fee823846537ace" target="_top" xlink:title="UBTeacherGuidePageZeroWidget\l::isModified">
<polygon fill="white" stroke="black" points="570,-201 570,-235 734,-235 734,-201 570,-201"/>
<text text-anchor="start" x="578" y="-222" font-family="Helvetica,sans-Serif" font-size="10.00">UBTeacherGuidePageZeroWidget</text>
<text text-anchor="middle" x="652" y="-209" font-family="Helvetica,sans-Serif" font-size="10.00">::isModified</text>
</a>
</g>
<!-- Node8&#45;&gt;Node9 -->
<g id="edge16" class="edge"><title>Node8&#45;&gt;Node9</title>
<path fill="none" stroke="midnightblue" d="M503.023,-236.445C520.76,-234.249 540.541,-231.8 559.745,-229.422"/>
<polygon fill="midnightblue" stroke="midnightblue" points="560.226,-232.889 569.72,-228.187 559.366,-225.942 560.226,-232.889"/>
</g>
<!-- Node12 -->
<g id="node23" class="node"><title>Node12</title>
<a xlink:href="../../de/d83/class_u_b_teacher_guide_edition_widget.html#a94e3cda687e93ee324bd5bd60cdd83aa" target="_top" xlink:title="UBTeacherGuideEditionWidget\l::isModified">
<polygon fill="white" stroke="black" points="576,-253 576,-287 728,-287 728,-253 576,-253"/>
<text text-anchor="start" x="584" y="-274" font-family="Helvetica,sans-Serif" font-size="10.00">UBTeacherGuideEditionWidget</text>
<text text-anchor="middle" x="652" y="-261" font-family="Helvetica,sans-Serif" font-size="10.00">::isModified</text>
</a>
</g>
<!-- Node8&#45;&gt;Node12 -->
<g id="edge22" class="edge"><title>Node8&#45;&gt;Node12</title>
<path fill="none" stroke="midnightblue" d="M503.023,-251.555C522.677,-253.989 544.84,-256.733 565.947,-259.346"/>
<polygon fill="midnightblue" stroke="midnightblue" points="565.527,-262.82 575.881,-260.576 566.387,-255.873 565.527,-262.82"/>
</g>
<!-- Node10 -->
<g id="node19" class="node"><title>Node10</title>
<a xlink:href="../../da/dc6/class_u_b_document_container.html#a859116555c2e46b6949e6e1cc613d754" target="_top" xlink:title="UBDocumentContainer\l::selectedDocument">
<polygon fill="white" stroke="black" points="780,-201 780,-235 898,-235 898,-201 780,-201"/>
<text text-anchor="start" x="788" y="-222" font-family="Helvetica,sans-Serif" font-size="10.00">UBDocumentContainer</text>
<text text-anchor="middle" x="839" y="-209" font-family="Helvetica,sans-Serif" font-size="10.00">::selectedDocument</text>
</a>
</g>
<!-- Node9&#45;&gt;Node10 -->
<g id="edge18" class="edge"><title>Node9&#45;&gt;Node10</title>
<path fill="none" stroke="midnightblue" d="M734.021,-218C745.937,-218 758.106,-218 769.738,-218"/>
<polygon fill="midnightblue" stroke="midnightblue" points="769.801,-221.5 779.801,-218 769.801,-214.5 769.801,-221.5"/>
</g>
<!-- Node11 -->
<g id="node21" class="node"><title>Node11</title>
<a xlink:href="../../d9/d07/class_u_b_t_g_adaptable_text.html#abc01215ceb6a24147b846b344b7557ce" target="_top" xlink:title="UBTGAdaptableText::text">
<polygon fill="white" stroke="black" points="774,-256.5 774,-277.5 904,-277.5 904,-256.5 774,-256.5"/>
<text text-anchor="middle" x="839" y="-264.5" font-family="Helvetica,sans-Serif" font-size="10.00">UBTGAdaptableText::text</text>
</a>
</g>
<!-- Node9&#45;&gt;Node11 -->
<g id="edge20" class="edge"><title>Node9&#45;&gt;Node11</title>
<path fill="none" stroke="midnightblue" d="M716.879,-235C740.48,-241.185 766.774,-248.075 788.901,-253.872"/>
<polygon fill="midnightblue" stroke="midnightblue" points="788.189,-257.304 798.749,-256.453 789.963,-250.532 788.189,-257.304"/>
</g>
<!-- Node12&#45;&gt;Node11 -->
<g id="edge24" class="edge"><title>Node12&#45;&gt;Node11</title>
<path fill="none" stroke="midnightblue" d="M728.06,-268.78C739.791,-268.592 751.902,-268.397 763.618,-268.209"/>
<polygon fill="midnightblue" stroke="midnightblue" points="763.851,-271.706 773.793,-268.046 763.738,-264.707 763.851,-271.706"/>
</g>
<!-- Node14&#45;&gt;Node3 -->
<g id="edge30" class="edge"><title>Node14&#45;&gt;Node3</title>
<path fill="none" stroke="midnightblue" d="M312.515,-678.06C322.332,-677.146 332.515,-676.197 342.664,-675.252"/>
<polygon fill="midnightblue" stroke="midnightblue" points="343.154,-678.721 352.786,-674.309 342.505,-671.752 343.154,-678.721"/>
</g>
<!-- Node15 -->
<g id="node31" class="node"><title>Node15</title>
<a xlink:href="../../de/db4/class_u_b_document_proxy.html#aba93539ec11aad9eb4156cb4edf246ba" target="_top" xlink:title="UBDocumentProxy::metaData">
<polygon fill="white" stroke="black" points="944,-733.5 944,-754.5 1094,-754.5 1094,-733.5 944,-733.5"/>
<text text-anchor="middle" x="1019" y="-741.5" font-family="Helvetica,sans-Serif" font-size="10.00">UBDocumentProxy::metaData</text>
</a>
</g>
<!-- Node14&#45;&gt;Node15 -->
<g id="edge32" class="edge"><title>Node14&#45;&gt;Node15</title>
<path fill="none" stroke="midnightblue" d="M299.543,-702.066C304.662,-704.655 309.566,-707.616 314,-711 336.637,-728.276 324.836,-750.672 350,-764 563.591,-877.124 871.758,-793.212 979.798,-757.773"/>
<polygon fill="midnightblue" stroke="midnightblue" points="980.939,-761.082 989.322,-754.603 978.729,-754.44 980.939,-761.082"/>
</g>
<!-- Node16 -->
<g id="node33" class="node"><title>Node16</title>
<a xlink:href="../../de/db4/class_u_b_document_proxy.html#addf3e5100a1a6b16b13a6ca4ebf5b091" target="_top" xlink:title="UBDocumentProxy::default\lDocumentSize">
<polygon fill="white" stroke="black" points="770.5,-649 770.5,-683 907.5,-683 907.5,-649 770.5,-649"/>
<text text-anchor="start" x="778.5" y="-670" font-family="Helvetica,sans-Serif" font-size="10.00">UBDocumentProxy::default</text>
<text text-anchor="middle" x="839" y="-657" font-family="Helvetica,sans-Serif" font-size="10.00">DocumentSize</text>
</a>
</g>
<!-- Node14&#45;&gt;Node16 -->
<g id="edge34" class="edge"><title>Node14&#45;&gt;Node16</title>
<path fill="none" stroke="midnightblue" d="M312.704,-685.76C325.158,-685.86 337.944,-685.946 350,-686 431.777,-686.365 452.266,-688.677 534,-686 610.993,-683.478 698.742,-677.385 760.291,-672.582"/>
<polygon fill="midnightblue" stroke="midnightblue" points="760.626,-676.067 770.32,-671.793 760.076,-669.088 760.626,-676.067"/>
</g>
<!-- Node20 -->
<g id="node42" class="node"><title>Node20</title>
<a xlink:href="../../dc/d4c/class_u_b_string_utils.html#aca5c79d1ca00f4ecbf5e014b7d9810a6" target="_top" xlink:title="UBStringUtils::toUtcIsoDateTime">
<polygon fill="white" stroke="black" points="360.5,-733.5 360.5,-754.5 523.5,-754.5 523.5,-733.5 360.5,-733.5"/>
<text text-anchor="middle" x="442" y="-741.5" font-family="Helvetica,sans-Serif" font-size="10.00">UBStringUtils::toUtcIsoDateTime</text>
</a>
</g>
<!-- Node14&#45;&gt;Node20 -->
<g id="edge44" class="edge"><title>Node14&#45;&gt;Node20</title>
<path fill="none" stroke="midnightblue" d="M292.877,-702.011C311.028,-707.543 331.35,-713.636 350,-719 363.696,-722.939 378.586,-727.056 392.318,-730.786"/>
<polygon fill="midnightblue" stroke="midnightblue" points="391.512,-734.194 402.079,-733.426 393.339,-727.437 391.512,-734.194"/>
</g>
<!-- Node16&#45;&gt;Node15 -->
<g id="edge36" class="edge"><title>Node16&#45;&gt;Node15</title>
<path fill="none" stroke="midnightblue" d="M878.502,-683.117C910.438,-696.957 954.918,-716.231 985.218,-729.361"/>
<polygon fill="midnightblue" stroke="midnightblue" points="983.957,-732.629 994.524,-733.394 986.74,-726.206 983.957,-732.629"/>
</g>
<!-- Node17 -->
<g id="node36" class="node"><title>Node17</title>
<a xlink:href="../../db/d66/class_u_b_settings.html#a0d8ed418921c2b2d37851faeae00715d" target="_top" xlink:title="UBSettings::settings">
<polygon fill="white" stroke="black" points="965.5,-433.5 965.5,-454.5 1072.5,-454.5 1072.5,-433.5 965.5,-433.5"/>
<text text-anchor="middle" x="1019" y="-441.5" font-family="Helvetica,sans-Serif" font-size="10.00">UBSettings::settings</text>
</a>
</g>
<!-- Node16&#45;&gt;Node17 -->
<g id="edge38" class="edge"><title>Node16&#45;&gt;Node17</title>
<path fill="none" stroke="midnightblue" d="M852.825,-648.949C885.943,-608.104 969.606,-504.92 1003.94,-462.573"/>
<polygon fill="midnightblue" stroke="midnightblue" points="1006.72,-464.699 1010.3,-454.727 1001.29,-460.291 1006.72,-464.699"/>
</g>
<!-- Node18 -->
<g id="node38" class="node"><title>Node18</title>
<a xlink:href="../../d7/d24/class_u_b_setting.html#afe671b284dd9f1e313e6f27df3ecd2a8" target="_top" xlink:title="UBSetting::get">
<polygon fill="white" stroke="black" points="978.5,-655.5 978.5,-676.5 1059.5,-676.5 1059.5,-655.5 978.5,-655.5"/>
<text text-anchor="middle" x="1019" y="-663.5" font-family="Helvetica,sans-Serif" font-size="10.00">UBSetting::get</text>
</a>
</g>
<!-- Node16&#45;&gt;Node18 -->
<g id="edge40" class="edge"><title>Node16&#45;&gt;Node18</title>
<path fill="none" stroke="midnightblue" d="M907.564,-666C927.682,-666 949.318,-666 968.125,-666"/>
<polygon fill="midnightblue" stroke="midnightblue" points="968.254,-669.5 978.254,-666 968.254,-662.5 968.254,-669.5"/>
</g>
<!-- Node19 -->
<g id="node40" class="node"><title>Node19</title>
<a xlink:href="../../db/d66/class_u_b_settings.html#a30f5b15068954099f41c054979593275" target="_top" xlink:title="UBSettings::value">
<polygon fill="white" stroke="black" points="1130,-655.5 1130,-676.5 1226,-676.5 1226,-655.5 1130,-655.5"/>
<text text-anchor="middle" x="1178" y="-663.5" font-family="Helvetica,sans-Serif" font-size="10.00">UBSettings::value</text>
</a>
</g>
<!-- Node18&#45;&gt;Node19 -->
<g id="edge42" class="edge"><title>Node18&#45;&gt;Node19</title>
<path fill="none" stroke="midnightblue" d="M1059.53,-666C1077.79,-666 1099.69,-666 1119.66,-666"/>
<polygon fill="midnightblue" stroke="midnightblue" points="1119.9,-669.5 1129.9,-666 1119.9,-662.5 1119.9,-669.5"/>
</g>
<!-- Node23&#45;&gt;Node3 -->
<g id="edge52" class="edge"><title>Node23&#45;&gt;Node3</title>
<path fill="none" stroke="midnightblue" d="M250.154,-459.257C265.895,-481.988 293.715,-523.478 314,-561 332.542,-595.298 320.346,-615.685 350,-641 354.791,-645.09 360.192,-648.517 365.914,-651.387"/>
<polygon fill="midnightblue" stroke="midnightblue" points="364.568,-654.619 375.13,-655.454 367.394,-648.215 364.568,-654.619"/>
</g>
<!-- Node23&#45;&gt;Node4 -->
<g id="edge62" class="edge"><title>Node23&#45;&gt;Node4</title>
<path fill="none" stroke="midnightblue" d="M293.205,-430.634C320.424,-425.03 353.319,-418.258 381.251,-412.507"/>
<polygon fill="midnightblue" stroke="midnightblue" points="382.209,-415.883 391.298,-410.439 380.797,-409.027 382.209,-415.883"/>
</g>
<!-- Node23&#45;&gt;Node6 -->
<g id="edge64" class="edge"><title>Node23&#45;&gt;Node6</title>
<path fill="none" stroke="midnightblue" d="M261.875,-424.876C283.874,-409.749 317.879,-387.981 350,-374 354.946,-371.847 360.119,-369.822 365.382,-367.926"/>
<polygon fill="midnightblue" stroke="midnightblue" points="366.597,-371.21 374.921,-364.655 364.327,-364.588 366.597,-371.21"/>
</g>
<!-- Node23&#45;&gt;Node7 -->
<g id="edge66" class="edge"><title>Node23&#45;&gt;Node7</title>
<path fill="none" stroke="midnightblue" d="M249.266,-424.916C267.375,-398.806 305.476,-349.154 350,-322 352.996,-320.173 356.124,-318.47 359.343,-316.884"/>
<polygon fill="midnightblue" stroke="midnightblue" points="360.931,-320.008 368.617,-312.715 358.061,-313.623 360.931,-320.008"/>
</g>
<!-- Node23&#45;&gt;Node8 -->
<g id="edge68" class="edge"><title>Node23&#45;&gt;Node8</title>
<path fill="none" stroke="midnightblue" d="M244.304,-424.907C257.981,-390.23 293.752,-311.402 350,-270 356.462,-265.243 363.765,-261.356 371.359,-258.18"/>
<polygon fill="midnightblue" stroke="midnightblue" points="372.609,-261.449 380.732,-254.646 370.14,-254.899 372.609,-261.449"/>
</g>
<!-- Node23&#45;&gt;Node21 -->
<g id="edge60" class="edge"><title>Node23&#45;&gt;Node21</title>
<path fill="none" stroke="midnightblue" d="M241.598,-424.719C251.268,-382.682 281.833,-274.409 350,-218 356.782,-212.388 364.703,-207.985 373,-204.531"/>
<polygon fill="midnightblue" stroke="midnightblue" points="374.322,-207.774 382.487,-201.021 371.893,-201.209 374.322,-207.774"/>
</g>
<!-- Node24 -->
<g id="node51" class="node"><title>Node24</title>
<a xlink:href="../../d2/d7a/class_u_b_file_system_utils.html#a9ac90c91a836a34b5ccec620d8e4273a" target="_top" xlink:title="UBFileSystemUtils:\l:digitFileFormat">
<polygon fill="white" stroke="black" points="600,-427 600,-461 704,-461 704,-427 600,-427"/>
<text text-anchor="start" x="608" y="-448" font-family="Helvetica,sans-Serif" font-size="10.00">UBFileSystemUtils:</text>
<text text-anchor="middle" x="652" y="-435" font-family="Helvetica,sans-Serif" font-size="10.00">:digitFileFormat</text>
</a>
</g>
<!-- Node23&#45;&gt;Node24 -->
<g id="edge54" class="edge"><title>Node23&#45;&gt;Node24</title>
<path fill="none" stroke="midnightblue" d="M293.404,-442.268C370.265,-442.639 508.853,-443.308 589.376,-443.697"/>
<polygon fill="midnightblue" stroke="midnightblue" points="589.843,-447.2 599.86,-443.748 589.877,-440.2 589.843,-447.2"/>
</g>
<!-- Node26 -->
<g id="node61" class="node"><title>Node26</title>
<a xlink:href="../../dc/db2/class_u_b_graphics_scene.html#aec88131e2343abb3e86dc5efcd8de622" target="_top" xlink:title="UBGraphicsScene::nominalSize">
<polygon fill="white" stroke="black" points="573.5,-616.5 573.5,-637.5 730.5,-637.5 730.5,-616.5 573.5,-616.5"/>
<text text-anchor="middle" x="652" y="-624.5" font-family="Helvetica,sans-Serif" font-size="10.00">UBGraphicsScene::nominalSize</text>
</a>
</g>
<!-- Node23&#45;&gt;Node26 -->
<g id="edge70" class="edge"><title>Node23&#45;&gt;Node26</title>
<path fill="none" stroke="midnightblue" d="M249.034,-459.22C275.754,-500.799 342.307,-603.595 350,-608 422.268,-649.382 520.832,-646.8 585.417,-638.834"/>
<polygon fill="midnightblue" stroke="midnightblue" points="586.021,-642.285 595.482,-637.515 585.112,-635.344 586.021,-642.285"/>
</g>
<!-- Node27 -->
<g id="node64" class="node"><title>Node27</title>
<a xlink:href="../../dc/db2/class_u_b_graphics_scene.html#a16c659f8d2d2d8c09eff096f6f290b44" target="_top" xlink:title="UBGraphicsScene::normalized\lSceneRect">
<polygon fill="white" stroke="black" points="366.5,-565 366.5,-599 517.5,-599 517.5,-565 366.5,-565"/>
<text text-anchor="start" x="374.5" y="-586" font-family="Helvetica,sans-Serif" font-size="10.00">UBGraphicsScene::normalized</text>
<text text-anchor="middle" x="442" y="-573" font-family="Helvetica,sans-Serif" font-size="10.00">SceneRect</text>
</a>
</g>
<!-- Node23&#45;&gt;Node27 -->
<g id="edge74" class="edge"><title>Node23&#45;&gt;Node27</title>
<path fill="none" stroke="midnightblue" d="M250.081,-459.03C268.696,-484.014 306.794,-530.403 350,-556 352.856,-557.692 355.827,-559.278 358.878,-560.765"/>
<polygon fill="midnightblue" stroke="midnightblue" points="357.677,-564.061 368.236,-564.933 360.525,-557.667 357.677,-564.061"/>
</g>
<!-- Node28 -->
<g id="node67" class="node"><title>Node28</title>
<a xlink:href="../../dc/db2/class_u_b_graphics_scene.html#ad91ed6e458beecd1ee198991c703082c" target="_top" xlink:title="UBGraphicsScene::isDarkBackground">
<polygon fill="white" stroke="black" points="350,-525.5 350,-546.5 534,-546.5 534,-525.5 350,-525.5"/>
<text text-anchor="middle" x="442" y="-533.5" font-family="Helvetica,sans-Serif" font-size="10.00">UBGraphicsScene::isDarkBackground</text>
</a>
</g>
<!-- Node23&#45;&gt;Node28 -->
<g id="edge78" class="edge"><title>Node23&#45;&gt;Node28</title>
<path fill="none" stroke="midnightblue" d="M258.942,-459.303C280.48,-476.23 315.64,-501.515 350,-516 355.93,-518.5 362.213,-520.704 368.599,-522.644"/>
<polygon fill="midnightblue" stroke="midnightblue" points="368.11,-526.143 378.684,-525.481 370.005,-519.404 368.11,-526.143"/>
</g>
<!-- Node29 -->
<g id="node69" class="node"><title>Node29</title>
<a xlink:href="../../dc/db2/class_u_b_graphics_scene.html#a3fac42724b4c9d395698cc7e16f902ab" target="_top" xlink:title="UBGraphicsScene::setRendering\lQuality">
<polygon fill="white" stroke="black" points="361.5,-473 361.5,-507 522.5,-507 522.5,-473 361.5,-473"/>
<text text-anchor="start" x="369.5" y="-494" font-family="Helvetica,sans-Serif" font-size="10.00">UBGraphicsScene::setRendering</text>
<text text-anchor="middle" x="442" y="-481" font-family="Helvetica,sans-Serif" font-size="10.00">Quality</text>
</a>
</g>
<!-- Node23&#45;&gt;Node29 -->
<g id="edge80" class="edge"><title>Node23&#45;&gt;Node29</title>
<path fill="none" stroke="midnightblue" d="M293.205,-454.989C313.66,-459.802 337.32,-465.37 359.671,-470.628"/>
<polygon fill="midnightblue" stroke="midnightblue" points="358.957,-474.056 369.493,-472.939 360.56,-467.242 358.957,-474.056"/>
</g>
<!-- Node25 -->
<g id="node53" class="node"><title>Node25</title>
<a xlink:href="../../da/dc6/class_u_b_document_container.html#ad573f4f006c0eac302455c6bd20421a7" target="_top" xlink:title="UBDocumentContainer\l::pageFromSceneIndex">
<polygon fill="white" stroke="black" points="780,-427 780,-461 898,-461 898,-427 780,-427"/>
<text text-anchor="start" x="788" y="-448" font-family="Helvetica,sans-Serif" font-size="10.00">UBDocumentContainer</text>
<text text-anchor="middle" x="839" y="-435" font-family="Helvetica,sans-Serif" font-size="10.00">::pageFromSceneIndex</text>
</a>
</g>
<!-- Node24&#45;&gt;Node25 -->
<g id="edge56" class="edge"><title>Node24&#45;&gt;Node25</title>
<path fill="none" stroke="midnightblue" d="M704.09,-444C724.428,-444 748.042,-444 769.776,-444"/>
<polygon fill="midnightblue" stroke="midnightblue" points="769.94,-447.5 779.94,-444 769.94,-440.5 769.94,-447.5"/>
</g>
<!-- Node25&#45;&gt;Node17 -->
<g id="edge58" class="edge"><title>Node25&#45;&gt;Node17</title>
<path fill="none" stroke="midnightblue" d="M898.438,-444C916.668,-444 936.798,-444 955.301,-444"/>
<polygon fill="midnightblue" stroke="midnightblue" points="955.391,-447.5 965.391,-444 955.391,-440.5 955.391,-447.5"/>
</g>
<!-- Node26&#45;&gt;Node16 -->
<g id="edge72" class="edge"><title>Node26&#45;&gt;Node16</title>
<path fill="none" stroke="midnightblue" d="M702.605,-637.554C720.464,-641.279 740.988,-645.559 760.602,-649.65"/>
<polygon fill="midnightblue" stroke="midnightblue" points="759.944,-653.088 770.448,-651.703 761.373,-646.235 759.944,-653.088"/>
</g>
<!-- Node27&#45;&gt;Node26 -->
<g id="edge76" class="edge"><title>Node27&#45;&gt;Node26</title>
<path fill="none" stroke="midnightblue" d="M517.518,-598.182C542.417,-603.518 569.723,-609.369 593.187,-614.397"/>
<polygon fill="midnightblue" stroke="midnightblue" points="592.478,-617.825 602.989,-616.498 593.944,-610.98 592.478,-617.825"/>
</g>
<!-- Node30 -->
<g id="node71" class="node"><title>Node30</title>
<a xlink:href="../../d8/d1e/class_u_b_item.html#ab91a4a587b0981ff59f7ddedc6dbe68c" target="_top" xlink:title="UBItem::setRenderingQuality">
<polygon fill="white" stroke="black" points="579.5,-479.5 579.5,-500.5 724.5,-500.5 724.5,-479.5 579.5,-479.5"/>
<text text-anchor="middle" x="652" y="-487.5" font-family="Helvetica,sans-Serif" font-size="10.00">UBItem::setRenderingQuality</text>
</a>
</g>
<!-- Node29&#45;&gt;Node30 -->
<g id="edge82" class="edge"><title>Node29&#45;&gt;Node30</title>
<path fill="none" stroke="midnightblue" d="M522.591,-490C537.721,-490 553.568,-490 568.777,-490"/>
<polygon fill="midnightblue" stroke="midnightblue" points="569.188,-493.5 579.188,-490 569.188,-486.5 569.188,-493.5"/>
</g>
<!-- Node32&#45;&gt;Node17 -->
<g id="edge88" class="edge"><title>Node32&#45;&gt;Node17</title>
<path fill="none" stroke="midnightblue" d="M278.12,-184.487C309.491,-176.286 348.12,-166.239 350,-166 596.28,-134.633 704.884,-49.2362 908,-192 987.283,-247.726 1010.61,-373.205 1016.88,-423.031"/>
<polygon fill="midnightblue" stroke="midnightblue" points="1013.43,-423.695 1018.05,-433.229 1020.39,-422.894 1013.43,-423.695"/>
</g>
<!-- Node33 -->
<g id="node78" class="node"><title>Node33</title>
<a xlink:href="../../dc/db2/class_u_b_graphics_scene.html#a3d3e53091814e68510f12c4b40649e1b" target="_top" xlink:title="UBGraphicsScene::setView\lState">
<polygon fill="white" stroke="black" points="372.5,-85 372.5,-119 511.5,-119 511.5,-85 372.5,-85"/>
<text text-anchor="start" x="380.5" y="-106" font-family="Helvetica,sans-Serif" font-size="10.00">UBGraphicsScene::setView</text>
<text text-anchor="middle" x="442" y="-93" font-family="Helvetica,sans-Serif" font-size="10.00">State</text>
</a>
</g>
<!-- Node32&#45;&gt;Node33 -->
<g id="edge90" class="edge"><title>Node32&#45;&gt;Node33</title>
<path fill="none" stroke="midnightblue" d="M294.017,-184.46C301.025,-181.946 307.872,-178.84 314,-175 334.833,-161.946 329.62,-146.752 350,-133 355.318,-129.412 361.088,-126.205 367.059,-123.346"/>
<polygon fill="midnightblue" stroke="midnightblue" points="368.843,-126.384 376.57,-119.134 366.009,-119.983 368.843,-126.384"/>
</g>
</g>
</svg>
        <g id="navigator" transform="translate(0 0)" fill="#404254">
                <rect fill="#f2f5e9" fill-opacity="0.5" stroke="#606060" stroke-width=".5" x="0" y="0" width="60" height="60"/>
                <use id="zoomplus" xlink:href="#zoomPlus" x="17" y="9" onmousedown="handleZoom(evt,'in')"/>
                <use id="zoomminus" xlink:href="#zoomMin" x="42" y="9" onmousedown="handleZoom(evt,'out')"/>
                <use id="reset" xlink:href="#resetDef" x="30" y="36" onmousedown="handleReset()"/>
                <g id="arrowUp" xlink:href="#dirArrow" transform="translate(30 24)" onmousedown="handlePan(0,-1)">
                  <use xlink:href="#rim" fill="#404040">
                        <set attributeName="fill" to="#808080" begin="arrowUp.mouseover" end="arrowUp.mouseout"/>
                  </use>
                  <path fill="none" stroke="white" stroke-width="1.5" d="M0,-3.0v7 M-2.5,-0.5L0,-3.0L2.5,-0.5"/>
                </g>
                <g id="arrowRight" xlink:href="#dirArrow" transform="rotate(90) translate(36 -43)" onmousedown="handlePan(1,0)">
                  <use xlink:href="#rim" fill="#404040">
                        <set attributeName="fill" to="#808080" begin="arrowRight.mouseover" end="arrowRight.mouseout"/>
                  </use>
                  <path fill="none" stroke="white" stroke-width="1.5" d="M0,-3.0v7 M-2.5,-0.5L0,-3.0L2.5,-0.5"/>
                </g>
                <g id="arrowDown" xlink:href="#dirArrow" transform="rotate(180) translate(-30 -48)" onmousedown="handlePan(0,1)">
                  <use xlink:href="#rim" fill="#404040">
                        <set attributeName="fill" to="#808080" begin="arrowDown.mouseover" end="arrowDown.mouseout"/>
                  </use>
                  <path fill="none" stroke="white" stroke-width="1.5" d="M0,-3.0v7 M-2.5,-0.5L0,-3.0L2.5,-0.5"/>
                </g>
                <g id="arrowLeft" xlink:href="#dirArrow" transform="rotate(270) translate(-36 17)" onmousedown="handlePan(-1,0)">
                  <use xlink:href="#rim" fill="#404040">
                        <set attributeName="fill" to="#808080" begin="arrowLeft.mouseover" end="arrowLeft.mouseout"/>
                  </use>
                  <path fill="none" stroke="white" stroke-width="1.5" d="M0,-3.0v7 M-2.5,-0.5L0,-3.0L2.5,-0.5"/>
                </g>
        </g>
        <svg viewBox="0 0 15 15" width="100%" height="30px" preserveAspectRatio="xMaxYMin meet">
         <g id="arrow_out" transform="scale(0.3 0.3)">
          <a xlink:href="class_u_b_persistence_manager_abc6ab5e964275e015e5da1450c2b8675_cgraph_org.svg" target="_base">
           <rect id="button" ry="5" rx="5" y="6" x="6" height="38" width="38"
                fill="#f2f5e9" fill-opacity="0.5" stroke="#606060" stroke-width="1.0"/>
           <path id="arrow"
             d="M 11.500037,31.436501 C 11.940474,20.09759 22.043105,11.32322 32.158766,21.979434 L 37.068811,17.246167 C 37.068811,17.246167 37.088388,32 37.088388,32 L 22.160133,31.978069 C 22.160133,31.978069 26.997745,27.140456 26.997745,27.140456 C 18.528582,18.264221 13.291696,25.230495 11.500037,31.436501 z"
             style="fill:#404040;"/>
          </a>
         </g>
        </svg>
</svg>
