<?xml version="1.0" encoding="UTF-8" standalone="no"?>
<!DOCTYPE svg PUBLIC "-//W3C//DTD SVG 1.1//EN"
 "http://www.w3.org/Graphics/SVG/1.1/DTD/svg11.dtd">
<!-- Generated by graphviz version 2.26.3 (20100126.1600)
 -->
<!-- Title: UBPersistenceManager::duplicateDocument Pages: 1 -->
<svg width="1052pt" height="661pt"
 viewBox="0.00 0.00 1052.00 661.00" xmlns="http://www.w3.org/2000/svg" xmlns:xlink="http://www.w3.org/1999/xlink">
<g id="graph1" class="graph" transform="scale(1 1) rotate(0) translate(4 657)">
<title>UBPersistenceManager::duplicateDocument</title>
<polygon fill="white" stroke="white" points="-4,5 -4,-657 1049,-657 1049,5 -4,5"/>
<!-- Node1 -->
<g id="node1" class="node"><title>Node1</title>
<polygon fill="#bfbfbf" stroke="black" points="0,-248 0,-282 120,-282 120,-248 0,-248"/>
<text text-anchor="start" x="8" y="-269" font-family="Helvetica,sans-Serif" font-size="10.00">UBPersistenceManager</text>
<text text-anchor="middle" x="60" y="-256" font-family="Helvetica,sans-Serif" font-size="10.00">::duplicateDocument</text>
</g>
<!-- Node2 -->
<g id="node3" class="node"><title>Node2</title>
<a xlink:href="../../d2/d7a/class_u_b_file_system_utils.html#a8289391e8ff8c366727435455aa8a733" target="_top" xlink:title="UBFileSystemUtils:\l:copyDir">
<polygon fill="white" stroke="black" points="182,-619 182,-653 286,-653 286,-619 182,-619"/>
<text text-anchor="start" x="190" y="-640" font-family="Helvetica,sans-Serif" font-size="10.00">UBFileSystemUtils:</text>
<text text-anchor="middle" x="234" y="-627" font-family="Helvetica,sans-Serif" font-size="10.00">:copyDir</text>
</a>
</g>
<!-- Node1&#45;&gt;Node2 -->
<g id="edge2" class="edge"><title>Node1&#45;&gt;Node2</title>
<path fill="none" stroke="midnightblue" d="M62.8296,-282.396C73.267,-344.677 111.327,-555.466 156,-605 160.721,-610.235 166.443,-614.598 172.619,-618.232"/>
<polygon fill="midnightblue" stroke="midnightblue" points="171.44,-621.563 181.929,-623.052 174.658,-615.346 171.44,-621.563"/>
</g>
<!-- Node3 -->
<g id="node5" class="node"><title>Node3</title>
<a xlink:href="../../de/db4/class_u_b_document_proxy.html#af57e2a3250ad6ae4c18fc5762e37f8a1" target="_top" xlink:title="UBDocumentProxy::persistencePath">
<polygon fill="white" stroke="black" points="548,-543.5 548,-564.5 726,-564.5 726,-543.5 548,-543.5"/>
<text text-anchor="middle" x="637" y="-551.5" font-family="Helvetica,sans-Serif" font-size="10.00">UBDocumentProxy::persistencePath</text>
</a>
</g>
<!-- Node1&#45;&gt;Node3 -->
<g id="edge4" class="edge"><title>Node1&#45;&gt;Node3</title>
<path fill="none" stroke="midnightblue" d="M62.1396,-282.049C68.3854,-324.628 90.4976,-436.538 156,-497 272.941,-604.941 479.851,-584.44 579.801,-566.411"/>
<polygon fill="midnightblue" stroke="midnightblue" points="580.521,-569.837 589.712,-564.567 579.241,-562.955 580.521,-569.837"/>
</g>
<!-- Node4 -->
<g id="node7" class="node"><title>Node4</title>
<a xlink:href="../../de/db4/class_u_b_document_proxy.html#a464a6a010deaeab87070628041bb7c0e" target="_top" xlink:title="UBDocumentProxy::pageCount">
<polygon fill="white" stroke="black" points="156.5,-196.5 156.5,-217.5 311.5,-217.5 311.5,-196.5 156.5,-196.5"/>
<text text-anchor="middle" x="234" y="-204.5" font-family="Helvetica,sans-Serif" font-size="10.00">UBDocumentProxy::pageCount</text>
</a>
</g>
<!-- Node1&#45;&gt;Node4 -->
<g id="edge6" class="edge"><title>Node1&#45;&gt;Node4</title>
<path fill="none" stroke="midnightblue" d="M109.264,-247.844C124.25,-242.685 140.78,-237.055 156,-232 167.273,-228.256 179.494,-224.294 190.844,-220.654"/>
<polygon fill="midnightblue" stroke="midnightblue" points="192.088,-223.931 200.548,-217.553 189.957,-217.263 192.088,-223.931"/>
</g>
<!-- Node5 -->
<g id="node9" class="node"><title>Node5</title>
<a xlink:href="../../d3/df9/class_u_b_svg_subset_adaptor.html#a665ab38f71e9d7cfd8ceb868693fb9ca" target="_top" xlink:title="UBSvgSubsetAdaptor\l::setSceneUuid">
<polygon fill="white" stroke="black" points="177.5,-454 177.5,-488 290.5,-488 290.5,-454 177.5,-454"/>
<text text-anchor="start" x="185.5" y="-475" font-family="Helvetica,sans-Serif" font-size="10.00">UBSvgSubsetAdaptor</text>
<text text-anchor="middle" x="234" y="-462" font-family="Helvetica,sans-Serif" font-size="10.00">::setSceneUuid</text>
</a>
</g>
<!-- Node1&#45;&gt;Node5 -->
<g id="edge8" class="edge"><title>Node1&#45;&gt;Node5</title>
<path fill="none" stroke="midnightblue" d="M71.2964,-282.082C88.4523,-307.59 122.621,-356.729 156,-395 171.98,-413.322 191.586,-432.412 207.143,-446.877"/>
<polygon fill="midnightblue" stroke="midnightblue" points="205.142,-449.792 214.869,-453.991 209.883,-444.642 205.142,-449.792"/>
</g>
<!-- Node10 -->
<g id="node20" class="node"><title>Node10</title>
<a xlink:href="../../de/db4/class_u_b_document_proxy.html#a9b1a75280159acaf824324df0a26222f" target="_top" xlink:title="UBDocumentProxy::metaDatas">
<polygon fill="white" stroke="black" points="156.5,-156.5 156.5,-177.5 311.5,-177.5 311.5,-156.5 156.5,-156.5"/>
<text text-anchor="middle" x="234" y="-164.5" font-family="Helvetica,sans-Serif" font-size="10.00">UBDocumentProxy::metaDatas</text>
</a>
</g>
<!-- Node1&#45;&gt;Node10 -->
<g id="edge20" class="edge"><title>Node1&#45;&gt;Node10</title>
<path fill="none" stroke="midnightblue" d="M76.4264,-247.832C94.3677,-230.064 124.739,-202.748 156,-187 160.565,-184.7 165.417,-182.65 170.381,-180.824"/>
<polygon fill="midnightblue" stroke="midnightblue" points="171.656,-184.088 180.019,-177.583 169.425,-177.453 171.656,-184.088"/>
</g>
<!-- Node11 -->
<g id="node22" class="node"><title>Node11</title>
<a xlink:href="../../de/db4/class_u_b_document_proxy.html#a541c361c5a415640974ecf94147126b1" target="_top" xlink:title="UBDocumentProxy::setMetaData">
<polygon fill="white" stroke="black" points="348,-251.5 348,-272.5 512,-272.5 512,-251.5 348,-251.5"/>
<text text-anchor="middle" x="430" y="-259.5" font-family="Helvetica,sans-Serif" font-size="10.00">UBDocumentProxy::setMetaData</text>
</a>
</g>
<!-- Node1&#45;&gt;Node11 -->
<g id="edge22" class="edge"><title>Node1&#45;&gt;Node11</title>
<path fill="none" stroke="midnightblue" d="M120.27,-264.511C179.19,-264.034 269.703,-263.3 337.694,-262.748"/>
<polygon fill="midnightblue" stroke="midnightblue" points="338.008,-266.246 347.979,-262.665 337.951,-259.246 338.008,-266.246"/>
</g>
<!-- Node15 -->
<g id="node30" class="node"><title>Node15</title>
<a xlink:href="../../de/db4/class_u_b_document_proxy.html#aba93539ec11aad9eb4156cb4edf246ba" target="_top" xlink:title="UBDocumentProxy::metaData">
<polygon fill="white" stroke="black" points="762,-400.5 762,-421.5 912,-421.5 912,-400.5 762,-400.5"/>
<text text-anchor="middle" x="837" y="-408.5" font-family="Helvetica,sans-Serif" font-size="10.00">UBDocumentProxy::metaData</text>
</a>
</g>
<!-- Node1&#45;&gt;Node15 -->
<g id="edge30" class="edge"><title>Node1&#45;&gt;Node15</title>
<path fill="none" stroke="midnightblue" d="M93.7792,-282.127C111.79,-290.467 134.596,-299.795 156,-305 402.996,-365.059 482.09,-280.431 726,-352 758.249,-361.463 791.867,-380.891 813.537,-394.871"/>
<polygon fill="midnightblue" stroke="midnightblue" points="811.777,-397.904 822.053,-400.484 815.629,-392.059 811.777,-397.904"/>
</g>
<!-- Node16 -->
<g id="node32" class="node"><title>Node16</title>
<a xlink:href="../../de/db4/class_u_b_document_proxy.html#a029188b2c67889594af3057c06cb5217" target="_top" xlink:title="UBDocumentProxy::setUuid">
<polygon fill="white" stroke="black" points="163.5,-274.5 163.5,-295.5 304.5,-295.5 304.5,-274.5 163.5,-274.5"/>
<text text-anchor="middle" x="234" y="-282.5" font-family="Helvetica,sans-Serif" font-size="10.00">UBDocumentProxy::setUuid</text>
</a>
</g>
<!-- Node1&#45;&gt;Node16 -->
<g id="edge32" class="edge"><title>Node1&#45;&gt;Node16</title>
<path fill="none" stroke="midnightblue" d="M120.368,-271.939C130.965,-273.157 142.144,-274.442 153.19,-275.711"/>
<polygon fill="midnightblue" stroke="midnightblue" points="152.941,-279.206 163.276,-276.871 153.741,-272.252 152.941,-279.206"/>
</g>
<!-- Node17 -->
<g id="node36" class="node"><title>Node17</title>
<a xlink:href="../../d0/dd5/class_u_b_persistence_manager.html#ab96bfcd20014ff5bb36fede047aef3b2" target="_top" xlink:title="UBPersistenceManager\l::persistDocumentMetadata">
<polygon fill="white" stroke="black" points="165.5,-352 165.5,-386 302.5,-386 302.5,-352 165.5,-352"/>
<text text-anchor="start" x="173.5" y="-373" font-family="Helvetica,sans-Serif" font-size="10.00">UBPersistenceManager</text>
<text text-anchor="middle" x="234" y="-360" font-family="Helvetica,sans-Serif" font-size="10.00">::persistDocumentMetadata</text>
</a>
</g>
<!-- Node1&#45;&gt;Node17 -->
<g id="edge38" class="edge"><title>Node1&#45;&gt;Node17</title>
<path fill="none" stroke="midnightblue" d="M79.1255,-282.054C97.7561,-298.038 127.379,-321.832 156,-338 162.28,-341.548 169.048,-344.883 175.88,-347.954"/>
<polygon fill="midnightblue" stroke="midnightblue" points="174.628,-351.226 185.197,-351.975 177.402,-344.799 174.628,-351.226"/>
</g>
<!-- Node24 -->
<g id="node54" class="node"><title>Node24</title>
<a xlink:href="../../de/db4/class_u_b_document_proxy.html#ae2756a1f873f485576df9a1dae94e94c" target="_top" xlink:title="UBDocumentProxy::setPage\lCount">
<polygon fill="white" stroke="black" points="162.5,-104 162.5,-138 305.5,-138 305.5,-104 162.5,-104"/>
<text text-anchor="start" x="170.5" y="-125" font-family="Helvetica,sans-Serif" font-size="10.00">UBDocumentProxy::setPage</text>
<text text-anchor="middle" x="234" y="-112" font-family="Helvetica,sans-Serif" font-size="10.00">Count</text>
</a>
</g>
<!-- Node1&#45;&gt;Node24 -->
<g id="edge60" class="edge"><title>Node1&#45;&gt;Node24</title>
<path fill="none" stroke="midnightblue" d="M69.5157,-247.972C84.6199,-222.441 116.461,-174.33 156,-147 158.106,-145.544 160.3,-144.165 162.559,-142.858"/>
<polygon fill="midnightblue" stroke="midnightblue" points="164.299,-145.898 171.548,-138.172 161.063,-139.691 164.299,-145.898"/>
</g>
<!-- Node25 -->
<g id="node56" class="node"><title>Node25</title>
<a xlink:href="../../d0/dd5/class_u_b_persistence_manager.html#a729bdda358bcfdffa6364d6081291c8b" target="_top" xlink:title="UBPersistenceManager\l::proxyListChanged">
<polygon fill="white" stroke="black" points="174,-52 174,-86 294,-86 294,-52 174,-52"/>
<text text-anchor="start" x="182" y="-73" font-family="Helvetica,sans-Serif" font-size="10.00">UBPersistenceManager</text>
<text text-anchor="middle" x="234" y="-60" font-family="Helvetica,sans-Serif" font-size="10.00">::proxyListChanged</text>
</a>
</g>
<!-- Node1&#45;&gt;Node25 -->
<g id="edge62" class="edge"><title>Node1&#45;&gt;Node25</title>
<path fill="none" stroke="midnightblue" d="M65.0662,-247.803C75.9913,-213.668 104.993,-137.033 156,-95 158.726,-92.7533 161.655,-90.6979 164.72,-88.818"/>
<polygon fill="midnightblue" stroke="midnightblue" points="166.544,-91.811 173.67,-83.9711 163.21,-85.6557 166.544,-91.811"/>
</g>
<!-- Node26 -->
<g id="node58" class="node"><title>Node26</title>
<a xlink:href="../../d0/dd5/class_u_b_persistence_manager.html#a8dd4370a27a8e122031ad9ca23722492" target="_top" xlink:title="UBPersistenceManager\l::documentCreated">
<polygon fill="white" stroke="black" points="174,-0 174,-34 294,-34 294,-0 174,-0"/>
<text text-anchor="start" x="182" y="-21" font-family="Helvetica,sans-Serif" font-size="10.00">UBPersistenceManager</text>
<text text-anchor="middle" x="234" y="-8" font-family="Helvetica,sans-Serif" font-size="10.00">::documentCreated</text>
</a>
</g>
<!-- Node1&#45;&gt;Node26 -->
<g id="edge64" class="edge"><title>Node1&#45;&gt;Node26</title>
<path fill="none" stroke="midnightblue" d="M62.5625,-247.802C69.6231,-206.45 93.1783,-100.616 156,-43 158.794,-40.4372 161.849,-38.1264 165.079,-36.0427"/>
<polygon fill="midnightblue" stroke="midnightblue" points="166.978,-38.9904 173.982,-31.041 163.549,-32.8875 166.978,-38.9904"/>
</g>
<!-- Node5&#45;&gt;Node3 -->
<g id="edge10" class="edge"><title>Node5&#45;&gt;Node3</title>
<path fill="none" stroke="midnightblue" d="M257.535,-488.048C279.683,-503.076 314.384,-524.079 348,-534 409.431,-552.13 481.264,-557.171 537.945,-557.659"/>
<polygon fill="midnightblue" stroke="midnightblue" points="537.972,-561.159 547.986,-557.7 538,-554.159 537.972,-561.159"/>
</g>
<!-- Node6 -->
<g id="node12" class="node"><title>Node6</title>
<a xlink:href="../../d2/d7a/class_u_b_file_system_utils.html#a9ac90c91a836a34b5ccec620d8e4273a" target="_top" xlink:title="UBFileSystemUtils:\l:digitFileFormat">
<polygon fill="white" stroke="black" points="378,-491 378,-525 482,-525 482,-491 378,-491"/>
<text text-anchor="start" x="386" y="-512" font-family="Helvetica,sans-Serif" font-size="10.00">UBFileSystemUtils:</text>
<text text-anchor="middle" x="430" y="-499" font-family="Helvetica,sans-Serif" font-size="10.00">:digitFileFormat</text>
</a>
</g>
<!-- Node5&#45;&gt;Node6 -->
<g id="edge12" class="edge"><title>Node5&#45;&gt;Node6</title>
<path fill="none" stroke="midnightblue" d="M290.691,-481.702C314.838,-486.26 343.08,-491.592 367.799,-496.258"/>
<polygon fill="midnightblue" stroke="midnightblue" points="367.32,-499.729 377.795,-498.145 368.618,-492.851 367.32,-499.729"/>
</g>
<!-- Node9 -->
<g id="node18" class="node"><title>Node9</title>
<a xlink:href="../../dc/d4c/class_u_b_string_utils.html#af1f88e3aef7d3360b2302ebe2f6c9627" target="_top" xlink:title="UBStringUtils::toCanonicalUuid">
<polygon fill="white" stroke="black" points="352.5,-399.5 352.5,-420.5 507.5,-420.5 507.5,-399.5 352.5,-399.5"/>
<text text-anchor="middle" x="430" y="-407.5" font-family="Helvetica,sans-Serif" font-size="10.00">UBStringUtils::toCanonicalUuid</text>
</a>
</g>
<!-- Node5&#45;&gt;Node9 -->
<g id="edge18" class="edge"><title>Node5&#45;&gt;Node9</title>
<path fill="none" stroke="midnightblue" d="M278.03,-453.932C299.039,-446.106 324.636,-437.029 348,-430 356.068,-427.573 364.649,-425.227 373.105,-423.048"/>
<polygon fill="midnightblue" stroke="midnightblue" points="374.094,-426.408 382.936,-420.572 372.384,-419.62 374.094,-426.408"/>
</g>
<!-- Node7 -->
<g id="node14" class="node"><title>Node7</title>
<a xlink:href="../../da/dc6/class_u_b_document_container.html#ad573f4f006c0eac302455c6bd20421a7" target="_top" xlink:title="UBDocumentContainer\l::pageFromSceneIndex">
<polygon fill="white" stroke="black" points="578,-491 578,-525 696,-525 696,-491 578,-491"/>
<text text-anchor="start" x="586" y="-512" font-family="Helvetica,sans-Serif" font-size="10.00">UBDocumentContainer</text>
<text text-anchor="middle" x="637" y="-499" font-family="Helvetica,sans-Serif" font-size="10.00">::pageFromSceneIndex</text>
</a>
</g>
<!-- Node6&#45;&gt;Node7 -->
<g id="edge14" class="edge"><title>Node6&#45;&gt;Node7</title>
<path fill="none" stroke="midnightblue" d="M482.235,-508C508.156,-508 539.816,-508 567.731,-508"/>
<polygon fill="midnightblue" stroke="midnightblue" points="567.829,-511.5 577.829,-508 567.829,-504.5 567.829,-511.5"/>
</g>
<!-- Node8 -->
<g id="node16" class="node"><title>Node8</title>
<a xlink:href="../../db/d66/class_u_b_settings.html#a0d8ed418921c2b2d37851faeae00715d" target="_top" xlink:title="UBSettings::settings">
<polygon fill="white" stroke="black" points="783.5,-491.5 783.5,-512.5 890.5,-512.5 890.5,-491.5 783.5,-491.5"/>
<text text-anchor="middle" x="837" y="-499.5" font-family="Helvetica,sans-Serif" font-size="10.00">UBSettings::settings</text>
</a>
</g>
<!-- Node7&#45;&gt;Node8 -->
<g id="edge16" class="edge"><title>Node7&#45;&gt;Node8</title>
<path fill="none" stroke="midnightblue" d="M696.195,-506.224C720.492,-505.495 748.668,-504.65 773.403,-503.908"/>
<polygon fill="midnightblue" stroke="midnightblue" points="773.521,-507.406 783.412,-503.608 773.311,-500.409 773.521,-507.406"/>
</g>
<!-- Node12 -->
<g id="node24" class="node"><title>Node12</title>
<a xlink:href="../../d2/da1/class_u_b_document_manager.html#a76098e4be543e87a5fc05c6d471a2670" target="_top" xlink:title="UBDocumentManager:\l:documentManager">
<polygon fill="white" stroke="black" points="579,-249 579,-283 695,-283 695,-249 579,-249"/>
<text text-anchor="start" x="587" y="-270" font-family="Helvetica,sans-Serif" font-size="10.00">UBDocumentManager:</text>
<text text-anchor="middle" x="637" y="-257" font-family="Helvetica,sans-Serif" font-size="10.00">:documentManager</text>
</a>
</g>
<!-- Node11&#45;&gt;Node12 -->
<g id="edge24" class="edge"><title>Node11&#45;&gt;Node12</title>
<path fill="none" stroke="midnightblue" d="M512.109,-263.587C530.879,-263.949 550.631,-264.331 568.747,-264.681"/>
<polygon fill="midnightblue" stroke="midnightblue" points="568.848,-268.184 578.914,-264.878 568.984,-261.185 568.848,-268.184"/>
</g>
<!-- Node13 -->
<g id="node26" class="node"><title>Node13</title>
<a xlink:href="../../d2/da1/class_u_b_document_manager.html#af14733ff65800757f9ce8fcd8ae965b1" target="_top" xlink:title="UBDocumentManager:\l:emitDocumentUpdated">
<polygon fill="white" stroke="black" points="577,-197 577,-231 697,-231 697,-197 577,-197"/>
<text text-anchor="start" x="585" y="-218" font-family="Helvetica,sans-Serif" font-size="10.00">UBDocumentManager:</text>
<text text-anchor="middle" x="637" y="-205" font-family="Helvetica,sans-Serif" font-size="10.00">:emitDocumentUpdated</text>
</a>
</g>
<!-- Node11&#45;&gt;Node13 -->
<g id="edge26" class="edge"><title>Node11&#45;&gt;Node13</title>
<path fill="none" stroke="midnightblue" d="M475.427,-251.466C502.158,-245.268 536.53,-237.297 566.695,-230.303"/>
<polygon fill="midnightblue" stroke="midnightblue" points="567.796,-233.64 576.747,-227.972 566.215,-226.821 567.796,-233.64"/>
</g>
<!-- Node14 -->
<g id="node28" class="node"><title>Node14</title>
<a xlink:href="../../d2/da1/class_u_b_document_manager.html#a0e26ccb4bc2fafa07f56ad5985154fbe" target="_top" xlink:title="UBDocumentManager:\l:documentUpdated">
<polygon fill="white" stroke="black" points="779,-197 779,-231 895,-231 895,-197 779,-197"/>
<text text-anchor="start" x="787" y="-218" font-family="Helvetica,sans-Serif" font-size="10.00">UBDocumentManager:</text>
<text text-anchor="middle" x="837" y="-205" font-family="Helvetica,sans-Serif" font-size="10.00">:documentUpdated</text>
</a>
</g>
<!-- Node13&#45;&gt;Node14 -->
<g id="edge28" class="edge"><title>Node13&#45;&gt;Node14</title>
<path fill="none" stroke="midnightblue" d="M697.007,-214C719.558,-214 745.359,-214 768.616,-214"/>
<polygon fill="midnightblue" stroke="midnightblue" points="768.755,-217.5 778.755,-214 768.755,-210.5 768.755,-217.5"/>
</g>
<!-- Node16&#45;&gt;Node9 -->
<g id="edge36" class="edge"><title>Node16&#45;&gt;Node9</title>
<path fill="none" stroke="midnightblue" d="M250.879,-295.558C267.431,-306.351 292.893,-324.163 312,-343 330.738,-361.473 325.965,-375.62 348,-390 351.129,-392.042 354.449,-393.876 357.889,-395.522"/>
<polygon fill="midnightblue" stroke="midnightblue" points="356.659,-398.802 367.233,-399.459 359.376,-392.351 356.659,-398.802"/>
</g>
<!-- Node16&#45;&gt;Node11 -->
<g id="edge34" class="edge"><title>Node16&#45;&gt;Node11</title>
<path fill="none" stroke="midnightblue" d="M304.76,-276.696C315.422,-275.445 326.552,-274.139 337.586,-272.844"/>
<polygon fill="midnightblue" stroke="midnightblue" points="338.153,-276.302 347.677,-271.66 337.337,-269.35 338.153,-276.302"/>
</g>
<!-- Node18 -->
<g id="node38" class="node"><title>Node18</title>
<a xlink:href="../../dc/d51/class_u_b_metadata_dc_subset_adaptor.html#a39cfa5435d5166fe515da61200777e45" target="_top" xlink:title="UBMetadataDcSubsetAdaptor\l::persist">
<polygon fill="white" stroke="black" points="355.5,-439 355.5,-473 504.5,-473 504.5,-439 355.5,-439"/>
<text text-anchor="start" x="363.5" y="-460" font-family="Helvetica,sans-Serif" font-size="10.00">UBMetadataDcSubsetAdaptor</text>
<text text-anchor="middle" x="430" y="-447" font-family="Helvetica,sans-Serif" font-size="10.00">::persist</text>
</a>
</g>
<!-- Node17&#45;&gt;Node18 -->
<g id="edge40" class="edge"><title>Node17&#45;&gt;Node18</title>
<path fill="none" stroke="midnightblue" d="M262.331,-386.054C284.971,-399.213 317.804,-417.262 348,-430 352.612,-431.945 357.422,-433.827 362.299,-435.628"/>
<polygon fill="midnightblue" stroke="midnightblue" points="361.131,-438.928 371.725,-438.989 363.481,-432.334 361.131,-438.928"/>
</g>
<!-- Node23 -->
<g id="node52" class="node"><title>Node23</title>
<a xlink:href="../../d0/dd5/class_u_b_persistence_manager.html#aa9c4499efd1d6a0b7efaf0aacb856a5c" target="_top" xlink:title="UBPersistenceManager\l::documentMetadataChanged">
<polygon fill="white" stroke="black" points="357.5,-347 357.5,-381 502.5,-381 502.5,-347 357.5,-347"/>
<text text-anchor="start" x="365.5" y="-368" font-family="Helvetica,sans-Serif" font-size="10.00">UBPersistenceManager</text>
<text text-anchor="middle" x="430" y="-355" font-family="Helvetica,sans-Serif" font-size="10.00">::documentMetadataChanged</text>
</a>
</g>
<!-- Node17&#45;&gt;Node23 -->
<g id="edge58" class="edge"><title>Node17&#45;&gt;Node23</title>
<path fill="none" stroke="midnightblue" d="M302.551,-367.251C316.992,-366.883 332.373,-366.49 347.271,-366.11"/>
<polygon fill="midnightblue" stroke="midnightblue" points="347.584,-369.604 357.491,-365.85 347.405,-362.606 347.584,-369.604"/>
</g>
<!-- Node18&#45;&gt;Node3 -->
<g id="edge42" class="edge"><title>Node18&#45;&gt;Node3</title>
<path fill="none" stroke="midnightblue" d="M497.185,-473.117C502.418,-475.685 507.435,-478.628 512,-482 534.611,-498.7 524.692,-518.288 548,-534 550.912,-535.963 553.986,-537.735 557.174,-539.336"/>
<polygon fill="midnightblue" stroke="midnightblue" points="555.854,-542.579 566.416,-543.409 558.677,-536.174 555.854,-542.579"/>
</g>
<!-- Node18&#45;&gt;Node15 -->
<g id="edge44" class="edge"><title>Node18&#45;&gt;Node15</title>
<path fill="none" stroke="midnightblue" d="M498.94,-438.977C514.961,-435.532 532.008,-432.274 548,-430 616.094,-420.316 693.93,-415.557 751.656,-413.224"/>
<polygon fill="midnightblue" stroke="midnightblue" points="751.973,-416.714 761.83,-412.829 751.701,-409.719 751.973,-416.714"/>
</g>
<!-- Node19 -->
<g id="node42" class="node"><title>Node19</title>
<a xlink:href="../../de/db4/class_u_b_document_proxy.html#addf3e5100a1a6b16b13a6ca4ebf5b091" target="_top" xlink:title="UBDocumentProxy::default\lDocumentSize">
<polygon fill="white" stroke="black" points="568.5,-439 568.5,-473 705.5,-473 705.5,-439 568.5,-439"/>
<text text-anchor="start" x="576.5" y="-460" font-family="Helvetica,sans-Serif" font-size="10.00">UBDocumentProxy::default</text>
<text text-anchor="middle" x="637" y="-447" font-family="Helvetica,sans-Serif" font-size="10.00">DocumentSize</text>
</a>
</g>
<!-- Node18&#45;&gt;Node19 -->
<g id="edge46" class="edge"><title>Node18&#45;&gt;Node19</title>
<path fill="none" stroke="midnightblue" d="M504.732,-456C522.06,-456 540.557,-456 558.06,-456"/>
<polygon fill="midnightblue" stroke="midnightblue" points="558.234,-459.5 568.234,-456 558.234,-452.5 558.234,-459.5"/>
</g>
<!-- Node22 -->
<g id="node50" class="node"><title>Node22</title>
<a xlink:href="../../dc/d4c/class_u_b_string_utils.html#aca5c79d1ca00f4ecbf5e014b7d9810a6" target="_top" xlink:title="UBStringUtils::toUtcIsoDateTime">
<polygon fill="white" stroke="black" points="555.5,-361.5 555.5,-382.5 718.5,-382.5 718.5,-361.5 555.5,-361.5"/>
<text text-anchor="middle" x="637" y="-369.5" font-family="Helvetica,sans-Serif" font-size="10.00">UBStringUtils::toUtcIsoDateTime</text>
</a>
</g>
<!-- Node18&#45;&gt;Node22 -->
<g id="edge56" class="edge"><title>Node18&#45;&gt;Node22</title>
<path fill="none" stroke="midnightblue" d="M493.434,-438.987C499.877,-436.351 506.183,-433.366 512,-430 530.787,-419.131 529.035,-407.556 548,-397 556.033,-392.529 564.927,-388.807 573.894,-385.723"/>
<polygon fill="midnightblue" stroke="midnightblue" points="575.153,-388.995 583.617,-382.621 573.026,-382.326 575.153,-388.995"/>
</g>
<!-- Node19&#45;&gt;Node8 -->
<g id="edge50" class="edge"><title>Node19&#45;&gt;Node8</title>
<path fill="none" stroke="midnightblue" d="M705.549,-471.766C730.285,-477.455 757.879,-483.802 781.374,-489.206"/>
<polygon fill="midnightblue" stroke="midnightblue" points="780.642,-492.629 791.172,-491.46 782.211,-485.807 780.642,-492.629"/>
</g>
<!-- Node19&#45;&gt;Node15 -->
<g id="edge48" class="edge"><title>Node19&#45;&gt;Node15</title>
<path fill="none" stroke="midnightblue" d="M705.549,-440.577C729.879,-435.102 756.974,-429.006 780.214,-423.777"/>
<polygon fill="midnightblue" stroke="midnightblue" points="781.269,-427.127 790.256,-421.517 779.732,-420.298 781.269,-427.127"/>
</g>
<!-- Node20 -->
<g id="node46" class="node"><title>Node20</title>
<a xlink:href="../../d7/d24/class_u_b_setting.html#afe671b284dd9f1e313e6f27df3ecd2a8" target="_top" xlink:title="UBSetting::get">
<polygon fill="white" stroke="black" points="796.5,-445.5 796.5,-466.5 877.5,-466.5 877.5,-445.5 796.5,-445.5"/>
<text text-anchor="middle" x="837" y="-453.5" font-family="Helvetica,sans-Serif" font-size="10.00">UBSetting::get</text>
</a>
</g>
<!-- Node19&#45;&gt;Node20 -->
<g id="edge52" class="edge"><title>Node19&#45;&gt;Node20</title>
<path fill="none" stroke="midnightblue" d="M705.549,-456C731.967,-456 761.645,-456 786.108,-456"/>
<polygon fill="midnightblue" stroke="midnightblue" points="786.248,-459.5 796.248,-456 786.248,-452.5 786.248,-459.5"/>
</g>
<!-- Node21 -->
<g id="node48" class="node"><title>Node21</title>
<a xlink:href="../../db/d66/class_u_b_settings.html#a30f5b15068954099f41c054979593275" target="_top" xlink:title="UBSettings::value">
<polygon fill="white" stroke="black" points="948,-445.5 948,-466.5 1044,-466.5 1044,-445.5 948,-445.5"/>
<text text-anchor="middle" x="996" y="-453.5" font-family="Helvetica,sans-Serif" font-size="10.00">UBSettings::value</text>
</a>
</g>
<!-- Node20&#45;&gt;Node21 -->
<g id="edge54" class="edge"><title>Node20&#45;&gt;Node21</title>
<path fill="none" stroke="midnightblue" d="M877.534,-456C895.789,-456 917.687,-456 937.662,-456"/>
<polygon fill="midnightblue" stroke="midnightblue" points="937.903,-459.5 947.903,-456 937.903,-452.5 937.903,-459.5"/>
</g>
</g>
</svg>
