<?xml version="1.0" encoding="UTF-8" standalone="no"?>
<!DOCTYPE svg PUBLIC "-//W3C//DTD SVG 1.1//EN"
 "http://www.w3.org/Graphics/SVG/1.1/DTD/svg11.dtd">
<!-- Generated by graphviz version 2.26.3 (20100126.1600)
 -->
<!-- Title: WBHistoryTreeModel::rowCount Pages: 1 -->
<svg width="1066pt" height="319pt"
 viewBox="0.00 0.00 1066.00 319.00" xmlns="http://www.w3.org/2000/svg" xmlns:xlink="http://www.w3.org/1999/xlink">
<g id="graph1" class="graph" transform="scale(1 1) rotate(0) translate(4 315)">
<title>WBHistoryTreeModel::rowCount</title>
<polygon fill="white" stroke="white" points="-4,5 -4,-315 1063,-315 1063,5 -4,5"/>
<!-- Node1 -->
<g id="node1" class="node"><title>Node1</title>
<polygon fill="#bfbfbf" stroke="black" points="0,-78 0,-112 110,-112 110,-78 0,-78"/>
<text text-anchor="start" x="8" y="-99" font-family="Helvetica,sans-Serif" font-size="10.00">WBHistoryTreeModel</text>
<text text-anchor="middle" x="55" y="-86" font-family="Helvetica,sans-Serif" font-size="10.00">::rowCount</text>
</g>
<!-- Node2 -->
<g id="node3" class="node"><title>Node2</title>
<a xlink:href="../../d2/de6/class_w_b_history_menu_model.html#a73376f863cf4067e3a023f8ad0bb06dd" target="_top" xlink:title="WBHistoryMenuModel\l::bumpedRows">
<polygon fill="white" stroke="black" points="146.5,-187 146.5,-221 261.5,-221 261.5,-187 146.5,-187"/>
<text text-anchor="start" x="154.5" y="-208" font-family="Helvetica,sans-Serif" font-size="10.00">WBHistoryMenuModel</text>
<text text-anchor="middle" x="204" y="-195" font-family="Helvetica,sans-Serif" font-size="10.00">::bumpedRows</text>
</a>
</g>
<!-- Node1&#45;&gt;Node2 -->
<g id="edge2" class="edge"><title>Node1&#45;&gt;Node2</title>
<path fill="none" stroke="midnightblue" d="M86.5649,-118.091C114.631,-138.623 155.04,-168.184 180.391,-186.729"/>
<polygon fill="midnightblue" stroke="midnightblue" points="88.4187,-115.111 78.2812,-112.031 84.2857,-120.76 88.4187,-115.111"/>
</g>
<!-- Node9 -->
<g id="node23" class="node"><title>Node9</title>
<a xlink:href="../../df/de6/class_w_b_history_tree_model.html#af10a03519546e5217dd49236605a0098" target="_top" xlink:title="WBHistoryTreeModel\l::data">
<polygon fill="white" stroke="black" points="149,-52 149,-86 259,-86 259,-52 149,-52"/>
<text text-anchor="start" x="157" y="-73" font-family="Helvetica,sans-Serif" font-size="10.00">WBHistoryTreeModel</text>
<text text-anchor="middle" x="204" y="-60" font-family="Helvetica,sans-Serif" font-size="10.00">::data</text>
</a>
</g>
<!-- Node1&#45;&gt;Node9 -->
<g id="edge28" class="edge"><title>Node1&#45;&gt;Node9</title>
<path fill="none" stroke="midnightblue" d="M119.937,-83.6688C129.516,-81.9972 139.31,-80.2883 148.67,-78.6549"/>
<polygon fill="midnightblue" stroke="midnightblue" points="119.308,-80.2255 110.059,-85.3924 120.512,-87.1213 119.308,-80.2255"/>
</g>
<!-- Node10 -->
<g id="node25" class="node"><title>Node10</title>
<a xlink:href="../../df/de6/class_w_b_history_tree_model.html#a94096a71669af8bb604d4e12ee113b47" target="_top" xlink:title="WBHistoryTreeModel\l::removeRows">
<polygon fill="white" stroke="black" points="149,-0 149,-34 259,-34 259,-0 149,-0"/>
<text text-anchor="start" x="157" y="-21" font-family="Helvetica,sans-Serif" font-size="10.00">WBHistoryTreeModel</text>
<text text-anchor="middle" x="204" y="-8" font-family="Helvetica,sans-Serif" font-size="10.00">::removeRows</text>
</a>
</g>
<!-- Node1&#45;&gt;Node10 -->
<g id="edge30" class="edge"><title>Node1&#45;&gt;Node10</title>
<path fill="none" stroke="midnightblue" d="M92.0171,-72.7558C108.364,-63.2183 127.934,-52.1832 146,-43 151.902,-39.9998 158.224,-36.9777 164.444,-34.1088"/>
<polygon fill="midnightblue" stroke="midnightblue" points="90.1463,-69.7955 83.2974,-77.879 93.6923,-75.8309 90.1463,-69.7955"/>
</g>
<!-- Node11 -->
<g id="node27" class="node"><title>Node11</title>
<a xlink:href="../../df/de6/class_w_b_history_tree_model.html#a542b024a863331e31103f9ebfd193d45" target="_top" xlink:title="WBHistoryTreeModel\l::mapFromSource">
<polygon fill="white" stroke="black" points="149,-104 149,-138 259,-138 259,-104 149,-104"/>
<text text-anchor="start" x="157" y="-125" font-family="Helvetica,sans-Serif" font-size="10.00">WBHistoryTreeModel</text>
<text text-anchor="middle" x="204" y="-112" font-family="Helvetica,sans-Serif" font-size="10.00">::mapFromSource</text>
</a>
</g>
<!-- Node1&#45;&gt;Node11 -->
<g id="edge32" class="edge"><title>Node1&#45;&gt;Node11</title>
<path fill="none" stroke="midnightblue" d="M119.937,-106.331C129.516,-108.003 139.31,-109.712 148.67,-111.345"/>
<polygon fill="midnightblue" stroke="midnightblue" points="120.512,-102.879 110.059,-104.608 119.308,-109.775 120.512,-102.879"/>
</g>
<!-- Node3 -->
<g id="node5" class="node"><title>Node3</title>
<a xlink:href="../../d2/de6/class_w_b_history_menu_model.html#a75d85c1443b525666ae80b92e3e13cff" target="_top" xlink:title="WBHistoryMenuModel\l::rowCount">
<polygon fill="white" stroke="black" points="790.5,-130 790.5,-164 905.5,-164 905.5,-130 790.5,-130"/>
<text text-anchor="start" x="798.5" y="-151" font-family="Helvetica,sans-Serif" font-size="10.00">WBHistoryMenuModel</text>
<text text-anchor="middle" x="848" y="-138" font-family="Helvetica,sans-Serif" font-size="10.00">::rowCount</text>
</a>
</g>
<!-- Node2&#45;&gt;Node3 -->
<g id="edge4" class="edge"><title>Node2&#45;&gt;Node3</title>
<path fill="none" stroke="midnightblue" d="M271.95,-200.271C321.373,-197.39 389.877,-193.05 450,-188 571.307,-177.811 713.045,-162.358 790.392,-153.623"/>
<polygon fill="midnightblue" stroke="midnightblue" points="271.485,-196.792 261.703,-200.863 271.889,-203.78 271.485,-196.792"/>
</g>
<!-- Node4 -->
<g id="node7" class="node"><title>Node4</title>
<a xlink:href="../../d2/de6/class_w_b_history_menu_model.html#a7227782496c8f45c0d6fac8242f118ac" target="_top" xlink:title="WBHistoryMenuModel\l::parent">
<polygon fill="white" stroke="black" points="942.5,-107 942.5,-141 1057.5,-141 1057.5,-107 942.5,-107"/>
<text text-anchor="start" x="950.5" y="-128" font-family="Helvetica,sans-Serif" font-size="10.00">WBHistoryMenuModel</text>
<text text-anchor="middle" x="1000" y="-115" font-family="Helvetica,sans-Serif" font-size="10.00">::parent</text>
</a>
</g>
<!-- Node2&#45;&gt;Node4 -->
<g id="edge24" class="edge"><title>Node2&#45;&gt;Node4</title>
<path fill="none" stroke="midnightblue" d="M271.323,-222.071C339.52,-238.766 448.305,-261 544,-261 544,-261 544,-261 696,-261 811.49,-261 931.598,-177.799 978.989,-141.074"/>
<polygon fill="midnightblue" stroke="midnightblue" points="272.111,-218.66 261.562,-219.651 270.426,-225.454 272.111,-218.66"/>
</g>
<!-- Node5 -->
<g id="node9" class="node"><title>Node5</title>
<a xlink:href="../../d2/de6/class_w_b_history_menu_model.html#aad8819cb25e3283e30144bf0a5b46768" target="_top" xlink:title="WBHistoryMenuModel\l::mapToSource">
<polygon fill="white" stroke="black" points="316.5,-104 316.5,-138 431.5,-138 431.5,-104 316.5,-104"/>
<text text-anchor="start" x="324.5" y="-125" font-family="Helvetica,sans-Serif" font-size="10.00">WBHistoryMenuModel</text>
<text text-anchor="middle" x="374" y="-112" font-family="Helvetica,sans-Serif" font-size="10.00">::mapToSource</text>
</a>
</g>
<!-- Node2&#45;&gt;Node5 -->
<g id="edge8" class="edge"><title>Node2&#45;&gt;Node5</title>
<path fill="none" stroke="midnightblue" d="M248.494,-182.276C276.788,-168.463 312.896,-150.833 339.112,-138.033"/>
<polygon fill="midnightblue" stroke="midnightblue" points="246.675,-179.27 239.224,-186.802 249.746,-185.56 246.675,-179.27"/>
</g>
<!-- Node7 -->
<g id="node13" class="node"><title>Node7</title>
<a xlink:href="../../d2/de6/class_w_b_history_menu_model.html#abd393feb20688f50da497bed2c9607f4" target="_top" xlink:title="WBHistoryMenuModel\l::index">
<polygon fill="white" stroke="black" points="638.5,-85 638.5,-119 753.5,-119 753.5,-85 638.5,-85"/>
<text text-anchor="start" x="646.5" y="-106" font-family="Helvetica,sans-Serif" font-size="10.00">WBHistoryMenuModel</text>
<text text-anchor="middle" x="696" y="-93" font-family="Helvetica,sans-Serif" font-size="10.00">::index</text>
</a>
</g>
<!-- Node2&#45;&gt;Node7 -->
<g id="edge22" class="edge"><title>Node2&#45;&gt;Node7</title>
<path fill="none" stroke="midnightblue" d="M271.529,-192.827C350.986,-179.283 486.705,-154.906 602,-128 613.79,-125.249 626.326,-122.006 638.273,-118.761"/>
<polygon fill="midnightblue" stroke="midnightblue" points="270.922,-189.38 261.649,-194.504 272.094,-196.281 270.922,-189.38"/>
</g>
<!-- Node8 -->
<g id="node21" class="node"><title>Node8</title>
<a xlink:href="../../d2/d4c/class_w_b_history_menu.html#aabb9b25104062579b378e22480d143c4" target="_top" xlink:title="WBHistoryMenu::prePopulated">
<polygon fill="white" stroke="black" points="298,-289.5 298,-310.5 450,-310.5 450,-289.5 298,-289.5"/>
<text text-anchor="middle" x="374" y="-297.5" font-family="Helvetica,sans-Serif" font-size="10.00">WBHistoryMenu::prePopulated</text>
</a>
</g>
<!-- Node2&#45;&gt;Node8 -->
<g id="edge26" class="edge"><title>Node2&#45;&gt;Node8</title>
<path fill="none" stroke="midnightblue" d="M230.643,-227.913C248.634,-243.07 273.49,-262.166 298,-275 309.075,-280.799 321.756,-285.61 333.545,-289.412"/>
<polygon fill="midnightblue" stroke="midnightblue" points="232.756,-225.114 222.886,-221.263 228.2,-230.429 232.756,-225.114"/>
</g>
<!-- Node3&#45;&gt;Node4 -->
<g id="edge6" class="edge"><title>Node3&#45;&gt;Node4</title>
<path fill="none" stroke="midnightblue" d="M915.786,-136.743C924.624,-135.406 933.611,-134.046 942.263,-132.737"/>
<polygon fill="midnightblue" stroke="midnightblue" points="915.262,-133.282 905.898,-138.239 916.309,-140.203 915.262,-133.282"/>
</g>
<!-- Node5&#45;&gt;Node3 -->
<g id="edge18" class="edge"><title>Node5&#45;&gt;Node3</title>
<path fill="none" stroke="midnightblue" d="M441.548,-125.331C456.202,-126.24 471.619,-127.173 486,-128 593.439,-134.177 718.864,-140.579 790.31,-144.15"/>
<polygon fill="midnightblue" stroke="midnightblue" points="441.745,-121.837 431.546,-124.707 441.309,-128.823 441.745,-121.837"/>
</g>
<!-- Node6 -->
<g id="node11" class="node"><title>Node6</title>
<a xlink:href="../../d2/de6/class_w_b_history_menu_model.html#add1b0a9f0768e67367a019f2339df5a5" target="_top" xlink:title="WBHistoryMenuModel\l::columnCount">
<polygon fill="white" stroke="black" points="486.5,-85 486.5,-119 601.5,-119 601.5,-85 486.5,-85"/>
<text text-anchor="start" x="494.5" y="-106" font-family="Helvetica,sans-Serif" font-size="10.00">WBHistoryMenuModel</text>
<text text-anchor="middle" x="544" y="-93" font-family="Helvetica,sans-Serif" font-size="10.00">::columnCount</text>
</a>
</g>
<!-- Node5&#45;&gt;Node6 -->
<g id="edge10" class="edge"><title>Node5&#45;&gt;Node6</title>
<path fill="none" stroke="midnightblue" d="M441.633,-113.441C456.392,-111.791 471.881,-110.06 486.216,-108.458"/>
<polygon fill="midnightblue" stroke="midnightblue" points="441.104,-109.978 431.554,-114.567 441.881,-116.935 441.104,-109.978"/>
</g>
<!-- Node5&#45;&gt;Node7 -->
<g id="edge20" class="edge"><title>Node5&#45;&gt;Node7</title>
<path fill="none" stroke="midnightblue" d="M415.874,-99.7405C436.435,-90.4663 461.914,-80.6578 486,-76 536.618,-66.2115 550.913,-69.065 602,-76 615.758,-77.8677 630.347,-81.2065 643.823,-84.8823"/>
<polygon fill="midnightblue" stroke="midnightblue" points="414.4,-96.566 406.796,-103.944 417.341,-102.918 414.4,-96.566"/>
</g>
<!-- Node6&#45;&gt;Node7 -->
<g id="edge12" class="edge"><title>Node6&#45;&gt;Node7</title>
<path fill="none" stroke="midnightblue" d="M612.072,-102C620.817,-102 629.704,-102 638.263,-102"/>
<polygon fill="midnightblue" stroke="midnightblue" points="611.898,-98.5001 601.898,-102 611.898,-105.5 611.898,-98.5001"/>
</g>
<!-- Node7&#45;&gt;Node3 -->
<g id="edge14" class="edge"><title>Node7&#45;&gt;Node3</title>
<path fill="none" stroke="midnightblue" d="M763.228,-121.903C772.31,-124.592 781.561,-127.331 790.454,-129.963"/>
<polygon fill="midnightblue" stroke="midnightblue" points="764.047,-118.495 753.465,-119.013 762.06,-125.207 764.047,-118.495"/>
</g>
<!-- Node7&#45;&gt;Node4 -->
<g id="edge16" class="edge"><title>Node7&#45;&gt;Node4</title>
<path fill="none" stroke="midnightblue" d="M763.65,-106.896C817.34,-110.781 891.574,-116.153 942.44,-119.834"/>
<polygon fill="midnightblue" stroke="midnightblue" points="763.764,-103.395 753.537,-106.164 763.259,-110.377 763.764,-103.395"/>
</g>
<!-- Node11&#45;&gt;Node4 -->
<g id="edge36" class="edge"><title>Node11&#45;&gt;Node4</title>
<path fill="none" stroke="midnightblue" d="M258.616,-100.407C339.573,-70.6094 487.89,-19 544,-19 544,-19 544,-19 696,-19 802.37,-19 918.77,-77.1433 971.371,-106.896"/>
<polygon fill="midnightblue" stroke="midnightblue" points="257.255,-97.1783 249.088,-103.927 259.681,-103.744 257.255,-97.1783"/>
</g>
<!-- Node11&#45;&gt;Node5 -->
<g id="edge34" class="edge"><title>Node11&#45;&gt;Node5</title>
<path fill="none" stroke="midnightblue" d="M269.253,-121C284.801,-121 301.281,-121 316.454,-121"/>
<polygon fill="midnightblue" stroke="midnightblue" points="269.194,-117.5 259.194,-121 269.194,-124.5 269.194,-117.5"/>
</g>
</g>
</svg>
