<?xml version="1.0" encoding="UTF-8" standalone="no"?>
<!DOCTYPE svg PUBLIC "-//W3C//DTD SVG 1.1//EN"
 "http://www.w3.org/Graphics/SVG/1.1/DTD/svg11.dtd">
<!-- Generated by graphviz version 2.26.3 (20100126.1600)
 -->
<!-- Title: UBGraphicsTextItemDelegate::customize Pages: 1 -->
<svg width="524pt" height="42pt"
 viewBox="0.00 0.00 524.00 42.00" xmlns="http://www.w3.org/2000/svg" xmlns:xlink="http://www.w3.org/1999/xlink">
<g id="graph1" class="graph" transform="scale(1 1) rotate(0) translate(4 38)">
<title>UBGraphicsTextItemDelegate::customize</title>
<polygon fill="white" stroke="white" points="-4,5 -4,-38 521,-38 521,5 -4,5"/>
<!-- Node1 -->
<g id="node1" class="node"><title>Node1</title>
<polygon fill="#bfbfbf" stroke="black" points="0,-0 0,-34 148,-34 148,-0 0,-0"/>
<text text-anchor="start" x="8" y="-21" font-family="Helvetica,sans-Serif" font-size="10.00">UBGraphicsTextItemDelegate</text>
<text text-anchor="middle" x="74" y="-8" font-family="Helvetica,sans-Serif" font-size="10.00">::customize</text>
</g>
<!-- Node2 -->
<g id="node3" class="node"><title>Node2</title>
<a xlink:href="../../d9/dbd/class_u_b_graphics_text_item_delegate.html#a292ce49af67835859e297876d3f68602" target="_top" xlink:title="UBGraphicsTextItemDelegate\l::pickFont">
<polygon fill="white" stroke="black" points="184,-0 184,-34 332,-34 332,-0 184,-0"/>
<text text-anchor="start" x="192" y="-21" font-family="Helvetica,sans-Serif" font-size="10.00">UBGraphicsTextItemDelegate</text>
<text text-anchor="middle" x="258" y="-8" font-family="Helvetica,sans-Serif" font-size="10.00">::pickFont</text>
</a>
</g>
<!-- Node1&#45;&gt;Node2 -->
<g id="edge2" class="edge"><title>Node1&#45;&gt;Node2</title>
<path fill="none" stroke="midnightblue" d="M158.066,-17C166.654,-17 175.336,-17 183.808,-17"/>
<polygon fill="midnightblue" stroke="midnightblue" points="158.045,-13.5001 148.044,-17 158.044,-20.5001 158.045,-13.5001"/>
</g>
<!-- Node3 -->
<g id="node5" class="node"><title>Node3</title>
<a xlink:href="../../d9/dbd/class_u_b_graphics_text_item_delegate.html#aed68d84ee8c86411f7b9197a4220e18f" target="_top" xlink:title="UBGraphicsTextItemDelegate\l::buildButtons">
<polygon fill="white" stroke="black" points="368,-0 368,-34 516,-34 516,-0 368,-0"/>
<text text-anchor="start" x="376" y="-21" font-family="Helvetica,sans-Serif" font-size="10.00">UBGraphicsTextItemDelegate</text>
<text text-anchor="middle" x="442" y="-8" font-family="Helvetica,sans-Serif" font-size="10.00">::buildButtons</text>
</a>
</g>
<!-- Node2&#45;&gt;Node3 -->
<g id="edge4" class="edge"><title>Node2&#45;&gt;Node3</title>
<path fill="none" stroke="midnightblue" d="M342.066,-17C350.654,-17 359.336,-17 367.808,-17"/>
<polygon fill="midnightblue" stroke="midnightblue" points="342.045,-13.5001 332.044,-17 342.044,-20.5001 342.045,-13.5001"/>
</g>
</g>
</svg>
