<?xml version="1.0" encoding="UTF-8" standalone="no"?>
<!DOCTYPE svg PUBLIC "-//W3C//DTD SVG 1.1//EN"
 "http://www.w3.org/Graphics/SVG/1.1/DTD/svg11.dtd">
<!-- Generated by graphviz version 2.26.3 (20100126.1600)
 -->
<!-- Title: UBQuickTimeFile::createVideoMedia Pages: 1 -->
<svg width="328pt" height="42pt"
 viewBox="0.00 0.00 328.00 42.00" xmlns="http://www.w3.org/2000/svg" xmlns:xlink="http://www.w3.org/1999/xlink">
<g id="graph1" class="graph" transform="scale(1 1) rotate(0) translate(4 38)">
<title>UBQuickTimeFile::createVideoMedia</title>
<polygon fill="white" stroke="white" points="-4,5 -4,-38 325,-38 325,5 -4,5"/>
<!-- Node1 -->
<g id="node1" class="node"><title>Node1</title>
<polygon fill="#bfbfbf" stroke="black" points="0,-0 0,-34 152,-34 152,-0 0,-0"/>
<text text-anchor="start" x="8" y="-21" font-family="Helvetica,sans-Serif" font-size="10.00">UBQuickTimeFile::createVideo</text>
<text text-anchor="middle" x="76" y="-8" font-family="Helvetica,sans-Serif" font-size="10.00">Media</text>
</g>
<!-- Node2 -->
<g id="node3" class="node"><title>Node2</title>
<a xlink:href="../../dc/d83/class_u_b_quick_time_file.html#abe29b90893d57ea509e8c50b86acbb95" target="_top" xlink:title="UBQuickTimeFile::setLast\lErrorMessage">
<polygon fill="white" stroke="black" points="188,-0 188,-34 320,-34 320,-0 188,-0"/>
<text text-anchor="start" x="196" y="-21" font-family="Helvetica,sans-Serif" font-size="10.00">UBQuickTimeFile::setLast</text>
<text text-anchor="middle" x="254" y="-8" font-family="Helvetica,sans-Serif" font-size="10.00">ErrorMessage</text>
</a>
</g>
<!-- Node1&#45;&gt;Node2 -->
<g id="edge2" class="edge"><title>Node1&#45;&gt;Node2</title>
<path fill="none" stroke="midnightblue" d="M152.004,-17C160.469,-17 169.093,-17 177.563,-17"/>
<polygon fill="midnightblue" stroke="midnightblue" points="177.796,-20.5001 187.796,-17 177.796,-13.5001 177.796,-20.5001"/>
</g>
</g>
</svg>
