<?xml version="1.0" encoding="UTF-8" standalone="no"?>
<!DOCTYPE svg PUBLIC "-//W3C//DTD SVG 1.1//EN"
 "http://www.w3.org/Graphics/SVG/1.1/DTD/svg11.dtd">
<!-- Generated by graphviz version 2.26.3 (20100126.1600)
 -->
<!-- Title: UBDocumentThumbnailWidget::UBDocumentThumbnailWidget Pages: 1 -->
<svg width="354pt" height="42pt"
 viewBox="0.00 0.00 354.00 42.00" xmlns="http://www.w3.org/2000/svg" xmlns:xlink="http://www.w3.org/1999/xlink">
<g id="graph1" class="graph" transform="scale(1 1) rotate(0) translate(4 38)">
<title>UBDocumentThumbnailWidget::UBDocumentThumbnailWidget</title>
<polygon fill="white" stroke="white" points="-4,5 -4,-38 351,-38 351,5 -4,5"/>
<!-- Node1 -->
<g id="node1" class="node"><title>Node1</title>
<polygon fill="#bfbfbf" stroke="black" points="0,-0 0,-34 158,-34 158,-0 0,-0"/>
<text text-anchor="start" x="8" y="-21" font-family="Helvetica,sans-Serif" font-size="10.00">UBDocumentThumbnailWidget</text>
<text text-anchor="middle" x="79" y="-8" font-family="Helvetica,sans-Serif" font-size="10.00">::UBDocumentThumbnailWidget</text>
</g>
<!-- Node2 -->
<g id="node3" class="node"><title>Node2</title>
<a xlink:href="../../d2/dd6/class_u_b_document_thumbnail_widget.html#a2fd25d4ed58792c13753da476176a569" target="_top" xlink:title="UBDocumentThumbnailWidget\l::autoScroll">
<polygon fill="white" stroke="black" points="194,-0 194,-34 346,-34 346,-0 194,-0"/>
<text text-anchor="start" x="202" y="-21" font-family="Helvetica,sans-Serif" font-size="10.00">UBDocumentThumbnailWidget</text>
<text text-anchor="middle" x="270" y="-8" font-family="Helvetica,sans-Serif" font-size="10.00">::autoScroll</text>
</a>
</g>
<!-- Node1&#45;&gt;Node2 -->
<g id="edge2" class="edge"><title>Node1&#45;&gt;Node2</title>
<path fill="none" stroke="midnightblue" d="M158.066,-17C166.456,-17 175.021,-17 183.491,-17"/>
<polygon fill="midnightblue" stroke="midnightblue" points="183.758,-20.5001 193.758,-17 183.757,-13.5001 183.758,-20.5001"/>
</g>
</g>
</svg>
