<?xml version="1.0" encoding="UTF-8" standalone="no"?>
<!DOCTYPE svg PUBLIC "-//W3C//DTD SVG 1.1//EN"
 "http://www.w3.org/Graphics/SVG/1.1/DTD/svg11.dtd">
<!-- Generated by graphviz version 2.26.3 (20100126.1600)
 -->
<!-- Title: UBDocumentThumbnailWidget::dragMoveEvent Pages: 1 -->
<svg width="1200pt" height="212pt"
 viewBox="0.00 0.00 1200.00 212.00" xmlns="http://www.w3.org/2000/svg" xmlns:xlink="http://www.w3.org/1999/xlink">
<g id="graph1" class="graph" transform="scale(1 1) rotate(0) translate(4 208)">
<title>UBDocumentThumbnailWidget::dragMoveEvent</title>
<polygon fill="white" stroke="white" points="-4,5 -4,-208 1197,-208 1197,5 -4,5"/>
<!-- Node1 -->
<g id="node1" class="node"><title>Node1</title>
<polygon fill="#bfbfbf" stroke="black" points="0,-73 0,-107 152,-107 152,-73 0,-73"/>
<text text-anchor="start" x="8" y="-94" font-family="Helvetica,sans-Serif" font-size="10.00">UBDocumentThumbnailWidget</text>
<text text-anchor="middle" x="76" y="-81" font-family="Helvetica,sans-Serif" font-size="10.00">::dragMoveEvent</text>
</g>
<!-- Node2 -->
<g id="node3" class="node"><title>Node2</title>
<a xlink:href="../../da/dc6/class_u_b_document_container.html#ad573f4f006c0eac302455c6bd20421a7" target="_top" xlink:title="UBDocumentContainer\l::pageFromSceneIndex">
<polygon fill="white" stroke="black" points="188,-125 188,-159 306,-159 306,-125 188,-125"/>
<text text-anchor="start" x="196" y="-146" font-family="Helvetica,sans-Serif" font-size="10.00">UBDocumentContainer</text>
<text text-anchor="middle" x="247" y="-133" font-family="Helvetica,sans-Serif" font-size="10.00">::pageFromSceneIndex</text>
</a>
</g>
<!-- Node1&#45;&gt;Node2 -->
<g id="edge2" class="edge"><title>Node1&#45;&gt;Node2</title>
<path fill="none" stroke="midnightblue" d="M131.992,-107.027C147.64,-111.785 164.792,-117.001 180.963,-121.919"/>
<polygon fill="midnightblue" stroke="midnightblue" points="180.297,-125.374 190.882,-124.935 182.333,-118.677 180.297,-125.374"/>
</g>
<!-- Node13 -->
<g id="node26" class="node"><title>Node13</title>
<a xlink:href="../../d2/d7e/class_u_b_thumbnail_widget.html#a2ab6d6162aac89e9656d63aa358cdd20" target="_top" xlink:title="UBThumbnailWidget:\l:selectedItems">
<polygon fill="white" stroke="black" points="192,-73 192,-107 302,-107 302,-73 192,-73"/>
<text text-anchor="start" x="200" y="-94" font-family="Helvetica,sans-Serif" font-size="10.00">UBThumbnailWidget:</text>
<text text-anchor="middle" x="247" y="-81" font-family="Helvetica,sans-Serif" font-size="10.00">:selectedItems</text>
</a>
</g>
<!-- Node1&#45;&gt;Node13 -->
<g id="edge26" class="edge"><title>Node1&#45;&gt;Node13</title>
<path fill="none" stroke="midnightblue" d="M152.497,-90C162.228,-90 172.115,-90 181.649,-90"/>
<polygon fill="midnightblue" stroke="midnightblue" points="181.83,-93.5001 191.83,-90 181.83,-86.5001 181.83,-93.5001"/>
</g>
<!-- Node17 -->
<g id="node34" class="node"><title>Node17</title>
<a xlink:href="../../d2/d7e/class_u_b_thumbnail_widget.html#af4e84c1474f32521f8b2470db69fb620" target="_top" xlink:title="UBThumbnailWidget:\l:spacing">
<polygon fill="white" stroke="black" points="192,-21 192,-55 302,-55 302,-21 192,-21"/>
<text text-anchor="start" x="200" y="-42" font-family="Helvetica,sans-Serif" font-size="10.00">UBThumbnailWidget:</text>
<text text-anchor="middle" x="247" y="-29" font-family="Helvetica,sans-Serif" font-size="10.00">:spacing</text>
</a>
</g>
<!-- Node1&#45;&gt;Node17 -->
<g id="edge34" class="edge"><title>Node1&#45;&gt;Node17</title>
<path fill="none" stroke="midnightblue" d="M131.992,-72.9733C148.032,-68.0955 165.652,-62.7374 182.176,-57.7126"/>
<polygon fill="midnightblue" stroke="midnightblue" points="183.209,-61.0568 191.758,-54.7988 181.172,-54.3596 183.209,-61.0568"/>
</g>
<!-- Node3 -->
<g id="node5" class="node"><title>Node3</title>
<a xlink:href="../../db/d66/class_u_b_settings.html#a0d8ed418921c2b2d37851faeae00715d" target="_top" xlink:title="UBSettings::settings">
<polygon fill="white" stroke="black" points="343.5,-131.5 343.5,-152.5 450.5,-152.5 450.5,-131.5 343.5,-131.5"/>
<text text-anchor="middle" x="397" y="-139.5" font-family="Helvetica,sans-Serif" font-size="10.00">UBSettings::settings</text>
</a>
</g>
<!-- Node2&#45;&gt;Node3 -->
<g id="edge4" class="edge"><title>Node2&#45;&gt;Node3</title>
<path fill="none" stroke="midnightblue" d="M306.284,-142C314.995,-142 324.002,-142 332.806,-142"/>
<polygon fill="midnightblue" stroke="midnightblue" points="333.019,-145.5 343.019,-142 333.019,-138.5 333.019,-145.5"/>
</g>
<!-- Node4 -->
<g id="node7" class="node"><title>Node4</title>
<a xlink:href="../../db/d66/class_u_b_settings.html#ad703e9b5a7efdb68b9c6ecef0df7cce2" target="_top" xlink:title="UBSettings::UBSettings">
<polygon fill="white" stroke="black" points="488.5,-131.5 488.5,-152.5 611.5,-152.5 611.5,-131.5 488.5,-131.5"/>
<text text-anchor="middle" x="550" y="-139.5" font-family="Helvetica,sans-Serif" font-size="10.00">UBSettings::UBSettings</text>
</a>
</g>
<!-- Node3&#45;&gt;Node4 -->
<g id="edge6" class="edge"><title>Node3&#45;&gt;Node4</title>
<path fill="none" stroke="midnightblue" d="M450.512,-142C459.498,-142 468.951,-142 478.308,-142"/>
<polygon fill="midnightblue" stroke="midnightblue" points="478.396,-145.5 488.396,-142 478.396,-138.5 478.396,-145.5"/>
</g>
<!-- Node5 -->
<g id="node9" class="node"><title>Node5</title>
<a xlink:href="../../db/d66/class_u_b_settings.html#afd0d739b2cfac7e2d05be7415f6692df" target="_top" xlink:title="UBSettings::InitKeyboard\lPaletteKeyBtnSizes">
<polygon fill="white" stroke="black" points="660,-170 660,-204 788,-204 788,-170 660,-170"/>
<text text-anchor="start" x="668" y="-191" font-family="Helvetica,sans-Serif" font-size="10.00">UBSettings::InitKeyboard</text>
<text text-anchor="middle" x="724" y="-178" font-family="Helvetica,sans-Serif" font-size="10.00">PaletteKeyBtnSizes</text>
</a>
</g>
<!-- Node4&#45;&gt;Node5 -->
<g id="edge8" class="edge"><title>Node4&#45;&gt;Node5</title>
<path fill="none" stroke="midnightblue" d="M590.795,-152.551C608.491,-157.127 629.78,-162.633 650.094,-167.886"/>
<polygon fill="midnightblue" stroke="midnightblue" points="649.411,-171.325 659.968,-170.44 651.163,-164.548 649.411,-171.325"/>
</g>
<!-- Node6 -->
<g id="node11" class="node"><title>Node6</title>
<a xlink:href="../../db/d66/class_u_b_settings.html#a2d3413f8b25d64a698d6d83e0f18ff39" target="_top" xlink:title="UBSettings::getAppSettings">
<polygon fill="white" stroke="black" points="838,-132.5 838,-153.5 978,-153.5 978,-132.5 838,-132.5"/>
<text text-anchor="middle" x="908" y="-140.5" font-family="Helvetica,sans-Serif" font-size="10.00">UBSettings::getAppSettings</text>
</a>
</g>
<!-- Node4&#45;&gt;Node6 -->
<g id="edge10" class="edge"><title>Node4&#45;&gt;Node6</title>
<path fill="none" stroke="midnightblue" d="M611.542,-142.172C671.223,-142.339 762.094,-142.592 827.493,-142.775"/>
<polygon fill="midnightblue" stroke="midnightblue" points="827.752,-146.276 837.762,-142.804 827.772,-139.276 827.752,-146.276"/>
</g>
<!-- Node8 -->
<g id="node15" class="node"><title>Node8</title>
<a xlink:href="../../db/d66/class_u_b_settings.html#af38d2ad231149df734ca7b5486356500" target="_top" xlink:title="UBSettings::userDataDirectory">
<polygon fill="white" stroke="black" points="648,-92.5 648,-113.5 800,-113.5 800,-92.5 648,-92.5"/>
<text text-anchor="middle" x="724" y="-100.5" font-family="Helvetica,sans-Serif" font-size="10.00">UBSettings::userDataDirectory</text>
</a>
</g>
<!-- Node4&#45;&gt;Node8 -->
<g id="edge14" class="edge"><title>Node4&#45;&gt;Node8</title>
<path fill="none" stroke="midnightblue" d="M597.087,-131.446C618.654,-126.612 644.4,-120.841 667.048,-115.765"/>
<polygon fill="midnightblue" stroke="midnightblue" points="667.883,-119.165 676.875,-113.562 666.352,-112.334 667.883,-119.165"/>
</g>
<!-- Node7 -->
<g id="node13" class="node"><title>Node7</title>
<a xlink:href="../../d4/d99/class_u_b_platform_utils.html#ae595b29e794b20564550fd45515fc0a8" target="_top" xlink:title="UBPlatformUtils::application\lResourcesDirectory">
<polygon fill="white" stroke="black" points="1034,-129 1034,-163 1174,-163 1174,-129 1034,-129"/>
<text text-anchor="start" x="1042" y="-150" font-family="Helvetica,sans-Serif" font-size="10.00">UBPlatformUtils::application</text>
<text text-anchor="middle" x="1104" y="-137" font-family="Helvetica,sans-Serif" font-size="10.00">ResourcesDirectory</text>
</a>
</g>
<!-- Node6&#45;&gt;Node7 -->
<g id="edge12" class="edge"><title>Node6&#45;&gt;Node7</title>
<path fill="none" stroke="midnightblue" d="M978.207,-144.075C992.933,-144.3 1008.57,-144.539 1023.64,-144.77"/>
<polygon fill="midnightblue" stroke="midnightblue" points="1023.9,-148.274 1033.95,-144.928 1024.01,-141.275 1023.9,-148.274"/>
</g>
<!-- Node8&#45;&gt;Node6 -->
<g id="edge16" class="edge"><title>Node8&#45;&gt;Node6</title>
<path fill="none" stroke="midnightblue" d="M772.344,-113.51C796.02,-118.657 824.719,-124.895 849.611,-130.307"/>
<polygon fill="midnightblue" stroke="midnightblue" points="849.145,-133.787 859.66,-132.491 850.632,-126.947 849.145,-133.787"/>
</g>
<!-- Node9 -->
<g id="node18" class="node"><title>Node9</title>
<a xlink:href="../../db/d66/class_u_b_settings.html#aea5fec9db96c03162c2ce1d5d4c41ab0" target="_top" xlink:title="UBSettings::replaceWildcard">
<polygon fill="white" stroke="black" points="836.5,-92.5 836.5,-113.5 979.5,-113.5 979.5,-92.5 836.5,-92.5"/>
<text text-anchor="middle" x="908" y="-100.5" font-family="Helvetica,sans-Serif" font-size="10.00">UBSettings::replaceWildcard</text>
</a>
</g>
<!-- Node8&#45;&gt;Node9 -->
<g id="edge18" class="edge"><title>Node8&#45;&gt;Node9</title>
<path fill="none" stroke="midnightblue" d="M800.168,-103C808.766,-103 817.555,-103 826.221,-103"/>
<polygon fill="midnightblue" stroke="midnightblue" points="826.319,-106.5 836.319,-103 826.319,-99.5001 826.319,-106.5"/>
</g>
<!-- Node11 -->
<g id="node22" class="node"><title>Node11</title>
<a xlink:href="../../db/d66/class_u_b_settings.html#ac0b3c85870c353e48b7d2cfdff9e0eaa" target="_top" xlink:title="UBSettings::checkDirectory">
<polygon fill="white" stroke="black" points="838.5,-52.5 838.5,-73.5 977.5,-73.5 977.5,-52.5 838.5,-52.5"/>
<text text-anchor="middle" x="908" y="-60.5" font-family="Helvetica,sans-Serif" font-size="10.00">UBSettings::checkDirectory</text>
</a>
</g>
<!-- Node8&#45;&gt;Node11 -->
<g id="edge22" class="edge"><title>Node8&#45;&gt;Node11</title>
<path fill="none" stroke="midnightblue" d="M772.344,-92.4905C796.02,-87.3434 824.719,-81.1046 849.611,-75.6933"/>
<polygon fill="midnightblue" stroke="midnightblue" points="850.632,-79.0532 859.66,-73.5087 849.145,-72.213 850.632,-79.0532"/>
</g>
<!-- Node12 -->
<g id="node24" class="node"><title>Node12</title>
<a xlink:href="../../d2/d7a/class_u_b_file_system_utils.html#af850f64fdd630fc78510c856f00ffa4f" target="_top" xlink:title="UBFileSystemUtils:\l:normalizeFilePath">
<polygon fill="white" stroke="black" points="856,-0 856,-34 960,-34 960,-0 856,-0"/>
<text text-anchor="start" x="864" y="-21" font-family="Helvetica,sans-Serif" font-size="10.00">UBFileSystemUtils:</text>
<text text-anchor="middle" x="908" y="-8" font-family="Helvetica,sans-Serif" font-size="10.00">:normalizeFilePath</text>
</a>
</g>
<!-- Node8&#45;&gt;Node12 -->
<g id="edge24" class="edge"><title>Node8&#45;&gt;Node12</title>
<path fill="none" stroke="midnightblue" d="M741.83,-92.4031C763.596,-79.7134 801.746,-58.2628 836,-43 839.892,-41.2657 843.939,-39.558 848.04,-37.8974"/>
<polygon fill="midnightblue" stroke="midnightblue" points="849.634,-41.0316 857.662,-34.1179 847.075,-34.5162 849.634,-41.0316"/>
</g>
<!-- Node10 -->
<g id="node20" class="node"><title>Node10</title>
<a xlink:href="../../d4/d99/class_u_b_platform_utils.html#a4ff6063df12b6d4d0c60c1a17b434599" target="_top" xlink:title="UBPlatformUtils::osUserLoginName">
<polygon fill="white" stroke="black" points="1016.5,-89.5 1016.5,-110.5 1191.5,-110.5 1191.5,-89.5 1016.5,-89.5"/>
<text text-anchor="middle" x="1104" y="-97.5" font-family="Helvetica,sans-Serif" font-size="10.00">UBPlatformUtils::osUserLoginName</text>
</a>
</g>
<!-- Node9&#45;&gt;Node10 -->
<g id="edge20" class="edge"><title>Node9&#45;&gt;Node10</title>
<path fill="none" stroke="midnightblue" d="M979.592,-101.904C988.253,-101.772 997.211,-101.635 1006.17,-101.497"/>
<polygon fill="midnightblue" stroke="midnightblue" points="1006.32,-104.996 1016.26,-101.343 1006.21,-97.9965 1006.32,-104.996"/>
</g>
<!-- Node14 -->
<g id="node28" class="node"><title>Node14</title>
<a xlink:href="../../d2/d7e/class_u_b_thumbnail_widget.html#a516ae146acd6083f74f117a78883130f" target="_top" xlink:title="UBThumbnailWidget:\l:thumbnailLessThan">
<polygon fill="white" stroke="black" points="342,-73 342,-107 452,-107 452,-73 342,-73"/>
<text text-anchor="start" x="350" y="-94" font-family="Helvetica,sans-Serif" font-size="10.00">UBThumbnailWidget:</text>
<text text-anchor="middle" x="397" y="-81" font-family="Helvetica,sans-Serif" font-size="10.00">:thumbnailLessThan</text>
</a>
</g>
<!-- Node13&#45;&gt;Node14 -->
<g id="edge28" class="edge"><title>Node13&#45;&gt;Node14</title>
<path fill="none" stroke="midnightblue" d="M302.003,-90C311.621,-90 321.714,-90 331.581,-90"/>
<polygon fill="midnightblue" stroke="midnightblue" points="331.753,-93.5001 341.753,-90 331.753,-86.5001 331.753,-93.5001"/>
</g>
<!-- Node15 -->
<g id="node30" class="node"><title>Node15</title>
<a xlink:href="../../de/d65/class_u_b_thumbnail.html#a84ed4fea9e8596864ea91e44ef2b554c" target="_top" xlink:title="UBThumbnail::row">
<polygon fill="white" stroke="black" points="501,-85.5 501,-106.5 599,-106.5 599,-85.5 501,-85.5"/>
<text text-anchor="middle" x="550" y="-93.5" font-family="Helvetica,sans-Serif" font-size="10.00">UBThumbnail::row</text>
</a>
</g>
<!-- Node14&#45;&gt;Node15 -->
<g id="edge30" class="edge"><title>Node14&#45;&gt;Node15</title>
<path fill="none" stroke="midnightblue" d="M452.237,-92.1661C464.799,-92.6588 478.193,-93.184 490.908,-93.6827"/>
<polygon fill="midnightblue" stroke="midnightblue" points="490.803,-97.1811 500.932,-94.0758 491.077,-90.1865 490.803,-97.1811"/>
</g>
<!-- Node16 -->
<g id="node32" class="node"><title>Node16</title>
<a xlink:href="../../de/d65/class_u_b_thumbnail.html#a951ab00bd0f500a4b7ee908de1f14504" target="_top" xlink:title="UBThumbnail::column">
<polygon fill="white" stroke="black" points="493.5,-45.5 493.5,-66.5 606.5,-66.5 606.5,-45.5 493.5,-45.5"/>
<text text-anchor="middle" x="550" y="-53.5" font-family="Helvetica,sans-Serif" font-size="10.00">UBThumbnail::column</text>
</a>
</g>
<!-- Node14&#45;&gt;Node16 -->
<g id="edge32" class="edge"><title>Node14&#45;&gt;Node16</title>
<path fill="none" stroke="midnightblue" d="M452.237,-77.7252C465.333,-74.815 479.332,-71.704 492.525,-68.7722"/>
<polygon fill="midnightblue" stroke="midnightblue" points="493.426,-72.1575 502.429,-66.5714 491.907,-65.3242 493.426,-72.1575"/>
</g>
</g>
</svg>
