<?xml version="1.0" encoding="UTF-8" standalone="no"?>
<!DOCTYPE svg PUBLIC "-//W3C//DTD SVG 1.1//EN"
 "http://www.w3.org/Graphics/SVG/1.1/DTD/svg11.dtd">
<!-- Generated by graphviz version 2.26.3 (20100126.1600)
 -->
<!-- Title: RunLengthDecode.h Pages: 1 -->
<svg width="198pt" height="88pt"
 viewBox="0.00 0.00 198.00 88.00" xmlns="http://www.w3.org/2000/svg" xmlns:xlink="http://www.w3.org/1999/xlink">
<g id="graph1" class="graph" transform="scale(1 1) rotate(0) translate(4 84)">
<title>RunLengthDecode.h</title>
<polygon fill="white" stroke="white" points="-4,5 -4,-84 195,-84 195,5 -4,5"/>
<!-- Node1 -->
<g id="node1" class="node"><title>Node1</title>
<polygon fill="#bfbfbf" stroke="black" points="27,-58.5 27,-79.5 133,-79.5 133,-58.5 27,-58.5"/>
<text text-anchor="middle" x="80" y="-66.5" font-family="Helvetica,sans-Serif" font-size="10.00">RunLengthDecode.h</text>
</g>
<!-- Node2 -->
<g id="node3" class="node"><title>Node2</title>
<a xlink:href="../../d0/dc1/_filter_8cpp.html" target="_top" xlink:title="Filter.cpp">
<polygon fill="white" stroke="black" points="-0.5,-0.5 -0.5,-21.5 56.5,-21.5 56.5,-0.5 -0.5,-0.5"/>
<text text-anchor="middle" x="28" y="-8.5" font-family="Helvetica,sans-Serif" font-size="10.00">Filter.cpp</text>
</a>
</g>
<!-- Node1&#45;&gt;Node2 -->
<g id="edge2" class="edge"><title>Node1&#45;&gt;Node2</title>
<path fill="none" stroke="midnightblue" d="M63.7096,-50.8299C55.0829,-41.2078 44.7908,-29.7282 37.4771,-21.5707"/>
<polygon fill="midnightblue" stroke="midnightblue" points="61.1809,-53.2526 70.4624,-58.3619 66.3929,-48.5798 61.1809,-53.2526"/>
</g>
<!-- Node3 -->
<g id="node5" class="node"><title>Node3</title>
<a xlink:href="../../d6/dbe/_run_length_decode_8cpp.html" target="_top" xlink:title="RunLengthDecode.cpp">
<polygon fill="white" stroke="black" points="74,-0.5 74,-21.5 190,-21.5 190,-0.5 74,-0.5"/>
<text text-anchor="middle" x="132" y="-8.5" font-family="Helvetica,sans-Serif" font-size="10.00">RunLengthDecode.cpp</text>
</a>
</g>
<!-- Node1&#45;&gt;Node3 -->
<g id="edge4" class="edge"><title>Node1&#45;&gt;Node3</title>
<path fill="none" stroke="midnightblue" d="M96.2904,-50.8299C104.917,-41.2078 115.209,-29.7282 122.523,-21.5707"/>
<polygon fill="midnightblue" stroke="midnightblue" points="93.6071,-48.5798 89.5376,-58.3619 98.8191,-53.2526 93.6071,-48.5798"/>
</g>
</g>
</svg>
