<?xml version="1.0" encoding="UTF-8" standalone="no"?>
<!DOCTYPE svg PUBLIC "-//W3C//DTD SVG 1.1//EN"
 "http://www.w3.org/Graphics/SVG/1.1/DTD/svg11.dtd">
<!-- Generated by graphviz version 2.26.3 (20100126.1600)
 -->
<!-- Title: UBWaveRecorder.h Pages: 1 -->
<svg width="138pt" height="88pt"
 viewBox="0.00 0.00 138.00 88.00" xmlns="http://www.w3.org/2000/svg" xmlns:xlink="http://www.w3.org/1999/xlink">
<g id="graph1" class="graph" transform="scale(1 1) rotate(0) translate(4 84)">
<title>UBWaveRecorder.h</title>
<polygon fill="white" stroke="white" points="-4,5 -4,-84 135,-84 135,5 -4,5"/>
<!-- Node1 -->
<g id="node1" class="node"><title>Node1</title>
<polygon fill="#bfbfbf" stroke="black" points="9,-58.5 9,-79.5 113,-79.5 113,-58.5 9,-58.5"/>
<text text-anchor="middle" x="61" y="-66.5" font-family="Helvetica,sans-Serif" font-size="10.00">UBWaveRecorder.h</text>
</g>
<!-- Node2 -->
<g id="node3" class="node"><title>Node2</title>
<polygon fill="white" stroke="#bfbfbf" points="0,-0.5 0,-21.5 48,-21.5 48,-0.5 0,-0.5"/>
<text text-anchor="middle" x="24" y="-8.5" font-family="Helvetica,sans-Serif" font-size="10.00">QtCore</text>
</g>
<!-- Node1&#45;&gt;Node2 -->
<g id="edge2" class="edge"><title>Node1&#45;&gt;Node2</title>
<path fill="none" stroke="midnightblue" d="M54.2136,-58.3619C49.2066,-50.5131 42.255,-39.6159 36.2819,-30.2527"/>
<polygon fill="midnightblue" stroke="midnightblue" points="39.0723,-28.1189 30.7433,-21.5707 33.1708,-31.8837 39.0723,-28.1189"/>
</g>
<!-- Node3 -->
<g id="node5" class="node"><title>Node3</title>
<polygon fill="white" stroke="#bfbfbf" points="65.5,-0.5 65.5,-21.5 130.5,-21.5 130.5,-0.5 65.5,-0.5"/>
<text text-anchor="middle" x="98" y="-8.5" font-family="Helvetica,sans-Serif" font-size="10.00">Windows.h</text>
</g>
<!-- Node1&#45;&gt;Node3 -->
<g id="edge4" class="edge"><title>Node1&#45;&gt;Node3</title>
<path fill="none" stroke="midnightblue" d="M67.7864,-58.3619C72.7934,-50.5131 79.745,-39.6159 85.7181,-30.2527"/>
<polygon fill="midnightblue" stroke="midnightblue" points="88.8292,-31.8837 91.2567,-21.5707 82.9277,-28.1189 88.8292,-31.8837"/>
</g>
</g>
</svg>
