<?xml version="1.0" encoding="UTF-8" standalone="no"?>
<!DOCTYPE svg PUBLIC "-//W3C//DTD SVG 1.1//EN"
 "http://www.w3.org/Graphics/SVG/1.1/DTD/svg11.dtd">
<!-- Generated by graphviz version 2.26.3 (20100126.1600)
 -->
<!-- Title: UBGraphicsCompass::needlePosition Pages: 1 -->
<svg width="580pt" height="135pt"
 viewBox="0.00 0.00 580.00 134.80" xmlns="http://www.w3.org/2000/svg" xmlns:xlink="http://www.w3.org/1999/xlink">
<g id="graph1" class="graph" transform="scale(1 1) rotate(0) translate(4 130.797)">
<title>UBGraphicsCompass::needlePosition</title>
<polygon fill="white" stroke="white" points="-4,5 -4,-130.797 577,-130.797 577,5 -4,5"/>
<!-- Node1 -->
<g id="node1" class="node"><title>Node1</title>
<polygon fill="#bfbfbf" stroke="black" points="0.5,-64 0.5,-98 115.5,-98 115.5,-64 0.5,-64"/>
<text text-anchor="start" x="8.5" y="-85" font-family="Helvetica,sans-Serif" font-size="10.00">UBGraphicsCompass:</text>
<text text-anchor="middle" x="58" y="-72" font-family="Helvetica,sans-Serif" font-size="10.00">:needlePosition</text>
</g>
<!-- Node2 -->
<g id="node3" class="node"><title>Node2</title>
<a xlink:href="../../d6/d56/class_u_b_graphics_compass.html#a524de67b4d3b7dcdfc98ba061038cd14" target="_top" xlink:title="UBGraphicsCompass:\l:mouseMoveEvent">
<polygon fill="white" stroke="black" points="456.5,-79 456.5,-113 571.5,-113 571.5,-79 456.5,-79"/>
<text text-anchor="start" x="464.5" y="-100" font-family="Helvetica,sans-Serif" font-size="10.00">UBGraphicsCompass:</text>
<text text-anchor="middle" x="514" y="-87" font-family="Helvetica,sans-Serif" font-size="10.00">:mouseMoveEvent</text>
</a>
</g>
<!-- Node1&#45;&gt;Node2 -->
<g id="edge2" class="edge"><title>Node1&#45;&gt;Node2</title>
<path fill="none" stroke="midnightblue" d="M125.739,-98.6944C198.552,-115.374 317.642,-135.895 420,-122 433.758,-120.132 448.347,-116.794 461.823,-113.118"/>
<polygon fill="midnightblue" stroke="midnightblue" points="126.312,-95.2342 115.778,-96.3703 124.721,-102.051 126.312,-95.2342"/>
</g>
<!-- Node3 -->
<g id="node5" class="node"><title>Node3</title>
<a xlink:href="../../d6/d56/class_u_b_graphics_compass.html#ad450891f8664b51126bff39318112dc5" target="_top" xlink:title="UBGraphicsCompass:\l:rotateAroundNeedle">
<polygon fill="white" stroke="black" points="304.5,-79 304.5,-113 419.5,-113 419.5,-79 304.5,-79"/>
<text text-anchor="start" x="312.5" y="-100" font-family="Helvetica,sans-Serif" font-size="10.00">UBGraphicsCompass:</text>
<text text-anchor="middle" x="362" y="-87" font-family="Helvetica,sans-Serif" font-size="10.00">:rotateAroundNeedle</text>
</a>
</g>
<!-- Node1&#45;&gt;Node3 -->
<g id="edge4" class="edge"><title>Node1&#45;&gt;Node3</title>
<path fill="none" stroke="midnightblue" d="M125.65,-84.338C179.34,-86.9871 253.574,-90.6501 304.44,-93.1599"/>
<polygon fill="midnightblue" stroke="midnightblue" points="125.698,-80.8362 115.537,-83.839 125.353,-87.8277 125.698,-80.8362"/>
</g>
<!-- Node4 -->
<g id="node8" class="node"><title>Node4</title>
<a xlink:href="../../d6/d56/class_u_b_graphics_compass.html#a3b221029aa782160327163d7d48b626f" target="_top" xlink:title="UBGraphicsCompass:\l:drawArc">
<polygon fill="white" stroke="black" points="304.5,-27 304.5,-61 419.5,-61 419.5,-27 304.5,-27"/>
<text text-anchor="start" x="312.5" y="-48" font-family="Helvetica,sans-Serif" font-size="10.00">UBGraphicsCompass:</text>
<text text-anchor="middle" x="362" y="-35" font-family="Helvetica,sans-Serif" font-size="10.00">:drawArc</text>
</a>
</g>
<!-- Node1&#45;&gt;Node4 -->
<g id="edge8" class="edge"><title>Node1&#45;&gt;Node4</title>
<path fill="none" stroke="midnightblue" d="M125.65,-72.7662C179.34,-66.2317 253.574,-57.1965 304.44,-51.0057"/>
<polygon fill="midnightblue" stroke="midnightblue" points="125.041,-69.3144 115.537,-73.9971 125.887,-76.2632 125.041,-69.3144"/>
</g>
<!-- Node5 -->
<g id="node11" class="node"><title>Node5</title>
<a xlink:href="../../d6/d56/class_u_b_graphics_compass.html#aacb9f9dd58594c4bee56e5e2876a8709" target="_top" xlink:title="UBGraphicsCompass:\l:paintCenterCross">
<polygon fill="white" stroke="black" points="152.5,-0 152.5,-34 267.5,-34 267.5,-0 152.5,-0"/>
<text text-anchor="start" x="160.5" y="-21" font-family="Helvetica,sans-Serif" font-size="10.00">UBGraphicsCompass:</text>
<text text-anchor="middle" x="210" y="-8" font-family="Helvetica,sans-Serif" font-size="10.00">:paintCenterCross</text>
</a>
</g>
<!-- Node1&#45;&gt;Node5 -->
<g id="edge12" class="edge"><title>Node1&#45;&gt;Node5</title>
<path fill="none" stroke="midnightblue" d="M107.97,-59.96C127.895,-51.5705 150.535,-42.0378 169.418,-34.0871"/>
<polygon fill="midnightblue" stroke="midnightblue" points="106.591,-56.7428 98.7332,-63.8492 109.308,-63.1943 106.591,-56.7428"/>
</g>
<!-- Node3&#45;&gt;Node2 -->
<g id="edge6" class="edge"><title>Node3&#45;&gt;Node2</title>
<path fill="none" stroke="midnightblue" d="M430.072,-96C438.817,-96 447.704,-96 456.263,-96"/>
<polygon fill="midnightblue" stroke="midnightblue" points="429.898,-92.5001 419.898,-96 429.898,-99.5001 429.898,-92.5001"/>
</g>
<!-- Node4&#45;&gt;Node2 -->
<g id="edge10" class="edge"><title>Node4&#45;&gt;Node2</title>
<path fill="none" stroke="midnightblue" d="M421.399,-64.3205C435.528,-69.1545 450.463,-74.2638 464.118,-78.935"/>
<polygon fill="midnightblue" stroke="midnightblue" points="422.365,-60.9521 411.77,-61.0267 420.099,-67.5753 422.365,-60.9521"/>
</g>
<!-- Node5&#45;&gt;Node4 -->
<g id="edge14" class="edge"><title>Node5&#45;&gt;Node4</title>
<path fill="none" stroke="midnightblue" d="M277.786,-29.041C286.624,-30.6108 295.611,-32.2072 304.263,-33.744"/>
<polygon fill="midnightblue" stroke="midnightblue" points="278.356,-25.5875 267.898,-27.2846 277.132,-32.4796 278.356,-25.5875"/>
</g>
</g>
</svg>
