<?xml version="1.0" encoding="UTF-8" standalone="no"?>
<!DOCTYPE svg PUBLIC "-//W3C//DTD SVG 1.1//EN"
 "http://www.w3.org/Graphics/SVG/1.1/DTD/svg11.dtd">
<!-- Generated by graphviz version 2.26.3 (20100126.1600)
 -->
<!-- Title: UBGraphicsRuler::rotateAroundCenter Pages: 1 -->
<svg width="332pt" height="42pt"
 viewBox="0.00 0.00 332.00 42.00" xmlns="http://www.w3.org/2000/svg" xmlns:xlink="http://www.w3.org/1999/xlink">
<g id="graph1" class="graph" transform="scale(1 1) rotate(0) translate(4 38)">
<title>UBGraphicsRuler::rotateAroundCenter</title>
<polygon fill="white" stroke="white" points="-4,5 -4,-38 329,-38 329,5 -4,5"/>
<!-- Node1 -->
<g id="node1" class="node"><title>Node1</title>
<polygon fill="#bfbfbf" stroke="black" points="0.5,-0 0.5,-34 155.5,-34 155.5,-0 0.5,-0"/>
<text text-anchor="start" x="8.5" y="-21" font-family="Helvetica,sans-Serif" font-size="10.00">UBGraphicsRuler::rotateAround</text>
<text text-anchor="middle" x="78" y="-8" font-family="Helvetica,sans-Serif" font-size="10.00">Center</text>
</g>
<!-- Node2 -->
<g id="node3" class="node"><title>Node2</title>
<a xlink:href="../../db/dd7/class_u_b_graphics_ruler.html#ac2162f4d98b12ef60b5a405384c0900a" target="_top" xlink:title="UBGraphicsRuler::rotation\lCenter">
<polygon fill="white" stroke="black" points="192.5,-0 192.5,-34 323.5,-34 323.5,-0 192.5,-0"/>
<text text-anchor="start" x="200.5" y="-21" font-family="Helvetica,sans-Serif" font-size="10.00">UBGraphicsRuler::rotation</text>
<text text-anchor="middle" x="258" y="-8" font-family="Helvetica,sans-Serif" font-size="10.00">Center</text>
</a>
</g>
<!-- Node1&#45;&gt;Node2 -->
<g id="edge2" class="edge"><title>Node1&#45;&gt;Node2</title>
<path fill="none" stroke="midnightblue" d="M155.642,-17C164.464,-17 173.448,-17 182.245,-17"/>
<polygon fill="midnightblue" stroke="midnightblue" points="182.466,-20.5001 192.466,-17 182.466,-13.5001 182.466,-20.5001"/>
</g>
</g>
</svg>
