<?xml version="1.0" encoding="UTF-8" standalone="no"?>
<!DOCTYPE svg PUBLIC "-//W3C//DTD SVG 1.1//EN"
 "http://www.w3.org/Graphics/SVG/1.1/DTD/svg11.dtd">
<!-- Generated by graphviz version 2.26.3 (20100126.1600)
 -->
<!-- Title: UBGraphicsRuler::closeButtonRect Pages: 1 -->
<svg width="380pt" height="146pt"
 viewBox="0.00 0.00 380.00 146.00" xmlns="http://www.w3.org/2000/svg" xmlns:xlink="http://www.w3.org/1999/xlink">
<g id="graph1" class="graph" transform="scale(1 1) rotate(0) translate(4 142)">
<title>UBGraphicsRuler::closeButtonRect</title>
<polygon fill="white" stroke="white" points="-4,5 -4,-142 377,-142 377,5 -4,5"/>
<!-- Node1 -->
<g id="node1" class="node"><title>Node1</title>
<polygon fill="#bfbfbf" stroke="black" points="0,-58.5 0,-79.5 172,-79.5 172,-58.5 0,-58.5"/>
<text text-anchor="middle" x="86" y="-66.5" font-family="Helvetica,sans-Serif" font-size="10.00">UBGraphicsRuler::closeButtonRect</text>
</g>
<!-- Node2 -->
<g id="node3" class="node"><title>Node2</title>
<a xlink:href="../../db/dd7/class_u_b_graphics_ruler.html#ae820116cd0b0d1582b95159dd778b76c" target="_top" xlink:title="UBGraphicsRuler::hoverMove\lEvent">
<polygon fill="white" stroke="black" points="216.5,-104 216.5,-138 363.5,-138 363.5,-104 216.5,-104"/>
<text text-anchor="start" x="224.5" y="-125" font-family="Helvetica,sans-Serif" font-size="10.00">UBGraphicsRuler::hoverMove</text>
<text text-anchor="middle" x="290" y="-112" font-family="Helvetica,sans-Serif" font-size="10.00">Event</text>
</a>
</g>
<!-- Node1&#45;&gt;Node2 -->
<g id="edge2" class="edge"><title>Node1&#45;&gt;Node2</title>
<path fill="none" stroke="midnightblue" d="M137.3,-82.0764C163.294,-88.7024 195.18,-96.8302 223.079,-103.942"/>
<polygon fill="midnightblue" stroke="midnightblue" points="137.837,-78.6015 127.282,-79.523 136.108,-85.3846 137.837,-78.6015"/>
</g>
<!-- Node3 -->
<g id="node5" class="node"><title>Node3</title>
<a xlink:href="../../db/dd7/class_u_b_graphics_ruler.html#a2aa0a697c6f155c22b5487a440b31700" target="_top" xlink:title="UBGraphicsRuler::mouseRelease\lEvent">
<polygon fill="white" stroke="black" points="208,-52 208,-86 372,-86 372,-52 208,-52"/>
<text text-anchor="start" x="216" y="-73" font-family="Helvetica,sans-Serif" font-size="10.00">UBGraphicsRuler::mouseRelease</text>
<text text-anchor="middle" x="290" y="-60" font-family="Helvetica,sans-Serif" font-size="10.00">Event</text>
</a>
</g>
<!-- Node1&#45;&gt;Node3 -->
<g id="edge4" class="edge"><title>Node1&#45;&gt;Node3</title>
<path fill="none" stroke="midnightblue" d="M182.274,-69C190.874,-69 199.528,-69 207.99,-69"/>
<polygon fill="midnightblue" stroke="midnightblue" points="182.219,-65.5001 172.219,-69 182.219,-72.5001 182.219,-65.5001"/>
</g>
<!-- Node4 -->
<g id="node7" class="node"><title>Node4</title>
<a xlink:href="../../db/dd7/class_u_b_graphics_ruler.html#ab92e30dce1a9c167ff52545610fb6edf" target="_top" xlink:title="UBGraphicsRuler::hoverEnter\lEvent">
<polygon fill="white" stroke="black" points="217,-0 217,-34 363,-34 363,-0 217,-0"/>
<text text-anchor="start" x="225" y="-21" font-family="Helvetica,sans-Serif" font-size="10.00">UBGraphicsRuler::hoverEnter</text>
<text text-anchor="middle" x="290" y="-8" font-family="Helvetica,sans-Serif" font-size="10.00">Event</text>
</a>
</g>
<!-- Node1&#45;&gt;Node4 -->
<g id="edge6" class="edge"><title>Node1&#45;&gt;Node4</title>
<path fill="none" stroke="midnightblue" d="M137.3,-55.9236C163.294,-49.2976 195.18,-41.1698 223.079,-34.0582"/>
<polygon fill="midnightblue" stroke="midnightblue" points="136.108,-52.6154 127.282,-58.477 137.837,-59.3985 136.108,-52.6154"/>
</g>
</g>
</svg>
