<?xml version="1.0" encoding="UTF-8" standalone="no"?>
<!DOCTYPE svg PUBLIC "-//W3C//DTD SVG 1.1//EN"
 "http://www.w3.org/Graphics/SVG/1.1/DTD/svg11.dtd">
<!-- Generated by graphviz version 2.26.3 (20100126.1600)
 -->
<!-- Title: UBGraphicsRuler::mousePressEvent Pages: 1 -->
<svg width="584pt" height="55pt"
 viewBox="0.00 0.00 584.00 55.00" xmlns="http://www.w3.org/2000/svg" xmlns:xlink="http://www.w3.org/1999/xlink">
<g id="graph1" class="graph" transform="scale(1 1) rotate(0) translate(4 51)">
<title>UBGraphicsRuler::mousePressEvent</title>
<polygon fill="white" stroke="white" points="-4,5 -4,-51 581,-51 581,5 -4,5"/>
<!-- Node1 -->
<g id="node1" class="node"><title>Node1</title>
<polygon fill="#bfbfbf" stroke="black" points="0,-13 0,-47 154,-47 154,-13 0,-13"/>
<text text-anchor="start" x="8" y="-34" font-family="Helvetica,sans-Serif" font-size="10.00">UBGraphicsRuler::mousePress</text>
<text text-anchor="middle" x="77" y="-21" font-family="Helvetica,sans-Serif" font-size="10.00">Event</text>
</g>
<!-- Node2 -->
<g id="node3" class="node"><title>Node2</title>
<a xlink:href="../../db/dd7/class_u_b_graphics_ruler.html#ac1b79d2b2a3a7821123813f0529694c4" target="_top" xlink:title="UBGraphicsRuler::resizeButtonRect">
<polygon fill="white" stroke="black" points="400.5,-19.5 400.5,-40.5 575.5,-40.5 575.5,-19.5 400.5,-19.5"/>
<text text-anchor="middle" x="488" y="-27.5" font-family="Helvetica,sans-Serif" font-size="10.00">UBGraphicsRuler::resizeButtonRect</text>
</a>
</g>
<!-- Node1&#45;&gt;Node2 -->
<g id="edge2" class="edge"><title>Node1&#45;&gt;Node2</title>
<path fill="none" stroke="midnightblue" d="M154.197,-30.7741C166.183,-30.8681 178.425,-30.9488 190,-31 267.333,-31.3422 286.667,-31.3118 364,-31 372.525,-30.9656 381.379,-30.918 390.257,-30.8619"/>
<polygon fill="midnightblue" stroke="midnightblue" points="390.298,-34.3618 400.274,-30.7954 390.251,-27.362 390.298,-34.3618"/>
</g>
<!-- Node3 -->
<g id="node5" class="node"><title>Node3</title>
<a xlink:href="../../db/dd7/class_u_b_graphics_ruler.html#a7bda2775d3b854224e354482a0ae0775" target="_top" xlink:title="UBGraphicsRuler::rotateButtonRect">
<polygon fill="white" stroke="black" points="190.5,-0.5 190.5,-21.5 363.5,-21.5 363.5,-0.5 190.5,-0.5"/>
<text text-anchor="middle" x="277" y="-8.5" font-family="Helvetica,sans-Serif" font-size="10.00">UBGraphicsRuler::rotateButtonRect</text>
</a>
</g>
<!-- Node1&#45;&gt;Node3 -->
<g id="edge4" class="edge"><title>Node1&#45;&gt;Node3</title>
<path fill="none" stroke="midnightblue" d="M154.039,-22.6813C162.581,-21.8698 171.359,-21.0359 180.106,-20.205"/>
<polygon fill="midnightblue" stroke="midnightblue" points="180.719,-23.6626 190.343,-19.2324 180.056,-16.694 180.719,-23.6626"/>
</g>
<!-- Node3&#45;&gt;Node2 -->
<g id="edge6" class="edge"><title>Node3&#45;&gt;Node2</title>
<path fill="none" stroke="midnightblue" d="M363.735,-18.8103C372.395,-19.5901 381.229,-20.3856 389.994,-21.1748"/>
<polygon fill="midnightblue" stroke="midnightblue" points="389.963,-24.6861 400.237,-22.0972 390.591,-17.7143 389.963,-24.6861"/>
</g>
</g>
</svg>
