<?xml version="1.0" encoding="UTF-8" standalone="no"?>
<!DOCTYPE svg PUBLIC "-//W3C//DTD SVG 1.1//EN"
 "http://www.w3.org/Graphics/SVG/1.1/DTD/svg11.dtd">
<!-- Generated by graphviz version 2.26.3 (20100126.1600)
 -->
<!-- Title: UBFeaturesWidget::getFeaturesController Pages: 1 -->
<svg width="464pt" height="94pt"
 viewBox="0.00 0.00 464.00 94.00" xmlns="http://www.w3.org/2000/svg" xmlns:xlink="http://www.w3.org/1999/xlink">
<g id="graph1" class="graph" transform="scale(1 1) rotate(0) translate(4 90)">
<title>UBFeaturesWidget::getFeaturesController</title>
<polygon fill="white" stroke="white" points="-4,5 -4,-90 461,-90 461,5 -4,5"/>
<!-- Node1 -->
<g id="node1" class="node"><title>Node1</title>
<polygon fill="#bfbfbf" stroke="black" points="0,-26 0,-60 158,-60 158,-26 0,-26"/>
<text text-anchor="start" x="8" y="-47" font-family="Helvetica,sans-Serif" font-size="10.00">UBFeaturesWidget::getFeatures</text>
<text text-anchor="middle" x="79" y="-34" font-family="Helvetica,sans-Serif" font-size="10.00">Controller</text>
</g>
<!-- Node2 -->
<g id="node3" class="node"><title>Node2</title>
<a xlink:href="../../dd/dc8/class_u_b_feature_properties.html#a6fb900fb691ba01479801333a4df226d" target="_top" xlink:title="UBFeatureProperties\l::onAddToPage">
<polygon fill="white" stroke="black" points="196,-52 196,-86 304,-86 304,-52 196,-52"/>
<text text-anchor="start" x="204" y="-73" font-family="Helvetica,sans-Serif" font-size="10.00">UBFeatureProperties</text>
<text text-anchor="middle" x="250" y="-60" font-family="Helvetica,sans-Serif" font-size="10.00">::onAddToPage</text>
</a>
</g>
<!-- Node1&#45;&gt;Node2 -->
<g id="edge2" class="edge"><title>Node1&#45;&gt;Node2</title>
<path fill="none" stroke="midnightblue" d="M168.517,-56.6108C177.752,-58.0149 186.924,-59.4095 195.601,-60.7288"/>
<polygon fill="midnightblue" stroke="midnightblue" points="168.905,-53.1297 158.493,-55.0866 167.853,-60.0501 168.905,-53.1297"/>
</g>
<!-- Node4 -->
<g id="node7" class="node"><title>Node4</title>
<a xlink:href="../../dd/dc8/class_u_b_feature_properties.html#af183f096cbff2df0da3206b8e71c3525" target="_top" xlink:title="UBFeatureProperties\l::onSetAsBackground">
<polygon fill="white" stroke="black" points="194,-0 194,-34 306,-34 306,-0 194,-0"/>
<text text-anchor="start" x="202" y="-21" font-family="Helvetica,sans-Serif" font-size="10.00">UBFeatureProperties</text>
<text text-anchor="middle" x="250" y="-8" font-family="Helvetica,sans-Serif" font-size="10.00">::onSetAsBackground</text>
</a>
</g>
<!-- Node1&#45;&gt;Node4 -->
<g id="edge6" class="edge"><title>Node1&#45;&gt;Node4</title>
<path fill="none" stroke="midnightblue" d="M168.517,-29.3892C177.053,-28.0913 185.536,-26.8016 193.623,-25.5719"/>
<polygon fill="midnightblue" stroke="midnightblue" points="167.853,-25.9499 158.493,-30.9134 168.905,-32.8703 167.853,-25.9499"/>
</g>
<!-- Node3 -->
<g id="node5" class="node"><title>Node3</title>
<a xlink:href="../../dd/dc8/class_u_b_feature_properties.html#ac62ad70b89370327d9ed3f9f88a68415" target="_top" xlink:title="UBFeatureProperties\l::UBFeatureProperties">
<polygon fill="white" stroke="black" points="342,-26 342,-60 456,-60 456,-26 342,-26"/>
<text text-anchor="start" x="350" y="-47" font-family="Helvetica,sans-Serif" font-size="10.00">UBFeatureProperties</text>
<text text-anchor="middle" x="399" y="-34" font-family="Helvetica,sans-Serif" font-size="10.00">::UBFeatureProperties</text>
</a>
</g>
<!-- Node2&#45;&gt;Node3 -->
<g id="edge4" class="edge"><title>Node2&#45;&gt;Node3</title>
<path fill="none" stroke="midnightblue" d="M314.101,-57.8146C323.316,-56.2066 332.747,-54.5609 341.816,-52.9784"/>
<polygon fill="midnightblue" stroke="midnightblue" points="313.463,-54.3729 304.214,-59.5399 314.667,-61.2687 313.463,-54.3729"/>
</g>
<!-- Node4&#45;&gt;Node3 -->
<g id="edge8" class="edge"><title>Node4&#45;&gt;Node3</title>
<path fill="none" stroke="midnightblue" d="M316.185,-28.5491C324.66,-30.0279 333.28,-31.5321 341.599,-32.9837"/>
<polygon fill="midnightblue" stroke="midnightblue" points="316.783,-25.1007 306.331,-26.8295 315.58,-31.9965 316.783,-25.1007"/>
</g>
</g>
</svg>
