<?xml version="1.0" encoding="UTF-8" standalone="no"?>
<!DOCTYPE svg PUBLIC "-//W3C//DTD SVG 1.1//EN"
 "http://www.w3.org/Graphics/SVG/1.1/DTD/svg11.dtd">
<!-- Generated by graphviz version 2.26.3 (20100126.1600)
 -->
<!-- Title: UBImportImage::placeImportedItemToScene Pages: 1 -->
<svg width="1124pt" height="334pt"
 viewBox="0.00 0.00 1124.00 334.00" xmlns="http://www.w3.org/2000/svg" xmlns:xlink="http://www.w3.org/1999/xlink">
<g id="graph1" class="graph" transform="scale(1 1) rotate(0) translate(4 330)">
<title>UBImportImage::placeImportedItemToScene</title>
<polygon fill="white" stroke="white" points="-4,5 -4,-330 1121,-330 1121,5 -4,5"/>
<!-- Node1 -->
<g id="node1" class="node"><title>Node1</title>
<polygon fill="#bfbfbf" stroke="black" points="0.5,-204 0.5,-238 153.5,-238 153.5,-204 0.5,-204"/>
<text text-anchor="start" x="8.5" y="-225" font-family="Helvetica,sans-Serif" font-size="10.00">UBImportImage::placeImported</text>
<text text-anchor="middle" x="77" y="-212" font-family="Helvetica,sans-Serif" font-size="10.00">ItemToScene</text>
</g>
<!-- Node2 -->
<g id="node3" class="node"><title>Node2</title>
<a xlink:href="../../dc/db2/class_u_b_graphics_scene.html#ab76488f73cd11e58ce91a3b7e2467bf6" target="_top" xlink:title="UBGraphicsScene::addPixmap">
<polygon fill="white" stroke="black" points="205,-252.5 205,-273.5 357,-273.5 357,-252.5 205,-252.5"/>
<text text-anchor="middle" x="281" y="-260.5" font-family="Helvetica,sans-Serif" font-size="10.00">UBGraphicsScene::addPixmap</text>
</a>
</g>
<!-- Node1&#45;&gt;Node2 -->
<g id="edge2" class="edge"><title>Node1&#45;&gt;Node2</title>
<path fill="none" stroke="midnightblue" d="M153.542,-236.759C175.403,-241.26 198.931,-246.103 219.748,-250.389"/>
<polygon fill="midnightblue" stroke="midnightblue" points="219.231,-253.856 229.731,-252.445 220.642,-247 219.231,-253.856"/>
</g>
<!-- Node7 -->
<g id="node13" class="node"><title>Node7</title>
<a xlink:href="../../dc/db2/class_u_b_graphics_scene.html#af73c8ccfbf79c5b00b5195ab3de28328" target="_top" xlink:title="UBGraphicsScene::setAsBackground\lObject">
<polygon fill="white" stroke="black" points="190.5,-162 190.5,-196 371.5,-196 371.5,-162 190.5,-162"/>
<text text-anchor="start" x="198.5" y="-183" font-family="Helvetica,sans-Serif" font-size="10.00">UBGraphicsScene::setAsBackground</text>
<text text-anchor="middle" x="281" y="-170" font-family="Helvetica,sans-Serif" font-size="10.00">Object</text>
</a>
</g>
<!-- Node1&#45;&gt;Node7 -->
<g id="edge12" class="edge"><title>Node1&#45;&gt;Node7</title>
<path fill="none" stroke="midnightblue" d="M153.542,-205.241C164.823,-202.919 176.547,-200.505 188.113,-198.124"/>
<polygon fill="midnightblue" stroke="midnightblue" points="189.133,-201.487 198.222,-196.043 187.721,-194.631 189.133,-201.487"/>
</g>
<!-- Node3 -->
<g id="node5" class="node"><title>Node3</title>
<a xlink:href="../../dc/db2/class_u_b_graphics_scene.html#a546b3015e60c63f2ef0e72fed5e4eb35" target="_top" xlink:title="UBGraphicsScene::addItem">
<polygon fill="white" stroke="black" points="416.5,-252.5 416.5,-273.5 555.5,-273.5 555.5,-252.5 416.5,-252.5"/>
<text text-anchor="middle" x="486" y="-260.5" font-family="Helvetica,sans-Serif" font-size="10.00">UBGraphicsScene::addItem</text>
</a>
</g>
<!-- Node2&#45;&gt;Node3 -->
<g id="edge4" class="edge"><title>Node2&#45;&gt;Node3</title>
<path fill="none" stroke="midnightblue" d="M357.043,-263C372.933,-263 389.734,-263 405.771,-263"/>
<polygon fill="midnightblue" stroke="midnightblue" points="406.182,-266.5 416.182,-263 406.182,-259.5 406.182,-266.5"/>
</g>
<!-- Node6 -->
<g id="node11" class="node"><title>Node6</title>
<a xlink:href="../../d1/d78/class_u_b_graphics_pixmap_item.html#a93680a1e04ba6a40840217d9e380761f" target="_top" xlink:title="UBGraphicsPixmapItem\l::setOpacity">
<polygon fill="white" stroke="black" points="425,-292 425,-326 547,-326 547,-292 425,-292"/>
<text text-anchor="start" x="433" y="-313" font-family="Helvetica,sans-Serif" font-size="10.00">UBGraphicsPixmapItem</text>
<text text-anchor="middle" x="486" y="-300" font-family="Helvetica,sans-Serif" font-size="10.00">::setOpacity</text>
</a>
</g>
<!-- Node2&#45;&gt;Node6 -->
<g id="edge10" class="edge"><title>Node2&#45;&gt;Node6</title>
<path fill="none" stroke="midnightblue" d="M328.031,-273.553C353.726,-279.319 386.077,-286.578 414.8,-293.023"/>
<polygon fill="midnightblue" stroke="midnightblue" points="414.268,-296.491 424.792,-295.265 415.8,-289.661 414.268,-296.491"/>
</g>
<!-- Node4 -->
<g id="node7" class="node"><title>Node4</title>
<a xlink:href="../../d3/dbd/class_u_b_graphics_item.html#af0b4688328f6b7c06e2f8e2ca5f80805" target="_top" xlink:title="UBGraphicsItem::assignZValue">
<polygon fill="white" stroke="black" points="600.5,-168.5 600.5,-189.5 755.5,-189.5 755.5,-168.5 600.5,-168.5"/>
<text text-anchor="middle" x="678" y="-176.5" font-family="Helvetica,sans-Serif" font-size="10.00">UBGraphicsItem::assignZValue</text>
</a>
</g>
<!-- Node3&#45;&gt;Node4 -->
<g id="edge6" class="edge"><title>Node3&#45;&gt;Node4</title>
<path fill="none" stroke="midnightblue" d="M510.317,-252.361C544.364,-237.466 606.358,-210.343 644.679,-193.578"/>
<polygon fill="midnightblue" stroke="midnightblue" points="646.122,-196.767 653.881,-189.552 643.316,-190.354 646.122,-196.767"/>
</g>
<!-- Node5 -->
<g id="node9" class="node"><title>Node5</title>
<a xlink:href="../../d7/dd6/class_u_b_z_layer_controller.html#a2d0d1251e0ad4f984f1dff3051a77e21" target="_top" xlink:title="UBZLayerController\l::generateZLevel">
<polygon fill="white" stroke="black" points="626.5,-226 626.5,-260 729.5,-260 729.5,-226 626.5,-226"/>
<text text-anchor="start" x="634.5" y="-247" font-family="Helvetica,sans-Serif" font-size="10.00">UBZLayerController</text>
<text text-anchor="middle" x="678" y="-234" font-family="Helvetica,sans-Serif" font-size="10.00">::generateZLevel</text>
</a>
</g>
<!-- Node3&#45;&gt;Node5 -->
<g id="edge8" class="edge"><title>Node3&#45;&gt;Node5</title>
<path fill="none" stroke="midnightblue" d="M555.588,-255.751C575.419,-253.686 596.881,-251.45 616.213,-249.436"/>
<polygon fill="midnightblue" stroke="midnightblue" points="616.825,-252.891 626.408,-248.374 616.1,-245.929 616.825,-252.891"/>
</g>
<!-- Node7&#45;&gt;Node3 -->
<g id="edge30" class="edge"><title>Node7&#45;&gt;Node3</title>
<path fill="none" stroke="midnightblue" d="M314.728,-196.073C340.037,-208.538 375.732,-225.39 408,-238 418.343,-242.042 429.635,-245.944 440.333,-249.416"/>
<polygon fill="midnightblue" stroke="midnightblue" points="439.357,-252.778 449.947,-252.475 441.479,-246.108 439.357,-252.778"/>
</g>
<!-- Node7&#45;&gt;Node4 -->
<g id="edge34" class="edge"><title>Node7&#45;&gt;Node4</title>
<path fill="none" stroke="midnightblue" d="M300.874,-161.876C324.546,-142.718 366.168,-112.82 408,-101 474.721,-82.1469 497.764,-80.5089 564,-101 602.023,-112.763 638.66,-142.058 659.726,-161.209"/>
<polygon fill="midnightblue" stroke="midnightblue" points="657.559,-163.973 667.259,-168.234 662.333,-158.854 657.559,-163.973"/>
</g>
<!-- Node7&#45;&gt;Node5 -->
<g id="edge36" class="edge"><title>Node7&#45;&gt;Node5</title>
<path fill="none" stroke="midnightblue" d="M360.459,-196.057C376.181,-199.208 392.586,-202.34 408,-205 479.103,-217.27 561.255,-228.4 616.09,-235.398"/>
<polygon fill="midnightblue" stroke="midnightblue" points="615.981,-238.912 626.342,-236.699 616.862,-231.968 615.981,-238.912"/>
</g>
<!-- Node8 -->
<g id="node15" class="node"><title>Node8</title>
<a xlink:href="../../dc/db2/class_u_b_graphics_scene.html#a769a40e7bebcaf040e391eed5f5d3f56" target="_top" xlink:title="UBGraphicsScene::removeItem">
<polygon fill="white" stroke="black" points="408.5,-32.5 408.5,-53.5 563.5,-53.5 563.5,-32.5 408.5,-32.5"/>
<text text-anchor="middle" x="486" y="-40.5" font-family="Helvetica,sans-Serif" font-size="10.00">UBGraphicsScene::removeItem</text>
</a>
</g>
<!-- Node7&#45;&gt;Node8 -->
<g id="edge14" class="edge"><title>Node7&#45;&gt;Node8</title>
<path fill="none" stroke="midnightblue" d="M296.171,-161.912C318.455,-137.778 362.362,-93.7816 408,-68 415.646,-63.6805 424.143,-59.9901 432.634,-56.8767"/>
<polygon fill="midnightblue" stroke="midnightblue" points="433.851,-60.1597 442.174,-53.604 431.579,-53.5385 433.851,-60.1597"/>
</g>
<!-- Node15 -->
<g id="node29" class="node"><title>Node15</title>
<a xlink:href="../../dc/db2/class_u_b_graphics_scene.html#ad5c308fdec8c2a7656b1caa35ece19e4" target="_top" xlink:title="UBGraphicsScene::scaleTo\lFitDocumentSize">
<polygon fill="white" stroke="black" points="417,-162 417,-196 555,-196 555,-162 417,-162"/>
<text text-anchor="start" x="425" y="-183" font-family="Helvetica,sans-Serif" font-size="10.00">UBGraphicsScene::scaleTo</text>
<text text-anchor="middle" x="486" y="-170" font-family="Helvetica,sans-Serif" font-size="10.00">FitDocumentSize</text>
</a>
</g>
<!-- Node7&#45;&gt;Node15 -->
<g id="edge28" class="edge"><title>Node7&#45;&gt;Node15</title>
<path fill="none" stroke="midnightblue" d="M371.513,-179C383.293,-179 395.287,-179 406.861,-179"/>
<polygon fill="midnightblue" stroke="midnightblue" points="406.909,-182.5 416.909,-179 406.909,-175.5 406.909,-182.5"/>
</g>
<!-- Node16 -->
<g id="node32" class="node"><title>Node16</title>
<a xlink:href="../../d7/dd6/class_u_b_z_layer_controller.html#ad5800f9c85401ba1d5d7a74371170ce5" target="_top" xlink:title="UBZLayerController\l::setLayerType">
<polygon fill="white" stroke="black" points="434.5,-110 434.5,-144 537.5,-144 537.5,-110 434.5,-110"/>
<text text-anchor="start" x="442.5" y="-131" font-family="Helvetica,sans-Serif" font-size="10.00">UBZLayerController</text>
<text text-anchor="middle" x="486" y="-118" font-family="Helvetica,sans-Serif" font-size="10.00">::setLayerType</text>
</a>
</g>
<!-- Node7&#45;&gt;Node16 -->
<g id="edge32" class="edge"><title>Node7&#45;&gt;Node16</title>
<path fill="none" stroke="midnightblue" d="M348.125,-161.973C372.756,-155.725 400.494,-148.689 424.598,-142.575"/>
<polygon fill="midnightblue" stroke="midnightblue" points="425.504,-145.956 434.336,-140.105 423.782,-139.171 425.504,-145.956"/>
</g>
<!-- Node9 -->
<g id="node17" class="node"><title>Node9</title>
<a xlink:href="../../d7/d62/class_u_b_board_controller.html#a3e83388ec403a3bec62277e1b1a0144f" target="_top" xlink:title="UBBoardController:\l:freezeW3CWidget">
<polygon fill="white" stroke="black" points="627.5,-52 627.5,-86 728.5,-86 728.5,-52 627.5,-52"/>
<text text-anchor="start" x="635.5" y="-73" font-family="Helvetica,sans-Serif" font-size="10.00">UBBoardController:</text>
<text text-anchor="middle" x="678" y="-60" font-family="Helvetica,sans-Serif" font-size="10.00">:freezeW3CWidget</text>
</a>
</g>
<!-- Node8&#45;&gt;Node9 -->
<g id="edge16" class="edge"><title>Node8&#45;&gt;Node9</title>
<path fill="none" stroke="midnightblue" d="M563.54,-53.5003C581.381,-55.9162 600.106,-58.4519 617.123,-60.7563"/>
<polygon fill="midnightblue" stroke="midnightblue" points="617.096,-64.2844 627.475,-62.1581 618.035,-57.3477 617.096,-64.2844"/>
</g>
<!-- Node13 -->
<g id="node25" class="node"><title>Node13</title>
<a xlink:href="../../d3/db1/class_u_b_core_graphics_scene.html#aa834de4c7e8874b466bdbccda0ef2053" target="_top" xlink:title="UBCoreGraphicsScene\l::deleteItem">
<polygon fill="white" stroke="black" points="618.5,-0 618.5,-34 737.5,-34 737.5,-0 618.5,-0"/>
<text text-anchor="start" x="626.5" y="-21" font-family="Helvetica,sans-Serif" font-size="10.00">UBCoreGraphicsScene</text>
<text text-anchor="middle" x="678" y="-8" font-family="Helvetica,sans-Serif" font-size="10.00">::deleteItem</text>
</a>
</g>
<!-- Node8&#45;&gt;Node13 -->
<g id="edge24" class="edge"><title>Node8&#45;&gt;Node13</title>
<path fill="none" stroke="midnightblue" d="M563.54,-32.4997C578.423,-30.4844 593.921,-28.3857 608.53,-26.4074"/>
<polygon fill="midnightblue" stroke="midnightblue" points="609.043,-29.87 618.483,-25.0596 608.104,-22.9333 609.043,-29.87"/>
</g>
<!-- Node10 -->
<g id="node19" class="node"><title>Node10</title>
<a xlink:href="../../d7/da7/class_u_b_graphics_w3_c_widget_item.html#adc5e2a6da0f030dbcf3b1fe0b4f1cfd6" target="_top" xlink:title="UBGraphicsW3CWidgetItem\l::freezedWidgetFilePath">
<polygon fill="white" stroke="black" points="794.5,-49 794.5,-83 937.5,-83 937.5,-49 794.5,-49"/>
<text text-anchor="start" x="802.5" y="-70" font-family="Helvetica,sans-Serif" font-size="10.00">UBGraphicsW3CWidgetItem</text>
<text text-anchor="middle" x="866" y="-57" font-family="Helvetica,sans-Serif" font-size="10.00">::freezedWidgetFilePath</text>
</a>
</g>
<!-- Node9&#45;&gt;Node10 -->
<g id="edge18" class="edge"><title>Node9&#45;&gt;Node10</title>
<path fill="none" stroke="midnightblue" d="M728.876,-68.1882C745.928,-67.916 765.399,-67.6053 784.206,-67.3052"/>
<polygon fill="midnightblue" stroke="midnightblue" points="784.321,-70.8039 794.264,-67.1447 784.21,-63.8048 784.321,-70.8039"/>
</g>
<!-- Node12 -->
<g id="node23" class="node"><title>Node12</title>
<a xlink:href="../../d0/d16/class_u_b_graphics_widget_item.html#aadbdbf82a7420d3760df51e7cfdbe1da" target="_top" xlink:title="UBGraphicsWidgetItem\l::loadMainHtml">
<polygon fill="white" stroke="black" points="806,-101 806,-135 926,-135 926,-101 806,-101"/>
<text text-anchor="start" x="814" y="-122" font-family="Helvetica,sans-Serif" font-size="10.00">UBGraphicsWidgetItem</text>
<text text-anchor="middle" x="866" y="-109" font-family="Helvetica,sans-Serif" font-size="10.00">::loadMainHtml</text>
</a>
</g>
<!-- Node9&#45;&gt;Node12 -->
<g id="edge22" class="edge"><title>Node9&#45;&gt;Node12</title>
<path fill="none" stroke="midnightblue" d="M728.876,-82.2601C749.526,-87.6424 773.721,-93.9486 795.991,-99.7531"/>
<polygon fill="midnightblue" stroke="midnightblue" points="795.174,-103.157 805.734,-102.292 796.94,-96.3833 795.174,-103.157"/>
</g>
<!-- Node11 -->
<g id="node21" class="node"><title>Node11</title>
<a xlink:href="../../d4/d99/class_u_b_platform_utils.html#ae595b29e794b20564550fd45515fc0a8" target="_top" xlink:title="UBPlatformUtils::application\lResourcesDirectory">
<polygon fill="white" stroke="black" points="976,-49 976,-83 1116,-83 1116,-49 976,-49"/>
<text text-anchor="start" x="984" y="-70" font-family="Helvetica,sans-Serif" font-size="10.00">UBPlatformUtils::application</text>
<text text-anchor="middle" x="1046" y="-57" font-family="Helvetica,sans-Serif" font-size="10.00">ResourcesDirectory</text>
</a>
</g>
<!-- Node10&#45;&gt;Node11 -->
<g id="edge20" class="edge"><title>Node10&#45;&gt;Node11</title>
<path fill="none" stroke="midnightblue" d="M937.658,-66C946.874,-66 956.357,-66 965.7,-66"/>
<polygon fill="midnightblue" stroke="midnightblue" points="965.763,-69.5001 975.763,-66 965.763,-62.5001 965.763,-69.5001"/>
</g>
<!-- Node14 -->
<g id="node27" class="node"><title>Node14</title>
<a xlink:href="../../d3/dbd/class_u_b_graphics_item.html#a83e8d1b8f4bbbc024a15f645a39d6e49" target="_top" xlink:title="UBGraphicsItem::clearSource">
<polygon fill="white" stroke="black" points="792.5,-6.5 792.5,-27.5 939.5,-27.5 939.5,-6.5 792.5,-6.5"/>
<text text-anchor="middle" x="866" y="-14.5" font-family="Helvetica,sans-Serif" font-size="10.00">UBGraphicsItem::clearSource</text>
</a>
</g>
<!-- Node13&#45;&gt;Node14 -->
<g id="edge26" class="edge"><title>Node13&#45;&gt;Node14</title>
<path fill="none" stroke="midnightblue" d="M737.743,-17C751.807,-17 767.057,-17 781.969,-17"/>
<polygon fill="midnightblue" stroke="midnightblue" points="782.22,-20.5001 792.22,-17 782.22,-13.5001 782.22,-20.5001"/>
</g>
</g>
</svg>
