<?xml version="1.0" encoding="UTF-8" standalone="no"?>
<!DOCTYPE svg PUBLIC "-//W3C//DTD SVG 1.1//EN"
 "http://www.w3.org/Graphics/SVG/1.1/DTD/svg11.dtd">
<!-- Generated by graphviz version 2.26.3 (20100126.1600)
 -->
<!-- Title: UniboardSankoreTransition::rollbackDocumentsTransition Pages: 1 -->
<svg width="506pt" height="42pt"
 viewBox="0.00 0.00 506.00 42.00" xmlns="http://www.w3.org/2000/svg" xmlns:xlink="http://www.w3.org/1999/xlink">
<g id="graph1" class="graph" transform="scale(1 1) rotate(0) translate(4 38)">
<title>UniboardSankoreTransition::rollbackDocumentsTransition</title>
<polygon fill="white" stroke="white" points="-4,5 -4,-38 503,-38 503,5 -4,5"/>
<!-- Node1 -->
<g id="node1" class="node"><title>Node1</title>
<polygon fill="#bfbfbf" stroke="black" points="0.5,-0 0.5,-34 149.5,-34 149.5,-0 0.5,-0"/>
<text text-anchor="start" x="8.5" y="-21" font-family="Helvetica,sans-Serif" font-size="10.00">UniboardSankoreTransition</text>
<text text-anchor="middle" x="75" y="-8" font-family="Helvetica,sans-Serif" font-size="10.00">::rollbackDocumentsTransition</text>
</g>
<!-- Node2 -->
<g id="node3" class="node"><title>Node2</title>
<a xlink:href="../../df/d64/class_uniboard_sankore_transition.html#a9b27fb4acafb20d28b9423bd724cc279" target="_top" xlink:title="UniboardSankoreTransition\l::executeTransition">
<polygon fill="white" stroke="black" points="186,-0 186,-34 320,-34 320,-0 186,-0"/>
<text text-anchor="start" x="194" y="-21" font-family="Helvetica,sans-Serif" font-size="10.00">UniboardSankoreTransition</text>
<text text-anchor="middle" x="253" y="-8" font-family="Helvetica,sans-Serif" font-size="10.00">::executeTransition</text>
</a>
</g>
<!-- Node1&#45;&gt;Node2 -->
<g id="edge2" class="edge"><title>Node1&#45;&gt;Node2</title>
<path fill="none" stroke="midnightblue" d="M159.893,-17C168.602,-17 177.363,-17 185.842,-17"/>
<polygon fill="midnightblue" stroke="midnightblue" points="159.714,-13.5001 149.714,-17 159.714,-20.5001 159.714,-13.5001"/>
</g>
<!-- Node3 -->
<g id="node5" class="node"><title>Node3</title>
<a xlink:href="../../d6/db6/class_uniboard_sankore_thread.html#a83dbf3bdd6076d8ce343326f5e01d725" target="_top" xlink:title="UniboardSankoreThread::run">
<polygon fill="white" stroke="black" points="356.5,-6.5 356.5,-27.5 497.5,-27.5 497.5,-6.5 356.5,-6.5"/>
<text text-anchor="middle" x="427" y="-14.5" font-family="Helvetica,sans-Serif" font-size="10.00">UniboardSankoreThread::run</text>
</a>
</g>
<!-- Node2&#45;&gt;Node3 -->
<g id="edge4" class="edge"><title>Node2&#45;&gt;Node3</title>
<path fill="none" stroke="midnightblue" d="M330.38,-17C339.058,-17 347.865,-17 356.451,-17"/>
<polygon fill="midnightblue" stroke="midnightblue" points="330.273,-13.5001 320.273,-17 330.273,-20.5001 330.273,-13.5001"/>
</g>
</g>
</svg>
