<?xml version="1.0" encoding="UTF-8" standalone="no"?>
<!DOCTYPE svg PUBLIC "-//W3C//DTD SVG 1.1//EN"
 "http://www.w3.org/Graphics/SVG/1.1/DTD/svg11.dtd">
<!-- Generated by graphviz version 2.26.3 (20100126.1600)
 -->
<!-- Title: UBFileSystemUtils::mimeTypeFromString Pages: 1 -->
<svg width="2144pt" height="848pt"
 viewBox="0.00 0.00 2144.00 848.00" xmlns="http://www.w3.org/2000/svg" xmlns:xlink="http://www.w3.org/1999/xlink">
<g id="graph1" class="graph" transform="scale(1 1) rotate(0) translate(4 844)">
<title>UBFileSystemUtils::mimeTypeFromString</title>
<polygon fill="white" stroke="white" points="-4,5 -4,-844 2141,-844 2141,5 -4,5"/>
<!-- Node1 -->
<g id="node1" class="node"><title>Node1</title>
<polygon fill="#bfbfbf" stroke="black" points="0.5,-84 0.5,-118 113.5,-118 113.5,-84 0.5,-84"/>
<text text-anchor="start" x="8.5" y="-105" font-family="Helvetica,sans-Serif" font-size="10.00">UBFileSystemUtils:</text>
<text text-anchor="middle" x="57" y="-92" font-family="Helvetica,sans-Serif" font-size="10.00">:mimeTypeFromString</text>
</g>
<!-- Node2 -->
<g id="node3" class="node"><title>Node2</title>
<a xlink:href="../../d7/d62/class_u_b_board_controller.html#abae2655269e06f72767de71b8513f6be" target="_top" xlink:title="UBBoardController:\l:duplicateItem">
<polygon fill="white" stroke="black" points="184.5,-362 184.5,-396 285.5,-396 285.5,-362 184.5,-362"/>
<text text-anchor="start" x="192.5" y="-383" font-family="Helvetica,sans-Serif" font-size="10.00">UBBoardController:</text>
<text text-anchor="middle" x="235" y="-370" font-family="Helvetica,sans-Serif" font-size="10.00">:duplicateItem</text>
</a>
</g>
<!-- Node1&#45;&gt;Node2 -->
<g id="edge2" class="edge"><title>Node1&#45;&gt;Node2</title>
<path fill="none" stroke="midnightblue" d="M73.6879,-127.063C109.73,-183.354 194.02,-314.998 224.097,-361.971"/>
<polygon fill="midnightblue" stroke="midnightblue" points="76.4746,-124.924 68.1347,-118.39 70.5794,-128.699 76.4746,-124.924"/>
</g>
<!-- Node11 -->
<g id="node21" class="node"><title>Node11</title>
<a xlink:href="../../d7/d62/class_u_b_board_controller.html#ab6cbc7bda85279e7eee5c5923892dd1a" target="_top" xlink:title="UBBoardController:\l:downloadFinished">
<polygon fill="white" stroke="black" points="1218.5,-214 1218.5,-248 1319.5,-248 1319.5,-214 1218.5,-214"/>
<text text-anchor="start" x="1226.5" y="-235" font-family="Helvetica,sans-Serif" font-size="10.00">UBBoardController:</text>
<text text-anchor="middle" x="1269" y="-222" font-family="Helvetica,sans-Serif" font-size="10.00">:downloadFinished</text>
</a>
</g>
<!-- Node1&#45;&gt;Node11 -->
<g id="edge102" class="edge"><title>Node1&#45;&gt;Node11</title>
<path fill="none" stroke="midnightblue" d="M123.685,-116.578C132.499,-118.273 141.443,-119.811 150,-121 280.132,-139.083 313.617,-140 445,-140 445,-140 445,-140 876,-140 1005.74,-140 1153.5,-187.652 1225.27,-213.99"/>
<polygon fill="midnightblue" stroke="midnightblue" points="124.307,-113.133 113.816,-114.607 122.937,-119.997 124.307,-113.133"/>
</g>
<!-- Node47 -->
<g id="node99" class="node"><title>Node47</title>
<a xlink:href="../../de/d41/class_u_b_async_local_file_downloader.html#a44ea40c0b8421713cebe98cfacd2e02d" target="_top" xlink:title="UBAsyncLocalFileDownloader::run">
<polygon fill="white" stroke="black" points="150.5,-90.5 150.5,-111.5 319.5,-111.5 319.5,-90.5 150.5,-90.5"/>
<text text-anchor="middle" x="235" y="-98.5" font-family="Helvetica,sans-Serif" font-size="10.00">UBAsyncLocalFileDownloader::run</text>
</a>
</g>
<!-- Node1&#45;&gt;Node47 -->
<g id="edge104" class="edge"><title>Node1&#45;&gt;Node47</title>
<path fill="none" stroke="midnightblue" d="M124.056,-101C132.592,-101 141.416,-101 150.185,-101"/>
<polygon fill="midnightblue" stroke="midnightblue" points="123.81,-97.5001 113.81,-101 123.81,-104.5 123.81,-97.5001"/>
</g>
<!-- Node48 -->
<g id="node101" class="node"><title>Node48</title>
<a xlink:href="../../d2/d7a/class_u_b_file_system_utils.html#a9267f8eb18511dbb78f57726576d1fcc" target="_top" xlink:title="UBFileSystemUtils:\l:mimeTypeFromUrl">
<polygon fill="white" stroke="black" points="393,-65 393,-99 497,-99 497,-65 393,-65"/>
<text text-anchor="start" x="401" y="-86" font-family="Helvetica,sans-Serif" font-size="10.00">UBFileSystemUtils:</text>
<text text-anchor="middle" x="445" y="-73" font-family="Helvetica,sans-Serif" font-size="10.00">:mimeTypeFromUrl</text>
</a>
</g>
<!-- Node1&#45;&gt;Node48 -->
<g id="edge106" class="edge"><title>Node1&#45;&gt;Node48</title>
<path fill="none" stroke="midnightblue" d="M123.621,-84.8987C132.446,-83.2885 141.409,-81.9133 150,-81 234.669,-71.9987 333.78,-75.1103 392.868,-78.3984"/>
<polygon fill="midnightblue" stroke="midnightblue" points="122.899,-81.4733 113.744,-86.8044 124.226,-88.3465 122.899,-81.4733"/>
</g>
<!-- Node49 -->
<g id="node104" class="node"><title>Node49</title>
<a xlink:href="../../d5/d85/class_u_b_features_widget.html#af2b169cf75e013baa83fbfd8b9d94989" target="_top" xlink:title="UBFeaturesWidget::onDisplay\lMetadata">
<polygon fill="white" stroke="black" points="160.5,-0 160.5,-34 309.5,-34 309.5,-0 160.5,-0"/>
<text text-anchor="start" x="168.5" y="-21" font-family="Helvetica,sans-Serif" font-size="10.00">UBFeaturesWidget::onDisplay</text>
<text text-anchor="middle" x="235" y="-8" font-family="Helvetica,sans-Serif" font-size="10.00">Metadata</text>
</a>
</g>
<!-- Node1&#45;&gt;Node49 -->
<g id="edge110" class="edge"><title>Node1&#45;&gt;Node49</title>
<path fill="none" stroke="midnightblue" d="M93.0227,-78.5871C109.962,-68.541 130.651,-56.9643 150,-48 160.689,-43.0477 172.411,-38.3364 183.643,-34.15"/>
<polygon fill="midnightblue" stroke="midnightblue" points="90.8029,-75.8373 84.0298,-83.9845 94.4052,-81.8393 90.8029,-75.8373"/>
</g>
<!-- Node3 -->
<g id="node5" class="node"><title>Node3</title>
<a xlink:href="../../d7/d62/class_u_b_board_controller.html#a07e50010567075b570140d6143c516f5" target="_top" xlink:title="UBBoardController:\l:processMimeData">
<polygon fill="white" stroke="black" points="1632.5,-692 1632.5,-726 1733.5,-726 1733.5,-692 1632.5,-692"/>
<text text-anchor="start" x="1640.5" y="-713" font-family="Helvetica,sans-Serif" font-size="10.00">UBBoardController:</text>
<text text-anchor="middle" x="1683" y="-700" font-family="Helvetica,sans-Serif" font-size="10.00">:processMimeData</text>
</a>
</g>
<!-- Node2&#45;&gt;Node3 -->
<g id="edge4" class="edge"><title>Node2&#45;&gt;Node3</title>
<path fill="none" stroke="midnightblue" d="M244.326,-405.755C280.491,-504.115 421.387,-840 659,-840 659,-840 659,-840 1269,-840 1418.27,-840 1584.29,-761.635 1651.86,-726.126"/>
<polygon fill="midnightblue" stroke="midnightblue" points="247.573,-404.443 240.88,-396.23 240.991,-406.825 247.573,-404.443"/>
</g>
<!-- Node7 -->
<g id="node13" class="node"><title>Node7</title>
<a xlink:href="../../d7/d62/class_u_b_board_controller.html#af713d6e325369af244f2af8c90299a35" target="_top" xlink:title="UBBoardController:\l:moveGraphicsWidgetToControlView">
<polygon fill="white" stroke="black" points="356,-260 356,-294 534,-294 534,-260 356,-260"/>
<text text-anchor="start" x="364" y="-281" font-family="Helvetica,sans-Serif" font-size="10.00">UBBoardController:</text>
<text text-anchor="middle" x="445" y="-268" font-family="Helvetica,sans-Serif" font-size="10.00">:moveGraphicsWidgetToControlView</text>
</a>
</g>
<!-- Node2&#45;&gt;Node7 -->
<g id="edge12" class="edge"><title>Node2&#45;&gt;Node7</title>
<path fill="none" stroke="midnightblue" d="M279.146,-357.558C317.991,-338.69 373.806,-311.58 409.736,-294.128"/>
<polygon fill="midnightblue" stroke="midnightblue" points="277.615,-354.41 270.149,-361.927 280.674,-360.707 277.615,-354.41"/>
</g>
<!-- Node37 -->
<g id="node78" class="node"><title>Node37</title>
<a xlink:href="../../dd/dd5/class_u_b_graphics_item_delegate.html#a525c69cb3c3c0df6c4db4d406fd80e48" target="_top" xlink:title="UBGraphicsItemDelegate\l::duplicate">
<polygon fill="white" stroke="black" points="381,-504 381,-538 509,-538 509,-504 381,-504"/>
<text text-anchor="start" x="389" y="-525" font-family="Helvetica,sans-Serif" font-size="10.00">UBGraphicsItemDelegate</text>
<text text-anchor="middle" x="445" y="-512" font-family="Helvetica,sans-Serif" font-size="10.00">::duplicate</text>
</a>
</g>
<!-- Node2&#45;&gt;Node37 -->
<g id="edge82" class="edge"><title>Node2&#45;&gt;Node37</title>
<path fill="none" stroke="midnightblue" d="M268.854,-401.892C310.947,-430.355 381.844,-478.294 419.579,-503.811"/>
<polygon fill="midnightblue" stroke="midnightblue" points="270.575,-398.831 260.331,-396.129 266.654,-404.629 270.575,-398.831"/>
</g>
<!-- Node4 -->
<g id="node7" class="node"><title>Node4</title>
<a xlink:href="../../d7/d62/class_u_b_board_controller.html#a68518a98107e994551da0a4e3a79fe2c" target="_top" xlink:title="UBBoardController:\l:paste">
<polygon fill="white" stroke="black" points="1841.5,-725 1841.5,-759 1942.5,-759 1942.5,-725 1841.5,-725"/>
<text text-anchor="start" x="1849.5" y="-746" font-family="Helvetica,sans-Serif" font-size="10.00">UBBoardController:</text>
<text text-anchor="middle" x="1892" y="-733" font-family="Helvetica,sans-Serif" font-size="10.00">:paste</text>
</a>
</g>
<!-- Node3&#45;&gt;Node4 -->
<g id="edge6" class="edge"><title>Node3&#45;&gt;Node4</title>
<path fill="none" stroke="midnightblue" d="M1743.81,-718.602C1774.7,-723.479 1811.8,-729.336 1841.15,-733.971"/>
<polygon fill="midnightblue" stroke="midnightblue" points="1744.02,-715.091 1733.59,-716.988 1742.92,-722.005 1744.02,-715.091"/>
</g>
<!-- Node6 -->
<g id="node11" class="node"><title>Node6</title>
<a xlink:href="../../d1/d78/class_u_b_board_view.html#a1bb7794094c4bb04637b0df2bc0c0fa9" target="_top" xlink:title="UBBoardView::dropEvent">
<polygon fill="white" stroke="black" points="1828,-685.5 1828,-706.5 1956,-706.5 1956,-685.5 1828,-685.5"/>
<text text-anchor="middle" x="1892" y="-693.5" font-family="Helvetica,sans-Serif" font-size="10.00">UBBoardView::dropEvent</text>
</a>
</g>
<!-- Node3&#45;&gt;Node6 -->
<g id="edge10" class="edge"><title>Node3&#45;&gt;Node6</title>
<path fill="none" stroke="midnightblue" d="M1743.81,-705.218C1770.11,-703.581 1800.92,-701.665 1827.61,-700.005"/>
<polygon fill="midnightblue" stroke="midnightblue" points="1743.36,-701.739 1733.59,-705.853 1743.79,-708.725 1743.36,-701.739"/>
</g>
<!-- Node5 -->
<g id="node9" class="node"><title>Node5</title>
<a xlink:href="../../da/d14/class_u_b_application_controller.html#a6afa41e1bc0c178acaa89684b7e9db26" target="_top" xlink:title="UBApplicationController\l::actionPaste">
<polygon fill="white" stroke="black" points="2014.5,-725 2014.5,-759 2135.5,-759 2135.5,-725 2014.5,-725"/>
<text text-anchor="start" x="2022.5" y="-746" font-family="Helvetica,sans-Serif" font-size="10.00">UBApplicationController</text>
<text text-anchor="middle" x="2075" y="-733" font-family="Helvetica,sans-Serif" font-size="10.00">::actionPaste</text>
</a>
</g>
<!-- Node4&#45;&gt;Node5 -->
<g id="edge8" class="edge"><title>Node4&#45;&gt;Node5</title>
<path fill="none" stroke="midnightblue" d="M1953.06,-742C1972.75,-742 1994.57,-742 2014.24,-742"/>
<polygon fill="midnightblue" stroke="midnightblue" points="1952.98,-738.5 1942.98,-742 1952.98,-745.5 1952.98,-738.5"/>
</g>
<!-- Node8 -->
<g id="node15" class="node"><title>Node8</title>
<a xlink:href="../../dc/db2/class_u_b_graphics_scene.html#aa63a9c1b5eb1de5a0d06a0f2b449648a" target="_top" xlink:title="UBGraphicsScene::addGraphics\lWidget">
<polygon fill="white" stroke="black" points="580,-260 580,-294 738,-294 738,-260 580,-260"/>
<text text-anchor="start" x="588" y="-281" font-family="Helvetica,sans-Serif" font-size="10.00">UBGraphicsScene::addGraphics</text>
<text text-anchor="middle" x="659" y="-268" font-family="Helvetica,sans-Serif" font-size="10.00">Widget</text>
</a>
</g>
<!-- Node7&#45;&gt;Node8 -->
<g id="edge14" class="edge"><title>Node7&#45;&gt;Node8</title>
<path fill="none" stroke="midnightblue" d="M544.556,-277C556.386,-277 568.338,-277 579.83,-277"/>
<polygon fill="midnightblue" stroke="midnightblue" points="544.206,-273.5 534.206,-277 544.206,-280.5 544.206,-273.5"/>
</g>
<!-- Node35 -->
<g id="node74" class="node"><title>Node35</title>
<a xlink:href="../../d8/d2c/class_u_b_graphics_widget_item_delegate.html#a2b446e23a250de4f8c162e1411058cb5" target="_top" xlink:title="UBGraphicsWidgetItemDelegate::pin">
<polygon fill="white" stroke="black" points="570,-197.5 570,-218.5 748,-218.5 748,-197.5 570,-197.5"/>
<text text-anchor="middle" x="659" y="-205.5" font-family="Helvetica,sans-Serif" font-size="10.00">UBGraphicsWidgetItemDelegate::pin</text>
</a>
</g>
<!-- Node7&#45;&gt;Node35 -->
<g id="edge78" class="edge"><title>Node7&#45;&gt;Node35</title>
<path fill="none" stroke="midnightblue" d="M507.564,-256.827C546.452,-244.289 594.861,-228.68 626.325,-218.535"/>
<polygon fill="midnightblue" stroke="midnightblue" points="506.342,-253.544 497.899,-259.944 508.49,-260.206 506.342,-253.544"/>
</g>
<!-- Node9 -->
<g id="node17" class="node"><title>Node9</title>
<a xlink:href="../../d7/d62/class_u_b_board_controller.html#af122a3bb14b0ef66b169be9fd0e5a2b3" target="_top" xlink:title="UBBoardController:\l:moveToolWidgetToScene">
<polygon fill="white" stroke="red" points="810,-260 810,-294 942,-294 942,-260 810,-260"/>
<text text-anchor="start" x="818" y="-281" font-family="Helvetica,sans-Serif" font-size="10.00">UBBoardController:</text>
<text text-anchor="middle" x="876" y="-268" font-family="Helvetica,sans-Serif" font-size="10.00">:moveToolWidgetToScene</text>
</a>
</g>
<!-- Node8&#45;&gt;Node9 -->
<g id="edge16" class="edge"><title>Node8&#45;&gt;Node9</title>
<path fill="none" stroke="midnightblue" d="M748.276,-277C768.855,-277 790.388,-277 809.784,-277"/>
<polygon fill="midnightblue" stroke="midnightblue" points="748.263,-273.5 738.263,-277 748.263,-280.5 748.263,-273.5"/>
</g>
<!-- Node10 -->
<g id="node19" class="node"><title>Node10</title>
<a xlink:href="../../dc/db2/class_u_b_graphics_scene.html#aa86ec061e79ba18c2efe73a6bf10bf33" target="_top" xlink:title="UBGraphicsScene::addApple\lWidget">
<polygon fill="white" stroke="red" points="1004,-279 1004,-313 1148,-313 1148,-279 1004,-279"/>
<text text-anchor="start" x="1012" y="-300" font-family="Helvetica,sans-Serif" font-size="10.00">UBGraphicsScene::addApple</text>
<text text-anchor="middle" x="1076" y="-287" font-family="Helvetica,sans-Serif" font-size="10.00">Widget</text>
</a>
</g>
<!-- Node8&#45;&gt;Node10 -->
<g id="edge18" class="edge"><title>Node8&#45;&gt;Node10</title>
<path fill="none" stroke="midnightblue" d="M738.186,-296.017C753.31,-298.924 769.078,-301.465 784,-303 865.348,-311.371 886.265,-305.646 968,-303 979.643,-302.623 991.982,-302.018 1004,-301.318"/>
<polygon fill="midnightblue" stroke="midnightblue" points="738.846,-292.58 728.355,-294.06 737.48,-299.445 738.846,-292.58"/>
</g>
<!-- Node31 -->
<g id="node64" class="node"><title>Node31</title>
<a xlink:href="../../dc/db2/class_u_b_graphics_scene.html#acb26de2926454faf9c5ca66989779d82" target="_top" xlink:title="UBGraphicsScene::addW3CWidget">
<polygon fill="white" stroke="red" points="789.5,-220.5 789.5,-241.5 962.5,-241.5 962.5,-220.5 789.5,-220.5"/>
<text text-anchor="middle" x="876" y="-228.5" font-family="Helvetica,sans-Serif" font-size="10.00">UBGraphicsScene::addW3CWidget</text>
</a>
</g>
<!-- Node8&#45;&gt;Node31 -->
<g id="edge66" class="edge"><title>Node8&#45;&gt;Node31</title>
<path fill="none" stroke="midnightblue" d="M748.367,-258.056C774.968,-252.417 803.154,-246.442 826.254,-241.545"/>
<polygon fill="midnightblue" stroke="midnightblue" points="747.32,-254.7 738.263,-260.198 748.772,-261.548 747.32,-254.7"/>
</g>
<!-- Node10&#45;&gt;Node11 -->
<g id="edge20" class="edge"><title>Node10&#45;&gt;Node11</title>
<path fill="none" stroke="midnightblue" d="M1136.21,-275.723C1162.56,-266.849 1193.13,-256.552 1218.3,-248.077"/>
<polygon fill="midnightblue" stroke="midnightblue" points="1135.07,-272.413 1126.71,-278.922 1137.3,-279.047 1135.07,-272.413"/>
</g>
<!-- Node11&#45;&gt;Node2 -->
<g id="edge28" class="edge"><title>Node11&#45;&gt;Node2</title>
<path fill="none" stroke="midnightblue" d="M1244.83,-255.154C1221.95,-276.46 1185.59,-306.467 1148,-322 1035.19,-368.612 998.063,-360 876,-360 659,-360 659,-360 659,-360 523.972,-360 364.999,-369.736 285.549,-375.269"/>
<polygon fill="midnightblue" stroke="midnightblue" points="1247.5,-257.444 1252.34,-248.018 1242.68,-252.369 1247.5,-257.444"/>
</g>
<!-- Node12 -->
<g id="node23" class="node"><title>Node12</title>
<a xlink:href="../../d7/d62/class_u_b_board_controller.html#aa728cb7c1b979b2d4ae45638a7386dde" target="_top" xlink:title="UBBoardController::init">
<polygon fill="white" stroke="black" points="1416.5,-209.5 1416.5,-230.5 1533.5,-230.5 1533.5,-209.5 1416.5,-209.5"/>
<text text-anchor="middle" x="1475" y="-217.5" font-family="Helvetica,sans-Serif" font-size="10.00">UBBoardController::init</text>
</a>
</g>
<!-- Node11&#45;&gt;Node12 -->
<g id="edge22" class="edge"><title>Node11&#45;&gt;Node12</title>
<path fill="none" stroke="midnightblue" d="M1329.85,-227.751C1357.11,-226.295 1389.12,-224.586 1416.14,-223.143"/>
<polygon fill="midnightblue" stroke="midnightblue" points="1329.46,-224.267 1319.66,-228.295 1329.83,-231.257 1329.46,-224.267"/>
</g>
<!-- Node15 -->
<g id="node30" class="node"><title>Node15</title>
<a xlink:href="../../d7/d62/class_u_b_board_controller.html#a358f3f88d1fa9e41620170d76a806f93" target="_top" xlink:title="UBBoardController:\l:downloadURL">
<polygon fill="white" stroke="black" points="1424.5,-387 1424.5,-421 1525.5,-421 1525.5,-387 1424.5,-387"/>
<text text-anchor="start" x="1432.5" y="-408" font-family="Helvetica,sans-Serif" font-size="10.00">UBBoardController:</text>
<text text-anchor="middle" x="1475" y="-395" font-family="Helvetica,sans-Serif" font-size="10.00">:downloadURL</text>
</a>
</g>
<!-- Node11&#45;&gt;Node15 -->
<g id="edge30" class="edge"><title>Node11&#45;&gt;Node15</title>
<path fill="none" stroke="midnightblue" d="M1297.17,-254.657C1339.25,-290 1417.54,-355.748 1454.58,-386.849"/>
<polygon fill="midnightblue" stroke="midnightblue" points="1299.41,-251.971 1289.51,-248.22 1294.91,-257.332 1299.41,-251.971"/>
</g>
<!-- Node13 -->
<g id="node25" class="node"><title>Node13</title>
<a xlink:href="../../d8/d81/class_u_b_application.html#add1469239e71bf24fdc61413a42a38bd" target="_top" xlink:title="UBApplication::exec">
<polygon fill="white" stroke="black" points="1630,-203.5 1630,-224.5 1736,-224.5 1736,-203.5 1630,-203.5"/>
<text text-anchor="middle" x="1683" y="-211.5" font-family="Helvetica,sans-Serif" font-size="10.00">UBApplication::exec</text>
</a>
</g>
<!-- Node12&#45;&gt;Node13 -->
<g id="edge24" class="edge"><title>Node12&#45;&gt;Node13</title>
<path fill="none" stroke="midnightblue" d="M1543.87,-218.013C1571.81,-217.207 1603.58,-216.291 1629.71,-215.537"/>
<polygon fill="midnightblue" stroke="midnightblue" points="1543.67,-214.518 1533.77,-218.305 1543.87,-221.515 1543.67,-214.518"/>
</g>
<!-- Node14 -->
<g id="node27" class="node"><title>Node14</title>
<a xlink:href="../../df/d0a/main_8cpp.html#a0ddf1224851353fc92bfbff6f499fa97" target="_top" xlink:title="main">
<polygon fill="white" stroke="black" points="1873,-203.5 1873,-224.5 1911,-224.5 1911,-203.5 1873,-203.5"/>
<text text-anchor="middle" x="1892" y="-211.5" font-family="Helvetica,sans-Serif" font-size="10.00">main</text>
</a>
</g>
<!-- Node13&#45;&gt;Node14 -->
<g id="edge26" class="edge"><title>Node13&#45;&gt;Node14</title>
<path fill="none" stroke="midnightblue" d="M1746.23,-214C1789.72,-214 1844.57,-214 1872.98,-214"/>
<polygon fill="midnightblue" stroke="midnightblue" points="1746.01,-210.5 1736.01,-214 1746.01,-217.5 1746.01,-210.5"/>
</g>
<!-- Node15&#45;&gt;Node2 -->
<g id="edge36" class="edge"><title>Node15&#45;&gt;Node2</title>
<path fill="none" stroke="midnightblue" d="M1414.14,-402.516C1335.91,-400.74 1195.84,-398 1076,-398 659,-398 659,-398 659,-398 523.972,-398 364.999,-388.264 285.549,-382.731"/>
<polygon fill="midnightblue" stroke="midnightblue" points="1414.22,-406.019 1424.3,-402.75 1414.38,-399.021 1414.22,-406.019"/>
</g>
<!-- Node15&#45;&gt;Node3 -->
<g id="edge38" class="edge"><title>Node15&#45;&gt;Node3</title>
<path fill="none" stroke="midnightblue" d="M1481.52,-431.271C1494.97,-482.431 1530.19,-593.864 1596,-663 1607.54,-675.128 1623,-684.712 1637.68,-691.922"/>
<polygon fill="midnightblue" stroke="midnightblue" points="1484.84,-430.13 1478.98,-421.306 1478.06,-431.861 1484.84,-430.13"/>
</g>
<!-- Node16 -->
<g id="node32" class="node"><title>Node16</title>
<a xlink:href="../../da/dd6/class_u_b_library_a_p_i.html#abeac23fcd7f64866d5686b590ec05695" target="_top" xlink:title="UBLibraryAPI::addObject">
<polygon fill="white" stroke="black" points="1619.5,-347.5 1619.5,-368.5 1746.5,-368.5 1746.5,-347.5 1619.5,-347.5"/>
<text text-anchor="middle" x="1683" y="-355.5" font-family="Helvetica,sans-Serif" font-size="10.00">UBLibraryAPI::addObject</text>
</a>
</g>
<!-- Node15&#45;&gt;Node16 -->
<g id="edge32" class="edge"><title>Node15&#45;&gt;Node16</title>
<path fill="none" stroke="midnightblue" d="M1535.68,-390.58C1567.45,-383.555 1605.78,-375.078 1635.38,-368.532"/>
<polygon fill="midnightblue" stroke="midnightblue" points="1534.62,-387.229 1525.62,-392.806 1536.14,-394.064 1534.62,-387.229"/>
</g>
<!-- Node17 -->
<g id="node34" class="node"><title>Node17</title>
<a xlink:href="../../d5/d2b/class_u_b_widget_uniboard_a_p_i.html#a73ac1600ef3ed549d2c6c969436efb2f" target="_top" xlink:title="UBWidgetUniboardAPI\l::addObject">
<polygon fill="white" stroke="black" points="1624.5,-295 1624.5,-329 1741.5,-329 1741.5,-295 1624.5,-295"/>
<text text-anchor="start" x="1632.5" y="-316" font-family="Helvetica,sans-Serif" font-size="10.00">UBWidgetUniboardAPI</text>
<text text-anchor="middle" x="1683" y="-303" font-family="Helvetica,sans-Serif" font-size="10.00">::addObject</text>
</a>
</g>
<!-- Node15&#45;&gt;Node17 -->
<g id="edge34" class="edge"><title>Node15&#45;&gt;Node17</title>
<path fill="none" stroke="midnightblue" d="M1511.14,-381.69C1534.69,-367.812 1566.43,-350.325 1596,-338 1605.02,-334.24 1614.78,-330.776 1624.38,-327.686"/>
<polygon fill="midnightblue" stroke="midnightblue" points="1509.34,-378.69 1502.54,-386.814 1512.92,-384.704 1509.34,-378.69"/>
</g>
<!-- Node18 -->
<g id="node38" class="node"><title>Node18</title>
<a xlink:href="../../d8/d33/class_u_b_features_controller.html#a38042ae37804ee19bfacf4aafd096ea9" target="_top" xlink:title="UBFeaturesController\l::addItemToPage">
<polygon fill="white" stroke="black" points="1627.5,-243 1627.5,-277 1738.5,-277 1738.5,-243 1627.5,-243"/>
<text text-anchor="start" x="1635.5" y="-264" font-family="Helvetica,sans-Serif" font-size="10.00">UBFeaturesController</text>
<text text-anchor="middle" x="1683" y="-251" font-family="Helvetica,sans-Serif" font-size="10.00">::addItemToPage</text>
</a>
</g>
<!-- Node15&#45;&gt;Node18 -->
<g id="edge40" class="edge"><title>Node15&#45;&gt;Node18</title>
<path fill="none" stroke="midnightblue" d="M1494.49,-378.797C1516.42,-352.076 1554.46,-310.428 1596,-286 1605.65,-280.326 1616.64,-275.8 1627.48,-272.22"/>
<polygon fill="midnightblue" stroke="midnightblue" points="1491.5,-376.926 1487.95,-386.907 1496.95,-381.32 1491.5,-376.926"/>
</g>
<!-- Node20 -->
<g id="node42" class="node"><title>Node20</title>
<a xlink:href="../../d8/d33/class_u_b_features_controller.html#a0ecd4b84e703063db5c0fdf498f2cdb0" target="_top" xlink:title="UBFeaturesController\l::addItemAsBackground">
<polygon fill="white" stroke="black" points="1622,-620 1622,-654 1744,-654 1744,-620 1622,-620"/>
<text text-anchor="start" x="1630" y="-641" font-family="Helvetica,sans-Serif" font-size="10.00">UBFeaturesController</text>
<text text-anchor="middle" x="1683" y="-628" font-family="Helvetica,sans-Serif" font-size="10.00">::addItemAsBackground</text>
</a>
</g>
<!-- Node15&#45;&gt;Node20 -->
<g id="edge44" class="edge"><title>Node15&#45;&gt;Node20</title>
<path fill="none" stroke="midnightblue" d="M1484.73,-430.807C1501.32,-473.013 1538.93,-555.077 1596,-603 1604.2,-609.883 1613.95,-615.477 1623.91,-619.989"/>
<polygon fill="midnightblue" stroke="midnightblue" points="1487.9,-429.305 1481.05,-421.221 1481.36,-431.811 1487.9,-429.305"/>
</g>
<!-- Node22 -->
<g id="node46" class="node"><title>Node22</title>
<a xlink:href="../../d0/d79/class_u_b_favorite_tool_palette.html#a83161cac1258562134412dfcd60aee50" target="_top" xlink:title="UBFavoriteToolPalette\l::addFavorite">
<polygon fill="white" stroke="black" points="1625,-560 1625,-594 1741,-594 1741,-560 1625,-560"/>
<text text-anchor="start" x="1633" y="-581" font-family="Helvetica,sans-Serif" font-size="10.00">UBFavoriteToolPalette</text>
<text text-anchor="middle" x="1683" y="-568" font-family="Helvetica,sans-Serif" font-size="10.00">::addFavorite</text>
</a>
</g>
<!-- Node15&#45;&gt;Node22 -->
<g id="edge48" class="edge"><title>Node15&#45;&gt;Node22</title>
<path fill="none" stroke="midnightblue" d="M1493.83,-429.187C1515.91,-457.431 1554.77,-503.29 1596,-534 1609.65,-544.164 1626.07,-553.001 1640.95,-559.977"/>
<polygon fill="midnightblue" stroke="midnightblue" points="1496.41,-426.803 1487.53,-421.024 1490.87,-431.079 1496.41,-426.803"/>
</g>
<!-- Node24 -->
<g id="node50" class="node"><title>Node24</title>
<a xlink:href="../../db/d78/class_w_b_web_trap_web_view.html#afdbfd6aac50cad5ac07a465baa7be0b6" target="_top" xlink:title="WBWebTrapWebView::trapElement\lAtPos">
<polygon fill="white" stroke="black" points="1596.5,-491 1596.5,-525 1769.5,-525 1769.5,-491 1596.5,-491"/>
<text text-anchor="start" x="1604.5" y="-512" font-family="Helvetica,sans-Serif" font-size="10.00">WBWebTrapWebView::trapElement</text>
<text text-anchor="middle" x="1683" y="-499" font-family="Helvetica,sans-Serif" font-size="10.00">AtPos</text>
</a>
</g>
<!-- Node15&#45;&gt;Node24 -->
<g id="edge52" class="edge"><title>Node15&#45;&gt;Node24</title>
<path fill="none" stroke="midnightblue" d="M1505.74,-427.299C1529.4,-444.342 1563.45,-467.011 1596,-482 1603.16,-485.297 1610.84,-488.297 1618.57,-490.992"/>
<polygon fill="midnightblue" stroke="midnightblue" points="1507.66,-424.366 1497.52,-421.299 1503.54,-430.021 1507.66,-424.366"/>
</g>
<!-- Node27 -->
<g id="node56" class="node"><title>Node27</title>
<a xlink:href="../../dd/dc8/class_w_b_web_page.html#a4f177fc1cee35b60e7973ff2573025e7" target="_top" xlink:title="WBWebPage::handleUnsupported\lContent">
<polygon fill="white" stroke="black" points="1600,-439 1600,-473 1766,-473 1766,-439 1600,-439"/>
<text text-anchor="start" x="1608" y="-460" font-family="Helvetica,sans-Serif" font-size="10.00">WBWebPage::handleUnsupported</text>
<text text-anchor="middle" x="1683" y="-447" font-family="Helvetica,sans-Serif" font-size="10.00">Content</text>
</a>
</g>
<!-- Node15&#45;&gt;Node27 -->
<g id="edge58" class="edge"><title>Node15&#45;&gt;Node27</title>
<path fill="none" stroke="midnightblue" d="M1535.63,-419.156C1560.44,-425.36 1589.26,-432.566 1614.81,-438.952"/>
<polygon fill="midnightblue" stroke="midnightblue" points="1536.17,-415.684 1525.62,-416.654 1534.47,-422.475 1536.17,-415.684"/>
</g>
<!-- Node29 -->
<g id="node60" class="node"><title>Node29</title>
<a xlink:href="../../df/d50/class_u_b_web_controller.html#a318422dc0a027e2258180673bb333586" target="_top" xlink:title="UBWebController::capture\lEduMedia">
<polygon fill="white" stroke="black" points="1617.5,-387 1617.5,-421 1748.5,-421 1748.5,-387 1617.5,-387"/>
<text text-anchor="start" x="1625.5" y="-408" font-family="Helvetica,sans-Serif" font-size="10.00">UBWebController::capture</text>
<text text-anchor="middle" x="1683" y="-395" font-family="Helvetica,sans-Serif" font-size="10.00">EduMedia</text>
</a>
</g>
<!-- Node15&#45;&gt;Node29 -->
<g id="edge62" class="edge"><title>Node15&#45;&gt;Node29</title>
<path fill="none" stroke="midnightblue" d="M1535.9,-404C1561.41,-404 1591.13,-404 1617.14,-404"/>
<polygon fill="midnightblue" stroke="midnightblue" points="1535.62,-400.5 1525.62,-404 1535.62,-407.5 1535.62,-400.5"/>
</g>
<!-- Node19 -->
<g id="node40" class="node"><title>Node19</title>
<a xlink:href="../../dd/dc8/class_u_b_feature_properties.html#a6fb900fb691ba01479801333a4df226d" target="_top" xlink:title="UBFeatureProperties\l::onAddToPage">
<polygon fill="white" stroke="red" points="1838,-243 1838,-277 1946,-277 1946,-243 1838,-243"/>
<text text-anchor="start" x="1846" y="-264" font-family="Helvetica,sans-Serif" font-size="10.00">UBFeatureProperties</text>
<text text-anchor="middle" x="1892" y="-251" font-family="Helvetica,sans-Serif" font-size="10.00">::onAddToPage</text>
</a>
</g>
<!-- Node18&#45;&gt;Node19 -->
<g id="edge42" class="edge"><title>Node18&#45;&gt;Node19</title>
<path fill="none" stroke="midnightblue" d="M1749.05,-260C1777.66,-260 1810.74,-260 1837.87,-260"/>
<polygon fill="midnightblue" stroke="midnightblue" points="1748.73,-256.5 1738.73,-260 1748.73,-263.5 1748.73,-256.5"/>
</g>
<!-- Node21 -->
<g id="node44" class="node"><title>Node21</title>
<a xlink:href="../../dd/dc8/class_u_b_feature_properties.html#af183f096cbff2df0da3206b8e71c3525" target="_top" xlink:title="UBFeatureProperties\l::onSetAsBackground">
<polygon fill="white" stroke="red" points="1836,-620 1836,-654 1948,-654 1948,-620 1836,-620"/>
<text text-anchor="start" x="1844" y="-641" font-family="Helvetica,sans-Serif" font-size="10.00">UBFeatureProperties</text>
<text text-anchor="middle" x="1892" y="-628" font-family="Helvetica,sans-Serif" font-size="10.00">::onSetAsBackground</text>
</a>
</g>
<!-- Node20&#45;&gt;Node21 -->
<g id="edge46" class="edge"><title>Node20&#45;&gt;Node21</title>
<path fill="none" stroke="midnightblue" d="M1754.07,-637C1780.79,-637 1810.75,-637 1835.92,-637"/>
<polygon fill="midnightblue" stroke="midnightblue" points="1754.01,-633.5 1744.01,-637 1754.01,-640.5 1754.01,-633.5"/>
</g>
<!-- Node23 -->
<g id="node48" class="node"><title>Node23</title>
<a xlink:href="../../d0/d79/class_u_b_favorite_tool_palette.html#a5c96e32fc43e9342cde947b25425516c" target="_top" xlink:title="UBFavoriteToolPalette\l::UBFavoriteToolPalette">
<polygon fill="white" stroke="black" points="1831,-568 1831,-602 1953,-602 1953,-568 1831,-568"/>
<text text-anchor="start" x="1839" y="-589" font-family="Helvetica,sans-Serif" font-size="10.00">UBFavoriteToolPalette</text>
<text text-anchor="middle" x="1892" y="-576" font-family="Helvetica,sans-Serif" font-size="10.00">::UBFavoriteToolPalette</text>
</a>
</g>
<!-- Node22&#45;&gt;Node23 -->
<g id="edge50" class="edge"><title>Node22&#45;&gt;Node23</title>
<path fill="none" stroke="midnightblue" d="M1751.24,-579.612C1776.88,-580.594 1805.85,-581.702 1830.81,-582.658"/>
<polygon fill="midnightblue" stroke="midnightblue" points="1751.34,-576.114 1741.22,-579.228 1751.08,-583.108 1751.34,-576.114"/>
</g>
<!-- Node25 -->
<g id="node52" class="node"><title>Node25</title>
<a xlink:href="../../db/d78/class_w_b_web_trap_web_view.html#a2ac308414d18186c9c4fc60bc5f46400" target="_top" xlink:title="WBWebTrapWebView::trapContent\lFromHitTest">
<polygon fill="white" stroke="black" points="1806,-464 1806,-498 1978,-498 1978,-464 1806,-464"/>
<text text-anchor="start" x="1814" y="-485" font-family="Helvetica,sans-Serif" font-size="10.00">WBWebTrapWebView::trapContent</text>
<text text-anchor="middle" x="1892" y="-472" font-family="Helvetica,sans-Serif" font-size="10.00">FromHitTest</text>
</a>
</g>
<!-- Node24&#45;&gt;Node25 -->
<g id="edge54" class="edge"><title>Node24&#45;&gt;Node25</title>
<path fill="none" stroke="midnightblue" d="M1779.72,-495.505C1788.45,-494.377 1797.25,-493.24 1805.88,-492.125"/>
<polygon fill="midnightblue" stroke="midnightblue" points="1778.99,-492.071 1769.52,-496.823 1779.88,-499.013 1778.99,-492.071"/>
</g>
<!-- Node26 -->
<g id="node54" class="node"><title>Node26</title>
<a xlink:href="../../dd/df0/class_u_b_web_trap_mouse_event_mask.html#a2c69d74fef874516e38daeab13e6ecd0" target="_top" xlink:title="UBWebTrapMouseEventMask\l::mousePressEvent">
<polygon fill="white" stroke="black" points="1817.5,-516 1817.5,-550 1966.5,-550 1966.5,-516 1817.5,-516"/>
<text text-anchor="start" x="1825.5" y="-537" font-family="Helvetica,sans-Serif" font-size="10.00">UBWebTrapMouseEventMask</text>
<text text-anchor="middle" x="1892" y="-524" font-family="Helvetica,sans-Serif" font-size="10.00">::mousePressEvent</text>
</a>
</g>
<!-- Node24&#45;&gt;Node26 -->
<g id="edge56" class="edge"><title>Node24&#45;&gt;Node26</title>
<path fill="none" stroke="midnightblue" d="M1779.6,-519.555C1792.23,-521.066 1805.01,-522.595 1817.21,-524.054"/>
<polygon fill="midnightblue" stroke="midnightblue" points="1779.86,-516.061 1769.52,-518.349 1779.03,-523.012 1779.86,-516.061"/>
</g>
<!-- Node28 -->
<g id="node58" class="node"><title>Node28</title>
<a xlink:href="../../dd/dc8/class_w_b_web_page.html#a01017231eb0981875b79223f8457b302" target="_top" xlink:title="WBWebPage::WBWebPage">
<polygon fill="white" stroke="black" points="1821.5,-424.5 1821.5,-445.5 1962.5,-445.5 1962.5,-424.5 1821.5,-424.5"/>
<text text-anchor="middle" x="1892" y="-432.5" font-family="Helvetica,sans-Serif" font-size="10.00">WBWebPage::WBWebPage</text>
</a>
</g>
<!-- Node27&#45;&gt;Node28 -->
<g id="edge60" class="edge"><title>Node27&#45;&gt;Node28</title>
<path fill="none" stroke="midnightblue" d="M1776.53,-446.602C1791.53,-445.095 1806.85,-443.556 1821.21,-442.113"/>
<polygon fill="midnightblue" stroke="midnightblue" points="1775.8,-443.158 1766.2,-447.64 1776.5,-450.123 1775.8,-443.158"/>
</g>
<!-- Node30 -->
<g id="node62" class="node"><title>Node30</title>
<a xlink:href="../../df/d50/class_u_b_web_controller.html#af73cfa36d5b743fa3a652e49dd7e4831" target="_top" xlink:title="UBWebController::setupPalettes">
<polygon fill="white" stroke="red" points="1812.5,-384.5 1812.5,-405.5 1971.5,-405.5 1971.5,-384.5 1812.5,-384.5"/>
<text text-anchor="middle" x="1892" y="-392.5" font-family="Helvetica,sans-Serif" font-size="10.00">UBWebController::setupPalettes</text>
</a>
</g>
<!-- Node29&#45;&gt;Node30 -->
<g id="edge64" class="edge"><title>Node29&#45;&gt;Node30</title>
<path fill="none" stroke="midnightblue" d="M1758.68,-400.741C1776.13,-399.99 1794.75,-399.188 1812.36,-398.429"/>
<polygon fill="midnightblue" stroke="midnightblue" points="1758.4,-397.25 1748.56,-401.177 1758.7,-404.243 1758.4,-397.25"/>
</g>
<!-- Node31&#45;&gt;Node11 -->
<g id="edge76" class="edge"><title>Node31&#45;&gt;Node11</title>
<path fill="none" stroke="midnightblue" d="M973.012,-231C1050.64,-231 1156.41,-231 1218.24,-231"/>
<polygon fill="midnightblue" stroke="midnightblue" points="972.732,-227.5 962.732,-231 972.732,-234.5 972.732,-227.5"/>
</g>
<!-- Node32 -->
<g id="node66" class="node"><title>Node32</title>
<a xlink:href="../../d7/d62/class_u_b_board_controller.html#a5f701f4cd3173743effca3b3b0bd4615" target="_top" xlink:title="UBBoardController:\l:addLinkToPage">
<polygon fill="white" stroke="black" points="1025.5,-78 1025.5,-112 1126.5,-112 1126.5,-78 1025.5,-78"/>
<text text-anchor="start" x="1033.5" y="-99" font-family="Helvetica,sans-Serif" font-size="10.00">UBBoardController:</text>
<text text-anchor="middle" x="1076" y="-86" font-family="Helvetica,sans-Serif" font-size="10.00">:addLinkToPage</text>
</a>
</g>
<!-- Node31&#45;&gt;Node32 -->
<g id="edge68" class="edge"><title>Node31&#45;&gt;Node32</title>
<path fill="none" stroke="midnightblue" d="M956.2,-216.754C960.284,-215.048 964.245,-213.138 968,-211 1011.52,-186.222 1047.75,-138.045 1065.05,-112.263"/>
<polygon fill="midnightblue" stroke="midnightblue" points="954.634,-213.602 946.486,-220.375 957.079,-220.161 954.634,-213.602"/>
</g>
<!-- Node32&#45;&gt;Node11 -->
<g id="edge70" class="edge"><title>Node32&#45;&gt;Node11</title>
<path fill="none" stroke="midnightblue" d="M1130.93,-116.525C1136.83,-119.457 1142.63,-122.628 1148,-126 1189.22,-151.881 1230.63,-191.445 1252.71,-213.89"/>
<polygon fill="midnightblue" stroke="midnightblue" points="1132.17,-113.239 1121.64,-112.12 1129.17,-119.565 1132.17,-113.239"/>
</g>
<!-- Node33 -->
<g id="node69" class="node"><title>Node33</title>
<a xlink:href="../../d9/d3a/class_u_b_trap_web_page_content_controller.html#adc738e0c68ed861cce64a1389d2aee5d" target="_top" xlink:title="UBTrapWebPageContentController\l::addLink">
<polygon fill="white" stroke="red" points="1184,-78 1184,-112 1354,-112 1354,-78 1184,-78"/>
<text text-anchor="start" x="1192" y="-99" font-family="Helvetica,sans-Serif" font-size="10.00">UBTrapWebPageContentController</text>
<text text-anchor="middle" x="1269" y="-86" font-family="Helvetica,sans-Serif" font-size="10.00">::addLink</text>
</a>
</g>
<!-- Node32&#45;&gt;Node33 -->
<g id="edge72" class="edge"><title>Node32&#45;&gt;Node33</title>
<path fill="none" stroke="midnightblue" d="M1136.83,-95C1151.78,-95 1168.06,-95 1183.93,-95"/>
<polygon fill="midnightblue" stroke="midnightblue" points="1136.71,-91.5001 1126.71,-95 1136.71,-98.5001 1136.71,-91.5001"/>
</g>
<!-- Node34 -->
<g id="node71" class="node"><title>Node34</title>
<a xlink:href="../../d9/d3a/class_u_b_trap_web_page_content_controller.html#a2c3abe64d01d7cc3b5e97e7dbf06cc4b" target="_top" xlink:title="UBTrapWebPageContentController\l::addLinkToLibrary">
<polygon fill="white" stroke="black" points="1390,-78 1390,-112 1560,-112 1560,-78 1390,-78"/>
<text text-anchor="start" x="1398" y="-99" font-family="Helvetica,sans-Serif" font-size="10.00">UBTrapWebPageContentController</text>
<text text-anchor="middle" x="1475" y="-86" font-family="Helvetica,sans-Serif" font-size="10.00">::addLinkToLibrary</text>
</a>
</g>
<!-- Node33&#45;&gt;Node34 -->
<g id="edge74" class="edge"><title>Node33&#45;&gt;Node34</title>
<path fill="none" stroke="midnightblue" d="M1364.51,-95C1372.95,-95 1381.45,-95 1389.79,-95"/>
<polygon fill="midnightblue" stroke="midnightblue" points="1364.28,-91.5001 1354.28,-95 1364.28,-98.5001 1364.28,-91.5001"/>
</g>
<!-- Node36 -->
<g id="node76" class="node"><title>Node36</title>
<a xlink:href="../../d8/d2c/class_u_b_graphics_widget_item_delegate.html#a79bf31a6cda75de23b70469270de5bd9" target="_top" xlink:title="UBGraphicsWidgetItemDelegate\l::decorateMenu">
<polygon fill="white" stroke="black" points="796.5,-168 796.5,-202 955.5,-202 955.5,-168 796.5,-168"/>
<text text-anchor="start" x="804.5" y="-189" font-family="Helvetica,sans-Serif" font-size="10.00">UBGraphicsWidgetItemDelegate</text>
<text text-anchor="middle" x="876" y="-176" font-family="Helvetica,sans-Serif" font-size="10.00">::decorateMenu</text>
</a>
</g>
<!-- Node35&#45;&gt;Node36 -->
<g id="edge80" class="edge"><title>Node35&#45;&gt;Node36</title>
<path fill="none" stroke="midnightblue" d="M758.325,-197.472C771.01,-196.128 783.863,-194.766 796.184,-193.46"/>
<polygon fill="midnightblue" stroke="midnightblue" points="757.777,-194.011 748.202,-198.545 758.515,-200.972 757.777,-194.011"/>
</g>
<!-- Node38 -->
<g id="node80" class="node"><title>Node38</title>
<a xlink:href="../../dd/dd5/class_u_b_graphics_item_delegate.html#a1de77276aba7276defacd0b87c9b87c7" target="_top" xlink:title="UBGraphicsItemDelegate\l::init">
<polygon fill="white" stroke="black" points="595,-582 595,-616 723,-616 723,-582 595,-582"/>
<text text-anchor="start" x="603" y="-603" font-family="Helvetica,sans-Serif" font-size="10.00">UBGraphicsItemDelegate</text>
<text text-anchor="middle" x="659" y="-590" font-family="Helvetica,sans-Serif" font-size="10.00">::init</text>
</a>
</g>
<!-- Node37&#45;&gt;Node38 -->
<g id="edge84" class="edge"><title>Node37&#45;&gt;Node38</title>
<path fill="none" stroke="midnightblue" d="M501.171,-541.474C535.677,-554.051 579.371,-569.976 612.032,-581.881"/>
<polygon fill="midnightblue" stroke="midnightblue" points="502.293,-538.157 491.699,-538.021 499.896,-544.734 502.293,-538.157"/>
</g>
<!-- Node39 -->
<g id="node82" class="node"><title>Node39</title>
<a xlink:href="../../de/d93/class_u_b_graphics_group_container_item.html#a2aaeb364079830d1720110c30f999ec8" target="_top" xlink:title="UBGraphicsGroupContainer\lItem::UBGraphicsGroupContainerItem">
<polygon fill="white" stroke="red" points="784.5,-530 784.5,-564 967.5,-564 967.5,-530 784.5,-530"/>
<text text-anchor="start" x="792.5" y="-551" font-family="Helvetica,sans-Serif" font-size="10.00">UBGraphicsGroupContainer</text>
<text text-anchor="middle" x="876" y="-538" font-family="Helvetica,sans-Serif" font-size="10.00">Item::UBGraphicsGroupContainerItem</text>
</a>
</g>
<!-- Node38&#45;&gt;Node39 -->
<g id="edge86" class="edge"><title>Node38&#45;&gt;Node39</title>
<path fill="none" stroke="midnightblue" d="M733.006,-581.266C756.194,-575.709 781.727,-569.591 804.722,-564.08"/>
<polygon fill="midnightblue" stroke="midnightblue" points="732.135,-577.875 723.226,-583.609 733.767,-584.683 732.135,-577.875"/>
</g>
<!-- Node40 -->
<g id="node84" class="node"><title>Node40</title>
<a xlink:href="../../dc/d5a/class_u_b_graphics_media_item.html#aa92cf921e88af8b52b4c7ed6466dd2d5" target="_top" xlink:title="UBGraphicsMediaItem\l::UBGraphicsMediaItem">
<polygon fill="white" stroke="red" points="815,-478 815,-512 937,-512 937,-478 815,-478"/>
<text text-anchor="start" x="823" y="-499" font-family="Helvetica,sans-Serif" font-size="10.00">UBGraphicsMediaItem</text>
<text text-anchor="middle" x="876" y="-486" font-family="Helvetica,sans-Serif" font-size="10.00">::UBGraphicsMediaItem</text>
</a>
</g>
<!-- Node38&#45;&gt;Node40 -->
<g id="edge88" class="edge"><title>Node38&#45;&gt;Node40</title>
<path fill="none" stroke="midnightblue" d="M690.036,-576.16C714.527,-559.013 750.103,-536.002 784,-521 793.714,-516.701 804.321,-512.927 814.767,-509.683"/>
<polygon fill="midnightblue" stroke="midnightblue" points="687.991,-573.319 681.856,-581.957 692.038,-579.03 687.991,-573.319"/>
</g>
<!-- Node41 -->
<g id="node86" class="node"><title>Node41</title>
<a xlink:href="../../d9/d0d/class_u_b_graphics_p_d_f_item.html#ae55063d3348b81ea8388df72069713b9" target="_top" xlink:title="UBGraphicsPDFItem:\l:UBGraphicsPDFItem">
<polygon fill="white" stroke="red" points="819.5,-426 819.5,-460 932.5,-460 932.5,-426 819.5,-426"/>
<text text-anchor="start" x="827.5" y="-447" font-family="Helvetica,sans-Serif" font-size="10.00">UBGraphicsPDFItem:</text>
<text text-anchor="middle" x="876" y="-434" font-family="Helvetica,sans-Serif" font-size="10.00">:UBGraphicsPDFItem</text>
</a>
</g>
<!-- Node38&#45;&gt;Node41 -->
<g id="edge90" class="edge"><title>Node38&#45;&gt;Node41</title>
<path fill="none" stroke="midnightblue" d="M676.662,-573.743C698.544,-544.316 738.543,-496.261 784,-469 794.676,-462.598 806.993,-457.715 819.073,-454.011"/>
<polygon fill="midnightblue" stroke="midnightblue" points="673.795,-571.734 670.724,-581.874 679.448,-575.863 673.795,-571.734"/>
</g>
<!-- Node42 -->
<g id="node88" class="node"><title>Node42</title>
<a xlink:href="../../d1/d78/class_u_b_graphics_pixmap_item.html#ad154326709d1935d96248228d21b20ae" target="_top" xlink:title="UBGraphicsPixmapItem\l::UBGraphicsPixmapItem">
<polygon fill="white" stroke="red" points="812,-778 812,-812 940,-812 940,-778 812,-778"/>
<text text-anchor="start" x="820" y="-799" font-family="Helvetica,sans-Serif" font-size="10.00">UBGraphicsPixmapItem</text>
<text text-anchor="middle" x="876" y="-786" font-family="Helvetica,sans-Serif" font-size="10.00">::UBGraphicsPixmapItem</text>
</a>
</g>
<!-- Node38&#45;&gt;Node42 -->
<g id="edge92" class="edge"><title>Node38&#45;&gt;Node42</title>
<path fill="none" stroke="midnightblue" d="M671.349,-625.457C690.261,-663.061 729.967,-731.548 784,-769 792.321,-774.768 801.9,-779.263 811.666,-782.765"/>
<polygon fill="midnightblue" stroke="midnightblue" points="674.333,-623.592 666.782,-616.16 668.05,-626.679 674.333,-623.592"/>
</g>
<!-- Node43 -->
<g id="node90" class="node"><title>Node43</title>
<a xlink:href="../../d3/d0b/class_u_b_graphics_strokes_group.html#ab3978d4c4d489c27f90baf64a506f1d8" target="_top" xlink:title="UBGraphicsStrokesGroup\l::UBGraphicsStrokesGroup">
<polygon fill="white" stroke="red" points="808,-726 808,-760 944,-760 944,-726 808,-726"/>
<text text-anchor="start" x="816" y="-747" font-family="Helvetica,sans-Serif" font-size="10.00">UBGraphicsStrokesGroup</text>
<text text-anchor="middle" x="876" y="-734" font-family="Helvetica,sans-Serif" font-size="10.00">::UBGraphicsStrokesGroup</text>
</a>
</g>
<!-- Node38&#45;&gt;Node43 -->
<g id="edge94" class="edge"><title>Node38&#45;&gt;Node43</title>
<path fill="none" stroke="midnightblue" d="M678.945,-623.951C701.653,-650.739 741.186,-692.713 784,-717 791.363,-721.177 799.443,-724.721 807.663,-727.719"/>
<polygon fill="midnightblue" stroke="midnightblue" points="681.544,-621.602 672.453,-616.161 676.167,-626.084 681.544,-621.602"/>
</g>
<!-- Node44 -->
<g id="node92" class="node"><title>Node44</title>
<a xlink:href="../../d1/dce/class_u_b_graphics_svg_item.html#aefe5ca00c7f91a56938b35611149a779" target="_top" xlink:title="UBGraphicsSvgItem::init">
<polygon fill="white" stroke="red" points="813.5,-686.5 813.5,-707.5 938.5,-707.5 938.5,-686.5 813.5,-686.5"/>
<text text-anchor="middle" x="876" y="-694.5" font-family="Helvetica,sans-Serif" font-size="10.00">UBGraphicsSvgItem::init</text>
</a>
</g>
<!-- Node38&#45;&gt;Node44 -->
<g id="edge96" class="edge"><title>Node38&#45;&gt;Node44</title>
<path fill="none" stroke="midnightblue" d="M689.335,-622.109C713.703,-639.609 749.446,-662.959 784,-677 793.237,-680.754 803.296,-683.854 813.26,-686.399"/>
<polygon fill="midnightblue" stroke="midnightblue" points="691.354,-619.249 681.211,-616.188 687.231,-624.906 691.354,-619.249"/>
</g>
<!-- Node45 -->
<g id="node94" class="node"><title>Node45</title>
<a xlink:href="../../da/d65/class_u_b_graphics_text_item.html#acbf06a6d840ac7b6c95950e39dcd94b9" target="_top" xlink:title="UBGraphicsTextItem\l::UBGraphicsTextItem">
<polygon fill="white" stroke="red" points="818.5,-634 818.5,-668 933.5,-668 933.5,-634 818.5,-634"/>
<text text-anchor="start" x="826.5" y="-655" font-family="Helvetica,sans-Serif" font-size="10.00">UBGraphicsTextItem</text>
<text text-anchor="middle" x="876" y="-642" font-family="Helvetica,sans-Serif" font-size="10.00">::UBGraphicsTextItem</text>
</a>
</g>
<!-- Node38&#45;&gt;Node45 -->
<g id="edge98" class="edge"><title>Node38&#45;&gt;Node45</title>
<path fill="none" stroke="midnightblue" d="M733.291,-616.802C761.06,-623.457 792.16,-630.909 818.221,-637.154"/>
<polygon fill="midnightblue" stroke="midnightblue" points="733.767,-613.317 723.226,-614.391 732.135,-620.125 733.767,-613.317"/>
</g>
<!-- Node46 -->
<g id="node96" class="node"><title>Node46</title>
<a xlink:href="../../d0/d16/class_u_b_graphics_widget_item.html#ac1a304e8be3f2ece6dd370210f25c90b" target="_top" xlink:title="UBGraphicsWidgetItem\l::UBGraphicsWidgetItem">
<polygon fill="white" stroke="black" points="813,-582 813,-616 939,-616 939,-582 813,-582"/>
<text text-anchor="start" x="821" y="-603" font-family="Helvetica,sans-Serif" font-size="10.00">UBGraphicsWidgetItem</text>
<text text-anchor="middle" x="876" y="-590" font-family="Helvetica,sans-Serif" font-size="10.00">::UBGraphicsWidgetItem</text>
</a>
</g>
<!-- Node38&#45;&gt;Node46 -->
<g id="edge100" class="edge"><title>Node38&#45;&gt;Node46</title>
<path fill="none" stroke="midnightblue" d="M733.339,-599C759.156,-599 787.845,-599 812.687,-599"/>
<polygon fill="midnightblue" stroke="midnightblue" points="733.226,-595.5 723.226,-599 733.226,-602.5 733.226,-595.5"/>
</g>
<!-- Node48&#45;&gt;Node32 -->
<g id="edge108" class="edge"><title>Node48&#45;&gt;Node32</title>
<path fill="none" stroke="midnightblue" d="M507.326,-83.284C632.093,-85.8545 910.391,-91.5881 1025.09,-93.9511"/>
<polygon fill="midnightblue" stroke="midnightblue" points="507.244,-79.7817 497.174,-83.0749 507.1,-86.7802 507.244,-79.7817"/>
</g>
<!-- Node50 -->
<g id="node106" class="node"><title>Node50</title>
<a xlink:href="../../d5/d85/class_u_b_features_widget.html#a8afc3d83bd8b57f0260c1269f63b435a" target="_top" xlink:title="UBFeaturesWidget::UBFeatures\lWidget">
<polygon fill="white" stroke="black" points="366,-0 366,-34 524,-34 524,-0 366,-0"/>
<text text-anchor="start" x="374" y="-21" font-family="Helvetica,sans-Serif" font-size="10.00">UBFeaturesWidget::UBFeatures</text>
<text text-anchor="middle" x="445" y="-8" font-family="Helvetica,sans-Serif" font-size="10.00">Widget</text>
</a>
</g>
<!-- Node49&#45;&gt;Node50 -->
<g id="edge112" class="edge"><title>Node49&#45;&gt;Node50</title>
<path fill="none" stroke="midnightblue" d="M320.033,-17C335.218,-17 350.982,-17 365.989,-17"/>
<polygon fill="midnightblue" stroke="midnightblue" points="319.629,-13.5001 309.629,-17 319.629,-20.5001 319.629,-13.5001"/>
</g>
</g>
</svg>
