<?xml version="1.0" encoding="UTF-8" standalone="no"?>
<!DOCTYPE svg PUBLIC "-//W3C//DTD SVG 1.1//EN"
 "http://www.w3.org/Graphics/SVG/1.1/DTD/svg11.dtd">
<!-- Generated by graphviz version 2.26.3 (20100126.1600)
 -->
<!-- Title: UBFileSystemUtils::copy Pages: 1 -->
<!--zoomable 238 -->
<svg id="main" version="1.1" xmlns="http://www.w3.org/2000/svg" xmlns:xlink="http://www.w3.org/1999/xlink" xml:space="preserve" onload="init(evt)">
        <defs>
                <circle id="rim" cx="0" cy="0" r="7"/>
                <circle id="rim2" cx="0" cy="0" r="3.5"/>
                <g id="zoomPlus">
                        <use xlink:href="#rim" fill="#404040">
                                <set attributeName="fill" to="#808080" begin="zoomplus.mouseover" end="zoomplus.mouseout"/>
                        </use>
                        <path d="M-4,0h8M0,-4v8" fill="none" stroke="white" stroke-width="1.5" pointer-events="none"/>
                </g>
                <g id="zoomMin">
                        <use xlink:href="#rim" fill="#404040">
                                <set attributeName="fill" to="#808080" begin="zoomminus.mouseover" end="zoomminus.mouseout"/>
                        </use>
                        <path d="M-4,0h8" fill="none" stroke="white" stroke-width="1.5" pointer-events="none"/>
                </g>
                <g id="dirArrow">
                        <path fill="none" stroke="white" stroke-width="1.5" d="M0,-3.0v7 M-2.5,-0.5L0,-3.0L2.5,-0.5"/>
                </g>
               <g id="resetDef">
                       <use xlink:href="#rim2" fill="#404040">
                               <set attributeName="fill" to="#808080" begin="reset.mouseover" end="reset.mouseout"/>
                       </use>
               </g>
        </defs>

<script type="text/javascript">
var viewWidth = 1048;
var viewHeight = 238;
var sectionId = 'dynsection-8';
</script>
<script xlink:href="../../svgpan.js"/>
<svg id="graph" class="graph">
<g id="viewport">
<title>UBFileSystemUtils::copy</title>
<polygon fill="white" stroke="white" points="-4,5 -4,-234 1045,-234 1045,5 -4,5"/>
<!-- Node1 -->
<g id="node1" class="node"><title>Node1</title>
<polygon fill="#bfbfbf" stroke="black" points="0,-58.5 0,-79.5 128,-79.5 128,-58.5 0,-58.5"/>
<text text-anchor="middle" x="64" y="-66.5" font-family="Helvetica,sans-Serif" font-size="10.00">UBFileSystemUtils::copy</text>
</g>
<!-- Node2 -->
<g id="node3" class="node"><title>Node2</title>
<a xlink:href="../../d8/d33/class_u_b_features_controller.html#af852c30775bb491b411d2886a6fd52eb" target="_top" xlink:title="UBFeaturesController\l::moveExternalData">
<polygon fill="white" stroke="black" points="184.5,-170 184.5,-204 295.5,-204 295.5,-170 184.5,-170"/>
<text text-anchor="start" x="192.5" y="-191" font-family="Helvetica,sans-Serif" font-size="10.00">UBFeaturesController</text>
<text text-anchor="middle" x="240" y="-178" font-family="Helvetica,sans-Serif" font-size="10.00">::moveExternalData</text>
</a>
</g>
<!-- Node1&#45;&gt;Node2 -->
<g id="edge2" class="edge"><title>Node1&#45;&gt;Node2</title>
<path fill="none" stroke="midnightblue" d="M88.571,-85.4737C121.777,-107.737 180.694,-147.238 214.415,-169.846"/>
<polygon fill="midnightblue" stroke="midnightblue" points="90.1843,-82.3415 79.9292,-79.6798 86.2861,-88.1557 90.1843,-82.3415"/>
</g>
<!-- Node4 -->
<g id="node7" class="node"><title>Node4</title>
<a xlink:href="../../d5/d7a/class_u_b_features_model.html#ad30ab5e1a702838c8664cbfcebad1606" target="_top" xlink:title="UBFeaturesModel::moveData">
<polygon fill="white" stroke="black" points="167,-104.5 167,-125.5 313,-125.5 313,-104.5 167,-104.5"/>
<text text-anchor="middle" x="240" y="-112.5" font-family="Helvetica,sans-Serif" font-size="10.00">UBFeaturesModel::moveData</text>
</a>
</g>
<!-- Node1&#45;&gt;Node4 -->
<g id="edge6" class="edge"><title>Node1&#45;&gt;Node4</title>
<path fill="none" stroke="midnightblue" d="M114.089,-82.0913C141.246,-89.1892 174.358,-97.8437 199.81,-104.496"/>
<polygon fill="midnightblue" stroke="midnightblue" points="114.938,-78.6958 104.378,-79.5533 113.168,-85.4684 114.938,-78.6958"/>
</g>
<!-- Node10 -->
<g id="node20" class="node"><title>Node10</title>
<a xlink:href="../../d2/d7a/class_u_b_file_system_utils.html#a21fb5e77a59d910b4aa94a0e71f04578" target="_top" xlink:title="UBFileSystemUtils:\l:copyFile">
<polygon fill="white" stroke="black" points="188,-52 188,-86 292,-86 292,-52 188,-52"/>
<text text-anchor="start" x="196" y="-73" font-family="Helvetica,sans-Serif" font-size="10.00">UBFileSystemUtils:</text>
<text text-anchor="middle" x="240" y="-60" font-family="Helvetica,sans-Serif" font-size="10.00">:copyFile</text>
</a>
</g>
<!-- Node1&#45;&gt;Node10 -->
<g id="edge20" class="edge"><title>Node1&#45;&gt;Node10</title>
<path fill="none" stroke="midnightblue" d="M138.305,-62.3232C154.969,-62.1438 172.304,-62.2942 187.842,-62.7745"/>
<polygon fill="midnightblue" stroke="midnightblue" points="137.984,-58.8275 128.038,-62.4775 138.089,-65.8267 137.984,-58.8275"/>
</g>
<!-- Node14 -->
<g id="node29" class="node"><title>Node14</title>
<a xlink:href="../../dc/d24/class_u_b_import_document_set_adaptor.html#a119a7f90a0176d6ee334a505815f1713" target="_top" xlink:title="UBImportDocumentSetAdaptor\l::importData">
<polygon fill="white" stroke="black" points="164,-0 164,-34 316,-34 316,-0 164,-0"/>
<text text-anchor="start" x="172" y="-21" font-family="Helvetica,sans-Serif" font-size="10.00">UBImportDocumentSetAdaptor</text>
<text text-anchor="middle" x="240" y="-8" font-family="Helvetica,sans-Serif" font-size="10.00">::importData</text>
</a>
</g>
<!-- Node1&#45;&gt;Node14 -->
<g id="edge30" class="edge"><title>Node1&#45;&gt;Node14</title>
<path fill="none" stroke="midnightblue" d="M109.454,-55.5704C131.658,-49.0102 158.621,-41.0439 182.264,-34.0582"/>
<polygon fill="midnightblue" stroke="midnightblue" points="108.215,-52.2869 99.6162,-58.477 110.198,-59.0001 108.215,-52.2869"/>
</g>
<!-- Node3 -->
<g id="node5" class="node"><title>Node3</title>
<a xlink:href="../../d5/d85/class_u_b_features_widget.html#aab4acbb5fa9d8fba519660c781105d78" target="_top" xlink:title="UBFeaturesWidget::import\lFromUrl">
<polygon fill="white" stroke="black" points="368.5,-196 368.5,-230 501.5,-230 501.5,-196 368.5,-196"/>
<text text-anchor="start" x="376.5" y="-217" font-family="Helvetica,sans-Serif" font-size="10.00">UBFeaturesWidget::import</text>
<text text-anchor="middle" x="435" y="-204" font-family="Helvetica,sans-Serif" font-size="10.00">FromUrl</text>
</a>
</g>
<!-- Node2&#45;&gt;Node3 -->
<g id="edge4" class="edge"><title>Node2&#45;&gt;Node3</title>
<path fill="none" stroke="midnightblue" d="M305.643,-195.752C325.804,-198.44 348.006,-201.401 368.241,-204.099"/>
<polygon fill="midnightblue" stroke="midnightblue" points="305.993,-192.268 295.618,-194.416 305.068,-199.207 305.993,-192.268"/>
</g>
<!-- Node5 -->
<g id="node9" class="node"><title>Node5</title>
<a xlink:href="../../d8/d33/class_u_b_features_controller.html#abf82ec95b8742869c7463f968c584164" target="_top" xlink:title="UBFeaturesController\l::moveToTrash">
<polygon fill="white" stroke="black" points="379.5,-144 379.5,-178 490.5,-178 490.5,-144 379.5,-144"/>
<text text-anchor="start" x="387.5" y="-165" font-family="Helvetica,sans-Serif" font-size="10.00">UBFeaturesController</text>
<text text-anchor="middle" x="435" y="-152" font-family="Helvetica,sans-Serif" font-size="10.00">::moveToTrash</text>
</a>
</g>
<!-- Node4&#45;&gt;Node5 -->
<g id="edge8" class="edge"><title>Node4&#45;&gt;Node5</title>
<path fill="none" stroke="midnightblue" d="M294.591,-127.878C321.03,-134.115 352.728,-141.592 379.31,-147.863"/>
<polygon fill="midnightblue" stroke="midnightblue" points="295.273,-124.443 284.737,-125.553 293.666,-131.256 295.273,-124.443"/>
</g>
<!-- Node9 -->
<g id="node18" class="node"><title>Node9</title>
<a xlink:href="../../d5/d7a/class_u_b_features_model.html#ad09e3d23fe39f4e9f727b38b6ebac1ea" target="_top" xlink:title="UBFeaturesModel::dropMimeData">
<polygon fill="white" stroke="black" points="352.5,-104.5 352.5,-125.5 517.5,-125.5 517.5,-104.5 352.5,-104.5"/>
<text text-anchor="middle" x="435" y="-112.5" font-family="Helvetica,sans-Serif" font-size="10.00">UBFeaturesModel::dropMimeData</text>
</a>
</g>
<!-- Node4&#45;&gt;Node9 -->
<g id="edge18" class="edge"><title>Node4&#45;&gt;Node9</title>
<path fill="none" stroke="midnightblue" d="M323.435,-115C332.983,-115 342.713,-115 352.252,-115"/>
<polygon fill="midnightblue" stroke="midnightblue" points="323.166,-111.5 313.166,-115 323.166,-118.5 323.166,-111.5"/>
</g>
<!-- Node6 -->
<g id="node11" class="node"><title>Node6</title>
<a xlink:href="../../d5/d85/class_u_b_features_widget.html#abc29fb21f0baf7df508ed6bd7e8254b4" target="_top" xlink:title="UBFeaturesWidget::delete\lElements">
<polygon fill="white" stroke="black" points="554,-176 554,-210 686,-210 686,-176 554,-176"/>
<text text-anchor="start" x="562" y="-197" font-family="Helvetica,sans-Serif" font-size="10.00">UBFeaturesWidget::delete</text>
<text text-anchor="middle" x="620" y="-184" font-family="Helvetica,sans-Serif" font-size="10.00">Elements</text>
</a>
</g>
<!-- Node5&#45;&gt;Node6 -->
<g id="edge10" class="edge"><title>Node5&#45;&gt;Node6</title>
<path fill="none" stroke="midnightblue" d="M500.502,-172.33C517.785,-175.32 536.447,-178.548 553.768,-181.544"/>
<polygon fill="midnightblue" stroke="midnightblue" points="500.956,-168.857 490.506,-170.601 499.763,-175.754 500.956,-168.857"/>
</g>
<!-- Node8 -->
<g id="node15" class="node"><title>Node8</title>
<a xlink:href="../../d5/d85/class_u_b_features_widget.html#a0b6f83c32353a933b4356b21f0aa1f0c" target="_top" xlink:title="UBFeaturesWidget::delete\lSelectedElements">
<polygon fill="white" stroke="black" points="554,-124 554,-158 686,-158 686,-124 554,-124"/>
<text text-anchor="start" x="562" y="-145" font-family="Helvetica,sans-Serif" font-size="10.00">UBFeaturesWidget::delete</text>
<text text-anchor="middle" x="620" y="-132" font-family="Helvetica,sans-Serif" font-size="10.00">SelectedElements</text>
</a>
</g>
<!-- Node5&#45;&gt;Node8 -->
<g id="edge14" class="edge"><title>Node5&#45;&gt;Node8</title>
<path fill="none" stroke="midnightblue" d="M500.502,-153.919C517.785,-152.05 536.447,-150.033 553.768,-148.16"/>
<polygon fill="midnightblue" stroke="midnightblue" points="500.072,-150.445 490.506,-154.999 500.824,-157.404 500.072,-150.445"/>
</g>
<!-- Node7 -->
<g id="node13" class="node"><title>Node7</title>
<a xlink:href="../../d5/d85/class_u_b_features_widget.html#a8afc3d83bd8b57f0260c1269f63b435a" target="_top" xlink:title="UBFeaturesWidget::UBFeatures\lWidget">
<polygon fill="white" stroke="black" points="722,-150 722,-184 880,-184 880,-150 722,-150"/>
<text text-anchor="start" x="730" y="-171" font-family="Helvetica,sans-Serif" font-size="10.00">UBFeaturesWidget::UBFeatures</text>
<text text-anchor="middle" x="801" y="-158" font-family="Helvetica,sans-Serif" font-size="10.00">Widget</text>
</a>
</g>
<!-- Node6&#45;&gt;Node7 -->
<g id="edge12" class="edge"><title>Node6&#45;&gt;Node7</title>
<path fill="none" stroke="midnightblue" d="M696.031,-182.078C704.564,-180.853 713.273,-179.602 721.845,-178.37"/>
<polygon fill="midnightblue" stroke="midnightblue" points="695.514,-178.617 686.113,-183.503 696.51,-185.546 695.514,-178.617"/>
</g>
<!-- Node8&#45;&gt;Node7 -->
<g id="edge16" class="edge"><title>Node8&#45;&gt;Node7</title>
<path fill="none" stroke="midnightblue" d="M696.031,-151.922C704.564,-153.147 713.273,-154.398 721.845,-155.63"/>
<polygon fill="midnightblue" stroke="midnightblue" points="696.51,-148.454 686.113,-150.497 695.514,-155.383 696.51,-148.454"/>
</g>
<!-- Node10&#45;&gt;Node1 -->
<g id="edge22" class="edge"><title>Node10&#45;&gt;Node1</title>
<path fill="none" stroke="midnightblue" d="M177.499,-75.4916C161.45,-75.8255 144.163,-75.8358 128.038,-75.5225"/>
<polygon fill="midnightblue" stroke="midnightblue" points="177.935,-78.9816 187.842,-75.2255 177.755,-71.9839 177.935,-78.9816"/>
</g>
<!-- Node11 -->
<g id="node23" class="node"><title>Node11</title>
<a xlink:href="../../d5/d2b/class_u_b_widget_uniboard_a_p_i.html#a13f03a053e653a433b7d774ae0aa84dd" target="_top" xlink:title="UBWidgetUniboardAPI\l::ProcessDropEvent">
<polygon fill="white" stroke="black" points="376.5,-52 376.5,-86 493.5,-86 493.5,-52 376.5,-52"/>
<text text-anchor="start" x="384.5" y="-73" font-family="Helvetica,sans-Serif" font-size="10.00">UBWidgetUniboardAPI</text>
<text text-anchor="middle" x="435" y="-60" font-family="Helvetica,sans-Serif" font-size="10.00">::ProcessDropEvent</text>
</a>
</g>
<!-- Node10&#45;&gt;Node11 -->
<g id="edge24" class="edge"><title>Node10&#45;&gt;Node11</title>
<path fill="none" stroke="midnightblue" d="M302.29,-69C325.991,-69 352.899,-69 376.261,-69"/>
<polygon fill="midnightblue" stroke="midnightblue" points="302,-65.5001 292,-69 302,-72.5001 302,-65.5001"/>
</g>
<!-- Node12 -->
<g id="node25" class="node"><title>Node12</title>
<a xlink:href="../../d0/d16/class_u_b_graphics_widget_item.html#ab94d12c758de5bfd42363815a66137b3" target="_top" xlink:title="UBGraphicsWidgetItem\l::processDropEvent">
<polygon fill="white" stroke="black" points="560,-52 560,-86 680,-86 680,-52 560,-52"/>
<text text-anchor="start" x="568" y="-73" font-family="Helvetica,sans-Serif" font-size="10.00">UBGraphicsWidgetItem</text>
<text text-anchor="middle" x="620" y="-60" font-family="Helvetica,sans-Serif" font-size="10.00">::processDropEvent</text>
</a>
</g>
<!-- Node11&#45;&gt;Node12 -->
<g id="edge26" class="edge"><title>Node11&#45;&gt;Node12</title>
<path fill="none" stroke="midnightblue" d="M503.641,-69C522.12,-69 541.963,-69 559.936,-69"/>
<polygon fill="midnightblue" stroke="midnightblue" points="503.535,-65.5001 493.535,-69 503.535,-72.5001 503.535,-65.5001"/>
</g>
<!-- Node13 -->
<g id="node27" class="node"><title>Node13</title>
<a xlink:href="../../d0/d16/class_u_b_graphics_widget_item.html#adf3606e613c7887cb64bb622d6b69b8b" target="_top" xlink:title="UBGraphicsWidgetItem\l::dropEvent">
<polygon fill="white" stroke="black" points="741,-52 741,-86 861,-86 861,-52 741,-52"/>
<text text-anchor="start" x="749" y="-73" font-family="Helvetica,sans-Serif" font-size="10.00">UBGraphicsWidgetItem</text>
<text text-anchor="middle" x="801" y="-60" font-family="Helvetica,sans-Serif" font-size="10.00">::dropEvent</text>
</a>
</g>
<!-- Node12&#45;&gt;Node13 -->
<g id="edge28" class="edge"><title>Node12&#45;&gt;Node13</title>
<path fill="none" stroke="midnightblue" d="M690.269,-69C706.968,-69 724.634,-69 740.835,-69"/>
<polygon fill="midnightblue" stroke="midnightblue" points="690.019,-65.5001 680.019,-69 690.019,-72.5001 690.019,-65.5001"/>
</g>
<!-- Node15 -->
<g id="node31" class="node"><title>Node15</title>
<a xlink:href="../../d2/da1/class_u_b_document_manager.html#a4bb8d2901316ff82dbddc600414bd616" target="_top" xlink:title="UBDocumentManager:\l:importUbx">
<polygon fill="white" stroke="black" points="377,-0 377,-34 493,-34 493,-0 377,-0"/>
<text text-anchor="start" x="385" y="-21" font-family="Helvetica,sans-Serif" font-size="10.00">UBDocumentManager:</text>
<text text-anchor="middle" x="435" y="-8" font-family="Helvetica,sans-Serif" font-size="10.00">:importUbx</text>
</a>
</g>
<!-- Node14&#45;&gt;Node15 -->
<g id="edge32" class="edge"><title>Node14&#45;&gt;Node15</title>
<path fill="none" stroke="midnightblue" d="M326.254,-17C343.398,-17 361.013,-17 376.939,-17"/>
<polygon fill="midnightblue" stroke="midnightblue" points="326.23,-13.5001 316.23,-17 326.23,-20.5001 326.23,-13.5001"/>
</g>
<!-- Node16 -->
<g id="node33" class="node"><title>Node16</title>
<a xlink:href="../../d6/de0/class_u_b_document_controller.html#af5065d414f3ca99eee1d7c21930bde29" target="_top" xlink:title="UBDocumentController\l::importFile">
<polygon fill="white" stroke="black" points="561,-0 561,-34 679,-34 679,-0 561,-0"/>
<text text-anchor="start" x="569" y="-21" font-family="Helvetica,sans-Serif" font-size="10.00">UBDocumentController</text>
<text text-anchor="middle" x="620" y="-8" font-family="Helvetica,sans-Serif" font-size="10.00">::importFile</text>
</a>
</g>
<!-- Node15&#45;&gt;Node16 -->
<g id="edge34" class="edge"><title>Node15&#45;&gt;Node16</title>
<path fill="none" stroke="midnightblue" d="M503.091,-17C522.058,-17 542.5,-17 560.904,-17"/>
<polygon fill="midnightblue" stroke="midnightblue" points="503.028,-13.5001 493.028,-17 503.028,-20.5001 503.028,-13.5001"/>
</g>
<!-- Node17 -->
<g id="node35" class="node"><title>Node17</title>
<a xlink:href="../../d6/de0/class_u_b_document_controller.html#abb172787a34a34cd3c2df0a1b46918c5" target="_top" xlink:title="UBDocumentController\l::setupViews">
<polygon fill="white" stroke="black" points="742,-0 742,-34 860,-34 860,-0 742,-0"/>
<text text-anchor="start" x="750" y="-21" font-family="Helvetica,sans-Serif" font-size="10.00">UBDocumentController</text>
<text text-anchor="middle" x="801" y="-8" font-family="Helvetica,sans-Serif" font-size="10.00">::setupViews</text>
</a>
</g>
<!-- Node16&#45;&gt;Node17 -->
<g id="edge36" class="edge"><title>Node16&#45;&gt;Node17</title>
<path fill="none" stroke="midnightblue" d="M689.33,-17C706.673,-17 725.115,-17 741.91,-17"/>
<polygon fill="midnightblue" stroke="midnightblue" points="689.266,-13.5001 679.266,-17 689.266,-20.5001 689.266,-13.5001"/>
</g>
<!-- Node18 -->
<g id="node37" class="node"><title>Node18</title>
<a xlink:href="../../d6/de0/class_u_b_document_controller.html#a38e9ea0a2dad2b1c8d9588563e9ee3bf" target="_top" xlink:title="UBDocumentController\l::UBDocumentController">
<polygon fill="white" stroke="black" points="916,-0 916,-34 1040,-34 1040,-0 916,-0"/>
<text text-anchor="start" x="924" y="-21" font-family="Helvetica,sans-Serif" font-size="10.00">UBDocumentController</text>
<text text-anchor="middle" x="978" y="-8" font-family="Helvetica,sans-Serif" font-size="10.00">::UBDocumentController</text>
</a>
</g>
<!-- Node17&#45;&gt;Node18 -->
<g id="edge38" class="edge"><title>Node17&#45;&gt;Node18</title>
<path fill="none" stroke="midnightblue" d="M870.594,-17C885.478,-17 901.11,-17 915.699,-17"/>
<polygon fill="midnightblue" stroke="midnightblue" points="870.431,-13.5001 860.431,-17 870.431,-20.5001 870.431,-13.5001"/>
</g>
</g>
</svg>
        <g id="navigator" transform="translate(0 0)" fill="#404254">
                <rect fill="#f2f5e9" fill-opacity="0.5" stroke="#606060" stroke-width=".5" x="0" y="0" width="60" height="60"/>
                <use id="zoomplus" xlink:href="#zoomPlus" x="17" y="9" onmousedown="handleZoom(evt,'in')"/>
                <use id="zoomminus" xlink:href="#zoomMin" x="42" y="9" onmousedown="handleZoom(evt,'out')"/>
                <use id="reset" xlink:href="#resetDef" x="30" y="36" onmousedown="handleReset()"/>
                <g id="arrowUp" xlink:href="#dirArrow" transform="translate(30 24)" onmousedown="handlePan(0,-1)">
                  <use xlink:href="#rim" fill="#404040">
                        <set attributeName="fill" to="#808080" begin="arrowUp.mouseover" end="arrowUp.mouseout"/>
                  </use>
                  <path fill="none" stroke="white" stroke-width="1.5" d="M0,-3.0v7 M-2.5,-0.5L0,-3.0L2.5,-0.5"/>
                </g>
                <g id="arrowRight" xlink:href="#dirArrow" transform="rotate(90) translate(36 -43)" onmousedown="handlePan(1,0)">
                  <use xlink:href="#rim" fill="#404040">
                        <set attributeName="fill" to="#808080" begin="arrowRight.mouseover" end="arrowRight.mouseout"/>
                  </use>
                  <path fill="none" stroke="white" stroke-width="1.5" d="M0,-3.0v7 M-2.5,-0.5L0,-3.0L2.5,-0.5"/>
                </g>
                <g id="arrowDown" xlink:href="#dirArrow" transform="rotate(180) translate(-30 -48)" onmousedown="handlePan(0,1)">
                  <use xlink:href="#rim" fill="#404040">
                        <set attributeName="fill" to="#808080" begin="arrowDown.mouseover" end="arrowDown.mouseout"/>
                  </use>
                  <path fill="none" stroke="white" stroke-width="1.5" d="M0,-3.0v7 M-2.5,-0.5L0,-3.0L2.5,-0.5"/>
                </g>
                <g id="arrowLeft" xlink:href="#dirArrow" transform="rotate(270) translate(-36 17)" onmousedown="handlePan(-1,0)">
                  <use xlink:href="#rim" fill="#404040">
                        <set attributeName="fill" to="#808080" begin="arrowLeft.mouseover" end="arrowLeft.mouseout"/>
                  </use>
                  <path fill="none" stroke="white" stroke-width="1.5" d="M0,-3.0v7 M-2.5,-0.5L0,-3.0L2.5,-0.5"/>
                </g>
        </g>
        <svg viewBox="0 0 15 15" width="100%" height="30px" preserveAspectRatio="xMaxYMin meet">
         <g id="arrow_out" transform="scale(0.3 0.3)">
          <a xlink:href="class_u_b_file_system_utils_a6fbd2eaf3729eead6e9a8a85e230af96_icgraph_org.svg" target="_base">
           <rect id="button" ry="5" rx="5" y="6" x="6" height="38" width="38"
                fill="#f2f5e9" fill-opacity="0.5" stroke="#606060" stroke-width="1.0"/>
           <path id="arrow"
             d="M 11.500037,31.436501 C 11.940474,20.09759 22.043105,11.32322 32.158766,21.979434 L 37.068811,17.246167 C 37.068811,17.246167 37.088388,32 37.088388,32 L 22.160133,31.978069 C 22.160133,31.978069 26.997745,27.140456 26.997745,27.140456 C 18.528582,18.264221 13.291696,25.230495 11.500037,31.436501 z"
             style="fill:#404040;"/>
          </a>
         </g>
        </svg>
</svg>
