<?xml version="1.0" encoding="UTF-8" standalone="no"?>
<!DOCTYPE svg PUBLIC "-//W3C//DTD SVG 1.1//EN"
 "http://www.w3.org/Graphics/SVG/1.1/DTD/svg11.dtd">
<!-- Generated by graphviz version 2.26.3 (20100126.1600)
 -->
<!-- Title: Sankore&#45;3.1/src/podcast/quicktime/UBQuickTimeVideoEncoder.cpp Pages: 1 -->
<svg width="1920pt" height="420pt"
 viewBox="0.00 0.00 1920.00 420.00" xmlns="http://www.w3.org/2000/svg" xmlns:xlink="http://www.w3.org/1999/xlink">
<g id="graph1" class="graph" transform="scale(1 1) rotate(0) translate(4 416)">
<title>Sankore&#45;3.1/src/podcast/quicktime/UBQuickTimeVideoEncoder.cpp</title>
<polygon fill="white" stroke="white" points="-4,5 -4,-416 1917,-416 1917,5 -4,5"/>
<!-- Node1 -->
<g id="node1" class="node"><title>Node1</title>
<polygon fill="#bfbfbf" stroke="black" points="658,-377 658,-411 864,-411 864,-377 658,-377"/>
<text text-anchor="start" x="666" y="-398" font-family="Helvetica,sans-Serif" font-size="10.00">Sankore&#45;3.1/src/podcast</text>
<text text-anchor="middle" x="761" y="-385" font-family="Helvetica,sans-Serif" font-size="10.00">/quicktime/UBQuickTimeVideoEncoder.cpp</text>
</g>
<!-- Node2 -->
<g id="node3" class="node"><title>Node2</title>
<a xlink:href="../../d3/d9a/_u_b_quick_time_video_encoder_8h.html" target="_top" xlink:title="UBQuickTimeVideoEncoder.h">
<polygon fill="white" stroke="black" points="239.5,-253.5 239.5,-274.5 386.5,-274.5 386.5,-253.5 239.5,-253.5"/>
<text text-anchor="middle" x="313" y="-261.5" font-family="Helvetica,sans-Serif" font-size="10.00">UBQuickTimeVideoEncoder.h</text>
</a>
</g>
<!-- Node1&#45;&gt;Node2 -->
<g id="edge2" class="edge"><title>Node1&#45;&gt;Node2</title>
<path fill="none" stroke="midnightblue" d="M678.021,-376.999C633.526,-367.303 577.935,-354.257 529,-340 464.911,-321.327 391.964,-294.452 349.354,-278.168"/>
<polygon fill="midnightblue" stroke="midnightblue" points="350.557,-274.881 339.967,-274.565 348.049,-281.416 350.557,-274.881"/>
</g>
<!-- Node3 -->
<g id="node5" class="node"><title>Node3</title>
<polygon fill="white" stroke="#bfbfbf" points="898,-0.5 898,-21.5 940,-21.5 940,-0.5 898,-0.5"/>
<text text-anchor="middle" x="919" y="-8.5" font-family="Helvetica,sans-Serif" font-size="10.00">QtGui</text>
</g>
<!-- Node1&#45;&gt;Node3 -->
<g id="edge32" class="edge"><title>Node1&#45;&gt;Node3</title>
<path fill="none" stroke="midnightblue" d="M864.269,-391.623C1060.04,-386.436 1478.17,-371.918 1619,-340 1700.11,-321.617 1790,-347.168 1790,-264 1790,-264 1790,-264 1790,-141 1790,-54.3087 1106.32,-19.187 950.397,-12.304"/>
<polygon fill="midnightblue" stroke="midnightblue" points="950.241,-8.79406 940.099,-11.8569 949.938,-15.7875 950.241,-8.79406"/>
</g>
<!-- Node6 -->
<g id="node11" class="node"><title>Node6</title>
<a xlink:href="../../d4/d28/_u_b_quick_time_file_8h.html" target="_top" xlink:title="UBQuickTimeFile.h">
<polygon fill="white" stroke="black" points="145,-188.5 145,-209.5 247,-209.5 247,-188.5 145,-188.5"/>
<text text-anchor="middle" x="196" y="-196.5" font-family="Helvetica,sans-Serif" font-size="10.00">UBQuickTimeFile.h</text>
</a>
</g>
<!-- Node1&#45;&gt;Node6 -->
<g id="edge102" class="edge"><title>Node1&#45;&gt;Node6</title>
<path fill="none" stroke="midnightblue" d="M657.907,-383.987C522.352,-368.882 293.991,-336.131 231,-282 212.459,-266.067 203.511,-238.645 199.354,-219.705"/>
<polygon fill="midnightblue" stroke="midnightblue" points="202.752,-218.842 197.423,-209.685 195.879,-220.166 202.752,-218.842"/>
</g>
<!-- Node8 -->
<g id="node16" class="node"><title>Node8</title>
<polygon fill="white" stroke="#bfbfbf" points="379,-130.5 379,-151.5 501,-151.5 501,-130.5 379,-130.5"/>
<text text-anchor="middle" x="440" y="-138.5" font-family="Helvetica,sans-Serif" font-size="10.00">QuickTime/QuickTime.h</text>
</g>
<!-- Node1&#45;&gt;Node8 -->
<g id="edge30" class="edge"><title>Node1&#45;&gt;Node8</title>
<path fill="none" stroke="midnightblue" d="M711.03,-376.836C666.551,-359.272 602.442,-328.002 562,-282 532.247,-248.157 553.795,-221.806 524,-188 511.83,-174.192 494.584,-163.566 478.881,-155.939"/>
<polygon fill="midnightblue" stroke="midnightblue" points="479.912,-152.561 469.363,-151.576 476.995,-158.925 479.912,-152.561"/>
</g>
<!-- Node11 -->
<g id="node28" class="node"><title>Node11</title>
<a xlink:href="../../d2/db5/_u_b_file_system_utils_8h.html" target="_top" xlink:title="frameworks/UBFileSystemUtils.h">
<polygon fill="white" stroke="black" points="570.5,-253.5 570.5,-274.5 733.5,-274.5 733.5,-253.5 570.5,-253.5"/>
<text text-anchor="middle" x="652" y="-261.5" font-family="Helvetica,sans-Serif" font-size="10.00">frameworks/UBFileSystemUtils.h</text>
</a>
</g>
<!-- Node1&#45;&gt;Node11 -->
<g id="edge34" class="edge"><title>Node1&#45;&gt;Node11</title>
<path fill="none" stroke="midnightblue" d="M746.526,-376.737C725.922,-352.164 688.31,-307.305 667.275,-282.218"/>
<polygon fill="midnightblue" stroke="midnightblue" points="669.933,-279.941 660.826,-274.527 664.569,-284.438 669.933,-279.941"/>
</g>
<!-- Node14 -->
<g id="node36" class="node"><title>Node14</title>
<a xlink:href="../../db/d54/_u_b_application_8h.html" target="_top" xlink:title="core/UBApplication.h">
<polygon fill="white" stroke="black" points="1024.5,-318.5 1024.5,-339.5 1133.5,-339.5 1133.5,-318.5 1024.5,-318.5"/>
<text text-anchor="middle" x="1079" y="-326.5" font-family="Helvetica,sans-Serif" font-size="10.00">core/UBApplication.h</text>
</a>
</g>
<!-- Node1&#45;&gt;Node14 -->
<g id="edge44" class="edge"><title>Node1&#45;&gt;Node14</title>
<path fill="none" stroke="midnightblue" d="M844.551,-376.922C898.781,-365.837 968.255,-351.637 1017.46,-341.579"/>
<polygon fill="midnightblue" stroke="midnightblue" points="1018.23,-344.994 1027.33,-339.562 1016.83,-338.136 1018.23,-344.994"/>
</g>
<!-- Node30 -->
<g id="node72" class="node"><title>Node30</title>
<a xlink:href="../../d1/d92/_u_b_settings_8h.html" target="_top" xlink:title="core/UBSettings.h">
<polygon fill="white" stroke="black" points="802.5,-130.5 802.5,-151.5 899.5,-151.5 899.5,-130.5 802.5,-130.5"/>
<text text-anchor="middle" x="851" y="-138.5" font-family="Helvetica,sans-Serif" font-size="10.00">core/UBSettings.h</text>
</a>
</g>
<!-- Node1&#45;&gt;Node30 -->
<g id="edge98" class="edge"><title>Node1&#45;&gt;Node30</title>
<path fill="none" stroke="midnightblue" d="M756.525,-376.971C747.735,-339.607 732.102,-248.921 769,-188 777.8,-173.471 792.89,-163.008 807.745,-155.697"/>
<polygon fill="midnightblue" stroke="midnightblue" points="809.243,-158.861 816.906,-151.544 806.353,-152.485 809.243,-158.861"/>
</g>
<!-- Node32 -->
<g id="node79" class="node"><title>Node32</title>
<a xlink:href="../../d3/d76/_u_b_setting_8h.html" target="_top" xlink:title="UBSetting.h">
<polygon fill="white" stroke="black" points="947,-65.5 947,-86.5 1017,-86.5 1017,-65.5 947,-65.5"/>
<text text-anchor="middle" x="982" y="-73.5" font-family="Helvetica,sans-Serif" font-size="10.00">UBSetting.h</text>
</a>
</g>
<!-- Node1&#45;&gt;Node32 -->
<g id="edge100" class="edge"><title>Node1&#45;&gt;Node32</title>
<path fill="none" stroke="midnightblue" d="M864.25,-391.135C1118.07,-382.723 1752,-352.822 1752,-264 1752,-264 1752,-264 1752,-199 1752,-167.192 1757.59,-150.172 1733,-130 1678.41,-85.2276 1181.13,-77.565 1027.2,-76.2638"/>
<polygon fill="midnightblue" stroke="midnightblue" points="1027.17,-72.7635 1017.14,-76.1838 1027.12,-79.7633 1027.17,-72.7635"/>
</g>
<!-- Node33 -->
<g id="node85" class="node"><title>Node33</title>
<a xlink:href="../../db/d80/memcheck_8h.html" target="_top" xlink:title="core/memcheck.h">
<polygon fill="white" stroke="black" points="1817.5,-318.5 1817.5,-339.5 1912.5,-339.5 1912.5,-318.5 1817.5,-318.5"/>
<text text-anchor="middle" x="1865" y="-326.5" font-family="Helvetica,sans-Serif" font-size="10.00">core/memcheck.h</text>
</a>
</g>
<!-- Node1&#45;&gt;Node33 -->
<g id="edge104" class="edge"><title>Node1&#45;&gt;Node33</title>
<path fill="none" stroke="midnightblue" d="M864.248,-392.981C1051.93,-390.169 1461.32,-379.607 1804,-340 1805.1,-339.873 1806.2,-339.739 1807.31,-339.598"/>
<polygon fill="midnightblue" stroke="midnightblue" points="1808.05,-343.029 1817.47,-338.172 1807.08,-336.097 1808.05,-343.029"/>
</g>
<!-- Node2&#45;&gt;Node3 -->
<g id="edge4" class="edge"><title>Node2&#45;&gt;Node3</title>
<path fill="none" stroke="midnightblue" d="M314.315,-253.451C318.049,-228.117 331.093,-163.468 370,-130 428.197,-79.9391 453.112,-78.8199 527,-58 594.875,-38.8746 806.882,-20.1304 887.478,-13.5101"/>
<polygon fill="midnightblue" stroke="midnightblue" points="887.831,-16.993 897.514,-12.6927 887.263,-10.0161 887.831,-16.993"/>
</g>
<!-- Node4 -->
<g id="node7" class="node"><title>Node4</title>
<a xlink:href="../../db/de0/_u_b_abstract_video_encoder_8h.html" target="_top" xlink:title="podcast/UBAbstractVideoEncoder.h">
<polygon fill="white" stroke="black" points="341,-188.5 341,-209.5 515,-209.5 515,-188.5 341,-188.5"/>
<text text-anchor="middle" x="428" y="-196.5" font-family="Helvetica,sans-Serif" font-size="10.00">podcast/UBAbstractVideoEncoder.h</text>
</a>
</g>
<!-- Node2&#45;&gt;Node4 -->
<g id="edge6" class="edge"><title>Node2&#45;&gt;Node4</title>
<path fill="none" stroke="midnightblue" d="M331.733,-253.412C350.361,-242.883 379.151,-226.611 400.396,-214.602"/>
<polygon fill="midnightblue" stroke="midnightblue" points="402.292,-217.551 409.275,-209.584 398.847,-211.457 402.292,-217.551"/>
</g>
<!-- Node2&#45;&gt;Node6 -->
<g id="edge10" class="edge"><title>Node2&#45;&gt;Node6</title>
<path fill="none" stroke="midnightblue" d="M293.942,-253.412C274.904,-242.836 245.436,-226.465 223.793,-214.441"/>
<polygon fill="midnightblue" stroke="midnightblue" points="225.492,-211.38 215.05,-209.584 222.092,-217.5 225.492,-211.38"/>
</g>
<!-- Node10 -->
<g id="node20" class="node"><title>Node10</title>
<a xlink:href="../../dc/dca/_u_b_audio_queue_recorder_8h.html" target="_top" xlink:title="UBAudioQueueRecorder.h">
<polygon fill="white" stroke="black" points="135,-130.5 135,-151.5 267,-151.5 267,-130.5 135,-130.5"/>
<text text-anchor="middle" x="201" y="-138.5" font-family="Helvetica,sans-Serif" font-size="10.00">UBAudioQueueRecorder.h</text>
</a>
</g>
<!-- Node2&#45;&gt;Node10 -->
<g id="edge28" class="edge"><title>Node2&#45;&gt;Node10</title>
<path fill="none" stroke="midnightblue" d="M306.115,-253.352C296.02,-238.108 276.201,-209.529 256,-188 245.963,-177.304 233.638,-166.586 223.201,-158.091"/>
<polygon fill="midnightblue" stroke="midnightblue" points="225.315,-155.3 215.316,-151.799 220.949,-160.772 225.315,-155.3"/>
</g>
<!-- Node5 -->
<g id="node9" class="node"><title>Node5</title>
<polygon fill="white" stroke="#bfbfbf" points="536,-65.5 536,-86.5 584,-86.5 584,-65.5 536,-65.5"/>
<text text-anchor="middle" x="560" y="-73.5" font-family="Helvetica,sans-Serif" font-size="10.00">QtCore</text>
</g>
<!-- Node4&#45;&gt;Node5 -->
<g id="edge8" class="edge"><title>Node4&#45;&gt;Node5</title>
<path fill="none" stroke="midnightblue" d="M452.943,-188.489C470.31,-180.318 493.265,-167.737 510,-152 527.246,-135.782 541.438,-112.501 550.239,-95.9883"/>
<polygon fill="midnightblue" stroke="midnightblue" points="553.552,-97.1997 555.002,-86.7047 547.323,-94.0043 553.552,-97.1997"/>
</g>
<!-- Node6&#45;&gt;Node5 -->
<g id="edge12" class="edge"><title>Node6&#45;&gt;Node5</title>
<path fill="none" stroke="midnightblue" d="M220.489,-188.382C253.908,-174.103 315.84,-148.383 370,-130 423.725,-111.765 487.365,-94.5453 525.665,-84.645"/>
<polygon fill="midnightblue" stroke="midnightblue" points="526.951,-87.9285 535.766,-82.0519 525.21,-81.1483 526.951,-87.9285"/>
</g>
<!-- Node7 -->
<g id="node14" class="node"><title>Node7</title>
<polygon fill="white" stroke="#bfbfbf" points="0,-59 0,-93 114,-93 114,-59 0,-59"/>
<text text-anchor="start" x="8" y="-80" font-family="Helvetica,sans-Serif" font-size="10.00">ApplicationServices</text>
<text text-anchor="middle" x="57" y="-67" font-family="Helvetica,sans-Serif" font-size="10.00">/ApplicationServices.h</text>
</g>
<!-- Node6&#45;&gt;Node7 -->
<g id="edge14" class="edge"><title>Node6&#45;&gt;Node7</title>
<path fill="none" stroke="midnightblue" d="M175.095,-188.484C159.096,-179.886 136.967,-166.769 120,-152 102.767,-136.999 86.3975,-117.012 74.6657,-101.3"/>
<polygon fill="midnightblue" stroke="midnightblue" points="77.3762,-99.0765 68.6492,-93.069 71.7251,-103.208 77.3762,-99.0765"/>
</g>
<!-- Node6&#45;&gt;Node8 -->
<g id="edge16" class="edge"><title>Node6&#45;&gt;Node8</title>
<path fill="none" stroke="midnightblue" d="M240.187,-188.497C281.084,-178.775 342.005,-164.294 385.821,-153.879"/>
<polygon fill="midnightblue" stroke="midnightblue" points="386.811,-157.241 395.731,-151.523 385.192,-150.431 386.811,-157.241"/>
</g>
<!-- Node9 -->
<g id="node18" class="node"><title>Node9</title>
<polygon fill="white" stroke="#bfbfbf" points="132,-65.5 132,-86.5 278,-86.5 278,-65.5 132,-65.5"/>
<text text-anchor="middle" x="205" y="-73.5" font-family="Helvetica,sans-Serif" font-size="10.00">AudioToolbox/AudioToolbox.h</text>
</g>
<!-- Node6&#45;&gt;Node9 -->
<g id="edge18" class="edge"><title>Node6&#45;&gt;Node9</title>
<path fill="none" stroke="midnightblue" d="M170.771,-188.482C145.737,-176.367 112.858,-154.901 126,-130 135.075,-112.805 152.362,-100.046 168.458,-91.2609"/>
<polygon fill="midnightblue" stroke="midnightblue" points="170.401,-94.1992 177.725,-86.544 167.225,-87.9607 170.401,-94.1992"/>
</g>
<!-- Node6&#45;&gt;Node10 -->
<g id="edge20" class="edge"><title>Node6&#45;&gt;Node10</title>
<path fill="none" stroke="midnightblue" d="M196.917,-188.362C197.558,-180.922 198.436,-170.743 199.213,-161.728"/>
<polygon fill="midnightblue" stroke="midnightblue" points="202.717,-161.834 200.089,-151.571 195.743,-161.233 202.717,-161.834"/>
</g>
<!-- Node10&#45;&gt;Node5 -->
<g id="edge22" class="edge"><title>Node10&#45;&gt;Node5</title>
<path fill="none" stroke="midnightblue" d="M259.079,-130.484C334.679,-116.796 464.376,-93.3135 525.812,-82.19"/>
<polygon fill="midnightblue" stroke="midnightblue" points="526.549,-85.6136 535.765,-80.3879 525.302,-78.7256 526.549,-85.6136"/>
</g>
<!-- Node10&#45;&gt;Node7 -->
<g id="edge24" class="edge"><title>Node10&#45;&gt;Node7</title>
<path fill="none" stroke="midnightblue" d="M177.543,-130.412C157.686,-121.448 128.607,-108.323 103.985,-97.2086"/>
<polygon fill="midnightblue" stroke="midnightblue" points="105.35,-93.9846 94.7953,-93.0604 102.47,-100.365 105.35,-93.9846"/>
</g>
<!-- Node10&#45;&gt;Node9 -->
<g id="edge26" class="edge"><title>Node10&#45;&gt;Node9</title>
<path fill="none" stroke="midnightblue" d="M201.661,-130.267C202.22,-121.18 203.037,-107.892 203.724,-96.7395"/>
<polygon fill="midnightblue" stroke="midnightblue" points="207.231,-96.7298 204.352,-86.5337 200.244,-96.2998 207.231,-96.7298"/>
</g>
<!-- Node11&#45;&gt;Node5 -->
<g id="edge36" class="edge"><title>Node11&#45;&gt;Node5</title>
<path fill="none" stroke="midnightblue" d="M646.583,-253.261C641.104,-242.377 632.41,-225.045 625,-210 605.132,-169.659 582.26,-122.286 569.635,-96.0536"/>
<polygon fill="midnightblue" stroke="midnightblue" points="572.668,-94.2854 565.18,-86.7904 566.36,-97.3193 572.668,-94.2854"/>
</g>
<!-- Node12 -->
<g id="node31" class="node"><title>Node12</title>
<polygon fill="white" stroke="#bfbfbf" points="778,-188.5 778,-209.5 832,-209.5 832,-188.5 778,-188.5"/>
<text text-anchor="middle" x="805" y="-196.5" font-family="Helvetica,sans-Serif" font-size="10.00">QThread</text>
</g>
<!-- Node11&#45;&gt;Node12 -->
<g id="edge38" class="edge"><title>Node11&#45;&gt;Node12</title>
<path fill="none" stroke="midnightblue" d="M676.923,-253.412C702.373,-242.6 742.08,-225.731 770.534,-213.642"/>
<polygon fill="midnightblue" stroke="midnightblue" points="772.253,-216.715 780.088,-209.584 769.516,-210.272 772.253,-216.715"/>
</g>
<!-- Node13 -->
<g id="node33" class="node"><title>Node13</title>
<a xlink:href="../../d6/dd0/_u_b_8h.html" target="_top" xlink:title="core/UB.h">
<polygon fill="white" stroke="black" points="710.5,-65.5 710.5,-86.5 771.5,-86.5 771.5,-65.5 710.5,-65.5"/>
<text text-anchor="middle" x="741" y="-73.5" font-family="Helvetica,sans-Serif" font-size="10.00">core/UB.h</text>
</a>
</g>
<!-- Node11&#45;&gt;Node13 -->
<g id="edge40" class="edge"><title>Node11&#45;&gt;Node13</title>
<path fill="none" stroke="midnightblue" d="M646.808,-253.315C635.953,-229.3 613.789,-170.029 638,-130 651.562,-107.577 677.849,-94.0098 700.471,-86.083"/>
<polygon fill="midnightblue" stroke="midnightblue" points="701.786,-89.3362 710.22,-82.924 699.628,-82.677 701.786,-89.3362"/>
</g>
<!-- Node13&#45;&gt;Node3 -->
<g id="edge42" class="edge"><title>Node13&#45;&gt;Node3</title>
<path fill="none" stroke="midnightblue" d="M766.042,-65.4977C772.215,-62.98 778.827,-60.3434 785,-58 820.152,-44.6549 860.981,-30.5289 888.246,-21.2891"/>
<polygon fill="midnightblue" stroke="midnightblue" points="889.636,-24.5139 897.991,-17.999 887.397,-17.8817 889.636,-24.5139"/>
</g>
<!-- Node14&#45;&gt;Node3 -->
<g id="edge46" class="edge"><title>Node14&#45;&gt;Node3</title>
<path fill="none" stroke="midnightblue" d="M1071.4,-318.258C1065.17,-309.019 1056.5,-295.141 1051,-282 1024.26,-218.147 1008.54,-198.706 1017,-130 1020.94,-97.9926 1043.63,-85.0023 1026,-58 1009.33,-32.4674 975.353,-20.715 950.137,-15.3628"/>
<polygon fill="midnightblue" stroke="midnightblue" points="950.758,-11.9183 940.281,-13.4957 949.455,-18.796 950.758,-11.9183"/>
</g>
<!-- Node15 -->
<g id="node39" class="node"><title>Node15</title>
<polygon fill="white" stroke="#bfbfbf" points="1211.5,-253.5 1211.5,-274.5 1316.5,-274.5 1316.5,-253.5 1211.5,-253.5"/>
<text text-anchor="middle" x="1264" y="-261.5" font-family="Helvetica,sans-Serif" font-size="10.00">qtsingleapplication.h</text>
</g>
<!-- Node14&#45;&gt;Node15 -->
<g id="edge48" class="edge"><title>Node14&#45;&gt;Node15</title>
<path fill="none" stroke="midnightblue" d="M1109.14,-318.412C1140.45,-307.411 1189.6,-290.14 1224.12,-278.013"/>
<polygon fill="midnightblue" stroke="midnightblue" points="1225.6,-281.201 1233.88,-274.584 1223.28,-274.596 1225.6,-281.201"/>
</g>
<!-- Node16 -->
<g id="node41" class="node"><title>Node16</title>
<a xlink:href="../../d1/d9d/_uniboard_sankore_transition_8h.html" target="_top" xlink:title="transition/UniboardSankore\lTransition.h">
<polygon fill="white" stroke="black" points="1060,-247 1060,-281 1194,-281 1194,-247 1060,-247"/>
<text text-anchor="start" x="1068" y="-268" font-family="Helvetica,sans-Serif" font-size="10.00">transition/UniboardSankore</text>
<text text-anchor="middle" x="1127" y="-255" font-family="Helvetica,sans-Serif" font-size="10.00">Transition.h</text>
</a>
</g>
<!-- Node14&#45;&gt;Node16 -->
<g id="edge50" class="edge"><title>Node14&#45;&gt;Node16</title>
<path fill="none" stroke="midnightblue" d="M1086.93,-318.267C1092.75,-310.379 1100.91,-299.325 1108.35,-289.251"/>
<polygon fill="midnightblue" stroke="midnightblue" points="1111.24,-291.233 1114.37,-281.11 1105.61,-287.075 1111.24,-291.233"/>
</g>
<!-- Node16&#45;&gt;Node12 -->
<g id="edge56" class="edge"><title>Node16&#45;&gt;Node12</title>
<path fill="none" stroke="midnightblue" d="M1059.81,-253.459C1003.84,-244.19 921.911,-229.488 841.797,-210.009"/>
<polygon fill="midnightblue" stroke="midnightblue" points="842.585,-206.599 832.038,-207.61 840.913,-213.396 842.585,-206.599"/>
</g>
<!-- Node17 -->
<g id="node43" class="node"><title>Node17</title>
<polygon fill="white" stroke="#bfbfbf" points="1278.5,-188.5 1278.5,-209.5 1331.5,-209.5 1331.5,-188.5 1278.5,-188.5"/>
<text text-anchor="middle" x="1305" y="-196.5" font-family="Helvetica,sans-Serif" font-size="10.00">QObject</text>
</g>
<!-- Node16&#45;&gt;Node17 -->
<g id="edge52" class="edge"><title>Node16&#45;&gt;Node17</title>
<path fill="none" stroke="midnightblue" d="M1173.77,-246.922C1203.49,-236.068 1241.4,-222.227 1268.82,-212.213"/>
<polygon fill="midnightblue" stroke="midnightblue" points="1270.22,-215.427 1278.41,-208.709 1267.82,-208.852 1270.22,-215.427"/>
</g>
<!-- Node18 -->
<g id="node45" class="node"><title>Node18</title>
<polygon fill="white" stroke="#bfbfbf" points="1349,-188.5 1349,-209.5 1405,-209.5 1405,-188.5 1349,-188.5"/>
<text text-anchor="middle" x="1377" y="-196.5" font-family="Helvetica,sans-Serif" font-size="10.00">QFileInfo</text>
</g>
<!-- Node16&#45;&gt;Node18 -->
<g id="edge54" class="edge"><title>Node16&#45;&gt;Node18</title>
<path fill="none" stroke="midnightblue" d="M1194.34,-247.673C1233.96,-237.892 1285.25,-224.933 1339.04,-210.199"/>
<polygon fill="midnightblue" stroke="midnightblue" points="1340.04,-213.554 1348.75,-207.527 1338.18,-206.805 1340.04,-213.554"/>
</g>
<!-- Node19 -->
<g id="node48" class="node"><title>Node19</title>
<a xlink:href="../../db/dc7/_u_b_update_dlg_8h.html" target="_top" xlink:title="gui/UBUpdateDlg.h">
<polygon fill="white" stroke="black" points="1160.5,-188.5 1160.5,-209.5 1261.5,-209.5 1261.5,-188.5 1160.5,-188.5"/>
<text text-anchor="middle" x="1211" y="-196.5" font-family="Helvetica,sans-Serif" font-size="10.00">gui/UBUpdateDlg.h</text>
</a>
</g>
<!-- Node16&#45;&gt;Node19 -->
<g id="edge58" class="edge"><title>Node16&#45;&gt;Node19</title>
<path fill="none" stroke="midnightblue" d="M1149.07,-246.922C1161.39,-237.387 1176.69,-225.546 1189,-216.02"/>
<polygon fill="midnightblue" stroke="midnightblue" points="1191.21,-218.74 1196.98,-209.852 1186.93,-213.204 1191.21,-218.74"/>
</g>
<!-- Node28 -->
<g id="node66" class="node"><title>Node28</title>
<a xlink:href="../../db/dea/_u_b_document_proxy_8h.html" target="_top" xlink:title="document/UBDocumentProxy.h">
<polygon fill="white" stroke="black" points="849.5,-188.5 849.5,-209.5 1004.5,-209.5 1004.5,-188.5 849.5,-188.5"/>
<text text-anchor="middle" x="927" y="-196.5" font-family="Helvetica,sans-Serif" font-size="10.00">document/UBDocumentProxy.h</text>
</a>
</g>
<!-- Node16&#45;&gt;Node28 -->
<g id="edge76" class="edge"><title>Node16&#45;&gt;Node28</title>
<path fill="none" stroke="midnightblue" d="M1074.45,-246.922C1041.56,-236.231 999.741,-222.641 969.047,-212.665"/>
<polygon fill="midnightblue" stroke="midnightblue" points="970.091,-209.324 959.498,-209.562 967.927,-215.982 970.091,-209.324"/>
</g>
<!-- Node20 -->
<g id="node50" class="node"><title>Node20</title>
<polygon fill="white" stroke="#bfbfbf" points="1672,-130.5 1672,-151.5 1724,-151.5 1724,-130.5 1672,-130.5"/>
<text text-anchor="middle" x="1698" y="-138.5" font-family="Helvetica,sans-Serif" font-size="10.00">QDialog</text>
</g>
<!-- Node19&#45;&gt;Node20 -->
<g id="edge60" class="edge"><title>Node19&#45;&gt;Node20</title>
<path fill="none" stroke="midnightblue" d="M1261.8,-189.219C1264.57,-188.782 1267.32,-188.372 1270,-188 1440.51,-164.347 1489.23,-185.668 1661.86,-151.875"/>
<polygon fill="midnightblue" stroke="midnightblue" points="1662.66,-155.285 1671.78,-149.899 1661.29,-148.419 1662.66,-155.285"/>
</g>
<!-- Node21 -->
<g id="node52" class="node"><title>Node21</title>
<polygon fill="white" stroke="#bfbfbf" points="1025.5,-130.5 1025.5,-151.5 1072.5,-151.5 1072.5,-130.5 1025.5,-130.5"/>
<text text-anchor="middle" x="1049" y="-138.5" font-family="Helvetica,sans-Serif" font-size="10.00">QLabel</text>
</g>
<!-- Node19&#45;&gt;Node21 -->
<g id="edge62" class="edge"><title>Node19&#45;&gt;Node21</title>
<path fill="none" stroke="midnightblue" d="M1181.66,-188.497C1153.69,-178.481 1111.6,-163.412 1082.36,-152.944"/>
<polygon fill="midnightblue" stroke="midnightblue" points="1083.19,-149.524 1072.6,-149.448 1080.83,-156.114 1083.19,-149.524"/>
</g>
<!-- Node22 -->
<g id="node54" class="node"><title>Node22</title>
<polygon fill="white" stroke="#bfbfbf" points="1089.5,-130.5 1089.5,-151.5 1164.5,-151.5 1164.5,-130.5 1089.5,-130.5"/>
<text text-anchor="middle" x="1127" y="-138.5" font-family="Helvetica,sans-Serif" font-size="10.00">QPushButton</text>
</g>
<!-- Node19&#45;&gt;Node22 -->
<g id="edge64" class="edge"><title>Node19&#45;&gt;Node22</title>
<path fill="none" stroke="midnightblue" d="M1195.59,-188.362C1183.04,-179.696 1165.11,-167.313 1150.73,-157.382"/>
<polygon fill="midnightblue" stroke="midnightblue" points="1152.53,-154.372 1142.31,-151.571 1148.55,-160.133 1152.53,-154.372"/>
</g>
<!-- Node23 -->
<g id="node56" class="node"><title>Node23</title>
<polygon fill="white" stroke="#bfbfbf" points="1181.5,-130.5 1181.5,-151.5 1240.5,-151.5 1240.5,-130.5 1181.5,-130.5"/>
<text text-anchor="middle" x="1211" y="-138.5" font-family="Helvetica,sans-Serif" font-size="10.00">QLineEdit</text>
</g>
<!-- Node19&#45;&gt;Node23 -->
<g id="edge66" class="edge"><title>Node19&#45;&gt;Node23</title>
<path fill="none" stroke="midnightblue" d="M1211,-188.362C1211,-180.922 1211,-170.743 1211,-161.728"/>
<polygon fill="midnightblue" stroke="midnightblue" points="1214.5,-161.571 1211,-151.571 1207.5,-161.571 1214.5,-161.571"/>
</g>
<!-- Node24 -->
<g id="node58" class="node"><title>Node24</title>
<polygon fill="white" stroke="#bfbfbf" points="1258,-130.5 1258,-151.5 1356,-151.5 1356,-130.5 1258,-130.5"/>
<text text-anchor="middle" x="1307" y="-138.5" font-family="Helvetica,sans-Serif" font-size="10.00">QDialogButtonBox</text>
</g>
<!-- Node19&#45;&gt;Node24 -->
<g id="edge68" class="edge"><title>Node19&#45;&gt;Node24</title>
<path fill="none" stroke="midnightblue" d="M1228.61,-188.362C1243.22,-179.532 1264.22,-166.844 1280.81,-156.822"/>
<polygon fill="midnightblue" stroke="midnightblue" points="1282.75,-159.738 1289.5,-151.571 1279.13,-153.746 1282.75,-159.738"/>
</g>
<!-- Node25 -->
<g id="node60" class="node"><title>Node25</title>
<polygon fill="white" stroke="#bfbfbf" points="1373.5,-130.5 1373.5,-151.5 1450.5,-151.5 1450.5,-130.5 1373.5,-130.5"/>
<text text-anchor="middle" x="1412" y="-138.5" font-family="Helvetica,sans-Serif" font-size="10.00">QVBoxLayout</text>
</g>
<!-- Node19&#45;&gt;Node25 -->
<g id="edge70" class="edge"><title>Node19&#45;&gt;Node25</title>
<path fill="none" stroke="midnightblue" d="M1247.4,-188.497C1280.59,-178.918 1329.8,-164.72 1365.76,-154.342"/>
<polygon fill="midnightblue" stroke="midnightblue" points="1366.89,-157.658 1375.53,-151.523 1364.95,-150.933 1366.89,-157.658"/>
</g>
<!-- Node26 -->
<g id="node62" class="node"><title>Node26</title>
<polygon fill="white" stroke="#bfbfbf" points="1468,-130.5 1468,-151.5 1546,-151.5 1546,-130.5 1468,-130.5"/>
<text text-anchor="middle" x="1507" y="-138.5" font-family="Helvetica,sans-Serif" font-size="10.00">QHBoxLayout</text>
</g>
<!-- Node19&#45;&gt;Node26 -->
<g id="edge72" class="edge"><title>Node19&#45;&gt;Node26</title>
<path fill="none" stroke="midnightblue" d="M1261.57,-189.523C1322.15,-178.155 1419.47,-159.841 1458.02,-152.109"/>
<polygon fill="midnightblue" stroke="midnightblue" points="1458.9,-155.502 1467.99,-150.069 1457.5,-148.644 1458.9,-155.502"/>
</g>
<!-- Node27 -->
<g id="node64" class="node"><title>Node27</title>
<polygon fill="white" stroke="#bfbfbf" points="1563.5,-130.5 1563.5,-151.5 1654.5,-151.5 1654.5,-130.5 1563.5,-130.5"/>
<text text-anchor="middle" x="1609" y="-138.5" font-family="Helvetica,sans-Serif" font-size="10.00">QStackedWidget</text>
</g>
<!-- Node19&#45;&gt;Node27 -->
<g id="edge74" class="edge"><title>Node19&#45;&gt;Node27</title>
<path fill="none" stroke="midnightblue" d="M1261.82,-189.33C1264.58,-188.865 1267.32,-188.418 1270,-188 1392.94,-168.792 1427.3,-172.546 1553.34,-152.186"/>
<polygon fill="midnightblue" stroke="midnightblue" points="1554.08,-155.612 1563.38,-150.544 1552.95,-148.703 1554.08,-155.612"/>
</g>
<!-- Node28&#45;&gt;Node3 -->
<g id="edge78" class="edge"><title>Node28&#45;&gt;Node3</title>
<path fill="none" stroke="midnightblue" d="M926.547,-188.354C925.263,-158.172 921.581,-71.6561 919.881,-31.6932"/>
<polygon fill="midnightblue" stroke="midnightblue" points="923.37,-31.3717 919.448,-21.5296 916.376,-31.6694 923.37,-31.3717"/>
</g>
<!-- Node29 -->
<g id="node69" class="node"><title>Node29</title>
<a xlink:href="../../d7/dca/_u_b_string_utils_8h.html" target="_top" xlink:title="frameworks/UBStringUtils.h">
<polygon fill="white" stroke="black" points="646.5,-130.5 646.5,-151.5 785.5,-151.5 785.5,-130.5 646.5,-130.5"/>
<text text-anchor="middle" x="716" y="-138.5" font-family="Helvetica,sans-Serif" font-size="10.00">frameworks/UBStringUtils.h</text>
</a>
</g>
<!-- Node28&#45;&gt;Node29 -->
<g id="edge80" class="edge"><title>Node28&#45;&gt;Node29</title>
<path fill="none" stroke="midnightblue" d="M888.789,-188.497C853.795,-178.877 801.848,-164.598 764.053,-154.209"/>
<polygon fill="midnightblue" stroke="midnightblue" points="764.852,-150.799 754.282,-151.523 762.997,-157.548 764.852,-150.799"/>
</g>
<!-- Node28&#45;&gt;Node30 -->
<g id="edge84" class="edge"><title>Node28&#45;&gt;Node30</title>
<path fill="none" stroke="midnightblue" d="M913.06,-188.362C901.812,-179.777 885.784,-167.546 872.835,-157.664"/>
<polygon fill="midnightblue" stroke="midnightblue" points="874.924,-154.855 864.851,-151.571 870.677,-160.42 874.924,-154.855"/>
</g>
<!-- Node29&#45;&gt;Node5 -->
<g id="edge82" class="edge"><title>Node29&#45;&gt;Node5</title>
<path fill="none" stroke="midnightblue" d="M690.589,-130.412C664.138,-119.391 622.585,-102.077 593.473,-89.9473"/>
<polygon fill="midnightblue" stroke="midnightblue" points="594.695,-86.6645 584.118,-86.0491 592.002,-93.1261 594.695,-86.6645"/>
</g>
<!-- Node30&#45;&gt;Node3 -->
<g id="edge88" class="edge"><title>Node30&#45;&gt;Node3</title>
<path fill="none" stroke="midnightblue" d="M840.759,-130.439C826.162,-114.059 802.743,-81.9274 818,-58 833.217,-34.1352 864.042,-22.1962 887.657,-16.3468"/>
<polygon fill="midnightblue" stroke="midnightblue" points="888.595,-19.7237 897.594,-14.1312 887.072,-12.8915 888.595,-19.7237"/>
</g>
<!-- Node30&#45;&gt;Node5 -->
<g id="edge86" class="edge"><title>Node30&#45;&gt;Node5</title>
<path fill="none" stroke="midnightblue" d="M803.922,-130.484C745.231,-117.375 646.318,-95.2806 594.314,-83.6646"/>
<polygon fill="midnightblue" stroke="midnightblue" points="594.785,-80.1836 584.262,-81.4194 593.259,-87.0153 594.785,-80.1836"/>
</g>
<!-- Node30&#45;&gt;Node13 -->
<g id="edge92" class="edge"><title>Node30&#45;&gt;Node13</title>
<path fill="none" stroke="midnightblue" d="M832.836,-130.267C815.056,-119.76 787.77,-103.637 767.556,-91.6924"/>
<polygon fill="midnightblue" stroke="midnightblue" points="769.216,-88.6078 758.826,-86.5337 765.655,-94.6343 769.216,-88.6078"/>
</g>
<!-- Node31 -->
<g id="node76" class="node"><title>Node31</title>
<polygon fill="white" stroke="#bfbfbf" points="827,-65.5 827,-86.5 891,-86.5 891,-65.5 827,-65.5"/>
<text text-anchor="middle" x="859" y="-73.5" font-family="Helvetica,sans-Serif" font-size="10.00">QtNetwork</text>
</g>
<!-- Node30&#45;&gt;Node31 -->
<g id="edge90" class="edge"><title>Node30&#45;&gt;Node31</title>
<path fill="none" stroke="midnightblue" d="M852.321,-130.267C853.439,-121.18 855.075,-107.892 856.447,-96.7395"/>
<polygon fill="midnightblue" stroke="midnightblue" points="859.956,-96.8864 857.704,-86.5337 853.008,-96.0312 859.956,-96.8864"/>
</g>
<!-- Node30&#45;&gt;Node32 -->
<g id="edge94" class="edge"><title>Node30&#45;&gt;Node32</title>
<path fill="none" stroke="midnightblue" d="M872.339,-130.412C893.845,-119.741 927.239,-103.172 951.528,-91.1198"/>
<polygon fill="midnightblue" stroke="midnightblue" points="953.268,-94.1636 960.67,-86.5835 950.157,-87.8931 953.268,-94.1636"/>
</g>
<!-- Node32&#45;&gt;Node3 -->
<g id="edge96" class="edge"><title>Node32&#45;&gt;Node3</title>
<path fill="none" stroke="midnightblue" d="M971.597,-65.2666C962.056,-55.4227 947.736,-40.6481 936.446,-28.9996"/>
<polygon fill="midnightblue" stroke="midnightblue" points="938.683,-26.2785 929.21,-21.5337 933.656,-31.1503 938.683,-26.2785"/>
</g>
</g>
</svg>
