<?xml version="1.0" encoding="UTF-8" standalone="no"?>
<!DOCTYPE svg PUBLIC "-//W3C//DTD SVG 1.1//EN"
 "http://www.w3.org/Graphics/SVG/1.1/DTD/svg11.dtd">
<!-- Generated by graphviz version 2.26.3 (20100126.1600)
 -->
<!-- Title: WBWebTrapWebView::potentialEmbedCodeAtPos Pages: 1 -->
<svg width="588pt" height="146pt"
 viewBox="0.00 0.00 588.00 146.00" xmlns="http://www.w3.org/2000/svg" xmlns:xlink="http://www.w3.org/1999/xlink">
<g id="graph1" class="graph" transform="scale(1 1) rotate(0) translate(4 142)">
<title>WBWebTrapWebView::potentialEmbedCodeAtPos</title>
<polygon fill="white" stroke="white" points="-4,5 -4,-142 585,-142 585,5 -4,5"/>
<!-- Node1 -->
<g id="node1" class="node"><title>Node1</title>
<polygon fill="#bfbfbf" stroke="black" points="0,-52 0,-86 158,-86 158,-52 0,-52"/>
<text text-anchor="start" x="8" y="-73" font-family="Helvetica,sans-Serif" font-size="10.00">WBWebTrapWebView::potential</text>
<text text-anchor="middle" x="79" y="-60" font-family="Helvetica,sans-Serif" font-size="10.00">EmbedCodeAtPos</text>
</g>
<!-- Node2 -->
<g id="node3" class="node"><title>Node2</title>
<a xlink:href="../../db/d78/class_w_b_web_trap_web_view.html#a838843164510c7510c16a2d6b72ce043" target="_top" xlink:title="WBWebTrapWebView::highlite\lElementAtPos">
<polygon fill="white" stroke="black" points="205,-78 205,-112 357,-112 357,-78 205,-78"/>
<text text-anchor="start" x="213" y="-99" font-family="Helvetica,sans-Serif" font-size="10.00">WBWebTrapWebView::highlite</text>
<text text-anchor="middle" x="281" y="-86" font-family="Helvetica,sans-Serif" font-size="10.00">ElementAtPos</text>
</a>
</g>
<!-- Node1&#45;&gt;Node2 -->
<g id="edge2" class="edge"><title>Node1&#45;&gt;Node2</title>
<path fill="none" stroke="midnightblue" d="M168.424,-80.51C180.611,-82.0786 193.026,-83.6766 204.946,-85.2109"/>
<polygon fill="midnightblue" stroke="midnightblue" points="168.621,-77.0066 158.256,-79.2013 167.727,-83.9493 168.621,-77.0066"/>
</g>
<!-- Node5 -->
<g id="node9" class="node"><title>Node5</title>
<a xlink:href="../../db/d78/class_w_b_web_trap_web_view.html#afdbfd6aac50cad5ac07a465baa7be0b6" target="_top" xlink:title="WBWebTrapWebView::trapElement\lAtPos">
<polygon fill="white" stroke="black" points="194.5,-26 194.5,-60 367.5,-60 367.5,-26 194.5,-26"/>
<text text-anchor="start" x="202.5" y="-47" font-family="Helvetica,sans-Serif" font-size="10.00">WBWebTrapWebView::trapElement</text>
<text text-anchor="middle" x="281" y="-34" font-family="Helvetica,sans-Serif" font-size="10.00">AtPos</text>
</a>
</g>
<!-- Node1&#45;&gt;Node5 -->
<g id="edge8" class="edge"><title>Node1&#45;&gt;Node5</title>
<path fill="none" stroke="midnightblue" d="M168.319,-57.5036C176.949,-56.3928 185.694,-55.2671 194.298,-54.1597"/>
<polygon fill="midnightblue" stroke="midnightblue" points="167.727,-54.0507 158.256,-58.7987 168.621,-60.9934 167.727,-54.0507"/>
</g>
<!-- Node3 -->
<g id="node5" class="node"><title>Node3</title>
<a xlink:href="../../db/d78/class_w_b_web_trap_web_view.html#aee781ab6308411f503aff112b4d5c6c9" target="_top" xlink:title="WBWebTrapWebView::mousePress\lEvent">
<polygon fill="white" stroke="black" points="404,-104 404,-138 580,-138 580,-104 404,-104"/>
<text text-anchor="start" x="412" y="-125" font-family="Helvetica,sans-Serif" font-size="10.00">WBWebTrapWebView::mousePress</text>
<text text-anchor="middle" x="492" y="-112" font-family="Helvetica,sans-Serif" font-size="10.00">Event</text>
</a>
</g>
<!-- Node2&#45;&gt;Node3 -->
<g id="edge4" class="edge"><title>Node2&#45;&gt;Node3</title>
<path fill="none" stroke="midnightblue" d="M367.202,-105.622C379.253,-107.107 391.651,-108.635 403.74,-110.124"/>
<polygon fill="midnightblue" stroke="midnightblue" points="367.529,-102.136 357.176,-104.387 366.673,-109.083 367.529,-102.136"/>
</g>
<!-- Node4 -->
<g id="node7" class="node"><title>Node4</title>
<a xlink:href="../../dd/df0/class_u_b_web_trap_mouse_event_mask.html#a2c69d74fef874516e38daeab13e6ecd0" target="_top" xlink:title="UBWebTrapMouseEventMask\l::mousePressEvent">
<polygon fill="white" stroke="black" points="417.5,-52 417.5,-86 566.5,-86 566.5,-52 417.5,-52"/>
<text text-anchor="start" x="425.5" y="-73" font-family="Helvetica,sans-Serif" font-size="10.00">UBWebTrapMouseEventMask</text>
<text text-anchor="middle" x="492" y="-60" font-family="Helvetica,sans-Serif" font-size="10.00">::mousePressEvent</text>
</a>
</g>
<!-- Node2&#45;&gt;Node4 -->
<g id="edge6" class="edge"><title>Node2&#45;&gt;Node4</title>
<path fill="none" stroke="midnightblue" d="M367.394,-84.3543C383.965,-82.3123 401.187,-80.1902 417.349,-78.1986"/>
<polygon fill="midnightblue" stroke="midnightblue" points="366.673,-80.9166 357.176,-85.6134 367.529,-87.8641 366.673,-80.9166"/>
</g>
<!-- Node5&#45;&gt;Node4 -->
<g id="edge12" class="edge"><title>Node5&#45;&gt;Node4</title>
<path fill="none" stroke="midnightblue" d="M377.843,-54.9332C391.126,-56.57 404.593,-58.2294 417.394,-59.8069"/>
<polygon fill="midnightblue" stroke="midnightblue" points="378.088,-51.4371 367.735,-53.6878 377.232,-58.3845 378.088,-51.4371"/>
</g>
<!-- Node6 -->
<g id="node11" class="node"><title>Node6</title>
<a xlink:href="../../db/d78/class_w_b_web_trap_web_view.html#a2ac308414d18186c9c4fc60bc5f46400" target="_top" xlink:title="WBWebTrapWebView::trapContent\lFromHitTest">
<polygon fill="white" stroke="black" points="406,-0 406,-34 578,-34 578,-0 406,-0"/>
<text text-anchor="start" x="414" y="-21" font-family="Helvetica,sans-Serif" font-size="10.00">WBWebTrapWebView::trapContent</text>
<text text-anchor="middle" x="492" y="-8" font-family="Helvetica,sans-Serif" font-size="10.00">FromHitTest</text>
</a>
</g>
<!-- Node5&#45;&gt;Node6 -->
<g id="edge10" class="edge"><title>Node5&#45;&gt;Node6</title>
<path fill="none" stroke="midnightblue" d="M377.853,-31.0655C387.224,-29.9108 396.687,-28.7448 405.942,-27.6043"/>
<polygon fill="midnightblue" stroke="midnightblue" points="377.232,-27.6155 367.735,-32.3122 378.088,-34.5629 377.232,-27.6155"/>
</g>
</g>
</svg>
