<?xml version="1.0" encoding="UTF-8" standalone="no"?>
<!DOCTYPE svg PUBLIC "-//W3C//DTD SVG 1.1//EN"
 "http://www.w3.org/Graphics/SVG/1.1/DTD/svg11.dtd">
<!-- Generated by graphviz version 2.26.3 (20100126.1600)
 -->
<!-- Title: UBScreenMirror::start Pages: 1 -->
<svg width="1018pt" height="421pt"
 viewBox="0.00 0.00 1018.00 421.00" xmlns="http://www.w3.org/2000/svg" xmlns:xlink="http://www.w3.org/1999/xlink">
<g id="graph1" class="graph" transform="scale(1 1) rotate(0) translate(4 417)">
<title>UBScreenMirror::start</title>
<polygon fill="white" stroke="white" points="-4,5 -4,-417 1015,-417 1015,5 -4,5"/>
<!-- Node1 -->
<g id="node1" class="node"><title>Node1</title>
<polygon fill="#bfbfbf" stroke="black" points="0,-91.5 0,-112.5 112,-112.5 112,-91.5 0,-91.5"/>
<text text-anchor="middle" x="56" y="-99.5" font-family="Helvetica,sans-Serif" font-size="10.00">UBScreenMirror::start</text>
</g>
<!-- Node2 -->
<g id="node3" class="node"><title>Node2</title>
<a xlink:href="../../d7/d62/class_u_b_board_controller.html#a4e526bf1704cc013539413d792c65d6a" target="_top" xlink:title="UBBoardController:\l:freezeW3CWidgets">
<polygon fill="white" stroke="black" points="149.5,-229 149.5,-263 254.5,-263 254.5,-229 149.5,-229"/>
<text text-anchor="start" x="157.5" y="-250" font-family="Helvetica,sans-Serif" font-size="10.00">UBBoardController:</text>
<text text-anchor="middle" x="202" y="-237" font-family="Helvetica,sans-Serif" font-size="10.00">:freezeW3CWidgets</text>
</a>
</g>
<!-- Node1&#45;&gt;Node2 -->
<g id="edge2" class="edge"><title>Node1&#45;&gt;Node2</title>
<path fill="none" stroke="midnightblue" d="M66.9737,-112.823C90.3036,-135.834 145.321,-190.097 177.466,-221.802"/>
<polygon fill="midnightblue" stroke="midnightblue" points="175.151,-224.434 184.728,-228.965 180.066,-219.451 175.151,-224.434"/>
</g>
<!-- Node12 -->
<g id="node23" class="node"><title>Node12</title>
<a xlink:href="../../db/d66/class_u_b_settings.html#a0d8ed418921c2b2d37851faeae00715d" target="_top" xlink:title="UBSettings::settings">
<polygon fill="white" stroke="black" points="148.5,-91.5 148.5,-112.5 255.5,-112.5 255.5,-91.5 148.5,-91.5"/>
<text text-anchor="middle" x="202" y="-99.5" font-family="Helvetica,sans-Serif" font-size="10.00">UBSettings::settings</text>
</a>
</g>
<!-- Node1&#45;&gt;Node12 -->
<g id="edge22" class="edge"><title>Node1&#45;&gt;Node12</title>
<path fill="none" stroke="midnightblue" d="M112.03,-102C120.584,-102 129.467,-102 138.174,-102"/>
<polygon fill="midnightblue" stroke="midnightblue" points="138.283,-105.5 148.283,-102 138.283,-98.5001 138.283,-105.5"/>
</g>
<!-- Node21 -->
<g id="node43" class="node"><title>Node21</title>
<a xlink:href="../../d7/d24/class_u_b_setting.html#afe671b284dd9f1e313e6f27df3ecd2a8" target="_top" xlink:title="UBSetting::get">
<polygon fill="white" stroke="black" points="161.5,-51.5 161.5,-72.5 242.5,-72.5 242.5,-51.5 161.5,-51.5"/>
<text text-anchor="middle" x="202" y="-59.5" font-family="Helvetica,sans-Serif" font-size="10.00">UBSetting::get</text>
</a>
</g>
<!-- Node1&#45;&gt;Node21 -->
<g id="edge44" class="edge"><title>Node1&#45;&gt;Node21</title>
<path fill="none" stroke="midnightblue" d="M94.3598,-91.4905C112.562,-86.5035 134.505,-80.4918 153.818,-75.2007"/>
<polygon fill="midnightblue" stroke="midnightblue" points="154.923,-78.5267 163.643,-72.5087 153.074,-71.7755 154.923,-78.5267"/>
</g>
<!-- Node3 -->
<g id="node5" class="node"><title>Node3</title>
<a xlink:href="../../d7/d62/class_u_b_board_controller.html#a5bf93ad343de7f09150d634ef3a8c459" target="_top" xlink:title="UBBoardController:\l:activeScene">
<polygon fill="white" stroke="black" points="310.5,-379 310.5,-413 411.5,-413 411.5,-379 310.5,-379"/>
<text text-anchor="start" x="318.5" y="-400" font-family="Helvetica,sans-Serif" font-size="10.00">UBBoardController:</text>
<text text-anchor="middle" x="361" y="-387" font-family="Helvetica,sans-Serif" font-size="10.00">:activeScene</text>
</a>
</g>
<!-- Node2&#45;&gt;Node3 -->
<g id="edge4" class="edge"><title>Node2&#45;&gt;Node3</title>
<path fill="none" stroke="midnightblue" d="M210.34,-263.296C223.937,-289.798 253.296,-340.476 292,-370 294.92,-372.227 298.052,-374.282 301.312,-376.175"/>
<polygon fill="midnightblue" stroke="midnightblue" points="299.698,-379.28 310.181,-380.814 302.942,-373.078 299.698,-379.28"/>
</g>
<!-- Node4 -->
<g id="node7" class="node"><title>Node4</title>
<a xlink:href="../../dc/db2/class_u_b_graphics_scene.html#a8c683870fe53e039ff4fed003c114482" target="_top" xlink:title="UBGraphicsScene::getFast\lAccessItems">
<polygon fill="white" stroke="black" points="292.5,-327 292.5,-361 429.5,-361 429.5,-327 292.5,-327"/>
<text text-anchor="start" x="300.5" y="-348" font-family="Helvetica,sans-Serif" font-size="10.00">UBGraphicsScene::getFast</text>
<text text-anchor="middle" x="361" y="-335" font-family="Helvetica,sans-Serif" font-size="10.00">AccessItems</text>
</a>
</g>
<!-- Node2&#45;&gt;Node4 -->
<g id="edge6" class="edge"><title>Node2&#45;&gt;Node4</title>
<path fill="none" stroke="midnightblue" d="M219.72,-263.002C237.034,-278.898 264.699,-302.457 292,-318 294.837,-319.615 297.793,-321.166 300.817,-322.65"/>
<polygon fill="midnightblue" stroke="midnightblue" points="299.492,-325.894 310.039,-326.898 302.421,-319.536 299.492,-325.894"/>
</g>
<!-- Node5 -->
<g id="node9" class="node"><title>Node5</title>
<a xlink:href="../../d7/d62/class_u_b_board_controller.html#a3e83388ec403a3bec62277e1b1a0144f" target="_top" xlink:title="UBBoardController:\l:freezeW3CWidget">
<polygon fill="white" stroke="black" points="310.5,-275 310.5,-309 411.5,-309 411.5,-275 310.5,-275"/>
<text text-anchor="start" x="318.5" y="-296" font-family="Helvetica,sans-Serif" font-size="10.00">UBBoardController:</text>
<text text-anchor="middle" x="361" y="-283" font-family="Helvetica,sans-Serif" font-size="10.00">:freezeW3CWidget</text>
</a>
</g>
<!-- Node2&#45;&gt;Node5 -->
<g id="edge8" class="edge"><title>Node2&#45;&gt;Node5</title>
<path fill="none" stroke="midnightblue" d="M254.503,-261.19C269.269,-265.462 285.445,-270.141 300.631,-274.535"/>
<polygon fill="midnightblue" stroke="midnightblue" points="299.864,-277.956 310.443,-277.373 301.81,-271.232 299.864,-277.956"/>
</g>
<!-- Node9 -->
<g id="node17" class="node"><title>Node9</title>
<a xlink:href="../../d3/dbd/class_u_b_graphics_item.html#ac8a143db621d9be68be5f3c9da0f1405" target="_top" xlink:title="UBGraphicsItem::Delegate">
<polygon fill="white" stroke="black" points="294,-235.5 294,-256.5 428,-256.5 428,-235.5 294,-235.5"/>
<text text-anchor="middle" x="361" y="-243.5" font-family="Helvetica,sans-Serif" font-size="10.00">UBGraphicsItem::Delegate</text>
</a>
</g>
<!-- Node2&#45;&gt;Node9 -->
<g id="edge16" class="edge"><title>Node2&#45;&gt;Node9</title>
<path fill="none" stroke="midnightblue" d="M254.503,-246C263.835,-246 273.73,-246 283.582,-246"/>
<polygon fill="midnightblue" stroke="midnightblue" points="283.808,-249.5 293.808,-246 283.808,-242.5 283.808,-249.5"/>
</g>
<!-- Node10 -->
<g id="node19" class="node"><title>Node10</title>
<a xlink:href="../../dd/dd5/class_u_b_graphics_item_delegate.html#ade01e0b179b501cc1c60451cbba96035" target="_top" xlink:title="UBGraphicsItemDelegate\l::action">
<polygon fill="white" stroke="black" points="297,-183 297,-217 425,-217 425,-183 297,-183"/>
<text text-anchor="start" x="305" y="-204" font-family="Helvetica,sans-Serif" font-size="10.00">UBGraphicsItemDelegate</text>
<text text-anchor="middle" x="361" y="-191" font-family="Helvetica,sans-Serif" font-size="10.00">::action</text>
</a>
</g>
<!-- Node2&#45;&gt;Node10 -->
<g id="edge18" class="edge"><title>Node2&#45;&gt;Node10</title>
<path fill="none" stroke="midnightblue" d="M254.503,-230.81C266.685,-227.286 279.826,-223.484 292.58,-219.795"/>
<polygon fill="midnightblue" stroke="midnightblue" points="293.601,-223.143 302.235,-217.001 291.656,-216.418 293.601,-223.143"/>
</g>
<!-- Node11 -->
<g id="node21" class="node"><title>Node11</title>
<a xlink:href="../../dd/dfb/class_u_b_graphics_item_action.html#a77a5fe1adb68432afba1d5136a10998c" target="_top" xlink:title="UBGraphicsItemAction\l::linkType">
<polygon fill="white" stroke="black" points="302.5,-131 302.5,-165 419.5,-165 419.5,-131 302.5,-131"/>
<text text-anchor="start" x="310.5" y="-152" font-family="Helvetica,sans-Serif" font-size="10.00">UBGraphicsItemAction</text>
<text text-anchor="middle" x="361" y="-139" font-family="Helvetica,sans-Serif" font-size="10.00">::linkType</text>
</a>
</g>
<!-- Node2&#45;&gt;Node11 -->
<g id="edge20" class="edge"><title>Node2&#45;&gt;Node11</title>
<path fill="none" stroke="midnightblue" d="M219.72,-228.998C237.034,-213.102 264.699,-189.543 292,-174 294.837,-172.385 297.793,-170.834 300.817,-169.35"/>
<polygon fill="midnightblue" stroke="midnightblue" points="302.421,-172.464 310.039,-165.102 299.492,-166.106 302.421,-172.464"/>
</g>
<!-- Node6 -->
<g id="node11" class="node"><title>Node6</title>
<a xlink:href="../../d7/da7/class_u_b_graphics_w3_c_widget_item.html#adc5e2a6da0f030dbcf3b1fe0b4f1cfd6" target="_top" xlink:title="UBGraphicsW3CWidgetItem\l::freezedWidgetFilePath">
<polygon fill="white" stroke="black" points="470.5,-275 470.5,-309 613.5,-309 613.5,-275 470.5,-275"/>
<text text-anchor="start" x="478.5" y="-296" font-family="Helvetica,sans-Serif" font-size="10.00">UBGraphicsW3CWidgetItem</text>
<text text-anchor="middle" x="542" y="-283" font-family="Helvetica,sans-Serif" font-size="10.00">::freezedWidgetFilePath</text>
</a>
</g>
<!-- Node5&#45;&gt;Node6 -->
<g id="edge10" class="edge"><title>Node5&#45;&gt;Node6</title>
<path fill="none" stroke="midnightblue" d="M411.9,-292C426.88,-292 443.663,-292 460.068,-292"/>
<polygon fill="midnightblue" stroke="midnightblue" points="460.213,-295.5 470.213,-292 460.213,-288.5 460.213,-295.5"/>
</g>
<!-- Node8 -->
<g id="node15" class="node"><title>Node8</title>
<a xlink:href="../../d0/d16/class_u_b_graphics_widget_item.html#aadbdbf82a7420d3760df51e7cfdbe1da" target="_top" xlink:title="UBGraphicsWidgetItem\l::loadMainHtml">
<polygon fill="white" stroke="black" points="482,-223 482,-257 602,-257 602,-223 482,-223"/>
<text text-anchor="start" x="490" y="-244" font-family="Helvetica,sans-Serif" font-size="10.00">UBGraphicsWidgetItem</text>
<text text-anchor="middle" x="542" y="-231" font-family="Helvetica,sans-Serif" font-size="10.00">::loadMainHtml</text>
</a>
</g>
<!-- Node5&#45;&gt;Node8 -->
<g id="edge14" class="edge"><title>Node5&#45;&gt;Node8</title>
<path fill="none" stroke="midnightblue" d="M411.9,-277.377C430.77,-271.955 452.501,-265.712 472.732,-259.9"/>
<polygon fill="midnightblue" stroke="midnightblue" points="473.88,-263.212 482.524,-257.087 471.947,-256.484 473.88,-263.212"/>
</g>
<!-- Node7 -->
<g id="node13" class="node"><title>Node7</title>
<a xlink:href="../../d4/d99/class_u_b_platform_utils.html#ae595b29e794b20564550fd45515fc0a8" target="_top" xlink:title="UBPlatformUtils::application\lResourcesDirectory">
<polygon fill="white" stroke="black" points="852,-176 852,-210 992,-210 992,-176 852,-176"/>
<text text-anchor="start" x="860" y="-197" font-family="Helvetica,sans-Serif" font-size="10.00">UBPlatformUtils::application</text>
<text text-anchor="middle" x="922" y="-184" font-family="Helvetica,sans-Serif" font-size="10.00">ResourcesDirectory</text>
</a>
</g>
<!-- Node6&#45;&gt;Node7 -->
<g id="edge12" class="edge"><title>Node6&#45;&gt;Node7</title>
<path fill="none" stroke="midnightblue" d="M607.324,-274.981C673.765,-257.672 776.623,-230.875 846.511,-212.667"/>
<polygon fill="midnightblue" stroke="midnightblue" points="847.781,-215.953 856.575,-210.045 846.016,-209.179 847.781,-215.953"/>
</g>
<!-- Node13 -->
<g id="node25" class="node"><title>Node13</title>
<a xlink:href="../../db/d66/class_u_b_settings.html#ad703e9b5a7efdb68b9c6ecef0df7cce2" target="_top" xlink:title="UBSettings::UBSettings">
<polygon fill="white" stroke="black" points="299.5,-91.5 299.5,-112.5 422.5,-112.5 422.5,-91.5 299.5,-91.5"/>
<text text-anchor="middle" x="361" y="-99.5" font-family="Helvetica,sans-Serif" font-size="10.00">UBSettings::UBSettings</text>
</a>
</g>
<!-- Node12&#45;&gt;Node13 -->
<g id="edge24" class="edge"><title>Node12&#45;&gt;Node13</title>
<path fill="none" stroke="midnightblue" d="M255.83,-102C266.522,-102 277.907,-102 289.09,-102"/>
<polygon fill="midnightblue" stroke="midnightblue" points="289.278,-105.5 299.278,-102 289.277,-98.5001 289.278,-105.5"/>
</g>
<!-- Node14 -->
<g id="node27" class="node"><title>Node14</title>
<a xlink:href="../../db/d66/class_u_b_settings.html#afd0d739b2cfac7e2d05be7415f6692df" target="_top" xlink:title="UBSettings::InitKeyboard\lPaletteKeyBtnSizes">
<polygon fill="white" stroke="black" points="478,-150 478,-184 606,-184 606,-150 478,-150"/>
<text text-anchor="start" x="486" y="-171" font-family="Helvetica,sans-Serif" font-size="10.00">UBSettings::InitKeyboard</text>
<text text-anchor="middle" x="542" y="-158" font-family="Helvetica,sans-Serif" font-size="10.00">PaletteKeyBtnSizes</text>
</a>
</g>
<!-- Node13&#45;&gt;Node14 -->
<g id="edge26" class="edge"><title>Node13&#45;&gt;Node14</title>
<path fill="none" stroke="midnightblue" d="M399.897,-112.538C409.778,-115.416 420.332,-118.666 430,-122 436.33,-124.183 464.254,-135.402 490.634,-146.091"/>
<polygon fill="midnightblue" stroke="midnightblue" points="489.657,-149.472 500.24,-149.987 492.288,-142.985 489.657,-149.472"/>
</g>
<!-- Node15 -->
<g id="node29" class="node"><title>Node15</title>
<a xlink:href="../../db/d66/class_u_b_settings.html#a2d3413f8b25d64a698d6d83e0f18ff39" target="_top" xlink:title="UBSettings::getAppSettings">
<polygon fill="white" stroke="black" points="656,-132.5 656,-153.5 796,-153.5 796,-132.5 656,-132.5"/>
<text text-anchor="middle" x="726" y="-140.5" font-family="Helvetica,sans-Serif" font-size="10.00">UBSettings::getAppSettings</text>
</a>
</g>
<!-- Node13&#45;&gt;Node15 -->
<g id="edge28" class="edge"><title>Node13&#45;&gt;Node15</title>
<path fill="none" stroke="midnightblue" d="M422.505,-108.909C483.861,-115.801 578.425,-126.423 645.677,-133.977"/>
<polygon fill="midnightblue" stroke="midnightblue" points="645.481,-137.477 655.81,-135.116 646.263,-130.521 645.481,-137.477"/>
</g>
<!-- Node16 -->
<g id="node32" class="node"><title>Node16</title>
<a xlink:href="../../db/d66/class_u_b_settings.html#af38d2ad231149df734ca7b5486356500" target="_top" xlink:title="UBSettings::userDataDirectory">
<polygon fill="white" stroke="black" points="466,-72.5 466,-93.5 618,-93.5 618,-72.5 466,-72.5"/>
<text text-anchor="middle" x="542" y="-80.5" font-family="Helvetica,sans-Serif" font-size="10.00">UBSettings::userDataDirectory</text>
</a>
</g>
<!-- Node13&#45;&gt;Node16 -->
<g id="edge32" class="edge"><title>Node13&#45;&gt;Node16</title>
<path fill="none" stroke="midnightblue" d="M422.531,-95.541C433.202,-94.4208 444.474,-93.2375 455.661,-92.0632"/>
<polygon fill="midnightblue" stroke="midnightblue" points="456.311,-95.5143 465.891,-90.9893 455.58,-88.5525 456.311,-95.5143"/>
</g>
<!-- Node15&#45;&gt;Node7 -->
<g id="edge30" class="edge"><title>Node15&#45;&gt;Node7</title>
<path fill="none" stroke="midnightblue" d="M767.567,-153.604C790.086,-159.348 818.635,-166.631 845.045,-173.369"/>
<polygon fill="midnightblue" stroke="midnightblue" points="844.49,-176.839 855.045,-175.92 846.22,-170.056 844.49,-176.839"/>
</g>
<!-- Node16&#45;&gt;Node15 -->
<g id="edge34" class="edge"><title>Node16&#45;&gt;Node15</title>
<path fill="none" stroke="midnightblue" d="M575.865,-93.5232C589.09,-97.7931 604.331,-102.913 618,-108 634.245,-114.046 637.618,-117.336 654,-123 660.59,-125.279 667.587,-127.482 674.53,-129.541"/>
<polygon fill="midnightblue" stroke="midnightblue" points="674.03,-133.04 684.608,-132.447 675.969,-126.314 674.03,-133.04"/>
</g>
<!-- Node17 -->
<g id="node35" class="node"><title>Node17</title>
<a xlink:href="../../db/d66/class_u_b_settings.html#aea5fec9db96c03162c2ce1d5d4c41ab0" target="_top" xlink:title="UBSettings::replaceWildcard">
<polygon fill="white" stroke="black" points="654.5,-92.5 654.5,-113.5 797.5,-113.5 797.5,-92.5 654.5,-92.5"/>
<text text-anchor="middle" x="726" y="-100.5" font-family="Helvetica,sans-Serif" font-size="10.00">UBSettings::replaceWildcard</text>
</a>
</g>
<!-- Node16&#45;&gt;Node17 -->
<g id="edge36" class="edge"><title>Node16&#45;&gt;Node17</title>
<path fill="none" stroke="midnightblue" d="M618.168,-91.2791C626.766,-92.2137 635.555,-93.169 644.221,-94.111"/>
<polygon fill="midnightblue" stroke="midnightblue" points="643.999,-97.6074 654.319,-95.2086 644.756,-90.6484 643.999,-97.6074"/>
</g>
<!-- Node19 -->
<g id="node39" class="node"><title>Node19</title>
<a xlink:href="../../db/d66/class_u_b_settings.html#ac0b3c85870c353e48b7d2cfdff9e0eaa" target="_top" xlink:title="UBSettings::checkDirectory">
<polygon fill="white" stroke="black" points="656.5,-52.5 656.5,-73.5 795.5,-73.5 795.5,-52.5 656.5,-52.5"/>
<text text-anchor="middle" x="726" y="-60.5" font-family="Helvetica,sans-Serif" font-size="10.00">UBSettings::checkDirectory</text>
</a>
</g>
<!-- Node16&#45;&gt;Node19 -->
<g id="edge40" class="edge"><title>Node16&#45;&gt;Node19</title>
<path fill="none" stroke="midnightblue" d="M618.168,-74.7209C627.461,-73.7107 636.977,-72.6764 646.32,-71.6609"/>
<polygon fill="midnightblue" stroke="midnightblue" points="646.809,-75.1285 656.372,-70.5683 646.052,-68.1694 646.809,-75.1285"/>
</g>
<!-- Node20 -->
<g id="node41" class="node"><title>Node20</title>
<a xlink:href="../../d2/d7a/class_u_b_file_system_utils.html#af850f64fdd630fc78510c856f00ffa4f" target="_top" xlink:title="UBFileSystemUtils:\l:normalizeFilePath">
<polygon fill="white" stroke="black" points="674,-0 674,-34 778,-34 778,-0 674,-0"/>
<text text-anchor="start" x="682" y="-21" font-family="Helvetica,sans-Serif" font-size="10.00">UBFileSystemUtils:</text>
<text text-anchor="middle" x="726" y="-8" font-family="Helvetica,sans-Serif" font-size="10.00">:normalizeFilePath</text>
</a>
</g>
<!-- Node16&#45;&gt;Node20 -->
<g id="edge42" class="edge"><title>Node16&#45;&gt;Node20</title>
<path fill="none" stroke="midnightblue" d="M571.563,-72.396C597.709,-63.0175 636.593,-49.0697 668.803,-37.5164"/>
<polygon fill="midnightblue" stroke="midnightblue" points="670.332,-40.6863 678.563,-34.0154 667.969,-34.0973 670.332,-40.6863"/>
</g>
<!-- Node18 -->
<g id="node37" class="node"><title>Node18</title>
<a xlink:href="../../d4/d99/class_u_b_platform_utils.html#a4ff6063df12b6d4d0c60c1a17b434599" target="_top" xlink:title="UBPlatformUtils::osUserLoginName">
<polygon fill="white" stroke="black" points="834.5,-92.5 834.5,-113.5 1009.5,-113.5 1009.5,-92.5 834.5,-92.5"/>
<text text-anchor="middle" x="922" y="-100.5" font-family="Helvetica,sans-Serif" font-size="10.00">UBPlatformUtils::osUserLoginName</text>
</a>
</g>
<!-- Node17&#45;&gt;Node18 -->
<g id="edge38" class="edge"><title>Node17&#45;&gt;Node18</title>
<path fill="none" stroke="midnightblue" d="M797.592,-103C806.253,-103 815.211,-103 824.167,-103"/>
<polygon fill="midnightblue" stroke="midnightblue" points="824.261,-106.5 834.261,-103 824.261,-99.5001 824.261,-106.5"/>
</g>
<!-- Node22 -->
<g id="node45" class="node"><title>Node22</title>
<a xlink:href="../../db/d66/class_u_b_settings.html#a30f5b15068954099f41c054979593275" target="_top" xlink:title="UBSettings::value">
<polygon fill="white" stroke="black" points="313,-51.5 313,-72.5 409,-72.5 409,-51.5 313,-51.5"/>
<text text-anchor="middle" x="361" y="-59.5" font-family="Helvetica,sans-Serif" font-size="10.00">UBSettings::value</text>
</a>
</g>
<!-- Node21&#45;&gt;Node22 -->
<g id="edge46" class="edge"><title>Node21&#45;&gt;Node22</title>
<path fill="none" stroke="midnightblue" d="M242.534,-62C260.789,-62 282.687,-62 302.662,-62"/>
<polygon fill="midnightblue" stroke="midnightblue" points="302.903,-65.5001 312.903,-62 302.903,-58.5001 302.903,-65.5001"/>
</g>
</g>
</svg>
