<?xml version="1.0" encoding="UTF-8" standalone="no"?>
<!DOCTYPE svg PUBLIC "-//W3C//DTD SVG 1.1//EN"
 "http://www.w3.org/Graphics/SVG/1.1/DTD/svg11.dtd">
<!-- Generated by graphviz version 2.26.3 (20100126.1600)
 -->
<!-- Title: UBFeaturesController.h Pages: 1 -->
<!--zoomable 276 -->
<svg id="main" version="1.1" xmlns="http://www.w3.org/2000/svg" xmlns:xlink="http://www.w3.org/1999/xlink" xml:space="preserve" onload="init(evt)">
        <defs>
                <circle id="rim" cx="0" cy="0" r="7"/>
                <circle id="rim2" cx="0" cy="0" r="3.5"/>
                <g id="zoomPlus">
                        <use xlink:href="#rim" fill="#404040">
                                <set attributeName="fill" to="#808080" begin="zoomplus.mouseover" end="zoomplus.mouseout"/>
                        </use>
                        <path d="M-4,0h8M0,-4v8" fill="none" stroke="white" stroke-width="1.5" pointer-events="none"/>
                </g>
                <g id="zoomMin">
                        <use xlink:href="#rim" fill="#404040">
                                <set attributeName="fill" to="#808080" begin="zoomminus.mouseover" end="zoomminus.mouseout"/>
                        </use>
                        <path d="M-4,0h8" fill="none" stroke="white" stroke-width="1.5" pointer-events="none"/>
                </g>
                <g id="dirArrow">
                        <path fill="none" stroke="white" stroke-width="1.5" d="M0,-3.0v7 M-2.5,-0.5L0,-3.0L2.5,-0.5"/>
                </g>
               <g id="resetDef">
                       <use xlink:href="#rim2" fill="#404040">
                               <set attributeName="fill" to="#808080" begin="reset.mouseover" end="reset.mouseout"/>
                       </use>
               </g>
        </defs>

<script type="text/javascript">
var viewWidth = 2830;
var viewHeight = 276;
var sectionId = 'dynsection-1';
</script>
<script xlink:href="../../svgpan.js"/>
<svg id="graph" class="graph">
<g id="viewport">
<title>UBFeaturesController.h</title>
<polygon fill="white" stroke="white" points="-4,5 -4,-272 2827,-272 2827,5 -4,5"/>
<!-- Node1 -->
<g id="node1" class="node"><title>Node1</title>
<polygon fill="#bfbfbf" stroke="black" points="1387.5,-246.5 1387.5,-267.5 1506.5,-267.5 1506.5,-246.5 1387.5,-246.5"/>
<text text-anchor="middle" x="1447" y="-254.5" font-family="Helvetica,sans-Serif" font-size="10.00">UBFeaturesController.h</text>
</g>
<!-- Node2 -->
<g id="node3" class="node"><title>Node2</title>
<a xlink:href="../../d8/d16/_u_b_board_controller_8cpp.html" target="_top" xlink:title="UBBoardController.cpp">
<polygon fill="white" stroke="black" points="-0.5,-7.5 -0.5,-28.5 116.5,-28.5 116.5,-7.5 -0.5,-7.5"/>
<text text-anchor="middle" x="58" y="-15.5" font-family="Helvetica,sans-Serif" font-size="10.00">UBBoardController.cpp</text>
</a>
</g>
<!-- Node1&#45;&gt;Node2 -->
<g id="edge2" class="edge"><title>Node1&#45;&gt;Node2</title>
<path fill="none" stroke="midnightblue" d="M1377.45,-247.515C1209.05,-224.258 766.169,-161.363 399,-94 276.567,-71.5377 246.04,-65.0475 125,-36 115.513,-33.7234 105.322,-31.0854 95.8226,-28.5426"/>
<polygon fill="midnightblue" stroke="midnightblue" points="1377.04,-250.992 1387.43,-248.891 1378,-244.057 1377.04,-250.992"/>
</g>
<!-- Node3 -->
<g id="node5" class="node"><title>Node3</title>
<a xlink:href="../../d1/d76/_u_b_features_controller_8cpp.html" target="_top" xlink:title="UBFeaturesController.cpp">
<polygon fill="white" stroke="black" points="1614,-72.5 1614,-93.5 1744,-93.5 1744,-72.5 1614,-72.5"/>
<text text-anchor="middle" x="1679" y="-80.5" font-family="Helvetica,sans-Serif" font-size="10.00">UBFeaturesController.cpp</text>
</a>
</g>
<!-- Node1&#45;&gt;Node3 -->
<g id="edge4" class="edge"><title>Node1&#45;&gt;Node3</title>
<path fill="none" stroke="midnightblue" d="M1492.42,-243.103C1513.99,-235.289 1539.48,-224.221 1560,-210 1609.67,-175.578 1654.36,-117.426 1671.54,-93.6312"/>
<polygon fill="midnightblue" stroke="midnightblue" points="1491.09,-239.857 1482.81,-246.463 1493.41,-246.464 1491.09,-239.857"/>
</g>
<!-- Node4 -->
<g id="node7" class="node"><title>Node4</title>
<a xlink:href="../../d0/dc5/_u_b_features_action_bar_8h.html" target="_top" xlink:title="UBFeaturesActionBar.h">
<polygon fill="white" stroke="black" points="1431,-188.5 1431,-209.5 1551,-209.5 1551,-188.5 1431,-188.5"/>
<text text-anchor="middle" x="1491" y="-196.5" font-family="Helvetica,sans-Serif" font-size="10.00">UBFeaturesActionBar.h</text>
</a>
</g>
<!-- Node1&#45;&gt;Node4 -->
<g id="edge6" class="edge"><title>Node1&#45;&gt;Node4</title>
<path fill="none" stroke="midnightblue" d="M1461.22,-238.25C1468.43,-228.75 1476.92,-217.565 1482.98,-209.571"/>
<polygon fill="midnightblue" stroke="midnightblue" points="1458.33,-236.28 1455.07,-246.362 1463.9,-240.51 1458.33,-236.28"/>
</g>
<!-- Node6 -->
<g id="node11" class="node"><title>Node6</title>
<a xlink:href="../../d2/d5a/_u_b_features_widget_8h.html" target="_top" xlink:title="UBFeaturesWidget.h">
<polygon fill="white" stroke="black" points="1349,-130.5 1349,-151.5 1457,-151.5 1457,-130.5 1349,-130.5"/>
<text text-anchor="middle" x="1403" y="-138.5" font-family="Helvetica,sans-Serif" font-size="10.00">UBFeaturesWidget.h</text>
</a>
</g>
<!-- Node1&#45;&gt;Node6 -->
<g id="edge60" class="edge"><title>Node1&#45;&gt;Node6</title>
<path fill="none" stroke="midnightblue" d="M1435.45,-237.622C1430.83,-229.315 1425.73,-219.381 1422,-210 1414.01,-189.913 1408.1,-165.255 1405.14,-151.52"/>
<polygon fill="midnightblue" stroke="midnightblue" points="1432.53,-239.564 1440.55,-246.494 1438.6,-236.079 1432.53,-239.564"/>
</g>
<!-- Node5 -->
<g id="node9" class="node"><title>Node5</title>
<a xlink:href="../../d9/d7b/_u_b_features_action_bar_8cpp.html" target="_top" xlink:title="UBFeaturesActionBar.cpp">
<polygon fill="white" stroke="black" points="1465.5,-72.5 1465.5,-93.5 1596.5,-93.5 1596.5,-72.5 1465.5,-72.5"/>
<text text-anchor="middle" x="1531" y="-80.5" font-family="Helvetica,sans-Serif" font-size="10.00">UBFeaturesActionBar.cpp</text>
</a>
</g>
<!-- Node4&#45;&gt;Node5 -->
<g id="edge8" class="edge"><title>Node4&#45;&gt;Node5</title>
<path fill="none" stroke="midnightblue" d="M1497.97,-178.79C1506.51,-154.029 1520.66,-112.996 1527.32,-93.6792"/>
<polygon fill="midnightblue" stroke="midnightblue" points="1494.64,-177.7 1494.69,-188.295 1501.26,-179.982 1494.64,-177.7"/>
</g>
<!-- Node4&#45;&gt;Node6 -->
<g id="edge10" class="edge"><title>Node4&#45;&gt;Node6</title>
<path fill="none" stroke="midnightblue" d="M1466.45,-182.821C1451.3,-172.831 1432.28,-160.299 1419.04,-151.571"/>
<polygon fill="midnightblue" stroke="midnightblue" points="1464.58,-185.781 1474.86,-188.362 1468.44,-179.936 1464.58,-185.781"/>
</g>
<!-- Node6&#45;&gt;Node2 -->
<g id="edge12" class="edge"><title>Node6&#45;&gt;Node2</title>
<path fill="none" stroke="midnightblue" d="M1338.73,-139.81C1150.67,-135.453 585.656,-116.127 125,-36 114.32,-34.1424 102.869,-31.3662 92.5083,-28.5468"/>
<polygon fill="midnightblue" stroke="midnightblue" points="1338.91,-143.315 1348.99,-140.041 1339.07,-136.316 1338.91,-143.315"/>
</g>
<!-- Node6&#45;&gt;Node3 -->
<g id="edge54" class="edge"><title>Node6&#45;&gt;Node3</title>
<path fill="none" stroke="midnightblue" d="M1462.94,-128.404C1512.56,-117.977 1582.24,-103.333 1628.92,-93.5231"/>
<polygon fill="midnightblue" stroke="midnightblue" points="1462.05,-125.015 1452.98,-130.497 1463.49,-131.865 1462.05,-125.015"/>
</g>
<!-- Node6&#45;&gt;Node5 -->
<g id="edge56" class="edge"><title>Node6&#45;&gt;Node5</title>
<path fill="none" stroke="midnightblue" d="M1435.35,-126.343C1457.84,-116.15 1487.31,-102.798 1507.56,-93.6212"/>
<polygon fill="midnightblue" stroke="midnightblue" points="1433.84,-123.181 1426.18,-130.497 1436.73,-129.557 1433.84,-123.181"/>
</g>
<!-- Node7 -->
<g id="node14" class="node"><title>Node7</title>
<a xlink:href="../../df/d29/_u_b_board_palette_manager_8h.html" target="_top" xlink:title="UBBoardPaletteManager.h">
<polygon fill="white" stroke="black" points="1179.5,-72.5 1179.5,-93.5 1312.5,-93.5 1312.5,-72.5 1179.5,-72.5"/>
<text text-anchor="middle" x="1246" y="-80.5" font-family="Helvetica,sans-Serif" font-size="10.00">UBBoardPaletteManager.h</text>
</a>
</g>
<!-- Node6&#45;&gt;Node7 -->
<g id="edge14" class="edge"><title>Node6&#45;&gt;Node7</title>
<path fill="none" stroke="midnightblue" d="M1365.13,-127.009C1337.23,-116.702 1299.88,-102.903 1274.48,-93.5231"/>
<polygon fill="midnightblue" stroke="midnightblue" points="1363.98,-130.314 1374.57,-130.497 1366.4,-123.748 1363.98,-130.314"/>
</g>
<!-- Node26 -->
<g id="node55" class="node"><title>Node26</title>
<a xlink:href="../../d3/dfa/_u_b_features_widget_8cpp.html" target="_top" xlink:title="UBFeaturesWidget.cpp">
<polygon fill="white" stroke="black" points="1329.5,-72.5 1329.5,-93.5 1448.5,-93.5 1448.5,-72.5 1329.5,-72.5"/>
<text text-anchor="middle" x="1389" y="-80.5" font-family="Helvetica,sans-Serif" font-size="10.00">UBFeaturesWidget.cpp</text>
</a>
</g>
<!-- Node6&#45;&gt;Node26 -->
<g id="edge58" class="edge"><title>Node6&#45;&gt;Node26</title>
<path fill="none" stroke="midnightblue" d="M1398.05,-120.488C1395.85,-111.392 1393.36,-101.076 1391.55,-93.5707"/>
<polygon fill="midnightblue" stroke="midnightblue" points="1394.68,-121.462 1400.43,-130.362 1401.49,-119.82 1394.68,-121.462"/>
</g>
<!-- Node7&#45;&gt;Node2 -->
<g id="edge22" class="edge"><title>Node7&#45;&gt;Node2</title>
<path fill="none" stroke="midnightblue" d="M1168.87,-80.2334C923.874,-71.3846 176.457,-43.8917 125,-36 113.928,-34.3019 102.058,-31.4621 91.4319,-28.5342"/>
<polygon fill="midnightblue" stroke="midnightblue" points="1168.99,-83.74 1179.11,-80.6031 1169.24,-76.7446 1168.99,-83.74"/>
</g>
<!-- Node8 -->
<g id="node16" class="node"><title>Node8</title>
<a xlink:href="../../dd/dc8/_u_b_svg_subset_adaptor_8cpp.html" target="_top" xlink:title="UBSvgSubsetAdaptor.cpp">
<polygon fill="white" stroke="black" points="2391.5,-7.5 2391.5,-28.5 2522.5,-28.5 2522.5,-7.5 2391.5,-7.5"/>
<text text-anchor="middle" x="2457" y="-15.5" font-family="Helvetica,sans-Serif" font-size="10.00">UBSvgSubsetAdaptor.cpp</text>
</a>
</g>
<!-- Node7&#45;&gt;Node8 -->
<g id="edge16" class="edge"><title>Node7&#45;&gt;Node8</title>
<path fill="none" stroke="midnightblue" d="M1322.73,-71.9362C1793.14,-30.6586 1918.42,-99.6926 2383,-36 2395.18,-34.3298 2408.28,-31.4976 2420.02,-28.5681"/>
<polygon fill="midnightblue" stroke="midnightblue" points="1322.26,-68.4637 1312.61,-72.8362 1322.88,-75.4362 1322.26,-68.4637"/>
</g>
<!-- Node9 -->
<g id="node18" class="node"><title>Node9</title>
<a xlink:href="../../de/d97/_u_b_thumbnail_adaptor_8cpp.html" target="_top" xlink:title="UBThumbnailAdaptor.cpp">
<polygon fill="white" stroke="black" points="2540,-7.5 2540,-28.5 2668,-28.5 2668,-7.5 2540,-7.5"/>
<text text-anchor="middle" x="2604" y="-15.5" font-family="Helvetica,sans-Serif" font-size="10.00">UBThumbnailAdaptor.cpp</text>
</a>
</g>
<!-- Node7&#45;&gt;Node9 -->
<g id="edge18" class="edge"><title>Node7&#45;&gt;Node9</title>
<path fill="none" stroke="midnightblue" d="M1322.93,-71.9247C1858.75,-25.9432 2001.32,-108.348 2531,-36 2543.16,-34.3395 2556.23,-31.4715 2567.9,-28.5067"/>
<polygon fill="midnightblue" stroke="midnightblue" points="1322.27,-68.4687 1312.61,-72.8217 1322.87,-75.4423 1322.27,-68.4687"/>
</g>
<!-- Node10 -->
<g id="node20" class="node"><title>Node10</title>
<a xlink:href="../../d5/de3/_u_b_widget_uniboard_a_p_i_8cpp.html" target="_top" xlink:title="UBWidgetUniboardAPI.cpp">
<polygon fill="white" stroke="black" points="2686,-7.5 2686,-28.5 2822,-28.5 2822,-7.5 2686,-7.5"/>
<text text-anchor="middle" x="2754" y="-15.5" font-family="Helvetica,sans-Serif" font-size="10.00">UBWidgetUniboardAPI.cpp</text>
</a>
</g>
<!-- Node7&#45;&gt;Node10 -->
<g id="edge20" class="edge"><title>Node7&#45;&gt;Node10</title>
<path fill="none" stroke="midnightblue" d="M1322.83,-71.9375C1923.43,-21.2024 2082.42,-112.581 2677,-36 2689.8,-34.3515 2703.58,-31.4868 2715.9,-28.5212"/>
<polygon fill="midnightblue" stroke="midnightblue" points="1322.27,-68.4717 1312.61,-72.8106 1322.87,-75.4463 1322.27,-68.4717"/>
</g>
<!-- Node11 -->
<g id="node23" class="node"><title>Node11</title>
<a xlink:href="../../df/d5a/_u_b_board_palette_manager_8cpp.html" target="_top" xlink:title="UBBoardPaletteManager.cpp">
<polygon fill="white" stroke="black" points="133.5,-7.5 133.5,-28.5 276.5,-28.5 276.5,-7.5 133.5,-7.5"/>
<text text-anchor="middle" x="205" y="-15.5" font-family="Helvetica,sans-Serif" font-size="10.00">UBBoardPaletteManager.cpp</text>
</a>
</g>
<!-- Node7&#45;&gt;Node11 -->
<g id="edge24" class="edge"><title>Node7&#45;&gt;Node11</title>
<path fill="none" stroke="midnightblue" d="M1169.32,-80.012C957.017,-71.6318 371.464,-47.7521 285,-36 272.022,-34.2361 258.04,-31.4152 245.452,-28.525"/>
<polygon fill="midnightblue" stroke="midnightblue" points="1169.32,-83.5145 1179.45,-80.4112 1169.59,-76.52 1169.32,-83.5145"/>
</g>
<!-- Node12 -->
<g id="node25" class="node"><title>Node12</title>
<a xlink:href="../../d4/dc1/_u_b_board_view_8cpp.html" target="_top" xlink:title="UBBoardView.cpp">
<polygon fill="white" stroke="black" points="293.5,-7.5 293.5,-28.5 390.5,-28.5 390.5,-7.5 293.5,-7.5"/>
<text text-anchor="middle" x="342" y="-15.5" font-family="Helvetica,sans-Serif" font-size="10.00">UBBoardView.cpp</text>
</a>
</g>
<!-- Node7&#45;&gt;Node12 -->
<g id="edge26" class="edge"><title>Node7&#45;&gt;Node12</title>
<path fill="none" stroke="midnightblue" d="M1169.37,-79.845C975.106,-71.6913 473.502,-49.6075 399,-36 389.608,-34.2846 379.605,-31.4774 370.643,-28.5847"/>
<polygon fill="midnightblue" stroke="midnightblue" points="1169.36,-83.3475 1179.49,-80.2691 1169.65,-76.3537 1169.36,-83.3475"/>
</g>
<!-- Node13 -->
<g id="node27" class="node"><title>Node13</title>
<a xlink:href="../../d7/da5/_u_b_application_8cpp.html" target="_top" xlink:title="UBApplication.cpp">
<polygon fill="white" stroke="black" points="408,-7.5 408,-28.5 506,-28.5 506,-7.5 408,-7.5"/>
<text text-anchor="middle" x="457" y="-15.5" font-family="Helvetica,sans-Serif" font-size="10.00">UBApplication.cpp</text>
</a>
</g>
<!-- Node7&#45;&gt;Node13 -->
<g id="edge28" class="edge"><title>Node7&#45;&gt;Node13</title>
<path fill="none" stroke="midnightblue" d="M1168.97,-80.3559C1007.58,-74.4386 638.672,-58.8322 515,-36 505.461,-34.239 495.288,-31.419 486.168,-28.5286"/>
<polygon fill="midnightblue" stroke="midnightblue" points="1169.17,-83.8656 1179.29,-80.7316 1169.43,-76.8702 1169.17,-83.8656"/>
</g>
<!-- Node14 -->
<g id="node29" class="node"><title>Node14</title>
<a xlink:href="../../d5/d36/_u_b_application_controller_8cpp.html" target="_top" xlink:title="UBApplicationController.cpp">
<polygon fill="white" stroke="black" points="524,-7.5 524,-28.5 664,-28.5 664,-7.5 524,-7.5"/>
<text text-anchor="middle" x="594" y="-15.5" font-family="Helvetica,sans-Serif" font-size="10.00">UBApplicationController.cpp</text>
</a>
</g>
<!-- Node7&#45;&gt;Node14 -->
<g id="edge30" class="edge"><title>Node7&#45;&gt;Node14</title>
<path fill="none" stroke="midnightblue" d="M1169.43,-80.1818C1059.17,-75.34 849.496,-63.2044 673,-36 660.627,-34.0928 647.308,-31.3362 635.198,-28.5512"/>
<polygon fill="midnightblue" stroke="midnightblue" points="1169.33,-83.6802 1179.47,-80.6142 1169.63,-76.6867 1169.33,-83.6802"/>
</g>
<!-- Node15 -->
<g id="node31" class="node"><title>Node15</title>
<a xlink:href="../../dc/da9/_u_b_download_manager_8cpp.html" target="_top" xlink:title="UBDownloadManager.cpp">
<polygon fill="white" stroke="black" points="681.5,-7.5 681.5,-28.5 812.5,-28.5 812.5,-7.5 681.5,-7.5"/>
<text text-anchor="middle" x="747" y="-15.5" font-family="Helvetica,sans-Serif" font-size="10.00">UBDownloadManager.cpp</text>
</a>
</g>
<!-- Node7&#45;&gt;Node15 -->
<g id="edge32" class="edge"><title>Node7&#45;&gt;Node15</title>
<path fill="none" stroke="midnightblue" d="M1169.24,-77.4961C1083.8,-70.6782 941.835,-57.2868 821,-36 809.671,-34.0043 797.496,-31.2862 786.358,-28.5671"/>
<polygon fill="midnightblue" stroke="midnightblue" points="1169.13,-80.9982 1179.37,-78.295 1169.68,-74.0198 1169.13,-80.9982"/>
</g>
<!-- Node16 -->
<g id="node33" class="node"><title>Node16</title>
<a xlink:href="../../d7/d99/_u_b_persistence_manager_8cpp.html" target="_top" xlink:title="UBPersistenceManager.cpp">
<polygon fill="white" stroke="black" points="829.5,-7.5 829.5,-28.5 968.5,-28.5 968.5,-7.5 829.5,-7.5"/>
<text text-anchor="middle" x="899" y="-15.5" font-family="Helvetica,sans-Serif" font-size="10.00">UBPersistenceManager.cpp</text>
</a>
</g>
<!-- Node7&#45;&gt;Node16 -->
<g id="edge34" class="edge"><title>Node7&#45;&gt;Node16</title>
<path fill="none" stroke="midnightblue" d="M1169.86,-70.8188C1115.88,-61.9097 1041.82,-49.1326 977,-36 965.831,-33.7372 953.814,-31.0772 942.639,-28.5067"/>
<polygon fill="midnightblue" stroke="midnightblue" points="1169.6,-74.3234 1180.04,-72.4921 1170.74,-67.4161 1169.6,-74.3234"/>
</g>
<!-- Node17 -->
<g id="node35" class="node"><title>Node17</title>
<a xlink:href="../../d1/dfb/_u_b_desktop_annotation_controller_8cpp.html" target="_top" xlink:title="UBDesktopAnnotationController.cpp">
<polygon fill="white" stroke="black" points="985.5,-7.5 985.5,-28.5 1160.5,-28.5 1160.5,-7.5 985.5,-7.5"/>
<text text-anchor="middle" x="1073" y="-15.5" font-family="Helvetica,sans-Serif" font-size="10.00">UBDesktopAnnotationController.cpp</text>
</a>
</g>
<!-- Node7&#45;&gt;Node17 -->
<g id="edge36" class="edge"><title>Node7&#45;&gt;Node17</title>
<path fill="none" stroke="midnightblue" d="M1208.27,-68.8254C1176.02,-56.7058 1130.32,-39.5358 1101.17,-28.5835"/>
<polygon fill="midnightblue" stroke="midnightblue" points="1207.23,-72.1711 1217.82,-72.412 1209.69,-65.6184 1207.23,-72.1711"/>
</g>
<!-- Node18 -->
<g id="node37" class="node"><title>Node18</title>
<a xlink:href="../../d4/d39/_u_b_document_controller_8cpp.html" target="_top" xlink:title="UBDocumentController.cpp">
<polygon fill="white" stroke="black" points="1177.5,-7.5 1177.5,-28.5 1314.5,-28.5 1314.5,-7.5 1177.5,-7.5"/>
<text text-anchor="middle" x="1246" y="-15.5" font-family="Helvetica,sans-Serif" font-size="10.00">UBDocumentController.cpp</text>
</a>
</g>
<!-- Node7&#45;&gt;Node18 -->
<g id="edge38" class="edge"><title>Node7&#45;&gt;Node18</title>
<path fill="none" stroke="midnightblue" d="M1246,-62.0142C1246,-50.8307 1246,-37.5583 1246,-28.5337"/>
<polygon fill="midnightblue" stroke="midnightblue" points="1242.5,-62.2665 1246,-72.2666 1249.5,-62.2666 1242.5,-62.2665"/>
</g>
<!-- Node19 -->
<g id="node39" class="node"><title>Node19</title>
<a xlink:href="../../df/df9/_u_b_graphics_group_container_item_delegate_8cpp.html" target="_top" xlink:title="UBGraphicsGroupContainer\lItemDelegate.cpp">
<polygon fill="white" stroke="black" points="1332,-1 1332,-35 1470,-35 1470,-1 1332,-1"/>
<text text-anchor="start" x="1340" y="-22" font-family="Helvetica,sans-Serif" font-size="10.00">UBGraphicsGroupContainer</text>
<text text-anchor="middle" x="1401" y="-9" font-family="Helvetica,sans-Serif" font-size="10.00">ItemDelegate.cpp</text>
</a>
</g>
<!-- Node7&#45;&gt;Node19 -->
<g id="edge40" class="edge"><title>Node7&#45;&gt;Node19</title>
<path fill="none" stroke="midnightblue" d="M1280.52,-68.5225C1304.12,-58.6253 1335.5,-45.4672 1360.32,-35.0604"/>
<polygon fill="midnightblue" stroke="midnightblue" points="1279.12,-65.317 1271.25,-72.412 1281.82,-71.7723 1279.12,-65.317"/>
</g>
<!-- Node20 -->
<g id="node41" class="node"><title>Node20</title>
<a xlink:href="../../da/dcc/_u_b_graphics_item_delegate_8cpp.html" target="_top" xlink:title="UBGraphicsItemDelegate.cpp">
<polygon fill="white" stroke="black" points="1487.5,-7.5 1487.5,-28.5 1634.5,-28.5 1634.5,-7.5 1487.5,-7.5"/>
<text text-anchor="middle" x="1561" y="-15.5" font-family="Helvetica,sans-Serif" font-size="10.00">UBGraphicsItemDelegate.cpp</text>
</a>
</g>
<!-- Node7&#45;&gt;Node20 -->
<g id="edge42" class="edge"><title>Node7&#45;&gt;Node20</title>
<path fill="none" stroke="midnightblue" d="M1309.74,-70.4472C1356.6,-61.1436 1421.82,-48.0425 1479,-36 1490.27,-33.6272 1502.39,-31.0047 1513.77,-28.5126"/>
<polygon fill="midnightblue" stroke="midnightblue" points="1308.86,-67.0536 1299.73,-72.4319 1310.22,-73.9199 1308.86,-67.0536"/>
</g>
<!-- Node21 -->
<g id="node43" class="node"><title>Node21</title>
<a xlink:href="../../d8/d6b/_u_b_document_navigator_8cpp.html" target="_top" xlink:title="UBDocumentNavigator.cpp">
<polygon fill="white" stroke="black" points="1651.5,-7.5 1651.5,-28.5 1788.5,-28.5 1788.5,-7.5 1651.5,-7.5"/>
<text text-anchor="middle" x="1720" y="-15.5" font-family="Helvetica,sans-Serif" font-size="10.00">UBDocumentNavigator.cpp</text>
</a>
</g>
<!-- Node7&#45;&gt;Node21 -->
<g id="edge44" class="edge"><title>Node7&#45;&gt;Node21</title>
<path fill="none" stroke="midnightblue" d="M1322.66,-71.8267C1465.54,-53.8423 1504.27,-59.8836 1643,-36 1654.77,-33.9736 1667.43,-31.2456 1679.02,-28.5269"/>
<polygon fill="midnightblue" stroke="midnightblue" points="1322.12,-68.3672 1312.64,-73.1051 1323,-75.3109 1322.12,-68.3672"/>
</g>
<!-- Node22 -->
<g id="node45" class="node"><title>Node22</title>
<a xlink:href="../../d3/d96/_u_b_teacher_guide_widget_8cpp.html" target="_top" xlink:title="UBTeacherGuideWidget.cpp">
<polygon fill="white" stroke="black" points="1805.5,-7.5 1805.5,-28.5 1946.5,-28.5 1946.5,-7.5 1805.5,-7.5"/>
<text text-anchor="middle" x="1876" y="-15.5" font-family="Helvetica,sans-Serif" font-size="10.00">UBTeacherGuideWidget.cpp</text>
</a>
</g>
<!-- Node7&#45;&gt;Node22 -->
<g id="edge46" class="edge"><title>Node7&#45;&gt;Node22</title>
<path fill="none" stroke="midnightblue" d="M1322.78,-71.869C1533.63,-49.1752 1590.49,-67.1588 1797,-36 1809.52,-34.1112 1823,-31.3257 1835.22,-28.5075"/>
<polygon fill="midnightblue" stroke="midnightblue" points="1322.18,-68.4135 1312.62,-72.9807 1322.95,-75.3719 1322.18,-68.4135"/>
</g>
<!-- Node23 -->
<g id="node47" class="node"><title>Node23</title>
<a xlink:href="../../da/d89/_u_b_podcast_controller_8cpp.html" target="_top" xlink:title="UBPodcastController.cpp">
<polygon fill="white" stroke="black" points="1964,-7.5 1964,-28.5 2092,-28.5 2092,-7.5 1964,-7.5"/>
<text text-anchor="middle" x="2028" y="-15.5" font-family="Helvetica,sans-Serif" font-size="10.00">UBPodcastController.cpp</text>
</a>
</g>
<!-- Node7&#45;&gt;Node23 -->
<g id="edge48" class="edge"><title>Node7&#45;&gt;Node23</title>
<path fill="none" stroke="midnightblue" d="M1322.7,-71.9073C1603.55,-44.2913 1679.18,-77.4715 1955,-36 1966.75,-34.2339 1979.37,-31.4489 1990.75,-28.5926"/>
<polygon fill="midnightblue" stroke="midnightblue" points="1322.22,-68.4374 1312.62,-72.9156 1322.92,-75.4026 1322.22,-68.4374"/>
</g>
<!-- Node24 -->
<g id="node49" class="node"><title>Node24</title>
<a xlink:href="../../db/dd3/_u_b_trap_flash_controller_8cpp.html" target="_top" xlink:title="UBTrapFlashController.cpp">
<polygon fill="white" stroke="black" points="2109.5,-7.5 2109.5,-28.5 2244.5,-28.5 2244.5,-7.5 2109.5,-7.5"/>
<text text-anchor="middle" x="2177" y="-15.5" font-family="Helvetica,sans-Serif" font-size="10.00">UBTrapFlashController.cpp</text>
</a>
</g>
<!-- Node7&#45;&gt;Node24 -->
<g id="edge50" class="edge"><title>Node7&#45;&gt;Node24</title>
<path fill="none" stroke="midnightblue" d="M1322.65,-71.9262C1668.2,-39.6354 1760.6,-83.7404 2101,-36 2113.35,-34.2674 2126.64,-31.4554 2138.6,-28.5636"/>
<polygon fill="midnightblue" stroke="midnightblue" points="1322.24,-68.4494 1312.61,-72.8787 1322.9,-75.4181 1322.24,-68.4494"/>
</g>
<!-- Node25 -->
<g id="node51" class="node"><title>Node25</title>
<a xlink:href="../../d7/d85/_u_b_web_controller_8cpp.html" target="_top" xlink:title="UBWebController.cpp">
<polygon fill="white" stroke="black" points="2262,-7.5 2262,-28.5 2374,-28.5 2374,-7.5 2262,-7.5"/>
<text text-anchor="middle" x="2318" y="-15.5" font-family="Helvetica,sans-Serif" font-size="10.00">UBWebController.cpp</text>
</a>
</g>
<!-- Node7&#45;&gt;Node25 -->
<g id="edge52" class="edge"><title>Node7&#45;&gt;Node25</title>
<path fill="none" stroke="midnightblue" d="M1322.73,-71.9306C1735.56,-34.9213 1846.7,-99.228 2253,-36 2263.76,-34.3255 2275.28,-31.4921 2285.59,-28.5628"/>
<polygon fill="midnightblue" stroke="midnightblue" points="1322.25,-68.4596 1312.61,-72.8526 1322.89,-75.4307 1322.25,-68.4596"/>
</g>
</g>
</svg>
        <g id="navigator" transform="translate(0 0)" fill="#404254">
                <rect fill="#f2f5e9" fill-opacity="0.5" stroke="#606060" stroke-width=".5" x="0" y="0" width="60" height="60"/>
                <use id="zoomplus" xlink:href="#zoomPlus" x="17" y="9" onmousedown="handleZoom(evt,'in')"/>
                <use id="zoomminus" xlink:href="#zoomMin" x="42" y="9" onmousedown="handleZoom(evt,'out')"/>
                <use id="reset" xlink:href="#resetDef" x="30" y="36" onmousedown="handleReset()"/>
                <g id="arrowUp" xlink:href="#dirArrow" transform="translate(30 24)" onmousedown="handlePan(0,-1)">
                  <use xlink:href="#rim" fill="#404040">
                        <set attributeName="fill" to="#808080" begin="arrowUp.mouseover" end="arrowUp.mouseout"/>
                  </use>
                  <path fill="none" stroke="white" stroke-width="1.5" d="M0,-3.0v7 M-2.5,-0.5L0,-3.0L2.5,-0.5"/>
                </g>
                <g id="arrowRight" xlink:href="#dirArrow" transform="rotate(90) translate(36 -43)" onmousedown="handlePan(1,0)">
                  <use xlink:href="#rim" fill="#404040">
                        <set attributeName="fill" to="#808080" begin="arrowRight.mouseover" end="arrowRight.mouseout"/>
                  </use>
                  <path fill="none" stroke="white" stroke-width="1.5" d="M0,-3.0v7 M-2.5,-0.5L0,-3.0L2.5,-0.5"/>
                </g>
                <g id="arrowDown" xlink:href="#dirArrow" transform="rotate(180) translate(-30 -48)" onmousedown="handlePan(0,1)">
                  <use xlink:href="#rim" fill="#404040">
                        <set attributeName="fill" to="#808080" begin="arrowDown.mouseover" end="arrowDown.mouseout"/>
                  </use>
                  <path fill="none" stroke="white" stroke-width="1.5" d="M0,-3.0v7 M-2.5,-0.5L0,-3.0L2.5,-0.5"/>
                </g>
                <g id="arrowLeft" xlink:href="#dirArrow" transform="rotate(270) translate(-36 17)" onmousedown="handlePan(-1,0)">
                  <use xlink:href="#rim" fill="#404040">
                        <set attributeName="fill" to="#808080" begin="arrowLeft.mouseover" end="arrowLeft.mouseout"/>
                  </use>
                  <path fill="none" stroke="white" stroke-width="1.5" d="M0,-3.0v7 M-2.5,-0.5L0,-3.0L2.5,-0.5"/>
                </g>
        </g>
        <svg viewBox="0 0 15 15" width="100%" height="30px" preserveAspectRatio="xMaxYMin meet">
         <g id="arrow_out" transform="scale(0.3 0.3)">
          <a xlink:href="_u_b_features_controller_8h__dep__incl_org.svg" target="_base">
           <rect id="button" ry="5" rx="5" y="6" x="6" height="38" width="38"
                fill="#f2f5e9" fill-opacity="0.5" stroke="#606060" stroke-width="1.0"/>
           <path id="arrow"
             d="M 11.500037,31.436501 C 11.940474,20.09759 22.043105,11.32322 32.158766,21.979434 L 37.068811,17.246167 C 37.068811,17.246167 37.088388,32 37.088388,32 L 22.160133,31.978069 C 22.160133,31.978069 26.997745,27.140456 26.997745,27.140456 C 18.528582,18.264221 13.291696,25.230495 11.500037,31.436501 z"
             style="fill:#404040;"/>
          </a>
         </g>
        </svg>
</svg>
