<?xml version="1.0" encoding="UTF-8" standalone="no"?>
<!DOCTYPE svg PUBLIC "-//W3C//DTD SVG 1.1//EN"
 "http://www.w3.org/Graphics/SVG/1.1/DTD/svg11.dtd">
<!-- Generated by graphviz version 2.26.3 (20100126.1600)
 -->
<!-- Title: UBKeyboardPalette::UBKeyboardPalette Pages: 1 -->
<svg width="1238pt" height="773pt"
 viewBox="0.00 0.00 1238.00 773.00" xmlns="http://www.w3.org/2000/svg" xmlns:xlink="http://www.w3.org/1999/xlink">
<g id="graph1" class="graph" transform="scale(1 1) rotate(0) translate(4 769)">
<title>UBKeyboardPalette::UBKeyboardPalette</title>
<polygon fill="white" stroke="white" points="-4,5 -4,-769 1235,-769 1235,5 -4,5"/>
<!-- Node1 -->
<g id="node1" class="node"><title>Node1</title>
<polygon fill="#bfbfbf" stroke="black" points="0,-509 0,-543 106,-543 106,-509 0,-509"/>
<text text-anchor="start" x="8" y="-530" font-family="Helvetica,sans-Serif" font-size="10.00">UBKeyboardPalette:</text>
<text text-anchor="middle" x="53" y="-517" font-family="Helvetica,sans-Serif" font-size="10.00">:UBKeyboardPalette</text>
</g>
<!-- Node2 -->
<g id="node3" class="node"><title>Node2</title>
<a xlink:href="../../de/dc5/class_u_b_action_palette.html#a48a5bb2c2e77378772b9ef40c1fce7ba" target="_top" xlink:title="UBActionPalette::setCustom\lCloseProcessing">
<polygon fill="white" stroke="black" points="145.5,-731 145.5,-765 288.5,-765 288.5,-731 145.5,-731"/>
<text text-anchor="start" x="153.5" y="-752" font-family="Helvetica,sans-Serif" font-size="10.00">UBActionPalette::setCustom</text>
<text text-anchor="middle" x="217" y="-739" font-family="Helvetica,sans-Serif" font-size="10.00">CloseProcessing</text>
</a>
</g>
<!-- Node1&#45;&gt;Node2 -->
<g id="edge2" class="edge"><title>Node1&#45;&gt;Node2</title>
<path fill="none" stroke="midnightblue" d="M56.04,-543.088C63.6279,-580.799 86.8987,-671.776 142,-722 143.146,-723.044 144.336,-724.047 145.564,-725.01"/>
<polygon fill="midnightblue" stroke="midnightblue" points="143.908,-728.115 154.156,-730.802 147.821,-722.31 143.908,-728.115"/>
</g>
<!-- Node3 -->
<g id="node5" class="node"><title>Node3</title>
<a xlink:href="../../d1/d97/class_u_b_floating_palette.html#abc8797caf59410a7fb11bc57e74ceb8d" target="_top" xlink:title="UBFloatingPalette:\l:setCustomPosition">
<polygon fill="white" stroke="black" points="165.5,-679 165.5,-713 268.5,-713 268.5,-679 165.5,-679"/>
<text text-anchor="start" x="173.5" y="-700" font-family="Helvetica,sans-Serif" font-size="10.00">UBFloatingPalette:</text>
<text text-anchor="middle" x="217" y="-687" font-family="Helvetica,sans-Serif" font-size="10.00">:setCustomPosition</text>
</a>
</g>
<!-- Node1&#45;&gt;Node3 -->
<g id="edge4" class="edge"><title>Node1&#45;&gt;Node3</title>
<path fill="none" stroke="midnightblue" d="M59.1897,-543.291C70.7989,-573.332 98.6504,-635.27 142,-670 146.302,-673.447 151.091,-676.451 156.109,-679.067"/>
<polygon fill="midnightblue" stroke="midnightblue" points="154.792,-682.315 165.334,-683.368 157.75,-675.97 154.792,-682.315"/>
</g>
<!-- Node6 -->
<g id="node11" class="node"><title>Node6</title>
<a xlink:href="../../de/dc5/class_u_b_action_palette.html#a25fe51d89665542994b06d9a4cedfc89" target="_top" xlink:title="UBActionPalette::setClosable">
<polygon fill="white" stroke="black" points="143.5,-639.5 143.5,-660.5 290.5,-660.5 290.5,-639.5 143.5,-639.5"/>
<text text-anchor="middle" x="217" y="-647.5" font-family="Helvetica,sans-Serif" font-size="10.00">UBActionPalette::setClosable</text>
</a>
</g>
<!-- Node1&#45;&gt;Node6 -->
<g id="edge10" class="edge"><title>Node1&#45;&gt;Node6</title>
<path fill="none" stroke="midnightblue" d="M63.0254,-543.198C77.4834,-566.454 106.402,-607.593 142,-630 145.211,-632.021 148.623,-633.84 152.153,-635.476"/>
<polygon fill="midnightblue" stroke="midnightblue" points="151.135,-638.841 161.715,-639.394 153.789,-632.364 151.135,-638.841"/>
</g>
<!-- Node9 -->
<g id="node17" class="node"><title>Node9</title>
<a xlink:href="../../d1/d97/class_u_b_floating_palette.html#a10dc3988c325dc35d8f381d341e17369" target="_top" xlink:title="UBFloatingPalette:\l:setGrip">
<polygon fill="white" stroke="black" points="167.5,-587 167.5,-621 266.5,-621 266.5,-587 167.5,-587"/>
<text text-anchor="start" x="175.5" y="-608" font-family="Helvetica,sans-Serif" font-size="10.00">UBFloatingPalette:</text>
<text text-anchor="middle" x="217" y="-595" font-family="Helvetica,sans-Serif" font-size="10.00">:setGrip</text>
</a>
</g>
<!-- Node1&#45;&gt;Node9 -->
<g id="edge16" class="edge"><title>Node1&#45;&gt;Node9</title>
<path fill="none" stroke="midnightblue" d="M79.1441,-543.101C96.503,-553.993 120.053,-567.902 142,-578 147.008,-580.304 152.282,-582.523 157.616,-584.627"/>
<polygon fill="midnightblue" stroke="midnightblue" points="156.649,-588.003 167.24,-588.284 159.135,-581.46 156.649,-588.003"/>
</g>
<!-- Node10 -->
<g id="node19" class="node"><title>Node10</title>
<a xlink:href="../../d4/d99/class_u_b_platform_utils.html#a24326b258880a10ee4b082246337ca06" target="_top" xlink:title="UBPlatformUtils::getKeyboard\lLayouts">
<polygon fill="white" stroke="black" points="142.5,-535 142.5,-569 291.5,-569 291.5,-535 142.5,-535"/>
<text text-anchor="start" x="150.5" y="-556" font-family="Helvetica,sans-Serif" font-size="10.00">UBPlatformUtils::getKeyboard</text>
<text text-anchor="middle" x="217" y="-543" font-family="Helvetica,sans-Serif" font-size="10.00">Layouts</text>
</a>
</g>
<!-- Node1&#45;&gt;Node10 -->
<g id="edge18" class="edge"><title>Node1&#45;&gt;Node10</title>
<path fill="none" stroke="midnightblue" d="M106.246,-534.441C114.605,-535.767 123.419,-537.164 132.277,-538.568"/>
<polygon fill="midnightblue" stroke="midnightblue" points="131.848,-542.044 142.273,-540.153 132.944,-535.13 131.848,-542.044"/>
</g>
<!-- Node11 -->
<g id="node21" class="node"><title>Node11</title>
<a xlink:href="../../d6/d6e/class_u_b_keyboard_palette.html#a4fe1940a7883e8c2cbe8115130d31d79" target="_top" xlink:title="UBKeyboardPalette:\l:createCtrlButtons">
<polygon fill="white" stroke="black" points="164,-483 164,-517 270,-517 270,-483 164,-483"/>
<text text-anchor="start" x="172" y="-504" font-family="Helvetica,sans-Serif" font-size="10.00">UBKeyboardPalette:</text>
<text text-anchor="middle" x="217" y="-491" font-family="Helvetica,sans-Serif" font-size="10.00">:createCtrlButtons</text>
</a>
</g>
<!-- Node1&#45;&gt;Node11 -->
<g id="edge20" class="edge"><title>Node1&#45;&gt;Node11</title>
<path fill="none" stroke="midnightblue" d="M106.246,-517.559C121.361,-515.162 137.967,-512.53 153.619,-510.048"/>
<polygon fill="midnightblue" stroke="midnightblue" points="154.412,-513.466 163.741,-508.444 153.316,-506.553 154.412,-513.466"/>
</g>
<!-- Node12 -->
<g id="node23" class="node"><title>Node12</title>
<a xlink:href="../../db/d66/class_u_b_settings.html#a0d8ed418921c2b2d37851faeae00715d" target="_top" xlink:title="UBSettings::settings">
<polygon fill="white" stroke="black" points="351.5,-404.5 351.5,-425.5 458.5,-425.5 458.5,-404.5 351.5,-404.5"/>
<text text-anchor="middle" x="405" y="-412.5" font-family="Helvetica,sans-Serif" font-size="10.00">UBSettings::settings</text>
</a>
</g>
<!-- Node1&#45;&gt;Node12 -->
<g id="edge22" class="edge"><title>Node1&#45;&gt;Node12</title>
<path fill="none" stroke="midnightblue" d="M63.7612,-508.767C78.441,-486.987 106.967,-450.367 142,-434 205.059,-404.541 285.98,-403.371 341.305,-407.28"/>
<polygon fill="midnightblue" stroke="midnightblue" points="341.085,-410.773 351.328,-408.063 341.631,-403.795 341.085,-410.773"/>
</g>
<!-- Node22 -->
<g id="node44" class="node"><title>Node22</title>
<a xlink:href="../../d7/d24/class_u_b_setting.html#afe671b284dd9f1e313e6f27df3ecd2a8" target="_top" xlink:title="UBSetting::get">
<polygon fill="white" stroke="black" points="176.5,-443.5 176.5,-464.5 257.5,-464.5 257.5,-443.5 176.5,-443.5"/>
<text text-anchor="middle" x="217" y="-451.5" font-family="Helvetica,sans-Serif" font-size="10.00">UBSetting::get</text>
</a>
</g>
<!-- Node1&#45;&gt;Node22 -->
<g id="edge44" class="edge"><title>Node1&#45;&gt;Node22</title>
<path fill="none" stroke="midnightblue" d="M78.1436,-508.849C95.4706,-497.657 119.368,-483.427 142,-474 149.779,-470.76 158.232,-467.909 166.567,-465.451"/>
<polygon fill="midnightblue" stroke="midnightblue" points="167.559,-468.808 176.248,-462.746 165.675,-462.066 167.559,-468.808"/>
</g>
<!-- Node24 -->
<g id="node48" class="node"><title>Node24</title>
<a xlink:href="../../d6/d6e/class_u_b_keyboard_palette.html#ac6c2255d9b2f9c18dd794194c03b9c47" target="_top" xlink:title="UBKeyboardPalette:\l:setInput">
<polygon fill="white" stroke="black" points="164,-353 164,-387 270,-387 270,-353 164,-353"/>
<text text-anchor="start" x="172" y="-374" font-family="Helvetica,sans-Serif" font-size="10.00">UBKeyboardPalette:</text>
<text text-anchor="middle" x="217" y="-361" font-family="Helvetica,sans-Serif" font-size="10.00">:setInput</text>
</a>
</g>
<!-- Node1&#45;&gt;Node24 -->
<g id="edge48" class="edge"><title>Node1&#45;&gt;Node24</title>
<path fill="none" stroke="midnightblue" d="M61.2767,-508.708C74.7625,-482.184 103.848,-431.35 142,-401 146.273,-397.601 150.97,-394.521 155.866,-391.741"/>
<polygon fill="midnightblue" stroke="midnightblue" points="157.597,-394.785 164.844,-387.057 154.359,-388.579 157.597,-394.785"/>
</g>
<!-- Node25 -->
<g id="node50" class="node"><title>Node25</title>
<a xlink:href="../../d6/d6e/class_u_b_keyboard_palette.html#a17a1566aada47c89954068f3bcbd4e2d" target="_top" xlink:title="UBKeyboardPalette::init">
<polygon fill="white" stroke="black" points="156,-240.5 156,-261.5 278,-261.5 278,-240.5 156,-240.5"/>
<text text-anchor="middle" x="217" y="-248.5" font-family="Helvetica,sans-Serif" font-size="10.00">UBKeyboardPalette::init</text>
</a>
</g>
<!-- Node1&#45;&gt;Node25 -->
<g id="edge50" class="edge"><title>Node1&#45;&gt;Node25</title>
<path fill="none" stroke="midnightblue" d="M59.8955,-508.763C73.4766,-475.632 105.554,-401.27 142,-344 159.672,-316.23 184.255,-287.151 200.39,-269.058"/>
<polygon fill="midnightblue" stroke="midnightblue" points="203.053,-271.331 207.154,-261.562 197.856,-266.642 203.053,-271.331"/>
</g>
<!-- Node4 -->
<g id="node7" class="node"><title>Node4</title>
<a xlink:href="../../d1/d97/class_u_b_floating_palette.html#a4bbccd60531d06896c6d0acd8489dfb1" target="_top" xlink:title="UBFloatingPalette:\l:removeAllAssociatedPalette">
<polygon fill="white" stroke="black" points="333.5,-679 333.5,-713 476.5,-713 476.5,-679 333.5,-679"/>
<text text-anchor="start" x="341.5" y="-700" font-family="Helvetica,sans-Serif" font-size="10.00">UBFloatingPalette:</text>
<text text-anchor="middle" x="405" y="-687" font-family="Helvetica,sans-Serif" font-size="10.00">:removeAllAssociatedPalette</text>
</a>
</g>
<!-- Node3&#45;&gt;Node4 -->
<g id="edge6" class="edge"><title>Node3&#45;&gt;Node4</title>
<path fill="none" stroke="midnightblue" d="M268.869,-696C285.651,-696 304.692,-696 323.102,-696"/>
<polygon fill="midnightblue" stroke="midnightblue" points="323.247,-699.5 333.247,-696 323.247,-692.5 323.247,-699.5"/>
</g>
<!-- Node5 -->
<g id="node9" class="node"><title>Node5</title>
<a xlink:href="../../d1/d97/class_u_b_floating_palette.html#a02284dd9ea277ca6680fd06fb5d72bec" target="_top" xlink:title="UBFloatingPalette:\l:removeAssociatedPalette">
<polygon fill="white" stroke="black" points="518.5,-679 518.5,-713 649.5,-713 649.5,-679 518.5,-679"/>
<text text-anchor="start" x="526.5" y="-700" font-family="Helvetica,sans-Serif" font-size="10.00">UBFloatingPalette:</text>
<text text-anchor="middle" x="584" y="-687" font-family="Helvetica,sans-Serif" font-size="10.00">:removeAssociatedPalette</text>
</a>
</g>
<!-- Node4&#45;&gt;Node5 -->
<g id="edge8" class="edge"><title>Node4&#45;&gt;Node5</title>
<path fill="none" stroke="midnightblue" d="M476.517,-696C486.996,-696 497.818,-696 508.376,-696"/>
<polygon fill="midnightblue" stroke="midnightblue" points="508.398,-699.5 518.398,-696 508.398,-692.5 508.398,-699.5"/>
</g>
<!-- Node7 -->
<g id="node13" class="node"><title>Node7</title>
<a xlink:href="../../de/dc5/class_u_b_action_palette.html#ab1b868f86b28c9896cc12bba932fecc2" target="_top" xlink:title="UBActionPalette::updateLayout">
<polygon fill="white" stroke="black" points="328,-639.5 328,-660.5 482,-660.5 482,-639.5 328,-639.5"/>
<text text-anchor="middle" x="405" y="-647.5" font-family="Helvetica,sans-Serif" font-size="10.00">UBActionPalette::updateLayout</text>
</a>
</g>
<!-- Node6&#45;&gt;Node7 -->
<g id="edge12" class="edge"><title>Node6&#45;&gt;Node7</title>
<path fill="none" stroke="midnightblue" d="M290.763,-650C299.582,-650 308.651,-650 317.639,-650"/>
<polygon fill="midnightblue" stroke="midnightblue" points="317.734,-653.5 327.734,-650 317.734,-646.5 317.734,-653.5"/>
</g>
<!-- Node8 -->
<g id="node15" class="node"><title>Node8</title>
<a xlink:href="../../de/dc5/class_u_b_action_palette.html#acb5a31a19bf700a33de7414e890c7231" target="_top" xlink:title="UBActionPalette::border">
<polygon fill="white" stroke="black" points="523,-639.5 523,-660.5 645,-660.5 645,-639.5 523,-639.5"/>
<text text-anchor="middle" x="584" y="-647.5" font-family="Helvetica,sans-Serif" font-size="10.00">UBActionPalette::border</text>
</a>
</g>
<!-- Node7&#45;&gt;Node8 -->
<g id="edge14" class="edge"><title>Node7&#45;&gt;Node8</title>
<path fill="none" stroke="midnightblue" d="M482.211,-650C492.324,-650 502.65,-650 512.659,-650"/>
<polygon fill="midnightblue" stroke="midnightblue" points="512.954,-653.5 522.954,-650 512.954,-646.5 512.954,-653.5"/>
</g>
<!-- Node13 -->
<g id="node25" class="node"><title>Node13</title>
<a xlink:href="../../db/d66/class_u_b_settings.html#ad703e9b5a7efdb68b9c6ecef0df7cce2" target="_top" xlink:title="UBSettings::UBSettings">
<polygon fill="white" stroke="black" points="522.5,-404.5 522.5,-425.5 645.5,-425.5 645.5,-404.5 522.5,-404.5"/>
<text text-anchor="middle" x="584" y="-412.5" font-family="Helvetica,sans-Serif" font-size="10.00">UBSettings::UBSettings</text>
</a>
</g>
<!-- Node12&#45;&gt;Node13 -->
<g id="edge24" class="edge"><title>Node12&#45;&gt;Node13</title>
<path fill="none" stroke="midnightblue" d="M458.706,-415C475.571,-415 494.466,-415 512.367,-415"/>
<polygon fill="midnightblue" stroke="midnightblue" points="512.479,-418.5 522.479,-415 512.479,-411.5 512.479,-418.5"/>
</g>
<!-- Node14 -->
<g id="node27" class="node"><title>Node14</title>
<a xlink:href="../../db/d66/class_u_b_settings.html#afd0d739b2cfac7e2d05be7415f6692df" target="_top" xlink:title="UBSettings::InitKeyboard\lPaletteKeyBtnSizes">
<polygon fill="white" stroke="black" points="698,-352 698,-386 826,-386 826,-352 698,-352"/>
<text text-anchor="start" x="706" y="-373" font-family="Helvetica,sans-Serif" font-size="10.00">UBSettings::InitKeyboard</text>
<text text-anchor="middle" x="762" y="-360" font-family="Helvetica,sans-Serif" font-size="10.00">PaletteKeyBtnSizes</text>
</a>
</g>
<!-- Node13&#45;&gt;Node14 -->
<g id="edge26" class="edge"><title>Node13&#45;&gt;Node14</title>
<path fill="none" stroke="midnightblue" d="M624.837,-404.447C643.618,-399.593 666.493,-393.682 688.138,-388.088"/>
<polygon fill="midnightblue" stroke="midnightblue" points="689.17,-391.436 697.977,-385.545 687.419,-384.659 689.17,-391.436"/>
</g>
<!-- Node15 -->
<g id="node29" class="node"><title>Node15</title>
<a xlink:href="../../db/d66/class_u_b_settings.html#a2d3413f8b25d64a698d6d83e0f18ff39" target="_top" xlink:title="UBSettings::getAppSettings">
<polygon fill="white" stroke="black" points="876,-444.5 876,-465.5 1016,-465.5 1016,-444.5 876,-444.5"/>
<text text-anchor="middle" x="946" y="-452.5" font-family="Helvetica,sans-Serif" font-size="10.00">UBSettings::getAppSettings</text>
</a>
</g>
<!-- Node13&#45;&gt;Node15 -->
<g id="edge28" class="edge"><title>Node13&#45;&gt;Node15</title>
<path fill="none" stroke="midnightblue" d="M631.548,-425.519C648.644,-428.984 668.119,-432.568 686,-435 746.034,-443.166 814.355,-448.26 865.891,-451.262"/>
<polygon fill="midnightblue" stroke="midnightblue" points="865.785,-454.762 875.967,-451.835 866.182,-447.773 865.785,-454.762"/>
</g>
<!-- Node17 -->
<g id="node33" class="node"><title>Node17</title>
<a xlink:href="../../db/d66/class_u_b_settings.html#af38d2ad231149df734ca7b5486356500" target="_top" xlink:title="UBSettings::userDataDirectory">
<polygon fill="white" stroke="black" points="686,-404.5 686,-425.5 838,-425.5 838,-404.5 686,-404.5"/>
<text text-anchor="middle" x="762" y="-412.5" font-family="Helvetica,sans-Serif" font-size="10.00">UBSettings::userDataDirectory</text>
</a>
</g>
<!-- Node13&#45;&gt;Node17 -->
<g id="edge32" class="edge"><title>Node13&#45;&gt;Node17</title>
<path fill="none" stroke="midnightblue" d="M645.756,-415C655.471,-415 665.665,-415 675.81,-415"/>
<polygon fill="midnightblue" stroke="midnightblue" points="675.92,-418.5 685.92,-415 675.92,-411.5 675.92,-418.5"/>
</g>
<!-- Node16 -->
<g id="node31" class="node"><title>Node16</title>
<a xlink:href="../../d4/d99/class_u_b_platform_utils.html#ae595b29e794b20564550fd45515fc0a8" target="_top" xlink:title="UBPlatformUtils::application\lResourcesDirectory">
<polygon fill="white" stroke="black" points="1072,-438 1072,-472 1212,-472 1212,-438 1072,-438"/>
<text text-anchor="start" x="1080" y="-459" font-family="Helvetica,sans-Serif" font-size="10.00">UBPlatformUtils::application</text>
<text text-anchor="middle" x="1142" y="-446" font-family="Helvetica,sans-Serif" font-size="10.00">ResourcesDirectory</text>
</a>
</g>
<!-- Node15&#45;&gt;Node16 -->
<g id="edge30" class="edge"><title>Node15&#45;&gt;Node16</title>
<path fill="none" stroke="midnightblue" d="M1016.21,-455C1030.93,-455 1046.57,-455 1061.64,-455"/>
<polygon fill="midnightblue" stroke="midnightblue" points="1061.95,-458.5 1071.95,-455 1061.95,-451.5 1061.95,-458.5"/>
</g>
<!-- Node17&#45;&gt;Node15 -->
<g id="edge34" class="edge"><title>Node17&#45;&gt;Node15</title>
<path fill="none" stroke="midnightblue" d="M810.344,-425.51C834.02,-430.657 862.719,-436.895 887.611,-442.307"/>
<polygon fill="midnightblue" stroke="midnightblue" points="887.145,-445.787 897.66,-444.491 888.632,-438.947 887.145,-445.787"/>
</g>
<!-- Node18 -->
<g id="node36" class="node"><title>Node18</title>
<a xlink:href="../../db/d66/class_u_b_settings.html#aea5fec9db96c03162c2ce1d5d4c41ab0" target="_top" xlink:title="UBSettings::replaceWildcard">
<polygon fill="white" stroke="black" points="874.5,-312.5 874.5,-333.5 1017.5,-333.5 1017.5,-312.5 874.5,-312.5"/>
<text text-anchor="middle" x="946" y="-320.5" font-family="Helvetica,sans-Serif" font-size="10.00">UBSettings::replaceWildcard</text>
</a>
</g>
<!-- Node17&#45;&gt;Node18 -->
<g id="edge36" class="edge"><title>Node17&#45;&gt;Node18</title>
<path fill="none" stroke="midnightblue" d="M819.974,-404.444C826.362,-401.938 832.525,-398.837 838,-395 861.019,-378.868 851.092,-359.289 874,-343 876.696,-341.083 879.569,-339.349 882.558,-337.782"/>
<polygon fill="midnightblue" stroke="midnightblue" points="884.164,-340.896 891.807,-333.559 881.257,-334.528 884.164,-340.896"/>
</g>
<!-- Node20 -->
<g id="node40" class="node"><title>Node20</title>
<a xlink:href="../../db/d66/class_u_b_settings.html#ac0b3c85870c353e48b7d2cfdff9e0eaa" target="_top" xlink:title="UBSettings::checkDirectory">
<polygon fill="white" stroke="black" points="876.5,-404.5 876.5,-425.5 1015.5,-425.5 1015.5,-404.5 876.5,-404.5"/>
<text text-anchor="middle" x="946" y="-412.5" font-family="Helvetica,sans-Serif" font-size="10.00">UBSettings::checkDirectory</text>
</a>
</g>
<!-- Node17&#45;&gt;Node20 -->
<g id="edge40" class="edge"><title>Node17&#45;&gt;Node20</title>
<path fill="none" stroke="midnightblue" d="M838.168,-415C847.461,-415 856.977,-415 866.32,-415"/>
<polygon fill="midnightblue" stroke="midnightblue" points="866.372,-418.5 876.372,-415 866.372,-411.5 866.372,-418.5"/>
</g>
<!-- Node21 -->
<g id="node42" class="node"><title>Node21</title>
<a xlink:href="../../d2/d7a/class_u_b_file_system_utils.html#af850f64fdd630fc78510c856f00ffa4f" target="_top" xlink:title="UBFileSystemUtils:\l:normalizeFilePath">
<polygon fill="white" stroke="black" points="894,-352 894,-386 998,-386 998,-352 894,-352"/>
<text text-anchor="start" x="902" y="-373" font-family="Helvetica,sans-Serif" font-size="10.00">UBFileSystemUtils:</text>
<text text-anchor="middle" x="946" y="-360" font-family="Helvetica,sans-Serif" font-size="10.00">:normalizeFilePath</text>
</a>
</g>
<!-- Node17&#45;&gt;Node21 -->
<g id="edge42" class="edge"><title>Node17&#45;&gt;Node21</title>
<path fill="none" stroke="midnightblue" d="M804.213,-404.447C827.828,-398.543 857.704,-391.074 883.936,-384.516"/>
<polygon fill="midnightblue" stroke="midnightblue" points="884.939,-387.873 893.791,-382.052 883.241,-381.082 884.939,-387.873"/>
</g>
<!-- Node19 -->
<g id="node38" class="node"><title>Node19</title>
<a xlink:href="../../d4/d99/class_u_b_platform_utils.html#a4ff6063df12b6d4d0c60c1a17b434599" target="_top" xlink:title="UBPlatformUtils::osUserLoginName">
<polygon fill="white" stroke="black" points="1054.5,-312.5 1054.5,-333.5 1229.5,-333.5 1229.5,-312.5 1054.5,-312.5"/>
<text text-anchor="middle" x="1142" y="-320.5" font-family="Helvetica,sans-Serif" font-size="10.00">UBPlatformUtils::osUserLoginName</text>
</a>
</g>
<!-- Node18&#45;&gt;Node19 -->
<g id="edge38" class="edge"><title>Node18&#45;&gt;Node19</title>
<path fill="none" stroke="midnightblue" d="M1017.59,-323C1026.25,-323 1035.21,-323 1044.17,-323"/>
<polygon fill="midnightblue" stroke="midnightblue" points="1044.26,-326.5 1054.26,-323 1044.26,-319.5 1044.26,-326.5"/>
</g>
<!-- Node23 -->
<g id="node46" class="node"><title>Node23</title>
<a xlink:href="../../db/d66/class_u_b_settings.html#a30f5b15068954099f41c054979593275" target="_top" xlink:title="UBSettings::value">
<polygon fill="white" stroke="black" points="357,-444.5 357,-465.5 453,-465.5 453,-444.5 357,-444.5"/>
<text text-anchor="middle" x="405" y="-452.5" font-family="Helvetica,sans-Serif" font-size="10.00">UBSettings::value</text>
</a>
</g>
<!-- Node22&#45;&gt;Node23 -->
<g id="edge46" class="edge"><title>Node22&#45;&gt;Node23</title>
<path fill="none" stroke="midnightblue" d="M257.793,-454.217C283.762,-454.355 317.809,-454.536 346.618,-454.689"/>
<polygon fill="midnightblue" stroke="midnightblue" points="346.952,-458.191 356.97,-454.745 346.989,-451.191 346.952,-458.191"/>
</g>
<!-- Node25&#45;&gt;Node12 -->
<g id="edge58" class="edge"><title>Node25&#45;&gt;Node12</title>
<path fill="none" stroke="midnightblue" d="M226.004,-261.703C240.32,-278.822 269.004,-313.54 292,-344 308.717,-366.143 305.182,-379.217 328,-395 332.292,-397.968 336.994,-400.496 341.891,-402.649"/>
<polygon fill="midnightblue" stroke="midnightblue" points="340.905,-406.02 351.495,-406.344 343.418,-399.486 340.905,-406.02"/>
</g>
<!-- Node26 -->
<g id="node52" class="node"><title>Node26</title>
<a xlink:href="../../d6/d6e/class_u_b_keyboard_palette.html#a289f55c2084f9c084006b5db4b463c6f" target="_top" xlink:title="UBKeyboardPalette:\l:setKeyButtonSize">
<polygon fill="white" stroke="black" points="531,-111 531,-145 637,-145 637,-111 531,-111"/>
<text text-anchor="start" x="539" y="-132" font-family="Helvetica,sans-Serif" font-size="10.00">UBKeyboardPalette:</text>
<text text-anchor="middle" x="584" y="-119" font-family="Helvetica,sans-Serif" font-size="10.00">:setKeyButtonSize</text>
</a>
</g>
<!-- Node25&#45;&gt;Node26 -->
<g id="edge52" class="edge"><title>Node25&#45;&gt;Node26</title>
<path fill="none" stroke="midnightblue" d="M236.557,-240.398C258.354,-228.927 294.897,-210.71 328,-199 394.461,-175.489 414.198,-180.307 482,-161 495.612,-157.124 510.137,-152.639 523.832,-148.249"/>
<polygon fill="midnightblue" stroke="midnightblue" points="525.195,-151.486 533.632,-145.079 523.041,-144.826 525.195,-151.486"/>
</g>
<!-- Node29 -->
<g id="node59" class="node"><title>Node29</title>
<a xlink:href="../../d6/d6e/class_u_b_keyboard_palette.html#affd87073e137b50f661e97d74ba7f1a5" target="_top" xlink:title="UBKeyboardPalette:\l:keyboardActivated">
<polygon fill="white" stroke="black" points="352,-118 352,-152 458,-152 458,-118 352,-118"/>
<text text-anchor="start" x="360" y="-139" font-family="Helvetica,sans-Serif" font-size="10.00">UBKeyboardPalette:</text>
<text text-anchor="middle" x="405" y="-126" font-family="Helvetica,sans-Serif" font-size="10.00">:keyboardActivated</text>
</a>
</g>
<!-- Node25&#45;&gt;Node29 -->
<g id="edge60" class="edge"><title>Node25&#45;&gt;Node29</title>
<path fill="none" stroke="midnightblue" d="M228.562,-240.425C247.955,-223.098 288.78,-188.359 328,-166 334.197,-162.467 340.876,-159.142 347.62,-156.075"/>
<polygon fill="midnightblue" stroke="midnightblue" points="349.053,-159.269 356.816,-152.059 346.251,-152.854 349.053,-159.269"/>
</g>
<!-- Node30 -->
<g id="node61" class="node"><title>Node30</title>
<a xlink:href="../../d6/d6e/class_u_b_keyboard_palette.html#a28fc73141e73b77b52fda5f170e25c2d" target="_top" xlink:title="UBKeyboardPalette:\l:onActivated">
<polygon fill="white" stroke="black" points="352,-0 352,-34 458,-34 458,-0 352,-0"/>
<text text-anchor="start" x="360" y="-21" font-family="Helvetica,sans-Serif" font-size="10.00">UBKeyboardPalette:</text>
<text text-anchor="middle" x="405" y="-8" font-family="Helvetica,sans-Serif" font-size="10.00">:onActivated</text>
</a>
</g>
<!-- Node25&#45;&gt;Node30 -->
<g id="edge62" class="edge"><title>Node25&#45;&gt;Node30</title>
<path fill="none" stroke="midnightblue" d="M219.714,-240.138C228.815,-205.931 261.493,-99.3728 328,-43 332.305,-39.3507 337.145,-36.2071 342.247,-33.5001"/>
<polygon fill="midnightblue" stroke="midnightblue" points="344.09,-36.5016 351.656,-29.0844 341.116,-30.1648 344.09,-36.5016"/>
</g>
<!-- Node33 -->
<g id="node67" class="node"><title>Node33</title>
<a xlink:href="../../d6/d6e/class_u_b_keyboard_palette.html#ab74a16f6ca6a2b626f8905ab453ae981" target="_top" xlink:title="UBKeyboardPalette:\l:keyboardPaletteButtonSize\lChanged">
<polygon fill="white" stroke="black" points="336,-52.5 336,-99.5 474,-99.5 474,-52.5 336,-52.5"/>
<text text-anchor="start" x="344" y="-86.5" font-family="Helvetica,sans-Serif" font-size="10.00">UBKeyboardPalette:</text>
<text text-anchor="start" x="344" y="-73.5" font-family="Helvetica,sans-Serif" font-size="10.00">:keyboardPaletteButtonSize</text>
<text text-anchor="middle" x="405" y="-60.5" font-family="Helvetica,sans-Serif" font-size="10.00">Changed</text>
</a>
</g>
<!-- Node25&#45;&gt;Node33 -->
<g id="edge68" class="edge"><title>Node25&#45;&gt;Node33</title>
<path fill="none" stroke="midnightblue" d="M222.831,-240.244C237.363,-214.334 277.668,-147.75 328,-109 329.779,-107.63 331.624,-106.306 333.519,-105.026"/>
<polygon fill="midnightblue" stroke="midnightblue" points="335.457,-107.943 342.113,-99.6999 331.769,-101.993 335.457,-107.943"/>
</g>
<!-- Node34 -->
<g id="node70" class="node"><title>Node34</title>
<a xlink:href="../../d6/d6e/class_u_b_keyboard_palette.html#ad9e26142a418098a78d42ffb461ffcd9" target="_top" xlink:title="UBKeyboardPalette:\l:showKeyboard">
<polygon fill="white" stroke="black" points="352,-352 352,-386 458,-386 458,-352 352,-352"/>
<text text-anchor="start" x="360" y="-373" font-family="Helvetica,sans-Serif" font-size="10.00">UBKeyboardPalette:</text>
<text text-anchor="middle" x="405" y="-360" font-family="Helvetica,sans-Serif" font-size="10.00">:showKeyboard</text>
</a>
</g>
<!-- Node25&#45;&gt;Node34 -->
<g id="edge72" class="edge"><title>Node25&#45;&gt;Node34</title>
<path fill="none" stroke="midnightblue" d="M227.048,-261.572C245.442,-280.376 286.469,-319.832 328,-343 332.505,-345.513 337.294,-347.839 342.194,-349.979"/>
<polygon fill="midnightblue" stroke="midnightblue" points="341.127,-353.324 351.708,-353.868 343.775,-346.845 341.127,-353.324"/>
</g>
<!-- Node35 -->
<g id="node72" class="node"><title>Node35</title>
<a xlink:href="../../de/dc5/class_u_b_action_palette.html#aa1e453b054ded51a722466d5dbfb7d39" target="_top" xlink:title="UBActionPalette::closed">
<polygon fill="white" stroke="black" points="343,-312.5 343,-333.5 467,-333.5 467,-312.5 343,-312.5"/>
<text text-anchor="middle" x="405" y="-320.5" font-family="Helvetica,sans-Serif" font-size="10.00">UBActionPalette::closed</text>
</a>
</g>
<!-- Node25&#45;&gt;Node35 -->
<g id="edge74" class="edge"><title>Node25&#45;&gt;Node35</title>
<path fill="none" stroke="midnightblue" d="M236.585,-261.525C258.406,-272.929 294.969,-291.088 328,-303 334.699,-305.416 341.824,-307.67 348.93,-309.73"/>
<polygon fill="midnightblue" stroke="midnightblue" points="347.996,-313.102 358.568,-312.414 349.874,-306.359 347.996,-313.102"/>
</g>
<!-- Node36 -->
<g id="node74" class="node"><title>Node36</title>
<a xlink:href="../../d6/d6e/class_u_b_keyboard_palette.html#a8bcf1c7f1db7060cc7efa11be66c1c12" target="_top" xlink:title="UBKeyboardPalette:\l:hideKeyboard">
<polygon fill="white" stroke="black" points="352,-260 352,-294 458,-294 458,-260 352,-260"/>
<text text-anchor="start" x="360" y="-281" font-family="Helvetica,sans-Serif" font-size="10.00">UBKeyboardPalette:</text>
<text text-anchor="middle" x="405" y="-268" font-family="Helvetica,sans-Serif" font-size="10.00">:hideKeyboard</text>
</a>
</g>
<!-- Node25&#45;&gt;Node36 -->
<g id="edge76" class="edge"><title>Node25&#45;&gt;Node36</title>
<path fill="none" stroke="midnightblue" d="M278.038,-259.441C298.493,-262.27 321.332,-265.429 341.939,-268.279"/>
<polygon fill="midnightblue" stroke="midnightblue" points="341.47,-271.747 351.855,-269.65 342.429,-264.813 341.47,-271.747"/>
</g>
<!-- Node37 -->
<g id="node76" class="node"><title>Node37</title>
<a xlink:href="../../d4/d99/class_u_b_platform_utils.html#a4e367ec2409fb19b6e7c44d0ad620e59" target="_top" xlink:title="UBPlatformUtils::setWindow\lNonActivableFlag">
<polygon fill="white" stroke="black" points="333.5,-208 333.5,-242 476.5,-242 476.5,-208 333.5,-208"/>
<text text-anchor="start" x="341.5" y="-229" font-family="Helvetica,sans-Serif" font-size="10.00">UBPlatformUtils::setWindow</text>
<text text-anchor="middle" x="405" y="-216" font-family="Helvetica,sans-Serif" font-size="10.00">NonActivableFlag</text>
</a>
</g>
<!-- Node25&#45;&gt;Node37 -->
<g id="edge78" class="edge"><title>Node25&#45;&gt;Node37</title>
<path fill="none" stroke="midnightblue" d="M278.038,-242.559C292.55,-240.552 308.262,-238.379 323.526,-236.268"/>
<polygon fill="midnightblue" stroke="midnightblue" points="324.048,-239.729 333.474,-234.892 323.089,-232.795 324.048,-239.729"/>
</g>
<!-- Node27 -->
<g id="node54" class="node"><title>Node27</title>
<a xlink:href="../../d6/d6e/class_u_b_keyboard_palette.html#a9ca20112f36af4cfa66a792c23eb6a64" target="_top" xlink:title="UBKeyboardPalette:\l:adjustSizeAndPosition">
<polygon fill="white" stroke="black" points="703,-111 703,-145 821,-145 821,-111 703,-111"/>
<text text-anchor="start" x="711" y="-132" font-family="Helvetica,sans-Serif" font-size="10.00">UBKeyboardPalette:</text>
<text text-anchor="middle" x="762" y="-119" font-family="Helvetica,sans-Serif" font-size="10.00">:adjustSizeAndPosition</text>
</a>
</g>
<!-- Node26&#45;&gt;Node27 -->
<g id="edge54" class="edge"><title>Node26&#45;&gt;Node27</title>
<path fill="none" stroke="midnightblue" d="M637.406,-128C654.773,-128 674.305,-128 692.662,-128"/>
<polygon fill="midnightblue" stroke="midnightblue" points="692.719,-131.5 702.719,-128 692.719,-124.5 692.719,-131.5"/>
</g>
<!-- Node28 -->
<g id="node56" class="node"><title>Node28</title>
<a xlink:href="../../d6/d6e/class_u_b_keyboard_palette.html#a0753b0ec9b10e348b8a531a72ad10149" target="_top" xlink:title="UBKeyboardPalette:\l:sizeHint">
<polygon fill="white" stroke="black" points="893,-111 893,-145 999,-145 999,-111 893,-111"/>
<text text-anchor="start" x="901" y="-132" font-family="Helvetica,sans-Serif" font-size="10.00">UBKeyboardPalette:</text>
<text text-anchor="middle" x="946" y="-119" font-family="Helvetica,sans-Serif" font-size="10.00">:sizeHint</text>
</a>
</g>
<!-- Node27&#45;&gt;Node28 -->
<g id="edge56" class="edge"><title>Node27&#45;&gt;Node28</title>
<path fill="none" stroke="midnightblue" d="M821.232,-128C840.824,-128 862.697,-128 882.59,-128"/>
<polygon fill="midnightblue" stroke="midnightblue" points="882.789,-131.5 892.789,-128 882.789,-124.5 882.789,-131.5"/>
</g>
<!-- Node31 -->
<g id="node63" class="node"><title>Node31</title>
<a xlink:href="../../d6/d6e/class_u_b_keyboard_palette.html#a52d457564d7c77f267e3f37b1640f71f" target="_top" xlink:title="UBKeyboardPalette:\l:onLocaleChanged">
<polygon fill="white" stroke="black" points="531,-0 531,-34 637,-34 637,-0 531,-0"/>
<text text-anchor="start" x="539" y="-21" font-family="Helvetica,sans-Serif" font-size="10.00">UBKeyboardPalette:</text>
<text text-anchor="middle" x="584" y="-8" font-family="Helvetica,sans-Serif" font-size="10.00">:onLocaleChanged</text>
</a>
</g>
<!-- Node30&#45;&gt;Node31 -->
<g id="edge64" class="edge"><title>Node30&#45;&gt;Node31</title>
<path fill="none" stroke="midnightblue" d="M458.221,-17C477.881,-17 500.352,-17 520.81,-17"/>
<polygon fill="midnightblue" stroke="midnightblue" points="520.984,-20.5001 530.984,-17 520.984,-13.5001 520.984,-20.5001"/>
</g>
<!-- Node32 -->
<g id="node65" class="node"><title>Node32</title>
<a xlink:href="../../d2/dab/struct_k_e_y_c_o_d_e.html#acb6324cb38828263de48056f11cb03f3" target="_top" xlink:title="KEYCODE::empty">
<polygon fill="white" stroke="black" points="712.5,-6.5 712.5,-27.5 811.5,-27.5 811.5,-6.5 712.5,-6.5"/>
<text text-anchor="middle" x="762" y="-14.5" font-family="Helvetica,sans-Serif" font-size="10.00">KEYCODE::empty</text>
</a>
</g>
<!-- Node31&#45;&gt;Node32 -->
<g id="edge66" class="edge"><title>Node31&#45;&gt;Node32</title>
<path fill="none" stroke="midnightblue" d="M637.406,-17C657.823,-17 681.232,-17 702.207,-17"/>
<polygon fill="midnightblue" stroke="midnightblue" points="702.284,-20.5001 712.284,-17 702.284,-13.5001 702.284,-20.5001"/>
</g>
<!-- Node33&#45;&gt;Node26 -->
<g id="edge70" class="edge"><title>Node33&#45;&gt;Node26</title>
<path fill="none" stroke="midnightblue" d="M474.206,-96.1046C489.62,-100.582 505.882,-105.307 521.029,-109.707"/>
<polygon fill="midnightblue" stroke="midnightblue" points="520.223,-113.117 530.802,-112.546 522.176,-106.395 520.223,-113.117"/>
</g>
</g>
</svg>
