<?xml version="1.0" encoding="UTF-8" standalone="no"?>
<!DOCTYPE svg PUBLIC "-//W3C//DTD SVG 1.1//EN"
 "http://www.w3.org/Graphics/SVG/1.1/DTD/svg11.dtd">
<!-- Generated by graphviz version 2.26.3 (20100126.1600)
 -->
<!-- Title: UBDownloadHttpFile::onDownloadFinished Pages: 1 -->
<svg width="274pt" height="42pt"
 viewBox="0.00 0.00 274.00 42.00" xmlns="http://www.w3.org/2000/svg" xmlns:xlink="http://www.w3.org/1999/xlink">
<g id="graph1" class="graph" transform="scale(1 1) rotate(0) translate(4 38)">
<title>UBDownloadHttpFile::onDownloadFinished</title>
<polygon fill="white" stroke="white" points="-4,5 -4,-38 271,-38 271,5 -4,5"/>
<!-- Node1 -->
<g id="node1" class="node"><title>Node1</title>
<polygon fill="#bfbfbf" stroke="black" points="0.5,-0 0.5,-34 113.5,-34 113.5,-0 0.5,-0"/>
<text text-anchor="start" x="8.5" y="-21" font-family="Helvetica,sans-Serif" font-size="10.00">UBDownloadHttpFile</text>
<text text-anchor="middle" x="57" y="-8" font-family="Helvetica,sans-Serif" font-size="10.00">::onDownloadFinished</text>
</g>
<!-- Node2 -->
<g id="node3" class="node"><title>Node2</title>
<a xlink:href="../../da/d3e/class_u_b_download_http_file.html#a98850a9d46ab95f8c1dc9d62bede945a" target="_top" xlink:title="Constructor.">
<polygon fill="white" stroke="black" points="150.5,-0 150.5,-34 265.5,-34 265.5,-0 150.5,-0"/>
<text text-anchor="start" x="158.5" y="-21" font-family="Helvetica,sans-Serif" font-size="10.00">UBDownloadHttpFile</text>
<text text-anchor="middle" x="208" y="-8" font-family="Helvetica,sans-Serif" font-size="10.00">::UBDownloadHttpFile</text>
</a>
</g>
<!-- Node1&#45;&gt;Node2 -->
<g id="edge2" class="edge"><title>Node1&#45;&gt;Node2</title>
<path fill="none" stroke="midnightblue" d="M123.885,-17C132.684,-17 141.642,-17 150.271,-17"/>
<polygon fill="midnightblue" stroke="midnightblue" points="123.656,-13.5001 113.656,-17 123.656,-20.5001 123.656,-13.5001"/>
</g>
</g>
</svg>
