<?xml version="1.0" encoding="UTF-8" standalone="no"?>
<!DOCTYPE svg PUBLIC "-//W3C//DTD SVG 1.1//EN"
 "http://www.w3.org/Graphics/SVG/1.1/DTD/svg11.dtd">
<!-- Generated by graphviz version 2.26.3 (20100126.1600)
 -->
<!-- Title: UBWindowCaptureDelegate_win.h Pages: 1 -->
<svg width="306pt" height="116pt"
 viewBox="0.00 0.00 306.00 116.00" xmlns="http://www.w3.org/2000/svg" xmlns:xlink="http://www.w3.org/1999/xlink">
<g id="graph1" class="graph" transform="scale(1 1) rotate(0) translate(4 112)">
<title>UBWindowCaptureDelegate_win.h</title>
<polygon fill="white" stroke="white" points="-4,5 -4,-112 303,-112 303,5 -4,5"/>
<!-- Node1 -->
<g id="node1" class="node"><title>Node1</title>
<polygon fill="#bfbfbf" stroke="black" points="79,-73 79,-107 219,-107 219,-73 79,-73"/>
<text text-anchor="start" x="87" y="-94" font-family="Helvetica,sans-Serif" font-size="10.00">UBWindowCaptureDelegate</text>
<text text-anchor="middle" x="149" y="-81" font-family="Helvetica,sans-Serif" font-size="10.00">_win.h</text>
</g>
<!-- Node2 -->
<g id="node3" class="node"><title>Node2</title>
<a xlink:href="../../d7/daa/_u_b_window_capture__win_8cpp.html" target="_top" xlink:title="UBWindowCapture_win.cpp">
<polygon fill="white" stroke="black" points="0,-7.5 0,-28.5 140,-28.5 140,-7.5 0,-7.5"/>
<text text-anchor="middle" x="70" y="-15.5" font-family="Helvetica,sans-Serif" font-size="10.00">UBWindowCapture_win.cpp</text>
</a>
</g>
<!-- Node1&#45;&gt;Node2 -->
<g id="edge2" class="edge"><title>Node1&#45;&gt;Node2</title>
<path fill="none" stroke="midnightblue" d="M122.521,-65.8677C108.784,-53.3471 92.6796,-38.67 81.9608,-28.901"/>
<polygon fill="midnightblue" stroke="midnightblue" points="120.53,-68.7878 130.278,-72.937 125.245,-63.6141 120.53,-68.7878"/>
</g>
<!-- Node3 -->
<g id="node5" class="node"><title>Node3</title>
<a xlink:href="../../d7/da8/_u_b_window_capture_delegate__win_8cpp.html" target="_top" xlink:title="UBWindowCaptureDelegate\l_win.cpp">
<polygon fill="white" stroke="black" points="158,-1 158,-35 298,-35 298,-1 158,-1"/>
<text text-anchor="start" x="166" y="-22" font-family="Helvetica,sans-Serif" font-size="10.00">UBWindowCaptureDelegate</text>
<text text-anchor="middle" x="228" y="-9" font-family="Helvetica,sans-Serif" font-size="10.00">_win.cpp</text>
</a>
</g>
<!-- Node1&#45;&gt;Node3 -->
<g id="edge4" class="edge"><title>Node1&#45;&gt;Node3</title>
<path fill="none" stroke="midnightblue" d="M175.434,-65.9083C186.477,-55.8438 199.055,-44.3799 209.139,-35.19"/>
<polygon fill="midnightblue" stroke="midnightblue" points="172.755,-63.6141 167.722,-72.937 177.47,-68.7878 172.755,-63.6141"/>
</g>
</g>
</svg>
