<?xml version="1.0" encoding="UTF-8" standalone="no"?>
<!DOCTYPE svg PUBLIC "-//W3C//DTD SVG 1.1//EN"
 "http://www.w3.org/Graphics/SVG/1.1/DTD/svg11.dtd">
<!-- Generated by graphviz version 2.26.3 (20100126.1600)
 -->
<!-- Title: PageCopier::cureIdsFromSvgDom Pages: 1 -->
<!--zoomable 172 -->
<svg id="main" version="1.1" xmlns="http://www.w3.org/2000/svg" xmlns:xlink="http://www.w3.org/1999/xlink" xml:space="preserve" onload="init(evt)">
        <defs>
                <circle id="rim" cx="0" cy="0" r="7"/>
                <circle id="rim2" cx="0" cy="0" r="3.5"/>
                <g id="zoomPlus">
                        <use xlink:href="#rim" fill="#404040">
                                <set attributeName="fill" to="#808080" begin="zoomplus.mouseover" end="zoomplus.mouseout"/>
                        </use>
                        <path d="M-4,0h8M0,-4v8" fill="none" stroke="white" stroke-width="1.5" pointer-events="none"/>
                </g>
                <g id="zoomMin">
                        <use xlink:href="#rim" fill="#404040">
                                <set attributeName="fill" to="#808080" begin="zoomminus.mouseover" end="zoomminus.mouseout"/>
                        </use>
                        <path d="M-4,0h8" fill="none" stroke="white" stroke-width="1.5" pointer-events="none"/>
                </g>
                <g id="dirArrow">
                        <path fill="none" stroke="white" stroke-width="1.5" d="M0,-3.0v7 M-2.5,-0.5L0,-3.0L2.5,-0.5"/>
                </g>
               <g id="resetDef">
                       <use xlink:href="#rim2" fill="#404040">
                               <set attributeName="fill" to="#808080" begin="reset.mouseover" end="reset.mouseout"/>
                       </use>
               </g>
        </defs>

<script type="text/javascript">
var viewWidth = 1540;
var viewHeight = 172;
var sectionId = 'dynsection-6';
</script>
<script xlink:href="../../svgpan.js"/>
<svg id="graph" class="graph">
<g id="viewport">
<title>PageCopier::cureIdsFromSvgDom</title>
<polygon fill="white" stroke="white" points="-4,5 -4,-168 1537,-168 1537,5 -4,5"/>
<!-- Node1 -->
<g id="node1" class="node"><title>Node1</title>
<polygon fill="#bfbfbf" stroke="black" points="0.5,-58.5 0.5,-79.5 167.5,-79.5 167.5,-58.5 0.5,-58.5"/>
<text text-anchor="middle" x="84" y="-66.5" font-family="Helvetica,sans-Serif" font-size="10.00">PageCopier::cureIdsFromSvgDom</text>
</g>
<!-- Node2 -->
<g id="node3" class="node"><title>Node2</title>
<a xlink:href="../../d8/d29/class_page_copier.html#acb8e021b589aaaf65c8789cfb9c7eeb5" target="_top" xlink:title="PageCopier::copyPage">
<polygon fill="white" stroke="black" points="204.5,-58.5 204.5,-79.5 321.5,-79.5 321.5,-58.5 204.5,-58.5"/>
<text text-anchor="middle" x="263" y="-66.5" font-family="Helvetica,sans-Serif" font-size="10.00">PageCopier::copyPage</text>
</a>
</g>
<!-- Node1&#45;&gt;Node2 -->
<g id="edge2" class="edge"><title>Node1&#45;&gt;Node2</title>
<path fill="none" stroke="midnightblue" d="M177.9,-69C186.898,-69 195.836,-69 204.35,-69"/>
<polygon fill="midnightblue" stroke="midnightblue" points="177.735,-65.5001 167.735,-69 177.735,-72.5001 177.735,-65.5001"/>
</g>
<!-- Node3 -->
<g id="node5" class="node"><title>Node3</title>
<a xlink:href="../../db/d70/class_u_b_foreighn_objects_handler_private.html#a3267852f2cd292741592cf0548affaa3" target="_top" xlink:title="UBForeighnObjectsHandler\lPrivate::copyPage">
<polygon fill="white" stroke="black" points="358,-52 358,-86 494,-86 494,-52 358,-52"/>
<text text-anchor="start" x="366" y="-73" font-family="Helvetica,sans-Serif" font-size="10.00">UBForeighnObjectsHandler</text>
<text text-anchor="middle" x="426" y="-60" font-family="Helvetica,sans-Serif" font-size="10.00">Private::copyPage</text>
</a>
</g>
<!-- Node2&#45;&gt;Node3 -->
<g id="edge4" class="edge"><title>Node2&#45;&gt;Node3</title>
<path fill="none" stroke="midnightblue" d="M332.112,-69C340.624,-69 349.32,-69 357.818,-69"/>
<polygon fill="midnightblue" stroke="midnightblue" points="331.847,-65.5001 321.847,-69 331.847,-72.5001 331.847,-65.5001"/>
</g>
<!-- Node4 -->
<g id="node7" class="node"><title>Node4</title>
<a xlink:href="../../d5/d42/class_u_b_foreighn_objects_handler.html#a00c1daf6a51e30dcb2607f8b83005e25" target="_top" xlink:title="UBForeighnObjectsHandler\l::copyPage">
<polygon fill="white" stroke="black" points="530,-52 530,-86 666,-86 666,-52 530,-52"/>
<text text-anchor="start" x="538" y="-73" font-family="Helvetica,sans-Serif" font-size="10.00">UBForeighnObjectsHandler</text>
<text text-anchor="middle" x="598" y="-60" font-family="Helvetica,sans-Serif" font-size="10.00">::copyPage</text>
</a>
</g>
<!-- Node3&#45;&gt;Node4 -->
<g id="edge6" class="edge"><title>Node3&#45;&gt;Node4</title>
<path fill="none" stroke="midnightblue" d="M504.637,-69C513.025,-69 521.508,-69 529.762,-69"/>
<polygon fill="midnightblue" stroke="midnightblue" points="504.473,-65.5001 494.473,-69 504.473,-72.5001 504.473,-65.5001"/>
</g>
<!-- Node5 -->
<g id="node9" class="node"><title>Node5</title>
<a xlink:href="../../d0/dd5/class_u_b_persistence_manager.html#a02050499f8179287038922f42ddf2e17" target="_top" xlink:title="UBPersistenceManager\l::copyDocumentScene">
<polygon fill="white" stroke="black" points="702,-52 702,-86 822,-86 822,-52 702,-52"/>
<text text-anchor="start" x="710" y="-73" font-family="Helvetica,sans-Serif" font-size="10.00">UBPersistenceManager</text>
<text text-anchor="middle" x="762" y="-60" font-family="Helvetica,sans-Serif" font-size="10.00">::copyDocumentScene</text>
</a>
</g>
<!-- Node4&#45;&gt;Node5 -->
<g id="edge8" class="edge"><title>Node4&#45;&gt;Node5</title>
<path fill="none" stroke="midnightblue" d="M676.222,-69C684.864,-69 693.563,-69 701.932,-69"/>
<polygon fill="midnightblue" stroke="midnightblue" points="676.126,-65.5001 666.126,-69 676.126,-72.5001 676.126,-65.5001"/>
</g>
<!-- Node6 -->
<g id="node11" class="node"><title>Node6</title>
<a xlink:href="../../da/dc6/class_u_b_document_container.html#aedf080a092dceadc66b0994b0bf156fe" target="_top" xlink:title="UBDocumentContainer\l::duplicatePages">
<polygon fill="white" stroke="black" points="860,-104 860,-138 978,-138 978,-104 860,-104"/>
<text text-anchor="start" x="868" y="-125" font-family="Helvetica,sans-Serif" font-size="10.00">UBDocumentContainer</text>
<text text-anchor="middle" x="919" y="-112" font-family="Helvetica,sans-Serif" font-size="10.00">::duplicatePages</text>
</a>
</g>
<!-- Node5&#45;&gt;Node6 -->
<g id="edge10" class="edge"><title>Node5&#45;&gt;Node6</title>
<path fill="none" stroke="midnightblue" d="M822.932,-89.1812C837.65,-94.0562 853.238,-99.2189 867.477,-103.935"/>
<polygon fill="midnightblue" stroke="midnightblue" points="824.001,-85.8484 813.408,-86.0267 821.8,-92.4934 824.001,-85.8484"/>
</g>
<!-- Node13 -->
<g id="node25" class="node"><title>Node13</title>
<a xlink:href="../../dd/d5a/class_u_b_document_tree_model.html#af71ae3d84f577bbee154dea3eb0fad66" target="_top" xlink:title="UBDocumentTreeModel\l::dropMimeData">
<polygon fill="white" stroke="black" points="858,-52 858,-86 980,-86 980,-52 858,-52"/>
<text text-anchor="start" x="866" y="-73" font-family="Helvetica,sans-Serif" font-size="10.00">UBDocumentTreeModel</text>
<text text-anchor="middle" x="919" y="-60" font-family="Helvetica,sans-Serif" font-size="10.00">::dropMimeData</text>
</a>
</g>
<!-- Node5&#45;&gt;Node13 -->
<g id="edge24" class="edge"><title>Node5&#45;&gt;Node13</title>
<path fill="none" stroke="midnightblue" d="M832.491,-69C840.959,-69 849.552,-69 857.871,-69"/>
<polygon fill="midnightblue" stroke="midnightblue" points="832.251,-65.5001 822.251,-69 832.251,-72.5001 832.251,-65.5001"/>
</g>
<!-- Node14 -->
<g id="node27" class="node"><title>Node14</title>
<a xlink:href="../../da/d16/class_u_b_document_tree_view.html#a8364df11d6b3285ea0684673801b0b6c" target="_top" xlink:title="UBDocumentTreeView\l::dropEvent">
<polygon fill="white" stroke="black" points="860.5,-0 860.5,-34 977.5,-34 977.5,-0 860.5,-0"/>
<text text-anchor="start" x="868.5" y="-21" font-family="Helvetica,sans-Serif" font-size="10.00">UBDocumentTreeView</text>
<text text-anchor="middle" x="919" y="-8" font-family="Helvetica,sans-Serif" font-size="10.00">::dropEvent</text>
</a>
</g>
<!-- Node5&#45;&gt;Node14 -->
<g id="edge26" class="edge"><title>Node5&#45;&gt;Node14</title>
<path fill="none" stroke="midnightblue" d="M822.932,-48.8188C837.65,-43.9438 853.238,-38.7811 867.477,-34.065"/>
<polygon fill="midnightblue" stroke="midnightblue" points="821.8,-45.5066 813.408,-51.9733 824.001,-52.1516 821.8,-45.5066"/>
</g>
<!-- Node7 -->
<g id="node13" class="node"><title>Node7</title>
<a xlink:href="../../d7/d62/class_u_b_board_controller.html#ae84d5e3160402f05efcf708a8b81ba36" target="_top" xlink:title="UBBoardController:\l:duplicateScene">
<polygon fill="white" stroke="black" points="1025.5,-130 1025.5,-164 1126.5,-164 1126.5,-130 1025.5,-130"/>
<text text-anchor="start" x="1033.5" y="-151" font-family="Helvetica,sans-Serif" font-size="10.00">UBBoardController:</text>
<text text-anchor="middle" x="1076" y="-138" font-family="Helvetica,sans-Serif" font-size="10.00">:duplicateScene</text>
</a>
</g>
<!-- Node6&#45;&gt;Node7 -->
<g id="edge12" class="edge"><title>Node6&#45;&gt;Node7</title>
<path fill="none" stroke="midnightblue" d="M988.253,-132.469C1000.71,-134.531 1013.48,-136.646 1025.29,-138.602"/>
<polygon fill="midnightblue" stroke="midnightblue" points="988.792,-129.01 978.355,-130.829 987.649,-135.916 988.792,-129.01"/>
</g>
<!-- Node10 -->
<g id="node19" class="node"><title>Node10</title>
<a xlink:href="../../d6/de0/class_u_b_document_controller.html#a778970871dc49c20eb0812f352a65f75" target="_top" xlink:title="UBDocumentController\l::duplicateSelectedItem">
<polygon fill="white" stroke="black" points="1016.5,-78 1016.5,-112 1135.5,-112 1135.5,-78 1016.5,-78"/>
<text text-anchor="start" x="1024.5" y="-99" font-family="Helvetica,sans-Serif" font-size="10.00">UBDocumentController</text>
<text text-anchor="middle" x="1076" y="-86" font-family="Helvetica,sans-Serif" font-size="10.00">::duplicateSelectedItem</text>
</a>
</g>
<!-- Node6&#45;&gt;Node10 -->
<g id="edge18" class="edge"><title>Node6&#45;&gt;Node10</title>
<path fill="none" stroke="midnightblue" d="M988.369,-109.512C997.684,-107.97 1007.17,-106.398 1016.3,-104.887"/>
<polygon fill="midnightblue" stroke="midnightblue" points="987.649,-106.084 978.355,-111.171 988.792,-112.99 987.649,-106.084"/>
</g>
<!-- Node8 -->
<g id="node15" class="node"><title>Node8</title>
<a xlink:href="../../da/d05/class_u_b_scene_thumbnail_navig_pixmap.html#af93b55042d19649ab98941b749f3cb01" target="_top" xlink:title="UBSceneThumbnailNavigPixmap\l::duplicatePage">
<polygon fill="white" stroke="black" points="1172,-130 1172,-164 1334,-164 1334,-130 1172,-130"/>
<text text-anchor="start" x="1180" y="-151" font-family="Helvetica,sans-Serif" font-size="10.00">UBSceneThumbnailNavigPixmap</text>
<text text-anchor="middle" x="1253" y="-138" font-family="Helvetica,sans-Serif" font-size="10.00">::duplicatePage</text>
</a>
</g>
<!-- Node7&#45;&gt;Node8 -->
<g id="edge14" class="edge"><title>Node7&#45;&gt;Node8</title>
<path fill="none" stroke="midnightblue" d="M1136.87,-147C1148.15,-147 1160.09,-147 1171.86,-147"/>
<polygon fill="midnightblue" stroke="midnightblue" points="1136.72,-143.5 1126.72,-147 1136.72,-150.5 1136.72,-143.5"/>
</g>
<!-- Node9 -->
<g id="node17" class="node"><title>Node9</title>
<a xlink:href="../../da/d05/class_u_b_scene_thumbnail_navig_pixmap.html#a05169f2d12b103609813345624877cd6" target="_top" xlink:title="UBSceneThumbnailNavigPixmap\l::mousePressEvent">
<polygon fill="white" stroke="black" points="1370,-130 1370,-164 1532,-164 1532,-130 1370,-130"/>
<text text-anchor="start" x="1378" y="-151" font-family="Helvetica,sans-Serif" font-size="10.00">UBSceneThumbnailNavigPixmap</text>
<text text-anchor="middle" x="1451" y="-138" font-family="Helvetica,sans-Serif" font-size="10.00">::mousePressEvent</text>
</a>
</g>
<!-- Node8&#45;&gt;Node9 -->
<g id="edge16" class="edge"><title>Node8&#45;&gt;Node9</title>
<path fill="none" stroke="midnightblue" d="M1344.36,-147C1352.82,-147 1361.35,-147 1369.7,-147"/>
<polygon fill="midnightblue" stroke="midnightblue" points="1344.11,-143.5 1334.11,-147 1344.11,-150.5 1344.11,-143.5"/>
</g>
<!-- Node11 -->
<g id="node21" class="node"><title>Node11</title>
<a xlink:href="../../d6/de0/class_u_b_document_controller.html#abb172787a34a34cd3c2df0a1b46918c5" target="_top" xlink:title="UBDocumentController\l::setupViews">
<polygon fill="white" stroke="black" points="1194,-78 1194,-112 1312,-112 1312,-78 1194,-78"/>
<text text-anchor="start" x="1202" y="-99" font-family="Helvetica,sans-Serif" font-size="10.00">UBDocumentController</text>
<text text-anchor="middle" x="1253" y="-86" font-family="Helvetica,sans-Serif" font-size="10.00">::setupViews</text>
</a>
</g>
<!-- Node10&#45;&gt;Node11 -->
<g id="edge20" class="edge"><title>Node10&#45;&gt;Node11</title>
<path fill="none" stroke="midnightblue" d="M1146.14,-95C1161.9,-95 1178.47,-95 1193.74,-95"/>
<polygon fill="midnightblue" stroke="midnightblue" points="1145.92,-91.5001 1135.92,-95 1145.92,-98.5001 1145.92,-91.5001"/>
</g>
<!-- Node12 -->
<g id="node23" class="node"><title>Node12</title>
<a xlink:href="../../d6/de0/class_u_b_document_controller.html#a38e9ea0a2dad2b1c8d9588563e9ee3bf" target="_top" xlink:title="UBDocumentController\l::UBDocumentController">
<polygon fill="white" stroke="black" points="1389,-78 1389,-112 1513,-112 1513,-78 1389,-78"/>
<text text-anchor="start" x="1397" y="-99" font-family="Helvetica,sans-Serif" font-size="10.00">UBDocumentController</text>
<text text-anchor="middle" x="1451" y="-86" font-family="Helvetica,sans-Serif" font-size="10.00">::UBDocumentController</text>
</a>
</g>
<!-- Node11&#45;&gt;Node12 -->
<g id="edge22" class="edge"><title>Node11&#45;&gt;Node12</title>
<path fill="none" stroke="midnightblue" d="M1322.24,-95C1343.88,-95 1367.6,-95 1388.73,-95"/>
<polygon fill="midnightblue" stroke="midnightblue" points="1322.14,-91.5001 1312.14,-95 1322.14,-98.5001 1322.14,-91.5001"/>
</g>
</g>
</svg>
        <g id="navigator" transform="translate(0 0)" fill="#404254">
                <rect fill="#f2f5e9" fill-opacity="0.5" stroke="#606060" stroke-width=".5" x="0" y="0" width="60" height="60"/>
                <use id="zoomplus" xlink:href="#zoomPlus" x="17" y="9" onmousedown="handleZoom(evt,'in')"/>
                <use id="zoomminus" xlink:href="#zoomMin" x="42" y="9" onmousedown="handleZoom(evt,'out')"/>
                <use id="reset" xlink:href="#resetDef" x="30" y="36" onmousedown="handleReset()"/>
                <g id="arrowUp" xlink:href="#dirArrow" transform="translate(30 24)" onmousedown="handlePan(0,-1)">
                  <use xlink:href="#rim" fill="#404040">
                        <set attributeName="fill" to="#808080" begin="arrowUp.mouseover" end="arrowUp.mouseout"/>
                  </use>
                  <path fill="none" stroke="white" stroke-width="1.5" d="M0,-3.0v7 M-2.5,-0.5L0,-3.0L2.5,-0.5"/>
                </g>
                <g id="arrowRight" xlink:href="#dirArrow" transform="rotate(90) translate(36 -43)" onmousedown="handlePan(1,0)">
                  <use xlink:href="#rim" fill="#404040">
                        <set attributeName="fill" to="#808080" begin="arrowRight.mouseover" end="arrowRight.mouseout"/>
                  </use>
                  <path fill="none" stroke="white" stroke-width="1.5" d="M0,-3.0v7 M-2.5,-0.5L0,-3.0L2.5,-0.5"/>
                </g>
                <g id="arrowDown" xlink:href="#dirArrow" transform="rotate(180) translate(-30 -48)" onmousedown="handlePan(0,1)">
                  <use xlink:href="#rim" fill="#404040">
                        <set attributeName="fill" to="#808080" begin="arrowDown.mouseover" end="arrowDown.mouseout"/>
                  </use>
                  <path fill="none" stroke="white" stroke-width="1.5" d="M0,-3.0v7 M-2.5,-0.5L0,-3.0L2.5,-0.5"/>
                </g>
                <g id="arrowLeft" xlink:href="#dirArrow" transform="rotate(270) translate(-36 17)" onmousedown="handlePan(-1,0)">
                  <use xlink:href="#rim" fill="#404040">
                        <set attributeName="fill" to="#808080" begin="arrowLeft.mouseover" end="arrowLeft.mouseout"/>
                  </use>
                  <path fill="none" stroke="white" stroke-width="1.5" d="M0,-3.0v7 M-2.5,-0.5L0,-3.0L2.5,-0.5"/>
                </g>
        </g>
        <svg viewBox="0 0 15 15" width="100%" height="30px" preserveAspectRatio="xMaxYMin meet">
         <g id="arrow_out" transform="scale(0.3 0.3)">
          <a xlink:href="class_page_copier_a83ca51a0c2ecafd491ed0824226eccdd_icgraph_org.svg" target="_base">
           <rect id="button" ry="5" rx="5" y="6" x="6" height="38" width="38"
                fill="#f2f5e9" fill-opacity="0.5" stroke="#606060" stroke-width="1.0"/>
           <path id="arrow"
             d="M 11.500037,31.436501 C 11.940474,20.09759 22.043105,11.32322 32.158766,21.979434 L 37.068811,17.246167 C 37.068811,17.246167 37.088388,32 37.088388,32 L 22.160133,31.978069 C 22.160133,31.978069 26.997745,27.140456 26.997745,27.140456 C 18.528582,18.264221 13.291696,25.230495 11.500037,31.436501 z"
             style="fill:#404040;"/>
          </a>
         </g>
        </svg>
</svg>
