<?xml version="1.0" encoding="UTF-8" standalone="no"?>
<!DOCTYPE svg PUBLIC "-//W3C//DTD SVG 1.1//EN"
 "http://www.w3.org/Graphics/SVG/1.1/DTD/svg11.dtd">
<!-- Generated by graphviz version 2.26.3 (20100126.1600)
 -->
<!-- Title: UBDocumentTreeModel::indexForProxy Pages: 1 -->
<svg width="786pt" height="236pt"
 viewBox="0.00 0.00 786.00 236.00" xmlns="http://www.w3.org/2000/svg" xmlns:xlink="http://www.w3.org/1999/xlink">
<g id="graph1" class="graph" transform="scale(1 1) rotate(0) translate(4 232)">
<title>UBDocumentTreeModel::indexForProxy</title>
<polygon fill="white" stroke="white" points="-4,5 -4,-232 783,-232 783,5 -4,5"/>
<!-- Node1 -->
<g id="node1" class="node"><title>Node1</title>
<polygon fill="#bfbfbf" stroke="black" points="0,-129 0,-163 122,-163 122,-129 0,-129"/>
<text text-anchor="start" x="8" y="-150" font-family="Helvetica,sans-Serif" font-size="10.00">UBDocumentTreeModel</text>
<text text-anchor="middle" x="61" y="-137" font-family="Helvetica,sans-Serif" font-size="10.00">::indexForProxy</text>
</g>
<!-- Node2 -->
<g id="node3" class="node"><title>Node2</title>
<a xlink:href="../../dd/d5a/class_u_b_document_tree_model.html#a0468df61607cc77c8e9eef92df5996eb" target="_top" xlink:title="UBDocumentTreeModel\l::findProxy">
<polygon fill="white" stroke="black" points="158,-90 158,-124 280,-124 280,-90 158,-90"/>
<text text-anchor="start" x="166" y="-111" font-family="Helvetica,sans-Serif" font-size="10.00">UBDocumentTreeModel</text>
<text text-anchor="middle" x="219" y="-98" font-family="Helvetica,sans-Serif" font-size="10.00">::findProxy</text>
</a>
</g>
<!-- Node1&#45;&gt;Node2 -->
<g id="edge2" class="edge"><title>Node1&#45;&gt;Node2</title>
<path fill="none" stroke="midnightblue" d="M122.087,-130.922C130.605,-128.819 139.415,-126.644 148.095,-124.502"/>
<polygon fill="midnightblue" stroke="midnightblue" points="148.945,-127.897 157.815,-122.103 147.268,-121.101 148.945,-127.897"/>
</g>
<!-- Node7 -->
<g id="node13" class="node"><title>Node7</title>
<a xlink:href="../../dd/d5a/class_u_b_document_tree_model.html#a05779f6af8042fbe0c9f72002fb3f246" target="_top" xlink:title="UBDocumentTreeModel\l::indexForNode">
<polygon fill="white" stroke="black" points="158,-168 158,-202 280,-202 280,-168 158,-168"/>
<text text-anchor="start" x="166" y="-189" font-family="Helvetica,sans-Serif" font-size="10.00">UBDocumentTreeModel</text>
<text text-anchor="middle" x="219" y="-176" font-family="Helvetica,sans-Serif" font-size="10.00">::indexForNode</text>
</a>
</g>
<!-- Node1&#45;&gt;Node7 -->
<g id="edge12" class="edge"><title>Node1&#45;&gt;Node7</title>
<path fill="none" stroke="midnightblue" d="M122.087,-161.078C130.605,-163.181 139.415,-165.356 148.095,-167.498"/>
<polygon fill="midnightblue" stroke="midnightblue" points="147.268,-170.899 157.815,-169.897 148.945,-164.103 147.268,-170.899"/>
</g>
<!-- Node3 -->
<g id="node5" class="node"><title>Node3</title>
<a xlink:href="../../de/d8b/class_u_b_document_tree_node.html#add8f3447b6f6d02ff78a440386ed89f4" target="_top" xlink:title="UBDocumentTreeNode\l::children">
<polygon fill="white" stroke="black" points="657.5,-142 657.5,-176 776.5,-176 776.5,-142 657.5,-142"/>
<text text-anchor="start" x="665.5" y="-163" font-family="Helvetica,sans-Serif" font-size="10.00">UBDocumentTreeNode</text>
<text text-anchor="middle" x="717" y="-150" font-family="Helvetica,sans-Serif" font-size="10.00">::children</text>
</a>
</g>
<!-- Node2&#45;&gt;Node3 -->
<g id="edge4" class="edge"><title>Node2&#45;&gt;Node3</title>
<path fill="none" stroke="midnightblue" d="M272.621,-89.9482C286.596,-86.2459 301.739,-82.8781 316,-81 380.333,-72.5275 397.825,-71.4044 462,-81 534.479,-91.8372 614.825,-119.096 665.595,-138.324"/>
<polygon fill="midnightblue" stroke="midnightblue" points="664.442,-141.63 675.033,-141.935 666.944,-135.093 664.442,-141.63"/>
</g>
<!-- Node4 -->
<g id="node7" class="node"><title>Node4</title>
<a xlink:href="../../de/d8b/class_u_b_document_tree_node.html#a20713ca76afd123a3969933729504bce" target="_top" xlink:title="UBDocumentTreeNode\l::nodeType">
<polygon fill="white" stroke="black" points="329.5,-142 329.5,-176 448.5,-176 448.5,-142 329.5,-142"/>
<text text-anchor="start" x="337.5" y="-163" font-family="Helvetica,sans-Serif" font-size="10.00">UBDocumentTreeNode</text>
<text text-anchor="middle" x="389" y="-150" font-family="Helvetica,sans-Serif" font-size="10.00">::nodeType</text>
</a>
</g>
<!-- Node2&#45;&gt;Node4 -->
<g id="edge6" class="edge"><title>Node2&#45;&gt;Node4</title>
<path fill="none" stroke="midnightblue" d="M274.664,-124.027C290.221,-128.785 307.273,-134.001 323.349,-138.919"/>
<polygon fill="midnightblue" stroke="midnightblue" points="322.624,-142.357 333.211,-141.935 324.672,-135.663 322.624,-142.357"/>
</g>
<!-- Node5 -->
<g id="node9" class="node"><title>Node5</title>
<a xlink:href="../../de/d8b/class_u_b_document_tree_node.html#a089338d403f60b36f8fc64b8e05f176f" target="_top" xlink:title="UBDocumentTreeNode\l::proxyData">
<polygon fill="white" stroke="black" points="329.5,-90 329.5,-124 448.5,-124 448.5,-90 329.5,-90"/>
<text text-anchor="start" x="337.5" y="-111" font-family="Helvetica,sans-Serif" font-size="10.00">UBDocumentTreeNode</text>
<text text-anchor="middle" x="389" y="-98" font-family="Helvetica,sans-Serif" font-size="10.00">::proxyData</text>
</a>
</g>
<!-- Node2&#45;&gt;Node5 -->
<g id="edge8" class="edge"><title>Node2&#45;&gt;Node5</title>
<path fill="none" stroke="midnightblue" d="M280.374,-107C292.981,-107 306.342,-107 319.221,-107"/>
<polygon fill="midnightblue" stroke="midnightblue" points="319.423,-110.5 329.423,-107 319.423,-103.5 319.423,-110.5"/>
</g>
<!-- Node6 -->
<g id="node11" class="node"><title>Node6</title>
<a xlink:href="../../de/db4/class_u_b_document_proxy.html#a79709d748149db076173b8996c544393" target="_top" xlink:title="UBDocumentProxy::theSame\lDocument">
<polygon fill="white" stroke="black" points="316,-0 316,-34 462,-34 462,-0 316,-0"/>
<text text-anchor="start" x="324" y="-21" font-family="Helvetica,sans-Serif" font-size="10.00">UBDocumentProxy::theSame</text>
<text text-anchor="middle" x="389" y="-8" font-family="Helvetica,sans-Serif" font-size="10.00">Document</text>
</a>
</g>
<!-- Node2&#45;&gt;Node6 -->
<g id="edge10" class="edge"><title>Node2&#45;&gt;Node6</title>
<path fill="none" stroke="midnightblue" d="M244.76,-89.9212C263.976,-77.5318 291.097,-60.7762 316,-48 322.57,-44.6296 329.59,-41.311 336.584,-38.1703"/>
<polygon fill="midnightblue" stroke="midnightblue" points="338.311,-41.2346 346.06,-34.0098 335.497,-34.8252 338.311,-41.2346"/>
</g>
<!-- Node8 -->
<g id="node15" class="node"><title>Node8</title>
<a xlink:href="../../dd/d5a/class_u_b_document_tree_model.html#a5bb42dc851a997d8e4226878c9e275c7" target="_top" xlink:title="UBDocumentTreeModel\l::pIndexForNode">
<polygon fill="white" stroke="black" points="328,-194 328,-228 450,-228 450,-194 328,-194"/>
<text text-anchor="start" x="336" y="-215" font-family="Helvetica,sans-Serif" font-size="10.00">UBDocumentTreeModel</text>
<text text-anchor="middle" x="389" y="-202" font-family="Helvetica,sans-Serif" font-size="10.00">::pIndexForNode</text>
</a>
</g>
<!-- Node7&#45;&gt;Node8 -->
<g id="edge14" class="edge"><title>Node7&#45;&gt;Node8</title>
<path fill="none" stroke="midnightblue" d="M280.374,-194.387C292.411,-196.228 305.134,-198.173 317.47,-200.06"/>
<polygon fill="midnightblue" stroke="midnightblue" points="317.302,-203.575 327.716,-201.627 318.36,-196.655 317.302,-203.575"/>
</g>
<!-- Node9 -->
<g id="node17" class="node"><title>Node9</title>
<a xlink:href="../../dd/d5a/class_u_b_document_tree_model.html#abe969ce75dea4388d4d1b56a74d9ab9f" target="_top" xlink:title="UBDocumentTreeModel\l::rowCount">
<polygon fill="white" stroke="black" points="498,-194 498,-228 620,-228 620,-194 498,-194"/>
<text text-anchor="start" x="506" y="-215" font-family="Helvetica,sans-Serif" font-size="10.00">UBDocumentTreeModel</text>
<text text-anchor="middle" x="559" y="-202" font-family="Helvetica,sans-Serif" font-size="10.00">::rowCount</text>
</a>
</g>
<!-- Node8&#45;&gt;Node9 -->
<g id="edge16" class="edge"><title>Node8&#45;&gt;Node9</title>
<path fill="none" stroke="midnightblue" d="M450.374,-211C462.411,-211 475.134,-211 487.47,-211"/>
<polygon fill="midnightblue" stroke="midnightblue" points="487.716,-214.5 497.716,-211 487.716,-207.5 487.716,-214.5"/>
</g>
<!-- Node11 -->
<g id="node22" class="node"><title>Node11</title>
<a xlink:href="../../dd/d5a/class_u_b_document_tree_model.html#a482d152ef1865a960d12f7d8726133b9" target="_top" xlink:title="UBDocumentTreeModel\l::index">
<polygon fill="white" stroke="black" points="498,-142 498,-176 620,-176 620,-142 498,-142"/>
<text text-anchor="start" x="506" y="-163" font-family="Helvetica,sans-Serif" font-size="10.00">UBDocumentTreeModel</text>
<text text-anchor="middle" x="559" y="-150" font-family="Helvetica,sans-Serif" font-size="10.00">::index</text>
</a>
</g>
<!-- Node8&#45;&gt;Node11 -->
<g id="edge22" class="edge"><title>Node8&#45;&gt;Node11</title>
<path fill="none" stroke="midnightblue" d="M444.664,-193.973C460.221,-189.215 477.273,-183.999 493.349,-179.081"/>
<polygon fill="midnightblue" stroke="midnightblue" points="494.672,-182.337 503.211,-176.065 492.624,-175.643 494.672,-182.337"/>
</g>
<!-- Node9&#45;&gt;Node3 -->
<g id="edge20" class="edge"><title>Node9&#45;&gt;Node3</title>
<path fill="none" stroke="midnightblue" d="M610.735,-193.973C625.058,-189.26 640.743,-184.097 655.56,-179.221"/>
<polygon fill="midnightblue" stroke="midnightblue" points="656.744,-182.516 665.149,-176.065 654.556,-175.867 656.744,-182.516"/>
</g>
<!-- Node10 -->
<g id="node19" class="node"><title>Node10</title>
<a xlink:href="../../dd/d5a/class_u_b_document_tree_model.html#a09f526b235ed26f15429775ae8c9b08d" target="_top" xlink:title="UBDocumentTreeModel\l::nodeFromIndex">
<polygon fill="white" stroke="black" points="656,-194 656,-228 778,-228 778,-194 656,-194"/>
<text text-anchor="start" x="664" y="-215" font-family="Helvetica,sans-Serif" font-size="10.00">UBDocumentTreeModel</text>
<text text-anchor="middle" x="717" y="-202" font-family="Helvetica,sans-Serif" font-size="10.00">::nodeFromIndex</text>
</a>
</g>
<!-- Node9&#45;&gt;Node10 -->
<g id="edge18" class="edge"><title>Node9&#45;&gt;Node10</title>
<path fill="none" stroke="midnightblue" d="M620.087,-211C628.513,-211 637.226,-211 645.815,-211"/>
<polygon fill="midnightblue" stroke="midnightblue" points="645.815,-214.5 655.815,-211 645.815,-207.5 645.815,-214.5"/>
</g>
<!-- Node11&#45;&gt;Node3 -->
<g id="edge26" class="edge"><title>Node11&#45;&gt;Node3</title>
<path fill="none" stroke="midnightblue" d="M620.087,-159C628.983,-159 638.199,-159 647.251,-159"/>
<polygon fill="midnightblue" stroke="midnightblue" points="647.375,-162.5 657.375,-159 647.375,-155.5 647.375,-162.5"/>
</g>
<!-- Node11&#45;&gt;Node10 -->
<g id="edge24" class="edge"><title>Node11&#45;&gt;Node10</title>
<path fill="none" stroke="midnightblue" d="M610.735,-176.027C625.058,-180.74 640.743,-185.903 655.56,-190.779"/>
<polygon fill="midnightblue" stroke="midnightblue" points="654.556,-194.133 665.149,-193.935 656.744,-187.484 654.556,-194.133"/>
</g>
</g>
</svg>
