<?xml version="1.0" encoding="UTF-8" standalone="no"?>
<!DOCTYPE svg PUBLIC "-//W3C//DTD SVG 1.1//EN"
 "http://www.w3.org/Graphics/SVG/1.1/DTD/svg11.dtd">
<!-- Generated by graphviz version 2.26.3 (20100126.1600)
 -->
<!-- Title: UBDocumentTreeModel::setCurrentDocument Pages: 1 -->
<svg width="1408pt" height="401pt"
 viewBox="0.00 0.00 1408.00 401.08" xmlns="http://www.w3.org/2000/svg" xmlns:xlink="http://www.w3.org/1999/xlink">
<g id="graph1" class="graph" transform="scale(1 1) rotate(0) translate(4 397.076)">
<title>UBDocumentTreeModel::setCurrentDocument</title>
<polygon fill="white" stroke="white" points="-4,5 -4,-397.076 1405,-397.076 1405,5 -4,5"/>
<!-- Node1 -->
<g id="node1" class="node"><title>Node1</title>
<polygon fill="#bfbfbf" stroke="black" points="0,-233 0,-267 122,-267 122,-233 0,-233"/>
<text text-anchor="start" x="8" y="-254" font-family="Helvetica,sans-Serif" font-size="10.00">UBDocumentTreeModel</text>
<text text-anchor="middle" x="61" y="-241" font-family="Helvetica,sans-Serif" font-size="10.00">::setCurrentDocument</text>
</g>
<!-- Node2 -->
<g id="node3" class="node"><title>Node2</title>
<a xlink:href="../../d6/de0/class_u_b_document_controller.html#ab4fa92eecfbd5ba3493bf7892cdd8ae0" target="_top" xlink:title="UBDocumentController\l::selectDocument">
<polygon fill="white" stroke="black" points="520,-147 520,-181 638,-181 638,-147 520,-147"/>
<text text-anchor="start" x="528" y="-168" font-family="Helvetica,sans-Serif" font-size="10.00">UBDocumentController</text>
<text text-anchor="middle" x="579" y="-155" font-family="Helvetica,sans-Serif" font-size="10.00">::selectDocument</text>
</a>
</g>
<!-- Node1&#45;&gt;Node2 -->
<g id="edge2" class="edge"><title>Node1&#45;&gt;Node2</title>
<path fill="none" stroke="midnightblue" d="M132.205,-238.178C235.277,-221.066 424.163,-189.707 519.949,-173.804"/>
<polygon fill="midnightblue" stroke="midnightblue" points="131.491,-234.749 122.2,-239.839 132.638,-241.654 131.491,-234.749"/>
</g>
<!-- Node17 -->
<g id="node34" class="node"><title>Node17</title>
<a xlink:href="../../d6/de0/class_u_b_document_controller.html#a36a841a4f05c184f0f9e9a8806f804db" target="_top" xlink:title="UBDocumentController\l::TreeViewSelectionChanged">
<polygon fill="white" stroke="black" points="158.5,-277 158.5,-311 301.5,-311 301.5,-277 158.5,-277"/>
<text text-anchor="start" x="166.5" y="-298" font-family="Helvetica,sans-Serif" font-size="10.00">UBDocumentController</text>
<text text-anchor="middle" x="230" y="-285" font-family="Helvetica,sans-Serif" font-size="10.00">::TreeViewSelectionChanged</text>
</a>
</g>
<!-- Node1&#45;&gt;Node17 -->
<g id="edge34" class="edge"><title>Node1&#45;&gt;Node17</title>
<path fill="none" stroke="midnightblue" d="M131.847,-268.445C142.673,-271.264 153.806,-274.162 164.509,-276.949"/>
<polygon fill="midnightblue" stroke="midnightblue" points="132.572,-265.018 122.013,-265.885 130.808,-271.792 132.572,-265.018"/>
</g>
<!-- Node3 -->
<g id="node5" class="node"><title>Node3</title>
<a xlink:href="../../da/d14/class_u_b_application_controller.html#a37354fade87a383adbda6d60acd26caa" target="_top" xlink:title="UBApplicationController\l::importFile">
<polygon fill="white" stroke="black" points="676.5,-43 676.5,-77 797.5,-77 797.5,-43 676.5,-43"/>
<text text-anchor="start" x="684.5" y="-64" font-family="Helvetica,sans-Serif" font-size="10.00">UBApplicationController</text>
<text text-anchor="middle" x="737" y="-51" font-family="Helvetica,sans-Serif" font-size="10.00">::importFile</text>
</a>
</g>
<!-- Node2&#45;&gt;Node3 -->
<g id="edge4" class="edge"><title>Node2&#45;&gt;Node3</title>
<path fill="none" stroke="midnightblue" d="M604.717,-140.051C623.475,-123.426 650.053,-101.556 676,-86 681.332,-82.8034 687.128,-79.7985 692.956,-77.0467"/>
<polygon fill="midnightblue" stroke="midnightblue" points="602.281,-137.534 597.181,-146.821 606.959,-142.741 602.281,-137.534"/>
</g>
<!-- Node6 -->
<g id="node11" class="node"><title>Node6</title>
<a xlink:href="../../d6/de0/class_u_b_document_controller.html#a367127ee254faeb89b4a229e958f6072" target="_top" xlink:title="UBDocumentController\l::createNewDocument">
<polygon fill="white" stroke="black" points="678,-147 678,-181 796,-181 796,-147 678,-147"/>
<text text-anchor="start" x="686" y="-168" font-family="Helvetica,sans-Serif" font-size="10.00">UBDocumentController</text>
<text text-anchor="middle" x="737" y="-155" font-family="Helvetica,sans-Serif" font-size="10.00">::createNewDocument</text>
</a>
</g>
<!-- Node2&#45;&gt;Node6 -->
<g id="edge10" class="edge"><title>Node2&#45;&gt;Node6</title>
<path fill="none" stroke="midnightblue" d="M648.431,-164C658.264,-164 668.298,-164 677.91,-164"/>
<polygon fill="midnightblue" stroke="midnightblue" points="648.283,-160.5 638.283,-164 648.283,-167.5 648.283,-160.5"/>
</g>
<!-- Node9 -->
<g id="node17" class="node"><title>Node9</title>
<a xlink:href="../../d6/de0/class_u_b_document_controller.html#a515c0abd53c46d51464ebca366e757fc" target="_top" xlink:title="UBDocumentController\l::show">
<polygon fill="white" stroke="black" points="678,-95 678,-129 796,-129 796,-95 678,-95"/>
<text text-anchor="start" x="686" y="-116" font-family="Helvetica,sans-Serif" font-size="10.00">UBDocumentController</text>
<text text-anchor="middle" x="737" y="-103" font-family="Helvetica,sans-Serif" font-size="10.00">::show</text>
</a>
</g>
<!-- Node2&#45;&gt;Node9 -->
<g id="edge16" class="edge"><title>Node2&#45;&gt;Node9</title>
<path fill="none" stroke="midnightblue" d="M640.32,-143.819C655.132,-138.944 670.819,-133.781 685.149,-129.065"/>
<polygon fill="midnightblue" stroke="midnightblue" points="639.14,-140.522 630.735,-146.973 641.328,-147.172 639.14,-140.522"/>
</g>
<!-- Node16 -->
<g id="node31" class="node"><title>Node16</title>
<a xlink:href="../../d6/de0/class_u_b_document_controller.html#af5065d414f3ca99eee1d7c21930bde29" target="_top" xlink:title="UBDocumentController\l::importFile">
<polygon fill="white" stroke="black" points="678,-199 678,-233 796,-233 796,-199 678,-199"/>
<text text-anchor="start" x="686" y="-220" font-family="Helvetica,sans-Serif" font-size="10.00">UBDocumentController</text>
<text text-anchor="middle" x="737" y="-207" font-family="Helvetica,sans-Serif" font-size="10.00">::importFile</text>
</a>
</g>
<!-- Node2&#45;&gt;Node16 -->
<g id="edge30" class="edge"><title>Node2&#45;&gt;Node16</title>
<path fill="none" stroke="midnightblue" d="M640.32,-184.181C655.132,-189.056 670.819,-194.219 685.149,-198.935"/>
<polygon fill="midnightblue" stroke="midnightblue" points="641.328,-180.828 630.735,-181.027 639.14,-187.478 641.328,-180.828"/>
</g>
<!-- Node4 -->
<g id="node7" class="node"><title>Node4</title>
<a xlink:href="../../d8/d81/class_u_b_application.html#ace44514d00d196ed5976552dedf9c070" target="_top" xlink:title="UBApplication::eventFilter">
<polygon fill="white" stroke="black" points="837.5,-52.5 837.5,-73.5 968.5,-73.5 968.5,-52.5 837.5,-52.5"/>
<text text-anchor="middle" x="903" y="-60.5" font-family="Helvetica,sans-Serif" font-size="10.00">UBApplication::eventFilter</text>
</a>
</g>
<!-- Node3&#45;&gt;Node4 -->
<g id="edge6" class="edge"><title>Node3&#45;&gt;Node4</title>
<path fill="none" stroke="midnightblue" d="M807.947,-61.2822C817.718,-61.4588 827.717,-61.6395 837.387,-61.8142"/>
<polygon fill="midnightblue" stroke="midnightblue" points="807.931,-57.7814 797.87,-61.1001 807.805,-64.7803 807.931,-57.7814"/>
</g>
<!-- Node5 -->
<g id="node9" class="node"><title>Node5</title>
<a xlink:href="../../d8/d81/class_u_b_application.html#adf778486cf90f2d7d5ac3b98a56430b7" target="_top" xlink:title="UBApplication::handleOpen\lMessage">
<polygon fill="white" stroke="black" points="834.5,-0 834.5,-34 971.5,-34 971.5,-0 834.5,-0"/>
<text text-anchor="start" x="842.5" y="-21" font-family="Helvetica,sans-Serif" font-size="10.00">UBApplication::handleOpen</text>
<text text-anchor="middle" x="903" y="-8" font-family="Helvetica,sans-Serif" font-size="10.00">Message</text>
</a>
</g>
<!-- Node3&#45;&gt;Node5 -->
<g id="edge8" class="edge"><title>Node3&#45;&gt;Node5</title>
<path fill="none" stroke="midnightblue" d="M807.567,-41.7205C817.364,-39.1827 827.398,-36.5836 837.106,-34.069"/>
<polygon fill="midnightblue" stroke="midnightblue" points="806.672,-38.3367 797.87,-44.2326 808.428,-45.1131 806.672,-38.3367"/>
</g>
<!-- Node7 -->
<g id="node13" class="node"><title>Node7</title>
<a xlink:href="../../d6/de0/class_u_b_document_controller.html#abb172787a34a34cd3c2df0a1b46918c5" target="_top" xlink:title="UBDocumentController\l::setupViews">
<polygon fill="white" stroke="black" points="844,-251 844,-285 962,-285 962,-251 844,-251"/>
<text text-anchor="start" x="852" y="-272" font-family="Helvetica,sans-Serif" font-size="10.00">UBDocumentController</text>
<text text-anchor="middle" x="903" y="-259" font-family="Helvetica,sans-Serif" font-size="10.00">::setupViews</text>
</a>
</g>
<!-- Node6&#45;&gt;Node7 -->
<g id="edge12" class="edge"><title>Node6&#45;&gt;Node7</title>
<path fill="none" stroke="midnightblue" d="M789.75,-185.538C792.573,-186.983 795.34,-188.474 798,-190 829.515,-208.082 862.652,-234.03 883.073,-250.949"/>
<polygon fill="midnightblue" stroke="midnightblue" points="791.129,-182.317 780.606,-181.088 788.066,-188.611 791.129,-182.317"/>
</g>
<!-- Node8 -->
<g id="node15" class="node"><title>Node8</title>
<a xlink:href="../../d6/de0/class_u_b_document_controller.html#a38e9ea0a2dad2b1c8d9588563e9ee3bf" target="_top" xlink:title="UBDocumentController\l::UBDocumentController">
<polygon fill="white" stroke="black" points="1023,-251 1023,-285 1147,-285 1147,-251 1023,-251"/>
<text text-anchor="start" x="1031" y="-272" font-family="Helvetica,sans-Serif" font-size="10.00">UBDocumentController</text>
<text text-anchor="middle" x="1085" y="-259" font-family="Helvetica,sans-Serif" font-size="10.00">::UBDocumentController</text>
</a>
</g>
<!-- Node7&#45;&gt;Node8 -->
<g id="edge14" class="edge"><title>Node7&#45;&gt;Node8</title>
<path fill="none" stroke="midnightblue" d="M972.273,-268C988.875,-268 1006.5,-268 1022.76,-268"/>
<polygon fill="midnightblue" stroke="midnightblue" points="972.09,-264.5 962.09,-268 972.09,-271.5 972.09,-264.5"/>
</g>
<!-- Node10 -->
<g id="node19" class="node"><title>Node10</title>
<a xlink:href="../../da/d14/class_u_b_application_controller.html#a074e9435d9ab3aff5d05ab47e5a37e3e" target="_top" xlink:title="UBApplicationController\l::showDocument">
<polygon fill="white" stroke="black" points="842.5,-95 842.5,-129 963.5,-129 963.5,-95 842.5,-95"/>
<text text-anchor="start" x="850.5" y="-116" font-family="Helvetica,sans-Serif" font-size="10.00">UBApplicationController</text>
<text text-anchor="middle" x="903" y="-103" font-family="Helvetica,sans-Serif" font-size="10.00">::showDocument</text>
</a>
</g>
<!-- Node9&#45;&gt;Node10 -->
<g id="edge18" class="edge"><title>Node9&#45;&gt;Node10</title>
<path fill="none" stroke="midnightblue" d="M806.723,-112C818.536,-112 830.718,-112 842.277,-112"/>
<polygon fill="midnightblue" stroke="midnightblue" points="806.461,-108.5 796.461,-112 806.461,-115.5 806.461,-108.5"/>
</g>
<!-- Node11 -->
<g id="node21" class="node"><title>Node11</title>
<a xlink:href="../../d8/d81/class_u_b_application.html#aa7760534852820a497c88484745d8225" target="_top" xlink:title="UBApplication::showDocument">
<polygon fill="white" stroke="black" points="1008.5,-78.5 1008.5,-99.5 1161.5,-99.5 1161.5,-78.5 1008.5,-78.5"/>
<text text-anchor="middle" x="1085" y="-86.5" font-family="Helvetica,sans-Serif" font-size="10.00">UBApplication::showDocument</text>
</a>
</g>
<!-- Node10&#45;&gt;Node11 -->
<g id="edge20" class="edge"><title>Node10&#45;&gt;Node11</title>
<path fill="none" stroke="midnightblue" d="M973.529,-103.087C984.98,-101.64 996.887,-100.135 1008.47,-98.671"/>
<polygon fill="midnightblue" stroke="midnightblue" points="973.086,-99.6151 963.603,-104.341 973.963,-106.56 973.086,-99.6151"/>
</g>
<!-- Node14 -->
<g id="node27" class="node"><title>Node14</title>
<a xlink:href="../../da/d14/class_u_b_application_controller.html#a59f95b747443497d344b8af0fd231cf4" target="_top" xlink:title="UBApplicationController\l::hideDesktop">
<polygon fill="white" stroke="black" points="1024.5,-118 1024.5,-152 1145.5,-152 1145.5,-118 1024.5,-118"/>
<text text-anchor="start" x="1032.5" y="-139" font-family="Helvetica,sans-Serif" font-size="10.00">UBApplicationController</text>
<text text-anchor="middle" x="1085" y="-126" font-family="Helvetica,sans-Serif" font-size="10.00">::hideDesktop</text>
</a>
</g>
<!-- Node10&#45;&gt;Node14 -->
<g id="edge26" class="edge"><title>Node10&#45;&gt;Node14</title>
<path fill="none" stroke="midnightblue" d="M973.846,-120.953C990.529,-123.061 1008.16,-125.29 1024.35,-127.336"/>
<polygon fill="midnightblue" stroke="midnightblue" points="973.963,-117.44 963.603,-119.659 973.086,-124.385 973.963,-117.44"/>
</g>
<!-- Node12 -->
<g id="node23" class="node"><title>Node12</title>
<a xlink:href="../../d8/d81/class_u_b_application.html#add1469239e71bf24fdc61413a42a38bd" target="_top" xlink:title="UBApplication::exec">
<polygon fill="white" stroke="black" points="1209,-78.5 1209,-99.5 1315,-99.5 1315,-78.5 1209,-78.5"/>
<text text-anchor="middle" x="1262" y="-86.5" font-family="Helvetica,sans-Serif" font-size="10.00">UBApplication::exec</text>
</a>
</g>
<!-- Node11&#45;&gt;Node12 -->
<g id="edge22" class="edge"><title>Node11&#45;&gt;Node12</title>
<path fill="none" stroke="midnightblue" d="M1171.77,-89C1184.47,-89 1197.23,-89 1208.98,-89"/>
<polygon fill="midnightblue" stroke="midnightblue" points="1171.61,-85.5001 1161.61,-89 1171.61,-92.5001 1171.61,-85.5001"/>
</g>
<!-- Node13 -->
<g id="node25" class="node"><title>Node13</title>
<a xlink:href="../../df/d0a/main_8cpp.html#a0ddf1224851353fc92bfbff6f499fa97" target="_top" xlink:title="main">
<polygon fill="white" stroke="black" points="1362,-78.5 1362,-99.5 1400,-99.5 1400,-78.5 1362,-78.5"/>
<text text-anchor="middle" x="1381" y="-86.5" font-family="Helvetica,sans-Serif" font-size="10.00">main</text>
</a>
</g>
<!-- Node12&#45;&gt;Node13 -->
<g id="edge24" class="edge"><title>Node12&#45;&gt;Node13</title>
<path fill="none" stroke="midnightblue" d="M1325.38,-89C1338.64,-89 1351.63,-89 1361.73,-89"/>
<polygon fill="midnightblue" stroke="midnightblue" points="1325.23,-85.5001 1315.23,-89 1325.23,-92.5001 1325.23,-85.5001"/>
</g>
<!-- Node15 -->
<g id="node29" class="node"><title>Node15</title>
<a xlink:href="../../da/d14/class_u_b_application_controller.html#a9b13846d29481cee9b89b5177ff2b3f4" target="_top" xlink:title="UBApplicationController\l::UBApplicationController">
<polygon fill="white" stroke="black" points="1198.5,-118 1198.5,-152 1325.5,-152 1325.5,-118 1198.5,-118"/>
<text text-anchor="start" x="1206.5" y="-139" font-family="Helvetica,sans-Serif" font-size="10.00">UBApplicationController</text>
<text text-anchor="middle" x="1262" y="-126" font-family="Helvetica,sans-Serif" font-size="10.00">::UBApplicationController</text>
</a>
</g>
<!-- Node14&#45;&gt;Node15 -->
<g id="edge28" class="edge"><title>Node14&#45;&gt;Node15</title>
<path fill="none" stroke="midnightblue" d="M1155.97,-135C1169.95,-135 1184.54,-135 1198.26,-135"/>
<polygon fill="midnightblue" stroke="midnightblue" points="1155.91,-131.5 1145.91,-135 1155.91,-138.5 1155.91,-131.5"/>
</g>
<!-- Node16&#45;&gt;Node7 -->
<g id="edge32" class="edge"><title>Node16&#45;&gt;Node7</title>
<path fill="none" stroke="midnightblue" d="M800.98,-236.042C816.673,-240.958 833.324,-246.174 848.523,-250.935"/>
<polygon fill="midnightblue" stroke="midnightblue" points="801.944,-232.676 791.355,-233.027 799.851,-239.356 801.944,-232.676"/>
</g>
<!-- Node17&#45;&gt;Node7 -->
<g id="edge52" class="edge"><title>Node17&#45;&gt;Node7</title>
<path fill="none" stroke="midnightblue" d="M253.928,-318.192C274.291,-336.941 305.361,-361.446 338,-372 465.712,-413.296 506.224,-382.933 640,-372 710.93,-366.203 732.479,-373.779 798,-346 832.497,-331.374 866.144,-303.199 885.706,-285.017"/>
<polygon fill="midnightblue" stroke="midnightblue" points="256.075,-315.406 246.405,-311.076 251.265,-320.491 256.075,-315.406"/>
</g>
<!-- Node18 -->
<g id="node36" class="node"><title>Node18</title>
<a xlink:href="../../d0/dd5/class_u_b_persistence_manager.html#a02050499f8179287038922f42ddf2e17" target="_top" xlink:title="UBPersistenceManager\l::copyDocumentScene">
<polygon fill="white" stroke="black" points="350,-277 350,-311 470,-311 470,-277 350,-277"/>
<text text-anchor="start" x="358" y="-298" font-family="Helvetica,sans-Serif" font-size="10.00">UBPersistenceManager</text>
<text text-anchor="middle" x="410" y="-285" font-family="Helvetica,sans-Serif" font-size="10.00">::copyDocumentScene</text>
</a>
</g>
<!-- Node17&#45;&gt;Node18 -->
<g id="edge36" class="edge"><title>Node17&#45;&gt;Node18</title>
<path fill="none" stroke="midnightblue" d="M311.858,-294C324.661,-294 337.685,-294 349.884,-294"/>
<polygon fill="midnightblue" stroke="midnightblue" points="311.658,-290.5 301.658,-294 311.658,-297.5 311.658,-290.5"/>
</g>
<!-- Node24 -->
<g id="node49" class="node"><title>Node24</title>
<a xlink:href="../../d6/de0/class_u_b_document_controller.html#a352821e8f64af5a796be4b70da70a0ef" target="_top" xlink:title="UBDocumentController\l::TreeViewSelectionChanged">
<polygon fill="white" stroke="black" points="338.5,-329 338.5,-363 481.5,-363 481.5,-329 338.5,-329"/>
<text text-anchor="start" x="346.5" y="-350" font-family="Helvetica,sans-Serif" font-size="10.00">UBDocumentController</text>
<text text-anchor="middle" x="410" y="-337" font-family="Helvetica,sans-Serif" font-size="10.00">::TreeViewSelectionChanged</text>
</a>
</g>
<!-- Node17&#45;&gt;Node24 -->
<g id="edge50" class="edge"><title>Node17&#45;&gt;Node24</title>
<path fill="none" stroke="midnightblue" d="M298.895,-313.903C316.052,-318.859 334.293,-324.129 350.929,-328.935"/>
<polygon fill="midnightblue" stroke="midnightblue" points="299.517,-310.44 288.939,-311.027 297.574,-317.165 299.517,-310.44"/>
</g>
<!-- Node19 -->
<g id="node38" class="node"><title>Node19</title>
<a xlink:href="../../da/dc6/class_u_b_document_container.html#aedf080a092dceadc66b0994b0bf156fe" target="_top" xlink:title="UBDocumentContainer\l::duplicatePages">
<polygon fill="white" stroke="black" points="520,-225 520,-259 638,-259 638,-225 520,-225"/>
<text text-anchor="start" x="528" y="-246" font-family="Helvetica,sans-Serif" font-size="10.00">UBDocumentContainer</text>
<text text-anchor="middle" x="579" y="-233" font-family="Helvetica,sans-Serif" font-size="10.00">::duplicatePages</text>
</a>
</g>
<!-- Node18&#45;&gt;Node19 -->
<g id="edge38" class="edge"><title>Node18&#45;&gt;Node19</title>
<path fill="none" stroke="midnightblue" d="M475.136,-273.958C491.113,-269.042 508.065,-263.826 523.539,-259.065"/>
<polygon fill="midnightblue" stroke="midnightblue" points="473.865,-270.687 465.337,-276.973 475.924,-277.378 473.865,-270.687"/>
</g>
<!-- Node22 -->
<g id="node45" class="node"><title>Node22</title>
<a xlink:href="../../dd/d5a/class_u_b_document_tree_model.html#af71ae3d84f577bbee154dea3eb0fad66" target="_top" xlink:title="UBDocumentTreeModel\l::dropMimeData">
<polygon fill="white" stroke="black" points="518,-329 518,-363 640,-363 640,-329 518,-329"/>
<text text-anchor="start" x="526" y="-350" font-family="Helvetica,sans-Serif" font-size="10.00">UBDocumentTreeModel</text>
<text text-anchor="middle" x="579" y="-337" font-family="Helvetica,sans-Serif" font-size="10.00">::dropMimeData</text>
</a>
</g>
<!-- Node18&#45;&gt;Node22 -->
<g id="edge46" class="edge"><title>Node18&#45;&gt;Node22</title>
<path fill="none" stroke="midnightblue" d="M475.136,-314.042C491.113,-318.958 508.065,-324.174 523.539,-328.935"/>
<polygon fill="midnightblue" stroke="midnightblue" points="475.924,-310.622 465.337,-311.027 473.865,-317.313 475.924,-310.622"/>
</g>
<!-- Node23 -->
<g id="node47" class="node"><title>Node23</title>
<a xlink:href="../../da/d16/class_u_b_document_tree_view.html#a8364df11d6b3285ea0684673801b0b6c" target="_top" xlink:title="UBDocumentTreeView\l::dropEvent">
<polygon fill="white" stroke="black" points="520.5,-277 520.5,-311 637.5,-311 637.5,-277 520.5,-277"/>
<text text-anchor="start" x="528.5" y="-298" font-family="Helvetica,sans-Serif" font-size="10.00">UBDocumentTreeView</text>
<text text-anchor="middle" x="579" y="-285" font-family="Helvetica,sans-Serif" font-size="10.00">::dropEvent</text>
</a>
</g>
<!-- Node18&#45;&gt;Node23 -->
<g id="edge48" class="edge"><title>Node18&#45;&gt;Node23</title>
<path fill="none" stroke="midnightblue" d="M480.145,-294C493.489,-294 507.326,-294 520.27,-294"/>
<polygon fill="midnightblue" stroke="midnightblue" points="480.059,-290.5 470.059,-294 480.059,-297.5 480.059,-290.5"/>
</g>
<!-- Node20 -->
<g id="node40" class="node"><title>Node20</title>
<a xlink:href="../../d7/d62/class_u_b_board_controller.html#ae84d5e3160402f05efcf708a8b81ba36" target="_top" xlink:title="UBBoardController:\l:duplicateScene">
<polygon fill="white" stroke="black" points="686.5,-251 686.5,-285 787.5,-285 787.5,-251 686.5,-251"/>
<text text-anchor="start" x="694.5" y="-272" font-family="Helvetica,sans-Serif" font-size="10.00">UBBoardController:</text>
<text text-anchor="middle" x="737" y="-259" font-family="Helvetica,sans-Serif" font-size="10.00">:duplicateScene</text>
</a>
</g>
<!-- Node19&#45;&gt;Node20 -->
<g id="edge40" class="edge"><title>Node19&#45;&gt;Node20</title>
<path fill="none" stroke="midnightblue" d="M648.437,-253.426C661.222,-255.53 674.346,-257.69 686.443,-259.681"/>
<polygon fill="midnightblue" stroke="midnightblue" points="648.719,-249.926 638.283,-251.755 647.582,-256.833 648.719,-249.926"/>
</g>
<!-- Node21 -->
<g id="node42" class="node"><title>Node21</title>
<a xlink:href="../../d6/de0/class_u_b_document_controller.html#a778970871dc49c20eb0812f352a65f75" target="_top" xlink:title="UBDocumentController\l::duplicateSelectedItem">
<polygon fill="white" stroke="black" points="677.5,-303 677.5,-337 796.5,-337 796.5,-303 677.5,-303"/>
<text text-anchor="start" x="685.5" y="-324" font-family="Helvetica,sans-Serif" font-size="10.00">UBDocumentController</text>
<text text-anchor="middle" x="737" y="-311" font-family="Helvetica,sans-Serif" font-size="10.00">::duplicateSelectedItem</text>
</a>
</g>
<!-- Node19&#45;&gt;Node21 -->
<g id="edge42" class="edge"><title>Node19&#45;&gt;Node21</title>
<path fill="none" stroke="midnightblue" d="M631.292,-263.362C634.271,-264.865 637.193,-266.415 640,-268 657.184,-277.707 658.816,-284.293 676,-294 681.613,-297.171 687.689,-300.198 693.758,-302.994"/>
<polygon fill="midnightblue" stroke="midnightblue" points="632.771,-260.19 622.242,-259.006 629.735,-266.497 632.771,-260.19"/>
</g>
<!-- Node21&#45;&gt;Node7 -->
<g id="edge44" class="edge"><title>Node21&#45;&gt;Node7</title>
<path fill="none" stroke="midnightblue" d="M800.98,-299.958C816.673,-295.042 833.324,-289.826 848.523,-285.065"/>
<polygon fill="midnightblue" stroke="midnightblue" points="799.851,-296.644 791.355,-302.973 801.944,-303.324 799.851,-296.644"/>
</g>
</g>
</svg>
