<?xml version="1.0" encoding="UTF-8" standalone="no"?>
<!DOCTYPE svg PUBLIC "-//W3C//DTD SVG 1.1//EN"
 "http://www.w3.org/Graphics/SVG/1.1/DTD/svg11.dtd">
<!-- Generated by graphviz version 2.26.3 (20100126.1600)
 -->
<!-- Title: UBDocumentTreeModel::proxyForIndex Pages: 1 -->
<svg width="1256pt" height="432pt"
 viewBox="0.00 0.00 1256.00 432.00" xmlns="http://www.w3.org/2000/svg" xmlns:xlink="http://www.w3.org/1999/xlink">
<g id="graph1" class="graph" transform="scale(1 1) rotate(0) translate(4 428)">
<title>UBDocumentTreeModel::proxyForIndex</title>
<polygon fill="white" stroke="white" points="-4,5 -4,-428 1253,-428 1253,5 -4,5"/>
<!-- Node1 -->
<g id="node1" class="node"><title>Node1</title>
<polygon fill="#bfbfbf" stroke="black" points="0,-91 0,-125 122,-125 122,-91 0,-91"/>
<text text-anchor="start" x="8" y="-112" font-family="Helvetica,sans-Serif" font-size="10.00">UBDocumentTreeModel</text>
<text text-anchor="middle" x="61" y="-99" font-family="Helvetica,sans-Serif" font-size="10.00">::proxyForIndex</text>
</g>
<!-- Node2 -->
<g id="node3" class="node"><title>Node2</title>
<a xlink:href="../../d6/de0/class_u_b_document_controller.html#ac009dfae4ba933392930af69b2f4641a" target="_top" xlink:title="UBDocumentController\l::selectedDocumentProxy">
<polygon fill="white" stroke="black" points="550,-234 550,-268 680,-268 680,-234 550,-234"/>
<text text-anchor="start" x="558" y="-255" font-family="Helvetica,sans-Serif" font-size="10.00">UBDocumentController</text>
<text text-anchor="middle" x="615" y="-242" font-family="Helvetica,sans-Serif" font-size="10.00">::selectedDocumentProxy</text>
</a>
</g>
<!-- Node1&#45;&gt;Node2 -->
<g id="edge2" class="edge"><title>Node1&#45;&gt;Node2</title>
<path fill="none" stroke="midnightblue" d="M131.894,-127.101C140.681,-129.44 149.545,-131.785 158,-134 297.436,-170.535 461.151,-212.135 549.857,-234.567"/>
<polygon fill="midnightblue" stroke="midnightblue" points="132.594,-123.666 122.03,-124.471 130.791,-130.429 132.594,-123.666"/>
</g>
<!-- Node13 -->
<g id="node31" class="node"><title>Node13</title>
<a xlink:href="../../d6/de0/class_u_b_document_controller.html#a9b97588b2b1c80196ac783ab0a3ec42b" target="_top" xlink:title="UBDocumentController\l::selectedProxies">
<polygon fill="white" stroke="black" points="176,-91 176,-125 294,-125 294,-91 176,-91"/>
<text text-anchor="start" x="184" y="-112" font-family="Helvetica,sans-Serif" font-size="10.00">UBDocumentController</text>
<text text-anchor="middle" x="235" y="-99" font-family="Helvetica,sans-Serif" font-size="10.00">::selectedProxies</text>
</a>
</g>
<!-- Node1&#45;&gt;Node13 -->
<g id="edge36" class="edge"><title>Node1&#45;&gt;Node13</title>
<path fill="none" stroke="midnightblue" d="M132.7,-108C147.091,-108 162.059,-108 175.961,-108"/>
<polygon fill="midnightblue" stroke="midnightblue" points="132.346,-104.5 122.346,-108 132.346,-111.5 132.346,-104.5"/>
</g>
<!-- Node22 -->
<g id="node52" class="node"><title>Node22</title>
<a xlink:href="../../dc/d05/class_u_b_export_document_set_adaptor.html#a33abb3a9ff6a49a7ee38903abac857ef" target="_top" xlink:title="UBExportDocumentSetAdaptor\l::addDocumentToZip">
<polygon fill="white" stroke="black" points="158.5,-32 158.5,-66 311.5,-66 311.5,-32 158.5,-32"/>
<text text-anchor="start" x="166.5" y="-53" font-family="Helvetica,sans-Serif" font-size="10.00">UBExportDocumentSetAdaptor</text>
<text text-anchor="middle" x="235" y="-40" font-family="Helvetica,sans-Serif" font-size="10.00">::addDocumentToZip</text>
</a>
</g>
<!-- Node1&#45;&gt;Node22 -->
<g id="edge60" class="edge"><title>Node1&#45;&gt;Node22</title>
<path fill="none" stroke="midnightblue" d="M121.011,-87.6514C141.799,-80.6027 164.868,-72.7803 184.785,-66.0269"/>
<polygon fill="midnightblue" stroke="midnightblue" points="119.674,-84.4088 111.328,-90.9348 121.922,-91.0381 119.674,-84.4088"/>
</g>
<!-- Node3 -->
<g id="node5" class="node"><title>Node3</title>
<a xlink:href="../../d6/de0/class_u_b_document_controller.html#ae617ef6d5f7b83dd7e121da6fb389799" target="_top" xlink:title="UBDocumentController\l::openSelectedItem">
<polygon fill="white" stroke="black" points="746,-338 746,-372 864,-372 864,-338 746,-338"/>
<text text-anchor="start" x="754" y="-359" font-family="Helvetica,sans-Serif" font-size="10.00">UBDocumentController</text>
<text text-anchor="middle" x="805" y="-346" font-family="Helvetica,sans-Serif" font-size="10.00">::openSelectedItem</text>
</a>
</g>
<!-- Node2&#45;&gt;Node3 -->
<g id="edge4" class="edge"><title>Node2&#45;&gt;Node3</title>
<path fill="none" stroke="midnightblue" d="M643.914,-274.327C665.947,-291.245 697.581,-313.743 728,-329 734.432,-332.226 741.357,-335.199 748.324,-337.891"/>
<polygon fill="midnightblue" stroke="midnightblue" points="646.004,-271.519 635.962,-268.144 641.707,-277.045 646.004,-271.519"/>
</g>
<!-- Node7 -->
<g id="node13" class="node"><title>Node7</title>
<a xlink:href="../../d6/de0/class_u_b_document_controller.html#aad9558fb0462442c6e23bb30651b162b" target="_top" xlink:title="UBDocumentController\l::addFolderOfImages">
<polygon fill="white" stroke="black" points="746,-182 746,-216 864,-216 864,-182 746,-182"/>
<text text-anchor="start" x="754" y="-203" font-family="Helvetica,sans-Serif" font-size="10.00">UBDocumentController</text>
<text text-anchor="middle" x="805" y="-190" font-family="Helvetica,sans-Serif" font-size="10.00">::addFolderOfImages</text>
</a>
</g>
<!-- Node2&#45;&gt;Node7 -->
<g id="edge12" class="edge"><title>Node2&#45;&gt;Node7</title>
<path fill="none" stroke="midnightblue" d="M686.938,-231.312C706.39,-225.988 727.215,-220.288 745.876,-215.181"/>
<polygon fill="midnightblue" stroke="midnightblue" points="685.934,-227.958 677.213,-233.973 687.782,-234.709 685.934,-227.958"/>
</g>
<!-- Node8 -->
<g id="node16" class="node"><title>Node8</title>
<a xlink:href="../../d6/de0/class_u_b_document_controller.html#af9efed5dcb8083b75ed54d20a54a89a1" target="_top" xlink:title="UBDocumentController\l::addFileToDocument">
<polygon fill="white" stroke="black" points="746,-286 746,-320 864,-320 864,-286 746,-286"/>
<text text-anchor="start" x="754" y="-307" font-family="Helvetica,sans-Serif" font-size="10.00">UBDocumentController</text>
<text text-anchor="middle" x="805" y="-294" font-family="Helvetica,sans-Serif" font-size="10.00">::addFileToDocument</text>
</a>
</g>
<!-- Node2&#45;&gt;Node8 -->
<g id="edge16" class="edge"><title>Node2&#45;&gt;Node8</title>
<path fill="none" stroke="midnightblue" d="M686.938,-270.688C706.39,-276.012 727.215,-281.712 745.876,-286.819"/>
<polygon fill="midnightblue" stroke="midnightblue" points="687.782,-267.291 677.213,-268.027 685.934,-274.042 687.782,-267.291"/>
</g>
<!-- Node9 -->
<g id="node19" class="node"><title>Node9</title>
<a xlink:href="../../d6/de0/class_u_b_document_controller.html#ae4434a0bbd63b169707ddbd593257e93" target="_top" xlink:title="UBDocumentController\l::selectionChanged">
<polygon fill="white" stroke="black" points="746,-390 746,-424 864,-424 864,-390 746,-390"/>
<text text-anchor="start" x="754" y="-411" font-family="Helvetica,sans-Serif" font-size="10.00">UBDocumentController</text>
<text text-anchor="middle" x="805" y="-398" font-family="Helvetica,sans-Serif" font-size="10.00">::selectionChanged</text>
</a>
</g>
<!-- Node2&#45;&gt;Node9 -->
<g id="edge20" class="edge"><title>Node2&#45;&gt;Node9</title>
<path fill="none" stroke="midnightblue" d="M631.204,-276.787C650.789,-305.978 686.352,-353.088 728,-381 733.509,-384.692 739.59,-387.905 745.848,-390.69"/>
<polygon fill="midnightblue" stroke="midnightblue" points="634.07,-274.775 625.65,-268.345 628.222,-278.623 634.07,-274.775"/>
</g>
<!-- Node11 -->
<g id="node25" class="node"><title>Node11</title>
<a xlink:href="../../d6/de0/class_u_b_document_controller.html#ac1b62fab6ca258f324a5324f550dddb3" target="_top" xlink:title="UBDocumentController\l::documentSceneChanged">
<polygon fill="white" stroke="black" points="739,-234 739,-268 871,-268 871,-234 739,-234"/>
<text text-anchor="start" x="747" y="-255" font-family="Helvetica,sans-Serif" font-size="10.00">UBDocumentController</text>
<text text-anchor="middle" x="805" y="-242" font-family="Helvetica,sans-Serif" font-size="10.00">::documentSceneChanged</text>
</a>
</g>
<!-- Node2&#45;&gt;Node11 -->
<g id="edge28" class="edge"><title>Node2&#45;&gt;Node11</title>
<path fill="none" stroke="midnightblue" d="M690.523,-251C706.552,-251 723.354,-251 738.996,-251"/>
<polygon fill="midnightblue" stroke="midnightblue" points="690.121,-247.5 680.121,-251 690.121,-254.5 690.121,-247.5"/>
</g>
<!-- Node12 -->
<g id="node28" class="node"><title>Node12</title>
<a xlink:href="../../d6/de0/class_u_b_document_controller.html#a4f74b1a30998b934b7836731f6193222" target="_top" xlink:title="UBDocumentController\l::addImages">
<polygon fill="white" stroke="black" points="746,-130 746,-164 864,-164 864,-130 746,-130"/>
<text text-anchor="start" x="754" y="-151" font-family="Helvetica,sans-Serif" font-size="10.00">UBDocumentController</text>
<text text-anchor="middle" x="805" y="-138" font-family="Helvetica,sans-Serif" font-size="10.00">::addImages</text>
</a>
</g>
<!-- Node2&#45;&gt;Node12 -->
<g id="edge32" class="edge"><title>Node2&#45;&gt;Node12</title>
<path fill="none" stroke="midnightblue" d="M643.914,-227.673C665.947,-210.755 697.581,-188.257 728,-173 734.432,-169.774 741.357,-166.801 748.324,-164.109"/>
<polygon fill="midnightblue" stroke="midnightblue" points="641.707,-224.955 635.962,-233.856 646.004,-230.481 641.707,-224.955"/>
</g>
<!-- Node4 -->
<g id="node7" class="node"><title>Node4</title>
<a xlink:href="../../d6/de0/class_u_b_document_controller.html#abb172787a34a34cd3c2df0a1b46918c5" target="_top" xlink:title="UBDocumentController\l::setupViews">
<polygon fill="white" stroke="black" points="944,-260 944,-294 1062,-294 1062,-260 944,-260"/>
<text text-anchor="start" x="952" y="-281" font-family="Helvetica,sans-Serif" font-size="10.00">UBDocumentController</text>
<text text-anchor="middle" x="1003" y="-268" font-family="Helvetica,sans-Serif" font-size="10.00">::setupViews</text>
</a>
</g>
<!-- Node3&#45;&gt;Node4 -->
<g id="edge6" class="edge"><title>Node3&#45;&gt;Node4</title>
<path fill="none" stroke="midnightblue" d="M867.118,-334.507C872.17,-332.694 877.182,-330.845 882,-329 910.292,-318.164 941.711,-304.615 965.442,-294.064"/>
<polygon fill="midnightblue" stroke="midnightblue" points="865.656,-331.311 857.391,-337.94 867.986,-337.912 865.656,-331.311"/>
</g>
<!-- Node6 -->
<g id="node11" class="node"><title>Node6</title>
<a xlink:href="../../d6/de0/class_u_b_document_controller.html#a3625404ac761f6772ff3b192e0bc25f8" target="_top" xlink:title="UBDocumentController\l::pageDoubleClicked">
<polygon fill="white" stroke="black" points="944,-338 944,-372 1062,-372 1062,-338 944,-338"/>
<text text-anchor="start" x="952" y="-359" font-family="Helvetica,sans-Serif" font-size="10.00">UBDocumentController</text>
<text text-anchor="middle" x="1003" y="-346" font-family="Helvetica,sans-Serif" font-size="10.00">::pageDoubleClicked</text>
</a>
</g>
<!-- Node3&#45;&gt;Node6 -->
<g id="edge10" class="edge"><title>Node3&#45;&gt;Node6</title>
<path fill="none" stroke="midnightblue" d="M874.372,-355C897.036,-355 921.982,-355 943.824,-355"/>
<polygon fill="midnightblue" stroke="midnightblue" points="874.138,-351.5 864.138,-355 874.138,-358.5 874.138,-351.5"/>
</g>
<!-- Node5 -->
<g id="node9" class="node"><title>Node5</title>
<a xlink:href="../../d6/de0/class_u_b_document_controller.html#a38e9ea0a2dad2b1c8d9588563e9ee3bf" target="_top" xlink:title="UBDocumentController\l::UBDocumentController">
<polygon fill="white" stroke="black" points="1124,-325 1124,-359 1248,-359 1248,-325 1124,-325"/>
<text text-anchor="start" x="1132" y="-346" font-family="Helvetica,sans-Serif" font-size="10.00">UBDocumentController</text>
<text text-anchor="middle" x="1186" y="-333" font-family="Helvetica,sans-Serif" font-size="10.00">::UBDocumentController</text>
</a>
</g>
<!-- Node4&#45;&gt;Node5 -->
<g id="edge8" class="edge"><title>Node4&#45;&gt;Node5</title>
<path fill="none" stroke="midnightblue" d="M1060.75,-297.511C1085.58,-306.331 1114.27,-316.522 1137.92,-324.923"/>
<polygon fill="midnightblue" stroke="midnightblue" points="1061.68,-294.127 1051.08,-294.078 1059.33,-300.723 1061.68,-294.127"/>
</g>
<!-- Node7&#45;&gt;Node4 -->
<g id="edge14" class="edge"><title>Node7&#45;&gt;Node4</title>
<path fill="none" stroke="midnightblue" d="M867.118,-219.493C872.17,-221.306 877.182,-223.155 882,-225 910.292,-235.836 941.711,-249.385 965.442,-259.936"/>
<polygon fill="midnightblue" stroke="midnightblue" points="867.986,-216.088 857.391,-216.06 865.656,-222.689 867.986,-216.088"/>
</g>
<!-- Node8&#45;&gt;Node4 -->
<g id="edge18" class="edge"><title>Node8&#45;&gt;Node4</title>
<path fill="none" stroke="midnightblue" d="M874.066,-293.931C896.811,-290.944 921.884,-287.652 943.824,-284.771"/>
<polygon fill="midnightblue" stroke="midnightblue" points="873.598,-290.462 864.138,-295.234 874.509,-297.403 873.598,-290.462"/>
</g>
<!-- Node9&#45;&gt;Node4 -->
<g id="edge22" class="edge"><title>Node9&#45;&gt;Node4</title>
<path fill="none" stroke="midnightblue" d="M873.151,-386.825C876.24,-385.038 879.21,-383.101 882,-381 904.454,-364.091 897.57,-348.307 918,-329 932.711,-315.098 951.73,-303.042 968.046,-294.048"/>
<polygon fill="midnightblue" stroke="midnightblue" points="871.452,-383.763 864.179,-391.468 874.669,-389.98 871.452,-383.763"/>
</g>
<!-- Node10 -->
<g id="node22" class="node"><title>Node10</title>
<a xlink:href="../../d6/de0/class_u_b_document_controller.html#a4422bb4f77bfee61bcfbce4d64de08a0" target="_top" xlink:title="UBDocumentController\l::refreshDocumentThumbnailsView">
<polygon fill="white" stroke="black" points="918,-390 918,-424 1088,-424 1088,-390 918,-390"/>
<text text-anchor="start" x="926" y="-411" font-family="Helvetica,sans-Serif" font-size="10.00">UBDocumentController</text>
<text text-anchor="middle" x="1003" y="-398" font-family="Helvetica,sans-Serif" font-size="10.00">::refreshDocumentThumbnailsView</text>
</a>
</g>
<!-- Node9&#45;&gt;Node10 -->
<g id="edge24" class="edge"><title>Node9&#45;&gt;Node10</title>
<path fill="none" stroke="midnightblue" d="M874.214,-407C888.291,-407 903.254,-407 917.811,-407"/>
<polygon fill="midnightblue" stroke="midnightblue" points="874.138,-403.5 864.138,-407 874.138,-410.5 874.138,-403.5"/>
</g>
<!-- Node10&#45;&gt;Node5 -->
<g id="edge26" class="edge"><title>Node10&#45;&gt;Node5</title>
<path fill="none" stroke="midnightblue" d="M1070.99,-386.746C1076.77,-384.862 1082.5,-382.933 1088,-381 1107,-374.325 1127.77,-366.185 1145.28,-359.072"/>
<polygon fill="midnightblue" stroke="midnightblue" points="1069.73,-383.477 1061.28,-389.867 1071.87,-390.142 1069.73,-383.477"/>
</g>
<!-- Node11&#45;&gt;Node4 -->
<g id="edge30" class="edge"><title>Node11&#45;&gt;Node4</title>
<path fill="none" stroke="midnightblue" d="M881.266,-261.015C902.025,-263.741 924.193,-266.652 943.846,-269.232"/>
<polygon fill="midnightblue" stroke="midnightblue" points="881.577,-257.526 871.206,-259.694 880.666,-264.466 881.577,-257.526"/>
</g>
<!-- Node12&#45;&gt;Node4 -->
<g id="edge34" class="edge"><title>Node12&#45;&gt;Node4</title>
<path fill="none" stroke="midnightblue" d="M873.043,-168.322C876.118,-169.8 879.119,-171.359 882,-173 924.361,-197.131 965.667,-237.238 987.346,-259.949"/>
<polygon fill="midnightblue" stroke="midnightblue" points="874.203,-165.007 863.645,-164.129 871.352,-171.4 874.203,-165.007"/>
</g>
<!-- Node14 -->
<g id="node33" class="node"><title>Node14</title>
<a xlink:href="../../d6/de0/class_u_b_document_controller.html#aadb04f4c4251bd9d381065705f8da7e4" target="_top" xlink:title="UBDocumentController\l::firstSelectedTreeProxy">
<polygon fill="white" stroke="black" points="364,-91 364,-125 486,-125 486,-91 364,-91"/>
<text text-anchor="start" x="372" y="-112" font-family="Helvetica,sans-Serif" font-size="10.00">UBDocumentController</text>
<text text-anchor="middle" x="425" y="-99" font-family="Helvetica,sans-Serif" font-size="10.00">::firstSelectedTreeProxy</text>
</a>
</g>
<!-- Node13&#45;&gt;Node14 -->
<g id="edge38" class="edge"><title>Node13&#45;&gt;Node14</title>
<path fill="none" stroke="midnightblue" d="M304.156,-108C323.745,-108 344.921,-108 363.992,-108"/>
<polygon fill="midnightblue" stroke="midnightblue" points="304.076,-104.5 294.076,-108 304.076,-111.5 304.076,-104.5"/>
</g>
<!-- Node15 -->
<g id="node35" class="node"><title>Node15</title>
<a xlink:href="../../da/d14/class_u_b_application_controller.html#a074e9435d9ab3aff5d05ab47e5a37e3e" target="_top" xlink:title="UBApplicationController\l::showDocument">
<polygon fill="white" stroke="black" points="554.5,-104 554.5,-138 675.5,-138 675.5,-104 554.5,-104"/>
<text text-anchor="start" x="562.5" y="-125" font-family="Helvetica,sans-Serif" font-size="10.00">UBApplicationController</text>
<text text-anchor="middle" x="615" y="-112" font-family="Helvetica,sans-Serif" font-size="10.00">::showDocument</text>
</a>
</g>
<!-- Node14&#45;&gt;Node15 -->
<g id="edge40" class="edge"><title>Node14&#45;&gt;Node15</title>
<path fill="none" stroke="midnightblue" d="M496.3,-112.878C515.381,-114.184 535.825,-115.583 554.277,-116.845"/>
<polygon fill="midnightblue" stroke="midnightblue" points="496.379,-109.376 486.163,-112.185 495.901,-116.359 496.379,-109.376"/>
</g>
<!-- Node21 -->
<g id="node49" class="node"><title>Node21</title>
<a xlink:href="../../d6/de0/class_u_b_document_controller.html#aa0c116eaa42f5ca95b5bfe99824e9d32" target="_top" xlink:title="UBDocumentController\l::exportDocument">
<polygon fill="white" stroke="black" points="556,-52 556,-86 674,-86 674,-52 556,-52"/>
<text text-anchor="start" x="564" y="-73" font-family="Helvetica,sans-Serif" font-size="10.00">UBDocumentController</text>
<text text-anchor="middle" x="615" y="-60" font-family="Helvetica,sans-Serif" font-size="10.00">::exportDocument</text>
</a>
</g>
<!-- Node14&#45;&gt;Node21 -->
<g id="edge56" class="edge"><title>Node14&#45;&gt;Node21</title>
<path fill="none" stroke="midnightblue" d="M496.015,-93.4233C515.737,-89.375 536.935,-85.0239 555.896,-81.1319"/>
<polygon fill="midnightblue" stroke="midnightblue" points="495.255,-90.0062 486.163,-95.4455 496.663,-96.8632 495.255,-90.0062"/>
</g>
<!-- Node15&#45;&gt;Node7 -->
<g id="edge52" class="edge"><title>Node15&#45;&gt;Node7</title>
<path fill="none" stroke="midnightblue" d="M658.894,-142.51C679.629,-152.331 704.855,-163.797 728,-173 735.736,-176.076 743.995,-179.115 752.127,-181.971"/>
<polygon fill="midnightblue" stroke="midnightblue" points="660.24,-139.274 649.707,-138.128 657.226,-145.592 660.24,-139.274"/>
</g>
<!-- Node15&#45;&gt;Node12 -->
<g id="edge54" class="edge"><title>Node15&#45;&gt;Node12</title>
<path fill="none" stroke="midnightblue" d="M685.555,-130.655C705.412,-133.372 726.797,-136.299 745.909,-138.914"/>
<polygon fill="midnightblue" stroke="midnightblue" points="686.022,-127.186 675.64,-129.298 685.073,-134.122 686.022,-127.186"/>
</g>
<!-- Node16 -->
<g id="node37" class="node"><title>Node16</title>
<a xlink:href="../../d8/d81/class_u_b_application.html#aa7760534852820a497c88484745d8225" target="_top" xlink:title="UBApplication::showDocument">
<polygon fill="white" stroke="black" points="728.5,-38.5 728.5,-59.5 881.5,-59.5 881.5,-38.5 728.5,-38.5"/>
<text text-anchor="middle" x="805" y="-46.5" font-family="Helvetica,sans-Serif" font-size="10.00">UBApplication::showDocument</text>
</a>
</g>
<!-- Node15&#45;&gt;Node16 -->
<g id="edge42" class="edge"><title>Node15&#45;&gt;Node16</title>
<path fill="none" stroke="midnightblue" d="M681.656,-99.9166C685.199,-98.3557 688.668,-96.7159 692,-95 709.546,-85.9638 710.142,-77.4031 728,-69 735.998,-65.2365 744.81,-62.1047 753.528,-59.5241"/>
<polygon fill="midnightblue" stroke="midnightblue" points="680.045,-96.7955 672.152,-103.862 682.729,-103.26 680.045,-96.7955"/>
</g>
<!-- Node19 -->
<g id="node43" class="node"><title>Node19</title>
<a xlink:href="../../da/d14/class_u_b_application_controller.html#a59f95b747443497d344b8af0fd231cf4" target="_top" xlink:title="UBApplicationController\l::hideDesktop">
<polygon fill="white" stroke="black" points="744.5,-78 744.5,-112 865.5,-112 865.5,-78 744.5,-78"/>
<text text-anchor="start" x="752.5" y="-99" font-family="Helvetica,sans-Serif" font-size="10.00">UBApplicationController</text>
<text text-anchor="middle" x="805" y="-86" font-family="Helvetica,sans-Serif" font-size="10.00">::hideDesktop</text>
</a>
</g>
<!-- Node15&#45;&gt;Node19 -->
<g id="edge48" class="edge"><title>Node15&#45;&gt;Node19</title>
<path fill="none" stroke="midnightblue" d="M685.577,-111.342C704.867,-108.702 725.598,-105.866 744.285,-103.308"/>
<polygon fill="midnightblue" stroke="midnightblue" points="685.073,-107.878 675.64,-112.702 686.022,-114.814 685.073,-107.878"/>
</g>
<!-- Node17 -->
<g id="node39" class="node"><title>Node17</title>
<a xlink:href="../../d8/d81/class_u_b_application.html#add1469239e71bf24fdc61413a42a38bd" target="_top" xlink:title="UBApplication::exec">
<polygon fill="white" stroke="black" points="950,-38.5 950,-59.5 1056,-59.5 1056,-38.5 950,-38.5"/>
<text text-anchor="middle" x="1003" y="-46.5" font-family="Helvetica,sans-Serif" font-size="10.00">UBApplication::exec</text>
</a>
</g>
<!-- Node16&#45;&gt;Node17 -->
<g id="edge44" class="edge"><title>Node16&#45;&gt;Node17</title>
<path fill="none" stroke="midnightblue" d="M891.823,-49C911.611,-49 932.059,-49 949.938,-49"/>
<polygon fill="midnightblue" stroke="midnightblue" points="891.552,-45.5001 881.552,-49 891.552,-52.5001 891.552,-45.5001"/>
</g>
<!-- Node18 -->
<g id="node41" class="node"><title>Node18</title>
<a xlink:href="../../df/d0a/main_8cpp.html#a0ddf1224851353fc92bfbff6f499fa97" target="_top" xlink:title="main">
<polygon fill="white" stroke="black" points="1167,-38.5 1167,-59.5 1205,-59.5 1205,-38.5 1167,-38.5"/>
<text text-anchor="middle" x="1186" y="-46.5" font-family="Helvetica,sans-Serif" font-size="10.00">main</text>
</a>
</g>
<!-- Node17&#45;&gt;Node18 -->
<g id="edge46" class="edge"><title>Node17&#45;&gt;Node18</title>
<path fill="none" stroke="midnightblue" d="M1066.66,-49C1101.89,-49 1143.21,-49 1166.83,-49"/>
<polygon fill="midnightblue" stroke="midnightblue" points="1066.42,-45.5001 1056.42,-49 1066.42,-52.5001 1066.42,-45.5001"/>
</g>
<!-- Node20 -->
<g id="node45" class="node"><title>Node20</title>
<a xlink:href="../../da/d14/class_u_b_application_controller.html#a9b13846d29481cee9b89b5177ff2b3f4" target="_top" xlink:title="UBApplicationController\l::UBApplicationController">
<polygon fill="white" stroke="black" points="939.5,-78 939.5,-112 1066.5,-112 1066.5,-78 939.5,-78"/>
<text text-anchor="start" x="947.5" y="-99" font-family="Helvetica,sans-Serif" font-size="10.00">UBApplicationController</text>
<text text-anchor="middle" x="1003" y="-86" font-family="Helvetica,sans-Serif" font-size="10.00">::UBApplicationController</text>
</a>
</g>
<!-- Node19&#45;&gt;Node20 -->
<g id="edge50" class="edge"><title>Node19&#45;&gt;Node20</title>
<path fill="none" stroke="midnightblue" d="M875.764,-95C896.489,-95 919.016,-95 939.276,-95"/>
<polygon fill="midnightblue" stroke="midnightblue" points="875.752,-91.5001 865.752,-95 875.752,-98.5001 875.752,-91.5001"/>
</g>
<!-- Node21&#45;&gt;Node4 -->
<g id="edge58" class="edge"><title>Node21&#45;&gt;Node4</title>
<path fill="none" stroke="midnightblue" d="M676.138,-48.6381C681.513,-46.7626 686.861,-44.8659 692,-43 771.59,-14.1036 812.064,18.7336 882,-29 918.266,-53.7525 899.459,-81.1987 918,-121 942.094,-172.722 975.754,-231.158 992.572,-259.593"/>
<polygon fill="midnightblue" stroke="midnightblue" points="674.779,-45.4044 666.472,-51.9798 677.067,-52.0202 674.779,-45.4044"/>
</g>
<!-- Node23 -->
<g id="node54" class="node"><title>Node23</title>
<a xlink:href="../../dc/d05/class_u_b_export_document_set_adaptor.html#a058f0d8ec19fe99785554e6f77660ac5" target="_top" xlink:title="UBExportDocumentSetAdaptor\l::persistData">
<polygon fill="white" stroke="black" points="348.5,-26 348.5,-60 501.5,-60 501.5,-26 348.5,-26"/>
<text text-anchor="start" x="356.5" y="-47" font-family="Helvetica,sans-Serif" font-size="10.00">UBExportDocumentSetAdaptor</text>
<text text-anchor="middle" x="425" y="-34" font-family="Helvetica,sans-Serif" font-size="10.00">::persistData</text>
</a>
</g>
<!-- Node22&#45;&gt;Node23 -->
<g id="edge62" class="edge"><title>Node22&#45;&gt;Node23</title>
<path fill="none" stroke="midnightblue" d="M321.978,-46.2533C330.758,-45.9761 339.629,-45.6959 348.29,-45.4224"/>
<polygon fill="midnightblue" stroke="midnightblue" points="321.617,-42.7629 311.733,-46.5769 321.838,-49.7594 321.617,-42.7629"/>
</g>
<!-- Node24 -->
<g id="node56" class="node"><title>Node24</title>
<a xlink:href="../../dc/d05/class_u_b_export_document_set_adaptor.html#af3a78eb86e3071bd91924e8d056a0823" target="_top" xlink:title="UBExportDocumentSetAdaptor\l::persist">
<polygon fill="white" stroke="black" points="538.5,-0 538.5,-34 691.5,-34 691.5,-0 538.5,-0"/>
<text text-anchor="start" x="546.5" y="-21" font-family="Helvetica,sans-Serif" font-size="10.00">UBExportDocumentSetAdaptor</text>
<text text-anchor="middle" x="615" y="-8" font-family="Helvetica,sans-Serif" font-size="10.00">::persist</text>
</a>
</g>
<!-- Node23&#45;&gt;Node24 -->
<g id="edge64" class="edge"><title>Node23&#45;&gt;Node24</title>
<path fill="none" stroke="midnightblue" d="M511.692,-31.1369C520.565,-29.9227 529.535,-28.6952 538.29,-27.4972"/>
<polygon fill="midnightblue" stroke="midnightblue" points="511.166,-27.6762 501.733,-32.4997 512.115,-34.6116 511.166,-27.6762"/>
</g>
</g>
</svg>
