<?xml version="1.0" encoding="UTF-8" standalone="no"?>
<!DOCTYPE svg PUBLIC "-//W3C//DTD SVG 1.1//EN"
 "http://www.w3.org/Graphics/SVG/1.1/DTD/svg11.dtd">
<!-- Generated by graphviz version 2.26.3 (20100126.1600)
 -->
<!-- Title: UBDocumentTreeModel::adjustNameForParentIndex Pages: 1 -->
<svg width="466pt" height="198pt"
 viewBox="0.00 0.00 466.00 198.00" xmlns="http://www.w3.org/2000/svg" xmlns:xlink="http://www.w3.org/1999/xlink">
<g id="graph1" class="graph" transform="scale(1 1) rotate(0) translate(4 194)">
<title>UBDocumentTreeModel::adjustNameForParentIndex</title>
<polygon fill="white" stroke="white" points="-4,5 -4,-194 463,-194 463,5 -4,5"/>
<!-- Node1 -->
<g id="node1" class="node"><title>Node1</title>
<polygon fill="#bfbfbf" stroke="black" points="0,-78 0,-112 142,-112 142,-78 0,-78"/>
<text text-anchor="start" x="8" y="-99" font-family="Helvetica,sans-Serif" font-size="10.00">UBDocumentTreeModel</text>
<text text-anchor="middle" x="71" y="-86" font-family="Helvetica,sans-Serif" font-size="10.00">::adjustNameForParentIndex</text>
</g>
<!-- Node2 -->
<g id="node3" class="node"><title>Node2</title>
<a xlink:href="../../dd/d5a/class_u_b_document_tree_model.html#ab750c5efca6d80e87c6e831a96a6fc8a" target="_top" xlink:title="UBDocumentTreeModel\l::nodeNameList">
<polygon fill="white" stroke="black" points="178,-78 178,-112 300,-112 300,-78 178,-78"/>
<text text-anchor="start" x="186" y="-99" font-family="Helvetica,sans-Serif" font-size="10.00">UBDocumentTreeModel</text>
<text text-anchor="middle" x="239" y="-86" font-family="Helvetica,sans-Serif" font-size="10.00">::nodeNameList</text>
</a>
</g>
<!-- Node1&#45;&gt;Node2 -->
<g id="edge2" class="edge"><title>Node1&#45;&gt;Node2</title>
<path fill="none" stroke="midnightblue" d="M142.247,-95C150.703,-95 159.336,-95 167.791,-95"/>
<polygon fill="midnightblue" stroke="midnightblue" points="167.994,-98.5001 177.994,-95 167.994,-91.5001 167.994,-98.5001"/>
</g>
<!-- Node3 -->
<g id="node5" class="node"><title>Node3</title>
<a xlink:href="../../dd/d5a/class_u_b_document_tree_model.html#a09f526b235ed26f15429775ae8c9b08d" target="_top" xlink:title="UBDocumentTreeModel\l::nodeFromIndex">
<polygon fill="white" stroke="black" points="336,-156 336,-190 458,-190 458,-156 336,-156"/>
<text text-anchor="start" x="344" y="-177" font-family="Helvetica,sans-Serif" font-size="10.00">UBDocumentTreeModel</text>
<text text-anchor="middle" x="397" y="-164" font-family="Helvetica,sans-Serif" font-size="10.00">::nodeFromIndex</text>
</a>
</g>
<!-- Node2&#45;&gt;Node3 -->
<g id="edge4" class="edge"><title>Node2&#45;&gt;Node3</title>
<path fill="none" stroke="midnightblue" d="M269.223,-112.1C288.183,-122.602 313.262,-136.086 336,-147 339.308,-148.588 342.738,-150.183 346.208,-151.76"/>
<polygon fill="midnightblue" stroke="midnightblue" points="344.874,-154.997 355.432,-155.871 347.724,-148.603 344.874,-154.997"/>
</g>
<!-- Node4 -->
<g id="node7" class="node"><title>Node4</title>
<a xlink:href="../../de/d8b/class_u_b_document_tree_node.html#a20713ca76afd123a3969933729504bce" target="_top" xlink:title="UBDocumentTreeNode\l::nodeType">
<polygon fill="white" stroke="black" points="337.5,-104 337.5,-138 456.5,-138 456.5,-104 337.5,-104"/>
<text text-anchor="start" x="345.5" y="-125" font-family="Helvetica,sans-Serif" font-size="10.00">UBDocumentTreeNode</text>
<text text-anchor="middle" x="397" y="-112" font-family="Helvetica,sans-Serif" font-size="10.00">::nodeType</text>
</a>
</g>
<!-- Node2&#45;&gt;Node4 -->
<g id="edge6" class="edge"><title>Node2&#45;&gt;Node4</title>
<path fill="none" stroke="midnightblue" d="M300.087,-105.052C308.983,-106.516 318.199,-108.033 327.251,-109.522"/>
<polygon fill="midnightblue" stroke="midnightblue" points="326.94,-113.018 337.375,-111.188 328.076,-106.111 326.94,-113.018"/>
</g>
<!-- Node5 -->
<g id="node9" class="node"><title>Node5</title>
<a xlink:href="../../de/d8b/class_u_b_document_tree_node.html#add8f3447b6f6d02ff78a440386ed89f4" target="_top" xlink:title="UBDocumentTreeNode\l::children">
<polygon fill="white" stroke="black" points="337.5,-52 337.5,-86 456.5,-86 456.5,-52 337.5,-52"/>
<text text-anchor="start" x="345.5" y="-73" font-family="Helvetica,sans-Serif" font-size="10.00">UBDocumentTreeNode</text>
<text text-anchor="middle" x="397" y="-60" font-family="Helvetica,sans-Serif" font-size="10.00">::children</text>
</a>
</g>
<!-- Node2&#45;&gt;Node5 -->
<g id="edge8" class="edge"><title>Node2&#45;&gt;Node5</title>
<path fill="none" stroke="midnightblue" d="M300.087,-84.9477C308.983,-83.4838 318.199,-81.9672 327.251,-80.4777"/>
<polygon fill="midnightblue" stroke="midnightblue" points="328.076,-83.889 337.375,-78.8117 326.94,-76.9819 328.076,-83.889"/>
</g>
<!-- Node6 -->
<g id="node11" class="node"><title>Node6</title>
<a xlink:href="../../de/d8b/class_u_b_document_tree_node.html#ab16ac37e87506a868a07eab28e2e572e" target="_top" xlink:title="UBDocumentTreeNode\l::nodeName">
<polygon fill="white" stroke="black" points="337.5,-0 337.5,-34 456.5,-34 456.5,-0 337.5,-0"/>
<text text-anchor="start" x="345.5" y="-21" font-family="Helvetica,sans-Serif" font-size="10.00">UBDocumentTreeNode</text>
<text text-anchor="middle" x="397" y="-8" font-family="Helvetica,sans-Serif" font-size="10.00">::nodeName</text>
</a>
</g>
<!-- Node2&#45;&gt;Node6 -->
<g id="edge10" class="edge"><title>Node2&#45;&gt;Node6</title>
<path fill="none" stroke="midnightblue" d="M269.223,-77.9002C288.183,-67.398 313.262,-53.9139 336,-43 339.308,-41.4122 342.738,-39.8166 346.208,-38.24"/>
<polygon fill="midnightblue" stroke="midnightblue" points="347.724,-41.3967 355.432,-34.1287 344.874,-35.003 347.724,-41.3967"/>
</g>
</g>
</svg>
