<?xml version="1.0" encoding="UTF-8" standalone="no"?>
<!DOCTYPE svg PUBLIC "-//W3C//DTD SVG 1.1//EN"
 "http://www.w3.org/Graphics/SVG/1.1/DTD/svg11.dtd">
<!-- Generated by graphviz version 2.26.3 (20100126.1600)
 -->
<!-- Title: UBDocumentTreeModel::pIndexForNode Pages: 1 -->
<!--zoomable 618 -->
<svg id="main" version="1.1" xmlns="http://www.w3.org/2000/svg" xmlns:xlink="http://www.w3.org/1999/xlink" xml:space="preserve" onload="init(evt)">
        <defs>
                <circle id="rim" cx="0" cy="0" r="7"/>
                <circle id="rim2" cx="0" cy="0" r="3.5"/>
                <g id="zoomPlus">
                        <use xlink:href="#rim" fill="#404040">
                                <set attributeName="fill" to="#808080" begin="zoomplus.mouseover" end="zoomplus.mouseout"/>
                        </use>
                        <path d="M-4,0h8M0,-4v8" fill="none" stroke="white" stroke-width="1.5" pointer-events="none"/>
                </g>
                <g id="zoomMin">
                        <use xlink:href="#rim" fill="#404040">
                                <set attributeName="fill" to="#808080" begin="zoomminus.mouseover" end="zoomminus.mouseout"/>
                        </use>
                        <path d="M-4,0h8" fill="none" stroke="white" stroke-width="1.5" pointer-events="none"/>
                </g>
                <g id="dirArrow">
                        <path fill="none" stroke="white" stroke-width="1.5" d="M0,-3.0v7 M-2.5,-0.5L0,-3.0L2.5,-0.5"/>
                </g>
               <g id="resetDef">
                       <use xlink:href="#rim2" fill="#404040">
                               <set attributeName="fill" to="#808080" begin="reset.mouseover" end="reset.mouseout"/>
                       </use>
               </g>
        </defs>

<script type="text/javascript">
var viewWidth = 1548;
var viewHeight = 618;
var sectionId = 'dynsection-66';
</script>
<script xlink:href="../../svgpan.js"/>
<svg id="graph" class="graph">
<g id="viewport">
<title>UBDocumentTreeModel::pIndexForNode</title>
<polygon fill="white" stroke="white" points="-4,5 -4,-614 1545,-614 1545,5 -4,5"/>
<!-- Node1 -->
<g id="node1" class="node"><title>Node1</title>
<polygon fill="#bfbfbf" stroke="black" points="0,-90 0,-124 122,-124 122,-90 0,-90"/>
<text text-anchor="start" x="8" y="-111" font-family="Helvetica,sans-Serif" font-size="10.00">UBDocumentTreeModel</text>
<text text-anchor="middle" x="61" y="-98" font-family="Helvetica,sans-Serif" font-size="10.00">::pIndexForNode</text>
</g>
<!-- Node2 -->
<g id="node3" class="node"><title>Node2</title>
<a xlink:href="../../dd/d5a/class_u_b_document_tree_model.html#a05779f6af8042fbe0c9f72002fb3f246" target="_top" xlink:title="UBDocumentTreeModel\l::indexForNode">
<polygon fill="white" stroke="black" points="158,-90 158,-124 280,-124 280,-90 158,-90"/>
<text text-anchor="start" x="166" y="-111" font-family="Helvetica,sans-Serif" font-size="10.00">UBDocumentTreeModel</text>
<text text-anchor="middle" x="219" y="-98" font-family="Helvetica,sans-Serif" font-size="10.00">::indexForNode</text>
</a>
</g>
<!-- Node1&#45;&gt;Node2 -->
<g id="edge2" class="edge"><title>Node1&#45;&gt;Node2</title>
<path fill="none" stroke="midnightblue" d="M132.366,-107C140.863,-107 149.478,-107 157.815,-107"/>
<polygon fill="midnightblue" stroke="midnightblue" points="132.087,-103.5 122.087,-107 132.087,-110.5 132.087,-103.5"/>
</g>
<!-- Node3 -->
<g id="node5" class="node"><title>Node3</title>
<a xlink:href="../../dd/d5a/class_u_b_document_tree_model.html#a920af1c0ab5249f14989bf30de776268" target="_top" xlink:title="UBDocumentTreeModel\l::persistentIndexForNode">
<polygon fill="white" stroke="black" points="322.5,-444 322.5,-478 449.5,-478 449.5,-444 322.5,-444"/>
<text text-anchor="start" x="330.5" y="-465" font-family="Helvetica,sans-Serif" font-size="10.00">UBDocumentTreeModel</text>
<text text-anchor="middle" x="386" y="-452" font-family="Helvetica,sans-Serif" font-size="10.00">::persistentIndexForNode</text>
</a>
</g>
<!-- Node2&#45;&gt;Node3 -->
<g id="edge4" class="edge"><title>Node2&#45;&gt;Node3</title>
<path fill="none" stroke="midnightblue" d="M223.801,-134.119C236.734,-204.426 274.166,-390.216 316,-435 319.186,-438.411 322.86,-441.376 326.822,-443.954"/>
<polygon fill="midnightblue" stroke="midnightblue" points="227.237,-133.453 222.006,-124.24 220.35,-134.704 227.237,-133.453"/>
</g>
<!-- Node4 -->
<g id="node7" class="node"><title>Node4</title>
<a xlink:href="../../dd/d5a/class_u_b_document_tree_model.html#aa36062512a401087594dddb607af8050" target="_top" xlink:title="UBDocumentTreeModel\l::indexForProxy">
<polygon fill="white" stroke="black" points="325,-392 325,-426 447,-426 447,-392 325,-392"/>
<text text-anchor="start" x="333" y="-413" font-family="Helvetica,sans-Serif" font-size="10.00">UBDocumentTreeModel</text>
<text text-anchor="middle" x="386" y="-400" font-family="Helvetica,sans-Serif" font-size="10.00">::indexForProxy</text>
</a>
</g>
<!-- Node2&#45;&gt;Node4 -->
<g id="edge6" class="edge"><title>Node2&#45;&gt;Node4</title>
<path fill="none" stroke="midnightblue" d="M233.372,-132.99C266.687,-193.236 348.471,-341.133 376.44,-391.711"/>
<polygon fill="midnightblue" stroke="midnightblue" points="236.359,-131.16 228.457,-124.102 230.233,-134.547 236.359,-131.16"/>
</g>
<!-- Node30 -->
<g id="node66" class="node"><title>Node30</title>
<a xlink:href="../../dd/d5a/class_u_b_document_tree_model.html#a8c9847e65954eb3ff3ad7f51265f2edd" target="_top" xlink:title="UBDocumentTreeModel\l::updateIndexNameBindings">
<polygon fill="white" stroke="black" points="316,-90 316,-124 456,-124 456,-90 316,-90"/>
<text text-anchor="start" x="324" y="-111" font-family="Helvetica,sans-Serif" font-size="10.00">UBDocumentTreeModel</text>
<text text-anchor="middle" x="386" y="-98" font-family="Helvetica,sans-Serif" font-size="10.00">::updateIndexNameBindings</text>
</a>
</g>
<!-- Node2&#45;&gt;Node30 -->
<g id="edge72" class="edge"><title>Node2&#45;&gt;Node30</title>
<path fill="none" stroke="midnightblue" d="M290.376,-107C298.777,-107 307.344,-107 315.729,-107"/>
<polygon fill="midnightblue" stroke="midnightblue" points="290.236,-103.5 280.236,-107 290.236,-110.5 290.236,-103.5"/>
</g>
<!-- Node32 -->
<g id="node70" class="node"><title>Node32</title>
<a xlink:href="../../da/d16/class_u_b_document_tree_view.html#a8364df11d6b3285ea0684673801b0b6c" target="_top" xlink:title="UBDocumentTreeView\l::dropEvent">
<polygon fill="white" stroke="black" points="687.5,-15 687.5,-49 804.5,-49 804.5,-15 687.5,-15"/>
<text text-anchor="start" x="695.5" y="-36" font-family="Helvetica,sans-Serif" font-size="10.00">UBDocumentTreeView</text>
<text text-anchor="middle" x="746" y="-23" font-family="Helvetica,sans-Serif" font-size="10.00">::dropEvent</text>
</a>
</g>
<!-- Node2&#45;&gt;Node32 -->
<g id="edge86" class="edge"><title>Node2&#45;&gt;Node32</title>
<path fill="none" stroke="midnightblue" d="M286.608,-87.5073C296.416,-85.0803 306.429,-82.8175 316,-81 447.394,-56.0471 603.955,-42.1048 687.163,-35.9252"/>
<polygon fill="midnightblue" stroke="midnightblue" points="285.722,-84.1212 276.894,-89.9787 287.448,-90.9051 285.722,-84.1212"/>
</g>
<!-- Node35 -->
<g id="node79" class="node"><title>Node35</title>
<a xlink:href="../../dd/d5a/class_u_b_document_tree_model.html#abff2e582e5101bed6cdd3402eca1e5b0" target="_top" xlink:title="UBDocumentTreeModel\l::currentIndex">
<polygon fill="white" stroke="black" points="325,-0 325,-34 447,-34 447,-0 325,-0"/>
<text text-anchor="start" x="333" y="-21" font-family="Helvetica,sans-Serif" font-size="10.00">UBDocumentTreeModel</text>
<text text-anchor="middle" x="386" y="-8" font-family="Helvetica,sans-Serif" font-size="10.00">::currentIndex</text>
</a>
</g>
<!-- Node2&#45;&gt;Node35 -->
<g id="edge88" class="edge"><title>Node2&#45;&gt;Node35</title>
<path fill="none" stroke="midnightblue" d="M253.764,-84.3492C271.973,-72.8732 294.834,-59.0647 316,-48 325.188,-43.1972 335.275,-38.4433 344.861,-34.1543"/>
<polygon fill="midnightblue" stroke="midnightblue" points="251.79,-81.4566 245.226,-89.7733 255.543,-87.365 251.79,-81.4566"/>
</g>
<!-- Node5 -->
<g id="node9" class="node"><title>Node5</title>
<a xlink:href="../../dc/d05/class_u_b_export_document_set_adaptor.html#af3a78eb86e3071bd91924e8d056a0823" target="_top" xlink:title="UBExportDocumentSetAdaptor\l::persist">
<polygon fill="white" stroke="black" points="492.5,-576 492.5,-610 645.5,-610 645.5,-576 492.5,-576"/>
<text text-anchor="start" x="500.5" y="-597" font-family="Helvetica,sans-Serif" font-size="10.00">UBExportDocumentSetAdaptor</text>
<text text-anchor="middle" x="569" y="-584" font-family="Helvetica,sans-Serif" font-size="10.00">::persist</text>
</a>
</g>
<!-- Node4&#45;&gt;Node5 -->
<g id="edge8" class="edge"><title>Node4&#45;&gt;Node5</title>
<path fill="none" stroke="midnightblue" d="M453.216,-432.213C454.18,-433.107 455.109,-434.036 456,-435 495.805,-478.099 452.783,-518.366 492,-562 497.009,-567.573 503.16,-572.162 509.783,-575.935"/>
<polygon fill="midnightblue" stroke="midnightblue" points="455.266,-429.374 445.221,-426.006 450.974,-434.903 455.266,-429.374"/>
</g>
<!-- Node6 -->
<g id="node11" class="node"><title>Node6</title>
<a xlink:href="../../d6/de0/class_u_b_document_controller.html#ab4fa92eecfbd5ba3493bf7892cdd8ae0" target="_top" xlink:title="UBDocumentController\l::selectDocument">
<polygon fill="white" stroke="black" points="510,-321 510,-355 628,-355 628,-321 510,-321"/>
<text text-anchor="start" x="518" y="-342" font-family="Helvetica,sans-Serif" font-size="10.00">UBDocumentController</text>
<text text-anchor="middle" x="569" y="-329" font-family="Helvetica,sans-Serif" font-size="10.00">::selectDocument</text>
</a>
</g>
<!-- Node4&#45;&gt;Node6 -->
<g id="edge10" class="edge"><title>Node4&#45;&gt;Node6</title>
<path fill="none" stroke="midnightblue" d="M439.204,-388.358C466.404,-377.805 499.113,-365.115 524.89,-355.114"/>
<polygon fill="midnightblue" stroke="midnightblue" points="437.89,-385.114 429.833,-391.994 440.422,-391.64 437.89,-385.114"/>
</g>
<!-- Node26 -->
<g id="node55" class="node"><title>Node26</title>
<a xlink:href="../../d6/de0/class_u_b_document_controller.html#a4422bb4f77bfee61bcfbce4d64de08a0" target="_top" xlink:title="UBDocumentController\l::refreshDocumentThumbnailsView">
<polygon fill="white" stroke="black" points="1210,-511 1210,-545 1380,-545 1380,-511 1210,-511"/>
<text text-anchor="start" x="1218" y="-532" font-family="Helvetica,sans-Serif" font-size="10.00">UBDocumentController</text>
<text text-anchor="middle" x="1295" y="-519" font-family="Helvetica,sans-Serif" font-size="10.00">::refreshDocumentThumbnailsView</text>
</a>
</g>
<!-- Node4&#45;&gt;Node26 -->
<g id="edge58" class="edge"><title>Node4&#45;&gt;Node26</title>
<path fill="none" stroke="midnightblue" d="M450.358,-431.101C452.305,-432.337 454.192,-433.636 456,-435 477.572,-451.277 469.575,-468.92 492,-484 588.606,-548.963 629.583,-548 746,-548 746,-548 746,-548 915,-548 1016.41,-548 1132.83,-540.809 1209.8,-535.051"/>
<polygon fill="midnightblue" stroke="midnightblue" points="451.922,-427.964 441.497,-426.073 448.467,-434.052 451.922,-427.964"/>
</g>
<!-- Node27 -->
<g id="node58" class="node"><title>Node27</title>
<a xlink:href="../../dd/d5a/class_u_b_document_tree_model.html#a52f01503640b7e55146e197b91f8068e" target="_top" xlink:title="UBDocumentTreeModel\l::markDocumentAsNew">
<polygon fill="white" stroke="black" points="508,-441 508,-475 630,-475 630,-441 508,-441"/>
<text text-anchor="start" x="516" y="-462" font-family="Helvetica,sans-Serif" font-size="10.00">UBDocumentTreeModel</text>
<text text-anchor="middle" x="569" y="-449" font-family="Helvetica,sans-Serif" font-size="10.00">::markDocumentAsNew</text>
</a>
</g>
<!-- Node4&#45;&gt;Node27 -->
<g id="edge62" class="edge"><title>Node4&#45;&gt;Node27</title>
<path fill="none" stroke="midnightblue" d="M456.955,-427.999C473.76,-432.499 491.541,-437.26 507.867,-441.631"/>
<polygon fill="midnightblue" stroke="midnightblue" points="457.756,-424.59 447.191,-425.384 455.945,-431.352 457.756,-424.59"/>
</g>
<!-- Node7 -->
<g id="node13" class="node"><title>Node7</title>
<a xlink:href="../../da/d14/class_u_b_application_controller.html#a37354fade87a383adbda6d60acd26caa" target="_top" xlink:title="UBApplicationController\l::importFile">
<polygon fill="white" stroke="black" points="685.5,-157 685.5,-191 806.5,-191 806.5,-157 685.5,-157"/>
<text text-anchor="start" x="693.5" y="-178" font-family="Helvetica,sans-Serif" font-size="10.00">UBApplicationController</text>
<text text-anchor="middle" x="746" y="-165" font-family="Helvetica,sans-Serif" font-size="10.00">::importFile</text>
</a>
</g>
<!-- Node6&#45;&gt;Node7 -->
<g id="edge12" class="edge"><title>Node6&#45;&gt;Node7</title>
<path fill="none" stroke="midnightblue" d="M585.733,-312.525C605.811,-283.507 641.832,-236.097 682,-205 688.736,-199.785 696.49,-195.129 704.225,-191.11"/>
<polygon fill="midnightblue" stroke="midnightblue" points="582.764,-310.667 580.027,-320.902 588.549,-314.608 582.764,-310.667"/>
</g>
<!-- Node10 -->
<g id="node19" class="node"><title>Node10</title>
<a xlink:href="../../d6/de0/class_u_b_document_controller.html#a367127ee254faeb89b4a229e958f6072" target="_top" xlink:title="UBDocumentController\l::createNewDocument">
<polygon fill="white" stroke="black" points="687,-441 687,-475 805,-475 805,-441 687,-441"/>
<text text-anchor="start" x="695" y="-462" font-family="Helvetica,sans-Serif" font-size="10.00">UBDocumentController</text>
<text text-anchor="middle" x="746" y="-449" font-family="Helvetica,sans-Serif" font-size="10.00">::createNewDocument</text>
</a>
</g>
<!-- Node6&#45;&gt;Node10 -->
<g id="edge18" class="edge"><title>Node6&#45;&gt;Node10</title>
<path fill="none" stroke="midnightblue" d="M593.578,-362.306C615.393,-382.891 648.859,-412.14 682,-432 687.349,-435.206 693.166,-438.182 699.04,-440.889"/>
<polygon fill="midnightblue" stroke="midnightblue" points="595.738,-359.528 586.091,-355.148 590.9,-364.588 595.738,-359.528"/>
</g>
<!-- Node13 -->
<g id="node25" class="node"><title>Node13</title>
<a xlink:href="../../d6/de0/class_u_b_document_controller.html#a515c0abd53c46d51464ebca366e757fc" target="_top" xlink:title="UBDocumentController\l::show">
<polygon fill="white" stroke="black" points="687,-389 687,-423 805,-423 805,-389 687,-389"/>
<text text-anchor="start" x="695" y="-410" font-family="Helvetica,sans-Serif" font-size="10.00">UBDocumentController</text>
<text text-anchor="middle" x="746" y="-397" font-family="Helvetica,sans-Serif" font-size="10.00">::show</text>
</a>
</g>
<!-- Node6&#45;&gt;Node13 -->
<g id="edge24" class="edge"><title>Node6&#45;&gt;Node13</title>
<path fill="none" stroke="midnightblue" d="M623.076,-358.775C648.249,-368.446 677.825,-379.808 701.657,-388.964"/>
<polygon fill="midnightblue" stroke="midnightblue" points="624.255,-355.478 613.665,-355.159 621.744,-362.013 624.255,-355.478"/>
</g>
<!-- Node22 -->
<g id="node45" class="node"><title>Node22</title>
<a xlink:href="../../d6/de0/class_u_b_document_controller.html#a1eb2772022b941550c1994fed809a5f9" target="_top" xlink:title="UBDocumentController\l::moveDocumentToTrash">
<polygon fill="white" stroke="black" points="682,-299 682,-333 810,-333 810,-299 682,-299"/>
<text text-anchor="start" x="690" y="-320" font-family="Helvetica,sans-Serif" font-size="10.00">UBDocumentController</text>
<text text-anchor="middle" x="746" y="-307" font-family="Helvetica,sans-Serif" font-size="10.00">::moveDocumentToTrash</text>
</a>
</g>
<!-- Node6&#45;&gt;Node22 -->
<g id="edge46" class="edge"><title>Node6&#45;&gt;Node22</title>
<path fill="none" stroke="midnightblue" d="M638.659,-329.342C652.902,-327.571 667.828,-325.716 681.867,-323.971"/>
<polygon fill="midnightblue" stroke="midnightblue" points="637.923,-325.906 628.431,-330.613 638.786,-332.853 637.923,-325.906"/>
</g>
<!-- Node23 -->
<g id="node47" class="node"><title>Node23</title>
<a xlink:href="../../d6/de0/class_u_b_document_controller.html#accb67f0618e63c93da62f548c4f714b3" target="_top" xlink:title="UBDocumentController\l::moveFolderToTrash">
<polygon fill="white" stroke="black" points="687,-247 687,-281 805,-281 805,-247 687,-247"/>
<text text-anchor="start" x="695" y="-268" font-family="Helvetica,sans-Serif" font-size="10.00">UBDocumentController</text>
<text text-anchor="middle" x="746" y="-255" font-family="Helvetica,sans-Serif" font-size="10.00">::moveFolderToTrash</text>
</a>
</g>
<!-- Node6&#45;&gt;Node23 -->
<g id="edge48" class="edge"><title>Node6&#45;&gt;Node23</title>
<path fill="none" stroke="midnightblue" d="M618.119,-316.936C637.932,-308.491 661.025,-298.715 682,-290 688.977,-287.101 696.396,-284.054 703.617,-281.108"/>
<polygon fill="midnightblue" stroke="midnightblue" points="616.504,-313.82 608.68,-320.964 619.251,-320.258 616.504,-313.82"/>
</g>
<!-- Node24 -->
<g id="node49" class="node"><title>Node24</title>
<a xlink:href="../../d6/de0/class_u_b_document_controller.html#af5065d414f3ca99eee1d7c21930bde29" target="_top" xlink:title="UBDocumentController\l::importFile">
<polygon fill="white" stroke="black" points="856,-211 856,-245 974,-245 974,-211 856,-211"/>
<text text-anchor="start" x="864" y="-232" font-family="Helvetica,sans-Serif" font-size="10.00">UBDocumentController</text>
<text text-anchor="middle" x="915" y="-219" font-family="Helvetica,sans-Serif" font-size="10.00">::importFile</text>
</a>
</g>
<!-- Node6&#45;&gt;Node24 -->
<g id="edge50" class="edge"><title>Node6&#45;&gt;Node24</title>
<path fill="none" stroke="midnightblue" d="M588.386,-312.943C608.742,-288.795 643.151,-253.682 682,-238 737.754,-215.494 807.227,-215.733 855.742,-219.903"/>
<polygon fill="midnightblue" stroke="midnightblue" points="585.683,-310.721 582.036,-320.668 591.09,-315.166 585.683,-310.721"/>
</g>
<!-- Node25 -->
<g id="node52" class="node"><title>Node25</title>
<a xlink:href="../../d6/de0/class_u_b_document_controller.html#a5ec643da575f84730aada35064084cb5" target="_top" xlink:title="UBDocumentController\l::addToDocument">
<polygon fill="white" stroke="black" points="1038,-206 1038,-240 1156,-240 1156,-206 1038,-206"/>
<text text-anchor="start" x="1046" y="-227" font-family="Helvetica,sans-Serif" font-size="10.00">UBDocumentController</text>
<text text-anchor="middle" x="1097" y="-214" font-family="Helvetica,sans-Serif" font-size="10.00">::addToDocument</text>
</a>
</g>
<!-- Node6&#45;&gt;Node25 -->
<g id="edge54" class="edge"><title>Node6&#45;&gt;Node25</title>
<path fill="none" stroke="midnightblue" d="M638.542,-340.849C652.908,-341.329 667.944,-341.751 682,-342 738.88,-343.006 754.343,-353.773 810,-342 909.867,-320.876 924.878,-286.033 1020,-249 1027.76,-245.98 1036.03,-242.971 1044.17,-240.128"/>
<polygon fill="midnightblue" stroke="midnightblue" points="638.338,-337.34 628.222,-340.491 638.095,-344.336 638.338,-337.34"/>
</g>
<!-- Node8 -->
<g id="node15" class="node"><title>Node8</title>
<a xlink:href="../../d8/d81/class_u_b_application.html#ace44514d00d196ed5976552dedf9c070" target="_top" xlink:title="UBApplication::eventFilter">
<polygon fill="white" stroke="black" points="849.5,-171.5 849.5,-192.5 980.5,-192.5 980.5,-171.5 849.5,-171.5"/>
<text text-anchor="middle" x="915" y="-179.5" font-family="Helvetica,sans-Serif" font-size="10.00">UBApplication::eventFilter</text>
</a>
</g>
<!-- Node7&#45;&gt;Node8 -->
<g id="edge14" class="edge"><title>Node7&#45;&gt;Node8</title>
<path fill="none" stroke="midnightblue" d="M816.794,-177.351C827.617,-177.864 838.748,-178.39 849.451,-178.897"/>
<polygon fill="midnightblue" stroke="midnightblue" points="816.69,-173.842 806.536,-176.866 816.359,-180.835 816.69,-173.842"/>
</g>
<!-- Node9 -->
<g id="node17" class="node"><title>Node9</title>
<a xlink:href="../../d8/d81/class_u_b_application.html#adf778486cf90f2d7d5ac3b98a56430b7" target="_top" xlink:title="UBApplication::handleOpen\lMessage">
<polygon fill="white" stroke="black" points="846.5,-119 846.5,-153 983.5,-153 983.5,-119 846.5,-119"/>
<text text-anchor="start" x="854.5" y="-140" font-family="Helvetica,sans-Serif" font-size="10.00">UBApplication::handleOpen</text>
<text text-anchor="middle" x="915" y="-127" font-family="Helvetica,sans-Serif" font-size="10.00">Message</text>
</a>
</g>
<!-- Node7&#45;&gt;Node9 -->
<g id="edge16" class="edge"><title>Node7&#45;&gt;Node9</title>
<path fill="none" stroke="midnightblue" d="M816.327,-158.187C826.229,-155.96 836.398,-153.674 846.269,-151.454"/>
<polygon fill="midnightblue" stroke="midnightblue" points="815.524,-154.78 806.536,-160.388 817.06,-161.609 815.524,-154.78"/>
</g>
<!-- Node11 -->
<g id="node21" class="node"><title>Node11</title>
<a xlink:href="../../d6/de0/class_u_b_document_controller.html#abb172787a34a34cd3c2df0a1b46918c5" target="_top" xlink:title="UBDocumentController\l::setupViews">
<polygon fill="white" stroke="black" points="1236,-258 1236,-292 1354,-292 1354,-258 1236,-258"/>
<text text-anchor="start" x="1244" y="-279" font-family="Helvetica,sans-Serif" font-size="10.00">UBDocumentController</text>
<text text-anchor="middle" x="1295" y="-266" font-family="Helvetica,sans-Serif" font-size="10.00">::setupViews</text>
</a>
</g>
<!-- Node10&#45;&gt;Node11 -->
<g id="edge20" class="edge"><title>Node10&#45;&gt;Node11</title>
<path fill="none" stroke="midnightblue" d="M815.15,-464.836C921.319,-473.876 1118.08,-484.422 1174,-445 1209.89,-419.7 1185.18,-389.223 1210,-353 1226.64,-328.711 1252.2,-306.598 1270.94,-292.17"/>
<polygon fill="midnightblue" stroke="midnightblue" points="815.432,-461.348 805.166,-463.968 814.825,-468.321 815.432,-461.348"/>
</g>
<!-- Node12 -->
<g id="node23" class="node"><title>Node12</title>
<a xlink:href="../../d6/de0/class_u_b_document_controller.html#a38e9ea0a2dad2b1c8d9588563e9ee3bf" target="_top" xlink:title="UBDocumentController\l::UBDocumentController">
<polygon fill="white" stroke="black" points="1416,-329 1416,-363 1540,-363 1540,-329 1416,-329"/>
<text text-anchor="start" x="1424" y="-350" font-family="Helvetica,sans-Serif" font-size="10.00">UBDocumentController</text>
<text text-anchor="middle" x="1478" y="-337" font-family="Helvetica,sans-Serif" font-size="10.00">::UBDocumentController</text>
</a>
</g>
<!-- Node11&#45;&gt;Node12 -->
<g id="edge22" class="edge"><title>Node11&#45;&gt;Node12</title>
<path fill="none" stroke="midnightblue" d="M1348.2,-295.642C1375.4,-306.195 1408.11,-318.885 1433.89,-328.886"/>
<polygon fill="midnightblue" stroke="midnightblue" points="1349.42,-292.36 1338.83,-292.006 1346.89,-298.886 1349.42,-292.36"/>
</g>
<!-- Node14 -->
<g id="node27" class="node"><title>Node14</title>
<a xlink:href="../../da/d14/class_u_b_application_controller.html#a074e9435d9ab3aff5d05ab47e5a37e3e" target="_top" xlink:title="UBApplicationController\l::showDocument">
<polygon fill="white" stroke="black" points="854.5,-389 854.5,-423 975.5,-423 975.5,-389 854.5,-389"/>
<text text-anchor="start" x="862.5" y="-410" font-family="Helvetica,sans-Serif" font-size="10.00">UBApplicationController</text>
<text text-anchor="middle" x="915" y="-397" font-family="Helvetica,sans-Serif" font-size="10.00">::showDocument</text>
</a>
</g>
<!-- Node13&#45;&gt;Node14 -->
<g id="edge26" class="edge"><title>Node13&#45;&gt;Node14</title>
<path fill="none" stroke="midnightblue" d="M815.381,-406C828.353,-406 841.817,-406 854.494,-406"/>
<polygon fill="midnightblue" stroke="midnightblue" points="815.108,-402.5 805.108,-406 815.108,-409.5 815.108,-402.5"/>
</g>
<!-- Node15 -->
<g id="node29" class="node"><title>Node15</title>
<a xlink:href="../../d8/d81/class_u_b_application.html#aa7760534852820a497c88484745d8225" target="_top" xlink:title="UBApplication::showDocument">
<polygon fill="white" stroke="black" points="1020.5,-414.5 1020.5,-435.5 1173.5,-435.5 1173.5,-414.5 1020.5,-414.5"/>
<text text-anchor="middle" x="1097" y="-422.5" font-family="Helvetica,sans-Serif" font-size="10.00">UBApplication::showDocument</text>
</a>
</g>
<!-- Node14&#45;&gt;Node15 -->
<g id="edge28" class="edge"><title>Node14&#45;&gt;Node15</title>
<path fill="none" stroke="midnightblue" d="M985.876,-413.399C997.221,-414.583 1009,-415.814 1020.47,-417.011"/>
<polygon fill="midnightblue" stroke="midnightblue" points="985.913,-409.884 975.603,-412.327 985.186,-416.846 985.913,-409.884"/>
</g>
<!-- Node18 -->
<g id="node35" class="node"><title>Node18</title>
<a xlink:href="../../da/d14/class_u_b_application_controller.html#a59f95b747443497d344b8af0fd231cf4" target="_top" xlink:title="UBApplicationController\l::hideDesktop">
<polygon fill="white" stroke="black" points="1036.5,-362 1036.5,-396 1157.5,-396 1157.5,-362 1036.5,-362"/>
<text text-anchor="start" x="1044.5" y="-383" font-family="Helvetica,sans-Serif" font-size="10.00">UBApplicationController</text>
<text text-anchor="middle" x="1097" y="-370" font-family="Helvetica,sans-Serif" font-size="10.00">::hideDesktop</text>
</a>
</g>
<!-- Node14&#45;&gt;Node18 -->
<g id="edge34" class="edge"><title>Node14&#45;&gt;Node18</title>
<path fill="none" stroke="midnightblue" d="M985.846,-395.49C1002.53,-393.015 1020.16,-390.399 1036.35,-387.997"/>
<polygon fill="midnightblue" stroke="midnightblue" points="984.981,-392.08 975.603,-397.009 986.009,-399.004 984.981,-392.08"/>
</g>
<!-- Node20 -->
<g id="node39" class="node"><title>Node20</title>
<a xlink:href="../../d6/de0/class_u_b_document_controller.html#aad9558fb0462442c6e23bb30651b162b" target="_top" xlink:title="UBDocumentController\l::addFolderOfImages">
<polygon fill="white" stroke="black" points="1038,-258 1038,-292 1156,-292 1156,-258 1038,-258"/>
<text text-anchor="start" x="1046" y="-279" font-family="Helvetica,sans-Serif" font-size="10.00">UBDocumentController</text>
<text text-anchor="middle" x="1097" y="-266" font-family="Helvetica,sans-Serif" font-size="10.00">::addFolderOfImages</text>
</a>
</g>
<!-- Node14&#45;&gt;Node20 -->
<g id="edge38" class="edge"><title>Node14&#45;&gt;Node20</title>
<path fill="none" stroke="midnightblue" d="M973.211,-383.664C977.079,-381.053 980.73,-378.172 984,-375 1010.25,-349.536 992.547,-325.167 1020,-301 1025.3,-296.338 1031.46,-292.506 1037.95,-289.357"/>
<polygon fill="midnightblue" stroke="midnightblue" points="971.205,-380.788 964.459,-388.958 974.827,-386.777 971.205,-380.788"/>
</g>
<!-- Node21 -->
<g id="node42" class="node"><title>Node21</title>
<a xlink:href="../../d6/de0/class_u_b_document_controller.html#a4f74b1a30998b934b7836731f6193222" target="_top" xlink:title="UBDocumentController\l::addImages">
<polygon fill="white" stroke="black" points="1038,-310 1038,-344 1156,-344 1156,-310 1038,-310"/>
<text text-anchor="start" x="1046" y="-331" font-family="Helvetica,sans-Serif" font-size="10.00">UBDocumentController</text>
<text text-anchor="middle" x="1097" y="-318" font-family="Helvetica,sans-Serif" font-size="10.00">::addImages</text>
</a>
</g>
<!-- Node14&#45;&gt;Node21 -->
<g id="edge42" class="edge"><title>Node14&#45;&gt;Node21</title>
<path fill="none" stroke="midnightblue" d="M964.71,-384.576C971.26,-381.488 977.835,-378.252 984,-375 1000.59,-366.251 1003.01,-360.938 1020,-353 1026.78,-349.834 1034.05,-346.865 1041.31,-344.147"/>
<polygon fill="midnightblue" stroke="midnightblue" points="962.793,-381.605 955.183,-388.976 965.729,-387.96 962.793,-381.605"/>
</g>
<!-- Node16 -->
<g id="node31" class="node"><title>Node16</title>
<a xlink:href="../../d8/d81/class_u_b_application.html#add1469239e71bf24fdc61413a42a38bd" target="_top" xlink:title="UBApplication::exec">
<polygon fill="white" stroke="black" points="1242,-452.5 1242,-473.5 1348,-473.5 1348,-452.5 1242,-452.5"/>
<text text-anchor="middle" x="1295" y="-460.5" font-family="Helvetica,sans-Serif" font-size="10.00">UBApplication::exec</text>
</a>
</g>
<!-- Node15&#45;&gt;Node16 -->
<g id="edge30" class="edge"><title>Node15&#45;&gt;Node16</title>
<path fill="none" stroke="midnightblue" d="M1161.97,-437.47C1187.81,-442.428 1217.16,-448.062 1241.71,-452.773"/>
<polygon fill="midnightblue" stroke="midnightblue" points="1162.37,-433.982 1151.89,-435.535 1161.05,-440.857 1162.37,-433.982"/>
</g>
<!-- Node17 -->
<g id="node33" class="node"><title>Node17</title>
<a xlink:href="../../df/d0a/main_8cpp.html#a0ddf1224851353fc92bfbff6f499fa97" target="_top" xlink:title="main">
<polygon fill="white" stroke="black" points="1459,-452.5 1459,-473.5 1497,-473.5 1497,-452.5 1459,-452.5"/>
<text text-anchor="middle" x="1478" y="-460.5" font-family="Helvetica,sans-Serif" font-size="10.00">main</text>
</a>
</g>
<!-- Node16&#45;&gt;Node17 -->
<g id="edge32" class="edge"><title>Node16&#45;&gt;Node17</title>
<path fill="none" stroke="midnightblue" d="M1358.66,-463C1393.89,-463 1435.21,-463 1458.83,-463"/>
<polygon fill="midnightblue" stroke="midnightblue" points="1358.42,-459.5 1348.42,-463 1358.42,-466.5 1358.42,-459.5"/>
</g>
<!-- Node19 -->
<g id="node37" class="node"><title>Node19</title>
<a xlink:href="../../da/d14/class_u_b_application_controller.html#a9b13846d29481cee9b89b5177ff2b3f4" target="_top" xlink:title="UBApplicationController\l::UBApplicationController">
<polygon fill="white" stroke="black" points="1231.5,-362 1231.5,-396 1358.5,-396 1358.5,-362 1231.5,-362"/>
<text text-anchor="start" x="1239.5" y="-383" font-family="Helvetica,sans-Serif" font-size="10.00">UBApplicationController</text>
<text text-anchor="middle" x="1295" y="-370" font-family="Helvetica,sans-Serif" font-size="10.00">::UBApplicationController</text>
</a>
</g>
<!-- Node18&#45;&gt;Node19 -->
<g id="edge36" class="edge"><title>Node18&#45;&gt;Node19</title>
<path fill="none" stroke="midnightblue" d="M1167.76,-379C1188.49,-379 1211.02,-379 1231.28,-379"/>
<polygon fill="midnightblue" stroke="midnightblue" points="1167.75,-375.5 1157.75,-379 1167.75,-382.5 1167.75,-375.5"/>
</g>
<!-- Node20&#45;&gt;Node11 -->
<g id="edge40" class="edge"><title>Node20&#45;&gt;Node11</title>
<path fill="none" stroke="midnightblue" d="M1166.37,-275C1189.04,-275 1213.98,-275 1235.82,-275"/>
<polygon fill="midnightblue" stroke="midnightblue" points="1166.14,-271.5 1156.14,-275 1166.14,-278.5 1166.14,-271.5"/>
</g>
<!-- Node21&#45;&gt;Node11 -->
<g id="edge44" class="edge"><title>Node21&#45;&gt;Node11</title>
<path fill="none" stroke="midnightblue" d="M1166.07,-308.862C1188.81,-302.888 1213.88,-296.303 1235.82,-290.541"/>
<polygon fill="midnightblue" stroke="midnightblue" points="1164.92,-305.543 1156.14,-311.469 1166.7,-312.314 1164.92,-305.543"/>
</g>
<!-- Node24&#45;&gt;Node11 -->
<g id="edge52" class="edge"><title>Node24&#45;&gt;Node11</title>
<path fill="none" stroke="midnightblue" d="M972.832,-208.034C1026.06,-192.695 1106.72,-177.195 1174,-197 1214.28,-208.858 1253.8,-238.744 1276.22,-257.89"/>
<polygon fill="midnightblue" stroke="midnightblue" points="971.811,-204.686 963.221,-210.887 973.804,-211.396 971.811,-204.686"/>
</g>
<!-- Node25&#45;&gt;Node11 -->
<g id="edge56" class="edge"><title>Node25&#45;&gt;Node11</title>
<path fill="none" stroke="midnightblue" d="M1166.07,-241.138C1188.81,-247.112 1213.88,-253.697 1235.82,-259.459"/>
<polygon fill="midnightblue" stroke="midnightblue" points="1166.7,-237.686 1156.14,-238.531 1164.92,-244.457 1166.7,-237.686"/>
</g>
<!-- Node26&#45;&gt;Node12 -->
<g id="edge60" class="edge"><title>Node26&#45;&gt;Node12</title>
<path fill="none" stroke="midnightblue" d="M1345.46,-506.211C1357.48,-499.729 1369.78,-491.933 1380,-483 1401.3,-464.378 1446.39,-395.636 1467.14,-363.18"/>
<polygon fill="midnightblue" stroke="midnightblue" points="1343.63,-503.213 1336.35,-510.908 1346.84,-509.434 1343.63,-503.213"/>
</g>
<!-- Node27&#45;&gt;Node10 -->
<g id="edge70" class="edge"><title>Node27&#45;&gt;Node10</title>
<path fill="none" stroke="midnightblue" d="M640.844,-458C656.108,-458 672.058,-458 686.788,-458"/>
<polygon fill="midnightblue" stroke="midnightblue" points="640.409,-454.5 630.409,-458 640.409,-461.5 640.409,-454.5"/>
</g>
<!-- Node28 -->
<g id="node60" class="node"><title>Node28</title>
<a xlink:href="../../d0/dd5/class_u_b_persistence_manager.html#a0bd236690f1efa4fe856489914a3d92b" target="_top" xlink:title="UBPersistenceManager\l::createNewDocument">
<polygon fill="white" stroke="black" points="855,-486 855,-520 975,-520 975,-486 855,-486"/>
<text text-anchor="start" x="863" y="-507" font-family="Helvetica,sans-Serif" font-size="10.00">UBPersistenceManager</text>
<text text-anchor="middle" x="915" y="-494" font-family="Helvetica,sans-Serif" font-size="10.00">::createNewDocument</text>
</a>
</g>
<!-- Node27&#45;&gt;Node28 -->
<g id="edge64" class="edge"><title>Node27&#45;&gt;Node28</title>
<path fill="none" stroke="midnightblue" d="M640.189,-476.026C653.991,-479.053 668.393,-481.891 682,-484 740.355,-493.044 807.644,-497.945 854.86,-500.491"/>
<polygon fill="midnightblue" stroke="midnightblue" points="640.79,-472.574 630.266,-473.797 639.255,-479.404 640.79,-472.574"/>
</g>
<!-- Node29 -->
<g id="node62" class="node"><title>Node29</title>
<a xlink:href="../../d7/d62/class_u_b_board_controller.html#aa728cb7c1b979b2d4ae45638a7386dde" target="_top" xlink:title="UBBoardController::init">
<polygon fill="white" stroke="black" points="1038.5,-492.5 1038.5,-513.5 1155.5,-513.5 1155.5,-492.5 1038.5,-492.5"/>
<text text-anchor="middle" x="1097" y="-500.5" font-family="Helvetica,sans-Serif" font-size="10.00">UBBoardController::init</text>
</a>
</g>
<!-- Node28&#45;&gt;Node29 -->
<g id="edge66" class="edge"><title>Node28&#45;&gt;Node29</title>
<path fill="none" stroke="midnightblue" d="M985.253,-503C1002.75,-503 1021.33,-503 1038.2,-503"/>
<polygon fill="midnightblue" stroke="midnightblue" points="985.098,-499.5 975.098,-503 985.098,-506.5 985.098,-499.5"/>
</g>
<!-- Node29&#45;&gt;Node16 -->
<g id="edge68" class="edge"><title>Node29&#45;&gt;Node16</title>
<path fill="none" stroke="midnightblue" d="M1159.12,-490.45C1186.07,-485.005 1217.28,-478.701 1242.98,-473.509"/>
<polygon fill="midnightblue" stroke="midnightblue" points="1158.13,-487.08 1149.02,-492.49 1159.52,-493.941 1158.13,-487.08"/>
</g>
<!-- Node31 -->
<g id="node68" class="node"><title>Node31</title>
<a xlink:href="../../dd/d5a/class_u_b_document_tree_model.html#a686c9c2ec9bc7b6e6c7dda982f86367e" target="_top" xlink:title="UBDocumentTreeModel\l::moveIndex">
<polygon fill="white" stroke="black" points="508,-90 508,-124 630,-124 630,-90 508,-90"/>
<text text-anchor="start" x="516" y="-111" font-family="Helvetica,sans-Serif" font-size="10.00">UBDocumentTreeModel</text>
<text text-anchor="middle" x="569" y="-98" font-family="Helvetica,sans-Serif" font-size="10.00">::moveIndex</text>
</a>
</g>
<!-- Node30&#45;&gt;Node31 -->
<g id="edge74" class="edge"><title>Node30&#45;&gt;Node31</title>
<path fill="none" stroke="midnightblue" d="M466.31,-107C480.267,-107 494.576,-107 507.913,-107"/>
<polygon fill="midnightblue" stroke="midnightblue" points="466.229,-103.5 456.229,-107 466.229,-110.5 466.229,-103.5"/>
</g>
<!-- Node31&#45;&gt;Node32 -->
<g id="edge76" class="edge"><title>Node31&#45;&gt;Node32</title>
<path fill="none" stroke="midnightblue" d="M622.723,-86.0199C630.574,-82.7664 638.527,-79.366 646,-76 662.31,-68.6536 665.701,-65.372 682,-58 688.666,-54.9851 695.788,-51.9308 702.772,-49.027"/>
<polygon fill="midnightblue" stroke="midnightblue" points="621.165,-82.8757 613.236,-89.9034 623.817,-89.354 621.165,-82.8757"/>
</g>
<!-- Node33 -->
<g id="node72" class="node"><title>Node33</title>
<a xlink:href="../../d6/de0/class_u_b_document_controller.html#a585faed52b3ca1aa66bad2d0383eb026" target="_top" xlink:title="UBDocumentController\l::deleteSelectedItem">
<polygon fill="white" stroke="black" points="856,-67 856,-101 974,-101 974,-67 856,-67"/>
<text text-anchor="start" x="864" y="-88" font-family="Helvetica,sans-Serif" font-size="10.00">UBDocumentController</text>
<text text-anchor="middle" x="915" y="-75" font-family="Helvetica,sans-Serif" font-size="10.00">::deleteSelectedItem</text>
</a>
</g>
<!-- Node31&#45;&gt;Node33 -->
<g id="edge78" class="edge"><title>Node31&#45;&gt;Node33</title>
<path fill="none" stroke="midnightblue" d="M640.166,-112.855C688.293,-115.598 753.191,-116.929 810,-110 825.379,-108.124 841.751,-104.757 856.878,-101.055"/>
<polygon fill="midnightblue" stroke="midnightblue" points="640.352,-109.36 630.159,-112.251 639.93,-116.347 640.352,-109.36"/>
</g>
<!-- Node34 -->
<g id="node75" class="node"><title>Node34</title>
<a xlink:href="../../d6/de0/class_u_b_document_controller.html#a71e0a0bc3ee2521a969739fb6c420c92" target="_top" xlink:title="UBDocumentController\l::emptyFolder">
<polygon fill="white" stroke="black" points="687,-67 687,-101 805,-101 805,-67 687,-67"/>
<text text-anchor="start" x="695" y="-88" font-family="Helvetica,sans-Serif" font-size="10.00">UBDocumentController</text>
<text text-anchor="middle" x="746" y="-75" font-family="Helvetica,sans-Serif" font-size="10.00">::emptyFolder</text>
</a>
</g>
<!-- Node31&#45;&gt;Node34 -->
<g id="edge82" class="edge"><title>Node31&#45;&gt;Node34</title>
<path fill="none" stroke="midnightblue" d="M640.404,-97.7216C655.801,-95.7208 671.916,-93.6267 686.788,-91.6943"/>
<polygon fill="midnightblue" stroke="midnightblue" points="639.875,-94.2608 630.409,-99.0203 640.777,-101.202 639.875,-94.2608"/>
</g>
<!-- Node33&#45;&gt;Node11 -->
<g id="edge80" class="edge"><title>Node33&#45;&gt;Node11</title>
<path fill="none" stroke="midnightblue" d="M970,-104.688C974.736,-106.481 979.453,-108.27 984,-110 1068.55,-142.171 1094.98,-138.961 1174,-183 1212.96,-204.711 1253.21,-237.851 1276.07,-257.868"/>
<polygon fill="midnightblue" stroke="midnightblue" points="970.889,-101.282 960.297,-101.021 968.414,-107.83 970.889,-101.282"/>
</g>
<!-- Node34&#45;&gt;Node33 -->
<g id="edge84" class="edge"><title>Node34&#45;&gt;Node33</title>
<path fill="none" stroke="midnightblue" d="M815.294,-84C828.782,-84 842.805,-84 855.925,-84"/>
<polygon fill="midnightblue" stroke="midnightblue" points="815.108,-80.5001 805.108,-84 815.108,-87.5001 815.108,-80.5001"/>
</g>
</g>
</svg>
        <g id="navigator" transform="translate(0 0)" fill="#404254">
                <rect fill="#f2f5e9" fill-opacity="0.5" stroke="#606060" stroke-width=".5" x="0" y="0" width="60" height="60"/>
                <use id="zoomplus" xlink:href="#zoomPlus" x="17" y="9" onmousedown="handleZoom(evt,'in')"/>
                <use id="zoomminus" xlink:href="#zoomMin" x="42" y="9" onmousedown="handleZoom(evt,'out')"/>
                <use id="reset" xlink:href="#resetDef" x="30" y="36" onmousedown="handleReset()"/>
                <g id="arrowUp" xlink:href="#dirArrow" transform="translate(30 24)" onmousedown="handlePan(0,-1)">
                  <use xlink:href="#rim" fill="#404040">
                        <set attributeName="fill" to="#808080" begin="arrowUp.mouseover" end="arrowUp.mouseout"/>
                  </use>
                  <path fill="none" stroke="white" stroke-width="1.5" d="M0,-3.0v7 M-2.5,-0.5L0,-3.0L2.5,-0.5"/>
                </g>
                <g id="arrowRight" xlink:href="#dirArrow" transform="rotate(90) translate(36 -43)" onmousedown="handlePan(1,0)">
                  <use xlink:href="#rim" fill="#404040">
                        <set attributeName="fill" to="#808080" begin="arrowRight.mouseover" end="arrowRight.mouseout"/>
                  </use>
                  <path fill="none" stroke="white" stroke-width="1.5" d="M0,-3.0v7 M-2.5,-0.5L0,-3.0L2.5,-0.5"/>
                </g>
                <g id="arrowDown" xlink:href="#dirArrow" transform="rotate(180) translate(-30 -48)" onmousedown="handlePan(0,1)">
                  <use xlink:href="#rim" fill="#404040">
                        <set attributeName="fill" to="#808080" begin="arrowDown.mouseover" end="arrowDown.mouseout"/>
                  </use>
                  <path fill="none" stroke="white" stroke-width="1.5" d="M0,-3.0v7 M-2.5,-0.5L0,-3.0L2.5,-0.5"/>
                </g>
                <g id="arrowLeft" xlink:href="#dirArrow" transform="rotate(270) translate(-36 17)" onmousedown="handlePan(-1,0)">
                  <use xlink:href="#rim" fill="#404040">
                        <set attributeName="fill" to="#808080" begin="arrowLeft.mouseover" end="arrowLeft.mouseout"/>
                  </use>
                  <path fill="none" stroke="white" stroke-width="1.5" d="M0,-3.0v7 M-2.5,-0.5L0,-3.0L2.5,-0.5"/>
                </g>
        </g>
        <svg viewBox="0 0 15 15" width="100%" height="30px" preserveAspectRatio="xMaxYMin meet">
         <g id="arrow_out" transform="scale(0.3 0.3)">
          <a xlink:href="class_u_b_document_tree_model_a5bb42dc851a997d8e4226878c9e275c7_icgraph_org.svg" target="_base">
           <rect id="button" ry="5" rx="5" y="6" x="6" height="38" width="38"
                fill="#f2f5e9" fill-opacity="0.5" stroke="#606060" stroke-width="1.0"/>
           <path id="arrow"
             d="M 11.500037,31.436501 C 11.940474,20.09759 22.043105,11.32322 32.158766,21.979434 L 37.068811,17.246167 C 37.068811,17.246167 37.088388,32 37.088388,32 L 22.160133,31.978069 C 22.160133,31.978069 26.997745,27.140456 26.997745,27.140456 C 18.528582,18.264221 13.291696,25.230495 11.500037,31.436501 z"
             style="fill:#404040;"/>
          </a>
         </g>
        </svg>
</svg>
