<?xml version="1.0" encoding="UTF-8" standalone="no"?>
<!DOCTYPE svg PUBLIC "-//W3C//DTD SVG 1.1//EN"
 "http://www.w3.org/Graphics/SVG/1.1/DTD/svg11.dtd">
<!-- Generated by graphviz version 2.26.3 (20100126.1600)
 -->
<!-- Title: UBDocumentTreeModel::indexForProxy Pages: 1 -->
<!--zoomable 260 -->
<svg id="main" version="1.1" xmlns="http://www.w3.org/2000/svg" xmlns:xlink="http://www.w3.org/1999/xlink" xml:space="preserve" onload="init(evt)">
        <defs>
                <circle id="rim" cx="0" cy="0" r="7"/>
                <circle id="rim2" cx="0" cy="0" r="3.5"/>
                <g id="zoomPlus">
                        <use xlink:href="#rim" fill="#404040">
                                <set attributeName="fill" to="#808080" begin="zoomplus.mouseover" end="zoomplus.mouseout"/>
                        </use>
                        <path d="M-4,0h8M0,-4v8" fill="none" stroke="white" stroke-width="1.5" pointer-events="none"/>
                </g>
                <g id="zoomMin">
                        <use xlink:href="#rim" fill="#404040">
                                <set attributeName="fill" to="#808080" begin="zoomminus.mouseover" end="zoomminus.mouseout"/>
                        </use>
                        <path d="M-4,0h8" fill="none" stroke="white" stroke-width="1.5" pointer-events="none"/>
                </g>
                <g id="dirArrow">
                        <path fill="none" stroke="white" stroke-width="1.5" d="M0,-3.0v7 M-2.5,-0.5L0,-3.0L2.5,-0.5"/>
                </g>
               <g id="resetDef">
                       <use xlink:href="#rim2" fill="#404040">
                               <set attributeName="fill" to="#808080" begin="reset.mouseover" end="reset.mouseout"/>
                       </use>
               </g>
        </defs>

<script type="text/javascript">
var viewWidth = 1080;
var viewHeight = 260;
var sectionId = 'dynsection-23';
</script>
<script xlink:href="../../svgpan.js"/>
<svg id="graph" class="graph">
<g id="viewport">
<title>UBDocumentTreeModel::indexForProxy</title>
<polygon fill="white" stroke="white" points="-4,5 -4,-256 1077,-256 1077,5 -4,5"/>
<!-- Node1 -->
<g id="node1" class="node"><title>Node1</title>
<polygon fill="#bfbfbf" stroke="black" points="0,-130 0,-164 122,-164 122,-130 0,-130"/>
<text text-anchor="start" x="8" y="-151" font-family="Helvetica,sans-Serif" font-size="10.00">UBDocumentTreeModel</text>
<text text-anchor="middle" x="61" y="-138" font-family="Helvetica,sans-Serif" font-size="10.00">::indexForProxy</text>
</g>
<!-- Node2 -->
<g id="node3" class="node"><title>Node2</title>
<a xlink:href="../../dc/d05/class_u_b_export_document_set_adaptor.html#af3a78eb86e3071bd91924e8d056a0823" target="_top" xlink:title="UBExportDocumentSetAdaptor\l::persist">
<polygon fill="white" stroke="black" points="158.5,-182 158.5,-216 311.5,-216 311.5,-182 158.5,-182"/>
<text text-anchor="start" x="166.5" y="-203" font-family="Helvetica,sans-Serif" font-size="10.00">UBExportDocumentSetAdaptor</text>
<text text-anchor="middle" x="235" y="-190" font-family="Helvetica,sans-Serif" font-size="10.00">::persist</text>
</a>
</g>
<!-- Node1&#45;&gt;Node2 -->
<g id="edge2" class="edge"><title>Node1&#45;&gt;Node2</title>
<path fill="none" stroke="midnightblue" d="M127.598,-166.903C144.183,-171.859 161.816,-177.129 177.898,-181.935"/>
<polygon fill="midnightblue" stroke="midnightblue" points="128.558,-163.537 117.974,-164.027 126.553,-170.244 128.558,-163.537"/>
</g>
<!-- Node3 -->
<g id="node5" class="node"><title>Node3</title>
<a xlink:href="../../d6/de0/class_u_b_document_controller.html#ab4fa92eecfbd5ba3493bf7892cdd8ae0" target="_top" xlink:title="UBDocumentController\l::selectDocument">
<polygon fill="white" stroke="black" points="176,-130 176,-164 294,-164 294,-130 176,-130"/>
<text text-anchor="start" x="184" y="-151" font-family="Helvetica,sans-Serif" font-size="10.00">UBDocumentController</text>
<text text-anchor="middle" x="235" y="-138" font-family="Helvetica,sans-Serif" font-size="10.00">::selectDocument</text>
</a>
</g>
<!-- Node1&#45;&gt;Node3 -->
<g id="edge4" class="edge"><title>Node1&#45;&gt;Node3</title>
<path fill="none" stroke="midnightblue" d="M132.7,-147C147.091,-147 162.059,-147 175.961,-147"/>
<polygon fill="midnightblue" stroke="midnightblue" points="132.346,-143.5 122.346,-147 132.346,-150.5 132.346,-143.5"/>
</g>
<!-- Node18 -->
<g id="node36" class="node"><title>Node18</title>
<a xlink:href="../../dd/d5a/class_u_b_document_tree_model.html#a52f01503640b7e55146e197b91f8068e" target="_top" xlink:title="UBDocumentTreeModel\l::markDocumentAsNew">
<polygon fill="white" stroke="black" points="174,-78 174,-112 296,-112 296,-78 174,-78"/>
<text text-anchor="start" x="182" y="-99" font-family="Helvetica,sans-Serif" font-size="10.00">UBDocumentTreeModel</text>
<text text-anchor="middle" x="235" y="-86" font-family="Helvetica,sans-Serif" font-size="10.00">::markDocumentAsNew</text>
</a>
</g>
<!-- Node1&#45;&gt;Node18 -->
<g id="edge36" class="edge"><title>Node1&#45;&gt;Node18</title>
<path fill="none" stroke="midnightblue" d="M127.598,-127.097C144.183,-122.141 161.816,-116.871 177.898,-112.065"/>
<polygon fill="midnightblue" stroke="midnightblue" points="126.553,-123.756 117.974,-129.973 128.558,-130.463 126.553,-123.756"/>
</g>
<!-- Node4 -->
<g id="node7" class="node"><title>Node4</title>
<a xlink:href="../../da/d14/class_u_b_application_controller.html#a37354fade87a383adbda6d60acd26caa" target="_top" xlink:title="UBApplicationController\l::importFile">
<polygon fill="white" stroke="black" points="348.5,-52 348.5,-86 469.5,-86 469.5,-52 348.5,-52"/>
<text text-anchor="start" x="356.5" y="-73" font-family="Helvetica,sans-Serif" font-size="10.00">UBApplicationController</text>
<text text-anchor="middle" x="409" y="-60" font-family="Helvetica,sans-Serif" font-size="10.00">::importFile</text>
</a>
</g>
<!-- Node3&#45;&gt;Node4 -->
<g id="edge6" class="edge"><title>Node3&#45;&gt;Node4</title>
<path fill="none" stroke="midnightblue" d="M301.656,-125.917C305.199,-124.356 308.668,-122.716 312,-121 329.546,-111.964 330.816,-104.707 348,-95 353.613,-91.8292 359.689,-88.8015 365.758,-86.006"/>
<polygon fill="midnightblue" stroke="midnightblue" points="300.045,-122.795 292.152,-129.862 302.729,-129.26 300.045,-122.795"/>
</g>
<!-- Node7 -->
<g id="node13" class="node"><title>Node7</title>
<a xlink:href="../../d6/de0/class_u_b_document_controller.html#a367127ee254faeb89b4a229e958f6072" target="_top" xlink:title="UBDocumentController\l::createNewDocument">
<polygon fill="white" stroke="black" points="350,-104 350,-138 468,-138 468,-104 350,-104"/>
<text text-anchor="start" x="358" y="-125" font-family="Helvetica,sans-Serif" font-size="10.00">UBDocumentController</text>
<text text-anchor="middle" x="409" y="-112" font-family="Helvetica,sans-Serif" font-size="10.00">::createNewDocument</text>
</a>
</g>
<!-- Node3&#45;&gt;Node7 -->
<g id="edge12" class="edge"><title>Node3&#45;&gt;Node7</title>
<path fill="none" stroke="midnightblue" d="M304.634,-136.595C319.623,-134.355 335.329,-132.008 349.873,-129.835"/>
<polygon fill="midnightblue" stroke="midnightblue" points="303.767,-133.185 294.394,-138.125 304.802,-140.109 303.767,-133.185"/>
</g>
<!-- Node10 -->
<g id="node19" class="node"><title>Node10</title>
<a xlink:href="../../d6/de0/class_u_b_document_controller.html#a515c0abd53c46d51464ebca366e757fc" target="_top" xlink:title="UBDocumentController\l::show">
<polygon fill="white" stroke="black" points="350,-208 350,-242 468,-242 468,-208 350,-208"/>
<text text-anchor="start" x="358" y="-229" font-family="Helvetica,sans-Serif" font-size="10.00">UBDocumentController</text>
<text text-anchor="middle" x="409" y="-216" font-family="Helvetica,sans-Serif" font-size="10.00">::show</text>
</a>
</g>
<!-- Node3&#45;&gt;Node10 -->
<g id="edge18" class="edge"><title>Node3&#45;&gt;Node10</title>
<path fill="none" stroke="midnightblue" d="M301.656,-168.083C305.199,-169.644 308.668,-171.284 312,-173 329.546,-182.036 330.816,-189.293 348,-199 353.613,-202.171 359.689,-205.198 365.758,-207.994"/>
<polygon fill="midnightblue" stroke="midnightblue" points="302.729,-164.74 292.152,-164.138 300.045,-171.205 302.729,-164.74"/>
</g>
<!-- Node17 -->
<g id="node33" class="node"><title>Node17</title>
<a xlink:href="../../d6/de0/class_u_b_document_controller.html#af5065d414f3ca99eee1d7c21930bde29" target="_top" xlink:title="UBDocumentController\l::importFile">
<polygon fill="white" stroke="black" points="350,-156 350,-190 468,-190 468,-156 350,-156"/>
<text text-anchor="start" x="358" y="-177" font-family="Helvetica,sans-Serif" font-size="10.00">UBDocumentController</text>
<text text-anchor="middle" x="409" y="-164" font-family="Helvetica,sans-Serif" font-size="10.00">::importFile</text>
</a>
</g>
<!-- Node3&#45;&gt;Node17 -->
<g id="edge32" class="edge"><title>Node3&#45;&gt;Node17</title>
<path fill="none" stroke="midnightblue" d="M304.634,-157.405C319.623,-159.645 335.329,-161.992 349.873,-164.165"/>
<polygon fill="midnightblue" stroke="midnightblue" points="304.802,-153.891 294.394,-155.875 303.767,-160.815 304.802,-153.891"/>
</g>
<!-- Node5 -->
<g id="node9" class="node"><title>Node5</title>
<a xlink:href="../../d8/d81/class_u_b_application.html#ace44514d00d196ed5976552dedf9c070" target="_top" xlink:title="UBApplication::eventFilter">
<polygon fill="white" stroke="black" points="509.5,-45.5 509.5,-66.5 640.5,-66.5 640.5,-45.5 509.5,-45.5"/>
<text text-anchor="middle" x="575" y="-53.5" font-family="Helvetica,sans-Serif" font-size="10.00">UBApplication::eventFilter</text>
</a>
</g>
<!-- Node4&#45;&gt;Node5 -->
<g id="edge8" class="edge"><title>Node4&#45;&gt;Node5</title>
<path fill="none" stroke="midnightblue" d="M479.947,-63.4439C489.718,-62.6787 499.717,-61.8956 509.387,-61.1384"/>
<polygon fill="midnightblue" stroke="midnightblue" points="479.566,-59.9629 469.87,-64.2331 480.112,-66.9416 479.566,-59.9629"/>
</g>
<!-- Node6 -->
<g id="node11" class="node"><title>Node6</title>
<a xlink:href="../../d8/d81/class_u_b_application.html#adf778486cf90f2d7d5ac3b98a56430b7" target="_top" xlink:title="UBApplication::handleOpen\lMessage">
<polygon fill="white" stroke="black" points="506.5,-85 506.5,-119 643.5,-119 643.5,-85 506.5,-85"/>
<text text-anchor="start" x="514.5" y="-106" font-family="Helvetica,sans-Serif" font-size="10.00">UBApplication::handleOpen</text>
<text text-anchor="middle" x="575" y="-93" font-family="Helvetica,sans-Serif" font-size="10.00">Message</text>
</a>
</g>
<!-- Node4&#45;&gt;Node6 -->
<g id="edge10" class="edge"><title>Node4&#45;&gt;Node6</title>
<path fill="none" stroke="midnightblue" d="M479.709,-83.0567C488.515,-84.8071 497.509,-86.5951 506.283,-88.3394"/>
<polygon fill="midnightblue" stroke="midnightblue" points="480.36,-79.6176 469.87,-81.1006 478.995,-86.4833 480.36,-79.6176"/>
</g>
<!-- Node8 -->
<g id="node15" class="node"><title>Node8</title>
<a xlink:href="../../d6/de0/class_u_b_document_controller.html#abb172787a34a34cd3c2df0a1b46918c5" target="_top" xlink:title="UBDocumentController\l::setupViews">
<polygon fill="white" stroke="black" points="516,-137 516,-171 634,-171 634,-137 516,-137"/>
<text text-anchor="start" x="524" y="-158" font-family="Helvetica,sans-Serif" font-size="10.00">UBDocumentController</text>
<text text-anchor="middle" x="575" y="-145" font-family="Helvetica,sans-Serif" font-size="10.00">::setupViews</text>
</a>
</g>
<!-- Node7&#45;&gt;Node8 -->
<g id="edge14" class="edge"><title>Node7&#45;&gt;Node8</title>
<path fill="none" stroke="midnightblue" d="M478.369,-134.79C490.866,-137.274 503.786,-139.843 515.954,-142.262"/>
<polygon fill="midnightblue" stroke="midnightblue" points="478.951,-131.338 468.461,-132.821 477.587,-138.203 478.951,-131.338"/>
</g>
<!-- Node9 -->
<g id="node17" class="node"><title>Node9</title>
<a xlink:href="../../d6/de0/class_u_b_document_controller.html#a38e9ea0a2dad2b1c8d9588563e9ee3bf" target="_top" xlink:title="UBDocumentController\l::UBDocumentController">
<polygon fill="white" stroke="black" points="695,-126 695,-160 819,-160 819,-126 695,-126"/>
<text text-anchor="start" x="703" y="-147" font-family="Helvetica,sans-Serif" font-size="10.00">UBDocumentController</text>
<text text-anchor="middle" x="757" y="-134" font-family="Helvetica,sans-Serif" font-size="10.00">::UBDocumentController</text>
</a>
</g>
<!-- Node8&#45;&gt;Node9 -->
<g id="edge16" class="edge"><title>Node8&#45;&gt;Node9</title>
<path fill="none" stroke="midnightblue" d="M644.273,-149.813C660.875,-148.81 678.502,-147.744 694.763,-146.762"/>
<polygon fill="midnightblue" stroke="midnightblue" points="643.861,-146.332 634.09,-150.429 644.283,-153.319 643.861,-146.332"/>
</g>
<!-- Node11 -->
<g id="node21" class="node"><title>Node11</title>
<a xlink:href="../../da/d14/class_u_b_application_controller.html#a074e9435d9ab3aff5d05ab47e5a37e3e" target="_top" xlink:title="UBApplicationController\l::showDocument">
<polygon fill="white" stroke="black" points="514.5,-208 514.5,-242 635.5,-242 635.5,-208 514.5,-208"/>
<text text-anchor="start" x="522.5" y="-229" font-family="Helvetica,sans-Serif" font-size="10.00">UBApplicationController</text>
<text text-anchor="middle" x="575" y="-216" font-family="Helvetica,sans-Serif" font-size="10.00">::showDocument</text>
</a>
</g>
<!-- Node10&#45;&gt;Node11 -->
<g id="edge20" class="edge"><title>Node10&#45;&gt;Node11</title>
<path fill="none" stroke="midnightblue" d="M478.723,-225C490.536,-225 502.718,-225 514.277,-225"/>
<polygon fill="midnightblue" stroke="midnightblue" points="478.461,-221.5 468.461,-225 478.461,-228.5 478.461,-221.5"/>
</g>
<!-- Node12 -->
<g id="node23" class="node"><title>Node12</title>
<a xlink:href="../../d8/d81/class_u_b_application.html#aa7760534852820a497c88484745d8225" target="_top" xlink:title="UBApplication::showDocument">
<polygon fill="white" stroke="black" points="680.5,-178.5 680.5,-199.5 833.5,-199.5 833.5,-178.5 680.5,-178.5"/>
<text text-anchor="middle" x="757" y="-186.5" font-family="Helvetica,sans-Serif" font-size="10.00">UBApplication::showDocument</text>
</a>
</g>
<!-- Node11&#45;&gt;Node12 -->
<g id="edge22" class="edge"><title>Node11&#45;&gt;Node12</title>
<path fill="none" stroke="midnightblue" d="M645.569,-211.041C664.89,-207.219 685.507,-203.141 703.687,-199.545"/>
<polygon fill="midnightblue" stroke="midnightblue" points="644.734,-207.639 635.603,-213.013 646.092,-214.505 644.734,-207.639"/>
</g>
<!-- Node15 -->
<g id="node29" class="node"><title>Node15</title>
<a xlink:href="../../da/d14/class_u_b_application_controller.html#a59f95b747443497d344b8af0fd231cf4" target="_top" xlink:title="UBApplicationController\l::hideDesktop">
<polygon fill="white" stroke="black" points="696.5,-218 696.5,-252 817.5,-252 817.5,-218 696.5,-218"/>
<text text-anchor="start" x="704.5" y="-239" font-family="Helvetica,sans-Serif" font-size="10.00">UBApplicationController</text>
<text text-anchor="middle" x="757" y="-226" font-family="Helvetica,sans-Serif" font-size="10.00">::hideDesktop</text>
</a>
</g>
<!-- Node11&#45;&gt;Node15 -->
<g id="edge28" class="edge"><title>Node11&#45;&gt;Node15</title>
<path fill="none" stroke="midnightblue" d="M645.846,-228.893C662.529,-229.809 680.164,-230.778 696.351,-231.668"/>
<polygon fill="midnightblue" stroke="midnightblue" points="645.78,-225.384 635.603,-228.33 645.396,-232.373 645.78,-225.384"/>
</g>
<!-- Node13 -->
<g id="node25" class="node"><title>Node13</title>
<a xlink:href="../../d8/d81/class_u_b_application.html#add1469239e71bf24fdc61413a42a38bd" target="_top" xlink:title="UBApplication::exec">
<polygon fill="white" stroke="black" points="881,-115.5 881,-136.5 987,-136.5 987,-115.5 881,-115.5"/>
<text text-anchor="middle" x="934" y="-123.5" font-family="Helvetica,sans-Serif" font-size="10.00">UBApplication::exec</text>
</a>
</g>
<!-- Node12&#45;&gt;Node13 -->
<g id="edge24" class="edge"><title>Node12&#45;&gt;Node13</title>
<path fill="none" stroke="midnightblue" d="M812.428,-175.686C819.734,-173.615 827.083,-171.37 834,-169 861.532,-159.566 892.127,-145.922 912.137,-136.546"/>
<polygon fill="midnightblue" stroke="midnightblue" points="811.255,-172.378 802.536,-178.396 813.105,-179.129 811.255,-172.378"/>
</g>
<!-- Node14 -->
<g id="node27" class="node"><title>Node14</title>
<a xlink:href="../../df/d0a/main_8cpp.html#a0ddf1224851353fc92bfbff6f499fa97" target="_top" xlink:title="main">
<polygon fill="white" stroke="black" points="1034,-115.5 1034,-136.5 1072,-136.5 1072,-115.5 1034,-115.5"/>
<text text-anchor="middle" x="1053" y="-123.5" font-family="Helvetica,sans-Serif" font-size="10.00">main</text>
</a>
</g>
<!-- Node13&#45;&gt;Node14 -->
<g id="edge26" class="edge"><title>Node13&#45;&gt;Node14</title>
<path fill="none" stroke="midnightblue" d="M997.379,-126C1010.64,-126 1023.63,-126 1033.73,-126"/>
<polygon fill="midnightblue" stroke="midnightblue" points="997.235,-122.5 987.235,-126 997.235,-129.5 997.235,-122.5"/>
</g>
<!-- Node16 -->
<g id="node31" class="node"><title>Node16</title>
<a xlink:href="../../da/d14/class_u_b_application_controller.html#a9b13846d29481cee9b89b5177ff2b3f4" target="_top" xlink:title="UBApplicationController\l::UBApplicationController">
<polygon fill="white" stroke="black" points="870.5,-218 870.5,-252 997.5,-252 997.5,-218 870.5,-218"/>
<text text-anchor="start" x="878.5" y="-239" font-family="Helvetica,sans-Serif" font-size="10.00">UBApplicationController</text>
<text text-anchor="middle" x="934" y="-226" font-family="Helvetica,sans-Serif" font-size="10.00">::UBApplicationController</text>
</a>
</g>
<!-- Node15&#45;&gt;Node16 -->
<g id="edge30" class="edge"><title>Node15&#45;&gt;Node16</title>
<path fill="none" stroke="midnightblue" d="M827.965,-235C841.946,-235 856.536,-235 870.261,-235"/>
<polygon fill="midnightblue" stroke="midnightblue" points="827.913,-231.5 817.913,-235 827.913,-238.5 827.913,-231.5"/>
</g>
<!-- Node17&#45;&gt;Node8 -->
<g id="edge34" class="edge"><title>Node17&#45;&gt;Node8</title>
<path fill="none" stroke="midnightblue" d="M478.741,-165.018C491.121,-163.601 503.906,-162.137 515.954,-160.758"/>
<polygon fill="midnightblue" stroke="midnightblue" points="477.998,-161.58 468.461,-166.194 478.794,-168.534 477.998,-161.58"/>
</g>
<!-- Node18&#45;&gt;Node7 -->
<g id="edge44" class="edge"><title>Node18&#45;&gt;Node7</title>
<path fill="none" stroke="midnightblue" d="M306.281,-105.651C320.8,-107.821 335.924,-110.081 349.961,-112.178"/>
<polygon fill="midnightblue" stroke="midnightblue" points="306.753,-102.183 296.346,-104.167 305.719,-109.106 306.753,-102.183"/>
</g>
<!-- Node19 -->
<g id="node38" class="node"><title>Node19</title>
<a xlink:href="../../d0/dd5/class_u_b_persistence_manager.html#a0bd236690f1efa4fe856489914a3d92b" target="_top" xlink:title="UBPersistenceManager\l::createNewDocument">
<polygon fill="white" stroke="black" points="349,-0 349,-34 469,-34 469,-0 349,-0"/>
<text text-anchor="start" x="357" y="-21" font-family="Helvetica,sans-Serif" font-size="10.00">UBPersistenceManager</text>
<text text-anchor="middle" x="409" y="-8" font-family="Helvetica,sans-Serif" font-size="10.00">::createNewDocument</text>
</a>
</g>
<!-- Node18&#45;&gt;Node19 -->
<g id="edge38" class="edge"><title>Node18&#45;&gt;Node19</title>
<path fill="none" stroke="midnightblue" d="M280.41,-73.7471C300.984,-64.2096 325.656,-52.9006 348,-43 354.631,-40.0619 361.692,-36.9953 368.571,-34.0413"/>
<polygon fill="midnightblue" stroke="midnightblue" points="278.863,-70.6063 271.268,-77.9931 281.812,-76.955 278.863,-70.6063"/>
</g>
<!-- Node20 -->
<g id="node40" class="node"><title>Node20</title>
<a xlink:href="../../d7/d62/class_u_b_board_controller.html#aa728cb7c1b979b2d4ae45638a7386dde" target="_top" xlink:title="UBBoardController::init">
<polygon fill="white" stroke="black" points="698.5,-51.5 698.5,-72.5 815.5,-72.5 815.5,-51.5 698.5,-51.5"/>
<text text-anchor="middle" x="757" y="-59.5" font-family="Helvetica,sans-Serif" font-size="10.00">UBBoardController::init</text>
</a>
</g>
<!-- Node19&#45;&gt;Node20 -->
<g id="edge40" class="edge"><title>Node19&#45;&gt;Node20</title>
<path fill="none" stroke="midnightblue" d="M479.215,-20.002C526.084,-22.6613 588.979,-27.4921 644,-36 668.768,-39.8299 696.172,-46.084 717.789,-51.4986"/>
<polygon fill="midnightblue" stroke="midnightblue" points="479.343,-16.5038 469.166,-19.4511 478.959,-23.4933 479.343,-16.5038"/>
</g>
<!-- Node20&#45;&gt;Node13 -->
<g id="edge42" class="edge"><title>Node20&#45;&gt;Node13</title>
<path fill="none" stroke="midnightblue" d="M795.948,-76.083C828.764,-87.9486 874.992,-104.664 904.729,-115.416"/>
<polygon fill="midnightblue" stroke="midnightblue" points="796.822,-72.6773 786.228,-72.5683 794.442,-79.2602 796.822,-72.6773"/>
</g>
</g>
</svg>
        <g id="navigator" transform="translate(0 0)" fill="#404254">
                <rect fill="#f2f5e9" fill-opacity="0.5" stroke="#606060" stroke-width=".5" x="0" y="0" width="60" height="60"/>
                <use id="zoomplus" xlink:href="#zoomPlus" x="17" y="9" onmousedown="handleZoom(evt,'in')"/>
                <use id="zoomminus" xlink:href="#zoomMin" x="42" y="9" onmousedown="handleZoom(evt,'out')"/>
                <use id="reset" xlink:href="#resetDef" x="30" y="36" onmousedown="handleReset()"/>
                <g id="arrowUp" xlink:href="#dirArrow" transform="translate(30 24)" onmousedown="handlePan(0,-1)">
                  <use xlink:href="#rim" fill="#404040">
                        <set attributeName="fill" to="#808080" begin="arrowUp.mouseover" end="arrowUp.mouseout"/>
                  </use>
                  <path fill="none" stroke="white" stroke-width="1.5" d="M0,-3.0v7 M-2.5,-0.5L0,-3.0L2.5,-0.5"/>
                </g>
                <g id="arrowRight" xlink:href="#dirArrow" transform="rotate(90) translate(36 -43)" onmousedown="handlePan(1,0)">
                  <use xlink:href="#rim" fill="#404040">
                        <set attributeName="fill" to="#808080" begin="arrowRight.mouseover" end="arrowRight.mouseout"/>
                  </use>
                  <path fill="none" stroke="white" stroke-width="1.5" d="M0,-3.0v7 M-2.5,-0.5L0,-3.0L2.5,-0.5"/>
                </g>
                <g id="arrowDown" xlink:href="#dirArrow" transform="rotate(180) translate(-30 -48)" onmousedown="handlePan(0,1)">
                  <use xlink:href="#rim" fill="#404040">
                        <set attributeName="fill" to="#808080" begin="arrowDown.mouseover" end="arrowDown.mouseout"/>
                  </use>
                  <path fill="none" stroke="white" stroke-width="1.5" d="M0,-3.0v7 M-2.5,-0.5L0,-3.0L2.5,-0.5"/>
                </g>
                <g id="arrowLeft" xlink:href="#dirArrow" transform="rotate(270) translate(-36 17)" onmousedown="handlePan(-1,0)">
                  <use xlink:href="#rim" fill="#404040">
                        <set attributeName="fill" to="#808080" begin="arrowLeft.mouseover" end="arrowLeft.mouseout"/>
                  </use>
                  <path fill="none" stroke="white" stroke-width="1.5" d="M0,-3.0v7 M-2.5,-0.5L0,-3.0L2.5,-0.5"/>
                </g>
        </g>
        <svg viewBox="0 0 15 15" width="100%" height="30px" preserveAspectRatio="xMaxYMin meet">
         <g id="arrow_out" transform="scale(0.3 0.3)">
          <a xlink:href="class_u_b_document_tree_model_aa36062512a401087594dddb607af8050_icgraph_org.svg" target="_base">
           <rect id="button" ry="5" rx="5" y="6" x="6" height="38" width="38"
                fill="#f2f5e9" fill-opacity="0.5" stroke="#606060" stroke-width="1.0"/>
           <path id="arrow"
             d="M 11.500037,31.436501 C 11.940474,20.09759 22.043105,11.32322 32.158766,21.979434 L 37.068811,17.246167 C 37.068811,17.246167 37.088388,32 37.088388,32 L 22.160133,31.978069 C 22.160133,31.978069 26.997745,27.140456 26.997745,27.140456 C 18.528582,18.264221 13.291696,25.230495 11.500037,31.436501 z"
             style="fill:#404040;"/>
          </a>
         </g>
        </svg>
</svg>
