<?xml version="1.0" encoding="UTF-8" standalone="no"?>
<!DOCTYPE svg PUBLIC "-//W3C//DTD SVG 1.1//EN"
 "http://www.w3.org/Graphics/SVG/1.1/DTD/svg11.dtd">
<!-- Generated by graphviz version 2.26.3 (20100126.1600)
 -->
<!-- Title: UBDownloadWidget::addPendingDownloads Pages: 1 -->
<svg width="2054pt" height="709pt"
 viewBox="0.00 0.00 2054.00 709.00" xmlns="http://www.w3.org/2000/svg" xmlns:xlink="http://www.w3.org/1999/xlink">
<g id="graph1" class="graph" transform="scale(1 1) rotate(0) translate(4 705)">
<title>UBDownloadWidget::addPendingDownloads</title>
<polygon fill="white" stroke="white" points="-4,5 -4,-705 2051,-705 2051,5 -4,5"/>
<!-- Node1 -->
<g id="node1" class="node"><title>Node1</title>
<polygon fill="#bfbfbf" stroke="black" points="0,-174 0,-208 162,-208 162,-174 0,-174"/>
<text text-anchor="start" x="8" y="-195" font-family="Helvetica,sans-Serif" font-size="10.00">UBDownloadWidget::addPending</text>
<text text-anchor="middle" x="81" y="-182" font-family="Helvetica,sans-Serif" font-size="10.00">Downloads</text>
</g>
<!-- Node2 -->
<g id="node3" class="node"><title>Node2</title>
<a xlink:href="../../d7/d38/class_u_b_download_manager.html#a98ec03d9a74e118191b17197a7b942a8" target="_top" xlink:title="Get the download manager.">
<polygon fill="white" stroke="black" points="198.5,-200 198.5,-234 313.5,-234 313.5,-200 198.5,-200"/>
<text text-anchor="start" x="206.5" y="-221" font-family="Helvetica,sans-Serif" font-size="10.00">UBDownloadManager:</text>
<text text-anchor="middle" x="256" y="-208" font-family="Helvetica,sans-Serif" font-size="10.00">:downloadManager</text>
</a>
</g>
<!-- Node1&#45;&gt;Node2 -->
<g id="edge2" class="edge"><title>Node1&#45;&gt;Node2</title>
<path fill="none" stroke="midnightblue" d="M162.096,-203.049C170.9,-204.357 179.791,-205.678 188.41,-206.958"/>
<polygon fill="midnightblue" stroke="midnightblue" points="187.975,-210.432 198.381,-208.439 189.004,-203.508 187.975,-210.432"/>
</g>
<!-- Node50 -->
<g id="node109" class="node"><title>Node50</title>
<a xlink:href="../../d7/d38/class_u_b_download_manager.html#a4beef0fa708d68bcf92f73b029ed9f60" target="_top" xlink:title="Get the list of the pending downloads.">
<polygon fill="white" stroke="black" points="198.5,-148 198.5,-182 313.5,-182 313.5,-148 198.5,-148"/>
<text text-anchor="start" x="206.5" y="-169" font-family="Helvetica,sans-Serif" font-size="10.00">UBDownloadManager:</text>
<text text-anchor="middle" x="256" y="-156" font-family="Helvetica,sans-Serif" font-size="10.00">:pendingDownloads</text>
</a>
</g>
<!-- Node1&#45;&gt;Node50 -->
<g id="edge118" class="edge"><title>Node1&#45;&gt;Node50</title>
<path fill="none" stroke="midnightblue" d="M162.096,-178.951C170.9,-177.643 179.791,-176.322 188.41,-175.042"/>
<polygon fill="midnightblue" stroke="midnightblue" points="189.004,-178.492 198.381,-173.561 187.975,-171.568 189.004,-178.492"/>
</g>
<!-- Node3 -->
<g id="node5" class="node"><title>Node3</title>
<a xlink:href="../../d7/d38/class_u_b_download_manager.html#a692880b623fa16bda278a35de605db8c" target="_top" xlink:title="Constructor.">
<polygon fill="white" stroke="black" points="350.5,-200 350.5,-234 465.5,-234 465.5,-200 350.5,-200"/>
<text text-anchor="start" x="358.5" y="-221" font-family="Helvetica,sans-Serif" font-size="10.00">UBDownloadManager:</text>
<text text-anchor="middle" x="408" y="-208" font-family="Helvetica,sans-Serif" font-size="10.00">:UBDownloadManager</text>
</a>
</g>
<!-- Node2&#45;&gt;Node3 -->
<g id="edge4" class="edge"><title>Node2&#45;&gt;Node3</title>
<path fill="none" stroke="midnightblue" d="M313.898,-217C322.461,-217 331.349,-217 340.093,-217"/>
<polygon fill="midnightblue" stroke="midnightblue" points="340.263,-220.5 350.263,-217 340.263,-213.5 340.263,-220.5"/>
</g>
<!-- Node4 -->
<g id="node7" class="node"><title>Node4</title>
<a xlink:href="../../d7/d38/class_u_b_download_manager.html#a4e4cf467c14617da96e07f91f847a85c" target="_top" xlink:title="Initialize the download manager.">
<polygon fill="white" stroke="black" points="502.5,-252.5 502.5,-273.5 633.5,-273.5 633.5,-252.5 502.5,-252.5"/>
<text text-anchor="middle" x="568" y="-260.5" font-family="Helvetica,sans-Serif" font-size="10.00">UBDownloadManager::init</text>
</a>
</g>
<!-- Node3&#45;&gt;Node4 -->
<g id="edge6" class="edge"><title>Node3&#45;&gt;Node4</title>
<path fill="none" stroke="midnightblue" d="M465.764,-233.607C484.021,-238.856 503.957,-244.588 521.337,-249.584"/>
<polygon fill="midnightblue" stroke="midnightblue" points="520.665,-253.033 531.243,-252.432 522.599,-246.305 520.665,-253.033"/>
</g>
<!-- Node5 -->
<g id="node9" class="node"><title>Node5</title>
<a xlink:href="../../d7/d38/class_u_b_download_manager.html#ab6721a82bf700a33b3801f9b61356123" target="_top" xlink:title="UBDownloadManager:\l:fileAddedToDownload">
<polygon fill="white" stroke="black" points="510.5,-200 510.5,-234 625.5,-234 625.5,-200 510.5,-200"/>
<text text-anchor="start" x="518.5" y="-221" font-family="Helvetica,sans-Serif" font-size="10.00">UBDownloadManager:</text>
<text text-anchor="middle" x="568" y="-208" font-family="Helvetica,sans-Serif" font-size="10.00">:fileAddedToDownload</text>
</a>
</g>
<!-- Node3&#45;&gt;Node5 -->
<g id="edge8" class="edge"><title>Node3&#45;&gt;Node5</title>
<path fill="none" stroke="midnightblue" d="M465.764,-217C476.866,-217 488.589,-217 499.98,-217"/>
<polygon fill="midnightblue" stroke="midnightblue" points="500.321,-220.5 510.321,-217 500.321,-213.5 500.321,-220.5"/>
</g>
<!-- Node6 -->
<g id="node11" class="node"><title>Node6</title>
<a xlink:href="../../d7/d38/class_u_b_download_manager.html#adf2b12cbfdb5457f3eec6a09b0ec4145" target="_top" xlink:title="Update the download list. If a current download is finished, we take a file from the pending download...">
<polygon fill="white" stroke="black" points="505,-148 505,-182 631,-182 631,-148 505,-148"/>
<text text-anchor="start" x="513" y="-169" font-family="Helvetica,sans-Serif" font-size="10.00">UBDownloadManager:</text>
<text text-anchor="middle" x="568" y="-156" font-family="Helvetica,sans-Serif" font-size="10.00">:onUpdateDownloadLists</text>
</a>
</g>
<!-- Node3&#45;&gt;Node6 -->
<g id="edge10" class="edge"><title>Node3&#45;&gt;Node6</title>
<path fill="none" stroke="midnightblue" d="M460.39,-199.973C474.894,-195.26 490.778,-190.097 505.782,-185.221"/>
<polygon fill="midnightblue" stroke="midnightblue" points="507.064,-188.485 515.492,-182.065 504.9,-181.827 507.064,-188.485"/>
</g>
<!-- Node7 -->
<g id="node13" class="node"><title>Node7</title>
<a xlink:href="../../d7/d38/class_u_b_download_manager.html#aac0b212ca97453fb8d342d110d375f10" target="_top" xlink:title="Start the download of a file.">
<polygon fill="white" stroke="black" points="670.5,-245 670.5,-279 785.5,-279 785.5,-245 670.5,-245"/>
<text text-anchor="start" x="678.5" y="-266" font-family="Helvetica,sans-Serif" font-size="10.00">UBDownloadManager:</text>
<text text-anchor="middle" x="728" y="-253" font-family="Helvetica,sans-Serif" font-size="10.00">:startFileDownload</text>
</a>
</g>
<!-- Node6&#45;&gt;Node7 -->
<g id="edge12" class="edge"><title>Node6&#45;&gt;Node7</title>
<path fill="none" stroke="midnightblue" d="M615.945,-182.096C622.142,-184.822 628.307,-187.807 634,-191 657.977,-204.446 682.69,-223.346 700.755,-238.265"/>
<polygon fill="midnightblue" stroke="midnightblue" points="698.649,-241.066 708.562,-244.806 703.145,-235.701 698.649,-241.066"/>
</g>
<!-- Node8 -->
<g id="node15" class="node"><title>Node8</title>
<a xlink:href="../../d7/d38/class_u_b_download_manager.html#a50e08fa88d965346e81a3100bd72f8cf" target="_top" xlink:title="Called when the download of the given file is finished.">
<polygon fill="white" stroke="black" points="839.5,-297 839.5,-331 954.5,-331 954.5,-297 839.5,-297"/>
<text text-anchor="start" x="847.5" y="-318" font-family="Helvetica,sans-Serif" font-size="10.00">UBDownloadManager:</text>
<text text-anchor="middle" x="897" y="-305" font-family="Helvetica,sans-Serif" font-size="10.00">:onDownloadFinished</text>
</a>
</g>
<!-- Node7&#45;&gt;Node8 -->
<g id="edge14" class="edge"><title>Node7&#45;&gt;Node8</title>
<path fill="none" stroke="midnightblue" d="M783.337,-279.027C798.802,-283.785 815.754,-289.001 831.735,-293.919"/>
<polygon fill="midnightblue" stroke="midnightblue" points="830.952,-297.339 841.539,-296.935 833.01,-290.649 830.952,-297.339"/>
</g>
<!-- Node9 -->
<g id="node17" class="node"><title>Node9</title>
<a xlink:href="../../d7/d38/class_u_b_download_manager.html#a12c47cd2fab70aef25ee7896ac8d5fe8" target="_top" xlink:title="UBDownloadManager:\l:downloadFinished">
<polygon fill="white" stroke="black" points="1224.5,-328 1224.5,-362 1339.5,-362 1339.5,-328 1224.5,-328"/>
<text text-anchor="start" x="1232.5" y="-349" font-family="Helvetica,sans-Serif" font-size="10.00">UBDownloadManager:</text>
<text text-anchor="middle" x="1282" y="-336" font-family="Helvetica,sans-Serif" font-size="10.00">:downloadFinished</text>
</a>
</g>
<!-- Node7&#45;&gt;Node9 -->
<g id="edge56" class="edge"><title>Node7&#45;&gt;Node9</title>
<path fill="none" stroke="midnightblue" d="M742.165,-279.207C758.95,-298.138 788.853,-327.532 822,-340 953.855,-389.594 1122.39,-373.22 1214.46,-358.239"/>
<polygon fill="midnightblue" stroke="midnightblue" points="1215.2,-361.664 1224.49,-356.564 1214.05,-354.76 1215.2,-361.664"/>
</g>
<!-- Node24 -->
<g id="node49" class="node"><title>Node24</title>
<a xlink:href="../../de/d41/class_u_b_async_local_file_downloader.html#a062ea63c2e94e990281c44e4c9644067" target="_top" xlink:title="UBAsyncLocalFileDownloader\l::download">
<polygon fill="white" stroke="black" points="822.5,-245 822.5,-279 971.5,-279 971.5,-245 822.5,-245"/>
<text text-anchor="start" x="830.5" y="-266" font-family="Helvetica,sans-Serif" font-size="10.00">UBAsyncLocalFileDownloader</text>
<text text-anchor="middle" x="897" y="-253" font-family="Helvetica,sans-Serif" font-size="10.00">::download</text>
</a>
</g>
<!-- Node7&#45;&gt;Node24 -->
<g id="edge50" class="edge"><title>Node7&#45;&gt;Node24</title>
<path fill="none" stroke="midnightblue" d="M785.688,-262C794.233,-262 803.186,-262 812.145,-262"/>
<polygon fill="midnightblue" stroke="midnightblue" points="812.241,-265.5 822.241,-262 812.241,-258.5 812.241,-265.5"/>
</g>
<!-- Node25 -->
<g id="node51" class="node"><title>Node25</title>
<a xlink:href="../../d7/d38/class_u_b_download_manager.html#a77a59012fcfa733fc3a2dbffc1605a55" target="_top" xlink:title="Update the file transfer information.">
<polygon fill="white" stroke="black" points="839.5,-193 839.5,-227 954.5,-227 954.5,-193 839.5,-193"/>
<text text-anchor="start" x="847.5" y="-214" font-family="Helvetica,sans-Serif" font-size="10.00">UBDownloadManager:</text>
<text text-anchor="middle" x="897" y="-201" font-family="Helvetica,sans-Serif" font-size="10.00">:onDownloadProgress</text>
</a>
</g>
<!-- Node7&#45;&gt;Node25 -->
<g id="edge52" class="edge"><title>Node7&#45;&gt;Node25</title>
<path fill="none" stroke="midnightblue" d="M783.337,-244.973C798.802,-240.215 815.754,-234.999 831.735,-230.081"/>
<polygon fill="midnightblue" stroke="midnightblue" points="833.01,-233.351 841.539,-227.065 830.952,-226.661 833.01,-233.351"/>
</g>
<!-- Node26 -->
<g id="node55" class="node"><title>Node26</title>
<a xlink:href="../../d7/d38/class_u_b_download_manager.html#aa21ea2733f35aa297519ee620a182365" target="_top" xlink:title="UBDownloadManager:\l:onDownloadError">
<polygon fill="white" stroke="black" points="839.5,-65 839.5,-99 954.5,-99 954.5,-65 839.5,-65"/>
<text text-anchor="start" x="847.5" y="-86" font-family="Helvetica,sans-Serif" font-size="10.00">UBDownloadManager:</text>
<text text-anchor="middle" x="897" y="-73" font-family="Helvetica,sans-Serif" font-size="10.00">:onDownloadError</text>
</a>
</g>
<!-- Node7&#45;&gt;Node26 -->
<g id="edge58" class="edge"><title>Node7&#45;&gt;Node26</title>
<path fill="none" stroke="midnightblue" d="M744.204,-244.741C774.362,-212.62 839.185,-143.578 873.914,-106.589"/>
<polygon fill="midnightblue" stroke="midnightblue" points="876.551,-108.893 880.845,-99.2069 871.448,-104.102 876.551,-108.893"/>
</g>
<!-- Node35 -->
<g id="node76" class="node"><title>Node35</title>
<a xlink:href="../../de/d40/class_u_b_http_get.html#a5c25272ca90dfb2d1d42784907d39c41" target="_top" xlink:title="UBHttpGet::get">
<polygon fill="white" stroke="black" points="854.5,-491.5 854.5,-512.5 939.5,-512.5 939.5,-491.5 854.5,-491.5"/>
<text text-anchor="middle" x="897" y="-499.5" font-family="Helvetica,sans-Serif" font-size="10.00">UBHttpGet::get</text>
</a>
</g>
<!-- Node7&#45;&gt;Node35 -->
<g id="edge82" class="edge"><title>Node7&#45;&gt;Node35</title>
<path fill="none" stroke="midnightblue" d="M739.806,-279.095C757.554,-304.762 792.208,-354.756 822,-397 843.256,-427.14 868.192,-461.941 883.283,-482.941"/>
<polygon fill="midnightblue" stroke="midnightblue" points="880.612,-485.222 889.292,-491.298 886.295,-481.136 880.612,-485.222"/>
</g>
<!-- Node8&#45;&gt;Node9 -->
<g id="edge16" class="edge"><title>Node8&#45;&gt;Node9</title>
<path fill="none" stroke="midnightblue" d="M954.57,-320.649C971.746,-322.518 990.623,-324.459 1008,-326 1078.31,-332.236 1158.93,-337.614 1214.42,-341.04"/>
<polygon fill="midnightblue" stroke="midnightblue" points="1214.29,-344.538 1224.48,-341.657 1214.72,-337.551 1214.29,-344.538"/>
</g>
<!-- Node10 -->
<g id="node19" class="node"><title>Node10</title>
<a xlink:href="../../d7/d38/class_u_b_download_manager.html#a7211a4b322171a3d7e714a29ca527432" target="_top" xlink:title="UBDownloadManager:\l:addDownloadedFileToBoard">
<polygon fill="white" stroke="black" points="1018,-231 1018,-265 1160,-265 1160,-231 1018,-231"/>
<text text-anchor="start" x="1026" y="-252" font-family="Helvetica,sans-Serif" font-size="10.00">UBDownloadManager:</text>
<text text-anchor="middle" x="1089" y="-239" font-family="Helvetica,sans-Serif" font-size="10.00">:addDownloadedFileToBoard</text>
</a>
</g>
<!-- Node8&#45;&gt;Node10 -->
<g id="edge18" class="edge"><title>Node8&#45;&gt;Node10</title>
<path fill="none" stroke="midnightblue" d="M947.117,-296.916C955.446,-293.993 963.981,-290.948 972,-288 988.113,-282.076 991.82,-279.737 1008,-274 1013.44,-272.071 1019.11,-270.125 1024.8,-268.213"/>
<polygon fill="midnightblue" stroke="midnightblue" points="1026,-271.505 1034.39,-265.034 1023.79,-264.861 1026,-271.505"/>
</g>
<!-- Node11 -->
<g id="node21" class="node"><title>Node11</title>
<a xlink:href="../../d7/d38/class_u_b_download_manager.html#a516812f4416db050a3123d91c367bee4" target="_top" xlink:title="UBDownloadManager:\l:addDownloadedFileToLibrary">
<polygon fill="white" stroke="black" points="1016,-283 1016,-317 1162,-317 1162,-283 1016,-283"/>
<text text-anchor="start" x="1024" y="-304" font-family="Helvetica,sans-Serif" font-size="10.00">UBDownloadManager:</text>
<text text-anchor="middle" x="1089" y="-291" font-family="Helvetica,sans-Serif" font-size="10.00">:addDownloadedFileToLibrary</text>
</a>
</g>
<!-- Node8&#45;&gt;Node11 -->
<g id="edge20" class="edge"><title>Node8&#45;&gt;Node11</title>
<path fill="none" stroke="midnightblue" d="M954.606,-309.8C970.673,-308.628 988.457,-307.331 1005.69,-306.075"/>
<polygon fill="midnightblue" stroke="midnightblue" points="1006.03,-309.559 1015.75,-305.341 1005.52,-302.578 1006.03,-309.559"/>
</g>
<!-- Node12 -->
<g id="node23" class="node"><title>Node12</title>
<a xlink:href="../../d7/d38/class_u_b_download_manager.html#a713a817fe469e641786c6d8a61778b95" target="_top" xlink:title="Update the description of the given current downloaded file.">
<polygon fill="white" stroke="black" points="1031,-179 1031,-213 1147,-213 1147,-179 1031,-179"/>
<text text-anchor="start" x="1039" y="-200" font-family="Helvetica,sans-Serif" font-size="10.00">UBDownloadManager:</text>
<text text-anchor="middle" x="1089" y="-187" font-family="Helvetica,sans-Serif" font-size="10.00">:updateFileCurrentSize</text>
</a>
</g>
<!-- Node8&#45;&gt;Node12 -->
<g id="edge22" class="edge"><title>Node8&#45;&gt;Node12</title>
<path fill="none" stroke="midnightblue" d="M954.7,-299.052C960.918,-296.009 966.846,-292.364 972,-288 997.5,-266.409 982.252,-243.295 1008,-222 1012.2,-218.529 1016.87,-215.519 1021.78,-212.908"/>
<polygon fill="midnightblue" stroke="midnightblue" points="1023.3,-216.06 1030.85,-208.627 1020.32,-209.73 1023.3,-216.06"/>
</g>
<!-- Node12&#45;&gt;Node6 -->
<g id="edge32" class="edge"><title>Node12&#45;&gt;Node6</title>
<path fill="none" stroke="midnightblue" d="M1030.73,-189.384C1012,-187.428 991.141,-185.431 972,-184 856.503,-175.368 722.121,-169.972 641.138,-167.225"/>
<polygon fill="midnightblue" stroke="midnightblue" points="641.157,-163.724 631.046,-166.887 640.923,-170.72 641.157,-163.724"/>
</g>
<!-- Node12&#45;&gt;Node9 -->
<g id="edge34" class="edge"><title>Node12&#45;&gt;Node9</title>
<path fill="none" stroke="midnightblue" d="M1147.21,-207.897C1155.51,-211.44 1163.45,-216.036 1170,-222 1200.04,-249.335 1178.29,-276.302 1206,-306 1212.1,-312.539 1219.55,-318.161 1227.36,-322.936"/>
<polygon fill="midnightblue" stroke="midnightblue" points="1225.86,-326.109 1236.29,-327.971 1229.3,-320.011 1225.86,-326.109"/>
</g>
<!-- Node13 -->
<g id="node25" class="node"><title>Node13</title>
<a xlink:href="../../d7/d38/class_u_b_download_manager.html#acf269f1cf2f15126043b4b113489c0a7" target="_top" xlink:title="UBDownloadManager:\l:downloadUpdated">
<polygon fill="white" stroke="black" points="1224.5,-263 1224.5,-297 1339.5,-297 1339.5,-263 1224.5,-263"/>
<text text-anchor="start" x="1232.5" y="-284" font-family="Helvetica,sans-Serif" font-size="10.00">UBDownloadManager:</text>
<text text-anchor="middle" x="1282" y="-271" font-family="Helvetica,sans-Serif" font-size="10.00">:downloadUpdated</text>
</a>
</g>
<!-- Node12&#45;&gt;Node13 -->
<g id="edge24" class="edge"><title>Node12&#45;&gt;Node13</title>
<path fill="none" stroke="midnightblue" d="M1147.34,-211.469C1155.18,-214.477 1162.95,-217.974 1170,-222 1188.59,-232.611 1187.51,-243.212 1206,-254 1208.98,-255.739 1212.1,-257.385 1215.29,-258.94"/>
<polygon fill="midnightblue" stroke="midnightblue" points="1213.91,-262.156 1224.46,-263.08 1216.79,-255.776 1213.91,-262.156"/>
</g>
<!-- Node14 -->
<g id="node27" class="node"><title>Node14</title>
<a xlink:href="../../d7/d38/class_u_b_download_manager.html#a73e2f336b08e0c1805f421567eec26ea" target="_top" xlink:title="Verify if modal downloads remains and notify everyone if it is not the case.">
<polygon fill="white" stroke="black" points="1223.5,-211 1223.5,-245 1340.5,-245 1340.5,-211 1223.5,-211"/>
<text text-anchor="start" x="1231.5" y="-232" font-family="Helvetica,sans-Serif" font-size="10.00">UBDownloadManager:</text>
<text text-anchor="middle" x="1282" y="-219" font-family="Helvetica,sans-Serif" font-size="10.00">:checkIfModalRemains</text>
</a>
</g>
<!-- Node12&#45;&gt;Node14 -->
<g id="edge26" class="edge"><title>Node12&#45;&gt;Node14</title>
<path fill="none" stroke="midnightblue" d="M1147.17,-205.644C1167.96,-209.092 1191.59,-213.009 1213.19,-216.591"/>
<polygon fill="midnightblue" stroke="midnightblue" points="1212.85,-220.082 1223.28,-218.265 1213.99,-213.176 1212.85,-220.082"/>
</g>
<!-- Node17 -->
<g id="node35" class="node"><title>Node17</title>
<a xlink:href="../../d7/d38/class_u_b_download_manager.html#aeb9ff1954a7c94d18c7d37f1b1f85729" target="_top" xlink:title="UBDownloadManager:\l:finishDownloads">
<polygon fill="white" stroke="black" points="1224.5,-159 1224.5,-193 1339.5,-193 1339.5,-159 1224.5,-159"/>
<text text-anchor="start" x="1232.5" y="-180" font-family="Helvetica,sans-Serif" font-size="10.00">UBDownloadManager:</text>
<text text-anchor="middle" x="1282" y="-167" font-family="Helvetica,sans-Serif" font-size="10.00">:finishDownloads</text>
</a>
</g>
<!-- Node12&#45;&gt;Node17 -->
<g id="edge36" class="edge"><title>Node12&#45;&gt;Node17</title>
<path fill="none" stroke="midnightblue" d="M1147.17,-189.972C1168.25,-187.788 1192.24,-185.301 1214.09,-183.038"/>
<polygon fill="midnightblue" stroke="midnightblue" points="1214.7,-186.493 1224.28,-181.981 1213.98,-179.53 1214.7,-186.493"/>
</g>
<!-- Node15 -->
<g id="node29" class="node"><title>Node15</title>
<a xlink:href="../../d8/d9e/class_u_b_main_window.html#a4b99a4654dccfb65a5599c9fb8d3fb8a" target="_top" xlink:title="UBMainWindow::hideDownload\lWidget">
<polygon fill="white" stroke="black" points="1394.5,-263 1394.5,-297 1549.5,-297 1549.5,-263 1394.5,-263"/>
<text text-anchor="start" x="1402.5" y="-284" font-family="Helvetica,sans-Serif" font-size="10.00">UBMainWindow::hideDownload</text>
<text text-anchor="middle" x="1472" y="-271" font-family="Helvetica,sans-Serif" font-size="10.00">Widget</text>
</a>
</g>
<!-- Node14&#45;&gt;Node15 -->
<g id="edge28" class="edge"><title>Node14&#45;&gt;Node15</title>
<path fill="none" stroke="midnightblue" d="M1340.56,-244.026C1359.31,-249.157 1380.29,-254.899 1399.89,-260.263"/>
<polygon fill="midnightblue" stroke="midnightblue" points="1399.11,-263.681 1409.68,-262.945 1400.96,-256.929 1399.11,-263.681"/>
</g>
<!-- Node16 -->
<g id="node31" class="node"><title>Node16</title>
<a xlink:href="../../d7/d38/class_u_b_download_manager.html#a31e9979260c22b0cf1968eea94fd5af7" target="_top" xlink:title="UBDownloadManager:\l:downloadModalFinished">
<polygon fill="white" stroke="black" points="1410,-315 1410,-349 1534,-349 1534,-315 1410,-315"/>
<text text-anchor="start" x="1418" y="-336" font-family="Helvetica,sans-Serif" font-size="10.00">UBDownloadManager:</text>
<text text-anchor="middle" x="1472" y="-323" font-family="Helvetica,sans-Serif" font-size="10.00">:downloadModalFinished</text>
</a>
</g>
<!-- Node14&#45;&gt;Node16 -->
<g id="edge30" class="edge"><title>Node14&#45;&gt;Node16</title>
<path fill="none" stroke="midnightblue" d="M1340.8,-243.788C1346.9,-246.669 1352.77,-250.047 1358,-254 1380.42,-270.954 1371.51,-289.135 1394,-306 1396.1,-307.574 1398.3,-309.055 1400.57,-310.45"/>
<polygon fill="midnightblue" stroke="midnightblue" points="1399.21,-313.694 1409.66,-315.411 1402.56,-307.549 1399.21,-313.694"/>
</g>
<!-- Node18 -->
<g id="node37" class="node"><title>Node18</title>
<a xlink:href="../../d7/d62/class_u_b_board_controller.html#a536e1388e74f79a2120d0e585b862033" target="_top" xlink:title="UBBoardController:\l:paletteManager">
<polygon fill="white" stroke="black" points="1421.5,-107 1421.5,-141 1522.5,-141 1522.5,-107 1421.5,-107"/>
<text text-anchor="start" x="1429.5" y="-128" font-family="Helvetica,sans-Serif" font-size="10.00">UBBoardController:</text>
<text text-anchor="middle" x="1472" y="-115" font-family="Helvetica,sans-Serif" font-size="10.00">:paletteManager</text>
</a>
</g>
<!-- Node17&#45;&gt;Node18 -->
<g id="edge38" class="edge"><title>Node17&#45;&gt;Node18</title>
<path fill="none" stroke="midnightblue" d="M1339.52,-160.257C1362.36,-154.006 1388.65,-146.813 1411.75,-140.49"/>
<polygon fill="midnightblue" stroke="midnightblue" points="1412.72,-143.854 1421.44,-137.838 1410.87,-137.102 1412.72,-143.854"/>
</g>
<!-- Node19 -->
<g id="node39" class="node"><title>Node19</title>
<a xlink:href="../../dc/d38/class_u_b_board_palette_manager.html#a9b076bd5e9b0066353797f86bcfe09f8" target="_top" xlink:title="UBBoardPaletteManager\l::stopDownloads">
<polygon fill="white" stroke="black" points="1409.5,-17 1409.5,-51 1534.5,-51 1534.5,-17 1409.5,-17"/>
<text text-anchor="start" x="1417.5" y="-38" font-family="Helvetica,sans-Serif" font-size="10.00">UBBoardPaletteManager</text>
<text text-anchor="middle" x="1472" y="-25" font-family="Helvetica,sans-Serif" font-size="10.00">::stopDownloads</text>
</a>
</g>
<!-- Node17&#45;&gt;Node19 -->
<g id="edge40" class="edge"><title>Node17&#45;&gt;Node19</title>
<path fill="none" stroke="midnightblue" d="M1339.63,-160.757C1346.15,-157.76 1352.44,-154.205 1358,-150 1380.42,-133.046 1374.95,-118.67 1394,-98 1407.59,-83.2483 1424.64,-68.8869 1439.32,-57.5189"/>
<polygon fill="midnightblue" stroke="midnightblue" points="1441.8,-60.0276 1447.65,-51.1912 1437.57,-54.4536 1441.8,-60.0276"/>
</g>
<!-- Node22 -->
<g id="node45" class="node"><title>Node22</title>
<a xlink:href="../../d7/d38/class_u_b_download_manager.html#a8502451de115dfa70d3ca1fad017e4cc" target="_top" xlink:title="UBDownloadManager:\l:cancelAllDownloads">
<polygon fill="white" stroke="black" points="1414.5,-211 1414.5,-245 1529.5,-245 1529.5,-211 1414.5,-211"/>
<text text-anchor="start" x="1422.5" y="-232" font-family="Helvetica,sans-Serif" font-size="10.00">UBDownloadManager:</text>
<text text-anchor="middle" x="1472" y="-219" font-family="Helvetica,sans-Serif" font-size="10.00">:cancelAllDownloads</text>
</a>
</g>
<!-- Node17&#45;&gt;Node22 -->
<g id="edge46" class="edge"><title>Node17&#45;&gt;Node22</title>
<path fill="none" stroke="midnightblue" d="M1339.52,-191.743C1359.98,-197.343 1383.21,-203.698 1404.43,-209.507"/>
<polygon fill="midnightblue" stroke="midnightblue" points="1403.78,-212.957 1414.35,-212.221 1405.62,-206.205 1403.78,-212.957"/>
</g>
<!-- Node23 -->
<g id="node47" class="node"><title>Node23</title>
<a xlink:href="../../d7/d38/class_u_b_download_manager.html#ad035f13a1abac13e2f9aa847036bac5f" target="_top" xlink:title="UBDownloadManager:\l:allDownloadsFinished">
<polygon fill="white" stroke="black" points="1414.5,-159 1414.5,-193 1529.5,-193 1529.5,-159 1414.5,-159"/>
<text text-anchor="start" x="1422.5" y="-180" font-family="Helvetica,sans-Serif" font-size="10.00">UBDownloadManager:</text>
<text text-anchor="middle" x="1472" y="-167" font-family="Helvetica,sans-Serif" font-size="10.00">:allDownloadsFinished</text>
</a>
</g>
<!-- Node17&#45;&gt;Node23 -->
<g id="edge48" class="edge"><title>Node17&#45;&gt;Node23</title>
<path fill="none" stroke="midnightblue" d="M1339.52,-176C1359.89,-176 1383,-176 1404.14,-176"/>
<polygon fill="midnightblue" stroke="midnightblue" points="1404.35,-179.5 1414.35,-176 1404.35,-172.5 1404.35,-179.5"/>
</g>
<!-- Node20 -->
<g id="node41" class="node"><title>Node20</title>
<a xlink:href="../../d1/d54/class_u_b_dock_palette_widget.html#a345e85fdfe36c21cde8567c515eace13" target="_top" xlink:title="UBDockPaletteWidget\l::setVisibleState">
<polygon fill="white" stroke="black" points="1602,-40 1602,-74 1718,-74 1718,-40 1602,-40"/>
<text text-anchor="start" x="1610" y="-61" font-family="Helvetica,sans-Serif" font-size="10.00">UBDockPaletteWidget</text>
<text text-anchor="middle" x="1660" y="-48" font-family="Helvetica,sans-Serif" font-size="10.00">::setVisibleState</text>
</a>
</g>
<!-- Node19&#45;&gt;Node20 -->
<g id="edge42" class="edge"><title>Node19&#45;&gt;Node20</title>
<path fill="none" stroke="midnightblue" d="M1534.6,-41.6587C1552.9,-43.8969 1572.98,-46.3545 1591.62,-48.6342"/>
<polygon fill="midnightblue" stroke="midnightblue" points="1591.45,-52.1396 1601.8,-49.8799 1592.3,-45.1914 1591.45,-52.1396"/>
</g>
<!-- Node21 -->
<g id="node43" class="node"><title>Node21</title>
<a xlink:href="../../dc/d54/class_u_b_dock_palette.html#a70de660848735ee7598b56f9bfc0c27f" target="_top" xlink:title="Remove the given tab.">
<polygon fill="white" stroke="red" points="1590,-0.5 1590,-21.5 1730,-21.5 1730,-0.5 1590,-0.5"/>
<text text-anchor="middle" x="1660" y="-8.5" font-family="Helvetica,sans-Serif" font-size="10.00">UBDockPalette::removeTab</text>
</a>
</g>
<!-- Node19&#45;&gt;Node21 -->
<g id="edge44" class="edge"><title>Node19&#45;&gt;Node21</title>
<path fill="none" stroke="midnightblue" d="M1534.6,-26.3413C1549.01,-24.5788 1564.53,-22.6803 1579.57,-20.8397"/>
<polygon fill="midnightblue" stroke="midnightblue" points="1580.39,-24.2657 1589.89,-19.5771 1579.54,-17.3175 1580.39,-24.2657"/>
</g>
<!-- Node25&#45;&gt;Node12 -->
<g id="edge54" class="edge"><title>Node25&#45;&gt;Node12</title>
<path fill="none" stroke="midnightblue" d="M954.606,-205.8C975.394,-204.284 999.058,-202.558 1020.67,-200.982"/>
<polygon fill="midnightblue" stroke="midnightblue" points="1021.05,-204.464 1030.77,-200.246 1020.54,-197.482 1021.05,-204.464"/>
</g>
<!-- Node27 -->
<g id="node57" class="node"><title>Node27</title>
<a xlink:href="../../d8/d81/class_u_b_application.html#afd12508537e75aaa6789431e60b60b44" target="_top" xlink:title="UBApplication::showMessage">
<polygon fill="white" stroke="black" points="1586,-355.5 1586,-376.5 1734,-376.5 1734,-355.5 1586,-355.5"/>
<text text-anchor="middle" x="1660" y="-363.5" font-family="Helvetica,sans-Serif" font-size="10.00">UBApplication::showMessage</text>
</a>
</g>
<!-- Node26&#45;&gt;Node27 -->
<g id="edge60" class="edge"><title>Node26&#45;&gt;Node27</title>
<path fill="none" stroke="midnightblue" d="M954.57,-75.6465C1095.75,-61.2648 1454.61,-32.3301 1550,-98 1634.91,-156.453 1654.37,-293.097 1658.75,-345.26"/>
<polygon fill="midnightblue" stroke="midnightblue" points="1655.27,-345.598 1659.49,-355.313 1662.25,-345.083 1655.27,-345.598"/>
</g>
<!-- Node33 -->
<g id="node69" class="node"><title>Node33</title>
<a xlink:href="../../d7/d38/class_u_b_download_manager.html#a5425576229c8b6918a72ca6476e2be23" target="_top" xlink:title="UBDownloadManager:\l:cancelDownload">
<polygon fill="white" stroke="black" points="1031.5,-110 1031.5,-144 1146.5,-144 1146.5,-110 1031.5,-110"/>
<text text-anchor="start" x="1039.5" y="-131" font-family="Helvetica,sans-Serif" font-size="10.00">UBDownloadManager:</text>
<text text-anchor="middle" x="1089" y="-118" font-family="Helvetica,sans-Serif" font-size="10.00">:cancelDownload</text>
</a>
</g>
<!-- Node26&#45;&gt;Node33 -->
<g id="edge72" class="edge"><title>Node26&#45;&gt;Node33</title>
<path fill="none" stroke="midnightblue" d="M954.606,-95.5015C975.68,-100.441 999.708,-106.072 1021.56,-111.195"/>
<polygon fill="midnightblue" stroke="midnightblue" points="1020.9,-114.634 1031.43,-113.508 1022.5,-107.818 1020.9,-114.634"/>
</g>
<!-- Node28 -->
<g id="node59" class="node"><title>Node28</title>
<a xlink:href="../../da/d14/class_u_b_application_controller.html#aaefcc19888d509988d3e82b334d76830" target="_top" xlink:title="UBApplicationController\l::showMessage">
<polygon fill="white" stroke="black" points="1770.5,-349 1770.5,-383 1891.5,-383 1891.5,-349 1770.5,-349"/>
<text text-anchor="start" x="1778.5" y="-370" font-family="Helvetica,sans-Serif" font-size="10.00">UBApplicationController</text>
<text text-anchor="middle" x="1831" y="-357" font-family="Helvetica,sans-Serif" font-size="10.00">::showMessage</text>
</a>
</g>
<!-- Node27&#45;&gt;Node28 -->
<g id="edge62" class="edge"><title>Node27&#45;&gt;Node28</title>
<path fill="none" stroke="midnightblue" d="M1734.01,-366C1742.7,-366 1751.56,-366 1760.2,-366"/>
<polygon fill="midnightblue" stroke="midnightblue" points="1760.24,-369.5 1770.24,-366 1760.24,-362.5 1760.24,-369.5"/>
</g>
<!-- Node29 -->
<g id="node61" class="node"><title>Node29</title>
<a xlink:href="../../d7/d62/class_u_b_board_controller.html#a71d2fb8834fc701bed0b16bb0f0b5527" target="_top" xlink:title="UBBoardController:\l:hideMessage">
<polygon fill="white" stroke="red" points="1936.5,-427 1936.5,-461 2037.5,-461 2037.5,-427 1936.5,-427"/>
<text text-anchor="start" x="1944.5" y="-448" font-family="Helvetica,sans-Serif" font-size="10.00">UBBoardController:</text>
<text text-anchor="middle" x="1987" y="-435" font-family="Helvetica,sans-Serif" font-size="10.00">:hideMessage</text>
</a>
</g>
<!-- Node28&#45;&gt;Node29 -->
<g id="edge64" class="edge"><title>Node28&#45;&gt;Node29</title>
<path fill="none" stroke="midnightblue" d="M1861.27,-383.003C1880.25,-393.468 1905.33,-406.948 1928,-418 1931.16,-419.543 1934.44,-421.099 1937.76,-422.642"/>
<polygon fill="midnightblue" stroke="midnightblue" points="1936.59,-425.955 1947.14,-426.933 1939.5,-419.59 1936.59,-425.955"/>
</g>
<!-- Node30 -->
<g id="node63" class="node"><title>Node30</title>
<a xlink:href="../../d6/de0/class_u_b_document_controller.html#aa5a4bf5ad86548cda5fd75ce6eb9f28f" target="_top" xlink:title="UBDocumentController\l::showMessage">
<polygon fill="white" stroke="black" points="1928,-375 1928,-409 2046,-409 2046,-375 1928,-375"/>
<text text-anchor="start" x="1936" y="-396" font-family="Helvetica,sans-Serif" font-size="10.00">UBDocumentController</text>
<text text-anchor="middle" x="1987" y="-383" font-family="Helvetica,sans-Serif" font-size="10.00">::showMessage</text>
</a>
</g>
<!-- Node28&#45;&gt;Node30 -->
<g id="edge66" class="edge"><title>Node28&#45;&gt;Node30</title>
<path fill="none" stroke="midnightblue" d="M1891.76,-376.127C1900.31,-377.551 1909.15,-379.024 1917.83,-380.472"/>
<polygon fill="midnightblue" stroke="midnightblue" points="1917.5,-383.965 1927.94,-382.157 1918.65,-377.06 1917.5,-383.965"/>
</g>
<!-- Node31 -->
<g id="node65" class="node"><title>Node31</title>
<a xlink:href="../../d6/de0/class_u_b_document_controller.html#a73b29c9fcfc83397a6bd30af5fdc1ed2" target="_top" xlink:title="UBDocumentController\l::hideMessage">
<polygon fill="white" stroke="black" points="1928,-323 1928,-357 2046,-357 2046,-323 1928,-323"/>
<text text-anchor="start" x="1936" y="-344" font-family="Helvetica,sans-Serif" font-size="10.00">UBDocumentController</text>
<text text-anchor="middle" x="1987" y="-331" font-family="Helvetica,sans-Serif" font-size="10.00">::hideMessage</text>
</a>
</g>
<!-- Node28&#45;&gt;Node31 -->
<g id="edge68" class="edge"><title>Node28&#45;&gt;Node31</title>
<path fill="none" stroke="midnightblue" d="M1891.76,-355.873C1900.31,-354.449 1909.15,-352.976 1917.83,-351.528"/>
<polygon fill="midnightblue" stroke="midnightblue" points="1918.65,-354.94 1927.94,-349.843 1917.5,-348.035 1918.65,-354.94"/>
</g>
<!-- Node32 -->
<g id="node67" class="node"><title>Node32</title>
<a xlink:href="../../d7/d62/class_u_b_board_controller.html#a71ff510e4ce1e3a753f074a0e7438a00" target="_top" xlink:title="UBBoardController:\l:showMessage">
<polygon fill="white" stroke="red" points="1936.5,-271 1936.5,-305 2037.5,-305 2037.5,-271 1936.5,-271"/>
<text text-anchor="start" x="1944.5" y="-292" font-family="Helvetica,sans-Serif" font-size="10.00">UBBoardController:</text>
<text text-anchor="middle" x="1987" y="-279" font-family="Helvetica,sans-Serif" font-size="10.00">:showMessage</text>
</a>
</g>
<!-- Node28&#45;&gt;Node32 -->
<g id="edge70" class="edge"><title>Node28&#45;&gt;Node32</title>
<path fill="none" stroke="midnightblue" d="M1861.27,-348.997C1880.25,-338.532 1905.33,-325.052 1928,-314 1931.16,-312.457 1934.44,-310.901 1937.76,-309.358"/>
<polygon fill="midnightblue" stroke="midnightblue" points="1939.5,-312.41 1947.14,-305.067 1936.59,-306.045 1939.5,-312.41"/>
</g>
<!-- Node33&#45;&gt;Node6 -->
<g id="edge78" class="edge"><title>Node33&#45;&gt;Node6</title>
<path fill="none" stroke="midnightblue" d="M1031.2,-131.216C935.87,-138.169 745.863,-152.027 641.263,-159.656"/>
<polygon fill="midnightblue" stroke="midnightblue" points="640.823,-156.179 631.104,-160.397 641.332,-163.161 640.823,-156.179"/>
</g>
<!-- Node33&#45;&gt;Node14 -->
<g id="edge76" class="edge"><title>Node33&#45;&gt;Node14</title>
<path fill="none" stroke="midnightblue" d="M1125.56,-144.069C1139.87,-151.341 1156.14,-160.369 1170,-170 1187.58,-182.217 1187.51,-191.212 1206,-202 1208.83,-203.651 1211.78,-205.219 1214.81,-206.703"/>
<polygon fill="midnightblue" stroke="midnightblue" points="1213.51,-209.959 1224.06,-210.912 1216.41,-203.587 1213.51,-209.959"/>
</g>
<!-- Node33&#45;&gt;Node17 -->
<g id="edge80" class="edge"><title>Node33&#45;&gt;Node17</title>
<path fill="none" stroke="midnightblue" d="M1146.64,-141.635C1167.93,-147.04 1192.25,-153.213 1214.34,-158.823"/>
<polygon fill="midnightblue" stroke="midnightblue" points="1213.77,-162.287 1224.32,-161.356 1215.49,-155.502 1213.77,-162.287"/>
</g>
<!-- Node34 -->
<g id="node71" class="node"><title>Node34</title>
<a xlink:href="../../de/d41/class_u_b_async_local_file_downloader.html#a083f79b69abcbd9a8830a866c390f888" target="_top" xlink:title="UBAsyncLocalFileDownloader\l::abort">
<polygon fill="white" stroke="black" points="1207.5,-107 1207.5,-141 1356.5,-141 1356.5,-107 1207.5,-107"/>
<text text-anchor="start" x="1215.5" y="-128" font-family="Helvetica,sans-Serif" font-size="10.00">UBAsyncLocalFileDownloader</text>
<text text-anchor="middle" x="1282" y="-115" font-family="Helvetica,sans-Serif" font-size="10.00">::abort</text>
</a>
</g>
<!-- Node33&#45;&gt;Node34 -->
<g id="edge74" class="edge"><title>Node33&#45;&gt;Node34</title>
<path fill="none" stroke="midnightblue" d="M1146.64,-126.104C1162.62,-125.856 1180.29,-125.581 1197.45,-125.314"/>
<polygon fill="midnightblue" stroke="midnightblue" points="1197.54,-128.813 1207.48,-125.158 1197.43,-121.814 1197.54,-128.813"/>
</g>
<!-- Node36 -->
<g id="node78" class="node"><title>Node36</title>
<a xlink:href="../../db/dad/class_u_b_network_access_manager.html#aff17aa07b0b023bbe5f30bd39db43ccb" target="_top" xlink:title="UBNetworkAccessManager\l::defaultAccessManager">
<polygon fill="white" stroke="black" points="1020,-609 1020,-643 1158,-643 1158,-609 1020,-609"/>
<text text-anchor="start" x="1028" y="-630" font-family="Helvetica,sans-Serif" font-size="10.00">UBNetworkAccessManager</text>
<text text-anchor="middle" x="1089" y="-617" font-family="Helvetica,sans-Serif" font-size="10.00">::defaultAccessManager</text>
</a>
</g>
<!-- Node35&#45;&gt;Node36 -->
<g id="edge84" class="edge"><title>Node35&#45;&gt;Node36</title>
<path fill="none" stroke="midnightblue" d="M907.118,-512.53C925.624,-531.289 966.821,-570.792 1008,-595 1014.16,-598.62 1020.81,-601.963 1027.57,-605.007"/>
<polygon fill="midnightblue" stroke="midnightblue" points="1026.25,-608.246 1036.82,-608.971 1029.01,-601.813 1026.25,-608.246"/>
</g>
<!-- Node44 -->
<g id="node96" class="node"><title>Node44</title>
<a xlink:href="../../db/dad/class_u_b_network_access_manager.html#a4939a9c1018c4cc416db0f1b1dcbe581" target="_top" xlink:title="UBNetworkAccessManager::get">
<polygon fill="white" stroke="black" points="1010,-531.5 1010,-552.5 1168,-552.5 1168,-531.5 1010,-531.5"/>
<text text-anchor="middle" x="1089" y="-539.5" font-family="Helvetica,sans-Serif" font-size="10.00">UBNetworkAccessManager::get</text>
</a>
</g>
<!-- Node35&#45;&gt;Node44 -->
<g id="edge104" class="edge"><title>Node35&#45;&gt;Node44</title>
<path fill="none" stroke="midnightblue" d="M939.611,-510.877C965.701,-516.313 999.505,-523.355 1028.36,-529.366"/>
<polygon fill="midnightblue" stroke="midnightblue" points="1027.83,-532.832 1038.33,-531.445 1029.26,-525.979 1027.83,-532.832"/>
</g>
<!-- Node45 -->
<g id="node98" class="node"><title>Node45</title>
<a xlink:href="../../de/d40/class_u_b_http_get.html#abc84821c1ca451f16cc41332664211ef" target="_top" xlink:title="UBHttpGet::requestFinished">
<polygon fill="white" stroke="black" points="1019,-411.5 1019,-432.5 1159,-432.5 1159,-411.5 1019,-411.5"/>
<text text-anchor="middle" x="1089" y="-419.5" font-family="Helvetica,sans-Serif" font-size="10.00">UBHttpGet::requestFinished</text>
</a>
</g>
<!-- Node35&#45;&gt;Node45 -->
<g id="edge106" class="edge"><title>Node35&#45;&gt;Node45</title>
<path fill="none" stroke="midnightblue" d="M913.291,-491.477C934.387,-478.26 972.651,-455.662 1008,-442 1014.35,-439.544 1021.11,-437.316 1027.9,-435.314"/>
<polygon fill="midnightblue" stroke="midnightblue" points="1029.14,-438.601 1037.83,-432.543 1027.26,-431.858 1029.14,-438.601"/>
</g>
<!-- Node47 -->
<g id="node102" class="node"><title>Node47</title>
<a xlink:href="../../de/d40/class_u_b_http_get.html#a8d22352b7bfd77228108394a0f26554e" target="_top" xlink:title="UBHttpGet::readyRead">
<polygon fill="white" stroke="black" points="1029.5,-451.5 1029.5,-472.5 1148.5,-472.5 1148.5,-451.5 1029.5,-451.5"/>
<text text-anchor="middle" x="1089" y="-459.5" font-family="Helvetica,sans-Serif" font-size="10.00">UBHttpGet::readyRead</text>
</a>
</g>
<!-- Node35&#45;&gt;Node47 -->
<g id="edge110" class="edge"><title>Node35&#45;&gt;Node47</title>
<path fill="none" stroke="midnightblue" d="M939.611,-493.123C965.701,-487.687 999.505,-480.645 1028.36,-474.634"/>
<polygon fill="midnightblue" stroke="midnightblue" points="1029.26,-478.021 1038.33,-472.555 1027.83,-471.168 1029.26,-478.021"/>
</g>
<!-- Node48 -->
<g id="node104" class="node"><title>Node48</title>
<a xlink:href="../../de/d40/class_u_b_http_get.html#a57e3023ed944a2eb3047dd32af7a79df" target="_top" xlink:title="UBHttpGet::downloadProgress">
<polygon fill="white" stroke="black" points="1206,-510.5 1206,-531.5 1358,-531.5 1358,-510.5 1206,-510.5"/>
<text text-anchor="middle" x="1282" y="-518.5" font-family="Helvetica,sans-Serif" font-size="10.00">UBHttpGet::downloadProgress</text>
</a>
</g>
<!-- Node35&#45;&gt;Node48 -->
<g id="edge112" class="edge"><title>Node35&#45;&gt;Node48</title>
<path fill="none" stroke="midnightblue" d="M911.107,-512.653C931.301,-527.165 970.198,-552.437 1008,-562 1077.8,-579.658 1099.11,-574.568 1170,-562 1198.42,-556.962 1229.09,-545.257 1251.14,-535.638"/>
<polygon fill="midnightblue" stroke="midnightblue" points="1252.62,-538.808 1260.32,-531.533 1249.77,-532.417 1252.62,-538.808"/>
</g>
<!-- Node49 -->
<g id="node106" class="node"><title>Node49</title>
<a xlink:href="../../de/d40/class_u_b_http_get.html#a153cc2cd9e5af8a9645e67281168850a" target="_top" xlink:title="UBHttpGet::downloadProgressed">
<polygon fill="white" stroke="black" points="1008,-491.5 1008,-512.5 1170,-512.5 1170,-491.5 1008,-491.5"/>
<text text-anchor="middle" x="1089" y="-499.5" font-family="Helvetica,sans-Serif" font-size="10.00">UBHttpGet::downloadProgressed</text>
</a>
</g>
<!-- Node35&#45;&gt;Node49 -->
<g id="edge114" class="edge"><title>Node35&#45;&gt;Node49</title>
<path fill="none" stroke="midnightblue" d="M939.611,-502C956.812,-502 977.366,-502 997.643,-502"/>
<polygon fill="midnightblue" stroke="midnightblue" points="997.879,-505.5 1007.88,-502 997.879,-498.5 997.879,-505.5"/>
</g>
<!-- Node37 -->
<g id="node80" class="node"><title>Node37</title>
<a xlink:href="../../db/dad/class_u_b_network_access_manager.html#a5cf3eea86eba0bbf3a5af8056c84dfc8" target="_top" xlink:title="UBNetworkAccessManager\l::UBNetworkAccessManager">
<polygon fill="white" stroke="black" points="1210,-589 1210,-623 1354,-623 1354,-589 1210,-589"/>
<text text-anchor="start" x="1218" y="-610" font-family="Helvetica,sans-Serif" font-size="10.00">UBNetworkAccessManager</text>
<text text-anchor="middle" x="1282" y="-597" font-family="Helvetica,sans-Serif" font-size="10.00">::UBNetworkAccessManager</text>
</a>
</g>
<!-- Node36&#45;&gt;Node37 -->
<g id="edge86" class="edge"><title>Node36&#45;&gt;Node37</title>
<path fill="none" stroke="midnightblue" d="M1158.13,-618.836C1171.62,-617.438 1185.89,-615.959 1199.76,-614.522"/>
<polygon fill="midnightblue" stroke="midnightblue" points="1200.18,-617.997 1209.77,-613.485 1199.46,-611.035 1200.18,-617.997"/>
</g>
<!-- Node38 -->
<g id="node82" class="node"><title>Node38</title>
<a xlink:href="../../db/dad/class_u_b_network_access_manager.html#a6cb28434f104f614a5cdd8cc21817028" target="_top" xlink:title="UBNetworkAccessManager\l::authenticationRequired">
<polygon fill="white" stroke="black" points="1403,-537 1403,-571 1541,-571 1541,-537 1403,-537"/>
<text text-anchor="start" x="1411" y="-558" font-family="Helvetica,sans-Serif" font-size="10.00">UBNetworkAccessManager</text>
<text text-anchor="middle" x="1472" y="-545" font-family="Helvetica,sans-Serif" font-size="10.00">::authenticationRequired</text>
</a>
</g>
<!-- Node37&#45;&gt;Node38 -->
<g id="edge88" class="edge"><title>Node37&#45;&gt;Node38</title>
<path fill="none" stroke="midnightblue" d="M1344.21,-588.973C1362.01,-584.102 1381.56,-578.753 1399.89,-573.734"/>
<polygon fill="midnightblue" stroke="midnightblue" points="1400.93,-577.081 1409.65,-571.065 1399.08,-570.329 1400.93,-577.081"/>
</g>
<!-- Node39 -->
<g id="node84" class="node"><title>Node39</title>
<a xlink:href="../../db/dad/class_u_b_network_access_manager.html#a8dbaad5e6494da61b98c302418364795" target="_top" xlink:title="UBNetworkAccessManager\l::proxyAuthenticationRequired">
<polygon fill="white" stroke="red" points="1398,-589 1398,-623 1546,-623 1546,-589 1398,-589"/>
<text text-anchor="start" x="1406" y="-610" font-family="Helvetica,sans-Serif" font-size="10.00">UBNetworkAccessManager</text>
<text text-anchor="middle" x="1472" y="-597" font-family="Helvetica,sans-Serif" font-size="10.00">::proxyAuthenticationRequired</text>
</a>
</g>
<!-- Node37&#45;&gt;Node39 -->
<g id="edge90" class="edge"><title>Node37&#45;&gt;Node39</title>
<path fill="none" stroke="midnightblue" d="M1354.1,-606C1365.03,-606 1376.39,-606 1387.56,-606"/>
<polygon fill="midnightblue" stroke="midnightblue" points="1387.74,-609.5 1397.74,-606 1387.74,-602.5 1387.74,-609.5"/>
</g>
<!-- Node40 -->
<g id="node86" class="node"><title>Node40</title>
<a xlink:href="../../db/d66/class_u_b_settings.html#a0d8ed418921c2b2d37851faeae00715d" target="_top" xlink:title="UBSettings::settings">
<polygon fill="white" stroke="red" points="1606.5,-617.5 1606.5,-638.5 1713.5,-638.5 1713.5,-617.5 1606.5,-617.5"/>
<text text-anchor="middle" x="1660" y="-625.5" font-family="Helvetica,sans-Serif" font-size="10.00">UBSettings::settings</text>
</a>
</g>
<!-- Node37&#45;&gt;Node40 -->
<g id="edge98" class="edge"><title>Node37&#45;&gt;Node40</title>
<path fill="none" stroke="midnightblue" d="M1344.06,-623.057C1360.19,-626.759 1377.64,-630.126 1394,-632 1462.76,-639.876 1542.16,-637.162 1596.18,-633.556"/>
<polygon fill="midnightblue" stroke="midnightblue" points="1596.57,-637.038 1606.3,-632.85 1596.08,-630.054 1596.57,-637.038"/>
</g>
<!-- Node41 -->
<g id="node89" class="node"><title>Node41</title>
<a xlink:href="../../db/dad/class_u_b_network_access_manager.html#a60d863ecf0228ad3f8482a4a299f9fde" target="_top" xlink:title="UBNetworkAccessManager\l::sslErrors">
<polygon fill="white" stroke="black" points="1403,-485 1403,-519 1541,-519 1541,-485 1403,-485"/>
<text text-anchor="start" x="1411" y="-506" font-family="Helvetica,sans-Serif" font-size="10.00">UBNetworkAccessManager</text>
<text text-anchor="middle" x="1472" y="-493" font-family="Helvetica,sans-Serif" font-size="10.00">::sslErrors</text>
</a>
</g>
<!-- Node37&#45;&gt;Node41 -->
<g id="edge96" class="edge"><title>Node37&#45;&gt;Node41</title>
<path fill="none" stroke="midnightblue" d="M1302.74,-588.816C1324.39,-571.548 1359.9,-545.108 1394,-528 1397.56,-526.215 1401.27,-524.51 1405.05,-522.889"/>
<polygon fill="midnightblue" stroke="midnightblue" points="1406.62,-526.032 1414.57,-519.035 1403.99,-519.543 1406.62,-526.032"/>
</g>
<!-- Node42 -->
<g id="node92" class="node"><title>Node42</title>
<a xlink:href="../../db/d66/class_u_b_settings.html#a4639b92e16c88b61deaa44d39eebc6c3" target="_top" xlink:title="UBSettings::httpProxy">
<polygon fill="white" stroke="black" points="1414.5,-445.5 1414.5,-466.5 1529.5,-466.5 1529.5,-445.5 1414.5,-445.5"/>
<text text-anchor="middle" x="1472" y="-453.5" font-family="Helvetica,sans-Serif" font-size="10.00">UBSettings::httpProxy</text>
</a>
</g>
<!-- Node37&#45;&gt;Node42 -->
<g id="edge100" class="edge"><title>Node37&#45;&gt;Node42</title>
<path fill="none" stroke="midnightblue" d="M1306.25,-588.867C1322.25,-576.747 1342.96,-559.427 1358,-541 1378.88,-515.416 1367.87,-496.195 1394,-476 1397.36,-473.403 1401.02,-471.141 1404.86,-469.171"/>
<polygon fill="midnightblue" stroke="midnightblue" points="1406.38,-472.329 1414.1,-465.083 1403.54,-465.928 1406.38,-472.329"/>
</g>
<!-- Node43 -->
<g id="node94" class="node"><title>Node43</title>
<a xlink:href="../../db/d66/class_u_b_settings.html#af38d2ad231149df734ca7b5486356500" target="_top" xlink:title="UBSettings::userDataDirectory">
<polygon fill="white" stroke="red" points="1396,-679.5 1396,-700.5 1548,-700.5 1548,-679.5 1396,-679.5"/>
<text text-anchor="middle" x="1472" y="-687.5" font-family="Helvetica,sans-Serif" font-size="10.00">UBSettings::userDataDirectory</text>
</a>
</g>
<!-- Node37&#45;&gt;Node43 -->
<g id="edge102" class="edge"><title>Node37&#45;&gt;Node43</title>
<path fill="none" stroke="midnightblue" d="M1311.26,-623.227C1333.47,-635.85 1365.02,-652.834 1394,-665 1403.84,-669.13 1414.61,-672.986 1424.92,-676.375"/>
<polygon fill="midnightblue" stroke="midnightblue" points="1424.03,-679.765 1434.62,-679.474 1426.16,-673.097 1424.03,-679.765"/>
</g>
<!-- Node39&#45;&gt;Node27 -->
<g id="edge94" class="edge"><title>Node39&#45;&gt;Node27</title>
<path fill="none" stroke="midnightblue" d="M1537.16,-588.809C1541.75,-586.264 1546.1,-583.345 1550,-580 1612.43,-526.466 1643.89,-428.716 1655.1,-386.413"/>
<polygon fill="midnightblue" stroke="midnightblue" points="1658.5,-387.245 1657.57,-376.691 1651.71,-385.52 1658.5,-387.245"/>
</g>
<!-- Node39&#45;&gt;Node40 -->
<g id="edge92" class="edge"><title>Node39&#45;&gt;Node40</title>
<path fill="none" stroke="midnightblue" d="M1546.03,-614.663C1562.55,-616.597 1579.94,-618.631 1596.01,-620.512"/>
<polygon fill="midnightblue" stroke="midnightblue" points="1596.03,-624.037 1606.36,-621.724 1596.84,-617.085 1596.03,-624.037"/>
</g>
<!-- Node46 -->
<g id="node100" class="node"><title>Node46</title>
<a xlink:href="../../de/d40/class_u_b_http_get.html#a3d8f398fcc863e20756a0d4060097d32" target="_top" xlink:title="UBHttpGet::downloadFinished">
<polygon fill="white" stroke="black" points="1207.5,-411.5 1207.5,-432.5 1356.5,-432.5 1356.5,-411.5 1207.5,-411.5"/>
<text text-anchor="middle" x="1282" y="-419.5" font-family="Helvetica,sans-Serif" font-size="10.00">UBHttpGet::downloadFinished</text>
</a>
</g>
<!-- Node45&#45;&gt;Node46 -->
<g id="edge108" class="edge"><title>Node45&#45;&gt;Node46</title>
<path fill="none" stroke="midnightblue" d="M1159.22,-422C1171.55,-422 1184.51,-422 1197.18,-422"/>
<polygon fill="midnightblue" stroke="midnightblue" points="1197.28,-425.5 1207.28,-422 1197.28,-418.5 1197.28,-425.5"/>
</g>
<!-- Node49&#45;&gt;Node48 -->
<g id="edge116" class="edge"><title>Node49&#45;&gt;Node48</title>
<path fill="none" stroke="midnightblue" d="M1170.01,-509.975C1178.54,-510.815 1187.23,-511.67 1195.81,-512.515"/>
<polygon fill="midnightblue" stroke="midnightblue" points="1195.52,-516.004 1205.82,-513.5 1196.21,-509.037 1195.52,-516.004"/>
</g>
</g>
</svg>
