<?xml version="1.0" encoding="UTF-8" standalone="no"?>
<!DOCTYPE svg PUBLIC "-//W3C//DTD SVG 1.1//EN"
 "http://www.w3.org/Graphics/SVG/1.1/DTD/svg11.dtd">
<!-- Generated by graphviz version 2.26.3 (20100126.1600)
 -->
<!-- Title: UBAudioQueueRecorder::inputDeviceIDs Pages: 1 -->
<!--zoomable 94 -->
<svg id="main" version="1.1" xmlns="http://www.w3.org/2000/svg" xmlns:xlink="http://www.w3.org/1999/xlink" xml:space="preserve" onload="init(evt)">
        <defs>
                <circle id="rim" cx="0" cy="0" r="7"/>
                <circle id="rim2" cx="0" cy="0" r="3.5"/>
                <g id="zoomPlus">
                        <use xlink:href="#rim" fill="#404040">
                                <set attributeName="fill" to="#808080" begin="zoomplus.mouseover" end="zoomplus.mouseout"/>
                        </use>
                        <path d="M-4,0h8M0,-4v8" fill="none" stroke="white" stroke-width="1.5" pointer-events="none"/>
                </g>
                <g id="zoomMin">
                        <use xlink:href="#rim" fill="#404040">
                                <set attributeName="fill" to="#808080" begin="zoomminus.mouseover" end="zoomminus.mouseout"/>
                        </use>
                        <path d="M-4,0h8" fill="none" stroke="white" stroke-width="1.5" pointer-events="none"/>
                </g>
                <g id="dirArrow">
                        <path fill="none" stroke="white" stroke-width="1.5" d="M0,-3.0v7 M-2.5,-0.5L0,-3.0L2.5,-0.5"/>
                </g>
               <g id="resetDef">
                       <use xlink:href="#rim2" fill="#404040">
                               <set attributeName="fill" to="#808080" begin="reset.mouseover" end="reset.mouseout"/>
                       </use>
               </g>
        </defs>

<script type="text/javascript">
var viewWidth = 668;
var viewHeight = 94;
var sectionId = 'dynsection-7';
</script>
<script xlink:href="../../svgpan.js"/>
<svg id="graph" class="graph">
<g id="viewport">
<title>UBAudioQueueRecorder::inputDeviceIDs</title>
<polygon fill="white" stroke="white" points="-4,5 -4,-90 665,-90 665,5 -4,5"/>
<!-- Node1 -->
<g id="node1" class="node"><title>Node1</title>
<polygon fill="#bfbfbf" stroke="black" points="0,-26 0,-60 124,-60 124,-26 0,-26"/>
<text text-anchor="start" x="8" y="-47" font-family="Helvetica,sans-Serif" font-size="10.00">UBAudioQueueRecorder</text>
<text text-anchor="middle" x="62" y="-34" font-family="Helvetica,sans-Serif" font-size="10.00">::inputDeviceIDs</text>
</g>
<!-- Node2 -->
<g id="node3" class="node"><title>Node2</title>
<a xlink:href="../../de/d2b/class_u_b_audio_queue_recorder.html#a3aefba29bf7b27d3fc8acbf116d24f42" target="_top" xlink:title="UBAudioQueueRecorder\l::waveInDevices">
<polygon fill="white" stroke="black" points="169,-52 169,-86 293,-86 293,-52 169,-52"/>
<text text-anchor="start" x="177" y="-73" font-family="Helvetica,sans-Serif" font-size="10.00">UBAudioQueueRecorder</text>
<text text-anchor="middle" x="231" y="-60" font-family="Helvetica,sans-Serif" font-size="10.00">::waveInDevices</text>
</a>
</g>
<!-- Node1&#45;&gt;Node2 -->
<g id="edge2" class="edge"><title>Node1&#45;&gt;Node2</title>
<path fill="none" stroke="midnightblue" d="M134.412,-54.1404C145.863,-55.902 157.617,-57.7102 168.807,-59.4319"/>
<polygon fill="midnightblue" stroke="midnightblue" points="134.865,-50.6689 124.449,-52.6076 133.801,-57.5875 134.865,-50.6689"/>
</g>
<!-- Node5 -->
<g id="node9" class="node"><title>Node5</title>
<a xlink:href="../../de/d2b/class_u_b_audio_queue_recorder.html#a48b8fe4e81655b7dd2a3300e190e3dec" target="_top" xlink:title="UBAudioQueueRecorder\l::deviceIDFromDeviceName">
<polygon fill="white" stroke="black" points="160.5,-0 160.5,-34 301.5,-34 301.5,-0 160.5,-0"/>
<text text-anchor="start" x="168.5" y="-21" font-family="Helvetica,sans-Serif" font-size="10.00">UBAudioQueueRecorder</text>
<text text-anchor="middle" x="231" y="-8" font-family="Helvetica,sans-Serif" font-size="10.00">::deviceIDFromDeviceName</text>
</a>
</g>
<!-- Node1&#45;&gt;Node5 -->
<g id="edge8" class="edge"><title>Node1&#45;&gt;Node5</title>
<path fill="none" stroke="midnightblue" d="M134.408,-31.8603C142.976,-30.5421 151.714,-29.1979 160.258,-27.8833"/>
<polygon fill="midnightblue" stroke="midnightblue" points="133.801,-28.4125 124.449,-33.3924 134.865,-35.3311 133.801,-28.4125"/>
</g>
<!-- Node3 -->
<g id="node5" class="node"><title>Node3</title>
<a xlink:href="../../d9/def/class_u_b_podcast_controller.html#aaf68c6c0fa0047b41207f44047e00512" target="_top" xlink:title="UBPodcastController\l::audioRecordingDevices">
<polygon fill="white" stroke="black" points="338,-52 338,-86 464,-86 464,-52 338,-52"/>
<text text-anchor="start" x="346" y="-73" font-family="Helvetica,sans-Serif" font-size="10.00">UBPodcastController</text>
<text text-anchor="middle" x="401" y="-60" font-family="Helvetica,sans-Serif" font-size="10.00">::audioRecordingDevices</text>
</a>
</g>
<!-- Node2&#45;&gt;Node3 -->
<g id="edge4" class="edge"><title>Node2&#45;&gt;Node3</title>
<path fill="none" stroke="midnightblue" d="M303.663,-69C315.026,-69 326.689,-69 337.817,-69"/>
<polygon fill="midnightblue" stroke="midnightblue" points="303.336,-65.5001 293.336,-69 303.336,-72.5001 303.336,-65.5001"/>
</g>
<!-- Node4 -->
<g id="node7" class="node"><title>Node4</title>
<a xlink:href="../../d9/def/class_u_b_podcast_controller.html#a756a5aa351c2891437d8cade28cbc80c" target="_top" xlink:title="UBPodcastController\l::audioRecordingDevicesActions">
<polygon fill="white" stroke="black" points="500.5,-52 500.5,-86 659.5,-86 659.5,-52 500.5,-52"/>
<text text-anchor="start" x="508.5" y="-73" font-family="Helvetica,sans-Serif" font-size="10.00">UBPodcastController</text>
<text text-anchor="middle" x="580" y="-60" font-family="Helvetica,sans-Serif" font-size="10.00">::audioRecordingDevicesActions</text>
</a>
</g>
<!-- Node3&#45;&gt;Node4 -->
<g id="edge6" class="edge"><title>Node3&#45;&gt;Node4</title>
<path fill="none" stroke="midnightblue" d="M474.377,-69C482.895,-69 491.615,-69 500.213,-69"/>
<polygon fill="midnightblue" stroke="midnightblue" points="474.109,-65.5001 464.109,-69 474.109,-72.5001 474.109,-65.5001"/>
</g>
<!-- Node6 -->
<g id="node11" class="node"><title>Node6</title>
<a xlink:href="../../de/d2b/class_u_b_audio_queue_recorder.html#a2af0edbe33f6bb239f4df5e1318b56b4" target="_top" xlink:title="UBAudioQueueRecorder\l::init">
<polygon fill="white" stroke="black" points="339,-0 339,-34 463,-34 463,-0 339,-0"/>
<text text-anchor="start" x="347" y="-21" font-family="Helvetica,sans-Serif" font-size="10.00">UBAudioQueueRecorder</text>
<text text-anchor="middle" x="401" y="-8" font-family="Helvetica,sans-Serif" font-size="10.00">::init</text>
</a>
</g>
<!-- Node5&#45;&gt;Node6 -->
<g id="edge10" class="edge"><title>Node5&#45;&gt;Node6</title>
<path fill="none" stroke="midnightblue" d="M311.792,-17C320.846,-17 329.964,-17 338.734,-17"/>
<polygon fill="midnightblue" stroke="midnightblue" points="311.618,-13.5001 301.618,-17 311.618,-20.5001 311.618,-13.5001"/>
</g>
</g>
</svg>
        <g id="navigator" transform="translate(0 0)" fill="#404254">
                <rect fill="#f2f5e9" fill-opacity="0.5" stroke="#606060" stroke-width=".5" x="0" y="0" width="60" height="60"/>
                <use id="zoomplus" xlink:href="#zoomPlus" x="17" y="9" onmousedown="handleZoom(evt,'in')"/>
                <use id="zoomminus" xlink:href="#zoomMin" x="42" y="9" onmousedown="handleZoom(evt,'out')"/>
                <use id="reset" xlink:href="#resetDef" x="30" y="36" onmousedown="handleReset()"/>
                <g id="arrowUp" xlink:href="#dirArrow" transform="translate(30 24)" onmousedown="handlePan(0,-1)">
                  <use xlink:href="#rim" fill="#404040">
                        <set attributeName="fill" to="#808080" begin="arrowUp.mouseover" end="arrowUp.mouseout"/>
                  </use>
                  <path fill="none" stroke="white" stroke-width="1.5" d="M0,-3.0v7 M-2.5,-0.5L0,-3.0L2.5,-0.5"/>
                </g>
                <g id="arrowRight" xlink:href="#dirArrow" transform="rotate(90) translate(36 -43)" onmousedown="handlePan(1,0)">
                  <use xlink:href="#rim" fill="#404040">
                        <set attributeName="fill" to="#808080" begin="arrowRight.mouseover" end="arrowRight.mouseout"/>
                  </use>
                  <path fill="none" stroke="white" stroke-width="1.5" d="M0,-3.0v7 M-2.5,-0.5L0,-3.0L2.5,-0.5"/>
                </g>
                <g id="arrowDown" xlink:href="#dirArrow" transform="rotate(180) translate(-30 -48)" onmousedown="handlePan(0,1)">
                  <use xlink:href="#rim" fill="#404040">
                        <set attributeName="fill" to="#808080" begin="arrowDown.mouseover" end="arrowDown.mouseout"/>
                  </use>
                  <path fill="none" stroke="white" stroke-width="1.5" d="M0,-3.0v7 M-2.5,-0.5L0,-3.0L2.5,-0.5"/>
                </g>
                <g id="arrowLeft" xlink:href="#dirArrow" transform="rotate(270) translate(-36 17)" onmousedown="handlePan(-1,0)">
                  <use xlink:href="#rim" fill="#404040">
                        <set attributeName="fill" to="#808080" begin="arrowLeft.mouseover" end="arrowLeft.mouseout"/>
                  </use>
                  <path fill="none" stroke="white" stroke-width="1.5" d="M0,-3.0v7 M-2.5,-0.5L0,-3.0L2.5,-0.5"/>
                </g>
        </g>
        <svg viewBox="0 0 15 15" width="100%" height="30px" preserveAspectRatio="xMaxYMin meet">
         <g id="arrow_out" transform="scale(0.3 0.3)">
          <a xlink:href="class_u_b_audio_queue_recorder_a67ef65275e545d178369a82cf5782159_icgraph_org.svg" target="_base">
           <rect id="button" ry="5" rx="5" y="6" x="6" height="38" width="38"
                fill="#f2f5e9" fill-opacity="0.5" stroke="#606060" stroke-width="1.0"/>
           <path id="arrow"
             d="M 11.500037,31.436501 C 11.940474,20.09759 22.043105,11.32322 32.158766,21.979434 L 37.068811,17.246167 C 37.068811,17.246167 37.088388,32 37.088388,32 L 22.160133,31.978069 C 22.160133,31.978069 26.997745,27.140456 26.997745,27.140456 C 18.528582,18.264221 13.291696,25.230495 11.500037,31.436501 z"
             style="fill:#404040;"/>
          </a>
         </g>
        </svg>
</svg>
