<?xml version="1.0" encoding="UTF-8" standalone="no"?>
<!DOCTYPE svg PUBLIC "-//W3C//DTD SVG 1.1//EN"
 "http://www.w3.org/Graphics/SVG/1.1/DTD/svg11.dtd">
<!-- Generated by graphviz version 2.26.3 (20100126.1600)
 -->
<!-- Title: UBThumbnailWidget::keyPressEvent Pages: 1 -->
<!--zoomable 288 -->
<svg id="main" version="1.1" xmlns="http://www.w3.org/2000/svg" xmlns:xlink="http://www.w3.org/1999/xlink" xml:space="preserve" onload="init(evt)">
        <defs>
                <circle id="rim" cx="0" cy="0" r="7"/>
                <circle id="rim2" cx="0" cy="0" r="3.5"/>
                <g id="zoomPlus">
                        <use xlink:href="#rim" fill="#404040">
                                <set attributeName="fill" to="#808080" begin="zoomplus.mouseover" end="zoomplus.mouseout"/>
                        </use>
                        <path d="M-4,0h8M0,-4v8" fill="none" stroke="white" stroke-width="1.5" pointer-events="none"/>
                </g>
                <g id="zoomMin">
                        <use xlink:href="#rim" fill="#404040">
                                <set attributeName="fill" to="#808080" begin="zoomminus.mouseover" end="zoomminus.mouseout"/>
                        </use>
                        <path d="M-4,0h8" fill="none" stroke="white" stroke-width="1.5" pointer-events="none"/>
                </g>
                <g id="dirArrow">
                        <path fill="none" stroke="white" stroke-width="1.5" d="M0,-3.0v7 M-2.5,-0.5L0,-3.0L2.5,-0.5"/>
                </g>
               <g id="resetDef">
                       <use xlink:href="#rim2" fill="#404040">
                               <set attributeName="fill" to="#808080" begin="reset.mouseover" end="reset.mouseout"/>
                       </use>
               </g>
        </defs>

<script type="text/javascript">
var viewWidth = 568;
var viewHeight = 288;
var sectionId = 'dynsection-8';
</script>
<script xlink:href="../../svgpan.js"/>
<svg id="graph" class="graph">
<g id="viewport">
<title>UBThumbnailWidget::keyPressEvent</title>
<polygon fill="white" stroke="white" points="-4,5 -4,-284 565,-284 565,5 -4,5"/>
<!-- Node1 -->
<g id="node1" class="node"><title>Node1</title>
<polygon fill="#bfbfbf" stroke="black" points="0,-126 0,-160 110,-160 110,-126 0,-126"/>
<text text-anchor="start" x="8" y="-147" font-family="Helvetica,sans-Serif" font-size="10.00">UBThumbnailWidget:</text>
<text text-anchor="middle" x="55" y="-134" font-family="Helvetica,sans-Serif" font-size="10.00">:keyPressEvent</text>
</g>
<!-- Node2 -->
<g id="node3" class="node"><title>Node2</title>
<a xlink:href="../../d2/d7e/class_u_b_thumbnail_widget.html#a7b6ee99cfc0c6427a721a15bc65dd0d1" target="_top" xlink:title="UBThumbnailWidget:\l:rowCount">
<polygon fill="white" stroke="black" points="146,-246 146,-280 256,-280 256,-246 146,-246"/>
<text text-anchor="start" x="154" y="-267" font-family="Helvetica,sans-Serif" font-size="10.00">UBThumbnailWidget:</text>
<text text-anchor="middle" x="201" y="-254" font-family="Helvetica,sans-Serif" font-size="10.00">:rowCount</text>
</a>
</g>
<!-- Node1&#45;&gt;Node2 -->
<g id="edge2" class="edge"><title>Node1&#45;&gt;Node2</title>
<path fill="none" stroke="midnightblue" d="M68.2815,-160.084C84.7802,-180.44 114.609,-214.514 146,-237 147.814,-238.299 149.703,-239.561 151.642,-240.783"/>
<polygon fill="midnightblue" stroke="midnightblue" points="149.988,-243.87 160.392,-245.875 153.509,-237.82 149.988,-243.87"/>
</g>
<!-- Node4 -->
<g id="node7" class="node"><title>Node4</title>
<a xlink:href="../../d2/d7e/class_u_b_thumbnail_widget.html#a13ccdf3884dd41dbb1550aa87919689e" target="_top" xlink:title="UBThumbnailWidget:\l:columnCount">
<polygon fill="white" stroke="black" points="146,-194 146,-228 256,-228 256,-194 146,-194"/>
<text text-anchor="start" x="154" y="-215" font-family="Helvetica,sans-Serif" font-size="10.00">UBThumbnailWidget:</text>
<text text-anchor="middle" x="201" y="-202" font-family="Helvetica,sans-Serif" font-size="10.00">:columnCount</text>
</a>
</g>
<!-- Node1&#45;&gt;Node4 -->
<g id="edge6" class="edge"><title>Node1&#45;&gt;Node4</title>
<path fill="none" stroke="midnightblue" d="M91.842,-160.159C111.108,-169.133 134.87,-180.2 155.299,-189.715"/>
<polygon fill="midnightblue" stroke="midnightblue" points="153.88,-192.915 164.423,-193.964 156.836,-186.569 153.88,-192.915"/>
</g>
<!-- Node5 -->
<g id="node10" class="node"><title>Node5</title>
<a xlink:href="../../de/d65/class_u_b_thumbnail.html#a951ab00bd0f500a4b7ee908de1f14504" target="_top" xlink:title="UBThumbnail::column">
<polygon fill="white" stroke="black" points="293.5,-170.5 293.5,-191.5 406.5,-191.5 406.5,-170.5 293.5,-170.5"/>
<text text-anchor="middle" x="350" y="-178.5" font-family="Helvetica,sans-Serif" font-size="10.00">UBThumbnail::column</text>
</a>
</g>
<!-- Node1&#45;&gt;Node5 -->
<g id="edge22" class="edge"><title>Node1&#45;&gt;Node5</title>
<path fill="none" stroke="midnightblue" d="M110.141,-150.103C159.154,-156.417 230.935,-165.663 283.193,-172.394"/>
<polygon fill="midnightblue" stroke="midnightblue" points="283.006,-175.899 293.372,-173.705 283.901,-168.957 283.006,-175.899"/>
</g>
<!-- Node6 -->
<g id="node12" class="node"><title>Node6</title>
<a xlink:href="../../d2/d7e/class_u_b_thumbnail_widget.html#ab59ab4e7a37b1c2baa11f0d58f7c6b3a" target="_top" xlink:title="UBThumbnailWidget:\l:selectItems">
<polygon fill="white" stroke="black" points="146,-104 146,-138 256,-138 256,-104 146,-104"/>
<text text-anchor="start" x="154" y="-125" font-family="Helvetica,sans-Serif" font-size="10.00">UBThumbnailWidget:</text>
<text text-anchor="middle" x="201" y="-112" font-family="Helvetica,sans-Serif" font-size="10.00">:selectItems</text>
</a>
</g>
<!-- Node1&#45;&gt;Node6 -->
<g id="edge12" class="edge"><title>Node1&#45;&gt;Node6</title>
<path fill="none" stroke="midnightblue" d="M110.196,-134.683C118.554,-133.423 127.243,-132.114 135.789,-130.826"/>
<polygon fill="midnightblue" stroke="midnightblue" points="136.359,-134.28 145.726,-129.329 135.316,-127.358 136.359,-134.28"/>
</g>
<!-- Node7 -->
<g id="node14" class="node"><title>Node7</title>
<a xlink:href="../../d2/d7e/class_u_b_thumbnail_widget.html#ad8826d4cf4305cbfc37ef4316f80cb04" target="_top" xlink:title="UBThumbnailWidget:\l:selectItemAt">
<polygon fill="white" stroke="black" points="146,-52 146,-86 256,-86 256,-52 146,-52"/>
<text text-anchor="start" x="154" y="-73" font-family="Helvetica,sans-Serif" font-size="10.00">UBThumbnailWidget:</text>
<text text-anchor="middle" x="201" y="-60" font-family="Helvetica,sans-Serif" font-size="10.00">:selectItemAt</text>
</a>
</g>
<!-- Node1&#45;&gt;Node7 -->
<g id="edge14" class="edge"><title>Node1&#45;&gt;Node7</title>
<path fill="none" stroke="midnightblue" d="M86.4103,-125.998C103.864,-116.66 126.028,-104.982 146,-95 148.929,-93.5362 151.955,-92.0457 155.011,-90.5564"/>
<polygon fill="midnightblue" stroke="midnightblue" points="156.721,-93.6175 164.207,-86.1199 153.679,-87.3129 156.721,-93.6175"/>
</g>
<!-- Node11 -->
<g id="node23" class="node"><title>Node11</title>
<a xlink:href="../../d2/d7e/class_u_b_thumbnail_widget.html#a52414095039bc8b4e3e400ba3b22b06c" target="_top" xlink:title="UBThumbnailWidget:\l:selectAll">
<polygon fill="white" stroke="black" points="146,-0 146,-34 256,-34 256,-0 146,-0"/>
<text text-anchor="start" x="154" y="-21" font-family="Helvetica,sans-Serif" font-size="10.00">UBThumbnailWidget:</text>
<text text-anchor="middle" x="201" y="-8" font-family="Helvetica,sans-Serif" font-size="10.00">:selectAll</text>
</a>
</g>
<!-- Node1&#45;&gt;Node11 -->
<g id="edge24" class="edge"><title>Node1&#45;&gt;Node11</title>
<path fill="none" stroke="midnightblue" d="M67.2,-125.898C83.2744,-104.331 113.356,-67.155 146,-43 147.624,-41.7985 149.312,-40.6314 151.046,-39.5003"/>
<polygon fill="midnightblue" stroke="midnightblue" points="153.215,-42.2817 160.009,-34.1518 149.628,-36.2706 153.215,-42.2817"/>
</g>
<!-- Node3 -->
<g id="node5" class="node"><title>Node3</title>
<a xlink:href="../../de/d65/class_u_b_thumbnail.html#a84ed4fea9e8596864ea91e44ef2b554c" target="_top" xlink:title="UBThumbnail::row">
<polygon fill="white" stroke="black" points="301,-226.5 301,-247.5 399,-247.5 399,-226.5 301,-226.5"/>
<text text-anchor="middle" x="350" y="-234.5" font-family="Helvetica,sans-Serif" font-size="10.00">UBThumbnail::row</text>
</a>
</g>
<!-- Node2&#45;&gt;Node3 -->
<g id="edge4" class="edge"><title>Node2&#45;&gt;Node3</title>
<path fill="none" stroke="midnightblue" d="M256.059,-253.392C267.343,-251.423 279.268,-249.342 290.695,-247.349"/>
<polygon fill="midnightblue" stroke="midnightblue" points="291.33,-250.791 300.579,-245.624 290.126,-243.895 291.33,-250.791"/>
</g>
<!-- Node4&#45;&gt;Node3 -->
<g id="edge8" class="edge"><title>Node4&#45;&gt;Node3</title>
<path fill="none" stroke="midnightblue" d="M256.059,-220.608C267.343,-222.577 279.268,-224.658 290.695,-226.651"/>
<polygon fill="midnightblue" stroke="midnightblue" points="290.126,-230.105 300.579,-228.376 291.33,-223.209 290.126,-230.105"/>
</g>
<!-- Node4&#45;&gt;Node5 -->
<g id="edge10" class="edge"><title>Node4&#45;&gt;Node5</title>
<path fill="none" stroke="midnightblue" d="M256.059,-199.914C266.362,-197.84 277.198,-195.658 287.701,-193.543"/>
<polygon fill="midnightblue" stroke="midnightblue" points="288.529,-196.947 297.642,-191.542 287.148,-190.085 288.529,-196.947"/>
</g>
<!-- Node8 -->
<g id="node16" class="node"><title>Node8</title>
<a xlink:href="../../de/d65/class_u_b_thumbnail.html#a21a445699f315e12eddc316ee15ca80d" target="_top" xlink:title="UBThumbnail::label">
<polygon fill="white" stroke="black" points="299,-81.5 299,-102.5 401,-102.5 401,-81.5 299,-81.5"/>
<text text-anchor="middle" x="350" y="-89.5" font-family="Helvetica,sans-Serif" font-size="10.00">UBThumbnail::label</text>
</a>
</g>
<!-- Node7&#45;&gt;Node8 -->
<g id="edge16" class="edge"><title>Node7&#45;&gt;Node8</title>
<path fill="none" stroke="midnightblue" d="M256.059,-77.499C266.613,-79.1282 277.727,-80.8437 288.469,-82.502"/>
<polygon fill="midnightblue" stroke="midnightblue" points="288.208,-86.003 298.625,-84.0696 289.276,-79.0849 288.208,-86.003"/>
</g>
<!-- Node9 -->
<g id="node18" class="node"><title>Node9</title>
<a xlink:href="../../d0/d82/class_u_b_thumbnail_text_item.html#ac74d81b775c7eaa117bb610af2ed6afc" target="_top" xlink:title="UBThumbnailTextItem\l::highlight">
<polygon fill="white" stroke="black" points="292.5,-29 292.5,-63 407.5,-63 407.5,-29 292.5,-29"/>
<text text-anchor="start" x="300.5" y="-50" font-family="Helvetica,sans-Serif" font-size="10.00">UBThumbnailTextItem</text>
<text text-anchor="middle" x="350" y="-37" font-family="Helvetica,sans-Serif" font-size="10.00">::highlight</text>
</a>
</g>
<!-- Node7&#45;&gt;Node9 -->
<g id="edge18" class="edge"><title>Node7&#45;&gt;Node9</title>
<path fill="none" stroke="midnightblue" d="M256.059,-60.501C264.672,-59.1715 273.658,-57.7844 282.51,-56.4178"/>
<polygon fill="midnightblue" stroke="midnightblue" points="283.073,-59.8726 292.422,-54.8879 282.005,-52.9545 283.073,-59.8726"/>
</g>
<!-- Node10 -->
<g id="node20" class="node"><title>Node10</title>
<a xlink:href="../../d0/d82/class_u_b_thumbnail_text_item.html#a6c7bd56033a9597bad9acb56e829b4f6" target="_top" xlink:title="UBThumbnailTextItem\l::computeText">
<polygon fill="white" stroke="black" points="444.5,-29 444.5,-63 559.5,-63 559.5,-29 444.5,-29"/>
<text text-anchor="start" x="452.5" y="-50" font-family="Helvetica,sans-Serif" font-size="10.00">UBThumbnailTextItem</text>
<text text-anchor="middle" x="502" y="-37" font-family="Helvetica,sans-Serif" font-size="10.00">::computeText</text>
</a>
</g>
<!-- Node9&#45;&gt;Node10 -->
<g id="edge20" class="edge"><title>Node9&#45;&gt;Node10</title>
<path fill="none" stroke="midnightblue" d="M407.898,-46C416.461,-46 425.349,-46 434.093,-46"/>
<polygon fill="midnightblue" stroke="midnightblue" points="434.263,-49.5001 444.263,-46 434.263,-42.5001 434.263,-49.5001"/>
</g>
</g>
</svg>
        <g id="navigator" transform="translate(0 0)" fill="#404254">
                <rect fill="#f2f5e9" fill-opacity="0.5" stroke="#606060" stroke-width=".5" x="0" y="0" width="60" height="60"/>
                <use id="zoomplus" xlink:href="#zoomPlus" x="17" y="9" onmousedown="handleZoom(evt,'in')"/>
                <use id="zoomminus" xlink:href="#zoomMin" x="42" y="9" onmousedown="handleZoom(evt,'out')"/>
                <use id="reset" xlink:href="#resetDef" x="30" y="36" onmousedown="handleReset()"/>
                <g id="arrowUp" xlink:href="#dirArrow" transform="translate(30 24)" onmousedown="handlePan(0,-1)">
                  <use xlink:href="#rim" fill="#404040">
                        <set attributeName="fill" to="#808080" begin="arrowUp.mouseover" end="arrowUp.mouseout"/>
                  </use>
                  <path fill="none" stroke="white" stroke-width="1.5" d="M0,-3.0v7 M-2.5,-0.5L0,-3.0L2.5,-0.5"/>
                </g>
                <g id="arrowRight" xlink:href="#dirArrow" transform="rotate(90) translate(36 -43)" onmousedown="handlePan(1,0)">
                  <use xlink:href="#rim" fill="#404040">
                        <set attributeName="fill" to="#808080" begin="arrowRight.mouseover" end="arrowRight.mouseout"/>
                  </use>
                  <path fill="none" stroke="white" stroke-width="1.5" d="M0,-3.0v7 M-2.5,-0.5L0,-3.0L2.5,-0.5"/>
                </g>
                <g id="arrowDown" xlink:href="#dirArrow" transform="rotate(180) translate(-30 -48)" onmousedown="handlePan(0,1)">
                  <use xlink:href="#rim" fill="#404040">
                        <set attributeName="fill" to="#808080" begin="arrowDown.mouseover" end="arrowDown.mouseout"/>
                  </use>
                  <path fill="none" stroke="white" stroke-width="1.5" d="M0,-3.0v7 M-2.5,-0.5L0,-3.0L2.5,-0.5"/>
                </g>
                <g id="arrowLeft" xlink:href="#dirArrow" transform="rotate(270) translate(-36 17)" onmousedown="handlePan(-1,0)">
                  <use xlink:href="#rim" fill="#404040">
                        <set attributeName="fill" to="#808080" begin="arrowLeft.mouseover" end="arrowLeft.mouseout"/>
                  </use>
                  <path fill="none" stroke="white" stroke-width="1.5" d="M0,-3.0v7 M-2.5,-0.5L0,-3.0L2.5,-0.5"/>
                </g>
        </g>
        <svg viewBox="0 0 15 15" width="100%" height="30px" preserveAspectRatio="xMaxYMin meet">
         <g id="arrow_out" transform="scale(0.3 0.3)">
          <a xlink:href="class_u_b_thumbnail_widget_a052d61f5fbeb39ae5f312c4c3ddf94a4_cgraph_org.svg" target="_base">
           <rect id="button" ry="5" rx="5" y="6" x="6" height="38" width="38"
                fill="#f2f5e9" fill-opacity="0.5" stroke="#606060" stroke-width="1.0"/>
           <path id="arrow"
             d="M 11.500037,31.436501 C 11.940474,20.09759 22.043105,11.32322 32.158766,21.979434 L 37.068811,17.246167 C 37.068811,17.246167 37.088388,32 37.088388,32 L 22.160133,31.978069 C 22.160133,31.978069 26.997745,27.140456 26.997745,27.140456 C 18.528582,18.264221 13.291696,25.230495 11.500037,31.436501 z"
             style="fill:#404040;"/>
          </a>
         </g>
        </svg>
</svg>
