<?xml version="1.0" encoding="UTF-8" standalone="no"?>
<!DOCTYPE svg PUBLIC "-//W3C//DTD SVG 1.1//EN"
 "http://www.w3.org/Graphics/SVG/1.1/DTD/svg11.dtd">
<!-- Generated by graphviz version 2.26.3 (20100126.1600)
 -->
<!-- Title: UBThumbnailWidget::focusInEvent Pages: 1 -->
<!--zoomable 151 -->
<svg id="main" version="1.1" xmlns="http://www.w3.org/2000/svg" xmlns:xlink="http://www.w3.org/1999/xlink" xml:space="preserve" onload="init(evt)">
        <defs>
                <circle id="rim" cx="0" cy="0" r="7"/>
                <circle id="rim2" cx="0" cy="0" r="3.5"/>
                <g id="zoomPlus">
                        <use xlink:href="#rim" fill="#404040">
                                <set attributeName="fill" to="#808080" begin="zoomplus.mouseover" end="zoomplus.mouseout"/>
                        </use>
                        <path d="M-4,0h8M0,-4v8" fill="none" stroke="white" stroke-width="1.5" pointer-events="none"/>
                </g>
                <g id="zoomMin">
                        <use xlink:href="#rim" fill="#404040">
                                <set attributeName="fill" to="#808080" begin="zoomminus.mouseover" end="zoomminus.mouseout"/>
                        </use>
                        <path d="M-4,0h8" fill="none" stroke="white" stroke-width="1.5" pointer-events="none"/>
                </g>
                <g id="dirArrow">
                        <path fill="none" stroke="white" stroke-width="1.5" d="M0,-3.0v7 M-2.5,-0.5L0,-3.0L2.5,-0.5"/>
                </g>
               <g id="resetDef">
                       <use xlink:href="#rim2" fill="#404040">
                               <set attributeName="fill" to="#808080" begin="reset.mouseover" end="reset.mouseout"/>
                       </use>
               </g>
        </defs>

<script type="text/javascript">
var viewWidth = 568;
var viewHeight = 151;
var sectionId = 'dynsection-7';
</script>
<script xlink:href="../../svgpan.js"/>
<svg id="graph" class="graph">
<g id="viewport">
<title>UBThumbnailWidget::focusInEvent</title>
<polygon fill="white" stroke="white" points="-4,5 -4,-147 565,-147 565,5 -4,5"/>
<!-- Node1 -->
<g id="node1" class="node"><title>Node1</title>
<polygon fill="#bfbfbf" stroke="black" points="0,-69 0,-103 110,-103 110,-69 0,-69"/>
<text text-anchor="start" x="8" y="-90" font-family="Helvetica,sans-Serif" font-size="10.00">UBThumbnailWidget:</text>
<text text-anchor="middle" x="55" y="-77" font-family="Helvetica,sans-Serif" font-size="10.00">:focusInEvent</text>
</g>
<!-- Node2 -->
<g id="node3" class="node"><title>Node2</title>
<a xlink:href="../../d2/d7e/class_u_b_thumbnail_widget.html#a2ab6d6162aac89e9656d63aa358cdd20" target="_top" xlink:title="UBThumbnailWidget:\l:selectedItems">
<polygon fill="white" stroke="black" points="146,-95 146,-129 256,-129 256,-95 146,-95"/>
<text text-anchor="start" x="154" y="-116" font-family="Helvetica,sans-Serif" font-size="10.00">UBThumbnailWidget:</text>
<text text-anchor="middle" x="201" y="-103" font-family="Helvetica,sans-Serif" font-size="10.00">:selectedItems</text>
</a>
</g>
<!-- Node1&#45;&gt;Node2 -->
<g id="edge2" class="edge"><title>Node1&#45;&gt;Node2</title>
<path fill="none" stroke="midnightblue" d="M110.196,-95.8295C118.554,-97.3179 127.243,-98.8653 135.789,-100.387"/>
<polygon fill="midnightblue" stroke="midnightblue" points="135.267,-103.849 145.726,-102.157 136.494,-96.9575 135.267,-103.849"/>
</g>
<!-- Node6 -->
<g id="node11" class="node"><title>Node6</title>
<a xlink:href="../../d2/d7e/class_u_b_thumbnail_widget.html#ad8826d4cf4305cbfc37ef4316f80cb04" target="_top" xlink:title="UBThumbnailWidget:\l:selectItemAt">
<polygon fill="white" stroke="black" points="146,-43 146,-77 256,-77 256,-43 146,-43"/>
<text text-anchor="start" x="154" y="-64" font-family="Helvetica,sans-Serif" font-size="10.00">UBThumbnailWidget:</text>
<text text-anchor="middle" x="201" y="-51" font-family="Helvetica,sans-Serif" font-size="10.00">:selectItemAt</text>
</a>
</g>
<!-- Node1&#45;&gt;Node6 -->
<g id="edge10" class="edge"><title>Node1&#45;&gt;Node6</title>
<path fill="none" stroke="midnightblue" d="M110.196,-76.1705C118.554,-74.6821 127.243,-73.1347 135.789,-71.613"/>
<polygon fill="midnightblue" stroke="midnightblue" points="136.494,-75.0425 145.726,-69.8434 135.267,-68.1509 136.494,-75.0425"/>
</g>
<!-- Node3 -->
<g id="node5" class="node"><title>Node3</title>
<a xlink:href="../../d2/d7e/class_u_b_thumbnail_widget.html#a516ae146acd6083f74f117a78883130f" target="_top" xlink:title="UBThumbnailWidget:\l:thumbnailLessThan">
<polygon fill="white" stroke="black" points="295,-95 295,-129 405,-129 405,-95 295,-95"/>
<text text-anchor="start" x="303" y="-116" font-family="Helvetica,sans-Serif" font-size="10.00">UBThumbnailWidget:</text>
<text text-anchor="middle" x="350" y="-103" font-family="Helvetica,sans-Serif" font-size="10.00">:thumbnailLessThan</text>
</a>
</g>
<!-- Node2&#45;&gt;Node3 -->
<g id="edge4" class="edge"><title>Node2&#45;&gt;Node3</title>
<path fill="none" stroke="midnightblue" d="M256.059,-112C265.312,-112 274.996,-112 284.483,-112"/>
<polygon fill="midnightblue" stroke="midnightblue" points="284.67,-115.5 294.67,-112 284.67,-108.5 284.67,-115.5"/>
</g>
<!-- Node4 -->
<g id="node7" class="node"><title>Node4</title>
<a xlink:href="../../de/d65/class_u_b_thumbnail.html#a84ed4fea9e8596864ea91e44ef2b554c" target="_top" xlink:title="UBThumbnail::row">
<polygon fill="white" stroke="black" points="453,-121.5 453,-142.5 551,-142.5 551,-121.5 453,-121.5"/>
<text text-anchor="middle" x="502" y="-129.5" font-family="Helvetica,sans-Serif" font-size="10.00">UBThumbnail::row</text>
</a>
</g>
<!-- Node3&#45;&gt;Node4 -->
<g id="edge6" class="edge"><title>Node3&#45;&gt;Node4</title>
<path fill="none" stroke="midnightblue" d="M405.305,-119.277C417.375,-120.865 430.198,-122.552 442.426,-124.161"/>
<polygon fill="midnightblue" stroke="midnightblue" points="442.156,-127.656 452.527,-125.49 443.069,-120.716 442.156,-127.656"/>
</g>
<!-- Node5 -->
<g id="node9" class="node"><title>Node5</title>
<a xlink:href="../../de/d65/class_u_b_thumbnail.html#a951ab00bd0f500a4b7ee908de1f14504" target="_top" xlink:title="UBThumbnail::column">
<polygon fill="white" stroke="black" points="445.5,-81.5 445.5,-102.5 558.5,-102.5 558.5,-81.5 445.5,-81.5"/>
<text text-anchor="middle" x="502" y="-89.5" font-family="Helvetica,sans-Serif" font-size="10.00">UBThumbnail::column</text>
</a>
</g>
<!-- Node3&#45;&gt;Node5 -->
<g id="edge8" class="edge"><title>Node3&#45;&gt;Node5</title>
<path fill="none" stroke="midnightblue" d="M405.305,-104.723C415.11,-103.433 425.411,-102.077 435.487,-100.752"/>
<polygon fill="midnightblue" stroke="midnightblue" points="436.002,-104.214 445.46,-99.4395 435.089,-97.274 436.002,-104.214"/>
</g>
<!-- Node7 -->
<g id="node13" class="node"><title>Node7</title>
<a xlink:href="../../de/d65/class_u_b_thumbnail.html#a21a445699f315e12eddc316ee15ca80d" target="_top" xlink:title="UBThumbnail::label">
<polygon fill="white" stroke="black" points="299,-52.5 299,-73.5 401,-73.5 401,-52.5 299,-52.5"/>
<text text-anchor="middle" x="350" y="-60.5" font-family="Helvetica,sans-Serif" font-size="10.00">UBThumbnail::label</text>
</a>
</g>
<!-- Node6&#45;&gt;Node7 -->
<g id="edge12" class="edge"><title>Node6&#45;&gt;Node7</title>
<path fill="none" stroke="midnightblue" d="M256.059,-61.1086C266.613,-61.3211 277.727,-61.5448 288.469,-61.7611"/>
<polygon fill="midnightblue" stroke="midnightblue" points="288.556,-65.2635 298.625,-61.9656 288.697,-58.2649 288.556,-65.2635"/>
</g>
<!-- Node8 -->
<g id="node15" class="node"><title>Node8</title>
<a xlink:href="../../d0/d82/class_u_b_thumbnail_text_item.html#ac74d81b775c7eaa117bb610af2ed6afc" target="_top" xlink:title="UBThumbnailTextItem\l::highlight">
<polygon fill="white" stroke="black" points="292.5,-0 292.5,-34 407.5,-34 407.5,-0 292.5,-0"/>
<text text-anchor="start" x="300.5" y="-21" font-family="Helvetica,sans-Serif" font-size="10.00">UBThumbnailTextItem</text>
<text text-anchor="middle" x="350" y="-8" font-family="Helvetica,sans-Serif" font-size="10.00">::highlight</text>
</a>
</g>
<!-- Node6&#45;&gt;Node8 -->
<g id="edge14" class="edge"><title>Node6&#45;&gt;Node8</title>
<path fill="none" stroke="midnightblue" d="M256.059,-44.1106C264.765,-41.5982 273.851,-38.9759 282.796,-36.3944"/>
<polygon fill="midnightblue" stroke="midnightblue" points="283.784,-39.7521 292.422,-33.6165 281.843,-33.0266 283.784,-39.7521"/>
</g>
<!-- Node9 -->
<g id="node17" class="node"><title>Node9</title>
<a xlink:href="../../d0/d82/class_u_b_thumbnail_text_item.html#a6c7bd56033a9597bad9acb56e829b4f6" target="_top" xlink:title="UBThumbnailTextItem\l::computeText">
<polygon fill="white" stroke="black" points="444.5,-0 444.5,-34 559.5,-34 559.5,-0 444.5,-0"/>
<text text-anchor="start" x="452.5" y="-21" font-family="Helvetica,sans-Serif" font-size="10.00">UBThumbnailTextItem</text>
<text text-anchor="middle" x="502" y="-8" font-family="Helvetica,sans-Serif" font-size="10.00">::computeText</text>
</a>
</g>
<!-- Node8&#45;&gt;Node9 -->
<g id="edge16" class="edge"><title>Node8&#45;&gt;Node9</title>
<path fill="none" stroke="midnightblue" d="M407.898,-17C416.461,-17 425.349,-17 434.093,-17"/>
<polygon fill="midnightblue" stroke="midnightblue" points="434.263,-20.5001 444.263,-17 434.263,-13.5001 434.263,-20.5001"/>
</g>
</g>
</svg>
        <g id="navigator" transform="translate(0 0)" fill="#404254">
                <rect fill="#f2f5e9" fill-opacity="0.5" stroke="#606060" stroke-width=".5" x="0" y="0" width="60" height="60"/>
                <use id="zoomplus" xlink:href="#zoomPlus" x="17" y="9" onmousedown="handleZoom(evt,'in')"/>
                <use id="zoomminus" xlink:href="#zoomMin" x="42" y="9" onmousedown="handleZoom(evt,'out')"/>
                <use id="reset" xlink:href="#resetDef" x="30" y="36" onmousedown="handleReset()"/>
                <g id="arrowUp" xlink:href="#dirArrow" transform="translate(30 24)" onmousedown="handlePan(0,-1)">
                  <use xlink:href="#rim" fill="#404040">
                        <set attributeName="fill" to="#808080" begin="arrowUp.mouseover" end="arrowUp.mouseout"/>
                  </use>
                  <path fill="none" stroke="white" stroke-width="1.5" d="M0,-3.0v7 M-2.5,-0.5L0,-3.0L2.5,-0.5"/>
                </g>
                <g id="arrowRight" xlink:href="#dirArrow" transform="rotate(90) translate(36 -43)" onmousedown="handlePan(1,0)">
                  <use xlink:href="#rim" fill="#404040">
                        <set attributeName="fill" to="#808080" begin="arrowRight.mouseover" end="arrowRight.mouseout"/>
                  </use>
                  <path fill="none" stroke="white" stroke-width="1.5" d="M0,-3.0v7 M-2.5,-0.5L0,-3.0L2.5,-0.5"/>
                </g>
                <g id="arrowDown" xlink:href="#dirArrow" transform="rotate(180) translate(-30 -48)" onmousedown="handlePan(0,1)">
                  <use xlink:href="#rim" fill="#404040">
                        <set attributeName="fill" to="#808080" begin="arrowDown.mouseover" end="arrowDown.mouseout"/>
                  </use>
                  <path fill="none" stroke="white" stroke-width="1.5" d="M0,-3.0v7 M-2.5,-0.5L0,-3.0L2.5,-0.5"/>
                </g>
                <g id="arrowLeft" xlink:href="#dirArrow" transform="rotate(270) translate(-36 17)" onmousedown="handlePan(-1,0)">
                  <use xlink:href="#rim" fill="#404040">
                        <set attributeName="fill" to="#808080" begin="arrowLeft.mouseover" end="arrowLeft.mouseout"/>
                  </use>
                  <path fill="none" stroke="white" stroke-width="1.5" d="M0,-3.0v7 M-2.5,-0.5L0,-3.0L2.5,-0.5"/>
                </g>
        </g>
        <svg viewBox="0 0 15 15" width="100%" height="30px" preserveAspectRatio="xMaxYMin meet">
         <g id="arrow_out" transform="scale(0.3 0.3)">
          <a xlink:href="class_u_b_thumbnail_widget_a277497abe2368939b696093d96cff9ff_cgraph_org.svg" target="_base">
           <rect id="button" ry="5" rx="5" y="6" x="6" height="38" width="38"
                fill="#f2f5e9" fill-opacity="0.5" stroke="#606060" stroke-width="1.0"/>
           <path id="arrow"
             d="M 11.500037,31.436501 C 11.940474,20.09759 22.043105,11.32322 32.158766,21.979434 L 37.068811,17.246167 C 37.068811,17.246167 37.088388,32 37.088388,32 L 22.160133,31.978069 C 22.160133,31.978069 26.997745,27.140456 26.997745,27.140456 C 18.528582,18.264221 13.291696,25.230495 11.500037,31.436501 z"
             style="fill:#404040;"/>
          </a>
         </g>
        </svg>
</svg>
