<?xml version="1.0" encoding="UTF-8" standalone="no"?>
<!DOCTYPE svg PUBLIC "-//W3C//DTD SVG 1.1//EN"
 "http://www.w3.org/Graphics/SVG/1.1/DTD/svg11.dtd">
<!-- Generated by graphviz version 2.26.3 (20100126.1600)
 -->
<!-- Title: merge_lib::RotationHandler::_processObjectContent Pages: 1 -->
<svg width="338pt" height="134pt"
 viewBox="0.00 0.00 338.00 134.00" xmlns="http://www.w3.org/2000/svg" xmlns:xlink="http://www.w3.org/1999/xlink">
<g id="graph1" class="graph" transform="scale(1 1) rotate(0) translate(4 130)">
<title>merge_lib::RotationHandler::_processObjectContent</title>
<polygon fill="white" stroke="white" points="-4,5 -4,-130 335,-130 335,5 -4,5"/>
<!-- Node1 -->
<g id="node1" class="node"><title>Node1</title>
<polygon fill="#bfbfbf" stroke="black" points="0.5,-40 0.5,-74 135.5,-74 135.5,-40 0.5,-40"/>
<text text-anchor="start" x="8.5" y="-61" font-family="Helvetica,sans-Serif" font-size="10.00">merge_lib::RotationHandler</text>
<text text-anchor="middle" x="68" y="-48" font-family="Helvetica,sans-Serif" font-size="10.00">::_processObjectContent</text>
</g>
<!-- Node2 -->
<g id="node3" class="node"><title>Node2</title>
<a xlink:href="../../da/d91/classmerge__lib_1_1_page_element_handler.html#a2164e57a4264777fa75b091967c2cb23" target="_top" xlink:title="merge_lib::PageElementHandler\l::_findEndOfElementContent">
<polygon fill="white" stroke="black" points="172.5,-92 172.5,-126 329.5,-126 329.5,-92 172.5,-92"/>
<text text-anchor="start" x="180.5" y="-113" font-family="Helvetica,sans-Serif" font-size="10.00">merge_lib::PageElementHandler</text>
<text text-anchor="middle" x="251" y="-100" font-family="Helvetica,sans-Serif" font-size="10.00">::_findEndOfElementContent</text>
</a>
</g>
<!-- Node1&#45;&gt;Node2 -->
<g id="edge2" class="edge"><title>Node1&#45;&gt;Node2</title>
<path fill="none" stroke="midnightblue" d="M127.921,-74.0267C144.984,-78.8752 163.716,-84.1981 181.307,-89.1965"/>
<polygon fill="midnightblue" stroke="midnightblue" points="180.368,-92.5683 190.944,-91.935 182.282,-85.8349 180.368,-92.5683"/>
</g>
<!-- Node3 -->
<g id="node5" class="node"><title>Node3</title>
<a xlink:href="../../d7/df1/classmerge__lib_1_1_object.html#ad441291610e8d87698139463d2a27d21" target="_top" xlink:title="merge_lib::Object:\l:getObjectContent">
<polygon fill="white" stroke="black" points="203,-40 203,-74 299,-74 299,-40 203,-40"/>
<text text-anchor="start" x="211" y="-61" font-family="Helvetica,sans-Serif" font-size="10.00">merge_lib::Object:</text>
<text text-anchor="middle" x="251" y="-48" font-family="Helvetica,sans-Serif" font-size="10.00">:getObjectContent</text>
</a>
</g>
<!-- Node1&#45;&gt;Node3 -->
<g id="edge4" class="edge"><title>Node1&#45;&gt;Node3</title>
<path fill="none" stroke="midnightblue" d="M135.623,-57C154.349,-57 174.51,-57 192.659,-57"/>
<polygon fill="midnightblue" stroke="midnightblue" points="192.798,-60.5001 202.798,-57 192.798,-53.5001 192.798,-60.5001"/>
</g>
<!-- Node4 -->
<g id="node7" class="node"><title>Node4</title>
<a xlink:href="../../db/d32/classmerge__lib_1_1_page.html#ae68588d9882b3cdec7e46650c0de6111" target="_top" xlink:title="merge_lib::Page::setRotation">
<polygon fill="white" stroke="black" points="179.5,-0.5 179.5,-21.5 322.5,-21.5 322.5,-0.5 179.5,-0.5"/>
<text text-anchor="middle" x="251" y="-8.5" font-family="Helvetica,sans-Serif" font-size="10.00">merge_lib::Page::setRotation</text>
</a>
</g>
<!-- Node1&#45;&gt;Node4 -->
<g id="edge6" class="edge"><title>Node1&#45;&gt;Node4</title>
<path fill="none" stroke="midnightblue" d="M135.623,-40.002C156.701,-34.7036 179.597,-28.9483 199.394,-23.9719"/>
<polygon fill="midnightblue" stroke="midnightblue" points="200.295,-27.3545 209.14,-21.5222 198.588,-20.5657 200.295,-27.3545"/>
</g>
</g>
</svg>
