<?xml version="1.0" encoding="UTF-8" standalone="no"?>
<!DOCTYPE svg PUBLIC "-//W3C//DTD SVG 1.1//EN"
 "http://www.w3.org/Graphics/SVG/1.1/DTD/svg11.dtd">
<!-- Generated by graphviz version 2.26.3 (20100126.1600)
 -->
<!-- Title: UBGraphicsGroupContainerItemDelegate::mousePressEvent Pages: 1 -->
<!--zoomable 250 -->
<svg id="main" version="1.1" xmlns="http://www.w3.org/2000/svg" xmlns:xlink="http://www.w3.org/1999/xlink" xml:space="preserve" onload="init(evt)">
        <defs>
                <circle id="rim" cx="0" cy="0" r="7"/>
                <circle id="rim2" cx="0" cy="0" r="3.5"/>
                <g id="zoomPlus">
                        <use xlink:href="#rim" fill="#404040">
                                <set attributeName="fill" to="#808080" begin="zoomplus.mouseover" end="zoomplus.mouseout"/>
                        </use>
                        <path d="M-4,0h8M0,-4v8" fill="none" stroke="white" stroke-width="1.5" pointer-events="none"/>
                </g>
                <g id="zoomMin">
                        <use xlink:href="#rim" fill="#404040">
                                <set attributeName="fill" to="#808080" begin="zoomminus.mouseover" end="zoomminus.mouseout"/>
                        </use>
                        <path d="M-4,0h8" fill="none" stroke="white" stroke-width="1.5" pointer-events="none"/>
                </g>
                <g id="dirArrow">
                        <path fill="none" stroke="white" stroke-width="1.5" d="M0,-3.0v7 M-2.5,-0.5L0,-3.0L2.5,-0.5"/>
                </g>
               <g id="resetDef">
                       <use xlink:href="#rim2" fill="#404040">
                               <set attributeName="fill" to="#808080" begin="reset.mouseover" end="reset.mouseout"/>
                       </use>
               </g>
        </defs>

<script type="text/javascript">
var viewWidth = 514;
var viewHeight = 250;
var sectionId = 'dynsection-5';
</script>
<script xlink:href="../../svgpan.js"/>
<svg id="graph" class="graph">
<g id="viewport">
<title>UBGraphicsGroupContainerItemDelegate::mousePressEvent</title>
<polygon fill="white" stroke="white" points="-4,5 -4,-246 511,-246 511,5 -4,5"/>
<!-- Node1 -->
<g id="node1" class="node"><title>Node1</title>
<polygon fill="#bfbfbf" stroke="black" points="0.5,-104 0.5,-138 161.5,-138 161.5,-104 0.5,-104"/>
<text text-anchor="start" x="8.5" y="-125" font-family="Helvetica,sans-Serif" font-size="10.00">UBGraphicsGroupContainer</text>
<text text-anchor="middle" x="81" y="-112" font-family="Helvetica,sans-Serif" font-size="10.00">ItemDelegate::mousePressEvent</text>
</g>
<!-- Node2 -->
<g id="node3" class="node"><title>Node2</title>
<a xlink:href="../../d1/d6a/class_u_b_graphics_group_container_item_delegate.html#a991387e40043f6ec5b6ce602d5300b0f" target="_top" xlink:title="UBGraphicsGroupContainer\lItemDelegate::delegated">
<polygon fill="white" stroke="black" points="198,-208 198,-242 336,-242 336,-208 198,-208"/>
<text text-anchor="start" x="206" y="-229" font-family="Helvetica,sans-Serif" font-size="10.00">UBGraphicsGroupContainer</text>
<text text-anchor="middle" x="267" y="-216" font-family="Helvetica,sans-Serif" font-size="10.00">ItemDelegate::delegated</text>
</a>
</g>
<!-- Node1&#45;&gt;Node2 -->
<g id="edge2" class="edge"><title>Node1&#45;&gt;Node2</title>
<path fill="none" stroke="midnightblue" d="M103.359,-138.155C126.234,-155.155 163.249,-181.165 198,-199 201.267,-200.677 204.669,-202.304 208.133,-203.873"/>
<polygon fill="midnightblue" stroke="midnightblue" points="206.835,-207.124 217.403,-207.878 209.611,-200.699 206.835,-207.124"/>
</g>
<!-- Node3 -->
<g id="node5" class="node"><title>Node3</title>
<a xlink:href="../../de/d93/class_u_b_graphics_group_container_item.html#a162cb637cd3d001612aff2ac301809cb" target="_top" xlink:title="UBGraphicsGroupContainer\lItem::deselectCurrentItem">
<polygon fill="white" stroke="black" points="198,-156 198,-190 336,-190 336,-156 198,-156"/>
<text text-anchor="start" x="206" y="-177" font-family="Helvetica,sans-Serif" font-size="10.00">UBGraphicsGroupContainer</text>
<text text-anchor="middle" x="267" y="-164" font-family="Helvetica,sans-Serif" font-size="10.00">Item::deselectCurrentItem</text>
</a>
</g>
<!-- Node1&#45;&gt;Node3 -->
<g id="edge4" class="edge"><title>Node1&#45;&gt;Node3</title>
<path fill="none" stroke="midnightblue" d="M141.903,-138.027C159.246,-142.875 178.285,-148.198 196.165,-153.197"/>
<polygon fill="midnightblue" stroke="midnightblue" points="195.387,-156.613 205.96,-155.935 197.271,-149.872 195.387,-156.613"/>
</g>
<!-- Node6 -->
<g id="node11" class="node"><title>Node6</title>
<a xlink:href="../../d0/d58/class_u_b_drawing_controller.html#a9d2d10417806a2d7303df24b820f2ab3" target="_top" xlink:title="UBDrawingController\l::drawingController">
<polygon fill="white" stroke="black" points="212.5,-104 212.5,-138 321.5,-138 321.5,-104 212.5,-104"/>
<text text-anchor="start" x="220.5" y="-125" font-family="Helvetica,sans-Serif" font-size="10.00">UBDrawingController</text>
<text text-anchor="middle" x="267" y="-112" font-family="Helvetica,sans-Serif" font-size="10.00">::drawingController</text>
</a>
</g>
<!-- Node1&#45;&gt;Node6 -->
<g id="edge10" class="edge"><title>Node1&#45;&gt;Node6</title>
<path fill="none" stroke="midnightblue" d="M161.501,-121C175.058,-121 188.976,-121 202.075,-121"/>
<polygon fill="midnightblue" stroke="midnightblue" points="202.381,-124.5 212.381,-121 202.381,-117.5 202.381,-124.5"/>
</g>
<!-- Node7 -->
<g id="node13" class="node"><title>Node7</title>
<a xlink:href="../../d0/d58/class_u_b_drawing_controller.html#a244d6a9a4638309428bcf0c29531b872" target="_top" xlink:title="UBDrawingController\l::stylusTool">
<polygon fill="white" stroke="black" points="212.5,-52 212.5,-86 321.5,-86 321.5,-52 212.5,-52"/>
<text text-anchor="start" x="220.5" y="-73" font-family="Helvetica,sans-Serif" font-size="10.00">UBDrawingController</text>
<text text-anchor="middle" x="267" y="-60" font-family="Helvetica,sans-Serif" font-size="10.00">::stylusTool</text>
</a>
</g>
<!-- Node1&#45;&gt;Node7 -->
<g id="edge12" class="edge"><title>Node1&#45;&gt;Node7</title>
<path fill="none" stroke="midnightblue" d="M141.903,-103.973C161.299,-98.5507 182.818,-92.5347 202.462,-87.0428"/>
<polygon fill="midnightblue" stroke="midnightblue" points="203.551,-90.3728 212.239,-84.3095 201.666,-83.6313 203.551,-90.3728"/>
</g>
<!-- Node8 -->
<g id="node15" class="node"><title>Node8</title>
<a xlink:href="../../dd/dfb/class_u_b_graphics_item_action.html#a20f6321da9c93720ed36426693be51c5" target="_top" xlink:title="UBGraphicsItemAction\l::play">
<polygon fill="white" stroke="black" points="208.5,-0 208.5,-34 325.5,-34 325.5,-0 208.5,-0"/>
<text text-anchor="start" x="216.5" y="-21" font-family="Helvetica,sans-Serif" font-size="10.00">UBGraphicsItemAction</text>
<text text-anchor="middle" x="267" y="-8" font-family="Helvetica,sans-Serif" font-size="10.00">::play</text>
</a>
</g>
<!-- Node1&#45;&gt;Node8 -->
<g id="edge14" class="edge"><title>Node1&#45;&gt;Node8</title>
<path fill="none" stroke="midnightblue" d="M103.359,-103.845C126.234,-86.8452 163.249,-60.8352 198,-43 201.267,-41.3231 204.669,-39.6956 208.133,-38.1274"/>
<polygon fill="midnightblue" stroke="midnightblue" points="209.611,-41.3015 217.403,-34.1217 206.835,-34.8758 209.611,-41.3015"/>
</g>
<!-- Node4 -->
<g id="node7" class="node"><title>Node4</title>
<a xlink:href="../../d3/dbd/class_u_b_graphics_item.html#ac8a143db621d9be68be5f3c9da0f1405" target="_top" xlink:title="UBGraphicsItem::Delegate">
<polygon fill="white" stroke="black" points="372,-185.5 372,-206.5 506,-206.5 506,-185.5 372,-185.5"/>
<text text-anchor="middle" x="439" y="-193.5" font-family="Helvetica,sans-Serif" font-size="10.00">UBGraphicsItem::Delegate</text>
</a>
</g>
<!-- Node3&#45;&gt;Node4 -->
<g id="edge6" class="edge"><title>Node3&#45;&gt;Node4</title>
<path fill="none" stroke="midnightblue" d="M336.463,-182.289C344.749,-183.397 353.247,-184.533 361.635,-185.655"/>
<polygon fill="midnightblue" stroke="midnightblue" points="361.414,-189.156 371.789,-187.013 362.341,-182.218 361.414,-189.156"/>
</g>
<!-- Node5 -->
<g id="node9" class="node"><title>Node5</title>
<a xlink:href="../../dd/dd5/class_u_b_graphics_item_delegate.html#af64a99fb8ca196adcd2d7c1aacedb562" target="_top" xlink:title="UBGraphicsItemDelegate\l::getToolBarItem">
<polygon fill="white" stroke="black" points="375,-133 375,-167 503,-167 503,-133 375,-133"/>
<text text-anchor="start" x="383" y="-154" font-family="Helvetica,sans-Serif" font-size="10.00">UBGraphicsItemDelegate</text>
<text text-anchor="middle" x="439" y="-141" font-family="Helvetica,sans-Serif" font-size="10.00">::getToolBarItem</text>
</a>
</g>
<!-- Node3&#45;&gt;Node5 -->
<g id="edge8" class="edge"><title>Node3&#45;&gt;Node5</title>
<path fill="none" stroke="midnightblue" d="M336.463,-163.711C345.775,-162.466 355.356,-161.185 364.746,-159.929"/>
<polygon fill="midnightblue" stroke="midnightblue" points="365.391,-163.374 374.839,-158.58 364.463,-156.436 365.391,-163.374"/>
</g>
</g>
</svg>
        <g id="navigator" transform="translate(0 0)" fill="#404254">
                <rect fill="#f2f5e9" fill-opacity="0.5" stroke="#606060" stroke-width=".5" x="0" y="0" width="60" height="60"/>
                <use id="zoomplus" xlink:href="#zoomPlus" x="17" y="9" onmousedown="handleZoom(evt,'in')"/>
                <use id="zoomminus" xlink:href="#zoomMin" x="42" y="9" onmousedown="handleZoom(evt,'out')"/>
                <use id="reset" xlink:href="#resetDef" x="30" y="36" onmousedown="handleReset()"/>
                <g id="arrowUp" xlink:href="#dirArrow" transform="translate(30 24)" onmousedown="handlePan(0,-1)">
                  <use xlink:href="#rim" fill="#404040">
                        <set attributeName="fill" to="#808080" begin="arrowUp.mouseover" end="arrowUp.mouseout"/>
                  </use>
                  <path fill="none" stroke="white" stroke-width="1.5" d="M0,-3.0v7 M-2.5,-0.5L0,-3.0L2.5,-0.5"/>
                </g>
                <g id="arrowRight" xlink:href="#dirArrow" transform="rotate(90) translate(36 -43)" onmousedown="handlePan(1,0)">
                  <use xlink:href="#rim" fill="#404040">
                        <set attributeName="fill" to="#808080" begin="arrowRight.mouseover" end="arrowRight.mouseout"/>
                  </use>
                  <path fill="none" stroke="white" stroke-width="1.5" d="M0,-3.0v7 M-2.5,-0.5L0,-3.0L2.5,-0.5"/>
                </g>
                <g id="arrowDown" xlink:href="#dirArrow" transform="rotate(180) translate(-30 -48)" onmousedown="handlePan(0,1)">
                  <use xlink:href="#rim" fill="#404040">
                        <set attributeName="fill" to="#808080" begin="arrowDown.mouseover" end="arrowDown.mouseout"/>
                  </use>
                  <path fill="none" stroke="white" stroke-width="1.5" d="M0,-3.0v7 M-2.5,-0.5L0,-3.0L2.5,-0.5"/>
                </g>
                <g id="arrowLeft" xlink:href="#dirArrow" transform="rotate(270) translate(-36 17)" onmousedown="handlePan(-1,0)">
                  <use xlink:href="#rim" fill="#404040">
                        <set attributeName="fill" to="#808080" begin="arrowLeft.mouseover" end="arrowLeft.mouseout"/>
                  </use>
                  <path fill="none" stroke="white" stroke-width="1.5" d="M0,-3.0v7 M-2.5,-0.5L0,-3.0L2.5,-0.5"/>
                </g>
        </g>
        <svg viewBox="0 0 15 15" width="100%" height="30px" preserveAspectRatio="xMaxYMin meet">
         <g id="arrow_out" transform="scale(0.3 0.3)">
          <a xlink:href="class_u_b_graphics_group_container_item_delegate_a0eef4acf8124b18a6f495402188dbefc_cgraph_org.svg" target="_base">
           <rect id="button" ry="5" rx="5" y="6" x="6" height="38" width="38"
                fill="#f2f5e9" fill-opacity="0.5" stroke="#606060" stroke-width="1.0"/>
           <path id="arrow"
             d="M 11.500037,31.436501 C 11.940474,20.09759 22.043105,11.32322 32.158766,21.979434 L 37.068811,17.246167 C 37.068811,17.246167 37.088388,32 37.088388,32 L 22.160133,31.978069 C 22.160133,31.978069 26.997745,27.140456 26.997745,27.140456 C 18.528582,18.264221 13.291696,25.230495 11.500037,31.436501 z"
             style="fill:#404040;"/>
          </a>
         </g>
        </svg>
</svg>
