<?xml version="1.0" encoding="UTF-8" standalone="no"?>
<!DOCTYPE svg PUBLIC "-//W3C//DTD SVG 1.1//EN"
 "http://www.w3.org/Graphics/SVG/1.1/DTD/svg11.dtd">
<!-- Generated by graphviz version 2.26.3 (20100126.1600)
 -->
<!-- Title: UBGraphicsGroupContainerItemDelegate::saveAction Pages: 1 -->
<svg width="492pt" height="160pt"
 viewBox="0.00 0.00 492.00 160.00" xmlns="http://www.w3.org/2000/svg" xmlns:xlink="http://www.w3.org/1999/xlink">
<g id="graph1" class="graph" transform="scale(1 1) rotate(0) translate(4 156)">
<title>UBGraphicsGroupContainerItemDelegate::saveAction</title>
<polygon fill="white" stroke="white" points="-4,5 -4,-156 489,-156 489,5 -4,5"/>
<!-- Node1 -->
<g id="node1" class="node"><title>Node1</title>
<polygon fill="#bfbfbf" stroke="black" points="0,-66 0,-100 138,-100 138,-66 0,-66"/>
<text text-anchor="start" x="8" y="-87" font-family="Helvetica,sans-Serif" font-size="10.00">UBGraphicsGroupContainer</text>
<text text-anchor="middle" x="69" y="-74" font-family="Helvetica,sans-Serif" font-size="10.00">ItemDelegate::saveAction</text>
</g>
<!-- Node2 -->
<g id="node3" class="node"><title>Node2</title>
<a xlink:href="../../dd/dd5/class_u_b_graphics_item_delegate.html#ade01e0b179b501cc1c60451cbba96035" target="_top" xlink:title="UBGraphicsItemDelegate\l::action">
<polygon fill="white" stroke="black" points="188,-118 188,-152 316,-152 316,-118 188,-118"/>
<text text-anchor="start" x="196" y="-139" font-family="Helvetica,sans-Serif" font-size="10.00">UBGraphicsItemDelegate</text>
<text text-anchor="middle" x="252" y="-126" font-family="Helvetica,sans-Serif" font-size="10.00">::action</text>
</a>
</g>
<!-- Node1&#45;&gt;Node2 -->
<g id="edge2" class="edge"><title>Node1&#45;&gt;Node2</title>
<path fill="none" stroke="midnightblue" d="M128.921,-100.027C145.984,-104.875 164.716,-110.198 182.307,-115.197"/>
<polygon fill="midnightblue" stroke="midnightblue" points="181.368,-118.568 191.944,-117.935 183.282,-111.835 181.368,-118.568"/>
</g>
<!-- Node3 -->
<g id="node5" class="node"><title>Node3</title>
<a xlink:href="../../dd/dfb/class_u_b_graphics_item_action.html#a77a5fe1adb68432afba1d5136a10998c" target="_top" xlink:title="UBGraphicsItemAction\l::linkType">
<polygon fill="white" stroke="black" points="193.5,-66 193.5,-100 310.5,-100 310.5,-66 193.5,-66"/>
<text text-anchor="start" x="201.5" y="-87" font-family="Helvetica,sans-Serif" font-size="10.00">UBGraphicsItemAction</text>
<text text-anchor="middle" x="252" y="-74" font-family="Helvetica,sans-Serif" font-size="10.00">::linkType</text>
</a>
</g>
<!-- Node1&#45;&gt;Node3 -->
<g id="edge4" class="edge"><title>Node1&#45;&gt;Node3</title>
<path fill="none" stroke="midnightblue" d="M138.184,-83C152.987,-83 168.62,-83 183.4,-83"/>
<polygon fill="midnightblue" stroke="midnightblue" points="183.476,-86.5001 193.476,-83 183.476,-79.5001 183.476,-86.5001"/>
</g>
<!-- Node4 -->
<g id="node7" class="node"><title>Node4</title>
<a xlink:href="../../d1/d6a/class_u_b_graphics_group_container_item_delegate.html#aeeb2c2fd3464c1ee0a6775b530f72d05" target="_top" xlink:title="UBGraphicsGroupContainer\lItemDelegate::onRemoveAction\lClicked">
<polygon fill="white" stroke="black" points="174,-0.5 174,-47.5 330,-47.5 330,-0.5 174,-0.5"/>
<text text-anchor="start" x="182" y="-34.5" font-family="Helvetica,sans-Serif" font-size="10.00">UBGraphicsGroupContainer</text>
<text text-anchor="start" x="182" y="-21.5" font-family="Helvetica,sans-Serif" font-size="10.00">ItemDelegate::onRemoveAction</text>
<text text-anchor="middle" x="252" y="-8.5" font-family="Helvetica,sans-Serif" font-size="10.00">Clicked</text>
</a>
</g>
<!-- Node1&#45;&gt;Node4 -->
<g id="edge6" class="edge"><title>Node1&#45;&gt;Node4</title>
<path fill="none" stroke="midnightblue" d="M121.931,-65.9348C136.705,-61.1717 153.12,-55.8793 169.176,-50.7028"/>
<polygon fill="midnightblue" stroke="midnightblue" points="170.665,-53.9002 179.109,-47.5005 168.517,-47.2379 170.665,-53.9002"/>
</g>
<!-- Node5 -->
<g id="node9" class="node"><title>Node5</title>
<a xlink:href="../../dd/dfb/class_u_b_graphics_item_action.html#ac4585fac2807289c85e56c79f0ba6b08" target="_top" xlink:title="UBGraphicsItemAction\l::actionRemoved">
<polygon fill="white" stroke="black" points="366.5,-7 366.5,-41 483.5,-41 483.5,-7 366.5,-7"/>
<text text-anchor="start" x="374.5" y="-28" font-family="Helvetica,sans-Serif" font-size="10.00">UBGraphicsItemAction</text>
<text text-anchor="middle" x="425" y="-15" font-family="Helvetica,sans-Serif" font-size="10.00">::actionRemoved</text>
</a>
</g>
<!-- Node4&#45;&gt;Node5 -->
<g id="edge8" class="edge"><title>Node4&#45;&gt;Node5</title>
<path fill="none" stroke="midnightblue" d="M330.149,-24C338.807,-24 347.577,-24 356.109,-24"/>
<polygon fill="midnightblue" stroke="midnightblue" points="356.374,-27.5001 366.374,-24 356.373,-20.5001 356.374,-27.5001"/>
</g>
</g>
</svg>
