<?xml version="1.0" encoding="UTF-8" standalone="no"?>
<!DOCTYPE svg PUBLIC "-//W3C//DTD SVG 1.1//EN"
 "http://www.w3.org/Graphics/SVG/1.1/DTD/svg11.dtd">
<!-- Generated by graphviz version 2.26.3 (20100126.1600)
 -->
<!-- Title: UBGraphicsGroupContainerItemDelegate::setAction Pages: 1 -->
<svg width="298pt" height="56pt"
 viewBox="0.00 0.00 298.00 56.00" xmlns="http://www.w3.org/2000/svg" xmlns:xlink="http://www.w3.org/1999/xlink">
<g id="graph1" class="graph" transform="scale(1 1) rotate(0) translate(4 52)">
<title>UBGraphicsGroupContainerItemDelegate::setAction</title>
<polygon fill="white" stroke="white" points="-4,5 -4,-52 295,-52 295,5 -4,5"/>
<!-- Node1 -->
<g id="node1" class="node"><title>Node1</title>
<polygon fill="#bfbfbf" stroke="black" points="0,-7 0,-41 138,-41 138,-7 0,-7"/>
<text text-anchor="start" x="8" y="-28" font-family="Helvetica,sans-Serif" font-size="10.00">UBGraphicsGroupContainer</text>
<text text-anchor="middle" x="69" y="-15" font-family="Helvetica,sans-Serif" font-size="10.00">ItemDelegate::setAction</text>
</g>
<!-- Node2 -->
<g id="node3" class="node"><title>Node2</title>
<a xlink:href="../../d8/d4f/class_u_b_svg_subset_adaptor_1_1_u_b_svg_subset_reader.html#a6c4422f549929bc8e5503d9dc161b005" target="_top" xlink:title="UBSvgSubsetAdaptor\l::UBSvgSubsetReader\l::readGroup">
<polygon fill="white" stroke="black" points="174,-0.5 174,-47.5 290,-47.5 290,-0.5 174,-0.5"/>
<text text-anchor="start" x="182" y="-34.5" font-family="Helvetica,sans-Serif" font-size="10.00">UBSvgSubsetAdaptor</text>
<text text-anchor="start" x="182" y="-21.5" font-family="Helvetica,sans-Serif" font-size="10.00">::UBSvgSubsetReader</text>
<text text-anchor="middle" x="232" y="-8.5" font-family="Helvetica,sans-Serif" font-size="10.00">::readGroup</text>
</a>
</g>
<!-- Node1&#45;&gt;Node2 -->
<g id="edge2" class="edge"><title>Node1&#45;&gt;Node2</title>
<path fill="none" stroke="midnightblue" d="M148.219,-24C156.849,-24 165.513,-24 173.824,-24"/>
<polygon fill="midnightblue" stroke="midnightblue" points="148.127,-20.5001 138.127,-24 148.127,-27.5001 148.127,-20.5001"/>
</g>
</g>
</svg>
