<?xml version="1.0" encoding="UTF-8" standalone="no"?>
<!DOCTYPE svg PUBLIC "-//W3C//DTD SVG 1.1//EN"
 "http://www.w3.org/Graphics/SVG/1.1/DTD/svg11.dtd">
<!-- Generated by graphviz version 2.26.3 (20100126.1600)
 -->
<!-- Title: UBGraphicsScene::addGroup Pages: 1 -->
<!--zoomable 145 -->
<svg id="main" version="1.1" xmlns="http://www.w3.org/2000/svg" xmlns:xlink="http://www.w3.org/1999/xlink" xml:space="preserve" onload="init(evt)">
        <defs>
                <circle id="rim" cx="0" cy="0" r="7"/>
                <circle id="rim2" cx="0" cy="0" r="3.5"/>
                <g id="zoomPlus">
                        <use xlink:href="#rim" fill="#404040">
                                <set attributeName="fill" to="#808080" begin="zoomplus.mouseover" end="zoomplus.mouseout"/>
                        </use>
                        <path d="M-4,0h8M0,-4v8" fill="none" stroke="white" stroke-width="1.5" pointer-events="none"/>
                </g>
                <g id="zoomMin">
                        <use xlink:href="#rim" fill="#404040">
                                <set attributeName="fill" to="#808080" begin="zoomminus.mouseover" end="zoomminus.mouseout"/>
                        </use>
                        <path d="M-4,0h8" fill="none" stroke="white" stroke-width="1.5" pointer-events="none"/>
                </g>
                <g id="dirArrow">
                        <path fill="none" stroke="white" stroke-width="1.5" d="M0,-3.0v7 M-2.5,-0.5L0,-3.0L2.5,-0.5"/>
                </g>
               <g id="resetDef">
                       <use xlink:href="#rim2" fill="#404040">
                               <set attributeName="fill" to="#808080" begin="reset.mouseover" end="reset.mouseout"/>
                       </use>
               </g>
        </defs>

<script type="text/javascript">
var viewWidth = 522;
var viewHeight = 145;
var sectionId = 'dynsection-16';
</script>
<script xlink:href="../../svgpan.js"/>
<svg id="graph" class="graph">
<g id="viewport">
<title>UBGraphicsScene::addGroup</title>
<polygon fill="white" stroke="white" points="-4,5 -4,-141 519,-141 519,5 -4,5"/>
<!-- Node1 -->
<g id="node1" class="node"><title>Node1</title>
<polygon fill="#bfbfbf" stroke="black" points="0,-52.5 0,-73.5 146,-73.5 146,-52.5 0,-52.5"/>
<text text-anchor="middle" x="73" y="-60.5" font-family="Helvetica,sans-Serif" font-size="10.00">UBGraphicsScene::addGroup</text>
</g>
<!-- Node2 -->
<g id="node3" class="node"><title>Node2</title>
<a xlink:href="../../dc/db2/class_u_b_graphics_scene.html#a546b3015e60c63f2ef0e72fed5e4eb35" target="_top" xlink:title="UBGraphicsScene::addItem">
<polygon fill="white" stroke="black" points="182.5,-92.5 182.5,-113.5 321.5,-113.5 321.5,-92.5 182.5,-92.5"/>
<text text-anchor="middle" x="252" y="-100.5" font-family="Helvetica,sans-Serif" font-size="10.00">UBGraphicsScene::addItem</text>
</a>
</g>
<!-- Node1&#45;&gt;Node2 -->
<g id="edge2" class="edge"><title>Node1&#45;&gt;Node2</title>
<path fill="none" stroke="midnightblue" d="M120.03,-73.5095C143.063,-78.6566 170.982,-84.8954 195.198,-90.3067"/>
<polygon fill="midnightblue" stroke="midnightblue" points="194.451,-93.7261 204.974,-92.4913 195.978,-86.8946 194.451,-93.7261"/>
</g>
<!-- Node5 -->
<g id="node9" class="node"><title>Node5</title>
<a xlink:href="../../d8/d1e/class_u_b_item.html#a242c8e4390dc3244bd42023b349b042b" target="_top" xlink:title="UBItem::uuid">
<polygon fill="white" stroke="black" points="215,-52.5 215,-73.5 289,-73.5 289,-52.5 215,-52.5"/>
<text text-anchor="middle" x="252" y="-60.5" font-family="Helvetica,sans-Serif" font-size="10.00">UBItem::uuid</text>
</a>
</g>
<!-- Node1&#45;&gt;Node5 -->
<g id="edge8" class="edge"><title>Node1&#45;&gt;Node5</title>
<path fill="none" stroke="midnightblue" d="M146.064,-63C165.782,-63 186.602,-63 204.517,-63"/>
<polygon fill="midnightblue" stroke="midnightblue" points="204.699,-66.5001 214.699,-63 204.699,-59.5001 204.699,-66.5001"/>
</g>
<!-- Node6 -->
<g id="node11" class="node"><title>Node6</title>
<a xlink:href="../../de/d93/class_u_b_graphics_group_container_item.html#adf49f1e629c8ddf5d65ffe8d3ac63ab2" target="_top" xlink:title="UBGraphicsGroupContainer\lItem::setUuid">
<polygon fill="white" stroke="black" points="183,-0 183,-34 321,-34 321,-0 183,-0"/>
<text text-anchor="start" x="191" y="-21" font-family="Helvetica,sans-Serif" font-size="10.00">UBGraphicsGroupContainer</text>
<text text-anchor="middle" x="252" y="-8" font-family="Helvetica,sans-Serif" font-size="10.00">Item::setUuid</text>
</a>
</g>
<!-- Node1&#45;&gt;Node6 -->
<g id="edge10" class="edge"><title>Node1&#45;&gt;Node6</title>
<path fill="none" stroke="midnightblue" d="M114.066,-52.4467C132.333,-47.7525 154.451,-42.0684 175.576,-36.6397"/>
<polygon fill="midnightblue" stroke="midnightblue" points="176.705,-39.9634 185.519,-34.0845 174.962,-33.1837 176.705,-39.9634"/>
</g>
<!-- Node3 -->
<g id="node5" class="node"><title>Node3</title>
<a xlink:href="../../d3/dbd/class_u_b_graphics_item.html#af0b4688328f6b7c06e2f8e2ca5f80805" target="_top" xlink:title="UBGraphicsItem::assignZValue">
<polygon fill="white" stroke="black" points="358.5,-115.5 358.5,-136.5 513.5,-136.5 513.5,-115.5 358.5,-115.5"/>
<text text-anchor="middle" x="436" y="-123.5" font-family="Helvetica,sans-Serif" font-size="10.00">UBGraphicsItem::assignZValue</text>
</a>
</g>
<!-- Node2&#45;&gt;Node3 -->
<g id="edge4" class="edge"><title>Node2&#45;&gt;Node3</title>
<path fill="none" stroke="midnightblue" d="M321.563,-111.695C330.288,-112.786 339.299,-113.912 348.257,-115.032"/>
<polygon fill="midnightblue" stroke="midnightblue" points="347.973,-118.524 358.33,-116.291 348.841,-111.578 347.973,-118.524"/>
</g>
<!-- Node4 -->
<g id="node7" class="node"><title>Node4</title>
<a xlink:href="../../d7/dd6/class_u_b_z_layer_controller.html#a2d0d1251e0ad4f984f1dff3051a77e21" target="_top" xlink:title="UBZLayerController\l::generateZLevel">
<polygon fill="white" stroke="black" points="384.5,-63 384.5,-97 487.5,-97 487.5,-63 384.5,-63"/>
<text text-anchor="start" x="392.5" y="-84" font-family="Helvetica,sans-Serif" font-size="10.00">UBZLayerController</text>
<text text-anchor="middle" x="436" y="-71" font-family="Helvetica,sans-Serif" font-size="10.00">::generateZLevel</text>
</a>
</g>
<!-- Node2&#45;&gt;Node4 -->
<g id="edge6" class="edge"><title>Node2&#45;&gt;Node4</title>
<path fill="none" stroke="midnightblue" d="M321.563,-94.3047C338.839,-92.1451 357.24,-89.8449 374.121,-87.7349"/>
<polygon fill="midnightblue" stroke="midnightblue" points="374.923,-91.162 384.411,-86.4486 374.054,-84.2161 374.923,-91.162"/>
</g>
</g>
</svg>
        <g id="navigator" transform="translate(0 0)" fill="#404254">
                <rect fill="#f2f5e9" fill-opacity="0.5" stroke="#606060" stroke-width=".5" x="0" y="0" width="60" height="60"/>
                <use id="zoomplus" xlink:href="#zoomPlus" x="17" y="9" onmousedown="handleZoom(evt,'in')"/>
                <use id="zoomminus" xlink:href="#zoomMin" x="42" y="9" onmousedown="handleZoom(evt,'out')"/>
                <use id="reset" xlink:href="#resetDef" x="30" y="36" onmousedown="handleReset()"/>
                <g id="arrowUp" xlink:href="#dirArrow" transform="translate(30 24)" onmousedown="handlePan(0,-1)">
                  <use xlink:href="#rim" fill="#404040">
                        <set attributeName="fill" to="#808080" begin="arrowUp.mouseover" end="arrowUp.mouseout"/>
                  </use>
                  <path fill="none" stroke="white" stroke-width="1.5" d="M0,-3.0v7 M-2.5,-0.5L0,-3.0L2.5,-0.5"/>
                </g>
                <g id="arrowRight" xlink:href="#dirArrow" transform="rotate(90) translate(36 -43)" onmousedown="handlePan(1,0)">
                  <use xlink:href="#rim" fill="#404040">
                        <set attributeName="fill" to="#808080" begin="arrowRight.mouseover" end="arrowRight.mouseout"/>
                  </use>
                  <path fill="none" stroke="white" stroke-width="1.5" d="M0,-3.0v7 M-2.5,-0.5L0,-3.0L2.5,-0.5"/>
                </g>
                <g id="arrowDown" xlink:href="#dirArrow" transform="rotate(180) translate(-30 -48)" onmousedown="handlePan(0,1)">
                  <use xlink:href="#rim" fill="#404040">
                        <set attributeName="fill" to="#808080" begin="arrowDown.mouseover" end="arrowDown.mouseout"/>
                  </use>
                  <path fill="none" stroke="white" stroke-width="1.5" d="M0,-3.0v7 M-2.5,-0.5L0,-3.0L2.5,-0.5"/>
                </g>
                <g id="arrowLeft" xlink:href="#dirArrow" transform="rotate(270) translate(-36 17)" onmousedown="handlePan(-1,0)">
                  <use xlink:href="#rim" fill="#404040">
                        <set attributeName="fill" to="#808080" begin="arrowLeft.mouseover" end="arrowLeft.mouseout"/>
                  </use>
                  <path fill="none" stroke="white" stroke-width="1.5" d="M0,-3.0v7 M-2.5,-0.5L0,-3.0L2.5,-0.5"/>
                </g>
        </g>
        <svg viewBox="0 0 15 15" width="100%" height="30px" preserveAspectRatio="xMaxYMin meet">
         <g id="arrow_out" transform="scale(0.3 0.3)">
          <a xlink:href="class_u_b_graphics_scene_a4e26483b01f706f83cbbffaac618dbc6_cgraph_org.svg" target="_base">
           <rect id="button" ry="5" rx="5" y="6" x="6" height="38" width="38"
                fill="#f2f5e9" fill-opacity="0.5" stroke="#606060" stroke-width="1.0"/>
           <path id="arrow"
             d="M 11.500037,31.436501 C 11.940474,20.09759 22.043105,11.32322 32.158766,21.979434 L 37.068811,17.246167 C 37.068811,17.246167 37.088388,32 37.088388,32 L 22.160133,31.978069 C 22.160133,31.978069 26.997745,27.140456 26.997745,27.140456 C 18.528582,18.264221 13.291696,25.230495 11.500037,31.436501 z"
             style="fill:#404040;"/>
          </a>
         </g>
        </svg>
</svg>
