<?xml version="1.0" encoding="UTF-8" standalone="no"?>
<!DOCTYPE svg PUBLIC "-//W3C//DTD SVG 1.1//EN"
 "http://www.w3.org/Graphics/SVG/1.1/DTD/svg11.dtd">
<!-- Generated by graphviz version 2.26.3 (20100126.1600)
 -->
<!-- Title: Sankore&#45;3.1/src/tools/UBAbstractDrawRuler.cpp Pages: 1 -->
<svg width="2146pt" height="478pt"
 viewBox="0.00 0.00 2146.31 478.00" xmlns="http://www.w3.org/2000/svg" xmlns:xlink="http://www.w3.org/1999/xlink">
<g id="graph1" class="graph" transform="scale(1 1) rotate(0) translate(4 474)">
<title>Sankore&#45;3.1/src/tools/UBAbstractDrawRuler.cpp</title>
<polygon fill="white" stroke="white" points="-4,5 -4,-474 2143.31,-474 2143.31,5 -4,5"/>
<!-- Node1 -->
<g id="node1" class="node"><title>Node1</title>
<polygon fill="#bfbfbf" stroke="black" points="646,-435 646,-469 782,-469 782,-435 646,-435"/>
<text text-anchor="start" x="654" y="-456" font-family="Helvetica,sans-Serif" font-size="10.00">Sankore&#45;3.1/src/tools</text>
<text text-anchor="middle" x="714" y="-443" font-family="Helvetica,sans-Serif" font-size="10.00">/UBAbstractDrawRuler.cpp</text>
</g>
<!-- Node2 -->
<g id="node3" class="node"><title>Node2</title>
<a xlink:href="../../db/de1/_u_b_abstract_draw_ruler_8h.html" target="_top" xlink:title="UBAbstractDrawRuler.h">
<polygon fill="white" stroke="black" points="1984,-116.5 1984,-137.5 2106,-137.5 2106,-116.5 1984,-116.5"/>
<text text-anchor="middle" x="2045" y="-124.5" font-family="Helvetica,sans-Serif" font-size="10.00">UBAbstractDrawRuler.h</text>
</a>
</g>
<!-- Node1&#45;&gt;Node2 -->
<g id="edge2" class="edge"><title>Node1&#45;&gt;Node2</title>
<path fill="none" stroke="midnightblue" d="M782.392,-448.725C1048.88,-435.522 2003,-383.923 2003,-322 2003,-322 2003,-322 2003,-250 2003,-211.894 2021.28,-170.538 2033.72,-146.802"/>
<polygon fill="midnightblue" stroke="midnightblue" points="2036.93,-148.227 2038.62,-137.769 2030.77,-144.887 2036.93,-148.227"/>
</g>
<!-- Node5 -->
<g id="node10" class="node"><title>Node5</title>
<polygon fill="white" stroke="#bfbfbf" points="126,-116.5 126,-137.5 170,-137.5 170,-116.5 126,-116.5"/>
<text text-anchor="middle" x="148" y="-124.5" font-family="Helvetica,sans-Serif" font-size="10.00">QtSvg</text>
</g>
<!-- Node1&#45;&gt;Node5 -->
<g id="edge10" class="edge"><title>Node1&#45;&gt;Node5</title>
<path fill="none" stroke="midnightblue" d="M645.905,-449.181C509.237,-441.915 209.409,-417.325 149,-340 104.392,-282.9 127.484,-188.425 140.774,-147.24"/>
<polygon fill="midnightblue" stroke="midnightblue" points="144.093,-148.35 143.971,-137.756 137.46,-146.114 144.093,-148.35"/>
</g>
<!-- Node6 -->
<g id="node12" class="node"><title>Node6</title>
<a xlink:href="../../d6/dd0/_u_b_8h.html" target="_top" xlink:title="core/UB.h">
<polygon fill="white" stroke="black" points="516.5,-58.5 516.5,-79.5 577.5,-79.5 577.5,-58.5 516.5,-58.5"/>
<text text-anchor="middle" x="547" y="-66.5" font-family="Helvetica,sans-Serif" font-size="10.00">core/UB.h</text>
</a>
</g>
<!-- Node1&#45;&gt;Node6 -->
<g id="edge12" class="edge"><title>Node1&#45;&gt;Node6</title>
<path fill="none" stroke="midnightblue" d="M674.085,-434.986C633.328,-414.615 576,-376.309 576,-322 576,-322 576,-322 576,-185 576,-150.592 563.843,-112.112 555.271,-89.2568"/>
<polygon fill="midnightblue" stroke="midnightblue" points="558.421,-87.7003 551.531,-79.6519 551.898,-90.2403 558.421,-87.7003"/>
</g>
<!-- Node7 -->
<g id="node15" class="node"><title>Node7</title>
<a xlink:href="../../db/d01/_u_b_resources_8h.html" target="_top" xlink:title="gui/UBResources.h">
<polygon fill="white" stroke="black" points="0,-376.5 0,-397.5 102,-397.5 102,-376.5 0,-376.5"/>
<text text-anchor="middle" x="51" y="-384.5" font-family="Helvetica,sans-Serif" font-size="10.00">gui/UBResources.h</text>
</a>
</g>
<!-- Node1&#45;&gt;Node7 -->
<g id="edge16" class="edge"><title>Node1&#45;&gt;Node7</title>
<path fill="none" stroke="midnightblue" d="M645.653,-447.561C534.378,-439.945 307.249,-422.78 116,-398 114.723,-397.835 113.433,-397.662 112.133,-397.484"/>
<polygon fill="midnightblue" stroke="midnightblue" points="112.437,-393.992 102.039,-396.022 111.433,-400.92 112.437,-393.992"/>
</g>
<!-- Node8 -->
<g id="node18" class="node"><title>Node8</title>
<a xlink:href="../../d7/d87/_u_b_graphics_scene_8h.html" target="_top" xlink:title="domain/UBGraphicsScene.h">
<polygon fill="white" stroke="black" points="386,-376.5 386,-397.5 526,-397.5 526,-376.5 386,-376.5"/>
<text text-anchor="middle" x="456" y="-384.5" font-family="Helvetica,sans-Serif" font-size="10.00">domain/UBGraphicsScene.h</text>
</a>
</g>
<!-- Node1&#45;&gt;Node8 -->
<g id="edge20" class="edge"><title>Node1&#45;&gt;Node8</title>
<path fill="none" stroke="midnightblue" d="M646.214,-434.922C602.859,-423.999 547.495,-410.051 507.691,-400.023"/>
<polygon fill="midnightblue" stroke="midnightblue" points="508.475,-396.611 497.923,-397.562 506.765,-403.399 508.475,-396.611"/>
</g>
<!-- Node18 -->
<g id="node52" class="node"><title>Node18</title>
<a xlink:href="../../df/d57/_u_b_drawing_controller_8h.html" target="_top" xlink:title="board/UBDrawingController.h">
<polygon fill="white" stroke="black" points="642,-116.5 642,-137.5 786,-137.5 786,-116.5 642,-116.5"/>
<text text-anchor="middle" x="714" y="-124.5" font-family="Helvetica,sans-Serif" font-size="10.00">board/UBDrawingController.h</text>
</a>
</g>
<!-- Node1&#45;&gt;Node18 -->
<g id="edge68" class="edge"><title>Node1&#45;&gt;Node18</title>
<path fill="none" stroke="midnightblue" d="M714,-434.757C714,-409.861 714,-362.399 714,-322 714,-322 714,-322 714,-250 714,-214.052 714,-172.195 714,-147.745"/>
<polygon fill="midnightblue" stroke="midnightblue" points="717.5,-147.53 714,-137.53 710.5,-147.53 717.5,-147.53"/>
</g>
<!-- Node19 -->
<g id="node56" class="node"><title>Node19</title>
<a xlink:href="../../db/d54/_u_b_application_8h.html" target="_top" xlink:title="core/UBApplication.h">
<polygon fill="white" stroke="black" points="1496.5,-311.5 1496.5,-332.5 1605.5,-332.5 1605.5,-311.5 1496.5,-311.5"/>
<text text-anchor="middle" x="1551" y="-319.5" font-family="Helvetica,sans-Serif" font-size="10.00">core/UBApplication.h</text>
</a>
</g>
<!-- Node1&#45;&gt;Node19 -->
<g id="edge74" class="edge"><title>Node1&#45;&gt;Node19</title>
<path fill="none" stroke="midnightblue" d="M782.14,-441.417C940.372,-416.841 1330.98,-356.173 1486.04,-332.089"/>
<polygon fill="midnightblue" stroke="midnightblue" points="1487.01,-335.481 1496.35,-330.488 1485.93,-328.564 1487.01,-335.481"/>
</g>
<!-- Node36 -->
<g id="node94" class="node"><title>Node36</title>
<a xlink:href="../../dd/ddb/_u_b_board_controller_8h.html" target="_top" xlink:title="board/UBBoardController.h">
<polygon fill="white" stroke="black" points="1793,-311.5 1793,-332.5 1927,-332.5 1927,-311.5 1793,-311.5"/>
<text text-anchor="middle" x="1860" y="-319.5" font-family="Helvetica,sans-Serif" font-size="10.00">board/UBBoardController.h</text>
</a>
</g>
<!-- Node1&#45;&gt;Node36 -->
<g id="edge116" class="edge"><title>Node1&#45;&gt;Node36</title>
<path fill="none" stroke="midnightblue" d="M782.256,-444.257C983.035,-421.481 1570.81,-354.805 1782.72,-330.767"/>
<polygon fill="midnightblue" stroke="midnightblue" points="1783.28,-334.226 1792.82,-329.621 1782.49,-327.27 1783.28,-334.226"/>
</g>
<!-- Node38 -->
<g id="node102" class="node"><title>Node38</title>
<a xlink:href="../../db/d80/memcheck_8h.html" target="_top" xlink:title="core/memcheck.h">
<polygon fill="white" stroke="black" points="2030.5,-376.5 2030.5,-397.5 2125.5,-397.5 2125.5,-376.5 2030.5,-376.5"/>
<text text-anchor="middle" x="2078" y="-384.5" font-family="Helvetica,sans-Serif" font-size="10.00">core/memcheck.h</text>
</a>
</g>
<!-- Node1&#45;&gt;Node38 -->
<g id="edge128" class="edge"><title>Node1&#45;&gt;Node38</title>
<path fill="none" stroke="midnightblue" d="M782.095,-450.412C1014.3,-444.802 1774.09,-424.807 2017,-398 2018.1,-397.879 2019.2,-397.75 2020.32,-397.614"/>
<polygon fill="midnightblue" stroke="midnightblue" points="2021.04,-401.047 2030.47,-396.22 2020.09,-394.112 2021.04,-401.047"/>
</g>
<!-- Node3 -->
<g id="node5" class="node"><title>Node3</title>
<polygon fill="white" stroke="#bfbfbf" points="880,-0.5 880,-21.5 922,-21.5 922,-0.5 880,-0.5"/>
<text text-anchor="middle" x="901" y="-8.5" font-family="Helvetica,sans-Serif" font-size="10.00">QtGui</text>
</g>
<!-- Node2&#45;&gt;Node3 -->
<g id="edge4" class="edge"><title>Node2&#45;&gt;Node3</title>
<path fill="none" stroke="midnightblue" d="M2076.73,-116.417C2109.97,-103.758 2154.46,-81.3337 2132,-58 2110.55,-35.7167 1122.24,-15.3189 932.364,-11.6021"/>
<polygon fill="midnightblue" stroke="midnightblue" points="932.288,-8.10001 922.221,-11.4046 932.151,-15.0987 932.288,-8.10001"/>
</g>
<!-- Node4 -->
<g id="node7" class="node"><title>Node4</title>
<a xlink:href="../../d4/d46/_u_b_geometry_utils_8h.html" target="_top" xlink:title="frameworks/UBGeometryUtils.h">
<polygon fill="white" stroke="black" points="1967,-58.5 1967,-79.5 2123,-79.5 2123,-58.5 1967,-58.5"/>
<text text-anchor="middle" x="2045" y="-66.5" font-family="Helvetica,sans-Serif" font-size="10.00">frameworks/UBGeometryUtils.h</text>
</a>
</g>
<!-- Node2&#45;&gt;Node4 -->
<g id="edge6" class="edge"><title>Node2&#45;&gt;Node4</title>
<path fill="none" stroke="midnightblue" d="M2045,-116.362C2045,-108.922 2045,-98.7427 2045,-89.7276"/>
<polygon fill="midnightblue" stroke="midnightblue" points="2048.5,-89.5706 2045,-79.5707 2041.5,-89.5707 2048.5,-89.5706"/>
</g>
<!-- Node4&#45;&gt;Node3 -->
<g id="edge8" class="edge"><title>Node4&#45;&gt;Node3</title>
<path fill="none" stroke="midnightblue" d="M1966.74,-59.242C1962.1,-58.7873 1957.49,-58.3681 1953,-58 1550.66,-25.005 1059.71,-13.962 932.355,-11.5496"/>
<polygon fill="midnightblue" stroke="midnightblue" points="932.22,-8.04664 922.157,-11.3604 932.09,-15.0454 932.22,-8.04664"/>
</g>
<!-- Node6&#45;&gt;Node3 -->
<g id="edge14" class="edge"><title>Node6&#45;&gt;Node3</title>
<path fill="none" stroke="midnightblue" d="M577.778,-62.3422C585.051,-60.8438 592.788,-59.3106 600,-58 698.059,-40.1797 814.846,-23.1284 869.661,-15.3693"/>
<polygon fill="midnightblue" stroke="midnightblue" points="870.36,-18.8055 879.773,-13.9439 869.382,-11.874 870.36,-18.8055"/>
</g>
<!-- Node7&#45;&gt;Node3 -->
<g id="edge18" class="edge"><title>Node7&#45;&gt;Node3</title>
<path fill="none" stroke="midnightblue" d="M51.5229,-376.345C52.6072,-353.303 55,-297.114 55,-250 55,-250 55,-250 55,-127 55,-74.0943 102.131,-75.6674 152,-58 220.312,-33.7984 735.655,-16.1626 869.379,-11.9608"/>
<polygon fill="midnightblue" stroke="midnightblue" points="869.848,-15.448 879.734,-11.6385 869.63,-8.45141 869.848,-15.448"/>
</g>
<!-- Node8&#45;&gt;Node3 -->
<g id="edge22" class="edge"><title>Node8&#45;&gt;Node3</title>
<path fill="none" stroke="midnightblue" d="M486.464,-376.438C532.377,-358.351 614,-316.804 614,-250 614,-250 614,-250 614,-127 614,-72.3192 795.342,-31.2741 869.731,-16.7371"/>
<polygon fill="midnightblue" stroke="midnightblue" points="870.735,-20.1084 879.896,-14.7862 869.416,-13.2338 870.735,-20.1084"/>
</g>
<!-- Node8&#45;&gt;Node6 -->
<g id="edge28" class="edge"><title>Node8&#45;&gt;Node6</title>
<path fill="none" stroke="midnightblue" d="M477.35,-376.36C491.34,-368.283 508.855,-355.865 519,-340 541.025,-305.559 538,-290.882 538,-250 538,-250 538,-250 538,-185 538,-151.497 541.778,-112.715 544.438,-89.5566"/>
<polygon fill="midnightblue" stroke="midnightblue" points="547.925,-89.8789 545.633,-79.5349 540.974,-89.0502 547.925,-89.8789"/>
</g>
<!-- Node9 -->
<g id="node21" class="node"><title>Node9</title>
<a xlink:href="../../db/dce/_u_b_core_graphics_scene_8h.html" target="_top" xlink:title="frameworks/UBCoreGraphics\lScene.h">
<polygon fill="white" stroke="black" points="157.5,-305 157.5,-339 302.5,-339 302.5,-305 157.5,-305"/>
<text text-anchor="start" x="165.5" y="-326" font-family="Helvetica,sans-Serif" font-size="10.00">frameworks/UBCoreGraphics</text>
<text text-anchor="middle" x="230" y="-313" font-family="Helvetica,sans-Serif" font-size="10.00">Scene.h</text>
</a>
</g>
<!-- Node8&#45;&gt;Node9 -->
<g id="edge24" class="edge"><title>Node8&#45;&gt;Node9</title>
<path fill="none" stroke="midnightblue" d="M419.438,-376.484C387.007,-367.157 338.764,-353.282 299.079,-341.868"/>
<polygon fill="midnightblue" stroke="midnightblue" points="300.029,-338.499 289.451,-339.099 298.094,-345.227 300.029,-338.499"/>
</g>
<!-- Node10 -->
<g id="node25" class="node"><title>Node10</title>
<a xlink:href="../../d6/d46/_u_b_item_8h.html" target="_top" xlink:title="UBItem.h">
<polygon fill="white" stroke="black" points="300.5,-239.5 300.5,-260.5 359.5,-260.5 359.5,-239.5 300.5,-239.5"/>
<text text-anchor="middle" x="330" y="-247.5" font-family="Helvetica,sans-Serif" font-size="10.00">UBItem.h</text>
</a>
</g>
<!-- Node8&#45;&gt;Node10 -->
<g id="edge30" class="edge"><title>Node8&#45;&gt;Node10</title>
<path fill="none" stroke="midnightblue" d="M407.771,-376.411C386.804,-369.43 363.717,-358.107 349,-340 333.097,-320.434 329.583,-290.767 329.226,-270.903"/>
<polygon fill="midnightblue" stroke="midnightblue" points="332.727,-270.771 329.301,-260.745 325.727,-270.719 332.727,-270.771"/>
</g>
<!-- Node17 -->
<g id="node47" class="node"><title>Node17</title>
<a xlink:href="../../dd/d77/_u_b_graphics_curtain_item_8h.html" target="_top" xlink:title="tools/UBGraphicsCurtainItem.h">
<polygon fill="white" stroke="black" points="357.5,-311.5 357.5,-332.5 510.5,-332.5 510.5,-311.5 357.5,-311.5"/>
<text text-anchor="middle" x="434" y="-319.5" font-family="Helvetica,sans-Serif" font-size="10.00">tools/UBGraphicsCurtainItem.h</text>
</a>
</g>
<!-- Node8&#45;&gt;Node17 -->
<g id="edge60" class="edge"><title>Node8&#45;&gt;Node17</title>
<path fill="none" stroke="midnightblue" d="M452.367,-376.267C449.228,-366.991 444.606,-353.336 440.785,-342.045"/>
<polygon fill="midnightblue" stroke="midnightblue" points="444.087,-340.884 437.565,-332.534 437.456,-343.128 444.087,-340.884"/>
</g>
<!-- Node9&#45;&gt;Node3 -->
<g id="edge26" class="edge"><title>Node9&#45;&gt;Node3</title>
<path fill="none" stroke="midnightblue" d="M207.486,-304.756C162.873,-268.471 71.3463,-182.131 117,-116 158.315,-56.1539 199.005,-73.7528 270,-58 386.372,-32.1788 758.92,-16.3596 869.665,-12.1411"/>
<polygon fill="midnightblue" stroke="midnightblue" points="869.977,-15.6319 879.839,-11.7583 869.714,-8.63686 869.977,-15.6319"/>
</g>
<!-- Node10&#45;&gt;Node3 -->
<g id="edge32" class="edge"><title>Node10&#45;&gt;Node3</title>
<path fill="none" stroke="midnightblue" d="M300.283,-244.914C273.337,-238.557 235.147,-224.785 217,-196 176.98,-132.52 176.931,-129.034 316,-58 365.5,-32.7161 755.653,-16.3871 869.758,-12.1172"/>
<polygon fill="midnightblue" stroke="midnightblue" points="870.054,-15.6088 879.918,-11.7418 869.796,-8.61354 870.054,-15.6088"/>
</g>
<!-- Node10&#45;&gt;Node6 -->
<g id="edge58" class="edge"><title>Node10&#45;&gt;Node6</title>
<path fill="none" stroke="midnightblue" d="M346.342,-239.313C361.91,-228.885 385.76,-212.259 405,-196 443.647,-163.342 447.888,-149.281 486,-116 498.117,-105.419 512.32,-94.4008 523.971,-85.6945"/>
<polygon fill="midnightblue" stroke="midnightblue" points="526.346,-88.2917 532.306,-79.5328 522.184,-82.6627 526.346,-88.2917"/>
</g>
<!-- Node11 -->
<g id="node28" class="node"><title>Node11</title>
<a xlink:href="../../d0/d4e/_u_b_graphics_item_delegate_8h.html" target="_top" xlink:title="domain/UBGraphicsItemDelegate.h">
<polygon fill="white" stroke="black" points="225.5,-174.5 225.5,-195.5 396.5,-195.5 396.5,-174.5 225.5,-174.5"/>
<text text-anchor="middle" x="311" y="-182.5" font-family="Helvetica,sans-Serif" font-size="10.00">domain/UBGraphicsItemDelegate.h</text>
</a>
</g>
<!-- Node10&#45;&gt;Node11 -->
<g id="edge34" class="edge"><title>Node10&#45;&gt;Node11</title>
<path fill="none" stroke="midnightblue" d="M326.863,-239.267C324.179,-230.085 320.241,-216.615 316.961,-205.392"/>
<polygon fill="midnightblue" stroke="midnightblue" points="320.244,-204.15 314.079,-195.534 313.525,-206.114 320.244,-204.15"/>
</g>
<!-- Node11&#45;&gt;Node3 -->
<g id="edge36" class="edge"><title>Node11&#45;&gt;Node3</title>
<path fill="none" stroke="midnightblue" d="M300.138,-174.485C286.851,-160.322 267.675,-134.734 281,-116 326.541,-51.9734 371.303,-75.0567 448,-58 603.957,-23.317 795.939,-14.1038 869.915,-11.7611"/>
<polygon fill="midnightblue" stroke="midnightblue" points="870.063,-15.2584 879.955,-11.4631 869.855,-8.26145 870.063,-15.2584"/>
</g>
<!-- Node11&#45;&gt;Node5 -->
<g id="edge38" class="edge"><title>Node11&#45;&gt;Node5</title>
<path fill="none" stroke="midnightblue" d="M281.482,-174.497C252.923,-164.334 209.748,-148.972 180.287,-138.489"/>
<polygon fill="midnightblue" stroke="midnightblue" points="181.08,-135.056 170.485,-135.001 178.733,-141.651 181.08,-135.056"/>
</g>
<!-- Node11&#45;&gt;Node6 -->
<g id="edge42" class="edge"><title>Node11&#45;&gt;Node6</title>
<path fill="none" stroke="midnightblue" d="M323.71,-174.386C341.873,-159.642 376.745,-132.875 410,-116 441.055,-100.241 478.604,-87.7778 506.533,-79.6562"/>
<polygon fill="midnightblue" stroke="midnightblue" points="507.696,-82.9643 516.357,-76.8624 505.781,-76.2313 507.696,-82.9643"/>
</g>
<!-- Node12 -->
<g id="node32" class="node"><title>Node12</title>
<polygon fill="white" stroke="#bfbfbf" points="289.5,-116.5 289.5,-137.5 358.5,-137.5 358.5,-116.5 289.5,-116.5"/>
<text text-anchor="middle" x="324" y="-124.5" font-family="Helvetica,sans-Serif" font-size="10.00">QMimeData</text>
</g>
<!-- Node11&#45;&gt;Node12 -->
<g id="edge40" class="edge"><title>Node11&#45;&gt;Node12</title>
<path fill="none" stroke="midnightblue" d="M313.384,-174.362C315.07,-166.84 317.384,-156.519 319.421,-147.431"/>
<polygon fill="midnightblue" stroke="midnightblue" points="322.859,-148.094 321.631,-137.571 316.028,-146.563 322.859,-148.094"/>
</g>
<!-- Node13 -->
<g id="node35" class="node"><title>Node13</title>
<a xlink:href="../../d1/d92/_u_b_settings_8h.html" target="_top" xlink:title="core/UBSettings.h">
<polygon fill="white" stroke="black" points="959.5,-116.5 959.5,-137.5 1056.5,-137.5 1056.5,-116.5 959.5,-116.5"/>
<text text-anchor="middle" x="1008" y="-124.5" font-family="Helvetica,sans-Serif" font-size="10.00">core/UBSettings.h</text>
</a>
</g>
<!-- Node11&#45;&gt;Node13 -->
<g id="edge44" class="edge"><title>Node11&#45;&gt;Node13</title>
<path fill="none" stroke="midnightblue" d="M396.732,-181.902C517.847,-176.813 746.081,-164.607 949.281,-138.112"/>
<polygon fill="midnightblue" stroke="midnightblue" points="949.787,-141.576 959.244,-136.799 948.872,-134.636 949.787,-141.576"/>
</g>
<!-- Node13&#45;&gt;Node3 -->
<g id="edge48" class="edge"><title>Node13&#45;&gt;Node3</title>
<path fill="none" stroke="midnightblue" d="M998.22,-116.205C985.869,-102.592 963.941,-78.4865 945,-58 936.17,-48.4489 926.275,-37.8688 918.108,-29.169"/>
<polygon fill="midnightblue" stroke="midnightblue" points="920.574,-26.6813 911.175,-21.7915 915.473,-31.4753 920.574,-26.6813"/>
</g>
<!-- Node13&#45;&gt;Node6 -->
<g id="edge52" class="edge"><title>Node13&#45;&gt;Node6</title>
<path fill="none" stroke="midnightblue" d="M959.224,-117.338C956.445,-116.865 953.689,-116.415 951,-116 818.638,-95.5583 660.639,-79.6071 587.652,-72.7136"/>
<polygon fill="midnightblue" stroke="midnightblue" points="587.796,-69.2119 577.513,-71.7628 587.142,-76.1813 587.796,-69.2119"/>
</g>
<!-- Node14 -->
<g id="node37" class="node"><title>Node14</title>
<polygon fill="white" stroke="#bfbfbf" points="800,-58.5 800,-79.5 848,-79.5 848,-58.5 800,-58.5"/>
<text text-anchor="middle" x="824" y="-66.5" font-family="Helvetica,sans-Serif" font-size="10.00">QtCore</text>
</g>
<!-- Node13&#45;&gt;Node14 -->
<g id="edge46" class="edge"><title>Node13&#45;&gt;Node14</title>
<path fill="none" stroke="midnightblue" d="M973.454,-116.462C944.843,-107.687 902.888,-94.7101 857.798,-80.2199"/>
<polygon fill="midnightblue" stroke="midnightblue" points="858.724,-76.8411 848.132,-77.1059 856.577,-83.5039 858.724,-76.8411"/>
</g>
<!-- Node15 -->
<g id="node40" class="node"><title>Node15</title>
<polygon fill="white" stroke="#bfbfbf" points="992,-58.5 992,-79.5 1056,-79.5 1056,-58.5 992,-58.5"/>
<text text-anchor="middle" x="1024" y="-66.5" font-family="Helvetica,sans-Serif" font-size="10.00">QtNetwork</text>
</g>
<!-- Node13&#45;&gt;Node15 -->
<g id="edge50" class="edge"><title>Node13&#45;&gt;Node15</title>
<path fill="none" stroke="midnightblue" d="M1010.93,-116.362C1013.01,-108.84 1015.86,-98.5187 1018.36,-89.4308"/>
<polygon fill="midnightblue" stroke="midnightblue" points="1021.8,-90.1414 1021.08,-79.5707 1015.05,-88.2798 1021.8,-90.1414"/>
</g>
<!-- Node16 -->
<g id="node43" class="node"><title>Node16</title>
<a xlink:href="../../d3/d76/_u_b_setting_8h.html" target="_top" xlink:title="UBSetting.h">
<polygon fill="white" stroke="black" points="866,-58.5 866,-79.5 936,-79.5 936,-58.5 866,-58.5"/>
<text text-anchor="middle" x="901" y="-66.5" font-family="Helvetica,sans-Serif" font-size="10.00">UBSetting.h</text>
</a>
</g>
<!-- Node13&#45;&gt;Node16 -->
<g id="edge54" class="edge"><title>Node13&#45;&gt;Node16</title>
<path fill="none" stroke="midnightblue" d="M988.375,-116.362C971.859,-107.409 948.026,-94.4908 929.422,-84.4064"/>
<polygon fill="midnightblue" stroke="midnightblue" points="930.96,-81.2592 920.501,-79.5707 927.625,-87.4132 930.96,-81.2592"/>
</g>
<!-- Node16&#45;&gt;Node3 -->
<g id="edge56" class="edge"><title>Node16&#45;&gt;Node3</title>
<path fill="none" stroke="midnightblue" d="M901,-58.3619C901,-50.9219 901,-40.7427 901,-31.7276"/>
<polygon fill="midnightblue" stroke="midnightblue" points="904.5,-31.5706 901,-21.5707 897.5,-31.5707 904.5,-31.5706"/>
</g>
<!-- Node17&#45;&gt;Node3 -->
<g id="edge62" class="edge"><title>Node17&#45;&gt;Node3</title>
<path fill="none" stroke="midnightblue" d="M437.661,-311.492C445.25,-288.735 462,-233.067 462,-185 462,-185 462,-185 462,-127 462,-90.1433 476.596,-77.2932 508,-58 568.516,-20.8217 787.554,-13.0397 869.643,-11.4213"/>
<polygon fill="midnightblue" stroke="midnightblue" points="869.91,-14.9172 879.845,-11.2385 869.784,-7.91834 869.91,-14.9172"/>
</g>
<!-- Node17&#45;&gt;Node6 -->
<g id="edge64" class="edge"><title>Node17&#45;&gt;Node6</title>
<path fill="none" stroke="midnightblue" d="M444.277,-311.227C453.675,-300.868 467.387,-284.404 476,-268 508.932,-205.275 497.69,-181.777 524,-116 527.686,-106.785 532.414,-96.8755 536.625,-88.5424"/>
<polygon fill="midnightblue" stroke="midnightblue" points="539.754,-90.1111 541.235,-79.6203 533.535,-86.8974 539.754,-90.1111"/>
</g>
<!-- Node17&#45;&gt;Node10 -->
<g id="edge66" class="edge"><title>Node17&#45;&gt;Node10</title>
<path fill="none" stroke="midnightblue" d="M418.654,-311.376C401.526,-299.518 373.603,-280.186 353.671,-266.388"/>
<polygon fill="midnightblue" stroke="midnightblue" points="355.623,-263.482 345.409,-260.667 351.638,-269.237 355.623,-263.482"/>
</g>
<!-- Node18&#45;&gt;Node6 -->
<g id="edge72" class="edge"><title>Node18&#45;&gt;Node6</title>
<path fill="none" stroke="midnightblue" d="M683.758,-116.497C656.65,-107.082 616.69,-93.2036 586.957,-82.8773"/>
<polygon fill="midnightblue" stroke="midnightblue" points="587.894,-79.4977 577.299,-79.5231 585.597,-86.1102 587.894,-79.4977"/>
</g>
<!-- Node18&#45;&gt;Node14 -->
<g id="edge70" class="edge"><title>Node18&#45;&gt;Node14</title>
<path fill="none" stroke="midnightblue" d="M733.92,-116.497C750.946,-107.519 775.669,-94.4835 794.909,-84.3387"/>
<polygon fill="midnightblue" stroke="midnightblue" points="796.643,-87.3814 803.856,-79.6212 793.378,-81.1894 796.643,-87.3814"/>
</g>
<!-- Node19&#45;&gt;Node3 -->
<g id="edge76" class="edge"><title>Node19&#45;&gt;Node3</title>
<path fill="none" stroke="midnightblue" d="M1585.26,-311.469C1612.26,-302.294 1650.2,-287.415 1680,-268 1699.49,-255.301 1701.04,-247.925 1718,-232 1762.7,-190.024 1794.52,-194.224 1819,-138 1822.9,-129.035 1825.51,-123.296 1819,-116 1758.51,-48.2003 1086.07,-18.167 932.224,-12.1564"/>
<polygon fill="midnightblue" stroke="midnightblue" points="932.186,-8.6524 922.059,-11.7649 931.917,-15.6472 932.186,-8.6524"/>
</g>
<!-- Node20 -->
<g id="node59" class="node"><title>Node20</title>
<polygon fill="white" stroke="#bfbfbf" points="1566.5,-239.5 1566.5,-260.5 1671.5,-260.5 1671.5,-239.5 1566.5,-239.5"/>
<text text-anchor="middle" x="1619" y="-247.5" font-family="Helvetica,sans-Serif" font-size="10.00">qtsingleapplication.h</text>
</g>
<!-- Node19&#45;&gt;Node20 -->
<g id="edge78" class="edge"><title>Node19&#45;&gt;Node20</title>
<path fill="none" stroke="midnightblue" d="M1561.03,-311.376C1571.78,-299.997 1589.03,-281.735 1601.92,-268.085"/>
<polygon fill="midnightblue" stroke="midnightblue" points="1604.6,-270.341 1608.93,-260.667 1599.51,-265.534 1604.6,-270.341"/>
</g>
<!-- Node21 -->
<g id="node61" class="node"><title>Node21</title>
<a xlink:href="../../d1/d9d/_uniboard_sankore_transition_8h.html" target="_top" xlink:title="transition/UniboardSankore\lTransition.h">
<polygon fill="white" stroke="black" points="1415,-233 1415,-267 1549,-267 1549,-233 1415,-233"/>
<text text-anchor="start" x="1423" y="-254" font-family="Helvetica,sans-Serif" font-size="10.00">transition/UniboardSankore</text>
<text text-anchor="middle" x="1482" y="-241" font-family="Helvetica,sans-Serif" font-size="10.00">Transition.h</text>
</a>
</g>
<!-- Node19&#45;&gt;Node21 -->
<g id="edge80" class="edge"><title>Node19&#45;&gt;Node21</title>
<path fill="none" stroke="midnightblue" d="M1540.82,-311.376C1531.57,-301.723 1517.57,-287.116 1505.55,-274.574"/>
<polygon fill="midnightblue" stroke="midnightblue" points="1507.83,-271.893 1498.38,-267.094 1502.77,-276.736 1507.83,-271.893"/>
</g>
<!-- Node22 -->
<g id="node63" class="node"><title>Node22</title>
<polygon fill="white" stroke="#bfbfbf" points="1884.5,-174.5 1884.5,-195.5 1937.5,-195.5 1937.5,-174.5 1884.5,-174.5"/>
<text text-anchor="middle" x="1911" y="-182.5" font-family="Helvetica,sans-Serif" font-size="10.00">QObject</text>
</g>
<!-- Node21&#45;&gt;Node22 -->
<g id="edge82" class="edge"><title>Node21&#45;&gt;Node22</title>
<path fill="none" stroke="midnightblue" d="M1549.06,-233.733C1552.08,-233.122 1555.07,-232.541 1558,-232 1672.61,-210.853 1809.83,-195.365 1874.23,-188.668"/>
<polygon fill="midnightblue" stroke="midnightblue" points="1874.7,-192.139 1884.29,-187.632 1873.98,-185.175 1874.7,-192.139"/>
</g>
<!-- Node23 -->
<g id="node65" class="node"><title>Node23</title>
<polygon fill="white" stroke="#bfbfbf" points="1531,-174.5 1531,-195.5 1587,-195.5 1587,-174.5 1531,-174.5"/>
<text text-anchor="middle" x="1559" y="-182.5" font-family="Helvetica,sans-Serif" font-size="10.00">QFileInfo</text>
</g>
<!-- Node21&#45;&gt;Node23 -->
<g id="edge84" class="edge"><title>Node21&#45;&gt;Node23</title>
<path fill="none" stroke="midnightblue" d="M1502.23,-232.922C1513.31,-223.57 1527.01,-212.001 1538.18,-202.572"/>
<polygon fill="midnightblue" stroke="midnightblue" points="1540.76,-204.977 1546.14,-195.852 1536.25,-199.628 1540.76,-204.977"/>
</g>
<!-- Node24 -->
<g id="node67" class="node"><title>Node24</title>
<polygon fill="white" stroke="#bfbfbf" points="1605,-174.5 1605,-195.5 1659,-195.5 1659,-174.5 1605,-174.5"/>
<text text-anchor="middle" x="1632" y="-182.5" font-family="Helvetica,sans-Serif" font-size="10.00">QThread</text>
</g>
<!-- Node21&#45;&gt;Node24 -->
<g id="edge86" class="edge"><title>Node21&#45;&gt;Node24</title>
<path fill="none" stroke="midnightblue" d="M1521.41,-232.922C1545.26,-222.588 1575.36,-209.545 1598.13,-199.676"/>
<polygon fill="midnightblue" stroke="midnightblue" points="1599.62,-202.846 1607.4,-195.658 1596.84,-196.423 1599.62,-202.846"/>
</g>
<!-- Node25 -->
<g id="node69" class="node"><title>Node25</title>
<a xlink:href="../../db/dc7/_u_b_update_dlg_8h.html" target="_top" xlink:title="gui/UBUpdateDlg.h">
<polygon fill="white" stroke="black" points="1412.5,-174.5 1412.5,-195.5 1513.5,-195.5 1513.5,-174.5 1412.5,-174.5"/>
<text text-anchor="middle" x="1463" y="-182.5" font-family="Helvetica,sans-Serif" font-size="10.00">gui/UBUpdateDlg.h</text>
</a>
</g>
<!-- Node21&#45;&gt;Node25 -->
<g id="edge88" class="edge"><title>Node21&#45;&gt;Node25</title>
<path fill="none" stroke="midnightblue" d="M1477.01,-232.922C1474.57,-224.579 1471.61,-214.47 1469.05,-205.692"/>
<polygon fill="midnightblue" stroke="midnightblue" points="1472.34,-204.468 1466.17,-195.852 1465.62,-206.432 1472.34,-204.468"/>
</g>
<!-- Node34 -->
<g id="node87" class="node"><title>Node34</title>
<a xlink:href="../../db/dea/_u_b_document_proxy_8h.html" target="_top" xlink:title="document/UBDocumentProxy.h">
<polygon fill="white" stroke="black" points="1006.5,-174.5 1006.5,-195.5 1161.5,-195.5 1161.5,-174.5 1006.5,-174.5"/>
<text text-anchor="middle" x="1084" y="-182.5" font-family="Helvetica,sans-Serif" font-size="10.00">document/UBDocumentProxy.h</text>
</a>
</g>
<!-- Node21&#45;&gt;Node34 -->
<g id="edge106" class="edge"><title>Node21&#45;&gt;Node34</title>
<path fill="none" stroke="midnightblue" d="M1414.93,-239.047C1343.95,-227.454 1232.2,-209.203 1158.51,-197.168"/>
<polygon fill="midnightblue" stroke="midnightblue" points="1158.8,-193.67 1148.37,-195.513 1157.67,-200.579 1158.8,-193.67"/>
</g>
<!-- Node26 -->
<g id="node71" class="node"><title>Node26</title>
<polygon fill="white" stroke="#bfbfbf" points="1526,-116.5 1526,-137.5 1578,-137.5 1578,-116.5 1526,-116.5"/>
<text text-anchor="middle" x="1552" y="-124.5" font-family="Helvetica,sans-Serif" font-size="10.00">QDialog</text>
</g>
<!-- Node25&#45;&gt;Node26 -->
<g id="edge90" class="edge"><title>Node25&#45;&gt;Node26</title>
<path fill="none" stroke="midnightblue" d="M1479.32,-174.362C1492.75,-165.614 1511.98,-153.079 1527.29,-143.101"/>
<polygon fill="midnightblue" stroke="midnightblue" points="1529.31,-145.963 1535.78,-137.571 1525.49,-140.098 1529.31,-145.963"/>
</g>
<!-- Node27 -->
<g id="node73" class="node"><title>Node27</title>
<polygon fill="white" stroke="#bfbfbf" points="1595.5,-116.5 1595.5,-137.5 1642.5,-137.5 1642.5,-116.5 1595.5,-116.5"/>
<text text-anchor="middle" x="1619" y="-124.5" font-family="Helvetica,sans-Serif" font-size="10.00">QLabel</text>
</g>
<!-- Node25&#45;&gt;Node27 -->
<g id="edge92" class="edge"><title>Node25&#45;&gt;Node27</title>
<path fill="none" stroke="midnightblue" d="M1491.25,-174.497C1517.8,-164.627 1557.54,-149.85 1585.64,-139.404"/>
<polygon fill="midnightblue" stroke="midnightblue" points="1586.89,-142.671 1595.05,-135.905 1584.46,-136.11 1586.89,-142.671"/>
</g>
<!-- Node28 -->
<g id="node75" class="node"><title>Node28</title>
<polygon fill="white" stroke="#bfbfbf" points="1659.5,-116.5 1659.5,-137.5 1734.5,-137.5 1734.5,-116.5 1659.5,-116.5"/>
<text text-anchor="middle" x="1697" y="-124.5" font-family="Helvetica,sans-Serif" font-size="10.00">QPushButton</text>
</g>
<!-- Node25&#45;&gt;Node28 -->
<g id="edge94" class="edge"><title>Node25&#45;&gt;Node28</title>
<path fill="none" stroke="midnightblue" d="M1505.38,-174.497C1545.98,-164.433 1607.16,-149.268 1649.42,-138.794"/>
<polygon fill="midnightblue" stroke="midnightblue" points="1650.33,-142.174 1659.19,-136.371 1648.65,-135.38 1650.33,-142.174"/>
</g>
<!-- Node29 -->
<g id="node77" class="node"><title>Node29</title>
<polygon fill="white" stroke="#bfbfbf" points="1751.5,-116.5 1751.5,-137.5 1810.5,-137.5 1810.5,-116.5 1751.5,-116.5"/>
<text text-anchor="middle" x="1781" y="-124.5" font-family="Helvetica,sans-Serif" font-size="10.00">QLineEdit</text>
</g>
<!-- Node25&#45;&gt;Node29 -->
<g id="edge96" class="edge"><title>Node25&#45;&gt;Node29</title>
<path fill="none" stroke="midnightblue" d="M1513.52,-175.503C1516.39,-174.988 1519.23,-174.484 1522,-174 1616.87,-157.431 1644.17,-159.703 1741.28,-138.216"/>
<polygon fill="midnightblue" stroke="midnightblue" points="1742.22,-141.591 1751.22,-135.989 1740.69,-134.76 1742.22,-141.591"/>
</g>
<!-- Node30 -->
<g id="node79" class="node"><title>Node30</title>
<polygon fill="white" stroke="#bfbfbf" points="1112,-116.5 1112,-137.5 1210,-137.5 1210,-116.5 1112,-116.5"/>
<text text-anchor="middle" x="1161" y="-124.5" font-family="Helvetica,sans-Serif" font-size="10.00">QDialogButtonBox</text>
</g>
<!-- Node25&#45;&gt;Node30 -->
<g id="edge98" class="edge"><title>Node25&#45;&gt;Node30</title>
<path fill="none" stroke="midnightblue" d="M1412.45,-175.292C1359.5,-165.122 1276.38,-149.158 1220.34,-138.397"/>
<polygon fill="midnightblue" stroke="midnightblue" points="1220.69,-134.9 1210.21,-136.451 1219.37,-141.774 1220.69,-134.9"/>
</g>
<!-- Node31 -->
<g id="node81" class="node"><title>Node31</title>
<polygon fill="white" stroke="#bfbfbf" points="1227.5,-116.5 1227.5,-137.5 1304.5,-137.5 1304.5,-116.5 1227.5,-116.5"/>
<text text-anchor="middle" x="1266" y="-124.5" font-family="Helvetica,sans-Serif" font-size="10.00">QVBoxLayout</text>
</g>
<!-- Node25&#45;&gt;Node31 -->
<g id="edge100" class="edge"><title>Node25&#45;&gt;Node31</title>
<path fill="none" stroke="midnightblue" d="M1427.32,-174.497C1394.93,-164.959 1346.98,-150.841 1311.77,-140.475"/>
<polygon fill="midnightblue" stroke="midnightblue" points="1312.32,-136.99 1301.74,-137.523 1310.35,-143.705 1312.32,-136.99"/>
</g>
<!-- Node32 -->
<g id="node83" class="node"><title>Node32</title>
<polygon fill="white" stroke="#bfbfbf" points="1322,-116.5 1322,-137.5 1400,-137.5 1400,-116.5 1322,-116.5"/>
<text text-anchor="middle" x="1361" y="-124.5" font-family="Helvetica,sans-Serif" font-size="10.00">QHBoxLayout</text>
</g>
<!-- Node25&#45;&gt;Node32 -->
<g id="edge102" class="edge"><title>Node25&#45;&gt;Node32</title>
<path fill="none" stroke="midnightblue" d="M1444.29,-174.362C1428.62,-165.45 1406.04,-152.609 1388.34,-142.545"/>
<polygon fill="midnightblue" stroke="midnightblue" points="1390.01,-139.471 1379.59,-137.571 1386.55,-145.556 1390.01,-139.471"/>
</g>
<!-- Node33 -->
<g id="node85" class="node"><title>Node33</title>
<polygon fill="white" stroke="#bfbfbf" points="1417.5,-116.5 1417.5,-137.5 1508.5,-137.5 1508.5,-116.5 1417.5,-116.5"/>
<text text-anchor="middle" x="1463" y="-124.5" font-family="Helvetica,sans-Serif" font-size="10.00">QStackedWidget</text>
</g>
<!-- Node25&#45;&gt;Node33 -->
<g id="edge104" class="edge"><title>Node25&#45;&gt;Node33</title>
<path fill="none" stroke="midnightblue" d="M1463,-174.362C1463,-166.922 1463,-156.743 1463,-147.728"/>
<polygon fill="midnightblue" stroke="midnightblue" points="1466.5,-147.571 1463,-137.571 1459.5,-147.571 1466.5,-147.571"/>
</g>
<!-- Node34&#45;&gt;Node3 -->
<g id="edge108" class="edge"><title>Node34&#45;&gt;Node3</title>
<path fill="none" stroke="midnightblue" d="M1085.89,-174.239C1089.46,-150.179 1094.4,-91.5186 1065,-58 1047.58,-38.1412 974.807,-23.1375 932.281,-15.865"/>
<polygon fill="midnightblue" stroke="midnightblue" points="932.612,-12.372 922.173,-14.1844 931.464,-19.2772 932.612,-12.372"/>
</g>
<!-- Node34&#45;&gt;Node13 -->
<g id="edge114" class="edge"><title>Node34&#45;&gt;Node13</title>
<path fill="none" stroke="midnightblue" d="M1070.06,-174.362C1058.81,-165.777 1042.78,-153.546 1029.84,-143.664"/>
<polygon fill="midnightblue" stroke="midnightblue" points="1031.92,-140.855 1021.85,-137.571 1027.68,-146.42 1031.92,-140.855"/>
</g>
<!-- Node35 -->
<g id="node90" class="node"><title>Node35</title>
<a xlink:href="../../d7/dca/_u_b_string_utils_8h.html" target="_top" xlink:title="frameworks/UBStringUtils.h">
<polygon fill="white" stroke="black" points="803.5,-116.5 803.5,-137.5 942.5,-137.5 942.5,-116.5 803.5,-116.5"/>
<text text-anchor="middle" x="873" y="-124.5" font-family="Helvetica,sans-Serif" font-size="10.00">frameworks/UBStringUtils.h</text>
</a>
</g>
<!-- Node34&#45;&gt;Node35 -->
<g id="edge110" class="edge"><title>Node34&#45;&gt;Node35</title>
<path fill="none" stroke="midnightblue" d="M1045.79,-174.497C1010.8,-164.877 958.848,-150.598 921.053,-140.209"/>
<polygon fill="midnightblue" stroke="midnightblue" points="921.852,-136.799 911.282,-137.523 919.997,-143.548 921.852,-136.799"/>
</g>
<!-- Node35&#45;&gt;Node14 -->
<g id="edge112" class="edge"><title>Node35&#45;&gt;Node14</title>
<path fill="none" stroke="midnightblue" d="M864.013,-116.362C857.175,-108.268 847.598,-96.9318 839.528,-87.3796"/>
<polygon fill="midnightblue" stroke="midnightblue" points="842.058,-84.9508 832.93,-79.5707 836.71,-89.4683 842.058,-84.9508"/>
</g>
<!-- Node36&#45;&gt;Node3 -->
<g id="edge118" class="edge"><title>Node36&#45;&gt;Node3</title>
<path fill="none" stroke="midnightblue" d="M1877.99,-311.356C1892.69,-301.776 1912.93,-286.399 1925,-268 1943.29,-240.13 1941.29,-228.998 1946,-196 1955.84,-127.105 1932.2,-92.9216 1872,-58 1830.44,-33.8887 1094.2,-15.477 932.31,-11.7091"/>
<polygon fill="midnightblue" stroke="midnightblue" points="932.154,-8.20466 922.075,-11.4727 931.992,-15.2028 932.154,-8.20466"/>
</g>
<!-- Node36&#45;&gt;Node22 -->
<g id="edge120" class="edge"><title>Node36&#45;&gt;Node22</title>
<path fill="none" stroke="midnightblue" d="M1873.82,-311.266C1885.31,-301.415 1900.9,-285.696 1908,-268 1916.01,-248.019 1915.7,-223.115 1914.05,-205.825"/>
<polygon fill="midnightblue" stroke="midnightblue" points="1917.5,-205.207 1912.84,-195.691 1910.55,-206.034 1917.5,-205.207"/>
</g>
<!-- Node37 -->
<g id="node98" class="node"><title>Node37</title>
<a xlink:href="../../df/d8e/_u_b_document_container_8h.html" target="_top" xlink:title="document/UBDocumentContainer.h">
<polygon fill="white" stroke="black" points="1727,-239.5 1727,-260.5 1899,-260.5 1899,-239.5 1727,-239.5"/>
<text text-anchor="middle" x="1813" y="-247.5" font-family="Helvetica,sans-Serif" font-size="10.00">document/UBDocumentContainer.h</text>
</a>
</g>
<!-- Node36&#45;&gt;Node37 -->
<g id="edge122" class="edge"><title>Node36&#45;&gt;Node37</title>
<path fill="none" stroke="midnightblue" d="M1853.06,-311.376C1845.85,-300.316 1834.38,-282.753 1825.56,-269.243"/>
<polygon fill="midnightblue" stroke="midnightblue" points="1828.36,-267.128 1819.96,-260.667 1822.5,-270.954 1828.36,-267.128"/>
</g>
<!-- Node37&#45;&gt;Node3 -->
<g id="edge124" class="edge"><title>Node37&#45;&gt;Node3</title>
<path fill="none" stroke="midnightblue" d="M1820.78,-239.107C1842.9,-206.709 1901.48,-109.986 1852,-58 1819.59,-23.9459 1093.6,-13.2986 932.483,-11.3512"/>
<polygon fill="midnightblue" stroke="midnightblue" points="932.328,-7.84922 922.287,-11.2306 932.245,-14.8487 932.328,-7.84922"/>
</g>
<!-- Node37&#45;&gt;Node34 -->
<g id="edge126" class="edge"><title>Node37&#45;&gt;Node34</title>
<path fill="none" stroke="midnightblue" d="M1740.61,-239.456C1720.97,-236.8 1699.69,-234.107 1680,-232 1499.93,-212.729 1288.45,-197.894 1172.03,-190.4"/>
<polygon fill="midnightblue" stroke="midnightblue" points="1171.96,-186.888 1161.75,-189.741 1171.51,-193.874 1171.96,-186.888"/>
</g>
</g>
</svg>
