<?xml version="1.0" encoding="UTF-8" standalone="no"?>
<!DOCTYPE svg PUBLIC "-//W3C//DTD SVG 1.1//EN"
 "http://www.w3.org/Graphics/SVG/1.1/DTD/svg11.dtd">
<!-- Generated by graphviz version 2.26.3 (20100126.1600)
 -->
<!-- Title: Sankore&#45;3.1/src/core/UBSettings.cpp Pages: 1 -->
<svg width="1519pt" height="464pt"
 viewBox="0.00 0.00 1519.00 464.00" xmlns="http://www.w3.org/2000/svg" xmlns:xlink="http://www.w3.org/1999/xlink">
<g id="graph1" class="graph" transform="scale(1 1) rotate(0) translate(4 460)">
<title>Sankore&#45;3.1/src/core/UBSettings.cpp</title>
<polygon fill="white" stroke="white" points="-4,5 -4,-460 1516,-460 1516,5 -4,5"/>
<!-- Node1 -->
<g id="node1" class="node"><title>Node1</title>
<polygon fill="#bfbfbf" stroke="black" points="1221.5,-421 1221.5,-455 1328.5,-455 1328.5,-421 1221.5,-421"/>
<text text-anchor="start" x="1229.5" y="-442" font-family="Helvetica,sans-Serif" font-size="10.00">Sankore&#45;3.1/src/core</text>
<text text-anchor="middle" x="1275" y="-429" font-family="Helvetica,sans-Serif" font-size="10.00">/UBSettings.cpp</text>
</g>
<!-- Node2 -->
<g id="node3" class="node"><title>Node2</title>
<a xlink:href="../../d1/d92/_u_b_settings_8h.html" target="_top" xlink:title="UBSettings.h">
<polygon fill="white" stroke="black" points="1134.5,-116.5 1134.5,-137.5 1209.5,-137.5 1209.5,-116.5 1134.5,-116.5"/>
<text text-anchor="middle" x="1172" y="-124.5" font-family="Helvetica,sans-Serif" font-size="10.00">UBSettings.h</text>
</a>
</g>
<!-- Node1&#45;&gt;Node2 -->
<g id="edge2" class="edge"><title>Node1&#45;&gt;Node2</title>
<path fill="none" stroke="midnightblue" d="M1275,-420.888C1275,-397.127 1275,-352.797 1275,-315 1275,-315 1275,-315 1275,-250 1275,-202.595 1229.47,-163.856 1198.95,-143.214"/>
<polygon fill="midnightblue" stroke="midnightblue" points="1200.7,-140.174 1190.41,-137.639 1196.88,-146.036 1200.7,-140.174"/>
</g>
<!-- Node4 -->
<g id="node7" class="node"><title>Node4</title>
<polygon fill="white" stroke="#bfbfbf" points="1104,-0.5 1104,-21.5 1146,-21.5 1146,-0.5 1104,-0.5"/>
<text text-anchor="middle" x="1125" y="-8.5" font-family="Helvetica,sans-Serif" font-size="10.00">QtGui</text>
</g>
<!-- Node1&#45;&gt;Node4 -->
<g id="edge18" class="edge"><title>Node1&#45;&gt;Node4</title>
<path fill="none" stroke="midnightblue" d="M1307.67,-420.819C1341.35,-400.476 1389,-363.186 1389,-315 1389,-315 1389,-315 1389,-127 1389,-95.1919 1393.36,-79.584 1370,-58 1339.23,-29.5721 1215.05,-17.2693 1156.21,-12.9547"/>
<polygon fill="midnightblue" stroke="midnightblue" points="1156.24,-9.44846 1146.02,-12.24 1155.75,-16.4313 1156.24,-9.44846"/>
</g>
<!-- Node6 -->
<g id="node11" class="node"><title>Node6</title>
<a xlink:href="../../d6/dd0/_u_b_8h.html" target="_top" xlink:title="UB.h">
<polygon fill="white" stroke="black" points="1234.5,-58.5 1234.5,-79.5 1273.5,-79.5 1273.5,-58.5 1234.5,-58.5"/>
<text text-anchor="middle" x="1254" y="-66.5" font-family="Helvetica,sans-Serif" font-size="10.00">UB.h</text>
</a>
</g>
<!-- Node1&#45;&gt;Node6 -->
<g id="edge82" class="edge"><title>Node1&#45;&gt;Node6</title>
<path fill="none" stroke="midnightblue" d="M1283.81,-420.996C1295.04,-397.722 1313,-354.336 1313,-315 1313,-315 1313,-315 1313,-185 1313,-147.102 1287.67,-109.067 1270.2,-87.3447"/>
<polygon fill="midnightblue" stroke="midnightblue" points="1272.84,-85.0337 1263.74,-79.5949 1267.46,-89.5167 1272.84,-85.0337"/>
</g>
<!-- Node7 -->
<g id="node14" class="node"><title>Node7</title>
<a xlink:href="../../d3/d76/_u_b_setting_8h.html" target="_top" xlink:title="UBSetting.h">
<polygon fill="white" stroke="black" points="1291,-58.5 1291,-79.5 1361,-79.5 1361,-58.5 1291,-58.5"/>
<text text-anchor="middle" x="1326" y="-66.5" font-family="Helvetica,sans-Serif" font-size="10.00">UBSetting.h</text>
</a>
</g>
<!-- Node1&#45;&gt;Node7 -->
<g id="edge84" class="edge"><title>Node1&#45;&gt;Node7</title>
<path fill="none" stroke="midnightblue" d="M1294.18,-420.907C1316.69,-398.858 1351,-358.175 1351,-315 1351,-315 1351,-315 1351,-185 1351,-150.853 1340.52,-112.296 1333.13,-89.3541"/>
<polygon fill="midnightblue" stroke="midnightblue" points="1336.4,-88.083 1329.91,-79.7085 1329.76,-90.3023 1336.4,-88.083"/>
</g>
<!-- Node8 -->
<g id="node18" class="node"><title>Node8</title>
<a xlink:href="../../d8/d93/_u_b_platform_utils_8h.html" target="_top" xlink:title="frameworks/UBPlatformUtils.h">
<polygon fill="white" stroke="black" points="0,-362.5 0,-383.5 150,-383.5 150,-362.5 0,-362.5"/>
<text text-anchor="middle" x="75" y="-370.5" font-family="Helvetica,sans-Serif" font-size="10.00">frameworks/UBPlatformUtils.h</text>
</a>
</g>
<!-- Node1&#45;&gt;Node8 -->
<g id="edge20" class="edge"><title>Node1&#45;&gt;Node8</title>
<path fill="none" stroke="midnightblue" d="M1221.5,-435.102C1032.15,-424.846 392.723,-390.21 160.328,-377.622"/>
<polygon fill="midnightblue" stroke="midnightblue" points="160.411,-374.121 150.236,-377.075 160.032,-381.111 160.411,-374.121"/>
</g>
<!-- Node10 -->
<g id="node23" class="node"><title>Node10</title>
<a xlink:href="../../d2/db5/_u_b_file_system_utils_8h.html" target="_top" xlink:title="frameworks/UBFileSystemUtils.h">
<polygon fill="white" stroke="black" points="1084.5,-239.5 1084.5,-260.5 1247.5,-260.5 1247.5,-239.5 1084.5,-239.5"/>
<text text-anchor="middle" x="1166" y="-247.5" font-family="Helvetica,sans-Serif" font-size="10.00">frameworks/UBFileSystemUtils.h</text>
</a>
</g>
<!-- Node1&#45;&gt;Node10 -->
<g id="edge26" class="edge"><title>Node1&#45;&gt;Node10</title>
<path fill="none" stroke="midnightblue" d="M1265.13,-420.985C1244.93,-386.136 1198.94,-306.816 1177.46,-269.76"/>
<polygon fill="midnightblue" stroke="midnightblue" points="1180.36,-267.796 1172.32,-260.901 1174.31,-271.308 1180.36,-267.796"/>
</g>
<!-- Node12 -->
<g id="node29" class="node"><title>Node12</title>
<a xlink:href="../../de/d82/_u_b_crypto_utils_8h.html" target="_top" xlink:title="frameworks/UBCryptoUtils.h">
<polygon fill="white" stroke="black" points="501.5,-362.5 501.5,-383.5 644.5,-383.5 644.5,-362.5 501.5,-362.5"/>
<text text-anchor="middle" x="573" y="-370.5" font-family="Helvetica,sans-Serif" font-size="10.00">frameworks/UBCryptoUtils.h</text>
</a>
</g>
<!-- Node1&#45;&gt;Node12 -->
<g id="edge34" class="edge"><title>Node1&#45;&gt;Node12</title>
<path fill="none" stroke="midnightblue" d="M1221.37,-433.034C1099.3,-421.732 800.071,-394.025 654.793,-380.573"/>
<polygon fill="midnightblue" stroke="midnightblue" points="654.884,-377.067 644.604,-379.63 654.239,-384.037 654.884,-377.067"/>
</g>
<!-- Node30 -->
<g id="node73" class="node"><title>Node30</title>
<a xlink:href="../../da/d5b/_u_b_tools_manager_8h.html" target="_top" xlink:title="tools/UBToolsManager.h">
<polygon fill="white" stroke="black" points="994.5,-362.5 994.5,-383.5 1119.5,-383.5 1119.5,-362.5 994.5,-362.5"/>
<text text-anchor="middle" x="1057" y="-370.5" font-family="Helvetica,sans-Serif" font-size="10.00">tools/UBToolsManager.h</text>
</a>
</g>
<!-- Node1&#45;&gt;Node30 -->
<g id="edge86" class="edge"><title>Node1&#45;&gt;Node30</title>
<path fill="none" stroke="midnightblue" d="M1221.39,-422.016C1184.79,-411.102 1136.84,-396.804 1102.18,-386.47"/>
<polygon fill="midnightblue" stroke="midnightblue" points="1102.91,-383.035 1092.32,-383.532 1100.91,-389.744 1102.91,-383.035"/>
</g>
<!-- Node31 -->
<g id="node77" class="node"><title>Node31</title>
<a xlink:href="../../db/d80/memcheck_8h.html" target="_top" xlink:title="core/memcheck.h">
<polygon fill="white" stroke="black" points="1416.5,-362.5 1416.5,-383.5 1511.5,-383.5 1511.5,-362.5 1416.5,-362.5"/>
<text text-anchor="middle" x="1464" y="-370.5" font-family="Helvetica,sans-Serif" font-size="10.00">core/memcheck.h</text>
</a>
</g>
<!-- Node1&#45;&gt;Node31 -->
<g id="edge92" class="edge"><title>Node1&#45;&gt;Node31</title>
<path fill="none" stroke="midnightblue" d="M1324.66,-420.922C1355.48,-410.323 1394.58,-396.876 1423.51,-386.925"/>
<polygon fill="midnightblue" stroke="midnightblue" points="1424.97,-390.124 1433.29,-383.562 1422.69,-383.505 1424.97,-390.124"/>
</g>
<!-- Node3 -->
<g id="node5" class="node"><title>Node3</title>
<polygon fill="white" stroke="#bfbfbf" points="872,-58.5 872,-79.5 920,-79.5 920,-58.5 872,-58.5"/>
<text text-anchor="middle" x="896" y="-66.5" font-family="Helvetica,sans-Serif" font-size="10.00">QtCore</text>
</g>
<!-- Node2&#45;&gt;Node3 -->
<g id="edge4" class="edge"><title>Node2&#45;&gt;Node3</title>
<path fill="none" stroke="midnightblue" d="M1134.49,-119.118C1080.58,-107.788 981.965,-87.065 930.044,-76.1542"/>
<polygon fill="midnightblue" stroke="midnightblue" points="930.514,-72.6766 920.008,-74.0452 929.074,-79.527 930.514,-72.6766"/>
</g>
<!-- Node2&#45;&gt;Node4 -->
<g id="edge6" class="edge"><title>Node2&#45;&gt;Node4</title>
<path fill="none" stroke="midnightblue" d="M1164.45,-116.24C1158.24,-106.989 1149.59,-93.1056 1144,-80 1137.31,-64.3074 1132.33,-45.6004 1129.15,-31.6261"/>
<polygon fill="midnightblue" stroke="midnightblue" points="1132.52,-30.6212 1126.99,-21.5816 1125.67,-32.0942 1132.52,-30.6212"/>
</g>
<!-- Node5 -->
<g id="node9" class="node"><title>Node5</title>
<polygon fill="white" stroke="#bfbfbf" points="1153,-58.5 1153,-79.5 1217,-79.5 1217,-58.5 1153,-58.5"/>
<text text-anchor="middle" x="1185" y="-66.5" font-family="Helvetica,sans-Serif" font-size="10.00">QtNetwork</text>
</g>
<!-- Node2&#45;&gt;Node5 -->
<g id="edge8" class="edge"><title>Node2&#45;&gt;Node5</title>
<path fill="none" stroke="midnightblue" d="M1174.38,-116.362C1176.07,-108.84 1178.38,-98.5187 1180.42,-89.4308"/>
<polygon fill="midnightblue" stroke="midnightblue" points="1183.86,-90.0941 1182.63,-79.5707 1177.03,-88.563 1183.86,-90.0941"/>
</g>
<!-- Node2&#45;&gt;Node6 -->
<g id="edge10" class="edge"><title>Node2&#45;&gt;Node6</title>
<path fill="none" stroke="midnightblue" d="M1187.04,-116.362C1199.29,-107.696 1216.8,-95.3126 1230.84,-85.3819"/>
<polygon fill="midnightblue" stroke="midnightblue" points="1232.91,-88.2028 1239.06,-79.5707 1228.87,-82.4879 1232.91,-88.2028"/>
</g>
<!-- Node2&#45;&gt;Node7 -->
<g id="edge14" class="edge"><title>Node2&#45;&gt;Node7</title>
<path fill="none" stroke="midnightblue" d="M1199.89,-116.497C1224.67,-107.164 1261.1,-93.4447 1288.44,-83.1475"/>
<polygon fill="midnightblue" stroke="midnightblue" points="1289.93,-86.3231 1298.06,-79.5231 1287.47,-79.7723 1289.93,-86.3231"/>
</g>
<!-- Node6&#45;&gt;Node4 -->
<g id="edge12" class="edge"><title>Node6&#45;&gt;Node4</title>
<path fill="none" stroke="midnightblue" d="M1234.41,-60.191C1213.38,-50.735 1179.7,-35.5931 1155.26,-24.6045"/>
<polygon fill="midnightblue" stroke="midnightblue" points="1156.62,-21.3796 1146.06,-20.4711 1153.75,-27.764 1156.62,-21.3796"/>
</g>
<!-- Node7&#45;&gt;Node4 -->
<g id="edge16" class="edge"><title>Node7&#45;&gt;Node4</title>
<path fill="none" stroke="midnightblue" d="M1290.99,-58.8972C1252.91,-47.9083 1192.6,-30.5077 1156.12,-19.9807"/>
<polygon fill="midnightblue" stroke="midnightblue" points="1156.64,-16.4867 1146.06,-17.0769 1154.7,-23.2122 1156.64,-16.4867"/>
</g>
<!-- Node8&#45;&gt;Node3 -->
<g id="edge22" class="edge"><title>Node8&#45;&gt;Node3</title>
<path fill="none" stroke="midnightblue" d="M66.7824,-362.359C60.0547,-353.181 50.7419,-339.337 45,-326 31.232,-294.02 26,-284.817 26,-250 26,-250 26,-250 26,-185 26,-144.938 48.1885,-133.958 84,-116 154.27,-80.7632 716.662,-71.266 861.88,-69.3906"/>
<polygon fill="midnightblue" stroke="midnightblue" points="862.029,-72.8891 871.984,-69.2638 861.941,-65.8897 862.029,-72.8891"/>
</g>
<!-- Node9 -->
<g id="node21" class="node"><title>Node9</title>
<polygon fill="white" stroke="#bfbfbf" points="53.5,-304.5 53.5,-325.5 96.5,-325.5 96.5,-304.5 53.5,-304.5"/>
<text text-anchor="middle" x="75" y="-312.5" font-family="Helvetica,sans-Serif" font-size="10.00">QIcon</text>
</g>
<!-- Node8&#45;&gt;Node9 -->
<g id="edge24" class="edge"><title>Node8&#45;&gt;Node9</title>
<path fill="none" stroke="midnightblue" d="M75,-362.362C75,-354.922 75,-344.743 75,-335.728"/>
<polygon fill="midnightblue" stroke="midnightblue" points="78.5001,-335.571 75,-325.571 71.5001,-335.571 78.5001,-335.571"/>
</g>
<!-- Node10&#45;&gt;Node3 -->
<g id="edge28" class="edge"><title>Node10&#45;&gt;Node3</title>
<path fill="none" stroke="midnightblue" d="M1166.36,-239.335C1166.34,-223.285 1163.98,-192.807 1148,-174 1091.32,-107.292 985.265,-82.1859 930.576,-73.3748"/>
<polygon fill="midnightblue" stroke="midnightblue" points="930.765,-69.8635 920.352,-71.8224 929.714,-76.7841 930.765,-69.8635"/>
</g>
<!-- Node10&#45;&gt;Node6 -->
<g id="edge32" class="edge"><title>Node10&#45;&gt;Node6</title>
<path fill="none" stroke="midnightblue" d="M1171.11,-239.486C1185.39,-210.12 1225.86,-126.879 1244.45,-88.6441"/>
<polygon fill="midnightblue" stroke="midnightblue" points="1247.65,-90.0665 1248.87,-79.5427 1241.35,-87.0057 1247.65,-90.0665"/>
</g>
<!-- Node11 -->
<g id="node26" class="node"><title>Node11</title>
<polygon fill="white" stroke="#bfbfbf" points="1085,-174.5 1085,-195.5 1139,-195.5 1139,-174.5 1085,-174.5"/>
<text text-anchor="middle" x="1112" y="-182.5" font-family="Helvetica,sans-Serif" font-size="10.00">QThread</text>
</g>
<!-- Node10&#45;&gt;Node11 -->
<g id="edge30" class="edge"><title>Node10&#45;&gt;Node11</title>
<path fill="none" stroke="midnightblue" d="M1157.08,-239.267C1148.98,-229.517 1136.87,-214.932 1127.23,-203.336"/>
<polygon fill="midnightblue" stroke="midnightblue" points="1129.83,-200.989 1120.75,-195.534 1124.45,-205.462 1129.83,-200.989"/>
</g>
<!-- Node12&#45;&gt;Node3 -->
<g id="edge36" class="edge"><title>Node12&#45;&gt;Node3</title>
<path fill="none" stroke="midnightblue" d="M505.586,-362.462C346.756,-335.077 -28.1011,-254.03 102,-116 128.421,-87.9685 712.162,-73.0926 861.469,-69.7378"/>
<polygon fill="midnightblue" stroke="midnightblue" points="861.926,-73.2286 871.846,-69.5076 861.771,-66.2303 861.926,-73.2286"/>
</g>
<!-- Node13 -->
<g id="node32" class="node"><title>Node13</title>
<polygon fill="white" stroke="#bfbfbf" points="113.5,-304.5 113.5,-325.5 190.5,-325.5 190.5,-304.5 113.5,-304.5"/>
<text text-anchor="middle" x="152" y="-312.5" font-family="Helvetica,sans-Serif" font-size="10.00">openssl/evp.h</text>
</g>
<!-- Node12&#45;&gt;Node13 -->
<g id="edge38" class="edge"><title>Node12&#45;&gt;Node13</title>
<path fill="none" stroke="midnightblue" d="M501.316,-365.626C426.778,-357.548 306.836,-343.396 204,-326 202.908,-325.815 201.805,-325.624 200.692,-325.426"/>
<polygon fill="midnightblue" stroke="midnightblue" points="201.026,-321.928 190.552,-323.522 199.734,-328.808 201.026,-321.928"/>
</g>
<!-- Node14 -->
<g id="node34" class="node"><title>Node14</title>
<a xlink:href="../../db/d54/_u_b_application_8h.html" target="_top" xlink:title="core/UBApplication.h">
<polygon fill="white" stroke="black" points="853.5,-304.5 853.5,-325.5 962.5,-325.5 962.5,-304.5 853.5,-304.5"/>
<text text-anchor="middle" x="908" y="-312.5" font-family="Helvetica,sans-Serif" font-size="10.00">core/UBApplication.h</text>
</a>
</g>
<!-- Node12&#45;&gt;Node14 -->
<g id="edge40" class="edge"><title>Node12&#45;&gt;Node14</title>
<path fill="none" stroke="midnightblue" d="M633.666,-362.497C692.841,-352.251 782.549,-336.72 843.123,-326.232"/>
<polygon fill="midnightblue" stroke="midnightblue" points="844.075,-329.62 853.332,-324.465 842.881,-322.722 844.075,-329.62"/>
</g>
<!-- Node14&#45;&gt;Node4 -->
<g id="edge42" class="edge"><title>Node14&#45;&gt;Node4</title>
<path fill="none" stroke="midnightblue" d="M933.03,-304.433C949.371,-296.459 970.164,-284.133 984,-268 1049.99,-191.053 1014.24,-140.599 1073,-58 1081.05,-46.6901 1092.25,-36.1281 1102.19,-27.8928"/>
<polygon fill="midnightblue" stroke="midnightblue" points="1104.51,-30.5224 1110.15,-21.5571 1100.15,-25.0449 1104.51,-30.5224"/>
</g>
<!-- Node15 -->
<g id="node37" class="node"><title>Node15</title>
<polygon fill="white" stroke="#bfbfbf" points="718.5,-239.5 718.5,-260.5 823.5,-260.5 823.5,-239.5 718.5,-239.5"/>
<text text-anchor="middle" x="771" y="-247.5" font-family="Helvetica,sans-Serif" font-size="10.00">qtsingleapplication.h</text>
</g>
<!-- Node14&#45;&gt;Node15 -->
<g id="edge44" class="edge"><title>Node14&#45;&gt;Node15</title>
<path fill="none" stroke="midnightblue" d="M885.684,-304.412C863.094,-293.694 827.96,-277.025 802.531,-264.96"/>
<polygon fill="midnightblue" stroke="midnightblue" points="803.842,-261.708 793.307,-260.584 800.841,-268.032 803.842,-261.708"/>
</g>
<!-- Node16 -->
<g id="node39" class="node"><title>Node16</title>
<a xlink:href="../../d1/d9d/_uniboard_sankore_transition_8h.html" target="_top" xlink:title="transition/UniboardSankore\lTransition.h">
<polygon fill="white" stroke="black" points="841,-233 841,-267 975,-267 975,-233 841,-233"/>
<text text-anchor="start" x="849" y="-254" font-family="Helvetica,sans-Serif" font-size="10.00">transition/UniboardSankore</text>
<text text-anchor="middle" x="908" y="-241" font-family="Helvetica,sans-Serif" font-size="10.00">Transition.h</text>
</a>
</g>
<!-- Node14&#45;&gt;Node16 -->
<g id="edge46" class="edge"><title>Node14&#45;&gt;Node16</title>
<path fill="none" stroke="midnightblue" d="M908,-304.267C908,-296.931 908,-286.857 908,-277.38"/>
<polygon fill="midnightblue" stroke="midnightblue" points="911.5,-277.11 908,-267.11 904.5,-277.11 911.5,-277.11"/>
</g>
<!-- Node16&#45;&gt;Node11 -->
<g id="edge52" class="edge"><title>Node16&#45;&gt;Node11</title>
<path fill="none" stroke="midnightblue" d="M961.599,-232.922C997.39,-221.518 1043.53,-206.816 1075.22,-196.721"/>
<polygon fill="midnightblue" stroke="midnightblue" points="1076.5,-199.985 1084.96,-193.615 1074.37,-193.316 1076.5,-199.985"/>
</g>
<!-- Node17 -->
<g id="node41" class="node"><title>Node17</title>
<polygon fill="white" stroke="#bfbfbf" points="375.5,-174.5 375.5,-195.5 428.5,-195.5 428.5,-174.5 375.5,-174.5"/>
<text text-anchor="middle" x="402" y="-182.5" font-family="Helvetica,sans-Serif" font-size="10.00">QObject</text>
</g>
<!-- Node16&#45;&gt;Node17 -->
<g id="edge48" class="edge"><title>Node16&#45;&gt;Node17</title>
<path fill="none" stroke="midnightblue" d="M840.967,-233.58C837.944,-233.011 834.944,-232.48 832,-232 661.245,-204.142 611.68,-229.641 438.553,-195.978"/>
<polygon fill="midnightblue" stroke="midnightblue" points="439.09,-192.516 428.6,-194.004 437.728,-199.382 439.09,-192.516"/>
</g>
<!-- Node18 -->
<g id="node43" class="node"><title>Node18</title>
<polygon fill="white" stroke="#bfbfbf" points="446,-174.5 446,-195.5 502,-195.5 502,-174.5 446,-174.5"/>
<text text-anchor="middle" x="474" y="-182.5" font-family="Helvetica,sans-Serif" font-size="10.00">QFileInfo</text>
</g>
<!-- Node16&#45;&gt;Node18 -->
<g id="edge50" class="edge"><title>Node16&#45;&gt;Node18</title>
<path fill="none" stroke="midnightblue" d="M840.954,-233.657C837.934,-233.067 834.939,-232.511 832,-232 693.737,-207.964 653.488,-223.818 512.063,-195.923"/>
<polygon fill="midnightblue" stroke="midnightblue" points="512.645,-192.47 502.152,-193.93 511.265,-199.333 512.645,-192.47"/>
</g>
<!-- Node19 -->
<g id="node46" class="node"><title>Node19</title>
<a xlink:href="../../db/dc7/_u_b_update_dlg_8h.html" target="_top" xlink:title="gui/UBUpdateDlg.h">
<polygon fill="white" stroke="black" points="519.5,-174.5 519.5,-195.5 620.5,-195.5 620.5,-174.5 519.5,-174.5"/>
<text text-anchor="middle" x="570" y="-182.5" font-family="Helvetica,sans-Serif" font-size="10.00">gui/UBUpdateDlg.h</text>
</a>
</g>
<!-- Node16&#45;&gt;Node19 -->
<g id="edge54" class="edge"><title>Node16&#45;&gt;Node19</title>
<path fill="none" stroke="midnightblue" d="M840.908,-233.898C837.901,-233.243 834.921,-232.607 832,-232 763.355,-217.725 684.049,-203.862 630.831,-194.936"/>
<polygon fill="midnightblue" stroke="midnightblue" points="631.316,-191.469 620.876,-193.273 630.163,-198.373 631.316,-191.469"/>
</g>
<!-- Node28 -->
<g id="node64" class="node"><title>Node28</title>
<a xlink:href="../../db/dea/_u_b_document_proxy_8h.html" target="_top" xlink:title="document/UBDocumentProxy.h">
<polygon fill="white" stroke="black" points="834.5,-174.5 834.5,-195.5 989.5,-195.5 989.5,-174.5 834.5,-174.5"/>
<text text-anchor="middle" x="912" y="-182.5" font-family="Helvetica,sans-Serif" font-size="10.00">document/UBDocumentProxy.h</text>
</a>
</g>
<!-- Node16&#45;&gt;Node28 -->
<g id="edge72" class="edge"><title>Node16&#45;&gt;Node28</title>
<path fill="none" stroke="midnightblue" d="M909.051,-232.922C909.559,-224.67 910.173,-214.692 910.709,-205.982"/>
<polygon fill="midnightblue" stroke="midnightblue" points="914.211,-206.048 911.332,-195.852 907.224,-205.618 914.211,-206.048"/>
</g>
<!-- Node20 -->
<g id="node48" class="node"><title>Node20</title>
<polygon fill="white" stroke="#bfbfbf" points="315,-116.5 315,-137.5 367,-137.5 367,-116.5 315,-116.5"/>
<text text-anchor="middle" x="341" y="-124.5" font-family="Helvetica,sans-Serif" font-size="10.00">QDialog</text>
</g>
<!-- Node19&#45;&gt;Node20 -->
<g id="edge56" class="edge"><title>Node19&#45;&gt;Node20</title>
<path fill="none" stroke="midnightblue" d="M522.731,-174.478C485.54,-165.99 432.212,-153.359 377.235,-138.23"/>
<polygon fill="midnightblue" stroke="midnightblue" points="377.889,-134.779 367.317,-135.478 376.017,-141.525 377.889,-134.779"/>
</g>
<!-- Node21 -->
<g id="node50" class="node"><title>Node21</title>
<polygon fill="white" stroke="#bfbfbf" points="384.5,-116.5 384.5,-137.5 431.5,-137.5 431.5,-116.5 384.5,-116.5"/>
<text text-anchor="middle" x="408" y="-124.5" font-family="Helvetica,sans-Serif" font-size="10.00">QLabel</text>
</g>
<!-- Node19&#45;&gt;Node21 -->
<g id="edge58" class="edge"><title>Node19&#45;&gt;Node21</title>
<path fill="none" stroke="midnightblue" d="M540.663,-174.497C512.687,-164.481 470.599,-149.412 441.36,-138.944"/>
<polygon fill="midnightblue" stroke="midnightblue" points="442.192,-135.524 431.597,-135.448 439.833,-142.114 442.192,-135.524"/>
</g>
<!-- Node22 -->
<g id="node52" class="node"><title>Node22</title>
<polygon fill="white" stroke="#bfbfbf" points="448.5,-116.5 448.5,-137.5 523.5,-137.5 523.5,-116.5 448.5,-116.5"/>
<text text-anchor="middle" x="486" y="-124.5" font-family="Helvetica,sans-Serif" font-size="10.00">QPushButton</text>
</g>
<!-- Node19&#45;&gt;Node22 -->
<g id="edge60" class="edge"><title>Node19&#45;&gt;Node22</title>
<path fill="none" stroke="midnightblue" d="M554.593,-174.362C542.042,-165.696 524.108,-153.313 509.725,-143.382"/>
<polygon fill="midnightblue" stroke="midnightblue" points="511.527,-140.372 501.309,-137.571 507.55,-146.133 511.527,-140.372"/>
</g>
<!-- Node23 -->
<g id="node54" class="node"><title>Node23</title>
<polygon fill="white" stroke="#bfbfbf" points="540.5,-116.5 540.5,-137.5 599.5,-137.5 599.5,-116.5 540.5,-116.5"/>
<text text-anchor="middle" x="570" y="-124.5" font-family="Helvetica,sans-Serif" font-size="10.00">QLineEdit</text>
</g>
<!-- Node19&#45;&gt;Node23 -->
<g id="edge62" class="edge"><title>Node19&#45;&gt;Node23</title>
<path fill="none" stroke="midnightblue" d="M570,-174.362C570,-166.922 570,-156.743 570,-147.728"/>
<polygon fill="midnightblue" stroke="midnightblue" points="573.5,-147.571 570,-137.571 566.5,-147.571 573.5,-147.571"/>
</g>
<!-- Node24 -->
<g id="node56" class="node"><title>Node24</title>
<polygon fill="white" stroke="#bfbfbf" points="617,-116.5 617,-137.5 715,-137.5 715,-116.5 617,-116.5"/>
<text text-anchor="middle" x="666" y="-124.5" font-family="Helvetica,sans-Serif" font-size="10.00">QDialogButtonBox</text>
</g>
<!-- Node19&#45;&gt;Node24 -->
<g id="edge64" class="edge"><title>Node19&#45;&gt;Node24</title>
<path fill="none" stroke="midnightblue" d="M587.608,-174.362C602.223,-165.532 623.224,-152.844 639.811,-142.822"/>
<polygon fill="midnightblue" stroke="midnightblue" points="641.754,-145.738 648.504,-137.571 638.135,-139.746 641.754,-145.738"/>
</g>
<!-- Node25 -->
<g id="node58" class="node"><title>Node25</title>
<polygon fill="white" stroke="#bfbfbf" points="732.5,-116.5 732.5,-137.5 809.5,-137.5 809.5,-116.5 732.5,-116.5"/>
<text text-anchor="middle" x="771" y="-124.5" font-family="Helvetica,sans-Serif" font-size="10.00">QVBoxLayout</text>
</g>
<!-- Node19&#45;&gt;Node25 -->
<g id="edge66" class="edge"><title>Node19&#45;&gt;Node25</title>
<path fill="none" stroke="midnightblue" d="M606.4,-174.497C639.594,-164.918 688.799,-150.72 724.764,-140.342"/>
<polygon fill="midnightblue" stroke="midnightblue" points="725.895,-143.658 734.532,-137.523 723.954,-136.933 725.895,-143.658"/>
</g>
<!-- Node26 -->
<g id="node60" class="node"><title>Node26</title>
<polygon fill="white" stroke="#bfbfbf" points="111,-116.5 111,-137.5 189,-137.5 189,-116.5 111,-116.5"/>
<text text-anchor="middle" x="150" y="-124.5" font-family="Helvetica,sans-Serif" font-size="10.00">QHBoxLayout</text>
</g>
<!-- Node19&#45;&gt;Node26 -->
<g id="edge68" class="edge"><title>Node19&#45;&gt;Node26</title>
<path fill="none" stroke="midnightblue" d="M519.189,-175.294C516.422,-174.838 513.679,-174.403 511,-174 375.777,-153.644 337.78,-161.292 199.364,-138.086"/>
<polygon fill="midnightblue" stroke="midnightblue" points="199.667,-134.587 189.221,-136.361 198.493,-141.488 199.667,-134.587"/>
</g>
<!-- Node27 -->
<g id="node62" class="node"><title>Node27</title>
<polygon fill="white" stroke="#bfbfbf" points="206.5,-116.5 206.5,-137.5 297.5,-137.5 297.5,-116.5 206.5,-116.5"/>
<text text-anchor="middle" x="252" y="-124.5" font-family="Helvetica,sans-Serif" font-size="10.00">QStackedWidget</text>
</g>
<!-- Node19&#45;&gt;Node27 -->
<g id="edge70" class="edge"><title>Node19&#45;&gt;Node27</title>
<path fill="none" stroke="midnightblue" d="M519.476,-175.544C516.609,-175.019 513.768,-174.501 511,-174 423.085,-158.086 398.543,-155.407 307.563,-138.265"/>
<polygon fill="midnightblue" stroke="midnightblue" points="308.124,-134.809 297.648,-136.389 306.823,-141.687 308.124,-134.809"/>
</g>
<!-- Node28&#45;&gt;Node2 -->
<g id="edge80" class="edge"><title>Node28&#45;&gt;Node2</title>
<path fill="none" stroke="midnightblue" d="M959.084,-174.497C1005.85,-164.065 1077.18,-148.153 1124.19,-137.665"/>
<polygon fill="midnightblue" stroke="midnightblue" points="1125.13,-141.042 1134.13,-135.448 1123.61,-134.21 1125.13,-141.042"/>
</g>
<!-- Node28&#45;&gt;Node4 -->
<g id="edge74" class="edge"><title>Node28&#45;&gt;Node4</title>
<path fill="none" stroke="midnightblue" d="M929.957,-174.37C943.319,-165.803 961.356,-152.78 974,-138 1000.24,-107.327 987.301,-85.3385 1017,-58 1038.76,-37.9741 1070.39,-25.5759 1093.81,-18.5777"/>
<polygon fill="midnightblue" stroke="midnightblue" points="1094.92,-21.8987 1103.6,-15.8184 1093.03,-15.1609 1094.92,-21.8987"/>
</g>
<!-- Node29 -->
<g id="node67" class="node"><title>Node29</title>
<a xlink:href="../../d7/dca/_u_b_string_utils_8h.html" target="_top" xlink:title="frameworks/UBStringUtils.h">
<polygon fill="white" stroke="black" points="826.5,-116.5 826.5,-137.5 965.5,-137.5 965.5,-116.5 826.5,-116.5"/>
<text text-anchor="middle" x="896" y="-124.5" font-family="Helvetica,sans-Serif" font-size="10.00">frameworks/UBStringUtils.h</text>
</a>
</g>
<!-- Node28&#45;&gt;Node29 -->
<g id="edge76" class="edge"><title>Node28&#45;&gt;Node29</title>
<path fill="none" stroke="midnightblue" d="M909.065,-174.362C906.99,-166.84 904.143,-156.519 901.636,-147.431"/>
<polygon fill="midnightblue" stroke="midnightblue" points="904.949,-146.28 898.916,-137.571 898.201,-148.141 904.949,-146.28"/>
</g>
<!-- Node29&#45;&gt;Node3 -->
<g id="edge78" class="edge"><title>Node29&#45;&gt;Node3</title>
<path fill="none" stroke="midnightblue" d="M896,-116.362C896,-108.922 896,-98.7427 896,-89.7276"/>
<polygon fill="midnightblue" stroke="midnightblue" points="899.5,-89.5706 896,-79.5707 892.5,-89.5707 899.5,-89.5706"/>
</g>
<!-- Node30&#45;&gt;Node4 -->
<g id="edge88" class="edge"><title>Node30&#45;&gt;Node4</title>
<path fill="none" stroke="midnightblue" d="M1057.29,-362.107C1058.25,-331.936 1062.11,-244.839 1076,-174 1086.27,-121.603 1106.46,-61.9653 1117.44,-31.4134"/>
<polygon fill="midnightblue" stroke="midnightblue" points="1120.78,-32.4734 1120.91,-21.8793 1114.2,-30.0788 1120.78,-32.4734"/>
</g>
<!-- Node30&#45;&gt;Node14 -->
<g id="edge90" class="edge"><title>Node30&#45;&gt;Node14</title>
<path fill="none" stroke="midnightblue" d="M1030.02,-362.497C1006.15,-353.205 971.106,-339.565 944.693,-329.283"/>
<polygon fill="midnightblue" stroke="midnightblue" points="945.622,-325.889 935.033,-325.523 943.083,-332.412 945.622,-325.889"/>
</g>
</g>
</svg>
