<?xml version="1.0" encoding="UTF-8" standalone="no"?>
<!DOCTYPE svg PUBLIC "-//W3C//DTD SVG 1.1//EN"
 "http://www.w3.org/Graphics/SVG/1.1/DTD/svg11.dtd">
<!-- Generated by graphviz version 2.26.3 (20100126.1600)
 -->
<!-- Title: Sankore&#45;3.1/src/gui/UBScreenMirror.h Pages: 1 -->
<svg width="276pt" height="116pt"
 viewBox="0.00 0.00 276.00 116.00" xmlns="http://www.w3.org/2000/svg" xmlns:xlink="http://www.w3.org/1999/xlink">
<g id="graph1" class="graph" transform="scale(1 1) rotate(0) translate(4 112)">
<title>Sankore&#45;3.1/src/gui/UBScreenMirror.h</title>
<polygon fill="white" stroke="white" points="-4,5 -4,-112 273,-112 273,5 -4,5"/>
<!-- Node1 -->
<g id="node1" class="node"><title>Node1</title>
<polygon fill="#bfbfbf" stroke="black" points="91.5,-73 91.5,-107 192.5,-107 192.5,-73 91.5,-73"/>
<text text-anchor="start" x="99.5" y="-94" font-family="Helvetica,sans-Serif" font-size="10.00">Sankore&#45;3.1/src/gui</text>
<text text-anchor="middle" x="142" y="-81" font-family="Helvetica,sans-Serif" font-size="10.00">/UBScreenMirror.h</text>
</g>
<!-- Node2 -->
<g id="node3" class="node"><title>Node2</title>
<a xlink:href="../../d5/d36/_u_b_application_controller_8cpp.html" target="_top" xlink:title="Sankore&#45;3.1/src/core\l/UBApplicationController.cpp">
<polygon fill="white" stroke="black" points="-0.5,-1 -0.5,-35 142.5,-35 142.5,-1 -0.5,-1"/>
<text text-anchor="start" x="7.5" y="-22" font-family="Helvetica,sans-Serif" font-size="10.00">Sankore&#45;3.1/src/core</text>
<text text-anchor="middle" x="71" y="-9" font-family="Helvetica,sans-Serif" font-size="10.00">/UBApplicationController.cpp</text>
</a>
</g>
<!-- Node1&#45;&gt;Node2 -->
<g id="edge2" class="edge"><title>Node1&#45;&gt;Node2</title>
<path fill="none" stroke="midnightblue" d="M118.008,-65.6706C108.231,-55.7551 97.1469,-44.5151 88.1984,-35.4407"/>
<polygon fill="midnightblue" stroke="midnightblue" points="115.66,-68.2742 125.174,-72.937 120.645,-63.3591 115.66,-68.2742"/>
</g>
<!-- Node3 -->
<g id="node5" class="node"><title>Node3</title>
<a xlink:href="../../dd/dd9/_u_b_screen_mirror_8cpp.html" target="_top" xlink:title="Sankore&#45;3.1/src/gui\l/UBScreenMirror.cpp">
<polygon fill="white" stroke="black" points="160,-1 160,-35 268,-35 268,-1 160,-1"/>
<text text-anchor="start" x="168" y="-22" font-family="Helvetica,sans-Serif" font-size="10.00">Sankore&#45;3.1/src/gui</text>
<text text-anchor="middle" x="214" y="-9" font-family="Helvetica,sans-Serif" font-size="10.00">/UBScreenMirror.cpp</text>
</a>
</g>
<!-- Node1&#45;&gt;Node3 -->
<g id="edge4" class="edge"><title>Node1&#45;&gt;Node3</title>
<path fill="none" stroke="midnightblue" d="M166.329,-65.6706C176.245,-55.7551 187.485,-44.5151 196.559,-35.4407"/>
<polygon fill="midnightblue" stroke="midnightblue" points="163.659,-63.391 159.063,-72.937 168.609,-68.3408 163.659,-63.391"/>
</g>
</g>
</svg>
