<?xml version="1.0" encoding="UTF-8" standalone="no"?>
<!DOCTYPE svg PUBLIC "-//W3C//DTD SVG 1.1//EN"
 "http://www.w3.org/Graphics/SVG/1.1/DTD/svg11.dtd">
<!-- Generated by graphviz version 2.26.3 (20100126.1600)
 -->
<!-- Title: UBGraphicsItem::remove Pages: 1 -->
<svg width="2188pt" height="614pt"
 viewBox="0.00 0.00 2188.00 614.00" xmlns="http://www.w3.org/2000/svg" xmlns:xlink="http://www.w3.org/1999/xlink">
<g id="graph1" class="graph" transform="scale(1 1) rotate(0) translate(4 610)">
<title>UBGraphicsItem::remove</title>
<polygon fill="white" stroke="white" points="-4,5 -4,-610 2185,-610 2185,5 -4,5"/>
<!-- Node1 -->
<g id="node1" class="node"><title>Node1</title>
<polygon fill="#bfbfbf" stroke="black" points="0,-510.5 0,-531.5 128,-531.5 128,-510.5 0,-510.5"/>
<text text-anchor="middle" x="64" y="-518.5" font-family="Helvetica,sans-Serif" font-size="10.00">UBGraphicsItem::remove</text>
</g>
<!-- Node2 -->
<g id="node3" class="node"><title>Node2</title>
<a xlink:href="../../d7/d62/class_u_b_board_controller.html#aedaf462295a3ad1a7c7e76bf88078e8f" target="_top" xlink:title="UBBoardController::cut">
<polygon fill="white" stroke="black" points="194,-575.5 194,-596.5 312,-596.5 312,-575.5 194,-575.5"/>
<text text-anchor="middle" x="253" y="-583.5" font-family="Helvetica,sans-Serif" font-size="10.00">UBBoardController::cut</text>
</a>
</g>
<!-- Node1&#45;&gt;Node2 -->
<g id="edge2" class="edge"><title>Node1&#45;&gt;Node2</title>
<path fill="none" stroke="midnightblue" d="M100.853,-535.132C119.668,-542.221 142.97,-550.806 164,-558 181.778,-564.081 201.719,-570.401 218.212,-575.493"/>
<polygon fill="midnightblue" stroke="midnightblue" points="102.05,-531.843 91.4581,-531.577 99.572,-538.39 102.05,-531.843"/>
</g>
<!-- Node4 -->
<g id="node7" class="node"><title>Node4</title>
<a xlink:href="../../d7/d62/class_u_b_board_controller.html#a07e50010567075b570140d6143c516f5" target="_top" xlink:title="UBBoardController:\l:processMimeData">
<polygon fill="white" stroke="black" points="1659.5,-395 1659.5,-429 1760.5,-429 1760.5,-395 1659.5,-395"/>
<text text-anchor="start" x="1667.5" y="-416" font-family="Helvetica,sans-Serif" font-size="10.00">UBBoardController:</text>
<text text-anchor="middle" x="1710" y="-403" font-family="Helvetica,sans-Serif" font-size="10.00">:processMimeData</text>
</a>
</g>
<!-- Node1&#45;&gt;Node4 -->
<g id="edge6" class="edge"><title>Node1&#45;&gt;Node4</title>
<path fill="none" stroke="midnightblue" d="M138.224,-527.778C219.025,-534.562 352.08,-544 467,-544 467,-544 467,-544 1290,-544 1422.71,-544 1480.07,-602.226 1588,-525 1622.03,-500.65 1592.99,-466.093 1624,-438 1633.83,-429.099 1646.61,-423.243 1659.3,-419.39"/>
<polygon fill="midnightblue" stroke="midnightblue" points="138.409,-524.281 128.149,-526.923 137.817,-531.256 138.409,-524.281"/>
</g>
<!-- Node8 -->
<g id="node15" class="node"><title>Node8</title>
<a xlink:href="../../d7/d62/class_u_b_board_controller.html#af713d6e325369af244f2af8c90299a35" target="_top" xlink:title="UBBoardController:\l:moveGraphicsWidgetToControlView">
<polygon fill="white" stroke="black" points="164,-482 164,-516 342,-516 342,-482 164,-482"/>
<text text-anchor="start" x="172" y="-503" font-family="Helvetica,sans-Serif" font-size="10.00">UBBoardController:</text>
<text text-anchor="middle" x="253" y="-490" font-family="Helvetica,sans-Serif" font-size="10.00">:moveGraphicsWidgetToControlView</text>
</a>
</g>
<!-- Node1&#45;&gt;Node8 -->
<g id="edge14" class="edge"><title>Node1&#45;&gt;Node8</title>
<path fill="none" stroke="midnightblue" d="M138.328,-512.348C146.694,-511.374 155.282,-510.375 163.812,-509.382"/>
<polygon fill="midnightblue" stroke="midnightblue" points="137.779,-508.888 128.251,-513.521 138.588,-515.841 137.779,-508.888"/>
</g>
<!-- Node50 -->
<g id="node107" class="node"><title>Node50</title>
<a xlink:href="../../dc/db2/class_u_b_graphics_scene.html#a07dbd2ed42e2a4ed6519f958f4ef5138" target="_top" xlink:title="UBGraphicsScene::keyRelease\lEvent">
<polygon fill="white" stroke="black" points="175.5,-430 175.5,-464 330.5,-464 330.5,-430 175.5,-430"/>
<text text-anchor="start" x="183.5" y="-451" font-family="Helvetica,sans-Serif" font-size="10.00">UBGraphicsScene::keyRelease</text>
<text text-anchor="middle" x="253" y="-438" font-family="Helvetica,sans-Serif" font-size="10.00">Event</text>
</a>
</g>
<!-- Node1&#45;&gt;Node50 -->
<g id="edge114" class="edge"><title>Node1&#45;&gt;Node50</title>
<path fill="none" stroke="midnightblue" d="M92.5495,-505.756C112.26,-495.618 139.273,-482.473 164,-473 172.267,-469.833 181.091,-466.826 189.849,-464.057"/>
<polygon fill="midnightblue" stroke="midnightblue" points="90.7583,-502.743 83.5022,-510.463 93.9888,-508.953 90.7583,-502.743"/>
</g>
<!-- Node3 -->
<g id="node5" class="node"><title>Node3</title>
<a xlink:href="../../da/d14/class_u_b_application_controller.html#a3def02974385510d3173e6f2d4fc9332" target="_top" xlink:title="UBApplicationController\l::actionCut">
<polygon fill="white" stroke="black" points="406.5,-572 406.5,-606 527.5,-606 527.5,-572 406.5,-572"/>
<text text-anchor="start" x="414.5" y="-593" font-family="Helvetica,sans-Serif" font-size="10.00">UBApplicationController</text>
<text text-anchor="middle" x="467" y="-580" font-family="Helvetica,sans-Serif" font-size="10.00">::actionCut</text>
</a>
</g>
<!-- Node2&#45;&gt;Node3 -->
<g id="edge4" class="edge"><title>Node2&#45;&gt;Node3</title>
<path fill="none" stroke="midnightblue" d="M322.223,-586.97C349.304,-587.35 380.089,-587.782 406.288,-588.149"/>
<polygon fill="midnightblue" stroke="midnightblue" points="322.091,-583.468 312.043,-586.828 321.993,-590.468 322.091,-583.468"/>
</g>
<!-- Node5 -->
<g id="node9" class="node"><title>Node5</title>
<a xlink:href="../../d7/d62/class_u_b_board_controller.html#a68518a98107e994551da0a4e3a79fe2c" target="_top" xlink:title="UBBoardController:\l:paste">
<polygon fill="white" stroke="black" points="1845.5,-395 1845.5,-429 1946.5,-429 1946.5,-395 1845.5,-395"/>
<text text-anchor="start" x="1853.5" y="-416" font-family="Helvetica,sans-Serif" font-size="10.00">UBBoardController:</text>
<text text-anchor="middle" x="1896" y="-403" font-family="Helvetica,sans-Serif" font-size="10.00">:paste</text>
</a>
</g>
<!-- Node4&#45;&gt;Node5 -->
<g id="edge8" class="edge"><title>Node4&#45;&gt;Node5</title>
<path fill="none" stroke="midnightblue" d="M1770.91,-412C1794.96,-412 1822.28,-412 1845.24,-412"/>
<polygon fill="midnightblue" stroke="midnightblue" points="1770.83,-408.5 1760.83,-412 1770.83,-415.5 1770.83,-408.5"/>
</g>
<!-- Node7 -->
<g id="node13" class="node"><title>Node7</title>
<a xlink:href="../../d1/d78/class_u_b_board_view.html#a1bb7794094c4bb04637b0df2bc0c0fa9" target="_top" xlink:title="UBBoardView::dropEvent">
<polygon fill="white" stroke="black" points="1832,-355.5 1832,-376.5 1960,-376.5 1960,-355.5 1832,-355.5"/>
<text text-anchor="middle" x="1896" y="-363.5" font-family="Helvetica,sans-Serif" font-size="10.00">UBBoardView::dropEvent</text>
</a>
</g>
<!-- Node4&#45;&gt;Node7 -->
<g id="edge12" class="edge"><title>Node4&#45;&gt;Node7</title>
<path fill="none" stroke="midnightblue" d="M1770.58,-397.017C1797.64,-390.325 1828.88,-382.599 1853.42,-376.532"/>
<polygon fill="midnightblue" stroke="midnightblue" points="1769.69,-393.632 1760.83,-399.43 1771.37,-400.427 1769.69,-393.632"/>
</g>
<!-- Node6 -->
<g id="node11" class="node"><title>Node6</title>
<a xlink:href="../../da/d14/class_u_b_application_controller.html#a6afa41e1bc0c178acaa89684b7e9db26" target="_top" xlink:title="UBApplicationController\l::actionPaste">
<polygon fill="white" stroke="black" points="2027.5,-395 2027.5,-429 2148.5,-429 2148.5,-395 2027.5,-395"/>
<text text-anchor="start" x="2035.5" y="-416" font-family="Helvetica,sans-Serif" font-size="10.00">UBApplicationController</text>
<text text-anchor="middle" x="2088" y="-403" font-family="Helvetica,sans-Serif" font-size="10.00">::actionPaste</text>
</a>
</g>
<!-- Node5&#45;&gt;Node6 -->
<g id="edge10" class="edge"><title>Node5&#45;&gt;Node6</title>
<path fill="none" stroke="midnightblue" d="M1956.82,-412C1979.37,-412 2004.92,-412 2027.44,-412"/>
<polygon fill="midnightblue" stroke="midnightblue" points="1956.7,-408.5 1946.7,-412 1956.7,-415.5 1956.7,-408.5"/>
</g>
<!-- Node9 -->
<g id="node17" class="node"><title>Node9</title>
<a xlink:href="../../dc/db2/class_u_b_graphics_scene.html#aa63a9c1b5eb1de5a0d06a0f2b449648a" target="_top" xlink:title="UBGraphicsScene::addGraphics\lWidget">
<polygon fill="white" stroke="black" points="388,-364 388,-398 546,-398 546,-364 388,-364"/>
<text text-anchor="start" x="396" y="-385" font-family="Helvetica,sans-Serif" font-size="10.00">UBGraphicsScene::addGraphics</text>
<text text-anchor="middle" x="467" y="-372" font-family="Helvetica,sans-Serif" font-size="10.00">Widget</text>
</a>
</g>
<!-- Node8&#45;&gt;Node9 -->
<g id="edge16" class="edge"><title>Node8&#45;&gt;Node9</title>
<path fill="none" stroke="midnightblue" d="M331.719,-478.059C335.249,-476.481 338.694,-474.796 342,-473 360.554,-462.922 361.266,-454.877 378,-442 398.338,-426.349 422.397,-409.98 440.37,-398.143"/>
<polygon fill="midnightblue" stroke="midnightblue" points="330.112,-474.936 322.211,-481.995 332.79,-481.404 330.112,-474.936"/>
</g>
<!-- Node48 -->
<g id="node103" class="node"><title>Node48</title>
<a xlink:href="../../d8/d2c/class_u_b_graphics_widget_item_delegate.html#a2b446e23a250de4f8c162e1411058cb5" target="_top" xlink:title="UBGraphicsWidgetItemDelegate::pin">
<polygon fill="white" stroke="black" points="378,-451.5 378,-472.5 556,-472.5 556,-451.5 378,-451.5"/>
<text text-anchor="middle" x="467" y="-459.5" font-family="Helvetica,sans-Serif" font-size="10.00">UBGraphicsWidgetItemDelegate::pin</text>
</a>
</g>
<!-- Node8&#45;&gt;Node48 -->
<g id="edge110" class="edge"><title>Node8&#45;&gt;Node48</title>
<path fill="none" stroke="midnightblue" d="M352.116,-481.863C370.577,-478.671 389.352,-475.425 406.229,-472.507"/>
<polygon fill="midnightblue" stroke="midnightblue" points="351.463,-478.424 342.206,-483.577 352.656,-485.322 351.463,-478.424"/>
</g>
<!-- Node10 -->
<g id="node19" class="node"><title>Node10</title>
<a xlink:href="../../d7/d62/class_u_b_board_controller.html#af122a3bb14b0ef66b169be9fd0e5a2b3" target="_top" xlink:title="UBBoardController:\l:moveToolWidgetToScene">
<polygon fill="white" stroke="black" points="613,-390 613,-424 745,-424 745,-390 613,-390"/>
<text text-anchor="start" x="621" y="-411" font-family="Helvetica,sans-Serif" font-size="10.00">UBBoardController:</text>
<text text-anchor="middle" x="679" y="-398" font-family="Helvetica,sans-Serif" font-size="10.00">:moveToolWidgetToScene</text>
</a>
</g>
<!-- Node9&#45;&gt;Node10 -->
<g id="edge18" class="edge"><title>Node9&#45;&gt;Node10</title>
<path fill="none" stroke="midnightblue" d="M556.339,-391.957C575.222,-394.272 594.828,-396.677 612.679,-398.866"/>
<polygon fill="midnightblue" stroke="midnightblue" points="556.594,-388.462 546.242,-390.718 555.742,-395.41 556.594,-388.462"/>
</g>
<!-- Node12 -->
<g id="node23" class="node"><title>Node12</title>
<a xlink:href="../../dc/db2/class_u_b_graphics_scene.html#aa86ec061e79ba18c2efe73a6bf10bf33" target="_top" xlink:title="UBGraphicsScene::addApple\lWidget">
<polygon fill="white" stroke="black" points="607,-338 607,-372 751,-372 751,-338 607,-338"/>
<text text-anchor="start" x="615" y="-359" font-family="Helvetica,sans-Serif" font-size="10.00">UBGraphicsScene::addApple</text>
<text text-anchor="middle" x="679" y="-346" font-family="Helvetica,sans-Serif" font-size="10.00">Widget</text>
</a>
</g>
<!-- Node9&#45;&gt;Node12 -->
<g id="edge22" class="edge"><title>Node9&#45;&gt;Node12</title>
<path fill="none" stroke="midnightblue" d="M556.594,-370.012C573.362,-367.956 590.69,-365.83 606.847,-363.849"/>
<polygon fill="midnightblue" stroke="midnightblue" points="555.742,-366.59 546.242,-371.282 556.594,-373.538 555.742,-366.59"/>
</g>
<!-- Node38 -->
<g id="node79" class="node"><title>Node38</title>
<a xlink:href="../../dc/db2/class_u_b_graphics_scene.html#acb26de2926454faf9c5ca66989779d82" target="_top" xlink:title="UBGraphicsScene::addW3CWidget">
<polygon fill="white" stroke="black" points="592.5,-272.5 592.5,-293.5 765.5,-293.5 765.5,-272.5 592.5,-272.5"/>
<text text-anchor="middle" x="679" y="-280.5" font-family="Helvetica,sans-Serif" font-size="10.00">UBGraphicsScene::addW3CWidget</text>
</a>
</g>
<!-- Node9&#45;&gt;Node38 -->
<g id="edge82" class="edge"><title>Node9&#45;&gt;Node38</title>
<path fill="none" stroke="midnightblue" d="M513.024,-359.725C557.212,-339.298 622.127,-309.29 656.199,-293.54"/>
<polygon fill="midnightblue" stroke="midnightblue" points="511.536,-356.557 503.928,-363.93 514.473,-362.911 511.536,-356.557"/>
</g>
<!-- Node11 -->
<g id="node21" class="node"><title>Node11</title>
<a xlink:href="../../dc/de3/class_u_b_tool_widget.html#adc43c4c0d6cb3e0f5881df830775b5b7" target="_top" xlink:title="UBToolWidget::mouseRelease\lEvent">
<polygon fill="white" stroke="black" points="805,-418 805,-452 957,-452 957,-418 805,-418"/>
<text text-anchor="start" x="813" y="-439" font-family="Helvetica,sans-Serif" font-size="10.00">UBToolWidget::mouseRelease</text>
<text text-anchor="middle" x="881" y="-426" font-family="Helvetica,sans-Serif" font-size="10.00">Event</text>
</a>
</g>
<!-- Node10&#45;&gt;Node11 -->
<g id="edge20" class="edge"><title>Node10&#45;&gt;Node11</title>
<path fill="none" stroke="midnightblue" d="M755.143,-417.554C771.42,-419.811 788.617,-422.194 804.893,-424.451"/>
<polygon fill="midnightblue" stroke="midnightblue" points="755.528,-414.074 745.142,-416.168 754.567,-421.008 755.528,-414.074"/>
</g>
<!-- Node13 -->
<g id="node25" class="node"><title>Node13</title>
<a xlink:href="../../d7/d62/class_u_b_board_controller.html#ab6cbc7bda85279e7eee5c5923892dd1a" target="_top" xlink:title="UBBoardController:\l:downloadFinished">
<polygon fill="white" stroke="black" points="1030.5,-288 1030.5,-322 1131.5,-322 1131.5,-288 1030.5,-288"/>
<text text-anchor="start" x="1038.5" y="-309" font-family="Helvetica,sans-Serif" font-size="10.00">UBBoardController:</text>
<text text-anchor="middle" x="1081" y="-296" font-family="Helvetica,sans-Serif" font-size="10.00">:downloadFinished</text>
</a>
</g>
<!-- Node12&#45;&gt;Node13 -->
<g id="edge24" class="edge"><title>Node12&#45;&gt;Node13</title>
<path fill="none" stroke="midnightblue" d="M761.172,-372.645C817.884,-381.693 894.563,-387.686 960,-371 996.867,-361.599 1034.61,-338.416 1057.93,-322.197"/>
<polygon fill="midnightblue" stroke="midnightblue" points="761.618,-369.171 751.179,-370.986 760.471,-376.076 761.618,-369.171"/>
</g>
<!-- Node37 -->
<g id="node77" class="node"><title>Node37</title>
<a xlink:href="../../dc/db2/class_u_b_graphics_scene.html#aff586f570c8625a51bccef943662a29d" target="_top" xlink:title="UBGraphicsScene::addWidget">
<polygon fill="white" stroke="black" points="806,-340.5 806,-361.5 956,-361.5 956,-340.5 806,-340.5"/>
<text text-anchor="middle" x="881" y="-348.5" font-family="Helvetica,sans-Serif" font-size="10.00">UBGraphicsScene::addWidget</text>
</a>
</g>
<!-- Node12&#45;&gt;Node37 -->
<g id="edge80" class="edge"><title>Node12&#45;&gt;Node37</title>
<path fill="none" stroke="midnightblue" d="M761.199,-353.372C775.98,-353.08 791.318,-352.776 805.885,-352.487"/>
<polygon fill="midnightblue" stroke="midnightblue" points="761,-349.875 751.071,-353.573 761.139,-356.874 761,-349.875"/>
</g>
<!-- Node14 -->
<g id="node27" class="node"><title>Node14</title>
<a xlink:href="../../d7/d62/class_u_b_board_controller.html#aa728cb7c1b979b2d4ae45638a7386dde" target="_top" xlink:title="UBBoardController::init">
<polygon fill="white" stroke="black" points="1231.5,-422.5 1231.5,-443.5 1348.5,-443.5 1348.5,-422.5 1231.5,-422.5"/>
<text text-anchor="middle" x="1290" y="-430.5" font-family="Helvetica,sans-Serif" font-size="10.00">UBBoardController::init</text>
</a>
</g>
<!-- Node13&#45;&gt;Node14 -->
<g id="edge26" class="edge"><title>Node13&#45;&gt;Node14</title>
<path fill="none" stroke="midnightblue" d="M1117.86,-327.574C1163.33,-355.421 1238.75,-401.614 1272.61,-422.35"/>
<polygon fill="midnightblue" stroke="midnightblue" points="1119.54,-324.501 1109.19,-322.263 1115.89,-330.47 1119.54,-324.501"/>
</g>
<!-- Node17 -->
<g id="node33" class="node"><title>Node17</title>
<a xlink:href="../../d7/d62/class_u_b_board_controller.html#abae2655269e06f72767de71b8513f6be" target="_top" xlink:title="UBBoardController:\l:duplicateItem">
<polygon fill="white" stroke="black" points="1450.5,-442 1450.5,-476 1551.5,-476 1551.5,-442 1450.5,-442"/>
<text text-anchor="start" x="1458.5" y="-463" font-family="Helvetica,sans-Serif" font-size="10.00">UBBoardController:</text>
<text text-anchor="middle" x="1501" y="-450" font-family="Helvetica,sans-Serif" font-size="10.00">:duplicateItem</text>
</a>
</g>
<!-- Node13&#45;&gt;Node17 -->
<g id="edge32" class="edge"><title>Node13&#45;&gt;Node17</title>
<path fill="none" stroke="midnightblue" d="M1141.45,-323.858C1202.26,-343.551 1298.21,-376.604 1378,-413 1394.65,-420.596 1397.13,-425.893 1414,-433 1425.48,-437.835 1438.16,-442.162 1450.2,-445.834"/>
<polygon fill="midnightblue" stroke="midnightblue" points="1142.22,-320.429 1131.63,-320.695 1140.07,-327.092 1142.22,-320.429"/>
</g>
<!-- Node21 -->
<g id="node43" class="node"><title>Node21</title>
<a xlink:href="../../d7/d62/class_u_b_board_controller.html#a358f3f88d1fa9e41620170d76a806f93" target="_top" xlink:title="UBBoardController:\l:downloadURL">
<polygon fill="white" stroke="black" points="1239.5,-250 1239.5,-284 1340.5,-284 1340.5,-250 1239.5,-250"/>
<text text-anchor="start" x="1247.5" y="-271" font-family="Helvetica,sans-Serif" font-size="10.00">UBBoardController:</text>
<text text-anchor="middle" x="1290" y="-258" font-family="Helvetica,sans-Serif" font-size="10.00">:downloadURL</text>
</a>
</g>
<!-- Node13&#45;&gt;Node21 -->
<g id="edge44" class="edge"><title>Node13&#45;&gt;Node21</title>
<path fill="none" stroke="midnightblue" d="M1141.81,-293.944C1172.7,-288.328 1209.8,-281.582 1239.15,-276.246"/>
<polygon fill="midnightblue" stroke="midnightblue" points="1140.81,-290.569 1131.59,-295.801 1142.06,-297.456 1140.81,-290.569"/>
</g>
<!-- Node15 -->
<g id="node29" class="node"><title>Node15</title>
<a xlink:href="../../d8/d81/class_u_b_application.html#add1469239e71bf24fdc61413a42a38bd" target="_top" xlink:title="UBApplication::exec">
<polygon fill="white" stroke="black" points="1448,-494.5 1448,-515.5 1554,-515.5 1554,-494.5 1448,-494.5"/>
<text text-anchor="middle" x="1501" y="-502.5" font-family="Helvetica,sans-Serif" font-size="10.00">UBApplication::exec</text>
</a>
</g>
<!-- Node14&#45;&gt;Node15 -->
<g id="edge28" class="edge"><title>Node14&#45;&gt;Node15</title>
<path fill="none" stroke="midnightblue" d="M1321.21,-447.844C1345.95,-459.18 1381.63,-474.578 1414,-485 1425.06,-488.563 1437.11,-491.754 1448.62,-494.487"/>
<polygon fill="midnightblue" stroke="midnightblue" points="1322.51,-444.59 1311.97,-443.565 1319.57,-450.943 1322.51,-444.59"/>
</g>
<!-- Node16 -->
<g id="node31" class="node"><title>Node16</title>
<a xlink:href="../../df/d0a/main_8cpp.html#a0ddf1224851353fc92bfbff6f499fa97" target="_top" xlink:title="main">
<polygon fill="white" stroke="black" points="1691,-499.5 1691,-520.5 1729,-520.5 1729,-499.5 1691,-499.5"/>
<text text-anchor="middle" x="1710" y="-507.5" font-family="Helvetica,sans-Serif" font-size="10.00">main</text>
</a>
</g>
<!-- Node15&#45;&gt;Node16 -->
<g id="edge30" class="edge"><title>Node15&#45;&gt;Node16</title>
<path fill="none" stroke="midnightblue" d="M1564.23,-506.513C1607.72,-507.553 1662.57,-508.865 1690.98,-509.545"/>
<polygon fill="midnightblue" stroke="midnightblue" points="1564.09,-503.008 1554.01,-506.268 1563.92,-510.006 1564.09,-503.008"/>
</g>
<!-- Node17&#45;&gt;Node4 -->
<g id="edge34" class="edge"><title>Node17&#45;&gt;Node4</title>
<path fill="none" stroke="midnightblue" d="M1561.41,-445.416C1592.38,-438.451 1629.67,-430.065 1659.15,-423.436"/>
<polygon fill="midnightblue" stroke="midnightblue" points="1560.58,-442.014 1551.59,-447.623 1562.12,-448.843 1560.58,-442.014"/>
</g>
<!-- Node17&#45;&gt;Node8 -->
<g id="edge36" class="edge"><title>Node17&#45;&gt;Node8</title>
<path fill="none" stroke="midnightblue" d="M1440.36,-469.606C1358.91,-482.91 1209.52,-504 1081,-504 679,-504 679,-504 679,-504 562.693,-504 428.535,-502.113 342.341,-500.658"/>
<polygon fill="midnightblue" stroke="midnightblue" points="1441.14,-473.026 1450.44,-467.944 1440,-466.119 1441.14,-473.026"/>
</g>
<!-- Node18 -->
<g id="node37" class="node"><title>Node18</title>
<a xlink:href="../../dd/dd5/class_u_b_graphics_item_delegate.html#a525c69cb3c3c0df6c4db4d406fd80e48" target="_top" xlink:title="UBGraphicsItemDelegate\l::duplicate">
<polygon fill="white" stroke="black" points="1646,-447 1646,-481 1774,-481 1774,-447 1646,-447"/>
<text text-anchor="start" x="1654" y="-468" font-family="Helvetica,sans-Serif" font-size="10.00">UBGraphicsItemDelegate</text>
<text text-anchor="middle" x="1710" y="-455" font-family="Helvetica,sans-Serif" font-size="10.00">::duplicate</text>
</a>
</g>
<!-- Node17&#45;&gt;Node18 -->
<g id="edge38" class="edge"><title>Node17&#45;&gt;Node18</title>
<path fill="none" stroke="midnightblue" d="M1561.81,-460.455C1588.11,-461.084 1618.92,-461.821 1645.61,-462.46"/>
<polygon fill="midnightblue" stroke="midnightblue" points="1561.67,-456.951 1551.59,-460.21 1561.51,-463.949 1561.67,-456.951"/>
</g>
<!-- Node19 -->
<g id="node39" class="node"><title>Node19</title>
<a xlink:href="../../dd/dd5/class_u_b_graphics_item_delegate.html#a1de77276aba7276defacd0b87c9b87c7" target="_top" xlink:title="UBGraphicsItemDelegate\l::init">
<polygon fill="white" stroke="red" points="1832,-447 1832,-481 1960,-481 1960,-447 1832,-447"/>
<text text-anchor="start" x="1840" y="-468" font-family="Helvetica,sans-Serif" font-size="10.00">UBGraphicsItemDelegate</text>
<text text-anchor="middle" x="1896" y="-455" font-family="Helvetica,sans-Serif" font-size="10.00">::init</text>
</a>
</g>
<!-- Node18&#45;&gt;Node19 -->
<g id="edge40" class="edge"><title>Node18&#45;&gt;Node19</title>
<path fill="none" stroke="midnightblue" d="M1784.24,-464C1800.01,-464 1816.52,-464 1831.87,-464"/>
<polygon fill="midnightblue" stroke="midnightblue" points="1784.01,-460.5 1774.01,-464 1784.01,-467.5 1784.01,-460.5"/>
</g>
<!-- Node20 -->
<g id="node41" class="node"><title>Node20</title>
<a xlink:href="../../de/d93/class_u_b_graphics_group_container_item.html#a2aaeb364079830d1720110c30f999ec8" target="_top" xlink:title="UBGraphicsGroupContainer\lItem::UBGraphicsGroupContainerItem">
<polygon fill="white" stroke="red" points="1996.5,-447 1996.5,-481 2179.5,-481 2179.5,-447 1996.5,-447"/>
<text text-anchor="start" x="2004.5" y="-468" font-family="Helvetica,sans-Serif" font-size="10.00">UBGraphicsGroupContainer</text>
<text text-anchor="middle" x="2088" y="-455" font-family="Helvetica,sans-Serif" font-size="10.00">Item::UBGraphicsGroupContainerItem</text>
</a>
</g>
<!-- Node19&#45;&gt;Node20 -->
<g id="edge42" class="edge"><title>Node19&#45;&gt;Node20</title>
<path fill="none" stroke="midnightblue" d="M1970.38,-464C1978.83,-464 1987.52,-464 1996.16,-464"/>
<polygon fill="midnightblue" stroke="midnightblue" points="1970.2,-460.5 1960.2,-464 1970.2,-467.5 1970.2,-460.5"/>
</g>
<!-- Node21&#45;&gt;Node4 -->
<g id="edge48" class="edge"><title>Node21&#45;&gt;Node4</title>
<path fill="none" stroke="midnightblue" d="M1324.09,-289.676C1354.12,-309.315 1395.82,-335.689 1414,-343 1487.44,-372.539 1510.96,-362.806 1588,-381 1611.5,-386.55 1637.45,-393.085 1659.34,-398.72"/>
<polygon fill="midnightblue" stroke="midnightblue" points="1325.85,-286.646 1315.57,-284.082 1322.01,-292.497 1325.85,-286.646"/>
</g>
<!-- Node21&#45;&gt;Node17 -->
<g id="edge46" class="edge"><title>Node21&#45;&gt;Node17</title>
<path fill="none" stroke="midnightblue" d="M1336.03,-289.343C1351.16,-298.589 1366.91,-310.564 1378,-325 1408.82,-365.128 1377.67,-397.788 1414,-433 1423.85,-442.545 1437.05,-448.605 1450.19,-452.446"/>
<polygon fill="midnightblue" stroke="midnightblue" points="1337.64,-286.23 1327.24,-284.216 1334.11,-292.277 1337.64,-286.23"/>
</g>
<!-- Node22 -->
<g id="node47" class="node"><title>Node22</title>
<a xlink:href="../../d0/d79/class_u_b_favorite_tool_palette.html#a83161cac1258562134412dfcd60aee50" target="_top" xlink:title="UBFavoriteToolPalette\l::addFavorite">
<polygon fill="white" stroke="black" points="1443,-196 1443,-230 1559,-230 1559,-196 1443,-196"/>
<text text-anchor="start" x="1451" y="-217" font-family="Helvetica,sans-Serif" font-size="10.00">UBFavoriteToolPalette</text>
<text text-anchor="middle" x="1501" y="-204" font-family="Helvetica,sans-Serif" font-size="10.00">::addFavorite</text>
</a>
</g>
<!-- Node21&#45;&gt;Node22 -->
<g id="edge50" class="edge"><title>Node21&#45;&gt;Node22</title>
<path fill="none" stroke="midnightblue" d="M1350.53,-251.509C1379.48,-244.099 1413.99,-235.267 1442.66,-227.931"/>
<polygon fill="midnightblue" stroke="midnightblue" points="1349.36,-248.196 1340.54,-254.066 1351.1,-254.977 1349.36,-248.196"/>
</g>
<!-- Node24 -->
<g id="node51" class="node"><title>Node24</title>
<a xlink:href="../../d8/d33/class_u_b_features_controller.html#a38042ae37804ee19bfacf4aafd096ea9" target="_top" xlink:title="UBFeaturesController\l::addItemToPage">
<polygon fill="white" stroke="black" points="1445.5,-144 1445.5,-178 1556.5,-178 1556.5,-144 1445.5,-144"/>
<text text-anchor="start" x="1453.5" y="-165" font-family="Helvetica,sans-Serif" font-size="10.00">UBFeaturesController</text>
<text text-anchor="middle" x="1501" y="-152" font-family="Helvetica,sans-Serif" font-size="10.00">::addItemToPage</text>
</a>
</g>
<!-- Node21&#45;&gt;Node24 -->
<g id="edge54" class="edge"><title>Node21&#45;&gt;Node24</title>
<path fill="none" stroke="midnightblue" d="M1350.51,-255.227C1360.26,-251.661 1369.82,-247.024 1378,-241 1401.22,-223.889 1390.81,-204.147 1414,-187 1423.25,-180.159 1434.3,-175.105 1445.37,-171.376"/>
<polygon fill="midnightblue" stroke="midnightblue" points="1349.15,-251.992 1340.75,-258.448 1351.34,-258.64 1349.15,-251.992"/>
</g>
<!-- Node26 -->
<g id="node55" class="node"><title>Node26</title>
<a xlink:href="../../d8/d33/class_u_b_features_controller.html#a0ecd4b84e703063db5c0fdf498f2cdb0" target="_top" xlink:title="UBFeaturesController\l::addItemAsBackground">
<polygon fill="white" stroke="black" points="1440,-92 1440,-126 1562,-126 1562,-92 1440,-92"/>
<text text-anchor="start" x="1448" y="-113" font-family="Helvetica,sans-Serif" font-size="10.00">UBFeaturesController</text>
<text text-anchor="middle" x="1501" y="-100" font-family="Helvetica,sans-Serif" font-size="10.00">::addItemAsBackground</text>
</a>
</g>
<!-- Node21&#45;&gt;Node26 -->
<g id="edge58" class="edge"><title>Node21&#45;&gt;Node26</title>
<path fill="none" stroke="midnightblue" d="M1350.63,-257.448C1360.7,-253.65 1370.34,-248.36 1378,-241 1413.88,-206.531 1378.17,-169.525 1414,-135 1421.26,-127.999 1430.33,-122.874 1439.85,-119.123"/>
<polygon fill="midnightblue" stroke="midnightblue" points="1349.3,-254.202 1340.89,-260.653 1351.48,-260.851 1349.3,-254.202"/>
</g>
<!-- Node28 -->
<g id="node59" class="node"><title>Node28</title>
<a xlink:href="../../da/dd6/class_u_b_library_a_p_i.html#abeac23fcd7f64866d5686b590ec05695" target="_top" xlink:title="UBLibraryAPI::addObject">
<polygon fill="white" stroke="black" points="1437.5,-52.5 1437.5,-73.5 1564.5,-73.5 1564.5,-52.5 1437.5,-52.5"/>
<text text-anchor="middle" x="1501" y="-60.5" font-family="Helvetica,sans-Serif" font-size="10.00">UBLibraryAPI::addObject</text>
</a>
</g>
<!-- Node21&#45;&gt;Node28 -->
<g id="edge62" class="edge"><title>Node21&#45;&gt;Node28</title>
<path fill="none" stroke="midnightblue" d="M1350.27,-258.462C1360.64,-254.582 1370.49,-249.004 1378,-241 1427.29,-188.488 1363.12,-133.976 1414,-83 1420.46,-76.528 1428.56,-71.9769 1437.21,-68.805"/>
<polygon fill="midnightblue" stroke="midnightblue" points="1349.08,-255.166 1340.64,-261.568 1351.23,-261.828 1349.08,-255.166"/>
</g>
<!-- Node29 -->
<g id="node61" class="node"><title>Node29</title>
<a xlink:href="../../df/d50/class_u_b_web_controller.html#a318422dc0a027e2258180673bb333586" target="_top" xlink:title="UBWebController::capture\lEduMedia">
<polygon fill="white" stroke="black" points="1435.5,-0 1435.5,-34 1566.5,-34 1566.5,-0 1435.5,-0"/>
<text text-anchor="start" x="1443.5" y="-21" font-family="Helvetica,sans-Serif" font-size="10.00">UBWebController::capture</text>
<text text-anchor="middle" x="1501" y="-8" font-family="Helvetica,sans-Serif" font-size="10.00">EduMedia</text>
</a>
</g>
<!-- Node21&#45;&gt;Node29 -->
<g id="edge64" class="edge"><title>Node21&#45;&gt;Node29</title>
<path fill="none" stroke="midnightblue" d="M1350.55,-258.724C1360.9,-254.822 1370.67,-249.168 1378,-241 1437.76,-174.45 1354.35,-109.643 1414,-43 1419.89,-36.4224 1427.36,-31.4783 1435.45,-27.7679"/>
<polygon fill="midnightblue" stroke="midnightblue" points="1349.37,-255.428 1340.93,-261.838 1351.53,-262.088 1349.37,-255.428"/>
</g>
<!-- Node31 -->
<g id="node65" class="node"><title>Node31</title>
<a xlink:href="../../d5/d2b/class_u_b_widget_uniboard_a_p_i.html#a73ac1600ef3ed549d2c6c969436efb2f" target="_top" xlink:title="UBWidgetUniboardAPI\l::addObject">
<polygon fill="white" stroke="black" points="1442.5,-390 1442.5,-424 1559.5,-424 1559.5,-390 1442.5,-390"/>
<text text-anchor="start" x="1450.5" y="-411" font-family="Helvetica,sans-Serif" font-size="10.00">UBWidgetUniboardAPI</text>
<text text-anchor="middle" x="1501" y="-398" font-family="Helvetica,sans-Serif" font-size="10.00">::addObject</text>
</a>
</g>
<!-- Node21&#45;&gt;Node31 -->
<g id="edge68" class="edge"><title>Node21&#45;&gt;Node31</title>
<path fill="none" stroke="midnightblue" d="M1330.37,-289.187C1346.2,-298.975 1363.92,-311.359 1378,-325 1397.93,-344.303 1391.9,-359.227 1414,-376 1422.43,-382.398 1432.3,-387.557 1442.3,-391.692"/>
<polygon fill="midnightblue" stroke="midnightblue" points="1332.17,-286.187 1321.8,-284.024 1328.56,-292.183 1332.17,-286.187"/>
</g>
<!-- Node32 -->
<g id="node67" class="node"><title>Node32</title>
<a xlink:href="../../db/d78/class_w_b_web_trap_web_view.html#afdbfd6aac50cad5ac07a465baa7be0b6" target="_top" xlink:title="WBWebTrapWebView::trapElement\lAtPos">
<polygon fill="white" stroke="black" points="1414.5,-300 1414.5,-334 1587.5,-334 1587.5,-300 1414.5,-300"/>
<text text-anchor="start" x="1422.5" y="-321" font-family="Helvetica,sans-Serif" font-size="10.00">WBWebTrapWebView::trapElement</text>
<text text-anchor="middle" x="1501" y="-308" font-family="Helvetica,sans-Serif" font-size="10.00">AtPos</text>
</a>
</g>
<!-- Node21&#45;&gt;Node32 -->
<g id="edge70" class="edge"><title>Node21&#45;&gt;Node32</title>
<path fill="none" stroke="midnightblue" d="M1350.41,-281.316C1374.9,-287.118 1403.37,-293.865 1428.93,-299.921"/>
<polygon fill="midnightblue" stroke="midnightblue" points="1351.08,-277.876 1340.54,-278.976 1349.46,-284.688 1351.08,-277.876"/>
</g>
<!-- Node35 -->
<g id="node73" class="node"><title>Node35</title>
<a xlink:href="../../dd/dc8/class_w_b_web_page.html#a4f177fc1cee35b60e7973ff2573025e7" target="_top" xlink:title="WBWebPage::handleUnsupported\lContent">
<polygon fill="white" stroke="black" points="1418,-248 1418,-282 1584,-282 1584,-248 1418,-248"/>
<text text-anchor="start" x="1426" y="-269" font-family="Helvetica,sans-Serif" font-size="10.00">WBWebPage::handleUnsupported</text>
<text text-anchor="middle" x="1501" y="-256" font-family="Helvetica,sans-Serif" font-size="10.00">Content</text>
</a>
</g>
<!-- Node21&#45;&gt;Node35 -->
<g id="edge76" class="edge"><title>Node21&#45;&gt;Node35</title>
<path fill="none" stroke="midnightblue" d="M1350.58,-266.426C1371.56,-266.227 1395.45,-266 1417.92,-265.788"/>
<polygon fill="midnightblue" stroke="midnightblue" points="1350.51,-262.926 1340.54,-266.521 1350.57,-269.926 1350.51,-262.926"/>
</g>
<!-- Node23 -->
<g id="node49" class="node"><title>Node23</title>
<a xlink:href="../../d0/d79/class_u_b_favorite_tool_palette.html#a5c96e32fc43e9342cde947b25425516c" target="_top" xlink:title="UBFavoriteToolPalette\l::UBFavoriteToolPalette">
<polygon fill="white" stroke="black" points="1649,-196 1649,-230 1771,-230 1771,-196 1649,-196"/>
<text text-anchor="start" x="1657" y="-217" font-family="Helvetica,sans-Serif" font-size="10.00">UBFavoriteToolPalette</text>
<text text-anchor="middle" x="1710" y="-204" font-family="Helvetica,sans-Serif" font-size="10.00">::UBFavoriteToolPalette</text>
</a>
</g>
<!-- Node22&#45;&gt;Node23 -->
<g id="edge52" class="edge"><title>Node22&#45;&gt;Node23</title>
<path fill="none" stroke="midnightblue" d="M1569.24,-213C1594.88,-213 1623.85,-213 1648.81,-213"/>
<polygon fill="midnightblue" stroke="midnightblue" points="1569.22,-209.5 1559.22,-213 1569.22,-216.5 1569.22,-209.5"/>
</g>
<!-- Node25 -->
<g id="node53" class="node"><title>Node25</title>
<a xlink:href="../../dd/dc8/class_u_b_feature_properties.html#a6fb900fb691ba01479801333a4df226d" target="_top" xlink:title="UBFeatureProperties\l::onAddToPage">
<polygon fill="white" stroke="red" points="1656,-144 1656,-178 1764,-178 1764,-144 1656,-144"/>
<text text-anchor="start" x="1664" y="-165" font-family="Helvetica,sans-Serif" font-size="10.00">UBFeatureProperties</text>
<text text-anchor="middle" x="1710" y="-152" font-family="Helvetica,sans-Serif" font-size="10.00">::onAddToPage</text>
</a>
</g>
<!-- Node24&#45;&gt;Node25 -->
<g id="edge56" class="edge"><title>Node24&#45;&gt;Node25</title>
<path fill="none" stroke="midnightblue" d="M1567.05,-161C1595.66,-161 1628.74,-161 1655.87,-161"/>
<polygon fill="midnightblue" stroke="midnightblue" points="1566.73,-157.5 1556.73,-161 1566.73,-164.5 1566.73,-157.5"/>
</g>
<!-- Node27 -->
<g id="node57" class="node"><title>Node27</title>
<a xlink:href="../../dd/dc8/class_u_b_feature_properties.html#af183f096cbff2df0da3206b8e71c3525" target="_top" xlink:title="UBFeatureProperties\l::onSetAsBackground">
<polygon fill="white" stroke="red" points="1654,-92 1654,-126 1766,-126 1766,-92 1654,-92"/>
<text text-anchor="start" x="1662" y="-113" font-family="Helvetica,sans-Serif" font-size="10.00">UBFeatureProperties</text>
<text text-anchor="middle" x="1710" y="-100" font-family="Helvetica,sans-Serif" font-size="10.00">::onSetAsBackground</text>
</a>
</g>
<!-- Node26&#45;&gt;Node27 -->
<g id="edge60" class="edge"><title>Node26&#45;&gt;Node27</title>
<path fill="none" stroke="midnightblue" d="M1572.07,-109C1598.79,-109 1628.75,-109 1653.92,-109"/>
<polygon fill="midnightblue" stroke="midnightblue" points="1572.01,-105.5 1562.01,-109 1572.01,-112.5 1572.01,-105.5"/>
</g>
<!-- Node30 -->
<g id="node63" class="node"><title>Node30</title>
<a xlink:href="../../df/d50/class_u_b_web_controller.html#af73cfa36d5b743fa3a652e49dd7e4831" target="_top" xlink:title="UBWebController::setupPalettes">
<polygon fill="white" stroke="red" points="1630.5,-6.5 1630.5,-27.5 1789.5,-27.5 1789.5,-6.5 1630.5,-6.5"/>
<text text-anchor="middle" x="1710" y="-14.5" font-family="Helvetica,sans-Serif" font-size="10.00">UBWebController::setupPalettes</text>
</a>
</g>
<!-- Node29&#45;&gt;Node30 -->
<g id="edge66" class="edge"><title>Node29&#45;&gt;Node30</title>
<path fill="none" stroke="midnightblue" d="M1576.68,-17C1594.13,-17 1612.75,-17 1630.36,-17"/>
<polygon fill="midnightblue" stroke="midnightblue" points="1576.56,-13.5001 1566.56,-17 1576.56,-20.5001 1576.56,-13.5001"/>
</g>
<!-- Node33 -->
<g id="node69" class="node"><title>Node33</title>
<a xlink:href="../../db/d78/class_w_b_web_trap_web_view.html#a2ac308414d18186c9c4fc60bc5f46400" target="_top" xlink:title="WBWebTrapWebView::trapContent\lFromHitTest">
<polygon fill="white" stroke="black" points="1624,-343 1624,-377 1796,-377 1796,-343 1624,-343"/>
<text text-anchor="start" x="1632" y="-364" font-family="Helvetica,sans-Serif" font-size="10.00">WBWebTrapWebView::trapContent</text>
<text text-anchor="middle" x="1710" y="-351" font-family="Helvetica,sans-Serif" font-size="10.00">FromHitTest</text>
</a>
</g>
<!-- Node32&#45;&gt;Node33 -->
<g id="edge72" class="edge"><title>Node32&#45;&gt;Node33</title>
<path fill="none" stroke="midnightblue" d="M1594,-336.133C1605.06,-338.409 1616.29,-340.721 1627.2,-342.964"/>
<polygon fill="midnightblue" stroke="midnightblue" points="1594.4,-332.644 1583.9,-334.056 1592.99,-339.5 1594.4,-332.644"/>
</g>
<!-- Node34 -->
<g id="node71" class="node"><title>Node34</title>
<a xlink:href="../../dd/df0/class_u_b_web_trap_mouse_event_mask.html#a2c69d74fef874516e38daeab13e6ecd0" target="_top" xlink:title="UBWebTrapMouseEventMask\l::mousePressEvent">
<polygon fill="white" stroke="black" points="1635.5,-291 1635.5,-325 1784.5,-325 1784.5,-291 1635.5,-291"/>
<text text-anchor="start" x="1643.5" y="-312" font-family="Helvetica,sans-Serif" font-size="10.00">UBWebTrapMouseEventMask</text>
<text text-anchor="middle" x="1710" y="-299" font-family="Helvetica,sans-Serif" font-size="10.00">::mousePressEvent</text>
</a>
</g>
<!-- Node32&#45;&gt;Node34 -->
<g id="edge74" class="edge"><title>Node32&#45;&gt;Node34</title>
<path fill="none" stroke="midnightblue" d="M1597.6,-312.84C1610.23,-312.296 1623.01,-311.746 1635.21,-311.221"/>
<polygon fill="midnightblue" stroke="midnightblue" points="1597.36,-309.347 1587.52,-313.274 1597.66,-316.341 1597.36,-309.347"/>
</g>
<!-- Node36 -->
<g id="node75" class="node"><title>Node36</title>
<a xlink:href="../../dd/dc8/class_w_b_web_page.html#a01017231eb0981875b79223f8457b302" target="_top" xlink:title="WBWebPage::WBWebPage">
<polygon fill="white" stroke="black" points="1639.5,-251.5 1639.5,-272.5 1780.5,-272.5 1780.5,-251.5 1639.5,-251.5"/>
<text text-anchor="middle" x="1710" y="-259.5" font-family="Helvetica,sans-Serif" font-size="10.00">WBWebPage::WBWebPage</text>
</a>
</g>
<!-- Node35&#45;&gt;Node36 -->
<g id="edge78" class="edge"><title>Node35&#45;&gt;Node36</title>
<path fill="none" stroke="midnightblue" d="M1594.53,-263.657C1609.53,-263.442 1624.85,-263.222 1639.21,-263.016"/>
<polygon fill="midnightblue" stroke="midnightblue" points="1594.15,-260.162 1584.2,-263.806 1594.25,-267.162 1594.15,-260.162"/>
</g>
<!-- Node38&#45;&gt;Node13 -->
<g id="edge94" class="edge"><title>Node38&#45;&gt;Node13</title>
<path fill="none" stroke="midnightblue" d="M775.951,-275.908C830.223,-273.369 899.038,-272.524 960,-279 983.396,-281.485 1008.92,-286.601 1030.46,-291.643"/>
<polygon fill="midnightblue" stroke="midnightblue" points="775.46,-272.428 765.645,-276.419 775.806,-279.42 775.46,-272.428"/>
</g>
<!-- Node38&#45;&gt;Node37 -->
<g id="edge100" class="edge"><title>Node38&#45;&gt;Node37</title>
<path fill="none" stroke="midnightblue" d="M713.185,-297.66C737.64,-307.821 771.494,-321.228 802,-331 812.644,-334.41 824.242,-337.62 835.191,-340.428"/>
<polygon fill="midnightblue" stroke="midnightblue" points="714.221,-294.299 703.645,-293.663 711.516,-300.755 714.221,-294.299"/>
</g>
<!-- Node39 -->
<g id="node81" class="node"><title>Node39</title>
<a xlink:href="../../d7/d62/class_u_b_board_controller.html#a5f701f4cd3173743effca3b3b0bd4615" target="_top" xlink:title="UBBoardController:\l:addLinkToPage">
<polygon fill="white" stroke="black" points="830.5,-198 830.5,-232 931.5,-232 931.5,-198 830.5,-198"/>
<text text-anchor="start" x="838.5" y="-219" font-family="Helvetica,sans-Serif" font-size="10.00">UBBoardController:</text>
<text text-anchor="middle" x="881" y="-206" font-family="Helvetica,sans-Serif" font-size="10.00">:addLinkToPage</text>
</a>
</g>
<!-- Node38&#45;&gt;Node39 -->
<g id="edge84" class="edge"><title>Node38&#45;&gt;Node39</title>
<path fill="none" stroke="midnightblue" d="M720.447,-269.048C752.309,-258.322 796.473,-243.455 830.418,-232.028"/>
<polygon fill="midnightblue" stroke="midnightblue" points="718.923,-265.867 710.562,-272.375 721.157,-272.502 718.923,-265.867"/>
</g>
<!-- Node43 -->
<g id="node91" class="node"><title>Node43</title>
<a xlink:href="../../d7/d62/class_u_b_board_controller.html#af8867753146efd8498f1a308e0457c9e" target="_top" xlink:title="UBBoardController:\l:addW3cWidget">
<polygon fill="white" stroke="black" points="830.5,-288 830.5,-322 931.5,-322 931.5,-288 830.5,-288"/>
<text text-anchor="start" x="838.5" y="-309" font-family="Helvetica,sans-Serif" font-size="10.00">UBBoardController:</text>
<text text-anchor="middle" x="881" y="-296" font-family="Helvetica,sans-Serif" font-size="10.00">:addW3cWidget</text>
</a>
</g>
<!-- Node38&#45;&gt;Node43 -->
<g id="edge96" class="edge"><title>Node38&#45;&gt;Node43</title>
<path fill="none" stroke="midnightblue" d="M775.726,-293.535C794.674,-295.598 813.823,-297.684 830.499,-299.5"/>
<polygon fill="midnightblue" stroke="midnightblue" points="775.865,-290.029 765.545,-292.426 775.107,-296.988 775.865,-290.029"/>
</g>
<!-- Node44 -->
<g id="node95" class="node"><title>Node44</title>
<a xlink:href="../../dc/db2/class_u_b_graphics_scene.html#a2729368a3a28a4d9669f23f171752194" target="_top" xlink:title="UBGraphicsScene::addOEmbed">
<polygon fill="white" stroke="black" points="802,-152.5 802,-173.5 960,-173.5 960,-152.5 802,-152.5"/>
<text text-anchor="middle" x="881" y="-160.5" font-family="Helvetica,sans-Serif" font-size="10.00">UBGraphicsScene::addOEmbed</text>
</a>
</g>
<!-- Node38&#45;&gt;Node44 -->
<g id="edge102" class="edge"><title>Node38&#45;&gt;Node44</title>
<path fill="none" stroke="midnightblue" d="M697.952,-265.231C720.982,-244.454 761.771,-210.213 802,-189 813.878,-182.737 827.552,-177.593 840.149,-173.582"/>
<polygon fill="midnightblue" stroke="midnightblue" points="695.32,-262.895 690.304,-272.227 700.045,-268.06 695.32,-262.895"/>
</g>
<!-- Node39&#45;&gt;Node13 -->
<g id="edge86" class="edge"><title>Node39&#45;&gt;Node13</title>
<path fill="none" stroke="midnightblue" d="M935.843,-235.866C943.986,-239.153 952.243,-242.594 960,-246 990.065,-259.204 1023.58,-275.686 1047.69,-287.871"/>
<polygon fill="midnightblue" stroke="midnightblue" points="936.96,-232.544 926.375,-232.09 934.366,-239.046 936.96,-232.544"/>
</g>
<!-- Node40 -->
<g id="node84" class="node"><title>Node40</title>
<a xlink:href="../../d9/d3a/class_u_b_trap_web_page_content_controller.html#adc738e0c68ed861cce64a1389d2aee5d" target="_top" xlink:title="UBTrapWebPageContentController\l::addLink">
<polygon fill="white" stroke="black" points="996,-198 996,-232 1166,-232 1166,-198 996,-198"/>
<text text-anchor="start" x="1004" y="-219" font-family="Helvetica,sans-Serif" font-size="10.00">UBTrapWebPageContentController</text>
<text text-anchor="middle" x="1081" y="-206" font-family="Helvetica,sans-Serif" font-size="10.00">::addLink</text>
</a>
</g>
<!-- Node39&#45;&gt;Node40 -->
<g id="edge88" class="edge"><title>Node39&#45;&gt;Node40</title>
<path fill="none" stroke="midnightblue" d="M942.024,-215C958.963,-215 977.671,-215 995.724,-215"/>
<polygon fill="midnightblue" stroke="midnightblue" points="941.727,-211.5 931.727,-215 941.727,-218.5 941.727,-211.5"/>
</g>
<!-- Node41 -->
<g id="node86" class="node"><title>Node41</title>
<a xlink:href="../../d9/d3a/class_u_b_trap_web_page_content_controller.html#a2c3abe64d01d7cc3b5e97e7dbf06cc4b" target="_top" xlink:title="UBTrapWebPageContentController\l::addLinkToLibrary">
<polygon fill="white" stroke="black" points="1205,-198 1205,-232 1375,-232 1375,-198 1205,-198"/>
<text text-anchor="start" x="1213" y="-219" font-family="Helvetica,sans-Serif" font-size="10.00">UBTrapWebPageContentController</text>
<text text-anchor="middle" x="1290" y="-206" font-family="Helvetica,sans-Serif" font-size="10.00">::addLinkToLibrary</text>
</a>
</g>
<!-- Node40&#45;&gt;Node41 -->
<g id="edge90" class="edge"><title>Node40&#45;&gt;Node41</title>
<path fill="none" stroke="midnightblue" d="M1176.26,-215C1185.75,-215 1195.35,-215 1204.73,-215"/>
<polygon fill="midnightblue" stroke="midnightblue" points="1176.01,-211.5 1166.01,-215 1176.01,-218.5 1176.01,-211.5"/>
</g>
<!-- Node42 -->
<g id="node88" class="node"><title>Node42</title>
<a xlink:href="../../d9/d3a/class_u_b_trap_web_page_content_controller.html#a9e18874e464df8ae3ea8f154334bd758" target="_top" xlink:title="UBTrapWebPageContentController\l::addLinkToBoard">
<polygon fill="white" stroke="black" points="1205,-146 1205,-180 1375,-180 1375,-146 1205,-146"/>
<text text-anchor="start" x="1213" y="-167" font-family="Helvetica,sans-Serif" font-size="10.00">UBTrapWebPageContentController</text>
<text text-anchor="middle" x="1290" y="-154" font-family="Helvetica,sans-Serif" font-size="10.00">::addLinkToBoard</text>
</a>
</g>
<!-- Node40&#45;&gt;Node42 -->
<g id="edge92" class="edge"><title>Node40&#45;&gt;Node42</title>
<path fill="none" stroke="midnightblue" d="M1159.32,-195.513C1179.73,-190.437 1201.55,-185.006 1221.41,-180.065"/>
<polygon fill="midnightblue" stroke="midnightblue" points="1158.29,-192.162 1149.43,-197.973 1159.98,-198.955 1158.29,-192.162"/>
</g>
<!-- Node43&#45;&gt;Node13 -->
<g id="edge98" class="edge"><title>Node43&#45;&gt;Node13</title>
<path fill="none" stroke="midnightblue" d="M941.904,-305C970.192,-305 1003.43,-305 1030.33,-305"/>
<polygon fill="midnightblue" stroke="midnightblue" points="941.727,-301.5 931.727,-305 941.727,-308.5 941.727,-301.5"/>
</g>
<!-- Node45 -->
<g id="node97" class="node"><title>Node45</title>
<a xlink:href="../../df/d50/class_u_b_web_controller.html#ae652b7467df50b60c8d074d94abf698b" target="_top" xlink:title="UBWebController::captureo\lEmbed">
<polygon fill="white" stroke="black" points="1012.5,-146 1012.5,-180 1149.5,-180 1149.5,-146 1012.5,-146"/>
<text text-anchor="start" x="1020.5" y="-167" font-family="Helvetica,sans-Serif" font-size="10.00">UBWebController::captureo</text>
<text text-anchor="middle" x="1081" y="-154" font-family="Helvetica,sans-Serif" font-size="10.00">Embed</text>
</a>
</g>
<!-- Node44&#45;&gt;Node45 -->
<g id="edge104" class="edge"><title>Node44&#45;&gt;Node45</title>
<path fill="none" stroke="midnightblue" d="M970.237,-163C984.326,-163 998.703,-163 1012.23,-163"/>
<polygon fill="midnightblue" stroke="midnightblue" points="970.045,-159.5 960.045,-163 970.045,-166.5 970.045,-159.5"/>
</g>
<!-- Node46 -->
<g id="node99" class="node"><title>Node46</title>
<a xlink:href="../../df/d50/class_u_b_web_controller.html#abee1408edc0bda4a434f313d7e6eece4" target="_top" xlink:title="UBWebController::onOEmbed\lParsed">
<polygon fill="white" stroke="black" points="1007,-94 1007,-128 1155,-128 1155,-94 1007,-94"/>
<text text-anchor="start" x="1015" y="-115" font-family="Helvetica,sans-Serif" font-size="10.00">UBWebController::onOEmbed</text>
<text text-anchor="middle" x="1081" y="-102" font-family="Helvetica,sans-Serif" font-size="10.00">Parsed</text>
</a>
</g>
<!-- Node44&#45;&gt;Node46 -->
<g id="edge106" class="edge"><title>Node44&#45;&gt;Node46</title>
<path fill="none" stroke="midnightblue" d="M931.294,-149.924C956.779,-143.298 988.039,-135.17 1015.39,-128.058"/>
<polygon fill="midnightblue" stroke="midnightblue" points="930.27,-146.573 921.473,-152.477 932.032,-153.348 930.27,-146.573"/>
</g>
<!-- Node47 -->
<g id="node101" class="node"><title>Node47</title>
<a xlink:href="../../df/d50/class_u_b_web_controller.html#ad520d21522662fba52976d79aaff4cfd" target="_top" xlink:title="UBWebController::UBWebController">
<polygon fill="white" stroke="black" points="1202,-100.5 1202,-121.5 1378,-121.5 1378,-100.5 1202,-100.5"/>
<text text-anchor="middle" x="1290" y="-108.5" font-family="Helvetica,sans-Serif" font-size="10.00">UBWebController::UBWebController</text>
</a>
</g>
<!-- Node46&#45;&gt;Node47 -->
<g id="edge108" class="edge"><title>Node46&#45;&gt;Node47</title>
<path fill="none" stroke="midnightblue" d="M1165.61,-111C1177.49,-111 1189.72,-111 1201.67,-111"/>
<polygon fill="midnightblue" stroke="midnightblue" points="1165.27,-107.5 1155.27,-111 1165.27,-114.5 1165.27,-107.5"/>
</g>
<!-- Node49 -->
<g id="node105" class="node"><title>Node49</title>
<a xlink:href="../../d8/d2c/class_u_b_graphics_widget_item_delegate.html#a79bf31a6cda75de23b70469270de5bd9" target="_top" xlink:title="UBGraphicsWidgetItemDelegate\l::decorateMenu">
<polygon fill="white" stroke="black" points="599.5,-442 599.5,-476 758.5,-476 758.5,-442 599.5,-442"/>
<text text-anchor="start" x="607.5" y="-463" font-family="Helvetica,sans-Serif" font-size="10.00">UBGraphicsWidgetItemDelegate</text>
<text text-anchor="middle" x="679" y="-450" font-family="Helvetica,sans-Serif" font-size="10.00">::decorateMenu</text>
</a>
</g>
<!-- Node48&#45;&gt;Node49 -->
<g id="edge112" class="edge"><title>Node48&#45;&gt;Node49</title>
<path fill="none" stroke="midnightblue" d="M566.372,-460.594C577.392,-460.438 588.508,-460.281 599.241,-460.129"/>
<polygon fill="midnightblue" stroke="midnightblue" points="566.242,-457.095 556.293,-460.736 566.341,-464.094 566.242,-457.095"/>
</g>
</g>
</svg>
