<?xml version="1.0" encoding="UTF-8" standalone="no"?>
<!DOCTYPE svg PUBLIC "-//W3C//DTD SVG 1.1//EN"
 "http://www.w3.org/Graphics/SVG/1.1/DTD/svg11.dtd">
<!-- Generated by graphviz version 2.26.3 (20100126.1600)
 -->
<!-- Title: UBGraphicsItem::getOwnUuid Pages: 1 -->
<svg width="1180pt" height="406pt"
 viewBox="0.00 0.00 1180.00 406.00" xmlns="http://www.w3.org/2000/svg" xmlns:xlink="http://www.w3.org/1999/xlink">
<g id="graph1" class="graph" transform="scale(1 1) rotate(0) translate(4 402)">
<title>UBGraphicsItem::getOwnUuid</title>
<polygon fill="white" stroke="white" points="-4,5 -4,-402 1177,-402 1177,5 -4,5"/>
<!-- Node1 -->
<g id="node1" class="node"><title>Node1</title>
<polygon fill="#bfbfbf" stroke="black" points="0.5,-175.5 0.5,-196.5 149.5,-196.5 149.5,-175.5 0.5,-175.5"/>
<text text-anchor="middle" x="75" y="-183.5" font-family="Helvetica,sans-Serif" font-size="10.00">UBGraphicsItem::getOwnUuid</text>
</g>
<!-- Node2 -->
<g id="node3" class="node"><title>Node2</title>
<a xlink:href="../../dc/db2/class_u_b_graphics_scene.html#a6e861912547654e47c26f7d8e72201e8" target="_top" xlink:title="UBGraphicsScene::clearContent">
<polygon fill="white" stroke="black" points="186.5,-240.5 186.5,-261.5 345.5,-261.5 345.5,-240.5 186.5,-240.5"/>
<text text-anchor="middle" x="266" y="-248.5" font-family="Helvetica,sans-Serif" font-size="10.00">UBGraphicsScene::clearContent</text>
</a>
</g>
<!-- Node1&#45;&gt;Node2 -->
<g id="edge2" class="edge"><title>Node1&#45;&gt;Node2</title>
<path fill="none" stroke="midnightblue" d="M115.734,-199.862C151.393,-211.998 202.441,-229.37 234.901,-240.416"/>
<polygon fill="midnightblue" stroke="midnightblue" points="116.707,-196.496 106.113,-196.588 114.452,-203.123 116.707,-196.496"/>
</g>
<!-- Node13 -->
<g id="node28" class="node"><title>Node13</title>
<a xlink:href="../../dc/db2/class_u_b_graphics_scene.html#a601351bf55e81a30a79943a4080f5978" target="_top" xlink:title="UBGraphicsScene::relative\lDependencies">
<polygon fill="white" stroke="black" points="198.5,-78 198.5,-112 333.5,-112 333.5,-78 198.5,-78"/>
<text text-anchor="start" x="206.5" y="-99" font-family="Helvetica,sans-Serif" font-size="10.00">UBGraphicsScene::relative</text>
<text text-anchor="middle" x="266" y="-86" font-family="Helvetica,sans-Serif" font-size="10.00">Dependencies</text>
</a>
</g>
<!-- Node1&#45;&gt;Node13 -->
<g id="edge30" class="edge"><title>Node1&#45;&gt;Node13</title>
<path fill="none" stroke="midnightblue" d="M106.745,-170.876C140.78,-154.66 194.702,-128.969 230.218,-112.048"/>
<polygon fill="midnightblue" stroke="midnightblue" points="104.806,-167.922 97.2839,-175.383 107.817,-174.242 104.806,-167.922"/>
</g>
<!-- Node3 -->
<g id="node5" class="node"><title>Node3</title>
<a xlink:href="../../d5/d2b/class_u_b_widget_uniboard_a_p_i.html#a4c4dd082d6ed9397e4658a41f78638f5" target="_top" xlink:title="UBWidgetUniboardAPI\l::clear">
<polygon fill="white" stroke="black" points="387.5,-364 387.5,-398 504.5,-398 504.5,-364 387.5,-364"/>
<text text-anchor="start" x="395.5" y="-385" font-family="Helvetica,sans-Serif" font-size="10.00">UBWidgetUniboardAPI</text>
<text text-anchor="middle" x="446" y="-372" font-family="Helvetica,sans-Serif" font-size="10.00">::clear</text>
</a>
</g>
<!-- Node2&#45;&gt;Node3 -->
<g id="edge4" class="edge"><title>Node2&#45;&gt;Node3</title>
<path fill="none" stroke="midnightblue" d="M282.568,-269.325C303.792,-291.926 342.569,-330.367 382,-355 387.187,-358.241 392.848,-361.222 398.587,-363.919"/>
<polygon fill="midnightblue" stroke="midnightblue" points="284.936,-266.731 275.574,-261.77 279.799,-271.486 284.936,-266.731"/>
</g>
<!-- Node4 -->
<g id="node7" class="node"><title>Node4</title>
<a xlink:href="../../d7/d62/class_u_b_board_controller.html#aa05f3be4a1645d76f034f38269fc6cf0" target="_top" xlink:title="UBBoardController:\l:clearScene">
<polygon fill="white" stroke="black" points="395.5,-312 395.5,-346 496.5,-346 496.5,-312 395.5,-312"/>
<text text-anchor="start" x="403.5" y="-333" font-family="Helvetica,sans-Serif" font-size="10.00">UBBoardController:</text>
<text text-anchor="middle" x="446" y="-320" font-family="Helvetica,sans-Serif" font-size="10.00">:clearScene</text>
</a>
</g>
<!-- Node2&#45;&gt;Node4 -->
<g id="edge6" class="edge"><title>Node2&#45;&gt;Node4</title>
<path fill="none" stroke="midnightblue" d="M298.365,-265.879C321.557,-276.45 353.585,-290.864 382,-303 388.838,-305.921 396.118,-308.952 403.224,-311.868"/>
<polygon fill="midnightblue" stroke="midnightblue" points="299.553,-262.574 289.003,-261.602 296.644,-268.941 299.553,-262.574"/>
</g>
<!-- Node10 -->
<g id="node19" class="node"><title>Node10</title>
<a xlink:href="../../d7/d62/class_u_b_board_controller.html#a3fe7c336f24feec07902020905386ca0" target="_top" xlink:title="UBBoardController:\l:clearSceneItems">
<polygon fill="white" stroke="black" points="395.5,-260 395.5,-294 496.5,-294 496.5,-260 395.5,-260"/>
<text text-anchor="start" x="403.5" y="-281" font-family="Helvetica,sans-Serif" font-size="10.00">UBBoardController:</text>
<text text-anchor="middle" x="446" y="-268" font-family="Helvetica,sans-Serif" font-size="10.00">:clearSceneItems</text>
</a>
</g>
<!-- Node2&#45;&gt;Node10 -->
<g id="edge18" class="edge"><title>Node2&#45;&gt;Node10</title>
<path fill="none" stroke="midnightblue" d="M349.034,-262.994C364.863,-265.28 380.981,-267.608 395.414,-269.693"/>
<polygon fill="midnightblue" stroke="midnightblue" points="349.092,-259.466 338.694,-261.5 348.091,-266.394 349.092,-259.466"/>
</g>
<!-- Node11 -->
<g id="node22" class="node"><title>Node11</title>
<a xlink:href="../../d7/d62/class_u_b_board_controller.html#ab47067d535d9086bd8e9e84176c02036" target="_top" xlink:title="UBBoardController:\l:clearSceneAnnotation">
<polygon fill="white" stroke="black" points="388.5,-208 388.5,-242 503.5,-242 503.5,-208 388.5,-208"/>
<text text-anchor="start" x="396.5" y="-229" font-family="Helvetica,sans-Serif" font-size="10.00">UBBoardController:</text>
<text text-anchor="middle" x="446" y="-216" font-family="Helvetica,sans-Serif" font-size="10.00">:clearSceneAnnotation</text>
</a>
</g>
<!-- Node2&#45;&gt;Node11 -->
<g id="edge22" class="edge"><title>Node2&#45;&gt;Node11</title>
<path fill="none" stroke="midnightblue" d="M348.823,-239.037C362.147,-237.112 375.682,-235.157 388.251,-233.342"/>
<polygon fill="midnightblue" stroke="midnightblue" points="348.091,-235.606 338.694,-240.5 349.092,-242.534 348.091,-235.606"/>
</g>
<!-- Node12 -->
<g id="node25" class="node"><title>Node12</title>
<a xlink:href="../../d7/d62/class_u_b_board_controller.html#a7c98cc515d722b671686bb6a77a89a3b" target="_top" xlink:title="UBBoardController:\l:clearSceneBackground">
<polygon fill="white" stroke="black" points="386,-156 386,-190 506,-190 506,-156 386,-156"/>
<text text-anchor="start" x="394" y="-177" font-family="Helvetica,sans-Serif" font-size="10.00">UBBoardController:</text>
<text text-anchor="middle" x="446" y="-164" font-family="Helvetica,sans-Serif" font-size="10.00">:clearSceneBackground</text>
</a>
</g>
<!-- Node2&#45;&gt;Node12 -->
<g id="edge26" class="edge"><title>Node2&#45;&gt;Node12</title>
<path fill="none" stroke="midnightblue" d="M298.365,-236.121C321.557,-225.55 353.585,-211.136 382,-199 388.838,-196.079 396.118,-193.048 403.224,-190.132"/>
<polygon fill="midnightblue" stroke="midnightblue" points="296.644,-233.059 289.003,-240.398 299.553,-239.426 296.644,-233.059"/>
</g>
<!-- Node5 -->
<g id="node9" class="node"><title>Node5</title>
<a xlink:href="../../d7/d62/class_u_b_board_controller.html#a0292260502bb0cbe4bc3c83f3a3283bc" target="_top" xlink:title="UBBoardController:\l:connectToolbar">
<polygon fill="white" stroke="black" points="554.5,-234 554.5,-268 655.5,-268 655.5,-234 554.5,-234"/>
<text text-anchor="start" x="562.5" y="-255" font-family="Helvetica,sans-Serif" font-size="10.00">UBBoardController:</text>
<text text-anchor="middle" x="605" y="-242" font-family="Helvetica,sans-Serif" font-size="10.00">:connectToolbar</text>
</a>
</g>
<!-- Node4&#45;&gt;Node5 -->
<g id="edge8" class="edge"><title>Node4&#45;&gt;Node5</title>
<path fill="none" stroke="midnightblue" d="M499.197,-307.939C502.873,-306.314 506.505,-304.66 510,-303 532.589,-292.273 557.349,-278.656 575.926,-268.048"/>
<polygon fill="midnightblue" stroke="midnightblue" points="497.81,-304.725 490.013,-311.899 500.582,-311.153 497.81,-304.725"/>
</g>
<!-- Node6 -->
<g id="node11" class="node"><title>Node6</title>
<a xlink:href="../../d7/d62/class_u_b_board_controller.html#a6761e02604fb3aa8ecbfc5fd4a5d87f3" target="_top" xlink:title="UBBoardController:\l:setupToolbar">
<polygon fill="white" stroke="black" points="700.5,-234 700.5,-268 801.5,-268 801.5,-234 700.5,-234"/>
<text text-anchor="start" x="708.5" y="-255" font-family="Helvetica,sans-Serif" font-size="10.00">UBBoardController:</text>
<text text-anchor="middle" x="751" y="-242" font-family="Helvetica,sans-Serif" font-size="10.00">:setupToolbar</text>
</a>
</g>
<!-- Node5&#45;&gt;Node6 -->
<g id="edge10" class="edge"><title>Node5&#45;&gt;Node6</title>
<path fill="none" stroke="midnightblue" d="M665.676,-251C677.24,-251 689.228,-251 700.436,-251"/>
<polygon fill="midnightblue" stroke="midnightblue" points="665.654,-247.5 655.654,-251 665.654,-254.5 665.654,-247.5"/>
</g>
<!-- Node7 -->
<g id="node13" class="node"><title>Node7</title>
<a xlink:href="../../d7/d62/class_u_b_board_controller.html#aa728cb7c1b979b2d4ae45638a7386dde" target="_top" xlink:title="UBBoardController::init">
<polygon fill="white" stroke="black" points="838.5,-240.5 838.5,-261.5 955.5,-261.5 955.5,-240.5 838.5,-240.5"/>
<text text-anchor="middle" x="897" y="-248.5" font-family="Helvetica,sans-Serif" font-size="10.00">UBBoardController::init</text>
</a>
</g>
<!-- Node6&#45;&gt;Node7 -->
<g id="edge12" class="edge"><title>Node6&#45;&gt;Node7</title>
<path fill="none" stroke="midnightblue" d="M811.836,-251C820.631,-251 829.668,-251 838.418,-251"/>
<polygon fill="midnightblue" stroke="midnightblue" points="811.654,-247.5 801.654,-251 811.654,-254.5 811.654,-247.5"/>
</g>
<!-- Node8 -->
<g id="node15" class="node"><title>Node8</title>
<a xlink:href="../../d8/d81/class_u_b_application.html#add1469239e71bf24fdc61413a42a38bd" target="_top" xlink:title="UBApplication::exec">
<polygon fill="white" stroke="black" points="992,-240.5 992,-261.5 1098,-261.5 1098,-240.5 992,-240.5"/>
<text text-anchor="middle" x="1045" y="-248.5" font-family="Helvetica,sans-Serif" font-size="10.00">UBApplication::exec</text>
</a>
</g>
<!-- Node7&#45;&gt;Node8 -->
<g id="edge14" class="edge"><title>Node7&#45;&gt;Node8</title>
<path fill="none" stroke="midnightblue" d="M965.947,-251C974.549,-251 983.243,-251 991.56,-251"/>
<polygon fill="midnightblue" stroke="midnightblue" points="965.919,-247.5 955.919,-251 965.919,-254.5 965.919,-247.5"/>
</g>
<!-- Node9 -->
<g id="node17" class="node"><title>Node9</title>
<a xlink:href="../../df/d0a/main_8cpp.html#a0ddf1224851353fc92bfbff6f499fa97" target="_top" xlink:title="main">
<polygon fill="white" stroke="black" points="1134,-240.5 1134,-261.5 1172,-261.5 1172,-240.5 1134,-240.5"/>
<text text-anchor="middle" x="1153" y="-248.5" font-family="Helvetica,sans-Serif" font-size="10.00">main</text>
</a>
</g>
<!-- Node8&#45;&gt;Node9 -->
<g id="edge16" class="edge"><title>Node8&#45;&gt;Node9</title>
<path fill="none" stroke="midnightblue" d="M1108.21,-251C1117.49,-251 1126.4,-251 1133.79,-251"/>
<polygon fill="midnightblue" stroke="midnightblue" points="1108.05,-247.5 1098.05,-251 1108.05,-254.5 1108.05,-247.5"/>
</g>
<!-- Node10&#45;&gt;Node5 -->
<g id="edge20" class="edge"><title>Node10&#45;&gt;Node5</title>
<path fill="none" stroke="midnightblue" d="M506.895,-267.042C522.606,-264.473 539.344,-261.736 554.464,-259.264"/>
<polygon fill="midnightblue" stroke="midnightblue" points="506.05,-263.634 496.746,-268.702 507.18,-270.542 506.05,-263.634"/>
</g>
<!-- Node11&#45;&gt;Node5 -->
<g id="edge24" class="edge"><title>Node11&#45;&gt;Node5</title>
<path fill="none" stroke="midnightblue" d="M514.057,-236.129C527.551,-238.335 541.494,-240.615 554.287,-242.707"/>
<polygon fill="midnightblue" stroke="midnightblue" points="514.286,-232.62 503.852,-234.46 513.157,-239.528 514.286,-232.62"/>
</g>
<!-- Node12&#45;&gt;Node5 -->
<g id="edge28" class="edge"><title>Node12&#45;&gt;Node5</title>
<path fill="none" stroke="midnightblue" d="M499.197,-194.061C502.873,-195.686 506.505,-197.34 510,-199 532.589,-209.727 557.349,-223.344 575.926,-233.952"/>
<polygon fill="midnightblue" stroke="midnightblue" points="500.582,-190.847 490.013,-190.101 497.81,-197.275 500.582,-190.847"/>
</g>
<!-- Node14 -->
<g id="node30" class="node"><title>Node14</title>
<a xlink:href="../../d7/d62/class_u_b_board_controller.html#aa6b980ad198948e01707821585f1ed23" target="_top" xlink:title="UBBoardController:\l:addScene">
<polygon fill="white" stroke="black" points="395.5,-104 395.5,-138 496.5,-138 496.5,-104 395.5,-104"/>
<text text-anchor="start" x="403.5" y="-125" font-family="Helvetica,sans-Serif" font-size="10.00">UBBoardController:</text>
<text text-anchor="middle" x="446" y="-112" font-family="Helvetica,sans-Serif" font-size="10.00">:addScene</text>
</a>
</g>
<!-- Node13&#45;&gt;Node14 -->
<g id="edge32" class="edge"><title>Node13&#45;&gt;Node14</title>
<path fill="none" stroke="midnightblue" d="M343.716,-106.226C361.161,-108.745 379.233,-111.356 395.245,-113.669"/>
<polygon fill="midnightblue" stroke="midnightblue" points="343.935,-102.721 333.537,-104.755 342.934,-109.649 343.935,-102.721"/>
</g>
<!-- Node15 -->
<g id="node32" class="node"><title>Node15</title>
<a xlink:href="../../d0/dd5/class_u_b_persistence_manager.html#a8024bebd59a18f8cefa5f042aa42ed25" target="_top" xlink:title="UBPersistenceManager\l::deleteDocumentScenes">
<polygon fill="white" stroke="black" points="382.5,-52 382.5,-86 509.5,-86 509.5,-52 382.5,-52"/>
<text text-anchor="start" x="390.5" y="-73" font-family="Helvetica,sans-Serif" font-size="10.00">UBPersistenceManager</text>
<text text-anchor="middle" x="446" y="-60" font-family="Helvetica,sans-Serif" font-size="10.00">::deleteDocumentScenes</text>
</a>
</g>
<!-- Node13&#45;&gt;Node15 -->
<g id="edge34" class="edge"><title>Node13&#45;&gt;Node15</title>
<path fill="none" stroke="midnightblue" d="M343.752,-83.7692C356.605,-81.9127 369.797,-80.0071 382.254,-78.2078"/>
<polygon fill="midnightblue" stroke="midnightblue" points="342.934,-80.3508 333.537,-85.2446 343.935,-87.2789 342.934,-80.3508"/>
</g>
<!-- Node18 -->
<g id="node38" class="node"><title>Node18</title>
<a xlink:href="../../d1/df2/class_u_b_document_tree_widget.html#aa309286550f7287e879b4e21b7036f22" target="_top" xlink:title="UBDocumentTreeWidget\l::dropEvent">
<polygon fill="white" stroke="black" points="383,-0 383,-34 509,-34 509,-0 383,-0"/>
<text text-anchor="start" x="391" y="-21" font-family="Helvetica,sans-Serif" font-size="10.00">UBDocumentTreeWidget</text>
<text text-anchor="middle" x="446" y="-8" font-family="Helvetica,sans-Serif" font-size="10.00">::dropEvent</text>
</a>
</g>
<!-- Node13&#45;&gt;Node18 -->
<g id="edge40" class="edge"><title>Node13&#45;&gt;Node18</title>
<path fill="none" stroke="midnightblue" d="M312.586,-73.6625C333.701,-64.1085 359.031,-52.81 382,-43 388.838,-40.0794 396.118,-37.0485 403.224,-34.1319"/>
<polygon fill="midnightblue" stroke="midnightblue" points="310.866,-70.5995 303.205,-77.9178 313.757,-76.9743 310.866,-70.5995"/>
</g>
<!-- Node16 -->
<g id="node34" class="node"><title>Node16</title>
<a xlink:href="../../da/dc6/class_u_b_document_container.html#a156ab898f2b4ff3f12f1e6d5e3406a69" target="_top" xlink:title="UBDocumentContainer\l::deletePages">
<polygon fill="white" stroke="black" points="546,-52 546,-86 664,-86 664,-52 546,-52"/>
<text text-anchor="start" x="554" y="-73" font-family="Helvetica,sans-Serif" font-size="10.00">UBDocumentContainer</text>
<text text-anchor="middle" x="605" y="-60" font-family="Helvetica,sans-Serif" font-size="10.00">::deletePages</text>
</a>
</g>
<!-- Node15&#45;&gt;Node16 -->
<g id="edge36" class="edge"><title>Node15&#45;&gt;Node16</title>
<path fill="none" stroke="midnightblue" d="M519.907,-69C528.611,-69 537.405,-69 545.868,-69"/>
<polygon fill="midnightblue" stroke="midnightblue" points="519.755,-65.5001 509.755,-69 519.755,-72.5001 519.755,-65.5001"/>
</g>
<!-- Node17 -->
<g id="node36" class="node"><title>Node17</title>
<a xlink:href="../../d7/d62/class_u_b_board_controller.html#ad1c70c75fad194f67cd944e203d15e49" target="_top" xlink:title="UBBoardController:\l:deleteScene">
<polygon fill="white" stroke="black" points="700.5,-52 700.5,-86 801.5,-86 801.5,-52 700.5,-52"/>
<text text-anchor="start" x="708.5" y="-73" font-family="Helvetica,sans-Serif" font-size="10.00">UBBoardController:</text>
<text text-anchor="middle" x="751" y="-60" font-family="Helvetica,sans-Serif" font-size="10.00">:deleteScene</text>
</a>
</g>
<!-- Node16&#45;&gt;Node17 -->
<g id="edge38" class="edge"><title>Node16&#45;&gt;Node17</title>
<path fill="none" stroke="midnightblue" d="M674.464,-69C683.102,-69 691.805,-69 700.09,-69"/>
<polygon fill="midnightblue" stroke="midnightblue" points="674.384,-65.5001 664.384,-69 674.384,-72.5001 674.384,-65.5001"/>
</g>
</g>
</svg>
