<?xml version="1.0" encoding="UTF-8" standalone="no"?>
<!DOCTYPE svg PUBLIC "-//W3C//DTD SVG 1.1//EN"
 "http://www.w3.org/Graphics/SVG/1.1/DTD/svg11.dtd">
<!-- Generated by graphviz version 2.26.3 (20100126.1600)
 -->
<!-- Title: merge_lib::Object::forgetAboutChildren Pages: 1 -->
<svg width="264pt" height="42pt"
 viewBox="0.00 0.00 264.00 42.00" xmlns="http://www.w3.org/2000/svg" xmlns:xlink="http://www.w3.org/1999/xlink">
<g id="graph1" class="graph" transform="scale(1 1) rotate(0) translate(4 38)">
<title>merge_lib::Object::forgetAboutChildren</title>
<polygon fill="white" stroke="white" points="-4,5 -4,-38 261,-38 261,5 -4,5"/>
<!-- Node1 -->
<g id="node1" class="node"><title>Node1</title>
<polygon fill="#bfbfbf" stroke="black" points="0,-0 0,-34 106,-34 106,-0 0,-0"/>
<text text-anchor="start" x="8" y="-21" font-family="Helvetica,sans-Serif" font-size="10.00">merge_lib::Object:</text>
<text text-anchor="middle" x="53" y="-8" font-family="Helvetica,sans-Serif" font-size="10.00">:forgetAboutChildren</text>
</g>
<!-- Node2 -->
<g id="node3" class="node"><title>Node2</title>
<a xlink:href="../../d7/df1/classmerge__lib_1_1_object.html#a5d2c9017437a3c305cf458c859837fa6" target="_top" xlink:title="merge_lib::Object:\l:getChildrenByBounds">
<polygon fill="white" stroke="black" points="142,-0 142,-34 256,-34 256,-0 142,-0"/>
<text text-anchor="start" x="150" y="-21" font-family="Helvetica,sans-Serif" font-size="10.00">merge_lib::Object:</text>
<text text-anchor="middle" x="199" y="-8" font-family="Helvetica,sans-Serif" font-size="10.00">:getChildrenByBounds</text>
</a>
</g>
<!-- Node1&#45;&gt;Node2 -->
<g id="edge2" class="edge"><title>Node1&#45;&gt;Node2</title>
<path fill="none" stroke="midnightblue" d="M106.122,-17C114.444,-17 123.138,-17 131.727,-17"/>
<polygon fill="midnightblue" stroke="midnightblue" points="131.731,-20.5001 141.731,-17 131.731,-13.5001 131.731,-20.5001"/>
</g>
</g>
</svg>
