<?xml version="1.0" encoding="UTF-8" standalone="no"?>
<!DOCTYPE svg PUBLIC "-//W3C//DTD SVG 1.1//EN"
 "http://www.w3.org/Graphics/SVG/1.1/DTD/svg11.dtd">
<!-- Generated by graphviz version 2.26.3 (20100126.1600)
 -->
<!-- Title: merge_lib::Object::_addChild Pages: 1 -->
<svg width="236pt" height="42pt"
 viewBox="0.00 0.00 236.00 42.00" xmlns="http://www.w3.org/2000/svg" xmlns:xlink="http://www.w3.org/1999/xlink">
<g id="graph1" class="graph" transform="scale(1 1) rotate(0) translate(4 38)">
<title>merge_lib::Object::_addChild</title>
<polygon fill="white" stroke="white" points="-4,5 -4,-38 233,-38 233,5 -4,5"/>
<!-- Node1 -->
<g id="node1" class="node"><title>Node1</title>
<polygon fill="#bfbfbf" stroke="black" points="0,-0 0,-34 96,-34 96,-0 0,-0"/>
<text text-anchor="start" x="8" y="-21" font-family="Helvetica,sans-Serif" font-size="10.00">merge_lib::Object:</text>
<text text-anchor="middle" x="48" y="-8" font-family="Helvetica,sans-Serif" font-size="10.00">:_addChild</text>
</g>
<!-- Node2 -->
<g id="node3" class="node"><title>Node2</title>
<a xlink:href="../../d7/df1/classmerge__lib_1_1_object.html#ad6b6bcffd9533e07678e2cb076dc2787" target="_top" xlink:title="merge_lib::Object:\l:getObjectNumber">
<polygon fill="white" stroke="black" points="132,-0 132,-34 228,-34 228,-0 132,-0"/>
<text text-anchor="start" x="140" y="-21" font-family="Helvetica,sans-Serif" font-size="10.00">merge_lib::Object:</text>
<text text-anchor="middle" x="180" y="-8" font-family="Helvetica,sans-Serif" font-size="10.00">:getObjectNumber</text>
</a>
</g>
<!-- Node1&#45;&gt;Node2 -->
<g id="edge2" class="edge"><title>Node1&#45;&gt;Node2</title>
<path fill="none" stroke="midnightblue" d="M96.0284,-17C104.309,-17 112.997,-17 121.517,-17"/>
<polygon fill="midnightblue" stroke="midnightblue" points="121.786,-20.5001 131.786,-17 121.786,-13.5001 121.786,-20.5001"/>
</g>
</g>
</svg>
