<?xml version="1.0" encoding="UTF-8" standalone="no"?>
<!DOCTYPE svg PUBLIC "-//W3C//DTD SVG 1.1//EN"
 "http://www.w3.org/Graphics/SVG/1.1/DTD/svg11.dtd">
<!-- Generated by graphviz version 2.26.3 (20100126.1600)
 -->
<!-- Title: merge_lib::Object::recalculateObjectNumbers Pages: 1 -->
<!--zoomable 276 -->
<svg id="main" version="1.1" xmlns="http://www.w3.org/2000/svg" xmlns:xlink="http://www.w3.org/1999/xlink" xml:space="preserve" onload="init(evt)">
        <defs>
                <circle id="rim" cx="0" cy="0" r="7"/>
                <circle id="rim2" cx="0" cy="0" r="3.5"/>
                <g id="zoomPlus">
                        <use xlink:href="#rim" fill="#404040">
                                <set attributeName="fill" to="#808080" begin="zoomplus.mouseover" end="zoomplus.mouseout"/>
                        </use>
                        <path d="M-4,0h8M0,-4v8" fill="none" stroke="white" stroke-width="1.5" pointer-events="none"/>
                </g>
                <g id="zoomMin">
                        <use xlink:href="#rim" fill="#404040">
                                <set attributeName="fill" to="#808080" begin="zoomminus.mouseover" end="zoomminus.mouseout"/>
                        </use>
                        <path d="M-4,0h8" fill="none" stroke="white" stroke-width="1.5" pointer-events="none"/>
                </g>
                <g id="dirArrow">
                        <path fill="none" stroke="white" stroke-width="1.5" d="M0,-3.0v7 M-2.5,-0.5L0,-3.0L2.5,-0.5"/>
                </g>
               <g id="resetDef">
                       <use xlink:href="#rim2" fill="#404040">
                               <set attributeName="fill" to="#808080" begin="reset.mouseover" end="reset.mouseout"/>
                       </use>
               </g>
        </defs>

<script type="text/javascript">
var viewWidth = 646;
var viewHeight = 276;
var sectionId = 'dynsection-54';
</script>
<script xlink:href="../../svgpan.js"/>
<svg id="graph" class="graph">
<g id="viewport">
<title>merge_lib::Object::recalculateObjectNumbers</title>
<polygon fill="white" stroke="white" points="-4,5 -4,-272 643,-272 643,5 -4,5"/>
<!-- Node1 -->
<g id="node1" class="node"><title>Node1</title>
<polygon fill="#bfbfbf" stroke="black" points="0.5,-101 0.5,-135 135.5,-135 135.5,-101 0.5,-101"/>
<text text-anchor="start" x="8.5" y="-122" font-family="Helvetica,sans-Serif" font-size="10.00">merge_lib::Object:</text>
<text text-anchor="middle" x="68" y="-109" font-family="Helvetica,sans-Serif" font-size="10.00">:recalculateObjectNumbers</text>
</g>
<!-- Node2 -->
<g id="node3" class="node"><title>Node2</title>
<a xlink:href="../../d7/df1/classmerge__lib_1_1_object.html#a24ca560b6981eeb6de3febaddafdf522" target="_top" xlink:title="merge_lib::Object:\l:_recalculateObjectNumbers">
<polygon fill="white" stroke="black" points="172,-127 172,-161 312,-161 312,-127 172,-127"/>
<text text-anchor="start" x="180" y="-148" font-family="Helvetica,sans-Serif" font-size="10.00">merge_lib::Object:</text>
<text text-anchor="middle" x="242" y="-135" font-family="Helvetica,sans-Serif" font-size="10.00">:_recalculateObjectNumbers</text>
</a>
</g>
<!-- Node1&#45;&gt;Node2 -->
<g id="edge2" class="edge"><title>Node1&#45;&gt;Node2</title>
<path fill="none" stroke="midnightblue" d="M135.771,-128.127C144.276,-129.398 153.038,-130.707 161.711,-132.003"/>
<polygon fill="midnightblue" stroke="midnightblue" points="161.423,-135.499 171.831,-133.515 162.458,-128.575 161.423,-135.499"/>
</g>
<!-- Node9 -->
<g id="node19" class="node"><title>Node9</title>
<a xlink:href="../../d7/df1/classmerge__lib_1_1_object.html#ac38e5117070fa0a81c46259e46f0b939" target="_top" xlink:title="merge_lib::Object:\l:resetIsPassed">
<polygon fill="white" stroke="black" points="194,-75 194,-109 290,-109 290,-75 194,-75"/>
<text text-anchor="start" x="202" y="-96" font-family="Helvetica,sans-Serif" font-size="10.00">merge_lib::Object:</text>
<text text-anchor="middle" x="242" y="-83" font-family="Helvetica,sans-Serif" font-size="10.00">:resetIsPassed</text>
</a>
</g>
<!-- Node1&#45;&gt;Node9 -->
<g id="edge20" class="edge"><title>Node1&#45;&gt;Node9</title>
<path fill="none" stroke="midnightblue" d="M135.771,-107.873C151.661,-105.499 168.452,-102.99 183.877,-100.685"/>
<polygon fill="midnightblue" stroke="midnightblue" points="184.42,-104.143 193.793,-99.2033 183.386,-97.2197 184.42,-104.143"/>
</g>
<!-- Node2&#45;&gt;Node2 -->
<g id="edge10" class="edge"><title>Node2&#45;&gt;Node2</title>
<path fill="none" stroke="midnightblue" d="M210.721,-161.288C205.406,-170.556 215.832,-179 242,-179 257.946,-179 268.047,-175.864 272.302,-171.318"/>
<polygon fill="midnightblue" stroke="midnightblue" points="275.793,-171.58 273.279,-161.288 268.826,-170.901 275.793,-171.58"/>
</g>
<!-- Node3 -->
<g id="node5" class="node"><title>Node3</title>
<a xlink:href="../../d7/df1/classmerge__lib_1_1_object.html#a9a96d26b2a9968ebec1be19d393c651d" target="_top" xlink:title="merge_lib::Object:\l:_setObjectNumber">
<polygon fill="white" stroke="black" points="376.5,-234 376.5,-268 477.5,-268 477.5,-234 376.5,-234"/>
<text text-anchor="start" x="384.5" y="-255" font-family="Helvetica,sans-Serif" font-size="10.00">merge_lib::Object:</text>
<text text-anchor="middle" x="427" y="-242" font-family="Helvetica,sans-Serif" font-size="10.00">:_setObjectNumber</text>
</a>
</g>
<!-- Node2&#45;&gt;Node3 -->
<g id="edge4" class="edge"><title>Node2&#45;&gt;Node3</title>
<path fill="none" stroke="midnightblue" d="M262.499,-161.058C283.139,-177.65 316.369,-202.802 348,-220 354.407,-223.484 361.29,-226.779 368.226,-229.829"/>
<polygon fill="midnightblue" stroke="midnightblue" points="367.102,-233.154 377.676,-233.83 369.832,-226.708 367.102,-233.154"/>
</g>
<!-- Node4 -->
<g id="node7" class="node"><title>Node4</title>
<a xlink:href="../../d7/df1/classmerge__lib_1_1_object.html#a5e08d1a187878b9afaad16d0012e692f" target="_top" xlink:title="merge_lib::Object:\l:isPassed">
<polygon fill="white" stroke="black" points="542,-211 542,-245 638,-245 638,-211 542,-211"/>
<text text-anchor="start" x="550" y="-232" font-family="Helvetica,sans-Serif" font-size="10.00">merge_lib::Object:</text>
<text text-anchor="middle" x="590" y="-219" font-family="Helvetica,sans-Serif" font-size="10.00">:isPassed</text>
</a>
</g>
<!-- Node2&#45;&gt;Node4 -->
<g id="edge8" class="edge"><title>Node2&#45;&gt;Node4</title>
<path fill="none" stroke="midnightblue" d="M278.589,-161.144C298.701,-169.976 324.31,-180.275 348,-187 409.424,-204.437 481.852,-215.508 531.358,-221.692"/>
<polygon fill="midnightblue" stroke="midnightblue" points="531.211,-225.2 541.562,-222.938 532.06,-218.251 531.211,-225.2"/>
</g>
<!-- Node5 -->
<g id="node11" class="node"><title>Node5</title>
<a xlink:href="../../d4/d67/classmerge__lib_1_1_utils.html#aec498be127dfac5839795ea5d07d84c6" target="_top" xlink:title="merge_lib::Utils::uIntToStr">
<polygon fill="white" stroke="black" points="361.5,-156.5 361.5,-177.5 492.5,-177.5 492.5,-156.5 361.5,-156.5"/>
<text text-anchor="middle" x="427" y="-164.5" font-family="Helvetica,sans-Serif" font-size="10.00">merge_lib::Utils::uIntToStr</text>
</a>
</g>
<!-- Node2&#45;&gt;Node5 -->
<g id="edge12" class="edge"><title>Node2&#45;&gt;Node5</title>
<path fill="none" stroke="midnightblue" d="M312.204,-152.728C324.948,-154.312 338.292,-155.971 351.188,-157.575"/>
<polygon fill="midnightblue" stroke="midnightblue" points="351.059,-161.086 361.415,-158.846 351.923,-154.139 351.059,-161.086"/>
</g>
<!-- Node6 -->
<g id="node13" class="node"><title>Node6</title>
<a xlink:href="../../d7/df1/classmerge__lib_1_1_object.html#a17910ac5b37657f732f51b1bd312c5e0" target="_top" xlink:title="merge_lib::Object:\l:getOldNumber">
<polygon fill="white" stroke="black" points="379,-104 379,-138 475,-138 475,-104 379,-104"/>
<text text-anchor="start" x="387" y="-125" font-family="Helvetica,sans-Serif" font-size="10.00">merge_lib::Object:</text>
<text text-anchor="middle" x="427" y="-112" font-family="Helvetica,sans-Serif" font-size="10.00">:getOldNumber</text>
</a>
</g>
<!-- Node2&#45;&gt;Node6 -->
<g id="edge14" class="edge"><title>Node2&#45;&gt;Node6</title>
<path fill="none" stroke="midnightblue" d="M312.204,-135.272C330.919,-132.945 350.928,-130.458 368.913,-128.222"/>
<polygon fill="midnightblue" stroke="midnightblue" points="369.467,-131.68 378.958,-126.973 368.603,-124.733 369.467,-131.68"/>
</g>
<!-- Node7 -->
<g id="node15" class="node"><title>Node7</title>
<a xlink:href="../../d7/df1/classmerge__lib_1_1_object.html#ad6b6bcffd9533e07678e2cb076dc2787" target="_top" xlink:title="merge_lib::Object:\l:getObjectNumber">
<polygon fill="white" stroke="black" points="379,-52 379,-86 475,-86 475,-52 379,-52"/>
<text text-anchor="start" x="387" y="-73" font-family="Helvetica,sans-Serif" font-size="10.00">merge_lib::Object:</text>
<text text-anchor="middle" x="427" y="-60" font-family="Helvetica,sans-Serif" font-size="10.00">:getObjectNumber</text>
</a>
</g>
<!-- Node2&#45;&gt;Node7 -->
<g id="edge16" class="edge"><title>Node2&#45;&gt;Node7</title>
<path fill="none" stroke="midnightblue" d="M291.891,-126.963C298.747,-124.192 305.618,-121.179 312,-118 328.995,-109.536 330.848,-103.143 348,-95 354.636,-91.8496 361.754,-88.9246 368.902,-86.2597"/>
<polygon fill="midnightblue" stroke="midnightblue" points="370.381,-89.448 378.623,-82.7903 368.028,-82.8553 370.381,-89.448"/>
</g>
<!-- Node8 -->
<g id="node17" class="node"><title>Node8</title>
<a xlink:href="../../d7/df1/classmerge__lib_1_1_object.html#aa232aee020ebcf4fb2d7ed533d1f312f" target="_top" xlink:title="merge_lib::Object:\l:_recalculateReferencePositions">
<polygon fill="white" stroke="black" points="348,-0 348,-34 506,-34 506,-0 348,-0"/>
<text text-anchor="start" x="356" y="-21" font-family="Helvetica,sans-Serif" font-size="10.00">merge_lib::Object:</text>
<text text-anchor="middle" x="427" y="-8" font-family="Helvetica,sans-Serif" font-size="10.00">:_recalculateReferencePositions</text>
</a>
</g>
<!-- Node2&#45;&gt;Node8 -->
<g id="edge18" class="edge"><title>Node2&#45;&gt;Node8</title>
<path fill="none" stroke="midnightblue" d="M299.569,-126.971C304.043,-124.38 308.264,-121.407 312,-118 339.318,-93.0834 320.217,-67.3974 348,-43 349.343,-41.821 350.74,-40.6952 352.184,-39.6202"/>
<polygon fill="midnightblue" stroke="midnightblue" points="354.391,-42.3618 360.901,-34.0029 350.599,-36.4776 354.391,-42.3618"/>
</g>
<!-- Node3&#45;&gt;Node4 -->
<g id="edge6" class="edge"><title>Node3&#45;&gt;Node4</title>
<path fill="none" stroke="midnightblue" d="M477.681,-243.849C494.79,-241.435 514.023,-238.721 531.675,-236.23"/>
<polygon fill="midnightblue" stroke="midnightblue" points="532.445,-239.656 541.858,-234.793 531.467,-232.725 532.445,-239.656"/>
</g>
</g>
</svg>
        <g id="navigator" transform="translate(0 0)" fill="#404254">
                <rect fill="#f2f5e9" fill-opacity="0.5" stroke="#606060" stroke-width=".5" x="0" y="0" width="60" height="60"/>
                <use id="zoomplus" xlink:href="#zoomPlus" x="17" y="9" onmousedown="handleZoom(evt,'in')"/>
                <use id="zoomminus" xlink:href="#zoomMin" x="42" y="9" onmousedown="handleZoom(evt,'out')"/>
                <use id="reset" xlink:href="#resetDef" x="30" y="36" onmousedown="handleReset()"/>
                <g id="arrowUp" xlink:href="#dirArrow" transform="translate(30 24)" onmousedown="handlePan(0,-1)">
                  <use xlink:href="#rim" fill="#404040">
                        <set attributeName="fill" to="#808080" begin="arrowUp.mouseover" end="arrowUp.mouseout"/>
                  </use>
                  <path fill="none" stroke="white" stroke-width="1.5" d="M0,-3.0v7 M-2.5,-0.5L0,-3.0L2.5,-0.5"/>
                </g>
                <g id="arrowRight" xlink:href="#dirArrow" transform="rotate(90) translate(36 -43)" onmousedown="handlePan(1,0)">
                  <use xlink:href="#rim" fill="#404040">
                        <set attributeName="fill" to="#808080" begin="arrowRight.mouseover" end="arrowRight.mouseout"/>
                  </use>
                  <path fill="none" stroke="white" stroke-width="1.5" d="M0,-3.0v7 M-2.5,-0.5L0,-3.0L2.5,-0.5"/>
                </g>
                <g id="arrowDown" xlink:href="#dirArrow" transform="rotate(180) translate(-30 -48)" onmousedown="handlePan(0,1)">
                  <use xlink:href="#rim" fill="#404040">
                        <set attributeName="fill" to="#808080" begin="arrowDown.mouseover" end="arrowDown.mouseout"/>
                  </use>
                  <path fill="none" stroke="white" stroke-width="1.5" d="M0,-3.0v7 M-2.5,-0.5L0,-3.0L2.5,-0.5"/>
                </g>
                <g id="arrowLeft" xlink:href="#dirArrow" transform="rotate(270) translate(-36 17)" onmousedown="handlePan(-1,0)">
                  <use xlink:href="#rim" fill="#404040">
                        <set attributeName="fill" to="#808080" begin="arrowLeft.mouseover" end="arrowLeft.mouseout"/>
                  </use>
                  <path fill="none" stroke="white" stroke-width="1.5" d="M0,-3.0v7 M-2.5,-0.5L0,-3.0L2.5,-0.5"/>
                </g>
        </g>
        <svg viewBox="0 0 15 15" width="100%" height="30px" preserveAspectRatio="xMaxYMin meet">
         <g id="arrow_out" transform="scale(0.3 0.3)">
          <a xlink:href="classmerge__lib_1_1_object_a54aaa67b196c1ee3f75fcb2b5b45c4d7_cgraph_org.svg" target="_base">
           <rect id="button" ry="5" rx="5" y="6" x="6" height="38" width="38"
                fill="#f2f5e9" fill-opacity="0.5" stroke="#606060" stroke-width="1.0"/>
           <path id="arrow"
             d="M 11.500037,31.436501 C 11.940474,20.09759 22.043105,11.32322 32.158766,21.979434 L 37.068811,17.246167 C 37.068811,17.246167 37.088388,32 37.088388,32 L 22.160133,31.978069 C 22.160133,31.978069 26.997745,27.140456 26.997745,27.140456 C 18.528582,18.264221 13.291696,25.230495 11.500037,31.436501 z"
             style="fill:#404040;"/>
          </a>
         </g>
        </svg>
</svg>
