<?xml version="1.0" encoding="UTF-8" standalone="no"?>
<!DOCTYPE svg PUBLIC "-//W3C//DTD SVG 1.1//EN"
 "http://www.w3.org/Graphics/SVG/1.1/DTD/svg11.dtd">
<!-- Generated by graphviz version 2.26.3 (20100126.1600)
 -->
<!-- Title: merge_lib::Object::getObjectContent Pages: 1 -->
<svg width="1662pt" height="864pt"
 viewBox="0.00 0.00 1662.00 864.00" xmlns="http://www.w3.org/2000/svg" xmlns:xlink="http://www.w3.org/1999/xlink">
<g id="graph1" class="graph" transform="scale(1 1) rotate(0) translate(4 860)">
<title>merge_lib::Object::getObjectContent</title>
<polygon fill="white" stroke="white" points="-4,5 -4,-860 1659,-860 1659,5 -4,5"/>
<!-- Node1 -->
<g id="node1" class="node"><title>Node1</title>
<polygon fill="#bfbfbf" stroke="black" points="0,-390 0,-424 96,-424 96,-390 0,-390"/>
<text text-anchor="start" x="8" y="-411" font-family="Helvetica,sans-Serif" font-size="10.00">merge_lib::Object:</text>
<text text-anchor="middle" x="48" y="-398" font-family="Helvetica,sans-Serif" font-size="10.00">:getObjectContent</text>
</g>
<!-- Node2 -->
<g id="node3" class="node"><title>Node2</title>
<a xlink:href="../../de/dd6/classmerge__lib_1_1_abstract_box_element_handler.html#a81108496088501c1bce82410b94775f0" target="_top" xlink:title="merge_lib::AbstractBoxElement\lHandler::_retrieveBoxFromParent">
<polygon fill="white" stroke="black" points="141,-822 141,-856 303,-856 303,-822 141,-822"/>
<text text-anchor="start" x="149" y="-843" font-family="Helvetica,sans-Serif" font-size="10.00">merge_lib::AbstractBoxElement</text>
<text text-anchor="middle" x="222" y="-830" font-family="Helvetica,sans-Serif" font-size="10.00">Handler::_retrieveBoxFromParent</text>
</a>
</g>
<!-- Node1&#45;&gt;Node2 -->
<g id="edge2" class="edge"><title>Node1&#45;&gt;Node2</title>
<path fill="none" stroke="midnightblue" d="M50.0447,-434.47C56.6882,-516.451 80.2932,-757.138 132,-813 135.093,-816.342 138.587,-819.264 142.356,-821.818"/>
<polygon fill="midnightblue" stroke="midnightblue" points="53.5274,-434.112 49.2514,-424.419 46.5491,-434.663 53.5274,-434.112"/>
</g>
<!-- Node5 -->
<g id="node9" class="node"><title>Node5</title>
<a xlink:href="../../d9/dd5/classmerge__lib_1_1_annots_handler.html#aa427e3f714337239270d24dda06b25d3" target="_top" xlink:title="merge_lib::AnnotsHandler\l::_processObjectContent">
<polygon fill="white" stroke="black" points="157.5,-770 157.5,-804 286.5,-804 286.5,-770 157.5,-770"/>
<text text-anchor="start" x="165.5" y="-791" font-family="Helvetica,sans-Serif" font-size="10.00">merge_lib::AnnotsHandler</text>
<text text-anchor="middle" x="222" y="-778" font-family="Helvetica,sans-Serif" font-size="10.00">::_processObjectContent</text>
</a>
</g>
<!-- Node1&#45;&gt;Node5 -->
<g id="edge8" class="edge"><title>Node1&#45;&gt;Node5</title>
<path fill="none" stroke="midnightblue" d="M50.9406,-434.375C59.4859,-508.965 86.6271,-713.383 132,-761 138.956,-768.3 147.822,-773.589 157.264,-777.413"/>
<polygon fill="midnightblue" stroke="midnightblue" points="54.4086,-433.894 49.8148,-424.347 47.4523,-434.675 54.4086,-433.894"/>
</g>
<!-- Node6 -->
<g id="node11" class="node"><title>Node6</title>
<a xlink:href="../../d3/d79/classmerge__lib_1_1_crop_box_element_handler.html#addbb2db9ed386aa88c7d76fe1fb49e43" target="_top" xlink:title="merge_lib::CropBoxElement\lHandler::_changeObjectContent">
<polygon fill="white" stroke="black" points="144,-718 144,-752 300,-752 300,-718 144,-718"/>
<text text-anchor="start" x="152" y="-739" font-family="Helvetica,sans-Serif" font-size="10.00">merge_lib::CropBoxElement</text>
<text text-anchor="middle" x="222" y="-726" font-family="Helvetica,sans-Serif" font-size="10.00">Handler::_changeObjectContent</text>
</a>
</g>
<!-- Node1&#45;&gt;Node6 -->
<g id="edge10" class="edge"><title>Node1&#45;&gt;Node6</title>
<path fill="none" stroke="midnightblue" d="M52.134,-434.304C62.7528,-500.978 92.9186,-669.528 132,-709 135.547,-712.583 139.555,-715.679 143.86,-718.354"/>
<polygon fill="midnightblue" stroke="midnightblue" points="55.5498,-433.493 50.5441,-424.155 48.6342,-434.577 55.5498,-433.493"/>
</g>
<!-- Node7 -->
<g id="node13" class="node"><title>Node7</title>
<a xlink:href="../../d2/d83/classmerge__lib_1_1_media_box_element_handler.html#a9a74ca39422f92901fbf5f52362474a2" target="_top" xlink:title="merge_lib::MediaBoxElement\lHandler::_wasCropBoxHandlerCalled">
<polygon fill="white" stroke="black" points="132.5,-666 132.5,-700 311.5,-700 311.5,-666 132.5,-666"/>
<text text-anchor="start" x="140.5" y="-687" font-family="Helvetica,sans-Serif" font-size="10.00">merge_lib::MediaBoxElement</text>
<text text-anchor="middle" x="222" y="-674" font-family="Helvetica,sans-Serif" font-size="10.00">Handler::_wasCropBoxHandlerCalled</text>
</a>
</g>
<!-- Node1&#45;&gt;Node7 -->
<g id="edge12" class="edge"><title>Node1&#45;&gt;Node7</title>
<path fill="none" stroke="midnightblue" d="M53.8163,-434.293C66.7105,-492.387 99.1616,-625.542 132,-657 135.523,-660.375 139.457,-663.317 143.656,-665.879"/>
<polygon fill="midnightblue" stroke="midnightblue" points="57.1994,-433.38 51.6406,-424.361 50.3615,-434.878 57.1994,-433.38"/>
</g>
<!-- Node9 -->
<g id="node18" class="node"><title>Node9</title>
<a xlink:href="../../d7/df1/classmerge__lib_1_1_object.html#a2f440188ae7c14b4d4d723c1379c3dd3" target="_top" xlink:title="merge_lib::Object:\l:_getClone">
<polygon fill="white" stroke="black" points="174,-506 174,-540 270,-540 270,-506 174,-506"/>
<text text-anchor="start" x="182" y="-527" font-family="Helvetica,sans-Serif" font-size="10.00">merge_lib::Object:</text>
<text text-anchor="middle" x="222" y="-514" font-family="Helvetica,sans-Serif" font-size="10.00">:_getClone</text>
</a>
</g>
<!-- Node1&#45;&gt;Node9 -->
<g id="edge18" class="edge"><title>Node1&#45;&gt;Node9</title>
<path fill="none" stroke="midnightblue" d="M67.4493,-432.203C83.099,-450.978 106.606,-476.026 132,-492 144.729,-500.008 159.781,-506.239 173.896,-510.946"/>
<polygon fill="midnightblue" stroke="midnightblue" points="70.0661,-429.874 61.0372,-424.331 64.6384,-434.295 70.0661,-429.874"/>
</g>
<!-- Node12 -->
<g id="node24" class="node"><title>Node12</title>
<a xlink:href="../../db/d32/classmerge__lib_1_1_page.html#ab743f0a5867701d8be79af076f02a6fd" target="_top" xlink:title="merge_lib::Page::merge">
<polygon fill="white" stroke="black" points="744,-448.5 744,-469.5 864,-469.5 864,-448.5 744,-448.5"/>
<text text-anchor="middle" x="804" y="-456.5" font-family="Helvetica,sans-Serif" font-size="10.00">merge_lib::Page::merge</text>
</a>
</g>
<!-- Node1&#45;&gt;Node12 -->
<g id="edge78" class="edge"><title>Node1&#45;&gt;Node12</title>
<path fill="none" stroke="midnightblue" d="M76.6269,-430.157C92.0535,-441.168 111.991,-453.177 132,-459 351.559,-522.895 628.832,-488.951 746.743,-469.529"/>
<polygon fill="midnightblue" stroke="midnightblue" points="78.6713,-427.316 68.5488,-424.188 74.5113,-432.945 78.6713,-427.316"/>
</g>
<!-- Node19 -->
<g id="node39" class="node"><title>Node19</title>
<a xlink:href="../../d7/df1/classmerge__lib_1_1_object.html#a74d6f1dd66a4371682ecb1415e61e818" target="_top" xlink:title="merge_lib::Object:\l:getNameSimpleValue">
<polygon fill="white" stroke="black" points="165,-614 165,-648 279,-648 279,-614 165,-614"/>
<text text-anchor="start" x="173" y="-635" font-family="Helvetica,sans-Serif" font-size="10.00">merge_lib::Object:</text>
<text text-anchor="middle" x="222" y="-622" font-family="Helvetica,sans-Serif" font-size="10.00">:getNameSimpleValue</text>
</a>
</g>
<!-- Node1&#45;&gt;Node19 -->
<g id="edge40" class="edge"><title>Node1&#45;&gt;Node19</title>
<path fill="none" stroke="midnightblue" d="M52.6062,-434.015C61.051,-475.436 82.8702,-554.596 132,-600 141.224,-608.524 152.903,-614.72 164.767,-619.217"/>
<polygon fill="midnightblue" stroke="midnightblue" points="56.0251,-433.26 50.6957,-424.103 49.1517,-434.585 56.0251,-433.26"/>
</g>
<!-- Node24 -->
<g id="node49" class="node"><title>Node24</title>
<a xlink:href="../../d7/df1/classmerge__lib_1_1_object.html#a748cda680f3a23133864c0757ad7f058" target="_top" xlink:title="merge_lib::Object:\l:findPatternInObjOrParents">
<polygon fill="white" stroke="black" points="155,-416 155,-450 289,-450 289,-416 155,-416"/>
<text text-anchor="start" x="163" y="-437" font-family="Helvetica,sans-Serif" font-size="10.00">merge_lib::Object:</text>
<text text-anchor="middle" x="222" y="-424" font-family="Helvetica,sans-Serif" font-size="10.00">:findPatternInObjOrParents</text>
</a>
</g>
<!-- Node1&#45;&gt;Node24 -->
<g id="edge50" class="edge"><title>Node1&#45;&gt;Node24</title>
<path fill="none" stroke="midnightblue" d="M106.075,-415.678C121.743,-418.019 138.824,-420.571 154.94,-422.98"/>
<polygon fill="midnightblue" stroke="midnightblue" points="106.414,-412.19 96.0069,-414.173 105.38,-419.113 106.414,-412.19"/>
</g>
<!-- Node25 -->
<g id="node51" class="node"><title>Node25</title>
<a xlink:href="../../d7/dfc/_page_8cpp.html#a6c2ce677b35a7a6cf054968df4da42b0" target="_top" xlink:title="processBasePageResources">
<polygon fill="white" stroke="black" points="357.5,-390.5 357.5,-411.5 500.5,-411.5 500.5,-390.5 357.5,-390.5"/>
<text text-anchor="middle" x="429" y="-398.5" font-family="Helvetica,sans-Serif" font-size="10.00">processBasePageResources</text>
</a>
</g>
<!-- Node1&#45;&gt;Node25 -->
<g id="edge74" class="edge"><title>Node1&#45;&gt;Node25</title>
<path fill="none" stroke="midnightblue" d="M76.2775,-383.973C91.7401,-372.872 111.817,-360.742 132,-355 208.947,-333.11 233.399,-340.104 312,-355 347.598,-361.746 386.225,-379.085 408.985,-390.443"/>
<polygon fill="midnightblue" stroke="midnightblue" points="74.126,-381.211 68.1905,-389.987 78.3034,-386.828 74.126,-381.211"/>
</g>
<!-- Node26 -->
<g id="node55" class="node"><title>Node26</title>
<a xlink:href="../../db/d32/classmerge__lib_1_1_page.html#a44ee21d43416ffe184aae26532e5fae8" target="_top" xlink:title="merge_lib::Page::getPage\lContent">
<polygon fill="white" stroke="black" points="157.5,-364 157.5,-398 286.5,-398 286.5,-364 157.5,-364"/>
<text text-anchor="start" x="165.5" y="-385" font-family="Helvetica,sans-Serif" font-size="10.00">merge_lib::Page::getPage</text>
<text text-anchor="middle" x="222" y="-372" font-family="Helvetica,sans-Serif" font-size="10.00">Content</text>
</a>
</g>
<!-- Node1&#45;&gt;Node26 -->
<g id="edge58" class="edge"><title>Node1&#45;&gt;Node26</title>
<path fill="none" stroke="midnightblue" d="M106.008,-398.332C122.433,-395.878 140.415,-393.191 157.213,-390.681"/>
<polygon fill="midnightblue" stroke="midnightblue" points="105.38,-394.887 96.0069,-399.827 106.414,-401.81 105.38,-394.887"/>
</g>
<!-- Node27 -->
<g id="node57" class="node"><title>Node27</title>
<a xlink:href="../../d7/dfc/_page_8cpp.html#ad748c0b63c61b58b3362e53390f7c66d" target="_top" xlink:title="_recalculateAnnotsCoordinates">
<polygon fill="white" stroke="black" points="146,-208.5 146,-229.5 298,-229.5 298,-208.5 146,-208.5"/>
<text text-anchor="middle" x="222" y="-216.5" font-family="Helvetica,sans-Serif" font-size="10.00">_recalculateAnnotsCoordinates</text>
</a>
</g>
<!-- Node1&#45;&gt;Node27 -->
<g id="edge60" class="edge"><title>Node1&#45;&gt;Node27</title>
<path fill="none" stroke="midnightblue" d="M53.7879,-380.106C63.3316,-342.518 86.0692,-274.862 132,-239 136.794,-235.257 142.148,-232.184 147.79,-229.666"/>
<polygon fill="midnightblue" stroke="midnightblue" points="50.3777,-379.318 51.4376,-389.86 57.183,-380.958 50.3777,-379.318"/>
</g>
<!-- Node28 -->
<g id="node59" class="node"><title>Node28</title>
<a xlink:href="../../db/d32/classmerge__lib_1_1_page.html#ae56102e8ba506d0ee2f2b28ad8e2cbdf" target="_top" xlink:title="merge_lib::Page::_getMerged\lPageContent">
<polygon fill="white" stroke="black" points="357,-262 357,-296 501,-296 501,-262 357,-262"/>
<text text-anchor="start" x="365" y="-283" font-family="Helvetica,sans-Serif" font-size="10.00">merge_lib::Page::_getMerged</text>
<text text-anchor="middle" x="429" y="-270" font-family="Helvetica,sans-Serif" font-size="10.00">PageContent</text>
</a>
</g>
<!-- Node1&#45;&gt;Node28 -->
<g id="edge76" class="edge"><title>Node1&#45;&gt;Node28</title>
<path fill="none" stroke="midnightblue" d="M70.774,-382.51C86.5056,-367.087 108.721,-348.067 132,-337 203.882,-302.825 294.702,-288.786 356.869,-283.02"/>
<polygon fill="midnightblue" stroke="midnightblue" points="68.1567,-380.178 63.5959,-389.741 73.1248,-385.11 68.1567,-380.178"/>
</g>
<!-- Node29 -->
<g id="node62" class="node"><title>Node29</title>
<a xlink:href="../../d7/dfc/_page_8cpp.html#ae1d70b77c2d5b60801d4de55ef4dc132" target="_top" xlink:title="_updateAnnotParentPage">
<polygon fill="white" stroke="black" points="563,-562.5 563,-583.5 691,-583.5 691,-562.5 563,-562.5"/>
<text text-anchor="middle" x="627" y="-570.5" font-family="Helvetica,sans-Serif" font-size="10.00">_updateAnnotParentPage</text>
</a>
</g>
<!-- Node1&#45;&gt;Node29 -->
<g id="edge66" class="edge"><title>Node1&#45;&gt;Node29</title>
<path fill="none" stroke="midnightblue" d="M53.3908,-434.424C62.3891,-471.915 84.4009,-537.834 132,-567 202.35,-610.106 445.612,-591.928 562.847,-580.145"/>
<polygon fill="midnightblue" stroke="midnightblue" points="56.7037,-433.204 51.0943,-424.216 49.8744,-434.74 56.7037,-433.204"/>
</g>
<!-- Node30 -->
<g id="node65" class="node"><title>Node30</title>
<a xlink:href="../../d7/dfc/_page_8cpp.html#a26aba0d283e16a74263236b3db8a19db" target="_top" xlink:title="_updateAnnotFormColor">
<polygon fill="white" stroke="black" points="161,-248.5 161,-269.5 283,-269.5 283,-248.5 161,-248.5"/>
<text text-anchor="middle" x="222" y="-256.5" font-family="Helvetica,sans-Serif" font-size="10.00">_updateAnnotFormColor</text>
</a>
</g>
<!-- Node1&#45;&gt;Node30 -->
<g id="edge70" class="edge"><title>Node1&#45;&gt;Node30</title>
<path fill="none" stroke="midnightblue" d="M59.2432,-380.63C72.562,-352.537 97.3916,-308.774 132,-284 140.703,-277.77 150.9,-273.091 161.243,-269.577"/>
<polygon fill="midnightblue" stroke="midnightblue" points="55.9992,-379.308 55.015,-389.857 62.3629,-382.224 55.9992,-379.308"/>
</g>
<!-- Node31 -->
<g id="node71" class="node"><title>Node31</title>
<a xlink:href="../../d4/de3/classmerge__lib_1_1_parser.html#ab4420fe64119d40e88fa596b0d26ed44" target="_top" xlink:title="merge_lib::Parser:\l:_retrieveAllPages">
<polygon fill="white" stroke="black" points="174,-156 174,-190 270,-190 270,-156 174,-156"/>
<text text-anchor="start" x="182" y="-177" font-family="Helvetica,sans-Serif" font-size="10.00">merge_lib::Parser:</text>
<text text-anchor="middle" x="222" y="-164" font-family="Helvetica,sans-Serif" font-size="10.00">:_retrieveAllPages</text>
</a>
</g>
<!-- Node1&#45;&gt;Node31 -->
<g id="edge80" class="edge"><title>Node1&#45;&gt;Node31</title>
<path fill="none" stroke="midnightblue" d="M51.3271,-379.843C58.2138,-335.483 78.1768,-247.567 132,-199 143.471,-188.649 158.822,-182.4 173.594,-178.634"/>
<polygon fill="midnightblue" stroke="midnightblue" points="47.8428,-379.483 49.8787,-389.881 54.7711,-380.483 47.8428,-379.483"/>
</g>
<!-- Node32 -->
<g id="node73" class="node"><title>Node32</title>
<a xlink:href="../../d4/de3/classmerge__lib_1_1_parser.html#a78f1b7bc62f8b77302f965c36db8636e" target="_top" xlink:title="merge_lib::Parser:\l:_createObjectTree">
<polygon fill="white" stroke="black" points="172,-104 172,-138 272,-138 272,-104 172,-104"/>
<text text-anchor="start" x="180" y="-125" font-family="Helvetica,sans-Serif" font-size="10.00">merge_lib::Parser:</text>
<text text-anchor="middle" x="222" y="-112" font-family="Helvetica,sans-Serif" font-size="10.00">:_createObjectTree</text>
</a>
</g>
<!-- Node1&#45;&gt;Node32 -->
<g id="edge82" class="edge"><title>Node1&#45;&gt;Node32</title>
<path fill="none" stroke="midnightblue" d="M53.4117,-379.851C65.8306,-320.124 97.9387,-180.013 132,-147 142.744,-136.586 157.39,-130.3 171.745,-126.518"/>
<polygon fill="midnightblue" stroke="midnightblue" points="49.9724,-379.2 51.3915,-389.7 56.8296,-380.607 49.9724,-379.2"/>
</g>
<!-- Node33 -->
<g id="node75" class="node"><title>Node33</title>
<a xlink:href="../../da/d60/classmerge__lib_1_1_rectangle.html#aae4dc8f5494c96f19cde0771122a9267" target="_top" xlink:title="merge_lib::Rectangle\l::updateRectangle">
<polygon fill="white" stroke="black" points="167.5,-52 167.5,-86 276.5,-86 276.5,-52 167.5,-52"/>
<text text-anchor="start" x="175.5" y="-73" font-family="Helvetica,sans-Serif" font-size="10.00">merge_lib::Rectangle</text>
<text text-anchor="middle" x="222" y="-60" font-family="Helvetica,sans-Serif" font-size="10.00">::updateRectangle</text>
</a>
</g>
<!-- Node1&#45;&gt;Node33 -->
<g id="edge84" class="edge"><title>Node1&#45;&gt;Node33</title>
<path fill="none" stroke="midnightblue" d="M51.872,-379.702C62.075,-311.47 91.7092,-136.032 132,-95 141.458,-85.3681 154.243,-79.2488 167.205,-75.3769"/>
<polygon fill="midnightblue" stroke="midnightblue" points="48.3946,-379.292 50.4026,-389.695 55.3202,-380.31 48.3946,-379.292"/>
</g>
<!-- Node34 -->
<g id="node77" class="node"><title>Node34</title>
<a xlink:href="../../db/d07/classmerge__lib_1_1_rotation_handler.html#af4b7730ee58726f9f924f1331d79841a" target="_top" xlink:title="merge_lib::RotationHandler\l::_processObjectContent">
<polygon fill="white" stroke="black" points="154.5,-0 154.5,-34 289.5,-34 289.5,-0 154.5,-0"/>
<text text-anchor="start" x="162.5" y="-21" font-family="Helvetica,sans-Serif" font-size="10.00">merge_lib::RotationHandler</text>
<text text-anchor="middle" x="222" y="-8" font-family="Helvetica,sans-Serif" font-size="10.00">::_processObjectContent</text>
</a>
</g>
<!-- Node1&#45;&gt;Node34 -->
<g id="edge86" class="edge"><title>Node1&#45;&gt;Node34</title>
<path fill="none" stroke="midnightblue" d="M50.7733,-379.383C58.9683,-303.145 85.4578,-92.1472 132,-43 138.151,-36.505 145.813,-31.6008 154.053,-27.9035"/>
<polygon fill="midnightblue" stroke="midnightblue" points="47.2621,-379.307 49.6967,-389.618 54.2237,-380.039 47.2621,-379.307"/>
</g>
<!-- Node3 -->
<g id="node5" class="node"><title>Node3</title>
<a xlink:href="../../d3/d79/classmerge__lib_1_1_crop_box_element_handler.html#a258564c73d0056904a734add668b71fb" target="_top" xlink:title="merge_lib::CropBoxElement\lHandler::_pageElementNotFound">
<polygon fill="white" stroke="black" points="348.5,-822 348.5,-856 509.5,-856 509.5,-822 348.5,-822"/>
<text text-anchor="start" x="356.5" y="-843" font-family="Helvetica,sans-Serif" font-size="10.00">merge_lib::CropBoxElement</text>
<text text-anchor="middle" x="429" y="-830" font-family="Helvetica,sans-Serif" font-size="10.00">Handler::_pageElementNotFound</text>
</a>
</g>
<!-- Node2&#45;&gt;Node3 -->
<g id="edge4" class="edge"><title>Node2&#45;&gt;Node3</title>
<path fill="none" stroke="midnightblue" d="M313.387,-839C325.036,-839 336.893,-839 348.356,-839"/>
<polygon fill="midnightblue" stroke="midnightblue" points="313.218,-835.5 303.218,-839 313.218,-842.5 313.218,-835.5"/>
</g>
<!-- Node4 -->
<g id="node7" class="node"><title>Node4</title>
<a xlink:href="../../d2/d83/classmerge__lib_1_1_media_box_element_handler.html#a34433f526578179120c413e7eaaeb79f" target="_top" xlink:title="merge_lib::MediaBoxElement\lHandler::_pageElementNotFound">
<polygon fill="white" stroke="black" points="348.5,-744 348.5,-778 509.5,-778 509.5,-744 348.5,-744"/>
<text text-anchor="start" x="356.5" y="-765" font-family="Helvetica,sans-Serif" font-size="10.00">merge_lib::MediaBoxElement</text>
<text text-anchor="middle" x="429" y="-752" font-family="Helvetica,sans-Serif" font-size="10.00">Handler::_pageElementNotFound</text>
</a>
</g>
<!-- Node2&#45;&gt;Node4 -->
<g id="edge6" class="edge"><title>Node2&#45;&gt;Node4</title>
<path fill="none" stroke="midnightblue" d="M295.035,-818.823C300.806,-816.949 306.519,-814.999 312,-813 340.087,-802.756 370.957,-788.922 393.933,-778.099"/>
<polygon fill="midnightblue" stroke="midnightblue" points="293.776,-815.55 285.297,-821.902 295.887,-822.224 293.776,-815.55"/>
</g>
<!-- Node7&#45;&gt;Node4 -->
<g id="edge16" class="edge"><title>Node7&#45;&gt;Node4</title>
<path fill="none" stroke="midnightblue" d="M295.035,-703.177C300.806,-705.051 306.519,-707.001 312,-709 340.087,-719.244 370.957,-733.078 393.933,-743.901"/>
<polygon fill="midnightblue" stroke="midnightblue" points="295.887,-699.776 285.297,-700.098 293.776,-706.45 295.887,-699.776"/>
</g>
<!-- Node8 -->
<g id="node15" class="node"><title>Node8</title>
<a xlink:href="../../d2/d83/classmerge__lib_1_1_media_box_element_handler.html#a94b84738e645010b01e343941bb614a1" target="_top" xlink:title="merge_lib::MediaBoxElement\lHandler::_changeObjectContent">
<polygon fill="white" stroke="black" points="351,-666 351,-700 507,-700 507,-666 351,-666"/>
<text text-anchor="start" x="359" y="-687" font-family="Helvetica,sans-Serif" font-size="10.00">merge_lib::MediaBoxElement</text>
<text text-anchor="middle" x="429" y="-674" font-family="Helvetica,sans-Serif" font-size="10.00">Handler::_changeObjectContent</text>
</a>
</g>
<!-- Node7&#45;&gt;Node8 -->
<g id="edge14" class="edge"><title>Node7&#45;&gt;Node8</title>
<path fill="none" stroke="midnightblue" d="M321.776,-683C331.581,-683 341.431,-683 350.973,-683"/>
<polygon fill="midnightblue" stroke="midnightblue" points="321.589,-679.5 311.589,-683 321.589,-686.5 321.589,-679.5"/>
</g>
<!-- Node9&#45;&gt;Node9 -->
<g id="edge38" class="edge"><title>Node9&#45;&gt;Node9</title>
<path fill="none" stroke="midnightblue" d="M191.698,-550.318C195.953,-554.864 206.054,-558 222,-558 248.168,-558 258.594,-549.556 253.279,-540.288"/>
<polygon fill="midnightblue" stroke="midnightblue" points="195.174,-549.901 190.721,-540.288 188.207,-550.58 195.174,-549.901"/>
</g>
<!-- Node10 -->
<g id="node20" class="node"><title>Node10</title>
<a xlink:href="../../d7/df1/classmerge__lib_1_1_object.html#ae2b09666b49e415642bd168fa5d76ba2" target="_top" xlink:title="merge_lib::Object:\l:getClone">
<polygon fill="white" stroke="black" points="381,-506 381,-540 477,-540 477,-506 381,-506"/>
<text text-anchor="start" x="389" y="-527" font-family="Helvetica,sans-Serif" font-size="10.00">merge_lib::Object:</text>
<text text-anchor="middle" x="429" y="-514" font-family="Helvetica,sans-Serif" font-size="10.00">:getClone</text>
</a>
</g>
<!-- Node9&#45;&gt;Node10 -->
<g id="edge20" class="edge"><title>Node9&#45;&gt;Node10</title>
<path fill="none" stroke="midnightblue" d="M280.064,-523C311.865,-523 350.805,-523 380.892,-523"/>
<polygon fill="midnightblue" stroke="midnightblue" points="280.01,-519.5 270.01,-523 280.01,-526.5 280.01,-519.5"/>
</g>
<!-- Node11 -->
<g id="node22" class="node"><title>Node11</title>
<a xlink:href="../../db/d32/classmerge__lib_1_1_page.html#a791406130fe3cd5b50923100eca1acf9" target="_top" xlink:title="merge_lib::Page::pageToXObject">
<polygon fill="white" stroke="black" points="546.5,-509.5 546.5,-530.5 707.5,-530.5 707.5,-509.5 546.5,-509.5"/>
<text text-anchor="middle" x="627" y="-517.5" font-family="Helvetica,sans-Serif" font-size="10.00">merge_lib::Page::pageToXObject</text>
</a>
</g>
<!-- Node10&#45;&gt;Node11 -->
<g id="edge22" class="edge"><title>Node10&#45;&gt;Node11</title>
<path fill="none" stroke="midnightblue" d="M487.229,-522.118C505.779,-521.837 526.643,-521.521 546.48,-521.22"/>
<polygon fill="midnightblue" stroke="midnightblue" points="487.129,-518.619 477.183,-522.27 487.235,-525.618 487.129,-518.619"/>
</g>
<!-- Node11&#45;&gt;Node12 -->
<g id="edge24" class="edge"><title>Node11&#45;&gt;Node12</title>
<path fill="none" stroke="midnightblue" d="M667.422,-506.069C699.69,-494.949 744.202,-479.608 773.522,-469.504"/>
<polygon fill="midnightblue" stroke="midnightblue" points="666.145,-502.807 657.831,-509.375 668.426,-509.425 666.145,-502.807"/>
</g>
<!-- Node13 -->
<g id="node26" class="node"><title>Node13</title>
<a xlink:href="../../d8/d35/classmerge__lib_1_1_merger.html#a02c1f126ae84b8c2f00ed7adf411124a" target="_top" xlink:title="merge_lib::Merger:\l:merge">
<polygon fill="white" stroke="black" points="900,-442 900,-476 998,-476 998,-442 900,-442"/>
<text text-anchor="start" x="908" y="-463" font-family="Helvetica,sans-Serif" font-size="10.00">merge_lib::Merger:</text>
<text text-anchor="middle" x="949" y="-450" font-family="Helvetica,sans-Serif" font-size="10.00">:merge</text>
</a>
</g>
<!-- Node12&#45;&gt;Node13 -->
<g id="edge26" class="edge"><title>Node12&#45;&gt;Node13</title>
<path fill="none" stroke="midnightblue" d="M874.29,-459C882.897,-459 891.547,-459 899.752,-459"/>
<polygon fill="midnightblue" stroke="midnightblue" points="874.233,-455.5 864.233,-459 874.233,-462.5 874.233,-455.5"/>
</g>
<!-- Node14 -->
<g id="node28" class="node"><title>Node14</title>
<a xlink:href="../../d6/d54/class_u_b_export_full_p_d_f.html#a2101b6fdc6ed273a6e2c062d5ce7e12c" target="_top" xlink:title="UBExportFullPDF::persists\lDocument">
<polygon fill="white" stroke="black" points="1034,-442 1034,-476 1170,-476 1170,-442 1034,-442"/>
<text text-anchor="start" x="1042" y="-463" font-family="Helvetica,sans-Serif" font-size="10.00">UBExportFullPDF::persists</text>
<text text-anchor="middle" x="1102" y="-450" font-family="Helvetica,sans-Serif" font-size="10.00">Document</text>
</a>
</g>
<!-- Node13&#45;&gt;Node14 -->
<g id="edge28" class="edge"><title>Node13&#45;&gt;Node14</title>
<path fill="none" stroke="midnightblue" d="M1008.3,-459C1016.68,-459 1025.36,-459 1033.89,-459"/>
<polygon fill="midnightblue" stroke="midnightblue" points="1008.25,-455.5 998.252,-459 1008.25,-462.5 1008.25,-455.5"/>
</g>
<!-- Node15 -->
<g id="node30" class="node"><title>Node15</title>
<a xlink:href="../../da/d3c/class_u_b_document_publisher.html#ac6a7b91093faed242e6b99280adca16b" target="_top" xlink:title="UBDocumentPublisher\l::buildUbwFile">
<polygon fill="white" stroke="black" points="1214,-465 1214,-499 1330,-499 1330,-465 1214,-465"/>
<text text-anchor="start" x="1222" y="-486" font-family="Helvetica,sans-Serif" font-size="10.00">UBDocumentPublisher</text>
<text text-anchor="middle" x="1272" y="-473" font-family="Helvetica,sans-Serif" font-size="10.00">::buildUbwFile</text>
</a>
</g>
<!-- Node14&#45;&gt;Node15 -->
<g id="edge30" class="edge"><title>Node14&#45;&gt;Node15</title>
<path fill="none" stroke="midnightblue" d="M1180.11,-469.567C1191.49,-471.108 1203.04,-472.671 1213.94,-474.144"/>
<polygon fill="midnightblue" stroke="midnightblue" points="1180.54,-466.095 1170.17,-468.222 1179.61,-473.032 1180.54,-466.095"/>
</g>
<!-- Node18 -->
<g id="node36" class="node"><title>Node18</title>
<a xlink:href="../../d6/d54/class_u_b_export_full_p_d_f.html#a8c0bd950f21f469ce17daa1add9a75bf" target="_top" xlink:title="UBExportFullPDF::persist">
<polygon fill="white" stroke="black" points="1206.5,-425.5 1206.5,-446.5 1337.5,-446.5 1337.5,-425.5 1206.5,-425.5"/>
<text text-anchor="middle" x="1272" y="-433.5" font-family="Helvetica,sans-Serif" font-size="10.00">UBExportFullPDF::persist</text>
</a>
</g>
<!-- Node14&#45;&gt;Node18 -->
<g id="edge36" class="edge"><title>Node14&#45;&gt;Node18</title>
<path fill="none" stroke="midnightblue" d="M1180.31,-448.405C1189,-447.229 1197.79,-446.04 1206.31,-444.888"/>
<polygon fill="midnightblue" stroke="midnightblue" points="1179.61,-444.968 1170.17,-449.778 1180.54,-451.905 1179.61,-444.968"/>
</g>
<!-- Node16 -->
<g id="node32" class="node"><title>Node16</title>
<a xlink:href="../../da/d3c/class_u_b_document_publisher.html#adca541347ad643ceea47eeb3f48bc24a" target="_top" xlink:title="UBDocumentPublisher\l::publish">
<polygon fill="white" stroke="black" points="1374,-465 1374,-499 1490,-499 1490,-465 1374,-465"/>
<text text-anchor="start" x="1382" y="-486" font-family="Helvetica,sans-Serif" font-size="10.00">UBDocumentPublisher</text>
<text text-anchor="middle" x="1432" y="-473" font-family="Helvetica,sans-Serif" font-size="10.00">::publish</text>
</a>
</g>
<!-- Node15&#45;&gt;Node16 -->
<g id="edge32" class="edge"><title>Node15&#45;&gt;Node16</title>
<path fill="none" stroke="midnightblue" d="M1340.34,-482C1351.49,-482 1362.95,-482 1373.83,-482"/>
<polygon fill="midnightblue" stroke="midnightblue" points="1340.22,-478.5 1330.22,-482 1340.22,-485.5 1340.22,-478.5"/>
</g>
<!-- Node17 -->
<g id="node34" class="node"><title>Node17</title>
<a xlink:href="../../de/d5f/class_u_b_web_publisher.html#acf1964056e5008ca164f974cc55e8b24" target="_top" xlink:title="UBWebPublisher::persist">
<polygon fill="white" stroke="black" points="1526.5,-471.5 1526.5,-492.5 1653.5,-492.5 1653.5,-471.5 1526.5,-471.5"/>
<text text-anchor="middle" x="1590" y="-479.5" font-family="Helvetica,sans-Serif" font-size="10.00">UBWebPublisher::persist</text>
</a>
</g>
<!-- Node16&#45;&gt;Node17 -->
<g id="edge34" class="edge"><title>Node16&#45;&gt;Node17</title>
<path fill="none" stroke="midnightblue" d="M1500.66,-482C1509.17,-482 1517.84,-482 1526.28,-482"/>
<polygon fill="midnightblue" stroke="midnightblue" points="1500.38,-478.5 1490.38,-482 1500.38,-485.5 1500.38,-478.5"/>
</g>
<!-- Node20 -->
<g id="node41" class="node"><title>Node20</title>
<a xlink:href="../../d5/d5f/classmerge__lib_1_1_filter_predictor.html#a489435228f9020c655a9f0e6f384d175" target="_top" xlink:title="merge_lib::FilterPredictor\l::obtainDecodeParams">
<polygon fill="white" stroke="black" points="366.5,-614 366.5,-648 491.5,-648 491.5,-614 366.5,-614"/>
<text text-anchor="start" x="374.5" y="-635" font-family="Helvetica,sans-Serif" font-size="10.00">merge_lib::FilterPredictor</text>
<text text-anchor="middle" x="429" y="-622" font-family="Helvetica,sans-Serif" font-size="10.00">::obtainDecodeParams</text>
</a>
</g>
<!-- Node19&#45;&gt;Node20 -->
<g id="edge42" class="edge"><title>Node19&#45;&gt;Node20</title>
<path fill="none" stroke="midnightblue" d="M289.153,-631C313.929,-631 341.888,-631 366.259,-631"/>
<polygon fill="midnightblue" stroke="midnightblue" points="289.112,-627.5 279.112,-631 289.112,-634.5 289.112,-627.5"/>
</g>
<!-- Node21 -->
<g id="node43" class="node"><title>Node21</title>
<a xlink:href="../../d5/d5f/classmerge__lib_1_1_filter_predictor.html#ab45acfb2cd146059037a607f4d008df7" target="_top" xlink:title="merge_lib::FilterPredictor\l::initialize">
<polygon fill="white" stroke="black" points="564.5,-614 564.5,-648 689.5,-648 689.5,-614 564.5,-614"/>
<text text-anchor="start" x="572.5" y="-635" font-family="Helvetica,sans-Serif" font-size="10.00">merge_lib::FilterPredictor</text>
<text text-anchor="middle" x="627" y="-622" font-family="Helvetica,sans-Serif" font-size="10.00">::initialize</text>
</a>
</g>
<!-- Node20&#45;&gt;Node21 -->
<g id="edge44" class="edge"><title>Node20&#45;&gt;Node21</title>
<path fill="none" stroke="midnightblue" d="M501.895,-631C522.419,-631 544.556,-631 564.42,-631"/>
<polygon fill="midnightblue" stroke="midnightblue" points="501.648,-627.5 491.648,-631 501.648,-634.5 501.648,-627.5"/>
</g>
<!-- Node22 -->
<g id="node45" class="node"><title>Node22</title>
<a xlink:href="../../d3/d04/classmerge__lib_1_1_flate_decode.html#ae0644a898654752cf5f8cd2d27d806ca" target="_top" xlink:title="merge_lib::FlateDecode\l::initialize">
<polygon fill="white" stroke="black" points="744,-588 744,-622 864,-622 864,-588 744,-588"/>
<text text-anchor="start" x="752" y="-609" font-family="Helvetica,sans-Serif" font-size="10.00">merge_lib::FlateDecode</text>
<text text-anchor="middle" x="804" y="-596" font-family="Helvetica,sans-Serif" font-size="10.00">::initialize</text>
</a>
</g>
<!-- Node21&#45;&gt;Node22 -->
<g id="edge46" class="edge"><title>Node21&#45;&gt;Node22</title>
<path fill="none" stroke="midnightblue" d="M699.93,-620.287C714.58,-618.135 729.819,-615.897 743.97,-613.818"/>
<polygon fill="midnightblue" stroke="midnightblue" points="699.287,-616.844 689.902,-621.76 700.304,-623.77 699.287,-616.844"/>
</g>
<!-- Node23 -->
<g id="node47" class="node"><title>Node23</title>
<a xlink:href="../../d9/d70/classmerge__lib_1_1_l_z_w_decode.html#a6008185d012afcaf7a73b3070afef4ea" target="_top" xlink:title="merge_lib::LZWDecode\l::initialize">
<polygon fill="white" stroke="black" points="744.5,-640 744.5,-674 863.5,-674 863.5,-640 744.5,-640"/>
<text text-anchor="start" x="752.5" y="-661" font-family="Helvetica,sans-Serif" font-size="10.00">merge_lib::LZWDecode</text>
<text text-anchor="middle" x="804" y="-648" font-family="Helvetica,sans-Serif" font-size="10.00">::initialize</text>
</a>
</g>
<!-- Node21&#45;&gt;Node23 -->
<g id="edge48" class="edge"><title>Node21&#45;&gt;Node23</title>
<path fill="none" stroke="midnightblue" d="M699.987,-641.721C714.722,-643.886 730.049,-646.137 744.265,-648.225"/>
<polygon fill="midnightblue" stroke="midnightblue" points="700.304,-638.23 689.902,-640.24 699.287,-645.156 700.304,-638.23"/>
</g>
<!-- Node24&#45;&gt;Node12 -->
<g id="edge56" class="edge"><title>Node24&#45;&gt;Node12</title>
<path fill="none" stroke="midnightblue" d="M299.39,-436.457C416.802,-441.702 637.492,-451.561 743.777,-456.31"/>
<polygon fill="midnightblue" stroke="midnightblue" points="299.193,-432.945 289.047,-435.995 298.881,-439.938 299.193,-432.945"/>
</g>
<!-- Node24&#45;&gt;Node25 -->
<g id="edge52" class="edge"><title>Node24&#45;&gt;Node25</title>
<path fill="none" stroke="midnightblue" d="M299.344,-421.043C319.618,-417.909 341.325,-414.554 361.067,-411.502"/>
<polygon fill="midnightblue" stroke="midnightblue" points="298.555,-417.624 289.207,-422.611 299.624,-424.542 298.555,-417.624"/>
</g>
<!-- Node25&#45;&gt;Node12 -->
<g id="edge54" class="edge"><title>Node25&#45;&gt;Node12</title>
<path fill="none" stroke="midnightblue" d="M510.741,-403.13C566.771,-405.853 642.518,-412.027 708,-426 732.647,-431.259 759.714,-440.94 778.806,-448.461"/>
<polygon fill="midnightblue" stroke="midnightblue" points="510.665,-399.623 500.515,-402.661 510.344,-406.616 510.665,-399.623"/>
</g>
<!-- Node27&#45;&gt;Node28 -->
<g id="edge62" class="edge"><title>Node27&#45;&gt;Node28</title>
<path fill="none" stroke="midnightblue" d="M283.889,-231.804C293.348,-234.035 302.965,-236.46 312,-239 335.662,-245.652 361.563,-254.355 382.967,-261.944"/>
<polygon fill="midnightblue" stroke="midnightblue" points="284.65,-228.388 274.12,-229.554 283.079,-235.209 284.65,-228.388"/>
</g>
<!-- Node28&#45;&gt;Node12 -->
<g id="edge64" class="edge"><title>Node28&#45;&gt;Node12</title>
<path fill="none" stroke="midnightblue" d="M482.344,-299.887C539.219,-322.716 631.45,-361.356 708,-401 737.049,-416.044 769.315,-436.321 788.065,-448.484"/>
<polygon fill="midnightblue" stroke="midnightblue" points="483.423,-296.549 472.838,-296.086 480.824,-303.048 483.423,-296.549"/>
</g>
<!-- Node29&#45;&gt;Node12 -->
<g id="edge68" class="edge"><title>Node29&#45;&gt;Node12</title>
<path fill="none" stroke="midnightblue" d="M669.235,-558.695C682.091,-553.584 695.989,-547.263 708,-540 742.335,-519.238 776.907,-486.477 793.638,-469.691"/>
<polygon fill="midnightblue" stroke="midnightblue" points="667.742,-555.519 659.655,-562.364 670.245,-562.056 667.742,-555.519"/>
</g>
<!-- Node30&#45;&gt;Node28 -->
<g id="edge72" class="edge"><title>Node30&#45;&gt;Node28</title>
<path fill="none" stroke="midnightblue" d="M293.49,-265.907C314.01,-267.89 336.392,-270.052 356.945,-272.038"/>
<polygon fill="midnightblue" stroke="midnightblue" points="293.557,-262.397 283.267,-264.919 292.884,-269.365 293.557,-262.397"/>
</g>
</g>
</svg>
