<?xml version="1.0" encoding="UTF-8" standalone="no"?>
<!DOCTYPE svg PUBLIC "-//W3C//DTD SVG 1.1//EN"
 "http://www.w3.org/Graphics/SVG/1.1/DTD/svg11.dtd">
<!-- Generated by graphviz version 2.26.3 (20100126.1600)
 -->
<!-- Title: merge_lib::Object::getHeader Pages: 1 -->
<svg width="422pt" height="103pt"
 viewBox="0.00 0.00 422.00 103.00" xmlns="http://www.w3.org/2000/svg" xmlns:xlink="http://www.w3.org/1999/xlink">
<g id="graph1" class="graph" transform="scale(1 1) rotate(0) translate(4 99)">
<title>merge_lib::Object::getHeader</title>
<polygon fill="white" stroke="white" points="-4,5 -4,-99 419,-99 419,5 -4,5"/>
<!-- Node1 -->
<g id="node1" class="node"><title>Node1</title>
<polygon fill="#bfbfbf" stroke="black" points="0,-26 0,-60 96,-60 96,-26 0,-26"/>
<text text-anchor="start" x="8" y="-47" font-family="Helvetica,sans-Serif" font-size="10.00">merge_lib::Object:</text>
<text text-anchor="middle" x="48" y="-34" font-family="Helvetica,sans-Serif" font-size="10.00">:getHeader</text>
</g>
<!-- Node2 -->
<g id="node3" class="node"><title>Node2</title>
<a xlink:href="../../d5/d5f/classmerge__lib_1_1_filter_predictor.html#ab45acfb2cd146059037a607f4d008df7" target="_top" xlink:title="merge_lib::FilterPredictor\l::initialize">
<polygon fill="white" stroke="black" points="132.5,-26 132.5,-60 257.5,-60 257.5,-26 132.5,-26"/>
<text text-anchor="start" x="140.5" y="-47" font-family="Helvetica,sans-Serif" font-size="10.00">merge_lib::FilterPredictor</text>
<text text-anchor="middle" x="195" y="-34" font-family="Helvetica,sans-Serif" font-size="10.00">::initialize</text>
</a>
</g>
<!-- Node1&#45;&gt;Node2 -->
<g id="edge2" class="edge"><title>Node1&#45;&gt;Node2</title>
<path fill="none" stroke="midnightblue" d="M106.36,-43C114.887,-43 123.697,-43 132.306,-43"/>
<polygon fill="midnightblue" stroke="midnightblue" points="106.133,-39.5001 96.1333,-43 106.133,-46.5001 106.133,-39.5001"/>
</g>
<!-- Node3 -->
<g id="node5" class="node"><title>Node3</title>
<a xlink:href="../../d3/d04/classmerge__lib_1_1_flate_decode.html#ae0644a898654752cf5f8cd2d27d806ca" target="_top" xlink:title="merge_lib::FlateDecode\l::initialize">
<polygon fill="white" stroke="black" points="294,-61 294,-95 414,-95 414,-61 294,-61"/>
<text text-anchor="start" x="302" y="-82" font-family="Helvetica,sans-Serif" font-size="10.00">merge_lib::FlateDecode</text>
<text text-anchor="middle" x="354" y="-69" font-family="Helvetica,sans-Serif" font-size="10.00">::initialize</text>
</a>
</g>
<!-- Node1&#45;&gt;Node3 -->
<g id="edge8" class="edge"><title>Node1&#45;&gt;Node3</title>
<path fill="none" stroke="midnightblue" d="M105.301,-62.8915C114.151,-65.3343 123.255,-67.4958 132,-69 186.171,-78.3181 248.821,-80.0512 293.726,-79.7563"/>
<polygon fill="midnightblue" stroke="midnightblue" points="106.03,-59.4587 95.4509,-60.0341 104.08,-66.1815 106.03,-59.4587"/>
</g>
<!-- Node4 -->
<g id="node7" class="node"><title>Node4</title>
<a xlink:href="../../d9/d70/classmerge__lib_1_1_l_z_w_decode.html#a6008185d012afcaf7a73b3070afef4ea" target="_top" xlink:title="merge_lib::LZWDecode\l::initialize">
<polygon fill="white" stroke="black" points="294.5,-0 294.5,-34 413.5,-34 413.5,-0 294.5,-0"/>
<text text-anchor="start" x="302.5" y="-21" font-family="Helvetica,sans-Serif" font-size="10.00">merge_lib::LZWDecode</text>
<text text-anchor="middle" x="354" y="-8" font-family="Helvetica,sans-Serif" font-size="10.00">::initialize</text>
</a>
</g>
<!-- Node1&#45;&gt;Node4 -->
<g id="edge10" class="edge"><title>Node1&#45;&gt;Node4</title>
<path fill="none" stroke="midnightblue" d="M104.294,-23.051C113.449,-20.5411 122.91,-18.3746 132,-17 186.495,-8.75912 249.379,-9.72484 294.276,-12.1831"/>
<polygon fill="midnightblue" stroke="midnightblue" points="103.141,-19.741 94.5119,-25.888 105.091,-26.464 103.141,-19.741"/>
</g>
<!-- Node2&#45;&gt;Node3 -->
<g id="edge4" class="edge"><title>Node2&#45;&gt;Node3</title>
<path fill="none" stroke="midnightblue" d="M267.69,-59.0009C276.476,-60.9349 285.373,-62.8935 293.949,-64.7813"/>
<polygon fill="midnightblue" stroke="midnightblue" points="268.36,-55.5646 257.841,-56.8329 266.855,-62.401 268.36,-55.5646"/>
</g>
<!-- Node2&#45;&gt;Node4 -->
<g id="edge6" class="edge"><title>Node2&#45;&gt;Node4</title>
<path fill="none" stroke="midnightblue" d="M267.835,-31.0899C276.75,-29.6321 285.778,-28.1558 294.466,-26.7352"/>
<polygon fill="midnightblue" stroke="midnightblue" points="267.145,-27.6561 257.841,-32.7241 268.275,-34.5644 267.145,-27.6561"/>
</g>
</g>
</svg>
