<?xml version="1.0" encoding="UTF-8" standalone="no"?>
<!DOCTYPE svg PUBLIC "-//W3C//DTD SVG 1.1//EN"
 "http://www.w3.org/Graphics/SVG/1.1/DTD/svg11.dtd">
<!-- Generated by graphviz version 2.26.3 (20100126.1600)
 -->
<!-- Title: merge_lib::Object::retrieveMaxObjectNumber Pages: 1 -->
<svg width="800pt" height="42pt"
 viewBox="0.00 0.00 800.00 42.00" xmlns="http://www.w3.org/2000/svg" xmlns:xlink="http://www.w3.org/1999/xlink">
<g id="graph1" class="graph" transform="scale(1 1) rotate(0) translate(4 38)">
<title>merge_lib::Object::retrieveMaxObjectNumber</title>
<polygon fill="white" stroke="white" points="-4,5 -4,-38 797,-38 797,5 -4,5"/>
<!-- Node1 -->
<g id="node1" class="node"><title>Node1</title>
<polygon fill="#bfbfbf" stroke="black" points="0,-0 0,-34 134,-34 134,-0 0,-0"/>
<text text-anchor="start" x="8" y="-21" font-family="Helvetica,sans-Serif" font-size="10.00">merge_lib::Object:</text>
<text text-anchor="middle" x="67" y="-8" font-family="Helvetica,sans-Serif" font-size="10.00">:retrieveMaxObjectNumber</text>
</g>
<!-- Node2 -->
<g id="node3" class="node"><title>Node2</title>
<a xlink:href="../../dc/d2e/classmerge__lib_1_1_document.html#a6687738a8f98a95f3cafbfca7dd7c928" target="_top" xlink:title="merge_lib::Document\l::saveAs">
<polygon fill="white" stroke="black" points="170,-0 170,-34 280,-34 280,-0 170,-0"/>
<text text-anchor="start" x="178" y="-21" font-family="Helvetica,sans-Serif" font-size="10.00">merge_lib::Document</text>
<text text-anchor="middle" x="225" y="-8" font-family="Helvetica,sans-Serif" font-size="10.00">::saveAs</text>
</a>
</g>
<!-- Node1&#45;&gt;Node2 -->
<g id="edge2" class="edge"><title>Node1&#45;&gt;Node2</title>
<path fill="none" stroke="midnightblue" d="M144.147,-17C152.819,-17 161.52,-17 169.833,-17"/>
<polygon fill="midnightblue" stroke="midnightblue" points="144.006,-13.5001 134.006,-17 144.006,-20.5001 144.006,-13.5001"/>
</g>
<!-- Node3 -->
<g id="node5" class="node"><title>Node3</title>
<a xlink:href="../../d8/d35/classmerge__lib_1_1_merger.html#ac76384e07224912ee9c816bc2d89d6f9" target="_top" xlink:title="merge_lib::Merger:\l:saveMergedDocumentsAs">
<polygon fill="white" stroke="black" points="316.5,-0 316.5,-34 451.5,-34 451.5,-0 316.5,-0"/>
<text text-anchor="start" x="324.5" y="-21" font-family="Helvetica,sans-Serif" font-size="10.00">merge_lib::Merger:</text>
<text text-anchor="middle" x="384" y="-8" font-family="Helvetica,sans-Serif" font-size="10.00">:saveMergedDocumentsAs</text>
</a>
</g>
<!-- Node2&#45;&gt;Node3 -->
<g id="edge4" class="edge"><title>Node2&#45;&gt;Node3</title>
<path fill="none" stroke="midnightblue" d="M290.442,-17C298.981,-17 307.744,-17 316.319,-17"/>
<polygon fill="midnightblue" stroke="midnightblue" points="290.164,-13.5001 280.164,-17 290.164,-20.5001 290.164,-13.5001"/>
</g>
<!-- Node4 -->
<g id="node7" class="node"><title>Node4</title>
<a xlink:href="../../d6/d54/class_u_b_export_full_p_d_f.html#a2101b6fdc6ed273a6e2c062d5ce7e12c" target="_top" xlink:title="UBExportFullPDF::persists\lDocument">
<polygon fill="white" stroke="black" points="488,-0 488,-34 624,-34 624,-0 488,-0"/>
<text text-anchor="start" x="496" y="-21" font-family="Helvetica,sans-Serif" font-size="10.00">UBExportFullPDF::persists</text>
<text text-anchor="middle" x="556" y="-8" font-family="Helvetica,sans-Serif" font-size="10.00">Document</text>
</a>
</g>
<!-- Node3&#45;&gt;Node4 -->
<g id="edge6" class="edge"><title>Node3&#45;&gt;Node4</title>
<path fill="none" stroke="midnightblue" d="M462.054,-17C470.696,-17 479.446,-17 487.952,-17"/>
<polygon fill="midnightblue" stroke="midnightblue" points="461.979,-13.5001 451.979,-17 461.979,-20.5001 461.979,-13.5001"/>
</g>
<!-- Node5 -->
<g id="node9" class="node"><title>Node5</title>
<a xlink:href="../../d6/d54/class_u_b_export_full_p_d_f.html#a8c0bd950f21f469ce17daa1add9a75bf" target="_top" xlink:title="UBExportFullPDF::persist">
<polygon fill="white" stroke="black" points="660.5,-6.5 660.5,-27.5 791.5,-27.5 791.5,-6.5 660.5,-6.5"/>
<text text-anchor="middle" x="726" y="-14.5" font-family="Helvetica,sans-Serif" font-size="10.00">UBExportFullPDF::persist</text>
</a>
</g>
<!-- Node4&#45;&gt;Node5 -->
<g id="edge8" class="edge"><title>Node4&#45;&gt;Node5</title>
<path fill="none" stroke="midnightblue" d="M634.307,-17C643.002,-17 651.79,-17 660.306,-17"/>
<polygon fill="midnightblue" stroke="midnightblue" points="634.166,-13.5001 624.166,-17 634.166,-20.5001 634.166,-13.5001"/>
</g>
</g>
</svg>
