<?xml version="1.0" encoding="UTF-8" standalone="no"?>
<!DOCTYPE svg PUBLIC "-//W3C//DTD SVG 1.1//EN"
 "http://www.w3.org/Graphics/SVG/1.1/DTD/svg11.dtd">
<!-- Generated by graphviz version 2.26.3 (20100126.1600)
 -->
<!-- Title: UBToolbarButtonGroup::displayText Pages: 1 -->
<!--zoomable 198 -->
<svg id="main" version="1.1" xmlns="http://www.w3.org/2000/svg" xmlns:xlink="http://www.w3.org/1999/xlink" xml:space="preserve" onload="init(evt)">
        <defs>
                <circle id="rim" cx="0" cy="0" r="7"/>
                <circle id="rim2" cx="0" cy="0" r="3.5"/>
                <g id="zoomPlus">
                        <use xlink:href="#rim" fill="#404040">
                                <set attributeName="fill" to="#808080" begin="zoomplus.mouseover" end="zoomplus.mouseout"/>
                        </use>
                        <path d="M-4,0h8M0,-4v8" fill="none" stroke="white" stroke-width="1.5" pointer-events="none"/>
                </g>
                <g id="zoomMin">
                        <use xlink:href="#rim" fill="#404040">
                                <set attributeName="fill" to="#808080" begin="zoomminus.mouseover" end="zoomminus.mouseout"/>
                        </use>
                        <path d="M-4,0h8" fill="none" stroke="white" stroke-width="1.5" pointer-events="none"/>
                </g>
                <g id="dirArrow">
                        <path fill="none" stroke="white" stroke-width="1.5" d="M0,-3.0v7 M-2.5,-0.5L0,-3.0L2.5,-0.5"/>
                </g>
               <g id="resetDef">
                       <use xlink:href="#rim2" fill="#404040">
                               <set attributeName="fill" to="#808080" begin="reset.mouseover" end="reset.mouseout"/>
                       </use>
               </g>
        </defs>

<script type="text/javascript">
var viewWidth = 666;
var viewHeight = 198;
var sectionId = 'dynsection-6';
</script>
<script xlink:href="../../svgpan.js"/>
<svg id="graph" class="graph">
<g id="viewport">
<title>UBToolbarButtonGroup::displayText</title>
<polygon fill="white" stroke="white" points="-4,5 -4,-194 663,-194 663,5 -4,5"/>
<!-- Node1 -->
<g id="node1" class="node"><title>Node1</title>
<polygon fill="#bfbfbf" stroke="black" points="0,-78 0,-112 118,-112 118,-78 0,-78"/>
<text text-anchor="start" x="8" y="-99" font-family="Helvetica,sans-Serif" font-size="10.00">UBToolbarButtonGroup</text>
<text text-anchor="middle" x="59" y="-86" font-family="Helvetica,sans-Serif" font-size="10.00">::displayText</text>
</g>
<!-- Node2 -->
<g id="node3" class="node"><title>Node2</title>
<a xlink:href="../../d7/d62/class_u_b_board_controller.html#a6761e02604fb3aa8ecbfc5fd4a5d87f3" target="_top" xlink:title="UBBoardController:\l:setupToolbar">
<polygon fill="white" stroke="black" points="170.5,-156 170.5,-190 271.5,-190 271.5,-156 170.5,-156"/>
<text text-anchor="start" x="178.5" y="-177" font-family="Helvetica,sans-Serif" font-size="10.00">UBBoardController:</text>
<text text-anchor="middle" x="221" y="-164" font-family="Helvetica,sans-Serif" font-size="10.00">:setupToolbar</text>
</a>
</g>
<!-- Node1&#45;&gt;Node2 -->
<g id="edge2" class="edge"><title>Node1&#45;&gt;Node2</title>
<path fill="none" stroke="midnightblue" d="M97.1364,-117.361C114.257,-127.009 134.87,-138.099 154,-147 160.561,-150.053 167.589,-153.057 174.534,-155.878"/>
<polygon fill="midnightblue" stroke="midnightblue" points="98.4386,-114.075 88.0162,-112.171 94.9769,-120.159 98.4386,-114.075"/>
</g>
<!-- Node6 -->
<g id="node11" class="node"><title>Node6</title>
<a xlink:href="../../de/dd8/class_u_b_desktop_pen_palette.html#aef31c4aef4db735b604264cdf7818427" target="_top" xlink:title="UBDesktopPenPalette\l::UBDesktopPenPalette">
<polygon fill="white" stroke="black" points="160,-104 160,-138 282,-138 282,-104 160,-104"/>
<text text-anchor="start" x="168" y="-125" font-family="Helvetica,sans-Serif" font-size="10.00">UBDesktopPenPalette</text>
<text text-anchor="middle" x="221" y="-112" font-family="Helvetica,sans-Serif" font-size="10.00">::UBDesktopPenPalette</text>
</a>
</g>
<!-- Node1&#45;&gt;Node6 -->
<g id="edge10" class="edge"><title>Node1&#45;&gt;Node6</title>
<path fill="none" stroke="midnightblue" d="M128.374,-106.134C138.883,-107.821 149.659,-109.55 159.975,-111.206"/>
<polygon fill="midnightblue" stroke="midnightblue" points="128.831,-102.663 118.403,-104.534 127.722,-109.574 128.831,-102.663"/>
</g>
<!-- Node7 -->
<g id="node13" class="node"><title>Node7</title>
<a xlink:href="../../d5/d5e/class_u_b_desktop_eraser_palette.html#a120edf48766c1aa8db17b106a93f7e73" target="_top" xlink:title="UBDesktopEraserPalette\l::UBDesktopEraserPalette">
<polygon fill="white" stroke="black" points="154.5,-52 154.5,-86 287.5,-86 287.5,-52 154.5,-52"/>
<text text-anchor="start" x="162.5" y="-73" font-family="Helvetica,sans-Serif" font-size="10.00">UBDesktopEraserPalette</text>
<text text-anchor="middle" x="221" y="-60" font-family="Helvetica,sans-Serif" font-size="10.00">::UBDesktopEraserPalette</text>
</a>
</g>
<!-- Node1&#45;&gt;Node7 -->
<g id="edge12" class="edge"><title>Node1&#45;&gt;Node7</title>
<path fill="none" stroke="midnightblue" d="M128.439,-83.8555C137.078,-82.4689 145.897,-81.0535 154.491,-79.6743"/>
<polygon fill="midnightblue" stroke="midnightblue" points="127.722,-80.4257 118.403,-85.4662 128.831,-87.3372 127.722,-80.4257"/>
</g>
<!-- Node8 -->
<g id="node15" class="node"><title>Node8</title>
<a xlink:href="../../dc/d7b/class_u_b_desktop_marker_palette.html#ab9e24b301b52b1d303e0e9f3915b9ad9" target="_top" xlink:title="UBDesktopMarkerPalette\l::UBDesktopMarkerPalette">
<polygon fill="white" stroke="black" points="154,-0 154,-34 288,-34 288,-0 154,-0"/>
<text text-anchor="start" x="162" y="-21" font-family="Helvetica,sans-Serif" font-size="10.00">UBDesktopMarkerPalette</text>
<text text-anchor="middle" x="221" y="-8" font-family="Helvetica,sans-Serif" font-size="10.00">::UBDesktopMarkerPalette</text>
</a>
</g>
<!-- Node1&#45;&gt;Node8 -->
<g id="edge14" class="edge"><title>Node1&#45;&gt;Node8</title>
<path fill="none" stroke="midnightblue" d="M97.1364,-72.6394C114.257,-62.9905 134.87,-51.9011 154,-43 160.561,-39.9471 167.589,-36.943 174.534,-34.1222"/>
<polygon fill="midnightblue" stroke="midnightblue" points="94.9769,-69.8412 88.0162,-77.8287 98.4386,-75.9253 94.9769,-69.8412"/>
</g>
<!-- Node3 -->
<g id="node5" class="node"><title>Node3</title>
<a xlink:href="../../d7/d62/class_u_b_board_controller.html#aa728cb7c1b979b2d4ae45638a7386dde" target="_top" xlink:title="UBBoardController::init">
<polygon fill="white" stroke="black" points="324.5,-162.5 324.5,-183.5 441.5,-183.5 441.5,-162.5 324.5,-162.5"/>
<text text-anchor="middle" x="383" y="-170.5" font-family="Helvetica,sans-Serif" font-size="10.00">UBBoardController::init</text>
</a>
</g>
<!-- Node2&#45;&gt;Node3 -->
<g id="edge4" class="edge"><title>Node2&#45;&gt;Node3</title>
<path fill="none" stroke="midnightblue" d="M282.21,-173C296.052,-173 310.716,-173 324.446,-173"/>
<polygon fill="midnightblue" stroke="midnightblue" points="281.813,-169.5 271.813,-173 281.813,-176.5 281.813,-169.5"/>
</g>
<!-- Node4 -->
<g id="node7" class="node"><title>Node4</title>
<a xlink:href="../../d8/d81/class_u_b_application.html#add1469239e71bf24fdc61413a42a38bd" target="_top" xlink:title="UBApplication::exec">
<polygon fill="white" stroke="black" points="478,-162.5 478,-183.5 584,-183.5 584,-162.5 478,-162.5"/>
<text text-anchor="middle" x="531" y="-170.5" font-family="Helvetica,sans-Serif" font-size="10.00">UBApplication::exec</text>
</a>
</g>
<!-- Node3&#45;&gt;Node4 -->
<g id="edge6" class="edge"><title>Node3&#45;&gt;Node4</title>
<path fill="none" stroke="midnightblue" d="M451.947,-173C460.549,-173 469.243,-173 477.56,-173"/>
<polygon fill="midnightblue" stroke="midnightblue" points="451.919,-169.5 441.919,-173 451.919,-176.5 451.919,-169.5"/>
</g>
<!-- Node5 -->
<g id="node9" class="node"><title>Node5</title>
<a xlink:href="../../df/d0a/main_8cpp.html#a0ddf1224851353fc92bfbff6f499fa97" target="_top" xlink:title="main">
<polygon fill="white" stroke="black" points="620,-162.5 620,-183.5 658,-183.5 658,-162.5 620,-162.5"/>
<text text-anchor="middle" x="639" y="-170.5" font-family="Helvetica,sans-Serif" font-size="10.00">main</text>
</a>
</g>
<!-- Node4&#45;&gt;Node5 -->
<g id="edge8" class="edge"><title>Node4&#45;&gt;Node5</title>
<path fill="none" stroke="midnightblue" d="M594.214,-173C603.495,-173 612.401,-173 619.793,-173"/>
<polygon fill="midnightblue" stroke="midnightblue" points="594.051,-169.5 584.051,-173 594.051,-176.5 594.051,-169.5"/>
</g>
</g>
</svg>
        <g id="navigator" transform="translate(0 0)" fill="#404254">
                <rect fill="#f2f5e9" fill-opacity="0.5" stroke="#606060" stroke-width=".5" x="0" y="0" width="60" height="60"/>
                <use id="zoomplus" xlink:href="#zoomPlus" x="17" y="9" onmousedown="handleZoom(evt,'in')"/>
                <use id="zoomminus" xlink:href="#zoomMin" x="42" y="9" onmousedown="handleZoom(evt,'out')"/>
                <use id="reset" xlink:href="#resetDef" x="30" y="36" onmousedown="handleReset()"/>
                <g id="arrowUp" xlink:href="#dirArrow" transform="translate(30 24)" onmousedown="handlePan(0,-1)">
                  <use xlink:href="#rim" fill="#404040">
                        <set attributeName="fill" to="#808080" begin="arrowUp.mouseover" end="arrowUp.mouseout"/>
                  </use>
                  <path fill="none" stroke="white" stroke-width="1.5" d="M0,-3.0v7 M-2.5,-0.5L0,-3.0L2.5,-0.5"/>
                </g>
                <g id="arrowRight" xlink:href="#dirArrow" transform="rotate(90) translate(36 -43)" onmousedown="handlePan(1,0)">
                  <use xlink:href="#rim" fill="#404040">
                        <set attributeName="fill" to="#808080" begin="arrowRight.mouseover" end="arrowRight.mouseout"/>
                  </use>
                  <path fill="none" stroke="white" stroke-width="1.5" d="M0,-3.0v7 M-2.5,-0.5L0,-3.0L2.5,-0.5"/>
                </g>
                <g id="arrowDown" xlink:href="#dirArrow" transform="rotate(180) translate(-30 -48)" onmousedown="handlePan(0,1)">
                  <use xlink:href="#rim" fill="#404040">
                        <set attributeName="fill" to="#808080" begin="arrowDown.mouseover" end="arrowDown.mouseout"/>
                  </use>
                  <path fill="none" stroke="white" stroke-width="1.5" d="M0,-3.0v7 M-2.5,-0.5L0,-3.0L2.5,-0.5"/>
                </g>
                <g id="arrowLeft" xlink:href="#dirArrow" transform="rotate(270) translate(-36 17)" onmousedown="handlePan(-1,0)">
                  <use xlink:href="#rim" fill="#404040">
                        <set attributeName="fill" to="#808080" begin="arrowLeft.mouseover" end="arrowLeft.mouseout"/>
                  </use>
                  <path fill="none" stroke="white" stroke-width="1.5" d="M0,-3.0v7 M-2.5,-0.5L0,-3.0L2.5,-0.5"/>
                </g>
        </g>
        <svg viewBox="0 0 15 15" width="100%" height="30px" preserveAspectRatio="xMaxYMin meet">
         <g id="arrow_out" transform="scale(0.3 0.3)">
          <a xlink:href="class_u_b_toolbar_button_group_ac8bc9ca93209b238e12d24df9f6a8836_icgraph_org.svg" target="_base">
           <rect id="button" ry="5" rx="5" y="6" x="6" height="38" width="38"
                fill="#f2f5e9" fill-opacity="0.5" stroke="#606060" stroke-width="1.0"/>
           <path id="arrow"
             d="M 11.500037,31.436501 C 11.940474,20.09759 22.043105,11.32322 32.158766,21.979434 L 37.068811,17.246167 C 37.068811,17.246167 37.088388,32 37.088388,32 L 22.160133,31.978069 C 22.160133,31.978069 26.997745,27.140456 26.997745,27.140456 C 18.528582,18.264221 13.291696,25.230495 11.500037,31.436501 z"
             style="fill:#404040;"/>
          </a>
         </g>
        </svg>
</svg>
