<?xml version="1.0" encoding="UTF-8" standalone="no"?>
<!DOCTYPE svg PUBLIC "-//W3C//DTD SVG 1.1//EN"
 "http://www.w3.org/Graphics/SVG/1.1/DTD/svg11.dtd">
<!-- Generated by graphviz version 2.26.3 (20100126.1600)
 -->
<!-- Title: UBToolbarButtonGroup::currentIndexChanged Pages: 1 -->
<svg width="820pt" height="94pt"
 viewBox="0.00 0.00 820.00 94.00" xmlns="http://www.w3.org/2000/svg" xmlns:xlink="http://www.w3.org/1999/xlink">
<g id="graph1" class="graph" transform="scale(1 1) rotate(0) translate(4 90)">
<title>UBToolbarButtonGroup::currentIndexChanged</title>
<polygon fill="white" stroke="white" points="-4,5 -4,-90 817,-90 817,5 -4,5"/>
<!-- Node1 -->
<g id="node1" class="node"><title>Node1</title>
<polygon fill="#bfbfbf" stroke="black" points="0,-26 0,-60 118,-60 118,-26 0,-26"/>
<text text-anchor="start" x="8" y="-47" font-family="Helvetica,sans-Serif" font-size="10.00">UBToolbarButtonGroup</text>
<text text-anchor="middle" x="59" y="-34" font-family="Helvetica,sans-Serif" font-size="10.00">::currentIndexChanged</text>
</g>
<!-- Node2 -->
<g id="node3" class="node"><title>Node2</title>
<a xlink:href="../../d3/dce/class_u_b_toolbar_button_group.html#a320eb80ca5653765cfd281069a1e7b78" target="_top" xlink:title="UBToolbarButtonGroup\l::setCurrentIndex">
<polygon fill="white" stroke="black" points="154,-26 154,-60 272,-60 272,-26 154,-26"/>
<text text-anchor="start" x="162" y="-47" font-family="Helvetica,sans-Serif" font-size="10.00">UBToolbarButtonGroup</text>
<text text-anchor="middle" x="213" y="-34" font-family="Helvetica,sans-Serif" font-size="10.00">::setCurrentIndex</text>
</a>
</g>
<!-- Node1&#45;&gt;Node2 -->
<g id="edge2" class="edge"><title>Node1&#45;&gt;Node2</title>
<path fill="none" stroke="midnightblue" d="M128.369,-43C136.862,-43 145.48,-43 153.804,-43"/>
<polygon fill="midnightblue" stroke="midnightblue" points="128.1,-39.5001 118.1,-43 128.1,-46.5001 128.1,-39.5001"/>
</g>
<!-- Node3 -->
<g id="node5" class="node"><title>Node3</title>
<a xlink:href="../../d7/d62/class_u_b_board_controller.html#a6761e02604fb3aa8ecbfc5fd4a5d87f3" target="_top" xlink:title="UBBoardController:\l:setupToolbar">
<polygon fill="white" stroke="black" points="324.5,-52 324.5,-86 425.5,-86 425.5,-52 324.5,-52"/>
<text text-anchor="start" x="332.5" y="-73" font-family="Helvetica,sans-Serif" font-size="10.00">UBBoardController:</text>
<text text-anchor="middle" x="375" y="-60" font-family="Helvetica,sans-Serif" font-size="10.00">:setupToolbar</text>
</a>
</g>
<!-- Node2&#45;&gt;Node3 -->
<g id="edge4" class="edge"><title>Node2&#45;&gt;Node3</title>
<path fill="none" stroke="midnightblue" d="M282.536,-54.1601C296.601,-56.4174 311.136,-58.7503 324.4,-60.879"/>
<polygon fill="midnightblue" stroke="midnightblue" points="282.831,-50.6628 272.403,-52.5338 281.722,-57.5743 282.831,-50.6628"/>
</g>
<!-- Node7 -->
<g id="node13" class="node"><title>Node7</title>
<a xlink:href="../../d5/d5e/class_u_b_desktop_eraser_palette.html#a120edf48766c1aa8db17b106a93f7e73" target="_top" xlink:title="UBDesktopEraserPalette\l::UBDesktopEraserPalette">
<polygon fill="white" stroke="black" points="308.5,-0 308.5,-34 441.5,-34 441.5,-0 308.5,-0"/>
<text text-anchor="start" x="316.5" y="-21" font-family="Helvetica,sans-Serif" font-size="10.00">UBDesktopEraserPalette</text>
<text text-anchor="middle" x="375" y="-8" font-family="Helvetica,sans-Serif" font-size="10.00">::UBDesktopEraserPalette</text>
</a>
</g>
<!-- Node2&#45;&gt;Node7 -->
<g id="edge12" class="edge"><title>Node2&#45;&gt;Node7</title>
<path fill="none" stroke="midnightblue" d="M282.439,-31.8555C291.078,-30.4689 299.897,-29.0535 308.491,-27.6743"/>
<polygon fill="midnightblue" stroke="midnightblue" points="281.722,-28.4257 272.403,-33.4662 282.831,-35.3372 281.722,-28.4257"/>
</g>
<!-- Node4 -->
<g id="node7" class="node"><title>Node4</title>
<a xlink:href="../../d7/d62/class_u_b_board_controller.html#aa728cb7c1b979b2d4ae45638a7386dde" target="_top" xlink:title="UBBoardController::init">
<polygon fill="white" stroke="black" points="478.5,-58.5 478.5,-79.5 595.5,-79.5 595.5,-58.5 478.5,-58.5"/>
<text text-anchor="middle" x="537" y="-66.5" font-family="Helvetica,sans-Serif" font-size="10.00">UBBoardController::init</text>
</a>
</g>
<!-- Node3&#45;&gt;Node4 -->
<g id="edge6" class="edge"><title>Node3&#45;&gt;Node4</title>
<path fill="none" stroke="midnightblue" d="M436.21,-69C450.052,-69 464.716,-69 478.446,-69"/>
<polygon fill="midnightblue" stroke="midnightblue" points="435.813,-65.5001 425.813,-69 435.813,-72.5001 435.813,-65.5001"/>
</g>
<!-- Node5 -->
<g id="node9" class="node"><title>Node5</title>
<a xlink:href="../../d8/d81/class_u_b_application.html#add1469239e71bf24fdc61413a42a38bd" target="_top" xlink:title="UBApplication::exec">
<polygon fill="white" stroke="black" points="632,-58.5 632,-79.5 738,-79.5 738,-58.5 632,-58.5"/>
<text text-anchor="middle" x="685" y="-66.5" font-family="Helvetica,sans-Serif" font-size="10.00">UBApplication::exec</text>
</a>
</g>
<!-- Node4&#45;&gt;Node5 -->
<g id="edge8" class="edge"><title>Node4&#45;&gt;Node5</title>
<path fill="none" stroke="midnightblue" d="M605.947,-69C614.549,-69 623.243,-69 631.56,-69"/>
<polygon fill="midnightblue" stroke="midnightblue" points="605.919,-65.5001 595.919,-69 605.919,-72.5001 605.919,-65.5001"/>
</g>
<!-- Node6 -->
<g id="node11" class="node"><title>Node6</title>
<a xlink:href="../../df/d0a/main_8cpp.html#a0ddf1224851353fc92bfbff6f499fa97" target="_top" xlink:title="main">
<polygon fill="white" stroke="black" points="774,-58.5 774,-79.5 812,-79.5 812,-58.5 774,-58.5"/>
<text text-anchor="middle" x="793" y="-66.5" font-family="Helvetica,sans-Serif" font-size="10.00">main</text>
</a>
</g>
<!-- Node5&#45;&gt;Node6 -->
<g id="edge10" class="edge"><title>Node5&#45;&gt;Node6</title>
<path fill="none" stroke="midnightblue" d="M748.214,-69C757.495,-69 766.401,-69 773.793,-69"/>
<polygon fill="midnightblue" stroke="midnightblue" points="748.051,-65.5001 738.051,-69 748.051,-72.5001 748.051,-65.5001"/>
</g>
</g>
</svg>
