<?xml version="1.0" encoding="UTF-8" standalone="no"?>
<!DOCTYPE svg PUBLIC "-//W3C//DTD SVG 1.1//EN"
 "http://www.w3.org/Graphics/SVG/1.1/DTD/svg11.dtd">
<!-- Generated by graphviz version 2.26.3 (20100126.1600)
 -->
<!-- Title: OverlayDocumentParser.cpp Pages: 1 -->
<!--zoomable 494 -->
<svg id="main" version="1.1" xmlns="http://www.w3.org/2000/svg" xmlns:xlink="http://www.w3.org/1999/xlink" xml:space="preserve" onload="init(evt)">
        <defs>
                <circle id="rim" cx="0" cy="0" r="7"/>
                <circle id="rim2" cx="0" cy="0" r="3.5"/>
                <g id="zoomPlus">
                        <use xlink:href="#rim" fill="#404040">
                                <set attributeName="fill" to="#808080" begin="zoomplus.mouseover" end="zoomplus.mouseout"/>
                        </use>
                        <path d="M-4,0h8M0,-4v8" fill="none" stroke="white" stroke-width="1.5" pointer-events="none"/>
                </g>
                <g id="zoomMin">
                        <use xlink:href="#rim" fill="#404040">
                                <set attributeName="fill" to="#808080" begin="zoomminus.mouseover" end="zoomminus.mouseout"/>
                        </use>
                        <path d="M-4,0h8" fill="none" stroke="white" stroke-width="1.5" pointer-events="none"/>
                </g>
                <g id="dirArrow">
                        <path fill="none" stroke="white" stroke-width="1.5" d="M0,-3.0v7 M-2.5,-0.5L0,-3.0L2.5,-0.5"/>
                </g>
               <g id="resetDef">
                       <use xlink:href="#rim2" fill="#404040">
                               <set attributeName="fill" to="#808080" begin="reset.mouseover" end="reset.mouseout"/>
                       </use>
               </g>
        </defs>

<script type="text/javascript">
var viewWidth = 1016;
var viewHeight = 494;
var sectionId = 'dynsection-0';
</script>
<script xlink:href="../../svgpan.js"/>
<svg id="graph" class="graph">
<g id="viewport">
<title>OverlayDocumentParser.cpp</title>
<polygon fill="white" stroke="white" points="-4,5 -4,-490 1013,-490 1013,5 -4,5"/>
<!-- Node1 -->
<g id="node1" class="node"><title>Node1</title>
<polygon fill="#bfbfbf" stroke="black" points="676.5,-464.5 676.5,-485.5 819.5,-485.5 819.5,-464.5 676.5,-464.5"/>
<text text-anchor="middle" x="748" y="-472.5" font-family="Helvetica,sans-Serif" font-size="10.00">OverlayDocumentParser.cpp</text>
</g>
<!-- Node2 -->
<g id="node3" class="node"><title>Node2</title>
<a xlink:href="../../de/d0d/_overlay_document_parser_8h.html" target="_top" xlink:title="OverlayDocumentParser.h">
<polygon fill="white" stroke="black" points="459,-406.5 459,-427.5 591,-427.5 591,-406.5 459,-406.5"/>
<text text-anchor="middle" x="525" y="-414.5" font-family="Helvetica,sans-Serif" font-size="10.00">OverlayDocumentParser.h</text>
</a>
</g>
<!-- Node1&#45;&gt;Node2 -->
<g id="edge2" class="edge"><title>Node1&#45;&gt;Node2</title>
<path fill="none" stroke="midnightblue" d="M707.616,-464.497C670.474,-454.836 615.263,-440.477 575.277,-430.077"/>
<polygon fill="midnightblue" stroke="midnightblue" points="576.018,-426.653 565.459,-427.523 574.256,-433.428 576.018,-426.653"/>
</g>
<!-- Node3 -->
<g id="node5" class="node"><title>Node3</title>
<a xlink:href="../../df/d30/_object_8h.html" target="_top" xlink:title="Object.h">
<polygon fill="white" stroke="black" points="208.5,-174.5 208.5,-195.5 261.5,-195.5 261.5,-174.5 208.5,-174.5"/>
<text text-anchor="middle" x="235" y="-182.5" font-family="Helvetica,sans-Serif" font-size="10.00">Object.h</text>
</a>
</g>
<!-- Node1&#45;&gt;Node3 -->
<g id="edge96" class="edge"><title>Node1&#45;&gt;Node3</title>
<path fill="none" stroke="midnightblue" d="M676.425,-467C529.806,-449.642 209,-406.261 209,-359 209,-359 209,-359 209,-301 209,-266.792 219.899,-228.253 227.584,-205.331"/>
<polygon fill="midnightblue" stroke="midnightblue" points="230.956,-206.29 230.938,-195.695 224.345,-203.989 230.956,-206.29"/>
</g>
<!-- Node11 -->
<g id="node22" class="node"><title>Node11</title>
<polygon fill="white" stroke="#bfbfbf" points="0,-116.5 0,-137.5 50,-137.5 50,-116.5 0,-116.5"/>
<text text-anchor="middle" x="25" y="-124.5" font-family="Helvetica,sans-Serif" font-size="10.00">fstream</text>
</g>
<!-- Node1&#45;&gt;Node11 -->
<g id="edge80" class="edge"><title>Node1&#45;&gt;Node11</title>
<path fill="none" stroke="midnightblue" d="M676.222,-470.422C569.726,-463.107 375.209,-447.588 308,-428 241.784,-408.702 169,-427.971 169,-359 169,-359 169,-359 169,-243 169,-187.009 102.159,-153.467 59.5545,-137.775"/>
<polygon fill="midnightblue" stroke="midnightblue" points="60.6777,-134.46 50.0829,-134.431 58.3471,-141.061 60.6777,-134.46"/>
</g>
<!-- Node24 -->
<g id="node65" class="node"><title>Node24</title>
<polygon fill="white" stroke="#bfbfbf" points="775.5,-406.5 775.5,-427.5 824.5,-427.5 824.5,-406.5 775.5,-406.5"/>
<text text-anchor="middle" x="800" y="-414.5" font-family="Helvetica,sans-Serif" font-size="10.00">string.h</text>
</g>
<!-- Node1&#45;&gt;Node24 -->
<g id="edge82" class="edge"><title>Node1&#45;&gt;Node24</title>
<path fill="none" stroke="midnightblue" d="M757.538,-464.362C764.868,-456.186 775.163,-444.702 783.781,-435.091"/>
<polygon fill="midnightblue" stroke="midnightblue" points="786.453,-437.353 790.523,-427.571 781.241,-432.68 786.453,-437.353"/>
</g>
<!-- Node25 -->
<g id="node67" class="node"><title>Node25</title>
<polygon fill="white" stroke="#bfbfbf" points="841.5,-406.5 841.5,-427.5 896.5,-427.5 896.5,-406.5 841.5,-406.5"/>
<text text-anchor="middle" x="869" y="-414.5" font-family="Helvetica,sans-Serif" font-size="10.00">QtGlobal</text>
</g>
<!-- Node1&#45;&gt;Node25 -->
<g id="edge84" class="edge"><title>Node1&#45;&gt;Node25</title>
<path fill="none" stroke="midnightblue" d="M769.912,-464.497C788.811,-455.438 816.331,-442.246 837.576,-432.063"/>
<polygon fill="midnightblue" stroke="midnightblue" points="839.337,-435.1 846.842,-427.621 836.311,-428.788 839.337,-435.1"/>
</g>
<!-- Node26 -->
<g id="node69" class="node"><title>Node26</title>
<a xlink:href="../../df/d98/_exception_8h.html" target="_top" xlink:title="Exception.h">
<polygon fill="white" stroke="black" points="738,-116.5 738,-137.5 806,-137.5 806,-116.5 738,-116.5"/>
<text text-anchor="middle" x="772" y="-124.5" font-family="Helvetica,sans-Serif" font-size="10.00">Exception.h</text>
</a>
</g>
<!-- Node1&#45;&gt;Node26 -->
<g id="edge86" class="edge"><title>Node1&#45;&gt;Node26</title>
<path fill="none" stroke="midnightblue" d="M748,-464.444C748,-444.062 748,-397.868 748,-359 748,-359 748,-359 748,-243 748,-208.913 758.061,-170.338 765.155,-147.376"/>
<polygon fill="midnightblue" stroke="midnightblue" points="768.53,-148.313 768.25,-137.721 761.864,-146.175 768.53,-148.313"/>
</g>
<!-- Node28 -->
<g id="node77" class="node"><title>Node28</title>
<a xlink:href="../../db/d80/memcheck_8h.html" target="_top" xlink:title="core/memcheck.h">
<polygon fill="white" stroke="black" points="913.5,-406.5 913.5,-427.5 1008.5,-427.5 1008.5,-406.5 913.5,-406.5"/>
<text text-anchor="middle" x="961" y="-414.5" font-family="Helvetica,sans-Serif" font-size="10.00">core/memcheck.h</text>
</a>
</g>
<!-- Node1&#45;&gt;Node28 -->
<g id="edge98" class="edge"><title>Node1&#45;&gt;Node28</title>
<path fill="none" stroke="midnightblue" d="M786.573,-464.497C821.899,-454.877 874.338,-440.598 912.491,-430.209"/>
<polygon fill="midnightblue" stroke="midnightblue" points="913.626,-433.528 922.355,-427.523 911.787,-426.773 913.626,-433.528"/>
</g>
<!-- Node2&#45;&gt;Node3 -->
<g id="edge4" class="edge"><title>Node2&#45;&gt;Node3</title>
<path fill="none" stroke="midnightblue" d="M465.82,-406.481C433.312,-399.172 393.013,-387.534 360,-370 300.141,-338.206 288.566,-315.92 261,-254 253.864,-237.971 246.916,-219.327 242.001,-205.462"/>
<polygon fill="midnightblue" stroke="midnightblue" points="245.268,-204.203 238.668,-195.914 238.659,-206.509 245.268,-204.203"/>
</g>
<!-- Node12 -->
<g id="node24" class="node"><title>Node12</title>
<polygon fill="white" stroke="#bfbfbf" points="501.5,-116.5 501.5,-137.5 536.5,-137.5 536.5,-116.5 501.5,-116.5"/>
<text text-anchor="middle" x="519" y="-124.5" font-family="Helvetica,sans-Serif" font-size="10.00">map</text>
</g>
<!-- Node2&#45;&gt;Node12 -->
<g id="edge76" class="edge"><title>Node2&#45;&gt;Node12</title>
<path fill="none" stroke="midnightblue" d="M525.358,-406.243C525.763,-392.669 526.326,-368.604 526,-348 524.833,-274.289 521.478,-186.801 519.874,-147.687"/>
<polygon fill="midnightblue" stroke="midnightblue" points="523.366,-147.424 519.454,-137.578 516.372,-147.715 523.366,-147.424"/>
</g>
<!-- Node16 -->
<g id="node32" class="node"><title>Node16</title>
<a xlink:href="../../d5/d61/_document_8h.html" target="_top" xlink:title="Document.h">
<polygon fill="white" stroke="black" points="389,-290.5 389,-311.5 459,-311.5 459,-290.5 389,-290.5"/>
<text text-anchor="middle" x="424" y="-298.5" font-family="Helvetica,sans-Serif" font-size="10.00">Document.h</text>
</a>
</g>
<!-- Node2&#45;&gt;Node16 -->
<g id="edge32" class="edge"><title>Node2&#45;&gt;Node16</title>
<path fill="none" stroke="midnightblue" d="M515.679,-406.295C498.392,-386.441 461.186,-343.709 439.867,-319.224"/>
<polygon fill="midnightblue" stroke="midnightblue" points="442.505,-316.923 433.298,-311.679 437.225,-321.519 442.505,-316.923"/>
</g>
<!-- Node17 -->
<g id="node34" class="node"><title>Node17</title>
<a xlink:href="../../db/ded/_page_8h.html" target="_top" xlink:title="Page.h">
<polygon fill="white" stroke="black" points="463.5,-232.5 463.5,-253.5 510.5,-253.5 510.5,-232.5 463.5,-232.5"/>
<text text-anchor="middle" x="487" y="-240.5" font-family="Helvetica,sans-Serif" font-size="10.00">Page.h</text>
</a>
</g>
<!-- Node2&#45;&gt;Node17 -->
<g id="edge62" class="edge"><title>Node2&#45;&gt;Node17</title>
<path fill="none" stroke="midnightblue" d="M522.68,-406.377C516.52,-378.172 499.669,-301.012 491.525,-263.72"/>
<polygon fill="midnightblue" stroke="midnightblue" points="494.94,-262.951 489.387,-253.928 488.101,-264.444 494.94,-262.951"/>
</g>
<!-- Node22 -->
<g id="node48" class="node"><title>Node22</title>
<polygon fill="white" stroke="#bfbfbf" points="728,-58.5 728,-79.5 782,-79.5 782,-58.5 728,-58.5"/>
<text text-anchor="middle" x="755" y="-66.5" font-family="Helvetica,sans-Serif" font-size="10.00">iostream</text>
</g>
<!-- Node2&#45;&gt;Node22 -->
<g id="edge78" class="edge"><title>Node2&#45;&gt;Node22</title>
<path fill="none" stroke="midnightblue" d="M581.26,-406.47C635.688,-392.646 710,-362.508 710,-301 710,-301 710,-301 710,-185 710,-148.899 729.179,-110.496 742.495,-88.1822"/>
<polygon fill="midnightblue" stroke="midnightblue" points="745.484,-90.0031 747.77,-79.6579 739.531,-86.3196 745.484,-90.0031"/>
</g>
<!-- Node23 -->
<g id="node55" class="node"><title>Node23</title>
<a xlink:href="../../de/d40/_parser_8h.html" target="_top" xlink:title="Parser.h">
<polygon fill="white" stroke="black" points="368.5,-348.5 368.5,-369.5 421.5,-369.5 421.5,-348.5 368.5,-348.5"/>
<text text-anchor="middle" x="395" y="-356.5" font-family="Helvetica,sans-Serif" font-size="10.00">Parser.h</text>
</a>
</g>
<!-- Node2&#45;&gt;Node23 -->
<g id="edge64" class="edge"><title>Node2&#45;&gt;Node23</title>
<path fill="none" stroke="midnightblue" d="M501.458,-406.497C480.971,-397.356 451.053,-384.008 428.146,-373.788"/>
<polygon fill="midnightblue" stroke="midnightblue" points="429.365,-370.499 418.806,-369.621 426.512,-376.892 429.365,-370.499"/>
</g>
<!-- Node4 -->
<g id="node7" class="node"><title>Node4</title>
<a xlink:href="../../d9/dc1/_utils_8h.html" target="_top" xlink:title="Utils.h">
<polygon fill="white" stroke="black" points="105.5,-58.5 105.5,-79.5 150.5,-79.5 150.5,-58.5 105.5,-58.5"/>
<text text-anchor="middle" x="128" y="-66.5" font-family="Helvetica,sans-Serif" font-size="10.00">Utils.h</text>
</a>
</g>
<!-- Node3&#45;&gt;Node4 -->
<g id="edge6" class="edge"><title>Node3&#45;&gt;Node4</title>
<path fill="none" stroke="midnightblue" d="M208.33,-179.736C172.054,-171.972 110.148,-156.368 97,-138 85.8815,-122.468 97.405,-102.311 109.431,-87.7984"/>
<polygon fill="midnightblue" stroke="midnightblue" points="112.357,-89.776 116.402,-79.9838 107.133,-85.1162 112.357,-89.776"/>
</g>
<!-- Node7 -->
<g id="node13" class="node"><title>Node7</title>
<polygon fill="white" stroke="#bfbfbf" points="453.5,-0.5 453.5,-21.5 494.5,-21.5 494.5,-0.5 453.5,-0.5"/>
<text text-anchor="middle" x="474" y="-8.5" font-family="Helvetica,sans-Serif" font-size="10.00">string</text>
</g>
<!-- Node3&#45;&gt;Node7 -->
<g id="edge20" class="edge"><title>Node3&#45;&gt;Node7</title>
<path fill="none" stroke="midnightblue" d="M221.667,-174.343C205.95,-160.46 183.568,-135.642 197,-116 225.934,-73.6884 377.755,-33.6071 443.547,-17.9366"/>
<polygon fill="midnightblue" stroke="midnightblue" points="444.403,-21.331 453.336,-15.6346 442.8,-14.5169 444.403,-21.331"/>
</g>
<!-- Node10 -->
<g id="node19" class="node"><title>Node10</title>
<polygon fill="white" stroke="#bfbfbf" points="106,-116.5 106,-137.5 150,-137.5 150,-116.5 106,-116.5"/>
<text text-anchor="middle" x="128" y="-124.5" font-family="Helvetica,sans-Serif" font-size="10.00">cmath</text>
</g>
<!-- Node3&#45;&gt;Node10 -->
<g id="edge18" class="edge"><title>Node3&#45;&gt;Node10</title>
<path fill="none" stroke="midnightblue" d="M215.375,-174.362C198.859,-165.409 175.026,-152.491 156.422,-142.406"/>
<polygon fill="midnightblue" stroke="midnightblue" points="157.96,-139.259 147.501,-137.571 154.625,-145.413 157.96,-139.259"/>
</g>
<!-- Node3&#45;&gt;Node11 -->
<g id="edge22" class="edge"><title>Node3&#45;&gt;Node11</title>
<path fill="none" stroke="midnightblue" d="M208.327,-177.728C174.671,-168.539 115.015,-152.205 64,-138 62.742,-137.65 61.4614,-137.292 60.168,-136.931"/>
<polygon fill="midnightblue" stroke="midnightblue" points="60.742,-133.457 50.1683,-134.125 58.8511,-140.197 60.742,-133.457"/>
</g>
<!-- Node3&#45;&gt;Node12 -->
<g id="edge24" class="edge"><title>Node3&#45;&gt;Node12</title>
<path fill="none" stroke="midnightblue" d="M261.718,-179.544C315.57,-168.546 436.661,-143.816 491.311,-132.655"/>
<polygon fill="midnightblue" stroke="midnightblue" points="492.218,-136.042 501.315,-130.612 490.817,-129.184 492.218,-136.042"/>
</g>
<!-- Node13 -->
<g id="node26" class="node"><title>Node13</title>
<polygon fill="white" stroke="#bfbfbf" points="206,-116.5 206,-137.5 236,-137.5 236,-116.5 206,-116.5"/>
<text text-anchor="middle" x="221" y="-124.5" font-family="Helvetica,sans-Serif" font-size="10.00">set</text>
</g>
<!-- Node3&#45;&gt;Node13 -->
<g id="edge26" class="edge"><title>Node3&#45;&gt;Node13</title>
<path fill="none" stroke="midnightblue" d="M232.432,-174.362C230.617,-166.84 228.125,-156.519 225.932,-147.431"/>
<polygon fill="midnightblue" stroke="midnightblue" points="229.3,-146.47 223.552,-137.571 222.496,-148.113 229.3,-146.47"/>
</g>
<!-- Node14 -->
<g id="node28" class="node"><title>Node14</title>
<polygon fill="white" stroke="#bfbfbf" points="395,-58.5 395,-79.5 439,-79.5 439,-58.5 395,-58.5"/>
<text text-anchor="middle" x="417" y="-66.5" font-family="Helvetica,sans-Serif" font-size="10.00">vector</text>
</g>
<!-- Node3&#45;&gt;Node14 -->
<g id="edge28" class="edge"><title>Node3&#45;&gt;Node14</title>
<path fill="none" stroke="midnightblue" d="M251.796,-174.295C283.84,-153.871 353.868,-109.238 391.642,-85.1624"/>
<polygon fill="midnightblue" stroke="midnightblue" points="393.956,-87.8379 400.508,-79.5117 390.194,-81.935 393.956,-87.8379"/>
</g>
<!-- Node15 -->
<g id="node30" class="node"><title>Node15</title>
<polygon fill="white" stroke="#bfbfbf" points="254,-116.5 254,-137.5 294,-137.5 294,-116.5 254,-116.5"/>
<text text-anchor="middle" x="274" y="-124.5" font-family="Helvetica,sans-Serif" font-size="10.00">utility</text>
</g>
<!-- Node3&#45;&gt;Node15 -->
<g id="edge30" class="edge"><title>Node3&#45;&gt;Node15</title>
<path fill="none" stroke="midnightblue" d="M242.153,-174.362C247.486,-166.431 254.911,-155.389 261.251,-145.961"/>
<polygon fill="midnightblue" stroke="midnightblue" points="264.217,-147.822 266.892,-137.571 258.408,-143.916 264.217,-147.822"/>
</g>
<!-- Node5 -->
<g id="node9" class="node"><title>Node5</title>
<a xlink:href="../../d4/d71/_config_8h.html" target="_top" xlink:title="Config.h">
<polygon fill="white" stroke="black" points="67.5,-0.5 67.5,-21.5 120.5,-21.5 120.5,-0.5 67.5,-0.5"/>
<text text-anchor="middle" x="94" y="-8.5" font-family="Helvetica,sans-Serif" font-size="10.00">Config.h</text>
</a>
</g>
<!-- Node4&#45;&gt;Node5 -->
<g id="edge8" class="edge"><title>Node4&#45;&gt;Node5</title>
<path fill="none" stroke="midnightblue" d="M121.764,-58.3619C117.163,-50.5131 110.775,-39.6159 105.286,-30.2527"/>
<polygon fill="midnightblue" stroke="midnightblue" points="108.273,-28.4276 100.197,-21.5707 102.234,-31.9677 108.273,-28.4276"/>
</g>
<!-- Node6 -->
<g id="node11" class="node"><title>Node6</title>
<polygon fill="white" stroke="#bfbfbf" points="138,-0.5 138,-21.5 186,-21.5 186,-0.5 138,-0.5"/>
<text text-anchor="middle" x="162" y="-8.5" font-family="Helvetica,sans-Serif" font-size="10.00">stdlib.h</text>
</g>
<!-- Node4&#45;&gt;Node6 -->
<g id="edge10" class="edge"><title>Node4&#45;&gt;Node6</title>
<path fill="none" stroke="midnightblue" d="M134.236,-58.3619C138.837,-50.5131 145.225,-39.6159 150.714,-30.2527"/>
<polygon fill="midnightblue" stroke="midnightblue" points="153.766,-31.9677 155.803,-21.5707 147.727,-28.4276 153.766,-31.9677"/>
</g>
<!-- Node4&#45;&gt;Node7 -->
<g id="edge12" class="edge"><title>Node4&#45;&gt;Node7</title>
<path fill="none" stroke="midnightblue" d="M150.718,-61.5097C155.095,-60.2229 159.667,-58.985 164,-58 265.229,-34.9902 387.674,-20.1798 443.546,-14.122"/>
<polygon fill="midnightblue" stroke="midnightblue" points="443.924,-17.6017 453.496,-13.06 443.181,-10.6412 443.924,-17.6017"/>
</g>
<!-- Node8 -->
<g id="node15" class="node"><title>Node8</title>
<polygon fill="white" stroke="#bfbfbf" points="204,-0.5 204,-21.5 248,-21.5 248,-0.5 204,-0.5"/>
<text text-anchor="middle" x="226" y="-8.5" font-family="Helvetica,sans-Serif" font-size="10.00">time.h</text>
</g>
<!-- Node4&#45;&gt;Node8 -->
<g id="edge14" class="edge"><title>Node4&#45;&gt;Node8</title>
<path fill="none" stroke="midnightblue" d="M145.975,-58.3619C160.894,-49.532 182.333,-36.844 199.266,-26.8224"/>
<polygon fill="midnightblue" stroke="midnightblue" points="201.316,-29.6759 208.139,-21.5707 197.751,-23.6519 201.316,-29.6759"/>
</g>
<!-- Node9 -->
<g id="node17" class="node"><title>Node9</title>
<polygon fill="white" stroke="#bfbfbf" points="4,-0.5 4,-21.5 50,-21.5 50,-0.5 4,-0.5"/>
<text text-anchor="middle" x="27" y="-8.5" font-family="Helvetica,sans-Serif" font-size="10.00">stdio.h</text>
</g>
<!-- Node4&#45;&gt;Node9 -->
<g id="edge16" class="edge"><title>Node4&#45;&gt;Node9</title>
<path fill="none" stroke="midnightblue" d="M109.475,-58.3619C94.0988,-49.532 72.0041,-36.844 54.5528,-26.8224"/>
<polygon fill="midnightblue" stroke="midnightblue" points="55.8223,-23.5154 45.4075,-21.5707 52.3364,-29.5857 55.8223,-23.5154"/>
</g>
<!-- Node16&#45;&gt;Node14 -->
<g id="edge60" class="edge"><title>Node16&#45;&gt;Node14</title>
<path fill="none" stroke="midnightblue" d="M423.681,-290.429C422.601,-254.648 419.072,-137.663 417.626,-89.7481"/>
<polygon fill="midnightblue" stroke="midnightblue" points="421.121,-89.5234 417.321,-79.6335 414.124,-89.7345 421.121,-89.5234"/>
</g>
<!-- Node16&#45;&gt;Node17 -->
<g id="edge34" class="edge"><title>Node16&#45;&gt;Node17</title>
<path fill="none" stroke="midnightblue" d="M435.555,-290.362C444.613,-282.023 457.41,-270.242 467.974,-260.516"/>
<polygon fill="midnightblue" stroke="midnightblue" points="470.532,-262.919 475.518,-253.571 465.79,-257.769 470.532,-262.919"/>
</g>
<!-- Node17&#45;&gt;Node3 -->
<g id="edge38" class="edge"><title>Node17&#45;&gt;Node3</title>
<path fill="none" stroke="midnightblue" d="M463.292,-237.544C419.184,-227.392 324.239,-205.539 271.753,-193.459"/>
<polygon fill="midnightblue" stroke="midnightblue" points="272.379,-190.012 261.849,-191.18 270.809,-196.833 272.379,-190.012"/>
</g>
<!-- Node17&#45;&gt;Node7 -->
<g id="edge36" class="edge"><title>Node17&#45;&gt;Node7</title>
<path fill="none" stroke="midnightblue" d="M486.408,-232.429C484.403,-196.648 477.847,-79.6628 475.163,-31.7481"/>
<polygon fill="midnightblue" stroke="midnightblue" points="478.65,-31.422 474.596,-21.6335 471.661,-31.8137 478.65,-31.422"/>
</g>
<!-- Node18 -->
<g id="node38" class="node"><title>Node18</title>
<a xlink:href="../../de/d5d/_merge_page_description_8h.html" target="_top" xlink:title="MergePageDescription.h">
<polygon fill="white" stroke="black" points="558,-174.5 558,-195.5 682,-195.5 682,-174.5 558,-174.5"/>
<text text-anchor="middle" x="620" y="-182.5" font-family="Helvetica,sans-Serif" font-size="10.00">MergePageDescription.h</text>
</a>
</g>
<!-- Node17&#45;&gt;Node18 -->
<g id="edge40" class="edge"><title>Node17&#45;&gt;Node18</title>
<path fill="none" stroke="midnightblue" d="M510.778,-232.631C531.792,-223.467 562.677,-209.998 586.247,-199.719"/>
<polygon fill="midnightblue" stroke="midnightblue" points="587.761,-202.877 595.528,-195.672 584.963,-196.461 587.761,-202.877"/>
</g>
<!-- Node18&#45;&gt;Node7 -->
<g id="edge58" class="edge"><title>Node18&#45;&gt;Node7</title>
<path fill="none" stroke="midnightblue" d="M611.087,-174.377C587.014,-145.688 520.442,-66.3484 489.804,-29.8354"/>
<polygon fill="midnightblue" stroke="midnightblue" points="492.278,-27.3385 483.169,-21.9277 486.916,-31.838 492.278,-27.3385"/>
</g>
<!-- Node18&#45;&gt;Node12 -->
<g id="edge56" class="edge"><title>Node18&#45;&gt;Node12</title>
<path fill="none" stroke="midnightblue" d="M601.475,-174.362C585.762,-165.339 563.034,-152.287 545.414,-142.169"/>
<polygon fill="midnightblue" stroke="midnightblue" points="547.145,-139.126 536.73,-137.182 543.659,-145.197 547.145,-139.126"/>
</g>
<!-- Node19 -->
<g id="node40" class="node"><title>Node19</title>
<a xlink:href="../../d3/d21/_transformation_8h.html" target="_top" xlink:title="Transformation.h">
<polygon fill="white" stroke="black" points="592,-116.5 592,-137.5 682,-137.5 682,-116.5 592,-116.5"/>
<text text-anchor="middle" x="637" y="-124.5" font-family="Helvetica,sans-Serif" font-size="10.00">Transformation.h</text>
</a>
</g>
<!-- Node18&#45;&gt;Node19 -->
<g id="edge42" class="edge"><title>Node18&#45;&gt;Node19</title>
<path fill="none" stroke="midnightblue" d="M623.118,-174.362C625.323,-166.84 628.348,-156.519 631.012,-147.431"/>
<polygon fill="midnightblue" stroke="midnightblue" points="634.448,-148.151 633.902,-137.571 627.73,-146.182 634.448,-148.151"/>
</g>
<!-- Node19&#45;&gt;Node4 -->
<g id="edge54" class="edge"><title>Node19&#45;&gt;Node4</title>
<path fill="none" stroke="midnightblue" d="M591.617,-121.512C576.763,-119.732 560.18,-117.763 545,-116 401.825,-99.3722 230.891,-80.3739 160.617,-72.6003"/>
<polygon fill="midnightblue" stroke="midnightblue" points="160.931,-69.1138 150.607,-71.4937 160.162,-76.0714 160.931,-69.1138"/>
</g>
<!-- Node19&#45;&gt;Node7 -->
<g id="edge46" class="edge"><title>Node19&#45;&gt;Node7</title>
<path fill="none" stroke="midnightblue" d="M622.591,-116.374C604.042,-102.732 570.773,-78.3888 542,-58 527.444,-47.6855 510.99,-36.3056 497.914,-27.3272"/>
<polygon fill="midnightblue" stroke="midnightblue" points="499.693,-24.3035 489.465,-21.5377 495.736,-30.0777 499.693,-24.3035"/>
</g>
<!-- Node19&#45;&gt;Node14 -->
<g id="edge50" class="edge"><title>Node19&#45;&gt;Node14</title>
<path fill="none" stroke="midnightblue" d="M597.16,-116.497C554.648,-105.289 488.143,-87.7558 448.936,-77.4195"/>
<polygon fill="midnightblue" stroke="midnightblue" points="449.678,-73.9956 439.116,-74.8306 447.893,-80.7643 449.678,-73.9956"/>
</g>
<!-- Node20 -->
<g id="node42" class="node"><title>Node20</title>
<polygon fill="white" stroke="#bfbfbf" points="658,-58.5 658,-79.5 710,-79.5 710,-58.5 658,-58.5"/>
<text text-anchor="middle" x="684" y="-66.5" font-family="Helvetica,sans-Serif" font-size="10.00">sstream</text>
</g>
<!-- Node19&#45;&gt;Node20 -->
<g id="edge44" class="edge"><title>Node19&#45;&gt;Node20</title>
<path fill="none" stroke="midnightblue" d="M645.621,-116.362C652.18,-108.268 661.366,-96.9318 669.106,-87.3796"/>
<polygon fill="midnightblue" stroke="midnightblue" points="671.858,-89.5436 675.434,-79.5707 666.419,-85.1364 671.858,-89.5436"/>
</g>
<!-- Node21 -->
<g id="node45" class="node"><title>Node21</title>
<polygon fill="white" stroke="#bfbfbf" points="593.5,-58.5 593.5,-79.5 640.5,-79.5 640.5,-58.5 593.5,-58.5"/>
<text text-anchor="middle" x="617" y="-66.5" font-family="Helvetica,sans-Serif" font-size="10.00">math.h</text>
</g>
<!-- Node19&#45;&gt;Node21 -->
<g id="edge48" class="edge"><title>Node19&#45;&gt;Node21</title>
<path fill="none" stroke="midnightblue" d="M633.332,-116.362C630.71,-108.758 627.101,-98.294 623.943,-89.1349"/>
<polygon fill="midnightblue" stroke="midnightblue" points="627.214,-87.8834 620.645,-79.5707 620.596,-90.1654 627.214,-87.8834"/>
</g>
<!-- Node19&#45;&gt;Node22 -->
<g id="edge52" class="edge"><title>Node19&#45;&gt;Node22</title>
<path fill="none" stroke="midnightblue" d="M658.369,-116.497C676.799,-107.438 703.637,-94.2462 724.355,-84.0628"/>
<polygon fill="midnightblue" stroke="midnightblue" points="725.961,-87.1735 733.391,-79.6212 722.873,-80.8914 725.961,-87.1735"/>
</g>
<!-- Node23&#45;&gt;Node3 -->
<g id="edge66" class="edge"><title>Node23&#45;&gt;Node3</title>
<path fill="none" stroke="midnightblue" d="M368.151,-348.857C349.849,-340.932 325.951,-328.493 309,-312 304.632,-307.751 265.574,-239.119 246.033,-204.562"/>
<polygon fill="midnightblue" stroke="midnightblue" points="249.05,-202.786 241.084,-195.8 242.955,-206.229 249.05,-202.786"/>
</g>
<!-- Node23&#45;&gt;Node7 -->
<g id="edge72" class="edge"><title>Node23&#45;&gt;Node7</title>
<path fill="none" stroke="midnightblue" d="M390.827,-348.343C375.427,-307.132 325.721,-155.648 386,-58 398.687,-37.4488 423.661,-25.3413 443.774,-18.5765"/>
<polygon fill="midnightblue" stroke="midnightblue" points="444.942,-21.879 453.469,-15.5902 442.881,-15.1891 444.942,-21.879"/>
</g>
<!-- Node23&#45;&gt;Node14 -->
<g id="edge74" class="edge"><title>Node23&#45;&gt;Node14</title>
<path fill="none" stroke="midnightblue" d="M378.74,-348.423C367.485,-340.058 353.418,-327.267 347,-312 343.211,-302.986 345.506,-299.663 347,-290 358.802,-213.652 392.261,-127.546 408.264,-89.2406"/>
<polygon fill="midnightblue" stroke="midnightblue" points="411.606,-90.325 412.283,-79.7518 405.16,-87.5953 411.606,-90.325"/>
</g>
<!-- Node23&#45;&gt;Node16 -->
<g id="edge68" class="edge"><title>Node23&#45;&gt;Node16</title>
<path fill="none" stroke="midnightblue" d="M400.319,-348.362C404.203,-340.595 409.579,-329.843 414.227,-320.546"/>
<polygon fill="midnightblue" stroke="midnightblue" points="417.373,-322.08 418.715,-311.571 411.112,-318.95 417.373,-322.08"/>
</g>
<!-- Node23&#45;&gt;Node17 -->
<g id="edge70" class="edge"><title>Node23&#45;&gt;Node17</title>
<path fill="none" stroke="midnightblue" d="M420.433,-348.416C436.309,-340.571 455.95,-328.398 468,-312 478.319,-297.958 483.034,-278.592 485.188,-263.95"/>
<polygon fill="midnightblue" stroke="midnightblue" points="488.685,-264.183 486.387,-253.841 481.734,-263.359 488.685,-264.183"/>
</g>
<!-- Node26&#45;&gt;Node7 -->
<g id="edge90" class="edge"><title>Node26&#45;&gt;Node7</title>
<path fill="none" stroke="midnightblue" d="M780.24,-116.351C790.618,-101.564 805.447,-74.7463 791,-58 772.425,-36.4683 581.341,-19.3518 505.131,-13.3309"/>
<polygon fill="midnightblue" stroke="midnightblue" points="504.996,-9.80996 494.754,-12.5239 504.453,-16.7889 504.996,-9.80996"/>
</g>
<!-- Node26&#45;&gt;Node20 -->
<g id="edge92" class="edge"><title>Node26&#45;&gt;Node20</title>
<path fill="none" stroke="midnightblue" d="M755.859,-116.362C742.586,-107.614 723.568,-95.0786 708.43,-85.1015"/>
<polygon fill="midnightblue" stroke="midnightblue" points="710.314,-82.1515 700.038,-79.5707 706.462,-87.9962 710.314,-82.1515"/>
</g>
<!-- Node26&#45;&gt;Node22 -->
<g id="edge94" class="edge"><title>Node26&#45;&gt;Node22</title>
<path fill="none" stroke="midnightblue" d="M768.882,-116.362C766.677,-108.84 763.652,-98.5187 760.988,-89.4308"/>
<polygon fill="midnightblue" stroke="midnightblue" points="764.27,-88.1825 758.098,-79.5707 757.552,-90.1514 764.27,-88.1825"/>
</g>
<!-- Node27 -->
<g id="node71" class="node"><title>Node27</title>
<polygon fill="white" stroke="#bfbfbf" points="837.5,-58.5 837.5,-79.5 896.5,-79.5 896.5,-58.5 837.5,-58.5"/>
<text text-anchor="middle" x="867" y="-66.5" font-family="Helvetica,sans-Serif" font-size="10.00">exception</text>
</g>
<!-- Node26&#45;&gt;Node27 -->
<g id="edge88" class="edge"><title>Node26&#45;&gt;Node27</title>
<path fill="none" stroke="midnightblue" d="M789.424,-116.362C803.887,-107.532 824.669,-94.844 841.084,-84.8224"/>
<polygon fill="midnightblue" stroke="midnightblue" points="842.975,-87.7688 849.686,-79.5707 839.327,-81.7943 842.975,-87.7688"/>
</g>
</g>
</svg>
        <g id="navigator" transform="translate(0 0)" fill="#404254">
                <rect fill="#f2f5e9" fill-opacity="0.5" stroke="#606060" stroke-width=".5" x="0" y="0" width="60" height="60"/>
                <use id="zoomplus" xlink:href="#zoomPlus" x="17" y="9" onmousedown="handleZoom(evt,'in')"/>
                <use id="zoomminus" xlink:href="#zoomMin" x="42" y="9" onmousedown="handleZoom(evt,'out')"/>
                <use id="reset" xlink:href="#resetDef" x="30" y="36" onmousedown="handleReset()"/>
                <g id="arrowUp" xlink:href="#dirArrow" transform="translate(30 24)" onmousedown="handlePan(0,-1)">
                  <use xlink:href="#rim" fill="#404040">
                        <set attributeName="fill" to="#808080" begin="arrowUp.mouseover" end="arrowUp.mouseout"/>
                  </use>
                  <path fill="none" stroke="white" stroke-width="1.5" d="M0,-3.0v7 M-2.5,-0.5L0,-3.0L2.5,-0.5"/>
                </g>
                <g id="arrowRight" xlink:href="#dirArrow" transform="rotate(90) translate(36 -43)" onmousedown="handlePan(1,0)">
                  <use xlink:href="#rim" fill="#404040">
                        <set attributeName="fill" to="#808080" begin="arrowRight.mouseover" end="arrowRight.mouseout"/>
                  </use>
                  <path fill="none" stroke="white" stroke-width="1.5" d="M0,-3.0v7 M-2.5,-0.5L0,-3.0L2.5,-0.5"/>
                </g>
                <g id="arrowDown" xlink:href="#dirArrow" transform="rotate(180) translate(-30 -48)" onmousedown="handlePan(0,1)">
                  <use xlink:href="#rim" fill="#404040">
                        <set attributeName="fill" to="#808080" begin="arrowDown.mouseover" end="arrowDown.mouseout"/>
                  </use>
                  <path fill="none" stroke="white" stroke-width="1.5" d="M0,-3.0v7 M-2.5,-0.5L0,-3.0L2.5,-0.5"/>
                </g>
                <g id="arrowLeft" xlink:href="#dirArrow" transform="rotate(270) translate(-36 17)" onmousedown="handlePan(-1,0)">
                  <use xlink:href="#rim" fill="#404040">
                        <set attributeName="fill" to="#808080" begin="arrowLeft.mouseover" end="arrowLeft.mouseout"/>
                  </use>
                  <path fill="none" stroke="white" stroke-width="1.5" d="M0,-3.0v7 M-2.5,-0.5L0,-3.0L2.5,-0.5"/>
                </g>
        </g>
        <svg viewBox="0 0 15 15" width="100%" height="30px" preserveAspectRatio="xMaxYMin meet">
         <g id="arrow_out" transform="scale(0.3 0.3)">
          <a xlink:href="_overlay_document_parser_8cpp__incl_org.svg" target="_base">
           <rect id="button" ry="5" rx="5" y="6" x="6" height="38" width="38"
                fill="#f2f5e9" fill-opacity="0.5" stroke="#606060" stroke-width="1.0"/>
           <path id="arrow"
             d="M 11.500037,31.436501 C 11.940474,20.09759 22.043105,11.32322 32.158766,21.979434 L 37.068811,17.246167 C 37.068811,17.246167 37.088388,32 37.088388,32 L 22.160133,31.978069 C 22.160133,31.978069 26.997745,27.140456 26.997745,27.140456 C 18.528582,18.264221 13.291696,25.230495 11.500037,31.436501 z"
             style="fill:#404040;"/>
          </a>
         </g>
        </svg>
</svg>
