<?xml version="1.0" encoding="UTF-8" standalone="no"?>
<!DOCTYPE svg PUBLIC "-//W3C//DTD SVG 1.1//EN"
 "http://www.w3.org/Graphics/SVG/1.1/DTD/svg11.dtd">
<!-- Generated by graphviz version 2.26.3 (20100126.1600)
 -->
<!-- Title: UBPodcastController::pauseToggled Pages: 1 -->
<svg width="264pt" height="94pt"
 viewBox="0.00 0.00 264.00 94.00" xmlns="http://www.w3.org/2000/svg" xmlns:xlink="http://www.w3.org/1999/xlink">
<g id="graph1" class="graph" transform="scale(1 1) rotate(0) translate(4 90)">
<title>UBPodcastController::pauseToggled</title>
<polygon fill="white" stroke="white" points="-4,5 -4,-90 261,-90 261,5 -4,5"/>
<!-- Node1 -->
<g id="node1" class="node"><title>Node1</title>
<polygon fill="#bfbfbf" stroke="black" points="0.5,-26 0.5,-60 109.5,-60 109.5,-26 0.5,-26"/>
<text text-anchor="start" x="8.5" y="-47" font-family="Helvetica,sans-Serif" font-size="10.00">UBPodcastController</text>
<text text-anchor="middle" x="55" y="-34" font-family="Helvetica,sans-Serif" font-size="10.00">::pauseToggled</text>
</g>
<!-- Node2 -->
<g id="node3" class="node"><title>Node2</title>
<a xlink:href="../../d9/def/class_u_b_podcast_controller.html#a0b73b89edfa24177cb95b3337241166c" target="_top" xlink:title="UBPodcastController\l::pause">
<polygon fill="white" stroke="black" points="146.5,-52 146.5,-86 255.5,-86 255.5,-52 146.5,-52"/>
<text text-anchor="start" x="154.5" y="-73" font-family="Helvetica,sans-Serif" font-size="10.00">UBPodcastController</text>
<text text-anchor="middle" x="201" y="-60" font-family="Helvetica,sans-Serif" font-size="10.00">::pause</text>
</a>
</g>
<!-- Node1&#45;&gt;Node2 -->
<g id="edge2" class="edge"><title>Node1&#45;&gt;Node2</title>
<path fill="none" stroke="midnightblue" d="M109.78,-52.7554C118.481,-54.3049 127.551,-55.92 136.451,-57.5049"/>
<polygon fill="midnightblue" stroke="midnightblue" points="135.939,-60.9689 146.398,-59.2764 137.167,-54.0773 135.939,-60.9689"/>
</g>
<!-- Node3 -->
<g id="node5" class="node"><title>Node3</title>
<a xlink:href="../../d9/def/class_u_b_podcast_controller.html#af9a1973e7ff4316ed038c8749002c1e2" target="_top" xlink:title="UBPodcastController\l::unpause">
<polygon fill="white" stroke="black" points="146.5,-0 146.5,-34 255.5,-34 255.5,-0 146.5,-0"/>
<text text-anchor="start" x="154.5" y="-21" font-family="Helvetica,sans-Serif" font-size="10.00">UBPodcastController</text>
<text text-anchor="middle" x="201" y="-8" font-family="Helvetica,sans-Serif" font-size="10.00">::unpause</text>
</a>
</g>
<!-- Node1&#45;&gt;Node3 -->
<g id="edge4" class="edge"><title>Node1&#45;&gt;Node3</title>
<path fill="none" stroke="midnightblue" d="M109.78,-33.2446C118.481,-31.6951 127.551,-30.08 136.451,-28.4951"/>
<polygon fill="midnightblue" stroke="midnightblue" points="137.167,-31.9227 146.398,-26.7236 135.939,-25.0311 137.167,-31.9227"/>
</g>
</g>
</svg>
