<?xml version="1.0" encoding="UTF-8" standalone="no"?>
<!DOCTYPE svg PUBLIC "-//W3C//DTD SVG 1.1//EN"
 "http://www.w3.org/Graphics/SVG/1.1/DTD/svg11.dtd">
<!-- Generated by graphviz version 2.26.3 (20100126.1600)
 -->
<!-- Title: UBPodcastController::pauseToggled Pages: 1 -->
<svg width="416pt" height="42pt"
 viewBox="0.00 0.00 416.00 42.00" xmlns="http://www.w3.org/2000/svg" xmlns:xlink="http://www.w3.org/1999/xlink">
<g id="graph1" class="graph" transform="scale(1 1) rotate(0) translate(4 38)">
<title>UBPodcastController::pauseToggled</title>
<polygon fill="white" stroke="white" points="-4,5 -4,-38 413,-38 413,5 -4,5"/>
<!-- Node1 -->
<g id="node1" class="node"><title>Node1</title>
<polygon fill="#bfbfbf" stroke="black" points="0.5,-0 0.5,-34 109.5,-34 109.5,-0 0.5,-0"/>
<text text-anchor="start" x="8.5" y="-21" font-family="Helvetica,sans-Serif" font-size="10.00">UBPodcastController</text>
<text text-anchor="middle" x="55" y="-8" font-family="Helvetica,sans-Serif" font-size="10.00">::pauseToggled</text>
</g>
<!-- Node2 -->
<g id="node3" class="node"><title>Node2</title>
<a xlink:href="../../d9/def/class_u_b_podcast_controller.html#ab9f47a41e489b242fed9396277dfc5af" target="_top" xlink:title="UBPodcastController\l::toggleRecordingPalette">
<polygon fill="white" stroke="black" points="146,-0 146,-34 270,-34 270,-0 146,-0"/>
<text text-anchor="start" x="154" y="-21" font-family="Helvetica,sans-Serif" font-size="10.00">UBPodcastController</text>
<text text-anchor="middle" x="208" y="-8" font-family="Helvetica,sans-Serif" font-size="10.00">::toggleRecordingPalette</text>
</a>
</g>
<!-- Node1&#45;&gt;Node2 -->
<g id="edge2" class="edge"><title>Node1&#45;&gt;Node2</title>
<path fill="none" stroke="midnightblue" d="M120.071,-17C128.591,-17 137.305,-17 145.776,-17"/>
<polygon fill="midnightblue" stroke="midnightblue" points="119.804,-13.5001 109.804,-17 119.804,-20.5001 119.804,-13.5001"/>
</g>
<!-- Node3 -->
<g id="node5" class="node"><title>Node3</title>
<a xlink:href="../../d7/d62/class_u_b_board_controller.html#a6171228fc58d8afaff61bd3ba06103ca" target="_top" xlink:title="UBBoardController:\l:togglePodcast">
<polygon fill="white" stroke="black" points="306.5,-0 306.5,-34 407.5,-34 407.5,-0 306.5,-0"/>
<text text-anchor="start" x="314.5" y="-21" font-family="Helvetica,sans-Serif" font-size="10.00">UBBoardController:</text>
<text text-anchor="middle" x="357" y="-8" font-family="Helvetica,sans-Serif" font-size="10.00">:togglePodcast</text>
</a>
</g>
<!-- Node2&#45;&gt;Node3 -->
<g id="edge4" class="edge"><title>Node2&#45;&gt;Node3</title>
<path fill="none" stroke="midnightblue" d="M280.493,-17C289.191,-17 297.927,-17 306.224,-17"/>
<polygon fill="midnightblue" stroke="midnightblue" points="280.326,-13.5001 270.326,-17 280.326,-20.5001 280.326,-13.5001"/>
</g>
</g>
</svg>
