<?xml version="1.0" encoding="UTF-8" standalone="no"?>
<!DOCTYPE svg PUBLIC "-//W3C//DTD SVG 1.1//EN"
 "http://www.w3.org/Graphics/SVG/1.1/DTD/svg11.dtd">
<!-- Generated by graphviz version 2.26.3 (20100126.1600)
 -->
<!-- Title: merge_lib::TransformationDescription::getAnnotsTransformations Pages: 1 -->
<svg width="1510pt" height="82pt"
 viewBox="0.00 0.00 1510.00 82.00" xmlns="http://www.w3.org/2000/svg" xmlns:xlink="http://www.w3.org/1999/xlink">
<g id="graph1" class="graph" transform="scale(1 1) rotate(0) translate(4 78)">
<title>merge_lib::TransformationDescription::getAnnotsTransformations</title>
<polygon fill="white" stroke="white" points="-4,5 -4,-78 1507,-78 1507,5 -4,5"/>
<!-- Node1 -->
<g id="node1" class="node"><title>Node1</title>
<polygon fill="#bfbfbf" stroke="black" points="0.5,-17 0.5,-51 187.5,-51 187.5,-17 0.5,-17"/>
<text text-anchor="start" x="8.5" y="-38" font-family="Helvetica,sans-Serif" font-size="10.00">merge_lib::Transformation</text>
<text text-anchor="middle" x="94" y="-25" font-family="Helvetica,sans-Serif" font-size="10.00">Description::getAnnotsTransformations</text>
</g>
<!-- Node2 -->
<g id="node3" class="node"><title>Node2</title>
<a xlink:href="../../d7/dfc/_page_8cpp.html#ad748c0b63c61b58b3362e53390f7c66d" target="_top" xlink:title="_recalculateAnnotsCoordinates">
<polygon fill="white" stroke="black" points="224,-23.5 224,-44.5 376,-44.5 376,-23.5 224,-23.5"/>
<text text-anchor="middle" x="300" y="-31.5" font-family="Helvetica,sans-Serif" font-size="10.00">_recalculateAnnotsCoordinates</text>
</a>
</g>
<!-- Node1&#45;&gt;Node2 -->
<g id="edge2" class="edge"><title>Node1&#45;&gt;Node2</title>
<path fill="none" stroke="midnightblue" d="M197.906,-34C206.647,-34 215.379,-34 223.85,-34"/>
<polygon fill="midnightblue" stroke="midnightblue" points="197.657,-30.5001 187.657,-34 197.657,-37.5001 197.657,-30.5001"/>
</g>
<!-- Node3 -->
<g id="node5" class="node"><title>Node3</title>
<a xlink:href="../../db/d32/classmerge__lib_1_1_page.html#ae56102e8ba506d0ee2f2b28ad8e2cbdf" target="_top" xlink:title="merge_lib::Page::_getMerged\lPageContent">
<polygon fill="white" stroke="black" points="412,-17 412,-51 556,-51 556,-17 412,-17"/>
<text text-anchor="start" x="420" y="-38" font-family="Helvetica,sans-Serif" font-size="10.00">merge_lib::Page::_getMerged</text>
<text text-anchor="middle" x="484" y="-25" font-family="Helvetica,sans-Serif" font-size="10.00">PageContent</text>
</a>
</g>
<!-- Node2&#45;&gt;Node3 -->
<g id="edge4" class="edge"><title>Node2&#45;&gt;Node3</title>
<path fill="none" stroke="midnightblue" d="M386.441,-34C394.904,-34 403.43,-34 411.731,-34"/>
<polygon fill="midnightblue" stroke="midnightblue" points="386.168,-30.5001 376.168,-34 386.168,-37.5001 386.168,-30.5001"/>
</g>
<!-- Node4 -->
<g id="node7" class="node"><title>Node4</title>
<a xlink:href="../../db/d32/classmerge__lib_1_1_page.html#ab743f0a5867701d8be79af076f02a6fd" target="_top" xlink:title="merge_lib::Page::merge">
<polygon fill="white" stroke="black" points="592,-23.5 592,-44.5 712,-44.5 712,-23.5 592,-23.5"/>
<text text-anchor="middle" x="652" y="-31.5" font-family="Helvetica,sans-Serif" font-size="10.00">merge_lib::Page::merge</text>
</a>
</g>
<!-- Node3&#45;&gt;Node4 -->
<g id="edge6" class="edge"><title>Node3&#45;&gt;Node4</title>
<path fill="none" stroke="midnightblue" d="M566.332,-34C574.972,-34 583.635,-34 591.956,-34"/>
<polygon fill="midnightblue" stroke="midnightblue" points="566.222,-30.5001 556.222,-34 566.222,-37.5001 566.222,-30.5001"/>
</g>
<!-- Node5 -->
<g id="node9" class="node"><title>Node5</title>
<a xlink:href="../../d8/d35/classmerge__lib_1_1_merger.html#a02c1f126ae84b8c2f00ed7adf411124a" target="_top" xlink:title="merge_lib::Merger:\l:merge">
<polygon fill="white" stroke="black" points="748,-17 748,-51 846,-51 846,-17 748,-17"/>
<text text-anchor="start" x="756" y="-38" font-family="Helvetica,sans-Serif" font-size="10.00">merge_lib::Merger:</text>
<text text-anchor="middle" x="797" y="-25" font-family="Helvetica,sans-Serif" font-size="10.00">:merge</text>
</a>
</g>
<!-- Node4&#45;&gt;Node5 -->
<g id="edge8" class="edge"><title>Node4&#45;&gt;Node5</title>
<path fill="none" stroke="midnightblue" d="M722.29,-34C730.897,-34 739.547,-34 747.752,-34"/>
<polygon fill="midnightblue" stroke="midnightblue" points="722.233,-30.5001 712.233,-34 722.233,-37.5001 722.233,-30.5001"/>
</g>
<!-- Node6 -->
<g id="node11" class="node"><title>Node6</title>
<a xlink:href="../../d6/d54/class_u_b_export_full_p_d_f.html#a2101b6fdc6ed273a6e2c062d5ce7e12c" target="_top" xlink:title="UBExportFullPDF::persists\lDocument">
<polygon fill="white" stroke="black" points="882,-17 882,-51 1018,-51 1018,-17 882,-17"/>
<text text-anchor="start" x="890" y="-38" font-family="Helvetica,sans-Serif" font-size="10.00">UBExportFullPDF::persists</text>
<text text-anchor="middle" x="950" y="-25" font-family="Helvetica,sans-Serif" font-size="10.00">Document</text>
</a>
</g>
<!-- Node5&#45;&gt;Node6 -->
<g id="edge10" class="edge"><title>Node5&#45;&gt;Node6</title>
<path fill="none" stroke="midnightblue" d="M856.302,-34C864.684,-34 873.355,-34 881.886,-34"/>
<polygon fill="midnightblue" stroke="midnightblue" points="856.252,-30.5001 846.252,-34 856.252,-37.5001 856.252,-30.5001"/>
</g>
<!-- Node7 -->
<g id="node13" class="node"><title>Node7</title>
<a xlink:href="../../da/d3c/class_u_b_document_publisher.html#ac6a7b91093faed242e6b99280adca16b" target="_top" xlink:title="UBDocumentPublisher\l::buildUbwFile">
<polygon fill="white" stroke="black" points="1062,-40 1062,-74 1178,-74 1178,-40 1062,-40"/>
<text text-anchor="start" x="1070" y="-61" font-family="Helvetica,sans-Serif" font-size="10.00">UBDocumentPublisher</text>
<text text-anchor="middle" x="1120" y="-48" font-family="Helvetica,sans-Serif" font-size="10.00">::buildUbwFile</text>
</a>
</g>
<!-- Node6&#45;&gt;Node7 -->
<g id="edge12" class="edge"><title>Node6&#45;&gt;Node7</title>
<path fill="none" stroke="midnightblue" d="M1028.11,-44.5675C1039.49,-46.1078 1051.04,-47.6705 1061.94,-49.1443"/>
<polygon fill="midnightblue" stroke="midnightblue" points="1028.54,-41.0949 1018.17,-43.2225 1027.61,-48.0317 1028.54,-41.0949"/>
</g>
<!-- Node10 -->
<g id="node19" class="node"><title>Node10</title>
<a xlink:href="../../d6/d54/class_u_b_export_full_p_d_f.html#a8c0bd950f21f469ce17daa1add9a75bf" target="_top" xlink:title="UBExportFullPDF::persist">
<polygon fill="white" stroke="black" points="1054.5,-0.5 1054.5,-21.5 1185.5,-21.5 1185.5,-0.5 1054.5,-0.5"/>
<text text-anchor="middle" x="1120" y="-8.5" font-family="Helvetica,sans-Serif" font-size="10.00">UBExportFullPDF::persist</text>
</a>
</g>
<!-- Node6&#45;&gt;Node10 -->
<g id="edge18" class="edge"><title>Node6&#45;&gt;Node10</title>
<path fill="none" stroke="midnightblue" d="M1028.31,-23.4055C1037,-22.2292 1045.79,-21.0401 1054.31,-19.888"/>
<polygon fill="midnightblue" stroke="midnightblue" points="1027.61,-19.9683 1018.17,-24.7775 1028.54,-26.9051 1027.61,-19.9683"/>
</g>
<!-- Node8 -->
<g id="node15" class="node"><title>Node8</title>
<a xlink:href="../../da/d3c/class_u_b_document_publisher.html#adca541347ad643ceea47eeb3f48bc24a" target="_top" xlink:title="UBDocumentPublisher\l::publish">
<polygon fill="white" stroke="black" points="1222,-40 1222,-74 1338,-74 1338,-40 1222,-40"/>
<text text-anchor="start" x="1230" y="-61" font-family="Helvetica,sans-Serif" font-size="10.00">UBDocumentPublisher</text>
<text text-anchor="middle" x="1280" y="-48" font-family="Helvetica,sans-Serif" font-size="10.00">::publish</text>
</a>
</g>
<!-- Node7&#45;&gt;Node8 -->
<g id="edge14" class="edge"><title>Node7&#45;&gt;Node8</title>
<path fill="none" stroke="midnightblue" d="M1188.34,-57C1199.49,-57 1210.95,-57 1221.83,-57"/>
<polygon fill="midnightblue" stroke="midnightblue" points="1188.22,-53.5001 1178.22,-57 1188.22,-60.5001 1188.22,-53.5001"/>
</g>
<!-- Node9 -->
<g id="node17" class="node"><title>Node9</title>
<a xlink:href="../../de/d5f/class_u_b_web_publisher.html#acf1964056e5008ca164f974cc55e8b24" target="_top" xlink:title="UBWebPublisher::persist">
<polygon fill="white" stroke="black" points="1374.5,-46.5 1374.5,-67.5 1501.5,-67.5 1501.5,-46.5 1374.5,-46.5"/>
<text text-anchor="middle" x="1438" y="-54.5" font-family="Helvetica,sans-Serif" font-size="10.00">UBWebPublisher::persist</text>
</a>
</g>
<!-- Node8&#45;&gt;Node9 -->
<g id="edge16" class="edge"><title>Node8&#45;&gt;Node9</title>
<path fill="none" stroke="midnightblue" d="M1348.66,-57C1357.17,-57 1365.84,-57 1374.28,-57"/>
<polygon fill="midnightblue" stroke="midnightblue" points="1348.38,-53.5001 1338.38,-57 1348.38,-60.5001 1348.38,-53.5001"/>
</g>
</g>
</svg>
