<?xml version="1.0" encoding="UTF-8" standalone="no"?>
<!DOCTYPE svg PUBLIC "-//W3C//DTD SVG 1.1//EN"
 "http://www.w3.org/Graphics/SVG/1.1/DTD/svg11.dtd">
<!-- Generated by graphviz version 2.26.3 (20100126.1600)
 -->
<!-- Title: UBGraphicsDelegateFrame::buildTransform Pages: 1 -->
<!--zoomable 159 -->
<svg id="main" version="1.1" xmlns="http://www.w3.org/2000/svg" xmlns:xlink="http://www.w3.org/1999/xlink" xml:space="preserve" onload="init(evt)">
        <defs>
                <circle id="rim" cx="0" cy="0" r="7"/>
                <circle id="rim2" cx="0" cy="0" r="3.5"/>
                <g id="zoomPlus">
                        <use xlink:href="#rim" fill="#404040">
                                <set attributeName="fill" to="#808080" begin="zoomplus.mouseover" end="zoomplus.mouseout"/>
                        </use>
                        <path d="M-4,0h8M0,-4v8" fill="none" stroke="white" stroke-width="1.5" pointer-events="none"/>
                </g>
                <g id="zoomMin">
                        <use xlink:href="#rim" fill="#404040">
                                <set attributeName="fill" to="#808080" begin="zoomminus.mouseover" end="zoomminus.mouseout"/>
                        </use>
                        <path d="M-4,0h8" fill="none" stroke="white" stroke-width="1.5" pointer-events="none"/>
                </g>
                <g id="dirArrow">
                        <path fill="none" stroke="white" stroke-width="1.5" d="M0,-3.0v7 M-2.5,-0.5L0,-3.0L2.5,-0.5"/>
                </g>
               <g id="resetDef">
                       <use xlink:href="#rim2" fill="#404040">
                               <set attributeName="fill" to="#808080" begin="reset.mouseover" end="reset.mouseout"/>
                       </use>
               </g>
        </defs>

<script type="text/javascript">
var viewWidth = 676;
var viewHeight = 159;
var sectionId = 'dynsection-5';
</script>
<script xlink:href="../../svgpan.js"/>
<svg id="graph" class="graph">
<g id="viewport">
<title>UBGraphicsDelegateFrame::buildTransform</title>
<polygon fill="white" stroke="white" points="-4,5 -4,-154.983 673,-154.983 673,5 -4,5"/>
<!-- Node1 -->
<g id="node1" class="node"><title>Node1</title>
<polygon fill="#bfbfbf" stroke="black" points="0.5,-83 0.5,-117 137.5,-117 137.5,-83 0.5,-83"/>
<text text-anchor="start" x="8.5" y="-104" font-family="Helvetica,sans-Serif" font-size="10.00">UBGraphicsDelegateFrame</text>
<text text-anchor="middle" x="69" y="-91" font-family="Helvetica,sans-Serif" font-size="10.00">::buildTransform</text>
</g>
<!-- Node2 -->
<g id="node3" class="node"><title>Node2</title>
<a xlink:href="../../d5/ded/class_u_b_graphics_delegate_frame.html#aadfb632f3727cd11b51d25dfb40bb93b" target="_top" xlink:title="UBGraphicsDelegateFrame\l::mousePressEvent">
<polygon fill="white" stroke="black" points="530.5,-83 530.5,-117 667.5,-117 667.5,-83 530.5,-83"/>
<text text-anchor="start" x="538.5" y="-104" font-family="Helvetica,sans-Serif" font-size="10.00">UBGraphicsDelegateFrame</text>
<text text-anchor="middle" x="599" y="-91" font-family="Helvetica,sans-Serif" font-size="10.00">::mousePressEvent</text>
</a>
</g>
<!-- Node1&#45;&gt;Node2 -->
<g id="edge2" class="edge"><title>Node1&#45;&gt;Node2</title>
<path fill="none" stroke="midnightblue" d="M134.007,-119.618C147.14,-122.933 160.929,-125.957 174,-128 314.573,-149.966 353.758,-160.986 494,-137 516.671,-133.122 540.953,-124.855 560.45,-117.116"/>
<polygon fill="midnightblue" stroke="midnightblue" points="134.675,-116.175 124.115,-117.037 132.908,-122.948 134.675,-116.175"/>
</g>
<!-- Node3 -->
<g id="node5" class="node"><title>Node3</title>
<a xlink:href="../../d5/ded/class_u_b_graphics_delegate_frame.html#a344fb33c44bb0e803771f0b676553cb7" target="_top" xlink:title="UBGraphicsDelegateFrame\l::mouseMoveEvent">
<polygon fill="white" stroke="black" points="356.5,-94 356.5,-128 493.5,-128 493.5,-94 356.5,-94"/>
<text text-anchor="start" x="364.5" y="-115" font-family="Helvetica,sans-Serif" font-size="10.00">UBGraphicsDelegateFrame</text>
<text text-anchor="middle" x="425" y="-102" font-family="Helvetica,sans-Serif" font-size="10.00">::mouseMoveEvent</text>
</a>
</g>
<!-- Node1&#45;&gt;Node3 -->
<g id="edge4" class="edge"><title>Node1&#45;&gt;Node3</title>
<path fill="none" stroke="midnightblue" d="M147.53,-110.792C156.444,-111.699 165.408,-112.47 174,-113 235.654,-116.802 305.987,-115.781 356.484,-114.111"/>
<polygon fill="midnightblue" stroke="midnightblue" points="147.828,-107.304 137.511,-109.716 147.08,-114.264 147.828,-107.304"/>
</g>
<!-- Node4 -->
<g id="node7" class="node"><title>Node4</title>
<a xlink:href="../../d5/ded/class_u_b_graphics_delegate_frame.html#ada4ba3478789779bdc21e2499878ea4c" target="_top" xlink:title="UBGraphicsDelegateFrame\l::prepareLinkedFrameToMove">
<polygon fill="white" stroke="black" points="174,-0 174,-34 320,-34 320,-0 174,-0"/>
<text text-anchor="start" x="182" y="-21" font-family="Helvetica,sans-Serif" font-size="10.00">UBGraphicsDelegateFrame</text>
<text text-anchor="middle" x="247" y="-8" font-family="Helvetica,sans-Serif" font-size="10.00">::prepareLinkedFrameToMove</text>
</a>
</g>
<!-- Node1&#45;&gt;Node4 -->
<g id="edge6" class="edge"><title>Node1&#45;&gt;Node4</title>
<path fill="none" stroke="midnightblue" d="M106.483,-77.81C126.204,-66.6108 151.004,-53.2625 174,-43 181.003,-39.8749 188.506,-36.8524 195.94,-34.0419"/>
<polygon fill="midnightblue" stroke="midnightblue" points="104.739,-74.7755 97.8046,-82.7856 108.221,-80.8483 104.739,-74.7755"/>
</g>
<!-- Node6 -->
<g id="node12" class="node"><title>Node6</title>
<a xlink:href="../../d5/ded/class_u_b_graphics_delegate_frame.html#ac1bcd11a24c51e5702bbfc9ab648ddfa" target="_top" xlink:title="UBGraphicsDelegateFrame\l::moveLinkedItems">
<polygon fill="white" stroke="black" points="178.5,-52 178.5,-86 315.5,-86 315.5,-52 178.5,-52"/>
<text text-anchor="start" x="186.5" y="-73" font-family="Helvetica,sans-Serif" font-size="10.00">UBGraphicsDelegateFrame</text>
<text text-anchor="middle" x="247" y="-60" font-family="Helvetica,sans-Serif" font-size="10.00">::moveLinkedItems</text>
</a>
</g>
<!-- Node1&#45;&gt;Node6 -->
<g id="edge12" class="edge"><title>Node1&#45;&gt;Node6</title>
<path fill="none" stroke="midnightblue" d="M147.73,-86.2886C157.977,-84.504 168.408,-82.6873 178.47,-80.9349"/>
<polygon fill="midnightblue" stroke="midnightblue" points="146.816,-82.895 137.565,-88.0589 148.017,-89.7912 146.816,-82.895"/>
</g>
<!-- Node5 -->
<g id="node9" class="node"><title>Node5</title>
<a xlink:href="../../d5/ded/class_u_b_graphics_delegate_frame.html#a45186f8e85cce27069b9d906448041c1" target="_top" xlink:title="UBGraphicsDelegateFrame\l::prepareFramesToMove">
<polygon fill="white" stroke="black" points="356.5,-14 356.5,-48 493.5,-48 493.5,-14 356.5,-14"/>
<text text-anchor="start" x="364.5" y="-35" font-family="Helvetica,sans-Serif" font-size="10.00">UBGraphicsDelegateFrame</text>
<text text-anchor="middle" x="425" y="-22" font-family="Helvetica,sans-Serif" font-size="10.00">::prepareFramesToMove</text>
</a>
</g>
<!-- Node4&#45;&gt;Node5 -->
<g id="edge8" class="edge"><title>Node4&#45;&gt;Node5</title>
<path fill="none" stroke="midnightblue" d="M330.357,-23.5562C339.08,-24.2423 347.876,-24.9341 356.408,-25.6051"/>
<polygon fill="midnightblue" stroke="midnightblue" points="330.414,-20.0499 320.17,-22.7549 329.865,-27.0284 330.414,-20.0499"/>
</g>
<!-- Node5&#45;&gt;Node2 -->
<g id="edge10" class="edge"><title>Node5&#45;&gt;Node2</title>
<path fill="none" stroke="midnightblue" d="M477.377,-51.7702C502.458,-61.716 532.125,-73.4808 555.881,-82.9009"/>
<polygon fill="midnightblue" stroke="midnightblue" points="478.597,-48.489 468.011,-48.0562 476.017,-54.996 478.597,-48.489"/>
</g>
<!-- Node6&#45;&gt;Node3 -->
<g id="edge14" class="edge"><title>Node6&#45;&gt;Node3</title>
<path fill="none" stroke="midnightblue" d="M325.41,-87.5012C335.76,-89.9433 346.304,-92.4312 356.47,-94.8301"/>
<polygon fill="midnightblue" stroke="midnightblue" points="326.101,-84.0683 315.565,-85.1782 324.494,-90.8812 326.101,-84.0683"/>
</g>
<!-- Node6&#45;&gt;Node6 -->
<g id="edge16" class="edge"><title>Node6&#45;&gt;Node6</title>
<path fill="none" stroke="midnightblue" d="M216.002,-96.3176C220.354,-100.864 230.687,-104 247,-104 273.77,-104 284.436,-95.5562 278.998,-86.2878"/>
<polygon fill="midnightblue" stroke="midnightblue" points="219.476,-95.8914 215.002,-86.2878 212.511,-96.5856 219.476,-95.8914"/>
</g>
</g>
</svg>
        <g id="navigator" transform="translate(0 0)" fill="#404254">
                <rect fill="#f2f5e9" fill-opacity="0.5" stroke="#606060" stroke-width=".5" x="0" y="0" width="60" height="60"/>
                <use id="zoomplus" xlink:href="#zoomPlus" x="17" y="9" onmousedown="handleZoom(evt,'in')"/>
                <use id="zoomminus" xlink:href="#zoomMin" x="42" y="9" onmousedown="handleZoom(evt,'out')"/>
                <use id="reset" xlink:href="#resetDef" x="30" y="36" onmousedown="handleReset()"/>
                <g id="arrowUp" xlink:href="#dirArrow" transform="translate(30 24)" onmousedown="handlePan(0,-1)">
                  <use xlink:href="#rim" fill="#404040">
                        <set attributeName="fill" to="#808080" begin="arrowUp.mouseover" end="arrowUp.mouseout"/>
                  </use>
                  <path fill="none" stroke="white" stroke-width="1.5" d="M0,-3.0v7 M-2.5,-0.5L0,-3.0L2.5,-0.5"/>
                </g>
                <g id="arrowRight" xlink:href="#dirArrow" transform="rotate(90) translate(36 -43)" onmousedown="handlePan(1,0)">
                  <use xlink:href="#rim" fill="#404040">
                        <set attributeName="fill" to="#808080" begin="arrowRight.mouseover" end="arrowRight.mouseout"/>
                  </use>
                  <path fill="none" stroke="white" stroke-width="1.5" d="M0,-3.0v7 M-2.5,-0.5L0,-3.0L2.5,-0.5"/>
                </g>
                <g id="arrowDown" xlink:href="#dirArrow" transform="rotate(180) translate(-30 -48)" onmousedown="handlePan(0,1)">
                  <use xlink:href="#rim" fill="#404040">
                        <set attributeName="fill" to="#808080" begin="arrowDown.mouseover" end="arrowDown.mouseout"/>
                  </use>
                  <path fill="none" stroke="white" stroke-width="1.5" d="M0,-3.0v7 M-2.5,-0.5L0,-3.0L2.5,-0.5"/>
                </g>
                <g id="arrowLeft" xlink:href="#dirArrow" transform="rotate(270) translate(-36 17)" onmousedown="handlePan(-1,0)">
                  <use xlink:href="#rim" fill="#404040">
                        <set attributeName="fill" to="#808080" begin="arrowLeft.mouseover" end="arrowLeft.mouseout"/>
                  </use>
                  <path fill="none" stroke="white" stroke-width="1.5" d="M0,-3.0v7 M-2.5,-0.5L0,-3.0L2.5,-0.5"/>
                </g>
        </g>
        <svg viewBox="0 0 15 15" width="100%" height="30px" preserveAspectRatio="xMaxYMin meet">
         <g id="arrow_out" transform="scale(0.3 0.3)">
          <a xlink:href="class_u_b_graphics_delegate_frame_aad0f6d6728d0b5f2bf386d29a24bd735_icgraph_org.svg" target="_base">
           <rect id="button" ry="5" rx="5" y="6" x="6" height="38" width="38"
                fill="#f2f5e9" fill-opacity="0.5" stroke="#606060" stroke-width="1.0"/>
           <path id="arrow"
             d="M 11.500037,31.436501 C 11.940474,20.09759 22.043105,11.32322 32.158766,21.979434 L 37.068811,17.246167 C 37.068811,17.246167 37.088388,32 37.088388,32 L 22.160133,31.978069 C 22.160133,31.978069 26.997745,27.140456 26.997745,27.140456 C 18.528582,18.264221 13.291696,25.230495 11.500037,31.436501 z"
             style="fill:#404040;"/>
          </a>
         </g>
        </svg>
</svg>
