<?xml version="1.0" encoding="UTF-8" standalone="no"?>
<!DOCTYPE svg PUBLIC "-//W3C//DTD SVG 1.1//EN"
 "http://www.w3.org/Graphics/SVG/1.1/DTD/svg11.dtd">
<!-- Generated by graphviz version 2.26.3 (20100126.1600)
 -->
<!-- Title: UBWidgetUniboardAPI::showMessage Pages: 1 -->
<svg width="962pt" height="174pt"
 viewBox="0.00 0.00 962.00 174.00" xmlns="http://www.w3.org/2000/svg" xmlns:xlink="http://www.w3.org/1999/xlink">
<g id="graph1" class="graph" transform="scale(1 1) rotate(0) translate(4 170)">
<title>UBWidgetUniboardAPI::showMessage</title>
<polygon fill="white" stroke="white" points="-4,5 -4,-170 959,-170 959,5 -4,5"/>
<!-- Node1 -->
<g id="node1" class="node"><title>Node1</title>
<polygon fill="#bfbfbf" stroke="black" points="0.5,-98 0.5,-132 117.5,-132 117.5,-98 0.5,-98"/>
<text text-anchor="start" x="8.5" y="-119" font-family="Helvetica,sans-Serif" font-size="10.00">UBWidgetUniboardAPI</text>
<text text-anchor="middle" x="59" y="-106" font-family="Helvetica,sans-Serif" font-size="10.00">::showMessage</text>
</g>
<!-- Node2 -->
<g id="node3" class="node"><title>Node2</title>
<a xlink:href="../../d7/d62/class_u_b_board_controller.html#a71ff510e4ce1e3a753f074a0e7438a00" target="_top" xlink:title="UBBoardController:\l:showMessage">
<polygon fill="white" stroke="black" points="154.5,-98 154.5,-132 255.5,-132 255.5,-98 154.5,-98"/>
<text text-anchor="start" x="162.5" y="-119" font-family="Helvetica,sans-Serif" font-size="10.00">UBBoardController:</text>
<text text-anchor="middle" x="205" y="-106" font-family="Helvetica,sans-Serif" font-size="10.00">:showMessage</text>
</a>
</g>
<!-- Node1&#45;&gt;Node2 -->
<g id="edge2" class="edge"><title>Node1&#45;&gt;Node2</title>
<path fill="none" stroke="midnightblue" d="M117.543,-115C126.324,-115 135.396,-115 144.222,-115"/>
<polygon fill="midnightblue" stroke="midnightblue" points="144.439,-118.5 154.439,-115 144.439,-111.5 144.439,-118.5"/>
</g>
<!-- Node3 -->
<g id="node5" class="node"><title>Node3</title>
<a xlink:href="../../d5/d02/class_u_b_message_window.html#a8c6e3ff66e94a5ff2e11ebf52d5a8b35" target="_top" xlink:title="UBMessageWindow::showMessage">
<polygon fill="white" stroke="black" points="292.5,-104.5 292.5,-125.5 467.5,-125.5 467.5,-104.5 292.5,-104.5"/>
<text text-anchor="middle" x="380" y="-112.5" font-family="Helvetica,sans-Serif" font-size="10.00">UBMessageWindow::showMessage</text>
</a>
</g>
<!-- Node2&#45;&gt;Node3 -->
<g id="edge4" class="edge"><title>Node2&#45;&gt;Node3</title>
<path fill="none" stroke="midnightblue" d="M255.617,-115C263.978,-115 272.889,-115 281.954,-115"/>
<polygon fill="midnightblue" stroke="midnightblue" points="282.232,-118.5 292.232,-115 282.232,-111.5 282.232,-118.5"/>
</g>
<!-- Node4 -->
<g id="node7" class="node"><title>Node4</title>
<a xlink:href="../../d6/da4/class_u_b_spinning_wheel.html#acbcc339c4ad8ac331812ef58581e8264" target="_top" xlink:title="UBSpinningWheel::startAnimation">
<polygon fill="white" stroke="black" points="504.5,-144.5 504.5,-165.5 669.5,-165.5 669.5,-144.5 504.5,-144.5"/>
<text text-anchor="middle" x="587" y="-152.5" font-family="Helvetica,sans-Serif" font-size="10.00">UBSpinningWheel::startAnimation</text>
</a>
</g>
<!-- Node3&#45;&gt;Node4 -->
<g id="edge6" class="edge"><title>Node3&#45;&gt;Node4</title>
<path fill="none" stroke="midnightblue" d="M434.387,-125.51C461.378,-130.725 494.17,-137.062 522.43,-142.523"/>
<polygon fill="midnightblue" stroke="midnightblue" points="522.135,-146.03 532.617,-144.491 523.463,-139.158 522.135,-146.03"/>
</g>
<!-- Node5 -->
<g id="node9" class="node"><title>Node5</title>
<a xlink:href="../../d6/da4/class_u_b_spinning_wheel.html#afce6e8912a9ea4ce878ea2a0dcd47d7e" target="_top" xlink:title="UBSpinningWheel::stopAnimation">
<polygon fill="white" stroke="black" points="505,-104.5 505,-125.5 669,-125.5 669,-104.5 505,-104.5"/>
<text text-anchor="middle" x="587" y="-112.5" font-family="Helvetica,sans-Serif" font-size="10.00">UBSpinningWheel::stopAnimation</text>
</a>
</g>
<!-- Node3&#45;&gt;Node5 -->
<g id="edge8" class="edge"><title>Node3&#45;&gt;Node5</title>
<path fill="none" stroke="midnightblue" d="M467.787,-115C476.673,-115 485.718,-115 494.651,-115"/>
<polygon fill="midnightblue" stroke="midnightblue" points="494.675,-118.5 504.675,-115 494.675,-111.5 494.675,-118.5"/>
</g>
<!-- Node6 -->
<g id="node11" class="node"><title>Node6</title>
<a xlink:href="../../d1/d97/class_u_b_floating_palette.html#abc34a1ea7b29b6aaa4a0ea25d5715210" target="_top" xlink:title="UBFloatingPalette:\l:adjustSizeAndPosition">
<polygon fill="white" stroke="black" points="528,-52 528,-86 646,-86 646,-52 528,-52"/>
<text text-anchor="start" x="536" y="-73" font-family="Helvetica,sans-Serif" font-size="10.00">UBFloatingPalette:</text>
<text text-anchor="middle" x="587" y="-60" font-family="Helvetica,sans-Serif" font-size="10.00">:adjustSizeAndPosition</text>
</a>
</g>
<!-- Node3&#45;&gt;Node6 -->
<g id="edge10" class="edge"><title>Node3&#45;&gt;Node6</title>
<path fill="none" stroke="midnightblue" d="M427.49,-104.447C454.3,-98.4889 488.285,-90.9367 517.99,-84.3355"/>
<polygon fill="midnightblue" stroke="midnightblue" points="518.881,-87.7231 527.883,-82.137 517.362,-80.8897 518.881,-87.7231"/>
</g>
<!-- Node7 -->
<g id="node13" class="node"><title>Node7</title>
<a xlink:href="../../d1/d97/class_u_b_floating_palette.html#aec5822b784da7d590ff463ed9cb44be9" target="_top" xlink:title="UBFloatingPalette:\l:preferredSize">
<polygon fill="white" stroke="black" points="706.5,-78 706.5,-112 805.5,-112 805.5,-78 706.5,-78"/>
<text text-anchor="start" x="714.5" y="-99" font-family="Helvetica,sans-Serif" font-size="10.00">UBFloatingPalette:</text>
<text text-anchor="middle" x="756" y="-86" font-family="Helvetica,sans-Serif" font-size="10.00">:preferredSize</text>
</a>
</g>
<!-- Node6&#45;&gt;Node7 -->
<g id="edge12" class="edge"><title>Node6&#45;&gt;Node7</title>
<path fill="none" stroke="midnightblue" d="M646.108,-78.0935C662.425,-80.6038 680.134,-83.3283 696.474,-85.8422"/>
<polygon fill="midnightblue" stroke="midnightblue" points="696.031,-89.3151 706.447,-87.3765 697.096,-82.3965 696.031,-89.3151"/>
</g>
<!-- Node8 -->
<g id="node15" class="node"><title>Node8</title>
<a xlink:href="../../d1/d97/class_u_b_floating_palette.html#a187ee35c53cfad79bb5b30dff1800732" target="_top" xlink:title="UBFloatingPalette:\l:moveInsideParent">
<polygon fill="white" stroke="black" points="706.5,-26 706.5,-60 805.5,-60 805.5,-26 706.5,-26"/>
<text text-anchor="start" x="714.5" y="-47" font-family="Helvetica,sans-Serif" font-size="10.00">UBFloatingPalette:</text>
<text text-anchor="middle" x="756" y="-34" font-family="Helvetica,sans-Serif" font-size="10.00">:moveInsideParent</text>
</a>
</g>
<!-- Node6&#45;&gt;Node8 -->
<g id="edge14" class="edge"><title>Node6&#45;&gt;Node8</title>
<path fill="none" stroke="midnightblue" d="M646.108,-59.9065C662.425,-57.3962 680.134,-54.6717 696.474,-52.1578"/>
<polygon fill="midnightblue" stroke="midnightblue" points="697.096,-55.6035 706.447,-50.6235 696.031,-48.6849 697.096,-55.6035"/>
</g>
<!-- Node9 -->
<g id="node17" class="node"><title>Node9</title>
<a xlink:href="../../d1/d97/class_u_b_floating_palette.html#a1902d37271315e9e06d6743752104f47" target="_top" xlink:title="UBFloatingPalette:\l:border">
<polygon fill="white" stroke="black" points="848.5,-52 848.5,-86 947.5,-86 947.5,-52 848.5,-52"/>
<text text-anchor="start" x="856.5" y="-73" font-family="Helvetica,sans-Serif" font-size="10.00">UBFloatingPalette:</text>
<text text-anchor="middle" x="898" y="-60" font-family="Helvetica,sans-Serif" font-size="10.00">:border</text>
</a>
</g>
<!-- Node8&#45;&gt;Node9 -->
<g id="edge16" class="edge"><title>Node8&#45;&gt;Node9</title>
<path fill="none" stroke="midnightblue" d="M805.665,-52.0935C816.197,-54.0219 827.419,-56.0768 838.281,-58.0655"/>
<polygon fill="midnightblue" stroke="midnightblue" points="837.656,-61.5093 848.123,-59.8676 838.917,-54.6238 837.656,-61.5093"/>
</g>
<!-- Node10 -->
<g id="node19" class="node"><title>Node10</title>
<a xlink:href="../../d1/d97/class_u_b_floating_palette.html#acf3ead0c3d8a3bde89b934ad208e9f9a" target="_top" xlink:title="UBFloatingPalette:\l:getParentRightOffset">
<polygon fill="white" stroke="black" points="842,-0 842,-34 954,-34 954,-0 842,-0"/>
<text text-anchor="start" x="850" y="-21" font-family="Helvetica,sans-Serif" font-size="10.00">UBFloatingPalette:</text>
<text text-anchor="middle" x="898" y="-8" font-family="Helvetica,sans-Serif" font-size="10.00">:getParentRightOffset</text>
</a>
</g>
<!-- Node8&#45;&gt;Node10 -->
<g id="edge18" class="edge"><title>Node8&#45;&gt;Node10</title>
<path fill="none" stroke="midnightblue" d="M805.665,-33.9065C814.149,-32.3531 823.081,-30.7176 831.911,-29.1008"/>
<polygon fill="midnightblue" stroke="midnightblue" points="832.602,-32.5326 841.808,-27.2887 831.341,-25.6471 832.602,-32.5326"/>
</g>
</g>
</svg>
