<?xml version="1.0" encoding="UTF-8" standalone="no"?>
<!DOCTYPE svg PUBLIC "-//W3C//DTD SVG 1.1//EN"
 "http://www.w3.org/Graphics/SVG/1.1/DTD/svg11.dtd">
<!-- Generated by graphviz version 2.26.3 (20100126.1600)
 -->
<!-- Title: UBBoardController::hideMessage Pages: 1 -->
<svg width="1402pt" height="1062pt"
 viewBox="0.00 0.00 1402.00 1062.00" xmlns="http://www.w3.org/2000/svg" xmlns:xlink="http://www.w3.org/1999/xlink">
<g id="graph1" class="graph" transform="scale(1 1) rotate(0) translate(4 1058)">
<title>UBBoardController::hideMessage</title>
<polygon fill="white" stroke="white" points="-4,5 -4,-1058 1399,-1058 1399,5 -4,5"/>
<!-- Node1 -->
<g id="node1" class="node"><title>Node1</title>
<polygon fill="#bfbfbf" stroke="black" points="0.5,-460 0.5,-494 101.5,-494 101.5,-460 0.5,-460"/>
<text text-anchor="start" x="8.5" y="-481" font-family="Helvetica,sans-Serif" font-size="10.00">UBBoardController:</text>
<text text-anchor="middle" x="51" y="-468" font-family="Helvetica,sans-Serif" font-size="10.00">:hideMessage</text>
</g>
<!-- Node2 -->
<g id="node3" class="node"><title>Node2</title>
<a xlink:href="../../da/d14/class_u_b_application_controller.html#aaefcc19888d509988d3e82b334d76830" target="_top" xlink:title="UBApplicationController\l::showMessage">
<polygon fill="white" stroke="black" points="138.5,-460 138.5,-494 259.5,-494 259.5,-460 138.5,-460"/>
<text text-anchor="start" x="146.5" y="-481" font-family="Helvetica,sans-Serif" font-size="10.00">UBApplicationController</text>
<text text-anchor="middle" x="199" y="-468" font-family="Helvetica,sans-Serif" font-size="10.00">::showMessage</text>
</a>
</g>
<!-- Node1&#45;&gt;Node2 -->
<g id="edge2" class="edge"><title>Node1&#45;&gt;Node2</title>
<path fill="none" stroke="midnightblue" d="M111.735,-477C120.566,-477 129.658,-477 138.484,-477"/>
<polygon fill="midnightblue" stroke="midnightblue" points="111.519,-473.5 101.519,-477 111.519,-480.5 111.519,-473.5"/>
</g>
<!-- Node3 -->
<g id="node5" class="node"><title>Node3</title>
<a xlink:href="../../d8/d81/class_u_b_application.html#afd12508537e75aaa6789431e60b60b44" target="_top" xlink:title="UBApplication::showMessage">
<polygon fill="white" stroke="black" points="296,-538.5 296,-559.5 444,-559.5 444,-538.5 296,-538.5"/>
<text text-anchor="middle" x="370" y="-546.5" font-family="Helvetica,sans-Serif" font-size="10.00">UBApplication::showMessage</text>
</a>
</g>
<!-- Node2&#45;&gt;Node3 -->
<g id="edge4" class="edge"><title>Node2&#45;&gt;Node3</title>
<path fill="none" stroke="midnightblue" d="M235.904,-499.354C253.623,-509.413 275.434,-520.832 296,-529 305.029,-532.586 314.926,-535.753 324.462,-538.448"/>
<polygon fill="midnightblue" stroke="midnightblue" points="237.45,-496.206 227.039,-494.243 233.954,-502.27 237.45,-496.206"/>
</g>
<!-- Node48 -->
<g id="node104" class="node"><title>Node48</title>
<a xlink:href="../../dd/d5a/class_u_b_document_tree_model.html#af71ae3d84f577bbee154dea3eb0fad66" target="_top" xlink:title="UBDocumentTreeModel\l::dropMimeData">
<polygon fill="white" stroke="black" points="309,-486 309,-520 431,-520 431,-486 309,-486"/>
<text text-anchor="start" x="317" y="-507" font-family="Helvetica,sans-Serif" font-size="10.00">UBDocumentTreeModel</text>
<text text-anchor="middle" x="370" y="-494" font-family="Helvetica,sans-Serif" font-size="10.00">::dropMimeData</text>
</a>
</g>
<!-- Node2&#45;&gt;Node48 -->
<g id="edge112" class="edge"><title>Node2&#45;&gt;Node48</title>
<path fill="none" stroke="midnightblue" d="M269.998,-487.795C282.902,-489.757 296.26,-491.788 308.85,-493.702"/>
<polygon fill="midnightblue" stroke="midnightblue" points="270.182,-484.283 259.77,-486.24 269.13,-491.203 270.182,-484.283"/>
</g>
<!-- Node49 -->
<g id="node106" class="node"><title>Node49</title>
<a xlink:href="../../da/d16/class_u_b_document_tree_view.html#a8364df11d6b3285ea0684673801b0b6c" target="_top" xlink:title="UBDocumentTreeView\l::dropEvent">
<polygon fill="white" stroke="black" points="311.5,-434 311.5,-468 428.5,-468 428.5,-434 311.5,-434"/>
<text text-anchor="start" x="319.5" y="-455" font-family="Helvetica,sans-Serif" font-size="10.00">UBDocumentTreeView</text>
<text text-anchor="middle" x="370" y="-442" font-family="Helvetica,sans-Serif" font-size="10.00">::dropEvent</text>
</a>
</g>
<!-- Node2&#45;&gt;Node49 -->
<g id="edge114" class="edge"><title>Node2&#45;&gt;Node49</title>
<path fill="none" stroke="midnightblue" d="M269.751,-466.243C283.618,-464.134 298.018,-461.945 311.434,-459.905"/>
<polygon fill="midnightblue" stroke="midnightblue" points="269.13,-462.797 259.77,-467.76 270.182,-469.717 269.13,-462.797"/>
</g>
<!-- Node50 -->
<g id="node108" class="node"><title>Node50</title>
<a xlink:href="../../d1/df2/class_u_b_document_tree_widget.html#aa309286550f7287e879b4e21b7036f22" target="_top" xlink:title="UBDocumentTreeWidget\l::dropEvent">
<polygon fill="white" stroke="black" points="307,-382 307,-416 433,-416 433,-382 307,-382"/>
<text text-anchor="start" x="315" y="-403" font-family="Helvetica,sans-Serif" font-size="10.00">UBDocumentTreeWidget</text>
<text text-anchor="middle" x="370" y="-390" font-family="Helvetica,sans-Serif" font-size="10.00">::dropEvent</text>
</a>
</g>
<!-- Node2&#45;&gt;Node50 -->
<g id="edge116" class="edge"><title>Node2&#45;&gt;Node50</title>
<path fill="none" stroke="midnightblue" d="M236.975,-454.886C254.61,-445.076 276.047,-433.791 296,-425 303.103,-421.871 310.711,-418.846 318.248,-416.034"/>
<polygon fill="midnightblue" stroke="midnightblue" points="235.129,-451.908 228.128,-459.86 238.56,-458.01 235.129,-451.908"/>
</g>
<!-- Node4 -->
<g id="node7" class="node"><title>Node4</title>
<a xlink:href="../../da/d3c/class_u_b_document_publisher.html#adca541347ad643ceea47eeb3f48bc24a" target="_top" xlink:title="UBDocumentPublisher\l::publish">
<polygon fill="white" stroke="black" points="508,-1020 508,-1054 624,-1054 624,-1020 508,-1020"/>
<text text-anchor="start" x="516" y="-1041" font-family="Helvetica,sans-Serif" font-size="10.00">UBDocumentPublisher</text>
<text text-anchor="middle" x="566" y="-1028" font-family="Helvetica,sans-Serif" font-size="10.00">::publish</text>
</a>
</g>
<!-- Node3&#45;&gt;Node4 -->
<g id="edge6" class="edge"><title>Node3&#45;&gt;Node4</title>
<path fill="none" stroke="midnightblue" d="M372.207,-569.761C381.225,-650.844 417.775,-944.935 480,-1011 487.486,-1018.95 497.308,-1024.49 507.629,-1028.36"/>
<polygon fill="midnightblue" stroke="midnightblue" points="375.682,-569.341 371.118,-559.78 368.723,-570.1 375.682,-569.341"/>
</g>
<!-- Node6 -->
<g id="node11" class="node"><title>Node6</title>
<a xlink:href="../../da/d3c/class_u_b_document_publisher.html#ab8e8d3cbfb56648b5789087b34ff98f1" target="_top" xlink:title="UBDocumentPublisher\l::rasterizeScenes">
<polygon fill="white" stroke="black" points="508,-968 508,-1002 624,-1002 624,-968 508,-968"/>
<text text-anchor="start" x="516" y="-989" font-family="Helvetica,sans-Serif" font-size="10.00">UBDocumentPublisher</text>
<text text-anchor="middle" x="566" y="-976" font-family="Helvetica,sans-Serif" font-size="10.00">::rasterizeScenes</text>
</a>
</g>
<!-- Node3&#45;&gt;Node6 -->
<g id="edge10" class="edge"><title>Node3&#45;&gt;Node6</title>
<path fill="none" stroke="midnightblue" d="M372.883,-569.794C383.704,-644.986 424.145,-901.359 480,-959 487.598,-966.841 497.471,-972.338 507.807,-976.187"/>
<polygon fill="midnightblue" stroke="midnightblue" points="376.321,-569.108 371.453,-559.698 369.39,-570.09 376.321,-569.108"/>
</g>
<!-- Node7 -->
<g id="node13" class="node"><title>Node7</title>
<a xlink:href="../../d8/d52/class_u_b_export_c_f_f.html#aa7f031dc0cbe1f50f93bcb5e12c7151c" target="_top" xlink:title="UBExportCFF::persist">
<polygon fill="white" stroke="black" points="509,-928.5 509,-949.5 623,-949.5 623,-928.5 509,-928.5"/>
<text text-anchor="middle" x="566" y="-936.5" font-family="Helvetica,sans-Serif" font-size="10.00">UBExportCFF::persist</text>
</a>
</g>
<!-- Node3&#45;&gt;Node7 -->
<g id="edge12" class="edge"><title>Node3&#45;&gt;Node7</title>
<path fill="none" stroke="midnightblue" d="M373.366,-569.695C385.241,-640.202 427.311,-869.405 480,-919 487.925,-926.46 498.069,-931.32 508.592,-934.449"/>
<polygon fill="midnightblue" stroke="midnightblue" points="376.813,-569.085 371.723,-559.794 369.907,-570.232 376.813,-569.085"/>
</g>
<!-- Node8 -->
<g id="node15" class="node"><title>Node8</title>
<a xlink:href="../../d9/d32/class_u_b_export_document.html#ae0688e605976d7cd3fbae96c826e3638" target="_top" xlink:title="UBExportDocument::persist">
<polygon fill="white" stroke="black" points="496,-888.5 496,-909.5 636,-909.5 636,-888.5 496,-888.5"/>
<text text-anchor="middle" x="566" y="-896.5" font-family="Helvetica,sans-Serif" font-size="10.00">UBExportDocument::persist</text>
</a>
</g>
<!-- Node3&#45;&gt;Node8 -->
<g id="edge14" class="edge"><title>Node3&#45;&gt;Node8</title>
<path fill="none" stroke="midnightblue" d="M374.121,-569.547C387.608,-634.797 432.308,-835.561 480,-879 484.646,-883.232 490.01,-886.622 495.743,-889.33"/>
<polygon fill="midnightblue" stroke="midnightblue" points="377.528,-568.738 372.099,-559.64 370.67,-570.138 377.528,-568.738"/>
</g>
<!-- Node9 -->
<g id="node17" class="node"><title>Node9</title>
<a xlink:href="../../d9/d32/class_u_b_export_document.html#a3793fcd1f227b97c4d314817d66463d1" target="_top" xlink:title="UBExportDocument::processing">
<polygon fill="white" stroke="black" points="487,-848.5 487,-869.5 645,-869.5 645,-848.5 487,-848.5"/>
<text text-anchor="middle" x="566" y="-856.5" font-family="Helvetica,sans-Serif" font-size="10.00">UBExportDocument::processing</text>
</a>
</g>
<!-- Node3&#45;&gt;Node9 -->
<g id="edge16" class="edge"><title>Node3&#45;&gt;Node9</title>
<path fill="none" stroke="midnightblue" d="M371.432,-569.958C376.264,-623.497 396.719,-766.196 480,-839 484.27,-842.733 489.102,-845.805 494.245,-848.328"/>
<polygon fill="midnightblue" stroke="midnightblue" points="374.895,-569.361 370.602,-559.675 367.918,-569.924 374.895,-569.361"/>
</g>
<!-- Node10 -->
<g id="node19" class="node"><title>Node10</title>
<a xlink:href="../../dc/d05/class_u_b_export_document_set_adaptor.html#af3a78eb86e3071bd91924e8d056a0823" target="_top" xlink:title="UBExportDocumentSetAdaptor\l::persist">
<polygon fill="white" stroke="black" points="489.5,-796 489.5,-830 642.5,-830 642.5,-796 489.5,-796"/>
<text text-anchor="start" x="497.5" y="-817" font-family="Helvetica,sans-Serif" font-size="10.00">UBExportDocumentSetAdaptor</text>
<text text-anchor="middle" x="566" y="-804" font-family="Helvetica,sans-Serif" font-size="10.00">::persist</text>
</a>
</g>
<!-- Node3&#45;&gt;Node10 -->
<g id="edge18" class="edge"><title>Node3&#45;&gt;Node10</title>
<path fill="none" stroke="midnightblue" d="M373.625,-569.602C382.803,-615.592 411.298,-727.261 480,-787 483.884,-790.377 488.196,-793.316 492.761,-795.873"/>
<polygon fill="midnightblue" stroke="midnightblue" points="377.036,-568.806 371.737,-559.632 370.159,-570.108 377.036,-568.806"/>
</g>
<!-- Node11 -->
<g id="node21" class="node"><title>Node11</title>
<a xlink:href="../../d6/d54/class_u_b_export_full_p_d_f.html#a8c0bd950f21f469ce17daa1add9a75bf" target="_top" xlink:title="UBExportFullPDF::persist">
<polygon fill="white" stroke="black" points="500.5,-756.5 500.5,-777.5 631.5,-777.5 631.5,-756.5 500.5,-756.5"/>
<text text-anchor="middle" x="566" y="-764.5" font-family="Helvetica,sans-Serif" font-size="10.00">UBExportFullPDF::persist</text>
</a>
</g>
<!-- Node3&#45;&gt;Node11 -->
<g id="edge20" class="edge"><title>Node3&#45;&gt;Node11</title>
<path fill="none" stroke="midnightblue" d="M375.936,-569.458C388.448,-608.916 421.32,-695.717 480,-742 487.935,-748.259 497.385,-752.951 507.069,-756.469"/>
<polygon fill="midnightblue" stroke="midnightblue" points="379.211,-568.198 372.942,-559.657 372.516,-570.243 379.211,-568.198"/>
</g>
<!-- Node12 -->
<g id="node23" class="node"><title>Node12</title>
<a xlink:href="../../d8/df1/class_u_b_export_p_d_f.html#a3bf65a44796339804e3beab23adfdc6f" target="_top" xlink:title="UBExportPDF::persist">
<polygon fill="white" stroke="black" points="704.5,-697.5 704.5,-718.5 819.5,-718.5 819.5,-697.5 704.5,-697.5"/>
<text text-anchor="middle" x="762" y="-705.5" font-family="Helvetica,sans-Serif" font-size="10.00">UBExportPDF::persist</text>
</a>
</g>
<!-- Node3&#45;&gt;Node12 -->
<g id="edge22" class="edge"><title>Node3&#45;&gt;Node12</title>
<path fill="none" stroke="midnightblue" d="M376.815,-569.349C390.102,-605.318 423.25,-679.148 480,-709 558.86,-750.483 668.123,-732.477 724.701,-718.601"/>
<polygon fill="midnightblue" stroke="midnightblue" points="380.099,-568.137 373.457,-559.882 373.501,-570.477 380.099,-568.137"/>
</g>
<!-- Node13 -->
<g id="node25" class="node"><title>Node13</title>
<a xlink:href="../../d8/df1/class_u_b_export_p_d_f.html#a2f2ecd2c4bde9f95f670157f6635ea7d" target="_top" xlink:title="UBExportPDF::persistsDocument">
<polygon fill="white" stroke="black" points="483.5,-678.5 483.5,-699.5 648.5,-699.5 648.5,-678.5 483.5,-678.5"/>
<text text-anchor="middle" x="566" y="-686.5" font-family="Helvetica,sans-Serif" font-size="10.00">UBExportPDF::persistsDocument</text>
</a>
</g>
<!-- Node3&#45;&gt;Node13 -->
<g id="edge24" class="edge"><title>Node3&#45;&gt;Node13</title>
<path fill="none" stroke="midnightblue" d="M382.041,-568.155C399.981,-595.032 436.341,-643.497 480,-669 486.486,-672.789 493.639,-675.86 500.968,-678.349"/>
<polygon fill="midnightblue" stroke="midnightblue" points="384.873,-566.09 376.482,-559.622 379.008,-569.911 384.873,-566.09"/>
</g>
<!-- Node14 -->
<g id="node28" class="node"><title>Node14</title>
<a xlink:href="../../de/d67/class_u_b_export_web.html#aefd31533540499d2023dc071262ebdd4" target="_top" xlink:title="UBExportWeb::persist">
<polygon fill="white" stroke="black" points="508.5,-638.5 508.5,-659.5 623.5,-659.5 623.5,-638.5 508.5,-638.5"/>
<text text-anchor="middle" x="566" y="-646.5" font-family="Helvetica,sans-Serif" font-size="10.00">UBExportWeb::persist</text>
</a>
</g>
<!-- Node3&#45;&gt;Node14 -->
<g id="edge28" class="edge"><title>Node3&#45;&gt;Node14</title>
<path fill="none" stroke="midnightblue" d="M388.684,-566.266C409.452,-584.529 444.734,-612.884 480,-629 488.923,-633.078 498.759,-636.366 508.495,-639.006"/>
<polygon fill="midnightblue" stroke="midnightblue" points="391,-563.641 381.215,-559.578 386.331,-568.856 391,-563.641"/>
</g>
<!-- Node15 -->
<g id="node30" class="node"><title>Node15</title>
<a xlink:href="../../db/d5b/class_u_b_import_c_f_f.html#a82cf29b094bc9fb0378d4a3b179bfb29" target="_top" xlink:title="UBImportCFF::addFileToDocument">
<polygon fill="white" stroke="black" points="480,-598.5 480,-619.5 652,-619.5 652,-598.5 480,-598.5"/>
<text text-anchor="middle" x="566" y="-606.5" font-family="Helvetica,sans-Serif" font-size="10.00">UBImportCFF::addFileToDocument</text>
</a>
</g>
<!-- Node3&#45;&gt;Node15 -->
<g id="edge30" class="edge"><title>Node3&#45;&gt;Node15</title>
<path fill="none" stroke="midnightblue" d="M405.986,-563.327C427.295,-571.498 454.943,-581.56 480,-589 491.609,-592.447 504.243,-595.671 516.163,-598.482"/>
<polygon fill="midnightblue" stroke="midnightblue" points="406.963,-559.953 396.374,-559.605 404.436,-566.48 406.963,-559.953"/>
</g>
<!-- Node16 -->
<g id="node32" class="node"><title>Node16</title>
<a xlink:href="../../db/d5b/class_u_b_import_c_f_f.html#a9130014d79eadf931ffa89af9d656a12" target="_top" xlink:title="UBImportCFF::importFile">
<polygon fill="white" stroke="black" points="502.5,-558.5 502.5,-579.5 629.5,-579.5 629.5,-558.5 502.5,-558.5"/>
<text text-anchor="middle" x="566" y="-566.5" font-family="Helvetica,sans-Serif" font-size="10.00">UBImportCFF::importFile</text>
</a>
</g>
<!-- Node3&#45;&gt;Node16 -->
<g id="edge32" class="edge"><title>Node3&#45;&gt;Node16</title>
<path fill="none" stroke="midnightblue" d="M454.092,-557.581C470.274,-559.232 486.973,-560.936 502.375,-562.508"/>
<polygon fill="midnightblue" stroke="midnightblue" points="454.403,-554.094 444.099,-556.561 453.692,-561.058 454.403,-554.094"/>
</g>
<!-- Node17 -->
<g id="node34" class="node"><title>Node17</title>
<a xlink:href="../../d9/df2/class_u_b_import_document.html#a8678037c772af1ff6e3cea1256e64c2e" target="_top" xlink:title="UBImportDocument::importFile">
<polygon fill="white" stroke="black" points="490,-518.5 490,-539.5 642,-539.5 642,-518.5 490,-518.5"/>
<text text-anchor="middle" x="566" y="-526.5" font-family="Helvetica,sans-Serif" font-size="10.00">UBImportDocument::importFile</text>
</a>
</g>
<!-- Node3&#45;&gt;Node17 -->
<g id="edge34" class="edge"><title>Node3&#45;&gt;Node17</title>
<path fill="none" stroke="midnightblue" d="M454.372,-540.391C466.159,-539.188 478.216,-537.958 489.84,-536.771"/>
<polygon fill="midnightblue" stroke="midnightblue" points="453.692,-536.942 444.099,-541.439 454.403,-543.906 453.692,-536.942"/>
</g>
<!-- Node18 -->
<g id="node36" class="node"><title>Node18</title>
<a xlink:href="../../d9/df2/class_u_b_import_document.html#a6af34839dc8c31633ab49270c4b8a434" target="_top" xlink:title="UBImportDocument::addFile\lToDocument">
<polygon fill="white" stroke="black" points="495.5,-466 495.5,-500 636.5,-500 636.5,-466 495.5,-466"/>
<text text-anchor="start" x="503.5" y="-487" font-family="Helvetica,sans-Serif" font-size="10.00">UBImportDocument::addFile</text>
<text text-anchor="middle" x="566" y="-474" font-family="Helvetica,sans-Serif" font-size="10.00">ToDocument</text>
</a>
</g>
<!-- Node3&#45;&gt;Node18 -->
<g id="edge36" class="edge"><title>Node3&#45;&gt;Node18</title>
<path fill="none" stroke="midnightblue" d="M425.745,-535.509C431.977,-533.538 438.173,-531.365 444,-529 460.96,-522.117 463.144,-516.133 480,-509 487.613,-505.778 495.76,-502.776 503.894,-500.04"/>
<polygon fill="midnightblue" stroke="midnightblue" points="424.545,-532.215 415.972,-538.441 426.556,-538.92 424.545,-532.215"/>
</g>
<!-- Node19 -->
<g id="node38" class="node"><title>Node19</title>
<a xlink:href="../../d4/d2f/class_u_b_import_p_d_f.html#ad6080898ff16b76d5f5df7841b8b9c61" target="_top" xlink:title="UBImportPDF::import">
<polygon fill="white" stroke="black" points="510,-426.5 510,-447.5 622,-447.5 622,-426.5 510,-426.5"/>
<text text-anchor="middle" x="566" y="-434.5" font-family="Helvetica,sans-Serif" font-size="10.00">UBImportPDF::import</text>
</a>
</g>
<!-- Node3&#45;&gt;Node19 -->
<g id="edge38" class="edge"><title>Node3&#45;&gt;Node19</title>
<path fill="none" stroke="midnightblue" d="M437.57,-533.577C439.818,-532.181 441.972,-530.659 444,-529 471.694,-506.349 451.909,-479.156 480,-457 488.545,-450.26 498.966,-445.72 509.564,-442.679"/>
<polygon fill="midnightblue" stroke="midnightblue" points="435.708,-530.602 428.497,-538.364 438.975,-536.793 435.708,-530.602"/>
</g>
<!-- Node20 -->
<g id="node40" class="node"><title>Node20</title>
<a xlink:href="../../d2/da1/class_u_b_document_manager.html#aaa0b883c0aa4ae465e63df9af25fed1e" target="_top" xlink:title="UBDocumentManager:\l:importFile">
<polygon fill="white" stroke="black" points="508,-374 508,-408 624,-408 624,-374 508,-374"/>
<text text-anchor="start" x="516" y="-395" font-family="Helvetica,sans-Serif" font-size="10.00">UBDocumentManager:</text>
<text text-anchor="middle" x="566" y="-382" font-family="Helvetica,sans-Serif" font-size="10.00">:importFile</text>
</a>
</g>
<!-- Node3&#45;&gt;Node20 -->
<g id="edge40" class="edge"><title>Node3&#45;&gt;Node20</title>
<path fill="none" stroke="midnightblue" d="M439.307,-532.951C440.95,-531.727 442.52,-530.412 444,-529 481.831,-492.908 442.708,-453.649 480,-417 487.676,-409.456 497.462,-404.09 507.663,-400.276"/>
<polygon fill="midnightblue" stroke="midnightblue" points="437.235,-530.117 430.56,-538.344 440.909,-536.076 437.235,-530.117"/>
</g>
<!-- Node27 -->
<g id="node54" class="node"><title>Node27</title>
<a xlink:href="../../d2/da1/class_u_b_document_manager.html#abd34b528df41737caedf2dd6e0661dd7" target="_top" xlink:title="UBDocumentManager:\l:addFilesToDocument">
<polygon fill="white" stroke="black" points="508,-284 508,-318 624,-318 624,-284 508,-284"/>
<text text-anchor="start" x="516" y="-305" font-family="Helvetica,sans-Serif" font-size="10.00">UBDocumentManager:</text>
<text text-anchor="middle" x="566" y="-292" font-family="Helvetica,sans-Serif" font-size="10.00">:addFilesToDocument</text>
</a>
</g>
<!-- Node3&#45;&gt;Node27 -->
<g id="edge54" class="edge"><title>Node3&#45;&gt;Node27</title>
<path fill="none" stroke="midnightblue" d="M440.158,-532.696C441.508,-531.543 442.792,-530.313 444,-529 504.264,-463.5 422.472,-399.915 480,-332 487.283,-323.402 497.142,-317.188 507.587,-312.698"/>
<polygon fill="midnightblue" stroke="midnightblue" points="438.026,-529.915 431.796,-538.484 442.01,-535.67 438.026,-529.915"/>
</g>
<!-- Node35 -->
<g id="node72" class="node"><title>Node35</title>
<a xlink:href="../../df/d50/class_u_b_web_controller.html#a318422dc0a027e2258180673bb333586" target="_top" xlink:title="UBWebController::capture\lEduMedia">
<polygon fill="white" stroke="black" points="1048.5,-343 1048.5,-377 1179.5,-377 1179.5,-343 1048.5,-343"/>
<text text-anchor="start" x="1056.5" y="-364" font-family="Helvetica,sans-Serif" font-size="10.00">UBWebController::capture</text>
<text text-anchor="middle" x="1114" y="-351" font-family="Helvetica,sans-Serif" font-size="10.00">EduMedia</text>
</a>
</g>
<!-- Node3&#45;&gt;Node35 -->
<g id="edge110" class="edge"><title>Node3&#45;&gt;Node35</title>
<path fill="none" stroke="midnightblue" d="M440.096,-532.638C441.464,-531.502 442.769,-530.291 444,-529 495.489,-474.985 422.035,-411.999 480,-365 501.776,-347.344 890.499,-354.625 1048.27,-358.333"/>
<polygon fill="midnightblue" stroke="midnightblue" points="437.974,-529.848 431.652,-538.349 441.896,-535.646 437.974,-529.848"/>
</g>
<!-- Node38 -->
<g id="node78" class="node"><title>Node38</title>
<a xlink:href="../../d2/da1/class_u_b_document_manager.html#a591b5c0ee721873fbcca06d26ce4e2fb" target="_top" xlink:title="UBDocumentManager:\l:importDir">
<polygon fill="white" stroke="black" points="884,-152 884,-186 1000,-186 1000,-152 884,-152"/>
<text text-anchor="start" x="892" y="-173" font-family="Helvetica,sans-Serif" font-size="10.00">UBDocumentManager:</text>
<text text-anchor="middle" x="942" y="-160" font-family="Helvetica,sans-Serif" font-size="10.00">:importDir</text>
</a>
</g>
<!-- Node3&#45;&gt;Node38 -->
<g id="edge88" class="edge"><title>Node3&#45;&gt;Node38</title>
<path fill="none" stroke="midnightblue" d="M440.682,-532.356C441.845,-531.301 442.953,-530.184 444,-529 519.507,-443.569 402.526,-358.652 480,-275 533.196,-217.562 588.292,-282.5 652,-237 676.998,-219.147 661.483,-193.507 688,-178 747.706,-143.084 829.524,-147.552 883.991,-156.265"/>
<polygon fill="midnightblue" stroke="midnightblue" points="438.344,-529.728 432.307,-538.435 442.456,-535.393 438.344,-529.728"/>
</g>
<!-- Node40 -->
<g id="node85" class="node"><title>Node40</title>
<a xlink:href="../../dc/db2/class_u_b_graphics_scene.html#a23ff2728419619904a2d7680c63cb0eb" target="_top" xlink:title="UBGraphicsScene::selection\lChangedProcessing">
<polygon fill="white" stroke="black" points="494.5,-194 494.5,-228 637.5,-228 637.5,-194 494.5,-194"/>
<text text-anchor="start" x="502.5" y="-215" font-family="Helvetica,sans-Serif" font-size="10.00">UBGraphicsScene::selection</text>
<text text-anchor="middle" x="566" y="-202" font-family="Helvetica,sans-Serif" font-size="10.00">ChangedProcessing</text>
</a>
</g>
<!-- Node3&#45;&gt;Node40 -->
<g id="edge90" class="edge"><title>Node3&#45;&gt;Node40</title>
<path fill="none" stroke="midnightblue" d="M440.708,-532.378C441.863,-531.317 442.963,-530.192 444,-529 528.361,-431.997 399.686,-342.379 480,-242 484.462,-236.423 490.012,-231.849 496.131,-228.098"/>
<polygon fill="midnightblue" stroke="midnightblue" points="438.366,-529.756 432.373,-538.493 442.506,-535.4 438.366,-529.756"/>
</g>
<!-- Node41 -->
<g id="node87" class="node"><title>Node41</title>
<a xlink:href="../../dc/d9f/class_u_b_intranet_podcast_publisher.html#a5bd46ab637671de895e047500f5eb975" target="_top" xlink:title="UBIntranetPodcastPublisher\l::postVideoPublishingRequest">
<polygon fill="white" stroke="black" points="688,-97 688,-131 836,-131 836,-97 688,-97"/>
<text text-anchor="start" x="696" y="-118" font-family="Helvetica,sans-Serif" font-size="10.00">UBIntranetPodcastPublisher</text>
<text text-anchor="middle" x="762" y="-105" font-family="Helvetica,sans-Serif" font-size="10.00">::postVideoPublishingRequest</text>
</a>
</g>
<!-- Node3&#45;&gt;Node41 -->
<g id="edge92" class="edge"><title>Node3&#45;&gt;Node41</title>
<path fill="none" stroke="midnightblue" d="M440.832,-532.323C441.944,-531.278 443.002,-530.171 444,-529 543.683,-411.977 377.622,-299.672 480,-185 532.139,-126.6 576.233,-166.706 652,-147 670.331,-142.232 690.206,-136.459 707.953,-131.082"/>
<polygon fill="midnightblue" stroke="midnightblue" points="438.689,-529.555 432.799,-538.362 442.895,-535.15 438.689,-529.555"/>
</g>
<!-- Node43 -->
<g id="node91" class="node"><title>Node43</title>
<a xlink:href="../../dc/d9f/class_u_b_intranet_podcast_publisher.html#acf2339af36b92c6d132dd15519c0b056" target="_top" xlink:title="UBIntranetPodcastPublisher\l::postVideoPublishingResponse">
<polygon fill="white" stroke="black" points="488.5,-104 488.5,-138 643.5,-138 643.5,-104 488.5,-104"/>
<text text-anchor="start" x="496.5" y="-125" font-family="Helvetica,sans-Serif" font-size="10.00">UBIntranetPodcastPublisher</text>
<text text-anchor="middle" x="566" y="-112" font-family="Helvetica,sans-Serif" font-size="10.00">::postVideoPublishingResponse</text>
</a>
</g>
<!-- Node3&#45;&gt;Node43 -->
<g id="edge96" class="edge"><title>Node3&#45;&gt;Node43</title>
<path fill="none" stroke="midnightblue" d="M440.846,-532.335C441.954,-531.286 443.008,-530.176 444,-529 498.282,-464.687 428.4,-218.484 480,-152 484.282,-146.483 489.632,-141.947 495.557,-138.218"/>
<polygon fill="midnightblue" stroke="midnightblue" points="438.7,-529.57 432.837,-538.394 442.923,-535.152 438.7,-529.57"/>
</g>
<!-- Node44 -->
<g id="node94" class="node"><title>Node44</title>
<a xlink:href="../../dc/d9f/class_u_b_intranet_podcast_publisher.html#a24244249b2bc37c59c4b72d17b490cf0" target="_top" xlink:title="UBIntranetPodcastPublisher\l::progress">
<polygon fill="white" stroke="black" points="496,-52 496,-86 636,-86 636,-52 496,-52"/>
<text text-anchor="start" x="504" y="-73" font-family="Helvetica,sans-Serif" font-size="10.00">UBIntranetPodcastPublisher</text>
<text text-anchor="middle" x="566" y="-60" font-family="Helvetica,sans-Serif" font-size="10.00">::progress</text>
</a>
</g>
<!-- Node3&#45;&gt;Node44 -->
<g id="edge100" class="edge"><title>Node3&#45;&gt;Node44</title>
<path fill="none" stroke="midnightblue" d="M440.866,-532.352C441.968,-531.298 443.015,-530.182 444,-529 505.959,-454.658 419.149,-170.251 480,-95 484.315,-89.6634 489.688,-85.3931 495.627,-81.9804"/>
<polygon fill="midnightblue" stroke="midnightblue" points="438.717,-529.589 432.888,-538.437 442.962,-535.155 438.717,-529.589"/>
</g>
<!-- Node45 -->
<g id="node97" class="node"><title>Node45</title>
<a xlink:href="../../d9/def/class_u_b_podcast_controller.html#a5a64c306dc45b1279641b03b202ed501" target="_top" xlink:title="UBPodcastController\l::start">
<polygon fill="white" stroke="black" points="511.5,-0 511.5,-34 620.5,-34 620.5,-0 511.5,-0"/>
<text text-anchor="start" x="519.5" y="-21" font-family="Helvetica,sans-Serif" font-size="10.00">UBPodcastController</text>
<text text-anchor="middle" x="566" y="-8" font-family="Helvetica,sans-Serif" font-size="10.00">::start</text>
</a>
</g>
<!-- Node3&#45;&gt;Node45 -->
<g id="edge104" class="edge"><title>Node3&#45;&gt;Node45</title>
<path fill="none" stroke="midnightblue" d="M440.881,-532.364C441.978,-531.306 443.02,-530.186 444,-529 512.967,-445.504 412.278,-127.509 480,-43 487.901,-33.1408 499.412,-26.9177 511.457,-23.0167"/>
<polygon fill="midnightblue" stroke="midnightblue" points="438.728,-529.603 432.925,-538.468 442.989,-535.157 438.728,-529.603"/>
</g>
<!-- Node5 -->
<g id="node9" class="node"><title>Node5</title>
<a xlink:href="../../de/d5f/class_u_b_web_publisher.html#acf1964056e5008ca164f974cc55e8b24" target="_top" xlink:title="UBWebPublisher::persist">
<polygon fill="white" stroke="black" points="698.5,-1026.5 698.5,-1047.5 825.5,-1047.5 825.5,-1026.5 698.5,-1026.5"/>
<text text-anchor="middle" x="762" y="-1034.5" font-family="Helvetica,sans-Serif" font-size="10.00">UBWebPublisher::persist</text>
</a>
</g>
<!-- Node4&#45;&gt;Node5 -->
<g id="edge8" class="edge"><title>Node4&#45;&gt;Node5</title>
<path fill="none" stroke="midnightblue" d="M634.067,-1037C654.917,-1037 677.767,-1037 698.314,-1037"/>
<polygon fill="midnightblue" stroke="midnightblue" points="634.011,-1033.5 624.011,-1037 634.011,-1040.5 634.011,-1033.5"/>
</g>
<!-- Node13&#45;&gt;Node12 -->
<g id="edge26" class="edge"><title>Node13&#45;&gt;Node12</title>
<path fill="none" stroke="midnightblue" d="M658.707,-697.987C674.222,-699.491 689.914,-701.012 704.222,-702.399"/>
<polygon fill="midnightblue" stroke="midnightblue" points="658.845,-694.484 648.554,-697.003 658.169,-701.451 658.845,-694.484"/>
</g>
<!-- Node21 -->
<g id="node42" class="node"><title>Node21</title>
<a xlink:href="../../da/d14/class_u_b_application_controller.html#a37354fade87a383adbda6d60acd26caa" target="_top" xlink:title="UBApplicationController\l::importFile">
<polygon fill="white" stroke="black" points="701.5,-451 701.5,-485 822.5,-485 822.5,-451 701.5,-451"/>
<text text-anchor="start" x="709.5" y="-472" font-family="Helvetica,sans-Serif" font-size="10.00">UBApplicationController</text>
<text text-anchor="middle" x="762" y="-459" font-family="Helvetica,sans-Serif" font-size="10.00">::importFile</text>
</a>
</g>
<!-- Node20&#45;&gt;Node21 -->
<g id="edge42" class="edge"><title>Node20&#45;&gt;Node21</title>
<path fill="none" stroke="midnightblue" d="M634.048,-409.377C640.216,-411.697 646.286,-414.238 652,-417 669.538,-425.478 670.654,-433.136 688,-442 694.305,-445.222 701.102,-448.208 707.931,-450.921"/>
<polygon fill="midnightblue" stroke="midnightblue" points="634.905,-405.967 624.31,-405.912 632.558,-412.562 634.905,-405.967"/>
</g>
<!-- Node24 -->
<g id="node48" class="node"><title>Node24</title>
<a xlink:href="../../d6/de0/class_u_b_document_controller.html#af5065d414f3ca99eee1d7c21930bde29" target="_top" xlink:title="UBDocumentController\l::importFile">
<polygon fill="white" stroke="black" points="703,-399 703,-433 821,-433 821,-399 703,-399"/>
<text text-anchor="start" x="711" y="-420" font-family="Helvetica,sans-Serif" font-size="10.00">UBDocumentController</text>
<text text-anchor="middle" x="762" y="-407" font-family="Helvetica,sans-Serif" font-size="10.00">::importFile</text>
</a>
</g>
<!-- Node20&#45;&gt;Node24 -->
<g id="edge48" class="edge"><title>Node20&#45;&gt;Node24</title>
<path fill="none" stroke="midnightblue" d="M634.106,-399.687C656.469,-402.539 681.13,-405.685 702.78,-408.446"/>
<polygon fill="midnightblue" stroke="midnightblue" points="634.373,-396.193 624.011,-398.399 633.488,-403.137 634.373,-396.193"/>
</g>
<!-- Node22 -->
<g id="node44" class="node"><title>Node22</title>
<a xlink:href="../../d8/d81/class_u_b_application.html#ace44514d00d196ed5976552dedf9c070" target="_top" xlink:title="UBApplication::eventFilter">
<polygon fill="white" stroke="black" points="876.5,-503.5 876.5,-524.5 1007.5,-524.5 1007.5,-503.5 876.5,-503.5"/>
<text text-anchor="middle" x="942" y="-511.5" font-family="Helvetica,sans-Serif" font-size="10.00">UBApplication::eventFilter</text>
</a>
</g>
<!-- Node21&#45;&gt;Node22 -->
<g id="edge44" class="edge"><title>Node21&#45;&gt;Node22</title>
<path fill="none" stroke="midnightblue" d="M832.483,-486.012C855.638,-491.93 880.605,-498.31 900.844,-503.482"/>
<polygon fill="midnightblue" stroke="midnightblue" points="833.244,-482.594 822.689,-483.509 831.511,-489.376 833.244,-482.594"/>
</g>
<!-- Node23 -->
<g id="node46" class="node"><title>Node23</title>
<a xlink:href="../../d8/d81/class_u_b_application.html#adf778486cf90f2d7d5ac3b98a56430b7" target="_top" xlink:title="UBApplication::handleOpen\lMessage">
<polygon fill="white" stroke="black" points="873.5,-451 873.5,-485 1010.5,-485 1010.5,-451 873.5,-451"/>
<text text-anchor="start" x="881.5" y="-472" font-family="Helvetica,sans-Serif" font-size="10.00">UBApplication::handleOpen</text>
<text text-anchor="middle" x="942" y="-459" font-family="Helvetica,sans-Serif" font-size="10.00">Message</text>
</a>
</g>
<!-- Node21&#45;&gt;Node23 -->
<g id="edge46" class="edge"><title>Node21&#45;&gt;Node23</title>
<path fill="none" stroke="midnightblue" d="M832.734,-468C846.047,-468 859.95,-468 873.203,-468"/>
<polygon fill="midnightblue" stroke="midnightblue" points="832.689,-464.5 822.689,-468 832.689,-471.5 832.689,-464.5"/>
</g>
<!-- Node25 -->
<g id="node50" class="node"><title>Node25</title>
<a xlink:href="../../d6/de0/class_u_b_document_controller.html#abb172787a34a34cd3c2df0a1b46918c5" target="_top" xlink:title="UBDocumentController\l::setupViews">
<polygon fill="white" stroke="black" points="883,-399 883,-433 1001,-433 1001,-399 883,-399"/>
<text text-anchor="start" x="891" y="-420" font-family="Helvetica,sans-Serif" font-size="10.00">UBDocumentController</text>
<text text-anchor="middle" x="942" y="-407" font-family="Helvetica,sans-Serif" font-size="10.00">::setupViews</text>
</a>
</g>
<!-- Node24&#45;&gt;Node25 -->
<g id="edge50" class="edge"><title>Node24&#45;&gt;Node25</title>
<path fill="none" stroke="midnightblue" d="M831.803,-416C848.695,-416 866.588,-416 882.932,-416"/>
<polygon fill="midnightblue" stroke="midnightblue" points="831.438,-412.5 821.438,-416 831.438,-419.5 831.438,-412.5"/>
</g>
<!-- Node26 -->
<g id="node52" class="node"><title>Node26</title>
<a xlink:href="../../d6/de0/class_u_b_document_controller.html#a38e9ea0a2dad2b1c8d9588563e9ee3bf" target="_top" xlink:title="UBDocumentController\l::UBDocumentController">
<polygon fill="white" stroke="black" points="1052,-399 1052,-433 1176,-433 1176,-399 1052,-399"/>
<text text-anchor="start" x="1060" y="-420" font-family="Helvetica,sans-Serif" font-size="10.00">UBDocumentController</text>
<text text-anchor="middle" x="1114" y="-407" font-family="Helvetica,sans-Serif" font-size="10.00">::UBDocumentController</text>
</a>
</g>
<!-- Node25&#45;&gt;Node26 -->
<g id="edge52" class="edge"><title>Node25&#45;&gt;Node26</title>
<path fill="none" stroke="midnightblue" d="M1011.3,-416C1024.68,-416 1038.63,-416 1051.77,-416"/>
<polygon fill="midnightblue" stroke="midnightblue" points="1011.19,-412.5 1001.19,-416 1011.19,-419.5 1011.19,-412.5"/>
</g>
<!-- Node28 -->
<g id="node56" class="node"><title>Node28</title>
<a xlink:href="../../d7/d62/class_u_b_board_controller.html#ab6cbc7bda85279e7eee5c5923892dd1a" target="_top" xlink:title="UBBoardController:\l:downloadFinished">
<polygon fill="white" stroke="black" points="711.5,-239 711.5,-273 812.5,-273 812.5,-239 711.5,-239"/>
<text text-anchor="start" x="719.5" y="-260" font-family="Helvetica,sans-Serif" font-size="10.00">UBBoardController:</text>
<text text-anchor="middle" x="762" y="-247" font-family="Helvetica,sans-Serif" font-size="10.00">:downloadFinished</text>
</a>
</g>
<!-- Node27&#45;&gt;Node28 -->
<g id="edge56" class="edge"><title>Node27&#45;&gt;Node28</title>
<path fill="none" stroke="midnightblue" d="M633.968,-285.395C659.415,-279.553 687.852,-273.024 711.45,-267.606"/>
<polygon fill="midnightblue" stroke="midnightblue" points="632.974,-282.032 624.011,-287.681 634.541,-288.855 632.974,-282.032"/>
</g>
<!-- Node37 -->
<g id="node76" class="node"><title>Node37</title>
<a xlink:href="../../d2/da1/class_u_b_document_manager.html#a19868e49fb0bb331ba2f26c28f01f02e" target="_top" xlink:title="UBDocumentManager:\l:addImageDirToDocument">
<polygon fill="white" stroke="black" points="696.5,-187 696.5,-221 827.5,-221 827.5,-187 696.5,-187"/>
<text text-anchor="start" x="704.5" y="-208" font-family="Helvetica,sans-Serif" font-size="10.00">UBDocumentManager:</text>
<text text-anchor="middle" x="762" y="-195" font-family="Helvetica,sans-Serif" font-size="10.00">:addImageDirToDocument</text>
</a>
</g>
<!-- Node27&#45;&gt;Node37 -->
<g id="edge78" class="edge"><title>Node27&#45;&gt;Node37</title>
<path fill="none" stroke="midnightblue" d="M633.774,-280.239C640.15,-277.211 646.337,-273.808 652,-270 671.848,-256.654 668.098,-243.266 688,-230 692.986,-226.677 698.443,-223.728 704.064,-221.123"/>
<polygon fill="midnightblue" stroke="midnightblue" points="632.071,-277.165 624.339,-284.408 634.9,-283.568 632.071,-277.165"/>
</g>
<!-- Node39 -->
<g id="node80" class="node"><title>Node39</title>
<a xlink:href="../../d6/de0/class_u_b_document_controller.html#abe96427082e132f7247cd3dda6e2b5ac" target="_top" xlink:title="UBDocumentController\l::addFileToDocument">
<polygon fill="white" stroke="black" points="703,-291 703,-325 821,-325 821,-291 703,-291"/>
<text text-anchor="start" x="711" y="-312" font-family="Helvetica,sans-Serif" font-size="10.00">UBDocumentController</text>
<text text-anchor="middle" x="762" y="-299" font-family="Helvetica,sans-Serif" font-size="10.00">::addFileToDocument</text>
</a>
</g>
<!-- Node27&#45;&gt;Node39 -->
<g id="edge82" class="edge"><title>Node27&#45;&gt;Node39</title>
<path fill="none" stroke="midnightblue" d="M634.106,-303.432C656.469,-304.231 681.13,-305.112 702.78,-305.885"/>
<polygon fill="midnightblue" stroke="midnightblue" points="634.13,-299.931 624.011,-303.072 633.88,-306.927 634.13,-299.931"/>
</g>
<!-- Node29 -->
<g id="node58" class="node"><title>Node29</title>
<a xlink:href="../../d7/d62/class_u_b_board_controller.html#aa728cb7c1b979b2d4ae45638a7386dde" target="_top" xlink:title="UBBoardController::init">
<polygon fill="white" stroke="black" points="883.5,-211.5 883.5,-232.5 1000.5,-232.5 1000.5,-211.5 883.5,-211.5"/>
<text text-anchor="middle" x="942" y="-219.5" font-family="Helvetica,sans-Serif" font-size="10.00">UBBoardController::init</text>
</a>
</g>
<!-- Node28&#45;&gt;Node29 -->
<g id="edge58" class="edge"><title>Node28&#45;&gt;Node29</title>
<path fill="none" stroke="midnightblue" d="M822.545,-244.564C843.19,-240.664 866.158,-236.326 886.396,-232.503"/>
<polygon fill="midnightblue" stroke="midnightblue" points="821.796,-241.143 812.619,-246.439 823.095,-248.022 821.796,-241.143"/>
</g>
<!-- Node31 -->
<g id="node62" class="node"><title>Node31</title>
<a xlink:href="../../d7/d62/class_u_b_board_controller.html#abae2655269e06f72767de71b8513f6be" target="_top" xlink:title="UBBoardController:\l:duplicateItem">
<polygon fill="white" stroke="red" points="1063.5,-249 1063.5,-283 1164.5,-283 1164.5,-249 1063.5,-249"/>
<text text-anchor="start" x="1071.5" y="-270" font-family="Helvetica,sans-Serif" font-size="10.00">UBBoardController:</text>
<text text-anchor="middle" x="1114" y="-257" font-family="Helvetica,sans-Serif" font-size="10.00">:duplicateItem</text>
</a>
</g>
<!-- Node28&#45;&gt;Node31 -->
<g id="edge62" class="edge"><title>Node28&#45;&gt;Node31</title>
<path fill="none" stroke="midnightblue" d="M822.957,-257.732C891.035,-259.666 999.981,-262.761 1063.49,-264.565"/>
<polygon fill="midnightblue" stroke="midnightblue" points="822.903,-254.229 812.808,-257.443 822.704,-261.226 822.903,-254.229"/>
</g>
<!-- Node34 -->
<g id="node68" class="node"><title>Node34</title>
<a xlink:href="../../d7/d62/class_u_b_board_controller.html#a358f3f88d1fa9e41620170d76a806f93" target="_top" xlink:title="UBBoardController:\l:downloadURL">
<polygon fill="white" stroke="red" points="891.5,-293 891.5,-327 992.5,-327 992.5,-293 891.5,-293"/>
<text text-anchor="start" x="899.5" y="-314" font-family="Helvetica,sans-Serif" font-size="10.00">UBBoardController:</text>
<text text-anchor="middle" x="942" y="-301" font-family="Helvetica,sans-Serif" font-size="10.00">:downloadURL</text>
</a>
</g>
<!-- Node28&#45;&gt;Node34 -->
<g id="edge68" class="edge"><title>Node28&#45;&gt;Node34</title>
<path fill="none" stroke="midnightblue" d="M822.373,-274.112C844.8,-280.84 869.99,-288.397 891.449,-294.835"/>
<polygon fill="midnightblue" stroke="midnightblue" points="823.203,-270.707 812.619,-271.186 821.192,-277.412 823.203,-270.707"/>
</g>
<!-- Node30 -->
<g id="node60" class="node"><title>Node30</title>
<a xlink:href="../../d8/d81/class_u_b_application.html#add1469239e71bf24fdc61413a42a38bd" target="_top" xlink:title="UBApplication::exec">
<polygon fill="white" stroke="red" points="1061,-209.5 1061,-230.5 1167,-230.5 1167,-209.5 1061,-209.5"/>
<text text-anchor="middle" x="1114" y="-217.5" font-family="Helvetica,sans-Serif" font-size="10.00">UBApplication::exec</text>
</a>
</g>
<!-- Node29&#45;&gt;Node30 -->
<g id="edge60" class="edge"><title>Node29&#45;&gt;Node30</title>
<path fill="none" stroke="midnightblue" d="M1010.91,-221.199C1027.51,-221.006 1044.99,-220.802 1060.75,-220.619"/>
<polygon fill="midnightblue" stroke="midnightblue" points="1010.67,-217.701 1000.71,-221.317 1010.75,-224.701 1010.67,-217.701"/>
</g>
<!-- Node32 -->
<g id="node64" class="node"><title>Node32</title>
<a xlink:href="../../d7/d62/class_u_b_board_controller.html#a07e50010567075b570140d6143c516f5" target="_top" xlink:title="UBBoardController:\l:processMimeData">
<polygon fill="white" stroke="red" points="1254.5,-294 1254.5,-328 1355.5,-328 1355.5,-294 1254.5,-294"/>
<text text-anchor="start" x="1262.5" y="-315" font-family="Helvetica,sans-Serif" font-size="10.00">UBBoardController:</text>
<text text-anchor="middle" x="1305" y="-302" font-family="Helvetica,sans-Serif" font-size="10.00">:processMimeData</text>
</a>
</g>
<!-- Node31&#45;&gt;Node32 -->
<g id="edge64" class="edge"><title>Node31&#45;&gt;Node32</title>
<path fill="none" stroke="midnightblue" d="M1174.68,-280.297C1200.36,-286.347 1229.94,-293.315 1254.41,-299.081"/>
<polygon fill="midnightblue" stroke="midnightblue" points="1175.22,-276.828 1164.68,-277.941 1173.61,-283.641 1175.22,-276.828"/>
</g>
<!-- Node33 -->
<g id="node66" class="node"><title>Node33</title>
<a xlink:href="../../d7/d62/class_u_b_board_controller.html#af713d6e325369af244f2af8c90299a35" target="_top" xlink:title="UBBoardController:\l:moveGraphicsWidgetToControlView">
<polygon fill="white" stroke="red" points="1216,-242 1216,-276 1394,-276 1394,-242 1216,-242"/>
<text text-anchor="start" x="1224" y="-263" font-family="Helvetica,sans-Serif" font-size="10.00">UBBoardController:</text>
<text text-anchor="middle" x="1305" y="-250" font-family="Helvetica,sans-Serif" font-size="10.00">:moveGraphicsWidgetToControlView</text>
</a>
</g>
<!-- Node31&#45;&gt;Node33 -->
<g id="edge66" class="edge"><title>Node31&#45;&gt;Node33</title>
<path fill="none" stroke="midnightblue" d="M1174.87,-263.769C1187.87,-263.293 1201.85,-262.78 1215.66,-262.274"/>
<polygon fill="midnightblue" stroke="midnightblue" points="1174.55,-260.279 1164.68,-264.143 1174.8,-267.274 1174.55,-260.279"/>
</g>
<!-- Node34&#45;&gt;Node31 -->
<g id="edge70" class="edge"><title>Node34&#45;&gt;Node31</title>
<path fill="none" stroke="midnightblue" d="M1002.56,-294.508C1022.44,-289.421 1044.32,-283.824 1063.39,-278.947"/>
<polygon fill="midnightblue" stroke="midnightblue" points="1001.5,-291.167 992.675,-297.037 1003.23,-297.949 1001.5,-291.167"/>
</g>
<!-- Node34&#45;&gt;Node32 -->
<g id="edge72" class="edge"><title>Node34&#45;&gt;Node32</title>
<path fill="none" stroke="midnightblue" d="M1002.94,-310.168C1073.56,-310.362 1188.64,-310.679 1254.49,-310.861"/>
<polygon fill="midnightblue" stroke="midnightblue" points="1002.87,-306.668 992.856,-310.14 1002.85,-313.668 1002.87,-306.668"/>
</g>
<!-- Node34&#45;&gt;Node35 -->
<g id="edge74" class="edge"><title>Node34&#45;&gt;Node35</title>
<path fill="none" stroke="midnightblue" d="M1002.55,-327.601C1019.65,-332.572 1038.22,-337.971 1055.21,-342.911"/>
<polygon fill="midnightblue" stroke="midnightblue" points="1003.25,-324.162 992.675,-324.731 1001.3,-330.884 1003.25,-324.162"/>
</g>
<!-- Node36 -->
<g id="node74" class="node"><title>Node36</title>
<a xlink:href="../../df/d50/class_u_b_web_controller.html#af73cfa36d5b743fa3a652e49dd7e4831" target="_top" xlink:title="UBWebController::setupPalettes">
<polygon fill="white" stroke="black" points="1225.5,-349.5 1225.5,-370.5 1384.5,-370.5 1384.5,-349.5 1225.5,-349.5"/>
<text text-anchor="middle" x="1305" y="-357.5" font-family="Helvetica,sans-Serif" font-size="10.00">UBWebController::setupPalettes</text>
</a>
</g>
<!-- Node35&#45;&gt;Node36 -->
<g id="edge76" class="edge"><title>Node35&#45;&gt;Node36</title>
<path fill="none" stroke="midnightblue" d="M1189.85,-360C1201.5,-360 1213.56,-360 1225.3,-360"/>
<polygon fill="midnightblue" stroke="midnightblue" points="1189.73,-356.5 1179.73,-360 1189.73,-363.5 1189.73,-356.5"/>
</g>
<!-- Node37&#45;&gt;Node38 -->
<g id="edge80" class="edge"><title>Node37&#45;&gt;Node38</title>
<path fill="none" stroke="midnightblue" d="M837.777,-189.266C853.193,-186.268 869.18,-183.159 883.867,-180.304"/>
<polygon fill="midnightblue" stroke="midnightblue" points="836.896,-185.871 827.748,-191.216 838.232,-192.743 836.896,-185.871"/>
</g>
<!-- Node39&#45;&gt;Node25 -->
<g id="edge84" class="edge"><title>Node39&#45;&gt;Node25</title>
<path fill="none" stroke="midnightblue" d="M799.236,-330.342C833.222,-350.733 882.726,-380.435 913.612,-398.967"/>
<polygon fill="midnightblue" stroke="midnightblue" points="800.897,-327.257 790.522,-325.113 797.296,-333.259 800.897,-327.257"/>
</g>
<!-- Node39&#45;&gt;Node39 -->
<g id="edge86" class="edge"><title>Node39&#45;&gt;Node39</title>
<path fill="none" stroke="midnightblue" d="M730.653,-335.318C735.055,-339.864 745.504,-343 762,-343 789.07,-343 799.856,-334.556 794.357,-325.288"/>
<polygon fill="midnightblue" stroke="midnightblue" points="734.128,-334.886 729.643,-325.288 727.163,-335.588 734.128,-334.886"/>
</g>
<!-- Node42 -->
<g id="node89" class="node"><title>Node42</title>
<a xlink:href="../../dc/d9f/class_u_b_intranet_podcast_publisher.html#a4965ecc747e29ef3c2a180d4078e1fbd" target="_top" xlink:title="UBIntranetPodcastPublisher\l::publishVideo">
<polygon fill="white" stroke="black" points="872,-97 872,-131 1012,-131 1012,-97 872,-97"/>
<text text-anchor="start" x="880" y="-118" font-family="Helvetica,sans-Serif" font-size="10.00">UBIntranetPodcastPublisher</text>
<text text-anchor="middle" x="942" y="-105" font-family="Helvetica,sans-Serif" font-size="10.00">::publishVideo</text>
</a>
</g>
<!-- Node41&#45;&gt;Node42 -->
<g id="edge94" class="edge"><title>Node41&#45;&gt;Node42</title>
<path fill="none" stroke="midnightblue" d="M846.291,-114C854.885,-114 863.55,-114 871.968,-114"/>
<polygon fill="midnightblue" stroke="midnightblue" points="846.252,-110.5 836.252,-114 846.252,-117.5 846.252,-110.5"/>
</g>
<!-- Node43&#45;&gt;Node41 -->
<g id="edge98" class="edge"><title>Node43&#45;&gt;Node41</title>
<path fill="none" stroke="midnightblue" d="M654.051,-117.855C665.346,-117.452 676.819,-117.042 687.862,-116.648"/>
<polygon fill="midnightblue" stroke="midnightblue" points="653.615,-114.369 643.746,-118.223 653.864,-121.364 653.615,-114.369"/>
</g>
<!-- Node44&#45;&gt;Node41 -->
<g id="edge102" class="edge"><title>Node44&#45;&gt;Node41</title>
<path fill="none" stroke="midnightblue" d="M646.174,-87.4073C660.003,-90.5824 674.323,-93.8701 687.98,-97.0057"/>
<polygon fill="midnightblue" stroke="midnightblue" points="646.737,-83.9455 636.207,-85.1189 645.17,-90.768 646.737,-83.9455"/>
</g>
<!-- Node46 -->
<g id="node99" class="node"><title>Node46</title>
<a xlink:href="../../d9/def/class_u_b_podcast_controller.html#a794bf5bf9a47e285475d96d8afa215e4" target="_top" xlink:title="UBPodcastController\l::recordToggled">
<polygon fill="white" stroke="black" points="707.5,-0 707.5,-34 816.5,-34 816.5,-0 707.5,-0"/>
<text text-anchor="start" x="715.5" y="-21" font-family="Helvetica,sans-Serif" font-size="10.00">UBPodcastController</text>
<text text-anchor="middle" x="762" y="-8" font-family="Helvetica,sans-Serif" font-size="10.00">::recordToggled</text>
</a>
</g>
<!-- Node45&#45;&gt;Node46 -->
<g id="edge106" class="edge"><title>Node45&#45;&gt;Node46</title>
<path fill="none" stroke="midnightblue" d="M630.656,-17C655.485,-17 683.557,-17 707.356,-17"/>
<polygon fill="midnightblue" stroke="midnightblue" points="630.597,-13.5001 620.597,-17 630.597,-20.5001 630.597,-13.5001"/>
</g>
<!-- Node47 -->
<g id="node101" class="node"><title>Node47</title>
<a xlink:href="../../d9/def/class_u_b_podcast_controller.html#ab9f47a41e489b242fed9396277dfc5af" target="_top" xlink:title="UBPodcastController\l::toggleRecordingPalette">
<polygon fill="white" stroke="red" points="880,-0 880,-34 1004,-34 1004,-0 880,-0"/>
<text text-anchor="start" x="888" y="-21" font-family="Helvetica,sans-Serif" font-size="10.00">UBPodcastController</text>
<text text-anchor="middle" x="942" y="-8" font-family="Helvetica,sans-Serif" font-size="10.00">::toggleRecordingPalette</text>
</a>
</g>
<!-- Node46&#45;&gt;Node47 -->
<g id="edge108" class="edge"><title>Node46&#45;&gt;Node47</title>
<path fill="none" stroke="midnightblue" d="M827.434,-17C844.521,-17 862.888,-17 879.802,-17"/>
<polygon fill="midnightblue" stroke="midnightblue" points="826.984,-13.5001 816.984,-17 826.984,-20.5001 826.984,-13.5001"/>
</g>
</g>
</svg>
