<?xml version="1.0" encoding="UTF-8" standalone="no"?>
<!DOCTYPE svg PUBLIC "-//W3C//DTD SVG 1.1//EN"
 "http://www.w3.org/Graphics/SVG/1.1/DTD/svg11.dtd">
<!-- Generated by graphviz version 2.26.3 (20100126.1600)
 -->
<!-- Title: UBDocumentContainer::documentSet Pages: 1 -->
<!--zoomable 871 -->
<svg id="main" version="1.1" xmlns="http://www.w3.org/2000/svg" xmlns:xlink="http://www.w3.org/1999/xlink" xml:space="preserve" onload="init(evt)">
        <defs>
                <circle id="rim" cx="0" cy="0" r="7"/>
                <circle id="rim2" cx="0" cy="0" r="3.5"/>
                <g id="zoomPlus">
                        <use xlink:href="#rim" fill="#404040">
                                <set attributeName="fill" to="#808080" begin="zoomplus.mouseover" end="zoomplus.mouseout"/>
                        </use>
                        <path d="M-4,0h8M0,-4v8" fill="none" stroke="white" stroke-width="1.5" pointer-events="none"/>
                </g>
                <g id="zoomMin">
                        <use xlink:href="#rim" fill="#404040">
                                <set attributeName="fill" to="#808080" begin="zoomminus.mouseover" end="zoomminus.mouseout"/>
                        </use>
                        <path d="M-4,0h8" fill="none" stroke="white" stroke-width="1.5" pointer-events="none"/>
                </g>
                <g id="dirArrow">
                        <path fill="none" stroke="white" stroke-width="1.5" d="M0,-3.0v7 M-2.5,-0.5L0,-3.0L2.5,-0.5"/>
                </g>
               <g id="resetDef">
                       <use xlink:href="#rim2" fill="#404040">
                               <set attributeName="fill" to="#808080" begin="reset.mouseover" end="reset.mouseout"/>
                       </use>
               </g>
        </defs>

<script type="text/javascript">
var viewWidth = 1346;
var viewHeight = 871;
var sectionId = 'dynsection-11';
</script>
<script xlink:href="../../svgpan.js"/>
<svg id="graph" class="graph">
<g id="viewport">
<title>UBDocumentContainer::documentSet</title>
<polygon fill="white" stroke="white" points="-4,5 -4,-866.799 1343,-866.799 1343,5 -4,5"/>
<!-- Node1 -->
<g id="node1" class="node"><title>Node1</title>
<polygon fill="#bfbfbf" stroke="black" points="0,-409 0,-443 118,-443 118,-409 0,-409"/>
<text text-anchor="start" x="8" y="-430" font-family="Helvetica,sans-Serif" font-size="10.00">UBDocumentContainer</text>
<text text-anchor="middle" x="59" y="-417" font-family="Helvetica,sans-Serif" font-size="10.00">::documentSet</text>
</g>
<!-- Node2 -->
<g id="node3" class="node"><title>Node2</title>
<a xlink:href="../../da/dc6/class_u_b_document_container.html#af4ec175500cc0917a65d77f50b2ddca5" target="_top" xlink:title="UBDocumentContainer\l::setDocument">
<polygon fill="white" stroke="black" points="154,-409 154,-443 272,-443 272,-409 154,-409"/>
<text text-anchor="start" x="162" y="-430" font-family="Helvetica,sans-Serif" font-size="10.00">UBDocumentContainer</text>
<text text-anchor="middle" x="213" y="-417" font-family="Helvetica,sans-Serif" font-size="10.00">::setDocument</text>
</a>
</g>
<!-- Node1&#45;&gt;Node2 -->
<g id="edge2" class="edge"><title>Node1&#45;&gt;Node2</title>
<path fill="none" stroke="midnightblue" d="M128.369,-426C136.862,-426 145.48,-426 153.804,-426"/>
<polygon fill="midnightblue" stroke="midnightblue" points="128.1,-422.5 118.1,-426 128.1,-429.5 128.1,-422.5"/>
</g>
<!-- Node3 -->
<g id="node5" class="node"><title>Node3</title>
<a xlink:href="../../d7/d62/class_u_b_board_controller.html#a6a1f06f9fecbba81ab58d813faae3fb0" target="_top" xlink:title="UBBoardController:\l:setActiveDocumentScene">
<polygon fill="white" stroke="black" points="308,-409 308,-443 442,-443 442,-409 308,-409"/>
<text text-anchor="start" x="316" y="-430" font-family="Helvetica,sans-Serif" font-size="10.00">UBBoardController:</text>
<text text-anchor="middle" x="375" y="-417" font-family="Helvetica,sans-Serif" font-size="10.00">:setActiveDocumentScene</text>
</a>
</g>
<!-- Node2&#45;&gt;Node3 -->
<g id="edge4" class="edge"><title>Node2&#45;&gt;Node3</title>
<path fill="none" stroke="midnightblue" d="M282.56,-426C290.976,-426 299.56,-426 307.939,-426"/>
<polygon fill="midnightblue" stroke="midnightblue" points="282.403,-422.5 272.403,-426 282.403,-429.5 282.403,-422.5"/>
</g>
<!-- Node4 -->
<g id="node7" class="node"><title>Node4</title>
<a xlink:href="../../d7/d62/class_u_b_board_controller.html#aa728cb7c1b979b2d4ae45638a7386dde" target="_top" xlink:title="UBBoardController::init">
<polygon fill="white" stroke="black" points="1002.5,-785.5 1002.5,-806.5 1119.5,-806.5 1119.5,-785.5 1002.5,-785.5"/>
<text text-anchor="middle" x="1061" y="-793.5" font-family="Helvetica,sans-Serif" font-size="10.00">UBBoardController::init</text>
</a>
</g>
<!-- Node3&#45;&gt;Node4 -->
<g id="edge6" class="edge"><title>Node3&#45;&gt;Node4</title>
<path fill="none" stroke="midnightblue" d="M378.722,-453.571C389.722,-530.597 424.688,-745.225 478,-788 646.564,-923.248 939.462,-838.471 1032.07,-806.594"/>
<polygon fill="midnightblue" stroke="midnightblue" points="382.128,-452.658 377.273,-443.241 375.196,-453.631 382.128,-452.658"/>
</g>
<!-- Node7 -->
<g id="node13" class="node"><title>Node7</title>
<a xlink:href="../../d7/d62/class_u_b_board_controller.html#aae6e6e83f5207333812d4021dc7f535e" target="_top" xlink:title="UBBoardController:\l:addScene">
<polygon fill="white" stroke="black" points="494.5,-714 494.5,-748 595.5,-748 595.5,-714 494.5,-714"/>
<text text-anchor="start" x="502.5" y="-735" font-family="Helvetica,sans-Serif" font-size="10.00">UBBoardController:</text>
<text text-anchor="middle" x="545" y="-722" font-family="Helvetica,sans-Serif" font-size="10.00">:addScene</text>
</a>
</g>
<!-- Node3&#45;&gt;Node7 -->
<g id="edge12" class="edge"><title>Node3&#45;&gt;Node7</title>
<path fill="none" stroke="midnightblue" d="M377.682,-453.351C384.481,-508.314 407.226,-633.048 478,-705 482.637,-709.714 488.226,-713.591 494.174,-716.775"/>
<polygon fill="midnightblue" stroke="midnightblue" points="381.148,-452.857 376.525,-443.325 374.194,-453.66 381.148,-452.857"/>
</g>
<!-- Node11 -->
<g id="node22" class="node"><title>Node11</title>
<a xlink:href="../../d7/d62/class_u_b_board_controller.html#a07e50010567075b570140d6143c516f5" target="_top" xlink:title="UBBoardController:\l:processMimeData">
<polygon fill="white" stroke="black" points="673.5,-755 673.5,-789 774.5,-789 774.5,-755 673.5,-755"/>
<text text-anchor="start" x="681.5" y="-776" font-family="Helvetica,sans-Serif" font-size="10.00">UBBoardController:</text>
<text text-anchor="middle" x="724" y="-763" font-family="Helvetica,sans-Serif" font-size="10.00">:processMimeData</text>
</a>
</g>
<!-- Node3&#45;&gt;Node11 -->
<g id="edge74" class="edge"><title>Node3&#45;&gt;Node11</title>
<path fill="none" stroke="midnightblue" d="M379.425,-453.141C391.765,-525.208 428.899,-718.497 478,-757 533.387,-800.433 619.168,-794.241 673.413,-784.267"/>
<polygon fill="midnightblue" stroke="midnightblue" points="382.836,-452.318 377.722,-443.039 375.933,-453.481 382.836,-452.318"/>
</g>
<!-- Node16 -->
<g id="node32" class="node"><title>Node16</title>
<a xlink:href="../../d7/d62/class_u_b_board_controller.html#ae84d5e3160402f05efcf708a8b81ba36" target="_top" xlink:title="UBBoardController:\l:duplicateScene">
<polygon fill="white" stroke="black" points="494.5,-364 494.5,-398 595.5,-398 595.5,-364 494.5,-364"/>
<text text-anchor="start" x="502.5" y="-385" font-family="Helvetica,sans-Serif" font-size="10.00">UBBoardController:</text>
<text text-anchor="middle" x="545" y="-372" font-family="Helvetica,sans-Serif" font-size="10.00">:duplicateScene</text>
</a>
</g>
<!-- Node3&#45;&gt;Node16 -->
<g id="edge32" class="edge"><title>Node3&#45;&gt;Node16</title>
<path fill="none" stroke="midnightblue" d="M449.213,-406.355C464.48,-402.314 480.218,-398.148 494.415,-394.39"/>
<polygon fill="midnightblue" stroke="midnightblue" points="448.041,-403.045 439.27,-408.987 449.832,-409.812 448.041,-403.045"/>
</g>
<!-- Node17 -->
<g id="node34" class="node"><title>Node17</title>
<a xlink:href="../../d7/d62/class_u_b_board_controller.html#ad1c70c75fad194f67cd944e203d15e49" target="_top" xlink:title="UBBoardController:\l:deleteScene">
<polygon fill="white" stroke="black" points="494.5,-312 494.5,-346 595.5,-346 595.5,-312 494.5,-312"/>
<text text-anchor="start" x="502.5" y="-333" font-family="Helvetica,sans-Serif" font-size="10.00">UBBoardController:</text>
<text text-anchor="middle" x="545" y="-320" font-family="Helvetica,sans-Serif" font-size="10.00">:deleteScene</text>
</a>
</g>
<!-- Node3&#45;&gt;Node17 -->
<g id="edge34" class="edge"><title>Node3&#45;&gt;Node17</title>
<path fill="none" stroke="midnightblue" d="M404.635,-402.809C424.608,-387.888 451.966,-368.781 478,-355 483.955,-351.848 490.379,-348.869 496.808,-346.13"/>
<polygon fill="midnightblue" stroke="midnightblue" points="402.419,-400.097 396.553,-408.92 406.641,-405.681 402.419,-400.097"/>
</g>
<!-- Node18 -->
<g id="node36" class="node"><title>Node18</title>
<a xlink:href="../../d7/d62/class_u_b_board_controller.html#aeef919027b89d95c392a7e0fe5a6444d" target="_top" xlink:title="UBBoardController:\l:previousScene">
<polygon fill="white" stroke="black" points="494.5,-558 494.5,-592 595.5,-592 595.5,-558 494.5,-558"/>
<text text-anchor="start" x="502.5" y="-579" font-family="Helvetica,sans-Serif" font-size="10.00">UBBoardController:</text>
<text text-anchor="middle" x="545" y="-566" font-family="Helvetica,sans-Serif" font-size="10.00">:previousScene</text>
</a>
</g>
<!-- Node3&#45;&gt;Node18 -->
<g id="edge36" class="edge"><title>Node3&#45;&gt;Node18</title>
<path fill="none" stroke="midnightblue" d="M390.825,-451.72C408.884,-479.176 440.781,-522.321 478,-549 482.969,-552.562 488.491,-555.713 494.171,-558.479"/>
<polygon fill="midnightblue" stroke="midnightblue" points="393.602,-449.568 385.244,-443.057 387.718,-453.359 393.602,-449.568"/>
</g>
<!-- Node20 -->
<g id="node42" class="node"><title>Node20</title>
<a xlink:href="../../de/dfb/class_u_b_graphics_item_move_to_page_action.html#abc9450ecbd727b1cf7a1476d9ec7eba6" target="_top" xlink:title="UBGraphicsItemMoveToPage\lAction::play">
<polygon fill="white" stroke="black" points="650.5,-506 650.5,-540 797.5,-540 797.5,-506 650.5,-506"/>
<text text-anchor="start" x="658.5" y="-527" font-family="Helvetica,sans-Serif" font-size="10.00">UBGraphicsItemMoveToPage</text>
<text text-anchor="middle" x="724" y="-514" font-family="Helvetica,sans-Serif" font-size="10.00">Action::play</text>
</a>
</g>
<!-- Node3&#45;&gt;Node20 -->
<g id="edge86" class="edge"><title>Node3&#45;&gt;Node20</title>
<path fill="none" stroke="midnightblue" d="M452.283,-422.115C499.678,-422.166 560.866,-426.672 612,-445 649.027,-458.272 685.128,-487.128 705.934,-505.778"/>
<polygon fill="midnightblue" stroke="midnightblue" points="452.063,-418.616 442.083,-422.172 452.102,-425.616 452.063,-418.616"/>
</g>
<!-- Node21 -->
<g id="node44" class="node"><title>Node21</title>
<a xlink:href="../../d7/d62/class_u_b_board_controller.html#ab5d4e87dcef6ff72e804f6cb5a26a8f3" target="_top" xlink:title="UBBoardController:\l:nextScene">
<polygon fill="white" stroke="black" points="494.5,-610 494.5,-644 595.5,-644 595.5,-610 494.5,-610"/>
<text text-anchor="start" x="502.5" y="-631" font-family="Helvetica,sans-Serif" font-size="10.00">UBBoardController:</text>
<text text-anchor="middle" x="545" y="-618" font-family="Helvetica,sans-Serif" font-size="10.00">:nextScene</text>
</a>
</g>
<!-- Node3&#45;&gt;Node21 -->
<g id="edge46" class="edge"><title>Node3&#45;&gt;Node21</title>
<path fill="none" stroke="midnightblue" d="M384.373,-453.072C398.823,-491.088 429.999,-560.199 478,-601 482.848,-605.121 488.424,-608.632 494.245,-611.613"/>
<polygon fill="midnightblue" stroke="midnightblue" points="387.484,-451.394 380.74,-443.223 380.917,-453.816 387.484,-451.394"/>
</g>
<!-- Node22 -->
<g id="node50" class="node"><title>Node22</title>
<a xlink:href="../../d7/d62/class_u_b_board_controller.html#a92730653a91693d5d1e6b626a0e0cf4d" target="_top" xlink:title="UBBoardController:\l:firstScene">
<polygon fill="white" stroke="black" points="494.5,-454 494.5,-488 595.5,-488 595.5,-454 494.5,-454"/>
<text text-anchor="start" x="502.5" y="-475" font-family="Helvetica,sans-Serif" font-size="10.00">UBBoardController:</text>
<text text-anchor="middle" x="545" y="-462" font-family="Helvetica,sans-Serif" font-size="10.00">:firstScene</text>
</a>
</g>
<!-- Node3&#45;&gt;Node22 -->
<g id="edge56" class="edge"><title>Node3&#45;&gt;Node22</title>
<path fill="none" stroke="midnightblue" d="M449.213,-445.645C464.48,-449.686 480.218,-453.852 494.415,-457.61"/>
<polygon fill="midnightblue" stroke="midnightblue" points="449.832,-442.188 439.27,-443.013 448.041,-448.955 449.832,-442.188"/>
</g>
<!-- Node23 -->
<g id="node54" class="node"><title>Node23</title>
<a xlink:href="../../d7/d62/class_u_b_board_controller.html#aa5a7d737c2dcd83fe9d6ab1c897fd5ee" target="_top" xlink:title="UBBoardController:\l:lastScene">
<polygon fill="white" stroke="black" points="494.5,-506 494.5,-540 595.5,-540 595.5,-506 494.5,-506"/>
<text text-anchor="start" x="502.5" y="-527" font-family="Helvetica,sans-Serif" font-size="10.00">UBBoardController:</text>
<text text-anchor="middle" x="545" y="-514" font-family="Helvetica,sans-Serif" font-size="10.00">:lastScene</text>
</a>
</g>
<!-- Node3&#45;&gt;Node23 -->
<g id="edge62" class="edge"><title>Node3&#45;&gt;Node23</title>
<path fill="none" stroke="midnightblue" d="M404.635,-449.191C424.608,-464.112 451.966,-483.219 478,-497 483.955,-500.152 490.379,-503.131 496.808,-505.87"/>
<polygon fill="midnightblue" stroke="midnightblue" points="406.641,-446.319 396.553,-443.08 402.419,-451.903 406.641,-446.319"/>
</g>
<!-- Node24 -->
<g id="node58" class="node"><title>Node24</title>
<a xlink:href="../../d7/d62/class_u_b_board_controller.html#afac505a5ca6669f6708427d914fb9b08" target="_top" xlink:title="UBBoardController:\l:setActiveDocumentScene">
<polygon fill="white" stroke="black" points="478,-260 478,-294 612,-294 612,-260 478,-260"/>
<text text-anchor="start" x="486" y="-281" font-family="Helvetica,sans-Serif" font-size="10.00">UBBoardController:</text>
<text text-anchor="middle" x="545" y="-268" font-family="Helvetica,sans-Serif" font-size="10.00">:setActiveDocumentScene</text>
</a>
</g>
<!-- Node3&#45;&gt;Node24 -->
<g id="edge68" class="edge"><title>Node3&#45;&gt;Node24</title>
<path fill="none" stroke="midnightblue" d="M390.825,-400.28C408.884,-372.824 440.781,-329.679 478,-303 482.665,-299.656 487.816,-296.675 493.129,-294.033"/>
<polygon fill="midnightblue" stroke="midnightblue" points="387.718,-398.641 385.244,-408.943 393.602,-402.432 387.718,-398.641"/>
</g>
<!-- Node25 -->
<g id="node60" class="node"><title>Node25</title>
<a xlink:href="../../d7/d62/class_u_b_board_controller.html#aa7a87412c99f4e2c12b23468d946296e" target="_top" xlink:title="UBBoardController:\l:moveSceneToIndex">
<polygon fill="white" stroke="black" points="491.5,-208 491.5,-242 598.5,-242 598.5,-208 491.5,-208"/>
<text text-anchor="start" x="499.5" y="-229" font-family="Helvetica,sans-Serif" font-size="10.00">UBBoardController:</text>
<text text-anchor="middle" x="545" y="-216" font-family="Helvetica,sans-Serif" font-size="10.00">:moveSceneToIndex</text>
</a>
</g>
<!-- Node3&#45;&gt;Node25 -->
<g id="edge70" class="edge"><title>Node3&#45;&gt;Node25</title>
<path fill="none" stroke="midnightblue" d="M384.373,-398.928C398.823,-360.912 429.999,-291.801 478,-251 481.993,-247.606 486.479,-244.626 491.189,-242.015"/>
<polygon fill="midnightblue" stroke="midnightblue" points="380.917,-398.184 380.74,-408.777 387.484,-400.606 380.917,-398.184"/>
</g>
<!-- Node26 -->
<g id="node62" class="node"><title>Node26</title>
<a xlink:href="../../d7/d62/class_u_b_board_controller.html#adb6ca22449d2f5f0e8fc297c52a51f2c" target="_top" xlink:title="UBBoardController:\l:documentSceneChanged">
<polygon fill="white" stroke="black" points="480.5,-156 480.5,-190 609.5,-190 609.5,-156 480.5,-156"/>
<text text-anchor="start" x="488.5" y="-177" font-family="Helvetica,sans-Serif" font-size="10.00">UBBoardController:</text>
<text text-anchor="middle" x="545" y="-164" font-family="Helvetica,sans-Serif" font-size="10.00">:documentSceneChanged</text>
</a>
</g>
<!-- Node3&#45;&gt;Node26 -->
<g id="edge72" class="edge"><title>Node3&#45;&gt;Node26</title>
<path fill="none" stroke="midnightblue" d="M380.295,-398.888C390.813,-351.935 418.637,-255.14 478,-199 481.535,-195.656 485.549,-192.728 489.812,-190.166"/>
<polygon fill="midnightblue" stroke="midnightblue" points="376.821,-398.398 378.146,-408.91 383.665,-399.866 376.821,-398.398"/>
</g>
<!-- Node27 -->
<g id="node65" class="node"><title>Node27</title>
<a xlink:href="../../d7/d62/class_u_b_board_controller.html#a3c02908763bd2bb49d7006cbf2f1cff8" target="_top" xlink:title="UBBoardController:\l:importPage">
<polygon fill="white" stroke="black" points="494.5,-662 494.5,-696 595.5,-696 595.5,-662 494.5,-662"/>
<text text-anchor="start" x="502.5" y="-683" font-family="Helvetica,sans-Serif" font-size="10.00">UBBoardController:</text>
<text text-anchor="middle" x="545" y="-670" font-family="Helvetica,sans-Serif" font-size="10.00">:importPage</text>
</a>
</g>
<!-- Node3&#45;&gt;Node27 -->
<g id="edge76" class="edge"><title>Node3&#45;&gt;Node27</title>
<path fill="none" stroke="midnightblue" d="M380.295,-453.112C390.813,-500.065 418.637,-596.86 478,-653 482.805,-657.544 488.492,-661.321 494.49,-664.453"/>
<polygon fill="midnightblue" stroke="midnightblue" points="383.665,-452.134 378.146,-443.09 376.821,-453.602 383.665,-452.134"/>
</g>
<!-- Node28 -->
<g id="node68" class="node"><title>Node28</title>
<a xlink:href="../../da/d14/class_u_b_application_controller.html#a37354fade87a383adbda6d60acd26caa" target="_top" xlink:title="UBApplicationController\l::importFile">
<polygon fill="white" stroke="black" points="484.5,-104 484.5,-138 605.5,-138 605.5,-104 484.5,-104"/>
<text text-anchor="start" x="492.5" y="-125" font-family="Helvetica,sans-Serif" font-size="10.00">UBApplicationController</text>
<text text-anchor="middle" x="545" y="-112" font-family="Helvetica,sans-Serif" font-size="10.00">::importFile</text>
</a>
</g>
<!-- Node3&#45;&gt;Node28 -->
<g id="edge80" class="edge"><title>Node3&#45;&gt;Node28</title>
<path fill="none" stroke="midnightblue" d="M377.682,-398.649C384.481,-343.686 407.226,-218.952 478,-147 481.325,-143.62 485.139,-140.67 489.224,-138.098"/>
<polygon fill="midnightblue" stroke="midnightblue" points="374.194,-398.34 376.525,-408.675 381.148,-399.143 374.194,-398.34"/>
</g>
<!-- Node31 -->
<g id="node75" class="node"><title>Node31</title>
<a xlink:href="../../d6/de0/class_u_b_document_controller.html#ae617ef6d5f7b83dd7e121da6fb389799" target="_top" xlink:title="UBDocumentController\l::openSelectedItem">
<polygon fill="white" stroke="black" points="486,-52 486,-86 604,-86 604,-52 486,-52"/>
<text text-anchor="start" x="494" y="-73" font-family="Helvetica,sans-Serif" font-size="10.00">UBDocumentController</text>
<text text-anchor="middle" x="545" y="-60" font-family="Helvetica,sans-Serif" font-size="10.00">::openSelectedItem</text>
</a>
</g>
<!-- Node3&#45;&gt;Node31 -->
<g id="edge88" class="edge"><title>Node3&#45;&gt;Node31</title>
<path fill="none" stroke="midnightblue" d="M380.327,-398.655C394.619,-327.762 435.611,-140.397 478,-95 481.151,-91.6258 484.79,-88.6838 488.711,-86.1196"/>
<polygon fill="midnightblue" stroke="midnightblue" points="376.863,-398.126 378.34,-408.618 383.728,-399.495 376.863,-398.126"/>
</g>
<!-- Node34 -->
<g id="node81" class="node"><title>Node34</title>
<a xlink:href="../../d3/dcc/class_u_b_document_navigator.html#ac76e087e3c24e3b65c61ec865582d949" target="_top" xlink:title="Handle the mouse press event.">
<polygon fill="white" stroke="black" points="486,-0 486,-34 604,-34 604,-0 486,-0"/>
<text text-anchor="start" x="494" y="-21" font-family="Helvetica,sans-Serif" font-size="10.00">UBDocumentNavigator</text>
<text text-anchor="middle" x="545" y="-8" font-family="Helvetica,sans-Serif" font-size="10.00">::mousePressEvent</text>
</a>
</g>
<!-- Node3&#45;&gt;Node34 -->
<g id="edge94" class="edge"><title>Node3&#45;&gt;Node34</title>
<path fill="none" stroke="midnightblue" d="M379.082,-398.688C391.288,-320.307 429.67,-96.8243 478,-43 481.001,-39.6579 484.483,-36.7416 488.251,-34.1974"/>
<polygon fill="midnightblue" stroke="midnightblue" points="375.595,-398.336 377.536,-408.752 382.514,-399.399 375.595,-398.336"/>
</g>
<!-- Node5 -->
<g id="node9" class="node"><title>Node5</title>
<a xlink:href="../../d8/d81/class_u_b_application.html#add1469239e71bf24fdc61413a42a38bd" target="_top" xlink:title="UBApplication::exec">
<polygon fill="white" stroke="black" points="1158,-785.5 1158,-806.5 1264,-806.5 1264,-785.5 1158,-785.5"/>
<text text-anchor="middle" x="1211" y="-793.5" font-family="Helvetica,sans-Serif" font-size="10.00">UBApplication::exec</text>
</a>
</g>
<!-- Node4&#45;&gt;Node5 -->
<g id="edge8" class="edge"><title>Node4&#45;&gt;Node5</title>
<path fill="none" stroke="midnightblue" d="M1129.9,-796C1139.23,-796 1148.69,-796 1157.69,-796"/>
<polygon fill="midnightblue" stroke="midnightblue" points="1129.85,-792.5 1119.85,-796 1129.85,-799.5 1129.85,-792.5"/>
</g>
<!-- Node6 -->
<g id="node11" class="node"><title>Node6</title>
<a xlink:href="../../df/d0a/main_8cpp.html#a0ddf1224851353fc92bfbff6f499fa97" target="_top" xlink:title="main">
<polygon fill="white" stroke="black" points="1300,-785.5 1300,-806.5 1338,-806.5 1338,-785.5 1300,-785.5"/>
<text text-anchor="middle" x="1319" y="-793.5" font-family="Helvetica,sans-Serif" font-size="10.00">main</text>
</a>
</g>
<!-- Node5&#45;&gt;Node6 -->
<g id="edge10" class="edge"><title>Node5&#45;&gt;Node6</title>
<path fill="none" stroke="midnightblue" d="M1274.21,-796C1283.49,-796 1292.4,-796 1299.79,-796"/>
<polygon fill="midnightblue" stroke="midnightblue" points="1274.05,-792.5 1264.05,-796 1274.05,-799.5 1274.05,-792.5"/>
</g>
<!-- Node8 -->
<g id="node15" class="node"><title>Node8</title>
<a xlink:href="../../d7/d62/class_u_b_board_controller.html#a0292260502bb0cbe4bc3c83f3a3283bc" target="_top" xlink:title="UBBoardController:\l:connectToolbar">
<polygon fill="white" stroke="black" points="673.5,-651 673.5,-685 774.5,-685 774.5,-651 673.5,-651"/>
<text text-anchor="start" x="681.5" y="-672" font-family="Helvetica,sans-Serif" font-size="10.00">UBBoardController:</text>
<text text-anchor="middle" x="724" y="-659" font-family="Helvetica,sans-Serif" font-size="10.00">:connectToolbar</text>
</a>
</g>
<!-- Node7&#45;&gt;Node8 -->
<g id="edge14" class="edge"><title>Node7&#45;&gt;Node8</title>
<path fill="none" stroke="midnightblue" d="M601.568,-710.505C616.64,-705.092 632.924,-699.286 648,-694 656.291,-691.093 665.103,-688.042 673.679,-685.094"/>
<polygon fill="midnightblue" stroke="midnightblue" points="600.088,-707.317 591.863,-713.996 602.457,-713.904 600.088,-707.317"/>
</g>
<!-- Node10 -->
<g id="node20" class="node"><title>Node10</title>
<a xlink:href="../../d7/d62/class_u_b_board_controller.html#a93f888fe0605f87d49e93f66805f0ad2" target="_top" xlink:title="UBBoardController:\l:addScene">
<polygon fill="white" stroke="black" points="673.5,-703 673.5,-737 774.5,-737 774.5,-703 673.5,-703"/>
<text text-anchor="start" x="681.5" y="-724" font-family="Helvetica,sans-Serif" font-size="10.00">UBBoardController:</text>
<text text-anchor="middle" x="724" y="-711" font-family="Helvetica,sans-Serif" font-size="10.00">:addScene</text>
</a>
</g>
<!-- Node7&#45;&gt;Node10 -->
<g id="edge20" class="edge"><title>Node7&#45;&gt;Node10</title>
<path fill="none" stroke="midnightblue" d="M606.018,-727.25C627.945,-725.903 652.419,-724.399 673.368,-723.111"/>
<polygon fill="midnightblue" stroke="midnightblue" points="605.582,-723.77 595.815,-727.877 606.011,-730.757 605.582,-723.77"/>
</g>
<!-- Node7&#45;&gt;Node11 -->
<g id="edge22" class="edge"><title>Node7&#45;&gt;Node11</title>
<path fill="none" stroke="midnightblue" d="M605.72,-744.908C627.724,-749.948 652.325,-755.583 673.368,-760.403"/>
<polygon fill="midnightblue" stroke="midnightblue" points="606.344,-741.46 595.815,-742.639 604.782,-748.284 606.344,-741.46"/>
</g>
<!-- Node15 -->
<g id="node30" class="node"><title>Node15</title>
<a xlink:href="../../d1/d78/class_u_b_board_view.html#a9216e870eac1d8f36049186dc8ab1410" target="_top" xlink:title="UBBoardView::keyPressEvent">
<polygon fill="white" stroke="black" points="648.5,-564.5 648.5,-585.5 799.5,-585.5 799.5,-564.5 648.5,-564.5"/>
<text text-anchor="middle" x="724" y="-572.5" font-family="Helvetica,sans-Serif" font-size="10.00">UBBoardView::keyPressEvent</text>
</a>
</g>
<!-- Node7&#45;&gt;Node15 -->
<g id="edge30" class="edge"><title>Node7&#45;&gt;Node15</title>
<path fill="none" stroke="midnightblue" d="M604.318,-711.638C607.079,-709.635 609.666,-707.429 612,-705 646.182,-669.428 612.899,-634.665 648,-600 654.325,-593.754 662.238,-589.068 670.549,-585.553"/>
<polygon fill="midnightblue" stroke="midnightblue" points="602.242,-708.807 595.595,-717.057 605.936,-714.753 602.242,-708.807"/>
</g>
<!-- Node9 -->
<g id="node17" class="node"><title>Node9</title>
<a xlink:href="../../d7/d62/class_u_b_board_controller.html#a6761e02604fb3aa8ecbfc5fd4a5d87f3" target="_top" xlink:title="UBBoardController:\l:setupToolbar">
<polygon fill="white" stroke="black" points="849.5,-657 849.5,-691 950.5,-691 950.5,-657 849.5,-657"/>
<text text-anchor="start" x="857.5" y="-678" font-family="Helvetica,sans-Serif" font-size="10.00">UBBoardController:</text>
<text text-anchor="middle" x="900" y="-665" font-family="Helvetica,sans-Serif" font-size="10.00">:setupToolbar</text>
</a>
</g>
<!-- Node8&#45;&gt;Node9 -->
<g id="edge16" class="edge"><title>Node8&#45;&gt;Node9</title>
<path fill="none" stroke="midnightblue" d="M784.987,-670.079C805.939,-670.793 829.153,-671.585 849.208,-672.268"/>
<polygon fill="midnightblue" stroke="midnightblue" points="785.02,-666.578 774.906,-669.735 784.781,-673.574 785.02,-666.578"/>
</g>
<!-- Node9&#45;&gt;Node4 -->
<g id="edge18" class="edge"><title>Node9&#45;&gt;Node4</title>
<path fill="none" stroke="midnightblue" d="M954.742,-696.251C957.996,-698.344 961.114,-700.592 964,-703 985.583,-721.008 979.987,-735.261 1000,-755 1012.36,-767.186 1028.8,-777.996 1041.5,-785.452"/>
<polygon fill="midnightblue" stroke="midnightblue" points="956.284,-693.098 945.884,-691.074 952.752,-699.142 956.284,-693.098"/>
</g>
<!-- Node12 -->
<g id="node24" class="node"><title>Node12</title>
<a xlink:href="../../d7/d62/class_u_b_board_controller.html#a68518a98107e994551da0a4e3a79fe2c" target="_top" xlink:title="UBBoardController:\l:paste">
<polygon fill="white" stroke="black" points="849.5,-712 849.5,-746 950.5,-746 950.5,-712 849.5,-712"/>
<text text-anchor="start" x="857.5" y="-733" font-family="Helvetica,sans-Serif" font-size="10.00">UBBoardController:</text>
<text text-anchor="middle" x="900" y="-720" font-family="Helvetica,sans-Serif" font-size="10.00">:paste</text>
</a>
</g>
<!-- Node11&#45;&gt;Node12 -->
<g id="edge24" class="edge"><title>Node11&#45;&gt;Node12</title>
<path fill="none" stroke="midnightblue" d="M784.701,-757.17C805.728,-752.032 829.062,-746.331 849.208,-741.409"/>
<polygon fill="midnightblue" stroke="midnightblue" points="783.79,-753.789 774.906,-759.563 785.451,-760.589 783.79,-753.789"/>
</g>
<!-- Node14 -->
<g id="node28" class="node"><title>Node14</title>
<a xlink:href="../../d1/d78/class_u_b_board_view.html#a1bb7794094c4bb04637b0df2bc0c0fa9" target="_top" xlink:title="UBBoardView::dropEvent">
<polygon fill="white" stroke="black" points="836,-764.5 836,-785.5 964,-785.5 964,-764.5 836,-764.5"/>
<text text-anchor="middle" x="900" y="-772.5" font-family="Helvetica,sans-Serif" font-size="10.00">UBBoardView::dropEvent</text>
</a>
</g>
<!-- Node11&#45;&gt;Node14 -->
<g id="edge28" class="edge"><title>Node11&#45;&gt;Node14</title>
<path fill="none" stroke="midnightblue" d="M784.922,-773.038C801.334,-773.318 819.138,-773.622 835.727,-773.904"/>
<polygon fill="midnightblue" stroke="midnightblue" points="784.965,-769.539 774.906,-772.868 784.845,-776.538 784.965,-769.539"/>
</g>
<!-- Node13 -->
<g id="node26" class="node"><title>Node13</title>
<a xlink:href="../../da/d14/class_u_b_application_controller.html#a6afa41e1bc0c178acaa89684b7e9db26" target="_top" xlink:title="UBApplicationController\l::actionPaste">
<polygon fill="white" stroke="black" points="1000.5,-712 1000.5,-746 1121.5,-746 1121.5,-712 1000.5,-712"/>
<text text-anchor="start" x="1008.5" y="-733" font-family="Helvetica,sans-Serif" font-size="10.00">UBApplicationController</text>
<text text-anchor="middle" x="1061" y="-720" font-family="Helvetica,sans-Serif" font-size="10.00">::actionPaste</text>
</a>
</g>
<!-- Node12&#45;&gt;Node13 -->
<g id="edge26" class="edge"><title>Node12&#45;&gt;Node13</title>
<path fill="none" stroke="midnightblue" d="M961.056,-729C973.89,-729 987.425,-729 1000.25,-729"/>
<polygon fill="midnightblue" stroke="midnightblue" points="960.941,-725.5 950.941,-729 960.941,-732.5 960.941,-725.5"/>
</g>
<!-- Node18&#45;&gt;Node8 -->
<g id="edge38" class="edge"><title>Node18&#45;&gt;Node8</title>
<path fill="none" stroke="midnightblue" d="M604.59,-596.4C607.148,-597.854 609.631,-599.387 612,-601 631.499,-614.276 628.388,-626.892 648,-640 655.716,-645.157 664.505,-649.516 673.3,-653.146"/>
<polygon fill="midnightblue" stroke="midnightblue" points="606.15,-593.267 595.663,-591.758 602.92,-599.477 606.15,-593.267"/>
</g>
<!-- Node18&#45;&gt;Node15 -->
<g id="edge40" class="edge"><title>Node18&#45;&gt;Node15</title>
<path fill="none" stroke="midnightblue" d="M606.006,-575C619.615,-575 634.204,-575 648.323,-575"/>
<polygon fill="midnightblue" stroke="midnightblue" points="605.815,-571.5 595.815,-575 605.815,-578.5 605.815,-571.5"/>
</g>
<!-- Node19 -->
<g id="node40" class="node"><title>Node19</title>
<a xlink:href="../../d1/d78/class_u_b_board_view.html#a9052cd8486cf023aaff430a859f2f4af" target="_top" xlink:title="UBBoardView::event">
<polygon fill="white" stroke="black" points="670,-609.5 670,-630.5 778,-630.5 778,-609.5 670,-609.5"/>
<text text-anchor="middle" x="724" y="-617.5" font-family="Helvetica,sans-Serif" font-size="10.00">UBBoardView::event</text>
</a>
</g>
<!-- Node18&#45;&gt;Node19 -->
<g id="edge42" class="edge"><title>Node18&#45;&gt;Node19</title>
<path fill="none" stroke="midnightblue" d="M605.632,-590.243C630.788,-596.567 659.352,-603.748 682.117,-609.471"/>
<polygon fill="midnightblue" stroke="midnightblue" points="606.367,-586.819 595.815,-587.775 604.66,-593.607 606.367,-586.819"/>
</g>
<!-- Node18&#45;&gt;Node20 -->
<g id="edge44" class="edge"><title>Node18&#45;&gt;Node20</title>
<path fill="none" stroke="midnightblue" d="M605.442,-557.441C624.82,-551.812 646.236,-545.591 665.474,-540.002"/>
<polygon fill="midnightblue" stroke="midnightblue" points="604.442,-554.087 595.815,-560.238 606.395,-560.809 604.442,-554.087"/>
</g>
<!-- Node21&#45;&gt;Node8 -->
<g id="edge48" class="edge"><title>Node21&#45;&gt;Node8</title>
<path fill="none" stroke="midnightblue" d="M605.72,-640.908C627.724,-645.948 652.325,-651.583 673.368,-656.403"/>
<polygon fill="midnightblue" stroke="midnightblue" points="606.344,-637.46 595.815,-638.639 604.782,-644.284 606.344,-637.46"/>
</g>
<!-- Node21&#45;&gt;Node15 -->
<g id="edge50" class="edge"><title>Node21&#45;&gt;Node15</title>
<path fill="none" stroke="midnightblue" d="M605.672,-609.375C632.978,-601.442 664.291,-592.346 687.844,-585.503"/>
<polygon fill="midnightblue" stroke="midnightblue" points="604.442,-606.087 595.815,-612.238 606.395,-612.809 604.442,-606.087"/>
</g>
<!-- Node21&#45;&gt;Node19 -->
<g id="edge52" class="edge"><title>Node21&#45;&gt;Node19</title>
<path fill="none" stroke="midnightblue" d="M605.814,-624.622C626.605,-623.809 649.707,-622.905 669.93,-622.114"/>
<polygon fill="midnightblue" stroke="midnightblue" points="605.671,-621.125 595.815,-625.013 605.945,-628.119 605.671,-621.125"/>
</g>
<!-- Node21&#45;&gt;Node20 -->
<g id="edge54" class="edge"><title>Node21&#45;&gt;Node20</title>
<path fill="none" stroke="midnightblue" d="M604.604,-605.929C607.172,-604.384 609.652,-602.743 612,-601 632.847,-585.528 627.374,-570.766 648,-555 655.621,-549.175 664.458,-544.207 673.354,-540.047"/>
<polygon fill="midnightblue" stroke="midnightblue" points="602.723,-602.967 595.599,-610.81 606.059,-609.121 602.723,-602.967"/>
</g>
<!-- Node22&#45;&gt;Node15 -->
<g id="edge58" class="edge"><title>Node22&#45;&gt;Node15</title>
<path fill="none" stroke="midnightblue" d="M604.733,-491.903C607.266,-493.492 609.704,-495.189 612,-497 634.072,-514.405 625.579,-532.046 648,-549 656.787,-555.645 667.389,-560.664 677.848,-564.429"/>
<polygon fill="midnightblue" stroke="midnightblue" points="606.25,-488.741 595.815,-486.908 602.829,-494.848 606.25,-488.741"/>
</g>
<!-- Node22&#45;&gt;Node20 -->
<g id="edge60" class="edge"><title>Node22&#45;&gt;Node20</title>
<path fill="none" stroke="midnightblue" d="M605.442,-488.559C624.82,-494.188 646.236,-500.409 665.474,-505.998"/>
<polygon fill="midnightblue" stroke="midnightblue" points="606.395,-485.191 595.815,-485.762 604.442,-491.913 606.395,-485.191"/>
</g>
<!-- Node23&#45;&gt;Node15 -->
<g id="edge64" class="edge"><title>Node23&#45;&gt;Node15</title>
<path fill="none" stroke="midnightblue" d="M605.672,-540.625C632.978,-548.558 664.291,-557.654 687.844,-564.497"/>
<polygon fill="midnightblue" stroke="midnightblue" points="606.395,-537.191 595.815,-537.762 604.442,-543.913 606.395,-537.191"/>
</g>
<!-- Node23&#45;&gt;Node20 -->
<g id="edge66" class="edge"><title>Node23&#45;&gt;Node20</title>
<path fill="none" stroke="midnightblue" d="M605.986,-523C620.249,-523 635.59,-523 650.338,-523"/>
<polygon fill="midnightblue" stroke="midnightblue" points="605.815,-519.5 595.815,-523 605.815,-526.5 605.815,-519.5"/>
</g>
<!-- Node27&#45;&gt;Node8 -->
<g id="edge78" class="edge"><title>Node27&#45;&gt;Node8</title>
<path fill="none" stroke="midnightblue" d="M606.018,-675.25C627.945,-673.903 652.419,-672.399 673.368,-671.111"/>
<polygon fill="midnightblue" stroke="midnightblue" points="605.582,-671.77 595.815,-675.877 606.011,-678.757 605.582,-671.77"/>
</g>
<!-- Node29 -->
<g id="node70" class="node"><title>Node29</title>
<a xlink:href="../../d8/d81/class_u_b_application.html#ace44514d00d196ed5976552dedf9c070" target="_top" xlink:title="UBApplication::eventFilter">
<polygon fill="white" stroke="black" points="658.5,-156.5 658.5,-177.5 789.5,-177.5 789.5,-156.5 658.5,-156.5"/>
<text text-anchor="middle" x="724" y="-164.5" font-family="Helvetica,sans-Serif" font-size="10.00">UBApplication::eventFilter</text>
</a>
</g>
<!-- Node28&#45;&gt;Node29 -->
<g id="edge82" class="edge"><title>Node28&#45;&gt;Node29</title>
<path fill="none" stroke="midnightblue" d="M615.293,-139.064C638.202,-144.951 662.873,-151.292 682.913,-156.441"/>
<polygon fill="midnightblue" stroke="midnightblue" points="616.158,-135.673 605.601,-136.574 614.415,-142.452 616.158,-135.673"/>
</g>
<!-- Node30 -->
<g id="node72" class="node"><title>Node30</title>
<a xlink:href="../../d8/d81/class_u_b_application.html#adf778486cf90f2d7d5ac3b98a56430b7" target="_top" xlink:title="UBApplication::handleOpen\lMessage">
<polygon fill="white" stroke="black" points="655.5,-104 655.5,-138 792.5,-138 792.5,-104 655.5,-104"/>
<text text-anchor="start" x="663.5" y="-125" font-family="Helvetica,sans-Serif" font-size="10.00">UBApplication::handleOpen</text>
<text text-anchor="middle" x="724" y="-112" font-family="Helvetica,sans-Serif" font-size="10.00">Message</text>
</a>
</g>
<!-- Node28&#45;&gt;Node30 -->
<g id="edge84" class="edge"><title>Node28&#45;&gt;Node30</title>
<path fill="none" stroke="midnightblue" d="M615.905,-121C628.927,-121 642.498,-121 655.45,-121"/>
<polygon fill="midnightblue" stroke="midnightblue" points="615.601,-117.5 605.601,-121 615.601,-124.5 615.601,-117.5"/>
</g>
<!-- Node32 -->
<g id="node77" class="node"><title>Node32</title>
<a xlink:href="../../d6/de0/class_u_b_document_controller.html#abb172787a34a34cd3c2df0a1b46918c5" target="_top" xlink:title="UBDocumentController\l::setupViews">
<polygon fill="white" stroke="black" points="665,-52 665,-86 783,-86 783,-52 665,-52"/>
<text text-anchor="start" x="673" y="-73" font-family="Helvetica,sans-Serif" font-size="10.00">UBDocumentController</text>
<text text-anchor="middle" x="724" y="-60" font-family="Helvetica,sans-Serif" font-size="10.00">::setupViews</text>
</a>
</g>
<!-- Node31&#45;&gt;Node32 -->
<g id="edge90" class="edge"><title>Node31&#45;&gt;Node32</title>
<path fill="none" stroke="midnightblue" d="M614.361,-69C631.07,-69 648.767,-69 664.955,-69"/>
<polygon fill="midnightblue" stroke="midnightblue" points="614.107,-65.5001 604.107,-69 614.107,-72.5001 614.107,-65.5001"/>
</g>
<!-- Node33 -->
<g id="node79" class="node"><title>Node33</title>
<a xlink:href="../../d6/de0/class_u_b_document_controller.html#a38e9ea0a2dad2b1c8d9588563e9ee3bf" target="_top" xlink:title="UBDocumentController\l::UBDocumentController">
<polygon fill="white" stroke="black" points="838,-52 838,-86 962,-86 962,-52 838,-52"/>
<text text-anchor="start" x="846" y="-73" font-family="Helvetica,sans-Serif" font-size="10.00">UBDocumentController</text>
<text text-anchor="middle" x="900" y="-60" font-family="Helvetica,sans-Serif" font-size="10.00">::UBDocumentController</text>
</a>
</g>
<!-- Node32&#45;&gt;Node33 -->
<g id="edge92" class="edge"><title>Node32&#45;&gt;Node33</title>
<path fill="none" stroke="midnightblue" d="M793.142,-69C807.857,-69 823.309,-69 837.748,-69"/>
<polygon fill="midnightblue" stroke="midnightblue" points="793.095,-65.5001 783.095,-69 793.095,-72.5001 793.095,-65.5001"/>
</g>
</g>
</svg>
        <g id="navigator" transform="translate(0 0)" fill="#404254">
                <rect fill="#f2f5e9" fill-opacity="0.5" stroke="#606060" stroke-width=".5" x="0" y="0" width="60" height="60"/>
                <use id="zoomplus" xlink:href="#zoomPlus" x="17" y="9" onmousedown="handleZoom(evt,'in')"/>
                <use id="zoomminus" xlink:href="#zoomMin" x="42" y="9" onmousedown="handleZoom(evt,'out')"/>
                <use id="reset" xlink:href="#resetDef" x="30" y="36" onmousedown="handleReset()"/>
                <g id="arrowUp" xlink:href="#dirArrow" transform="translate(30 24)" onmousedown="handlePan(0,-1)">
                  <use xlink:href="#rim" fill="#404040">
                        <set attributeName="fill" to="#808080" begin="arrowUp.mouseover" end="arrowUp.mouseout"/>
                  </use>
                  <path fill="none" stroke="white" stroke-width="1.5" d="M0,-3.0v7 M-2.5,-0.5L0,-3.0L2.5,-0.5"/>
                </g>
                <g id="arrowRight" xlink:href="#dirArrow" transform="rotate(90) translate(36 -43)" onmousedown="handlePan(1,0)">
                  <use xlink:href="#rim" fill="#404040">
                        <set attributeName="fill" to="#808080" begin="arrowRight.mouseover" end="arrowRight.mouseout"/>
                  </use>
                  <path fill="none" stroke="white" stroke-width="1.5" d="M0,-3.0v7 M-2.5,-0.5L0,-3.0L2.5,-0.5"/>
                </g>
                <g id="arrowDown" xlink:href="#dirArrow" transform="rotate(180) translate(-30 -48)" onmousedown="handlePan(0,1)">
                  <use xlink:href="#rim" fill="#404040">
                        <set attributeName="fill" to="#808080" begin="arrowDown.mouseover" end="arrowDown.mouseout"/>
                  </use>
                  <path fill="none" stroke="white" stroke-width="1.5" d="M0,-3.0v7 M-2.5,-0.5L0,-3.0L2.5,-0.5"/>
                </g>
                <g id="arrowLeft" xlink:href="#dirArrow" transform="rotate(270) translate(-36 17)" onmousedown="handlePan(-1,0)">
                  <use xlink:href="#rim" fill="#404040">
                        <set attributeName="fill" to="#808080" begin="arrowLeft.mouseover" end="arrowLeft.mouseout"/>
                  </use>
                  <path fill="none" stroke="white" stroke-width="1.5" d="M0,-3.0v7 M-2.5,-0.5L0,-3.0L2.5,-0.5"/>
                </g>
        </g>
        <svg viewBox="0 0 15 15" width="100%" height="30px" preserveAspectRatio="xMaxYMin meet">
         <g id="arrow_out" transform="scale(0.3 0.3)">
          <a xlink:href="class_u_b_document_container_a3a55f82506aa66ce1461dee609157862_icgraph_org.svg" target="_base">
           <rect id="button" ry="5" rx="5" y="6" x="6" height="38" width="38"
                fill="#f2f5e9" fill-opacity="0.5" stroke="#606060" stroke-width="1.0"/>
           <path id="arrow"
             d="M 11.500037,31.436501 C 11.940474,20.09759 22.043105,11.32322 32.158766,21.979434 L 37.068811,17.246167 C 37.068811,17.246167 37.088388,32 37.088388,32 L 22.160133,31.978069 C 22.160133,31.978069 26.997745,27.140456 26.997745,27.140456 C 18.528582,18.264221 13.291696,25.230495 11.500037,31.436501 z"
             style="fill:#404040;"/>
          </a>
         </g>
        </svg>
</svg>
