<?xml version="1.0" encoding="UTF-8" standalone="no"?>
<!DOCTYPE svg PUBLIC "-//W3C//DTD SVG 1.1//EN"
 "http://www.w3.org/Graphics/SVG/1.1/DTD/svg11.dtd">
<!-- Generated by graphviz version 2.26.3 (20100126.1600)
 -->
<!-- Title: UBPersistenceManager.h Pages: 1 -->
<svg width="811pt" height="508pt"
 viewBox="0.00 0.00 811.00 508.00" xmlns="http://www.w3.org/2000/svg" xmlns:xlink="http://www.w3.org/1999/xlink">
<g id="graph1" class="graph" transform="scale(1 1) rotate(0) translate(4 504)">
<title>UBPersistenceManager.h</title>
<polygon fill="white" stroke="white" points="-4,5 -4,-504 808,-504 808,5 -4,5"/>
<!-- Node1 -->
<g id="node1" class="node"><title>Node1</title>
<polygon fill="#bfbfbf" stroke="black" points="0,-478.5 0,-499.5 128,-499.5 128,-478.5 0,-478.5"/>
<text text-anchor="middle" x="64" y="-486.5" font-family="Helvetica,sans-Serif" font-size="10.00">UBPersistenceManager.h</text>
</g>
<!-- Node2 -->
<g id="node3" class="node"><title>Node2</title>
<polygon fill="white" stroke="#bfbfbf" points="27,-58.5 27,-79.5 75,-79.5 75,-58.5 27,-58.5"/>
<text text-anchor="middle" x="51" y="-66.5" font-family="Helvetica,sans-Serif" font-size="10.00">QtCore</text>
</g>
<!-- Node1&#45;&gt;Node2 -->
<g id="edge2" class="edge"><title>Node1&#45;&gt;Node2</title>
<path fill="none" stroke="midnightblue" d="M58.2188,-478.485C47.8125,-458.543 27,-413.586 27,-373 27,-373 27,-373 27,-185 27,-150.913 37.0609,-112.338 44.1547,-89.3763"/>
<polygon fill="midnightblue" stroke="midnightblue" points="47.5299,-90.3126 47.25,-79.7215 40.8641,-88.1755 47.5299,-90.3126"/>
</g>
<!-- Node3 -->
<g id="node5" class="node"><title>Node3</title>
<a xlink:href="../../d0/d26/_u_b_scene_cache_8h.html" target="_top" xlink:title="UBSceneCache.h">
<polygon fill="white" stroke="black" points="54.5,-420.5 54.5,-441.5 149.5,-441.5 149.5,-420.5 54.5,-420.5"/>
<text text-anchor="middle" x="102" y="-428.5" font-family="Helvetica,sans-Serif" font-size="10.00">UBSceneCache.h</text>
</a>
</g>
<!-- Node1&#45;&gt;Node3 -->
<g id="edge4" class="edge"><title>Node1&#45;&gt;Node3</title>
<path fill="none" stroke="midnightblue" d="M70.9698,-478.362C76.1657,-470.431 83.4006,-459.389 89.5775,-449.961"/>
<polygon fill="midnightblue" stroke="midnightblue" points="92.5217,-451.853 95.0744,-441.571 86.6665,-448.017 92.5217,-451.853"/>
</g>
<!-- Node3&#45;&gt;Node2 -->
<g id="edge6" class="edge"><title>Node3&#45;&gt;Node2</title>
<path fill="none" stroke="midnightblue" d="M96.2188,-420.485C85.8125,-400.543 65,-355.586 65,-315 65,-315 65,-315 65,-185 65,-151.355 59.1234,-112.615 54.9849,-89.5038"/>
<polygon fill="midnightblue" stroke="midnightblue" points="58.3949,-88.6968 53.1263,-79.5049 51.5128,-89.9761 58.3949,-88.6968"/>
</g>
<!-- Node4 -->
<g id="node8" class="node"><title>Node4</title>
<a xlink:href="../../d7/d87/_u_b_graphics_scene_8h.html" target="_top" xlink:title="domain/UBGraphicsScene.h">
<polygon fill="white" stroke="black" points="471,-362.5 471,-383.5 611,-383.5 611,-362.5 471,-362.5"/>
<text text-anchor="middle" x="541" y="-370.5" font-family="Helvetica,sans-Serif" font-size="10.00">domain/UBGraphicsScene.h</text>
</a>
</g>
<!-- Node3&#45;&gt;Node4 -->
<g id="edge8" class="edge"><title>Node3&#45;&gt;Node4</title>
<path fill="none" stroke="midnightblue" d="M149.816,-424.683C224.571,-414.806 369.956,-395.598 460.893,-383.584"/>
<polygon fill="midnightblue" stroke="midnightblue" points="461.428,-387.043 470.883,-382.264 460.511,-380.104 461.428,-387.043"/>
</g>
<!-- Node5 -->
<g id="node10" class="node"><title>Node5</title>
<polygon fill="white" stroke="#bfbfbf" points="393,-0.5 393,-21.5 435,-21.5 435,-0.5 393,-0.5"/>
<text text-anchor="middle" x="414" y="-8.5" font-family="Helvetica,sans-Serif" font-size="10.00">QtGui</text>
</g>
<!-- Node4&#45;&gt;Node5 -->
<g id="edge10" class="edge"><title>Node4&#45;&gt;Node5</title>
<path fill="none" stroke="midnightblue" d="M556.267,-362.411C581.945,-343.219 631,-300.01 631,-250 631,-250 631,-250 631,-127 631,-43.7826 505.347,-20.0446 445.272,-13.4508"/>
<polygon fill="midnightblue" stroke="midnightblue" points="445.502,-9.95636 435.202,-12.4394 444.802,-16.9213 445.502,-9.95636"/>
</g>
<!-- Node6 -->
<g id="node12" class="node"><title>Node6</title>
<a xlink:href="../../db/dce/_u_b_core_graphics_scene_8h.html" target="_top" xlink:title="frameworks/UBCoreGraphics\lScene.h">
<polygon fill="white" stroke="black" points="658.5,-233 658.5,-267 803.5,-267 803.5,-233 658.5,-233"/>
<text text-anchor="start" x="666.5" y="-254" font-family="Helvetica,sans-Serif" font-size="10.00">frameworks/UBCoreGraphics</text>
<text text-anchor="middle" x="731" y="-241" font-family="Helvetica,sans-Serif" font-size="10.00">Scene.h</text>
</a>
</g>
<!-- Node4&#45;&gt;Node6 -->
<g id="edge12" class="edge"><title>Node4&#45;&gt;Node6</title>
<path fill="none" stroke="midnightblue" d="M570.448,-362.43C591.961,-354.069 621.375,-341.28 645,-326 667.861,-311.214 690.819,-290.56 707.257,-274.515"/>
<polygon fill="midnightblue" stroke="midnightblue" points="710.141,-276.583 714.773,-267.055 705.21,-271.615 710.141,-276.583"/>
</g>
<!-- Node7 -->
<g id="node15" class="node"><title>Node7</title>
<a xlink:href="../../d6/dd0/_u_b_8h.html" target="_top" xlink:title="core/UB.h">
<polygon fill="white" stroke="black" points="429.5,-58.5 429.5,-79.5 490.5,-79.5 490.5,-58.5 429.5,-58.5"/>
<text text-anchor="middle" x="460" y="-66.5" font-family="Helvetica,sans-Serif" font-size="10.00">core/UB.h</text>
</a>
</g>
<!-- Node4&#45;&gt;Node7 -->
<g id="edge16" class="edge"><title>Node4&#45;&gt;Node7</title>
<path fill="none" stroke="midnightblue" d="M550.091,-362.495C557.524,-353.401 567.785,-339.603 574,-326 588.469,-294.331 593,-284.817 593,-250 593,-250 593,-250 593,-185 593,-134.724 538.354,-101.24 499.118,-83.6778"/>
<polygon fill="midnightblue" stroke="midnightblue" points="500.087,-80.2849 489.517,-79.5554 497.325,-86.717 500.087,-80.2849"/>
</g>
<!-- Node8 -->
<g id="node18" class="node"><title>Node8</title>
<a xlink:href="../../d6/d46/_u_b_item_8h.html" target="_top" xlink:title="UBItem.h">
<polygon fill="white" stroke="black" points="355.5,-239.5 355.5,-260.5 414.5,-260.5 414.5,-239.5 355.5,-239.5"/>
<text text-anchor="middle" x="385" y="-247.5" font-family="Helvetica,sans-Serif" font-size="10.00">UBItem.h</text>
</a>
</g>
<!-- Node4&#45;&gt;Node8 -->
<g id="edge20" class="edge"><title>Node4&#45;&gt;Node8</title>
<path fill="none" stroke="midnightblue" d="M495.846,-362.464C461,-353.458 416.668,-339.801 404,-326 390.325,-311.103 386.126,-287.872 385.008,-271.015"/>
<polygon fill="midnightblue" stroke="midnightblue" points="388.49,-270.416 384.648,-260.542 381.494,-270.657 388.49,-270.416"/>
</g>
<!-- Node15 -->
<g id="node40" class="node"><title>Node15</title>
<a xlink:href="../../dd/d77/_u_b_graphics_curtain_item_8h.html" target="_top" xlink:title="tools/UBGraphicsCurtainItem.h">
<polygon fill="white" stroke="black" points="412.5,-304.5 412.5,-325.5 565.5,-325.5 565.5,-304.5 412.5,-304.5"/>
<text text-anchor="middle" x="489" y="-312.5" font-family="Helvetica,sans-Serif" font-size="10.00">tools/UBGraphicsCurtainItem.h</text>
</a>
</g>
<!-- Node4&#45;&gt;Node15 -->
<g id="edge50" class="edge"><title>Node4&#45;&gt;Node15</title>
<path fill="none" stroke="midnightblue" d="M531.462,-362.362C524.132,-354.186 513.837,-342.702 505.219,-333.091"/>
<polygon fill="midnightblue" stroke="midnightblue" points="507.759,-330.68 498.477,-325.571 502.547,-335.353 507.759,-330.68"/>
</g>
<!-- Node6&#45;&gt;Node5 -->
<g id="edge14" class="edge"><title>Node6&#45;&gt;Node5</title>
<path fill="none" stroke="midnightblue" d="M728.593,-232.727C722.334,-194.706 701.878,-103.545 645,-58 614.463,-33.5474 500.707,-19.405 445.057,-13.8108"/>
<polygon fill="midnightblue" stroke="midnightblue" points="445.352,-10.3231 435.06,-12.8352 444.672,-17.29 445.352,-10.3231"/>
</g>
<!-- Node7&#45;&gt;Node5 -->
<g id="edge18" class="edge"><title>Node7&#45;&gt;Node5</title>
<path fill="none" stroke="midnightblue" d="M451.563,-58.3619C445.208,-50.3496 436.334,-39.1605 428.807,-29.6696"/>
<polygon fill="midnightblue" stroke="midnightblue" points="431.34,-27.2308 422.384,-21.5707 425.855,-31.5805 431.34,-27.2308"/>
</g>
<!-- Node8&#45;&gt;Node5 -->
<g id="edge22" class="edge"><title>Node8&#45;&gt;Node5</title>
<path fill="none" stroke="midnightblue" d="M355.241,-248.358C281.479,-242.724 97.8346,-218.366 122,-116 128.622,-87.9505 127.918,-75.2575 151,-58 187.183,-30.9477 320.589,-17.8511 382.302,-13.1356"/>
<polygon fill="midnightblue" stroke="midnightblue" points="382.89,-16.6018 392.606,-12.3757 382.375,-9.62076 382.89,-16.6018"/>
</g>
<!-- Node8&#45;&gt;Node7 -->
<g id="edge48" class="edge"><title>Node8&#45;&gt;Node7</title>
<path fill="none" stroke="midnightblue" d="M396.05,-239.45C406.097,-229.248 420.598,-212.891 429,-196 446.345,-161.128 454.366,-115.941 457.769,-89.937"/>
<polygon fill="midnightblue" stroke="midnightblue" points="461.275,-90.0946 458.992,-79.7487 454.325,-89.2604 461.275,-90.0946"/>
</g>
<!-- Node9 -->
<g id="node21" class="node"><title>Node9</title>
<a xlink:href="../../d0/d4e/_u_b_graphics_item_delegate_8h.html" target="_top" xlink:title="domain/UBGraphicsItemDelegate.h">
<polygon fill="white" stroke="black" points="249.5,-174.5 249.5,-195.5 420.5,-195.5 420.5,-174.5 249.5,-174.5"/>
<text text-anchor="middle" x="335" y="-182.5" font-family="Helvetica,sans-Serif" font-size="10.00">domain/UBGraphicsItemDelegate.h</text>
</a>
</g>
<!-- Node8&#45;&gt;Node9 -->
<g id="edge24" class="edge"><title>Node8&#45;&gt;Node9</title>
<path fill="none" stroke="midnightblue" d="M376.744,-239.267C369.317,-229.612 358.242,-215.215 349.365,-203.675"/>
<polygon fill="midnightblue" stroke="midnightblue" points="351.974,-201.326 343.103,-195.534 346.426,-205.594 351.974,-201.326"/>
</g>
<!-- Node9&#45;&gt;Node5 -->
<g id="edge26" class="edge"><title>Node9&#45;&gt;Node5</title>
<path fill="none" stroke="midnightblue" d="M313.369,-174.278C291.062,-161.659 261.205,-139.437 274,-116 288.178,-90.0301 306.083,-97.4198 330,-80 352.734,-63.4418 377.465,-42.7796 394.164,-28.4025"/>
<polygon fill="midnightblue" stroke="midnightblue" points="396.848,-30.7074 402.111,-21.5121 392.263,-25.4184 396.848,-30.7074"/>
</g>
<!-- Node9&#45;&gt;Node7 -->
<g id="edge32" class="edge"><title>Node9&#45;&gt;Node7</title>
<path fill="none" stroke="midnightblue" d="M363.908,-174.365C382.252,-166.499 405.546,-154.321 422,-138 436.042,-124.071 446.346,-103.858 452.654,-88.9072"/>
<polygon fill="midnightblue" stroke="midnightblue" points="455.937,-90.1245 456.38,-79.5389 449.432,-87.5378 455.937,-90.1245"/>
</g>
<!-- Node10 -->
<g id="node24" class="node"><title>Node10</title>
<polygon fill="white" stroke="#bfbfbf" points="283,-116.5 283,-137.5 327,-137.5 327,-116.5 283,-116.5"/>
<text text-anchor="middle" x="305" y="-124.5" font-family="Helvetica,sans-Serif" font-size="10.00">QtSvg</text>
</g>
<!-- Node9&#45;&gt;Node10 -->
<g id="edge28" class="edge"><title>Node9&#45;&gt;Node10</title>
<path fill="none" stroke="midnightblue" d="M329.498,-174.362C325.48,-166.595 319.919,-155.843 315.11,-146.546"/>
<polygon fill="midnightblue" stroke="midnightblue" points="318.171,-144.845 310.468,-137.571 311.953,-148.061 318.171,-144.845"/>
</g>
<!-- Node11 -->
<g id="node26" class="node"><title>Node11</title>
<polygon fill="white" stroke="#bfbfbf" points="344.5,-116.5 344.5,-137.5 413.5,-137.5 413.5,-116.5 344.5,-116.5"/>
<text text-anchor="middle" x="379" y="-124.5" font-family="Helvetica,sans-Serif" font-size="10.00">QMimeData</text>
</g>
<!-- Node9&#45;&gt;Node11 -->
<g id="edge30" class="edge"><title>Node9&#45;&gt;Node11</title>
<path fill="none" stroke="midnightblue" d="M343.07,-174.362C349.149,-166.35 357.637,-155.161 364.837,-145.67"/>
<polygon fill="midnightblue" stroke="midnightblue" points="367.725,-147.653 370.981,-137.571 362.149,-143.422 367.725,-147.653"/>
</g>
<!-- Node12 -->
<g id="node29" class="node"><title>Node12</title>
<a xlink:href="../../d1/d92/_u_b_settings_8h.html" target="_top" xlink:title="core/UBSettings.h">
<polygon fill="white" stroke="black" points="130.5,-116.5 130.5,-137.5 227.5,-137.5 227.5,-116.5 130.5,-116.5"/>
<text text-anchor="middle" x="179" y="-124.5" font-family="Helvetica,sans-Serif" font-size="10.00">core/UBSettings.h</text>
</a>
</g>
<!-- Node9&#45;&gt;Node12 -->
<g id="edge34" class="edge"><title>Node9&#45;&gt;Node12</title>
<path fill="none" stroke="midnightblue" d="M306.75,-174.497C281.538,-165.123 244.424,-151.324 216.688,-141.012"/>
<polygon fill="midnightblue" stroke="midnightblue" points="217.896,-137.727 207.303,-137.523 215.457,-144.289 217.896,-137.727"/>
</g>
<!-- Node12&#45;&gt;Node2 -->
<g id="edge36" class="edge"><title>Node12&#45;&gt;Node2</title>
<path fill="none" stroke="midnightblue" d="M155.82,-116.497C135.648,-107.356 106.19,-94.0082 83.6362,-83.7883"/>
<polygon fill="midnightblue" stroke="midnightblue" points="84.9931,-80.5606 74.4399,-79.6212 82.1039,-86.9366 84.9931,-80.5606"/>
</g>
<!-- Node12&#45;&gt;Node5 -->
<g id="edge38" class="edge"><title>Node12&#45;&gt;Node5</title>
<path fill="none" stroke="midnightblue" d="M170.844,-116.422C160.566,-101.719 145.855,-75.0021 160,-58 188.004,-24.3392 321.077,-14.6838 382.632,-11.9971"/>
<polygon fill="midnightblue" stroke="midnightblue" points="383.056,-15.4829 392.908,-11.5848 382.776,-8.48858 383.056,-15.4829"/>
</g>
<!-- Node12&#45;&gt;Node7 -->
<g id="edge42" class="edge"><title>Node12&#45;&gt;Node7</title>
<path fill="none" stroke="midnightblue" d="M227.626,-116.963C281.853,-105.771 368.595,-87.8664 419.354,-77.3896"/>
<polygon fill="midnightblue" stroke="midnightblue" points="420.224,-80.7839 429.31,-75.3346 418.809,-73.9284 420.224,-80.7839"/>
</g>
<!-- Node13 -->
<g id="node33" class="node"><title>Node13</title>
<polygon fill="white" stroke="#bfbfbf" points="257,-58.5 257,-79.5 321,-79.5 321,-58.5 257,-58.5"/>
<text text-anchor="middle" x="289" y="-66.5" font-family="Helvetica,sans-Serif" font-size="10.00">QtNetwork</text>
</g>
<!-- Node12&#45;&gt;Node13 -->
<g id="edge40" class="edge"><title>Node12&#45;&gt;Node13</title>
<path fill="none" stroke="midnightblue" d="M198.92,-116.497C215.946,-107.519 240.669,-94.4835 259.909,-84.3387"/>
<polygon fill="midnightblue" stroke="midnightblue" points="261.643,-87.3814 268.856,-79.6212 258.378,-81.1894 261.643,-87.3814"/>
</g>
<!-- Node14 -->
<g id="node36" class="node"><title>Node14</title>
<a xlink:href="../../d3/d76/_u_b_setting_8h.html" target="_top" xlink:title="UBSetting.h">
<polygon fill="white" stroke="black" points="169,-58.5 169,-79.5 239,-79.5 239,-58.5 169,-58.5"/>
<text text-anchor="middle" x="204" y="-66.5" font-family="Helvetica,sans-Serif" font-size="10.00">UBSetting.h</text>
</a>
</g>
<!-- Node12&#45;&gt;Node14 -->
<g id="edge44" class="edge"><title>Node12&#45;&gt;Node14</title>
<path fill="none" stroke="midnightblue" d="M183.585,-116.362C186.898,-108.677 191.47,-98.0686 195.448,-88.8399"/>
<polygon fill="midnightblue" stroke="midnightblue" points="198.699,-90.1393 199.444,-79.5707 192.271,-87.3685 198.699,-90.1393"/>
</g>
<!-- Node14&#45;&gt;Node5 -->
<g id="edge46" class="edge"><title>Node14&#45;&gt;Node5</title>
<path fill="none" stroke="midnightblue" d="M239.149,-59.2921C279.279,-48.2087 344.32,-30.2449 382.747,-19.6319"/>
<polygon fill="midnightblue" stroke="midnightblue" points="384.129,-22.8813 392.836,-16.8453 382.265,-16.1339 384.129,-22.8813"/>
</g>
<!-- Node15&#45;&gt;Node5 -->
<g id="edge52" class="edge"><title>Node15&#45;&gt;Node5</title>
<path fill="none" stroke="midnightblue" d="M498.739,-304.459C517.098,-283.441 555,-234.104 555,-185 555,-185 555,-185 555,-127 555,-70.3353 486.248,-36.245 444.761,-20.8322"/>
<polygon fill="midnightblue" stroke="midnightblue" points="445.704,-17.4527 435.109,-17.3985 443.358,-24.0478 445.704,-17.4527"/>
</g>
<!-- Node15&#45;&gt;Node7 -->
<g id="edge54" class="edge"><title>Node15&#45;&gt;Node7</title>
<path fill="none" stroke="midnightblue" d="M487.754,-304.43C483.329,-266.896 468.323,-139.604 462.417,-89.5018"/>
<polygon fill="midnightblue" stroke="midnightblue" points="465.888,-89.0524 461.241,-79.5309 458.936,-89.872 465.888,-89.0524"/>
</g>
<!-- Node15&#45;&gt;Node8 -->
<g id="edge56" class="edge"><title>Node15&#45;&gt;Node8</title>
<path fill="none" stroke="midnightblue" d="M471.827,-304.267C455.092,-293.807 429.451,-277.782 410.367,-265.854"/>
<polygon fill="midnightblue" stroke="midnightblue" points="412.189,-262.866 401.854,-260.534 408.479,-268.802 412.189,-262.866"/>
</g>
</g>
</svg>
