<?xml version="1.0" encoding="UTF-8" standalone="no"?>
<!DOCTYPE svg PUBLIC "-//W3C//DTD SVG 1.1//EN"
 "http://www.w3.org/Graphics/SVG/1.1/DTD/svg11.dtd">
<!-- Generated by graphviz version 2.26.3 (20100126.1600)
 -->
<!-- Title: UBBoardView::itemShouldReceiveMousePressEvent Pages: 1 -->
<svg width="1710pt" height="696pt"
 viewBox="0.00 0.00 1710.00 696.28" xmlns="http://www.w3.org/2000/svg" xmlns:xlink="http://www.w3.org/1999/xlink">
<g id="graph1" class="graph" transform="scale(1 1) rotate(0) translate(4 692.28)">
<title>UBBoardView::itemShouldReceiveMousePressEvent</title>
<polygon fill="white" stroke="white" points="-4,5 -4,-692.28 1707,-692.28 1707,5 -4,5"/>
<!-- Node1 -->
<g id="node1" class="node"><title>Node1</title>
<polygon fill="#bfbfbf" stroke="black" points="0.5,-301.296 0.5,-335.296 169.5,-335.296 169.5,-301.296 0.5,-301.296"/>
<text text-anchor="start" x="8.5" y="-322.296" font-family="Helvetica,sans-Serif" font-size="10.00">UBBoardView::itemShouldReceive</text>
<text text-anchor="middle" x="85" y="-309.296" font-family="Helvetica,sans-Serif" font-size="10.00">MousePressEvent</text>
</g>
<!-- Node2 -->
<g id="node3" class="node"><title>Node2</title>
<a xlink:href="../../d1/d78/class_u_b_board_view.html#a471b5373f2debb2c5cb6e2d0db6b74f1" target="_top" xlink:title="UBBoardView::scene">
<polygon fill="white" stroke="black" points="214,-379.796 214,-400.796 324,-400.796 324,-379.796 214,-379.796"/>
<text text-anchor="middle" x="269" y="-387.796" font-family="Helvetica,sans-Serif" font-size="10.00">UBBoardView::scene</text>
</a>
</g>
<!-- Node1&#45;&gt;Node2 -->
<g id="edge2" class="edge"><title>Node1&#45;&gt;Node2</title>
<path fill="none" stroke="midnightblue" d="M121.954,-335.3C145.72,-345.956 177.396,-359.639 206,-370.296 211.857,-372.478 218.074,-374.637 224.232,-376.684"/>
<polygon fill="midnightblue" stroke="midnightblue" points="223.209,-380.032 233.801,-379.796 225.373,-373.375 223.209,-380.032"/>
</g>
<!-- Node3 -->
<g id="node5" class="node"><title>Node3</title>
<a xlink:href="../../d0/d58/class_u_b_drawing_controller.html#a9d2d10417806a2d7303df24b820f2ab3" target="_top" xlink:title="UBDrawingController\l::drawingController">
<polygon fill="white" stroke="black" points="214.5,-327.296 214.5,-361.296 323.5,-361.296 323.5,-327.296 214.5,-327.296"/>
<text text-anchor="start" x="222.5" y="-348.296" font-family="Helvetica,sans-Serif" font-size="10.00">UBDrawingController</text>
<text text-anchor="middle" x="269" y="-335.296" font-family="Helvetica,sans-Serif" font-size="10.00">::drawingController</text>
</a>
</g>
<!-- Node1&#45;&gt;Node3 -->
<g id="edge4" class="edge"><title>Node1&#45;&gt;Node3</title>
<path fill="none" stroke="midnightblue" d="M169.729,-330.268C181.356,-331.911 193.138,-333.576 204.327,-335.157"/>
<polygon fill="midnightblue" stroke="midnightblue" points="204.023,-338.649 214.414,-336.583 205.002,-331.718 204.023,-338.649"/>
</g>
<!-- Node34 -->
<g id="node81" class="node"><title>Node34</title>
<a xlink:href="../../d0/d58/class_u_b_drawing_controller.html#a244d6a9a4638309428bcf0c29531b872" target="_top" xlink:title="UBDrawingController\l::stylusTool">
<polygon fill="white" stroke="black" points="214.5,-275.296 214.5,-309.296 323.5,-309.296 323.5,-275.296 214.5,-275.296"/>
<text text-anchor="start" x="222.5" y="-296.296" font-family="Helvetica,sans-Serif" font-size="10.00">UBDrawingController</text>
<text text-anchor="middle" x="269" y="-283.296" font-family="Helvetica,sans-Serif" font-size="10.00">::stylusTool</text>
</a>
</g>
<!-- Node1&#45;&gt;Node34 -->
<g id="edge94" class="edge"><title>Node1&#45;&gt;Node34</title>
<path fill="none" stroke="midnightblue" d="M169.729,-306.323C181.356,-304.68 193.138,-303.016 204.327,-301.434"/>
<polygon fill="midnightblue" stroke="midnightblue" points="205.002,-304.874 214.414,-300.009 204.023,-297.943 205.002,-304.874"/>
</g>
<!-- Node35 -->
<g id="node83" class="node"><title>Node35</title>
<a xlink:href="../../d1/d78/class_u_b_board_view.html#aea986caa709a9c6f2877b41e5d7bbdea" target="_top" xlink:title="UBBoardView::isUBItem">
<polygon fill="white" stroke="black" points="206.5,-235.796 206.5,-256.796 331.5,-256.796 331.5,-235.796 206.5,-235.796"/>
<text text-anchor="middle" x="269" y="-243.796" font-family="Helvetica,sans-Serif" font-size="10.00">UBBoardView::isUBItem</text>
</a>
</g>
<!-- Node1&#45;&gt;Node35 -->
<g id="edge96" class="edge"><title>Node1&#45;&gt;Node35</title>
<path fill="none" stroke="midnightblue" d="M121.954,-301.291C145.72,-290.636 177.396,-276.953 206,-266.296 211.857,-264.114 218.074,-261.955 224.232,-259.908"/>
<polygon fill="midnightblue" stroke="midnightblue" points="225.373,-263.217 233.801,-256.796 223.209,-256.56 225.373,-263.217"/>
</g>
<!-- Node4 -->
<g id="node7" class="node"><title>Node4</title>
<a xlink:href="../../d0/d58/class_u_b_drawing_controller.html#a381f5fe1a1745d30bc1abb102ebb3c15" target="_top" xlink:title="UBDrawingController\l::UBDrawingController">
<polygon fill="white" stroke="black" points="368.5,-327.296 368.5,-361.296 483.5,-361.296 483.5,-327.296 368.5,-327.296"/>
<text text-anchor="start" x="376.5" y="-348.296" font-family="Helvetica,sans-Serif" font-size="10.00">UBDrawingController</text>
<text text-anchor="middle" x="426" y="-335.296" font-family="Helvetica,sans-Serif" font-size="10.00">::UBDrawingController</text>
</a>
</g>
<!-- Node3&#45;&gt;Node4 -->
<g id="edge6" class="edge"><title>Node3&#45;&gt;Node4</title>
<path fill="none" stroke="midnightblue" d="M323.911,-344.296C335.059,-344.296 346.907,-344.296 358.433,-344.296"/>
<polygon fill="midnightblue" stroke="midnightblue" points="358.455,-347.796 368.455,-344.296 358.455,-340.796 358.455,-347.796"/>
</g>
<!-- Node5 -->
<g id="node9" class="node"><title>Node5</title>
<a xlink:href="../../db/d66/class_u_b_settings.html#a0d8ed418921c2b2d37851faeae00715d" target="_top" xlink:title="UBSettings::settings">
<polygon fill="white" stroke="black" points="838.5,-573.796 838.5,-594.796 945.5,-594.796 945.5,-573.796 838.5,-573.796"/>
<text text-anchor="middle" x="892" y="-581.796" font-family="Helvetica,sans-Serif" font-size="10.00">UBSettings::settings</text>
</a>
</g>
<!-- Node4&#45;&gt;Node5 -->
<g id="edge8" class="edge"><title>Node4&#45;&gt;Node5</title>
<path fill="none" stroke="midnightblue" d="M428.512,-361.679C437.602,-421.877 470.847,-619.769 520,-656.296 628.952,-737.26 803.961,-640.919 867.746,-600.506"/>
<polygon fill="midnightblue" stroke="midnightblue" points="869.817,-603.334 876.328,-594.976 866.026,-597.45 869.817,-603.334"/>
</g>
<!-- Node15 -->
<g id="node30" class="node"><title>Node15</title>
<a xlink:href="../../d0/d58/class_u_b_drawing_controller.html#a6f11f789e8f99d826910541657502b35" target="_top" xlink:title="UBDrawingController\l::colorPaletteChanged">
<polygon fill="white" stroke="black" points="835.5,-84.2959 835.5,-118.296 948.5,-118.296 948.5,-84.2959 835.5,-84.2959"/>
<text text-anchor="start" x="843.5" y="-105.296" font-family="Helvetica,sans-Serif" font-size="10.00">UBDrawingController</text>
<text text-anchor="middle" x="892" y="-92.2959" font-family="Helvetica,sans-Serif" font-size="10.00">::colorPaletteChanged</text>
</a>
</g>
<!-- Node4&#45;&gt;Node15 -->
<g id="edge30" class="edge"><title>Node4&#45;&gt;Node15</title>
<path fill="none" stroke="midnightblue" d="M428.512,-326.913C437.602,-266.714 470.847,-68.8223 520,-32.2959 623.141,44.3498 785.886,-36.4435 856.905,-78.809"/>
<polygon fill="midnightblue" stroke="midnightblue" points="855.136,-81.8295 865.502,-84.0187 858.764,-75.8429 855.136,-81.8295"/>
</g>
<!-- Node16 -->
<g id="node32" class="node"><title>Node16</title>
<a xlink:href="../../d0/d58/class_u_b_drawing_controller.html#ac50b8d2611584f1b6ce34246bcd89ec6" target="_top" xlink:title="UBDrawingController\l::penToolSelected">
<polygon fill="white" stroke="black" points="525.5,-613.296 525.5,-647.296 634.5,-647.296 634.5,-613.296 525.5,-613.296"/>
<text text-anchor="start" x="533.5" y="-634.296" font-family="Helvetica,sans-Serif" font-size="10.00">UBDrawingController</text>
<text text-anchor="middle" x="580" y="-621.296" font-family="Helvetica,sans-Serif" font-size="10.00">::penToolSelected</text>
</a>
</g>
<!-- Node4&#45;&gt;Node16 -->
<g id="edge32" class="edge"><title>Node4&#45;&gt;Node16</title>
<path fill="none" stroke="midnightblue" d="M427.571,-361.598C432.586,-407.191 452.12,-532.071 520,-604.296 520.897,-605.25 521.834,-606.171 522.807,-607.059"/>
<polygon fill="midnightblue" stroke="midnightblue" points="520.809,-609.938 530.869,-613.26 525.076,-604.389 520.809,-609.938"/>
</g>
<!-- Node23 -->
<g id="node48" class="node"><title>Node23</title>
<a xlink:href="../../d0/d58/class_u_b_drawing_controller.html#ac9bd7039ea57fe9a8162b31ed4758148" target="_top" xlink:title="UBDrawingController\l::eraserToolSelected">
<polygon fill="white" stroke="black" points="525.5,-561.296 525.5,-595.296 634.5,-595.296 634.5,-561.296 525.5,-561.296"/>
<text text-anchor="start" x="533.5" y="-582.296" font-family="Helvetica,sans-Serif" font-size="10.00">UBDrawingController</text>
<text text-anchor="middle" x="580" y="-569.296" font-family="Helvetica,sans-Serif" font-size="10.00">::eraserToolSelected</text>
</a>
</g>
<!-- Node4&#45;&gt;Node23 -->
<g id="edge50" class="edge"><title>Node4&#45;&gt;Node23</title>
<path fill="none" stroke="midnightblue" d="M429.355,-361.526C437.791,-400.537 463.383,-496.552 520,-552.296 521.062,-553.341 522.172,-554.348 523.324,-555.317"/>
<polygon fill="midnightblue" stroke="midnightblue" points="521.282,-558.159 531.438,-561.179 525.382,-552.485 521.282,-558.159"/>
</g>
<!-- Node24 -->
<g id="node51" class="node"><title>Node24</title>
<a xlink:href="../../d0/d58/class_u_b_drawing_controller.html#ac4008b36aa26e54eb31c34525eda6b7b" target="_top" xlink:title="UBDrawingController\l::markerToolSelected">
<polygon fill="white" stroke="black" points="525,-509.296 525,-543.296 635,-543.296 635,-509.296 525,-509.296"/>
<text text-anchor="start" x="533" y="-530.296" font-family="Helvetica,sans-Serif" font-size="10.00">UBDrawingController</text>
<text text-anchor="middle" x="580" y="-517.296" font-family="Helvetica,sans-Serif" font-size="10.00">::markerToolSelected</text>
</a>
</g>
<!-- Node4&#45;&gt;Node24 -->
<g id="edge54" class="edge"><title>Node4&#45;&gt;Node24</title>
<path fill="none" stroke="midnightblue" d="M432.311,-361.669C444.591,-393.265 474.543,-460.532 520,-500.296 521.322,-501.452 522.703,-502.564 524.131,-503.631"/>
<polygon fill="midnightblue" stroke="midnightblue" points="522.464,-506.724 532.746,-509.279 526.302,-500.869 522.464,-506.724"/>
</g>
<!-- Node25 -->
<g id="node54" class="node"><title>Node25</title>
<a xlink:href="../../d0/d58/class_u_b_drawing_controller.html#a26cd871f064f2f1949bd3b46982b7c18" target="_top" xlink:title="UBDrawingController\l::selectorToolSelected">
<polygon fill="white" stroke="black" points="523,-457.296 523,-491.296 637,-491.296 637,-457.296 523,-457.296"/>
<text text-anchor="start" x="531" y="-478.296" font-family="Helvetica,sans-Serif" font-size="10.00">UBDrawingController</text>
<text text-anchor="middle" x="580" y="-465.296" font-family="Helvetica,sans-Serif" font-size="10.00">::selectorToolSelected</text>
</a>
</g>
<!-- Node4&#45;&gt;Node25 -->
<g id="edge58" class="edge"><title>Node4&#45;&gt;Node25</title>
<path fill="none" stroke="midnightblue" d="M437.883,-361.485C454.175,-383.984 485.395,-423.466 520,-448.296 521.836,-449.613 523.75,-450.883 525.717,-452.105"/>
<polygon fill="midnightblue" stroke="midnightblue" points="524.193,-455.264 534.618,-457.15 527.644,-449.174 524.193,-455.264"/>
</g>
<!-- Node26 -->
<g id="node57" class="node"><title>Node26</title>
<a xlink:href="../../d0/d58/class_u_b_drawing_controller.html#a684d708764de024a6ef0b77d14b7f0e3" target="_top" xlink:title="UBDrawingController\l::playToolSelected">
<polygon fill="white" stroke="black" points="525.5,-405.296 525.5,-439.296 634.5,-439.296 634.5,-405.296 525.5,-405.296"/>
<text text-anchor="start" x="533.5" y="-426.296" font-family="Helvetica,sans-Serif" font-size="10.00">UBDrawingController</text>
<text text-anchor="middle" x="580" y="-413.296" font-family="Helvetica,sans-Serif" font-size="10.00">::playToolSelected</text>
</a>
</g>
<!-- Node4&#45;&gt;Node26 -->
<g id="edge62" class="edge"><title>Node4&#45;&gt;Node26</title>
<path fill="none" stroke="midnightblue" d="M455.249,-361.43C473.608,-371.945 497.909,-385.431 520,-396.296 523.152,-397.846 526.418,-399.401 529.725,-400.938"/>
<polygon fill="midnightblue" stroke="midnightblue" points="528.54,-404.243 539.091,-405.198 531.438,-397.872 528.54,-404.243"/>
</g>
<!-- Node27 -->
<g id="node60" class="node"><title>Node27</title>
<a xlink:href="../../d0/d58/class_u_b_drawing_controller.html#af8d76f9b5b29b793a0b2b710cd7a970b" target="_top" xlink:title="UBDrawingController\l::handToolSelected">
<polygon fill="white" stroke="black" points="525.5,-353.296 525.5,-387.296 634.5,-387.296 634.5,-353.296 525.5,-353.296"/>
<text text-anchor="start" x="533.5" y="-374.296" font-family="Helvetica,sans-Serif" font-size="10.00">UBDrawingController</text>
<text text-anchor="middle" x="580" y="-361.296" font-family="Helvetica,sans-Serif" font-size="10.00">::handToolSelected</text>
</a>
</g>
<!-- Node4&#45;&gt;Node27 -->
<g id="edge66" class="edge"><title>Node4&#45;&gt;Node27</title>
<path fill="none" stroke="midnightblue" d="M483.782,-354.051C494.13,-355.798 504.974,-357.629 515.497,-359.406"/>
<polygon fill="midnightblue" stroke="midnightblue" points="515.018,-362.874 525.462,-361.088 516.184,-355.972 515.018,-362.874"/>
</g>
<!-- Node28 -->
<g id="node63" class="node"><title>Node28</title>
<a xlink:href="../../d0/d58/class_u_b_drawing_controller.html#afb286643f18871b50ebd9421ca692914" target="_top" xlink:title="UBDrawingController\l::zoomInToolSelected">
<polygon fill="white" stroke="black" points="524,-301.296 524,-335.296 636,-335.296 636,-301.296 524,-301.296"/>
<text text-anchor="start" x="532" y="-322.296" font-family="Helvetica,sans-Serif" font-size="10.00">UBDrawingController</text>
<text text-anchor="middle" x="580" y="-309.296" font-family="Helvetica,sans-Serif" font-size="10.00">::zoomInToolSelected</text>
</a>
</g>
<!-- Node4&#45;&gt;Node28 -->
<g id="edge70" class="edge"><title>Node4&#45;&gt;Node28</title>
<path fill="none" stroke="midnightblue" d="M483.782,-334.54C493.64,-332.876 503.946,-331.136 513.998,-329.439"/>
<polygon fill="midnightblue" stroke="midnightblue" points="514.66,-332.877 523.938,-327.761 513.495,-325.975 514.66,-332.877"/>
</g>
<!-- Node29 -->
<g id="node66" class="node"><title>Node29</title>
<a xlink:href="../../d0/d58/class_u_b_drawing_controller.html#a767b7c2868c614a0905cb9951ed11672" target="_top" xlink:title="UBDrawingController\l::zoomOutToolSelected">
<polygon fill="white" stroke="black" points="520.5,-249.296 520.5,-283.296 639.5,-283.296 639.5,-249.296 520.5,-249.296"/>
<text text-anchor="start" x="528.5" y="-270.296" font-family="Helvetica,sans-Serif" font-size="10.00">UBDrawingController</text>
<text text-anchor="middle" x="580" y="-257.296" font-family="Helvetica,sans-Serif" font-size="10.00">::zoomOutToolSelected</text>
</a>
</g>
<!-- Node4&#45;&gt;Node29 -->
<g id="edge74" class="edge"><title>Node4&#45;&gt;Node29</title>
<path fill="none" stroke="midnightblue" d="M455.249,-327.162C473.608,-316.647 497.909,-303.161 520,-292.296 523.152,-290.746 526.418,-289.191 529.725,-287.654"/>
<polygon fill="midnightblue" stroke="midnightblue" points="531.438,-290.72 539.091,-283.394 528.54,-284.348 531.438,-290.72"/>
</g>
<!-- Node30 -->
<g id="node69" class="node"><title>Node30</title>
<a xlink:href="../../d0/d58/class_u_b_drawing_controller.html#a9ba30f83d57b0caab30ae82bc8f1e1ee" target="_top" xlink:title="UBDrawingController\l::pointerToolSelected">
<polygon fill="white" stroke="black" points="525.5,-197.296 525.5,-231.296 634.5,-231.296 634.5,-197.296 525.5,-197.296"/>
<text text-anchor="start" x="533.5" y="-218.296" font-family="Helvetica,sans-Serif" font-size="10.00">UBDrawingController</text>
<text text-anchor="middle" x="580" y="-205.296" font-family="Helvetica,sans-Serif" font-size="10.00">::pointerToolSelected</text>
</a>
</g>
<!-- Node4&#45;&gt;Node30 -->
<g id="edge78" class="edge"><title>Node4&#45;&gt;Node30</title>
<path fill="none" stroke="midnightblue" d="M437.883,-327.107C454.175,-304.608 485.395,-265.125 520,-240.296 521.836,-238.978 523.75,-237.709 525.717,-236.487"/>
<polygon fill="midnightblue" stroke="midnightblue" points="527.644,-239.418 534.618,-231.442 524.193,-233.328 527.644,-239.418"/>
</g>
<!-- Node31 -->
<g id="node72" class="node"><title>Node31</title>
<a xlink:href="../../d0/d58/class_u_b_drawing_controller.html#a2cbdc9d4445dd8abcc4a59b2a6d28c0d" target="_top" xlink:title="UBDrawingController\l::lineToolSelected">
<polygon fill="white" stroke="black" points="525.5,-145.296 525.5,-179.296 634.5,-179.296 634.5,-145.296 525.5,-145.296"/>
<text text-anchor="start" x="533.5" y="-166.296" font-family="Helvetica,sans-Serif" font-size="10.00">UBDrawingController</text>
<text text-anchor="middle" x="580" y="-153.296" font-family="Helvetica,sans-Serif" font-size="10.00">::lineToolSelected</text>
</a>
</g>
<!-- Node4&#45;&gt;Node31 -->
<g id="edge82" class="edge"><title>Node4&#45;&gt;Node31</title>
<path fill="none" stroke="midnightblue" d="M432.311,-326.922C444.591,-295.327 474.543,-228.06 520,-188.296 521.322,-187.14 522.703,-186.028 524.131,-184.96"/>
<polygon fill="midnightblue" stroke="midnightblue" points="526.302,-187.723 532.746,-179.313 522.464,-181.868 526.302,-187.723"/>
</g>
<!-- Node32 -->
<g id="node75" class="node"><title>Node32</title>
<a xlink:href="../../d0/d58/class_u_b_drawing_controller.html#aec62d39119a747c11bf8b46f9e19b7ca" target="_top" xlink:title="UBDrawingController\l::textToolSelected">
<polygon fill="white" stroke="black" points="525.5,-93.2959 525.5,-127.296 634.5,-127.296 634.5,-93.2959 525.5,-93.2959"/>
<text text-anchor="start" x="533.5" y="-114.296" font-family="Helvetica,sans-Serif" font-size="10.00">UBDrawingController</text>
<text text-anchor="middle" x="580" y="-101.296" font-family="Helvetica,sans-Serif" font-size="10.00">::textToolSelected</text>
</a>
</g>
<!-- Node4&#45;&gt;Node32 -->
<g id="edge86" class="edge"><title>Node4&#45;&gt;Node32</title>
<path fill="none" stroke="midnightblue" d="M429.355,-327.066C437.791,-288.055 463.383,-192.039 520,-136.296 521.062,-135.25 522.172,-134.244 523.324,-133.275"/>
<polygon fill="midnightblue" stroke="midnightblue" points="525.382,-136.106 531.438,-127.413 521.282,-130.432 525.382,-136.106"/>
</g>
<!-- Node33 -->
<g id="node78" class="node"><title>Node33</title>
<a xlink:href="../../d0/d58/class_u_b_drawing_controller.html#a6746622a5b605c5de8e3d5bdabf05aee" target="_top" xlink:title="UBDrawingController\l::captureToolSelected">
<polygon fill="white" stroke="black" points="524,-41.2959 524,-75.2959 636,-75.2959 636,-41.2959 524,-41.2959"/>
<text text-anchor="start" x="532" y="-62.2959" font-family="Helvetica,sans-Serif" font-size="10.00">UBDrawingController</text>
<text text-anchor="middle" x="580" y="-49.2959" font-family="Helvetica,sans-Serif" font-size="10.00">::captureToolSelected</text>
</a>
</g>
<!-- Node4&#45;&gt;Node33 -->
<g id="edge90" class="edge"><title>Node4&#45;&gt;Node33</title>
<path fill="none" stroke="midnightblue" d="M427.571,-326.994C432.586,-281.4 452.12,-156.52 520,-84.2959 520.897,-83.3419 521.834,-82.4212 522.807,-81.5326"/>
<polygon fill="midnightblue" stroke="midnightblue" points="525.076,-84.2028 530.869,-75.3319 520.809,-78.6541 525.076,-84.2028"/>
</g>
<!-- Node6 -->
<g id="node11" class="node"><title>Node6</title>
<a xlink:href="../../db/d66/class_u_b_settings.html#ad703e9b5a7efdb68b9c6ecef0df7cce2" target="_top" xlink:title="UBSettings::UBSettings">
<polygon fill="white" stroke="black" points="998.5,-573.796 998.5,-594.796 1121.5,-594.796 1121.5,-573.796 998.5,-573.796"/>
<text text-anchor="middle" x="1060" y="-581.796" font-family="Helvetica,sans-Serif" font-size="10.00">UBSettings::UBSettings</text>
</a>
</g>
<!-- Node5&#45;&gt;Node6 -->
<g id="edge10" class="edge"><title>Node5&#45;&gt;Node6</title>
<path fill="none" stroke="midnightblue" d="M945.618,-584.296C959.141,-584.296 973.878,-584.296 988.138,-584.296"/>
<polygon fill="midnightblue" stroke="midnightblue" points="988.413,-587.796 998.413,-584.296 988.413,-580.796 988.413,-587.796"/>
</g>
<!-- Node7 -->
<g id="node13" class="node"><title>Node7</title>
<a xlink:href="../../db/d66/class_u_b_settings.html#afd0d739b2cfac7e2d05be7415f6692df" target="_top" xlink:title="UBSettings::InitKeyboard\lPaletteKeyBtnSizes">
<polygon fill="white" stroke="black" points="1170,-612.296 1170,-646.296 1298,-646.296 1298,-612.296 1170,-612.296"/>
<text text-anchor="start" x="1178" y="-633.296" font-family="Helvetica,sans-Serif" font-size="10.00">UBSettings::InitKeyboard</text>
<text text-anchor="middle" x="1234" y="-620.296" font-family="Helvetica,sans-Serif" font-size="10.00">PaletteKeyBtnSizes</text>
</a>
</g>
<!-- Node6&#45;&gt;Node7 -->
<g id="edge12" class="edge"><title>Node6&#45;&gt;Node7</title>
<path fill="none" stroke="midnightblue" d="M1100.8,-594.846C1118.49,-599.423 1139.78,-604.929 1160.09,-610.182"/>
<polygon fill="midnightblue" stroke="midnightblue" points="1159.41,-613.621 1169.97,-612.736 1161.16,-606.844 1159.41,-613.621"/>
</g>
<!-- Node8 -->
<g id="node15" class="node"><title>Node8</title>
<a xlink:href="../../db/d66/class_u_b_settings.html#a2d3413f8b25d64a698d6d83e0f18ff39" target="_top" xlink:title="UBSettings::getAppSettings">
<polygon fill="white" stroke="black" points="1348,-574.796 1348,-595.796 1488,-595.796 1488,-574.796 1348,-574.796"/>
<text text-anchor="middle" x="1418" y="-582.796" font-family="Helvetica,sans-Serif" font-size="10.00">UBSettings::getAppSettings</text>
</a>
</g>
<!-- Node6&#45;&gt;Node8 -->
<g id="edge14" class="edge"><title>Node6&#45;&gt;Node8</title>
<path fill="none" stroke="midnightblue" d="M1121.54,-584.468C1181.22,-584.634 1272.09,-584.888 1337.49,-585.071"/>
<polygon fill="midnightblue" stroke="midnightblue" points="1337.75,-588.572 1347.76,-585.1 1337.77,-581.572 1337.75,-588.572"/>
</g>
<!-- Node10 -->
<g id="node19" class="node"><title>Node10</title>
<a xlink:href="../../db/d66/class_u_b_settings.html#af38d2ad231149df734ca7b5486356500" target="_top" xlink:title="UBSettings::userDataDirectory">
<polygon fill="white" stroke="black" points="1158,-534.796 1158,-555.796 1310,-555.796 1310,-534.796 1158,-534.796"/>
<text text-anchor="middle" x="1234" y="-542.796" font-family="Helvetica,sans-Serif" font-size="10.00">UBSettings::userDataDirectory</text>
</a>
</g>
<!-- Node6&#45;&gt;Node10 -->
<g id="edge18" class="edge"><title>Node6&#45;&gt;Node10</title>
<path fill="none" stroke="midnightblue" d="M1107.09,-573.742C1128.65,-568.908 1154.4,-563.137 1177.05,-558.061"/>
<polygon fill="midnightblue" stroke="midnightblue" points="1177.88,-561.461 1186.88,-555.858 1176.35,-554.63 1177.88,-561.461"/>
</g>
<!-- Node9 -->
<g id="node17" class="node"><title>Node9</title>
<a xlink:href="../../d4/d99/class_u_b_platform_utils.html#ae595b29e794b20564550fd45515fc0a8" target="_top" xlink:title="UBPlatformUtils::application\lResourcesDirectory">
<polygon fill="white" stroke="black" points="1544,-571.296 1544,-605.296 1684,-605.296 1684,-571.296 1544,-571.296"/>
<text text-anchor="start" x="1552" y="-592.296" font-family="Helvetica,sans-Serif" font-size="10.00">UBPlatformUtils::application</text>
<text text-anchor="middle" x="1614" y="-579.296" font-family="Helvetica,sans-Serif" font-size="10.00">ResourcesDirectory</text>
</a>
</g>
<!-- Node8&#45;&gt;Node9 -->
<g id="edge16" class="edge"><title>Node8&#45;&gt;Node9</title>
<path fill="none" stroke="midnightblue" d="M1488.21,-586.37C1502.93,-586.596 1518.57,-586.835 1533.64,-587.066"/>
<polygon fill="midnightblue" stroke="midnightblue" points="1533.9,-590.57 1543.95,-587.224 1534.01,-583.571 1533.9,-590.57"/>
</g>
<!-- Node10&#45;&gt;Node8 -->
<g id="edge20" class="edge"><title>Node10&#45;&gt;Node8</title>
<path fill="none" stroke="midnightblue" d="M1282.34,-555.805C1306.02,-560.952 1334.72,-567.191 1359.61,-572.603"/>
<polygon fill="midnightblue" stroke="midnightblue" points="1359.14,-576.083 1369.66,-574.787 1360.63,-569.243 1359.14,-576.083"/>
</g>
<!-- Node11 -->
<g id="node22" class="node"><title>Node11</title>
<a xlink:href="../../db/d66/class_u_b_settings.html#aea5fec9db96c03162c2ce1d5d4c41ab0" target="_top" xlink:title="UBSettings::replaceWildcard">
<polygon fill="white" stroke="black" points="1346.5,-534.796 1346.5,-555.796 1489.5,-555.796 1489.5,-534.796 1346.5,-534.796"/>
<text text-anchor="middle" x="1418" y="-542.796" font-family="Helvetica,sans-Serif" font-size="10.00">UBSettings::replaceWildcard</text>
</a>
</g>
<!-- Node10&#45;&gt;Node11 -->
<g id="edge22" class="edge"><title>Node10&#45;&gt;Node11</title>
<path fill="none" stroke="midnightblue" d="M1310.17,-545.296C1318.77,-545.296 1327.55,-545.296 1336.22,-545.296"/>
<polygon fill="midnightblue" stroke="midnightblue" points="1336.32,-548.796 1346.32,-545.296 1336.32,-541.796 1336.32,-548.796"/>
</g>
<!-- Node13 -->
<g id="node26" class="node"><title>Node13</title>
<a xlink:href="../../db/d66/class_u_b_settings.html#ac0b3c85870c353e48b7d2cfdff9e0eaa" target="_top" xlink:title="UBSettings::checkDirectory">
<polygon fill="white" stroke="black" points="1348.5,-494.796 1348.5,-515.796 1487.5,-515.796 1487.5,-494.796 1348.5,-494.796"/>
<text text-anchor="middle" x="1418" y="-502.796" font-family="Helvetica,sans-Serif" font-size="10.00">UBSettings::checkDirectory</text>
</a>
</g>
<!-- Node10&#45;&gt;Node13 -->
<g id="edge26" class="edge"><title>Node10&#45;&gt;Node13</title>
<path fill="none" stroke="midnightblue" d="M1282.34,-534.786C1306.02,-529.639 1334.72,-523.401 1359.61,-517.989"/>
<polygon fill="midnightblue" stroke="midnightblue" points="1360.63,-521.349 1369.66,-515.805 1359.14,-514.509 1360.63,-521.349"/>
</g>
<!-- Node14 -->
<g id="node28" class="node"><title>Node14</title>
<a xlink:href="../../d2/d7a/class_u_b_file_system_utils.html#af850f64fdd630fc78510c856f00ffa4f" target="_top" xlink:title="UBFileSystemUtils:\l:normalizeFilePath">
<polygon fill="white" stroke="black" points="1366,-442.296 1366,-476.296 1470,-476.296 1470,-442.296 1366,-442.296"/>
<text text-anchor="start" x="1374" y="-463.296" font-family="Helvetica,sans-Serif" font-size="10.00">UBFileSystemUtils:</text>
<text text-anchor="middle" x="1418" y="-450.296" font-family="Helvetica,sans-Serif" font-size="10.00">:normalizeFilePath</text>
</a>
</g>
<!-- Node10&#45;&gt;Node14 -->
<g id="edge28" class="edge"><title>Node10&#45;&gt;Node14</title>
<path fill="none" stroke="midnightblue" d="M1251.83,-534.699C1273.6,-522.009 1311.75,-500.559 1346,-485.296 1349.89,-483.562 1353.94,-481.854 1358.04,-480.193"/>
<polygon fill="midnightblue" stroke="midnightblue" points="1359.63,-483.327 1367.66,-476.414 1357.08,-476.812 1359.63,-483.327"/>
</g>
<!-- Node12 -->
<g id="node24" class="node"><title>Node12</title>
<a xlink:href="../../d4/d99/class_u_b_platform_utils.html#a4ff6063df12b6d4d0c60c1a17b434599" target="_top" xlink:title="UBPlatformUtils::osUserLoginName">
<polygon fill="white" stroke="black" points="1526.5,-531.796 1526.5,-552.796 1701.5,-552.796 1701.5,-531.796 1526.5,-531.796"/>
<text text-anchor="middle" x="1614" y="-539.796" font-family="Helvetica,sans-Serif" font-size="10.00">UBPlatformUtils::osUserLoginName</text>
</a>
</g>
<!-- Node11&#45;&gt;Node12 -->
<g id="edge24" class="edge"><title>Node11&#45;&gt;Node12</title>
<path fill="none" stroke="midnightblue" d="M1489.59,-544.2C1498.25,-544.067 1507.21,-543.93 1516.17,-543.793"/>
<polygon fill="midnightblue" stroke="midnightblue" points="1516.32,-547.292 1526.26,-543.639 1516.21,-540.292 1516.32,-547.292"/>
</g>
<!-- Node17 -->
<g id="node34" class="node"><title>Node17</title>
<a xlink:href="../../d0/d58/class_u_b_drawing_controller.html#ac5790e8e77299a58ba6f2692133b7009" target="_top" xlink:title="UBDrawingController\l::setStylusTool">
<polygon fill="white" stroke="black" points="676.5,-327.296 676.5,-361.296 785.5,-361.296 785.5,-327.296 676.5,-327.296"/>
<text text-anchor="start" x="684.5" y="-348.296" font-family="Helvetica,sans-Serif" font-size="10.00">UBDrawingController</text>
<text text-anchor="middle" x="731" y="-335.296" font-family="Helvetica,sans-Serif" font-size="10.00">::setStylusTool</text>
</a>
</g>
<!-- Node16&#45;&gt;Node17 -->
<g id="edge34" class="edge"><title>Node16&#45;&gt;Node17</title>
<path fill="none" stroke="midnightblue" d="M629.168,-613.294C633.136,-610.687 636.83,-607.704 640,-604.296 702.797,-536.79 722.621,-423.507 728.581,-371.677"/>
<polygon fill="midnightblue" stroke="midnightblue" points="732.077,-371.903 729.653,-361.589 725.116,-371.163 732.077,-371.903"/>
</g>
<!-- Node17&#45;&gt;Node5 -->
<g id="edge42" class="edge"><title>Node17&#45;&gt;Node5</title>
<path fill="none" stroke="midnightblue" d="M742.579,-361.556C771.854,-405.196 848.666,-519.699 879.209,-565.228"/>
<polygon fill="midnightblue" stroke="midnightblue" points="876.354,-567.256 884.832,-573.61 882.167,-563.356 876.354,-567.256"/>
</g>
<!-- Node17&#45;&gt;Node15 -->
<g id="edge48" class="edge"><title>Node17&#45;&gt;Node15</title>
<path fill="none" stroke="midnightblue" d="M742.321,-327.209C770.15,-285.206 842.026,-176.722 875.005,-126.946"/>
<polygon fill="midnightblue" stroke="midnightblue" points="878.086,-128.634 880.691,-118.364 872.25,-124.767 878.086,-128.634"/>
</g>
<!-- Node18 -->
<g id="node36" class="node"><title>Node18</title>
<a xlink:href="../../d7/d62/class_u_b_board_controller.html#a5bf93ad343de7f09150d634ef3a8c459" target="_top" xlink:title="UBBoardController:\l:activeScene">
<polygon fill="white" stroke="black" points="841.5,-431.296 841.5,-465.296 942.5,-465.296 942.5,-431.296 841.5,-431.296"/>
<text text-anchor="start" x="849.5" y="-452.296" font-family="Helvetica,sans-Serif" font-size="10.00">UBBoardController:</text>
<text text-anchor="middle" x="892" y="-439.296" font-family="Helvetica,sans-Serif" font-size="10.00">:activeScene</text>
</a>
</g>
<!-- Node17&#45;&gt;Node18 -->
<g id="edge36" class="edge"><title>Node17&#45;&gt;Node18</title>
<path fill="none" stroke="midnightblue" d="M747.368,-361.526C764.581,-378.83 793.131,-405.298 822,-422.296 825.205,-424.183 828.57,-425.973 832.02,-427.665"/>
<polygon fill="midnightblue" stroke="midnightblue" points="830.749,-430.932 841.298,-431.913 833.662,-424.568 830.749,-430.932"/>
</g>
<!-- Node19 -->
<g id="node38" class="node"><title>Node19</title>
<a xlink:href="../../dc/db2/class_u_b_graphics_scene.html#a6cfc68b3907297af710a1d8d1492d4ea" target="_top" xlink:title="UBGraphicsScene::deselect\lAllItems">
<polygon fill="white" stroke="black" points="822,-379.296 822,-413.296 962,-413.296 962,-379.296 822,-379.296"/>
<text text-anchor="start" x="830" y="-400.296" font-family="Helvetica,sans-Serif" font-size="10.00">UBGraphicsScene::deselect</text>
<text text-anchor="middle" x="892" y="-387.296" font-family="Helvetica,sans-Serif" font-size="10.00">AllItems</text>
</a>
</g>
<!-- Node17&#45;&gt;Node19 -->
<g id="edge38" class="edge"><title>Node17&#45;&gt;Node19</title>
<path fill="none" stroke="midnightblue" d="M783.717,-361.323C798.312,-366.036 814.295,-371.199 829.393,-376.075"/>
<polygon fill="midnightblue" stroke="midnightblue" points="828.572,-379.488 839.164,-379.231 830.724,-372.827 828.572,-379.488"/>
</g>
<!-- Node20 -->
<g id="node40" class="node"><title>Node20</title>
<a xlink:href="../../d0/d58/class_u_b_drawing_controller.html#a02acf3adbfc4a9aa14da3efd01b7a530" target="_top" xlink:title="UBDrawingController\l::lineWidthIndexChanged">
<polygon fill="white" stroke="black" points="829,-327.296 829,-361.296 955,-361.296 955,-327.296 829,-327.296"/>
<text text-anchor="start" x="837" y="-348.296" font-family="Helvetica,sans-Serif" font-size="10.00">UBDrawingController</text>
<text text-anchor="middle" x="892" y="-335.296" font-family="Helvetica,sans-Serif" font-size="10.00">::lineWidthIndexChanged</text>
</a>
</g>
<!-- Node17&#45;&gt;Node20 -->
<g id="edge40" class="edge"><title>Node17&#45;&gt;Node20</title>
<path fill="none" stroke="midnightblue" d="M785.507,-344.296C796.193,-344.296 807.564,-344.296 818.747,-344.296"/>
<polygon fill="midnightblue" stroke="midnightblue" points="818.939,-347.796 828.939,-344.296 818.939,-340.796 818.939,-347.796"/>
</g>
<!-- Node21 -->
<g id="node43" class="node"><title>Node21</title>
<a xlink:href="../../d0/d58/class_u_b_drawing_controller.html#a42605540fe8451289997d9b61a89e642" target="_top" xlink:title="UBDrawingController\l::colorIndexChanged">
<polygon fill="white" stroke="black" points="837.5,-275.296 837.5,-309.296 946.5,-309.296 946.5,-275.296 837.5,-275.296"/>
<text text-anchor="start" x="845.5" y="-296.296" font-family="Helvetica,sans-Serif" font-size="10.00">UBDrawingController</text>
<text text-anchor="middle" x="892" y="-283.296" font-family="Helvetica,sans-Serif" font-size="10.00">::colorIndexChanged</text>
</a>
</g>
<!-- Node17&#45;&gt;Node21 -->
<g id="edge44" class="edge"><title>Node17&#45;&gt;Node21</title>
<path fill="none" stroke="midnightblue" d="M783.717,-327.269C798.312,-322.555 814.295,-317.393 829.393,-312.517"/>
<polygon fill="midnightblue" stroke="midnightblue" points="830.724,-315.765 839.164,-309.361 828.572,-309.104 830.724,-315.765"/>
</g>
<!-- Node22 -->
<g id="node45" class="node"><title>Node22</title>
<a xlink:href="../../d0/d58/class_u_b_drawing_controller.html#ae9ae9cf749d8ce65205cf8c50df67502" target="_top" xlink:title="UBDrawingController\l::stylusToolChanged">
<polygon fill="white" stroke="black" points="837.5,-223.296 837.5,-257.296 946.5,-257.296 946.5,-223.296 837.5,-223.296"/>
<text text-anchor="start" x="845.5" y="-244.296" font-family="Helvetica,sans-Serif" font-size="10.00">UBDrawingController</text>
<text text-anchor="middle" x="892" y="-231.296" font-family="Helvetica,sans-Serif" font-size="10.00">::stylusToolChanged</text>
</a>
</g>
<!-- Node17&#45;&gt;Node22 -->
<g id="edge46" class="edge"><title>Node17&#45;&gt;Node22</title>
<path fill="none" stroke="midnightblue" d="M747.368,-327.066C764.581,-309.762 793.131,-283.293 822,-266.296 824.793,-264.651 827.708,-263.08 830.694,-261.584"/>
<polygon fill="midnightblue" stroke="midnightblue" points="832.241,-264.724 839.818,-257.319 829.277,-258.383 832.241,-264.724"/>
</g>
<!-- Node23&#45;&gt;Node17 -->
<g id="edge52" class="edge"><title>Node23&#45;&gt;Node17</title>
<path fill="none" stroke="midnightblue" d="M628.605,-561.221C632.738,-558.623 636.623,-555.662 640,-552.296 691.715,-500.761 716.234,-414.91 725.838,-371.381"/>
<polygon fill="midnightblue" stroke="midnightblue" points="729.279,-372.027 727.917,-361.52 722.429,-370.583 729.279,-372.027"/>
</g>
<!-- Node24&#45;&gt;Node17 -->
<g id="edge56" class="edge"><title>Node24&#45;&gt;Node17</title>
<path fill="none" stroke="midnightblue" d="M627.605,-509.157C632.04,-506.555 636.264,-503.611 640,-500.296 680.594,-464.273 707.896,-405.644 721.322,-371.448"/>
<polygon fill="midnightblue" stroke="midnightblue" points="724.757,-372.263 725.042,-361.672 718.214,-369.773 724.757,-372.263"/>
</g>
<!-- Node25&#45;&gt;Node17 -->
<g id="edge60" class="edge"><title>Node25&#45;&gt;Node17</title>
<path fill="none" stroke="midnightblue" d="M625.433,-457.221C630.535,-454.552 635.507,-451.575 640,-448.296 670.073,-426.349 697.124,-392.797 713.767,-369.772"/>
<polygon fill="midnightblue" stroke="midnightblue" points="716.695,-371.692 719.62,-361.509 710.983,-367.646 716.695,-371.692"/>
</g>
<!-- Node26&#45;&gt;Node17 -->
<g id="edge64" class="edge"><title>Node26&#45;&gt;Node17</title>
<path fill="none" stroke="midnightblue" d="M620.945,-405.272C627.377,-402.392 633.909,-399.344 640,-396.296 658.123,-387.226 677.701,-376.205 694.038,-366.648"/>
<polygon fill="midnightblue" stroke="midnightblue" points="695.914,-369.605 702.75,-361.511 692.358,-363.575 695.914,-369.605"/>
</g>
<!-- Node27&#45;&gt;Node17 -->
<g id="edge68" class="edge"><title>Node27&#45;&gt;Node17</title>
<path fill="none" stroke="midnightblue" d="M634.514,-360.909C644.821,-359.135 655.695,-357.262 666.28,-355.44"/>
<polygon fill="midnightblue" stroke="midnightblue" points="667.051,-358.859 676.312,-353.712 665.863,-351.96 667.051,-358.859"/>
</g>
<!-- Node28&#45;&gt;Node17 -->
<g id="edge72" class="edge"><title>Node28&#45;&gt;Node17</title>
<path fill="none" stroke="midnightblue" d="M636.227,-327.977C646.1,-329.677 656.445,-331.459 666.522,-333.194"/>
<polygon fill="midnightblue" stroke="midnightblue" points="666.033,-336.661 676.482,-334.909 667.221,-329.762 666.033,-336.661"/>
</g>
<!-- Node29&#45;&gt;Node17 -->
<g id="edge76" class="edge"><title>Node29&#45;&gt;Node17</title>
<path fill="none" stroke="midnightblue" d="M620.945,-283.32C627.377,-286.2 633.909,-289.247 640,-292.296 658.123,-301.366 677.701,-312.386 694.038,-321.943"/>
<polygon fill="midnightblue" stroke="midnightblue" points="692.358,-325.016 702.75,-327.08 695.914,-318.986 692.358,-325.016"/>
</g>
<!-- Node30&#45;&gt;Node17 -->
<g id="edge80" class="edge"><title>Node30&#45;&gt;Node17</title>
<path fill="none" stroke="midnightblue" d="M625.433,-231.371C630.535,-234.04 635.507,-237.017 640,-240.296 670.073,-262.242 697.124,-295.795 713.767,-318.82"/>
<polygon fill="midnightblue" stroke="midnightblue" points="710.983,-320.946 719.62,-327.083 716.695,-316.9 710.983,-320.946"/>
</g>
<!-- Node31&#45;&gt;Node17 -->
<g id="edge84" class="edge"><title>Node31&#45;&gt;Node17</title>
<path fill="none" stroke="midnightblue" d="M627.605,-179.434C632.04,-182.036 636.264,-184.98 640,-188.296 680.594,-224.319 707.896,-282.948 721.322,-317.144"/>
<polygon fill="midnightblue" stroke="midnightblue" points="718.214,-318.818 725.042,-326.92 724.757,-316.329 718.214,-318.818"/>
</g>
<!-- Node32&#45;&gt;Node17 -->
<g id="edge88" class="edge"><title>Node32&#45;&gt;Node17</title>
<path fill="none" stroke="midnightblue" d="M628.605,-127.37C632.738,-129.969 636.623,-132.93 640,-136.296 691.715,-187.831 716.234,-273.682 725.838,-317.211"/>
<polygon fill="midnightblue" stroke="midnightblue" points="722.429,-318.009 727.917,-327.072 729.279,-316.565 722.429,-318.009"/>
</g>
<!-- Node33&#45;&gt;Node17 -->
<g id="edge92" class="edge"><title>Node33&#45;&gt;Node17</title>
<path fill="none" stroke="midnightblue" d="M629.168,-75.2974C633.136,-77.9046 636.83,-80.8879 640,-84.2959 702.797,-151.801 722.621,-265.085 728.581,-316.914"/>
<polygon fill="midnightblue" stroke="midnightblue" points="725.116,-317.429 729.653,-327.003 732.077,-316.689 725.116,-317.429"/>
</g>
</g>
</svg>
