<?xml version="1.0" encoding="UTF-8" standalone="no"?>
<!DOCTYPE svg PUBLIC "-//W3C//DTD SVG 1.1//EN"
 "http://www.w3.org/Graphics/SVG/1.1/DTD/svg11.dtd">
<!-- Generated by graphviz version 2.26.3 (20100126.1600)
 -->
<!-- Title: UBBoardView::handleItemsSelection Pages: 1 -->
<svg width="348pt" height="82pt"
 viewBox="0.00 0.00 348.00 82.00" xmlns="http://www.w3.org/2000/svg" xmlns:xlink="http://www.w3.org/1999/xlink">
<g id="graph1" class="graph" transform="scale(1 1) rotate(0) translate(4 78)">
<title>UBBoardView::handleItemsSelection</title>
<polygon fill="white" stroke="white" points="-4,5 -4,-78 345,-78 345,5 -4,5"/>
<!-- Node1 -->
<g id="node1" class="node"><title>Node1</title>
<polygon fill="#bfbfbf" stroke="black" points="0.5,-17 0.5,-51 137.5,-51 137.5,-17 0.5,-17"/>
<text text-anchor="start" x="8.5" y="-38" font-family="Helvetica,sans-Serif" font-size="10.00">UBBoardView::handleItems</text>
<text text-anchor="middle" x="69" y="-25" font-family="Helvetica,sans-Serif" font-size="10.00">Selection</text>
</g>
<!-- Node2 -->
<g id="node3" class="node"><title>Node2</title>
<a xlink:href="../../d1/d78/class_u_b_board_view.html#ab75675b9d680aa0990d99bf75a2a98b5" target="_top" xlink:title="UBBoardView::isMultipleSelection\lEnabled">
<polygon fill="white" stroke="black" points="174,-40 174,-74 340,-74 340,-40 174,-40"/>
<text text-anchor="start" x="182" y="-61" font-family="Helvetica,sans-Serif" font-size="10.00">UBBoardView::isMultipleSelection</text>
<text text-anchor="middle" x="257" y="-48" font-family="Helvetica,sans-Serif" font-size="10.00">Enabled</text>
</a>
</g>
<!-- Node1&#45;&gt;Node2 -->
<g id="edge2" class="edge"><title>Node1&#45;&gt;Node2</title>
<path fill="none" stroke="midnightblue" d="M137.67,-42.4012C146.206,-43.4454 155.043,-44.5265 163.869,-45.6063"/>
<polygon fill="midnightblue" stroke="midnightblue" points="163.463,-49.0826 173.814,-46.8229 164.313,-42.1344 163.463,-49.0826"/>
</g>
<!-- Node3 -->
<g id="node5" class="node"><title>Node3</title>
<a xlink:href="../../d1/d78/class_u_b_board_view.html#a471b5373f2debb2c5cb6e2d0db6b74f1" target="_top" xlink:title="UBBoardView::scene">
<polygon fill="white" stroke="black" points="202,-0.5 202,-21.5 312,-21.5 312,-0.5 202,-0.5"/>
<text text-anchor="middle" x="257" y="-8.5" font-family="Helvetica,sans-Serif" font-size="10.00">UBBoardView::scene</text>
</a>
</g>
<!-- Node1&#45;&gt;Node3 -->
<g id="edge4" class="edge"><title>Node1&#45;&gt;Node3</title>
<path fill="none" stroke="midnightblue" d="M137.67,-25.5988C155.295,-23.4427 174.203,-21.1295 191.654,-18.9945"/>
<polygon fill="midnightblue" stroke="midnightblue" points="192.239,-22.4491 201.74,-17.7605 191.389,-15.5009 192.239,-22.4491"/>
</g>
</g>
</svg>
