<?xml version="1.0" encoding="UTF-8" standalone="no"?>
<!DOCTYPE svg PUBLIC "-//W3C//DTD SVG 1.1//EN"
 "http://www.w3.org/Graphics/SVG/1.1/DTD/svg11.dtd">
<!-- Generated by graphviz version 2.26.3 (20100126.1600)
 -->
<!-- Title: UBBoardView::determineItemToPress Pages: 1 -->
<!--zoomable 94 -->
<svg id="main" version="1.1" xmlns="http://www.w3.org/2000/svg" xmlns:xlink="http://www.w3.org/1999/xlink" xml:space="preserve" onload="init(evt)">
        <defs>
                <circle id="rim" cx="0" cy="0" r="7"/>
                <circle id="rim2" cx="0" cy="0" r="3.5"/>
                <g id="zoomPlus">
                        <use xlink:href="#rim" fill="#404040">
                                <set attributeName="fill" to="#808080" begin="zoomplus.mouseover" end="zoomplus.mouseout"/>
                        </use>
                        <path d="M-4,0h8M0,-4v8" fill="none" stroke="white" stroke-width="1.5" pointer-events="none"/>
                </g>
                <g id="zoomMin">
                        <use xlink:href="#rim" fill="#404040">
                                <set attributeName="fill" to="#808080" begin="zoomminus.mouseover" end="zoomminus.mouseout"/>
                        </use>
                        <path d="M-4,0h8" fill="none" stroke="white" stroke-width="1.5" pointer-events="none"/>
                </g>
                <g id="dirArrow">
                        <path fill="none" stroke="white" stroke-width="1.5" d="M0,-3.0v7 M-2.5,-0.5L0,-3.0L2.5,-0.5"/>
                </g>
               <g id="resetDef">
                       <use xlink:href="#rim2" fill="#404040">
                               <set attributeName="fill" to="#808080" begin="reset.mouseover" end="reset.mouseout"/>
                       </use>
               </g>
        </defs>

<script type="text/javascript">
var viewWidth = 738;
var viewHeight = 94;
var sectionId = 'dynsection-7';
</script>
<script xlink:href="../../svgpan.js"/>
<svg id="graph" class="graph">
<g id="viewport">
<title>UBBoardView::determineItemToPress</title>
<polygon fill="white" stroke="white" points="-4,5 -4,-90 735,-90 735,5 -4,5"/>
<!-- Node1 -->
<g id="node1" class="node"><title>Node1</title>
<polygon fill="#bfbfbf" stroke="black" points="0,-22 0,-56 146,-56 146,-22 0,-22"/>
<text text-anchor="start" x="8" y="-43" font-family="Helvetica,sans-Serif" font-size="10.00">UBBoardView::determineItem</text>
<text text-anchor="middle" x="73" y="-30" font-family="Helvetica,sans-Serif" font-size="10.00">ToPress</text>
</g>
<!-- Node2 -->
<g id="node3" class="node"><title>Node2</title>
<a xlink:href="../../d1/d78/class_u_b_board_view.html#a1818c4d69a09adc9bb98079d2210564d" target="_top" xlink:title="UBBoardView::handleItemMouse\lPress">
<polygon fill="white" stroke="black" points="182.5,-45 182.5,-79 343.5,-79 343.5,-45 182.5,-45"/>
<text text-anchor="start" x="190.5" y="-66" font-family="Helvetica,sans-Serif" font-size="10.00">UBBoardView::handleItemMouse</text>
<text text-anchor="middle" x="263" y="-53" font-family="Helvetica,sans-Serif" font-size="10.00">Press</text>
</a>
</g>
<!-- Node1&#45;&gt;Node2 -->
<g id="edge2" class="edge"><title>Node1&#45;&gt;Node2</title>
<path fill="none" stroke="midnightblue" d="M156.25,-49.0776C164.888,-50.1233 173.658,-51.1849 182.267,-52.2271"/>
<polygon fill="midnightblue" stroke="midnightblue" points="156.535,-45.5867 146.187,-47.8595 155.694,-52.536 156.535,-45.5867"/>
</g>
<!-- Node4 -->
<g id="node8" class="node"><title>Node4</title>
<a xlink:href="../../d1/d78/class_u_b_board_view.html#acc4206bbb27829580a337c81708be4a3" target="_top" xlink:title="UBBoardView::mouseRelease\lEvent">
<polygon fill="white" stroke="black" points="580.5,-0 580.5,-34 729.5,-34 729.5,-0 580.5,-0"/>
<text text-anchor="start" x="588.5" y="-21" font-family="Helvetica,sans-Serif" font-size="10.00">UBBoardView::mouseRelease</text>
<text text-anchor="middle" x="655" y="-8" font-family="Helvetica,sans-Serif" font-size="10.00">Event</text>
</a>
</g>
<!-- Node1&#45;&gt;Node4 -->
<g id="edge12" class="edge"><title>Node1&#45;&gt;Node4</title>
<path fill="none" stroke="midnightblue" d="M156.153,-35.8568C269.667,-31.5659 471.436,-23.9388 580.34,-19.8222"/>
<polygon fill="midnightblue" stroke="midnightblue" points="155.982,-32.3606 146.121,-36.236 156.247,-39.3556 155.982,-32.3606"/>
</g>
<!-- Node3 -->
<g id="node5" class="node"><title>Node3</title>
<a xlink:href="../../d1/d78/class_u_b_board_view.html#a6fc3391590c435e0ae26c43d2bd76d14" target="_top" xlink:title="UBBoardView::mousePressEvent">
<polygon fill="white" stroke="black" points="380,-51.5 380,-72.5 544,-72.5 544,-51.5 380,-51.5"/>
<text text-anchor="middle" x="462" y="-59.5" font-family="Helvetica,sans-Serif" font-size="10.00">UBBoardView::mousePressEvent</text>
</a>
</g>
<!-- Node2&#45;&gt;Node3 -->
<g id="edge4" class="edge"><title>Node2&#45;&gt;Node3</title>
<path fill="none" stroke="midnightblue" d="M353.818,-55.2729C362.524,-55.2269 371.321,-55.2502 379.937,-55.343"/>
<polygon fill="midnightblue" stroke="midnightblue" points="353.624,-51.7743 343.654,-55.3588 353.683,-58.7741 353.624,-51.7743"/>
</g>
<!-- Node3&#45;&gt;Node2 -->
<g id="edge6" class="edge"><title>Node3&#45;&gt;Node2</title>
<path fill="none" stroke="midnightblue" d="M369.756,-68.734C361.04,-68.7725 352.25,-68.7415 343.654,-68.6412"/>
<polygon fill="midnightblue" stroke="midnightblue" points="369.963,-72.2326 379.937,-68.657 369.91,-65.2328 369.963,-72.2326"/>
</g>
<!-- Node3&#45;&gt;Node4 -->
<g id="edge8" class="edge"><title>Node3&#45;&gt;Node4</title>
<path fill="none" stroke="midnightblue" d="M517.16,-49.1388C537.254,-44.4537 560.297,-39.0809 581.718,-34.0865"/>
<polygon fill="midnightblue" stroke="midnightblue" points="516.194,-45.7701 507.25,-51.4495 517.783,-52.5873 516.194,-45.7701"/>
</g>
<!-- Node5 -->
<g id="node10" class="node"><title>Node5</title>
<a xlink:href="../../d1/d78/class_u_b_board_view.html#a43eb1207291905e9daa7c618a3c203bb" target="_top" xlink:title="UBBoardView::mouseDouble\lClickEvent">
<polygon fill="white" stroke="black" points="583,-52 583,-86 727,-86 727,-52 583,-52"/>
<text text-anchor="start" x="591" y="-73" font-family="Helvetica,sans-Serif" font-size="10.00">UBBoardView::mouseDouble</text>
<text text-anchor="middle" x="655" y="-60" font-family="Helvetica,sans-Serif" font-size="10.00">ClickEvent</text>
</a>
</g>
<!-- Node3&#45;&gt;Node5 -->
<g id="edge10" class="edge"><title>Node3&#45;&gt;Node5</title>
<path fill="none" stroke="midnightblue" d="M554.405,-65.3515C563.91,-65.6962 573.467,-66.0429 582.709,-66.378"/>
<polygon fill="midnightblue" stroke="midnightblue" points="554.25,-61.8436 544.129,-64.9788 553.996,-68.839 554.25,-61.8436"/>
</g>
</g>
</svg>
        <g id="navigator" transform="translate(0 0)" fill="#404254">
                <rect fill="#f2f5e9" fill-opacity="0.5" stroke="#606060" stroke-width=".5" x="0" y="0" width="60" height="60"/>
                <use id="zoomplus" xlink:href="#zoomPlus" x="17" y="9" onmousedown="handleZoom(evt,'in')"/>
                <use id="zoomminus" xlink:href="#zoomMin" x="42" y="9" onmousedown="handleZoom(evt,'out')"/>
                <use id="reset" xlink:href="#resetDef" x="30" y="36" onmousedown="handleReset()"/>
                <g id="arrowUp" xlink:href="#dirArrow" transform="translate(30 24)" onmousedown="handlePan(0,-1)">
                  <use xlink:href="#rim" fill="#404040">
                        <set attributeName="fill" to="#808080" begin="arrowUp.mouseover" end="arrowUp.mouseout"/>
                  </use>
                  <path fill="none" stroke="white" stroke-width="1.5" d="M0,-3.0v7 M-2.5,-0.5L0,-3.0L2.5,-0.5"/>
                </g>
                <g id="arrowRight" xlink:href="#dirArrow" transform="rotate(90) translate(36 -43)" onmousedown="handlePan(1,0)">
                  <use xlink:href="#rim" fill="#404040">
                        <set attributeName="fill" to="#808080" begin="arrowRight.mouseover" end="arrowRight.mouseout"/>
                  </use>
                  <path fill="none" stroke="white" stroke-width="1.5" d="M0,-3.0v7 M-2.5,-0.5L0,-3.0L2.5,-0.5"/>
                </g>
                <g id="arrowDown" xlink:href="#dirArrow" transform="rotate(180) translate(-30 -48)" onmousedown="handlePan(0,1)">
                  <use xlink:href="#rim" fill="#404040">
                        <set attributeName="fill" to="#808080" begin="arrowDown.mouseover" end="arrowDown.mouseout"/>
                  </use>
                  <path fill="none" stroke="white" stroke-width="1.5" d="M0,-3.0v7 M-2.5,-0.5L0,-3.0L2.5,-0.5"/>
                </g>
                <g id="arrowLeft" xlink:href="#dirArrow" transform="rotate(270) translate(-36 17)" onmousedown="handlePan(-1,0)">
                  <use xlink:href="#rim" fill="#404040">
                        <set attributeName="fill" to="#808080" begin="arrowLeft.mouseover" end="arrowLeft.mouseout"/>
                  </use>
                  <path fill="none" stroke="white" stroke-width="1.5" d="M0,-3.0v7 M-2.5,-0.5L0,-3.0L2.5,-0.5"/>
                </g>
        </g>
        <svg viewBox="0 0 15 15" width="100%" height="30px" preserveAspectRatio="xMaxYMin meet">
         <g id="arrow_out" transform="scale(0.3 0.3)">
          <a xlink:href="class_u_b_board_view_a6984a1cb5fb66a66b18e37966d6e127e_icgraph_org.svg" target="_base">
           <rect id="button" ry="5" rx="5" y="6" x="6" height="38" width="38"
                fill="#f2f5e9" fill-opacity="0.5" stroke="#606060" stroke-width="1.0"/>
           <path id="arrow"
             d="M 11.500037,31.436501 C 11.940474,20.09759 22.043105,11.32322 32.158766,21.979434 L 37.068811,17.246167 C 37.068811,17.246167 37.088388,32 37.088388,32 L 22.160133,31.978069 C 22.160133,31.978069 26.997745,27.140456 26.997745,27.140456 C 18.528582,18.264221 13.291696,25.230495 11.500037,31.436501 z"
             style="fill:#404040;"/>
          </a>
         </g>
        </svg>
</svg>
