<?xml version="1.0" encoding="UTF-8" standalone="no"?>
<!DOCTYPE svg PUBLIC "-//W3C//DTD SVG 1.1//EN"
 "http://www.w3.org/Graphics/SVG/1.1/DTD/svg11.dtd">
<!-- Generated by graphviz version 2.26.3 (20100126.1600)
 -->
<!-- Title: UBBoardView::scene Pages: 1 -->
<svg width="1898pt" height="694pt"
 viewBox="0.00 0.00 1898.00 694.00" xmlns="http://www.w3.org/2000/svg" xmlns:xlink="http://www.w3.org/1999/xlink">
<g id="graph1" class="graph" transform="scale(1 1) rotate(0) translate(4 690)">
<title>UBBoardView::scene</title>
<polygon fill="white" stroke="white" points="-4,5 -4,-690 1895,-690 1895,5 -4,5"/>
<!-- Node1 -->
<g id="node1" class="node"><title>Node1</title>
<polygon fill="#bfbfbf" stroke="black" points="0,-337.5 0,-358.5 110,-358.5 110,-337.5 0,-337.5"/>
<text text-anchor="middle" x="55" y="-345.5" font-family="Helvetica,sans-Serif" font-size="10.00">UBBoardView::scene</text>
</g>
<!-- Node2 -->
<g id="node3" class="node"><title>Node2</title>
<a xlink:href="../../d1/d78/class_u_b_board_view.html#a9216e870eac1d8f36049186dc8ab1410" target="_top" xlink:title="UBBoardView::keyPressEvent">
<polygon fill="white" stroke="black" points="155.5,-664.5 155.5,-685.5 306.5,-685.5 306.5,-664.5 155.5,-664.5"/>
<text text-anchor="middle" x="231" y="-672.5" font-family="Helvetica,sans-Serif" font-size="10.00">UBBoardView::keyPressEvent</text>
</a>
</g>
<!-- Node1&#45;&gt;Node2 -->
<g id="edge2" class="edge"><title>Node1&#45;&gt;Node2</title>
<path fill="none" stroke="midnightblue" d="M58.5932,-368.638C69.6561,-429.94 104.948,-609.219 146,-650 152.22,-656.179 159.884,-660.846 168.041,-664.368"/>
<polygon fill="midnightblue" stroke="midnightblue" points="62.0095,-367.858 56.8136,-358.624 55.1175,-369.083 62.0095,-367.858"/>
</g>
<!-- Node3 -->
<g id="node5" class="node"><title>Node3</title>
<a xlink:href="../../d1/d78/class_u_b_board_view.html#ad5109e5f034af7b194f4dc6606fe16e6" target="_top" xlink:title="UBBoardView::tabletEvent">
<polygon fill="white" stroke="black" points="385,-662.5 385,-683.5 519,-683.5 519,-662.5 385,-662.5"/>
<text text-anchor="middle" x="452" y="-670.5" font-family="Helvetica,sans-Serif" font-size="10.00">UBBoardView::tabletEvent</text>
</a>
</g>
<!-- Node1&#45;&gt;Node3 -->
<g id="edge4" class="edge"><title>Node1&#45;&gt;Node3</title>
<path fill="none" stroke="midnightblue" d="M59.204,-368.798C71.175,-425.949 107.099,-583.374 146,-617 163.876,-632.452 300.306,-652.947 384.851,-664.37"/>
<polygon fill="midnightblue" stroke="midnightblue" points="62.5838,-367.858 57.1354,-358.771 55.7282,-369.272 62.5838,-367.858"/>
</g>
<!-- Node4 -->
<g id="node7" class="node"><title>Node4</title>
<a xlink:href="../../d1/d78/class_u_b_board_view.html#a3e6f545e0dac2d4108b835dc0d0bfc9e" target="_top" xlink:title="UBBoardView::handleItems\lSelection">
<polygon fill="white" stroke="black" points="162.5,-406 162.5,-440 299.5,-440 299.5,-406 162.5,-406"/>
<text text-anchor="start" x="170.5" y="-427" font-family="Helvetica,sans-Serif" font-size="10.00">UBBoardView::handleItems</text>
<text text-anchor="middle" x="231" y="-414" font-family="Helvetica,sans-Serif" font-size="10.00">Selection</text>
</a>
</g>
<!-- Node1&#45;&gt;Node4 -->
<g id="edge6" class="edge"><title>Node1&#45;&gt;Node4</title>
<path fill="none" stroke="midnightblue" d="M80.9636,-363.759C98.8114,-374.144 123.297,-387.525 146,-397 153.69,-400.21 161.918,-403.222 170.115,-405.978"/>
<polygon fill="midnightblue" stroke="midnightblue" points="82.6717,-360.703 72.2801,-358.638 79.1158,-366.733 82.6717,-360.703"/>
</g>
<!-- Node6 -->
<g id="node11" class="node"><title>Node6</title>
<a xlink:href="../../d1/d78/class_u_b_board_view.html#a6fc3391590c435e0ae26c43d2bd76d14" target="_top" xlink:title="UBBoardView::mousePressEvent">
<polygon fill="white" stroke="black" points="588,-479.5 588,-500.5 752,-500.5 752,-479.5 588,-479.5"/>
<text text-anchor="middle" x="670" y="-487.5" font-family="Helvetica,sans-Serif" font-size="10.00">UBBoardView::mousePressEvent</text>
</a>
</g>
<!-- Node1&#45;&gt;Node6 -->
<g id="edge36" class="edge"><title>Node1&#45;&gt;Node6</title>
<path fill="none" stroke="midnightblue" d="M60.2101,-368.744C70.1764,-403.456 95.5782,-472.323 146,-501 220.844,-543.566 471.397,-517.186 596.968,-500.535"/>
<polygon fill="midnightblue" stroke="midnightblue" points="63.5001,-367.503 57.5045,-358.768 56.7442,-369.335 63.5001,-367.503"/>
</g>
<!-- Node7 -->
<g id="node14" class="node"><title>Node7</title>
<a xlink:href="../../d1/d78/class_u_b_board_view.html#acc4206bbb27829580a337c81708be4a3" target="_top" xlink:title="UBBoardView::mouseRelease\lEvent">
<polygon fill="white" stroke="black" points="788.5,-541 788.5,-575 937.5,-575 937.5,-541 788.5,-541"/>
<text text-anchor="start" x="796.5" y="-562" font-family="Helvetica,sans-Serif" font-size="10.00">UBBoardView::mouseRelease</text>
<text text-anchor="middle" x="863" y="-549" font-family="Helvetica,sans-Serif" font-size="10.00">Event</text>
</a>
</g>
<!-- Node1&#45;&gt;Node7 -->
<g id="edge40" class="edge"><title>Node1&#45;&gt;Node7</title>
<path fill="none" stroke="midnightblue" d="M58.7036,-369.029C66.7763,-407.819 89.9357,-489.954 146,-526 198.994,-560.072 615.777,-560.281 788.458,-558.866"/>
<polygon fill="midnightblue" stroke="midnightblue" points="62.078,-368.045 56.7369,-358.895 55.2063,-369.379 62.078,-368.045"/>
</g>
<!-- Node9 -->
<g id="node18" class="node"><title>Node9</title>
<a xlink:href="../../d1/d78/class_u_b_board_view.html#a1cab6df2225f2748e66144b4eaa89844" target="_top" xlink:title="UBBoardView::itemShouldReceive\lMousePressEvent">
<polygon fill="white" stroke="black" points="146.5,-354 146.5,-388 315.5,-388 315.5,-354 146.5,-354"/>
<text text-anchor="start" x="154.5" y="-375" font-family="Helvetica,sans-Serif" font-size="10.00">UBBoardView::itemShouldReceive</text>
<text text-anchor="middle" x="231" y="-362" font-family="Helvetica,sans-Serif" font-size="10.00">MousePressEvent</text>
</a>
</g>
<!-- Node1&#45;&gt;Node9 -->
<g id="edge18" class="edge"><title>Node1&#45;&gt;Node9</title>
<path fill="none" stroke="midnightblue" d="M120.366,-356.542C128.837,-357.649 137.609,-358.795 146.337,-359.936"/>
<polygon fill="midnightblue" stroke="midnightblue" points="120.574,-353.04 110.205,-355.214 119.667,-359.981 120.574,-353.04"/>
</g>
<!-- Node10 -->
<g id="node21" class="node"><title>Node10</title>
<a xlink:href="../../d1/d78/class_u_b_board_view.html#a0d5ff37e2ae889c4cb6a7a7bc608c267" target="_top" xlink:title="UBBoardView::itemShouldReceive\lSuspendedMousePressEvent">
<polygon fill="white" stroke="black" points="146.5,-458 146.5,-492 315.5,-492 315.5,-458 146.5,-458"/>
<text text-anchor="start" x="154.5" y="-479" font-family="Helvetica,sans-Serif" font-size="10.00">UBBoardView::itemShouldReceive</text>
<text text-anchor="middle" x="231" y="-466" font-family="Helvetica,sans-Serif" font-size="10.00">SuspendedMousePressEvent</text>
</a>
</g>
<!-- Node1&#45;&gt;Node10 -->
<g id="edge22" class="edge"><title>Node1&#45;&gt;Node10</title>
<path fill="none" stroke="midnightblue" d="M67.3114,-367.035C82.96,-389.755 112.057,-427.38 146,-449 151.337,-452.399 157.144,-455.376 163.135,-457.979"/>
<polygon fill="midnightblue" stroke="midnightblue" points="70.1112,-364.926 61.6317,-358.574 64.2993,-368.828 70.1112,-364.926"/>
</g>
<!-- Node11 -->
<g id="node24" class="node"><title>Node11</title>
<a xlink:href="../../d1/d78/class_u_b_board_view.html#abbe27791d3c99c505f38e8b87013e9f2" target="_top" xlink:title="UBBoardView::itemShouldBe\lMoved">
<polygon fill="white" stroke="black" points="158.5,-262 158.5,-296 303.5,-296 303.5,-262 158.5,-262"/>
<text text-anchor="start" x="166.5" y="-283" font-family="Helvetica,sans-Serif" font-size="10.00">UBBoardView::itemShouldBe</text>
<text text-anchor="middle" x="231" y="-270" font-family="Helvetica,sans-Serif" font-size="10.00">Moved</text>
</a>
</g>
<!-- Node1&#45;&gt;Node11 -->
<g id="edge26" class="edge"><title>Node1&#45;&gt;Node11</title>
<path fill="none" stroke="midnightblue" d="M84.4069,-332.776C102.001,-324.004 124.962,-313.139 146,-305 154.06,-301.882 162.661,-298.884 171.18,-296.103"/>
<polygon fill="midnightblue" stroke="midnightblue" points="82.5836,-329.775 75.2306,-337.403 85.7355,-336.026 82.5836,-329.775"/>
</g>
<!-- Node13 -->
<g id="node28" class="node"><title>Node13</title>
<a xlink:href="../../d1/d78/class_u_b_board_view.html#adf1b48aff41094593ba1054627b4c52b" target="_top" xlink:title="UBBoardView::mouseMoveEvent">
<polygon fill="white" stroke="black" points="588.5,-265.5 588.5,-286.5 751.5,-286.5 751.5,-265.5 588.5,-265.5"/>
<text text-anchor="middle" x="670" y="-273.5" font-family="Helvetica,sans-Serif" font-size="10.00">UBBoardView::mouseMoveEvent</text>
</a>
</g>
<!-- Node1&#45;&gt;Node13 -->
<g id="edge38" class="edge"><title>Node1&#45;&gt;Node13</title>
<path fill="none" stroke="midnightblue" d="M66.4536,-328.762C81.4159,-305.738 110,-268.367 146,-253 318.941,-179.177 553.83,-239.417 638.2,-265.473"/>
<polygon fill="midnightblue" stroke="midnightblue" points="63.4057,-327.035 61.0612,-337.367 69.3372,-330.752 63.4057,-327.035"/>
</g>
<!-- Node14 -->
<g id="node31" class="node"><title>Node14</title>
<a xlink:href="../../d1/d78/class_u_b_board_view.html#a712b3d478ccea75d1adf746ad44ea64b" target="_top" xlink:title="UBBoardView::moveRubbered\lItems">
<polygon fill="white" stroke="black" points="156,-172 156,-206 306,-206 306,-172 156,-172"/>
<text text-anchor="start" x="164" y="-193" font-family="Helvetica,sans-Serif" font-size="10.00">UBBoardView::moveRubbered</text>
<text text-anchor="middle" x="231" y="-180" font-family="Helvetica,sans-Serif" font-size="10.00">Items</text>
</a>
</g>
<!-- Node1&#45;&gt;Node14 -->
<g id="edge34" class="edge"><title>Node1&#45;&gt;Node14</title>
<path fill="none" stroke="midnightblue" d="M64.2068,-328.263C78.1537,-300.386 107.18,-249.587 146,-220 153.246,-214.477 161.572,-209.866 170.116,-206.036"/>
<polygon fill="midnightblue" stroke="midnightblue" points="60.9825,-326.89 59.7605,-337.414 67.2787,-329.949 60.9825,-326.89"/>
</g>
<!-- Node15 -->
<g id="node36" class="node"><title>Node15</title>
<a xlink:href="../../d1/d78/class_u_b_board_view.html#a67410b1a3e2af79f17fa37999c96e534" target="_top" xlink:title="UBBoardView::forcedTablet\lRelease">
<polygon fill="white" stroke="black" points="162,-120 162,-154 300,-154 300,-120 162,-120"/>
<text text-anchor="start" x="170" y="-141" font-family="Helvetica,sans-Serif" font-size="10.00">UBBoardView::forcedTablet</text>
<text text-anchor="middle" x="231" y="-128" font-family="Helvetica,sans-Serif" font-size="10.00">Release</text>
</a>
</g>
<!-- Node1&#45;&gt;Node15 -->
<g id="edge42" class="edge"><title>Node1&#45;&gt;Node15</title>
<path fill="none" stroke="midnightblue" d="M59.4008,-327.472C68.6367,-289.373 93.659,-207.558 146,-163 150.7,-158.999 156.007,-155.613 161.616,-152.748"/>
<polygon fill="midnightblue" stroke="midnightblue" points="55.9483,-326.869 57.1161,-337.399 62.7699,-328.439 55.9483,-326.869"/>
</g>
<!-- Node17 -->
<g id="node40" class="node"><title>Node17</title>
<a xlink:href="../../d1/d78/class_u_b_board_view.html#a127153f054ca62fc556b398b4edf45b8" target="_top" xlink:title="UBBoardView::wheelEvent">
<polygon fill="white" stroke="black" points="163.5,-80.5 163.5,-101.5 298.5,-101.5 298.5,-80.5 163.5,-80.5"/>
<text text-anchor="middle" x="231" y="-88.5" font-family="Helvetica,sans-Serif" font-size="10.00">UBBoardView::wheelEvent</text>
</a>
</g>
<!-- Node1&#45;&gt;Node17 -->
<g id="edge46" class="edge"><title>Node1&#45;&gt;Node17</title>
<path fill="none" stroke="midnightblue" d="M56.6245,-327.267C61.4028,-281.024 79.5889,-168.97 146,-111 151.139,-106.514 157.098,-102.987 163.43,-100.22"/>
<polygon fill="midnightblue" stroke="midnightblue" points="53.1329,-327.016 55.6965,-337.296 60.1031,-327.661 53.1329,-327.016"/>
</g>
<!-- Node18 -->
<g id="node42" class="node"><title>Node18</title>
<a xlink:href="../../d1/d78/class_u_b_board_view.html#a35bbcf045afccb4bb80b966a29c333e2" target="_top" xlink:title="UBBoardView::leaveEvent">
<polygon fill="white" stroke="black" points="164.5,-40.5 164.5,-61.5 297.5,-61.5 297.5,-40.5 164.5,-40.5"/>
<text text-anchor="middle" x="231" y="-48.5" font-family="Helvetica,sans-Serif" font-size="10.00">UBBoardView::leaveEvent</text>
</a>
</g>
<!-- Node1&#45;&gt;Node18 -->
<g id="edge48" class="edge"><title>Node1&#45;&gt;Node18</title>
<path fill="none" stroke="midnightblue" d="M59.0491,-327.449C70.8613,-269.527 106.924,-106.84 146,-71 151.363,-66.0814 157.703,-62.3041 164.465,-59.4131"/>
<polygon fill="midnightblue" stroke="midnightblue" points="55.6122,-326.786 57.0731,-337.28 62.475,-328.166 55.6122,-326.786"/>
</g>
<!-- Node19 -->
<g id="node44" class="node"><title>Node19</title>
<a xlink:href="../../d1/d78/class_u_b_board_view.html#ae2f232fb2d55f9345f6b8867906ea891" target="_top" xlink:title="UBBoardView::drawBackground">
<polygon fill="white" stroke="black" points="152.5,-0.5 152.5,-21.5 309.5,-21.5 309.5,-0.5 152.5,-0.5"/>
<text text-anchor="middle" x="231" y="-8.5" font-family="Helvetica,sans-Serif" font-size="10.00">UBBoardView::drawBackground</text>
</a>
</g>
<!-- Node1&#45;&gt;Node19 -->
<g id="edge50" class="edge"><title>Node1&#45;&gt;Node19</title>
<path fill="none" stroke="midnightblue" d="M58.1416,-327.491C68.2572,-264.092 101.906,-73.0077 146,-31 149.951,-27.2355 154.472,-24.1343 159.325,-21.5843"/>
<polygon fill="midnightblue" stroke="midnightblue" points="54.6683,-327.048 56.5769,-337.469 61.5838,-328.132 54.6683,-327.048"/>
</g>
<!-- Node20 -->
<g id="node46" class="node"><title>Node20</title>
<a xlink:href="../../d1/d78/class_u_b_board_view.html#a2c6d79af6b95057a648ca9235dea89ac" target="_top" xlink:title="UBBoardView::setToolCursor">
<polygon fill="white" stroke="black" points="158,-586.5 158,-607.5 304,-607.5 304,-586.5 158,-586.5"/>
<text text-anchor="middle" x="231" y="-594.5" font-family="Helvetica,sans-Serif" font-size="10.00">UBBoardView::setToolCursor</text>
</a>
</g>
<!-- Node1&#45;&gt;Node20 -->
<g id="edge52" class="edge"><title>Node1&#45;&gt;Node20</title>
<path fill="none" stroke="midnightblue" d="M57.427,-368.842C63.6837,-412.961 84.4397,-516.298 146,-572 152.844,-578.192 161.148,-582.855 169.854,-586.366"/>
<polygon fill="midnightblue" stroke="midnightblue" points="60.8728,-368.199 56.1054,-358.737 53.9319,-369.107 60.8728,-368.199"/>
</g>
<!-- Node25 -->
<g id="node58" class="node"><title>Node25</title>
<a xlink:href="../../d4/d9d/class_u_b_magnifier.html#a00499d30e969d31228200bcfc1a68927" target="_top" xlink:title="UBMagnifier::setDrawingMode">
<polygon fill="white" stroke="black" points="156,-314.5 156,-335.5 306,-335.5 306,-314.5 156,-314.5"/>
<text text-anchor="middle" x="231" y="-322.5" font-family="Helvetica,sans-Serif" font-size="10.00">UBMagnifier::setDrawingMode</text>
</a>
</g>
<!-- Node1&#45;&gt;Node25 -->
<g id="edge66" class="edge"><title>Node1&#45;&gt;Node25</title>
<path fill="none" stroke="midnightblue" d="M120.263,-339.471C131.901,-337.95 144.109,-336.355 155.993,-334.802"/>
<polygon fill="midnightblue" stroke="midnightblue" points="119.667,-336.019 110.205,-340.786 120.574,-342.96 119.667,-336.019"/>
</g>
<!-- Node5 -->
<g id="node9" class="node"><title>Node5</title>
<a xlink:href="../../d1/d78/class_u_b_board_view.html#a1818c4d69a09adc9bb98079d2210564d" target="_top" xlink:title="UBBoardView::handleItemMouse\lPress">
<polygon fill="white" stroke="black" points="371.5,-458 371.5,-492 532.5,-492 532.5,-458 371.5,-458"/>
<text text-anchor="start" x="379.5" y="-479" font-family="Helvetica,sans-Serif" font-size="10.00">UBBoardView::handleItemMouse</text>
<text text-anchor="middle" x="452" y="-466" font-family="Helvetica,sans-Serif" font-size="10.00">Press</text>
</a>
</g>
<!-- Node4&#45;&gt;Node5 -->
<g id="edge8" class="edge"><title>Node4&#45;&gt;Node5</title>
<path fill="none" stroke="midnightblue" d="M309.672,-441.511C332.424,-446.865 357.145,-452.681 379.502,-457.942"/>
<polygon fill="midnightblue" stroke="midnightblue" points="310.25,-438.052 299.714,-439.168 308.647,-444.866 310.25,-438.052"/>
</g>
<!-- Node5&#45;&gt;Node6 -->
<g id="edge10" class="edge"><title>Node5&#45;&gt;Node6</title>
<path fill="none" stroke="midnightblue" d="M542.757,-474.58C564.415,-475.867 587.062,-477.587 607.145,-479.494"/>
<polygon fill="midnightblue" stroke="midnightblue" points="542.738,-471.073 532.556,-474.001 542.342,-478.062 542.738,-471.073"/>
</g>
<!-- Node6&#45;&gt;Node5 -->
<g id="edge12" class="edge"><title>Node6&#45;&gt;Node5</title>
<path fill="none" stroke="midnightblue" d="M577.657,-490.326C562.663,-489.422 547.239,-488.315 532.556,-487.084"/>
<polygon fill="midnightblue" stroke="midnightblue" points="577.769,-493.838 587.954,-490.918 578.171,-486.849 577.769,-493.838"/>
</g>
<!-- Node6&#45;&gt;Node7 -->
<g id="edge14" class="edge"><title>Node6&#45;&gt;Node7</title>
<path fill="none" stroke="midnightblue" d="M709.6,-503.952C740.043,-514.678 782.239,-529.545 814.671,-540.972"/>
<polygon fill="midnightblue" stroke="midnightblue" points="710.751,-500.647 700.156,-500.625 708.425,-507.249 710.751,-500.647"/>
</g>
<!-- Node8 -->
<g id="node16" class="node"><title>Node8</title>
<a xlink:href="../../d1/d78/class_u_b_board_view.html#a43eb1207291905e9daa7c618a3c203bb" target="_top" xlink:title="UBBoardView::mouseDouble\lClickEvent">
<polygon fill="white" stroke="black" points="791,-473 791,-507 935,-507 935,-473 791,-473"/>
<text text-anchor="start" x="799" y="-494" font-family="Helvetica,sans-Serif" font-size="10.00">UBBoardView::mouseDouble</text>
<text text-anchor="middle" x="863" y="-481" font-family="Helvetica,sans-Serif" font-size="10.00">ClickEvent</text>
</a>
</g>
<!-- Node6&#45;&gt;Node8 -->
<g id="edge16" class="edge"><title>Node6&#45;&gt;Node8</title>
<path fill="none" stroke="midnightblue" d="M762.405,-490C771.91,-490 781.467,-490 790.709,-490"/>
<polygon fill="midnightblue" stroke="midnightblue" points="762.129,-486.5 752.129,-490 762.129,-493.5 762.129,-486.5"/>
</g>
<!-- Node9&#45;&gt;Node5 -->
<g id="edge20" class="edge"><title>Node9&#45;&gt;Node5</title>
<path fill="none" stroke="midnightblue" d="M302.446,-391.563C307.074,-393.291 311.628,-395.106 316,-397 356.211,-414.419 399.636,-440.779 426.327,-457.944"/>
<polygon fill="midnightblue" stroke="midnightblue" points="303.471,-388.212 292.876,-388.141 301.114,-394.804 303.471,-388.212"/>
</g>
<!-- Node10&#45;&gt;Node5 -->
<g id="edge24" class="edge"><title>Node10&#45;&gt;Node5</title>
<path fill="none" stroke="midnightblue" d="M326.173,-475C341.249,-475 356.713,-475 371.413,-475"/>
<polygon fill="midnightblue" stroke="midnightblue" points="325.812,-471.5 315.812,-475 325.812,-478.5 325.812,-471.5"/>
</g>
<!-- Node12 -->
<g id="node26" class="node"><title>Node12</title>
<a xlink:href="../../d1/d78/class_u_b_board_view.html#aa0ffd2f772d688eb459b316c36404188" target="_top" xlink:title="UBBoardView::handleItemMouseMove">
<polygon fill="white" stroke="black" points="359.5,-265.5 359.5,-286.5 544.5,-286.5 544.5,-265.5 359.5,-265.5"/>
<text text-anchor="middle" x="452" y="-273.5" font-family="Helvetica,sans-Serif" font-size="10.00">UBBoardView::handleItemMouseMove</text>
</a>
</g>
<!-- Node11&#45;&gt;Node12 -->
<g id="edge28" class="edge"><title>Node11&#45;&gt;Node12</title>
<path fill="none" stroke="midnightblue" d="M313.79,-277.876C328.591,-277.675 344.102,-277.465 359.164,-277.26"/>
<polygon fill="midnightblue" stroke="midnightblue" points="313.621,-274.378 303.67,-278.014 313.716,-281.377 313.621,-274.378"/>
</g>
<!-- Node12&#45;&gt;Node13 -->
<g id="edge30" class="edge"><title>Node12&#45;&gt;Node13</title>
<path fill="none" stroke="midnightblue" d="M555.004,-269.259C566.191,-269.225 577.462,-269.286 588.345,-269.442"/>
<polygon fill="midnightblue" stroke="midnightblue" points="554.748,-265.76 544.768,-269.317 554.787,-272.76 554.748,-265.76"/>
</g>
<!-- Node13&#45;&gt;Node12 -->
<g id="edge32" class="edge"><title>Node13&#45;&gt;Node12</title>
<path fill="none" stroke="midnightblue" d="M578.255,-282.674C567.179,-282.772 555.858,-282.775 544.768,-282.683"/>
<polygon fill="midnightblue" stroke="midnightblue" points="578.386,-286.173 588.345,-282.558 578.305,-279.174 578.386,-286.173"/>
</g>
<!-- Node16 -->
<g id="node38" class="node"><title>Node16</title>
<a xlink:href="../../d8/d81/class_u_b_application.html#ace44514d00d196ed5976552dedf9c070" target="_top" xlink:title="UBApplication::eventFilter">
<polygon fill="white" stroke="black" points="386.5,-126.5 386.5,-147.5 517.5,-147.5 517.5,-126.5 386.5,-126.5"/>
<text text-anchor="middle" x="452" y="-134.5" font-family="Helvetica,sans-Serif" font-size="10.00">UBApplication::eventFilter</text>
</a>
</g>
<!-- Node15&#45;&gt;Node16 -->
<g id="edge44" class="edge"><title>Node15&#45;&gt;Node16</title>
<path fill="none" stroke="midnightblue" d="M310.162,-137C335.062,-137 362.276,-137 386.148,-137"/>
<polygon fill="midnightblue" stroke="midnightblue" points="310.017,-133.5 300.017,-137 310.017,-140.5 310.017,-133.5"/>
</g>
<!-- Node20&#45;&gt;Node3 -->
<g id="edge62" class="edge"><title>Node20&#45;&gt;Node3</title>
<path fill="none" stroke="midnightblue" d="M287.238,-610.597C297.048,-613.792 306.988,-617.582 316,-622 333.722,-630.687 334.103,-639.679 352,-648 365.144,-654.112 379.982,-658.858 394.125,-662.492"/>
<polygon fill="midnightblue" stroke="midnightblue" points="288.099,-607.2 277.511,-607.599 286.037,-613.89 288.099,-607.2"/>
</g>
<!-- Node20&#45;&gt;Node7 -->
<g id="edge64" class="edge"><title>Node20&#45;&gt;Node7</title>
<path fill="none" stroke="midnightblue" d="M314.051,-595C416.981,-592.064 597.683,-585.414 752,-572 763.804,-570.974 776.285,-569.642 788.45,-568.208"/>
<polygon fill="midnightblue" stroke="midnightblue" points="313.929,-591.502 304.031,-595.281 314.125,-598.499 313.929,-591.502"/>
</g>
<!-- Node21 -->
<g id="node48" class="node"><title>Node21</title>
<a xlink:href="../../d7/d62/class_u_b_board_controller.html#ad363554dfb70642a295c4b002f396ec5" target="_top" xlink:title="UBBoardController:\l:setToolCursor">
<polygon fill="white" stroke="black" points="619.5,-624 619.5,-658 720.5,-658 720.5,-624 619.5,-624"/>
<text text-anchor="start" x="627.5" y="-645" font-family="Helvetica,sans-Serif" font-size="10.00">UBBoardController:</text>
<text text-anchor="middle" x="670" y="-632" font-family="Helvetica,sans-Serif" font-size="10.00">:setToolCursor</text>
</a>
</g>
<!-- Node20&#45;&gt;Node21 -->
<g id="edge54" class="edge"><title>Node20&#45;&gt;Node21</title>
<path fill="none" stroke="midnightblue" d="M314.307,-606.059C326.934,-607.401 339.81,-608.751 352,-610 446.36,-619.668 556.547,-630.252 619.315,-636.214"/>
<polygon fill="midnightblue" stroke="midnightblue" points="314.567,-602.567 304.252,-604.987 313.824,-609.528 314.567,-602.567"/>
</g>
<!-- Node22 -->
<g id="node50" class="node"><title>Node22</title>
<a xlink:href="../../d7/d62/class_u_b_board_controller.html#aa728cb7c1b979b2d4ae45638a7386dde" target="_top" xlink:title="UBBoardController::init">
<polygon fill="white" stroke="black" points="974.5,-533.5 974.5,-554.5 1091.5,-554.5 1091.5,-533.5 974.5,-533.5"/>
<text text-anchor="middle" x="1033" y="-541.5" font-family="Helvetica,sans-Serif" font-size="10.00">UBBoardController::init</text>
</a>
</g>
<!-- Node21&#45;&gt;Node22 -->
<g id="edge56" class="edge"><title>Node21&#45;&gt;Node22</title>
<path fill="none" stroke="midnightblue" d="M730.531,-631.494C785.405,-622.087 868.141,-605.92 938,-584 963.783,-575.91 992.202,-563.447 1011.18,-554.585"/>
<polygon fill="midnightblue" stroke="midnightblue" points="729.894,-628.052 720.618,-633.172 731.062,-634.954 729.894,-628.052"/>
</g>
<!-- Node23 -->
<g id="node52" class="node"><title>Node23</title>
<a xlink:href="../../d8/d81/class_u_b_application.html#add1469239e71bf24fdc61413a42a38bd" target="_top" xlink:title="UBApplication::exec">
<polygon fill="white" stroke="black" points="1162,-533.5 1162,-554.5 1268,-554.5 1268,-533.5 1162,-533.5"/>
<text text-anchor="middle" x="1215" y="-541.5" font-family="Helvetica,sans-Serif" font-size="10.00">UBApplication::exec</text>
</a>
</g>
<!-- Node22&#45;&gt;Node23 -->
<g id="edge58" class="edge"><title>Node22&#45;&gt;Node23</title>
<path fill="none" stroke="midnightblue" d="M1101.81,-544C1121.66,-544 1143.01,-544 1161.76,-544"/>
<polygon fill="midnightblue" stroke="midnightblue" points="1101.59,-540.5 1091.59,-544 1101.59,-547.5 1101.59,-540.5"/>
</g>
<!-- Node24 -->
<g id="node54" class="node"><title>Node24</title>
<a xlink:href="../../df/d0a/main_8cpp.html#a0ddf1224851353fc92bfbff6f499fa97" target="_top" xlink:title="main">
<polygon fill="white" stroke="black" points="1408,-533.5 1408,-554.5 1446,-554.5 1446,-533.5 1408,-533.5"/>
<text text-anchor="middle" x="1427" y="-541.5" font-family="Helvetica,sans-Serif" font-size="10.00">main</text>
</a>
</g>
<!-- Node23&#45;&gt;Node24 -->
<g id="edge60" class="edge"><title>Node23&#45;&gt;Node24</title>
<path fill="none" stroke="midnightblue" d="M1278.34,-544C1322.66,-544 1378.91,-544 1407.86,-544"/>
<polygon fill="midnightblue" stroke="midnightblue" points="1278.22,-540.5 1268.22,-544 1278.22,-547.5 1278.22,-540.5"/>
</g>
<!-- Node26 -->
<g id="node60" class="node"><title>Node26</title>
<a xlink:href="../../dc/db2/class_u_b_graphics_scene.html#aacb578d05b2d7fe372556ebdd4061029" target="_top" xlink:title="UBGraphicsScene::changeMagnifierMode">
<polygon fill="white" stroke="black" points="352.5,-314.5 352.5,-335.5 551.5,-335.5 551.5,-314.5 352.5,-314.5"/>
<text text-anchor="middle" x="452" y="-322.5" font-family="Helvetica,sans-Serif" font-size="10.00">UBGraphicsScene::changeMagnifierMode</text>
</a>
</g>
<!-- Node25&#45;&gt;Node26 -->
<g id="edge68" class="edge"><title>Node25&#45;&gt;Node26</title>
<path fill="none" stroke="midnightblue" d="M316.383,-325C328.186,-325 340.393,-325 352.426,-325"/>
<polygon fill="midnightblue" stroke="midnightblue" points="316.129,-321.5 306.129,-325 316.129,-328.5 316.129,-321.5"/>
</g>
<!-- Node50 -->
<g id="node112" class="node"><title>Node50</title>
<a xlink:href="../../d4/d9d/class_u_b_magnifier.html#ae59609ee73c99d0246a9543d5fac4dfe" target="_top" xlink:title="UBMagnifier::UBMagnifier">
<polygon fill="white" stroke="black" points="386.5,-354.5 386.5,-375.5 517.5,-375.5 517.5,-354.5 386.5,-354.5"/>
<text text-anchor="middle" x="452" y="-362.5" font-family="Helvetica,sans-Serif" font-size="10.00">UBMagnifier::UBMagnifier</text>
</a>
</g>
<!-- Node25&#45;&gt;Node50 -->
<g id="edge124" class="edge"><title>Node25&#45;&gt;Node50</title>
<path fill="none" stroke="midnightblue" d="M299.149,-337.335C329.498,-342.828 364.871,-349.23 393.939,-354.491"/>
<polygon fill="midnightblue" stroke="midnightblue" points="299.529,-333.847 289.065,-335.51 298.282,-340.735 299.529,-333.847"/>
</g>
<!-- Node27 -->
<g id="node62" class="node"><title>Node27</title>
<a xlink:href="../../dc/db2/class_u_b_graphics_scene.html#a68db5657dde886826bad2e633db1c703" target="_top" xlink:title="UBGraphicsScene::addMagnifier">
<polygon fill="white" stroke="black" points="590.5,-333.5 590.5,-354.5 749.5,-354.5 749.5,-333.5 590.5,-333.5"/>
<text text-anchor="middle" x="670" y="-341.5" font-family="Helvetica,sans-Serif" font-size="10.00">UBGraphicsScene::addMagnifier</text>
</a>
</g>
<!-- Node26&#45;&gt;Node27 -->
<g id="edge70" class="edge"><title>Node26&#45;&gt;Node27</title>
<path fill="none" stroke="midnightblue" d="M561.743,-334.565C571.343,-335.401 580.935,-336.237 590.221,-337.047"/>
<polygon fill="midnightblue" stroke="midnightblue" points="562.015,-331.075 551.749,-333.694 561.407,-338.049 562.015,-331.075"/>
</g>
<!-- Node28 -->
<g id="node64" class="node"><title>Node28</title>
<a xlink:href="../../d7/d62/class_u_b_board_controller.html#ab6cbc7bda85279e7eee5c5923892dd1a" target="_top" xlink:title="UBBoardController:\l:downloadFinished">
<polygon fill="white" stroke="black" points="812.5,-365 812.5,-399 913.5,-399 913.5,-365 812.5,-365"/>
<text text-anchor="start" x="820.5" y="-386" font-family="Helvetica,sans-Serif" font-size="10.00">UBBoardController:</text>
<text text-anchor="middle" x="863" y="-373" font-family="Helvetica,sans-Serif" font-size="10.00">:downloadFinished</text>
</a>
</g>
<!-- Node27&#45;&gt;Node28 -->
<g id="edge72" class="edge"><title>Node27&#45;&gt;Node28</title>
<path fill="none" stroke="midnightblue" d="M733.497,-356.502C759.105,-361.544 788.24,-367.28 812.381,-372.034"/>
<polygon fill="midnightblue" stroke="midnightblue" points="733.993,-353.032 723.505,-354.535 732.64,-359.901 733.993,-353.032"/>
</g>
<!-- Node28&#45;&gt;Node22 -->
<g id="edge74" class="edge"><title>Node28&#45;&gt;Node22</title>
<path fill="none" stroke="midnightblue" d="M885.383,-406.502C912.308,-435.814 956.119,-482.944 974,-499 987.995,-511.566 1005.22,-524.435 1017.43,-533.175"/>
<polygon fill="midnightblue" stroke="midnightblue" points="887.938,-404.11 878.599,-399.105 882.779,-408.841 887.938,-404.11"/>
</g>
<!-- Node29 -->
<g id="node67" class="node"><title>Node29</title>
<a xlink:href="../../d7/d62/class_u_b_board_controller.html#abae2655269e06f72767de71b8513f6be" target="_top" xlink:title="UBBoardController:\l:duplicateItem">
<polygon fill="white" stroke="black" points="1164.5,-365 1164.5,-399 1265.5,-399 1265.5,-365 1164.5,-365"/>
<text text-anchor="start" x="1172.5" y="-386" font-family="Helvetica,sans-Serif" font-size="10.00">UBBoardController:</text>
<text text-anchor="middle" x="1215" y="-373" font-family="Helvetica,sans-Serif" font-size="10.00">:duplicateItem</text>
</a>
</g>
<!-- Node28&#45;&gt;Node29 -->
<g id="edge76" class="edge"><title>Node28&#45;&gt;Node29</title>
<path fill="none" stroke="midnightblue" d="M923.957,-382C992.035,-382 1100.98,-382 1164.49,-382"/>
<polygon fill="midnightblue" stroke="midnightblue" points="923.808,-378.5 913.808,-382 923.808,-385.5 923.808,-378.5"/>
</g>
<!-- Node40 -->
<g id="node90" class="node"><title>Node40</title>
<a xlink:href="../../d7/d62/class_u_b_board_controller.html#a358f3f88d1fa9e41620170d76a806f93" target="_top" xlink:title="UBBoardController:\l:downloadURL">
<polygon fill="white" stroke="black" points="982.5,-217 982.5,-251 1083.5,-251 1083.5,-217 982.5,-217"/>
<text text-anchor="start" x="990.5" y="-238" font-family="Helvetica,sans-Serif" font-size="10.00">UBBoardController:</text>
<text text-anchor="middle" x="1033" y="-225" font-family="Helvetica,sans-Serif" font-size="10.00">:downloadURL</text>
</a>
</g>
<!-- Node28&#45;&gt;Node40 -->
<g id="edge100" class="edge"><title>Node28&#45;&gt;Node40</title>
<path fill="none" stroke="midnightblue" d="M890.634,-357.942C925.065,-327.967 983.043,-277.492 1013.29,-251.157"/>
<polygon fill="midnightblue" stroke="midnightblue" points="888.078,-355.527 882.834,-364.733 892.674,-360.806 888.078,-355.527"/>
</g>
<!-- Node30 -->
<g id="node69" class="node"><title>Node30</title>
<a xlink:href="../../d7/d62/class_u_b_board_controller.html#a07e50010567075b570140d6143c516f5" target="_top" xlink:title="UBBoardController:\l:processMimeData">
<polygon fill="white" stroke="black" points="1376.5,-319 1376.5,-353 1477.5,-353 1477.5,-319 1376.5,-319"/>
<text text-anchor="start" x="1384.5" y="-340" font-family="Helvetica,sans-Serif" font-size="10.00">UBBoardController:</text>
<text text-anchor="middle" x="1427" y="-327" font-family="Helvetica,sans-Serif" font-size="10.00">:processMimeData</text>
</a>
</g>
<!-- Node29&#45;&gt;Node30 -->
<g id="edge78" class="edge"><title>Node29&#45;&gt;Node30</title>
<path fill="none" stroke="midnightblue" d="M1275.58,-368.855C1307.38,-361.955 1345.91,-353.595 1376.14,-347.035"/>
<polygon fill="midnightblue" stroke="midnightblue" points="1274.54,-365.499 1265.51,-371.04 1276.02,-372.34 1274.54,-365.499"/>
</g>
<!-- Node34 -->
<g id="node77" class="node"><title>Node34</title>
<a xlink:href="../../d7/d62/class_u_b_board_controller.html#af713d6e325369af244f2af8c90299a35" target="_top" xlink:title="UBBoardController:\l:moveGraphicsWidgetToControlView">
<polygon fill="white" stroke="black" points="1338,-371 1338,-405 1516,-405 1516,-371 1338,-371"/>
<text text-anchor="start" x="1346" y="-392" font-family="Helvetica,sans-Serif" font-size="10.00">UBBoardController:</text>
<text text-anchor="middle" x="1427" y="-379" font-family="Helvetica,sans-Serif" font-size="10.00">:moveGraphicsWidgetToControlView</text>
</a>
</g>
<!-- Node29&#45;&gt;Node34 -->
<g id="edge86" class="edge"><title>Node29&#45;&gt;Node34</title>
<path fill="none" stroke="midnightblue" d="M1275.7,-383.718C1295.08,-384.266 1316.94,-384.885 1337.91,-385.478"/>
<polygon fill="midnightblue" stroke="midnightblue" points="1275.6,-380.214 1265.51,-383.43 1275.41,-387.211 1275.6,-380.214"/>
</g>
<!-- Node38 -->
<g id="node86" class="node"><title>Node38</title>
<a xlink:href="../../dd/dd5/class_u_b_graphics_item_delegate.html#a525c69cb3c3c0df6c4db4d406fd80e48" target="_top" xlink:title="UBGraphicsItemDelegate\l::duplicate">
<polygon fill="white" stroke="black" points="1363,-423 1363,-457 1491,-457 1491,-423 1363,-423"/>
<text text-anchor="start" x="1371" y="-444" font-family="Helvetica,sans-Serif" font-size="10.00">UBGraphicsItemDelegate</text>
<text text-anchor="middle" x="1427" y="-431" font-family="Helvetica,sans-Serif" font-size="10.00">::duplicate</text>
</a>
</g>
<!-- Node29&#45;&gt;Node38 -->
<g id="edge96" class="edge"><title>Node29&#45;&gt;Node38</title>
<path fill="none" stroke="midnightblue" d="M1275.18,-398.465C1303.19,-406.128 1336.49,-415.238 1364.75,-422.971"/>
<polygon fill="midnightblue" stroke="midnightblue" points="1276.08,-395.082 1265.51,-395.819 1274.23,-401.834 1276.08,-395.082"/>
</g>
<!-- Node31 -->
<g id="node71" class="node"><title>Node31</title>
<a xlink:href="../../d7/d62/class_u_b_board_controller.html#a68518a98107e994551da0a4e3a79fe2c" target="_top" xlink:title="UBBoardController:\l:paste">
<polygon fill="white" stroke="black" points="1580.5,-319 1580.5,-353 1681.5,-353 1681.5,-319 1580.5,-319"/>
<text text-anchor="start" x="1588.5" y="-340" font-family="Helvetica,sans-Serif" font-size="10.00">UBBoardController:</text>
<text text-anchor="middle" x="1631" y="-327" font-family="Helvetica,sans-Serif" font-size="10.00">:paste</text>
</a>
</g>
<!-- Node30&#45;&gt;Node31 -->
<g id="edge80" class="edge"><title>Node30&#45;&gt;Node31</title>
<path fill="none" stroke="midnightblue" d="M1487.85,-336C1517.29,-336 1552.23,-336 1580.22,-336"/>
<polygon fill="midnightblue" stroke="midnightblue" points="1487.69,-332.5 1477.69,-336 1487.69,-339.5 1487.69,-332.5"/>
</g>
<!-- Node33 -->
<g id="node75" class="node"><title>Node33</title>
<a xlink:href="../../d1/d78/class_u_b_board_view.html#a1bb7794094c4bb04637b0df2bc0c0fa9" target="_top" xlink:title="UBBoardView::dropEvent">
<polygon fill="white" stroke="black" points="1567,-279.5 1567,-300.5 1695,-300.5 1695,-279.5 1567,-279.5"/>
<text text-anchor="middle" x="1631" y="-287.5" font-family="Helvetica,sans-Serif" font-size="10.00">UBBoardView::dropEvent</text>
</a>
</g>
<!-- Node30&#45;&gt;Node33 -->
<g id="edge84" class="edge"><title>Node30&#45;&gt;Node33</title>
<path fill="none" stroke="midnightblue" d="M1487.52,-322.354C1518.52,-315.364 1555.68,-306.984 1584.41,-300.505"/>
<polygon fill="midnightblue" stroke="midnightblue" points="1486.67,-318.956 1477.69,-324.57 1488.21,-325.785 1486.67,-318.956"/>
</g>
<!-- Node32 -->
<g id="node73" class="node"><title>Node32</title>
<a xlink:href="../../da/d14/class_u_b_application_controller.html#a6afa41e1bc0c178acaa89684b7e9db26" target="_top" xlink:title="UBApplicationController\l::actionPaste">
<polygon fill="white" stroke="black" points="1757.5,-319 1757.5,-353 1878.5,-353 1878.5,-319 1757.5,-319"/>
<text text-anchor="start" x="1765.5" y="-340" font-family="Helvetica,sans-Serif" font-size="10.00">UBApplicationController</text>
<text text-anchor="middle" x="1818" y="-327" font-family="Helvetica,sans-Serif" font-size="10.00">::actionPaste</text>
</a>
</g>
<!-- Node31&#45;&gt;Node32 -->
<g id="edge82" class="edge"><title>Node31&#45;&gt;Node32</title>
<path fill="none" stroke="midnightblue" d="M1691.71,-336C1712.75,-336 1736.34,-336 1757.38,-336"/>
<polygon fill="midnightblue" stroke="midnightblue" points="1691.6,-332.5 1681.6,-336 1691.6,-339.5 1691.6,-332.5"/>
</g>
<!-- Node35 -->
<g id="node79" class="node"><title>Node35</title>
<a xlink:href="../../dc/db2/class_u_b_graphics_scene.html#aa63a9c1b5eb1de5a0d06a0f2b449648a" target="_top" xlink:title="UBGraphicsScene::addGraphics\lWidget">
<polygon fill="white" stroke="red" points="1552,-371 1552,-405 1710,-405 1710,-371 1552,-371"/>
<text text-anchor="start" x="1560" y="-392" font-family="Helvetica,sans-Serif" font-size="10.00">UBGraphicsScene::addGraphics</text>
<text text-anchor="middle" x="1631" y="-379" font-family="Helvetica,sans-Serif" font-size="10.00">Widget</text>
</a>
</g>
<!-- Node34&#45;&gt;Node35 -->
<g id="edge88" class="edge"><title>Node34&#45;&gt;Node35</title>
<path fill="none" stroke="midnightblue" d="M1526.26,-388C1534.87,-388 1543.51,-388 1551.93,-388"/>
<polygon fill="midnightblue" stroke="midnightblue" points="1526.18,-384.5 1516.18,-388 1526.18,-391.5 1526.18,-384.5"/>
</g>
<!-- Node36 -->
<g id="node81" class="node"><title>Node36</title>
<a xlink:href="../../d7/d62/class_u_b_board_controller.html#af122a3bb14b0ef66b169be9fd0e5a2b3" target="_top" xlink:title="UBBoardController:\l:moveToolWidgetToScene">
<polygon fill="white" stroke="red" points="1752,-371 1752,-405 1884,-405 1884,-371 1752,-371"/>
<text text-anchor="start" x="1760" y="-392" font-family="Helvetica,sans-Serif" font-size="10.00">UBBoardController:</text>
<text text-anchor="middle" x="1818" y="-379" font-family="Helvetica,sans-Serif" font-size="10.00">:moveToolWidgetToScene</text>
</a>
</g>
<!-- Node35&#45;&gt;Node36 -->
<g id="edge90" class="edge"><title>Node35&#45;&gt;Node36</title>
<path fill="none" stroke="midnightblue" d="M1720.23,-388C1730.91,-388 1741.67,-388 1751.94,-388"/>
<polygon fill="midnightblue" stroke="midnightblue" points="1720.03,-384.5 1710.03,-388 1720.03,-391.5 1720.03,-384.5"/>
</g>
<!-- Node37 -->
<g id="node83" class="node"><title>Node37</title>
<a xlink:href="../../dc/db2/class_u_b_graphics_scene.html#aa86ec061e79ba18c2efe73a6bf10bf33" target="_top" xlink:title="UBGraphicsScene::addApple\lWidget">
<polygon fill="white" stroke="red" points="1746,-445 1746,-479 1890,-479 1890,-445 1746,-445"/>
<text text-anchor="start" x="1754" y="-466" font-family="Helvetica,sans-Serif" font-size="10.00">UBGraphicsScene::addApple</text>
<text text-anchor="middle" x="1818" y="-453" font-family="Helvetica,sans-Serif" font-size="10.00">Widget</text>
</a>
</g>
<!-- Node35&#45;&gt;Node37 -->
<g id="edge92" class="edge"><title>Node35&#45;&gt;Node37</title>
<path fill="none" stroke="midnightblue" d="M1695.03,-408.465C1700.12,-410.276 1705.16,-412.132 1710,-414 1734.31,-423.377 1761.08,-435.263 1781.89,-444.862"/>
<polygon fill="midnightblue" stroke="midnightblue" points="1695.82,-405.035 1685.23,-405.048 1693.52,-411.645 1695.82,-405.035"/>
</g>
<!-- Node37&#45;&gt;Node28 -->
<g id="edge94" class="edge"><title>Node37&#45;&gt;Node28</title>
<path fill="none" stroke="midnightblue" d="M1735.27,-469.695C1656.18,-476.381 1533.56,-485 1427,-485 1215,-485 1215,-485 1215,-485 1094.02,-485 958.723,-428.263 897.002,-399.008"/>
<polygon fill="midnightblue" stroke="midnightblue" points="1735.99,-473.147 1745.65,-468.807 1735.39,-466.172 1735.99,-473.147"/>
</g>
<!-- Node39 -->
<g id="node88" class="node"><title>Node39</title>
<a xlink:href="../../dd/dd5/class_u_b_graphics_item_delegate.html#a1de77276aba7276defacd0b87c9b87c7" target="_top" xlink:title="UBGraphicsItemDelegate\l::init">
<polygon fill="white" stroke="red" points="1567,-423 1567,-457 1695,-457 1695,-423 1567,-423"/>
<text text-anchor="start" x="1575" y="-444" font-family="Helvetica,sans-Serif" font-size="10.00">UBGraphicsItemDelegate</text>
<text text-anchor="middle" x="1631" y="-431" font-family="Helvetica,sans-Serif" font-size="10.00">::init</text>
</a>
</g>
<!-- Node38&#45;&gt;Node39 -->
<g id="edge98" class="edge"><title>Node38&#45;&gt;Node39</title>
<path fill="none" stroke="midnightblue" d="M1501.3,-440C1522.73,-440 1545.93,-440 1566.71,-440"/>
<polygon fill="midnightblue" stroke="midnightblue" points="1501.27,-436.5 1491.27,-440 1501.27,-443.5 1501.27,-436.5"/>
</g>
<!-- Node40&#45;&gt;Node29 -->
<g id="edge106" class="edge"><title>Node40&#45;&gt;Node29</title>
<path fill="none" stroke="midnightblue" d="M1048.63,-259.421C1065.44,-284.908 1094.34,-323.752 1128,-348 1138.92,-355.868 1151.91,-362.208 1164.47,-367.184"/>
<polygon fill="midnightblue" stroke="midnightblue" points="1051.56,-257.512 1043.2,-251.009 1045.68,-261.309 1051.56,-257.512"/>
</g>
<!-- Node40&#45;&gt;Node30 -->
<g id="edge108" class="edge"><title>Node40&#45;&gt;Node30</title>
<path fill="none" stroke="midnightblue" d="M1054.82,-258.648C1072.55,-276.848 1099.26,-300.394 1128,-312 1210.09,-345.148 1315.01,-344.855 1376.23,-340.917"/>
<polygon fill="midnightblue" stroke="midnightblue" points="1057.21,-256.08 1047.79,-251.225 1052.12,-260.893 1057.21,-256.08"/>
</g>
<!-- Node41 -->
<g id="node92" class="node"><title>Node41</title>
<a xlink:href="../../da/dd6/class_u_b_library_a_p_i.html#abeac23fcd7f64866d5686b590ec05695" target="_top" xlink:title="UBLibraryAPI::addObject">
<polygon fill="white" stroke="black" points="1151.5,-177.5 1151.5,-198.5 1278.5,-198.5 1278.5,-177.5 1151.5,-177.5"/>
<text text-anchor="middle" x="1215" y="-185.5" font-family="Helvetica,sans-Serif" font-size="10.00">UBLibraryAPI::addObject</text>
</a>
</g>
<!-- Node40&#45;&gt;Node41 -->
<g id="edge102" class="edge"><title>Node40&#45;&gt;Node41</title>
<path fill="none" stroke="midnightblue" d="M1093.57,-217.022C1104.99,-213.936 1116.84,-210.808 1128,-208 1140.78,-204.785 1154.66,-201.5 1167.5,-198.546"/>
<polygon fill="midnightblue" stroke="midnightblue" points="1092.41,-213.711 1083.68,-219.715 1094.25,-220.465 1092.41,-213.711"/>
</g>
<!-- Node42 -->
<g id="node94" class="node"><title>Node42</title>
<a xlink:href="../../d5/d2b/class_u_b_widget_uniboard_a_p_i.html#a73ac1600ef3ed549d2c6c969436efb2f" target="_top" xlink:title="UBWidgetUniboardAPI\l::addObject">
<polygon fill="white" stroke="black" points="1156.5,-125 1156.5,-159 1273.5,-159 1273.5,-125 1156.5,-125"/>
<text text-anchor="start" x="1164.5" y="-146" font-family="Helvetica,sans-Serif" font-size="10.00">UBWidgetUniboardAPI</text>
<text text-anchor="middle" x="1215" y="-133" font-family="Helvetica,sans-Serif" font-size="10.00">::addObject</text>
</a>
</g>
<!-- Node40&#45;&gt;Node42 -->
<g id="edge104" class="edge"><title>Node40&#45;&gt;Node42</title>
<path fill="none" stroke="midnightblue" d="M1062.03,-210.205C1080.12,-196.332 1104.36,-179.382 1128,-168 1136.95,-163.691 1146.76,-159.928 1156.47,-156.704"/>
<polygon fill="midnightblue" stroke="midnightblue" points="1059.41,-207.815 1053.68,-216.73 1063.72,-213.332 1059.41,-207.815"/>
</g>
<!-- Node43 -->
<g id="node98" class="node"><title>Node43</title>
<a xlink:href="../../d8/d33/class_u_b_features_controller.html#a38042ae37804ee19bfacf4aafd096ea9" target="_top" xlink:title="UBFeaturesController\l::addItemToPage">
<polygon fill="white" stroke="black" points="1159.5,-73 1159.5,-107 1270.5,-107 1270.5,-73 1159.5,-73"/>
<text text-anchor="start" x="1167.5" y="-94" font-family="Helvetica,sans-Serif" font-size="10.00">UBFeaturesController</text>
<text text-anchor="middle" x="1215" y="-81" font-family="Helvetica,sans-Serif" font-size="10.00">::addItemToPage</text>
</a>
</g>
<!-- Node40&#45;&gt;Node43 -->
<g id="edge110" class="edge"><title>Node40&#45;&gt;Node43</title>
<path fill="none" stroke="midnightblue" d="M1047.47,-207.966C1063.7,-181.112 1092.46,-139.882 1128,-116 1137.42,-109.669 1148.42,-104.843 1159.37,-101.176"/>
<polygon fill="midnightblue" stroke="midnightblue" points="1044.32,-206.42 1042.27,-216.813 1050.36,-209.971 1044.32,-206.42"/>
</g>
<!-- Node44 -->
<g id="node100" class="node"><title>Node44</title>
<a xlink:href="../../d8/d33/class_u_b_features_controller.html#a0ecd4b84e703063db5c0fdf498f2cdb0" target="_top" xlink:title="UBFeaturesController\l::addItemAsBackground">
<polygon fill="white" stroke="black" points="1154,-21 1154,-55 1276,-55 1276,-21 1154,-21"/>
<text text-anchor="start" x="1162" y="-42" font-family="Helvetica,sans-Serif" font-size="10.00">UBFeaturesController</text>
<text text-anchor="middle" x="1215" y="-29" font-family="Helvetica,sans-Serif" font-size="10.00">::addItemAsBackground</text>
</a>
</g>
<!-- Node40&#45;&gt;Node44 -->
<g id="edge112" class="edge"><title>Node40&#45;&gt;Node44</title>
<path fill="none" stroke="midnightblue" d="M1040.86,-207.198C1053.24,-169.659 1080.86,-101.793 1128,-64 1135.63,-57.8862 1144.66,-53.2088 1153.97,-49.6306"/>
<polygon fill="midnightblue" stroke="midnightblue" points="1037.46,-206.341 1037.77,-216.931 1044.13,-208.46 1037.46,-206.341"/>
</g>
<!-- Node45 -->
<g id="node102" class="node"><title>Node45</title>
<a xlink:href="../../db/d78/class_w_b_web_trap_web_view.html#afdbfd6aac50cad5ac07a465baa7be0b6" target="_top" xlink:title="WBWebTrapWebView::trapElement\lAtPos">
<polygon fill="white" stroke="black" points="1128.5,-269 1128.5,-303 1301.5,-303 1301.5,-269 1128.5,-269"/>
<text text-anchor="start" x="1136.5" y="-290" font-family="Helvetica,sans-Serif" font-size="10.00">WBWebTrapWebView::trapElement</text>
<text text-anchor="middle" x="1215" y="-277" font-family="Helvetica,sans-Serif" font-size="10.00">AtPos</text>
</a>
</g>
<!-- Node40&#45;&gt;Node45 -->
<g id="edge114" class="edge"><title>Node40&#45;&gt;Node45</title>
<path fill="none" stroke="midnightblue" d="M1093.55,-251.3C1113.4,-256.971 1135.43,-263.267 1155.23,-268.922"/>
<polygon fill="midnightblue" stroke="midnightblue" points="1094.27,-247.867 1083.7,-248.485 1092.35,-254.598 1094.27,-247.867"/>
</g>
<!-- Node48 -->
<g id="node108" class="node"><title>Node48</title>
<a xlink:href="../../df/d50/class_u_b_web_controller.html#a318422dc0a027e2258180673bb333586" target="_top" xlink:title="UBWebController::capture\lEduMedia">
<polygon fill="white" stroke="black" points="1149.5,-217 1149.5,-251 1280.5,-251 1280.5,-217 1149.5,-217"/>
<text text-anchor="start" x="1157.5" y="-238" font-family="Helvetica,sans-Serif" font-size="10.00">UBWebController::capture</text>
<text text-anchor="middle" x="1215" y="-225" font-family="Helvetica,sans-Serif" font-size="10.00">EduMedia</text>
</a>
</g>
<!-- Node40&#45;&gt;Node48 -->
<g id="edge120" class="edge"><title>Node40&#45;&gt;Node48</title>
<path fill="none" stroke="midnightblue" d="M1093.94,-234C1111.7,-234 1131.19,-234 1149.24,-234"/>
<polygon fill="midnightblue" stroke="midnightblue" points="1093.7,-230.5 1083.7,-234 1093.7,-237.5 1093.7,-230.5"/>
</g>
<!-- Node46 -->
<g id="node104" class="node"><title>Node46</title>
<a xlink:href="../../db/d78/class_w_b_web_trap_web_view.html#a2ac308414d18186c9c4fc60bc5f46400" target="_top" xlink:title="WBWebTrapWebView::trapContent\lFromHitTest">
<polygon fill="white" stroke="black" points="1341,-215 1341,-249 1513,-249 1513,-215 1341,-215"/>
<text text-anchor="start" x="1349" y="-236" font-family="Helvetica,sans-Serif" font-size="10.00">WBWebTrapWebView::trapContent</text>
<text text-anchor="middle" x="1427" y="-223" font-family="Helvetica,sans-Serif" font-size="10.00">FromHitTest</text>
</a>
</g>
<!-- Node45&#45;&gt;Node46 -->
<g id="edge116" class="edge"><title>Node45&#45;&gt;Node46</title>
<path fill="none" stroke="midnightblue" d="M1291.61,-266.486C1314.05,-260.77 1338.4,-254.567 1360.18,-249.019"/>
<polygon fill="midnightblue" stroke="midnightblue" points="1290.61,-263.128 1281.79,-268.988 1292.34,-269.911 1290.61,-263.128"/>
</g>
<!-- Node47 -->
<g id="node106" class="node"><title>Node47</title>
<a xlink:href="../../dd/df0/class_u_b_web_trap_mouse_event_mask.html#a2c69d74fef874516e38daeab13e6ecd0" target="_top" xlink:title="UBWebTrapMouseEventMask\l::mousePressEvent">
<polygon fill="white" stroke="black" points="1352.5,-267 1352.5,-301 1501.5,-301 1501.5,-267 1352.5,-267"/>
<text text-anchor="start" x="1360.5" y="-288" font-family="Helvetica,sans-Serif" font-size="10.00">UBWebTrapMouseEventMask</text>
<text text-anchor="middle" x="1427" y="-275" font-family="Helvetica,sans-Serif" font-size="10.00">::mousePressEvent</text>
</a>
</g>
<!-- Node45&#45;&gt;Node47 -->
<g id="edge118" class="edge"><title>Node45&#45;&gt;Node47</title>
<path fill="none" stroke="midnightblue" d="M1311.86,-285.086C1325.43,-284.958 1339.21,-284.828 1352.28,-284.705"/>
<polygon fill="midnightblue" stroke="midnightblue" points="1311.5,-281.589 1301.53,-285.184 1311.57,-288.589 1311.5,-281.589"/>
</g>
<!-- Node49 -->
<g id="node110" class="node"><title>Node49</title>
<a xlink:href="../../df/d50/class_u_b_web_controller.html#af73cfa36d5b743fa3a652e49dd7e4831" target="_top" xlink:title="UBWebController::setupPalettes">
<polygon fill="white" stroke="black" points="1347.5,-175.5 1347.5,-196.5 1506.5,-196.5 1506.5,-175.5 1347.5,-175.5"/>
<text text-anchor="middle" x="1427" y="-183.5" font-family="Helvetica,sans-Serif" font-size="10.00">UBWebController::setupPalettes</text>
</a>
</g>
<!-- Node48&#45;&gt;Node49 -->
<g id="edge122" class="edge"><title>Node48&#45;&gt;Node49</title>
<path fill="none" stroke="midnightblue" d="M1290.86,-216.696C1306.45,-213.15 1322.76,-209.448 1338,-206 1351.59,-202.926 1366.36,-199.601 1379.88,-196.563"/>
<polygon fill="midnightblue" stroke="midnightblue" points="1289.72,-213.367 1280.74,-218.999 1291.27,-220.193 1289.72,-213.367"/>
</g>
</g>
</svg>
