<?xml version="1.0" encoding="UTF-8" standalone="no"?>
<!DOCTYPE svg PUBLIC "-//W3C//DTD SVG 1.1//EN"
 "http://www.w3.org/Graphics/SVG/1.1/DTD/svg11.dtd">
<!-- Generated by graphviz version 2.26.3 (20100126.1600)
 -->
<!-- Title: UBBoardView::mouseMoveEvent Pages: 1 -->
<svg width="394pt" height="30pt"
 viewBox="0.00 0.00 394.00 30.00" xmlns="http://www.w3.org/2000/svg" xmlns:xlink="http://www.w3.org/1999/xlink">
<g id="graph1" class="graph" transform="scale(1 1) rotate(0) translate(4 26)">
<title>UBBoardView::mouseMoveEvent</title>
<polygon fill="white" stroke="white" points="-4,5 -4,-26 391,-26 391,5 -4,5"/>
<!-- Node1 -->
<g id="node1" class="node"><title>Node1</title>
<polygon fill="#bfbfbf" stroke="black" points="0.5,-0.5 0.5,-21.5 163.5,-21.5 163.5,-0.5 0.5,-0.5"/>
<text text-anchor="middle" x="82" y="-8.5" font-family="Helvetica,sans-Serif" font-size="10.00">UBBoardView::mouseMoveEvent</text>
</g>
<!-- Node2 -->
<g id="node3" class="node"><title>Node2</title>
<a xlink:href="../../d1/d78/class_u_b_board_view.html#aa0ffd2f772d688eb459b316c36404188" target="_top" xlink:title="UBBoardView::handleItemMouseMove">
<polygon fill="white" stroke="black" points="200.5,-0.5 200.5,-21.5 385.5,-21.5 385.5,-0.5 200.5,-0.5"/>
<text text-anchor="middle" x="293" y="-8.5" font-family="Helvetica,sans-Serif" font-size="10.00">UBBoardView::handleItemMouseMove</text>
</a>
</g>
<!-- Node1&#45;&gt;Node2 -->
<g id="edge2" class="edge"><title>Node1&#45;&gt;Node2</title>
<path fill="none" stroke="midnightblue" d="M173.844,-4.30052C182.652,-4.23502 191.589,-4.23321 200.404,-4.29508"/>
<polygon fill="midnightblue" stroke="midnightblue" points="173.541,-0.803361 163.578,-4.40666 173.614,-7.80299 173.541,-0.803361"/>
</g>
<!-- Node2&#45;&gt;Node1 -->
<g id="edge4" class="edge"><title>Node2&#45;&gt;Node1</title>
<path fill="none" stroke="midnightblue" d="M190.304,-17.7479C181.336,-17.7614 172.341,-17.7099 163.578,-17.5933"/>
<polygon fill="midnightblue" stroke="midnightblue" points="190.419,-21.2475 200.404,-17.7049 190.39,-14.2476 190.419,-21.2475"/>
</g>
</g>
</svg>
