<?xml version="1.0" encoding="UTF-8" standalone="no"?>
<!DOCTYPE svg PUBLIC "-//W3C//DTD SVG 1.1//EN"
 "http://www.w3.org/Graphics/SVG/1.1/DTD/svg11.dtd">
<!-- Generated by graphviz version 2.26.3 (20100126.1600)
 -->
<!-- Title: Sankore&#45;3.1/src/pdf&#45;merger/RotationHandler.h Pages: 1 -->
<!--zoomable 508 -->
<svg id="main" version="1.1" xmlns="http://www.w3.org/2000/svg" xmlns:xlink="http://www.w3.org/1999/xlink" xml:space="preserve" onload="init(evt)">
        <defs>
                <circle id="rim" cx="0" cy="0" r="7"/>
                <circle id="rim2" cx="0" cy="0" r="3.5"/>
                <g id="zoomPlus">
                        <use xlink:href="#rim" fill="#404040">
                                <set attributeName="fill" to="#808080" begin="zoomplus.mouseover" end="zoomplus.mouseout"/>
                        </use>
                        <path d="M-4,0h8M0,-4v8" fill="none" stroke="white" stroke-width="1.5" pointer-events="none"/>
                </g>
                <g id="zoomMin">
                        <use xlink:href="#rim" fill="#404040">
                                <set attributeName="fill" to="#808080" begin="zoomminus.mouseover" end="zoomminus.mouseout"/>
                        </use>
                        <path d="M-4,0h8" fill="none" stroke="white" stroke-width="1.5" pointer-events="none"/>
                </g>
                <g id="dirArrow">
                        <path fill="none" stroke="white" stroke-width="1.5" d="M0,-3.0v7 M-2.5,-0.5L0,-3.0L2.5,-0.5"/>
                </g>
               <g id="resetDef">
                       <use xlink:href="#rim2" fill="#404040">
                               <set attributeName="fill" to="#808080" begin="reset.mouseover" end="reset.mouseout"/>
                       </use>
               </g>
        </defs>

<script type="text/javascript">
var viewWidth = 846;
var viewHeight = 508;
var sectionId = 'dynsection-0';
</script>
<script xlink:href="../../svgpan.js"/>
<svg id="graph" class="graph">
<g id="viewport">
<title>Sankore&#45;3.1/src/pdf&#45;merger/RotationHandler.h</title>
<polygon fill="white" stroke="white" points="-4,5 -4,-504 843,-504 843,5 -4,5"/>
<!-- Node1 -->
<g id="node1" class="node"><title>Node1</title>
<polygon fill="#bfbfbf" stroke="black" points="16.5,-465 16.5,-499 147.5,-499 147.5,-465 16.5,-465"/>
<text text-anchor="start" x="24.5" y="-486" font-family="Helvetica,sans-Serif" font-size="10.00">Sankore&#45;3.1/src/pdf</text>
<text text-anchor="middle" x="82" y="-473" font-family="Helvetica,sans-Serif" font-size="10.00">&#45;merger/RotationHandler.h</text>
</g>
<!-- Node2 -->
<g id="node3" class="node"><title>Node2</title>
<polygon fill="white" stroke="#bfbfbf" points="-0.5,-406.5 -0.5,-427.5 54.5,-427.5 54.5,-406.5 -0.5,-406.5"/>
<text text-anchor="middle" x="27" y="-414.5" font-family="Helvetica,sans-Serif" font-size="10.00">QtGlobal</text>
</g>
<!-- Node1&#45;&gt;Node2 -->
<g id="edge2" class="edge"><title>Node1&#45;&gt;Node2</title>
<path fill="none" stroke="midnightblue" d="M67.5494,-464.922C59.9467,-455.937 50.6116,-444.905 42.8156,-435.691"/>
<polygon fill="midnightblue" stroke="midnightblue" points="45.3139,-433.225 36.1825,-427.852 39.9701,-437.747 45.3139,-433.225"/>
</g>
<!-- Node3 -->
<g id="node5" class="node"><title>Node3</title>
<a xlink:href="../../d0/d9f/_page_element_handler_8h.html" target="_top" xlink:title="PageElementHandler.h">
<polygon fill="white" stroke="black" points="354.5,-406.5 354.5,-427.5 471.5,-427.5 471.5,-406.5 354.5,-406.5"/>
<text text-anchor="middle" x="413" y="-414.5" font-family="Helvetica,sans-Serif" font-size="10.00">PageElementHandler.h</text>
</a>
</g>
<!-- Node1&#45;&gt;Node3 -->
<g id="edge4" class="edge"><title>Node1&#45;&gt;Node3</title>
<path fill="none" stroke="midnightblue" d="M147.791,-469.08C206.305,-457.59 291.332,-440.893 349.227,-429.523"/>
<polygon fill="midnightblue" stroke="midnightblue" points="350.212,-432.897 359.35,-427.536 348.863,-426.028 350.212,-432.897"/>
</g>
<!-- Node19 -->
<g id="node41" class="node"><title>Node19</title>
<a xlink:href="../../db/ded/_page_8h.html" target="_top" xlink:title="Page.h">
<polygon fill="white" stroke="black" points="326.5,-232.5 326.5,-253.5 373.5,-253.5 373.5,-232.5 326.5,-232.5"/>
<text text-anchor="middle" x="350" y="-240.5" font-family="Helvetica,sans-Serif" font-size="10.00">Page.h</text>
</a>
</g>
<!-- Node1&#45;&gt;Node19 -->
<g id="edge78" class="edge"><title>Node1&#45;&gt;Node19</title>
<path fill="none" stroke="midnightblue" d="M101.274,-464.812C150.616,-420.809 281.082,-304.46 330.582,-260.317"/>
<polygon fill="midnightblue" stroke="midnightblue" points="332.934,-262.909 338.068,-253.641 328.275,-257.685 332.934,-262.909"/>
</g>
<!-- Node4 -->
<g id="node7" class="node"><title>Node4</title>
<polygon fill="white" stroke="#bfbfbf" points="343.5,-0.5 343.5,-21.5 384.5,-21.5 384.5,-0.5 343.5,-0.5"/>
<text text-anchor="middle" x="364" y="-8.5" font-family="Helvetica,sans-Serif" font-size="10.00">string</text>
</g>
<!-- Node3&#45;&gt;Node4 -->
<g id="edge6" class="edge"><title>Node3&#45;&gt;Node4</title>
<path fill="none" stroke="midnightblue" d="M370.311,-406.496C273.178,-381.349 44,-314.447 44,-243 44,-243 44,-243 44,-127 44,-82.032 77.9001,-78.3499 118,-58 155.337,-39.0523 275.721,-22.0135 333.069,-14.735"/>
<polygon fill="midnightblue" stroke="midnightblue" points="333.844,-18.1654 343.332,-13.4514 332.975,-11.2195 333.844,-18.1654"/>
</g>
<!-- Node5 -->
<g id="node9" class="node"><title>Node5</title>
<polygon fill="white" stroke="#bfbfbf" points="808,-116.5 808,-137.5 838,-137.5 838,-116.5 808,-116.5"/>
<text text-anchor="middle" x="823" y="-124.5" font-family="Helvetica,sans-Serif" font-size="10.00">set</text>
</g>
<!-- Node3&#45;&gt;Node5 -->
<g id="edge8" class="edge"><title>Node3&#45;&gt;Node5</title>
<path fill="none" stroke="midnightblue" d="M471.747,-412.543C584.457,-402.368 820,-372.545 820,-301 820,-301 820,-301 820,-243 820,-209.587 821.259,-170.777 822.146,-147.59"/>
<polygon fill="midnightblue" stroke="midnightblue" points="825.645,-147.685 822.544,-137.554 818.65,-147.407 825.645,-147.685"/>
</g>
<!-- Node6 -->
<g id="node11" class="node"><title>Node6</title>
<a xlink:href="../../df/d30/_object_8h.html" target="_top" xlink:title="Object.h">
<polygon fill="white" stroke="black" points="487.5,-174.5 487.5,-195.5 540.5,-195.5 540.5,-174.5 487.5,-174.5"/>
<text text-anchor="middle" x="514" y="-182.5" font-family="Helvetica,sans-Serif" font-size="10.00">Object.h</text>
</a>
</g>
<!-- Node3&#45;&gt;Node6 -->
<g id="edge10" class="edge"><title>Node3&#45;&gt;Node6</title>
<path fill="none" stroke="midnightblue" d="M421.918,-406.183C429.358,-396.898 439.999,-382.995 448,-370 477.621,-321.889 483.906,-308.158 500,-254 504.726,-238.098 508.375,-219.664 510.762,-205.852"/>
<polygon fill="midnightblue" stroke="midnightblue" points="514.229,-206.338 512.402,-195.902 507.322,-205.2 514.229,-206.338"/>
</g>
<!-- Node17 -->
<g id="node36" class="node"><title>Node17</title>
<a xlink:href="../../de/d40/_parser_8h.html" target="_top" xlink:title="Parser.h">
<polygon fill="white" stroke="black" points="386.5,-348.5 386.5,-369.5 439.5,-369.5 439.5,-348.5 386.5,-348.5"/>
<text text-anchor="middle" x="413" y="-356.5" font-family="Helvetica,sans-Serif" font-size="10.00">Parser.h</text>
</a>
</g>
<!-- Node3&#45;&gt;Node17 -->
<g id="edge38" class="edge"><title>Node3&#45;&gt;Node17</title>
<path fill="none" stroke="midnightblue" d="M413,-406.362C413,-398.922 413,-388.743 413,-379.728"/>
<polygon fill="midnightblue" stroke="midnightblue" points="416.5,-379.571 413,-369.571 409.5,-379.571 416.5,-379.571"/>
</g>
<!-- Node6&#45;&gt;Node4 -->
<g id="edge26" class="edge"><title>Node6&#45;&gt;Node4</title>
<path fill="none" stroke="midnightblue" d="M499.68,-174.205C488.108,-165.153 471.711,-151.564 459,-138 425.965,-102.749 393.588,-56.1627 376.485,-30.3369"/>
<polygon fill="midnightblue" stroke="midnightblue" points="379.312,-28.2648 370.902,-21.8208 373.458,-32.1028 379.312,-28.2648"/>
</g>
<!-- Node6&#45;&gt;Node5 -->
<g id="edge32" class="edge"><title>Node6&#45;&gt;Node5</title>
<path fill="none" stroke="midnightblue" d="M540.613,-180.005C599.474,-168.956 740.043,-142.571 797.684,-131.752"/>
<polygon fill="midnightblue" stroke="midnightblue" points="798.568,-135.147 807.751,-129.862 797.277,-128.267 798.568,-135.147"/>
</g>
<!-- Node7 -->
<g id="node13" class="node"><title>Node7</title>
<a xlink:href="../../d9/dc1/_utils_8h.html" target="_top" xlink:title="Utils.h">
<polygon fill="white" stroke="black" points="467.5,-58.5 467.5,-79.5 512.5,-79.5 512.5,-58.5 467.5,-58.5"/>
<text text-anchor="middle" x="490" y="-66.5" font-family="Helvetica,sans-Serif" font-size="10.00">Utils.h</text>
</a>
</g>
<!-- Node6&#45;&gt;Node7 -->
<g id="edge12" class="edge"><title>Node6&#45;&gt;Node7</title>
<path fill="none" stroke="midnightblue" d="M540.739,-181.676C587.567,-174.745 676.747,-155.957 647,-116 632.12,-96.013 564.105,-81.374 522.631,-74.1214"/>
<polygon fill="midnightblue" stroke="midnightblue" points="523.151,-70.6598 512.707,-72.4379 521.981,-77.5612 523.151,-70.6598"/>
</g>
<!-- Node12 -->
<g id="node24" class="node"><title>Node12</title>
<polygon fill="white" stroke="#bfbfbf" points="594,-116.5 594,-137.5 638,-137.5 638,-116.5 594,-116.5"/>
<text text-anchor="middle" x="616" y="-124.5" font-family="Helvetica,sans-Serif" font-size="10.00">cmath</text>
</g>
<!-- Node6&#45;&gt;Node12 -->
<g id="edge24" class="edge"><title>Node6&#45;&gt;Node12</title>
<path fill="none" stroke="midnightblue" d="M532.708,-174.362C548.381,-165.45 570.964,-152.609 588.663,-142.545"/>
<polygon fill="midnightblue" stroke="midnightblue" points="590.447,-145.556 597.41,-137.571 586.987,-139.471 590.447,-145.556"/>
</g>
<!-- Node13 -->
<g id="node27" class="node"><title>Node13</title>
<polygon fill="white" stroke="#bfbfbf" points="468,-116.5 468,-137.5 518,-137.5 518,-116.5 468,-116.5"/>
<text text-anchor="middle" x="493" y="-124.5" font-family="Helvetica,sans-Serif" font-size="10.00">fstream</text>
</g>
<!-- Node6&#45;&gt;Node13 -->
<g id="edge28" class="edge"><title>Node6&#45;&gt;Node13</title>
<path fill="none" stroke="midnightblue" d="M510.148,-174.362C507.395,-166.758 503.606,-156.294 500.29,-147.135"/>
<polygon fill="midnightblue" stroke="midnightblue" points="503.523,-145.782 496.827,-137.571 496.941,-148.165 503.523,-145.782"/>
</g>
<!-- Node14 -->
<g id="node29" class="node"><title>Node14</title>
<polygon fill="white" stroke="#bfbfbf" points="377.5,-116.5 377.5,-137.5 412.5,-137.5 412.5,-116.5 377.5,-116.5"/>
<text text-anchor="middle" x="395" y="-124.5" font-family="Helvetica,sans-Serif" font-size="10.00">map</text>
</g>
<!-- Node6&#45;&gt;Node14 -->
<g id="edge30" class="edge"><title>Node6&#45;&gt;Node14</title>
<path fill="none" stroke="midnightblue" d="M492.45,-174.497C472.586,-164.815 443.037,-150.413 421.688,-140.007"/>
<polygon fill="midnightblue" stroke="midnightblue" points="423.042,-136.774 412.52,-135.539 419.976,-143.067 423.042,-136.774"/>
</g>
<!-- Node15 -->
<g id="node32" class="node"><title>Node15</title>
<polygon fill="white" stroke="#bfbfbf" points="701,-58.5 701,-79.5 745,-79.5 745,-58.5 701,-58.5"/>
<text text-anchor="middle" x="723" y="-66.5" font-family="Helvetica,sans-Serif" font-size="10.00">vector</text>
</g>
<!-- Node6&#45;&gt;Node15 -->
<g id="edge34" class="edge"><title>Node6&#45;&gt;Node15</title>
<path fill="none" stroke="midnightblue" d="M540.647,-181.113C572.008,-175.566 624.664,-163.133 663,-138 682.865,-124.976 700.007,-103.604 710.821,-88.092"/>
<polygon fill="midnightblue" stroke="midnightblue" points="713.759,-89.9959 716.431,-79.7435 707.948,-86.092 713.759,-89.9959"/>
</g>
<!-- Node16 -->
<g id="node34" class="node"><title>Node16</title>
<polygon fill="white" stroke="#bfbfbf" points="536,-116.5 536,-137.5 576,-137.5 576,-116.5 536,-116.5"/>
<text text-anchor="middle" x="556" y="-124.5" font-family="Helvetica,sans-Serif" font-size="10.00">utility</text>
</g>
<!-- Node6&#45;&gt;Node16 -->
<g id="edge36" class="edge"><title>Node6&#45;&gt;Node16</title>
<path fill="none" stroke="midnightblue" d="M521.703,-174.362C527.446,-166.431 535.443,-155.389 542.27,-145.961"/>
<polygon fill="midnightblue" stroke="midnightblue" points="545.315,-147.723 548.345,-137.571 539.645,-143.617 545.315,-147.723"/>
</g>
<!-- Node7&#45;&gt;Node4 -->
<g id="edge18" class="edge"><title>Node7&#45;&gt;Node4</title>
<path fill="none" stroke="midnightblue" d="M467.474,-58.6308C446.911,-49.1652 416.371,-35.1074 393.796,-24.7156"/>
<polygon fill="midnightblue" stroke="midnightblue" points="395.208,-21.5127 384.661,-20.5105 392.281,-27.8714 395.208,-21.5127"/>
</g>
<!-- Node8 -->
<g id="node15" class="node"><title>Node8</title>
<a xlink:href="../../d4/d71/_config_8h.html" target="_top" xlink:title="Config.h">
<polygon fill="white" stroke="black" points="528.5,-0.5 528.5,-21.5 581.5,-21.5 581.5,-0.5 528.5,-0.5"/>
<text text-anchor="middle" x="555" y="-8.5" font-family="Helvetica,sans-Serif" font-size="10.00">Config.h</text>
</a>
</g>
<!-- Node7&#45;&gt;Node8 -->
<g id="edge14" class="edge"><title>Node7&#45;&gt;Node8</title>
<path fill="none" stroke="midnightblue" d="M501.922,-58.3619C511.359,-49.9408 524.73,-38.0105 535.69,-28.2308"/>
<polygon fill="midnightblue" stroke="midnightblue" points="538.022,-30.8401 543.154,-21.5707 533.362,-25.6171 538.022,-30.8401"/>
</g>
<!-- Node9 -->
<g id="node17" class="node"><title>Node9</title>
<polygon fill="white" stroke="#bfbfbf" points="599,-0.5 599,-21.5 647,-21.5 647,-0.5 599,-0.5"/>
<text text-anchor="middle" x="623" y="-8.5" font-family="Helvetica,sans-Serif" font-size="10.00">stdlib.h</text>
</g>
<!-- Node7&#45;&gt;Node9 -->
<g id="edge16" class="edge"><title>Node7&#45;&gt;Node9</title>
<path fill="none" stroke="midnightblue" d="M512.562,-59.1611C533.666,-49.9576 565.458,-36.0936 589.52,-25.6003"/>
<polygon fill="midnightblue" stroke="midnightblue" points="591.21,-28.6817 598.977,-21.4761 588.412,-22.2653 591.21,-28.6817"/>
</g>
<!-- Node10 -->
<g id="node20" class="node"><title>Node10</title>
<polygon fill="white" stroke="#bfbfbf" points="403,-0.5 403,-21.5 447,-21.5 447,-0.5 403,-0.5"/>
<text text-anchor="middle" x="425" y="-8.5" font-family="Helvetica,sans-Serif" font-size="10.00">time.h</text>
</g>
<!-- Node7&#45;&gt;Node10 -->
<g id="edge20" class="edge"><title>Node7&#45;&gt;Node10</title>
<path fill="none" stroke="midnightblue" d="M478.078,-58.3619C468.641,-49.9408 455.27,-38.0105 444.31,-28.2308"/>
<polygon fill="midnightblue" stroke="midnightblue" points="446.638,-25.6171 436.846,-21.5707 441.978,-30.8401 446.638,-25.6171"/>
</g>
<!-- Node11 -->
<g id="node22" class="node"><title>Node11</title>
<polygon fill="white" stroke="#bfbfbf" points="465,-0.5 465,-21.5 511,-21.5 511,-0.5 465,-0.5"/>
<text text-anchor="middle" x="488" y="-8.5" font-family="Helvetica,sans-Serif" font-size="10.00">stdio.h</text>
</g>
<!-- Node7&#45;&gt;Node11 -->
<g id="edge22" class="edge"><title>Node7&#45;&gt;Node11</title>
<path fill="none" stroke="midnightblue" d="M489.633,-58.3619C489.377,-50.9219 489.026,-40.7427 488.715,-31.7276"/>
<polygon fill="midnightblue" stroke="midnightblue" points="492.207,-31.4441 488.365,-21.5707 485.211,-31.6854 492.207,-31.4441"/>
</g>
<!-- Node17&#45;&gt;Node4 -->
<g id="edge74" class="edge"><title>Node17&#45;&gt;Node4</title>
<path fill="none" stroke="midnightblue" d="M386.907,-348.42C327.662,-322.771 183.887,-250.945 129,-138 117.691,-114.729 125.112,-105.849 124,-80 123.58,-70.2313 117.786,-65.5491 124,-58 150.165,-26.2143 274.415,-15.6148 333.129,-12.3434"/>
<polygon fill="midnightblue" stroke="midnightblue" points="333.487,-15.8296 343.291,-11.8144 333.123,-8.83908 333.487,-15.8296"/>
</g>
<!-- Node17&#45;&gt;Node6 -->
<g id="edge40" class="edge"><title>Node17&#45;&gt;Node6</title>
<path fill="none" stroke="midnightblue" d="M424.992,-348.316C434.561,-339.329 447.836,-325.772 457,-312 480.182,-277.163 498.08,-231.355 507.237,-205.351"/>
<polygon fill="midnightblue" stroke="midnightblue" points="510.576,-206.407 510.516,-195.812 503.956,-204.132 510.576,-206.407"/>
</g>
<!-- Node17&#45;&gt;Node15 -->
<g id="edge76" class="edge"><title>Node17&#45;&gt;Node15</title>
<path fill="none" stroke="midnightblue" d="M439.689,-356.4C524.142,-347.443 780,-314.416 780,-243 780,-243 780,-243 780,-185 780,-147.529 755.746,-109.584 738.88,-87.7281"/>
<polygon fill="midnightblue" stroke="midnightblue" points="741.396,-85.2705 732.412,-79.6538 735.933,-89.6467 741.396,-85.2705"/>
</g>
<!-- Node18 -->
<g id="node39" class="node"><title>Node18</title>
<a xlink:href="../../d5/d61/_document_8h.html" target="_top" xlink:title="Document.h">
<polygon fill="white" stroke="black" points="378,-290.5 378,-311.5 448,-311.5 448,-290.5 378,-290.5"/>
<text text-anchor="middle" x="413" y="-298.5" font-family="Helvetica,sans-Serif" font-size="10.00">Document.h</text>
</a>
</g>
<!-- Node17&#45;&gt;Node18 -->
<g id="edge42" class="edge"><title>Node17&#45;&gt;Node18</title>
<path fill="none" stroke="midnightblue" d="M413,-348.362C413,-340.922 413,-330.743 413,-321.728"/>
<polygon fill="midnightblue" stroke="midnightblue" points="416.5,-321.571 413,-311.571 409.5,-321.571 416.5,-321.571"/>
</g>
<!-- Node17&#45;&gt;Node19 -->
<g id="edge72" class="edge"><title>Node17&#45;&gt;Node19</title>
<path fill="none" stroke="midnightblue" d="M400.027,-348.311C390.165,-339.523 376.975,-326.238 369,-312 360.664,-297.116 355.804,-278.351 353.09,-264.148"/>
<polygon fill="midnightblue" stroke="midnightblue" points="356.474,-263.169 351.347,-253.897 349.573,-264.342 356.474,-263.169"/>
</g>
<!-- Node18&#45;&gt;Node15 -->
<g id="edge70" class="edge"><title>Node18&#45;&gt;Node15</title>
<path fill="none" stroke="midnightblue" d="M442.077,-290.389C496.81,-269.138 616.169,-216.558 689,-138 701.859,-124.13 710.896,-104.489 716.404,-89.7066"/>
<polygon fill="midnightblue" stroke="midnightblue" points="719.817,-90.5486 719.796,-79.9537 713.205,-88.2493 719.817,-90.5486"/>
</g>
<!-- Node18&#45;&gt;Node19 -->
<g id="edge44" class="edge"><title>Node18&#45;&gt;Node19</title>
<path fill="none" stroke="midnightblue" d="M401.445,-290.362C392.387,-282.023 379.59,-270.242 369.026,-260.516"/>
<polygon fill="midnightblue" stroke="midnightblue" points="371.21,-257.769 361.482,-253.571 366.468,-262.919 371.21,-257.769"/>
</g>
<!-- Node19&#45;&gt;Node4 -->
<g id="edge46" class="edge"><title>Node19&#45;&gt;Node4</title>
<path fill="none" stroke="midnightblue" d="M326.244,-235.087C258.671,-211.372 74.3221,-137.584 139,-58 163.176,-28.2521 277.784,-16.6834 333.477,-12.7622"/>
<polygon fill="midnightblue" stroke="midnightblue" points="333.725,-16.2535 343.471,-12.0965 333.26,-9.26896 333.725,-16.2535"/>
</g>
<!-- Node19&#45;&gt;Node6 -->
<g id="edge48" class="edge"><title>Node19&#45;&gt;Node6</title>
<path fill="none" stroke="midnightblue" d="M373.847,-234.566C401.102,-224.927 446.017,-209.043 477.641,-197.859"/>
<polygon fill="midnightblue" stroke="midnightblue" points="479.142,-201.04 487.403,-194.406 476.808,-194.441 479.142,-201.04"/>
</g>
<!-- Node20 -->
<g id="node45" class="node"><title>Node20</title>
<a xlink:href="../../de/d5d/_merge_page_description_8h.html" target="_top" xlink:title="MergePageDescription.h">
<polygon fill="white" stroke="black" points="288,-174.5 288,-195.5 412,-195.5 412,-174.5 288,-174.5"/>
<text text-anchor="middle" x="350" y="-182.5" font-family="Helvetica,sans-Serif" font-size="10.00">MergePageDescription.h</text>
</a>
</g>
<!-- Node19&#45;&gt;Node20 -->
<g id="edge50" class="edge"><title>Node19&#45;&gt;Node20</title>
<path fill="none" stroke="midnightblue" d="M350,-232.362C350,-224.922 350,-214.743 350,-205.728"/>
<polygon fill="midnightblue" stroke="midnightblue" points="353.5,-205.571 350,-195.571 346.5,-205.571 353.5,-205.571"/>
</g>
<!-- Node20&#45;&gt;Node4 -->
<g id="edge68" class="edge"><title>Node20&#45;&gt;Node4</title>
<path fill="none" stroke="midnightblue" d="M352.038,-174.322C355.533,-155.403 362.533,-114.715 365,-80 365.693,-70.2468 365.104,-67.7772 365,-58 364.909,-49.4716 364.726,-40.0743 364.541,-31.9385"/>
<polygon fill="midnightblue" stroke="midnightblue" points="368.037,-31.7384 364.296,-21.8262 361.039,-31.9081 368.037,-31.7384"/>
</g>
<!-- Node20&#45;&gt;Node14 -->
<g id="edge66" class="edge"><title>Node20&#45;&gt;Node14</title>
<path fill="none" stroke="midnightblue" d="M358.254,-174.362C364.47,-166.35 373.151,-155.161 380.515,-145.67"/>
<polygon fill="midnightblue" stroke="midnightblue" points="383.434,-147.617 386.799,-137.571 377.903,-143.326 383.434,-147.617"/>
</g>
<!-- Node21 -->
<g id="node47" class="node"><title>Node21</title>
<a xlink:href="../../d3/d21/_transformation_8h.html" target="_top" xlink:title="Transformation.h">
<polygon fill="white" stroke="black" points="232,-116.5 232,-137.5 322,-137.5 322,-116.5 232,-116.5"/>
<text text-anchor="middle" x="277" y="-124.5" font-family="Helvetica,sans-Serif" font-size="10.00">Transformation.h</text>
</a>
</g>
<!-- Node20&#45;&gt;Node21 -->
<g id="edge52" class="edge"><title>Node20&#45;&gt;Node21</title>
<path fill="none" stroke="midnightblue" d="M336.611,-174.362C325.909,-165.859 310.704,-153.779 298.329,-143.947"/>
<polygon fill="midnightblue" stroke="midnightblue" points="300.311,-141.051 290.304,-137.571 295.957,-146.532 300.311,-141.051"/>
</g>
<!-- Node21&#45;&gt;Node4 -->
<g id="edge56" class="edge"><title>Node21&#45;&gt;Node4</title>
<path fill="none" stroke="midnightblue" d="M300.042,-116.367C314.944,-108.365 333.619,-96.0317 345,-80 355.088,-65.7906 359.825,-46.4407 362.047,-31.8476"/>
<polygon fill="midnightblue" stroke="midnightblue" points="365.538,-32.1356 363.302,-21.7794 358.591,-31.2694 365.538,-32.1356"/>
</g>
<!-- Node21&#45;&gt;Node7 -->
<g id="edge64" class="edge"><title>Node21&#45;&gt;Node7</title>
<path fill="none" stroke="midnightblue" d="M315.573,-116.497C356.118,-105.456 419.207,-88.2771 457.365,-77.8865"/>
<polygon fill="midnightblue" stroke="midnightblue" points="458.698,-81.151 467.427,-75.1465 456.859,-74.3969 458.698,-81.151"/>
</g>
<!-- Node21&#45;&gt;Node15 -->
<g id="edge60" class="edge"><title>Node21&#45;&gt;Node15</title>
<path fill="none" stroke="midnightblue" d="M322.219,-121.119C412.322,-109.402 612.307,-83.395 690.64,-73.2083"/>
<polygon fill="midnightblue" stroke="midnightblue" points="691.396,-76.6395 700.861,-71.879 690.493,-69.6979 691.396,-76.6395"/>
</g>
<!-- Node22 -->
<g id="node49" class="node"><title>Node22</title>
<polygon fill="white" stroke="#bfbfbf" points="284,-58.5 284,-79.5 336,-79.5 336,-58.5 284,-58.5"/>
<text text-anchor="middle" x="310" y="-66.5" font-family="Helvetica,sans-Serif" font-size="10.00">sstream</text>
</g>
<!-- Node21&#45;&gt;Node22 -->
<g id="edge54" class="edge"><title>Node21&#45;&gt;Node22</title>
<path fill="none" stroke="midnightblue" d="M283.053,-116.362C287.472,-108.595 293.59,-97.8426 298.879,-88.5458"/>
<polygon fill="midnightblue" stroke="midnightblue" points="302.082,-89.9932 303.986,-79.5707 295.998,-86.5315 302.082,-89.9932"/>
</g>
<!-- Node23 -->
<g id="node52" class="node"><title>Node23</title>
<polygon fill="white" stroke="#bfbfbf" points="147.5,-58.5 147.5,-79.5 194.5,-79.5 194.5,-58.5 147.5,-58.5"/>
<text text-anchor="middle" x="171" y="-66.5" font-family="Helvetica,sans-Serif" font-size="10.00">math.h</text>
</g>
<!-- Node21&#45;&gt;Node23 -->
<g id="edge58" class="edge"><title>Node21&#45;&gt;Node23</title>
<path fill="none" stroke="midnightblue" d="M257.558,-116.362C241.196,-107.409 217.587,-94.4908 199.157,-84.4064"/>
<polygon fill="midnightblue" stroke="midnightblue" points="200.771,-81.3004 190.319,-79.5707 197.411,-87.4412 200.771,-81.3004"/>
</g>
<!-- Node24 -->
<g id="node55" class="node"><title>Node24</title>
<polygon fill="white" stroke="#bfbfbf" points="212,-58.5 212,-79.5 266,-79.5 266,-58.5 212,-58.5"/>
<text text-anchor="middle" x="239" y="-66.5" font-family="Helvetica,sans-Serif" font-size="10.00">iostream</text>
</g>
<!-- Node21&#45;&gt;Node24 -->
<g id="edge62" class="edge"><title>Node21&#45;&gt;Node24</title>
<path fill="none" stroke="midnightblue" d="M270.03,-116.362C264.834,-108.431 257.599,-97.3885 251.422,-87.9606"/>
<polygon fill="midnightblue" stroke="midnightblue" points="254.334,-86.0172 245.926,-79.5707 248.478,-89.8534 254.334,-86.0172"/>
</g>
</g>
</svg>
        <g id="navigator" transform="translate(0 0)" fill="#404254">
                <rect fill="#f2f5e9" fill-opacity="0.5" stroke="#606060" stroke-width=".5" x="0" y="0" width="60" height="60"/>
                <use id="zoomplus" xlink:href="#zoomPlus" x="17" y="9" onmousedown="handleZoom(evt,'in')"/>
                <use id="zoomminus" xlink:href="#zoomMin" x="42" y="9" onmousedown="handleZoom(evt,'out')"/>
                <use id="reset" xlink:href="#resetDef" x="30" y="36" onmousedown="handleReset()"/>
                <g id="arrowUp" xlink:href="#dirArrow" transform="translate(30 24)" onmousedown="handlePan(0,-1)">
                  <use xlink:href="#rim" fill="#404040">
                        <set attributeName="fill" to="#808080" begin="arrowUp.mouseover" end="arrowUp.mouseout"/>
                  </use>
                  <path fill="none" stroke="white" stroke-width="1.5" d="M0,-3.0v7 M-2.5,-0.5L0,-3.0L2.5,-0.5"/>
                </g>
                <g id="arrowRight" xlink:href="#dirArrow" transform="rotate(90) translate(36 -43)" onmousedown="handlePan(1,0)">
                  <use xlink:href="#rim" fill="#404040">
                        <set attributeName="fill" to="#808080" begin="arrowRight.mouseover" end="arrowRight.mouseout"/>
                  </use>
                  <path fill="none" stroke="white" stroke-width="1.5" d="M0,-3.0v7 M-2.5,-0.5L0,-3.0L2.5,-0.5"/>
                </g>
                <g id="arrowDown" xlink:href="#dirArrow" transform="rotate(180) translate(-30 -48)" onmousedown="handlePan(0,1)">
                  <use xlink:href="#rim" fill="#404040">
                        <set attributeName="fill" to="#808080" begin="arrowDown.mouseover" end="arrowDown.mouseout"/>
                  </use>
                  <path fill="none" stroke="white" stroke-width="1.5" d="M0,-3.0v7 M-2.5,-0.5L0,-3.0L2.5,-0.5"/>
                </g>
                <g id="arrowLeft" xlink:href="#dirArrow" transform="rotate(270) translate(-36 17)" onmousedown="handlePan(-1,0)">
                  <use xlink:href="#rim" fill="#404040">
                        <set attributeName="fill" to="#808080" begin="arrowLeft.mouseover" end="arrowLeft.mouseout"/>
                  </use>
                  <path fill="none" stroke="white" stroke-width="1.5" d="M0,-3.0v7 M-2.5,-0.5L0,-3.0L2.5,-0.5"/>
                </g>
        </g>
        <svg viewBox="0 0 15 15" width="100%" height="30px" preserveAspectRatio="xMaxYMin meet">
         <g id="arrow_out" transform="scale(0.3 0.3)">
          <a xlink:href="_rotation_handler_8h__incl_org.svg" target="_base">
           <rect id="button" ry="5" rx="5" y="6" x="6" height="38" width="38"
                fill="#f2f5e9" fill-opacity="0.5" stroke="#606060" stroke-width="1.0"/>
           <path id="arrow"
             d="M 11.500037,31.436501 C 11.940474,20.09759 22.043105,11.32322 32.158766,21.979434 L 37.068811,17.246167 C 37.068811,17.246167 37.088388,32 37.088388,32 L 22.160133,31.978069 C 22.160133,31.978069 26.997745,27.140456 26.997745,27.140456 C 18.528582,18.264221 13.291696,25.230495 11.500037,31.436501 z"
             style="fill:#404040;"/>
          </a>
         </g>
        </svg>
</svg>
