<?xml version="1.0" encoding="UTF-8" standalone="no"?>
<!DOCTYPE svg PUBLIC "-//W3C//DTD SVG 1.1//EN"
 "http://www.w3.org/Graphics/SVG/1.1/DTD/svg11.dtd">
<!-- Generated by graphviz version 2.26.3 (20100126.1600)
 -->
<!-- Title: UBGraphicsItemPlayAudioAction::UBGraphicsItemPlayAudioAction Pages: 1 -->
<svg width="390pt" height="82pt"
 viewBox="0.00 0.00 390.00 82.00" xmlns="http://www.w3.org/2000/svg" xmlns:xlink="http://www.w3.org/1999/xlink">
<g id="graph1" class="graph" transform="scale(1 1) rotate(0) translate(4 78)">
<title>UBGraphicsItemPlayAudioAction::UBGraphicsItemPlayAudioAction</title>
<polygon fill="white" stroke="white" points="-4,5 -4,-78 387,-78 387,5 -4,5"/>
<!-- Node1 -->
<g id="node1" class="node"><title>Node1</title>
<polygon fill="#bfbfbf" stroke="black" points="0.5,-17 0.5,-51 167.5,-51 167.5,-17 0.5,-17"/>
<text text-anchor="start" x="8.5" y="-38" font-family="Helvetica,sans-Serif" font-size="10.00">UBGraphicsItemPlayAudioAction</text>
<text text-anchor="middle" x="84" y="-25" font-family="Helvetica,sans-Serif" font-size="10.00">::UBGraphicsItemPlayAudioAction</text>
</g>
<!-- Node2 -->
<g id="node3" class="node"><title>Node2</title>
<a xlink:href="../../da/dc6/class_u_b_document_container.html#a859116555c2e46b6949e6e1cc613d754" target="_top" xlink:title="UBDocumentContainer\l::selectedDocument">
<polygon fill="white" stroke="black" points="234,-40 234,-74 352,-74 352,-40 234,-40"/>
<text text-anchor="start" x="242" y="-61" font-family="Helvetica,sans-Serif" font-size="10.00">UBDocumentContainer</text>
<text text-anchor="middle" x="293" y="-48" font-family="Helvetica,sans-Serif" font-size="10.00">::selectedDocument</text>
</a>
</g>
<!-- Node1&#45;&gt;Node2 -->
<g id="edge2" class="edge"><title>Node1&#45;&gt;Node2</title>
<path fill="none" stroke="midnightblue" d="M167.503,-43.1894C186.124,-45.2385 205.672,-47.3898 223.65,-49.3682"/>
<polygon fill="midnightblue" stroke="midnightblue" points="223.423,-52.8643 233.746,-50.4792 224.189,-45.9063 223.423,-52.8643"/>
</g>
<!-- Node3 -->
<g id="node5" class="node"><title>Node3</title>
<a xlink:href="../../de/db4/class_u_b_document_proxy.html#af57e2a3250ad6ae4c18fc5762e37f8a1" target="_top" xlink:title="UBDocumentProxy::persistencePath">
<polygon fill="white" stroke="black" points="204,-0.5 204,-21.5 382,-21.5 382,-0.5 204,-0.5"/>
<text text-anchor="middle" x="293" y="-8.5" font-family="Helvetica,sans-Serif" font-size="10.00">UBDocumentProxy::persistencePath</text>
</a>
</g>
<!-- Node1&#45;&gt;Node3 -->
<g id="edge4" class="edge"><title>Node1&#45;&gt;Node3</title>
<path fill="none" stroke="midnightblue" d="M167.503,-24.8106C176.084,-23.8663 184.862,-22.9003 193.592,-21.9396"/>
<polygon fill="midnightblue" stroke="midnightblue" points="194.247,-25.3887 203.805,-20.8158 193.482,-18.4307 194.247,-25.3887"/>
</g>
</g>
</svg>
