<?xml version="1.0" encoding="UTF-8" standalone="no"?>
<!DOCTYPE svg PUBLIC "-//W3C//DTD SVG 1.1//EN"
 "http://www.w3.org/Graphics/SVG/1.1/DTD/svg11.dtd">
<!-- Generated by graphviz version 2.26.3 (20100126.1600)
 -->
<!-- Title: WBUrlLineEdit.h Pages: 1 -->
<svg width="508pt" height="204pt"
 viewBox="0.00 0.00 508.00 204.00" xmlns="http://www.w3.org/2000/svg" xmlns:xlink="http://www.w3.org/1999/xlink">
<g id="graph1" class="graph" transform="scale(1 1) rotate(0) translate(4 200)">
<title>WBUrlLineEdit.h</title>
<polygon fill="white" stroke="white" points="-4,5 -4,-200 505,-200 505,5 -4,5"/>
<!-- Node1 -->
<g id="node1" class="node"><title>Node1</title>
<polygon fill="#bfbfbf" stroke="black" points="329.5,-174.5 329.5,-195.5 418.5,-195.5 418.5,-174.5 329.5,-174.5"/>
<text text-anchor="middle" x="374" y="-182.5" font-family="Helvetica,sans-Serif" font-size="10.00">WBUrlLineEdit.h</text>
</g>
<!-- Node2 -->
<g id="node3" class="node"><title>Node2</title>
<a xlink:href="../../d3/d82/_w_b_search_line_edit_8h.html" target="_top" xlink:title="WBSearchLineEdit.h">
<polygon fill="white" stroke="black" points="216.5,-116.5 216.5,-137.5 323.5,-137.5 323.5,-116.5 216.5,-116.5"/>
<text text-anchor="middle" x="270" y="-124.5" font-family="Helvetica,sans-Serif" font-size="10.00">WBSearchLineEdit.h</text>
</a>
</g>
<!-- Node1&#45;&gt;Node2 -->
<g id="edge2" class="edge"><title>Node1&#45;&gt;Node2</title>
<path fill="none" stroke="midnightblue" d="M345.99,-169.379C327.919,-159.301 304.898,-146.462 288.954,-137.571"/>
<polygon fill="midnightblue" stroke="midnightblue" points="344.486,-172.548 354.925,-174.362 347.896,-166.434 344.486,-172.548"/>
</g>
<!-- Node7 -->
<g id="node13" class="node"><title>Node7</title>
<a xlink:href="../../db/dd8/_w_b_url_line_edit_8cpp.html" target="_top" xlink:title="WBUrlLineEdit.cpp">
<polygon fill="white" stroke="black" points="336,-58.5 336,-79.5 436,-79.5 436,-58.5 336,-58.5"/>
<text text-anchor="middle" x="386" y="-66.5" font-family="Helvetica,sans-Serif" font-size="10.00">WBUrlLineEdit.cpp</text>
</a>
</g>
<!-- Node1&#45;&gt;Node7 -->
<g id="edge16" class="edge"><title>Node1&#45;&gt;Node7</title>
<path fill="none" stroke="midnightblue" d="M376.16,-164.123C378.728,-139.298 382.915,-98.8235 384.895,-79.6792"/>
<polygon fill="midnightblue" stroke="midnightblue" points="372.655,-163.988 375.107,-174.295 379.618,-164.708 372.655,-163.988"/>
</g>
<!-- Node8 -->
<g id="node15" class="node"><title>Node8</title>
<a xlink:href="../../d2/dee/_w_b_tab_widget_8cpp.html" target="_top" xlink:title="WBTabWidget.cpp">
<polygon fill="white" stroke="black" points="401.5,-116.5 401.5,-137.5 500.5,-137.5 500.5,-116.5 401.5,-116.5"/>
<text text-anchor="middle" x="451" y="-124.5" font-family="Helvetica,sans-Serif" font-size="10.00">WBTabWidget.cpp</text>
</a>
</g>
<!-- Node1&#45;&gt;Node8 -->
<g id="edge14" class="edge"><title>Node1&#45;&gt;Node8</title>
<path fill="none" stroke="midnightblue" d="M396.226,-168.259C409.361,-158.364 425.595,-146.136 436.967,-137.571"/>
<polygon fill="midnightblue" stroke="midnightblue" points="394.005,-165.55 388.123,-174.362 398.216,-171.141 394.005,-165.55"/>
</g>
<!-- Node3 -->
<g id="node5" class="node"><title>Node3</title>
<a xlink:href="../../df/d66/_w_b_tool_bar_search_8h.html" target="_top" xlink:title="WBToolBarSearch.h">
<polygon fill="white" stroke="black" points="76,-58.5 76,-79.5 182,-79.5 182,-58.5 76,-58.5"/>
<text text-anchor="middle" x="129" y="-66.5" font-family="Helvetica,sans-Serif" font-size="10.00">WBToolBarSearch.h</text>
</a>
</g>
<!-- Node2&#45;&gt;Node3 -->
<g id="edge4" class="edge"><title>Node2&#45;&gt;Node3</title>
<path fill="none" stroke="midnightblue" d="M235.03,-112.615C210.17,-102.389 177.328,-88.8796 154.821,-79.6212"/>
<polygon fill="midnightblue" stroke="midnightblue" points="233.886,-115.929 244.466,-116.497 236.549,-109.456 233.886,-115.929"/>
</g>
<!-- Node6 -->
<g id="node11" class="node"><title>Node6</title>
<a xlink:href="../../da/df4/_w_b_search_line_edit_8cpp.html" target="_top" xlink:title="WBSearchLineEdit.cpp">
<polygon fill="white" stroke="black" points="200,-58.5 200,-79.5 318,-79.5 318,-58.5 200,-58.5"/>
<text text-anchor="middle" x="259" y="-66.5" font-family="Helvetica,sans-Serif" font-size="10.00">WBSearchLineEdit.cpp</text>
</a>
</g>
<!-- Node2&#45;&gt;Node6 -->
<g id="edge10" class="edge"><title>Node2&#45;&gt;Node6</title>
<path fill="none" stroke="midnightblue" d="M266.11,-106.488C264.385,-97.3924 262.428,-87.0756 261.005,-79.5707"/>
<polygon fill="midnightblue" stroke="midnightblue" points="262.68,-107.189 267.982,-116.362 269.558,-105.885 262.68,-107.189"/>
</g>
<!-- Node2&#45;&gt;Node7 -->
<g id="edge12" class="edge"><title>Node2&#45;&gt;Node7</title>
<path fill="none" stroke="midnightblue" d="M300.136,-111.932C320.414,-101.793 346.65,-88.6748 364.758,-79.6212"/>
<polygon fill="midnightblue" stroke="midnightblue" points="298.386,-108.894 291.007,-116.497 301.516,-115.155 298.386,-108.894"/>
</g>
<!-- Node4 -->
<g id="node7" class="node"><title>Node4</title>
<a xlink:href="../../d4/d12/_w_b_browser_window_8cpp.html" target="_top" xlink:title="WBBrowserWindow.cpp">
<polygon fill="white" stroke="black" points="-0.5,-0.5 -0.5,-21.5 122.5,-21.5 122.5,-0.5 -0.5,-0.5"/>
<text text-anchor="middle" x="61" y="-8.5" font-family="Helvetica,sans-Serif" font-size="10.00">WBBrowserWindow.cpp</text>
</a>
</g>
<!-- Node3&#45;&gt;Node4 -->
<g id="edge6" class="edge"><title>Node3&#45;&gt;Node4</title>
<path fill="none" stroke="midnightblue" d="M108.706,-51.6908C97.2271,-41.8996 83.2442,-29.973 73.3932,-21.5707"/>
<polygon fill="midnightblue" stroke="midnightblue" points="106.648,-54.5353 116.528,-58.3619 111.191,-49.2095 106.648,-54.5353"/>
</g>
<!-- Node5 -->
<g id="node9" class="node"><title>Node5</title>
<a xlink:href="../../d1/d3c/_w_b_tool_bar_search_8cpp.html" target="_top" xlink:title="WBToolBarSearch.cpp">
<polygon fill="white" stroke="black" points="140,-0.5 140,-21.5 256,-21.5 256,-0.5 140,-0.5"/>
<text text-anchor="middle" x="198" y="-8.5" font-family="Helvetica,sans-Serif" font-size="10.00">WBToolBarSearch.cpp</text>
</a>
</g>
<!-- Node3&#45;&gt;Node5 -->
<g id="edge8" class="edge"><title>Node3&#45;&gt;Node5</title>
<path fill="none" stroke="midnightblue" d="M149.592,-51.6908C161.24,-41.8996 175.429,-29.973 185.425,-21.5707"/>
<polygon fill="midnightblue" stroke="midnightblue" points="147.058,-49.2481 141.656,-58.3619 151.563,-54.6066 147.058,-49.2481"/>
</g>
</g>
</svg>
