<?xml version="1.0" encoding="UTF-8" standalone="no"?>
<!DOCTYPE svg PUBLIC "-//W3C//DTD SVG 1.1//EN"
 "http://www.w3.org/Graphics/SVG/1.1/DTD/svg11.dtd">
<!-- Generated by graphviz version 2.26.3 (20100126.1600)
 -->
<!-- Title: UBQuickTimeFile.h Pages: 1 -->
<svg width="423pt" height="160pt"
 viewBox="0.00 0.00 423.00 160.00" xmlns="http://www.w3.org/2000/svg" xmlns:xlink="http://www.w3.org/1999/xlink">
<g id="graph1" class="graph" transform="scale(1 1) rotate(0) translate(4 156)">
<title>UBQuickTimeFile.h</title>
<polygon fill="white" stroke="white" points="-4,5 -4,-156 420,-156 420,5 -4,5"/>
<!-- Node1 -->
<g id="node1" class="node"><title>Node1</title>
<polygon fill="#bfbfbf" stroke="black" points="120,-130.5 120,-151.5 222,-151.5 222,-130.5 120,-130.5"/>
<text text-anchor="middle" x="171" y="-138.5" font-family="Helvetica,sans-Serif" font-size="10.00">UBQuickTimeFile.h</text>
</g>
<!-- Node2 -->
<g id="node3" class="node"><title>Node2</title>
<polygon fill="white" stroke="#bfbfbf" points="0,-7.5 0,-28.5 48,-28.5 48,-7.5 0,-7.5"/>
<text text-anchor="middle" x="24" y="-15.5" font-family="Helvetica,sans-Serif" font-size="10.00">QtCore</text>
</g>
<!-- Node1&#45;&gt;Node2 -->
<g id="edge2" class="edge"><title>Node1&#45;&gt;Node2</title>
<path fill="none" stroke="midnightblue" d="M146.711,-130.374C129.085,-121.985 105.235,-109.185 87,-94 66.8872,-77.2512 48.3507,-53.4387 36.6677,-36.9509"/>
<polygon fill="midnightblue" stroke="midnightblue" points="39.4832,-34.8687 30.9157,-28.6359 33.7264,-38.8511 39.4832,-34.8687"/>
</g>
<!-- Node3 -->
<g id="node5" class="node"><title>Node3</title>
<polygon fill="white" stroke="#bfbfbf" points="66,-1 66,-35 180,-35 180,-1 66,-1"/>
<text text-anchor="start" x="74" y="-22" font-family="Helvetica,sans-Serif" font-size="10.00">ApplicationServices</text>
<text text-anchor="middle" x="123" y="-9" font-family="Helvetica,sans-Serif" font-size="10.00">/ApplicationServices.h</text>
</g>
<!-- Node1&#45;&gt;Node3 -->
<g id="edge4" class="edge"><title>Node1&#45;&gt;Node3</title>
<path fill="none" stroke="midnightblue" d="M140.643,-130.407C124.275,-122.959 105.525,-111.209 96,-94 87.2144,-78.1262 94.2388,-58.8519 103.32,-43.6857"/>
<polygon fill="midnightblue" stroke="midnightblue" points="106.266,-45.5749 108.8,-35.2876 100.404,-41.7493 106.266,-45.5749"/>
</g>
<!-- Node4 -->
<g id="node7" class="node"><title>Node4</title>
<polygon fill="white" stroke="#bfbfbf" points="293,-72.5 293,-93.5 415,-93.5 415,-72.5 293,-72.5"/>
<text text-anchor="middle" x="354" y="-80.5" font-family="Helvetica,sans-Serif" font-size="10.00">QuickTime/QuickTime.h</text>
</g>
<!-- Node1&#45;&gt;Node4 -->
<g id="edge6" class="edge"><title>Node1&#45;&gt;Node4</title>
<path fill="none" stroke="midnightblue" d="M204.14,-130.497C234.103,-121 278.396,-106.962 311.062,-96.6087"/>
<polygon fill="midnightblue" stroke="midnightblue" points="312.323,-99.8809 320.798,-93.5231 310.208,-93.208 312.323,-99.8809"/>
</g>
<!-- Node5 -->
<g id="node9" class="node"><title>Node5</title>
<polygon fill="white" stroke="#bfbfbf" points="198,-7.5 198,-28.5 344,-28.5 344,-7.5 198,-7.5"/>
<text text-anchor="middle" x="271" y="-15.5" font-family="Helvetica,sans-Serif" font-size="10.00">AudioToolbox/AudioToolbox.h</text>
</g>
<!-- Node1&#45;&gt;Node5 -->
<g id="edge8" class="edge"><title>Node1&#45;&gt;Node5</title>
<path fill="none" stroke="midnightblue" d="M196.854,-130.372C213.052,-122.509 233.209,-110.332 246,-94 258.595,-77.9181 264.969,-55.2325 268.114,-38.8376"/>
<polygon fill="midnightblue" stroke="midnightblue" points="271.62,-39.09 269.811,-28.6507 264.715,-37.9393 271.62,-39.09"/>
</g>
<!-- Node6 -->
<g id="node11" class="node"><title>Node6</title>
<a xlink:href="../../dc/dca/_u_b_audio_queue_recorder_8h.html" target="_top" xlink:title="UBAudioQueueRecorder.h">
<polygon fill="white" stroke="black" points="105,-72.5 105,-93.5 237,-93.5 237,-72.5 105,-72.5"/>
<text text-anchor="middle" x="171" y="-80.5" font-family="Helvetica,sans-Serif" font-size="10.00">UBAudioQueueRecorder.h</text>
</a>
</g>
<!-- Node1&#45;&gt;Node6 -->
<g id="edge10" class="edge"><title>Node1&#45;&gt;Node6</title>
<path fill="none" stroke="midnightblue" d="M171,-130.362C171,-122.922 171,-112.743 171,-103.728"/>
<polygon fill="midnightblue" stroke="midnightblue" points="174.5,-103.571 171,-93.5707 167.5,-103.571 174.5,-103.571"/>
</g>
<!-- Node6&#45;&gt;Node2 -->
<g id="edge12" class="edge"><title>Node6&#45;&gt;Node2</title>
<path fill="none" stroke="midnightblue" d="M142.989,-72.4304C119.684,-63.4044 85.7883,-49.7362 57,-36 55.233,-35.1569 53.427,-34.2642 51.6153,-33.3451"/>
<polygon fill="midnightblue" stroke="midnightblue" points="53.1446,-30.1949 42.6648,-28.6372 49.8859,-36.3901 53.1446,-30.1949"/>
</g>
<!-- Node6&#45;&gt;Node3 -->
<g id="edge14" class="edge"><title>Node6&#45;&gt;Node3</title>
<path fill="none" stroke="midnightblue" d="M163.074,-72.2666C157.249,-64.3788 149.086,-53.3253 141.647,-43.251"/>
<polygon fill="midnightblue" stroke="midnightblue" points="144.391,-41.075 135.635,-35.1099 138.76,-45.2334 144.391,-41.075"/>
</g>
<!-- Node6&#45;&gt;Node5 -->
<g id="edge16" class="edge"><title>Node6&#45;&gt;Node5</title>
<path fill="none" stroke="midnightblue" d="M187.513,-72.2666C203.531,-61.8548 228.036,-45.9269 246.36,-34.0163"/>
<polygon fill="midnightblue" stroke="midnightblue" points="248.317,-36.9182 254.794,-28.5337 244.502,-31.0491 248.317,-36.9182"/>
</g>
</g>
</svg>
