<?xml version="1.0" encoding="UTF-8" standalone="no"?>
<!DOCTYPE svg PUBLIC "-//W3C//DTD SVG 1.1//EN"
 "http://www.w3.org/Graphics/SVG/1.1/DTD/svg11.dtd">
<!-- Generated by graphviz version 2.26.3 (20100126.1600)
 -->
<!-- Title: Sankore&#45;3.1/src/pdf&#45;merger/Object.h Pages: 1 -->
<!--zoomable 160 -->
<svg id="main" version="1.1" xmlns="http://www.w3.org/2000/svg" xmlns:xlink="http://www.w3.org/1999/xlink" xml:space="preserve" onload="init(evt)">
        <defs>
                <circle id="rim" cx="0" cy="0" r="7"/>
                <circle id="rim2" cx="0" cy="0" r="3.5"/>
                <g id="zoomPlus">
                        <use xlink:href="#rim" fill="#404040">
                                <set attributeName="fill" to="#808080" begin="zoomplus.mouseover" end="zoomplus.mouseout"/>
                        </use>
                        <path d="M-4,0h8M0,-4v8" fill="none" stroke="white" stroke-width="1.5" pointer-events="none"/>
                </g>
                <g id="zoomMin">
                        <use xlink:href="#rim" fill="#404040">
                                <set attributeName="fill" to="#808080" begin="zoomminus.mouseover" end="zoomminus.mouseout"/>
                        </use>
                        <path d="M-4,0h8" fill="none" stroke="white" stroke-width="1.5" pointer-events="none"/>
                </g>
                <g id="dirArrow">
                        <path fill="none" stroke="white" stroke-width="1.5" d="M0,-3.0v7 M-2.5,-0.5L0,-3.0L2.5,-0.5"/>
                </g>
               <g id="resetDef">
                       <use xlink:href="#rim2" fill="#404040">
                               <set attributeName="fill" to="#808080" begin="reset.mouseover" end="reset.mouseout"/>
                       </use>
               </g>
        </defs>

<script type="text/javascript">
var viewWidth = 631;
var viewHeight = 160;
var sectionId = 'dynsection-0';
</script>
<script xlink:href="../../svgpan.js"/>
<svg id="graph" class="graph">
<g id="viewport">
<title>Sankore&#45;3.1/src/pdf&#45;merger/Object.h</title>
<polygon fill="white" stroke="white" points="-4,5 -4,-156 628,-156 628,5 -4,5"/>
<!-- Node1 -->
<g id="node1" class="node"><title>Node1</title>
<polygon fill="#bfbfbf" stroke="black" points="357,-117 357,-151 459,-151 459,-117 357,-117"/>
<text text-anchor="start" x="365" y="-138" font-family="Helvetica,sans-Serif" font-size="10.00">Sankore&#45;3.1/src/pdf</text>
<text text-anchor="middle" x="408" y="-125" font-family="Helvetica,sans-Serif" font-size="10.00">&#45;merger/Object.h</text>
</g>
<!-- Node2 -->
<g id="node3" class="node"><title>Node2</title>
<a xlink:href="../../d9/dc1/_utils_8h.html" target="_top" xlink:title="Utils.h">
<polygon fill="white" stroke="black" points="153.5,-58.5 153.5,-79.5 198.5,-79.5 198.5,-58.5 153.5,-58.5"/>
<text text-anchor="middle" x="176" y="-66.5" font-family="Helvetica,sans-Serif" font-size="10.00">Utils.h</text>
</a>
</g>
<!-- Node1&#45;&gt;Node2 -->
<g id="edge2" class="edge"><title>Node1&#45;&gt;Node2</title>
<path fill="none" stroke="midnightblue" d="M356.799,-119.655C311.477,-106.957 246.722,-88.8143 208.262,-78.0389"/>
<polygon fill="midnightblue" stroke="midnightblue" points="209.187,-74.6634 198.614,-75.3357 207.299,-81.4039 209.187,-74.6634"/>
</g>
<!-- Node5 -->
<g id="node9" class="node"><title>Node5</title>
<polygon fill="white" stroke="#bfbfbf" points="261.5,-0.5 261.5,-21.5 302.5,-21.5 302.5,-0.5 261.5,-0.5"/>
<text text-anchor="middle" x="282" y="-8.5" font-family="Helvetica,sans-Serif" font-size="10.00">string</text>
</g>
<!-- Node1&#45;&gt;Node5 -->
<g id="edge16" class="edge"><title>Node1&#45;&gt;Node5</title>
<path fill="none" stroke="midnightblue" d="M356.936,-125.905C329.778,-118.72 298.639,-105.233 282,-80 272.751,-65.974 273.636,-46.6066 276.328,-31.9601"/>
<polygon fill="midnightblue" stroke="midnightblue" points="279.823,-32.3708 278.6,-21.8468 272.993,-30.8364 279.823,-32.3708"/>
</g>
<!-- Node8 -->
<g id="node15" class="node"><title>Node8</title>
<polygon fill="white" stroke="#bfbfbf" points="291,-58.5 291,-79.5 335,-79.5 335,-58.5 291,-58.5"/>
<text text-anchor="middle" x="313" y="-66.5" font-family="Helvetica,sans-Serif" font-size="10.00">cmath</text>
</g>
<!-- Node1&#45;&gt;Node8 -->
<g id="edge14" class="edge"><title>Node1&#45;&gt;Node8</title>
<path fill="none" stroke="midnightblue" d="M383.04,-116.922C368.88,-107.233 351.24,-95.1645 337.207,-85.5623"/>
<polygon fill="midnightblue" stroke="midnightblue" points="338.807,-82.4167 328.578,-79.6584 334.854,-88.1938 338.807,-82.4167"/>
</g>
<!-- Node9 -->
<g id="node18" class="node"><title>Node9</title>
<polygon fill="white" stroke="#bfbfbf" points="353,-58.5 353,-79.5 403,-79.5 403,-58.5 353,-58.5"/>
<text text-anchor="middle" x="378" y="-66.5" font-family="Helvetica,sans-Serif" font-size="10.00">fstream</text>
</g>
<!-- Node1&#45;&gt;Node9 -->
<g id="edge18" class="edge"><title>Node1&#45;&gt;Node9</title>
<path fill="none" stroke="midnightblue" d="M400.118,-116.922C396.182,-108.395 391.396,-98.0251 387.284,-89.1151"/>
<polygon fill="midnightblue" stroke="midnightblue" points="390.377,-87.465 383.009,-79.8521 384.021,-90.3984 390.377,-87.465"/>
</g>
<!-- Node10 -->
<g id="node20" class="node"><title>Node10</title>
<polygon fill="white" stroke="#bfbfbf" points="420.5,-58.5 420.5,-79.5 455.5,-79.5 455.5,-58.5 420.5,-58.5"/>
<text text-anchor="middle" x="438" y="-66.5" font-family="Helvetica,sans-Serif" font-size="10.00">map</text>
</g>
<!-- Node1&#45;&gt;Node10 -->
<g id="edge20" class="edge"><title>Node1&#45;&gt;Node10</title>
<path fill="none" stroke="midnightblue" d="M415.882,-116.922C419.818,-108.395 424.604,-98.0251 428.716,-89.1151"/>
<polygon fill="midnightblue" stroke="midnightblue" points="431.979,-90.3984 432.991,-79.8521 425.623,-87.465 431.979,-90.3984"/>
</g>
<!-- Node11 -->
<g id="node22" class="node"><title>Node11</title>
<polygon fill="white" stroke="#bfbfbf" points="473,-58.5 473,-79.5 503,-79.5 503,-58.5 473,-58.5"/>
<text text-anchor="middle" x="488" y="-66.5" font-family="Helvetica,sans-Serif" font-size="10.00">set</text>
</g>
<!-- Node1&#45;&gt;Node11 -->
<g id="edge22" class="edge"><title>Node1&#45;&gt;Node11</title>
<path fill="none" stroke="midnightblue" d="M429.019,-116.922C440.642,-107.479 455.048,-95.7736 466.713,-86.2957"/>
<polygon fill="midnightblue" stroke="midnightblue" points="469.09,-88.8745 474.644,-79.8521 464.675,-83.4416 469.09,-88.8745"/>
</g>
<!-- Node12 -->
<g id="node24" class="node"><title>Node12</title>
<polygon fill="white" stroke="#bfbfbf" points="521,-58.5 521,-79.5 565,-79.5 565,-58.5 521,-58.5"/>
<text text-anchor="middle" x="543" y="-66.5" font-family="Helvetica,sans-Serif" font-size="10.00">vector</text>
</g>
<!-- Node1&#45;&gt;Node12 -->
<g id="edge24" class="edge"><title>Node1&#45;&gt;Node12</title>
<path fill="none" stroke="midnightblue" d="M443.47,-116.922C464.646,-106.726 491.298,-93.8936 511.692,-84.0744"/>
<polygon fill="midnightblue" stroke="midnightblue" points="513.372,-87.1501 520.863,-79.6584 510.335,-80.8431 513.372,-87.1501"/>
</g>
<!-- Node13 -->
<g id="node26" class="node"><title>Node13</title>
<polygon fill="white" stroke="#bfbfbf" points="583,-58.5 583,-79.5 623,-79.5 623,-58.5 583,-58.5"/>
<text text-anchor="middle" x="603" y="-66.5" font-family="Helvetica,sans-Serif" font-size="10.00">utility</text>
</g>
<!-- Node1&#45;&gt;Node13 -->
<g id="edge26" class="edge"><title>Node1&#45;&gt;Node13</title>
<path fill="none" stroke="midnightblue" d="M459.07,-118.086C489.757,-108.363 529.772,-95.4053 573.161,-80.2004"/>
<polygon fill="midnightblue" stroke="midnightblue" points="574.495,-83.4413 582.764,-76.8175 572.169,-76.839 574.495,-83.4413"/>
</g>
<!-- Node3 -->
<g id="node5" class="node"><title>Node3</title>
<a xlink:href="../../d4/d71/_config_8h.html" target="_top" xlink:title="Config.h">
<polygon fill="white" stroke="black" points="-0.5,-0.5 -0.5,-21.5 52.5,-21.5 52.5,-0.5 -0.5,-0.5"/>
<text text-anchor="middle" x="26" y="-8.5" font-family="Helvetica,sans-Serif" font-size="10.00">Config.h</text>
</a>
</g>
<!-- Node2&#45;&gt;Node3 -->
<g id="edge4" class="edge"><title>Node2&#45;&gt;Node3</title>
<path fill="none" stroke="midnightblue" d="M153.218,-60.191C129.025,-50.8363 90.44,-35.9168 62.1007,-24.9589"/>
<polygon fill="midnightblue" stroke="midnightblue" points="63.1337,-21.6059 52.5444,-21.2638 60.6092,-28.1348 63.1337,-21.6059"/>
</g>
<!-- Node4 -->
<g id="node7" class="node"><title>Node4</title>
<polygon fill="white" stroke="#bfbfbf" points="70,-0.5 70,-21.5 118,-21.5 118,-0.5 70,-0.5"/>
<text text-anchor="middle" x="94" y="-8.5" font-family="Helvetica,sans-Serif" font-size="10.00">stdlib.h</text>
</g>
<!-- Node2&#45;&gt;Node4 -->
<g id="edge6" class="edge"><title>Node2&#45;&gt;Node4</title>
<path fill="none" stroke="midnightblue" d="M160.96,-58.3619C148.707,-49.6955 131.201,-37.3126 117.161,-27.3819"/>
<polygon fill="midnightblue" stroke="midnightblue" points="119.13,-24.4879 108.945,-21.5707 115.088,-30.2028 119.13,-24.4879"/>
</g>
<!-- Node2&#45;&gt;Node5 -->
<g id="edge8" class="edge"><title>Node2&#45;&gt;Node5</title>
<path fill="none" stroke="midnightblue" d="M195.442,-58.3619C211.804,-49.4094 235.413,-36.4908 253.843,-26.4064"/>
<polygon fill="midnightblue" stroke="midnightblue" points="255.589,-29.4412 262.681,-21.5707 252.229,-23.3004 255.589,-29.4412"/>
</g>
<!-- Node6 -->
<g id="node11" class="node"><title>Node6</title>
<polygon fill="white" stroke="#bfbfbf" points="136,-0.5 136,-21.5 180,-21.5 180,-0.5 136,-0.5"/>
<text text-anchor="middle" x="158" y="-8.5" font-family="Helvetica,sans-Serif" font-size="10.00">time.h</text>
</g>
<!-- Node2&#45;&gt;Node6 -->
<g id="edge10" class="edge"><title>Node2&#45;&gt;Node6</title>
<path fill="none" stroke="midnightblue" d="M172.699,-58.3619C170.339,-50.7584 167.091,-40.294 164.249,-31.1349"/>
<polygon fill="midnightblue" stroke="midnightblue" points="167.587,-30.0839 161.281,-21.5707 160.902,-32.1587 167.587,-30.0839"/>
</g>
<!-- Node7 -->
<g id="node13" class="node"><title>Node7</title>
<polygon fill="white" stroke="#bfbfbf" points="198,-0.5 198,-21.5 244,-21.5 244,-0.5 198,-0.5"/>
<text text-anchor="middle" x="221" y="-8.5" font-family="Helvetica,sans-Serif" font-size="10.00">stdio.h</text>
</g>
<!-- Node2&#45;&gt;Node7 -->
<g id="edge12" class="edge"><title>Node2&#45;&gt;Node7</title>
<path fill="none" stroke="midnightblue" d="M184.254,-58.3619C190.47,-50.3496 199.151,-39.1605 206.515,-29.6696"/>
<polygon fill="midnightblue" stroke="midnightblue" points="209.434,-31.617 212.799,-21.5707 203.903,-27.326 209.434,-31.617"/>
</g>
</g>
</svg>
        <g id="navigator" transform="translate(0 0)" fill="#404254">
                <rect fill="#f2f5e9" fill-opacity="0.5" stroke="#606060" stroke-width=".5" x="0" y="0" width="60" height="60"/>
                <use id="zoomplus" xlink:href="#zoomPlus" x="17" y="9" onmousedown="handleZoom(evt,'in')"/>
                <use id="zoomminus" xlink:href="#zoomMin" x="42" y="9" onmousedown="handleZoom(evt,'out')"/>
                <use id="reset" xlink:href="#resetDef" x="30" y="36" onmousedown="handleReset()"/>
                <g id="arrowUp" xlink:href="#dirArrow" transform="translate(30 24)" onmousedown="handlePan(0,-1)">
                  <use xlink:href="#rim" fill="#404040">
                        <set attributeName="fill" to="#808080" begin="arrowUp.mouseover" end="arrowUp.mouseout"/>
                  </use>
                  <path fill="none" stroke="white" stroke-width="1.5" d="M0,-3.0v7 M-2.5,-0.5L0,-3.0L2.5,-0.5"/>
                </g>
                <g id="arrowRight" xlink:href="#dirArrow" transform="rotate(90) translate(36 -43)" onmousedown="handlePan(1,0)">
                  <use xlink:href="#rim" fill="#404040">
                        <set attributeName="fill" to="#808080" begin="arrowRight.mouseover" end="arrowRight.mouseout"/>
                  </use>
                  <path fill="none" stroke="white" stroke-width="1.5" d="M0,-3.0v7 M-2.5,-0.5L0,-3.0L2.5,-0.5"/>
                </g>
                <g id="arrowDown" xlink:href="#dirArrow" transform="rotate(180) translate(-30 -48)" onmousedown="handlePan(0,1)">
                  <use xlink:href="#rim" fill="#404040">
                        <set attributeName="fill" to="#808080" begin="arrowDown.mouseover" end="arrowDown.mouseout"/>
                  </use>
                  <path fill="none" stroke="white" stroke-width="1.5" d="M0,-3.0v7 M-2.5,-0.5L0,-3.0L2.5,-0.5"/>
                </g>
                <g id="arrowLeft" xlink:href="#dirArrow" transform="rotate(270) translate(-36 17)" onmousedown="handlePan(-1,0)">
                  <use xlink:href="#rim" fill="#404040">
                        <set attributeName="fill" to="#808080" begin="arrowLeft.mouseover" end="arrowLeft.mouseout"/>
                  </use>
                  <path fill="none" stroke="white" stroke-width="1.5" d="M0,-3.0v7 M-2.5,-0.5L0,-3.0L2.5,-0.5"/>
                </g>
        </g>
        <svg viewBox="0 0 15 15" width="100%" height="30px" preserveAspectRatio="xMaxYMin meet">
         <g id="arrow_out" transform="scale(0.3 0.3)">
          <a xlink:href="_object_8h__incl_org.svg" target="_base">
           <rect id="button" ry="5" rx="5" y="6" x="6" height="38" width="38"
                fill="#f2f5e9" fill-opacity="0.5" stroke="#606060" stroke-width="1.0"/>
           <path id="arrow"
             d="M 11.500037,31.436501 C 11.940474,20.09759 22.043105,11.32322 32.158766,21.979434 L 37.068811,17.246167 C 37.068811,17.246167 37.088388,32 37.088388,32 L 22.160133,31.978069 C 22.160133,31.978069 26.997745,27.140456 26.997745,27.140456 C 18.528582,18.264221 13.291696,25.230495 11.500037,31.436501 z"
             style="fill:#404040;"/>
          </a>
         </g>
        </svg>
</svg>
