<?xml version="1.0" encoding="UTF-8" standalone="no"?>
<!DOCTYPE svg PUBLIC "-//W3C//DTD SVG 1.1//EN"
 "http://www.w3.org/Graphics/SVG/1.1/DTD/svg11.dtd">
<!-- Generated by graphviz version 2.26.3 (20100126.1600)
 -->
<!-- Title: Sankore&#45;3.1/src/domain/UBGraphicsItemGroupUndoCommand.h Pages: 1 -->
<svg width="352pt" height="116pt"
 viewBox="0.00 0.00 352.00 116.00" xmlns="http://www.w3.org/2000/svg" xmlns:xlink="http://www.w3.org/1999/xlink">
<g id="graph1" class="graph" transform="scale(1 1) rotate(0) translate(4 112)">
<title>Sankore&#45;3.1/src/domain/UBGraphicsItemGroupUndoCommand.h</title>
<polygon fill="white" stroke="white" points="-4,5 -4,-112 349,-112 349,5 -4,5"/>
<!-- Node1 -->
<g id="node1" class="node"><title>Node1</title>
<polygon fill="#bfbfbf" stroke="black" points="95.5,-73 95.5,-107 290.5,-107 290.5,-73 95.5,-73"/>
<text text-anchor="start" x="103.5" y="-94" font-family="Helvetica,sans-Serif" font-size="10.00">Sankore&#45;3.1/src/domain</text>
<text text-anchor="middle" x="193" y="-81" font-family="Helvetica,sans-Serif" font-size="10.00">/UBGraphicsItemGroupUndoCommand.h</text>
</g>
<!-- Node2 -->
<g id="node3" class="node"><title>Node2</title>
<a xlink:href="../../dd/dbb/_u_b_graphics_item_group_undo_command_8cpp.html" target="_top" xlink:title="Sankore&#45;3.1/src/domain\l/UBGraphicsItemGroupUndoCommand.cpp">
<polygon fill="white" stroke="black" points="0,-1 0,-35 206,-35 206,-1 0,-1"/>
<text text-anchor="start" x="8" y="-22" font-family="Helvetica,sans-Serif" font-size="10.00">Sankore&#45;3.1/src/domain</text>
<text text-anchor="middle" x="103" y="-9" font-family="Helvetica,sans-Serif" font-size="10.00">/UBGraphicsItemGroupUndoCommand.cpp</text>
</a>
</g>
<!-- Node1&#45;&gt;Node2 -->
<g id="edge2" class="edge"><title>Node1&#45;&gt;Node2</title>
<path fill="none" stroke="midnightblue" d="M163.616,-66.493C150.862,-56.2899 136.198,-44.5583 124.488,-35.19"/>
<polygon fill="midnightblue" stroke="midnightblue" points="161.676,-69.4231 171.671,-72.937 166.049,-63.957 161.676,-69.4231"/>
</g>
<!-- Node3 -->
<g id="node5" class="node"><title>Node3</title>
<a xlink:href="../../d5/de9/_u_b_graphics_scene_8cpp.html" target="_top" xlink:title="Sankore&#45;3.1/src/domain\l/UBGraphicsScene.cpp">
<polygon fill="white" stroke="black" points="224,-1 224,-35 344,-35 344,-1 224,-1"/>
<text text-anchor="start" x="232" y="-22" font-family="Helvetica,sans-Serif" font-size="10.00">Sankore&#45;3.1/src/domain</text>
<text text-anchor="middle" x="284" y="-9" font-family="Helvetica,sans-Serif" font-size="10.00">/UBGraphicsScene.cpp</text>
</a>
</g>
<!-- Node1&#45;&gt;Node3 -->
<g id="edge4" class="edge"><title>Node1&#45;&gt;Node3</title>
<path fill="none" stroke="midnightblue" d="M222.71,-66.493C235.606,-56.2899 250.433,-44.5583 262.274,-35.19"/>
<polygon fill="midnightblue" stroke="midnightblue" points="220.236,-63.9874 214.566,-72.937 224.58,-69.4769 220.236,-63.9874"/>
</g>
</g>
</svg>
