<?xml version="1.0" encoding="UTF-8" standalone="no"?>
<!DOCTYPE svg PUBLIC "-//W3C//DTD SVG 1.1//EN"
 "http://www.w3.org/Graphics/SVG/1.1/DTD/svg11.dtd">
<!-- Generated by graphviz version 2.26.3 (20100126.1600)
 -->
<!-- Title: Sankore&#45;3.1/src/frameworks/UBPlatformUtils_mac.mm Pages: 1 -->
<svg width="1510pt" height="420pt"
 viewBox="0.00 0.00 1510.00 420.00" xmlns="http://www.w3.org/2000/svg" xmlns:xlink="http://www.w3.org/1999/xlink">
<g id="graph1" class="graph" transform="scale(1 1) rotate(0) translate(4 416)">
<title>Sankore&#45;3.1/src/frameworks/UBPlatformUtils_mac.mm</title>
<polygon fill="white" stroke="white" points="-4,5 -4,-416 1507,-416 1507,5 -4,5"/>
<!-- Node1 -->
<g id="node1" class="node"><title>Node1</title>
<polygon fill="#bfbfbf" stroke="black" points="1006,-377 1006,-411 1146,-411 1146,-377 1006,-377"/>
<text text-anchor="start" x="1014" y="-398" font-family="Helvetica,sans-Serif" font-size="10.00">Sankore&#45;3.1/src/frameworks</text>
<text text-anchor="middle" x="1076" y="-385" font-family="Helvetica,sans-Serif" font-size="10.00">/UBPlatformUtils_mac.mm</text>
</g>
<!-- Node2 -->
<g id="node3" class="node"><title>Node2</title>
<a xlink:href="../../de/dca/_mac_utils_8h.html" target="_top" xlink:title="MacUtils.h">
<polygon fill="white" stroke="black" points="99,-311.5 99,-332.5 163,-332.5 163,-311.5 99,-311.5"/>
<text text-anchor="middle" x="131" y="-319.5" font-family="Helvetica,sans-Serif" font-size="10.00">MacUtils.h</text>
</a>
</g>
<!-- Node1&#45;&gt;Node2 -->
<g id="edge2" class="edge"><title>Node1&#45;&gt;Node2</title>
<path fill="none" stroke="midnightblue" d="M1005.74,-388.647C820.275,-374.516 321.594,-336.521 173.21,-325.216"/>
<polygon fill="midnightblue" stroke="midnightblue" points="173.378,-321.719 163.141,-324.449 172.846,-328.698 173.378,-321.719"/>
</g>
<!-- Node3 -->
<g id="node5" class="node"><title>Node3</title>
<polygon fill="white" stroke="#bfbfbf" points="-0.5,-239.5 -0.5,-260.5 90.5,-260.5 90.5,-239.5 -0.5,-239.5"/>
<text text-anchor="middle" x="45" y="-247.5" font-family="Helvetica,sans-Serif" font-size="10.00">Carbon/Carbon.h</text>
</g>
<!-- Node1&#45;&gt;Node3 -->
<g id="edge84" class="edge"><title>Node1&#45;&gt;Node3</title>
<path fill="none" stroke="midnightblue" d="M1005.89,-392.083C786.946,-385.847 128.202,-365.08 90,-340 66.1233,-324.325 54.3898,-291.961 49.0278,-270.62"/>
<polygon fill="midnightblue" stroke="midnightblue" points="52.3854,-269.598 46.774,-260.611 45.5564,-271.136 52.3854,-269.598"/>
</g>
<!-- Node5 -->
<g id="node9" class="node"><title>Node5</title>
<a xlink:href="../../d8/d93/_u_b_platform_utils_8h.html" target="_top" xlink:title="UBPlatformUtils.h">
<polygon fill="white" stroke="black" points="1104,-311.5 1104,-332.5 1200,-332.5 1200,-311.5 1104,-311.5"/>
<text text-anchor="middle" x="1152" y="-319.5" font-family="Helvetica,sans-Serif" font-size="10.00">UBPlatformUtils.h</text>
</a>
</g>
<!-- Node1&#45;&gt;Node5 -->
<g id="edge8" class="edge"><title>Node1&#45;&gt;Node5</title>
<path fill="none" stroke="midnightblue" d="M1094.01,-376.937C1105.82,-365.748 1121.23,-351.147 1133.2,-339.811"/>
<polygon fill="midnightblue" stroke="midnightblue" points="1135.64,-342.319 1140.49,-332.901 1130.83,-337.238 1135.64,-342.319"/>
</g>
<!-- Node8 -->
<g id="node15" class="node"><title>Node8</title>
<a xlink:href="../../db/d54/_u_b_application_8h.html" target="_top" xlink:title="core/UBApplication.h">
<polygon fill="white" stroke="black" points="804.5,-311.5 804.5,-332.5 913.5,-332.5 913.5,-311.5 804.5,-311.5"/>
<text text-anchor="middle" x="859" y="-319.5" font-family="Helvetica,sans-Serif" font-size="10.00">core/UBApplication.h</text>
</a>
</g>
<!-- Node1&#45;&gt;Node8 -->
<g id="edge14" class="edge"><title>Node1&#45;&gt;Node8</title>
<path fill="none" stroke="midnightblue" d="M1024.57,-376.937C986.654,-364.355 935.733,-347.46 900.417,-335.742"/>
<polygon fill="midnightblue" stroke="midnightblue" points="901.487,-332.409 890.893,-332.582 899.282,-339.053 901.487,-332.409"/>
</g>
<!-- Node26 -->
<g id="node53" class="node"><title>Node26</title>
<a xlink:href="../../d1/d92/_u_b_settings_8h.html" target="_top" xlink:title="core/UBSettings.h">
<polygon fill="white" stroke="black" points="963.5,-116.5 963.5,-137.5 1060.5,-137.5 1060.5,-116.5 963.5,-116.5"/>
<text text-anchor="middle" x="1012" y="-124.5" font-family="Helvetica,sans-Serif" font-size="10.00">core/UBSettings.h</text>
</a>
</g>
<!-- Node1&#45;&gt;Node26 -->
<g id="edge70" class="edge"><title>Node1&#45;&gt;Node26</title>
<path fill="none" stroke="midnightblue" d="M1071.9,-376.892C1060.62,-329.818 1029.14,-198.495 1016.93,-147.559"/>
<polygon fill="midnightblue" stroke="midnightblue" points="1020.3,-146.618 1014.57,-137.71 1013.49,-148.25 1020.3,-146.618"/>
</g>
<!-- Node30 -->
<g id="node66" class="node"><title>Node30</title>
<a xlink:href="../../d2/db5/_u_b_file_system_utils_8h.html" target="_top" xlink:title="frameworks/UBFileSystemUtils.h">
<polygon fill="white" stroke="black" points="1065.5,-239.5 1065.5,-260.5 1228.5,-260.5 1228.5,-239.5 1065.5,-239.5"/>
<text text-anchor="middle" x="1147" y="-247.5" font-family="Helvetica,sans-Serif" font-size="10.00">frameworks/UBFileSystemUtils.h</text>
</a>
</g>
<!-- Node1&#45;&gt;Node30 -->
<g id="edge72" class="edge"><title>Node1&#45;&gt;Node30</title>
<path fill="none" stroke="midnightblue" d="M1076.82,-376.794C1078.34,-357.94 1082.66,-327.282 1095,-304 1102.38,-290.07 1114.42,-277.234 1125.05,-267.574"/>
<polygon fill="midnightblue" stroke="midnightblue" points="1127.55,-270.038 1132.81,-260.84 1122.97,-264.751 1127.55,-270.038"/>
</g>
<!-- Node31 -->
<g id="node71" class="node"><title>Node31</title>
<polygon fill="white" stroke="#bfbfbf" points="1217.5,-311.5 1217.5,-332.5 1272.5,-332.5 1272.5,-311.5 1217.5,-311.5"/>
<text text-anchor="middle" x="1245" y="-319.5" font-family="Helvetica,sans-Serif" font-size="10.00">QWidget</text>
</g>
<!-- Node1&#45;&gt;Node31 -->
<g id="edge80" class="edge"><title>Node1&#45;&gt;Node31</title>
<path fill="none" stroke="midnightblue" d="M1120.4,-376.977C1146.42,-366.748 1179.82,-353.194 1209,-340 1211.07,-339.064 1213.19,-338.076 1215.33,-337.064"/>
<polygon fill="midnightblue" stroke="midnightblue" points="1217.11,-340.085 1224.57,-332.559 1214.05,-333.792 1217.11,-340.085"/>
</g>
<!-- Node32 -->
<g id="node73" class="node"><title>Node32</title>
<polygon fill="white" stroke="#bfbfbf" points="1290,-305 1290,-339 1424,-339 1424,-305 1290,-305"/>
<text text-anchor="start" x="1298" y="-326" font-family="Helvetica,sans-Serif" font-size="10.00">Foundation/NSAutorelease</text>
<text text-anchor="middle" x="1357" y="-313" font-family="Helvetica,sans-Serif" font-size="10.00">Pool.h</text>
</g>
<!-- Node1&#45;&gt;Node32 -->
<g id="edge82" class="edge"><title>Node1&#45;&gt;Node32</title>
<path fill="none" stroke="midnightblue" d="M1142.59,-376.937C1184,-366.328 1237.38,-352.651 1280.51,-341.598"/>
<polygon fill="midnightblue" stroke="midnightblue" points="1281.58,-344.938 1290.4,-339.065 1279.84,-338.157 1281.58,-344.938"/>
</g>
<!-- Node33 -->
<g id="node76" class="node"><title>Node33</title>
<polygon fill="white" stroke="#bfbfbf" points="1441.5,-311.5 1441.5,-332.5 1502.5,-332.5 1502.5,-311.5 1441.5,-311.5"/>
<text text-anchor="middle" x="1472" y="-319.5" font-family="Helvetica,sans-Serif" font-size="10.00">APELite.h</text>
</g>
<!-- Node1&#45;&gt;Node33 -->
<g id="edge86" class="edge"><title>Node1&#45;&gt;Node33</title>
<path fill="none" stroke="midnightblue" d="M1146.05,-389.271C1218.97,-382.997 1335.88,-369.116 1433,-340 1436.14,-339.058 1439.36,-337.908 1442.53,-336.649"/>
<polygon fill="midnightblue" stroke="midnightblue" points="1443.99,-339.829 1451.78,-332.647 1441.21,-333.405 1443.99,-339.829"/>
</g>
<!-- Node2&#45;&gt;Node3 -->
<g id="edge4" class="edge"><title>Node2&#45;&gt;Node3</title>
<path fill="none" stroke="midnightblue" d="M118.31,-311.376C104.464,-299.784 82.0869,-281.05 65.6926,-267.324"/>
<polygon fill="midnightblue" stroke="midnightblue" points="67.656,-264.403 57.7417,-260.667 63.1625,-269.77 67.656,-264.403"/>
</g>
<!-- Node4 -->
<g id="node7" class="node"><title>Node4</title>
<polygon fill="white" stroke="#bfbfbf" points="108,-239.5 108,-260.5 154,-260.5 154,-239.5 108,-239.5"/>
<text text-anchor="middle" x="131" y="-247.5" font-family="Helvetica,sans-Serif" font-size="10.00">dlfcn.h</text>
</g>
<!-- Node2&#45;&gt;Node4 -->
<g id="edge6" class="edge"><title>Node2&#45;&gt;Node4</title>
<path fill="none" stroke="midnightblue" d="M131,-311.376C131,-300.741 131,-284.095 131,-270.82"/>
<polygon fill="midnightblue" stroke="midnightblue" points="134.5,-270.667 131,-260.667 127.5,-270.667 134.5,-270.667"/>
</g>
<!-- Node6 -->
<g id="node11" class="node"><title>Node6</title>
<polygon fill="white" stroke="#bfbfbf" points="1243,-58.5 1243,-79.5 1291,-79.5 1291,-58.5 1243,-58.5"/>
<text text-anchor="middle" x="1267" y="-66.5" font-family="Helvetica,sans-Serif" font-size="10.00">QtCore</text>
</g>
<!-- Node5&#45;&gt;Node6 -->
<g id="edge10" class="edge"><title>Node5&#45;&gt;Node6</title>
<path fill="none" stroke="midnightblue" d="M1183.23,-311.383C1224.82,-297.098 1293.59,-272.909 1297,-268 1335.61,-212.421 1298.62,-127.026 1278.33,-88.7502"/>
<polygon fill="midnightblue" stroke="midnightblue" points="1281.23,-86.7602 1273.35,-79.6726 1275.09,-90.1242 1281.23,-86.7602"/>
</g>
<!-- Node7 -->
<g id="node13" class="node"><title>Node7</title>
<polygon fill="white" stroke="#bfbfbf" points="1245.5,-239.5 1245.5,-260.5 1288.5,-260.5 1288.5,-239.5 1245.5,-239.5"/>
<text text-anchor="middle" x="1267" y="-247.5" font-family="Helvetica,sans-Serif" font-size="10.00">QIcon</text>
</g>
<!-- Node5&#45;&gt;Node7 -->
<g id="edge12" class="edge"><title>Node5&#45;&gt;Node7</title>
<path fill="none" stroke="midnightblue" d="M1168.97,-311.376C1188.08,-299.412 1219.34,-279.839 1241.42,-266.018"/>
<polygon fill="midnightblue" stroke="midnightblue" points="1243.34,-268.941 1249.96,-260.667 1239.63,-263.008 1243.34,-268.941"/>
</g>
<!-- Node9 -->
<g id="node17" class="node"><title>Node9</title>
<polygon fill="white" stroke="#bfbfbf" points="978,-0.5 978,-21.5 1020,-21.5 1020,-0.5 978,-0.5"/>
<text text-anchor="middle" x="999" y="-8.5" font-family="Helvetica,sans-Serif" font-size="10.00">QtGui</text>
</g>
<!-- Node8&#45;&gt;Node9 -->
<g id="edge16" class="edge"><title>Node8&#45;&gt;Node9</title>
<path fill="none" stroke="midnightblue" d="M804.457,-316.739C643.547,-300.493 182,-248.369 182,-185 182,-185 182,-185 182,-127 182,-46.1109 817.88,-17.6616 967.669,-12.0821"/>
<polygon fill="midnightblue" stroke="midnightblue" points="968.118,-15.5682 977.983,-11.7058 967.862,-8.57284 968.118,-15.5682"/>
</g>
<!-- Node10 -->
<g id="node19" class="node"><title>Node10</title>
<polygon fill="white" stroke="#bfbfbf" points="875.5,-239.5 875.5,-260.5 980.5,-260.5 980.5,-239.5 875.5,-239.5"/>
<text text-anchor="middle" x="928" y="-247.5" font-family="Helvetica,sans-Serif" font-size="10.00">qtsingleapplication.h</text>
</g>
<!-- Node8&#45;&gt;Node10 -->
<g id="edge18" class="edge"><title>Node8&#45;&gt;Node10</title>
<path fill="none" stroke="midnightblue" d="M869.181,-311.376C880.086,-299.997 897.588,-281.735 910.669,-268.085"/>
<polygon fill="midnightblue" stroke="midnightblue" points="913.385,-270.309 917.777,-260.667 908.331,-265.466 913.385,-270.309"/>
</g>
<!-- Node11 -->
<g id="node21" class="node"><title>Node11</title>
<a xlink:href="../../d1/d9d/_uniboard_sankore_transition_8h.html" target="_top" xlink:title="transition/UniboardSankore\lTransition.h">
<polygon fill="white" stroke="black" points="724,-233 724,-267 858,-267 858,-233 724,-233"/>
<text text-anchor="start" x="732" y="-254" font-family="Helvetica,sans-Serif" font-size="10.00">transition/UniboardSankore</text>
<text text-anchor="middle" x="791" y="-241" font-family="Helvetica,sans-Serif" font-size="10.00">Transition.h</text>
</a>
</g>
<!-- Node8&#45;&gt;Node11 -->
<g id="edge20" class="edge"><title>Node8&#45;&gt;Node11</title>
<path fill="none" stroke="midnightblue" d="M848.966,-311.376C839.849,-301.723 826.054,-287.116 814.209,-274.574"/>
<polygon fill="midnightblue" stroke="midnightblue" points="816.556,-271.961 807.145,-267.094 811.466,-276.768 816.556,-271.961"/>
</g>
<!-- Node12 -->
<g id="node23" class="node"><title>Node12</title>
<polygon fill="white" stroke="#bfbfbf" points="885.5,-174.5 885.5,-195.5 938.5,-195.5 938.5,-174.5 885.5,-174.5"/>
<text text-anchor="middle" x="912" y="-182.5" font-family="Helvetica,sans-Serif" font-size="10.00">QObject</text>
</g>
<!-- Node11&#45;&gt;Node12 -->
<g id="edge22" class="edge"><title>Node11&#45;&gt;Node12</title>
<path fill="none" stroke="midnightblue" d="M822.791,-232.922C841.514,-222.864 865.012,-210.242 883.191,-200.476"/>
<polygon fill="midnightblue" stroke="midnightblue" points="885.006,-203.474 892.159,-195.658 881.693,-197.307 885.006,-203.474"/>
</g>
<!-- Node13 -->
<g id="node25" class="node"><title>Node13</title>
<polygon fill="white" stroke="#bfbfbf" points="519,-174.5 519,-195.5 575,-195.5 575,-174.5 519,-174.5"/>
<text text-anchor="middle" x="547" y="-182.5" font-family="Helvetica,sans-Serif" font-size="10.00">QFileInfo</text>
</g>
<!-- Node11&#45;&gt;Node13 -->
<g id="edge24" class="edge"><title>Node11&#45;&gt;Node13</title>
<path fill="none" stroke="midnightblue" d="M723.724,-233.062C685.536,-223.305 636.635,-210.572 584.937,-196.207"/>
<polygon fill="midnightblue" stroke="midnightblue" points="585.826,-192.822 575.253,-193.507 583.945,-199.564 585.826,-192.822"/>
</g>
<!-- Node14 -->
<g id="node27" class="node"><title>Node14</title>
<polygon fill="white" stroke="#bfbfbf" points="956,-174.5 956,-195.5 1010,-195.5 1010,-174.5 956,-174.5"/>
<text text-anchor="middle" x="983" y="-182.5" font-family="Helvetica,sans-Serif" font-size="10.00">QThread</text>
</g>
<!-- Node11&#45;&gt;Node14 -->
<g id="edge26" class="edge"><title>Node11&#45;&gt;Node14</title>
<path fill="none" stroke="midnightblue" d="M841.446,-232.922C874.387,-221.77 916.644,-207.464 946.382,-197.397"/>
<polygon fill="midnightblue" stroke="midnightblue" points="947.606,-200.678 955.955,-194.156 945.361,-194.047 947.606,-200.678"/>
</g>
<!-- Node15 -->
<g id="node29" class="node"><title>Node15</title>
<a xlink:href="../../db/dc7/_u_b_update_dlg_8h.html" target="_top" xlink:title="gui/UBUpdateDlg.h">
<polygon fill="white" stroke="black" points="592.5,-174.5 592.5,-195.5 693.5,-195.5 693.5,-174.5 592.5,-174.5"/>
<text text-anchor="middle" x="643" y="-182.5" font-family="Helvetica,sans-Serif" font-size="10.00">gui/UBUpdateDlg.h</text>
</a>
</g>
<!-- Node11&#45;&gt;Node15 -->
<g id="edge28" class="edge"><title>Node11&#45;&gt;Node15</title>
<path fill="none" stroke="midnightblue" d="M752.115,-232.922C728.689,-222.634 699.152,-209.661 676.718,-199.809"/>
<polygon fill="midnightblue" stroke="midnightblue" points="677.832,-196.475 667.268,-195.658 675.017,-202.884 677.832,-196.475"/>
</g>
<!-- Node24 -->
<g id="node47" class="node"><title>Node24</title>
<a xlink:href="../../db/dea/_u_b_document_proxy_8h.html" target="_top" xlink:title="document/UBDocumentProxy.h">
<polygon fill="white" stroke="black" points="713.5,-174.5 713.5,-195.5 868.5,-195.5 868.5,-174.5 713.5,-174.5"/>
<text text-anchor="middle" x="791" y="-182.5" font-family="Helvetica,sans-Serif" font-size="10.00">document/UBDocumentProxy.h</text>
</a>
</g>
<!-- Node11&#45;&gt;Node24 -->
<g id="edge46" class="edge"><title>Node11&#45;&gt;Node24</title>
<path fill="none" stroke="midnightblue" d="M791,-232.922C791,-224.67 791,-214.692 791,-205.982"/>
<polygon fill="midnightblue" stroke="midnightblue" points="794.5,-205.852 791,-195.852 787.5,-205.852 794.5,-205.852"/>
</g>
<!-- Node16 -->
<g id="node31" class="node"><title>Node16</title>
<polygon fill="white" stroke="#bfbfbf" points="700,-116.5 700,-137.5 752,-137.5 752,-116.5 700,-116.5"/>
<text text-anchor="middle" x="726" y="-124.5" font-family="Helvetica,sans-Serif" font-size="10.00">QDialog</text>
</g>
<!-- Node15&#45;&gt;Node16 -->
<g id="edge30" class="edge"><title>Node15&#45;&gt;Node16</title>
<path fill="none" stroke="midnightblue" d="M658.223,-174.362C670.625,-165.696 688.346,-153.313 702.557,-143.382"/>
<polygon fill="midnightblue" stroke="midnightblue" points="704.681,-146.168 710.873,-137.571 700.671,-140.43 704.681,-146.168"/>
</g>
<!-- Node17 -->
<g id="node33" class="node"><title>Node17</title>
<polygon fill="white" stroke="#bfbfbf" points="769.5,-116.5 769.5,-137.5 816.5,-137.5 816.5,-116.5 769.5,-116.5"/>
<text text-anchor="middle" x="793" y="-124.5" font-family="Helvetica,sans-Serif" font-size="10.00">QLabel</text>
</g>
<!-- Node15&#45;&gt;Node17 -->
<g id="edge32" class="edge"><title>Node15&#45;&gt;Node17</title>
<path fill="none" stroke="midnightblue" d="M670.164,-174.497C695.428,-164.728 733.122,-150.153 760.085,-139.727"/>
<polygon fill="midnightblue" stroke="midnightblue" points="761.426,-142.961 769.49,-136.09 758.901,-136.432 761.426,-142.961"/>
</g>
<!-- Node18 -->
<g id="node35" class="node"><title>Node18</title>
<polygon fill="white" stroke="#bfbfbf" points="833.5,-116.5 833.5,-137.5 908.5,-137.5 908.5,-116.5 833.5,-116.5"/>
<text text-anchor="middle" x="871" y="-124.5" font-family="Helvetica,sans-Serif" font-size="10.00">QPushButton</text>
</g>
<!-- Node15&#45;&gt;Node18 -->
<g id="edge34" class="edge"><title>Node15&#45;&gt;Node18</title>
<path fill="none" stroke="midnightblue" d="M684.289,-174.497C723.53,-164.514 782.497,-149.514 823.631,-139.05"/>
<polygon fill="midnightblue" stroke="midnightblue" points="824.593,-142.417 833.421,-136.559 822.867,-135.633 824.593,-142.417"/>
</g>
<!-- Node19 -->
<g id="node37" class="node"><title>Node19</title>
<polygon fill="white" stroke="#bfbfbf" points="209.5,-116.5 209.5,-137.5 268.5,-137.5 268.5,-116.5 209.5,-116.5"/>
<text text-anchor="middle" x="239" y="-124.5" font-family="Helvetica,sans-Serif" font-size="10.00">QLineEdit</text>
</g>
<!-- Node15&#45;&gt;Node19 -->
<g id="edge36" class="edge"><title>Node15&#45;&gt;Node19</title>
<path fill="none" stroke="midnightblue" d="M592.188,-175.301C589.421,-174.843 586.678,-174.406 584,-174 451.358,-153.881 413.427,-164.657 278.631,-138.095"/>
<polygon fill="midnightblue" stroke="midnightblue" points="279.248,-134.649 268.755,-136.117 277.873,-141.513 279.248,-134.649"/>
</g>
<!-- Node20 -->
<g id="node39" class="node"><title>Node20</title>
<polygon fill="white" stroke="#bfbfbf" points="286,-116.5 286,-137.5 384,-137.5 384,-116.5 286,-116.5"/>
<text text-anchor="middle" x="335" y="-124.5" font-family="Helvetica,sans-Serif" font-size="10.00">QDialogButtonBox</text>
</g>
<!-- Node15&#45;&gt;Node20 -->
<g id="edge38" class="edge"><title>Node15&#45;&gt;Node20</title>
<path fill="none" stroke="midnightblue" d="M592.241,-175.482C543.899,-166.411 468.798,-152.306 394.103,-138.206"/>
<polygon fill="midnightblue" stroke="midnightblue" points="394.522,-134.724 384.047,-136.308 393.224,-141.602 394.522,-134.724"/>
</g>
<!-- Node21 -->
<g id="node41" class="node"><title>Node21</title>
<polygon fill="white" stroke="#bfbfbf" points="401.5,-116.5 401.5,-137.5 478.5,-137.5 478.5,-116.5 401.5,-116.5"/>
<text text-anchor="middle" x="440" y="-124.5" font-family="Helvetica,sans-Serif" font-size="10.00">QVBoxLayout</text>
</g>
<!-- Node15&#45;&gt;Node21 -->
<g id="edge40" class="edge"><title>Node15&#45;&gt;Node21</title>
<path fill="none" stroke="midnightblue" d="M606.238,-174.497C572.714,-164.918 523.018,-150.72 486.696,-140.342"/>
<polygon fill="midnightblue" stroke="midnightblue" points="487.408,-136.905 476.831,-137.523 485.484,-143.636 487.408,-136.905"/>
</g>
<!-- Node22 -->
<g id="node43" class="node"><title>Node22</title>
<polygon fill="white" stroke="#bfbfbf" points="496,-116.5 496,-137.5 574,-137.5 574,-116.5 496,-116.5"/>
<text text-anchor="middle" x="535" y="-124.5" font-family="Helvetica,sans-Serif" font-size="10.00">QHBoxLayout</text>
</g>
<!-- Node15&#45;&gt;Node22 -->
<g id="edge42" class="edge"><title>Node15&#45;&gt;Node22</title>
<path fill="none" stroke="midnightblue" d="M623.442,-174.497C606.802,-165.56 582.673,-152.602 563.82,-142.477"/>
<polygon fill="midnightblue" stroke="midnightblue" points="565.243,-139.269 554.777,-137.621 561.931,-145.436 565.243,-139.269"/>
</g>
<!-- Node23 -->
<g id="node45" class="node"><title>Node23</title>
<polygon fill="white" stroke="#bfbfbf" points="591.5,-116.5 591.5,-137.5 682.5,-137.5 682.5,-116.5 591.5,-116.5"/>
<text text-anchor="middle" x="637" y="-124.5" font-family="Helvetica,sans-Serif" font-size="10.00">QStackedWidget</text>
</g>
<!-- Node15&#45;&gt;Node23 -->
<g id="edge44" class="edge"><title>Node15&#45;&gt;Node23</title>
<path fill="none" stroke="midnightblue" d="M641.9,-174.362C641.13,-166.922 640.077,-156.743 639.144,-147.728"/>
<polygon fill="midnightblue" stroke="midnightblue" points="642.604,-147.157 638.094,-137.571 635.641,-147.878 642.604,-147.157"/>
</g>
<!-- Node24&#45;&gt;Node9 -->
<g id="edge48" class="edge"><title>Node24&#45;&gt;Node9</title>
<path fill="none" stroke="midnightblue" d="M845.556,-174.448C869.776,-167.475 897.212,-156.148 917,-138 946.01,-111.395 932.841,-90.5331 955,-58 962.13,-47.5322 971.568,-37.1228 979.875,-28.7711"/>
<polygon fill="midnightblue" stroke="midnightblue" points="982.372,-31.2249 987.087,-21.7369 977.484,-26.2139 982.372,-31.2249"/>
</g>
<!-- Node25 -->
<g id="node50" class="node"><title>Node25</title>
<a xlink:href="../../d7/dca/_u_b_string_utils_8h.html" target="_top" xlink:title="frameworks/UBStringUtils.h">
<polygon fill="white" stroke="black" points="1077.5,-116.5 1077.5,-137.5 1216.5,-137.5 1216.5,-116.5 1077.5,-116.5"/>
<text text-anchor="middle" x="1147" y="-124.5" font-family="Helvetica,sans-Serif" font-size="10.00">frameworks/UBStringUtils.h</text>
</a>
</g>
<!-- Node24&#45;&gt;Node25 -->
<g id="edge50" class="edge"><title>Node24&#45;&gt;Node25</title>
<path fill="none" stroke="midnightblue" d="M855.469,-174.497C916.521,-164.55 1008.16,-149.621 1072.35,-139.162"/>
<polygon fill="midnightblue" stroke="midnightblue" points="1073.1,-142.586 1082.41,-137.523 1071.98,-135.677 1073.1,-142.586"/>
</g>
<!-- Node24&#45;&gt;Node26 -->
<g id="edge54" class="edge"><title>Node24&#45;&gt;Node26</title>
<path fill="none" stroke="midnightblue" d="M831.021,-174.497C867.83,-164.836 922.546,-150.477 962.174,-140.077"/>
<polygon fill="midnightblue" stroke="midnightblue" points="963.12,-143.447 971.904,-137.523 961.343,-136.676 963.12,-143.447"/>
</g>
<!-- Node25&#45;&gt;Node6 -->
<g id="edge52" class="edge"><title>Node25&#45;&gt;Node6</title>
<path fill="none" stroke="midnightblue" d="M1168.73,-116.497C1187.47,-107.438 1214.77,-94.2462 1235.84,-84.0628"/>
<polygon fill="midnightblue" stroke="midnightblue" points="1237.54,-87.1242 1245.03,-79.6212 1234.5,-80.8217 1237.54,-87.1242"/>
</g>
<!-- Node26&#45;&gt;Node6 -->
<g id="edge56" class="edge"><title>Node26&#45;&gt;Node6</title>
<path fill="none" stroke="midnightblue" d="M1058.46,-116.48C1100.41,-106.972 1163.85,-92.5806 1219,-80 1223.43,-78.9887 1228.1,-77.9228 1232.7,-76.8687"/>
<polygon fill="midnightblue" stroke="midnightblue" points="1233.62,-80.2499 1242.58,-74.6055 1232.05,-73.4266 1233.62,-80.2499"/>
</g>
<!-- Node26&#45;&gt;Node9 -->
<g id="edge58" class="edge"><title>Node26&#45;&gt;Node9</title>
<path fill="none" stroke="midnightblue" d="M1060.76,-116.818C1099.9,-106.264 1145.25,-87.1721 1125,-58 1113.87,-41.9668 1063.53,-26.8277 1029.94,-18.2543"/>
<polygon fill="midnightblue" stroke="midnightblue" points="1030.67,-14.8285 1020.12,-15.8107 1028.98,-21.6215 1030.67,-14.8285"/>
</g>
<!-- Node27 -->
<g id="node57" class="node"><title>Node27</title>
<polygon fill="white" stroke="#bfbfbf" points="1052,-58.5 1052,-79.5 1116,-79.5 1116,-58.5 1052,-58.5"/>
<text text-anchor="middle" x="1084" y="-66.5" font-family="Helvetica,sans-Serif" font-size="10.00">QtNetwork</text>
</g>
<!-- Node26&#45;&gt;Node27 -->
<g id="edge60" class="edge"><title>Node26&#45;&gt;Node27</title>
<path fill="none" stroke="midnightblue" d="M1025.21,-116.362C1035.76,-107.859 1050.76,-95.7785 1062.96,-85.9466"/>
<polygon fill="midnightblue" stroke="midnightblue" points="1065.29,-88.5696 1070.88,-79.5707 1060.89,-83.1183 1065.29,-88.5696"/>
</g>
<!-- Node28 -->
<g id="node59" class="node"><title>Node28</title>
<a xlink:href="../../d6/dd0/_u_b_8h.html" target="_top" xlink:title="UB.h">
<polygon fill="white" stroke="black" points="1171.5,-58.5 1171.5,-79.5 1210.5,-79.5 1210.5,-58.5 1171.5,-58.5"/>
<text text-anchor="middle" x="1191" y="-66.5" font-family="Helvetica,sans-Serif" font-size="10.00">UB.h</text>
</a>
</g>
<!-- Node26&#45;&gt;Node28 -->
<g id="edge62" class="edge"><title>Node26&#45;&gt;Node28</title>
<path fill="none" stroke="midnightblue" d="M1045.08,-116.457C1074.7,-106.995 1119.28,-92.6841 1158,-80 1159.23,-79.5981 1160.48,-79.1867 1161.74,-78.77"/>
<polygon fill="midnightblue" stroke="midnightblue" points="1163.08,-82.0156 1171.47,-75.5479 1160.87,-75.3709 1163.08,-82.0156"/>
</g>
<!-- Node29 -->
<g id="node62" class="node"><title>Node29</title>
<a xlink:href="../../d3/d76/_u_b_setting_8h.html" target="_top" xlink:title="UBSetting.h">
<polygon fill="white" stroke="black" points="964,-58.5 964,-79.5 1034,-79.5 1034,-58.5 964,-58.5"/>
<text text-anchor="middle" x="999" y="-66.5" font-family="Helvetica,sans-Serif" font-size="10.00">UBSetting.h</text>
</a>
</g>
<!-- Node26&#45;&gt;Node29 -->
<g id="edge66" class="edge"><title>Node26&#45;&gt;Node29</title>
<path fill="none" stroke="midnightblue" d="M1009.62,-116.362C1007.93,-108.84 1005.62,-98.5187 1003.58,-89.4308"/>
<polygon fill="midnightblue" stroke="midnightblue" points="1006.97,-88.563 1001.37,-79.5707 1000.14,-90.0941 1006.97,-88.563"/>
</g>
<!-- Node28&#45;&gt;Node9 -->
<g id="edge64" class="edge"><title>Node28&#45;&gt;Node9</title>
<path fill="none" stroke="midnightblue" d="M1171.49,-62.3743C1167.07,-60.9051 1162.38,-59.3764 1158,-58 1113.65,-44.0569 1061.97,-28.9985 1029.86,-19.7826"/>
<polygon fill="midnightblue" stroke="midnightblue" points="1030.74,-16.3926 1020.16,-17.0045 1028.81,-23.1222 1030.74,-16.3926"/>
</g>
<!-- Node29&#45;&gt;Node9 -->
<g id="edge68" class="edge"><title>Node29&#45;&gt;Node9</title>
<path fill="none" stroke="midnightblue" d="M999,-58.3619C999,-50.9219 999,-40.7427 999,-31.7276"/>
<polygon fill="midnightblue" stroke="midnightblue" points="1002.5,-31.5706 999,-21.5707 995.5,-31.5707 1002.5,-31.5706"/>
</g>
<!-- Node30&#45;&gt;Node6 -->
<g id="edge74" class="edge"><title>Node30&#45;&gt;Node6</title>
<path fill="none" stroke="midnightblue" d="M1165.29,-239.431C1180.6,-229.793 1202.11,-214.292 1216,-196 1241.01,-163.072 1255.58,-116.225 1262.35,-89.5986"/>
<polygon fill="midnightblue" stroke="midnightblue" points="1265.77,-90.3763 1264.71,-79.8338 1258.96,-88.7313 1265.77,-90.3763"/>
</g>
<!-- Node30&#45;&gt;Node14 -->
<g id="edge76" class="edge"><title>Node30&#45;&gt;Node14</title>
<path fill="none" stroke="midnightblue" d="M1120.29,-239.412C1092.77,-228.505 1049.7,-211.436 1019.15,-199.327"/>
<polygon fill="midnightblue" stroke="midnightblue" points="1020.29,-196.014 1009.7,-195.584 1017.71,-202.522 1020.29,-196.014"/>
</g>
<!-- Node30&#45;&gt;Node28 -->
<g id="edge78" class="edge"><title>Node30&#45;&gt;Node28</title>
<path fill="none" stroke="midnightblue" d="M1157.76,-239.488C1175.85,-220.982 1211.66,-180.502 1225,-138 1227.93,-128.671 1228.01,-125.302 1225,-116 1221.64,-105.618 1215.03,-95.604 1208.53,-87.5068"/>
<polygon fill="midnightblue" stroke="midnightblue" points="1211.1,-85.1309 1201.93,-79.8274 1205.79,-89.693 1211.1,-85.1309"/>
</g>
</g>
</svg>
