<?xml version="1.0" encoding="UTF-8" standalone="no"?>
<!DOCTYPE svg PUBLIC "-//W3C//DTD SVG 1.1//EN"
 "http://www.w3.org/Graphics/SVG/1.1/DTD/svg11.dtd">
<!-- Generated by graphviz version 2.26.3 (20100126.1600)
 -->
<!-- Title: UBGraphicsWidgetItem::injectInlineJavaScript Pages: 1 -->
<svg width="466pt" height="42pt"
 viewBox="0.00 0.00 466.00 42.00" xmlns="http://www.w3.org/2000/svg" xmlns:xlink="http://www.w3.org/1999/xlink">
<g id="graph1" class="graph" transform="scale(1 1) rotate(0) translate(4 38)">
<title>UBGraphicsWidgetItem::injectInlineJavaScript</title>
<polygon fill="white" stroke="white" points="-4,5 -4,-38 463,-38 463,5 -4,5"/>
<!-- Node1 -->
<g id="node1" class="node"><title>Node1</title>
<polygon fill="#bfbfbf" stroke="black" points="0,-0 0,-34 120,-34 120,-0 0,-0"/>
<text text-anchor="start" x="8" y="-21" font-family="Helvetica,sans-Serif" font-size="10.00">UBGraphicsWidgetItem</text>
<text text-anchor="middle" x="60" y="-8" font-family="Helvetica,sans-Serif" font-size="10.00">::injectInlineJavaScript</text>
</g>
<!-- Node2 -->
<g id="node3" class="node"><title>Node2</title>
<a xlink:href="../../da/d14/class_u_b_application_controller.html#a6e16c1c071fab3c55732f8a91c541d93" target="_top" xlink:title="UBApplicationController\l::widgetInlineJavaScripts">
<polygon fill="white" stroke="black" points="156,-0 156,-34 282,-34 282,-0 156,-0"/>
<text text-anchor="start" x="164" y="-21" font-family="Helvetica,sans-Serif" font-size="10.00">UBApplicationController</text>
<text text-anchor="middle" x="219" y="-8" font-family="Helvetica,sans-Serif" font-size="10.00">::widgetInlineJavaScripts</text>
</a>
</g>
<!-- Node1&#45;&gt;Node2 -->
<g id="edge2" class="edge"><title>Node1&#45;&gt;Node2</title>
<path fill="none" stroke="midnightblue" d="M120.111,-17C128.518,-17 137.232,-17 145.847,-17"/>
<polygon fill="midnightblue" stroke="midnightblue" points="145.89,-20.5001 155.89,-17 145.89,-13.5001 145.89,-20.5001"/>
</g>
<!-- Node3 -->
<g id="node5" class="node"><title>Node3</title>
<a xlink:href="../../d4/d99/class_u_b_platform_utils.html#ae595b29e794b20564550fd45515fc0a8" target="_top" xlink:title="UBPlatformUtils::application\lResourcesDirectory">
<polygon fill="white" stroke="black" points="318,-0 318,-34 458,-34 458,-0 318,-0"/>
<text text-anchor="start" x="326" y="-21" font-family="Helvetica,sans-Serif" font-size="10.00">UBPlatformUtils::application</text>
<text text-anchor="middle" x="388" y="-8" font-family="Helvetica,sans-Serif" font-size="10.00">ResourcesDirectory</text>
</a>
</g>
<!-- Node2&#45;&gt;Node3 -->
<g id="edge4" class="edge"><title>Node2&#45;&gt;Node3</title>
<path fill="none" stroke="midnightblue" d="M282.41,-17C290.758,-17 299.399,-17 307.978,-17"/>
<polygon fill="midnightblue" stroke="midnightblue" points="307.999,-20.5001 317.999,-17 307.999,-13.5001 307.999,-20.5001"/>
</g>
</g>
</svg>
