<?xml version="1.0" encoding="UTF-8" standalone="no"?>
<!DOCTYPE svg PUBLIC "-//W3C//DTD SVG 1.1//EN"
 "http://www.w3.org/Graphics/SVG/1.1/DTD/svg11.dtd">
<!-- Generated by graphviz version 2.26.3 (20100126.1600)
 -->
<!-- Title: UBGraphicsWidgetItem::dropEvent Pages: 1 -->
<!--zoomable 276 -->
<svg id="main" version="1.1" xmlns="http://www.w3.org/2000/svg" xmlns:xlink="http://www.w3.org/1999/xlink" xml:space="preserve" onload="init(evt)">
        <defs>
                <circle id="rim" cx="0" cy="0" r="7"/>
                <circle id="rim2" cx="0" cy="0" r="3.5"/>
                <g id="zoomPlus">
                        <use xlink:href="#rim" fill="#404040">
                                <set attributeName="fill" to="#808080" begin="zoomplus.mouseover" end="zoomplus.mouseout"/>
                        </use>
                        <path d="M-4,0h8M0,-4v8" fill="none" stroke="white" stroke-width="1.5" pointer-events="none"/>
                </g>
                <g id="zoomMin">
                        <use xlink:href="#rim" fill="#404040">
                                <set attributeName="fill" to="#808080" begin="zoomminus.mouseover" end="zoomminus.mouseout"/>
                        </use>
                        <path d="M-4,0h8" fill="none" stroke="white" stroke-width="1.5" pointer-events="none"/>
                </g>
                <g id="dirArrow">
                        <path fill="none" stroke="white" stroke-width="1.5" d="M0,-3.0v7 M-2.5,-0.5L0,-3.0L2.5,-0.5"/>
                </g>
               <g id="resetDef">
                       <use xlink:href="#rim2" fill="#404040">
                               <set attributeName="fill" to="#808080" begin="reset.mouseover" end="reset.mouseout"/>
                       </use>
               </g>
        </defs>

<script type="text/javascript">
var viewWidth = 930;
var viewHeight = 276;
var sectionId = 'dynsection-6';
</script>
<script xlink:href="../../svgpan.js"/>
<svg id="graph" class="graph">
<g id="viewport">
<title>UBGraphicsWidgetItem::dropEvent</title>
<polygon fill="white" stroke="white" points="-4,5 -4,-272 927,-272 927,5 -4,5"/>
<!-- Node1 -->
<g id="node1" class="node"><title>Node1</title>
<polygon fill="#bfbfbf" stroke="black" points="0,-119 0,-153 120,-153 120,-119 0,-119"/>
<text text-anchor="start" x="8" y="-140" font-family="Helvetica,sans-Serif" font-size="10.00">UBGraphicsWidgetItem</text>
<text text-anchor="middle" x="60" y="-127" font-family="Helvetica,sans-Serif" font-size="10.00">::dropEvent</text>
</g>
<!-- Node2 -->
<g id="node3" class="node"><title>Node2</title>
<a xlink:href="../../d0/d16/class_u_b_graphics_widget_item.html#ab94d12c758de5bfd42363815a66137b3" target="_top" xlink:title="UBGraphicsWidgetItem\l::processDropEvent">
<polygon fill="white" stroke="black" points="156,-119 156,-153 276,-153 276,-119 156,-119"/>
<text text-anchor="start" x="164" y="-140" font-family="Helvetica,sans-Serif" font-size="10.00">UBGraphicsWidgetItem</text>
<text text-anchor="middle" x="216" y="-127" font-family="Helvetica,sans-Serif" font-size="10.00">::processDropEvent</text>
</a>
</g>
<!-- Node1&#45;&gt;Node2 -->
<g id="edge2" class="edge"><title>Node1&#45;&gt;Node2</title>
<path fill="none" stroke="midnightblue" d="M120.314,-136C128.604,-136 137.175,-136 145.626,-136"/>
<polygon fill="midnightblue" stroke="midnightblue" points="145.847,-139.5 155.847,-136 145.847,-132.5 145.847,-139.5"/>
</g>
<!-- Node3 -->
<g id="node5" class="node"><title>Node3</title>
<a xlink:href="../../d5/d2b/class_u_b_widget_uniboard_a_p_i.html#a13f03a053e653a433b7d774ae0aa84dd" target="_top" xlink:title="UBWidgetUniboardAPI\l::ProcessDropEvent">
<polygon fill="white" stroke="black" points="312.5,-119 312.5,-153 429.5,-153 429.5,-119 312.5,-119"/>
<text text-anchor="start" x="320.5" y="-140" font-family="Helvetica,sans-Serif" font-size="10.00">UBWidgetUniboardAPI</text>
<text text-anchor="middle" x="371" y="-127" font-family="Helvetica,sans-Serif" font-size="10.00">::ProcessDropEvent</text>
</a>
</g>
<!-- Node2&#45;&gt;Node3 -->
<g id="edge4" class="edge"><title>Node2&#45;&gt;Node3</title>
<path fill="none" stroke="midnightblue" d="M276.371,-136C284.863,-136 293.644,-136 302.278,-136"/>
<polygon fill="midnightblue" stroke="midnightblue" points="302.32,-139.5 312.32,-136 302.32,-132.5 302.32,-139.5"/>
</g>
<!-- Node4 -->
<g id="node7" class="node"><title>Node4</title>
<a xlink:href="../../d0/d16/class_u_b_graphics_widget_item.html#ad7cad83001340bbfd1ec361a09f6a454" target="_top" xlink:title="UBGraphicsWidgetItem\l::scene">
<polygon fill="white" stroke="black" points="476,-234 476,-268 596,-268 596,-234 476,-234"/>
<text text-anchor="start" x="484" y="-255" font-family="Helvetica,sans-Serif" font-size="10.00">UBGraphicsWidgetItem</text>
<text text-anchor="middle" x="536" y="-242" font-family="Helvetica,sans-Serif" font-size="10.00">::scene</text>
</a>
</g>
<!-- Node3&#45;&gt;Node4 -->
<g id="edge6" class="edge"><title>Node3&#45;&gt;Node4</title>
<path fill="none" stroke="midnightblue" d="M385.514,-153.236C402.891,-172.933 433.715,-205.018 466,-225 468.48,-226.535 471.065,-228.001 473.717,-229.399"/>
<polygon fill="midnightblue" stroke="midnightblue" points="472.416,-232.657 482.939,-233.885 475.478,-226.363 472.416,-232.657"/>
</g>
<!-- Node5 -->
<g id="node9" class="node"><title>Node5</title>
<a xlink:href="../../d8/d81/class_u_b_application.html#acb4388f1e2e5c3b1db136211011de165" target="_top" xlink:title="UBApplication::urlFromHtml">
<polygon fill="white" stroke="black" points="466.5,-194.5 466.5,-215.5 605.5,-215.5 605.5,-194.5 466.5,-194.5"/>
<text text-anchor="middle" x="536" y="-202.5" font-family="Helvetica,sans-Serif" font-size="10.00">UBApplication::urlFromHtml</text>
</a>
</g>
<!-- Node3&#45;&gt;Node5 -->
<g id="edge8" class="edge"><title>Node3&#45;&gt;Node5</title>
<path fill="none" stroke="midnightblue" d="M400.245,-153.001C418.68,-163.231 443.226,-175.976 466,-185 471.86,-187.322 478.094,-189.498 484.334,-191.498"/>
<polygon fill="midnightblue" stroke="midnightblue" points="483.503,-194.904 494.09,-194.489 485.556,-188.212 483.503,-194.904"/>
</g>
<!-- Node6 -->
<g id="node11" class="node"><title>Node6</title>
<a xlink:href="../../d7/d38/class_u_b_download_manager.html#a98ec03d9a74e118191b17197a7b942a8" target="_top" xlink:title="Get the download manager.">
<polygon fill="white" stroke="black" points="478.5,-142 478.5,-176 593.5,-176 593.5,-142 478.5,-142"/>
<text text-anchor="start" x="486.5" y="-163" font-family="Helvetica,sans-Serif" font-size="10.00">UBDownloadManager:</text>
<text text-anchor="middle" x="536" y="-150" font-family="Helvetica,sans-Serif" font-size="10.00">:downloadManager</text>
</a>
</g>
<!-- Node3&#45;&gt;Node6 -->
<g id="edge10" class="edge"><title>Node3&#45;&gt;Node6</title>
<path fill="none" stroke="midnightblue" d="M429.637,-144.174C442.136,-145.916 455.434,-147.77 468.241,-149.555"/>
<polygon fill="midnightblue" stroke="midnightblue" points="467.996,-153.054 478.383,-150.969 468.962,-146.121 467.996,-153.054"/>
</g>
<!-- Node9 -->
<g id="node17" class="node"><title>Node9</title>
<a xlink:href="../../d2/d7a/class_u_b_file_system_utils.html#a8dcbcd889a2c79495470ff11f955c0b6" target="_top" xlink:title="UBFileSystemUtils:\l:extension">
<polygon fill="white" stroke="black" points="654,-71 654,-105 758,-105 758,-71 654,-71"/>
<text text-anchor="start" x="662" y="-92" font-family="Helvetica,sans-Serif" font-size="10.00">UBFileSystemUtils:</text>
<text text-anchor="middle" x="706" y="-79" font-family="Helvetica,sans-Serif" font-size="10.00">:extension</text>
</a>
</g>
<!-- Node3&#45;&gt;Node9 -->
<g id="edge16" class="edge"><title>Node3&#45;&gt;Node9</title>
<path fill="none" stroke="midnightblue" d="M429.736,-127.584C489.817,-118.976 582.79,-105.654 644.022,-96.8804"/>
<polygon fill="midnightblue" stroke="midnightblue" points="644.54,-100.342 653.942,-95.459 643.547,-93.4129 644.54,-100.342"/>
</g>
<!-- Node10 -->
<g id="node19" class="node"><title>Node10</title>
<a xlink:href="../../d2/d7a/class_u_b_file_system_utils.html#a272b08b8f8907091333982fb53a7aa2a" target="_top" xlink:title="UBFileSystemUtils:\l:mimeTypeFromFileName">
<polygon fill="white" stroke="black" points="471,-52 471,-86 601,-86 601,-52 471,-52"/>
<text text-anchor="start" x="479" y="-73" font-family="Helvetica,sans-Serif" font-size="10.00">UBFileSystemUtils:</text>
<text text-anchor="middle" x="536" y="-60" font-family="Helvetica,sans-Serif" font-size="10.00">:mimeTypeFromFileName</text>
</a>
</g>
<!-- Node3&#45;&gt;Node10 -->
<g id="edge18" class="edge"><title>Node3&#45;&gt;Node10</title>
<path fill="none" stroke="midnightblue" d="M413.063,-118.92C434.882,-110.06 461.713,-99.1648 484.737,-89.8159"/>
<polygon fill="midnightblue" stroke="midnightblue" points="486.065,-93.0543 494.013,-86.0491 483.431,-86.5686 486.065,-93.0543"/>
</g>
<!-- Node11 -->
<g id="node22" class="node"><title>Node11</title>
<a xlink:href="../../d2/d7a/class_u_b_file_system_utils.html#a21fb5e77a59d910b4aa94a0e71f04578" target="_top" xlink:title="UBFileSystemUtils:\l:copyFile">
<polygon fill="white" stroke="black" points="484,-0 484,-34 588,-34 588,-0 484,-0"/>
<text text-anchor="start" x="492" y="-21" font-family="Helvetica,sans-Serif" font-size="10.00">UBFileSystemUtils:</text>
<text text-anchor="middle" x="536" y="-8" font-family="Helvetica,sans-Serif" font-size="10.00">:copyFile</text>
</a>
</g>
<!-- Node3&#45;&gt;Node11 -->
<g id="edge22" class="edge"><title>Node3&#45;&gt;Node11</title>
<path fill="none" stroke="midnightblue" d="M384.742,-118.68C401.845,-98.1302 432.865,-64.0146 466,-43 468.792,-41.2295 471.722,-39.5537 474.735,-37.9713"/>
<polygon fill="midnightblue" stroke="midnightblue" points="476.492,-41.0096 483.969,-33.5033 473.443,-34.7085 476.492,-41.0096"/>
</g>
<!-- Node7 -->
<g id="node13" class="node"><title>Node7</title>
<a xlink:href="../../d7/d38/class_u_b_download_manager.html#a692880b623fa16bda278a35de605db8c" target="_top" xlink:title="Constructor.">
<polygon fill="white" stroke="black" points="648.5,-142 648.5,-176 763.5,-176 763.5,-142 648.5,-142"/>
<text text-anchor="start" x="656.5" y="-163" font-family="Helvetica,sans-Serif" font-size="10.00">UBDownloadManager:</text>
<text text-anchor="middle" x="706" y="-150" font-family="Helvetica,sans-Serif" font-size="10.00">:UBDownloadManager</text>
</a>
</g>
<!-- Node6&#45;&gt;Node7 -->
<g id="edge12" class="edge"><title>Node6&#45;&gt;Node7</title>
<path fill="none" stroke="midnightblue" d="M593.554,-159C607.877,-159 623.363,-159 638.131,-159"/>
<polygon fill="midnightblue" stroke="midnightblue" points="638.216,-162.5 648.216,-159 638.216,-155.5 638.216,-162.5"/>
</g>
<!-- Node8 -->
<g id="node15" class="node"><title>Node8</title>
<a xlink:href="../../d7/d38/class_u_b_download_manager.html#ab6721a82bf700a33b3801f9b61356123" target="_top" xlink:title="UBDownloadManager:\l:fileAddedToDownload">
<polygon fill="white" stroke="black" points="806.5,-142 806.5,-176 921.5,-176 921.5,-142 806.5,-142"/>
<text text-anchor="start" x="814.5" y="-163" font-family="Helvetica,sans-Serif" font-size="10.00">UBDownloadManager:</text>
<text text-anchor="middle" x="864" y="-150" font-family="Helvetica,sans-Serif" font-size="10.00">:fileAddedToDownload</text>
</a>
</g>
<!-- Node7&#45;&gt;Node8 -->
<g id="edge14" class="edge"><title>Node7&#45;&gt;Node8</title>
<path fill="none" stroke="midnightblue" d="M763.936,-159C774.415,-159 785.427,-159 796.158,-159"/>
<polygon fill="midnightblue" stroke="midnightblue" points="796.335,-162.5 806.335,-159 796.335,-155.5 796.335,-162.5"/>
</g>
<!-- Node10&#45;&gt;Node9 -->
<g id="edge20" class="edge"><title>Node10&#45;&gt;Node9</title>
<path fill="none" stroke="midnightblue" d="M601.24,-76.2916C615.119,-77.8427 629.741,-79.4769 643.514,-81.0162"/>
<polygon fill="midnightblue" stroke="midnightblue" points="643.527,-84.5394 653.854,-82.1719 644.304,-77.5827 643.527,-84.5394"/>
</g>
<!-- Node12 -->
<g id="node24" class="node"><title>Node12</title>
<a xlink:href="../../d2/d7a/class_u_b_file_system_utils.html#a6fbd2eaf3729eead6e9a8a85e230af96" target="_top" xlink:title="UBFileSystemUtils::copy">
<polygon fill="white" stroke="black" points="642,-6.5 642,-27.5 770,-27.5 770,-6.5 642,-6.5"/>
<text text-anchor="middle" x="706" y="-14.5" font-family="Helvetica,sans-Serif" font-size="10.00">UBFileSystemUtils::copy</text>
</a>
</g>
<!-- Node11&#45;&gt;Node12 -->
<g id="edge24" class="edge"><title>Node11&#45;&gt;Node12</title>
<path fill="none" stroke="midnightblue" d="M588.393,-10.7124C602.106,-10.3044 617.154,-10.1664 631.769,-10.2984"/>
<polygon fill="midnightblue" stroke="midnightblue" points="631.751,-13.7984 641.797,-10.4329 631.845,-6.79899 631.751,-13.7984"/>
</g>
<!-- Node12&#45;&gt;Node11 -->
<g id="edge28" class="edge"><title>Node12&#45;&gt;Node11</title>
<path fill="none" stroke="midnightblue" d="M641.797,-23.5671C627.613,-23.8212 612.604,-23.8105 598.489,-23.535"/>
<polygon fill="midnightblue" stroke="midnightblue" points="598.476,-20.0338 588.393,-23.2876 598.304,-27.0317 598.476,-20.0338"/>
</g>
<!-- Node13 -->
<g id="node26" class="node"><title>Node13</title>
<a xlink:href="../../d2/d7a/class_u_b_file_system_utils.html#a8289391e8ff8c366727435455aa8a733" target="_top" xlink:title="UBFileSystemUtils:\l:copyDir">
<polygon fill="white" stroke="black" points="812,-0 812,-34 916,-34 916,-0 812,-0"/>
<text text-anchor="start" x="820" y="-21" font-family="Helvetica,sans-Serif" font-size="10.00">UBFileSystemUtils:</text>
<text text-anchor="middle" x="864" y="-8" font-family="Helvetica,sans-Serif" font-size="10.00">:copyDir</text>
</a>
</g>
<!-- Node12&#45;&gt;Node13 -->
<g id="edge26" class="edge"><title>Node12&#45;&gt;Node13</title>
<path fill="none" stroke="midnightblue" d="M770.265,-17C780.645,-17 791.377,-17 801.71,-17"/>
<polygon fill="midnightblue" stroke="midnightblue" points="801.882,-20.5001 811.882,-17 801.882,-13.5001 801.882,-20.5001"/>
</g>
</g>
</svg>
        <g id="navigator" transform="translate(0 0)" fill="#404254">
                <rect fill="#f2f5e9" fill-opacity="0.5" stroke="#606060" stroke-width=".5" x="0" y="0" width="60" height="60"/>
                <use id="zoomplus" xlink:href="#zoomPlus" x="17" y="9" onmousedown="handleZoom(evt,'in')"/>
                <use id="zoomminus" xlink:href="#zoomMin" x="42" y="9" onmousedown="handleZoom(evt,'out')"/>
                <use id="reset" xlink:href="#resetDef" x="30" y="36" onmousedown="handleReset()"/>
                <g id="arrowUp" xlink:href="#dirArrow" transform="translate(30 24)" onmousedown="handlePan(0,-1)">
                  <use xlink:href="#rim" fill="#404040">
                        <set attributeName="fill" to="#808080" begin="arrowUp.mouseover" end="arrowUp.mouseout"/>
                  </use>
                  <path fill="none" stroke="white" stroke-width="1.5" d="M0,-3.0v7 M-2.5,-0.5L0,-3.0L2.5,-0.5"/>
                </g>
                <g id="arrowRight" xlink:href="#dirArrow" transform="rotate(90) translate(36 -43)" onmousedown="handlePan(1,0)">
                  <use xlink:href="#rim" fill="#404040">
                        <set attributeName="fill" to="#808080" begin="arrowRight.mouseover" end="arrowRight.mouseout"/>
                  </use>
                  <path fill="none" stroke="white" stroke-width="1.5" d="M0,-3.0v7 M-2.5,-0.5L0,-3.0L2.5,-0.5"/>
                </g>
                <g id="arrowDown" xlink:href="#dirArrow" transform="rotate(180) translate(-30 -48)" onmousedown="handlePan(0,1)">
                  <use xlink:href="#rim" fill="#404040">
                        <set attributeName="fill" to="#808080" begin="arrowDown.mouseover" end="arrowDown.mouseout"/>
                  </use>
                  <path fill="none" stroke="white" stroke-width="1.5" d="M0,-3.0v7 M-2.5,-0.5L0,-3.0L2.5,-0.5"/>
                </g>
                <g id="arrowLeft" xlink:href="#dirArrow" transform="rotate(270) translate(-36 17)" onmousedown="handlePan(-1,0)">
                  <use xlink:href="#rim" fill="#404040">
                        <set attributeName="fill" to="#808080" begin="arrowLeft.mouseover" end="arrowLeft.mouseout"/>
                  </use>
                  <path fill="none" stroke="white" stroke-width="1.5" d="M0,-3.0v7 M-2.5,-0.5L0,-3.0L2.5,-0.5"/>
                </g>
        </g>
        <svg viewBox="0 0 15 15" width="100%" height="30px" preserveAspectRatio="xMaxYMin meet">
         <g id="arrow_out" transform="scale(0.3 0.3)">
          <a xlink:href="class_u_b_graphics_widget_item_adf3606e613c7887cb64bb622d6b69b8b_cgraph_org.svg" target="_base">
           <rect id="button" ry="5" rx="5" y="6" x="6" height="38" width="38"
                fill="#f2f5e9" fill-opacity="0.5" stroke="#606060" stroke-width="1.0"/>
           <path id="arrow"
             d="M 11.500037,31.436501 C 11.940474,20.09759 22.043105,11.32322 32.158766,21.979434 L 37.068811,17.246167 C 37.068811,17.246167 37.088388,32 37.088388,32 L 22.160133,31.978069 C 22.160133,31.978069 26.997745,27.140456 26.997745,27.140456 C 18.528582,18.264221 13.291696,25.230495 11.500037,31.436501 z"
             style="fill:#404040;"/>
          </a>
         </g>
        </svg>
</svg>
