<?xml version="1.0" encoding="UTF-8" standalone="no"?>
<!DOCTYPE svg PUBLIC "-//W3C//DTD SVG 1.1//EN"
 "http://www.w3.org/Graphics/SVG/1.1/DTD/svg11.dtd">
<!-- Generated by graphviz version 2.26.3 (20100126.1600)
 -->
<!-- Title: UBSvgSubsetAdaptor::setSceneUuid Pages: 1 -->
<!--zoomable 177 -->
<svg id="main" version="1.1" xmlns="http://www.w3.org/2000/svg" xmlns:xlink="http://www.w3.org/1999/xlink" xml:space="preserve" onload="init(evt)">
        <defs>
                <circle id="rim" cx="0" cy="0" r="7"/>
                <circle id="rim2" cx="0" cy="0" r="3.5"/>
                <g id="zoomPlus">
                        <use xlink:href="#rim" fill="#404040">
                                <set attributeName="fill" to="#808080" begin="zoomplus.mouseover" end="zoomplus.mouseout"/>
                        </use>
                        <path d="M-4,0h8M0,-4v8" fill="none" stroke="white" stroke-width="1.5" pointer-events="none"/>
                </g>
                <g id="zoomMin">
                        <use xlink:href="#rim" fill="#404040">
                                <set attributeName="fill" to="#808080" begin="zoomminus.mouseover" end="zoomminus.mouseout"/>
                        </use>
                        <path d="M-4,0h8" fill="none" stroke="white" stroke-width="1.5" pointer-events="none"/>
                </g>
                <g id="dirArrow">
                        <path fill="none" stroke="white" stroke-width="1.5" d="M0,-3.0v7 M-2.5,-0.5L0,-3.0L2.5,-0.5"/>
                </g>
               <g id="resetDef">
                       <use xlink:href="#rim2" fill="#404040">
                               <set attributeName="fill" to="#808080" begin="reset.mouseover" end="reset.mouseout"/>
                       </use>
               </g>
        </defs>

<script type="text/javascript">
var viewWidth = 1008;
var viewHeight = 177;
var sectionId = 'dynsection-11';
</script>
<script xlink:href="../../svgpan.js"/>
<svg id="graph" class="graph">
<g id="viewport">
<title>UBSvgSubsetAdaptor::setSceneUuid</title>
<polygon fill="white" stroke="white" points="-4,5 -4,-173 1005,-173 1005,5 -4,5"/>
<!-- Node1 -->
<g id="node1" class="node"><title>Node1</title>
<polygon fill="#bfbfbf" stroke="black" points="0.5,-52 0.5,-86 113.5,-86 113.5,-52 0.5,-52"/>
<text text-anchor="start" x="8.5" y="-73" font-family="Helvetica,sans-Serif" font-size="10.00">UBSvgSubsetAdaptor</text>
<text text-anchor="middle" x="57" y="-60" font-family="Helvetica,sans-Serif" font-size="10.00">::setSceneUuid</text>
</g>
<!-- Node2 -->
<g id="node3" class="node"><title>Node2</title>
<a xlink:href="../../d0/dd5/class_u_b_persistence_manager.html#ac815cff8d53be5e6bb870aa4e83319f7" target="_top" xlink:title="UBPersistenceManager\l::createDocumentFromDir">
<polygon fill="white" stroke="black" points="170,-104 170,-138 300,-138 300,-104 170,-104"/>
<text text-anchor="start" x="178" y="-125" font-family="Helvetica,sans-Serif" font-size="10.00">UBPersistenceManager</text>
<text text-anchor="middle" x="235" y="-112" font-family="Helvetica,sans-Serif" font-size="10.00">::createDocumentFromDir</text>
</a>
</g>
<!-- Node1&#45;&gt;Node2 -->
<g id="edge2" class="edge"><title>Node1&#45;&gt;Node2</title>
<path fill="none" stroke="midnightblue" d="M123.857,-88.5311C141.192,-93.5954 159.724,-99.0093 176.588,-103.936"/>
<polygon fill="midnightblue" stroke="midnightblue" points="124.39,-85.0407 113.81,-85.5961 122.427,-91.7599 124.39,-85.0407"/>
</g>
<!-- Node5 -->
<g id="node9" class="node"><title>Node5</title>
<a xlink:href="../../d0/dd5/class_u_b_persistence_manager.html#ac38f7641c3942edd498b39babf860eba" target="_top" xlink:title="UBPersistenceManager\l::duplicateDocument">
<polygon fill="white" stroke="black" points="175,-52 175,-86 295,-86 295,-52 175,-52"/>
<text text-anchor="start" x="183" y="-73" font-family="Helvetica,sans-Serif" font-size="10.00">UBPersistenceManager</text>
<text text-anchor="middle" x="235" y="-60" font-family="Helvetica,sans-Serif" font-size="10.00">::duplicateDocument</text>
</a>
</g>
<!-- Node1&#45;&gt;Node5 -->
<g id="edge8" class="edge"><title>Node1&#45;&gt;Node5</title>
<path fill="none" stroke="midnightblue" d="M124.017,-69C140.674,-69 158.428,-69 174.738,-69"/>
<polygon fill="midnightblue" stroke="midnightblue" points="123.81,-65.5001 113.81,-69 123.81,-72.5001 123.81,-65.5001"/>
</g>
<!-- Node12 -->
<g id="node23" class="node"><title>Node12</title>
<a xlink:href="../../d0/dd5/class_u_b_persistence_manager.html#a9d57436055dda09d3096d12039fe89a0" target="_top" xlink:title="UBPersistenceManager\l::addDirectoryContentToDocument">
<polygon fill="white" stroke="black" points="150.5,-0 150.5,-34 319.5,-34 319.5,-0 150.5,-0"/>
<text text-anchor="start" x="158.5" y="-21" font-family="Helvetica,sans-Serif" font-size="10.00">UBPersistenceManager</text>
<text text-anchor="middle" x="235" y="-8" font-family="Helvetica,sans-Serif" font-size="10.00">::addDirectoryContentToDocument</text>
</a>
</g>
<!-- Node1&#45;&gt;Node12 -->
<g id="edge22" class="edge"><title>Node1&#45;&gt;Node12</title>
<path fill="none" stroke="midnightblue" d="M123.857,-49.4689C141.192,-44.4046 159.724,-38.9907 176.588,-34.0642"/>
<polygon fill="midnightblue" stroke="midnightblue" points="122.427,-46.2401 113.81,-52.4039 124.39,-52.9593 122.427,-46.2401"/>
</g>
<!-- Node3 -->
<g id="node5" class="node"><title>Node3</title>
<a xlink:href="../../db/d5b/class_u_b_import_c_f_f.html#a9130014d79eadf931ffa89af9d656a12" target="_top" xlink:title="UBImportCFF::importFile">
<polygon fill="white" stroke="black" points="378.5,-147.5 378.5,-168.5 505.5,-168.5 505.5,-147.5 378.5,-147.5"/>
<text text-anchor="middle" x="442" y="-155.5" font-family="Helvetica,sans-Serif" font-size="10.00">UBImportCFF::importFile</text>
</a>
</g>
<!-- Node2&#45;&gt;Node3 -->
<g id="edge4" class="edge"><title>Node2&#45;&gt;Node3</title>
<path fill="none" stroke="midnightblue" d="M310.333,-134.465C334.3,-138.749 360.448,-143.423 383.08,-147.468"/>
<polygon fill="midnightblue" stroke="midnightblue" points="310.672,-130.97 300.212,-132.656 309.44,-137.861 310.672,-130.97"/>
</g>
<!-- Node4 -->
<g id="node7" class="node"><title>Node4</title>
<a xlink:href="../../d9/df2/class_u_b_import_document.html#a8678037c772af1ff6e3cea1256e64c2e" target="_top" xlink:title="UBImportDocument::importFile">
<polygon fill="white" stroke="black" points="366,-107.5 366,-128.5 518,-128.5 518,-107.5 366,-107.5"/>
<text text-anchor="middle" x="442" y="-115.5" font-family="Helvetica,sans-Serif" font-size="10.00">UBImportDocument::importFile</text>
</a>
</g>
<!-- Node2&#45;&gt;Node4 -->
<g id="edge6" class="edge"><title>Node2&#45;&gt;Node4</title>
<path fill="none" stroke="midnightblue" d="M310.402,-119.907C328.48,-119.645 347.795,-119.365 365.904,-119.103"/>
<polygon fill="midnightblue" stroke="midnightblue" points="310.16,-116.41 300.212,-120.055 310.262,-123.41 310.16,-116.41"/>
</g>
<!-- Node6 -->
<g id="node11" class="node"><title>Node6</title>
<a xlink:href="../../dd/d5a/class_u_b_document_tree_model.html#ade622c3d2ab31bbff2304db2bbbcf72a" target="_top" xlink:title="UBDocumentTreeModel\l::copyIndexToNewParent">
<polygon fill="white" stroke="black" points="378,-52 378,-86 506,-86 506,-52 378,-52"/>
<text text-anchor="start" x="386" y="-73" font-family="Helvetica,sans-Serif" font-size="10.00">UBDocumentTreeModel</text>
<text text-anchor="middle" x="442" y="-60" font-family="Helvetica,sans-Serif" font-size="10.00">::copyIndexToNewParent</text>
</a>
</g>
<!-- Node5&#45;&gt;Node6 -->
<g id="edge10" class="edge"><title>Node5&#45;&gt;Node6</title>
<path fill="none" stroke="midnightblue" d="M305.371,-69C328.806,-69 354.775,-69 377.724,-69"/>
<polygon fill="midnightblue" stroke="midnightblue" points="305.151,-65.5001 295.151,-69 305.151,-72.5001 305.151,-65.5001"/>
</g>
<!-- Node7 -->
<g id="node13" class="node"><title>Node7</title>
<a xlink:href="../../dd/d5a/class_u_b_document_tree_model.html#af71ae3d84f577bbee154dea3eb0fad66" target="_top" xlink:title="UBDocumentTreeModel\l::dropMimeData">
<polygon fill="white" stroke="black" points="564,-104 564,-138 686,-138 686,-104 564,-104"/>
<text text-anchor="start" x="572" y="-125" font-family="Helvetica,sans-Serif" font-size="10.00">UBDocumentTreeModel</text>
<text text-anchor="middle" x="625" y="-112" font-family="Helvetica,sans-Serif" font-size="10.00">::dropMimeData</text>
</a>
</g>
<!-- Node6&#45;&gt;Node7 -->
<g id="edge12" class="edge"><title>Node6&#45;&gt;Node7</title>
<path fill="none" stroke="midnightblue" d="M511.554,-88.764C529.139,-93.7608 547.873,-99.0841 564.944,-103.935"/>
<polygon fill="midnightblue" stroke="midnightblue" points="512.497,-85.3934 501.921,-86.0267 510.584,-92.1269 512.497,-85.3934"/>
</g>
<!-- Node8 -->
<g id="node15" class="node"><title>Node8</title>
<a xlink:href="../../da/d16/class_u_b_document_tree_view.html#a8364df11d6b3285ea0684673801b0b6c" target="_top" xlink:title="UBDocumentTreeView\l::dropEvent">
<polygon fill="white" stroke="black" points="566.5,-52 566.5,-86 683.5,-86 683.5,-52 566.5,-52"/>
<text text-anchor="start" x="574.5" y="-73" font-family="Helvetica,sans-Serif" font-size="10.00">UBDocumentTreeView</text>
<text text-anchor="middle" x="625" y="-60" font-family="Helvetica,sans-Serif" font-size="10.00">::dropEvent</text>
</a>
</g>
<!-- Node6&#45;&gt;Node8 -->
<g id="edge14" class="edge"><title>Node6&#45;&gt;Node8</title>
<path fill="none" stroke="midnightblue" d="M516.246,-69C532.891,-69 550.326,-69 566.24,-69"/>
<polygon fill="midnightblue" stroke="midnightblue" points="516.005,-65.5001 506.005,-69 516.004,-72.5001 516.005,-65.5001"/>
</g>
<!-- Node9 -->
<g id="node17" class="node"><title>Node9</title>
<a xlink:href="../../d6/de0/class_u_b_document_controller.html#a778970871dc49c20eb0812f352a65f75" target="_top" xlink:title="UBDocumentController\l::duplicateSelectedItem">
<polygon fill="white" stroke="black" points="565.5,-0 565.5,-34 684.5,-34 684.5,-0 565.5,-0"/>
<text text-anchor="start" x="573.5" y="-21" font-family="Helvetica,sans-Serif" font-size="10.00">UBDocumentController</text>
<text text-anchor="middle" x="625" y="-8" font-family="Helvetica,sans-Serif" font-size="10.00">::duplicateSelectedItem</text>
</a>
</g>
<!-- Node6&#45;&gt;Node9 -->
<g id="edge16" class="edge"><title>Node6&#45;&gt;Node9</title>
<path fill="none" stroke="midnightblue" d="M511.605,-49.2216C529.282,-44.1985 548.118,-38.8462 565.257,-33.9761"/>
<polygon fill="midnightblue" stroke="midnightblue" points="510.584,-45.8731 501.921,-51.9733 512.497,-52.6066 510.584,-45.8731"/>
</g>
<!-- Node10 -->
<g id="node19" class="node"><title>Node10</title>
<a xlink:href="../../d6/de0/class_u_b_document_controller.html#abb172787a34a34cd3c2df0a1b46918c5" target="_top" xlink:title="UBDocumentController\l::setupViews">
<polygon fill="white" stroke="black" points="722,-0 722,-34 840,-34 840,-0 722,-0"/>
<text text-anchor="start" x="730" y="-21" font-family="Helvetica,sans-Serif" font-size="10.00">UBDocumentController</text>
<text text-anchor="middle" x="781" y="-8" font-family="Helvetica,sans-Serif" font-size="10.00">::setupViews</text>
</a>
</g>
<!-- Node9&#45;&gt;Node10 -->
<g id="edge18" class="edge"><title>Node9&#45;&gt;Node10</title>
<path fill="none" stroke="midnightblue" d="M694.919,-17C703.898,-17 713.022,-17 721.808,-17"/>
<polygon fill="midnightblue" stroke="midnightblue" points="694.868,-13.5001 684.868,-17 694.867,-20.5001 694.868,-13.5001"/>
</g>
<!-- Node11 -->
<g id="node21" class="node"><title>Node11</title>
<a xlink:href="../../d6/de0/class_u_b_document_controller.html#a38e9ea0a2dad2b1c8d9588563e9ee3bf" target="_top" xlink:title="UBDocumentController\l::UBDocumentController">
<polygon fill="white" stroke="black" points="876,-0 876,-34 1000,-34 1000,-0 876,-0"/>
<text text-anchor="start" x="884" y="-21" font-family="Helvetica,sans-Serif" font-size="10.00">UBDocumentController</text>
<text text-anchor="middle" x="938" y="-8" font-family="Helvetica,sans-Serif" font-size="10.00">::UBDocumentController</text>
</a>
</g>
<!-- Node10&#45;&gt;Node11 -->
<g id="edge20" class="edge"><title>Node10&#45;&gt;Node11</title>
<path fill="none" stroke="midnightblue" d="M850.569,-17C859.021,-17 867.613,-17 875.946,-17"/>
<polygon fill="midnightblue" stroke="midnightblue" points="850.355,-13.5001 840.355,-17 850.355,-20.5001 850.355,-13.5001"/>
</g>
<!-- Node13 -->
<g id="node25" class="node"><title>Node13</title>
<a xlink:href="../../db/d5b/class_u_b_import_c_f_f.html#a82cf29b094bc9fb0378d4a3b179bfb29" target="_top" xlink:title="UBImportCFF::addFileToDocument">
<polygon fill="white" stroke="black" points="356,-6.5 356,-27.5 528,-27.5 528,-6.5 356,-6.5"/>
<text text-anchor="middle" x="442" y="-14.5" font-family="Helvetica,sans-Serif" font-size="10.00">UBImportCFF::addFileToDocument</text>
</a>
</g>
<!-- Node12&#45;&gt;Node13 -->
<g id="edge24" class="edge"><title>Node12&#45;&gt;Node13</title>
<path fill="none" stroke="midnightblue" d="M329.939,-17C338.627,-17 347.396,-17 355.999,-17"/>
<polygon fill="midnightblue" stroke="midnightblue" points="329.792,-13.5001 319.792,-17 329.792,-20.5001 329.792,-13.5001"/>
</g>
</g>
</svg>
        <g id="navigator" transform="translate(0 0)" fill="#404254">
                <rect fill="#f2f5e9" fill-opacity="0.5" stroke="#606060" stroke-width=".5" x="0" y="0" width="60" height="60"/>
                <use id="zoomplus" xlink:href="#zoomPlus" x="17" y="9" onmousedown="handleZoom(evt,'in')"/>
                <use id="zoomminus" xlink:href="#zoomMin" x="42" y="9" onmousedown="handleZoom(evt,'out')"/>
                <use id="reset" xlink:href="#resetDef" x="30" y="36" onmousedown="handleReset()"/>
                <g id="arrowUp" xlink:href="#dirArrow" transform="translate(30 24)" onmousedown="handlePan(0,-1)">
                  <use xlink:href="#rim" fill="#404040">
                        <set attributeName="fill" to="#808080" begin="arrowUp.mouseover" end="arrowUp.mouseout"/>
                  </use>
                  <path fill="none" stroke="white" stroke-width="1.5" d="M0,-3.0v7 M-2.5,-0.5L0,-3.0L2.5,-0.5"/>
                </g>
                <g id="arrowRight" xlink:href="#dirArrow" transform="rotate(90) translate(36 -43)" onmousedown="handlePan(1,0)">
                  <use xlink:href="#rim" fill="#404040">
                        <set attributeName="fill" to="#808080" begin="arrowRight.mouseover" end="arrowRight.mouseout"/>
                  </use>
                  <path fill="none" stroke="white" stroke-width="1.5" d="M0,-3.0v7 M-2.5,-0.5L0,-3.0L2.5,-0.5"/>
                </g>
                <g id="arrowDown" xlink:href="#dirArrow" transform="rotate(180) translate(-30 -48)" onmousedown="handlePan(0,1)">
                  <use xlink:href="#rim" fill="#404040">
                        <set attributeName="fill" to="#808080" begin="arrowDown.mouseover" end="arrowDown.mouseout"/>
                  </use>
                  <path fill="none" stroke="white" stroke-width="1.5" d="M0,-3.0v7 M-2.5,-0.5L0,-3.0L2.5,-0.5"/>
                </g>
                <g id="arrowLeft" xlink:href="#dirArrow" transform="rotate(270) translate(-36 17)" onmousedown="handlePan(-1,0)">
                  <use xlink:href="#rim" fill="#404040">
                        <set attributeName="fill" to="#808080" begin="arrowLeft.mouseover" end="arrowLeft.mouseout"/>
                  </use>
                  <path fill="none" stroke="white" stroke-width="1.5" d="M0,-3.0v7 M-2.5,-0.5L0,-3.0L2.5,-0.5"/>
                </g>
        </g>
        <svg viewBox="0 0 15 15" width="100%" height="30px" preserveAspectRatio="xMaxYMin meet">
         <g id="arrow_out" transform="scale(0.3 0.3)">
          <a xlink:href="class_u_b_svg_subset_adaptor_a665ab38f71e9d7cfd8ceb868693fb9ca_icgraph_org.svg" target="_base">
           <rect id="button" ry="5" rx="5" y="6" x="6" height="38" width="38"
                fill="#f2f5e9" fill-opacity="0.5" stroke="#606060" stroke-width="1.0"/>
           <path id="arrow"
             d="M 11.500037,31.436501 C 11.940474,20.09759 22.043105,11.32322 32.158766,21.979434 L 37.068811,17.246167 C 37.068811,17.246167 37.088388,32 37.088388,32 L 22.160133,31.978069 C 22.160133,31.978069 26.997745,27.140456 26.997745,27.140456 C 18.528582,18.264221 13.291696,25.230495 11.500037,31.436501 z"
             style="fill:#404040;"/>
          </a>
         </g>
        </svg>
</svg>
