<?xml version="1.0" encoding="UTF-8" standalone="no"?>
<!DOCTYPE svg PUBLIC "-//W3C//DTD SVG 1.1//EN"
 "http://www.w3.org/Graphics/SVG/1.1/DTD/svg11.dtd">
<!-- Generated by graphviz version 2.26.3 (20100126.1600)
 -->
<!-- Title: UBDesktopAnnotationController::onToolClicked Pages: 1 -->
<!--zoomable 222 -->
<svg id="main" version="1.1" xmlns="http://www.w3.org/2000/svg" xmlns:xlink="http://www.w3.org/1999/xlink" xml:space="preserve" onload="init(evt)">
        <defs>
                <circle id="rim" cx="0" cy="0" r="7"/>
                <circle id="rim2" cx="0" cy="0" r="3.5"/>
                <g id="zoomPlus">
                        <use xlink:href="#rim" fill="#404040">
                                <set attributeName="fill" to="#808080" begin="zoomplus.mouseover" end="zoomplus.mouseout"/>
                        </use>
                        <path d="M-4,0h8M0,-4v8" fill="none" stroke="white" stroke-width="1.5" pointer-events="none"/>
                </g>
                <g id="zoomMin">
                        <use xlink:href="#rim" fill="#404040">
                                <set attributeName="fill" to="#808080" begin="zoomminus.mouseover" end="zoomminus.mouseout"/>
                        </use>
                        <path d="M-4,0h8" fill="none" stroke="white" stroke-width="1.5" pointer-events="none"/>
                </g>
                <g id="dirArrow">
                        <path fill="none" stroke="white" stroke-width="1.5" d="M0,-3.0v7 M-2.5,-0.5L0,-3.0L2.5,-0.5"/>
                </g>
               <g id="resetDef">
                       <use xlink:href="#rim2" fill="#404040">
                               <set attributeName="fill" to="#808080" begin="reset.mouseover" end="reset.mouseout"/>
                       </use>
               </g>
        </defs>

<script type="text/javascript">
var viewWidth = 554;
var viewHeight = 222;
var sectionId = 'dynsection-32';
</script>
<script xlink:href="../../svgpan.js"/>
<svg id="graph" class="graph">
<g id="viewport">
<title>UBDesktopAnnotationController::onToolClicked</title>
<polygon fill="white" stroke="white" points="-4,5 -4,-218.243 551,-218.243 551,5 -4,5"/>
<!-- Node1 -->
<g id="node1" class="node"><title>Node1</title>
<polygon fill="#bfbfbf" stroke="black" points="0,-104 0,-138 156,-138 156,-104 0,-104"/>
<text text-anchor="start" x="8" y="-125" font-family="Helvetica,sans-Serif" font-size="10.00">UBDesktopAnnotationController</text>
<text text-anchor="middle" x="78" y="-112" font-family="Helvetica,sans-Serif" font-size="10.00">::onToolClicked</text>
</g>
<!-- Node2 -->
<g id="node3" class="node"><title>Node2</title>
<a xlink:href="../../d7/db7/class_u_b_desktop_annotation_controller.html#a1e31fa6fa39f439312757baadcaae17a" target="_top" xlink:title="UBDesktopAnnotationController\l::UBDesktopAnnotationController">
<polygon fill="white" stroke="black" points="384,-104 384,-138 546,-138 546,-104 384,-104"/>
<text text-anchor="start" x="392" y="-125" font-family="Helvetica,sans-Serif" font-size="10.00">UBDesktopAnnotationController</text>
<text text-anchor="middle" x="465" y="-112" font-family="Helvetica,sans-Serif" font-size="10.00">::UBDesktopAnnotationController</text>
</a>
</g>
<!-- Node1&#45;&gt;Node2 -->
<g id="edge2" class="edge"><title>Node1&#45;&gt;Node2</title>
<path fill="none" stroke="midnightblue" d="M103.222,-144.966C124.86,-163.759 157.872,-188.442 192,-199 258.236,-219.491 281.642,-219.092 348,-199 387.253,-187.115 425.374,-157.237 446.944,-138.101"/>
<polygon fill="midnightblue" stroke="midnightblue" points="105.302,-142.131 95.5072,-138.093 100.646,-147.358 105.302,-142.131"/>
</g>
<!-- Node3 -->
<g id="node5" class="node"><title>Node3</title>
<a xlink:href="../../d7/db7/class_u_b_desktop_annotation_controller.html#a19d0e036a5a690a92731e5f1f47a81a2" target="_top" xlink:title="UBDesktopAnnotationController\l::goToUniboard">
<polygon fill="white" stroke="black" points="192,-156 192,-190 348,-190 348,-156 192,-156"/>
<text text-anchor="start" x="200" y="-177" font-family="Helvetica,sans-Serif" font-size="10.00">UBDesktopAnnotationController</text>
<text text-anchor="middle" x="270" y="-164" font-family="Helvetica,sans-Serif" font-size="10.00">::goToUniboard</text>
</a>
</g>
<!-- Node1&#45;&gt;Node3 -->
<g id="edge4" class="edge"><title>Node1&#45;&gt;Node3</title>
<path fill="none" stroke="midnightblue" d="M150.719,-140.695C169.242,-145.712 188.997,-151.062 206.991,-155.935"/>
<polygon fill="midnightblue" stroke="midnightblue" points="151.435,-137.263 140.868,-138.027 149.605,-144.019 151.435,-137.263"/>
</g>
<!-- Node4 -->
<g id="node8" class="node"><title>Node4</title>
<a xlink:href="../../d7/db7/class_u_b_desktop_annotation_controller.html#ae51d5a0076cc7e04d4db8d5881b64c4a" target="_top" xlink:title="UBDesktopAnnotationController\l::customCapture">
<polygon fill="white" stroke="black" points="192,-104 192,-138 348,-138 348,-104 192,-104"/>
<text text-anchor="start" x="200" y="-125" font-family="Helvetica,sans-Serif" font-size="10.00">UBDesktopAnnotationController</text>
<text text-anchor="middle" x="270" y="-112" font-family="Helvetica,sans-Serif" font-size="10.00">::customCapture</text>
</a>
</g>
<!-- Node1&#45;&gt;Node4 -->
<g id="edge8" class="edge"><title>Node1&#45;&gt;Node4</title>
<path fill="none" stroke="midnightblue" d="M166.153,-121C174.769,-121 183.47,-121 191.975,-121"/>
<polygon fill="midnightblue" stroke="midnightblue" points="166.094,-117.5 156.094,-121 166.094,-124.5 166.094,-117.5"/>
</g>
<!-- Node5 -->
<g id="node11" class="node"><title>Node5</title>
<a xlink:href="../../d7/db7/class_u_b_desktop_annotation_controller.html#a36e716d542c4fcf7672d61c44b846998" target="_top" xlink:title="UBDesktopAnnotationController\l::windowCapture">
<polygon fill="white" stroke="black" points="192,-52 192,-86 348,-86 348,-52 192,-52"/>
<text text-anchor="start" x="200" y="-73" font-family="Helvetica,sans-Serif" font-size="10.00">UBDesktopAnnotationController</text>
<text text-anchor="middle" x="270" y="-60" font-family="Helvetica,sans-Serif" font-size="10.00">::windowCapture</text>
</a>
</g>
<!-- Node1&#45;&gt;Node5 -->
<g id="edge12" class="edge"><title>Node1&#45;&gt;Node5</title>
<path fill="none" stroke="midnightblue" d="M150.719,-101.305C169.242,-96.2885 188.997,-90.9384 206.991,-86.065"/>
<polygon fill="midnightblue" stroke="midnightblue" points="149.605,-97.9807 140.868,-103.973 151.435,-104.737 149.605,-97.9807"/>
</g>
<!-- Node6 -->
<g id="node14" class="node"><title>Node6</title>
<a xlink:href="../../d7/db7/class_u_b_desktop_annotation_controller.html#a674888720a2e749717d072657b7f8833" target="_top" xlink:title="UBDesktopAnnotationController\l::screenCapture">
<polygon fill="white" stroke="black" points="192,-0 192,-34 348,-34 348,-0 192,-0"/>
<text text-anchor="start" x="200" y="-21" font-family="Helvetica,sans-Serif" font-size="10.00">UBDesktopAnnotationController</text>
<text text-anchor="middle" x="270" y="-8" font-family="Helvetica,sans-Serif" font-size="10.00">::screenCapture</text>
</a>
</g>
<!-- Node1&#45;&gt;Node6 -->
<g id="edge16" class="edge"><title>Node1&#45;&gt;Node6</title>
<path fill="none" stroke="midnightblue" d="M107.184,-97.6544C129.42,-80.7275 161.337,-58.2265 192,-43 198.52,-39.7623 205.538,-36.7827 212.597,-34.0869"/>
<polygon fill="midnightblue" stroke="midnightblue" points="104.941,-94.9642 99.1591,-103.842 109.216,-100.508 104.941,-94.9642"/>
</g>
<!-- Node3&#45;&gt;Node2 -->
<g id="edge6" class="edge"><title>Node3&#45;&gt;Node2</title>
<path fill="none" stroke="midnightblue" d="M343.595,-153.375C362.483,-148.338 382.647,-142.961 401.006,-138.065"/>
<polygon fill="midnightblue" stroke="midnightblue" points="342.611,-150.015 333.85,-155.973 344.414,-156.778 342.611,-150.015"/>
</g>
<!-- Node4&#45;&gt;Node2 -->
<g id="edge10" class="edge"><title>Node4&#45;&gt;Node2</title>
<path fill="none" stroke="midnightblue" d="M358.191,-121C366.761,-121 375.428,-121 383.924,-121"/>
<polygon fill="midnightblue" stroke="midnightblue" points="358.19,-117.5 348.19,-121 358.19,-124.5 358.19,-117.5"/>
</g>
<!-- Node5&#45;&gt;Node2 -->
<g id="edge14" class="edge"><title>Node5&#45;&gt;Node2</title>
<path fill="none" stroke="midnightblue" d="M343.595,-88.6253C362.483,-93.6622 382.647,-99.0392 401.006,-103.935"/>
<polygon fill="midnightblue" stroke="midnightblue" points="344.414,-85.2216 333.85,-86.0267 342.611,-91.9853 344.414,-85.2216"/>
</g>
<!-- Node6&#45;&gt;Node2 -->
<g id="edge18" class="edge"><title>Node6&#45;&gt;Node2</title>
<path fill="none" stroke="midnightblue" d="M336.35,-37.7419C340.338,-39.411 344.249,-41.1656 348,-43 383.308,-60.2684 420.481,-86.6672 443.209,-103.882"/>
<polygon fill="midnightblue" stroke="midnightblue" points="337.536,-34.4468 326.95,-34.005 334.95,-40.9517 337.536,-34.4468"/>
</g>
</g>
</svg>
        <g id="navigator" transform="translate(0 0)" fill="#404254">
                <rect fill="#f2f5e9" fill-opacity="0.5" stroke="#606060" stroke-width=".5" x="0" y="0" width="60" height="60"/>
                <use id="zoomplus" xlink:href="#zoomPlus" x="17" y="9" onmousedown="handleZoom(evt,'in')"/>
                <use id="zoomminus" xlink:href="#zoomMin" x="42" y="9" onmousedown="handleZoom(evt,'out')"/>
                <use id="reset" xlink:href="#resetDef" x="30" y="36" onmousedown="handleReset()"/>
                <g id="arrowUp" xlink:href="#dirArrow" transform="translate(30 24)" onmousedown="handlePan(0,-1)">
                  <use xlink:href="#rim" fill="#404040">
                        <set attributeName="fill" to="#808080" begin="arrowUp.mouseover" end="arrowUp.mouseout"/>
                  </use>
                  <path fill="none" stroke="white" stroke-width="1.5" d="M0,-3.0v7 M-2.5,-0.5L0,-3.0L2.5,-0.5"/>
                </g>
                <g id="arrowRight" xlink:href="#dirArrow" transform="rotate(90) translate(36 -43)" onmousedown="handlePan(1,0)">
                  <use xlink:href="#rim" fill="#404040">
                        <set attributeName="fill" to="#808080" begin="arrowRight.mouseover" end="arrowRight.mouseout"/>
                  </use>
                  <path fill="none" stroke="white" stroke-width="1.5" d="M0,-3.0v7 M-2.5,-0.5L0,-3.0L2.5,-0.5"/>
                </g>
                <g id="arrowDown" xlink:href="#dirArrow" transform="rotate(180) translate(-30 -48)" onmousedown="handlePan(0,1)">
                  <use xlink:href="#rim" fill="#404040">
                        <set attributeName="fill" to="#808080" begin="arrowDown.mouseover" end="arrowDown.mouseout"/>
                  </use>
                  <path fill="none" stroke="white" stroke-width="1.5" d="M0,-3.0v7 M-2.5,-0.5L0,-3.0L2.5,-0.5"/>
                </g>
                <g id="arrowLeft" xlink:href="#dirArrow" transform="rotate(270) translate(-36 17)" onmousedown="handlePan(-1,0)">
                  <use xlink:href="#rim" fill="#404040">
                        <set attributeName="fill" to="#808080" begin="arrowLeft.mouseover" end="arrowLeft.mouseout"/>
                  </use>
                  <path fill="none" stroke="white" stroke-width="1.5" d="M0,-3.0v7 M-2.5,-0.5L0,-3.0L2.5,-0.5"/>
                </g>
        </g>
        <svg viewBox="0 0 15 15" width="100%" height="30px" preserveAspectRatio="xMaxYMin meet">
         <g id="arrow_out" transform="scale(0.3 0.3)">
          <a xlink:href="class_u_b_desktop_annotation_controller_a55441e2b08beb5b3b576e339e4b941cc_icgraph_org.svg" target="_base">
           <rect id="button" ry="5" rx="5" y="6" x="6" height="38" width="38"
                fill="#f2f5e9" fill-opacity="0.5" stroke="#606060" stroke-width="1.0"/>
           <path id="arrow"
             d="M 11.500037,31.436501 C 11.940474,20.09759 22.043105,11.32322 32.158766,21.979434 L 37.068811,17.246167 C 37.068811,17.246167 37.088388,32 37.088388,32 L 22.160133,31.978069 C 22.160133,31.978069 26.997745,27.140456 26.997745,27.140456 C 18.528582,18.264221 13.291696,25.230495 11.500037,31.436501 z"
             style="fill:#404040;"/>
          </a>
         </g>
        </svg>
</svg>
