<?xml version="1.0" encoding="UTF-8" standalone="no"?>
<!DOCTYPE svg PUBLIC "-//W3C//DTD SVG 1.1//EN"
 "http://www.w3.org/Graphics/SVG/1.1/DTD/svg11.dtd">
<!-- Generated by graphviz version 2.26.3 (20100126.1600)
 -->
<!-- Title: UBDesktopAnnotationController::refreshMask Pages: 1 -->
<svg width="1726pt" height="700pt"
 viewBox="0.00 0.00 1726.00 700.06" xmlns="http://www.w3.org/2000/svg" xmlns:xlink="http://www.w3.org/1999/xlink">
<g id="graph1" class="graph" transform="scale(1 1) rotate(0) translate(4 696.057)">
<title>UBDesktopAnnotationController::refreshMask</title>
<polygon fill="white" stroke="white" points="-4,5 -4,-696.057 1723,-696.057 1723,5 -4,5"/>
<!-- Node1 -->
<g id="node1" class="node"><title>Node1</title>
<polygon fill="#bfbfbf" stroke="black" points="0,-279.073 0,-313.073 156,-313.073 156,-279.073 0,-279.073"/>
<text text-anchor="start" x="8" y="-300.073" font-family="Helvetica,sans-Serif" font-size="10.00">UBDesktopAnnotationController</text>
<text text-anchor="middle" x="78" y="-287.073" font-family="Helvetica,sans-Serif" font-size="10.00">::refreshMask</text>
</g>
<!-- Node2 -->
<g id="node3" class="node"><title>Node2</title>
<a xlink:href="../../d0/d58/class_u_b_drawing_controller.html#a9d2d10417806a2d7303df24b820f2ab3" target="_top" xlink:title="UBDrawingController\l::drawingController">
<polygon fill="white" stroke="black" points="215.5,-331.073 215.5,-365.073 324.5,-365.073 324.5,-331.073 215.5,-331.073"/>
<text text-anchor="start" x="223.5" y="-352.073" font-family="Helvetica,sans-Serif" font-size="10.00">UBDrawingController</text>
<text text-anchor="middle" x="270" y="-339.073" font-family="Helvetica,sans-Serif" font-size="10.00">::drawingController</text>
</a>
</g>
<!-- Node1&#45;&gt;Node2 -->
<g id="edge2" class="edge"><title>Node1&#45;&gt;Node2</title>
<path fill="none" stroke="midnightblue" d="M140.868,-313.1C161.639,-318.726 184.769,-324.99 205.649,-330.645"/>
<polygon fill="midnightblue" stroke="midnightblue" points="204.815,-334.045 215.382,-333.281 206.645,-327.288 204.815,-334.045"/>
</g>
<!-- Node33 -->
<g id="node79" class="node"><title>Node33</title>
<a xlink:href="../../d0/d58/class_u_b_drawing_controller.html#a244d6a9a4638309428bcf0c29531b872" target="_top" xlink:title="UBDrawingController\l::stylusTool">
<polygon fill="white" stroke="black" points="215.5,-279.073 215.5,-313.073 324.5,-313.073 324.5,-279.073 215.5,-279.073"/>
<text text-anchor="start" x="223.5" y="-300.073" font-family="Helvetica,sans-Serif" font-size="10.00">UBDrawingController</text>
<text text-anchor="middle" x="270" y="-287.073" font-family="Helvetica,sans-Serif" font-size="10.00">::stylusTool</text>
</a>
</g>
<!-- Node1&#45;&gt;Node33 -->
<g id="edge92" class="edge"><title>Node1&#45;&gt;Node33</title>
<path fill="none" stroke="midnightblue" d="M156.094,-296.073C172.446,-296.073 189.516,-296.073 205.315,-296.073"/>
<polygon fill="midnightblue" stroke="midnightblue" points="205.494,-299.573 215.494,-296.073 205.494,-292.573 205.494,-299.573"/>
</g>
<!-- Node34 -->
<g id="node81" class="node"><title>Node34</title>
<a xlink:href="../../d7/db7/class_u_b_desktop_annotation_controller.html#a6591e3a3376a4a23ab4bc3781cb790a9" target="_top" xlink:title="UBDesktopAnnotationController\l::updateMask">
<polygon fill="white" stroke="black" points="192,-227.073 192,-261.073 348,-261.073 348,-227.073 192,-227.073"/>
<text text-anchor="start" x="200" y="-248.073" font-family="Helvetica,sans-Serif" font-size="10.00">UBDesktopAnnotationController</text>
<text text-anchor="middle" x="270" y="-235.073" font-family="Helvetica,sans-Serif" font-size="10.00">::updateMask</text>
</a>
</g>
<!-- Node1&#45;&gt;Node34 -->
<g id="edge94" class="edge"><title>Node1&#45;&gt;Node34</title>
<path fill="none" stroke="midnightblue" d="M140.868,-279.047C158.853,-274.176 178.606,-268.826 197.136,-263.807"/>
<polygon fill="midnightblue" stroke="midnightblue" points="198.253,-267.131 206.991,-261.138 196.424,-260.374 198.253,-267.131"/>
</g>
<!-- Node3 -->
<g id="node5" class="node"><title>Node3</title>
<a xlink:href="../../d0/d58/class_u_b_drawing_controller.html#a381f5fe1a1745d30bc1abb102ebb3c15" target="_top" xlink:title="UBDrawingController\l::UBDrawingController">
<polygon fill="white" stroke="black" points="384.5,-331.073 384.5,-365.073 499.5,-365.073 499.5,-331.073 384.5,-331.073"/>
<text text-anchor="start" x="392.5" y="-352.073" font-family="Helvetica,sans-Serif" font-size="10.00">UBDrawingController</text>
<text text-anchor="middle" x="442" y="-339.073" font-family="Helvetica,sans-Serif" font-size="10.00">::UBDrawingController</text>
</a>
</g>
<!-- Node2&#45;&gt;Node3 -->
<g id="edge4" class="edge"><title>Node2&#45;&gt;Node3</title>
<path fill="none" stroke="midnightblue" d="M324.895,-348.073C340.608,-348.073 357.923,-348.073 374.308,-348.073"/>
<polygon fill="midnightblue" stroke="midnightblue" points="374.367,-351.573 384.367,-348.073 374.367,-344.573 374.367,-351.573"/>
</g>
<!-- Node4 -->
<g id="node7" class="node"><title>Node4</title>
<a xlink:href="../../db/d66/class_u_b_settings.html#a0d8ed418921c2b2d37851faeae00715d" target="_top" xlink:title="UBSettings::settings">
<polygon fill="white" stroke="black" points="854.5,-577.573 854.5,-598.573 961.5,-598.573 961.5,-577.573 854.5,-577.573"/>
<text text-anchor="middle" x="908" y="-585.573" font-family="Helvetica,sans-Serif" font-size="10.00">UBSettings::settings</text>
</a>
</g>
<!-- Node3&#45;&gt;Node4 -->
<g id="edge6" class="edge"><title>Node3&#45;&gt;Node4</title>
<path fill="none" stroke="midnightblue" d="M444.512,-365.456C453.602,-425.655 486.847,-623.547 536,-660.073 644.952,-741.038 819.961,-644.697 883.746,-604.283"/>
<polygon fill="midnightblue" stroke="midnightblue" points="885.817,-607.112 892.328,-598.754 882.026,-601.227 885.817,-607.112"/>
</g>
<!-- Node14 -->
<g id="node28" class="node"><title>Node14</title>
<a xlink:href="../../d0/d58/class_u_b_drawing_controller.html#a6f11f789e8f99d826910541657502b35" target="_top" xlink:title="UBDrawingController\l::colorPaletteChanged">
<polygon fill="white" stroke="black" points="851.5,-88.0734 851.5,-122.073 964.5,-122.073 964.5,-88.0734 851.5,-88.0734"/>
<text text-anchor="start" x="859.5" y="-109.073" font-family="Helvetica,sans-Serif" font-size="10.00">UBDrawingController</text>
<text text-anchor="middle" x="908" y="-96.0734" font-family="Helvetica,sans-Serif" font-size="10.00">::colorPaletteChanged</text>
</a>
</g>
<!-- Node3&#45;&gt;Node14 -->
<g id="edge28" class="edge"><title>Node3&#45;&gt;Node14</title>
<path fill="none" stroke="midnightblue" d="M458.575,-331.041C472.001,-316.192 490.236,-293.427 500,-270.073 540.59,-172.994 456.139,-104.588 536,-36.0734 634.245,48.213 801.68,-38.1595 873.558,-82.3898"/>
<polygon fill="midnightblue" stroke="midnightblue" points="871.908,-85.4859 882.243,-87.817 875.618,-79.5496 871.908,-85.4859"/>
</g>
<!-- Node15 -->
<g id="node30" class="node"><title>Node15</title>
<a xlink:href="../../d0/d58/class_u_b_drawing_controller.html#ac50b8d2611584f1b6ce34246bcd89ec6" target="_top" xlink:title="UBDrawingController\l::penToolSelected">
<polygon fill="white" stroke="black" points="541.5,-617.073 541.5,-651.073 650.5,-651.073 650.5,-617.073 541.5,-617.073"/>
<text text-anchor="start" x="549.5" y="-638.073" font-family="Helvetica,sans-Serif" font-size="10.00">UBDrawingController</text>
<text text-anchor="middle" x="596" y="-625.073" font-family="Helvetica,sans-Serif" font-size="10.00">::penToolSelected</text>
</a>
</g>
<!-- Node3&#45;&gt;Node15 -->
<g id="edge30" class="edge"><title>Node3&#45;&gt;Node15</title>
<path fill="none" stroke="midnightblue" d="M443.571,-365.376C448.586,-410.969 468.12,-535.849 536,-608.073 536.897,-609.027 537.834,-609.948 538.807,-610.837"/>
<polygon fill="midnightblue" stroke="midnightblue" points="536.809,-613.715 546.869,-617.037 541.076,-608.166 536.809,-613.715"/>
</g>
<!-- Node22 -->
<g id="node46" class="node"><title>Node22</title>
<a xlink:href="../../d0/d58/class_u_b_drawing_controller.html#ac9bd7039ea57fe9a8162b31ed4758148" target="_top" xlink:title="UBDrawingController\l::eraserToolSelected">
<polygon fill="white" stroke="black" points="541.5,-565.073 541.5,-599.073 650.5,-599.073 650.5,-565.073 541.5,-565.073"/>
<text text-anchor="start" x="549.5" y="-586.073" font-family="Helvetica,sans-Serif" font-size="10.00">UBDrawingController</text>
<text text-anchor="middle" x="596" y="-573.073" font-family="Helvetica,sans-Serif" font-size="10.00">::eraserToolSelected</text>
</a>
</g>
<!-- Node3&#45;&gt;Node22 -->
<g id="edge48" class="edge"><title>Node3&#45;&gt;Node22</title>
<path fill="none" stroke="midnightblue" d="M445.355,-365.303C453.791,-404.315 479.383,-500.33 536,-556.073 537.062,-557.119 538.172,-558.125 539.324,-559.094"/>
<polygon fill="midnightblue" stroke="midnightblue" points="537.282,-561.937 547.438,-564.956 541.382,-556.263 537.282,-561.937"/>
</g>
<!-- Node23 -->
<g id="node49" class="node"><title>Node23</title>
<a xlink:href="../../d0/d58/class_u_b_drawing_controller.html#ac4008b36aa26e54eb31c34525eda6b7b" target="_top" xlink:title="UBDrawingController\l::markerToolSelected">
<polygon fill="white" stroke="black" points="541,-513.073 541,-547.073 651,-547.073 651,-513.073 541,-513.073"/>
<text text-anchor="start" x="549" y="-534.073" font-family="Helvetica,sans-Serif" font-size="10.00">UBDrawingController</text>
<text text-anchor="middle" x="596" y="-521.073" font-family="Helvetica,sans-Serif" font-size="10.00">::markerToolSelected</text>
</a>
</g>
<!-- Node3&#45;&gt;Node23 -->
<g id="edge52" class="edge"><title>Node3&#45;&gt;Node23</title>
<path fill="none" stroke="midnightblue" d="M448.311,-365.447C460.591,-397.042 490.543,-464.309 536,-504.073 537.322,-505.23 538.703,-506.341 540.131,-507.409"/>
<polygon fill="midnightblue" stroke="midnightblue" points="538.464,-510.501 548.746,-513.056 542.302,-504.647 538.464,-510.501"/>
</g>
<!-- Node24 -->
<g id="node52" class="node"><title>Node24</title>
<a xlink:href="../../d0/d58/class_u_b_drawing_controller.html#a26cd871f064f2f1949bd3b46982b7c18" target="_top" xlink:title="UBDrawingController\l::selectorToolSelected">
<polygon fill="white" stroke="black" points="539,-461.073 539,-495.073 653,-495.073 653,-461.073 539,-461.073"/>
<text text-anchor="start" x="547" y="-482.073" font-family="Helvetica,sans-Serif" font-size="10.00">UBDrawingController</text>
<text text-anchor="middle" x="596" y="-469.073" font-family="Helvetica,sans-Serif" font-size="10.00">::selectorToolSelected</text>
</a>
</g>
<!-- Node3&#45;&gt;Node24 -->
<g id="edge56" class="edge"><title>Node3&#45;&gt;Node24</title>
<path fill="none" stroke="midnightblue" d="M453.883,-365.263C470.175,-387.762 501.395,-427.244 536,-452.073 537.836,-453.391 539.75,-454.661 541.717,-455.882"/>
<polygon fill="midnightblue" stroke="midnightblue" points="540.193,-459.041 550.618,-460.927 543.644,-452.951 540.193,-459.041"/>
</g>
<!-- Node25 -->
<g id="node55" class="node"><title>Node25</title>
<a xlink:href="../../d0/d58/class_u_b_drawing_controller.html#a684d708764de024a6ef0b77d14b7f0e3" target="_top" xlink:title="UBDrawingController\l::playToolSelected">
<polygon fill="white" stroke="black" points="541.5,-409.073 541.5,-443.073 650.5,-443.073 650.5,-409.073 541.5,-409.073"/>
<text text-anchor="start" x="549.5" y="-430.073" font-family="Helvetica,sans-Serif" font-size="10.00">UBDrawingController</text>
<text text-anchor="middle" x="596" y="-417.073" font-family="Helvetica,sans-Serif" font-size="10.00">::playToolSelected</text>
</a>
</g>
<!-- Node3&#45;&gt;Node25 -->
<g id="edge60" class="edge"><title>Node3&#45;&gt;Node25</title>
<path fill="none" stroke="midnightblue" d="M471.249,-365.208C489.608,-375.723 513.909,-389.208 536,-400.073 539.152,-401.623 542.418,-403.179 545.725,-404.715"/>
<polygon fill="midnightblue" stroke="midnightblue" points="544.54,-408.021 555.091,-408.975 547.438,-401.649 544.54,-408.021"/>
</g>
<!-- Node26 -->
<g id="node58" class="node"><title>Node26</title>
<a xlink:href="../../d0/d58/class_u_b_drawing_controller.html#af8d76f9b5b29b793a0b2b710cd7a970b" target="_top" xlink:title="UBDrawingController\l::handToolSelected">
<polygon fill="white" stroke="black" points="541.5,-357.073 541.5,-391.073 650.5,-391.073 650.5,-357.073 541.5,-357.073"/>
<text text-anchor="start" x="549.5" y="-378.073" font-family="Helvetica,sans-Serif" font-size="10.00">UBDrawingController</text>
<text text-anchor="middle" x="596" y="-365.073" font-family="Helvetica,sans-Serif" font-size="10.00">::handToolSelected</text>
</a>
</g>
<!-- Node3&#45;&gt;Node26 -->
<g id="edge64" class="edge"><title>Node3&#45;&gt;Node26</title>
<path fill="none" stroke="midnightblue" d="M499.782,-357.829C510.13,-359.576 520.974,-361.407 531.497,-363.183"/>
<polygon fill="midnightblue" stroke="midnightblue" points="531.018,-366.652 541.462,-364.866 532.184,-359.75 531.018,-366.652"/>
</g>
<!-- Node27 -->
<g id="node61" class="node"><title>Node27</title>
<a xlink:href="../../d0/d58/class_u_b_drawing_controller.html#afb286643f18871b50ebd9421ca692914" target="_top" xlink:title="UBDrawingController\l::zoomInToolSelected">
<polygon fill="white" stroke="black" points="540,-305.073 540,-339.073 652,-339.073 652,-305.073 540,-305.073"/>
<text text-anchor="start" x="548" y="-326.073" font-family="Helvetica,sans-Serif" font-size="10.00">UBDrawingController</text>
<text text-anchor="middle" x="596" y="-313.073" font-family="Helvetica,sans-Serif" font-size="10.00">::zoomInToolSelected</text>
</a>
</g>
<!-- Node3&#45;&gt;Node27 -->
<g id="edge68" class="edge"><title>Node3&#45;&gt;Node27</title>
<path fill="none" stroke="midnightblue" d="M499.782,-338.318C509.64,-336.654 519.946,-334.914 529.998,-333.217"/>
<polygon fill="midnightblue" stroke="midnightblue" points="530.66,-336.654 539.938,-331.538 529.495,-329.752 530.66,-336.654"/>
</g>
<!-- Node28 -->
<g id="node64" class="node"><title>Node28</title>
<a xlink:href="../../d0/d58/class_u_b_drawing_controller.html#a767b7c2868c614a0905cb9951ed11672" target="_top" xlink:title="UBDrawingController\l::zoomOutToolSelected">
<polygon fill="white" stroke="black" points="536.5,-253.073 536.5,-287.073 655.5,-287.073 655.5,-253.073 536.5,-253.073"/>
<text text-anchor="start" x="544.5" y="-274.073" font-family="Helvetica,sans-Serif" font-size="10.00">UBDrawingController</text>
<text text-anchor="middle" x="596" y="-261.073" font-family="Helvetica,sans-Serif" font-size="10.00">::zoomOutToolSelected</text>
</a>
</g>
<!-- Node3&#45;&gt;Node28 -->
<g id="edge72" class="edge"><title>Node3&#45;&gt;Node28</title>
<path fill="none" stroke="midnightblue" d="M471.249,-330.939C489.608,-320.424 513.909,-306.938 536,-296.073 539.152,-294.523 542.418,-292.968 545.725,-291.432"/>
<polygon fill="midnightblue" stroke="midnightblue" points="547.438,-294.498 555.091,-287.172 544.54,-288.126 547.438,-294.498"/>
</g>
<!-- Node29 -->
<g id="node67" class="node"><title>Node29</title>
<a xlink:href="../../d0/d58/class_u_b_drawing_controller.html#a9ba30f83d57b0caab30ae82bc8f1e1ee" target="_top" xlink:title="UBDrawingController\l::pointerToolSelected">
<polygon fill="white" stroke="black" points="541.5,-201.073 541.5,-235.073 650.5,-235.073 650.5,-201.073 541.5,-201.073"/>
<text text-anchor="start" x="549.5" y="-222.073" font-family="Helvetica,sans-Serif" font-size="10.00">UBDrawingController</text>
<text text-anchor="middle" x="596" y="-209.073" font-family="Helvetica,sans-Serif" font-size="10.00">::pointerToolSelected</text>
</a>
</g>
<!-- Node3&#45;&gt;Node29 -->
<g id="edge76" class="edge"><title>Node3&#45;&gt;Node29</title>
<path fill="none" stroke="midnightblue" d="M453.883,-330.884C470.175,-308.385 501.395,-268.903 536,-244.073 537.836,-242.756 539.75,-241.486 541.717,-240.265"/>
<polygon fill="midnightblue" stroke="midnightblue" points="543.644,-243.195 550.618,-235.219 540.193,-237.105 543.644,-243.195"/>
</g>
<!-- Node30 -->
<g id="node70" class="node"><title>Node30</title>
<a xlink:href="../../d0/d58/class_u_b_drawing_controller.html#a2cbdc9d4445dd8abcc4a59b2a6d28c0d" target="_top" xlink:title="UBDrawingController\l::lineToolSelected">
<polygon fill="white" stroke="black" points="541.5,-149.073 541.5,-183.073 650.5,-183.073 650.5,-149.073 541.5,-149.073"/>
<text text-anchor="start" x="549.5" y="-170.073" font-family="Helvetica,sans-Serif" font-size="10.00">UBDrawingController</text>
<text text-anchor="middle" x="596" y="-157.073" font-family="Helvetica,sans-Serif" font-size="10.00">::lineToolSelected</text>
</a>
</g>
<!-- Node3&#45;&gt;Node30 -->
<g id="edge80" class="edge"><title>Node3&#45;&gt;Node30</title>
<path fill="none" stroke="midnightblue" d="M456.455,-330.833C468.911,-315.491 486.903,-292.128 500,-270.073 519.496,-237.245 508.687,-218.752 536,-192.073 537.066,-191.032 538.18,-190.029 539.335,-189.064"/>
<polygon fill="midnightblue" stroke="midnightblue" points="541.389,-191.898 547.466,-183.219 537.303,-186.214 541.389,-191.898"/>
</g>
<!-- Node31 -->
<g id="node73" class="node"><title>Node31</title>
<a xlink:href="../../d0/d58/class_u_b_drawing_controller.html#aec62d39119a747c11bf8b46f9e19b7ca" target="_top" xlink:title="UBDrawingController\l::textToolSelected">
<polygon fill="white" stroke="black" points="541.5,-97.0734 541.5,-131.073 650.5,-131.073 650.5,-97.0734 541.5,-97.0734"/>
<text text-anchor="start" x="549.5" y="-118.073" font-family="Helvetica,sans-Serif" font-size="10.00">UBDrawingController</text>
<text text-anchor="middle" x="596" y="-105.073" font-family="Helvetica,sans-Serif" font-size="10.00">::textToolSelected</text>
</a>
</g>
<!-- Node3&#45;&gt;Node31 -->
<g id="edge84" class="edge"><title>Node3&#45;&gt;Node31</title>
<path fill="none" stroke="midnightblue" d="M457.619,-331.025C470.639,-315.989 488.807,-292.965 500,-270.073 526.334,-216.215 496.648,-185.303 536,-140.073 536.727,-139.238 537.485,-138.429 538.271,-137.645"/>
<polygon fill="midnightblue" stroke="midnightblue" points="540.536,-140.314 546.018,-131.247 536.079,-134.917 540.536,-140.314"/>
</g>
<!-- Node32 -->
<g id="node76" class="node"><title>Node32</title>
<a xlink:href="../../d0/d58/class_u_b_drawing_controller.html#a6746622a5b605c5de8e3d5bdabf05aee" target="_top" xlink:title="UBDrawingController\l::captureToolSelected">
<polygon fill="white" stroke="black" points="540,-45.0734 540,-79.0734 652,-79.0734 652,-45.0734 540,-45.0734"/>
<text text-anchor="start" x="548" y="-66.0734" font-family="Helvetica,sans-Serif" font-size="10.00">UBDrawingController</text>
<text text-anchor="middle" x="596" y="-53.0734" font-family="Helvetica,sans-Serif" font-size="10.00">::captureToolSelected</text>
</a>
</g>
<!-- Node3&#45;&gt;Node32 -->
<g id="edge88" class="edge"><title>Node3&#45;&gt;Node32</title>
<path fill="none" stroke="midnightblue" d="M458.32,-330.931C471.591,-316.016 489.74,-293.214 500,-270.073 533.421,-194.694 484.243,-152.262 536,-88.0734 536.592,-87.3388 537.209,-86.6244 537.849,-85.9298"/>
<polygon fill="midnightblue" stroke="midnightblue" points="540.276,-88.4564 545.464,-79.219 535.648,-83.2046 540.276,-88.4564"/>
</g>
<!-- Node5 -->
<g id="node9" class="node"><title>Node5</title>
<a xlink:href="../../db/d66/class_u_b_settings.html#ad703e9b5a7efdb68b9c6ecef0df7cce2" target="_top" xlink:title="UBSettings::UBSettings">
<polygon fill="white" stroke="black" points="1014.5,-577.573 1014.5,-598.573 1137.5,-598.573 1137.5,-577.573 1014.5,-577.573"/>
<text text-anchor="middle" x="1076" y="-585.573" font-family="Helvetica,sans-Serif" font-size="10.00">UBSettings::UBSettings</text>
</a>
</g>
<!-- Node4&#45;&gt;Node5 -->
<g id="edge8" class="edge"><title>Node4&#45;&gt;Node5</title>
<path fill="none" stroke="midnightblue" d="M961.618,-588.073C975.141,-588.073 989.878,-588.073 1004.14,-588.073"/>
<polygon fill="midnightblue" stroke="midnightblue" points="1004.41,-591.573 1014.41,-588.073 1004.41,-584.573 1004.41,-591.573"/>
</g>
<!-- Node6 -->
<g id="node11" class="node"><title>Node6</title>
<a xlink:href="../../db/d66/class_u_b_settings.html#afd0d739b2cfac7e2d05be7415f6692df" target="_top" xlink:title="UBSettings::InitKeyboard\lPaletteKeyBtnSizes">
<polygon fill="white" stroke="black" points="1186,-616.073 1186,-650.073 1314,-650.073 1314,-616.073 1186,-616.073"/>
<text text-anchor="start" x="1194" y="-637.073" font-family="Helvetica,sans-Serif" font-size="10.00">UBSettings::InitKeyboard</text>
<text text-anchor="middle" x="1250" y="-624.073" font-family="Helvetica,sans-Serif" font-size="10.00">PaletteKeyBtnSizes</text>
</a>
</g>
<!-- Node5&#45;&gt;Node6 -->
<g id="edge10" class="edge"><title>Node5&#45;&gt;Node6</title>
<path fill="none" stroke="midnightblue" d="M1116.8,-598.624C1134.49,-603.2 1155.78,-608.706 1176.09,-613.96"/>
<polygon fill="midnightblue" stroke="midnightblue" points="1175.41,-617.398 1185.97,-616.513 1177.16,-610.621 1175.41,-617.398"/>
</g>
<!-- Node7 -->
<g id="node13" class="node"><title>Node7</title>
<a xlink:href="../../db/d66/class_u_b_settings.html#a2d3413f8b25d64a698d6d83e0f18ff39" target="_top" xlink:title="UBSettings::getAppSettings">
<polygon fill="white" stroke="black" points="1364,-578.573 1364,-599.573 1504,-599.573 1504,-578.573 1364,-578.573"/>
<text text-anchor="middle" x="1434" y="-586.573" font-family="Helvetica,sans-Serif" font-size="10.00">UBSettings::getAppSettings</text>
</a>
</g>
<!-- Node5&#45;&gt;Node7 -->
<g id="edge12" class="edge"><title>Node5&#45;&gt;Node7</title>
<path fill="none" stroke="midnightblue" d="M1137.54,-588.245C1197.22,-588.412 1288.09,-588.666 1353.49,-588.849"/>
<polygon fill="midnightblue" stroke="midnightblue" points="1353.75,-592.349 1363.76,-588.877 1353.77,-585.349 1353.75,-592.349"/>
</g>
<!-- Node9 -->
<g id="node17" class="node"><title>Node9</title>
<a xlink:href="../../db/d66/class_u_b_settings.html#af38d2ad231149df734ca7b5486356500" target="_top" xlink:title="UBSettings::userDataDirectory">
<polygon fill="white" stroke="black" points="1174,-538.573 1174,-559.573 1326,-559.573 1326,-538.573 1174,-538.573"/>
<text text-anchor="middle" x="1250" y="-546.573" font-family="Helvetica,sans-Serif" font-size="10.00">UBSettings::userDataDirectory</text>
</a>
</g>
<!-- Node5&#45;&gt;Node9 -->
<g id="edge16" class="edge"><title>Node5&#45;&gt;Node9</title>
<path fill="none" stroke="midnightblue" d="M1123.09,-577.519C1144.65,-572.685 1170.4,-566.915 1193.05,-561.839"/>
<polygon fill="midnightblue" stroke="midnightblue" points="1193.88,-565.238 1202.88,-559.636 1192.35,-558.408 1193.88,-565.238"/>
</g>
<!-- Node8 -->
<g id="node15" class="node"><title>Node8</title>
<a xlink:href="../../d4/d99/class_u_b_platform_utils.html#ae595b29e794b20564550fd45515fc0a8" target="_top" xlink:title="UBPlatformUtils::application\lResourcesDirectory">
<polygon fill="white" stroke="black" points="1560,-575.073 1560,-609.073 1700,-609.073 1700,-575.073 1560,-575.073"/>
<text text-anchor="start" x="1568" y="-596.073" font-family="Helvetica,sans-Serif" font-size="10.00">UBPlatformUtils::application</text>
<text text-anchor="middle" x="1630" y="-583.073" font-family="Helvetica,sans-Serif" font-size="10.00">ResourcesDirectory</text>
</a>
</g>
<!-- Node7&#45;&gt;Node8 -->
<g id="edge14" class="edge"><title>Node7&#45;&gt;Node8</title>
<path fill="none" stroke="midnightblue" d="M1504.21,-590.148C1518.93,-590.373 1534.57,-590.613 1549.64,-590.843"/>
<polygon fill="midnightblue" stroke="midnightblue" points="1549.9,-594.348 1559.95,-591.001 1550.01,-587.349 1549.9,-594.348"/>
</g>
<!-- Node9&#45;&gt;Node7 -->
<g id="edge18" class="edge"><title>Node9&#45;&gt;Node7</title>
<path fill="none" stroke="midnightblue" d="M1298.34,-559.583C1322.02,-564.73 1350.72,-570.969 1375.61,-576.38"/>
<polygon fill="midnightblue" stroke="midnightblue" points="1375.14,-579.86 1385.66,-578.565 1376.63,-573.02 1375.14,-579.86"/>
</g>
<!-- Node10 -->
<g id="node20" class="node"><title>Node10</title>
<a xlink:href="../../db/d66/class_u_b_settings.html#aea5fec9db96c03162c2ce1d5d4c41ab0" target="_top" xlink:title="UBSettings::replaceWildcard">
<polygon fill="white" stroke="black" points="1362.5,-538.573 1362.5,-559.573 1505.5,-559.573 1505.5,-538.573 1362.5,-538.573"/>
<text text-anchor="middle" x="1434" y="-546.573" font-family="Helvetica,sans-Serif" font-size="10.00">UBSettings::replaceWildcard</text>
</a>
</g>
<!-- Node9&#45;&gt;Node10 -->
<g id="edge20" class="edge"><title>Node9&#45;&gt;Node10</title>
<path fill="none" stroke="midnightblue" d="M1326.17,-549.073C1334.77,-549.073 1343.55,-549.073 1352.22,-549.073"/>
<polygon fill="midnightblue" stroke="midnightblue" points="1352.32,-552.573 1362.32,-549.073 1352.32,-545.573 1352.32,-552.573"/>
</g>
<!-- Node12 -->
<g id="node24" class="node"><title>Node12</title>
<a xlink:href="../../db/d66/class_u_b_settings.html#ac0b3c85870c353e48b7d2cfdff9e0eaa" target="_top" xlink:title="UBSettings::checkDirectory">
<polygon fill="white" stroke="black" points="1364.5,-498.573 1364.5,-519.573 1503.5,-519.573 1503.5,-498.573 1364.5,-498.573"/>
<text text-anchor="middle" x="1434" y="-506.573" font-family="Helvetica,sans-Serif" font-size="10.00">UBSettings::checkDirectory</text>
</a>
</g>
<!-- Node9&#45;&gt;Node12 -->
<g id="edge24" class="edge"><title>Node9&#45;&gt;Node12</title>
<path fill="none" stroke="midnightblue" d="M1298.34,-538.564C1322.02,-533.417 1350.72,-527.178 1375.61,-521.767"/>
<polygon fill="midnightblue" stroke="midnightblue" points="1376.63,-525.127 1385.66,-519.582 1375.14,-518.286 1376.63,-525.127"/>
</g>
<!-- Node13 -->
<g id="node26" class="node"><title>Node13</title>
<a xlink:href="../../d2/d7a/class_u_b_file_system_utils.html#af850f64fdd630fc78510c856f00ffa4f" target="_top" xlink:title="UBFileSystemUtils:\l:normalizeFilePath">
<polygon fill="white" stroke="black" points="1382,-446.073 1382,-480.073 1486,-480.073 1486,-446.073 1382,-446.073"/>
<text text-anchor="start" x="1390" y="-467.073" font-family="Helvetica,sans-Serif" font-size="10.00">UBFileSystemUtils:</text>
<text text-anchor="middle" x="1434" y="-454.073" font-family="Helvetica,sans-Serif" font-size="10.00">:normalizeFilePath</text>
</a>
</g>
<!-- Node9&#45;&gt;Node13 -->
<g id="edge26" class="edge"><title>Node9&#45;&gt;Node13</title>
<path fill="none" stroke="midnightblue" d="M1267.83,-538.476C1289.6,-525.787 1327.75,-504.336 1362,-489.073 1365.89,-487.339 1369.94,-485.631 1374.04,-483.971"/>
<polygon fill="midnightblue" stroke="midnightblue" points="1375.63,-487.105 1383.66,-480.191 1373.08,-480.59 1375.63,-487.105"/>
</g>
<!-- Node11 -->
<g id="node22" class="node"><title>Node11</title>
<a xlink:href="../../d4/d99/class_u_b_platform_utils.html#a4ff6063df12b6d4d0c60c1a17b434599" target="_top" xlink:title="UBPlatformUtils::osUserLoginName">
<polygon fill="white" stroke="black" points="1542.5,-535.573 1542.5,-556.573 1717.5,-556.573 1717.5,-535.573 1542.5,-535.573"/>
<text text-anchor="middle" x="1630" y="-543.573" font-family="Helvetica,sans-Serif" font-size="10.00">UBPlatformUtils::osUserLoginName</text>
</a>
</g>
<!-- Node10&#45;&gt;Node11 -->
<g id="edge22" class="edge"><title>Node10&#45;&gt;Node11</title>
<path fill="none" stroke="midnightblue" d="M1505.59,-547.978C1514.25,-547.845 1523.21,-547.708 1532.17,-547.571"/>
<polygon fill="midnightblue" stroke="midnightblue" points="1532.32,-551.069 1542.26,-547.416 1532.21,-544.07 1532.32,-551.069"/>
</g>
<!-- Node16 -->
<g id="node32" class="node"><title>Node16</title>
<a xlink:href="../../d0/d58/class_u_b_drawing_controller.html#ac5790e8e77299a58ba6f2692133b7009" target="_top" xlink:title="UBDrawingController\l::setStylusTool">
<polygon fill="white" stroke="black" points="692.5,-331.073 692.5,-365.073 801.5,-365.073 801.5,-331.073 692.5,-331.073"/>
<text text-anchor="start" x="700.5" y="-352.073" font-family="Helvetica,sans-Serif" font-size="10.00">UBDrawingController</text>
<text text-anchor="middle" x="747" y="-339.073" font-family="Helvetica,sans-Serif" font-size="10.00">::setStylusTool</text>
</a>
</g>
<!-- Node15&#45;&gt;Node16 -->
<g id="edge32" class="edge"><title>Node15&#45;&gt;Node16</title>
<path fill="none" stroke="midnightblue" d="M645.168,-617.072C649.136,-614.465 652.83,-611.481 656,-608.073 718.797,-540.568 738.621,-427.284 744.581,-375.455"/>
<polygon fill="midnightblue" stroke="midnightblue" points="748.077,-375.68 745.653,-365.366 741.116,-374.941 748.077,-375.68"/>
</g>
<!-- Node16&#45;&gt;Node4 -->
<g id="edge40" class="edge"><title>Node16&#45;&gt;Node4</title>
<path fill="none" stroke="midnightblue" d="M758.579,-365.334C787.854,-408.973 864.666,-523.476 895.209,-569.006"/>
<polygon fill="midnightblue" stroke="midnightblue" points="892.354,-571.033 900.832,-577.388 898.167,-567.133 892.354,-571.033"/>
</g>
<!-- Node16&#45;&gt;Node14 -->
<g id="edge46" class="edge"><title>Node16&#45;&gt;Node14</title>
<path fill="none" stroke="midnightblue" d="M758.321,-330.986C786.15,-288.983 858.026,-180.499 891.005,-130.724"/>
<polygon fill="midnightblue" stroke="midnightblue" points="894.086,-132.411 896.691,-122.142 888.25,-128.545 894.086,-132.411"/>
</g>
<!-- Node17 -->
<g id="node34" class="node"><title>Node17</title>
<a xlink:href="../../d7/d62/class_u_b_board_controller.html#a5bf93ad343de7f09150d634ef3a8c459" target="_top" xlink:title="UBBoardController:\l:activeScene">
<polygon fill="white" stroke="black" points="857.5,-435.073 857.5,-469.073 958.5,-469.073 958.5,-435.073 857.5,-435.073"/>
<text text-anchor="start" x="865.5" y="-456.073" font-family="Helvetica,sans-Serif" font-size="10.00">UBBoardController:</text>
<text text-anchor="middle" x="908" y="-443.073" font-family="Helvetica,sans-Serif" font-size="10.00">:activeScene</text>
</a>
</g>
<!-- Node16&#45;&gt;Node17 -->
<g id="edge34" class="edge"><title>Node16&#45;&gt;Node17</title>
<path fill="none" stroke="midnightblue" d="M763.368,-365.303C780.581,-382.607 809.131,-409.076 838,-426.073 841.205,-427.96 844.57,-429.751 848.02,-431.443"/>
<polygon fill="midnightblue" stroke="midnightblue" points="846.749,-434.71 857.298,-435.69 849.662,-428.345 846.749,-434.71"/>
</g>
<!-- Node18 -->
<g id="node36" class="node"><title>Node18</title>
<a xlink:href="../../dc/db2/class_u_b_graphics_scene.html#a6cfc68b3907297af710a1d8d1492d4ea" target="_top" xlink:title="UBGraphicsScene::deselect\lAllItems">
<polygon fill="white" stroke="black" points="838,-383.073 838,-417.073 978,-417.073 978,-383.073 838,-383.073"/>
<text text-anchor="start" x="846" y="-404.073" font-family="Helvetica,sans-Serif" font-size="10.00">UBGraphicsScene::deselect</text>
<text text-anchor="middle" x="908" y="-391.073" font-family="Helvetica,sans-Serif" font-size="10.00">AllItems</text>
</a>
</g>
<!-- Node16&#45;&gt;Node18 -->
<g id="edge36" class="edge"><title>Node16&#45;&gt;Node18</title>
<path fill="none" stroke="midnightblue" d="M799.717,-365.1C814.312,-369.814 830.295,-374.976 845.393,-379.853"/>
<polygon fill="midnightblue" stroke="midnightblue" points="844.572,-383.265 855.164,-383.008 846.724,-376.604 844.572,-383.265"/>
</g>
<!-- Node19 -->
<g id="node38" class="node"><title>Node19</title>
<a xlink:href="../../d0/d58/class_u_b_drawing_controller.html#a02acf3adbfc4a9aa14da3efd01b7a530" target="_top" xlink:title="UBDrawingController\l::lineWidthIndexChanged">
<polygon fill="white" stroke="black" points="845,-331.073 845,-365.073 971,-365.073 971,-331.073 845,-331.073"/>
<text text-anchor="start" x="853" y="-352.073" font-family="Helvetica,sans-Serif" font-size="10.00">UBDrawingController</text>
<text text-anchor="middle" x="908" y="-339.073" font-family="Helvetica,sans-Serif" font-size="10.00">::lineWidthIndexChanged</text>
</a>
</g>
<!-- Node16&#45;&gt;Node19 -->
<g id="edge38" class="edge"><title>Node16&#45;&gt;Node19</title>
<path fill="none" stroke="midnightblue" d="M801.507,-348.073C812.193,-348.073 823.564,-348.073 834.747,-348.073"/>
<polygon fill="midnightblue" stroke="midnightblue" points="834.939,-351.573 844.939,-348.073 834.939,-344.573 834.939,-351.573"/>
</g>
<!-- Node20 -->
<g id="node41" class="node"><title>Node20</title>
<a xlink:href="../../d0/d58/class_u_b_drawing_controller.html#a42605540fe8451289997d9b61a89e642" target="_top" xlink:title="UBDrawingController\l::colorIndexChanged">
<polygon fill="white" stroke="black" points="853.5,-279.073 853.5,-313.073 962.5,-313.073 962.5,-279.073 853.5,-279.073"/>
<text text-anchor="start" x="861.5" y="-300.073" font-family="Helvetica,sans-Serif" font-size="10.00">UBDrawingController</text>
<text text-anchor="middle" x="908" y="-287.073" font-family="Helvetica,sans-Serif" font-size="10.00">::colorIndexChanged</text>
</a>
</g>
<!-- Node16&#45;&gt;Node20 -->
<g id="edge42" class="edge"><title>Node16&#45;&gt;Node20</title>
<path fill="none" stroke="midnightblue" d="M799.717,-331.047C814.312,-326.333 830.295,-321.171 845.393,-316.294"/>
<polygon fill="midnightblue" stroke="midnightblue" points="846.724,-319.543 855.164,-313.138 844.572,-312.881 846.724,-319.543"/>
</g>
<!-- Node21 -->
<g id="node43" class="node"><title>Node21</title>
<a xlink:href="../../d0/d58/class_u_b_drawing_controller.html#ae9ae9cf749d8ce65205cf8c50df67502" target="_top" xlink:title="UBDrawingController\l::stylusToolChanged">
<polygon fill="white" stroke="black" points="853.5,-227.073 853.5,-261.073 962.5,-261.073 962.5,-227.073 853.5,-227.073"/>
<text text-anchor="start" x="861.5" y="-248.073" font-family="Helvetica,sans-Serif" font-size="10.00">UBDrawingController</text>
<text text-anchor="middle" x="908" y="-235.073" font-family="Helvetica,sans-Serif" font-size="10.00">::stylusToolChanged</text>
</a>
</g>
<!-- Node16&#45;&gt;Node21 -->
<g id="edge44" class="edge"><title>Node16&#45;&gt;Node21</title>
<path fill="none" stroke="midnightblue" d="M763.368,-330.843C780.581,-313.539 809.131,-287.071 838,-270.073 840.793,-268.429 843.708,-266.858 846.694,-265.361"/>
<polygon fill="midnightblue" stroke="midnightblue" points="848.241,-268.502 855.818,-261.097 845.277,-262.16 848.241,-268.502"/>
</g>
<!-- Node22&#45;&gt;Node16 -->
<g id="edge50" class="edge"><title>Node22&#45;&gt;Node16</title>
<path fill="none" stroke="midnightblue" d="M644.605,-564.999C648.738,-562.4 652.623,-559.439 656,-556.073 707.715,-504.539 732.234,-418.688 741.838,-375.159"/>
<polygon fill="midnightblue" stroke="midnightblue" points="745.279,-375.804 743.917,-365.297 738.429,-374.361 745.279,-375.804"/>
</g>
<!-- Node23&#45;&gt;Node16 -->
<g id="edge54" class="edge"><title>Node23&#45;&gt;Node16</title>
<path fill="none" stroke="midnightblue" d="M643.605,-512.935C648.04,-510.333 652.264,-507.389 656,-504.073 696.594,-468.05 723.896,-409.422 737.322,-375.226"/>
<polygon fill="midnightblue" stroke="midnightblue" points="740.757,-376.041 741.042,-365.45 734.214,-373.551 740.757,-376.041"/>
</g>
<!-- Node24&#45;&gt;Node16 -->
<g id="edge58" class="edge"><title>Node24&#45;&gt;Node16</title>
<path fill="none" stroke="midnightblue" d="M641.433,-460.999C646.535,-458.329 651.507,-455.353 656,-452.073 686.073,-430.127 713.124,-396.574 729.767,-373.549"/>
<polygon fill="midnightblue" stroke="midnightblue" points="732.695,-375.47 735.62,-365.286 726.983,-371.423 732.695,-375.47"/>
</g>
<!-- Node25&#45;&gt;Node16 -->
<g id="edge62" class="edge"><title>Node25&#45;&gt;Node16</title>
<path fill="none" stroke="midnightblue" d="M636.945,-409.05C643.377,-406.17 649.909,-403.122 656,-400.073 674.123,-391.003 693.701,-379.983 710.038,-370.426"/>
<polygon fill="midnightblue" stroke="midnightblue" points="711.914,-373.383 718.75,-365.289 708.358,-367.353 711.914,-373.383"/>
</g>
<!-- Node26&#45;&gt;Node16 -->
<g id="edge66" class="edge"><title>Node26&#45;&gt;Node16</title>
<path fill="none" stroke="midnightblue" d="M650.514,-364.687C660.821,-362.912 671.695,-361.04 682.28,-359.217"/>
<polygon fill="midnightblue" stroke="midnightblue" points="683.051,-362.636 692.312,-357.49 681.863,-355.738 683.051,-362.636"/>
</g>
<!-- Node27&#45;&gt;Node16 -->
<g id="edge70" class="edge"><title>Node27&#45;&gt;Node16</title>
<path fill="none" stroke="midnightblue" d="M652.227,-331.755C662.1,-333.455 672.445,-335.236 682.522,-336.971"/>
<polygon fill="midnightblue" stroke="midnightblue" points="682.033,-340.438 692.482,-338.686 683.221,-333.54 682.033,-340.438"/>
</g>
<!-- Node28&#45;&gt;Node16 -->
<g id="edge74" class="edge"><title>Node28&#45;&gt;Node16</title>
<path fill="none" stroke="midnightblue" d="M636.945,-287.097C643.377,-289.977 649.909,-293.025 656,-296.073 674.123,-305.143 693.701,-316.164 710.038,-325.721"/>
<polygon fill="midnightblue" stroke="midnightblue" points="708.358,-328.794 718.75,-330.858 711.914,-322.764 708.358,-328.794"/>
</g>
<!-- Node29&#45;&gt;Node16 -->
<g id="edge78" class="edge"><title>Node29&#45;&gt;Node16</title>
<path fill="none" stroke="midnightblue" d="M641.433,-235.148C646.535,-237.818 651.507,-240.794 656,-244.073 686.073,-266.02 713.124,-299.573 729.767,-322.597"/>
<polygon fill="midnightblue" stroke="midnightblue" points="726.983,-324.724 735.62,-330.86 732.695,-320.677 726.983,-324.724"/>
</g>
<!-- Node30&#45;&gt;Node16 -->
<g id="edge82" class="edge"><title>Node30&#45;&gt;Node16</title>
<path fill="none" stroke="midnightblue" d="M643.605,-183.212C648.04,-185.814 652.264,-188.758 656,-192.073 696.594,-228.097 723.896,-286.725 737.322,-320.921"/>
<polygon fill="midnightblue" stroke="midnightblue" points="734.214,-322.596 741.042,-330.697 740.757,-320.106 734.214,-322.596"/>
</g>
<!-- Node31&#45;&gt;Node16 -->
<g id="edge86" class="edge"><title>Node31&#45;&gt;Node16</title>
<path fill="none" stroke="midnightblue" d="M644.605,-131.148C648.738,-133.747 652.623,-136.708 656,-140.073 707.715,-191.608 732.234,-277.459 741.838,-320.988"/>
<polygon fill="midnightblue" stroke="midnightblue" points="738.429,-321.786 743.917,-330.849 745.279,-320.343 738.429,-321.786"/>
</g>
<!-- Node32&#45;&gt;Node16 -->
<g id="edge90" class="edge"><title>Node32&#45;&gt;Node16</title>
<path fill="none" stroke="midnightblue" d="M645.168,-79.075C649.136,-81.6821 652.83,-84.6654 656,-88.0734 718.797,-155.579 738.621,-268.863 744.581,-320.692"/>
<polygon fill="midnightblue" stroke="midnightblue" points="741.116,-321.206 745.653,-330.78 748.077,-320.466 741.116,-321.206"/>
</g>
<!-- Node35 -->
<g id="node83" class="node"><title>Node35</title>
<a xlink:href="../../d7/d62/class_u_b_board_controller.html#a536e1388e74f79a2120d0e585b862033" target="_top" xlink:title="UBBoardController:\l:paletteManager">
<polygon fill="white" stroke="black" points="391.5,-227.073 391.5,-261.073 492.5,-261.073 492.5,-227.073 391.5,-227.073"/>
<text text-anchor="start" x="399.5" y="-248.073" font-family="Helvetica,sans-Serif" font-size="10.00">UBBoardController:</text>
<text text-anchor="middle" x="442" y="-235.073" font-family="Helvetica,sans-Serif" font-size="10.00">:paletteManager</text>
</a>
</g>
<!-- Node34&#45;&gt;Node35 -->
<g id="edge96" class="edge"><title>Node34&#45;&gt;Node35</title>
<path fill="none" stroke="midnightblue" d="M348.199,-244.073C359.228,-244.073 370.43,-244.073 381.07,-244.073"/>
<polygon fill="midnightblue" stroke="midnightblue" points="381.076,-247.573 391.076,-244.073 381.076,-240.573 381.076,-247.573"/>
</g>
</g>
</svg>
