<?xml version="1.0" encoding="UTF-8" standalone="no"?>
<!DOCTYPE svg PUBLIC "-//W3C//DTD SVG 1.1//EN"
 "http://www.w3.org/Graphics/SVG/1.1/DTD/svg11.dtd">
<!-- Generated by graphviz version 2.26.3 (20100126.1600)
 -->
<!-- Title: UBDesktopAnnotationController::stylusToolChanged Pages: 1 -->
<!--zoomable 701 -->
<svg id="main" version="1.1" xmlns="http://www.w3.org/2000/svg" xmlns:xlink="http://www.w3.org/1999/xlink" xml:space="preserve" onload="init(evt)">
        <defs>
                <circle id="rim" cx="0" cy="0" r="7"/>
                <circle id="rim2" cx="0" cy="0" r="3.5"/>
                <g id="zoomPlus">
                        <use xlink:href="#rim" fill="#404040">
                                <set attributeName="fill" to="#808080" begin="zoomplus.mouseover" end="zoomplus.mouseout"/>
                        </use>
                        <path d="M-4,0h8M0,-4v8" fill="none" stroke="white" stroke-width="1.5" pointer-events="none"/>
                </g>
                <g id="zoomMin">
                        <use xlink:href="#rim" fill="#404040">
                                <set attributeName="fill" to="#808080" begin="zoomminus.mouseover" end="zoomminus.mouseout"/>
                        </use>
                        <path d="M-4,0h8" fill="none" stroke="white" stroke-width="1.5" pointer-events="none"/>
                </g>
                <g id="dirArrow">
                        <path fill="none" stroke="white" stroke-width="1.5" d="M0,-3.0v7 M-2.5,-0.5L0,-3.0L2.5,-0.5"/>
                </g>
               <g id="resetDef">
                       <use xlink:href="#rim2" fill="#404040">
                               <set attributeName="fill" to="#808080" begin="reset.mouseover" end="reset.mouseout"/>
                       </use>
               </g>
        </defs>

<script type="text/javascript">
var viewWidth = 1918;
var viewHeight = 701;
var sectionId = 'dynsection-55';
</script>
<script xlink:href="../../svgpan.js"/>
<svg id="graph" class="graph">
<g id="viewport">
<title>UBDesktopAnnotationController::stylusToolChanged</title>
<polygon fill="white" stroke="white" points="-4,5 -4,-696.779 1915,-696.779 1915,5 -4,5"/>
<!-- Node1 -->
<g id="node1" class="node"><title>Node1</title>
<polygon fill="#bfbfbf" stroke="black" points="0,-305.795 0,-339.795 156,-339.795 156,-305.795 0,-305.795"/>
<text text-anchor="start" x="8" y="-326.795" font-family="Helvetica,sans-Serif" font-size="10.00">UBDesktopAnnotationController</text>
<text text-anchor="middle" x="78" y="-313.795" font-family="Helvetica,sans-Serif" font-size="10.00">::stylusToolChanged</text>
</g>
<!-- Node2 -->
<g id="node3" class="node"><title>Node2</title>
<a xlink:href="../../d7/db7/class_u_b_desktop_annotation_controller.html#a79025184efcd68c01efced1ff52228e7" target="_top" xlink:title="UBDesktopAnnotationController\l::updateBackground">
<polygon fill="white" stroke="black" points="192,-305.795 192,-339.795 348,-339.795 348,-305.795 192,-305.795"/>
<text text-anchor="start" x="200" y="-326.795" font-family="Helvetica,sans-Serif" font-size="10.00">UBDesktopAnnotationController</text>
<text text-anchor="middle" x="270" y="-313.795" font-family="Helvetica,sans-Serif" font-size="10.00">::updateBackground</text>
</a>
</g>
<!-- Node1&#45;&gt;Node2 -->
<g id="edge2" class="edge"><title>Node1&#45;&gt;Node2</title>
<path fill="none" stroke="midnightblue" d="M156.094,-322.795C164.601,-322.795 173.302,-322.795 181.918,-322.795"/>
<polygon fill="midnightblue" stroke="midnightblue" points="181.975,-326.295 191.975,-322.795 181.975,-319.295 181.975,-326.295"/>
</g>
<!-- Node3 -->
<g id="node5" class="node"><title>Node3</title>
<a xlink:href="../../d0/d58/class_u_b_drawing_controller.html#a9d2d10417806a2d7303df24b820f2ab3" target="_top" xlink:title="UBDrawingController\l::drawingController">
<polygon fill="white" stroke="black" points="407.5,-331.795 407.5,-365.795 516.5,-365.795 516.5,-331.795 407.5,-331.795"/>
<text text-anchor="start" x="415.5" y="-352.795" font-family="Helvetica,sans-Serif" font-size="10.00">UBDrawingController</text>
<text text-anchor="middle" x="462" y="-339.795" font-family="Helvetica,sans-Serif" font-size="10.00">::drawingController</text>
</a>
</g>
<!-- Node2&#45;&gt;Node3 -->
<g id="edge4" class="edge"><title>Node2&#45;&gt;Node3</title>
<path fill="none" stroke="midnightblue" d="M348.094,-333.37C364.446,-335.584 381.516,-337.896 397.315,-340.035"/>
<polygon fill="midnightblue" stroke="midnightblue" points="397.115,-343.54 407.494,-341.414 398.054,-336.603 397.115,-343.54"/>
</g>
<!-- Node34 -->
<g id="node81" class="node"><title>Node34</title>
<a xlink:href="../../d7/db7/class_u_b_desktop_annotation_controller.html#a6591e3a3376a4a23ab4bc3781cb790a9" target="_top" xlink:title="UBDesktopAnnotationController\l::updateMask">
<polygon fill="white" stroke="black" points="384,-279.795 384,-313.795 540,-313.795 540,-279.795 384,-279.795"/>
<text text-anchor="start" x="392" y="-300.795" font-family="Helvetica,sans-Serif" font-size="10.00">UBDesktopAnnotationController</text>
<text text-anchor="middle" x="462" y="-287.795" font-family="Helvetica,sans-Serif" font-size="10.00">::updateMask</text>
</a>
</g>
<!-- Node2&#45;&gt;Node34 -->
<g id="edge94" class="edge"><title>Node2&#45;&gt;Node34</title>
<path fill="none" stroke="midnightblue" d="M348.094,-312.219C356.601,-311.067 365.302,-309.889 373.918,-308.722"/>
<polygon fill="midnightblue" stroke="midnightblue" points="374.536,-312.171 383.975,-307.36 373.596,-305.234 374.536,-312.171"/>
</g>
<!-- Node4 -->
<g id="node7" class="node"><title>Node4</title>
<a xlink:href="../../d0/d58/class_u_b_drawing_controller.html#a381f5fe1a1745d30bc1abb102ebb3c15" target="_top" xlink:title="UBDrawingController\l::UBDrawingController">
<polygon fill="white" stroke="black" points="576.5,-331.795 576.5,-365.795 691.5,-365.795 691.5,-331.795 576.5,-331.795"/>
<text text-anchor="start" x="584.5" y="-352.795" font-family="Helvetica,sans-Serif" font-size="10.00">UBDrawingController</text>
<text text-anchor="middle" x="634" y="-339.795" font-family="Helvetica,sans-Serif" font-size="10.00">::UBDrawingController</text>
</a>
</g>
<!-- Node3&#45;&gt;Node4 -->
<g id="edge6" class="edge"><title>Node3&#45;&gt;Node4</title>
<path fill="none" stroke="midnightblue" d="M516.895,-348.795C532.608,-348.795 549.923,-348.795 566.308,-348.795"/>
<polygon fill="midnightblue" stroke="midnightblue" points="566.367,-352.295 576.367,-348.795 566.367,-345.295 566.367,-352.295"/>
</g>
<!-- Node5 -->
<g id="node9" class="node"><title>Node5</title>
<a xlink:href="../../db/d66/class_u_b_settings.html#a0d8ed418921c2b2d37851faeae00715d" target="_top" xlink:title="UBSettings::settings">
<polygon fill="white" stroke="black" points="1046.5,-578.295 1046.5,-599.295 1153.5,-599.295 1153.5,-578.295 1046.5,-578.295"/>
<text text-anchor="middle" x="1100" y="-586.295" font-family="Helvetica,sans-Serif" font-size="10.00">UBSettings::settings</text>
</a>
</g>
<!-- Node4&#45;&gt;Node5 -->
<g id="edge8" class="edge"><title>Node4&#45;&gt;Node5</title>
<path fill="none" stroke="midnightblue" d="M636.512,-366.177C645.602,-426.376 678.847,-624.268 728,-660.795 836.952,-741.759 1011.96,-645.418 1075.75,-605.004"/>
<polygon fill="midnightblue" stroke="midnightblue" points="1077.82,-607.833 1084.33,-599.475 1074.03,-601.949 1077.82,-607.833"/>
</g>
<!-- Node15 -->
<g id="node30" class="node"><title>Node15</title>
<a xlink:href="../../d0/d58/class_u_b_drawing_controller.html#a6f11f789e8f99d826910541657502b35" target="_top" xlink:title="UBDrawingController\l::colorPaletteChanged">
<polygon fill="white" stroke="black" points="1043.5,-88.7946 1043.5,-122.795 1156.5,-122.795 1156.5,-88.7946 1043.5,-88.7946"/>
<text text-anchor="start" x="1051.5" y="-109.795" font-family="Helvetica,sans-Serif" font-size="10.00">UBDrawingController</text>
<text text-anchor="middle" x="1100" y="-96.7946" font-family="Helvetica,sans-Serif" font-size="10.00">::colorPaletteChanged</text>
</a>
</g>
<!-- Node4&#45;&gt;Node15 -->
<g id="edge30" class="edge"><title>Node4&#45;&gt;Node15</title>
<path fill="none" stroke="midnightblue" d="M683.118,-331.675C686.473,-329.107 689.505,-326.165 692,-322.795 768.231,-219.828 631.919,-121.54 728,-36.7946 825.316,49.0398 993.962,-38.6888 1065.9,-83.2231"/>
<polygon fill="midnightblue" stroke="midnightblue" points="1064.26,-86.3245 1074.58,-88.6832 1067.98,-80.3981 1064.26,-86.3245"/>
</g>
<!-- Node16 -->
<g id="node32" class="node"><title>Node16</title>
<a xlink:href="../../d0/d58/class_u_b_drawing_controller.html#ac50b8d2611584f1b6ce34246bcd89ec6" target="_top" xlink:title="UBDrawingController\l::penToolSelected">
<polygon fill="white" stroke="black" points="733.5,-617.795 733.5,-651.795 842.5,-651.795 842.5,-617.795 733.5,-617.795"/>
<text text-anchor="start" x="741.5" y="-638.795" font-family="Helvetica,sans-Serif" font-size="10.00">UBDrawingController</text>
<text text-anchor="middle" x="788" y="-625.795" font-family="Helvetica,sans-Serif" font-size="10.00">::penToolSelected</text>
</a>
</g>
<!-- Node4&#45;&gt;Node16 -->
<g id="edge32" class="edge"><title>Node4&#45;&gt;Node16</title>
<path fill="none" stroke="midnightblue" d="M635.571,-366.097C640.586,-411.69 660.12,-536.57 728,-608.795 728.897,-609.748 729.834,-610.669 730.807,-611.558"/>
<polygon fill="midnightblue" stroke="midnightblue" points="728.809,-614.436 738.869,-617.759 733.076,-608.888 728.809,-614.436"/>
</g>
<!-- Node23 -->
<g id="node48" class="node"><title>Node23</title>
<a xlink:href="../../d0/d58/class_u_b_drawing_controller.html#ac9bd7039ea57fe9a8162b31ed4758148" target="_top" xlink:title="UBDrawingController\l::eraserToolSelected">
<polygon fill="white" stroke="black" points="733.5,-565.795 733.5,-599.795 842.5,-599.795 842.5,-565.795 733.5,-565.795"/>
<text text-anchor="start" x="741.5" y="-586.795" font-family="Helvetica,sans-Serif" font-size="10.00">UBDrawingController</text>
<text text-anchor="middle" x="788" y="-573.795" font-family="Helvetica,sans-Serif" font-size="10.00">::eraserToolSelected</text>
</a>
</g>
<!-- Node4&#45;&gt;Node23 -->
<g id="edge50" class="edge"><title>Node4&#45;&gt;Node23</title>
<path fill="none" stroke="midnightblue" d="M637.355,-366.024C645.791,-405.036 671.383,-501.051 728,-556.795 729.062,-557.84 730.172,-558.847 731.324,-559.815"/>
<polygon fill="midnightblue" stroke="midnightblue" points="729.282,-562.658 739.438,-565.677 733.382,-556.984 729.282,-562.658"/>
</g>
<!-- Node24 -->
<g id="node51" class="node"><title>Node24</title>
<a xlink:href="../../d0/d58/class_u_b_drawing_controller.html#ac4008b36aa26e54eb31c34525eda6b7b" target="_top" xlink:title="UBDrawingController\l::markerToolSelected">
<polygon fill="white" stroke="black" points="733,-513.795 733,-547.795 843,-547.795 843,-513.795 733,-513.795"/>
<text text-anchor="start" x="741" y="-534.795" font-family="Helvetica,sans-Serif" font-size="10.00">UBDrawingController</text>
<text text-anchor="middle" x="788" y="-521.795" font-family="Helvetica,sans-Serif" font-size="10.00">::markerToolSelected</text>
</a>
</g>
<!-- Node4&#45;&gt;Node24 -->
<g id="edge54" class="edge"><title>Node4&#45;&gt;Node24</title>
<path fill="none" stroke="midnightblue" d="M640.311,-366.168C652.591,-397.764 682.543,-465.03 728,-504.795 729.322,-505.951 730.703,-507.062 732.131,-508.13"/>
<polygon fill="midnightblue" stroke="midnightblue" points="730.464,-511.222 740.746,-513.777 734.302,-505.368 730.464,-511.222"/>
</g>
<!-- Node25 -->
<g id="node54" class="node"><title>Node25</title>
<a xlink:href="../../d0/d58/class_u_b_drawing_controller.html#a26cd871f064f2f1949bd3b46982b7c18" target="_top" xlink:title="UBDrawingController\l::selectorToolSelected">
<polygon fill="white" stroke="black" points="731,-461.795 731,-495.795 845,-495.795 845,-461.795 731,-461.795"/>
<text text-anchor="start" x="739" y="-482.795" font-family="Helvetica,sans-Serif" font-size="10.00">UBDrawingController</text>
<text text-anchor="middle" x="788" y="-469.795" font-family="Helvetica,sans-Serif" font-size="10.00">::selectorToolSelected</text>
</a>
</g>
<!-- Node4&#45;&gt;Node25 -->
<g id="edge58" class="edge"><title>Node4&#45;&gt;Node25</title>
<path fill="none" stroke="midnightblue" d="M645.883,-365.984C662.175,-388.483 693.395,-427.965 728,-452.795 729.836,-454.112 731.75,-455.382 733.717,-456.603"/>
<polygon fill="midnightblue" stroke="midnightblue" points="732.193,-459.762 742.618,-461.649 735.644,-453.673 732.193,-459.762"/>
</g>
<!-- Node26 -->
<g id="node57" class="node"><title>Node26</title>
<a xlink:href="../../d0/d58/class_u_b_drawing_controller.html#a684d708764de024a6ef0b77d14b7f0e3" target="_top" xlink:title="UBDrawingController\l::playToolSelected">
<polygon fill="white" stroke="black" points="733.5,-409.795 733.5,-443.795 842.5,-443.795 842.5,-409.795 733.5,-409.795"/>
<text text-anchor="start" x="741.5" y="-430.795" font-family="Helvetica,sans-Serif" font-size="10.00">UBDrawingController</text>
<text text-anchor="middle" x="788" y="-417.795" font-family="Helvetica,sans-Serif" font-size="10.00">::playToolSelected</text>
</a>
</g>
<!-- Node4&#45;&gt;Node26 -->
<g id="edge62" class="edge"><title>Node4&#45;&gt;Node26</title>
<path fill="none" stroke="midnightblue" d="M663.249,-365.929C681.608,-376.444 705.909,-389.929 728,-400.795 731.152,-402.345 734.418,-403.9 737.725,-405.436"/>
<polygon fill="midnightblue" stroke="midnightblue" points="736.54,-408.742 747.091,-409.696 739.438,-402.37 736.54,-408.742"/>
</g>
<!-- Node27 -->
<g id="node60" class="node"><title>Node27</title>
<a xlink:href="../../d0/d58/class_u_b_drawing_controller.html#af8d76f9b5b29b793a0b2b710cd7a970b" target="_top" xlink:title="UBDrawingController\l::handToolSelected">
<polygon fill="white" stroke="black" points="733.5,-357.795 733.5,-391.795 842.5,-391.795 842.5,-357.795 733.5,-357.795"/>
<text text-anchor="start" x="741.5" y="-378.795" font-family="Helvetica,sans-Serif" font-size="10.00">UBDrawingController</text>
<text text-anchor="middle" x="788" y="-365.795" font-family="Helvetica,sans-Serif" font-size="10.00">::handToolSelected</text>
</a>
</g>
<!-- Node4&#45;&gt;Node27 -->
<g id="edge66" class="edge"><title>Node4&#45;&gt;Node27</title>
<path fill="none" stroke="midnightblue" d="M691.782,-358.55C702.13,-360.297 712.974,-362.128 723.497,-363.904"/>
<polygon fill="midnightblue" stroke="midnightblue" points="723.018,-367.373 733.462,-365.587 724.184,-360.471 723.018,-367.373"/>
</g>
<!-- Node28 -->
<g id="node63" class="node"><title>Node28</title>
<a xlink:href="../../d0/d58/class_u_b_drawing_controller.html#afb286643f18871b50ebd9421ca692914" target="_top" xlink:title="UBDrawingController\l::zoomInToolSelected">
<polygon fill="white" stroke="black" points="732,-305.795 732,-339.795 844,-339.795 844,-305.795 732,-305.795"/>
<text text-anchor="start" x="740" y="-326.795" font-family="Helvetica,sans-Serif" font-size="10.00">UBDrawingController</text>
<text text-anchor="middle" x="788" y="-313.795" font-family="Helvetica,sans-Serif" font-size="10.00">::zoomInToolSelected</text>
</a>
</g>
<!-- Node4&#45;&gt;Node28 -->
<g id="edge70" class="edge"><title>Node4&#45;&gt;Node28</title>
<path fill="none" stroke="midnightblue" d="M691.782,-339.039C701.64,-337.375 711.946,-335.635 721.998,-333.938"/>
<polygon fill="midnightblue" stroke="midnightblue" points="722.66,-337.376 731.938,-332.26 721.495,-330.473 722.66,-337.376"/>
</g>
<!-- Node29 -->
<g id="node66" class="node"><title>Node29</title>
<a xlink:href="../../d0/d58/class_u_b_drawing_controller.html#a767b7c2868c614a0905cb9951ed11672" target="_top" xlink:title="UBDrawingController\l::zoomOutToolSelected">
<polygon fill="white" stroke="black" points="728.5,-253.795 728.5,-287.795 847.5,-287.795 847.5,-253.795 728.5,-253.795"/>
<text text-anchor="start" x="736.5" y="-274.795" font-family="Helvetica,sans-Serif" font-size="10.00">UBDrawingController</text>
<text text-anchor="middle" x="788" y="-261.795" font-family="Helvetica,sans-Serif" font-size="10.00">::zoomOutToolSelected</text>
</a>
</g>
<!-- Node4&#45;&gt;Node29 -->
<g id="edge74" class="edge"><title>Node4&#45;&gt;Node29</title>
<path fill="none" stroke="midnightblue" d="M674.779,-331.787C680.655,-328.972 686.552,-325.939 692,-322.795 709.094,-312.929 710.845,-306.553 728,-296.795 730.677,-295.272 733.46,-293.78 736.297,-292.33"/>
<polygon fill="midnightblue" stroke="midnightblue" points="738.023,-295.382 745.476,-287.851 734.953,-289.091 738.023,-295.382"/>
</g>
<!-- Node30 -->
<g id="node69" class="node"><title>Node30</title>
<a xlink:href="../../d0/d58/class_u_b_drawing_controller.html#a9ba30f83d57b0caab30ae82bc8f1e1ee" target="_top" xlink:title="UBDrawingController\l::pointerToolSelected">
<polygon fill="white" stroke="black" points="733.5,-201.795 733.5,-235.795 842.5,-235.795 842.5,-201.795 733.5,-201.795"/>
<text text-anchor="start" x="741.5" y="-222.795" font-family="Helvetica,sans-Serif" font-size="10.00">UBDrawingController</text>
<text text-anchor="middle" x="788" y="-209.795" font-family="Helvetica,sans-Serif" font-size="10.00">::pointerToolSelected</text>
</a>
</g>
<!-- Node4&#45;&gt;Node30 -->
<g id="edge78" class="edge"><title>Node4&#45;&gt;Node30</title>
<path fill="none" stroke="midnightblue" d="M680.634,-331.679C684.75,-329.081 688.626,-326.131 692,-322.795 719.146,-295.945 700.687,-271.473 728,-244.795 729.066,-243.753 730.18,-242.751 731.335,-241.785"/>
<polygon fill="midnightblue" stroke="midnightblue" points="733.389,-244.619 739.466,-235.94 729.303,-238.936 733.389,-244.619"/>
</g>
<!-- Node31 -->
<g id="node72" class="node"><title>Node31</title>
<a xlink:href="../../d0/d58/class_u_b_drawing_controller.html#a2cbdc9d4445dd8abcc4a59b2a6d28c0d" target="_top" xlink:title="UBDrawingController\l::lineToolSelected">
<polygon fill="white" stroke="black" points="733.5,-149.795 733.5,-183.795 842.5,-183.795 842.5,-149.795 733.5,-149.795"/>
<text text-anchor="start" x="741.5" y="-170.795" font-family="Helvetica,sans-Serif" font-size="10.00">UBDrawingController</text>
<text text-anchor="middle" x="788" y="-157.795" font-family="Helvetica,sans-Serif" font-size="10.00">::lineToolSelected</text>
</a>
</g>
<!-- Node4&#45;&gt;Node31 -->
<g id="edge82" class="edge"><title>Node4&#45;&gt;Node31</title>
<path fill="none" stroke="midnightblue" d="M682.051,-331.651C685.73,-329.079 689.124,-326.143 692,-322.795 731.068,-277.32 688.648,-238.024 728,-192.795 728.727,-191.96 729.485,-191.15 730.271,-190.366"/>
<polygon fill="midnightblue" stroke="midnightblue" points="732.536,-193.035 738.018,-183.968 728.079,-187.638 732.536,-193.035"/>
</g>
<!-- Node32 -->
<g id="node75" class="node"><title>Node32</title>
<a xlink:href="../../d0/d58/class_u_b_drawing_controller.html#aec62d39119a747c11bf8b46f9e19b7ca" target="_top" xlink:title="UBDrawingController\l::textToolSelected">
<polygon fill="white" stroke="black" points="733.5,-97.7946 733.5,-131.795 842.5,-131.795 842.5,-97.7946 733.5,-97.7946"/>
<text text-anchor="start" x="741.5" y="-118.795" font-family="Helvetica,sans-Serif" font-size="10.00">UBDrawingController</text>
<text text-anchor="middle" x="788" y="-105.795" font-family="Helvetica,sans-Serif" font-size="10.00">::textToolSelected</text>
</a>
</g>
<!-- Node4&#45;&gt;Node32 -->
<g id="edge86" class="edge"><title>Node4&#45;&gt;Node32</title>
<path fill="none" stroke="midnightblue" d="M682.594,-331.679C686.11,-329.106 689.32,-326.162 692,-322.795 743.355,-258.283 676.243,-204.984 728,-140.795 728.592,-140.06 729.209,-139.346 729.849,-138.651"/>
<polygon fill="midnightblue" stroke="midnightblue" points="732.276,-141.178 737.464,-131.94 727.648,-135.926 732.276,-141.178"/>
</g>
<!-- Node33 -->
<g id="node78" class="node"><title>Node33</title>
<a xlink:href="../../d0/d58/class_u_b_drawing_controller.html#a6746622a5b605c5de8e3d5bdabf05aee" target="_top" xlink:title="UBDrawingController\l::captureToolSelected">
<polygon fill="white" stroke="black" points="732,-45.7946 732,-79.7946 844,-79.7946 844,-45.7946 732,-45.7946"/>
<text text-anchor="start" x="740" y="-66.7946" font-family="Helvetica,sans-Serif" font-size="10.00">UBDrawingController</text>
<text text-anchor="middle" x="788" y="-53.7946" font-family="Helvetica,sans-Serif" font-size="10.00">::captureToolSelected</text>
</a>
</g>
<!-- Node4&#45;&gt;Node33 -->
<g id="edge90" class="edge"><title>Node4&#45;&gt;Node33</title>
<path fill="none" stroke="midnightblue" d="M683.017,-331.6C686.394,-329.048 689.459,-326.13 692,-322.795 755.765,-239.092 663.713,-172.096 728,-88.7946 728.577,-88.0475 729.179,-87.3215 729.805,-86.6161"/>
<polygon fill="midnightblue" stroke="midnightblue" points="732.248,-89.1252 737.307,-79.8163 727.547,-83.9384 732.248,-89.1252"/>
</g>
<!-- Node6 -->
<g id="node11" class="node"><title>Node6</title>
<a xlink:href="../../db/d66/class_u_b_settings.html#ad703e9b5a7efdb68b9c6ecef0df7cce2" target="_top" xlink:title="UBSettings::UBSettings">
<polygon fill="white" stroke="black" points="1206.5,-578.295 1206.5,-599.295 1329.5,-599.295 1329.5,-578.295 1206.5,-578.295"/>
<text text-anchor="middle" x="1268" y="-586.295" font-family="Helvetica,sans-Serif" font-size="10.00">UBSettings::UBSettings</text>
</a>
</g>
<!-- Node5&#45;&gt;Node6 -->
<g id="edge10" class="edge"><title>Node5&#45;&gt;Node6</title>
<path fill="none" stroke="midnightblue" d="M1153.62,-588.795C1167.14,-588.795 1181.88,-588.795 1196.14,-588.795"/>
<polygon fill="midnightblue" stroke="midnightblue" points="1196.41,-592.295 1206.41,-588.795 1196.41,-585.295 1196.41,-592.295"/>
</g>
<!-- Node7 -->
<g id="node13" class="node"><title>Node7</title>
<a xlink:href="../../db/d66/class_u_b_settings.html#afd0d739b2cfac7e2d05be7415f6692df" target="_top" xlink:title="UBSettings::InitKeyboard\lPaletteKeyBtnSizes">
<polygon fill="white" stroke="black" points="1378,-616.795 1378,-650.795 1506,-650.795 1506,-616.795 1378,-616.795"/>
<text text-anchor="start" x="1386" y="-637.795" font-family="Helvetica,sans-Serif" font-size="10.00">UBSettings::InitKeyboard</text>
<text text-anchor="middle" x="1442" y="-624.795" font-family="Helvetica,sans-Serif" font-size="10.00">PaletteKeyBtnSizes</text>
</a>
</g>
<!-- Node6&#45;&gt;Node7 -->
<g id="edge12" class="edge"><title>Node6&#45;&gt;Node7</title>
<path fill="none" stroke="midnightblue" d="M1308.8,-599.345C1326.49,-603.922 1347.78,-609.427 1368.09,-614.681"/>
<polygon fill="midnightblue" stroke="midnightblue" points="1367.41,-618.119 1377.97,-617.235 1369.16,-611.342 1367.41,-618.119"/>
</g>
<!-- Node8 -->
<g id="node15" class="node"><title>Node8</title>
<a xlink:href="../../db/d66/class_u_b_settings.html#a2d3413f8b25d64a698d6d83e0f18ff39" target="_top" xlink:title="UBSettings::getAppSettings">
<polygon fill="white" stroke="black" points="1556,-579.295 1556,-600.295 1696,-600.295 1696,-579.295 1556,-579.295"/>
<text text-anchor="middle" x="1626" y="-587.295" font-family="Helvetica,sans-Serif" font-size="10.00">UBSettings::getAppSettings</text>
</a>
</g>
<!-- Node6&#45;&gt;Node8 -->
<g id="edge14" class="edge"><title>Node6&#45;&gt;Node8</title>
<path fill="none" stroke="midnightblue" d="M1329.54,-588.966C1389.22,-589.133 1480.09,-589.387 1545.49,-589.57"/>
<polygon fill="midnightblue" stroke="midnightblue" points="1545.75,-593.07 1555.76,-589.598 1545.77,-586.07 1545.75,-593.07"/>
</g>
<!-- Node10 -->
<g id="node19" class="node"><title>Node10</title>
<a xlink:href="../../db/d66/class_u_b_settings.html#af38d2ad231149df734ca7b5486356500" target="_top" xlink:title="UBSettings::userDataDirectory">
<polygon fill="white" stroke="black" points="1366,-539.295 1366,-560.295 1518,-560.295 1518,-539.295 1366,-539.295"/>
<text text-anchor="middle" x="1442" y="-547.295" font-family="Helvetica,sans-Serif" font-size="10.00">UBSettings::userDataDirectory</text>
</a>
</g>
<!-- Node6&#45;&gt;Node10 -->
<g id="edge18" class="edge"><title>Node6&#45;&gt;Node10</title>
<path fill="none" stroke="midnightblue" d="M1315.09,-578.241C1336.65,-573.407 1362.4,-567.636 1385.05,-562.56"/>
<polygon fill="midnightblue" stroke="midnightblue" points="1385.88,-565.959 1394.88,-560.357 1384.35,-559.129 1385.88,-565.959"/>
</g>
<!-- Node9 -->
<g id="node17" class="node"><title>Node9</title>
<a xlink:href="../../d4/d99/class_u_b_platform_utils.html#ae595b29e794b20564550fd45515fc0a8" target="_top" xlink:title="UBPlatformUtils::application\lResourcesDirectory">
<polygon fill="white" stroke="black" points="1752,-575.795 1752,-609.795 1892,-609.795 1892,-575.795 1752,-575.795"/>
<text text-anchor="start" x="1760" y="-596.795" font-family="Helvetica,sans-Serif" font-size="10.00">UBPlatformUtils::application</text>
<text text-anchor="middle" x="1822" y="-583.795" font-family="Helvetica,sans-Serif" font-size="10.00">ResourcesDirectory</text>
</a>
</g>
<!-- Node8&#45;&gt;Node9 -->
<g id="edge16" class="edge"><title>Node8&#45;&gt;Node9</title>
<path fill="none" stroke="midnightblue" d="M1696.21,-590.869C1710.93,-591.095 1726.57,-591.334 1741.64,-591.565"/>
<polygon fill="midnightblue" stroke="midnightblue" points="1741.9,-595.069 1751.95,-591.722 1742.01,-588.07 1741.9,-595.069"/>
</g>
<!-- Node10&#45;&gt;Node8 -->
<g id="edge20" class="edge"><title>Node10&#45;&gt;Node8</title>
<path fill="none" stroke="midnightblue" d="M1490.34,-560.304C1514.02,-565.451 1542.72,-571.69 1567.61,-577.101"/>
<polygon fill="midnightblue" stroke="midnightblue" points="1567.14,-580.582 1577.66,-579.286 1568.63,-573.741 1567.14,-580.582"/>
</g>
<!-- Node11 -->
<g id="node22" class="node"><title>Node11</title>
<a xlink:href="../../db/d66/class_u_b_settings.html#aea5fec9db96c03162c2ce1d5d4c41ab0" target="_top" xlink:title="UBSettings::replaceWildcard">
<polygon fill="white" stroke="black" points="1554.5,-539.295 1554.5,-560.295 1697.5,-560.295 1697.5,-539.295 1554.5,-539.295"/>
<text text-anchor="middle" x="1626" y="-547.295" font-family="Helvetica,sans-Serif" font-size="10.00">UBSettings::replaceWildcard</text>
</a>
</g>
<!-- Node10&#45;&gt;Node11 -->
<g id="edge22" class="edge"><title>Node10&#45;&gt;Node11</title>
<path fill="none" stroke="midnightblue" d="M1518.17,-549.795C1526.77,-549.795 1535.55,-549.795 1544.22,-549.795"/>
<polygon fill="midnightblue" stroke="midnightblue" points="1544.32,-553.295 1554.32,-549.795 1544.32,-546.295 1544.32,-553.295"/>
</g>
<!-- Node13 -->
<g id="node26" class="node"><title>Node13</title>
<a xlink:href="../../db/d66/class_u_b_settings.html#ac0b3c85870c353e48b7d2cfdff9e0eaa" target="_top" xlink:title="UBSettings::checkDirectory">
<polygon fill="white" stroke="black" points="1556.5,-499.295 1556.5,-520.295 1695.5,-520.295 1695.5,-499.295 1556.5,-499.295"/>
<text text-anchor="middle" x="1626" y="-507.295" font-family="Helvetica,sans-Serif" font-size="10.00">UBSettings::checkDirectory</text>
</a>
</g>
<!-- Node10&#45;&gt;Node13 -->
<g id="edge26" class="edge"><title>Node10&#45;&gt;Node13</title>
<path fill="none" stroke="midnightblue" d="M1490.34,-539.285C1514.02,-534.138 1542.72,-527.899 1567.61,-522.488"/>
<polygon fill="midnightblue" stroke="midnightblue" points="1568.63,-525.848 1577.66,-520.303 1567.14,-519.008 1568.63,-525.848"/>
</g>
<!-- Node14 -->
<g id="node28" class="node"><title>Node14</title>
<a xlink:href="../../d2/d7a/class_u_b_file_system_utils.html#af850f64fdd630fc78510c856f00ffa4f" target="_top" xlink:title="UBFileSystemUtils:\l:normalizeFilePath">
<polygon fill="white" stroke="black" points="1574,-446.795 1574,-480.795 1678,-480.795 1678,-446.795 1574,-446.795"/>
<text text-anchor="start" x="1582" y="-467.795" font-family="Helvetica,sans-Serif" font-size="10.00">UBFileSystemUtils:</text>
<text text-anchor="middle" x="1626" y="-454.795" font-family="Helvetica,sans-Serif" font-size="10.00">:normalizeFilePath</text>
</a>
</g>
<!-- Node10&#45;&gt;Node14 -->
<g id="edge28" class="edge"><title>Node10&#45;&gt;Node14</title>
<path fill="none" stroke="midnightblue" d="M1459.83,-539.198C1481.6,-526.508 1519.75,-505.057 1554,-489.795 1557.89,-488.06 1561.94,-486.353 1566.04,-484.692"/>
<polygon fill="midnightblue" stroke="midnightblue" points="1567.63,-487.826 1575.66,-480.912 1565.08,-481.311 1567.63,-487.826"/>
</g>
<!-- Node12 -->
<g id="node24" class="node"><title>Node12</title>
<a xlink:href="../../d4/d99/class_u_b_platform_utils.html#a4ff6063df12b6d4d0c60c1a17b434599" target="_top" xlink:title="UBPlatformUtils::osUserLoginName">
<polygon fill="white" stroke="black" points="1734.5,-536.295 1734.5,-557.295 1909.5,-557.295 1909.5,-536.295 1734.5,-536.295"/>
<text text-anchor="middle" x="1822" y="-544.295" font-family="Helvetica,sans-Serif" font-size="10.00">UBPlatformUtils::osUserLoginName</text>
</a>
</g>
<!-- Node11&#45;&gt;Node12 -->
<g id="edge24" class="edge"><title>Node11&#45;&gt;Node12</title>
<path fill="none" stroke="midnightblue" d="M1697.59,-548.699C1706.25,-548.566 1715.21,-548.429 1724.17,-548.292"/>
<polygon fill="midnightblue" stroke="midnightblue" points="1724.32,-551.79 1734.26,-548.138 1724.21,-544.791 1724.32,-551.79"/>
</g>
<!-- Node17 -->
<g id="node34" class="node"><title>Node17</title>
<a xlink:href="../../d0/d58/class_u_b_drawing_controller.html#ac5790e8e77299a58ba6f2692133b7009" target="_top" xlink:title="UBDrawingController\l::setStylusTool">
<polygon fill="white" stroke="black" points="884.5,-331.795 884.5,-365.795 993.5,-365.795 993.5,-331.795 884.5,-331.795"/>
<text text-anchor="start" x="892.5" y="-352.795" font-family="Helvetica,sans-Serif" font-size="10.00">UBDrawingController</text>
<text text-anchor="middle" x="939" y="-339.795" font-family="Helvetica,sans-Serif" font-size="10.00">::setStylusTool</text>
</a>
</g>
<!-- Node16&#45;&gt;Node17 -->
<g id="edge34" class="edge"><title>Node16&#45;&gt;Node17</title>
<path fill="none" stroke="midnightblue" d="M837.168,-617.793C841.136,-615.186 844.83,-612.203 848,-608.795 910.797,-541.289 930.621,-428.005 936.581,-376.176"/>
<polygon fill="midnightblue" stroke="midnightblue" points="940.077,-376.402 937.653,-366.088 933.116,-375.662 940.077,-376.402"/>
</g>
<!-- Node17&#45;&gt;Node5 -->
<g id="edge42" class="edge"><title>Node17&#45;&gt;Node5</title>
<path fill="none" stroke="midnightblue" d="M950.579,-366.055C979.854,-409.695 1056.67,-524.197 1087.21,-569.727"/>
<polygon fill="midnightblue" stroke="midnightblue" points="1084.35,-571.754 1092.83,-578.109 1090.17,-567.855 1084.35,-571.754"/>
</g>
<!-- Node17&#45;&gt;Node15 -->
<g id="edge48" class="edge"><title>Node17&#45;&gt;Node15</title>
<path fill="none" stroke="midnightblue" d="M950.321,-331.707C978.15,-289.705 1050.03,-181.22 1083.01,-131.445"/>
<polygon fill="midnightblue" stroke="midnightblue" points="1086.09,-133.132 1088.69,-122.863 1080.25,-129.266 1086.09,-133.132"/>
</g>
<!-- Node18 -->
<g id="node36" class="node"><title>Node18</title>
<a xlink:href="../../d7/d62/class_u_b_board_controller.html#a5bf93ad343de7f09150d634ef3a8c459" target="_top" xlink:title="UBBoardController:\l:activeScene">
<polygon fill="white" stroke="black" points="1049.5,-435.795 1049.5,-469.795 1150.5,-469.795 1150.5,-435.795 1049.5,-435.795"/>
<text text-anchor="start" x="1057.5" y="-456.795" font-family="Helvetica,sans-Serif" font-size="10.00">UBBoardController:</text>
<text text-anchor="middle" x="1100" y="-443.795" font-family="Helvetica,sans-Serif" font-size="10.00">:activeScene</text>
</a>
</g>
<!-- Node17&#45;&gt;Node18 -->
<g id="edge36" class="edge"><title>Node17&#45;&gt;Node18</title>
<path fill="none" stroke="midnightblue" d="M955.368,-366.025C972.581,-383.329 1001.13,-409.797 1030,-426.795 1033.2,-428.682 1036.57,-430.472 1040.02,-432.164"/>
<polygon fill="midnightblue" stroke="midnightblue" points="1038.75,-435.431 1049.3,-436.412 1041.66,-429.066 1038.75,-435.431"/>
</g>
<!-- Node19 -->
<g id="node38" class="node"><title>Node19</title>
<a xlink:href="../../dc/db2/class_u_b_graphics_scene.html#a6cfc68b3907297af710a1d8d1492d4ea" target="_top" xlink:title="UBGraphicsScene::deselect\lAllItems">
<polygon fill="white" stroke="black" points="1030,-383.795 1030,-417.795 1170,-417.795 1170,-383.795 1030,-383.795"/>
<text text-anchor="start" x="1038" y="-404.795" font-family="Helvetica,sans-Serif" font-size="10.00">UBGraphicsScene::deselect</text>
<text text-anchor="middle" x="1100" y="-391.795" font-family="Helvetica,sans-Serif" font-size="10.00">AllItems</text>
</a>
</g>
<!-- Node17&#45;&gt;Node19 -->
<g id="edge38" class="edge"><title>Node17&#45;&gt;Node19</title>
<path fill="none" stroke="midnightblue" d="M991.717,-365.821C1006.31,-370.535 1022.29,-375.697 1037.39,-380.574"/>
<polygon fill="midnightblue" stroke="midnightblue" points="1036.57,-383.987 1047.16,-383.73 1038.72,-377.325 1036.57,-383.987"/>
</g>
<!-- Node20 -->
<g id="node40" class="node"><title>Node20</title>
<a xlink:href="../../d0/d58/class_u_b_drawing_controller.html#a02acf3adbfc4a9aa14da3efd01b7a530" target="_top" xlink:title="UBDrawingController\l::lineWidthIndexChanged">
<polygon fill="white" stroke="black" points="1037,-331.795 1037,-365.795 1163,-365.795 1163,-331.795 1037,-331.795"/>
<text text-anchor="start" x="1045" y="-352.795" font-family="Helvetica,sans-Serif" font-size="10.00">UBDrawingController</text>
<text text-anchor="middle" x="1100" y="-339.795" font-family="Helvetica,sans-Serif" font-size="10.00">::lineWidthIndexChanged</text>
</a>
</g>
<!-- Node17&#45;&gt;Node20 -->
<g id="edge40" class="edge"><title>Node17&#45;&gt;Node20</title>
<path fill="none" stroke="midnightblue" d="M993.507,-348.795C1004.19,-348.795 1015.56,-348.795 1026.75,-348.795"/>
<polygon fill="midnightblue" stroke="midnightblue" points="1026.94,-352.295 1036.94,-348.795 1026.94,-345.295 1026.94,-352.295"/>
</g>
<!-- Node21 -->
<g id="node43" class="node"><title>Node21</title>
<a xlink:href="../../d0/d58/class_u_b_drawing_controller.html#a42605540fe8451289997d9b61a89e642" target="_top" xlink:title="UBDrawingController\l::colorIndexChanged">
<polygon fill="white" stroke="black" points="1045.5,-279.795 1045.5,-313.795 1154.5,-313.795 1154.5,-279.795 1045.5,-279.795"/>
<text text-anchor="start" x="1053.5" y="-300.795" font-family="Helvetica,sans-Serif" font-size="10.00">UBDrawingController</text>
<text text-anchor="middle" x="1100" y="-287.795" font-family="Helvetica,sans-Serif" font-size="10.00">::colorIndexChanged</text>
</a>
</g>
<!-- Node17&#45;&gt;Node21 -->
<g id="edge44" class="edge"><title>Node17&#45;&gt;Node21</title>
<path fill="none" stroke="midnightblue" d="M991.717,-331.768C1006.31,-327.054 1022.29,-321.892 1037.39,-317.015"/>
<polygon fill="midnightblue" stroke="midnightblue" points="1038.72,-320.264 1047.16,-313.86 1036.57,-313.603 1038.72,-320.264"/>
</g>
<!-- Node22 -->
<g id="node45" class="node"><title>Node22</title>
<a xlink:href="../../d0/d58/class_u_b_drawing_controller.html#ae9ae9cf749d8ce65205cf8c50df67502" target="_top" xlink:title="UBDrawingController\l::stylusToolChanged">
<polygon fill="white" stroke="black" points="1045.5,-227.795 1045.5,-261.795 1154.5,-261.795 1154.5,-227.795 1045.5,-227.795"/>
<text text-anchor="start" x="1053.5" y="-248.795" font-family="Helvetica,sans-Serif" font-size="10.00">UBDrawingController</text>
<text text-anchor="middle" x="1100" y="-235.795" font-family="Helvetica,sans-Serif" font-size="10.00">::stylusToolChanged</text>
</a>
</g>
<!-- Node17&#45;&gt;Node22 -->
<g id="edge46" class="edge"><title>Node17&#45;&gt;Node22</title>
<path fill="none" stroke="midnightblue" d="M955.368,-331.565C972.581,-314.261 1001.13,-287.792 1030,-270.795 1032.79,-269.15 1035.71,-267.579 1038.69,-266.082"/>
<polygon fill="midnightblue" stroke="midnightblue" points="1040.24,-269.223 1047.82,-261.818 1037.28,-262.881 1040.24,-269.223"/>
</g>
<!-- Node23&#45;&gt;Node17 -->
<g id="edge52" class="edge"><title>Node23&#45;&gt;Node17</title>
<path fill="none" stroke="midnightblue" d="M836.605,-565.72C840.738,-563.121 844.623,-560.16 848,-556.795 899.715,-505.26 924.234,-419.409 933.838,-375.88"/>
<polygon fill="midnightblue" stroke="midnightblue" points="937.279,-376.525 935.917,-366.019 930.429,-375.082 937.279,-376.525"/>
</g>
<!-- Node24&#45;&gt;Node17 -->
<g id="edge56" class="edge"><title>Node24&#45;&gt;Node17</title>
<path fill="none" stroke="midnightblue" d="M835.605,-513.656C840.04,-511.054 844.264,-508.11 848,-504.795 888.594,-468.771 915.896,-410.143 929.322,-375.947"/>
<polygon fill="midnightblue" stroke="midnightblue" points="932.757,-376.762 933.042,-366.171 926.214,-374.272 932.757,-376.762"/>
</g>
<!-- Node25&#45;&gt;Node17 -->
<g id="edge60" class="edge"><title>Node25&#45;&gt;Node17</title>
<path fill="none" stroke="midnightblue" d="M833.433,-461.72C838.535,-459.05 843.507,-456.074 848,-452.795 878.073,-430.848 905.124,-397.295 921.767,-374.271"/>
<polygon fill="midnightblue" stroke="midnightblue" points="924.695,-376.191 927.62,-366.008 918.983,-372.144 924.695,-376.191"/>
</g>
<!-- Node26&#45;&gt;Node17 -->
<g id="edge64" class="edge"><title>Node26&#45;&gt;Node17</title>
<path fill="none" stroke="midnightblue" d="M828.945,-409.771C835.377,-406.891 841.909,-403.843 848,-400.795 866.123,-391.725 885.701,-380.704 902.038,-371.147"/>
<polygon fill="midnightblue" stroke="midnightblue" points="903.914,-374.104 910.75,-366.01 900.358,-368.074 903.914,-374.104"/>
</g>
<!-- Node27&#45;&gt;Node17 -->
<g id="edge68" class="edge"><title>Node27&#45;&gt;Node17</title>
<path fill="none" stroke="midnightblue" d="M842.514,-365.408C852.821,-363.633 863.695,-361.761 874.28,-359.938"/>
<polygon fill="midnightblue" stroke="midnightblue" points="875.051,-363.357 884.312,-358.211 873.863,-356.459 875.051,-363.357"/>
</g>
<!-- Node28&#45;&gt;Node17 -->
<g id="edge72" class="edge"><title>Node28&#45;&gt;Node17</title>
<path fill="none" stroke="midnightblue" d="M844.227,-332.476C854.1,-334.176 864.445,-335.957 874.522,-337.692"/>
<polygon fill="midnightblue" stroke="midnightblue" points="874.033,-341.16 884.482,-339.407 875.221,-334.261 874.033,-341.16"/>
</g>
<!-- Node29&#45;&gt;Node17 -->
<g id="edge76" class="edge"><title>Node29&#45;&gt;Node17</title>
<path fill="none" stroke="midnightblue" d="M828.945,-287.818C835.377,-290.698 841.909,-293.746 848,-296.795 866.123,-305.865 885.701,-316.885 902.038,-326.442"/>
<polygon fill="midnightblue" stroke="midnightblue" points="900.358,-329.515 910.75,-331.579 903.914,-323.485 900.358,-329.515"/>
</g>
<!-- Node30&#45;&gt;Node17 -->
<g id="edge80" class="edge"><title>Node30&#45;&gt;Node17</title>
<path fill="none" stroke="midnightblue" d="M833.433,-235.869C838.535,-238.539 843.507,-241.515 848,-244.795 878.073,-266.741 905.124,-300.294 921.767,-323.319"/>
<polygon fill="midnightblue" stroke="midnightblue" points="918.983,-325.445 927.62,-331.581 924.695,-321.398 918.983,-325.445"/>
</g>
<!-- Node31&#45;&gt;Node17 -->
<g id="edge84" class="edge"><title>Node31&#45;&gt;Node17</title>
<path fill="none" stroke="midnightblue" d="M835.605,-183.933C840.04,-186.535 844.264,-189.479 848,-192.795 888.594,-228.818 915.896,-287.446 929.322,-321.642"/>
<polygon fill="midnightblue" stroke="midnightblue" points="926.214,-323.317 933.042,-331.418 932.757,-320.827 926.214,-323.317"/>
</g>
<!-- Node32&#45;&gt;Node17 -->
<g id="edge88" class="edge"><title>Node32&#45;&gt;Node17</title>
<path fill="none" stroke="midnightblue" d="M836.605,-131.869C840.738,-134.468 844.623,-137.429 848,-140.795 899.715,-192.329 924.234,-278.18 933.838,-321.709"/>
<polygon fill="midnightblue" stroke="midnightblue" points="930.429,-322.507 935.917,-331.571 937.279,-321.064 930.429,-322.507"/>
</g>
<!-- Node33&#45;&gt;Node17 -->
<g id="edge92" class="edge"><title>Node33&#45;&gt;Node17</title>
<path fill="none" stroke="midnightblue" d="M837.168,-79.7962C841.136,-82.4033 844.83,-85.3866 848,-88.7946 910.797,-156.3 930.621,-269.584 936.581,-321.413"/>
<polygon fill="midnightblue" stroke="midnightblue" points="933.116,-321.927 937.653,-331.502 940.077,-321.188 933.116,-321.927"/>
</g>
<!-- Node35 -->
<g id="node83" class="node"><title>Node35</title>
<a xlink:href="../../d7/d62/class_u_b_board_controller.html#a536e1388e74f79a2120d0e585b862033" target="_top" xlink:title="UBBoardController:\l:paletteManager">
<polygon fill="white" stroke="black" points="583.5,-279.795 583.5,-313.795 684.5,-313.795 684.5,-279.795 583.5,-279.795"/>
<text text-anchor="start" x="591.5" y="-300.795" font-family="Helvetica,sans-Serif" font-size="10.00">UBBoardController:</text>
<text text-anchor="middle" x="634" y="-287.795" font-family="Helvetica,sans-Serif" font-size="10.00">:paletteManager</text>
</a>
</g>
<!-- Node34&#45;&gt;Node35 -->
<g id="edge96" class="edge"><title>Node34&#45;&gt;Node35</title>
<path fill="none" stroke="midnightblue" d="M540.199,-296.795C551.228,-296.795 562.43,-296.795 573.07,-296.795"/>
<polygon fill="midnightblue" stroke="midnightblue" points="573.076,-300.295 583.076,-296.795 573.076,-293.295 573.076,-300.295"/>
</g>
</g>
</svg>
        <g id="navigator" transform="translate(0 0)" fill="#404254">
                <rect fill="#f2f5e9" fill-opacity="0.5" stroke="#606060" stroke-width=".5" x="0" y="0" width="60" height="60"/>
                <use id="zoomplus" xlink:href="#zoomPlus" x="17" y="9" onmousedown="handleZoom(evt,'in')"/>
                <use id="zoomminus" xlink:href="#zoomMin" x="42" y="9" onmousedown="handleZoom(evt,'out')"/>
                <use id="reset" xlink:href="#resetDef" x="30" y="36" onmousedown="handleReset()"/>
                <g id="arrowUp" xlink:href="#dirArrow" transform="translate(30 24)" onmousedown="handlePan(0,-1)">
                  <use xlink:href="#rim" fill="#404040">
                        <set attributeName="fill" to="#808080" begin="arrowUp.mouseover" end="arrowUp.mouseout"/>
                  </use>
                  <path fill="none" stroke="white" stroke-width="1.5" d="M0,-3.0v7 M-2.5,-0.5L0,-3.0L2.5,-0.5"/>
                </g>
                <g id="arrowRight" xlink:href="#dirArrow" transform="rotate(90) translate(36 -43)" onmousedown="handlePan(1,0)">
                  <use xlink:href="#rim" fill="#404040">
                        <set attributeName="fill" to="#808080" begin="arrowRight.mouseover" end="arrowRight.mouseout"/>
                  </use>
                  <path fill="none" stroke="white" stroke-width="1.5" d="M0,-3.0v7 M-2.5,-0.5L0,-3.0L2.5,-0.5"/>
                </g>
                <g id="arrowDown" xlink:href="#dirArrow" transform="rotate(180) translate(-30 -48)" onmousedown="handlePan(0,1)">
                  <use xlink:href="#rim" fill="#404040">
                        <set attributeName="fill" to="#808080" begin="arrowDown.mouseover" end="arrowDown.mouseout"/>
                  </use>
                  <path fill="none" stroke="white" stroke-width="1.5" d="M0,-3.0v7 M-2.5,-0.5L0,-3.0L2.5,-0.5"/>
                </g>
                <g id="arrowLeft" xlink:href="#dirArrow" transform="rotate(270) translate(-36 17)" onmousedown="handlePan(-1,0)">
                  <use xlink:href="#rim" fill="#404040">
                        <set attributeName="fill" to="#808080" begin="arrowLeft.mouseover" end="arrowLeft.mouseout"/>
                  </use>
                  <path fill="none" stroke="white" stroke-width="1.5" d="M0,-3.0v7 M-2.5,-0.5L0,-3.0L2.5,-0.5"/>
                </g>
        </g>
        <svg viewBox="0 0 15 15" width="100%" height="30px" preserveAspectRatio="xMaxYMin meet">
         <g id="arrow_out" transform="scale(0.3 0.3)">
          <a xlink:href="class_u_b_desktop_annotation_controller_a74acc192dbd8ee18515775c02e0ead44_cgraph_org.svg" target="_base">
           <rect id="button" ry="5" rx="5" y="6" x="6" height="38" width="38"
                fill="#f2f5e9" fill-opacity="0.5" stroke="#606060" stroke-width="1.0"/>
           <path id="arrow"
             d="M 11.500037,31.436501 C 11.940474,20.09759 22.043105,11.32322 32.158766,21.979434 L 37.068811,17.246167 C 37.068811,17.246167 37.088388,32 37.088388,32 L 22.160133,31.978069 C 22.160133,31.978069 26.997745,27.140456 26.997745,27.140456 C 18.528582,18.264221 13.291696,25.230495 11.500037,31.436501 z"
             style="fill:#404040;"/>
          </a>
         </g>
        </svg>
</svg>
