<?xml version="1.0" encoding="UTF-8" standalone="no"?>
<!DOCTYPE svg PUBLIC "-//W3C//DTD SVG 1.1//EN"
 "http://www.w3.org/Graphics/SVG/1.1/DTD/svg11.dtd">
<!-- Generated by graphviz version 2.26.3 (20100126.1600)
 -->
<!-- Title: UBDockPalette::removeTab Pages: 1 -->
<svg width="500pt" height="70pt"
 viewBox="0.00 0.00 500.00 70.00" xmlns="http://www.w3.org/2000/svg" xmlns:xlink="http://www.w3.org/1999/xlink">
<g id="graph1" class="graph" transform="scale(1 1) rotate(0) translate(4 66)">
<title>UBDockPalette::removeTab</title>
<polygon fill="white" stroke="white" points="-4,5 -4,-66 497,-66 497,5 -4,5"/>
<!-- Node1 -->
<g id="node1" class="node"><title>Node1</title>
<polygon fill="#bfbfbf" stroke="black" points="0,-20.5 0,-41.5 140,-41.5 140,-20.5 0,-20.5"/>
<text text-anchor="middle" x="70" y="-28.5" font-family="Helvetica,sans-Serif" font-size="10.00">UBDockPalette::removeTab</text>
</g>
<!-- Node2 -->
<g id="node3" class="node"><title>Node2</title>
<a xlink:href="../../dc/d54/class_u_b_dock_palette.html#a5cf35f3271e1edf36365a9cc5a5d587f" target="_top" xlink:title="UBDockPalette::resizeTabs">
<polygon fill="white" stroke="black" points="176.5,-20.5 176.5,-41.5 315.5,-41.5 315.5,-20.5 176.5,-20.5"/>
<text text-anchor="middle" x="246" y="-28.5" font-family="Helvetica,sans-Serif" font-size="10.00">UBDockPalette::resizeTabs</text>
</a>
</g>
<!-- Node1&#45;&gt;Node2 -->
<g id="edge2" class="edge"><title>Node1&#45;&gt;Node2</title>
<path fill="none" stroke="midnightblue" d="M140.066,-31C148.678,-31 157.53,-31 166.272,-31"/>
<polygon fill="midnightblue" stroke="midnightblue" points="166.463,-34.5001 176.463,-31 166.463,-27.5001 166.463,-34.5001"/>
</g>
<!-- Node3 -->
<g id="node5" class="node"><title>Node3</title>
<a xlink:href="../../dc/d54/class_u_b_dock_palette.html#ac21a897b4fba940a69a092cd870d2421" target="_top" xlink:title="UBDockPalette::border">
<polygon fill="white" stroke="black" points="363,-40.5 363,-61.5 481,-61.5 481,-40.5 363,-40.5"/>
<text text-anchor="middle" x="422" y="-48.5" font-family="Helvetica,sans-Serif" font-size="10.00">UBDockPalette::border</text>
</a>
</g>
<!-- Node2&#45;&gt;Node3 -->
<g id="edge4" class="edge"><title>Node2&#45;&gt;Node3</title>
<path fill="none" stroke="midnightblue" d="M315.56,-38.9045C327.796,-40.295 340.529,-41.742 352.756,-43.1314"/>
<polygon fill="midnightblue" stroke="midnightblue" points="352.555,-46.6309 362.886,-44.2825 353.345,-39.6757 352.555,-46.6309"/>
</g>
<!-- Node4 -->
<g id="node7" class="node"><title>Node4</title>
<a xlink:href="../../dc/d54/class_u_b_dock_palette.html#a2b809cad2069843fb95bb02872edfd9c" target="_top" xlink:title="Get the tab spacing.">
<polygon fill="white" stroke="black" points="352,-0.5 352,-21.5 492,-21.5 492,-0.5 352,-0.5"/>
<text text-anchor="middle" x="422" y="-8.5" font-family="Helvetica,sans-Serif" font-size="10.00">UBDockPalette::tabSpacing</text>
</a>
</g>
<!-- Node2&#45;&gt;Node4 -->
<g id="edge6" class="edge"><title>Node2&#45;&gt;Node4</title>
<path fill="none" stroke="midnightblue" d="M315.56,-23.0955C324.123,-22.1223 332.931,-21.1215 341.638,-20.1321"/>
<polygon fill="midnightblue" stroke="midnightblue" points="342.251,-23.585 351.792,-18.9782 341.461,-16.6297 342.251,-23.585"/>
</g>
</g>
</svg>
