<?xml version="1.0" encoding="UTF-8" standalone="no"?>
<!DOCTYPE svg PUBLIC "-//W3C//DTD SVG 1.1//EN"
 "http://www.w3.org/Graphics/SVG/1.1/DTD/svg11.dtd">
<!-- Generated by graphviz version 2.26.3 (20100126.1600)
 -->
<!-- Title: UBDockPalette::moveTabs Pages: 1 -->
<!--zoomable 134 -->
<svg id="main" version="1.1" xmlns="http://www.w3.org/2000/svg" xmlns:xlink="http://www.w3.org/1999/xlink" xml:space="preserve" onload="init(evt)">
        <defs>
                <circle id="rim" cx="0" cy="0" r="7"/>
                <circle id="rim2" cx="0" cy="0" r="3.5"/>
                <g id="zoomPlus">
                        <use xlink:href="#rim" fill="#404040">
                                <set attributeName="fill" to="#808080" begin="zoomplus.mouseover" end="zoomplus.mouseout"/>
                        </use>
                        <path d="M-4,0h8M0,-4v8" fill="none" stroke="white" stroke-width="1.5" pointer-events="none"/>
                </g>
                <g id="zoomMin">
                        <use xlink:href="#rim" fill="#404040">
                                <set attributeName="fill" to="#808080" begin="zoomminus.mouseover" end="zoomminus.mouseout"/>
                        </use>
                        <path d="M-4,0h8" fill="none" stroke="white" stroke-width="1.5" pointer-events="none"/>
                </g>
                <g id="dirArrow">
                        <path fill="none" stroke="white" stroke-width="1.5" d="M0,-3.0v7 M-2.5,-0.5L0,-3.0L2.5,-0.5"/>
                </g>
               <g id="resetDef">
                       <use xlink:href="#rim2" fill="#404040">
                               <set attributeName="fill" to="#808080" begin="reset.mouseover" end="reset.mouseout"/>
                       </use>
               </g>
        </defs>

<script type="text/javascript">
var viewWidth = 1036;
var viewHeight = 134;
var sectionId = 'dynsection-12';
</script>
<script xlink:href="../../svgpan.js"/>
<svg id="graph" class="graph">
<g id="viewport">
<title>UBDockPalette::moveTabs</title>
<polygon fill="white" stroke="white" points="-4,5 -4,-130 1033,-130 1033,5 -4,5"/>
<!-- Node1 -->
<g id="node1" class="node"><title>Node1</title>
<polygon fill="#bfbfbf" stroke="black" points="0.5,-58.5 0.5,-79.5 137.5,-79.5 137.5,-58.5 0.5,-58.5"/>
<text text-anchor="middle" x="69" y="-66.5" font-family="Helvetica,sans-Serif" font-size="10.00">UBDockPalette::moveTabs</text>
</g>
<!-- Node2 -->
<g id="node3" class="node"><title>Node2</title>
<a xlink:href="../../dc/d54/class_u_b_dock_palette.html#abe601a30ebea6b08998224bad8eaa7e8" target="_top" xlink:title="Handle the resize event.">
<polygon fill="white" stroke="black" points="174.5,-104.5 174.5,-125.5 317.5,-125.5 317.5,-104.5 174.5,-104.5"/>
<text text-anchor="middle" x="246" y="-112.5" font-family="Helvetica,sans-Serif" font-size="10.00">UBDockPalette::resizeEvent</text>
</a>
</g>
<!-- Node1&#45;&gt;Node2 -->
<g id="edge2" class="edge"><title>Node1&#45;&gt;Node2</title>
<path fill="none" stroke="midnightblue" d="M119.373,-82.0913C146.685,-89.1892 179.986,-97.8437 205.582,-104.496"/>
<polygon fill="midnightblue" stroke="midnightblue" points="120.166,-78.6812 109.607,-79.5533 118.405,-85.4562 120.166,-78.6812"/>
</g>
<!-- Node4 -->
<g id="node7" class="node"><title>Node4</title>
<a xlink:href="../../dc/d54/class_u_b_dock_palette.html#a75571809bcbc07b315dafcab544893b9" target="_top" xlink:title="Update the tab position regarding the toolbar position (up or down)">
<polygon fill="white" stroke="black" points="179,-52 179,-86 313,-86 313,-52 179,-52"/>
<text text-anchor="start" x="187" y="-73" font-family="Helvetica,sans-Serif" font-size="10.00">UBDockPalette::onToolbar</text>
<text text-anchor="middle" x="246" y="-60" font-family="Helvetica,sans-Serif" font-size="10.00">PosUpdated</text>
</a>
</g>
<!-- Node1&#45;&gt;Node4 -->
<g id="edge6" class="edge"><title>Node1&#45;&gt;Node4</title>
<path fill="none" stroke="midnightblue" d="M147.917,-69C158.228,-69 168.714,-69 178.807,-69"/>
<polygon fill="midnightblue" stroke="midnightblue" points="147.686,-65.5001 137.686,-69 147.686,-72.5001 147.686,-65.5001"/>
</g>
<!-- Node6 -->
<g id="node11" class="node"><title>Node6</title>
<a xlink:href="../../dc/d54/class_u_b_dock_palette.html#a6018bc6b3b5e572f85428bb0707aa8e1" target="_top" xlink:title="Show the given widget.">
<polygon fill="white" stroke="black" points="174.5,-0 174.5,-34 317.5,-34 317.5,-0 174.5,-0"/>
<text text-anchor="start" x="182.5" y="-21" font-family="Helvetica,sans-Serif" font-size="10.00">UBDockPalette::onShowTab</text>
<text text-anchor="middle" x="246" y="-8" font-family="Helvetica,sans-Serif" font-size="10.00">Widget</text>
</a>
</g>
<!-- Node1&#45;&gt;Node6 -->
<g id="edge10" class="edge"><title>Node1&#45;&gt;Node6</title>
<path fill="none" stroke="midnightblue" d="M114.712,-55.5704C137.042,-49.0102 164.158,-41.0439 187.936,-34.0582"/>
<polygon fill="midnightblue" stroke="midnightblue" points="113.427,-52.3001 104.819,-58.477 115.4,-59.0163 113.427,-52.3001"/>
</g>
<!-- Node3 -->
<g id="node5" class="node"><title>Node3</title>
<a xlink:href="../../dc/d54/class_u_b_dock_palette.html#ac3863b64b77bbc1083cc2a7ce1af3b0f" target="_top" xlink:title="Handle the resize request.">
<polygon fill="white" stroke="black" points="354.5,-104.5 354.5,-125.5 523.5,-125.5 523.5,-104.5 354.5,-104.5"/>
<text text-anchor="middle" x="439" y="-112.5" font-family="Helvetica,sans-Serif" font-size="10.00">UBDockPalette::onResizeRequest</text>
</a>
</g>
<!-- Node2&#45;&gt;Node3 -->
<g id="edge4" class="edge"><title>Node2&#45;&gt;Node3</title>
<path fill="none" stroke="midnightblue" d="M327.843,-115C336.655,-115 345.635,-115 354.479,-115"/>
<polygon fill="midnightblue" stroke="midnightblue" points="327.592,-111.5 317.592,-115 327.592,-118.5 327.592,-111.5"/>
</g>
<!-- Node5 -->
<g id="node9" class="node"><title>Node5</title>
<a xlink:href="../../dc/d54/class_u_b_dock_palette.html#a6f6fcc9a6785126f2e668742c886905e" target="_top" xlink:title="The constructor.">
<polygon fill="white" stroke="black" points="359.5,-58.5 359.5,-79.5 518.5,-79.5 518.5,-58.5 359.5,-58.5"/>
<text text-anchor="middle" x="439" y="-66.5" font-family="Helvetica,sans-Serif" font-size="10.00">UBDockPalette::UBDockPalette</text>
</a>
</g>
<!-- Node4&#45;&gt;Node5 -->
<g id="edge8" class="edge"><title>Node4&#45;&gt;Node5</title>
<path fill="none" stroke="midnightblue" d="M323.501,-69C335.324,-69 347.544,-69 359.412,-69"/>
<polygon fill="midnightblue" stroke="midnightblue" points="323.231,-65.5001 313.231,-69 323.231,-72.5001 323.231,-65.5001"/>
</g>
<!-- Node7 -->
<g id="node13" class="node"><title>Node7</title>
<a xlink:href="../../dc/d54/class_u_b_dock_palette.html#a2e83c77ca0f51d58207dedd68ae6118c" target="_top" xlink:title="Connect the show / hide signals of the widget related to this dock palette.">
<polygon fill="white" stroke="black" points="360,-6.5 360,-27.5 518,-27.5 518,-6.5 360,-6.5"/>
<text text-anchor="middle" x="439" y="-14.5" font-family="Helvetica,sans-Serif" font-size="10.00">UBDockPalette::connectSignals</text>
</a>
</g>
<!-- Node6&#45;&gt;Node7 -->
<g id="edge12" class="edge"><title>Node6&#45;&gt;Node7</title>
<path fill="none" stroke="midnightblue" d="M327.678,-17C338.295,-17 349.157,-17 359.734,-17"/>
<polygon fill="midnightblue" stroke="midnightblue" points="327.592,-13.5001 317.592,-17 327.592,-20.5001 327.592,-13.5001"/>
</g>
<!-- Node8 -->
<g id="node15" class="node"><title>Node8</title>
<a xlink:href="../../dc/d38/class_u_b_board_palette_manager.html#a282dd0808ac559cd857b0a3850da0dcf" target="_top" xlink:title="Set up the dock palette widgets.">
<polygon fill="white" stroke="black" points="560.5,-0 560.5,-34 697.5,-34 697.5,-0 560.5,-0"/>
<text text-anchor="start" x="568.5" y="-21" font-family="Helvetica,sans-Serif" font-size="10.00">UBBoardPaletteManager</text>
<text text-anchor="middle" x="629" y="-8" font-family="Helvetica,sans-Serif" font-size="10.00">::setupDockPaletteWidgets</text>
</a>
</g>
<!-- Node7&#45;&gt;Node8 -->
<g id="edge14" class="edge"><title>Node7&#45;&gt;Node8</title>
<path fill="none" stroke="midnightblue" d="M528.401,-17C539.089,-17 549.871,-17 560.205,-17"/>
<polygon fill="midnightblue" stroke="midnightblue" points="528.201,-13.5001 518.201,-17 528.201,-20.5001 528.201,-13.5001"/>
</g>
<!-- Node9 -->
<g id="node17" class="node"><title>Node9</title>
<a xlink:href="../../dc/d38/class_u_b_board_palette_manager.html#afbcd2e3da2af2a26bb84dddd061a9c5a" target="_top" xlink:title="UBBoardPaletteManager\l::setupPalettes">
<polygon fill="white" stroke="black" points="734.5,-0 734.5,-34 859.5,-34 859.5,-0 734.5,-0"/>
<text text-anchor="start" x="742.5" y="-21" font-family="Helvetica,sans-Serif" font-size="10.00">UBBoardPaletteManager</text>
<text text-anchor="middle" x="797" y="-8" font-family="Helvetica,sans-Serif" font-size="10.00">::setupPalettes</text>
</a>
</g>
<!-- Node8&#45;&gt;Node9 -->
<g id="edge16" class="edge"><title>Node8&#45;&gt;Node9</title>
<path fill="none" stroke="midnightblue" d="M707.854,-17C716.793,-17 725.809,-17 734.497,-17"/>
<polygon fill="midnightblue" stroke="midnightblue" points="707.817,-13.5001 697.817,-17 707.817,-20.5001 707.817,-13.5001"/>
</g>
<!-- Node10 -->
<g id="node19" class="node"><title>Node10</title>
<a xlink:href="../../dc/d38/class_u_b_board_palette_manager.html#ab2ca22bf5af16f59e273a72731a138ae" target="_top" xlink:title="UBBoardPaletteManager\l::UBBoardPaletteManager">
<polygon fill="white" stroke="black" points="896.5,-0 896.5,-34 1027.5,-34 1027.5,-0 896.5,-0"/>
<text text-anchor="start" x="904.5" y="-21" font-family="Helvetica,sans-Serif" font-size="10.00">UBBoardPaletteManager</text>
<text text-anchor="middle" x="962" y="-8" font-family="Helvetica,sans-Serif" font-size="10.00">::UBBoardPaletteManager</text>
</a>
</g>
<!-- Node9&#45;&gt;Node10 -->
<g id="edge18" class="edge"><title>Node9&#45;&gt;Node10</title>
<path fill="none" stroke="midnightblue" d="M870.031,-17C878.78,-17 887.673,-17 896.309,-17"/>
<polygon fill="midnightblue" stroke="midnightblue" points="869.85,-13.5001 859.85,-17 869.85,-20.5001 869.85,-13.5001"/>
</g>
</g>
</svg>
        <g id="navigator" transform="translate(0 0)" fill="#404254">
                <rect fill="#f2f5e9" fill-opacity="0.5" stroke="#606060" stroke-width=".5" x="0" y="0" width="60" height="60"/>
                <use id="zoomplus" xlink:href="#zoomPlus" x="17" y="9" onmousedown="handleZoom(evt,'in')"/>
                <use id="zoomminus" xlink:href="#zoomMin" x="42" y="9" onmousedown="handleZoom(evt,'out')"/>
                <use id="reset" xlink:href="#resetDef" x="30" y="36" onmousedown="handleReset()"/>
                <g id="arrowUp" xlink:href="#dirArrow" transform="translate(30 24)" onmousedown="handlePan(0,-1)">
                  <use xlink:href="#rim" fill="#404040">
                        <set attributeName="fill" to="#808080" begin="arrowUp.mouseover" end="arrowUp.mouseout"/>
                  </use>
                  <path fill="none" stroke="white" stroke-width="1.5" d="M0,-3.0v7 M-2.5,-0.5L0,-3.0L2.5,-0.5"/>
                </g>
                <g id="arrowRight" xlink:href="#dirArrow" transform="rotate(90) translate(36 -43)" onmousedown="handlePan(1,0)">
                  <use xlink:href="#rim" fill="#404040">
                        <set attributeName="fill" to="#808080" begin="arrowRight.mouseover" end="arrowRight.mouseout"/>
                  </use>
                  <path fill="none" stroke="white" stroke-width="1.5" d="M0,-3.0v7 M-2.5,-0.5L0,-3.0L2.5,-0.5"/>
                </g>
                <g id="arrowDown" xlink:href="#dirArrow" transform="rotate(180) translate(-30 -48)" onmousedown="handlePan(0,1)">
                  <use xlink:href="#rim" fill="#404040">
                        <set attributeName="fill" to="#808080" begin="arrowDown.mouseover" end="arrowDown.mouseout"/>
                  </use>
                  <path fill="none" stroke="white" stroke-width="1.5" d="M0,-3.0v7 M-2.5,-0.5L0,-3.0L2.5,-0.5"/>
                </g>
                <g id="arrowLeft" xlink:href="#dirArrow" transform="rotate(270) translate(-36 17)" onmousedown="handlePan(-1,0)">
                  <use xlink:href="#rim" fill="#404040">
                        <set attributeName="fill" to="#808080" begin="arrowLeft.mouseover" end="arrowLeft.mouseout"/>
                  </use>
                  <path fill="none" stroke="white" stroke-width="1.5" d="M0,-3.0v7 M-2.5,-0.5L0,-3.0L2.5,-0.5"/>
                </g>
        </g>
        <svg viewBox="0 0 15 15" width="100%" height="30px" preserveAspectRatio="xMaxYMin meet">
         <g id="arrow_out" transform="scale(0.3 0.3)">
          <a xlink:href="class_u_b_dock_palette_ac2b9642afb0e4a0819352aefe07090b0_icgraph_org.svg" target="_base">
           <rect id="button" ry="5" rx="5" y="6" x="6" height="38" width="38"
                fill="#f2f5e9" fill-opacity="0.5" stroke="#606060" stroke-width="1.0"/>
           <path id="arrow"
             d="M 11.500037,31.436501 C 11.940474,20.09759 22.043105,11.32322 32.158766,21.979434 L 37.068811,17.246167 C 37.068811,17.246167 37.088388,32 37.088388,32 L 22.160133,31.978069 C 22.160133,31.978069 26.997745,27.140456 26.997745,27.140456 C 18.528582,18.264221 13.291696,25.230495 11.500037,31.436501 z"
             style="fill:#404040;"/>
          </a>
         </g>
        </svg>
</svg>
