<?xml version="1.0" encoding="UTF-8" standalone="no"?>
<!DOCTYPE svg PUBLIC "-//W3C//DTD SVG 1.1//EN"
 "http://www.w3.org/Graphics/SVG/1.1/DTD/svg11.dtd">
<!-- Generated by graphviz version 2.26.3 (20100126.1600)
 -->
<!-- Title: UBDockPalette::moveTabs Pages: 1 -->
<svg width="322pt" height="70pt"
 viewBox="0.00 0.00 322.00 70.00" xmlns="http://www.w3.org/2000/svg" xmlns:xlink="http://www.w3.org/1999/xlink">
<g id="graph1" class="graph" transform="scale(1 1) rotate(0) translate(4 66)">
<title>UBDockPalette::moveTabs</title>
<polygon fill="white" stroke="white" points="-4,5 -4,-66 319,-66 319,5 -4,5"/>
<!-- Node1 -->
<g id="node1" class="node"><title>Node1</title>
<polygon fill="#bfbfbf" stroke="black" points="0.5,-20.5 0.5,-41.5 137.5,-41.5 137.5,-20.5 0.5,-20.5"/>
<text text-anchor="middle" x="69" y="-28.5" font-family="Helvetica,sans-Serif" font-size="10.00">UBDockPalette::moveTabs</text>
</g>
<!-- Node2 -->
<g id="node3" class="node"><title>Node2</title>
<a xlink:href="../../dc/d54/class_u_b_dock_palette.html#ac21a897b4fba940a69a092cd870d2421" target="_top" xlink:title="UBDockPalette::border">
<polygon fill="white" stroke="black" points="185,-40.5 185,-61.5 303,-61.5 303,-40.5 185,-40.5"/>
<text text-anchor="middle" x="244" y="-48.5" font-family="Helvetica,sans-Serif" font-size="10.00">UBDockPalette::border</text>
</a>
</g>
<!-- Node1&#45;&gt;Node2 -->
<g id="edge2" class="edge"><title>Node1&#45;&gt;Node2</title>
<path fill="none" stroke="midnightblue" d="M137.662,-38.8471C149.856,-40.2407 162.563,-41.6929 174.772,-43.0883"/>
<polygon fill="midnightblue" stroke="midnightblue" points="174.557,-46.5863 184.889,-44.2445 175.351,-39.6316 174.557,-46.5863"/>
</g>
<!-- Node3 -->
<g id="node5" class="node"><title>Node3</title>
<a xlink:href="../../dc/d54/class_u_b_dock_palette.html#a2b809cad2069843fb95bb02872edfd9c" target="_top" xlink:title="Get the tab spacing.">
<polygon fill="white" stroke="black" points="174,-0.5 174,-21.5 314,-21.5 314,-0.5 174,-0.5"/>
<text text-anchor="middle" x="244" y="-8.5" font-family="Helvetica,sans-Serif" font-size="10.00">UBDockPalette::tabSpacing</text>
</a>
</g>
<!-- Node1&#45;&gt;Node3 -->
<g id="edge4" class="edge"><title>Node1&#45;&gt;Node3</title>
<path fill="none" stroke="midnightblue" d="M137.662,-23.1529C146.197,-22.1775 154.982,-21.1735 163.672,-20.1803"/>
<polygon fill="midnightblue" stroke="midnightblue" points="164.272,-23.6347 173.809,-19.0218 163.477,-16.68 164.272,-23.6347"/>
</g>
</g>
</svg>
