<?xml version="1.0" encoding="UTF-8" standalone="no"?>
<!DOCTYPE svg PUBLIC "-//W3C//DTD SVG 1.1//EN"
 "http://www.w3.org/Graphics/SVG/1.1/DTD/svg11.dtd">
<!-- Generated by graphviz version 2.26.3 (20100126.1600)
 -->
<!-- Title: UBDockPalette::onHideTabWidget Pages: 1 -->
<!--zoomable 102 -->
<svg id="main" version="1.1" xmlns="http://www.w3.org/2000/svg" xmlns:xlink="http://www.w3.org/1999/xlink" xml:space="preserve" onload="init(evt)">
        <defs>
                <circle id="rim" cx="0" cy="0" r="7"/>
                <circle id="rim2" cx="0" cy="0" r="3.5"/>
                <g id="zoomPlus">
                        <use xlink:href="#rim" fill="#404040">
                                <set attributeName="fill" to="#808080" begin="zoomplus.mouseover" end="zoomplus.mouseout"/>
                        </use>
                        <path d="M-4,0h8M0,-4v8" fill="none" stroke="white" stroke-width="1.5" pointer-events="none"/>
                </g>
                <g id="zoomMin">
                        <use xlink:href="#rim" fill="#404040">
                                <set attributeName="fill" to="#808080" begin="zoomminus.mouseover" end="zoomminus.mouseout"/>
                        </use>
                        <path d="M-4,0h8" fill="none" stroke="white" stroke-width="1.5" pointer-events="none"/>
                </g>
                <g id="dirArrow">
                        <path fill="none" stroke="white" stroke-width="1.5" d="M0,-3.0v7 M-2.5,-0.5L0,-3.0L2.5,-0.5"/>
                </g>
               <g id="resetDef">
                       <use xlink:href="#rim2" fill="#404040">
                               <set attributeName="fill" to="#808080" begin="reset.mouseover" end="reset.mouseout"/>
                       </use>
               </g>
        </defs>

<script type="text/javascript">
var viewWidth = 674;
var viewHeight = 102;
var sectionId = 'dynsection-16';
</script>
<script xlink:href="../../svgpan.js"/>
<svg id="graph" class="graph">
<g id="viewport">
<title>UBDockPalette::onHideTabWidget</title>
<polygon fill="white" stroke="white" points="-4,5 -4,-98 671,-98 671,5 -4,5"/>
<!-- Node1 -->
<g id="node1" class="node"><title>Node1</title>
<polygon fill="#bfbfbf" stroke="black" points="0,-37 0,-71 138,-71 138,-37 0,-37"/>
<text text-anchor="start" x="8" y="-58" font-family="Helvetica,sans-Serif" font-size="10.00">UBDockPalette::onHideTab</text>
<text text-anchor="middle" x="69" y="-45" font-family="Helvetica,sans-Serif" font-size="10.00">Widget</text>
</g>
<!-- Node2 -->
<g id="node3" class="node"><title>Node2</title>
<a xlink:href="../../d1/d54/class_u_b_dock_palette_widget.html#a345e85fdfe36c21cde8567c515eace13" target="_top" xlink:title="UBDockPaletteWidget\l::setVisibleState">
<polygon fill="white" stroke="black" points="186,-60 186,-94 302,-94 302,-60 186,-60"/>
<text text-anchor="start" x="194" y="-81" font-family="Helvetica,sans-Serif" font-size="10.00">UBDockPaletteWidget</text>
<text text-anchor="middle" x="244" y="-68" font-family="Helvetica,sans-Serif" font-size="10.00">::setVisibleState</text>
</a>
</g>
<!-- Node1&#45;&gt;Node2 -->
<g id="edge2" class="edge"><title>Node1&#45;&gt;Node2</title>
<path fill="none" stroke="midnightblue" d="M138.165,-63.0902C150.48,-64.7088 163.303,-66.3941 175.597,-68.0099"/>
<polygon fill="midnightblue" stroke="midnightblue" points="175.406,-71.5148 185.777,-69.3478 176.318,-64.5745 175.406,-71.5148"/>
</g>
<!-- Node3 -->
<g id="node5" class="node"><title>Node3</title>
<a xlink:href="../../dc/d54/class_u_b_dock_palette.html#a70de660848735ee7598b56f9bfc0c27f" target="_top" xlink:title="Remove the given tab.">
<polygon fill="white" stroke="black" points="174,-20.5 174,-41.5 314,-41.5 314,-20.5 174,-20.5"/>
<text text-anchor="middle" x="244" y="-28.5" font-family="Helvetica,sans-Serif" font-size="10.00">UBDockPalette::removeTab</text>
</a>
</g>
<!-- Node1&#45;&gt;Node3 -->
<g id="edge4" class="edge"><title>Node1&#45;&gt;Node3</title>
<path fill="none" stroke="midnightblue" d="M138.165,-44.9098C146.611,-43.7997 155.296,-42.6583 163.885,-41.5294"/>
<polygon fill="midnightblue" stroke="midnightblue" points="164.445,-44.986 173.904,-40.2126 163.533,-38.0456 164.445,-44.986"/>
</g>
<!-- Node4 -->
<g id="node7" class="node"><title>Node4</title>
<a xlink:href="../../dc/d54/class_u_b_dock_palette.html#a5cf35f3271e1edf36365a9cc5a5d587f" target="_top" xlink:title="UBDockPalette::resizeTabs">
<polygon fill="white" stroke="black" points="350.5,-20.5 350.5,-41.5 489.5,-41.5 489.5,-20.5 350.5,-20.5"/>
<text text-anchor="middle" x="420" y="-28.5" font-family="Helvetica,sans-Serif" font-size="10.00">UBDockPalette::resizeTabs</text>
</a>
</g>
<!-- Node3&#45;&gt;Node4 -->
<g id="edge6" class="edge"><title>Node3&#45;&gt;Node4</title>
<path fill="none" stroke="midnightblue" d="M314.066,-31C322.678,-31 331.53,-31 340.272,-31"/>
<polygon fill="midnightblue" stroke="midnightblue" points="340.463,-34.5001 350.463,-31 340.463,-27.5001 340.463,-34.5001"/>
</g>
<!-- Node5 -->
<g id="node9" class="node"><title>Node5</title>
<a xlink:href="../../dc/d54/class_u_b_dock_palette.html#ac21a897b4fba940a69a092cd870d2421" target="_top" xlink:title="UBDockPalette::border">
<polygon fill="white" stroke="black" points="537,-40.5 537,-61.5 655,-61.5 655,-40.5 537,-40.5"/>
<text text-anchor="middle" x="596" y="-48.5" font-family="Helvetica,sans-Serif" font-size="10.00">UBDockPalette::border</text>
</a>
</g>
<!-- Node4&#45;&gt;Node5 -->
<g id="edge8" class="edge"><title>Node4&#45;&gt;Node5</title>
<path fill="none" stroke="midnightblue" d="M489.56,-38.9045C501.796,-40.295 514.529,-41.742 526.756,-43.1314"/>
<polygon fill="midnightblue" stroke="midnightblue" points="526.555,-46.6309 536.886,-44.2825 527.345,-39.6757 526.555,-46.6309"/>
</g>
<!-- Node6 -->
<g id="node11" class="node"><title>Node6</title>
<a xlink:href="../../dc/d54/class_u_b_dock_palette.html#a2b809cad2069843fb95bb02872edfd9c" target="_top" xlink:title="Get the tab spacing.">
<polygon fill="white" stroke="black" points="526,-0.5 526,-21.5 666,-21.5 666,-0.5 526,-0.5"/>
<text text-anchor="middle" x="596" y="-8.5" font-family="Helvetica,sans-Serif" font-size="10.00">UBDockPalette::tabSpacing</text>
</a>
</g>
<!-- Node4&#45;&gt;Node6 -->
<g id="edge10" class="edge"><title>Node4&#45;&gt;Node6</title>
<path fill="none" stroke="midnightblue" d="M489.56,-23.0955C498.123,-22.1223 506.931,-21.1215 515.638,-20.1321"/>
<polygon fill="midnightblue" stroke="midnightblue" points="516.251,-23.585 525.792,-18.9782 515.461,-16.6297 516.251,-23.585"/>
</g>
</g>
</svg>
        <g id="navigator" transform="translate(0 0)" fill="#404254">
                <rect fill="#f2f5e9" fill-opacity="0.5" stroke="#606060" stroke-width=".5" x="0" y="0" width="60" height="60"/>
                <use id="zoomplus" xlink:href="#zoomPlus" x="17" y="9" onmousedown="handleZoom(evt,'in')"/>
                <use id="zoomminus" xlink:href="#zoomMin" x="42" y="9" onmousedown="handleZoom(evt,'out')"/>
                <use id="reset" xlink:href="#resetDef" x="30" y="36" onmousedown="handleReset()"/>
                <g id="arrowUp" xlink:href="#dirArrow" transform="translate(30 24)" onmousedown="handlePan(0,-1)">
                  <use xlink:href="#rim" fill="#404040">
                        <set attributeName="fill" to="#808080" begin="arrowUp.mouseover" end="arrowUp.mouseout"/>
                  </use>
                  <path fill="none" stroke="white" stroke-width="1.5" d="M0,-3.0v7 M-2.5,-0.5L0,-3.0L2.5,-0.5"/>
                </g>
                <g id="arrowRight" xlink:href="#dirArrow" transform="rotate(90) translate(36 -43)" onmousedown="handlePan(1,0)">
                  <use xlink:href="#rim" fill="#404040">
                        <set attributeName="fill" to="#808080" begin="arrowRight.mouseover" end="arrowRight.mouseout"/>
                  </use>
                  <path fill="none" stroke="white" stroke-width="1.5" d="M0,-3.0v7 M-2.5,-0.5L0,-3.0L2.5,-0.5"/>
                </g>
                <g id="arrowDown" xlink:href="#dirArrow" transform="rotate(180) translate(-30 -48)" onmousedown="handlePan(0,1)">
                  <use xlink:href="#rim" fill="#404040">
                        <set attributeName="fill" to="#808080" begin="arrowDown.mouseover" end="arrowDown.mouseout"/>
                  </use>
                  <path fill="none" stroke="white" stroke-width="1.5" d="M0,-3.0v7 M-2.5,-0.5L0,-3.0L2.5,-0.5"/>
                </g>
                <g id="arrowLeft" xlink:href="#dirArrow" transform="rotate(270) translate(-36 17)" onmousedown="handlePan(-1,0)">
                  <use xlink:href="#rim" fill="#404040">
                        <set attributeName="fill" to="#808080" begin="arrowLeft.mouseover" end="arrowLeft.mouseout"/>
                  </use>
                  <path fill="none" stroke="white" stroke-width="1.5" d="M0,-3.0v7 M-2.5,-0.5L0,-3.0L2.5,-0.5"/>
                </g>
        </g>
        <svg viewBox="0 0 15 15" width="100%" height="30px" preserveAspectRatio="xMaxYMin meet">
         <g id="arrow_out" transform="scale(0.3 0.3)">
          <a xlink:href="class_u_b_dock_palette_ad64cbf250c425094fa79d1376c2ce26c_cgraph_org.svg" target="_base">
           <rect id="button" ry="5" rx="5" y="6" x="6" height="38" width="38"
                fill="#f2f5e9" fill-opacity="0.5" stroke="#606060" stroke-width="1.0"/>
           <path id="arrow"
             d="M 11.500037,31.436501 C 11.940474,20.09759 22.043105,11.32322 32.158766,21.979434 L 37.068811,17.246167 C 37.068811,17.246167 37.088388,32 37.088388,32 L 22.160133,31.978069 C 22.160133,31.978069 26.997745,27.140456 26.997745,27.140456 C 18.528582,18.264221 13.291696,25.230495 11.500037,31.436501 z"
             style="fill:#404040;"/>
          </a>
         </g>
        </svg>
</svg>
