<?xml version="1.0" encoding="UTF-8" standalone="no"?>
<!DOCTYPE svg PUBLIC "-//W3C//DTD SVG 1.1//EN"
 "http://www.w3.org/Graphics/SVG/1.1/DTD/svg11.dtd">
<!-- Generated by graphviz version 2.26.3 (20100126.1600)
 -->
<!-- Title: UBLibraryAPI::downloadTriggered Pages: 1 -->
<svg width="352pt" height="70pt"
 viewBox="0.00 0.00 352.00 70.00" xmlns="http://www.w3.org/2000/svg" xmlns:xlink="http://www.w3.org/1999/xlink">
<g id="graph1" class="graph" transform="scale(1 1) rotate(0) translate(4 66)">
<title>UBLibraryAPI::downloadTriggered</title>
<polygon fill="white" stroke="white" points="-4,5 -4,-66 349,-66 349,5 -4,5"/>
<!-- Node1 -->
<g id="node1" class="node"><title>Node1</title>
<polygon fill="#bfbfbf" stroke="black" points="0,-20.5 0,-41.5 164,-41.5 164,-20.5 0,-20.5"/>
<text text-anchor="middle" x="82" y="-28.5" font-family="Helvetica,sans-Serif" font-size="10.00">UBLibraryAPI::downloadTriggered</text>
</g>
<!-- Node2 -->
<g id="node3" class="node"><title>Node2</title>
<a xlink:href="../../da/dd6/class_u_b_library_a_p_i.html#a10894c4bb6d59d99e6ad18eed63bb14e" target="_top" xlink:title="UBLibraryAPI::UBLibraryAPI">
<polygon fill="white" stroke="black" points="200.5,-40.5 200.5,-61.5 343.5,-61.5 343.5,-40.5 200.5,-40.5"/>
<text text-anchor="middle" x="272" y="-48.5" font-family="Helvetica,sans-Serif" font-size="10.00">UBLibraryAPI::UBLibraryAPI</text>
</a>
</g>
<!-- Node1&#45;&gt;Node2 -->
<g id="edge2" class="edge"><title>Node1&#45;&gt;Node2</title>
<path fill="none" stroke="midnightblue" d="M174.435,-40.73C183.153,-41.6476 191.899,-42.5683 200.381,-43.4611"/>
<polygon fill="midnightblue" stroke="midnightblue" points="174.543,-37.2221 164.232,-39.656 173.81,-44.1837 174.543,-37.2221"/>
</g>
<!-- Node3 -->
<g id="node5" class="node"><title>Node3</title>
<a xlink:href="../../da/dd6/class_u_b_library_a_p_i.html#a5b22ba9a9abbea688550df3388c46fc8" target="_top" xlink:title="UBLibraryAPI::addTool">
<polygon fill="white" stroke="black" points="213.5,-0.5 213.5,-21.5 330.5,-21.5 330.5,-0.5 213.5,-0.5"/>
<text text-anchor="middle" x="272" y="-8.5" font-family="Helvetica,sans-Serif" font-size="10.00">UBLibraryAPI::addTool</text>
</a>
</g>
<!-- Node1&#45;&gt;Node3 -->
<g id="edge4" class="edge"><title>Node1&#45;&gt;Node3</title>
<path fill="none" stroke="midnightblue" d="M174.364,-21.2775C187.653,-19.8786 201.012,-18.4724 213.398,-17.1687"/>
<polygon fill="midnightblue" stroke="midnightblue" points="173.81,-17.8163 164.232,-22.344 174.543,-24.7779 173.81,-17.8163"/>
</g>
</g>
</svg>
