<?xml version="1.0" encoding="UTF-8" standalone="no"?>
<!DOCTYPE svg PUBLIC "-//W3C//DTD SVG 1.1//EN"
 "http://www.w3.org/Graphics/SVG/1.1/DTD/svg11.dtd">
<!-- Generated by graphviz version 2.26.3 (20100126.1600)
 -->
<!-- Title: WBToolbarSearch::aboutToShowMenu Pages: 1 -->
<!--zoomable 110 -->
<svg id="main" version="1.1" xmlns="http://www.w3.org/2000/svg" xmlns:xlink="http://www.w3.org/1999/xlink" xml:space="preserve" onload="init(evt)">
        <defs>
                <circle id="rim" cx="0" cy="0" r="7"/>
                <circle id="rim2" cx="0" cy="0" r="3.5"/>
                <g id="zoomPlus">
                        <use xlink:href="#rim" fill="#404040">
                                <set attributeName="fill" to="#808080" begin="zoomplus.mouseover" end="zoomplus.mouseout"/>
                        </use>
                        <path d="M-4,0h8M0,-4v8" fill="none" stroke="white" stroke-width="1.5" pointer-events="none"/>
                </g>
                <g id="zoomMin">
                        <use xlink:href="#rim" fill="#404040">
                                <set attributeName="fill" to="#808080" begin="zoomminus.mouseover" end="zoomminus.mouseout"/>
                        </use>
                        <path d="M-4,0h8" fill="none" stroke="white" stroke-width="1.5" pointer-events="none"/>
                </g>
                <g id="dirArrow">
                        <path fill="none" stroke="white" stroke-width="1.5" d="M0,-3.0v7 M-2.5,-0.5L0,-3.0L2.5,-0.5"/>
                </g>
               <g id="resetDef">
                       <use xlink:href="#rim2" fill="#404040">
                               <set attributeName="fill" to="#808080" begin="reset.mouseover" end="reset.mouseout"/>
                       </use>
               </g>
        </defs>

<script type="text/javascript">
var viewWidth = 700;
var viewHeight = 110;
var sectionId = 'dynsection-4';
</script>
<script xlink:href="../../svgpan.js"/>
<svg id="graph" class="graph">
<g id="viewport">
<title>WBToolbarSearch::aboutToShowMenu</title>
<polygon fill="white" stroke="white" points="-4,5 -4,-106 697,-106 697,5 -4,5"/>
<!-- Node1 -->
<g id="node1" class="node"><title>Node1</title>
<polygon fill="#bfbfbf" stroke="black" points="0.5,-34 0.5,-68 137.5,-68 137.5,-34 0.5,-34"/>
<text text-anchor="start" x="8.5" y="-55" font-family="Helvetica,sans-Serif" font-size="10.00">WBToolbarSearch::aboutTo</text>
<text text-anchor="middle" x="69" y="-42" font-family="Helvetica,sans-Serif" font-size="10.00">ShowMenu</text>
</g>
<!-- Node2 -->
<g id="node3" class="node"><title>Node2</title>
<a xlink:href="../../d6/dbb/class_w_b_ex_line_edit.html#ab4e568ff65b659f5b359f4a81ab54857" target="_top" xlink:title="WBExLineEdit::lineEdit">
<polygon fill="white" stroke="black" points="179.5,-80.5 179.5,-101.5 298.5,-101.5 298.5,-80.5 179.5,-80.5"/>
<text text-anchor="middle" x="239" y="-88.5" font-family="Helvetica,sans-Serif" font-size="10.00">WBExLineEdit::lineEdit</text>
</a>
</g>
<!-- Node1&#45;&gt;Node2 -->
<g id="edge2" class="edge"><title>Node1&#45;&gt;Node2</title>
<path fill="none" stroke="midnightblue" d="M137.655,-67.1542C153.154,-70.801 169.406,-74.625 184.244,-78.1163"/>
<polygon fill="midnightblue" stroke="midnightblue" points="183.728,-81.5904 194.264,-80.4739 185.332,-74.7765 183.728,-81.5904"/>
</g>
<!-- Node3 -->
<g id="node5" class="node"><title>Node3</title>
<a xlink:href="../../dd/d7f/class_w_b_search_line_edit.html#a44e00f3dccf769084ebe0b994baab91b" target="_top" xlink:title="WBSearchLineEdit::menu">
<polygon fill="white" stroke="black" points="174.5,-40.5 174.5,-61.5 303.5,-61.5 303.5,-40.5 174.5,-40.5"/>
<text text-anchor="middle" x="239" y="-48.5" font-family="Helvetica,sans-Serif" font-size="10.00">WBSearchLineEdit::menu</text>
</a>
</g>
<!-- Node1&#45;&gt;Node3 -->
<g id="edge4" class="edge"><title>Node1&#45;&gt;Node3</title>
<path fill="none" stroke="midnightblue" d="M137.655,-51C146.398,-51 155.381,-51 164.214,-51"/>
<polygon fill="midnightblue" stroke="midnightblue" points="164.492,-54.5001 174.492,-51 164.492,-47.5001 164.492,-54.5001"/>
</g>
<!-- Node4 -->
<g id="node7" class="node"><title>Node4</title>
<a xlink:href="../../d0/d5b/class_w_b_toolbar_search.html#ab7ebe2c0430bc2b31f37942bcbb11de5" target="_top" xlink:title="WBToolbarSearch::clear">
<polygon fill="white" stroke="black" points="177.5,-0.5 177.5,-21.5 300.5,-21.5 300.5,-0.5 177.5,-0.5"/>
<text text-anchor="middle" x="239" y="-8.5" font-family="Helvetica,sans-Serif" font-size="10.00">WBToolbarSearch::clear</text>
</a>
</g>
<!-- Node1&#45;&gt;Node4 -->
<g id="edge6" class="edge"><title>Node1&#45;&gt;Node4</title>
<path fill="none" stroke="midnightblue" d="M137.655,-34.8458C153.154,-31.199 169.406,-27.375 184.244,-23.8837"/>
<polygon fill="midnightblue" stroke="midnightblue" points="185.332,-27.2235 194.264,-21.5261 183.728,-20.4096 185.332,-27.2235"/>
</g>
<!-- Node5 -->
<g id="node9" class="node"><title>Node5</title>
<a xlink:href="../../dd/d3b/class_u_b_auto_saver.html#a3b7247fb354306120ff74fff03ed7135" target="_top" xlink:title="UBAutoSaver::changeOccurred">
<polygon fill="white" stroke="black" points="340,-0.5 340,-21.5 494,-21.5 494,-0.5 340,-0.5"/>
<text text-anchor="middle" x="417" y="-8.5" font-family="Helvetica,sans-Serif" font-size="10.00">UBAutoSaver::changeOccurred</text>
</a>
</g>
<!-- Node4&#45;&gt;Node5 -->
<g id="edge8" class="edge"><title>Node4&#45;&gt;Node5</title>
<path fill="none" stroke="midnightblue" d="M300.756,-11C310.146,-11 319.984,-11 329.793,-11"/>
<polygon fill="midnightblue" stroke="midnightblue" points="329.984,-14.5001 339.984,-11 329.984,-7.5001 329.984,-14.5001"/>
</g>
<!-- Node6 -->
<g id="node11" class="node"><title>Node6</title>
<a xlink:href="../../dd/d3b/class_u_b_auto_saver.html#add0bbcc4aaba6dcffdaa789a58dabb13" target="_top" xlink:title="UBAutoSaver::saveIfNeccessary">
<polygon fill="white" stroke="black" points="530,-0.5 530,-21.5 692,-21.5 692,-0.5 530,-0.5"/>
<text text-anchor="middle" x="611" y="-8.5" font-family="Helvetica,sans-Serif" font-size="10.00">UBAutoSaver::saveIfNeccessary</text>
</a>
</g>
<!-- Node5&#45;&gt;Node6 -->
<g id="edge10" class="edge"><title>Node5&#45;&gt;Node6</title>
<path fill="none" stroke="midnightblue" d="M494.231,-11C502.661,-11 511.3,-11 519.876,-11"/>
<polygon fill="midnightblue" stroke="midnightblue" points="519.9,-14.5001 529.9,-11 519.9,-7.5001 519.9,-14.5001"/>
</g>
</g>
</svg>
        <g id="navigator" transform="translate(0 0)" fill="#404254">
                <rect fill="#f2f5e9" fill-opacity="0.5" stroke="#606060" stroke-width=".5" x="0" y="0" width="60" height="60"/>
                <use id="zoomplus" xlink:href="#zoomPlus" x="17" y="9" onmousedown="handleZoom(evt,'in')"/>
                <use id="zoomminus" xlink:href="#zoomMin" x="42" y="9" onmousedown="handleZoom(evt,'out')"/>
                <use id="reset" xlink:href="#resetDef" x="30" y="36" onmousedown="handleReset()"/>
                <g id="arrowUp" xlink:href="#dirArrow" transform="translate(30 24)" onmousedown="handlePan(0,-1)">
                  <use xlink:href="#rim" fill="#404040">
                        <set attributeName="fill" to="#808080" begin="arrowUp.mouseover" end="arrowUp.mouseout"/>
                  </use>
                  <path fill="none" stroke="white" stroke-width="1.5" d="M0,-3.0v7 M-2.5,-0.5L0,-3.0L2.5,-0.5"/>
                </g>
                <g id="arrowRight" xlink:href="#dirArrow" transform="rotate(90) translate(36 -43)" onmousedown="handlePan(1,0)">
                  <use xlink:href="#rim" fill="#404040">
                        <set attributeName="fill" to="#808080" begin="arrowRight.mouseover" end="arrowRight.mouseout"/>
                  </use>
                  <path fill="none" stroke="white" stroke-width="1.5" d="M0,-3.0v7 M-2.5,-0.5L0,-3.0L2.5,-0.5"/>
                </g>
                <g id="arrowDown" xlink:href="#dirArrow" transform="rotate(180) translate(-30 -48)" onmousedown="handlePan(0,1)">
                  <use xlink:href="#rim" fill="#404040">
                        <set attributeName="fill" to="#808080" begin="arrowDown.mouseover" end="arrowDown.mouseout"/>
                  </use>
                  <path fill="none" stroke="white" stroke-width="1.5" d="M0,-3.0v7 M-2.5,-0.5L0,-3.0L2.5,-0.5"/>
                </g>
                <g id="arrowLeft" xlink:href="#dirArrow" transform="rotate(270) translate(-36 17)" onmousedown="handlePan(-1,0)">
                  <use xlink:href="#rim" fill="#404040">
                        <set attributeName="fill" to="#808080" begin="arrowLeft.mouseover" end="arrowLeft.mouseout"/>
                  </use>
                  <path fill="none" stroke="white" stroke-width="1.5" d="M0,-3.0v7 M-2.5,-0.5L0,-3.0L2.5,-0.5"/>
                </g>
        </g>
        <svg viewBox="0 0 15 15" width="100%" height="30px" preserveAspectRatio="xMaxYMin meet">
         <g id="arrow_out" transform="scale(0.3 0.3)">
          <a xlink:href="class_w_b_toolbar_search_a9620a554c58c2198e5440c9d8f9853f4_cgraph_org.svg" target="_base">
           <rect id="button" ry="5" rx="5" y="6" x="6" height="38" width="38"
                fill="#f2f5e9" fill-opacity="0.5" stroke="#606060" stroke-width="1.0"/>
           <path id="arrow"
             d="M 11.500037,31.436501 C 11.940474,20.09759 22.043105,11.32322 32.158766,21.979434 L 37.068811,17.246167 C 37.068811,17.246167 37.088388,32 37.088388,32 L 22.160133,31.978069 C 22.160133,31.978069 26.997745,27.140456 26.997745,27.140456 C 18.528582,18.264221 13.291696,25.230495 11.500037,31.436501 z"
             style="fill:#404040;"/>
          </a>
         </g>
        </svg>
</svg>
