<?xml version="1.0" encoding="UTF-8" standalone="no"?>
<!DOCTYPE svg PUBLIC "-//W3C//DTD SVG 1.1//EN"
 "http://www.w3.org/Graphics/SVG/1.1/DTD/svg11.dtd">
<!-- Generated by graphviz version 2.26.3 (20100126.1600)
 -->
<!-- Title: UBFileSystemUtils.cpp Pages: 1 -->
<!--zoomable 392 -->
<svg id="main" version="1.1" xmlns="http://www.w3.org/2000/svg" xmlns:xlink="http://www.w3.org/1999/xlink" xml:space="preserve" onload="init(evt)">
        <defs>
                <circle id="rim" cx="0" cy="0" r="7"/>
                <circle id="rim2" cx="0" cy="0" r="3.5"/>
                <g id="zoomPlus">
                        <use xlink:href="#rim" fill="#404040">
                                <set attributeName="fill" to="#808080" begin="zoomplus.mouseover" end="zoomplus.mouseout"/>
                        </use>
                        <path d="M-4,0h8M0,-4v8" fill="none" stroke="white" stroke-width="1.5" pointer-events="none"/>
                </g>
                <g id="zoomMin">
                        <use xlink:href="#rim" fill="#404040">
                                <set attributeName="fill" to="#808080" begin="zoomminus.mouseover" end="zoomminus.mouseout"/>
                        </use>
                        <path d="M-4,0h8" fill="none" stroke="white" stroke-width="1.5" pointer-events="none"/>
                </g>
                <g id="dirArrow">
                        <path fill="none" stroke="white" stroke-width="1.5" d="M0,-3.0v7 M-2.5,-0.5L0,-3.0L2.5,-0.5"/>
                </g>
               <g id="resetDef">
                       <use xlink:href="#rim2" fill="#404040">
                               <set attributeName="fill" to="#808080" begin="reset.mouseover" end="reset.mouseout"/>
                       </use>
               </g>
        </defs>

<script type="text/javascript">
var viewWidth = 1731;
var viewHeight = 392;
var sectionId = 'dynsection-0';
</script>
<script xlink:href="../../svgpan.js"/>
<svg id="graph" class="graph">
<g id="viewport">
<title>UBFileSystemUtils.cpp</title>
<polygon fill="white" stroke="white" points="-4,5 -4,-388 1728,-388 1728,5 -4,5"/>
<!-- Node1 -->
<g id="node1" class="node"><title>Node1</title>
<polygon fill="#bfbfbf" stroke="black" points="1275.5,-362.5 1275.5,-383.5 1394.5,-383.5 1394.5,-362.5 1275.5,-362.5"/>
<text text-anchor="middle" x="1335" y="-370.5" font-family="Helvetica,sans-Serif" font-size="10.00">UBFileSystemUtils.cpp</text>
</g>
<!-- Node2 -->
<g id="node3" class="node"><title>Node2</title>
<a xlink:href="../../d2/db5/_u_b_file_system_utils_8h.html" target="_top" xlink:title="UBFileSystemUtils.h">
<polygon fill="white" stroke="black" points="1158.5,-239.5 1158.5,-260.5 1267.5,-260.5 1267.5,-239.5 1158.5,-239.5"/>
<text text-anchor="middle" x="1213" y="-247.5" font-family="Helvetica,sans-Serif" font-size="10.00">UBFileSystemUtils.h</text>
</a>
</g>
<!-- Node1&#45;&gt;Node2 -->
<g id="edge2" class="edge"><title>Node1&#45;&gt;Node2</title>
<path fill="none" stroke="midnightblue" d="M1321.72,-362.233C1310.53,-352.978 1294.27,-339.092 1281,-326 1262.07,-307.327 1241.95,-284.406 1228.55,-268.648"/>
<polygon fill="midnightblue" stroke="midnightblue" points="1230.97,-266.089 1221.84,-260.703 1225.62,-270.603 1230.97,-266.089"/>
</g>
<!-- Node6 -->
<g id="node11" class="node"><title>Node6</title>
<polygon fill="white" stroke="#bfbfbf" points="212,-0.5 212,-21.5 254,-21.5 254,-0.5 212,-0.5"/>
<text text-anchor="middle" x="233" y="-8.5" font-family="Helvetica,sans-Serif" font-size="10.00">QtGui</text>
</g>
<!-- Node1&#45;&gt;Node6 -->
<g id="edge12" class="edge"><title>Node1&#45;&gt;Node6</title>
<path fill="none" stroke="midnightblue" d="M1328.92,-362.193C1317.73,-341.241 1295,-293.338 1295,-250 1295,-250 1295,-250 1295,-127 1295,-73.7486 440.067,-22.6722 264.344,-12.7364"/>
<polygon fill="midnightblue" stroke="midnightblue" points="264.395,-9.23378 254.214,-12.1667 264.002,-16.2227 264.395,-9.23378"/>
</g>
<!-- Node7 -->
<g id="node14" class="node"><title>Node7</title>
<a xlink:href="../../db/d54/_u_b_application_8h.html" target="_top" xlink:title="core/UBApplication.h">
<polygon fill="white" stroke="black" points="922.5,-304.5 922.5,-325.5 1031.5,-325.5 1031.5,-304.5 922.5,-304.5"/>
<text text-anchor="middle" x="977" y="-312.5" font-family="Helvetica,sans-Serif" font-size="10.00">core/UBApplication.h</text>
</a>
</g>
<!-- Node1&#45;&gt;Node7 -->
<g id="edge14" class="edge"><title>Node1&#45;&gt;Node7</title>
<path fill="none" stroke="midnightblue" d="M1275.48,-363.357C1210.9,-352.894 1108.12,-336.244 1041.61,-325.468"/>
<polygon fill="midnightblue" stroke="midnightblue" points="1042.1,-322.001 1031.67,-323.856 1040.98,-328.911 1042.1,-322.001"/>
</g>
<!-- Node26 -->
<g id="node60" class="node"><title>Node26</title>
<a xlink:href="../../df/d8e/_u_b_document_container_8h.html" target="_top" xlink:title="document/UBDocumentContainer.h">
<polygon fill="white" stroke="black" points="0,-239.5 0,-260.5 172,-260.5 172,-239.5 0,-239.5"/>
<text text-anchor="middle" x="86" y="-247.5" font-family="Helvetica,sans-Serif" font-size="10.00">document/UBDocumentContainer.h</text>
</a>
</g>
<!-- Node1&#45;&gt;Node26 -->
<g id="edge68" class="edge"><title>Node1&#45;&gt;Node26</title>
<path fill="none" stroke="midnightblue" d="M1275.29,-369.383C1104.76,-358.656 601.109,-324.219 186,-268 174.187,-266.4 161.642,-264.391 149.575,-262.299"/>
<polygon fill="midnightblue" stroke="midnightblue" points="150.035,-258.826 139.578,-260.53 148.815,-265.719 150.035,-258.826"/>
</g>
<!-- Node27 -->
<g id="node64" class="node"><title>Node27</title>
<a xlink:href="../../df/d99/_sankore-gh-pages_2src_2globals_2_u_b_globals_8h.html" target="_top" xlink:title="globals/UBGlobals.h">
<polygon fill="white" stroke="black" points="1323,-304.5 1323,-325.5 1429,-325.5 1429,-304.5 1323,-304.5"/>
<text text-anchor="middle" x="1376" y="-312.5" font-family="Helvetica,sans-Serif" font-size="10.00">globals/UBGlobals.h</text>
</a>
</g>
<!-- Node1&#45;&gt;Node27 -->
<g id="edge74" class="edge"><title>Node1&#45;&gt;Node27</title>
<path fill="none" stroke="midnightblue" d="M1342.52,-362.362C1348.13,-354.431 1355.93,-343.389 1362.6,-333.961"/>
<polygon fill="midnightblue" stroke="midnightblue" points="1365.61,-335.757 1368.53,-325.571 1359.9,-331.716 1365.61,-335.757"/>
</g>
<!-- Node30 -->
<g id="node70" class="node"><title>Node30</title>
<polygon fill="white" stroke="#bfbfbf" points="1447,-304.5 1447,-325.5 1513,-325.5 1513,-304.5 1447,-304.5"/>
<text text-anchor="middle" x="1480" y="-312.5" font-family="Helvetica,sans-Serif" font-size="10.00">quazipfile.h</text>
</g>
<!-- Node1&#45;&gt;Node30 -->
<g id="edge80" class="edge"><title>Node1&#45;&gt;Node30</title>
<path fill="none" stroke="midnightblue" d="M1361.26,-362.497C1384.42,-353.234 1418.38,-339.65 1444.05,-329.379"/>
<polygon fill="midnightblue" stroke="midnightblue" points="1445.46,-332.585 1453.45,-325.621 1442.86,-326.086 1445.46,-332.585"/>
</g>
<!-- Node31 -->
<g id="node72" class="node"><title>Node31</title>
<polygon fill="white" stroke="#bfbfbf" points="1531,-304.5 1531,-325.5 1611,-325.5 1611,-304.5 1531,-304.5"/>
<text text-anchor="middle" x="1571" y="-312.5" font-family="Helvetica,sans-Serif" font-size="10.00">openssl/md5.h</text>
</g>
<!-- Node1&#45;&gt;Node31 -->
<g id="edge82" class="edge"><title>Node1&#45;&gt;Node31</title>
<path fill="none" stroke="midnightblue" d="M1377.74,-362.497C1418.07,-352.584 1478.54,-337.723 1521.08,-327.269"/>
<polygon fill="midnightblue" stroke="midnightblue" points="1522.07,-330.631 1530.94,-324.845 1520.39,-323.833 1522.07,-330.631"/>
</g>
<!-- Node32 -->
<g id="node74" class="node"><title>Node32</title>
<a xlink:href="../../db/d80/memcheck_8h.html" target="_top" xlink:title="core/memcheck.h">
<polygon fill="white" stroke="black" points="1628.5,-304.5 1628.5,-325.5 1723.5,-325.5 1723.5,-304.5 1628.5,-304.5"/>
<text text-anchor="middle" x="1676" y="-312.5" font-family="Helvetica,sans-Serif" font-size="10.00">core/memcheck.h</text>
</a>
</g>
<!-- Node1&#45;&gt;Node32 -->
<g id="edge84" class="edge"><title>Node1&#45;&gt;Node32</title>
<path fill="none" stroke="midnightblue" d="M1394.59,-363.715C1450.11,-354.941 1535.47,-341.14 1618.51,-326.236"/>
<polygon fill="midnightblue" stroke="midnightblue" points="1619.14,-329.679 1628.36,-324.461 1617.9,-322.79 1619.14,-329.679"/>
</g>
<!-- Node3 -->
<g id="node5" class="node"><title>Node3</title>
<polygon fill="white" stroke="#bfbfbf" points="431,-58.5 431,-79.5 479,-79.5 479,-58.5 431,-58.5"/>
<text text-anchor="middle" x="455" y="-66.5" font-family="Helvetica,sans-Serif" font-size="10.00">QtCore</text>
</g>
<!-- Node2&#45;&gt;Node3 -->
<g id="edge4" class="edge"><title>Node2&#45;&gt;Node3</title>
<path fill="none" stroke="midnightblue" d="M1215.97,-239.361C1222.38,-213.827 1234.32,-148.767 1200,-116 1144.61,-63.1134 603.579,-92.5408 489.517,-79.4289"/>
<polygon fill="midnightblue" stroke="midnightblue" points="489.717,-75.9206 479.313,-77.9224 488.694,-82.8455 489.717,-75.9206"/>
</g>
<!-- Node4 -->
<g id="node7" class="node"><title>Node4</title>
<polygon fill="white" stroke="#bfbfbf" points="1082,-174.5 1082,-195.5 1136,-195.5 1136,-174.5 1082,-174.5"/>
<text text-anchor="middle" x="1109" y="-182.5" font-family="Helvetica,sans-Serif" font-size="10.00">QThread</text>
</g>
<!-- Node2&#45;&gt;Node4 -->
<g id="edge6" class="edge"><title>Node2&#45;&gt;Node4</title>
<path fill="none" stroke="midnightblue" d="M1195.83,-239.267C1179.09,-228.807 1153.45,-212.782 1134.37,-200.854"/>
<polygon fill="midnightblue" stroke="midnightblue" points="1136.19,-197.866 1125.85,-195.534 1132.48,-203.802 1136.19,-197.866"/>
</g>
<!-- Node5 -->
<g id="node9" class="node"><title>Node5</title>
<a xlink:href="../../d6/dd0/_u_b_8h.html" target="_top" xlink:title="core/UB.h">
<polygon fill="white" stroke="black" points="496.5,-58.5 496.5,-79.5 557.5,-79.5 557.5,-58.5 496.5,-58.5"/>
<text text-anchor="middle" x="527" y="-66.5" font-family="Helvetica,sans-Serif" font-size="10.00">core/UB.h</text>
</a>
</g>
<!-- Node2&#45;&gt;Node5 -->
<g id="edge8" class="edge"><title>Node2&#45;&gt;Node5</title>
<path fill="none" stroke="midnightblue" d="M1219.63,-239.26C1234.24,-214.068 1265.46,-150.695 1233,-116 1210.15,-91.5792 715.16,-74.692 567.943,-70.196"/>
<polygon fill="midnightblue" stroke="midnightblue" points="567.658,-66.6858 557.557,-69.8818 567.447,-73.6826 567.658,-66.6858"/>
</g>
<!-- Node5&#45;&gt;Node6 -->
<g id="edge10" class="edge"><title>Node5&#45;&gt;Node6</title>
<path fill="none" stroke="midnightblue" d="M496.413,-60.0836C493.577,-59.3446 490.741,-58.6377 488,-58 408.105,-39.412 312.752,-23.4732 264.426,-15.8297"/>
<polygon fill="midnightblue" stroke="midnightblue" points="264.716,-12.3326 254.295,-14.2403 263.631,-19.248 264.716,-12.3326"/>
</g>
<!-- Node7&#45;&gt;Node6 -->
<g id="edge16" class="edge"><title>Node7&#45;&gt;Node6</title>
<path fill="none" stroke="midnightblue" d="M922.466,-310.876C751.33,-297.389 233.394,-252.208 185,-196 143.088,-147.32 192.016,-66.4687 218.361,-29.9428"/>
<polygon fill="midnightblue" stroke="midnightblue" points="221.359,-31.7756 224.504,-21.6581 215.736,-27.6065 221.359,-31.7756"/>
</g>
<!-- Node8 -->
<g id="node17" class="node"><title>Node8</title>
<polygon fill="white" stroke="#bfbfbf" points="992.5,-239.5 992.5,-260.5 1097.5,-260.5 1097.5,-239.5 992.5,-239.5"/>
<text text-anchor="middle" x="1045" y="-247.5" font-family="Helvetica,sans-Serif" font-size="10.00">qtsingleapplication.h</text>
</g>
<!-- Node7&#45;&gt;Node8 -->
<g id="edge18" class="edge"><title>Node7&#45;&gt;Node8</title>
<path fill="none" stroke="midnightblue" d="M988.229,-304.267C998.626,-294.328 1014.28,-279.363 1026.52,-267.664"/>
<polygon fill="midnightblue" stroke="midnightblue" points="1029.17,-269.974 1033.98,-260.534 1024.33,-264.913 1029.17,-269.974"/>
</g>
<!-- Node9 -->
<g id="node19" class="node"><title>Node9</title>
<a xlink:href="../../d1/d9d/_uniboard_sankore_transition_8h.html" target="_top" xlink:title="transition/UniboardSankore\lTransition.h">
<polygon fill="white" stroke="black" points="841,-233 841,-267 975,-267 975,-233 841,-233"/>
<text text-anchor="start" x="849" y="-254" font-family="Helvetica,sans-Serif" font-size="10.00">transition/UniboardSankore</text>
<text text-anchor="middle" x="908" y="-241" font-family="Helvetica,sans-Serif" font-size="10.00">Transition.h</text>
</a>
</g>
<!-- Node7&#45;&gt;Node9 -->
<g id="edge20" class="edge"><title>Node7&#45;&gt;Node9</title>
<path fill="none" stroke="midnightblue" d="M965.606,-304.267C956.898,-296.063 944.555,-284.436 933.527,-274.047"/>
<polygon fill="midnightblue" stroke="midnightblue" points="935.842,-271.419 926.163,-267.11 931.042,-276.514 935.842,-271.419"/>
</g>
<!-- Node9&#45;&gt;Node4 -->
<g id="edge26" class="edge"><title>Node9&#45;&gt;Node4</title>
<path fill="none" stroke="midnightblue" d="M960.81,-232.922C995.865,-221.586 1041,-206.991 1072.2,-196.901"/>
<polygon fill="midnightblue" stroke="midnightblue" points="1073.37,-200.201 1081.81,-193.794 1071.22,-193.54 1073.37,-200.201"/>
</g>
<!-- Node10 -->
<g id="node21" class="node"><title>Node10</title>
<polygon fill="white" stroke="#bfbfbf" points="881.5,-174.5 881.5,-195.5 934.5,-195.5 934.5,-174.5 881.5,-174.5"/>
<text text-anchor="middle" x="908" y="-182.5" font-family="Helvetica,sans-Serif" font-size="10.00">QObject</text>
</g>
<!-- Node9&#45;&gt;Node10 -->
<g id="edge22" class="edge"><title>Node9&#45;&gt;Node10</title>
<path fill="none" stroke="midnightblue" d="M908,-232.922C908,-224.67 908,-214.692 908,-205.982"/>
<polygon fill="midnightblue" stroke="midnightblue" points="911.5,-205.852 908,-195.852 904.5,-205.852 911.5,-205.852"/>
</g>
<!-- Node11 -->
<g id="node23" class="node"><title>Node11</title>
<polygon fill="white" stroke="#bfbfbf" points="952,-174.5 952,-195.5 1008,-195.5 1008,-174.5 952,-174.5"/>
<text text-anchor="middle" x="980" y="-182.5" font-family="Helvetica,sans-Serif" font-size="10.00">QFileInfo</text>
</g>
<!-- Node9&#45;&gt;Node11 -->
<g id="edge24" class="edge"><title>Node9&#45;&gt;Node11</title>
<path fill="none" stroke="midnightblue" d="M926.917,-232.922C937.276,-223.57 950.092,-212.001 960.535,-202.572"/>
<polygon fill="midnightblue" stroke="midnightblue" points="962.902,-205.151 967.979,-195.852 958.211,-199.955 962.902,-205.151"/>
</g>
<!-- Node12 -->
<g id="node26" class="node"><title>Node12</title>
<a xlink:href="../../db/dc7/_u_b_update_dlg_8h.html" target="_top" xlink:title="gui/UBUpdateDlg.h">
<polygon fill="white" stroke="black" points="763.5,-174.5 763.5,-195.5 864.5,-195.5 864.5,-174.5 763.5,-174.5"/>
<text text-anchor="middle" x="814" y="-182.5" font-family="Helvetica,sans-Serif" font-size="10.00">gui/UBUpdateDlg.h</text>
</a>
</g>
<!-- Node9&#45;&gt;Node12 -->
<g id="edge28" class="edge"><title>Node9&#45;&gt;Node12</title>
<path fill="none" stroke="midnightblue" d="M883.303,-232.922C869.291,-223.233 851.838,-211.165 837.952,-201.562"/>
<polygon fill="midnightblue" stroke="midnightblue" points="839.629,-198.467 829.414,-195.658 835.648,-204.225 839.629,-198.467"/>
</g>
<!-- Node21 -->
<g id="node44" class="node"><title>Node21</title>
<a xlink:href="../../db/dea/_u_b_document_proxy_8h.html" target="_top" xlink:title="document/UBDocumentProxy.h">
<polygon fill="white" stroke="black" points="193.5,-174.5 193.5,-195.5 348.5,-195.5 348.5,-174.5 193.5,-174.5"/>
<text text-anchor="middle" x="271" y="-182.5" font-family="Helvetica,sans-Serif" font-size="10.00">document/UBDocumentProxy.h</text>
</a>
</g>
<!-- Node9&#45;&gt;Node21 -->
<g id="edge46" class="edge"><title>Node9&#45;&gt;Node21</title>
<path fill="none" stroke="midnightblue" d="M840.734,-243.136C724.823,-231.308 487.523,-207.094 358.775,-193.957"/>
<polygon fill="midnightblue" stroke="midnightblue" points="358.862,-190.447 348.558,-192.914 358.151,-197.411 358.862,-190.447"/>
</g>
<!-- Node13 -->
<g id="node28" class="node"><title>Node13</title>
<polygon fill="white" stroke="#bfbfbf" points="601,-116.5 601,-137.5 653,-137.5 653,-116.5 601,-116.5"/>
<text text-anchor="middle" x="627" y="-124.5" font-family="Helvetica,sans-Serif" font-size="10.00">QDialog</text>
</g>
<!-- Node12&#45;&gt;Node13 -->
<g id="edge30" class="edge"><title>Node12&#45;&gt;Node13</title>
<path fill="none" stroke="midnightblue" d="M779.878,-174.498C751.109,-165.633 708.595,-152.508 663.115,-138.34"/>
<polygon fill="midnightblue" stroke="midnightblue" points="663.958,-134.936 653.369,-135.302 661.875,-141.619 663.958,-134.936"/>
</g>
<!-- Node14 -->
<g id="node30" class="node"><title>Node14</title>
<polygon fill="white" stroke="#bfbfbf" points="670.5,-116.5 670.5,-137.5 717.5,-137.5 717.5,-116.5 670.5,-116.5"/>
<text text-anchor="middle" x="694" y="-124.5" font-family="Helvetica,sans-Serif" font-size="10.00">QLabel</text>
</g>
<!-- Node12&#45;&gt;Node14 -->
<g id="edge32" class="edge"><title>Node12&#45;&gt;Node14</title>
<path fill="none" stroke="midnightblue" d="M792.269,-174.497C773.526,-165.438 746.233,-152.246 725.164,-142.063"/>
<polygon fill="midnightblue" stroke="midnightblue" points="726.502,-138.822 715.975,-137.621 723.455,-145.124 726.502,-138.822"/>
</g>
<!-- Node15 -->
<g id="node32" class="node"><title>Node15</title>
<polygon fill="white" stroke="#bfbfbf" points="734.5,-116.5 734.5,-137.5 809.5,-137.5 809.5,-116.5 734.5,-116.5"/>
<text text-anchor="middle" x="772" y="-124.5" font-family="Helvetica,sans-Serif" font-size="10.00">QPushButton</text>
</g>
<!-- Node12&#45;&gt;Node15 -->
<g id="edge34" class="edge"><title>Node12&#45;&gt;Node15</title>
<path fill="none" stroke="midnightblue" d="M806.297,-174.362C800.554,-166.431 792.557,-155.389 785.73,-145.961"/>
<polygon fill="midnightblue" stroke="midnightblue" points="788.355,-143.617 779.655,-137.571 782.685,-147.723 788.355,-143.617"/>
</g>
<!-- Node16 -->
<g id="node34" class="node"><title>Node16</title>
<polygon fill="white" stroke="#bfbfbf" points="826.5,-116.5 826.5,-137.5 885.5,-137.5 885.5,-116.5 826.5,-116.5"/>
<text text-anchor="middle" x="856" y="-124.5" font-family="Helvetica,sans-Serif" font-size="10.00">QLineEdit</text>
</g>
<!-- Node12&#45;&gt;Node16 -->
<g id="edge36" class="edge"><title>Node12&#45;&gt;Node16</title>
<path fill="none" stroke="midnightblue" d="M821.703,-174.362C827.446,-166.431 835.443,-155.389 842.27,-145.961"/>
<polygon fill="midnightblue" stroke="midnightblue" points="845.315,-147.723 848.345,-137.571 839.645,-143.617 845.315,-147.723"/>
</g>
<!-- Node17 -->
<g id="node36" class="node"><title>Node17</title>
<polygon fill="white" stroke="#bfbfbf" points="903,-116.5 903,-137.5 1001,-137.5 1001,-116.5 903,-116.5"/>
<text text-anchor="middle" x="952" y="-124.5" font-family="Helvetica,sans-Serif" font-size="10.00">QDialogButtonBox</text>
</g>
<!-- Node12&#45;&gt;Node17 -->
<g id="edge38" class="edge"><title>Node12&#45;&gt;Node17</title>
<path fill="none" stroke="midnightblue" d="M838.991,-174.497C860.933,-165.275 893.066,-151.769 917.464,-141.515"/>
<polygon fill="midnightblue" stroke="midnightblue" points="918.866,-144.722 926.729,-137.621 916.154,-138.269 918.866,-144.722"/>
</g>
<!-- Node18 -->
<g id="node38" class="node"><title>Node18</title>
<polygon fill="white" stroke="#bfbfbf" points="1018.5,-116.5 1018.5,-137.5 1095.5,-137.5 1095.5,-116.5 1018.5,-116.5"/>
<text text-anchor="middle" x="1057" y="-124.5" font-family="Helvetica,sans-Serif" font-size="10.00">QVBoxLayout</text>
</g>
<!-- Node12&#45;&gt;Node18 -->
<g id="edge40" class="edge"><title>Node12&#45;&gt;Node18</title>
<path fill="none" stroke="midnightblue" d="M858.005,-174.497C900.385,-164.381 964.354,-149.113 1008.26,-138.634"/>
<polygon fill="midnightblue" stroke="midnightblue" points="1009.22,-142.003 1018.13,-136.277 1007.59,-135.194 1009.22,-142.003"/>
</g>
<!-- Node19 -->
<g id="node40" class="node"><title>Node19</title>
<polygon fill="white" stroke="#bfbfbf" points="1113,-116.5 1113,-137.5 1191,-137.5 1191,-116.5 1113,-116.5"/>
<text text-anchor="middle" x="1152" y="-124.5" font-family="Helvetica,sans-Serif" font-size="10.00">QHBoxLayout</text>
</g>
<!-- Node12&#45;&gt;Node19 -->
<g id="edge42" class="edge"><title>Node12&#45;&gt;Node19</title>
<path fill="none" stroke="midnightblue" d="M864.513,-175.48C867.383,-174.971 870.227,-174.474 873,-174 972.317,-157.007 1000.29,-157.565 1102.92,-138.113"/>
<polygon fill="midnightblue" stroke="midnightblue" points="1103.59,-141.548 1112.76,-136.231 1102.28,-134.673 1103.59,-141.548"/>
</g>
<!-- Node20 -->
<g id="node42" class="node"><title>Node20</title>
<polygon fill="white" stroke="#bfbfbf" points="492.5,-116.5 492.5,-137.5 583.5,-137.5 583.5,-116.5 492.5,-116.5"/>
<text text-anchor="middle" x="538" y="-124.5" font-family="Helvetica,sans-Serif" font-size="10.00">QStackedWidget</text>
</g>
<!-- Node12&#45;&gt;Node20 -->
<g id="edge44" class="edge"><title>Node12&#45;&gt;Node20</title>
<path fill="none" stroke="midnightblue" d="M764.018,-174.497C716.059,-164.418 643.758,-149.225 593.909,-138.749"/>
<polygon fill="midnightblue" stroke="midnightblue" points="594.447,-135.286 583.941,-136.654 593.008,-142.136 594.447,-135.286"/>
</g>
<!-- Node21&#45;&gt;Node6 -->
<g id="edge48" class="edge"><title>Node21&#45;&gt;Node6</title>
<path fill="none" stroke="midnightblue" d="M250.645,-174.453C237.523,-166.416 221.549,-154.009 214,-138 197.463,-102.931 212.164,-56.8975 223.292,-30.982"/>
<polygon fill="midnightblue" stroke="midnightblue" points="226.514,-32.351 227.453,-21.7978 220.138,-29.4621 226.514,-32.351"/>
</g>
<!-- Node22 -->
<g id="node47" class="node"><title>Node22</title>
<a xlink:href="../../d7/dca/_u_b_string_utils_8h.html" target="_top" xlink:title="frameworks/UBStringUtils.h">
<polygon fill="white" stroke="black" points="336.5,-116.5 336.5,-137.5 475.5,-137.5 475.5,-116.5 336.5,-116.5"/>
<text text-anchor="middle" x="406" y="-124.5" font-family="Helvetica,sans-Serif" font-size="10.00">frameworks/UBStringUtils.h</text>
</a>
</g>
<!-- Node21&#45;&gt;Node22 -->
<g id="edge50" class="edge"><title>Node21&#45;&gt;Node22</title>
<path fill="none" stroke="midnightblue" d="M295.447,-174.497C316.818,-165.315 348.069,-151.889 371.897,-141.652"/>
<polygon fill="midnightblue" stroke="midnightblue" points="373.472,-144.784 381.278,-137.621 370.709,-138.353 373.472,-144.784"/>
</g>
<!-- Node23 -->
<g id="node50" class="node"><title>Node23</title>
<a xlink:href="../../d1/d92/_u_b_settings_8h.html" target="_top" xlink:title="core/UBSettings.h">
<polygon fill="white" stroke="black" points="222.5,-116.5 222.5,-137.5 319.5,-137.5 319.5,-116.5 222.5,-116.5"/>
<text text-anchor="middle" x="271" y="-124.5" font-family="Helvetica,sans-Serif" font-size="10.00">core/UBSettings.h</text>
</a>
</g>
<!-- Node21&#45;&gt;Node23 -->
<g id="edge54" class="edge"><title>Node21&#45;&gt;Node23</title>
<path fill="none" stroke="midnightblue" d="M271,-174.362C271,-166.922 271,-156.743 271,-147.728"/>
<polygon fill="midnightblue" stroke="midnightblue" points="274.5,-147.571 271,-137.571 267.5,-147.571 274.5,-147.571"/>
</g>
<!-- Node22&#45;&gt;Node3 -->
<g id="edge52" class="edge"><title>Node22&#45;&gt;Node3</title>
<path fill="none" stroke="midnightblue" d="M414.987,-116.362C421.825,-108.268 431.402,-96.9318 439.472,-87.3796"/>
<polygon fill="midnightblue" stroke="midnightblue" points="442.29,-89.4683 446.07,-79.5707 436.942,-84.9508 442.29,-89.4683"/>
</g>
<!-- Node23&#45;&gt;Node3 -->
<g id="edge56" class="edge"><title>Node23&#45;&gt;Node3</title>
<path fill="none" stroke="midnightblue" d="M305.546,-116.462C334.157,-107.687 376.112,-94.7101 421.202,-80.2199"/>
<polygon fill="midnightblue" stroke="midnightblue" points="422.423,-83.5039 430.868,-77.1059 420.276,-76.8411 422.423,-83.5039"/>
</g>
<!-- Node23&#45;&gt;Node5 -->
<g id="edge62" class="edge"><title>Node23&#45;&gt;Node5</title>
<path fill="none" stroke="midnightblue" d="M319.893,-117.307C361.764,-108.804 423.88,-95.7142 486.363,-80.3164"/>
<polygon fill="midnightblue" stroke="midnightblue" points="487.529,-83.6331 496.391,-77.8257 485.842,-76.8395 487.529,-83.6331"/>
</g>
<!-- Node23&#45;&gt;Node6 -->
<g id="edge58" class="edge"><title>Node23&#45;&gt;Node6</title>
<path fill="none" stroke="midnightblue" d="M266.265,-116.306C262.184,-106.865 256.29,-92.6714 252,-80 246.593,-64.0274 241.578,-45.5974 238.06,-31.8049"/>
<polygon fill="midnightblue" stroke="midnightblue" points="241.399,-30.7277 235.581,-21.8733 234.608,-32.4234 241.399,-30.7277"/>
</g>
<!-- Node24 -->
<g id="node54" class="node"><title>Node24</title>
<polygon fill="white" stroke="#bfbfbf" points="349,-58.5 349,-79.5 413,-79.5 413,-58.5 349,-58.5"/>
<text text-anchor="middle" x="381" y="-66.5" font-family="Helvetica,sans-Serif" font-size="10.00">QtNetwork</text>
</g>
<!-- Node23&#45;&gt;Node24 -->
<g id="edge60" class="edge"><title>Node23&#45;&gt;Node24</title>
<path fill="none" stroke="midnightblue" d="M290.92,-116.497C307.946,-107.519 332.669,-94.4835 351.909,-84.3387"/>
<polygon fill="midnightblue" stroke="midnightblue" points="353.643,-87.3814 360.856,-79.6212 350.378,-81.1894 353.643,-87.3814"/>
</g>
<!-- Node25 -->
<g id="node57" class="node"><title>Node25</title>
<a xlink:href="../../d3/d76/_u_b_setting_8h.html" target="_top" xlink:title="UBSetting.h">
<polygon fill="white" stroke="black" points="261,-58.5 261,-79.5 331,-79.5 331,-58.5 261,-58.5"/>
<text text-anchor="middle" x="296" y="-66.5" font-family="Helvetica,sans-Serif" font-size="10.00">UBSetting.h</text>
</a>
</g>
<!-- Node23&#45;&gt;Node25 -->
<g id="edge64" class="edge"><title>Node23&#45;&gt;Node25</title>
<path fill="none" stroke="midnightblue" d="M275.585,-116.362C278.898,-108.677 283.47,-98.0686 287.448,-88.8399"/>
<polygon fill="midnightblue" stroke="midnightblue" points="290.699,-90.1393 291.444,-79.5707 284.271,-87.3685 290.699,-90.1393"/>
</g>
<!-- Node25&#45;&gt;Node6 -->
<g id="edge66" class="edge"><title>Node25&#45;&gt;Node6</title>
<path fill="none" stroke="midnightblue" d="M284.445,-58.3619C275.387,-50.0226 262.59,-38.2418 252.026,-28.5162"/>
<polygon fill="midnightblue" stroke="midnightblue" points="254.21,-25.7688 244.482,-21.5707 249.468,-30.9187 254.21,-25.7688"/>
</g>
<!-- Node26&#45;&gt;Node6 -->
<g id="edge70" class="edge"><title>Node26&#45;&gt;Node6</title>
<path fill="none" stroke="midnightblue" d="M86.3628,-239.089C87.9594,-207.454 96.5734,-114.36 143,-58 158.175,-39.5783 182.474,-27.4955 202.001,-20.1995"/>
<polygon fill="midnightblue" stroke="midnightblue" points="203.416,-23.4128 211.703,-16.8123 201.109,-16.8039 203.416,-23.4128"/>
</g>
<!-- Node26&#45;&gt;Node21 -->
<g id="edge72" class="edge"><title>Node26&#45;&gt;Node21</title>
<path fill="none" stroke="midnightblue" d="M116.135,-239.412C147.446,-228.411 196.603,-211.14 231.116,-199.013"/>
<polygon fill="midnightblue" stroke="midnightblue" points="232.603,-202.201 240.878,-195.584 230.283,-195.596 232.603,-202.201"/>
</g>
<!-- Node28 -->
<g id="node66" class="node"><title>Node28</title>
<polygon fill="white" stroke="#bfbfbf" points="1337,-239.5 1337,-260.5 1387,-260.5 1387,-239.5 1337,-239.5"/>
<text text-anchor="middle" x="1362" y="-247.5" font-family="Helvetica,sans-Serif" font-size="10.00">QString</text>
</g>
<!-- Node27&#45;&gt;Node28 -->
<g id="edge76" class="edge"><title>Node27&#45;&gt;Node28</title>
<path fill="none" stroke="midnightblue" d="M1373.69,-304.267C1371.71,-295.085 1368.81,-281.615 1366.39,-270.392"/>
<polygon fill="midnightblue" stroke="midnightblue" points="1369.8,-269.573 1364.27,-260.534 1362.95,-271.046 1369.8,-269.573"/>
</g>
<!-- Node29 -->
<g id="node68" class="node"><title>Node29</title>
<polygon fill="white" stroke="#bfbfbf" points="1405,-239.5 1405,-260.5 1445,-260.5 1445,-239.5 1405,-239.5"/>
<text text-anchor="middle" x="1425" y="-247.5" font-family="Helvetica,sans-Serif" font-size="10.00">QFile</text>
</g>
<!-- Node27&#45;&gt;Node29 -->
<g id="edge78" class="edge"><title>Node27&#45;&gt;Node29</title>
<path fill="none" stroke="midnightblue" d="M1384.09,-304.267C1391.37,-294.612 1402.22,-280.215 1410.92,-268.675"/>
<polygon fill="midnightblue" stroke="midnightblue" points="1413.83,-270.626 1417.06,-260.534 1408.24,-266.412 1413.83,-270.626"/>
</g>
</g>
</svg>
        <g id="navigator" transform="translate(0 0)" fill="#404254">
                <rect fill="#f2f5e9" fill-opacity="0.5" stroke="#606060" stroke-width=".5" x="0" y="0" width="60" height="60"/>
                <use id="zoomplus" xlink:href="#zoomPlus" x="17" y="9" onmousedown="handleZoom(evt,'in')"/>
                <use id="zoomminus" xlink:href="#zoomMin" x="42" y="9" onmousedown="handleZoom(evt,'out')"/>
                <use id="reset" xlink:href="#resetDef" x="30" y="36" onmousedown="handleReset()"/>
                <g id="arrowUp" xlink:href="#dirArrow" transform="translate(30 24)" onmousedown="handlePan(0,-1)">
                  <use xlink:href="#rim" fill="#404040">
                        <set attributeName="fill" to="#808080" begin="arrowUp.mouseover" end="arrowUp.mouseout"/>
                  </use>
                  <path fill="none" stroke="white" stroke-width="1.5" d="M0,-3.0v7 M-2.5,-0.5L0,-3.0L2.5,-0.5"/>
                </g>
                <g id="arrowRight" xlink:href="#dirArrow" transform="rotate(90) translate(36 -43)" onmousedown="handlePan(1,0)">
                  <use xlink:href="#rim" fill="#404040">
                        <set attributeName="fill" to="#808080" begin="arrowRight.mouseover" end="arrowRight.mouseout"/>
                  </use>
                  <path fill="none" stroke="white" stroke-width="1.5" d="M0,-3.0v7 M-2.5,-0.5L0,-3.0L2.5,-0.5"/>
                </g>
                <g id="arrowDown" xlink:href="#dirArrow" transform="rotate(180) translate(-30 -48)" onmousedown="handlePan(0,1)">
                  <use xlink:href="#rim" fill="#404040">
                        <set attributeName="fill" to="#808080" begin="arrowDown.mouseover" end="arrowDown.mouseout"/>
                  </use>
                  <path fill="none" stroke="white" stroke-width="1.5" d="M0,-3.0v7 M-2.5,-0.5L0,-3.0L2.5,-0.5"/>
                </g>
                <g id="arrowLeft" xlink:href="#dirArrow" transform="rotate(270) translate(-36 17)" onmousedown="handlePan(-1,0)">
                  <use xlink:href="#rim" fill="#404040">
                        <set attributeName="fill" to="#808080" begin="arrowLeft.mouseover" end="arrowLeft.mouseout"/>
                  </use>
                  <path fill="none" stroke="white" stroke-width="1.5" d="M0,-3.0v7 M-2.5,-0.5L0,-3.0L2.5,-0.5"/>
                </g>
        </g>
        <svg viewBox="0 0 15 15" width="100%" height="30px" preserveAspectRatio="xMaxYMin meet">
         <g id="arrow_out" transform="scale(0.3 0.3)">
          <a xlink:href="_u_b_file_system_utils_8cpp__incl_org.svg" target="_base">
           <rect id="button" ry="5" rx="5" y="6" x="6" height="38" width="38"
                fill="#f2f5e9" fill-opacity="0.5" stroke="#606060" stroke-width="1.0"/>
           <path id="arrow"
             d="M 11.500037,31.436501 C 11.940474,20.09759 22.043105,11.32322 32.158766,21.979434 L 37.068811,17.246167 C 37.068811,17.246167 37.088388,32 37.088388,32 L 22.160133,31.978069 C 22.160133,31.978069 26.997745,27.140456 26.997745,27.140456 C 18.528582,18.264221 13.291696,25.230495 11.500037,31.436501 z"
             style="fill:#404040;"/>
          </a>
         </g>
        </svg>
</svg>
