<?xml version="1.0" encoding="UTF-8" standalone="no"?>
<!DOCTYPE svg PUBLIC "-//W3C//DTD SVG 1.1//EN"
 "http://www.w3.org/Graphics/SVG/1.1/DTD/svg11.dtd">
<!-- Generated by graphviz version 2.26.3 (20100126.1600)
 -->
<!-- Title: UBDisplayManager::setControlWidget Pages: 1 -->
<!--zoomable 42 -->
<svg id="main" version="1.1" xmlns="http://www.w3.org/2000/svg" xmlns:xlink="http://www.w3.org/1999/xlink" xml:space="preserve" onload="init(evt)">
        <defs>
                <circle id="rim" cx="0" cy="0" r="7"/>
                <circle id="rim2" cx="0" cy="0" r="3.5"/>
                <g id="zoomPlus">
                        <use xlink:href="#rim" fill="#404040">
                                <set attributeName="fill" to="#808080" begin="zoomplus.mouseover" end="zoomplus.mouseout"/>
                        </use>
                        <path d="M-4,0h8M0,-4v8" fill="none" stroke="white" stroke-width="1.5" pointer-events="none"/>
                </g>
                <g id="zoomMin">
                        <use xlink:href="#rim" fill="#404040">
                                <set attributeName="fill" to="#808080" begin="zoomminus.mouseover" end="zoomminus.mouseout"/>
                        </use>
                        <path d="M-4,0h8" fill="none" stroke="white" stroke-width="1.5" pointer-events="none"/>
                </g>
                <g id="dirArrow">
                        <path fill="none" stroke="white" stroke-width="1.5" d="M0,-3.0v7 M-2.5,-0.5L0,-3.0L2.5,-0.5"/>
                </g>
               <g id="resetDef">
                       <use xlink:href="#rim2" fill="#404040">
                               <set attributeName="fill" to="#808080" begin="reset.mouseover" end="reset.mouseout"/>
                       </use>
               </g>
        </defs>

<script type="text/javascript">
var viewWidth = 534;
var viewHeight = 42;
var sectionId = 'dynsection-17';
</script>
<script xlink:href="../../svgpan.js"/>
<svg id="graph" class="graph">
<g id="viewport">
<title>UBDisplayManager::setControlWidget</title>
<polygon fill="white" stroke="white" points="-4,5 -4,-38 531,-38 531,5 -4,5"/>
<!-- Node1 -->
<g id="node1" class="node"><title>Node1</title>
<polygon fill="#bfbfbf" stroke="black" points="0,-0 0,-34 152,-34 152,-0 0,-0"/>
<text text-anchor="start" x="8" y="-21" font-family="Helvetica,sans-Serif" font-size="10.00">UBDisplayManager::setControl</text>
<text text-anchor="middle" x="76" y="-8" font-family="Helvetica,sans-Serif" font-size="10.00">Widget</text>
</g>
<!-- Node2 -->
<g id="node3" class="node"><title>Node2</title>
<a xlink:href="../../da/d14/class_u_b_application_controller.html#ad4515cc1199971e7fba2b5afca906781" target="_top" xlink:title="UBApplicationController\l::initScreenLayout">
<polygon fill="white" stroke="black" points="188.5,-0 188.5,-34 309.5,-34 309.5,-0 188.5,-0"/>
<text text-anchor="start" x="196.5" y="-21" font-family="Helvetica,sans-Serif" font-size="10.00">UBApplicationController</text>
<text text-anchor="middle" x="249" y="-8" font-family="Helvetica,sans-Serif" font-size="10.00">::initScreenLayout</text>
</a>
</g>
<!-- Node1&#45;&gt;Node2 -->
<g id="edge2" class="edge"><title>Node1&#45;&gt;Node2</title>
<path fill="none" stroke="midnightblue" d="M162.139,-17C171.022,-17 179.909,-17 188.428,-17"/>
<polygon fill="midnightblue" stroke="midnightblue" points="162.132,-13.5001 152.132,-17 162.132,-20.5001 162.132,-13.5001"/>
</g>
<!-- Node3 -->
<g id="node5" class="node"><title>Node3</title>
<a xlink:href="../../d8/d81/class_u_b_application.html#add1469239e71bf24fdc61413a42a38bd" target="_top" xlink:title="UBApplication::exec">
<polygon fill="white" stroke="black" points="346,-6.5 346,-27.5 452,-27.5 452,-6.5 346,-6.5"/>
<text text-anchor="middle" x="399" y="-14.5" font-family="Helvetica,sans-Serif" font-size="10.00">UBApplication::exec</text>
</a>
</g>
<!-- Node2&#45;&gt;Node3 -->
<g id="edge4" class="edge"><title>Node2&#45;&gt;Node3</title>
<path fill="none" stroke="midnightblue" d="M319.825,-17C328.608,-17 337.468,-17 345.921,-17"/>
<polygon fill="midnightblue" stroke="midnightblue" points="319.578,-13.5001 309.578,-17 319.578,-20.5001 319.578,-13.5001"/>
</g>
<!-- Node4 -->
<g id="node7" class="node"><title>Node4</title>
<a xlink:href="../../df/d0a/main_8cpp.html#a0ddf1224851353fc92bfbff6f499fa97" target="_top" xlink:title="main">
<polygon fill="white" stroke="black" points="488,-6.5 488,-27.5 526,-27.5 526,-6.5 488,-6.5"/>
<text text-anchor="middle" x="507" y="-14.5" font-family="Helvetica,sans-Serif" font-size="10.00">main</text>
</a>
</g>
<!-- Node3&#45;&gt;Node4 -->
<g id="edge6" class="edge"><title>Node3&#45;&gt;Node4</title>
<path fill="none" stroke="midnightblue" d="M462.214,-17C471.495,-17 480.401,-17 487.793,-17"/>
<polygon fill="midnightblue" stroke="midnightblue" points="462.051,-13.5001 452.051,-17 462.051,-20.5001 462.051,-13.5001"/>
</g>
</g>
</svg>
        <g id="navigator" transform="translate(0 0)" fill="#404254">
                <rect fill="#f2f5e9" fill-opacity="0.5" stroke="#606060" stroke-width=".5" x="0" y="0" width="60" height="60"/>
                <use id="zoomplus" xlink:href="#zoomPlus" x="17" y="9" onmousedown="handleZoom(evt,'in')"/>
                <use id="zoomminus" xlink:href="#zoomMin" x="42" y="9" onmousedown="handleZoom(evt,'out')"/>
                <use id="reset" xlink:href="#resetDef" x="30" y="36" onmousedown="handleReset()"/>
                <g id="arrowUp" xlink:href="#dirArrow" transform="translate(30 24)" onmousedown="handlePan(0,-1)">
                  <use xlink:href="#rim" fill="#404040">
                        <set attributeName="fill" to="#808080" begin="arrowUp.mouseover" end="arrowUp.mouseout"/>
                  </use>
                  <path fill="none" stroke="white" stroke-width="1.5" d="M0,-3.0v7 M-2.5,-0.5L0,-3.0L2.5,-0.5"/>
                </g>
                <g id="arrowRight" xlink:href="#dirArrow" transform="rotate(90) translate(36 -43)" onmousedown="handlePan(1,0)">
                  <use xlink:href="#rim" fill="#404040">
                        <set attributeName="fill" to="#808080" begin="arrowRight.mouseover" end="arrowRight.mouseout"/>
                  </use>
                  <path fill="none" stroke="white" stroke-width="1.5" d="M0,-3.0v7 M-2.5,-0.5L0,-3.0L2.5,-0.5"/>
                </g>
                <g id="arrowDown" xlink:href="#dirArrow" transform="rotate(180) translate(-30 -48)" onmousedown="handlePan(0,1)">
                  <use xlink:href="#rim" fill="#404040">
                        <set attributeName="fill" to="#808080" begin="arrowDown.mouseover" end="arrowDown.mouseout"/>
                  </use>
                  <path fill="none" stroke="white" stroke-width="1.5" d="M0,-3.0v7 M-2.5,-0.5L0,-3.0L2.5,-0.5"/>
                </g>
                <g id="arrowLeft" xlink:href="#dirArrow" transform="rotate(270) translate(-36 17)" onmousedown="handlePan(-1,0)">
                  <use xlink:href="#rim" fill="#404040">
                        <set attributeName="fill" to="#808080" begin="arrowLeft.mouseover" end="arrowLeft.mouseout"/>
                  </use>
                  <path fill="none" stroke="white" stroke-width="1.5" d="M0,-3.0v7 M-2.5,-0.5L0,-3.0L2.5,-0.5"/>
                </g>
        </g>
        <svg viewBox="0 0 15 15" width="100%" height="30px" preserveAspectRatio="xMaxYMin meet">
         <g id="arrow_out" transform="scale(0.3 0.3)">
          <a xlink:href="class_u_b_display_manager_a8b704ad13b84eb0353814ff4113b8e85_icgraph_org.svg" target="_base">
           <rect id="button" ry="5" rx="5" y="6" x="6" height="38" width="38"
                fill="#f2f5e9" fill-opacity="0.5" stroke="#606060" stroke-width="1.0"/>
           <path id="arrow"
             d="M 11.500037,31.436501 C 11.940474,20.09759 22.043105,11.32322 32.158766,21.979434 L 37.068811,17.246167 C 37.068811,17.246167 37.088388,32 37.088388,32 L 22.160133,31.978069 C 22.160133,31.978069 26.997745,27.140456 26.997745,27.140456 C 18.528582,18.264221 13.291696,25.230495 11.500037,31.436501 z"
             style="fill:#404040;"/>
          </a>
         </g>
        </svg>
</svg>
