<?xml version="1.0" encoding="UTF-8" standalone="no"?>
<!DOCTYPE svg PUBLIC "-//W3C//DTD SVG 1.1//EN"
 "http://www.w3.org/Graphics/SVG/1.1/DTD/svg11.dtd">
<!-- Generated by graphviz version 2.26.3 (20100126.1600)
 -->
<!-- Title: UBDesktopPalette::minimizeMe Pages: 1 -->
<!--zoomable 315 -->
<svg id="main" version="1.1" xmlns="http://www.w3.org/2000/svg" xmlns:xlink="http://www.w3.org/1999/xlink" xml:space="preserve" onload="init(evt)">
        <defs>
                <circle id="rim" cx="0" cy="0" r="7"/>
                <circle id="rim2" cx="0" cy="0" r="3.5"/>
                <g id="zoomPlus">
                        <use xlink:href="#rim" fill="#404040">
                                <set attributeName="fill" to="#808080" begin="zoomplus.mouseover" end="zoomplus.mouseout"/>
                        </use>
                        <path d="M-4,0h8M0,-4v8" fill="none" stroke="white" stroke-width="1.5" pointer-events="none"/>
                </g>
                <g id="zoomMin">
                        <use xlink:href="#rim" fill="#404040">
                                <set attributeName="fill" to="#808080" begin="zoomminus.mouseover" end="zoomminus.mouseout"/>
                        </use>
                        <path d="M-4,0h8" fill="none" stroke="white" stroke-width="1.5" pointer-events="none"/>
                </g>
                <g id="dirArrow">
                        <path fill="none" stroke="white" stroke-width="1.5" d="M0,-3.0v7 M-2.5,-0.5L0,-3.0L2.5,-0.5"/>
                </g>
               <g id="resetDef">
                       <use xlink:href="#rim2" fill="#404040">
                               <set attributeName="fill" to="#808080" begin="reset.mouseover" end="reset.mouseout"/>
                       </use>
               </g>
        </defs>

<script type="text/javascript">
var viewWidth = 1228;
var viewHeight = 315;
var sectionId = 'dynsection-10';
</script>
<script xlink:href="../../svgpan.js"/>
<svg id="graph" class="graph">
<g id="viewport">
<title>UBDesktopPalette::minimizeMe</title>
<polygon fill="white" stroke="white" points="-4,5 -4,-311 1225,-311 1225,5 -4,5"/>
<!-- Node1 -->
<g id="node1" class="node"><title>Node1</title>
<polygon fill="#bfbfbf" stroke="black" points="0.5,-225.5 0.5,-246.5 157.5,-246.5 157.5,-225.5 0.5,-225.5"/>
<text text-anchor="middle" x="79" y="-233.5" font-family="Helvetica,sans-Serif" font-size="10.00">UBDesktopPalette::minimizeMe</text>
</g>
<!-- Node2 -->
<g id="node3" class="node"><title>Node2</title>
<a xlink:href="../../de/dc5/class_u_b_action_palette.html#a6f0c33558354c13ccc5111cfa385a2ff" target="_top" xlink:title="UBActionPalette::actions">
<polygon fill="white" stroke="black" points="203.5,-285.5 203.5,-306.5 330.5,-306.5 330.5,-285.5 203.5,-285.5"/>
<text text-anchor="middle" x="267" y="-293.5" font-family="Helvetica,sans-Serif" font-size="10.00">UBActionPalette::actions</text>
</a>
</g>
<!-- Node1&#45;&gt;Node2 -->
<g id="edge2" class="edge"><title>Node1&#45;&gt;Node2</title>
<path fill="none" stroke="midnightblue" d="M107.651,-246.568C130.81,-254.964 164.324,-266.785 194,-276 201.412,-278.302 209.29,-280.606 217.024,-282.789"/>
<polygon fill="midnightblue" stroke="midnightblue" points="216.125,-286.171 226.697,-285.48 218.001,-279.428 216.125,-286.171"/>
</g>
<!-- Node3 -->
<g id="node5" class="node"><title>Node3</title>
<a xlink:href="../../de/dc5/class_u_b_action_palette.html#aba0381d16879caa1c9001f8591330e7c" target="_top" xlink:title="UBActionPalette::clearLayout">
<polygon fill="white" stroke="black" points="194,-245.5 194,-266.5 340,-266.5 340,-245.5 194,-245.5"/>
<text text-anchor="middle" x="267" y="-253.5" font-family="Helvetica,sans-Serif" font-size="10.00">UBActionPalette::clearLayout</text>
</a>
</g>
<!-- Node1&#45;&gt;Node3 -->
<g id="edge4" class="edge"><title>Node1&#45;&gt;Node3</title>
<path fill="none" stroke="midnightblue" d="M157.64,-244.366C166.246,-245.281 175.028,-246.216 183.688,-247.137"/>
<polygon fill="midnightblue" stroke="midnightblue" points="183.466,-250.633 193.78,-248.211 184.207,-243.672 183.466,-250.633"/>
</g>
<!-- Node4 -->
<g id="node7" class="node"><title>Node4</title>
<a xlink:href="../../de/dc5/class_u_b_action_palette.html#ae928fec429c08192e49470821f3006f4" target="_top" xlink:title="UBActionPalette::setActions">
<polygon fill="white" stroke="black" points="196,-205.5 196,-226.5 338,-226.5 338,-205.5 196,-205.5"/>
<text text-anchor="middle" x="267" y="-213.5" font-family="Helvetica,sans-Serif" font-size="10.00">UBActionPalette::setActions</text>
</a>
</g>
<!-- Node1&#45;&gt;Node4 -->
<g id="edge6" class="edge"><title>Node1&#45;&gt;Node4</title>
<path fill="none" stroke="midnightblue" d="M157.64,-227.634C166.95,-226.644 176.467,-225.631 185.812,-224.637"/>
<polygon fill="midnightblue" stroke="midnightblue" points="186.293,-228.106 195.867,-223.567 185.552,-221.145 186.293,-228.106"/>
</g>
<!-- Node11 -->
<g id="node22" class="node"><title>Node11</title>
<a xlink:href="../../d1/d97/class_u_b_floating_palette.html#abc34a1ea7b29b6aaa4a0ea25d5715210" target="_top" xlink:title="UBFloatingPalette:\l:adjustSizeAndPosition">
<polygon fill="white" stroke="black" points="208,-153 208,-187 326,-187 326,-153 208,-153"/>
<text text-anchor="start" x="216" y="-174" font-family="Helvetica,sans-Serif" font-size="10.00">UBFloatingPalette:</text>
<text text-anchor="middle" x="267" y="-161" font-family="Helvetica,sans-Serif" font-size="10.00">:adjustSizeAndPosition</text>
</a>
</g>
<!-- Node1&#45;&gt;Node11 -->
<g id="edge22" class="edge"><title>Node1&#45;&gt;Node11</title>
<path fill="none" stroke="midnightblue" d="M109.205,-225.396C136.035,-215.977 175.993,-201.949 208.985,-190.367"/>
<polygon fill="midnightblue" stroke="midnightblue" points="210.256,-193.63 218.532,-187.015 207.937,-187.026 210.256,-193.63"/>
</g>
<!-- Node5 -->
<g id="node9" class="node"><title>Node5</title>
<a xlink:href="../../de/dc5/class_u_b_action_palette.html#a116bac7a7085808b3b1c1fd51e124956" target="_top" xlink:title="UBActionPalette::addAction">
<polygon fill="white" stroke="black" points="376.5,-247.5 376.5,-268.5 515.5,-268.5 515.5,-247.5 376.5,-247.5"/>
<text text-anchor="middle" x="446" y="-255.5" font-family="Helvetica,sans-Serif" font-size="10.00">UBActionPalette::addAction</text>
</a>
</g>
<!-- Node4&#45;&gt;Node5 -->
<g id="edge8" class="edge"><title>Node4&#45;&gt;Node5</title>
<path fill="none" stroke="midnightblue" d="M312.169,-226.598C336.216,-232.241 365.974,-239.223 391.319,-245.17"/>
<polygon fill="midnightblue" stroke="midnightblue" points="390.62,-248.601 401.156,-247.478 392.219,-241.786 390.62,-248.601"/>
</g>
<!-- Node10 -->
<g id="node19" class="node"><title>Node10</title>
<a xlink:href="../../de/dc5/class_u_b_action_palette.html#a2a996cf0d279955a5322800493ad0119" target="_top" xlink:title="UBActionPalette::actionChanged">
<polygon fill="white" stroke="black" points="742.5,-208.5 742.5,-229.5 903.5,-229.5 903.5,-208.5 742.5,-208.5"/>
<text text-anchor="middle" x="823" y="-216.5" font-family="Helvetica,sans-Serif" font-size="10.00">UBActionPalette::actionChanged</text>
</a>
</g>
<!-- Node4&#45;&gt;Node10 -->
<g id="edge20" class="edge"><title>Node4&#45;&gt;Node10</title>
<path fill="none" stroke="midnightblue" d="M338.266,-216.385C438.714,-216.927 621.947,-217.915 732.084,-218.509"/>
<polygon fill="midnightblue" stroke="midnightblue" points="732.162,-222.01 742.18,-218.564 732.199,-215.01 732.162,-222.01"/>
</g>
<!-- Node6 -->
<g id="node11" class="node"><title>Node6</title>
<a xlink:href="../../de/dc5/class_u_b_action_palette.html#af55ffe5dc6a804711b1ae31e76cfedb3" target="_top" xlink:title="UBActionPalette::createPalette\lButton">
<polygon fill="white" stroke="black" points="552.5,-244 552.5,-278 705.5,-278 705.5,-244 552.5,-244"/>
<text text-anchor="start" x="560.5" y="-265" font-family="Helvetica,sans-Serif" font-size="10.00">UBActionPalette::createPalette</text>
<text text-anchor="middle" x="629" y="-252" font-family="Helvetica,sans-Serif" font-size="10.00">Button</text>
</a>
</g>
<!-- Node5&#45;&gt;Node6 -->
<g id="edge10" class="edge"><title>Node5&#45;&gt;Node6</title>
<path fill="none" stroke="midnightblue" d="M515.706,-259.143C524.44,-259.286 533.454,-259.434 542.406,-259.58"/>
<polygon fill="midnightblue" stroke="midnightblue" points="542.411,-263.081 552.467,-259.745 542.526,-256.082 542.411,-263.081"/>
</g>
<!-- Node7 -->
<g id="node13" class="node"><title>Node7</title>
<a xlink:href="../../de/dc5/class_u_b_action_palette.html#a40216f168183eecab89bcbafd56cbefd" target="_top" xlink:title="UBActionPalette::buttonClicked">
<polygon fill="white" stroke="black" points="745.5,-250.5 745.5,-271.5 900.5,-271.5 900.5,-250.5 745.5,-250.5"/>
<text text-anchor="middle" x="823" y="-258.5" font-family="Helvetica,sans-Serif" font-size="10.00">UBActionPalette::buttonClicked</text>
</a>
</g>
<!-- Node6&#45;&gt;Node7 -->
<g id="edge12" class="edge"><title>Node6&#45;&gt;Node7</title>
<path fill="none" stroke="midnightblue" d="M705.674,-261C715.342,-261 725.293,-261 735.118,-261"/>
<polygon fill="midnightblue" stroke="midnightblue" points="735.294,-264.5 745.293,-261 735.293,-257.5 735.294,-264.5"/>
</g>
<!-- Node6&#45;&gt;Node10 -->
<g id="edge18" class="edge"><title>Node6&#45;&gt;Node10</title>
<path fill="none" stroke="midnightblue" d="M705.674,-244.4C725.244,-240.164 745.97,-235.677 764.469,-231.672"/>
<polygon fill="midnightblue" stroke="midnightblue" points="765.462,-235.038 774.495,-229.501 763.981,-228.196 765.462,-235.038"/>
</g>
<!-- Node8 -->
<g id="node15" class="node"><title>Node8</title>
<a xlink:href="../../de/dc5/class_u_b_action_palette.html#a23c62043071f0e7691a0dbdfcc20a2dd" target="_top" xlink:title="UBActionPalette::close">
<polygon fill="white" stroke="black" points="940.5,-250.5 940.5,-271.5 1059.5,-271.5 1059.5,-250.5 940.5,-250.5"/>
<text text-anchor="middle" x="1000" y="-258.5" font-family="Helvetica,sans-Serif" font-size="10.00">UBActionPalette::close</text>
</a>
</g>
<!-- Node7&#45;&gt;Node8 -->
<g id="edge14" class="edge"><title>Node7&#45;&gt;Node8</title>
<path fill="none" stroke="midnightblue" d="M900.635,-261C910.389,-261 920.323,-261 929.951,-261"/>
<polygon fill="midnightblue" stroke="midnightblue" points="930.256,-264.5 940.256,-261 930.256,-257.5 930.256,-264.5"/>
</g>
<!-- Node9 -->
<g id="node17" class="node"><title>Node9</title>
<a xlink:href="../../de/dc5/class_u_b_action_palette.html#aa1e453b054ded51a722466d5dbfb7d39" target="_top" xlink:title="UBActionPalette::closed">
<polygon fill="white" stroke="black" points="1096,-250.5 1096,-271.5 1220,-271.5 1220,-250.5 1096,-250.5"/>
<text text-anchor="middle" x="1158" y="-258.5" font-family="Helvetica,sans-Serif" font-size="10.00">UBActionPalette::closed</text>
</a>
</g>
<!-- Node8&#45;&gt;Node9 -->
<g id="edge16" class="edge"><title>Node8&#45;&gt;Node9</title>
<path fill="none" stroke="midnightblue" d="M1059.73,-261C1068.21,-261 1077.01,-261 1085.69,-261"/>
<polygon fill="midnightblue" stroke="midnightblue" points="1085.81,-264.5 1095.81,-261 1085.81,-257.5 1085.81,-264.5"/>
</g>
<!-- Node12 -->
<g id="node24" class="node"><title>Node12</title>
<a xlink:href="../../d1/d97/class_u_b_floating_palette.html#aec5822b784da7d590ff463ed9cb44be9" target="_top" xlink:title="UBFloatingPalette:\l:preferredSize">
<polygon fill="white" stroke="black" points="396.5,-154 396.5,-188 495.5,-188 495.5,-154 396.5,-154"/>
<text text-anchor="start" x="404.5" y="-175" font-family="Helvetica,sans-Serif" font-size="10.00">UBFloatingPalette:</text>
<text text-anchor="middle" x="446" y="-162" font-family="Helvetica,sans-Serif" font-size="10.00">:preferredSize</text>
</a>
</g>
<!-- Node11&#45;&gt;Node12 -->
<g id="edge24" class="edge"><title>Node11&#45;&gt;Node12</title>
<path fill="none" stroke="midnightblue" d="M326.107,-170.33C345.357,-170.438 366.734,-170.557 386.045,-170.665"/>
<polygon fill="midnightblue" stroke="midnightblue" points="386.213,-174.166 396.232,-170.722 386.252,-167.166 386.213,-174.166"/>
</g>
<!-- Node13 -->
<g id="node26" class="node"><title>Node13</title>
<a xlink:href="../../d1/d97/class_u_b_floating_palette.html#a187ee35c53cfad79bb5b30dff1800732" target="_top" xlink:title="UBFloatingPalette:\l:moveInsideParent">
<polygon fill="white" stroke="black" points="396.5,-102 396.5,-136 495.5,-136 495.5,-102 396.5,-102"/>
<text text-anchor="start" x="404.5" y="-123" font-family="Helvetica,sans-Serif" font-size="10.00">UBFloatingPalette:</text>
<text text-anchor="middle" x="446" y="-110" font-family="Helvetica,sans-Serif" font-size="10.00">:moveInsideParent</text>
</a>
</g>
<!-- Node11&#45;&gt;Node13 -->
<g id="edge26" class="edge"><title>Node11&#45;&gt;Node13</title>
<path fill="none" stroke="midnightblue" d="M326.107,-153.159C345.534,-147.624 367.129,-141.472 386.579,-135.93"/>
<polygon fill="midnightblue" stroke="midnightblue" points="387.574,-139.286 396.232,-133.18 385.656,-132.554 387.574,-139.286"/>
</g>
<!-- Node14 -->
<g id="node28" class="node"><title>Node14</title>
<a xlink:href="../../d1/d97/class_u_b_floating_palette.html#a1902d37271315e9e06d6743752104f47" target="_top" xlink:title="UBFloatingPalette:\l:border">
<polygon fill="white" stroke="black" points="579.5,-147 579.5,-181 678.5,-181 678.5,-147 579.5,-147"/>
<text text-anchor="start" x="587.5" y="-168" font-family="Helvetica,sans-Serif" font-size="10.00">UBFloatingPalette:</text>
<text text-anchor="middle" x="629" y="-155" font-family="Helvetica,sans-Serif" font-size="10.00">:border</text>
</a>
</g>
<!-- Node13&#45;&gt;Node14 -->
<g id="edge28" class="edge"><title>Node13&#45;&gt;Node14</title>
<path fill="none" stroke="midnightblue" d="M495.522,-131.178C518.307,-136.78 545.525,-143.473 569.422,-149.35"/>
<polygon fill="midnightblue" stroke="midnightblue" points="568.891,-152.823 579.438,-151.813 570.563,-146.026 568.891,-152.823"/>
</g>
<!-- Node15 -->
<g id="node30" class="node"><title>Node15</title>
<a xlink:href="../../d1/d97/class_u_b_floating_palette.html#acf3ead0c3d8a3bde89b934ad208e9f9a" target="_top" xlink:title="UBFloatingPalette:\l:getParentRightOffset">
<polygon fill="white" stroke="black" points="767,-104 767,-138 879,-138 879,-104 767,-104"/>
<text text-anchor="start" x="775" y="-125" font-family="Helvetica,sans-Serif" font-size="10.00">UBFloatingPalette:</text>
<text text-anchor="middle" x="823" y="-112" font-family="Helvetica,sans-Serif" font-size="10.00">:getParentRightOffset</text>
</a>
</g>
<!-- Node13&#45;&gt;Node15 -->
<g id="edge30" class="edge"><title>Node13&#45;&gt;Node15</title>
<path fill="none" stroke="midnightblue" d="M495.674,-119.264C562.606,-119.619 681.94,-120.252 756.541,-120.647"/>
<polygon fill="midnightblue" stroke="midnightblue" points="756.743,-124.148 766.761,-120.702 756.78,-117.149 756.743,-124.148"/>
</g>
<!-- Node16 -->
<g id="node32" class="node"><title>Node16</title>
<a xlink:href="../../d1/d97/class_u_b_floating_palette.html#a3f32f9c0ae03d587847f4c922309d2a3" target="_top" xlink:title="UBFloatingPalette:\l:minimizePalette">
<polygon fill="white" stroke="black" points="579.5,-54 579.5,-88 678.5,-88 678.5,-54 579.5,-54"/>
<text text-anchor="start" x="587.5" y="-75" font-family="Helvetica,sans-Serif" font-size="10.00">UBFloatingPalette:</text>
<text text-anchor="middle" x="629" y="-62" font-family="Helvetica,sans-Serif" font-size="10.00">:minimizePalette</text>
</a>
</g>
<!-- Node13&#45;&gt;Node16 -->
<g id="edge32" class="edge"><title>Node13&#45;&gt;Node16</title>
<path fill="none" stroke="midnightblue" d="M495.522,-106.011C518.409,-100.008 545.768,-92.8312 569.742,-86.543"/>
<polygon fill="midnightblue" stroke="midnightblue" points="570.653,-89.9226 579.438,-83.9999 568.877,-83.1516 570.653,-89.9226"/>
</g>
<!-- Node16&#45;&gt;Node15 -->
<g id="edge34" class="edge"><title>Node16&#45;&gt;Node15</title>
<path fill="none" stroke="midnightblue" d="M678.708,-83.8113C702.494,-89.9417 731.303,-97.3668 756.905,-103.965"/>
<polygon fill="midnightblue" stroke="midnightblue" points="756.354,-107.438 766.912,-106.544 758.102,-100.659 756.354,-107.438"/>
</g>
<!-- Node17 -->
<g id="node35" class="node"><title>Node17</title>
<a xlink:href="../../d1/d97/class_u_b_floating_palette.html#a7e9182ed71477253b40841ade1074dd2" target="_top" xlink:title="UBFloatingPalette:\l:minimizeStart">
<polygon fill="white" stroke="black" points="773.5,-52 773.5,-86 872.5,-86 872.5,-52 773.5,-52"/>
<text text-anchor="start" x="781.5" y="-73" font-family="Helvetica,sans-Serif" font-size="10.00">UBFloatingPalette:</text>
<text text-anchor="middle" x="823" y="-60" font-family="Helvetica,sans-Serif" font-size="10.00">:minimizeStart</text>
</a>
</g>
<!-- Node16&#45;&gt;Node17 -->
<g id="edge36" class="edge"><title>Node16&#45;&gt;Node17</title>
<path fill="none" stroke="midnightblue" d="M678.708,-70.4875C704.491,-70.2217 736.175,-69.8951 763.279,-69.6157"/>
<polygon fill="midnightblue" stroke="midnightblue" points="763.458,-73.1141 773.421,-69.5111 763.386,-66.1145 763.458,-73.1141"/>
</g>
<!-- Node18 -->
<g id="node37" class="node"><title>Node18</title>
<a xlink:href="../../d1/d97/class_u_b_floating_palette.html#a94541890f583373e035733f0d96b6804" target="_top" xlink:title="UBFloatingPalette:\l:maximizeStart">
<polygon fill="white" stroke="black" points="773.5,-0 773.5,-34 872.5,-34 872.5,-0 773.5,-0"/>
<text text-anchor="start" x="781.5" y="-21" font-family="Helvetica,sans-Serif" font-size="10.00">UBFloatingPalette:</text>
<text text-anchor="middle" x="823" y="-8" font-family="Helvetica,sans-Serif" font-size="10.00">:maximizeStart</text>
</a>
</g>
<!-- Node16&#45;&gt;Node18 -->
<g id="edge38" class="edge"><title>Node16&#45;&gt;Node18</title>
<path fill="none" stroke="midnightblue" d="M678.708,-57.1638C704.604,-49.9555 736.454,-41.09 763.637,-33.5236"/>
<polygon fill="midnightblue" stroke="midnightblue" points="764.726,-36.8537 773.421,-30.8002 762.849,-30.1101 764.726,-36.8537"/>
</g>
</g>
</svg>
        <g id="navigator" transform="translate(0 0)" fill="#404254">
                <rect fill="#f2f5e9" fill-opacity="0.5" stroke="#606060" stroke-width=".5" x="0" y="0" width="60" height="60"/>
                <use id="zoomplus" xlink:href="#zoomPlus" x="17" y="9" onmousedown="handleZoom(evt,'in')"/>
                <use id="zoomminus" xlink:href="#zoomMin" x="42" y="9" onmousedown="handleZoom(evt,'out')"/>
                <use id="reset" xlink:href="#resetDef" x="30" y="36" onmousedown="handleReset()"/>
                <g id="arrowUp" xlink:href="#dirArrow" transform="translate(30 24)" onmousedown="handlePan(0,-1)">
                  <use xlink:href="#rim" fill="#404040">
                        <set attributeName="fill" to="#808080" begin="arrowUp.mouseover" end="arrowUp.mouseout"/>
                  </use>
                  <path fill="none" stroke="white" stroke-width="1.5" d="M0,-3.0v7 M-2.5,-0.5L0,-3.0L2.5,-0.5"/>
                </g>
                <g id="arrowRight" xlink:href="#dirArrow" transform="rotate(90) translate(36 -43)" onmousedown="handlePan(1,0)">
                  <use xlink:href="#rim" fill="#404040">
                        <set attributeName="fill" to="#808080" begin="arrowRight.mouseover" end="arrowRight.mouseout"/>
                  </use>
                  <path fill="none" stroke="white" stroke-width="1.5" d="M0,-3.0v7 M-2.5,-0.5L0,-3.0L2.5,-0.5"/>
                </g>
                <g id="arrowDown" xlink:href="#dirArrow" transform="rotate(180) translate(-30 -48)" onmousedown="handlePan(0,1)">
                  <use xlink:href="#rim" fill="#404040">
                        <set attributeName="fill" to="#808080" begin="arrowDown.mouseover" end="arrowDown.mouseout"/>
                  </use>
                  <path fill="none" stroke="white" stroke-width="1.5" d="M0,-3.0v7 M-2.5,-0.5L0,-3.0L2.5,-0.5"/>
                </g>
                <g id="arrowLeft" xlink:href="#dirArrow" transform="rotate(270) translate(-36 17)" onmousedown="handlePan(-1,0)">
                  <use xlink:href="#rim" fill="#404040">
                        <set attributeName="fill" to="#808080" begin="arrowLeft.mouseover" end="arrowLeft.mouseout"/>
                  </use>
                  <path fill="none" stroke="white" stroke-width="1.5" d="M0,-3.0v7 M-2.5,-0.5L0,-3.0L2.5,-0.5"/>
                </g>
        </g>
        <svg viewBox="0 0 15 15" width="100%" height="30px" preserveAspectRatio="xMaxYMin meet">
         <g id="arrow_out" transform="scale(0.3 0.3)">
          <a xlink:href="class_u_b_desktop_palette_a03eb348784b56775c866f8a8d8de3777_cgraph_org.svg" target="_base">
           <rect id="button" ry="5" rx="5" y="6" x="6" height="38" width="38"
                fill="#f2f5e9" fill-opacity="0.5" stroke="#606060" stroke-width="1.0"/>
           <path id="arrow"
             d="M 11.500037,31.436501 C 11.940474,20.09759 22.043105,11.32322 32.158766,21.979434 L 37.068811,17.246167 C 37.068811,17.246167 37.088388,32 37.088388,32 L 22.160133,31.978069 C 22.160133,31.978069 26.997745,27.140456 26.997745,27.140456 C 18.528582,18.264221 13.291696,25.230495 11.500037,31.436501 z"
             style="fill:#404040;"/>
          </a>
         </g>
        </svg>
</svg>
