<?xml version="1.0" encoding="UTF-8" standalone="no"?>
<!DOCTYPE svg PUBLIC "-//W3C//DTD SVG 1.1//EN"
 "http://www.w3.org/Graphics/SVG/1.1/DTD/svg11.dtd">
<!-- Generated by graphviz version 2.26.3 (20100126.1600)
 -->
<!-- Title: UBGraphicsAristo::paint Pages: 1 -->
<svg width="500pt" height="82pt"
 viewBox="0.00 0.00 500.00 82.00" xmlns="http://www.w3.org/2000/svg" xmlns:xlink="http://www.w3.org/1999/xlink">
<g id="graph1" class="graph" transform="scale(1 1) rotate(0) translate(4 78)">
<title>UBGraphicsAristo::paint</title>
<polygon fill="white" stroke="white" points="-4,5 -4,-78 497,-78 497,5 -4,5"/>
<!-- Node1 -->
<g id="node1" class="node"><title>Node1</title>
<polygon fill="#bfbfbf" stroke="black" points="0,-23.5 0,-44.5 122,-44.5 122,-23.5 0,-23.5"/>
<text text-anchor="middle" x="61" y="-31.5" font-family="Helvetica,sans-Serif" font-size="10.00">UBGraphicsAristo::paint</text>
</g>
<!-- Node2 -->
<g id="node3" class="node"><title>Node2</title>
<a xlink:href="../../d0/de1/class_u_b_abstract_draw_ruler.html#af1700f03c5581a7619a96eb90fcc9709" target="_top" xlink:title="UBAbstractDrawRuler\l::drawColor">
<polygon fill="white" stroke="black" points="158,-17 158,-51 272,-51 272,-17 158,-17"/>
<text text-anchor="start" x="166" y="-38" font-family="Helvetica,sans-Serif" font-size="10.00">UBAbstractDrawRuler</text>
<text text-anchor="middle" x="215" y="-25" font-family="Helvetica,sans-Serif" font-size="10.00">::drawColor</text>
</a>
</g>
<!-- Node1&#45;&gt;Node2 -->
<g id="edge2" class="edge"><title>Node1&#45;&gt;Node2</title>
<path fill="none" stroke="midnightblue" d="M122.307,-34C130.656,-34 139.261,-34 147.709,-34"/>
<polygon fill="midnightblue" stroke="midnightblue" points="147.906,-37.5001 157.906,-34 147.906,-30.5001 147.906,-37.5001"/>
</g>
<!-- Node3 -->
<g id="node5" class="node"><title>Node3</title>
<a xlink:href="../../d0/de1/class_u_b_abstract_draw_ruler.html#a1b2bb6a8be6859a02c890d110d4be888" target="_top" xlink:title="UBAbstractDrawRuler\l::scene">
<polygon fill="white" stroke="black" points="343,-40 343,-74 457,-74 457,-40 343,-40"/>
<text text-anchor="start" x="351" y="-61" font-family="Helvetica,sans-Serif" font-size="10.00">UBAbstractDrawRuler</text>
<text text-anchor="middle" x="400" y="-48" font-family="Helvetica,sans-Serif" font-size="10.00">::scene</text>
</a>
</g>
<!-- Node2&#45;&gt;Node3 -->
<g id="edge4" class="edge"><title>Node2&#45;&gt;Node3</title>
<path fill="none" stroke="midnightblue" d="M272.016,-41.0884C291.27,-43.4822 312.942,-46.1766 332.903,-48.6582"/>
<polygon fill="midnightblue" stroke="midnightblue" points="332.499,-52.1348 342.854,-49.8954 333.362,-45.1883 332.499,-52.1348"/>
</g>
<!-- Node4 -->
<g id="node7" class="node"><title>Node4</title>
<a xlink:href="../../dc/db2/class_u_b_graphics_scene.html#ad91ed6e458beecd1ee198991c703082c" target="_top" xlink:title="UBGraphicsScene::isDarkBackground">
<polygon fill="white" stroke="black" points="308,-0.5 308,-21.5 492,-21.5 492,-0.5 308,-0.5"/>
<text text-anchor="middle" x="400" y="-8.5" font-family="Helvetica,sans-Serif" font-size="10.00">UBGraphicsScene::isDarkBackground</text>
</a>
</g>
<!-- Node2&#45;&gt;Node4 -->
<g id="edge6" class="edge"><title>Node2&#45;&gt;Node4</title>
<path fill="none" stroke="midnightblue" d="M272.016,-26.9116C282.608,-25.5946 293.933,-24.1868 305.301,-22.7733"/>
<polygon fill="midnightblue" stroke="midnightblue" points="305.794,-26.2391 315.286,-21.532 304.931,-19.2926 305.794,-26.2391"/>
</g>
</g>
</svg>
