<?xml version="1.0" encoding="UTF-8" standalone="no"?>
<!DOCTYPE svg PUBLIC "-//W3C//DTD SVG 1.1//EN"
 "http://www.w3.org/Graphics/SVG/1.1/DTD/svg11.dtd">
<!-- Generated by graphviz version 2.26.3 (20100126.1600)
 -->
<!-- Title: Sankore&#45;3.1/src/gui/UBToolbarButtonGroup.cpp Pages: 1 -->
<svg width="1429pt" height="406pt"
 viewBox="0.00 0.00 1429.38 406.00" xmlns="http://www.w3.org/2000/svg" xmlns:xlink="http://www.w3.org/1999/xlink">
<g id="graph1" class="graph" transform="scale(1 1) rotate(0) translate(4 402)">
<title>Sankore&#45;3.1/src/gui/UBToolbarButtonGroup.cpp</title>
<polygon fill="white" stroke="white" points="-4,5 -4,-402 1426.38,-402 1426.38,5 -4,5"/>
<!-- Node1 -->
<g id="node1" class="node"><title>Node1</title>
<polygon fill="#bfbfbf" stroke="black" points="866.381,-363 866.381,-397 1006.38,-397 1006.38,-363 866.381,-363"/>
<text text-anchor="start" x="874.381" y="-384" font-family="Helvetica,sans-Serif" font-size="10.00">Sankore&#45;3.1/src/gui</text>
<text text-anchor="middle" x="936.381" y="-371" font-family="Helvetica,sans-Serif" font-size="10.00">/UBToolbarButtonGroup.cpp</text>
</g>
<!-- Node2 -->
<g id="node3" class="node"><title>Node2</title>
<a xlink:href="../../de/dee/_u_b_toolbar_button_group_8h.html" target="_top" xlink:title="UBToolbarButtonGroup.h">
<polygon fill="white" stroke="black" points="1145.38,-239.5 1145.38,-260.5 1271.38,-260.5 1271.38,-239.5 1145.38,-239.5"/>
<text text-anchor="middle" x="1208.38" y="-247.5" font-family="Helvetica,sans-Serif" font-size="10.00">UBToolbarButtonGroup.h</text>
</a>
</g>
<!-- Node1&#45;&gt;Node2 -->
<g id="edge2" class="edge"><title>Node1&#45;&gt;Node2</title>
<path fill="none" stroke="midnightblue" d="M972.22,-362.871C1025.89,-337.221 1126.25,-289.255 1177.11,-264.945"/>
<polygon fill="midnightblue" stroke="midnightblue" points="1178.79,-268.022 1186.3,-260.552 1175.77,-261.706 1178.79,-268.022"/>
</g>
<!-- Node3 -->
<g id="node5" class="node"><title>Node3</title>
<polygon fill="white" stroke="#bfbfbf" points="422.381,-0.5 422.381,-21.5 464.381,-21.5 464.381,-0.5 422.381,-0.5"/>
<text text-anchor="middle" x="443.381" y="-8.5" font-family="Helvetica,sans-Serif" font-size="10.00">QtGui</text>
</g>
<!-- Node1&#45;&gt;Node3 -->
<g id="edge6" class="edge"><title>Node1&#45;&gt;Node3</title>
<path fill="none" stroke="midnightblue" d="M1006.8,-369.477C1112.36,-351.69 1299.38,-311.501 1299.38,-250 1299.38,-250 1299.38,-250 1299.38,-127 1299.38,-84.2547 1271.24,-75.8115 1232.38,-58 1162.7,-26.0586 613.552,-14.0696 475.027,-11.5372"/>
<polygon fill="midnightblue" stroke="midnightblue" points="474.755,-8.03181 464.694,-11.352 474.629,-15.0307 474.755,-8.03181"/>
</g>
<!-- Node4 -->
<g id="node8" class="node"><title>Node4</title>
<a xlink:href="../../db/d54/_u_b_application_8h.html" target="_top" xlink:title="core/UBApplication.h">
<polygon fill="white" stroke="black" points="783.881,-304.5 783.881,-325.5 892.881,-325.5 892.881,-304.5 783.881,-304.5"/>
<text text-anchor="middle" x="838.381" y="-312.5" font-family="Helvetica,sans-Serif" font-size="10.00">core/UBApplication.h</text>
</a>
</g>
<!-- Node1&#45;&gt;Node4 -->
<g id="edge8" class="edge"><title>Node1&#45;&gt;Node4</title>
<path fill="none" stroke="midnightblue" d="M910.633,-362.922C895.887,-353.141 877.482,-340.934 862.94,-331.289"/>
<polygon fill="midnightblue" stroke="midnightblue" points="864.719,-328.269 854.451,-325.658 860.85,-334.103 864.719,-328.269"/>
</g>
<!-- Node22 -->
<g id="node46" class="node"><title>Node22</title>
<a xlink:href="../../d1/d92/_u_b_settings_8h.html" target="_top" xlink:title="core/UBSettings.h">
<polygon fill="white" stroke="black" points="0.881324,-116.5 0.881324,-137.5 97.8813,-137.5 97.8813,-116.5 0.881324,-116.5"/>
<text text-anchor="middle" x="49.3813" y="-124.5" font-family="Helvetica,sans-Serif" font-size="10.00">core/UBSettings.h</text>
</a>
</g>
<!-- Node1&#45;&gt;Node22 -->
<g id="edge64" class="edge"><title>Node1&#45;&gt;Node22</title>
<path fill="none" stroke="midnightblue" d="M866.34,-368.735C806.375,-358.72 717.862,-343.055 641.381,-326 542.687,-303.991 517.679,-298.851 421.381,-268 295.318,-227.613 149.504,-168.667 84.1735,-141.589"/>
<polygon fill="midnightblue" stroke="midnightblue" points="85.3396,-138.283 74.7621,-137.677 82.6531,-144.747 85.3396,-138.283"/>
</g>
<!-- Node26 -->
<g id="node59" class="node"><title>Node26</title>
<a xlink:href="../../df/d57/_u_b_drawing_controller_8h.html" target="_top" xlink:title="board/UBDrawingController.h">
<polygon fill="white" stroke="black" points="115.381,-116.5 115.381,-137.5 259.381,-137.5 259.381,-116.5 115.381,-116.5"/>
<text text-anchor="middle" x="187.381" y="-124.5" font-family="Helvetica,sans-Serif" font-size="10.00">board/UBDrawingController.h</text>
</a>
</g>
<!-- Node1&#45;&gt;Node26 -->
<g id="edge66" class="edge"><title>Node1&#45;&gt;Node26</title>
<path fill="none" stroke="midnightblue" d="M866.361,-363.31C751.455,-334.945 516.634,-272.863 326.381,-196 286.83,-180.021 243.032,-157.413 215.369,-142.489"/>
<polygon fill="midnightblue" stroke="midnightblue" points="216.748,-139.255 206.291,-137.554 213.405,-145.405 216.748,-139.255"/>
</g>
<!-- Node27 -->
<g id="node63" class="node"><title>Node27</title>
<a xlink:href="../../db/d80/memcheck_8h.html" target="_top" xlink:title="core/memcheck.h">
<polygon fill="white" stroke="black" points="1326.88,-304.5 1326.88,-325.5 1421.88,-325.5 1421.88,-304.5 1326.88,-304.5"/>
<text text-anchor="middle" x="1374.38" y="-312.5" font-family="Helvetica,sans-Serif" font-size="10.00">core/memcheck.h</text>
</a>
</g>
<!-- Node1&#45;&gt;Node27 -->
<g id="edge72" class="edge"><title>Node1&#45;&gt;Node27</title>
<path fill="none" stroke="midnightblue" d="M1006.67,-370.704C1082.48,-360.499 1206.66,-343.259 1313.38,-326 1314.47,-325.824 1315.57,-325.644 1316.68,-325.462"/>
<polygon fill="midnightblue" stroke="midnightblue" points="1317.51,-328.87 1326.79,-323.753 1316.35,-321.968 1317.51,-328.87"/>
</g>
<!-- Node2&#45;&gt;Node3 -->
<g id="edge4" class="edge"><title>Node2&#45;&gt;Node3</title>
<path fill="none" stroke="midnightblue" d="M1212.91,-239.496C1225.97,-207.368 1259.81,-109.479 1211.38,-58 1185.74,-30.7367 616.161,-15.1824 474.877,-11.7351"/>
<polygon fill="midnightblue" stroke="midnightblue" points="474.805,-8.23242 464.724,-11.4903 474.636,-15.2304 474.805,-8.23242"/>
</g>
<!-- Node4&#45;&gt;Node3 -->
<g id="edge10" class="edge"><title>Node4&#45;&gt;Node3</title>
<path fill="none" stroke="midnightblue" d="M892.938,-305.433C1010.07,-282.671 1268.01,-219.339 1178.38,-116 1131.31,-61.7212 608.7,-22.3428 474.594,-13.0829"/>
<polygon fill="midnightblue" stroke="midnightblue" points="474.786,-9.588 464.571,-12.3972 474.309,-16.5717 474.786,-9.588"/>
</g>
<!-- Node5 -->
<g id="node11" class="node"><title>Node5</title>
<polygon fill="white" stroke="#bfbfbf" points="561.881,-239.5 561.881,-260.5 666.881,-260.5 666.881,-239.5 561.881,-239.5"/>
<text text-anchor="middle" x="614.381" y="-247.5" font-family="Helvetica,sans-Serif" font-size="10.00">qtsingleapplication.h</text>
</g>
<!-- Node4&#45;&gt;Node5 -->
<g id="edge12" class="edge"><title>Node4&#45;&gt;Node5</title>
<path fill="none" stroke="midnightblue" d="M801.462,-304.425C768.413,-294.942 718.639,-280.619 675.381,-268 670.343,-266.53 665.073,-264.986 659.83,-263.445"/>
<polygon fill="midnightblue" stroke="midnightblue" points="660.433,-259.974 649.852,-260.507 658.456,-266.689 660.433,-259.974"/>
</g>
<!-- Node6 -->
<g id="node13" class="node"><title>Node6</title>
<a xlink:href="../../d1/d9d/_uniboard_sankore_transition_8h.html" target="_top" xlink:title="transition/UniboardSankore\lTransition.h">
<polygon fill="white" stroke="black" points="684.381,-233 684.381,-267 818.381,-267 818.381,-233 684.381,-233"/>
<text text-anchor="start" x="692.381" y="-254" font-family="Helvetica,sans-Serif" font-size="10.00">transition/UniboardSankore</text>
<text text-anchor="middle" x="751.381" y="-241" font-family="Helvetica,sans-Serif" font-size="10.00">Transition.h</text>
</a>
</g>
<!-- Node4&#45;&gt;Node6 -->
<g id="edge14" class="edge"><title>Node4&#45;&gt;Node6</title>
<path fill="none" stroke="midnightblue" d="M824.015,-304.267C812.719,-295.827 796.571,-283.762 782.368,-273.151"/>
<polygon fill="midnightblue" stroke="midnightblue" points="784.388,-270.291 774.282,-267.11 780.198,-275.899 784.388,-270.291"/>
</g>
<!-- Node7 -->
<g id="node15" class="node"><title>Node7</title>
<polygon fill="white" stroke="#bfbfbf" points="579.881,-174.5 579.881,-195.5 632.881,-195.5 632.881,-174.5 579.881,-174.5"/>
<text text-anchor="middle" x="606.381" y="-182.5" font-family="Helvetica,sans-Serif" font-size="10.00">QObject</text>
</g>
<!-- Node6&#45;&gt;Node7 -->
<g id="edge16" class="edge"><title>Node6&#45;&gt;Node7</title>
<path fill="none" stroke="midnightblue" d="M713.284,-232.922C690.333,-222.634 661.395,-209.661 639.416,-199.809"/>
<polygon fill="midnightblue" stroke="midnightblue" points="640.715,-196.555 630.158,-195.658 637.851,-202.943 640.715,-196.555"/>
</g>
<!-- Node8 -->
<g id="node17" class="node"><title>Node8</title>
<polygon fill="white" stroke="#bfbfbf" points="650.381,-174.5 650.381,-195.5 706.381,-195.5 706.381,-174.5 650.381,-174.5"/>
<text text-anchor="middle" x="678.381" y="-182.5" font-family="Helvetica,sans-Serif" font-size="10.00">QFileInfo</text>
</g>
<!-- Node6&#45;&gt;Node8 -->
<g id="edge18" class="edge"><title>Node6&#45;&gt;Node8</title>
<path fill="none" stroke="midnightblue" d="M732.201,-232.922C721.699,-223.57 708.705,-212.001 698.116,-202.572"/>
<polygon fill="midnightblue" stroke="midnightblue" points="700.365,-199.888 690.569,-195.852 695.71,-205.116 700.365,-199.888"/>
</g>
<!-- Node9 -->
<g id="node19" class="node"><title>Node9</title>
<polygon fill="white" stroke="#bfbfbf" points="724.381,-174.5 724.381,-195.5 778.381,-195.5 778.381,-174.5 724.381,-174.5"/>
<text text-anchor="middle" x="751.381" y="-182.5" font-family="Helvetica,sans-Serif" font-size="10.00">QThread</text>
</g>
<!-- Node6&#45;&gt;Node9 -->
<g id="edge20" class="edge"><title>Node6&#45;&gt;Node9</title>
<path fill="none" stroke="midnightblue" d="M751.381,-232.922C751.381,-224.67 751.381,-214.692 751.381,-205.982"/>
<polygon fill="midnightblue" stroke="midnightblue" points="754.881,-205.852 751.381,-195.852 747.881,-205.852 754.881,-205.852"/>
</g>
<!-- Node10 -->
<g id="node21" class="node"><title>Node10</title>
<a xlink:href="../../db/dc7/_u_b_update_dlg_8h.html" target="_top" xlink:title="gui/UBUpdateDlg.h">
<polygon fill="white" stroke="black" points="795.881,-174.5 795.881,-195.5 896.881,-195.5 896.881,-174.5 795.881,-174.5"/>
<text text-anchor="middle" x="846.381" y="-182.5" font-family="Helvetica,sans-Serif" font-size="10.00">gui/UBUpdateDlg.h</text>
</a>
</g>
<!-- Node6&#45;&gt;Node10 -->
<g id="edge22" class="edge"><title>Node6&#45;&gt;Node10</title>
<path fill="none" stroke="midnightblue" d="M776.341,-232.922C790.502,-223.233 808.141,-211.165 822.175,-201.562"/>
<polygon fill="midnightblue" stroke="midnightblue" points="824.527,-204.194 830.804,-195.658 820.574,-198.417 824.527,-204.194"/>
</g>
<!-- Node19 -->
<g id="node39" class="node"><title>Node19</title>
<a xlink:href="../../db/dea/_u_b_document_proxy_8h.html" target="_top" xlink:title="document/UBDocumentProxy.h">
<polygon fill="white" stroke="black" points="334.881,-174.5 334.881,-195.5 489.881,-195.5 489.881,-174.5 334.881,-174.5"/>
<text text-anchor="middle" x="412.381" y="-182.5" font-family="Helvetica,sans-Serif" font-size="10.00">document/UBDocumentProxy.h</text>
</a>
</g>
<!-- Node6&#45;&gt;Node19 -->
<g id="edge40" class="edge"><title>Node6&#45;&gt;Node19</title>
<path fill="none" stroke="midnightblue" d="M684.29,-233.896C681.282,-233.241 678.302,-232.606 675.381,-232 612.13,-218.869 539.859,-206.114 487.103,-197.213"/>
<polygon fill="midnightblue" stroke="midnightblue" points="487.596,-193.747 477.154,-195.541 486.436,-200.65 487.596,-193.747"/>
</g>
<!-- Node11 -->
<g id="node23" class="node"><title>Node11</title>
<polygon fill="white" stroke="#bfbfbf" points="675.381,-116.5 675.381,-137.5 727.381,-137.5 727.381,-116.5 675.381,-116.5"/>
<text text-anchor="middle" x="701.381" y="-124.5" font-family="Helvetica,sans-Serif" font-size="10.00">QDialog</text>
</g>
<!-- Node10&#45;&gt;Node11 -->
<g id="edge24" class="edge"><title>Node10&#45;&gt;Node11</title>
<path fill="none" stroke="midnightblue" d="M820.123,-174.497C796.821,-165.176 762.581,-151.48 736.849,-141.187"/>
<polygon fill="midnightblue" stroke="midnightblue" points="738.029,-137.89 727.444,-137.425 735.429,-144.389 738.029,-137.89"/>
</g>
<!-- Node12 -->
<g id="node25" class="node"><title>Node12</title>
<polygon fill="white" stroke="#bfbfbf" points="744.881,-116.5 744.881,-137.5 791.881,-137.5 791.881,-116.5 744.881,-116.5"/>
<text text-anchor="middle" x="768.381" y="-124.5" font-family="Helvetica,sans-Serif" font-size="10.00">QLabel</text>
</g>
<!-- Node10&#45;&gt;Node12 -->
<g id="edge26" class="edge"><title>Node10&#45;&gt;Node12</title>
<path fill="none" stroke="midnightblue" d="M832.075,-174.362C820.53,-165.777 804.081,-153.546 790.791,-143.664"/>
<polygon fill="midnightblue" stroke="midnightblue" points="792.71,-140.729 782.597,-137.571 788.533,-146.346 792.71,-140.729"/>
</g>
<!-- Node13 -->
<g id="node27" class="node"><title>Node13</title>
<polygon fill="white" stroke="#bfbfbf" points="808.881,-116.5 808.881,-137.5 883.881,-137.5 883.881,-116.5 808.881,-116.5"/>
<text text-anchor="middle" x="846.381" y="-124.5" font-family="Helvetica,sans-Serif" font-size="10.00">QPushButton</text>
</g>
<!-- Node10&#45;&gt;Node13 -->
<g id="edge28" class="edge"><title>Node10&#45;&gt;Node13</title>
<path fill="none" stroke="midnightblue" d="M846.381,-174.362C846.381,-166.922 846.381,-156.743 846.381,-147.728"/>
<polygon fill="midnightblue" stroke="midnightblue" points="849.881,-147.571 846.381,-137.571 842.881,-147.571 849.881,-147.571"/>
</g>
<!-- Node14 -->
<g id="node29" class="node"><title>Node14</title>
<polygon fill="white" stroke="#bfbfbf" points="900.881,-116.5 900.881,-137.5 959.881,-137.5 959.881,-116.5 900.881,-116.5"/>
<text text-anchor="middle" x="930.381" y="-124.5" font-family="Helvetica,sans-Serif" font-size="10.00">QLineEdit</text>
</g>
<!-- Node10&#45;&gt;Node14 -->
<g id="edge30" class="edge"><title>Node10&#45;&gt;Node14</title>
<path fill="none" stroke="midnightblue" d="M861.788,-174.362C874.34,-165.696 892.273,-153.313 906.656,-143.382"/>
<polygon fill="midnightblue" stroke="midnightblue" points="908.832,-146.133 915.072,-137.571 904.854,-140.372 908.832,-146.133"/>
</g>
<!-- Node15 -->
<g id="node31" class="node"><title>Node15</title>
<polygon fill="white" stroke="#bfbfbf" points="977.381,-116.5 977.381,-137.5 1075.38,-137.5 1075.38,-116.5 977.381,-116.5"/>
<text text-anchor="middle" x="1026.38" y="-124.5" font-family="Helvetica,sans-Serif" font-size="10.00">QDialogButtonBox</text>
</g>
<!-- Node10&#45;&gt;Node15 -->
<g id="edge32" class="edge"><title>Node10&#45;&gt;Node15</title>
<path fill="none" stroke="midnightblue" d="M878.978,-174.497C908.45,-165 952.017,-150.962 984.147,-140.609"/>
<polygon fill="midnightblue" stroke="midnightblue" points="985.279,-143.921 993.724,-137.523 983.132,-137.259 985.279,-143.921"/>
</g>
<!-- Node16 -->
<g id="node33" class="node"><title>Node16</title>
<polygon fill="white" stroke="#bfbfbf" points="1092.88,-116.5 1092.88,-137.5 1169.88,-137.5 1169.88,-116.5 1092.88,-116.5"/>
<text text-anchor="middle" x="1131.38" y="-124.5" font-family="Helvetica,sans-Serif" font-size="10.00">QVBoxLayout</text>
</g>
<!-- Node10&#45;&gt;Node16 -->
<g id="edge34" class="edge"><title>Node10&#45;&gt;Node16</title>
<path fill="none" stroke="midnightblue" d="M897.094,-175.517C943.182,-166.779 1013.3,-153.187 1082.87,-138.283"/>
<polygon fill="midnightblue" stroke="midnightblue" points="1083.64,-141.697 1092.68,-136.171 1082.16,-134.854 1083.64,-141.697"/>
</g>
<!-- Node17 -->
<g id="node35" class="node"><title>Node17</title>
<polygon fill="white" stroke="#bfbfbf" points="471.381,-116.5 471.381,-137.5 549.381,-137.5 549.381,-116.5 471.381,-116.5"/>
<text text-anchor="middle" x="510.381" y="-124.5" font-family="Helvetica,sans-Serif" font-size="10.00">QHBoxLayout</text>
</g>
<!-- Node10&#45;&gt;Node17 -->
<g id="edge36" class="edge"><title>Node10&#45;&gt;Node17</title>
<path fill="none" stroke="midnightblue" d="M795.868,-175.485C792.998,-174.975 790.154,-174.476 787.381,-174 689.014,-157.102 661.26,-157.477 559.692,-138.159"/>
<polygon fill="midnightblue" stroke="midnightblue" points="560.108,-134.675 549.627,-136.227 558.788,-141.55 560.108,-134.675"/>
</g>
<!-- Node18 -->
<g id="node37" class="node"><title>Node18</title>
<polygon fill="white" stroke="#bfbfbf" points="566.881,-116.5 566.881,-137.5 657.881,-137.5 657.881,-116.5 566.881,-116.5"/>
<text text-anchor="middle" x="612.381" y="-124.5" font-family="Helvetica,sans-Serif" font-size="10.00">QStackedWidget</text>
</g>
<!-- Node10&#45;&gt;Node18 -->
<g id="edge38" class="edge"><title>Node10&#45;&gt;Node18</title>
<path fill="none" stroke="midnightblue" d="M804.006,-174.497C764.866,-164.795 706.606,-150.355 664.606,-139.945"/>
<polygon fill="midnightblue" stroke="midnightblue" points="665.385,-136.532 654.836,-137.523 663.701,-143.326 665.385,-136.532"/>
</g>
<!-- Node19&#45;&gt;Node3 -->
<g id="edge42" class="edge"><title>Node19&#45;&gt;Node3</title>
<path fill="none" stroke="midnightblue" d="M415.459,-174.244C418.092,-164.764 421.848,-150.547 424.381,-138 431.881,-100.857 437.798,-57.0516 440.927,-31.8041"/>
<polygon fill="midnightblue" stroke="midnightblue" points="444.435,-31.949 442.165,-21.6003 437.486,-31.1062 444.435,-31.949"/>
</g>
<!-- Node20 -->
<g id="node42" class="node"><title>Node20</title>
<a xlink:href="../../d7/dca/_u_b_string_utils_8h.html" target="_top" xlink:title="frameworks/UBStringUtils.h">
<polygon fill="white" stroke="black" points="276.881,-116.5 276.881,-137.5 415.881,-137.5 415.881,-116.5 276.881,-116.5"/>
<text text-anchor="middle" x="346.381" y="-124.5" font-family="Helvetica,sans-Serif" font-size="10.00">frameworks/UBStringUtils.h</text>
</a>
</g>
<!-- Node19&#45;&gt;Node20 -->
<g id="edge44" class="edge"><title>Node19&#45;&gt;Node20</title>
<path fill="none" stroke="midnightblue" d="M400.276,-174.362C390.693,-165.941 377.117,-154.011 365.989,-144.231"/>
<polygon fill="midnightblue" stroke="midnightblue" points="368.232,-141.543 358.41,-137.571 363.611,-146.801 368.232,-141.543"/>
</g>
<!-- Node19&#45;&gt;Node22 -->
<g id="edge48" class="edge"><title>Node19&#45;&gt;Node22</title>
<path fill="none" stroke="midnightblue" d="M338.675,-174.486C278.978,-165.784 192.45,-152.753 108.174,-138.271"/>
<polygon fill="midnightblue" stroke="midnightblue" points="108.626,-134.797 98.1764,-136.544 107.435,-141.695 108.626,-134.797"/>
</g>
<!-- Node21 -->
<g id="node44" class="node"><title>Node21</title>
<polygon fill="white" stroke="#bfbfbf" points="240.381,-58.5 240.381,-79.5 288.381,-79.5 288.381,-58.5 240.381,-58.5"/>
<text text-anchor="middle" x="264.381" y="-66.5" font-family="Helvetica,sans-Serif" font-size="10.00">QtCore</text>
</g>
<!-- Node20&#45;&gt;Node21 -->
<g id="edge46" class="edge"><title>Node20&#45;&gt;Node21</title>
<path fill="none" stroke="midnightblue" d="M331.341,-116.362C319.089,-107.696 301.582,-95.3126 287.542,-85.3819"/>
<polygon fill="midnightblue" stroke="midnightblue" points="289.511,-82.4879 279.326,-79.5707 285.469,-88.2028 289.511,-82.4879"/>
</g>
<!-- Node22&#45;&gt;Node3 -->
<g id="edge52" class="edge"><title>Node22&#45;&gt;Node3</title>
<path fill="none" stroke="midnightblue" d="M34.2803,-116.446C15.7335,-102.239 -11.3302,-76.6007 5.38132,-58 32.542,-27.7689 316.559,-15.3378 412.17,-11.9893"/>
<polygon fill="midnightblue" stroke="midnightblue" points="412.484,-15.4807 422.359,-11.6421 412.246,-8.48478 412.484,-15.4807"/>
</g>
<!-- Node22&#45;&gt;Node21 -->
<g id="edge50" class="edge"><title>Node22&#45;&gt;Node21</title>
<path fill="none" stroke="midnightblue" d="M93.748,-116.451C128.577,-107.965 178.479,-95.3604 230.547,-80.1194"/>
<polygon fill="midnightblue" stroke="midnightblue" points="231.691,-83.431 240.291,-77.2433 229.71,-76.7174 231.691,-83.431"/>
</g>
<!-- Node23 -->
<g id="node50" class="node"><title>Node23</title>
<polygon fill="white" stroke="#bfbfbf" points="102.381,-58.5 102.381,-79.5 166.381,-79.5 166.381,-58.5 102.381,-58.5"/>
<text text-anchor="middle" x="134.381" y="-66.5" font-family="Helvetica,sans-Serif" font-size="10.00">QtNetwork</text>
</g>
<!-- Node22&#45;&gt;Node23 -->
<g id="edge54" class="edge"><title>Node22&#45;&gt;Node23</title>
<path fill="none" stroke="midnightblue" d="M64.9716,-116.362C77.6724,-107.696 95.8198,-95.3126 110.373,-85.3819"/>
<polygon fill="midnightblue" stroke="midnightblue" points="112.602,-88.0982 118.89,-79.5707 108.657,-82.316 112.602,-88.0982"/>
</g>
<!-- Node24 -->
<g id="node52" class="node"><title>Node24</title>
<a xlink:href="../../d6/dd0/_u_b_8h.html" target="_top" xlink:title="UB.h">
<polygon fill="white" stroke="black" points="183.881,-58.5 183.881,-79.5 222.881,-79.5 222.881,-58.5 183.881,-58.5"/>
<text text-anchor="middle" x="203.381" y="-66.5" font-family="Helvetica,sans-Serif" font-size="10.00">UB.h</text>
</a>
</g>
<!-- Node22&#45;&gt;Node24 -->
<g id="edge56" class="edge"><title>Node22&#45;&gt;Node24</title>
<path fill="none" stroke="midnightblue" d="M78.4613,-116.315C102.036,-107.617 136.347,-94.8781 174.138,-80.4416"/>
<polygon fill="midnightblue" stroke="midnightblue" points="175.728,-83.5804 183.816,-76.7362 173.226,-77.0431 175.728,-83.5804"/>
</g>
<!-- Node25 -->
<g id="node55" class="node"><title>Node25</title>
<a xlink:href="../../d3/d76/_u_b_setting_8h.html" target="_top" xlink:title="UBSetting.h">
<polygon fill="white" stroke="black" points="14.3813,-58.5 14.3813,-79.5 84.3813,-79.5 84.3813,-58.5 14.3813,-58.5"/>
<text text-anchor="middle" x="49.3813" y="-66.5" font-family="Helvetica,sans-Serif" font-size="10.00">UBSetting.h</text>
</a>
</g>
<!-- Node22&#45;&gt;Node25 -->
<g id="edge60" class="edge"><title>Node22&#45;&gt;Node25</title>
<path fill="none" stroke="midnightblue" d="M49.3813,-116.362C49.3813,-108.922 49.3813,-98.7427 49.3813,-89.7276"/>
<polygon fill="midnightblue" stroke="midnightblue" points="52.8814,-89.5706 49.3813,-79.5707 45.8814,-89.5707 52.8814,-89.5706"/>
</g>
<!-- Node24&#45;&gt;Node3 -->
<g id="edge58" class="edge"><title>Node24&#45;&gt;Node3</title>
<path fill="none" stroke="midnightblue" d="M223.131,-60.7997C225.879,-59.7888 228.684,-58.8234 231.381,-58 294.569,-38.7129 370.592,-23.8071 412.267,-16.3223"/>
<polygon fill="midnightblue" stroke="midnightblue" points="413.102,-19.729 422.338,-14.5384 411.881,-12.8363 413.102,-19.729"/>
</g>
<!-- Node25&#45;&gt;Node3 -->
<g id="edge62" class="edge"><title>Node25&#45;&gt;Node3</title>
<path fill="none" stroke="midnightblue" d="M84.8475,-59.7728C87.7261,-59.134 90.5973,-58.5332 93.3813,-58 210.114,-35.6428 350.76,-20.194 412.161,-14.0115"/>
<polygon fill="midnightblue" stroke="midnightblue" points="412.737,-17.4715 422.341,-12.9985 412.044,-10.5059 412.737,-17.4715"/>
</g>
<!-- Node26&#45;&gt;Node21 -->
<g id="edge68" class="edge"><title>Node26&#45;&gt;Node21</title>
<path fill="none" stroke="midnightblue" d="M201.504,-116.362C212.901,-107.777 229.139,-95.5459 242.259,-85.6636"/>
<polygon fill="midnightblue" stroke="midnightblue" points="244.466,-88.3829 250.348,-79.5707 240.254,-82.7916 244.466,-88.3829"/>
</g>
<!-- Node26&#45;&gt;Node24 -->
<g id="edge70" class="edge"><title>Node26&#45;&gt;Node24</title>
<path fill="none" stroke="midnightblue" d="M190.316,-116.362C192.391,-108.84 195.238,-98.5187 197.745,-89.4308"/>
<polygon fill="midnightblue" stroke="midnightblue" points="201.18,-90.1414 200.465,-79.5707 194.432,-88.2798 201.18,-90.1414"/>
</g>
</g>
</svg>
