<?xml version="1.0" encoding="UTF-8" standalone="no"?>
<!DOCTYPE svg PUBLIC "-//W3C//DTD SVG 1.1//EN"
 "http://www.w3.org/Graphics/SVG/1.1/DTD/svg11.dtd">
<!-- Generated by graphviz version 2.26.3 (20100126.1600)
 -->
<!-- Title: UBPlatformUtils::setWindowNonActivableFlag Pages: 1 -->
<svg width="482pt" height="88pt"
 viewBox="0.00 0.00 482.00 88.00" xmlns="http://www.w3.org/2000/svg" xmlns:xlink="http://www.w3.org/1999/xlink">
<g id="graph1" class="graph" transform="scale(1 1) rotate(0) translate(4 84)">
<title>UBPlatformUtils::setWindowNonActivableFlag</title>
<polygon fill="white" stroke="white" points="-4,5 -4,-84 479,-84 479,5 -4,5"/>
<!-- Node1 -->
<g id="node1" class="node"><title>Node1</title>
<polygon fill="#bfbfbf" stroke="black" points="0.5,-23 0.5,-57 143.5,-57 143.5,-23 0.5,-23"/>
<text text-anchor="start" x="8.5" y="-44" font-family="Helvetica,sans-Serif" font-size="10.00">UBPlatformUtils::setWindow</text>
<text text-anchor="middle" x="72" y="-31" font-family="Helvetica,sans-Serif" font-size="10.00">NonActivableFlag</text>
</g>
<!-- Node2 -->
<g id="node3" class="node"><title>Node2</title>
<a xlink:href="../../d1/d78/class_u_b_board_view.html#a2d30679bb82bf535f21be9331b1e2f05" target="_top" xlink:title="UBBoardView::virtualKeyboard\lActivated">
<polygon fill="white" stroke="black" points="180,-46 180,-80 332,-80 332,-46 180,-46"/>
<text text-anchor="start" x="188" y="-67" font-family="Helvetica,sans-Serif" font-size="10.00">UBBoardView::virtualKeyboard</text>
<text text-anchor="middle" x="256" y="-54" font-family="Helvetica,sans-Serif" font-size="10.00">Activated</text>
</a>
</g>
<!-- Node1&#45;&gt;Node2 -->
<g id="edge2" class="edge"><title>Node1&#45;&gt;Node2</title>
<path fill="none" stroke="midnightblue" d="M153.807,-50.2259C162.51,-51.3138 171.336,-52.417 179.969,-53.4961"/>
<polygon fill="midnightblue" stroke="midnightblue" points="154.023,-46.7257 143.666,-48.9583 153.155,-53.6717 154.023,-46.7257"/>
</g>
<!-- Node3 -->
<g id="node5" class="node"><title>Node3</title>
<a xlink:href="../../d6/d6e/class_u_b_keyboard_palette.html#a17a1566aada47c89954068f3bcbd4e2d" target="_top" xlink:title="UBKeyboardPalette::init">
<polygon fill="white" stroke="black" points="195,-6.5 195,-27.5 317,-27.5 317,-6.5 195,-6.5"/>
<text text-anchor="middle" x="256" y="-14.5" font-family="Helvetica,sans-Serif" font-size="10.00">UBKeyboardPalette::init</text>
</a>
</g>
<!-- Node1&#45;&gt;Node3 -->
<g id="edge4" class="edge"><title>Node1&#45;&gt;Node3</title>
<path fill="none" stroke="midnightblue" d="M153.692,-29.7885C167.562,-28.0547 181.749,-26.2813 194.97,-24.6287"/>
<polygon fill="midnightblue" stroke="midnightblue" points="153.155,-26.3283 143.666,-31.0417 154.023,-33.2743 153.155,-26.3283"/>
</g>
<!-- Node4 -->
<g id="node7" class="node"><title>Node4</title>
<a xlink:href="../../d6/d6e/class_u_b_keyboard_palette.html#aa37fa74f921fa125b304707b858c4d24" target="_top" xlink:title="UBKeyboardPalette:\l:UBKeyboardPalette">
<polygon fill="white" stroke="black" points="368,-0 368,-34 474,-34 474,-0 368,-0"/>
<text text-anchor="start" x="376" y="-21" font-family="Helvetica,sans-Serif" font-size="10.00">UBKeyboardPalette:</text>
<text text-anchor="middle" x="421" y="-8" font-family="Helvetica,sans-Serif" font-size="10.00">:UBKeyboardPalette</text>
</a>
</g>
<!-- Node3&#45;&gt;Node4 -->
<g id="edge6" class="edge"><title>Node3&#45;&gt;Node4</title>
<path fill="none" stroke="midnightblue" d="M327.672,-17C341.185,-17 355.092,-17 367.91,-17"/>
<polygon fill="midnightblue" stroke="midnightblue" points="327.44,-13.5001 317.44,-17 327.44,-20.5001 327.44,-13.5001"/>
</g>
</g>
</svg>
