<?xml version="1.0" encoding="UTF-8" standalone="no"?>
<!DOCTYPE svg PUBLIC "-//W3C//DTD SVG 1.1//EN"
 "http://www.w3.org/Graphics/SVG/1.1/DTD/svg11.dtd">
<!-- Generated by graphviz version 2.26.3 (20100126.1600)
 -->
<!-- Title: UBPreferencesController::toolbarOrientationVertical Pages: 1 -->
<svg width="432pt" height="90pt"
 viewBox="0.00 0.00 432.00 90.00" xmlns="http://www.w3.org/2000/svg" xmlns:xlink="http://www.w3.org/1999/xlink">
<g id="graph1" class="graph" transform="scale(1 1) rotate(0) translate(4 86)">
<title>UBPreferencesController::toolbarOrientationVertical</title>
<polygon fill="white" stroke="white" points="-4,5 -4,-86 429,-86 429,5 -4,5"/>
<!-- Node1 -->
<g id="node1" class="node"><title>Node1</title>
<polygon fill="#bfbfbf" stroke="black" points="0,-34 0,-68 132,-68 132,-34 0,-34"/>
<text text-anchor="start" x="8" y="-55" font-family="Helvetica,sans-Serif" font-size="10.00">UBPreferencesController</text>
<text text-anchor="middle" x="66" y="-42" font-family="Helvetica,sans-Serif" font-size="10.00">::toolbarOrientationVertical</text>
</g>
<!-- Node2 -->
<g id="node3" class="node"><title>Node2</title>
<a xlink:href="../../db/d66/class_u_b_settings.html#a0d8ed418921c2b2d37851faeae00715d" target="_top" xlink:title="UBSettings::settings">
<polygon fill="white" stroke="black" points="168.5,-60.5 168.5,-81.5 275.5,-81.5 275.5,-60.5 168.5,-60.5"/>
<text text-anchor="middle" x="222" y="-68.5" font-family="Helvetica,sans-Serif" font-size="10.00">UBSettings::settings</text>
</a>
</g>
<!-- Node1&#45;&gt;Node2 -->
<g id="edge2" class="edge"><title>Node1&#45;&gt;Node2</title>
<path fill="none" stroke="midnightblue" d="M132.158,-59.4818C140.872,-60.599 149.789,-61.7421 158.458,-62.8536"/>
<polygon fill="midnightblue" stroke="midnightblue" points="158.13,-66.3402 168.494,-64.1403 159.021,-59.397 158.13,-66.3402"/>
</g>
<!-- Node3 -->
<g id="node5" class="node"><title>Node3</title>
<a xlink:href="../../d7/d24/class_u_b_setting.html#a5dc12b91ffabb031a3a7a8322f5d30ed" target="_top" xlink:title="UBSetting::set">
<polygon fill="white" stroke="black" points="181.5,-20.5 181.5,-41.5 262.5,-41.5 262.5,-20.5 181.5,-20.5"/>
<text text-anchor="middle" x="222" y="-28.5" font-family="Helvetica,sans-Serif" font-size="10.00">UBSetting::set</text>
</a>
</g>
<!-- Node1&#45;&gt;Node3 -->
<g id="edge4" class="edge"><title>Node1&#45;&gt;Node3</title>
<path fill="none" stroke="midnightblue" d="M132.158,-42.5182C145.133,-40.8547 158.556,-39.1338 170.945,-37.5454"/>
<polygon fill="midnightblue" stroke="midnightblue" points="171.603,-40.9899 181.077,-36.2466 170.713,-34.0467 171.603,-40.9899"/>
</g>
<!-- Node4 -->
<g id="node7" class="node"><title>Node4</title>
<a xlink:href="../../db/d66/class_u_b_settings.html#acf2a7dc86ac6849cdae8ad611ba71878" target="_top" xlink:title="UBSettings::setValue">
<polygon fill="white" stroke="black" points="312.5,-40.5 312.5,-61.5 423.5,-61.5 423.5,-40.5 312.5,-40.5"/>
<text text-anchor="middle" x="368" y="-48.5" font-family="Helvetica,sans-Serif" font-size="10.00">UBSettings::setValue</text>
</a>
</g>
<!-- Node3&#45;&gt;Node4 -->
<g id="edge6" class="edge"><title>Node3&#45;&gt;Node4</title>
<path fill="none" stroke="midnightblue" d="M262.669,-36.5711C274.906,-38.2474 288.662,-40.1318 302.095,-41.9719"/>
<polygon fill="midnightblue" stroke="midnightblue" points="301.891,-45.4765 312.273,-43.3662 302.841,-38.5413 301.891,-45.4765"/>
</g>
<!-- Node5 -->
<g id="node9" class="node"><title>Node5</title>
<a xlink:href="../../d7/d24/class_u_b_setting.html#a0f7d1e100a9d7d35a58c818a356702c7" target="_top" xlink:title="UBSetting::changed">
<polygon fill="white" stroke="black" points="316,-0.5 316,-21.5 420,-21.5 420,-0.5 316,-0.5"/>
<text text-anchor="middle" x="368" y="-8.5" font-family="Helvetica,sans-Serif" font-size="10.00">UBSetting::changed</text>
</a>
</g>
<!-- Node3&#45;&gt;Node5 -->
<g id="edge8" class="edge"><title>Node3&#45;&gt;Node5</title>
<path fill="none" stroke="midnightblue" d="M262.669,-25.4289C276.037,-23.5976 291.218,-21.518 305.81,-19.5192"/>
<polygon fill="midnightblue" stroke="midnightblue" points="306.356,-22.9772 315.788,-18.1523 305.406,-16.0419 306.356,-22.9772"/>
</g>
</g>
</svg>
