<?xml version="1.0" encoding="UTF-8" standalone="no"?>
<!DOCTYPE svg PUBLIC "-//W3C//DTD SVG 1.1//EN"
 "http://www.w3.org/Graphics/SVG/1.1/DTD/svg11.dtd">
<!-- Generated by graphviz version 2.26.3 (20100126.1600)
 -->
<!-- Title: UBPreferencesController::onStartupTipsClicked Pages: 1 -->
<svg width="278pt" height="70pt"
 viewBox="0.00 0.00 278.00 70.00" xmlns="http://www.w3.org/2000/svg" xmlns:xlink="http://www.w3.org/1999/xlink">
<g id="graph1" class="graph" transform="scale(1 1) rotate(0) translate(4 66)">
<title>UBPreferencesController::onStartupTipsClicked</title>
<polygon fill="white" stroke="white" points="-4,5 -4,-66 275,-66 275,5 -4,5"/>
<!-- Node1 -->
<g id="node1" class="node"><title>Node1</title>
<polygon fill="#bfbfbf" stroke="black" points="0.5,-14 0.5,-48 125.5,-48 125.5,-14 0.5,-14"/>
<text text-anchor="start" x="8.5" y="-35" font-family="Helvetica,sans-Serif" font-size="10.00">UBPreferencesController</text>
<text text-anchor="middle" x="63" y="-22" font-family="Helvetica,sans-Serif" font-size="10.00">::onStartupTipsClicked</text>
</g>
<!-- Node2 -->
<g id="node3" class="node"><title>Node2</title>
<a xlink:href="../../db/d66/class_u_b_settings.html#a0d8ed418921c2b2d37851faeae00715d" target="_top" xlink:title="UBSettings::settings">
<polygon fill="white" stroke="black" points="162.5,-40.5 162.5,-61.5 269.5,-61.5 269.5,-40.5 162.5,-40.5"/>
<text text-anchor="middle" x="216" y="-48.5" font-family="Helvetica,sans-Serif" font-size="10.00">UBSettings::settings</text>
</a>
</g>
<!-- Node1&#45;&gt;Node2 -->
<g id="edge2" class="edge"><title>Node1&#45;&gt;Node2</title>
<path fill="none" stroke="midnightblue" d="M125.672,-39.1925C134.451,-40.34 143.481,-41.5204 152.279,-42.6704"/>
<polygon fill="midnightblue" stroke="midnightblue" points="152.102,-46.177 162.471,-44.0028 153.009,-39.2361 152.102,-46.177"/>
</g>
<!-- Node3 -->
<g id="node5" class="node"><title>Node3</title>
<a xlink:href="../../d7/d24/class_u_b_setting.html#ace7b75378f8faad31ab6ce6ea1c7589b" target="_top" xlink:title="UBSetting::setBool">
<polygon fill="white" stroke="black" points="165.5,-0.5 165.5,-21.5 266.5,-21.5 266.5,-0.5 165.5,-0.5"/>
<text text-anchor="middle" x="216" y="-8.5" font-family="Helvetica,sans-Serif" font-size="10.00">UBSetting::setBool</text>
</a>
</g>
<!-- Node1&#45;&gt;Node3 -->
<g id="edge4" class="edge"><title>Node1&#45;&gt;Node3</title>
<path fill="none" stroke="midnightblue" d="M125.672,-22.8075C135.472,-21.5265 145.585,-20.2045 155.339,-18.9295"/>
<polygon fill="midnightblue" stroke="midnightblue" points="155.883,-22.3882 165.345,-17.6215 154.976,-15.4473 155.883,-22.3882"/>
</g>
</g>
</svg>
