<?xml version="1.0" encoding="UTF-8" standalone="no"?>
<!DOCTYPE svg PUBLIC "-//W3C//DTD SVG 1.1//EN"
 "http://www.w3.org/Graphics/SVG/1.1/DTD/svg11.dtd">
<!-- Generated by graphviz version 2.26.3 (20100126.1600)
 -->
<!-- Title: UBPreferencesController::toolbarPositionChanged Pages: 1 -->
<svg width="426pt" height="90pt"
 viewBox="0.00 0.00 426.00 90.00" xmlns="http://www.w3.org/2000/svg" xmlns:xlink="http://www.w3.org/1999/xlink">
<g id="graph1" class="graph" transform="scale(1 1) rotate(0) translate(4 86)">
<title>UBPreferencesController::toolbarPositionChanged</title>
<polygon fill="white" stroke="white" points="-4,5 -4,-86 423,-86 423,5 -4,5"/>
<!-- Node1 -->
<g id="node1" class="node"><title>Node1</title>
<polygon fill="#bfbfbf" stroke="black" points="0,-34 0,-68 126,-68 126,-34 0,-34"/>
<text text-anchor="start" x="8" y="-55" font-family="Helvetica,sans-Serif" font-size="10.00">UBPreferencesController</text>
<text text-anchor="middle" x="63" y="-42" font-family="Helvetica,sans-Serif" font-size="10.00">::toolbarPositionChanged</text>
</g>
<!-- Node2 -->
<g id="node3" class="node"><title>Node2</title>
<a xlink:href="../../db/d66/class_u_b_settings.html#a0d8ed418921c2b2d37851faeae00715d" target="_top" xlink:title="UBSettings::settings">
<polygon fill="white" stroke="black" points="162.5,-60.5 162.5,-81.5 269.5,-81.5 269.5,-60.5 162.5,-60.5"/>
<text text-anchor="middle" x="216" y="-68.5" font-family="Helvetica,sans-Serif" font-size="10.00">UBSettings::settings</text>
</a>
</g>
<!-- Node1&#45;&gt;Node2 -->
<g id="edge2" class="edge"><title>Node1&#45;&gt;Node2</title>
<path fill="none" stroke="midnightblue" d="M126.114,-59.2502C134.752,-60.3794 143.625,-61.5393 152.274,-62.6698"/>
<polygon fill="midnightblue" stroke="midnightblue" points="151.927,-66.1542 162.297,-63.9799 152.835,-59.2132 151.927,-66.1542"/>
</g>
<!-- Node3 -->
<g id="node5" class="node"><title>Node3</title>
<a xlink:href="../../d7/d24/class_u_b_setting.html#a5dc12b91ffabb031a3a7a8322f5d30ed" target="_top" xlink:title="UBSetting::set">
<polygon fill="white" stroke="black" points="175.5,-20.5 175.5,-41.5 256.5,-41.5 256.5,-20.5 175.5,-20.5"/>
<text text-anchor="middle" x="216" y="-28.5" font-family="Helvetica,sans-Serif" font-size="10.00">UBSetting::set</text>
</a>
</g>
<!-- Node1&#45;&gt;Node3 -->
<g id="edge4" class="edge"><title>Node1&#45;&gt;Node3</title>
<path fill="none" stroke="midnightblue" d="M126.114,-42.7498C139.105,-41.0517 152.627,-39.2841 165.118,-37.6512"/>
<polygon fill="midnightblue" stroke="midnightblue" points="165.873,-41.0825 175.335,-36.3157 164.965,-34.1415 165.873,-41.0825"/>
</g>
<!-- Node4 -->
<g id="node7" class="node"><title>Node4</title>
<a xlink:href="../../db/d66/class_u_b_settings.html#acf2a7dc86ac6849cdae8ad611ba71878" target="_top" xlink:title="UBSettings::setValue">
<polygon fill="white" stroke="black" points="306.5,-40.5 306.5,-61.5 417.5,-61.5 417.5,-40.5 306.5,-40.5"/>
<text text-anchor="middle" x="362" y="-48.5" font-family="Helvetica,sans-Serif" font-size="10.00">UBSettings::setValue</text>
</a>
</g>
<!-- Node3&#45;&gt;Node4 -->
<g id="edge6" class="edge"><title>Node3&#45;&gt;Node4</title>
<path fill="none" stroke="midnightblue" d="M256.669,-36.5711C268.906,-38.2474 282.662,-40.1318 296.095,-41.9719"/>
<polygon fill="midnightblue" stroke="midnightblue" points="295.891,-45.4765 306.273,-43.3662 296.841,-38.5413 295.891,-45.4765"/>
</g>
<!-- Node5 -->
<g id="node9" class="node"><title>Node5</title>
<a xlink:href="../../d7/d24/class_u_b_setting.html#a0f7d1e100a9d7d35a58c818a356702c7" target="_top" xlink:title="UBSetting::changed">
<polygon fill="white" stroke="black" points="310,-0.5 310,-21.5 414,-21.5 414,-0.5 310,-0.5"/>
<text text-anchor="middle" x="362" y="-8.5" font-family="Helvetica,sans-Serif" font-size="10.00">UBSetting::changed</text>
</a>
</g>
<!-- Node3&#45;&gt;Node5 -->
<g id="edge8" class="edge"><title>Node3&#45;&gt;Node5</title>
<path fill="none" stroke="midnightblue" d="M256.669,-25.4289C270.037,-23.5976 285.218,-21.518 299.81,-19.5192"/>
<polygon fill="midnightblue" stroke="midnightblue" points="300.356,-22.9772 309.788,-18.1523 299.406,-16.0419 300.356,-22.9772"/>
</g>
</g>
</svg>
