<?xml version="1.0" encoding="UTF-8" standalone="no"?>
<!DOCTYPE svg PUBLIC "-//W3C//DTD SVG 1.1//EN"
 "http://www.w3.org/Graphics/SVG/1.1/DTD/svg11.dtd">
<!-- Generated by graphviz version 2.26.3 (20100126.1600)
 -->
<!-- Title: UBWidgetAPIMessageBroker::newMessage Pages: 1 -->
<svg width="490pt" height="42pt"
 viewBox="0.00 0.00 490.00 42.00" xmlns="http://www.w3.org/2000/svg" xmlns:xlink="http://www.w3.org/1999/xlink">
<g id="graph1" class="graph" transform="scale(1 1) rotate(0) translate(4 38)">
<title>UBWidgetAPIMessageBroker::newMessage</title>
<polygon fill="white" stroke="white" points="-4,5 -4,-38 487,-38 487,5 -4,5"/>
<!-- Node1 -->
<g id="node1" class="node"><title>Node1</title>
<polygon fill="#bfbfbf" stroke="black" points="0,-0 0,-34 146,-34 146,-0 0,-0"/>
<text text-anchor="start" x="8" y="-21" font-family="Helvetica,sans-Serif" font-size="10.00">UBWidgetAPIMessageBroker</text>
<text text-anchor="middle" x="73" y="-8" font-family="Helvetica,sans-Serif" font-size="10.00">::newMessage</text>
</g>
<!-- Node2 -->
<g id="node3" class="node"><title>Node2</title>
<a xlink:href="../../d2/d5c/class_u_b_widget_a_p_i_message_broker.html#abcefec69dc208159e89a6f53b834ad54" target="_top" xlink:title="UBWidgetAPIMessageBroker\l::sendMessage">
<polygon fill="white" stroke="black" points="182,-0 182,-34 328,-34 328,-0 182,-0"/>
<text text-anchor="start" x="190" y="-21" font-family="Helvetica,sans-Serif" font-size="10.00">UBWidgetAPIMessageBroker</text>
<text text-anchor="middle" x="255" y="-8" font-family="Helvetica,sans-Serif" font-size="10.00">::sendMessage</text>
</a>
</g>
<!-- Node1&#45;&gt;Node2 -->
<g id="edge2" class="edge"><title>Node1&#45;&gt;Node2</title>
<path fill="none" stroke="midnightblue" d="M156.516,-17C164.992,-17 173.556,-17 181.91,-17"/>
<polygon fill="midnightblue" stroke="midnightblue" points="156.24,-13.5001 146.24,-17 156.24,-20.5001 156.24,-13.5001"/>
</g>
<!-- Node3 -->
<g id="node5" class="node"><title>Node3</title>
<a xlink:href="../../df/d09/class_u_b_widget_message_a_p_i.html#af106f68de4e0ac7a6f7928080b24abe3" target="_top" xlink:title="UBWidgetMessageAPI\l::sendMessage">
<polygon fill="white" stroke="black" points="364,-0 364,-34 482,-34 482,-0 364,-0"/>
<text text-anchor="start" x="372" y="-21" font-family="Helvetica,sans-Serif" font-size="10.00">UBWidgetMessageAPI</text>
<text text-anchor="middle" x="423" y="-8" font-family="Helvetica,sans-Serif" font-size="10.00">::sendMessage</text>
</a>
</g>
<!-- Node2&#45;&gt;Node3 -->
<g id="edge4" class="edge"><title>Node2&#45;&gt;Node3</title>
<path fill="none" stroke="midnightblue" d="M338.319,-17C346.962,-17 355.615,-17 363.912,-17"/>
<polygon fill="midnightblue" stroke="midnightblue" points="338.199,-13.5001 328.199,-17 338.198,-20.5001 338.199,-13.5001"/>
</g>
</g>
</svg>
