<?xml version="1.0" encoding="UTF-8" standalone="no"?>
<!DOCTYPE svg PUBLIC "-//W3C//DTD SVG 1.1//EN"
 "http://www.w3.org/Graphics/SVG/1.1/DTD/svg11.dtd">
<!-- Generated by graphviz version 2.26.3 (20100126.1600)
 -->
<!-- Title: Sankore&#45;3.1/src/gui/UBColorPicker.cpp Pages: 1 -->
<svg width="248pt" height="160pt"
 viewBox="0.00 0.00 248.00 160.00" xmlns="http://www.w3.org/2000/svg" xmlns:xlink="http://www.w3.org/1999/xlink">
<g id="graph1" class="graph" transform="scale(1 1) rotate(0) translate(4 156)">
<title>Sankore&#45;3.1/src/gui/UBColorPicker.cpp</title>
<polygon fill="white" stroke="white" points="-4,5 -4,-156 245,-156 245,5 -4,5"/>
<!-- Node1 -->
<g id="node1" class="node"><title>Node1</title>
<polygon fill="#bfbfbf" stroke="black" points="66,-117 66,-151 170,-151 170,-117 66,-117"/>
<text text-anchor="start" x="74" y="-138" font-family="Helvetica,sans-Serif" font-size="10.00">Sankore&#45;3.1/src/gui</text>
<text text-anchor="middle" x="118" y="-125" font-family="Helvetica,sans-Serif" font-size="10.00">/UBColorPicker.cpp</text>
</g>
<!-- Node2 -->
<g id="node3" class="node"><title>Node2</title>
<a xlink:href="../../d9/d25/_u_b_color_picker_8h.html" target="_top" xlink:title="UBColorPicker.h">
<polygon fill="white" stroke="black" points="0,-58.5 0,-79.5 90,-79.5 90,-58.5 0,-58.5"/>
<text text-anchor="middle" x="45" y="-66.5" font-family="Helvetica,sans-Serif" font-size="10.00">UBColorPicker.h</text>
</a>
</g>
<!-- Node1&#45;&gt;Node2 -->
<g id="edge2" class="edge"><title>Node1&#45;&gt;Node2</title>
<path fill="none" stroke="midnightblue" d="M98.8201,-116.922C88.3173,-107.57 75.3238,-96.0007 64.7351,-86.5724"/>
<polygon fill="midnightblue" stroke="midnightblue" points="66.9837,-83.8881 57.1877,-79.8521 62.3287,-89.1161 66.9837,-83.8881"/>
</g>
<!-- Node3 -->
<g id="node5" class="node"><title>Node3</title>
<polygon fill="white" stroke="#bfbfbf" points="60,-0.5 60,-21.5 102,-21.5 102,-0.5 60,-0.5"/>
<text text-anchor="middle" x="81" y="-8.5" font-family="Helvetica,sans-Serif" font-size="10.00">QtGui</text>
</g>
<!-- Node1&#45;&gt;Node3 -->
<g id="edge6" class="edge"><title>Node1&#45;&gt;Node3</title>
<path fill="none" stroke="midnightblue" d="M114.354,-116.933C110.893,-101.421 105.297,-77.9759 99,-58 96.1925,-49.0936 92.592,-39.4321 89.3498,-31.1982"/>
<polygon fill="midnightblue" stroke="midnightblue" points="92.5051,-29.6639 85.5215,-21.6965 86.0123,-32.28 92.5051,-29.6639"/>
</g>
<!-- Node4 -->
<g id="node8" class="node"><title>Node4</title>
<a xlink:href="../../db/d80/memcheck_8h.html" target="_top" xlink:title="core/memcheck.h">
<polygon fill="white" stroke="black" points="145.5,-58.5 145.5,-79.5 240.5,-79.5 240.5,-58.5 145.5,-58.5"/>
<text text-anchor="middle" x="193" y="-66.5" font-family="Helvetica,sans-Serif" font-size="10.00">core/memcheck.h</text>
</a>
</g>
<!-- Node1&#45;&gt;Node4 -->
<g id="edge8" class="edge"><title>Node1&#45;&gt;Node4</title>
<path fill="none" stroke="midnightblue" d="M137.705,-116.922C148.496,-107.57 161.845,-96.0007 172.724,-86.5724"/>
<polygon fill="midnightblue" stroke="midnightblue" points="175.214,-89.0463 180.478,-79.8521 170.629,-83.7565 175.214,-89.0463"/>
</g>
<!-- Node2&#45;&gt;Node3 -->
<g id="edge4" class="edge"><title>Node2&#45;&gt;Node3</title>
<path fill="none" stroke="midnightblue" d="M51.603,-58.3619C56.4746,-50.5131 63.2384,-39.6159 69.05,-30.2527"/>
<polygon fill="midnightblue" stroke="midnightblue" points="72.139,-31.9129 74.4389,-21.5707 66.1915,-28.2213 72.139,-31.9129"/>
</g>
</g>
</svg>
