<?xml version="1.0" encoding="UTF-8" standalone="no"?>
<!DOCTYPE svg PUBLIC "-//W3C//DTD SVG 1.1//EN"
 "http://www.w3.org/Graphics/SVG/1.1/DTD/svg11.dtd">
<!-- Generated by graphviz version 2.26.3 (20100126.1600)
 -->
<!-- Title: UBVersion::isValid Pages: 1 -->
<svg width="438pt" height="334pt"
 viewBox="0.00 0.00 438.00 333.55" xmlns="http://www.w3.org/2000/svg" xmlns:xlink="http://www.w3.org/1999/xlink">
<g id="graph1" class="graph" transform="scale(1 1) rotate(0) translate(4 329.546)">
<title>UBVersion::isValid</title>
<polygon fill="white" stroke="white" points="-4,5 -4,-329.546 435,-329.546 435,5 -4,5"/>
<!-- Node1 -->
<g id="node1" class="node"><title>Node1</title>
<polygon fill="#bfbfbf" stroke="black" points="0.5,-146.046 0.5,-167.046 99.5,-167.046 99.5,-146.046 0.5,-146.046"/>
<text text-anchor="middle" x="50" y="-154.046" font-family="Helvetica,sans-Serif" font-size="10.00">UBVersion::isValid</text>
</g>
<!-- Node2 -->
<g id="node3" class="node"><title>Node2</title>
<a xlink:href="../../d2/da9/class_u_b_version.html#a7dc5d2b5857cb37713d04705a948e41c" target="_top" xlink:title="UBVersion::toString">
<polygon fill="white" stroke="black" points="154,-304.046 154,-325.046 258,-325.046 258,-304.046 154,-304.046"/>
<text text-anchor="middle" x="206" y="-312.046" font-family="Helvetica,sans-Serif" font-size="10.00">UBVersion::toString</text>
</a>
</g>
<!-- Node1&#45;&gt;Node2 -->
<g id="edge2" class="edge"><title>Node1&#45;&gt;Node2</title>
<path fill="none" stroke="midnightblue" d="M57.198,-176.925C68.9312,-207.173 95.0639,-263.69 136,-294.546 141.349,-298.578 147.484,-301.798 153.85,-304.369"/>
<polygon fill="midnightblue" stroke="midnightblue" points="60.4218,-175.552 53.6477,-167.406 53.8631,-177.999 60.4218,-175.552"/>
</g>
<!-- Node3 -->
<g id="node5" class="node"><title>Node3</title>
<a xlink:href="../../d2/da9/class_u_b_version.html#a9bd4c45d822805cdb385011efe919b6e" target="_top" xlink:title="UBVersion::setString">
<polygon fill="white" stroke="black" points="151.5,-264.046 151.5,-285.046 260.5,-285.046 260.5,-264.046 151.5,-264.046"/>
<text text-anchor="middle" x="206" y="-272.046" font-family="Helvetica,sans-Serif" font-size="10.00">UBVersion::setString</text>
</a>
</g>
<!-- Node1&#45;&gt;Node3 -->
<g id="edge4" class="edge"><title>Node1&#45;&gt;Node3</title>
<path fill="none" stroke="midnightblue" d="M63.2563,-175.672C78.5831,-196.491 105.63,-229.485 136,-249.546 145.045,-255.52 155.691,-260.266 165.913,-263.945"/>
<polygon fill="midnightblue" stroke="midnightblue" points="65.9264,-173.39 57.2492,-167.311 60.2415,-177.474 65.9264,-173.39"/>
</g>
<!-- Node5 -->
<g id="node9" class="node"><title>Node5</title>
<a xlink:href="../../d2/da9/class_u_b_version.html#a2b36e2c1e8e7d7d4f460d6fb4be583cf" target="_top" xlink:title="UBVersion::platformNumber">
<polygon fill="white" stroke="black" points="136,-68.0459 136,-89.0459 276,-89.0459 276,-68.0459 136,-68.0459"/>
<text text-anchor="middle" x="206" y="-76.0459" font-family="Helvetica,sans-Serif" font-size="10.00">UBVersion::platformNumber</text>
</a>
</g>
<!-- Node1&#45;&gt;Node5 -->
<g id="edge8" class="edge"><title>Node1&#45;&gt;Node5</title>
<path fill="none" stroke="midnightblue" d="M73.6203,-140.119C90.4847,-128.863 113.99,-114.115 136,-103.546 147.4,-98.0717 160.33,-93.1251 171.948,-89.1043"/>
<polygon fill="midnightblue" stroke="midnightblue" points="71.3047,-137.46 64.9861,-145.964 75.229,-143.257 71.3047,-137.46"/>
</g>
<!-- Node6 -->
<g id="node11" class="node"><title>Node6</title>
<a xlink:href="../../d2/da9/class_u_b_version.html#af3c0eea3ec18a269184cf7419bc7edaf" target="_top" xlink:title="UBVersion::operator\&lt;">
<polygon fill="white" stroke="black" points="315.5,-147.046 315.5,-168.046 426.5,-168.046 426.5,-147.046 315.5,-147.046"/>
<text text-anchor="middle" x="371" y="-155.046" font-family="Helvetica,sans-Serif" font-size="10.00">UBVersion::operator&lt;</text>
</a>
</g>
<!-- Node1&#45;&gt;Node6 -->
<g id="edge40" class="edge"><title>Node1&#45;&gt;Node6</title>
<path fill="none" stroke="midnightblue" d="M68.1133,-174.22C84.3739,-188.76 109.675,-208.27 136,-216.546 195.358,-235.206 216.165,-233.614 276,-216.546 309.046,-207.119 341.81,-182.523 358.884,-168.241"/>
<polygon fill="midnightblue" stroke="midnightblue" points="70.1941,-171.377 60.4766,-167.155 65.4407,-176.515 70.1941,-171.377"/>
</g>
<!-- Node7 -->
<g id="node13" class="node"><title>Node7</title>
<a xlink:href="../../d2/da9/class_u_b_version.html#afb567c978f399a89f875de8c193e99c6" target="_top" xlink:title="UBVersion::operator==">
<polygon fill="white" stroke="black" points="312.5,-107.046 312.5,-128.046 429.5,-128.046 429.5,-107.046 312.5,-107.046"/>
<text text-anchor="middle" x="371" y="-115.046" font-family="Helvetica,sans-Serif" font-size="10.00">UBVersion::operator==</text>
</a>
</g>
<!-- Node1&#45;&gt;Node7 -->
<g id="edge42" class="edge"><title>Node1&#45;&gt;Node7</title>
<path fill="none" stroke="midnightblue" d="M100.077,-143.587C111.799,-140.919 124.285,-138.371 136,-136.546 195.654,-127.25 264.58,-122.359 312.29,-119.882"/>
<polygon fill="midnightblue" stroke="midnightblue" points="98.9485,-140.256 90.0113,-145.946 100.546,-147.072 98.9485,-140.256"/>
</g>
<!-- Node8 -->
<g id="node15" class="node"><title>Node8</title>
<a xlink:href="../../d2/da9/class_u_b_version.html#a6bfa26312caaf38e4d6b24c566304f1a" target="_top" xlink:title="UBVersion::operator\&gt;">
<polygon fill="white" stroke="black" points="315.5,-67.0459 315.5,-88.0459 426.5,-88.0459 426.5,-67.0459 315.5,-67.0459"/>
<text text-anchor="middle" x="371" y="-75.0459" font-family="Helvetica,sans-Serif" font-size="10.00">UBVersion::operator&gt;</text>
</a>
</g>
<!-- Node1&#45;&gt;Node8 -->
<g id="edge44" class="edge"><title>Node1&#45;&gt;Node8</title>
<path fill="none" stroke="midnightblue" d="M55.759,-136.063C65.9534,-104.197 90.5175,-43.7933 136,-18.5459 190.403,11.6529 216.165,-1.47739 276,-18.5459 309.046,-27.9726 341.81,-52.5685 358.884,-66.851"/>
<polygon fill="midnightblue" stroke="midnightblue" points="52.2864,-135.454 52.7417,-146.039 58.9867,-137.481 52.2864,-135.454"/>
</g>
<!-- Node9 -->
<g id="node17" class="node"><title>Node9</title>
<a xlink:href="../../d2/da9/class_u_b_version.html#a8c40c9646522bc7823b1471dae667032" target="_top" xlink:title="UBVersion::majorNumber">
<polygon fill="white" stroke="black" points="142,-28.0459 142,-49.0459 270,-49.0459 270,-28.0459 142,-28.0459"/>
<text text-anchor="middle" x="206" y="-36.0459" font-family="Helvetica,sans-Serif" font-size="10.00">UBVersion::majorNumber</text>
</a>
</g>
<!-- Node1&#45;&gt;Node9 -->
<g id="edge16" class="edge"><title>Node1&#45;&gt;Node9</title>
<path fill="none" stroke="midnightblue" d="M61.8802,-137.325C76.5921,-115.11 103.702,-78.9941 136,-58.5459 141.98,-54.7598 148.694,-51.6731 155.533,-49.161"/>
<polygon fill="midnightblue" stroke="midnightblue" points="58.8248,-135.605 56.3552,-145.908 64.7108,-139.394 58.8248,-135.605"/>
</g>
<!-- Node10 -->
<g id="node22" class="node"><title>Node10</title>
<a xlink:href="../../d2/da9/class_u_b_version.html#a33dbf7bcbeac1846a362b511ffe0c2c3" target="_top" xlink:title="UBVersion::releaseStage">
<polygon fill="white" stroke="black" points="142.5,-186.046 142.5,-207.046 269.5,-207.046 269.5,-186.046 142.5,-186.046"/>
<text text-anchor="middle" x="206" y="-194.046" font-family="Helvetica,sans-Serif" font-size="10.00">UBVersion::releaseStage</text>
</a>
</g>
<!-- Node1&#45;&gt;Node10 -->
<g id="edge24" class="edge"><title>Node1&#45;&gt;Node10</title>
<path fill="none" stroke="midnightblue" d="M100.919,-169.602C121.691,-174.928 145.389,-181.005 165.016,-186.037"/>
<polygon fill="midnightblue" stroke="midnightblue" points="101.543,-166.149 90.9872,-167.055 99.8045,-172.93 101.543,-166.149"/>
</g>
<!-- Node11 -->
<g id="node27" class="node"><title>Node11</title>
<a xlink:href="../../d2/da9/class_u_b_version.html#a4cd2b7b3fc51f76729f511858be8986c" target="_top" xlink:title="UBVersion::minorNumber">
<polygon fill="white" stroke="black" points="142,-146.046 142,-167.046 270,-167.046 270,-146.046 142,-146.046"/>
<text text-anchor="middle" x="206" y="-154.046" font-family="Helvetica,sans-Serif" font-size="10.00">UBVersion::minorNumber</text>
</a>
</g>
<!-- Node1&#45;&gt;Node11 -->
<g id="edge32" class="edge"><title>Node1&#45;&gt;Node11</title>
<path fill="none" stroke="midnightblue" d="M110.03,-156.546C120.452,-156.546 131.327,-156.546 141.854,-156.546"/>
<polygon fill="midnightblue" stroke="midnightblue" points="109.788,-153.046 99.7883,-156.546 109.788,-160.046 109.788,-153.046"/>
</g>
<!-- Node4 -->
<g id="node7" class="node"><title>Node4</title>
<a xlink:href="../../d2/da9/class_u_b_version.html#a66e980a3042307690c36fe6722b3be65" target="_top" xlink:title="UBVersion::UBVersion">
<polygon fill="white" stroke="black" points="312.5,-264.046 312.5,-285.046 429.5,-285.046 429.5,-264.046 312.5,-264.046"/>
<text text-anchor="middle" x="371" y="-272.046" font-family="Helvetica,sans-Serif" font-size="10.00">UBVersion::UBVersion</text>
</a>
</g>
<!-- Node3&#45;&gt;Node4 -->
<g id="edge6" class="edge"><title>Node3&#45;&gt;Node4</title>
<path fill="none" stroke="midnightblue" d="M271.177,-274.546C284.761,-274.546 299.001,-274.546 312.334,-274.546"/>
<polygon fill="midnightblue" stroke="midnightblue" points="270.943,-271.046 260.943,-274.546 270.943,-278.046 270.943,-271.046"/>
</g>
<!-- Node5&#45;&gt;Node6 -->
<g id="edge10" class="edge"><title>Node5&#45;&gt;Node6</title>
<path fill="none" stroke="midnightblue" d="M231.428,-94.4196C252.493,-107.145 283.488,-124.903 312,-137.546 319.712,-140.966 328.202,-144.158 336.279,-146.944"/>
<polygon fill="midnightblue" stroke="midnightblue" points="233.128,-91.3567 222.769,-89.1338 229.481,-97.3315 233.128,-91.3567"/>
</g>
<!-- Node5&#45;&gt;Node7 -->
<g id="edge12" class="edge"><title>Node5&#45;&gt;Node7</title>
<path fill="none" stroke="midnightblue" d="M260.547,-91.4389C281.88,-96.4811 306.04,-102.192 326.313,-106.984"/>
<polygon fill="midnightblue" stroke="midnightblue" points="261.188,-87.9941 250.651,-89.0999 259.578,-94.8063 261.188,-87.9941"/>
</g>
<!-- Node5&#45;&gt;Node8 -->
<g id="edge14" class="edge"><title>Node5&#45;&gt;Node8</title>
<path fill="none" stroke="midnightblue" d="M286.607,-78.0574C296.384,-77.9981 306.197,-77.9387 315.495,-77.8823"/>
<polygon fill="midnightblue" stroke="midnightblue" points="286.432,-74.5583 276.453,-78.1189 286.475,-81.5582 286.432,-74.5583"/>
</g>
<!-- Node9&#45;&gt;Node6 -->
<g id="edge18" class="edge"><title>Node9&#45;&gt;Node6</title>
<path fill="none" stroke="midnightblue" d="M270.321,-54.2692C272.308,-55.5824 274.21,-57.005 276,-58.5459 305.242,-83.719 283.377,-111.671 312,-137.546 316.252,-141.39 321.273,-144.5 326.561,-147.014"/>
<polygon fill="midnightblue" stroke="midnightblue" points="271.581,-50.9661 261.137,-49.1835 268.189,-57.0899 271.581,-50.9661"/>
</g>
<!-- Node9&#45;&gt;Node7 -->
<g id="edge20" class="edge"><title>Node9&#45;&gt;Node7</title>
<path fill="none" stroke="midnightblue" d="M265.376,-52.9492C269.069,-54.6214 272.645,-56.4804 276,-58.5459 296.088,-70.9126 292.218,-84.6955 312,-97.5459 317.805,-101.317 324.395,-104.452 331.014,-107.034"/>
<polygon fill="midnightblue" stroke="midnightblue" points="266.596,-49.6674 256.013,-49.1662 263.974,-56.1576 266.596,-49.6674"/>
</g>
<!-- Node9&#45;&gt;Node8 -->
<g id="edge22" class="edge"><title>Node9&#45;&gt;Node8</title>
<path fill="none" stroke="midnightblue" d="M260.547,-51.4389C281.88,-56.4811 306.04,-62.1917 326.313,-66.9835"/>
<polygon fill="midnightblue" stroke="midnightblue" points="261.188,-47.9941 250.651,-49.0999 259.578,-54.8063 261.188,-47.9941"/>
</g>
<!-- Node10&#45;&gt;Node6 -->
<g id="edge26" class="edge"><title>Node10&#45;&gt;Node6</title>
<path fill="none" stroke="midnightblue" d="M260.547,-183.653C281.88,-178.611 306.04,-172.9 326.313,-168.108"/>
<polygon fill="midnightblue" stroke="midnightblue" points="259.578,-180.285 250.651,-185.992 261.188,-187.098 259.578,-180.285"/>
</g>
<!-- Node10&#45;&gt;Node7 -->
<g id="edge28" class="edge"><title>Node10&#45;&gt;Node7</title>
<path fill="none" stroke="midnightblue" d="M265.376,-182.143C269.069,-180.47 272.645,-178.611 276,-176.546 296.088,-164.179 292.218,-150.396 312,-137.546 317.805,-133.775 324.395,-130.64 331.014,-128.058"/>
<polygon fill="midnightblue" stroke="midnightblue" points="263.974,-178.934 256.013,-185.926 266.596,-185.424 263.974,-178.934"/>
</g>
<!-- Node10&#45;&gt;Node8 -->
<g id="edge30" class="edge"><title>Node10&#45;&gt;Node8</title>
<path fill="none" stroke="midnightblue" d="M270.321,-180.823C272.308,-179.509 274.21,-178.087 276,-176.546 305.242,-151.373 283.377,-123.421 312,-97.5459 316.252,-93.7018 321.273,-90.5922 326.561,-88.0777"/>
<polygon fill="midnightblue" stroke="midnightblue" points="268.189,-178.002 261.137,-185.908 271.581,-184.126 268.189,-178.002"/>
</g>
<!-- Node11&#45;&gt;Node6 -->
<g id="edge34" class="edge"><title>Node11&#45;&gt;Node6</title>
<path fill="none" stroke="midnightblue" d="M280.519,-156.998C292.277,-157.069 304.254,-157.141 315.482,-157.209"/>
<polygon fill="midnightblue" stroke="midnightblue" points="280.287,-153.496 270.266,-156.935 280.244,-160.496 280.287,-153.496"/>
</g>
<!-- Node11&#45;&gt;Node7 -->
<g id="edge36" class="edge"><title>Node11&#45;&gt;Node7</title>
<path fill="none" stroke="midnightblue" d="M260.547,-143.653C281.88,-138.611 306.04,-132.9 326.313,-128.108"/>
<polygon fill="midnightblue" stroke="midnightblue" points="259.578,-140.285 250.651,-145.992 261.188,-147.098 259.578,-140.285"/>
</g>
<!-- Node11&#45;&gt;Node8 -->
<g id="edge38" class="edge"><title>Node11&#45;&gt;Node8</title>
<path fill="none" stroke="midnightblue" d="M231.428,-140.672C252.493,-127.947 283.488,-110.188 312,-97.5459 319.712,-94.1263 328.202,-90.9338 336.279,-88.1475"/>
<polygon fill="midnightblue" stroke="midnightblue" points="229.481,-137.76 222.769,-145.958 233.128,-143.735 229.481,-137.76"/>
</g>
</g>
</svg>
