<?xml version="1.0" encoding="UTF-8" standalone="no"?>
<!DOCTYPE svg PUBLIC "-//W3C//DTD SVG 1.1//EN"
 "http://www.w3.org/Graphics/SVG/1.1/DTD/svg11.dtd">
<!-- Generated by graphviz version 2.26.3 (20100126.1600)
 -->
<!-- Title: UBVideoPlayer.cpp Pages: 1 -->
<!--zoomable 146 -->
<svg id="main" version="1.1" xmlns="http://www.w3.org/2000/svg" xmlns:xlink="http://www.w3.org/1999/xlink" xml:space="preserve" onload="init(evt)">
        <defs>
                <circle id="rim" cx="0" cy="0" r="7"/>
                <circle id="rim2" cx="0" cy="0" r="3.5"/>
                <g id="zoomPlus">
                        <use xlink:href="#rim" fill="#404040">
                                <set attributeName="fill" to="#808080" begin="zoomplus.mouseover" end="zoomplus.mouseout"/>
                        </use>
                        <path d="M-4,0h8M0,-4v8" fill="none" stroke="white" stroke-width="1.5" pointer-events="none"/>
                </g>
                <g id="zoomMin">
                        <use xlink:href="#rim" fill="#404040">
                                <set attributeName="fill" to="#808080" begin="zoomminus.mouseover" end="zoomminus.mouseout"/>
                        </use>
                        <path d="M-4,0h8" fill="none" stroke="white" stroke-width="1.5" pointer-events="none"/>
                </g>
                <g id="dirArrow">
                        <path fill="none" stroke="white" stroke-width="1.5" d="M0,-3.0v7 M-2.5,-0.5L0,-3.0L2.5,-0.5"/>
                </g>
               <g id="resetDef">
                       <use xlink:href="#rim2" fill="#404040">
                               <set attributeName="fill" to="#808080" begin="reset.mouseover" end="reset.mouseout"/>
                       </use>
               </g>
        </defs>

<script type="text/javascript">
var viewWidth = 627;
var viewHeight = 146;
var sectionId = 'dynsection-0';
</script>
<script xlink:href="../../svgpan.js"/>
<svg id="graph" class="graph">
<g id="viewport">
<title>UBVideoPlayer.cpp</title>
<polygon fill="white" stroke="white" points="-4,5 -4,-142 624,-142 624,5 -4,5"/>
<!-- Node1 -->
<g id="node1" class="node"><title>Node1</title>
<polygon fill="#bfbfbf" stroke="black" points="221,-116.5 221,-137.5 323,-137.5 323,-116.5 221,-116.5"/>
<text text-anchor="middle" x="272" y="-124.5" font-family="Helvetica,sans-Serif" font-size="10.00">UBVideoPlayer.cpp</text>
</g>
<!-- Node2 -->
<g id="node3" class="node"><title>Node2</title>
<a xlink:href="../../df/d40/_u_b_video_player_8h.html" target="_top" xlink:title="UBVideoPlayer.h">
<polygon fill="white" stroke="black" points="49,-58.5 49,-79.5 141,-79.5 141,-58.5 49,-58.5"/>
<text text-anchor="middle" x="95" y="-66.5" font-family="Helvetica,sans-Serif" font-size="10.00">UBVideoPlayer.h</text>
</a>
</g>
<!-- Node1&#45;&gt;Node2 -->
<g id="edge2" class="edge"><title>Node1&#45;&gt;Node2</title>
<path fill="none" stroke="midnightblue" d="M239.947,-116.497C211.091,-107.041 168.494,-93.0829 136.939,-82.7428"/>
<polygon fill="midnightblue" stroke="midnightblue" points="137.706,-79.3111 127.113,-79.5231 135.526,-85.963 137.706,-79.3111"/>
</g>
<!-- Node3 -->
<g id="node5" class="node"><title>Node3</title>
<polygon fill="white" stroke="#bfbfbf" points="0,-0.5 0,-21.5 42,-21.5 42,-0.5 0,-0.5"/>
<text text-anchor="middle" x="21" y="-8.5" font-family="Helvetica,sans-Serif" font-size="10.00">QtGui</text>
</g>
<!-- Node1&#45;&gt;Node3 -->
<g id="edge8" class="edge"><title>Node1&#45;&gt;Node3</title>
<path fill="none" stroke="midnightblue" d="M220.749,-122.826C160.571,-116.892 65.6857,-103.976 40,-80 26.844,-67.7196 22.4929,-47.247 21.1946,-31.7837"/>
<polygon fill="midnightblue" stroke="midnightblue" points="24.6813,-31.4191 20.7066,-21.598 17.6893,-31.7541 24.6813,-31.4191"/>
</g>
<!-- Node5 -->
<g id="node10" class="node"><title>Node5</title>
<polygon fill="white" stroke="#bfbfbf" points="159,-58.5 159,-79.5 265,-79.5 265,-58.5 159,-58.5"/>
<text text-anchor="middle" x="212" y="-66.5" font-family="Helvetica,sans-Serif" font-size="10.00">phonon/MediaObject</text>
</g>
<!-- Node1&#45;&gt;Node5 -->
<g id="edge10" class="edge"><title>Node1&#45;&gt;Node5</title>
<path fill="none" stroke="midnightblue" d="M260.995,-116.362C252.453,-108.104 240.42,-96.4725 230.417,-86.8029"/>
<polygon fill="midnightblue" stroke="midnightblue" points="232.558,-84.0044 222.935,-79.5707 227.692,-89.0374 232.558,-84.0044"/>
</g>
<!-- Node6 -->
<g id="node12" class="node"><title>Node6</title>
<polygon fill="white" stroke="#bfbfbf" points="283,-58.5 283,-79.5 381,-79.5 381,-58.5 283,-58.5"/>
<text text-anchor="middle" x="332" y="-66.5" font-family="Helvetica,sans-Serif" font-size="10.00">phonon/SeekSlider</text>
</g>
<!-- Node1&#45;&gt;Node6 -->
<g id="edge12" class="edge"><title>Node1&#45;&gt;Node6</title>
<path fill="none" stroke="midnightblue" d="M283.005,-116.362C291.547,-108.104 303.58,-96.4725 313.583,-86.8029"/>
<polygon fill="midnightblue" stroke="midnightblue" points="316.308,-89.0374 321.065,-79.5707 311.442,-84.0044 316.308,-89.0374"/>
</g>
<!-- Node7 -->
<g id="node14" class="node"><title>Node7</title>
<polygon fill="white" stroke="#bfbfbf" points="398.5,-58.5 398.5,-79.5 507.5,-79.5 507.5,-58.5 398.5,-58.5"/>
<text text-anchor="middle" x="453" y="-66.5" font-family="Helvetica,sans-Serif" font-size="10.00">phonon/VolumeSlider</text>
</g>
<!-- Node1&#45;&gt;Node7 -->
<g id="edge14" class="edge"><title>Node1&#45;&gt;Node7</title>
<path fill="none" stroke="midnightblue" d="M304.778,-116.497C334.413,-107 378.222,-92.9619 410.531,-82.6087"/>
<polygon fill="midnightblue" stroke="midnightblue" points="411.706,-85.9078 420.161,-79.5231 409.57,-79.2416 411.706,-85.9078"/>
</g>
<!-- Node8 -->
<g id="node16" class="node"><title>Node8</title>
<a xlink:href="../../db/d80/memcheck_8h.html" target="_top" xlink:title="core/memcheck.h">
<polygon fill="white" stroke="black" points="524.5,-58.5 524.5,-79.5 619.5,-79.5 619.5,-58.5 524.5,-58.5"/>
<text text-anchor="middle" x="572" y="-66.5" font-family="Helvetica,sans-Serif" font-size="10.00">core/memcheck.h</text>
</a>
</g>
<!-- Node1&#45;&gt;Node8 -->
<g id="edge16" class="edge"><title>Node1&#45;&gt;Node8</title>
<path fill="none" stroke="midnightblue" d="M323.42,-117.152C370.589,-108.105 442.68,-94.247 514.251,-80.3362"/>
<polygon fill="midnightblue" stroke="midnightblue" points="515.195,-83.7181 524.343,-78.3734 513.859,-76.8468 515.195,-83.7181"/>
</g>
<!-- Node2&#45;&gt;Node3 -->
<g id="edge4" class="edge"><title>Node2&#45;&gt;Node3</title>
<path fill="none" stroke="midnightblue" d="M81.4273,-58.3619C70.5788,-49.859 55.1657,-37.7785 42.6215,-27.9466"/>
<polygon fill="midnightblue" stroke="midnightblue" points="44.5164,-24.9848 34.4867,-21.5707 40.1982,-30.4942 44.5164,-24.9848"/>
</g>
<!-- Node4 -->
<g id="node7" class="node"><title>Node4</title>
<polygon fill="white" stroke="#bfbfbf" points="60,-0.5 60,-21.5 164,-21.5 164,-0.5 60,-0.5"/>
<text text-anchor="middle" x="112" y="-8.5" font-family="Helvetica,sans-Serif" font-size="10.00">phonon/VideoPlayer</text>
</g>
<!-- Node2&#45;&gt;Node4 -->
<g id="edge6" class="edge"><title>Node2&#45;&gt;Node4</title>
<path fill="none" stroke="midnightblue" d="M98.1181,-58.3619C100.323,-50.8401 103.348,-40.5187 106.012,-31.4308"/>
<polygon fill="midnightblue" stroke="midnightblue" points="109.448,-32.1514 108.902,-21.5707 102.73,-30.1825 109.448,-32.1514"/>
</g>
</g>
</svg>
        <g id="navigator" transform="translate(0 0)" fill="#404254">
                <rect fill="#f2f5e9" fill-opacity="0.5" stroke="#606060" stroke-width=".5" x="0" y="0" width="60" height="60"/>
                <use id="zoomplus" xlink:href="#zoomPlus" x="17" y="9" onmousedown="handleZoom(evt,'in')"/>
                <use id="zoomminus" xlink:href="#zoomMin" x="42" y="9" onmousedown="handleZoom(evt,'out')"/>
                <use id="reset" xlink:href="#resetDef" x="30" y="36" onmousedown="handleReset()"/>
                <g id="arrowUp" xlink:href="#dirArrow" transform="translate(30 24)" onmousedown="handlePan(0,-1)">
                  <use xlink:href="#rim" fill="#404040">
                        <set attributeName="fill" to="#808080" begin="arrowUp.mouseover" end="arrowUp.mouseout"/>
                  </use>
                  <path fill="none" stroke="white" stroke-width="1.5" d="M0,-3.0v7 M-2.5,-0.5L0,-3.0L2.5,-0.5"/>
                </g>
                <g id="arrowRight" xlink:href="#dirArrow" transform="rotate(90) translate(36 -43)" onmousedown="handlePan(1,0)">
                  <use xlink:href="#rim" fill="#404040">
                        <set attributeName="fill" to="#808080" begin="arrowRight.mouseover" end="arrowRight.mouseout"/>
                  </use>
                  <path fill="none" stroke="white" stroke-width="1.5" d="M0,-3.0v7 M-2.5,-0.5L0,-3.0L2.5,-0.5"/>
                </g>
                <g id="arrowDown" xlink:href="#dirArrow" transform="rotate(180) translate(-30 -48)" onmousedown="handlePan(0,1)">
                  <use xlink:href="#rim" fill="#404040">
                        <set attributeName="fill" to="#808080" begin="arrowDown.mouseover" end="arrowDown.mouseout"/>
                  </use>
                  <path fill="none" stroke="white" stroke-width="1.5" d="M0,-3.0v7 M-2.5,-0.5L0,-3.0L2.5,-0.5"/>
                </g>
                <g id="arrowLeft" xlink:href="#dirArrow" transform="rotate(270) translate(-36 17)" onmousedown="handlePan(-1,0)">
                  <use xlink:href="#rim" fill="#404040">
                        <set attributeName="fill" to="#808080" begin="arrowLeft.mouseover" end="arrowLeft.mouseout"/>
                  </use>
                  <path fill="none" stroke="white" stroke-width="1.5" d="M0,-3.0v7 M-2.5,-0.5L0,-3.0L2.5,-0.5"/>
                </g>
        </g>
        <svg viewBox="0 0 15 15" width="100%" height="30px" preserveAspectRatio="xMaxYMin meet">
         <g id="arrow_out" transform="scale(0.3 0.3)">
          <a xlink:href="_u_b_video_player_8cpp__incl_org.svg" target="_base">
           <rect id="button" ry="5" rx="5" y="6" x="6" height="38" width="38"
                fill="#f2f5e9" fill-opacity="0.5" stroke="#606060" stroke-width="1.0"/>
           <path id="arrow"
             d="M 11.500037,31.436501 C 11.940474,20.09759 22.043105,11.32322 32.158766,21.979434 L 37.068811,17.246167 C 37.068811,17.246167 37.088388,32 37.088388,32 L 22.160133,31.978069 C 22.160133,31.978069 26.997745,27.140456 26.997745,27.140456 C 18.528582,18.264221 13.291696,25.230495 11.500037,31.436501 z"
             style="fill:#404040;"/>
          </a>
         </g>
        </svg>
</svg>
