<?xml version="1.0" encoding="UTF-8" standalone="no"?>
<!DOCTYPE svg PUBLIC "-//W3C//DTD SVG 1.1//EN"
 "http://www.w3.org/Graphics/SVG/1.1/DTD/svg11.dtd">
<!-- Generated by graphviz version 2.26.3 (20100126.1600)
 -->
<!-- Title: UBCryptoUtils::UBCryptoUtils Pages: 1 -->
<svg width="3112pt" height="784pt"
 viewBox="0.00 0.00 3112.00 784.00" xmlns="http://www.w3.org/2000/svg" xmlns:xlink="http://www.w3.org/1999/xlink">
<g id="graph1" class="graph" transform="scale(1 1) rotate(0) translate(4 780)">
<title>UBCryptoUtils::UBCryptoUtils</title>
<polygon fill="white" stroke="white" points="-4,5 -4,-780 3109,-780 3109,5 -4,5"/>
<!-- Node1 -->
<g id="node1" class="node"><title>Node1</title>
<polygon fill="#bfbfbf" stroke="black" points="0,-643.5 0,-664.5 150,-664.5 150,-643.5 0,-643.5"/>
<text text-anchor="middle" x="75" y="-651.5" font-family="Helvetica,sans-Serif" font-size="10.00">UBCryptoUtils::UBCryptoUtils</text>
</g>
<!-- Node2 -->
<g id="node3" class="node"><title>Node2</title>
<a xlink:href="../../dc/d5a/class_u_b_crypto_utils.html#a4c45d0ac631978066fc4df0b6c0f982a" target="_top" xlink:title="UBCryptoUtils::instance">
<polygon fill="white" stroke="black" points="186.5,-643.5 186.5,-664.5 309.5,-664.5 309.5,-643.5 186.5,-643.5"/>
<text text-anchor="middle" x="248" y="-651.5" font-family="Helvetica,sans-Serif" font-size="10.00">UBCryptoUtils::instance</text>
</a>
</g>
<!-- Node1&#45;&gt;Node2 -->
<g id="edge2" class="edge"><title>Node1&#45;&gt;Node2</title>
<path fill="none" stroke="midnightblue" d="M160.409,-654C169.193,-654 177.992,-654 186.444,-654"/>
<polygon fill="midnightblue" stroke="midnightblue" points="160.126,-650.5 150.126,-654 160.126,-657.5 160.126,-650.5"/>
</g>
<!-- Node3 -->
<g id="node5" class="node"><title>Node3</title>
<a xlink:href="../../db/d66/class_u_b_settings.html#a20c9289b181a34a32128f0a463ace726" target="_top" xlink:title="UBSettings::setPassword">
<polygon fill="white" stroke="black" points="346,-694.5 346,-715.5 476,-715.5 476,-694.5 346,-694.5"/>
<text text-anchor="middle" x="411" y="-702.5" font-family="Helvetica,sans-Serif" font-size="10.00">UBSettings::setPassword</text>
</a>
</g>
<!-- Node2&#45;&gt;Node3 -->
<g id="edge4" class="edge"><title>Node2&#45;&gt;Node3</title>
<path fill="none" stroke="midnightblue" d="M291.338,-667.56C318.263,-675.984 352.365,-686.654 377.27,-694.446"/>
<polygon fill="midnightblue" stroke="midnightblue" points="292.363,-664.213 281.774,-664.567 290.272,-670.894 292.363,-664.213"/>
</g>
<!-- Node18 -->
<g id="node36" class="node"><title>Node18</title>
<a xlink:href="../../db/d66/class_u_b_settings.html#a777d499c976f274487411b565b278e16" target="_top" xlink:title="UBSettings::password">
<polygon fill="white" stroke="black" points="353.5,-592.5 353.5,-613.5 468.5,-613.5 468.5,-592.5 353.5,-592.5"/>
<text text-anchor="middle" x="411" y="-600.5" font-family="Helvetica,sans-Serif" font-size="10.00">UBSettings::password</text>
</a>
</g>
<!-- Node2&#45;&gt;Node18 -->
<g id="edge36" class="edge"><title>Node2&#45;&gt;Node18</title>
<path fill="none" stroke="midnightblue" d="M291.338,-640.44C318.263,-632.016 352.365,-621.346 377.27,-613.554"/>
<polygon fill="midnightblue" stroke="midnightblue" points="290.272,-637.106 281.774,-643.433 292.363,-643.787 290.272,-637.106"/>
</g>
<!-- Node4 -->
<g id="node7" class="node"><title>Node4</title>
<a xlink:href="../../db/d66/class_u_b_settings.html#a56a27de17cafca29a33595a8cc29fdf3" target="_top" xlink:title="UBSettings::setProxyUsername">
<polygon fill="white" stroke="black" points="512.5,-714.5 512.5,-735.5 669.5,-735.5 669.5,-714.5 512.5,-714.5"/>
<text text-anchor="middle" x="591" y="-722.5" font-family="Helvetica,sans-Serif" font-size="10.00">UBSettings::setProxyUsername</text>
</a>
</g>
<!-- Node3&#45;&gt;Node4 -->
<g id="edge6" class="edge"><title>Node3&#45;&gt;Node4</title>
<path fill="none" stroke="midnightblue" d="M486.296,-713.366C494.954,-714.328 503.798,-715.311 512.497,-716.277"/>
<polygon fill="midnightblue" stroke="midnightblue" points="486.564,-709.875 476.239,-712.249 485.791,-716.832 486.564,-709.875"/>
</g>
<!-- Node8 -->
<g id="node15" class="node"><title>Node8</title>
<a xlink:href="../../db/d66/class_u_b_settings.html#a369d50aa4d29b24354abc3f83df3f038" target="_top" xlink:title="UBSettings::setProxyPassword">
<polygon fill="white" stroke="black" points="513.5,-754.5 513.5,-775.5 668.5,-775.5 668.5,-754.5 513.5,-754.5"/>
<text text-anchor="middle" x="591" y="-762.5" font-family="Helvetica,sans-Serif" font-size="10.00">UBSettings::setProxyPassword</text>
</a>
</g>
<!-- Node3&#45;&gt;Node8 -->
<g id="edge14" class="edge"><title>Node3&#45;&gt;Node8</title>
<path fill="none" stroke="midnightblue" d="M444.517,-719.536C463.99,-727.661 489.125,-737.609 512,-745 522.636,-748.436 534.23,-751.657 545.179,-754.467"/>
<polygon fill="midnightblue" stroke="midnightblue" points="445.744,-716.255 435.17,-715.594 443.024,-722.705 445.744,-716.255"/>
</g>
<!-- Node9 -->
<g id="node18" class="node"><title>Node9</title>
<a xlink:href="../../df/d84/class_u_b_you_tube_publisher.html#a56dcb4025c544233b4674c2db85da252" target="_top" xlink:title="UBYouTubePublisher\l::uploadVideo">
<polygon fill="white" stroke="black" points="1889,-608 1889,-642 1999,-642 1999,-608 1889,-608"/>
<text text-anchor="start" x="1897" y="-629" font-family="Helvetica,sans-Serif" font-size="10.00">UBYouTubePublisher</text>
<text text-anchor="middle" x="1944" y="-616" font-family="Helvetica,sans-Serif" font-size="10.00">::uploadVideo</text>
</a>
</g>
<!-- Node3&#45;&gt;Node9 -->
<g id="edge18" class="edge"><title>Node3&#45;&gt;Node9</title>
<path fill="none" stroke="midnightblue" d="M486.499,-698.836C561.039,-693.287 678.299,-686 780,-686 780,-686 780,-686 1541,-686 1673.81,-686 1707.44,-677.359 1838,-653 1854.65,-649.893 1872.54,-645.562 1888.79,-641.234"/>
<polygon fill="midnightblue" stroke="midnightblue" points="485.979,-695.365 476.27,-699.606 486.505,-702.345 485.979,-695.365"/>
</g>
<!-- Node5 -->
<g id="node9" class="node"><title>Node5</title>
<a xlink:href="../../d3/d33/class_u_b_preferences_controller.html#aa81082fb9dc4ab75317798458d5649fe" target="_top" xlink:title="UBPreferencesController\l::close">
<polygon fill="white" stroke="black" points="717.5,-731 717.5,-765 842.5,-765 842.5,-731 717.5,-731"/>
<text text-anchor="start" x="725.5" y="-752" font-family="Helvetica,sans-Serif" font-size="10.00">UBPreferencesController</text>
<text text-anchor="middle" x="780" y="-739" font-family="Helvetica,sans-Serif" font-size="10.00">::close</text>
</a>
</g>
<!-- Node4&#45;&gt;Node5 -->
<g id="edge8" class="edge"><title>Node4&#45;&gt;Node5</title>
<path fill="none" stroke="midnightblue" d="M679.653,-735.788C692.359,-737.335 705.206,-738.898 717.272,-740.366"/>
<polygon fill="midnightblue" stroke="midnightblue" points="679.861,-732.288 669.511,-734.554 679.015,-739.237 679.861,-732.288"/>
</g>
<!-- Node6 -->
<g id="node11" class="node"><title>Node6</title>
<a xlink:href="../../d3/d33/class_u_b_preferences_controller.html#ad58e84c5ae34f18622453060ac927ac1" target="_top" xlink:title="UBPreferencesController\l::wire">
<polygon fill="white" stroke="black" points="899.5,-731 899.5,-765 1024.5,-765 1024.5,-731 899.5,-731"/>
<text text-anchor="start" x="907.5" y="-752" font-family="Helvetica,sans-Serif" font-size="10.00">UBPreferencesController</text>
<text text-anchor="middle" x="962" y="-739" font-family="Helvetica,sans-Serif" font-size="10.00">::wire</text>
</a>
</g>
<!-- Node5&#45;&gt;Node6 -->
<g id="edge10" class="edge"><title>Node5&#45;&gt;Node6</title>
<path fill="none" stroke="midnightblue" d="M852.645,-748C868.071,-748 884.231,-748 899.25,-748"/>
<polygon fill="midnightblue" stroke="midnightblue" points="852.634,-744.5 842.634,-748 852.634,-751.5 852.634,-744.5"/>
</g>
<!-- Node7 -->
<g id="node13" class="node"><title>Node7</title>
<a xlink:href="../../d3/d33/class_u_b_preferences_controller.html#a515f90bc539e0c9410c8b2b538b17017" target="_top" xlink:title="UBPreferencesController\l::UBPreferencesController">
<polygon fill="white" stroke="black" points="1073.5,-731 1073.5,-765 1204.5,-765 1204.5,-731 1073.5,-731"/>
<text text-anchor="start" x="1081.5" y="-752" font-family="Helvetica,sans-Serif" font-size="10.00">UBPreferencesController</text>
<text text-anchor="middle" x="1139" y="-739" font-family="Helvetica,sans-Serif" font-size="10.00">::UBPreferencesController</text>
</a>
</g>
<!-- Node6&#45;&gt;Node7 -->
<g id="edge12" class="edge"><title>Node6&#45;&gt;Node7</title>
<path fill="none" stroke="midnightblue" d="M1034.97,-748C1047.67,-748 1060.82,-748 1073.31,-748"/>
<polygon fill="midnightblue" stroke="midnightblue" points="1034.9,-744.5 1024.9,-748 1034.9,-751.5 1034.9,-744.5"/>
</g>
<!-- Node8&#45;&gt;Node5 -->
<g id="edge16" class="edge"><title>Node8&#45;&gt;Node5</title>
<path fill="none" stroke="midnightblue" d="M679.008,-757.084C691.939,-755.921 705.032,-754.743 717.313,-753.638"/>
<polygon fill="midnightblue" stroke="midnightblue" points="678.338,-753.63 668.692,-758.012 678.965,-760.602 678.338,-753.63"/>
</g>
<!-- Node10 -->
<g id="node20" class="node"><title>Node10</title>
<a xlink:href="../../d9/def/class_u_b_podcast_controller.html#a427957105a35f02fb9c8b64841e6180c" target="_top" xlink:title="UBPodcastController\l::encodingFinished">
<polygon fill="white" stroke="black" points="2050.5,-576 2050.5,-610 2159.5,-610 2159.5,-576 2050.5,-576"/>
<text text-anchor="start" x="2058.5" y="-597" font-family="Helvetica,sans-Serif" font-size="10.00">UBPodcastController</text>
<text text-anchor="middle" x="2105" y="-584" font-family="Helvetica,sans-Serif" font-size="10.00">::encodingFinished</text>
</a>
</g>
<!-- Node9&#45;&gt;Node10 -->
<g id="edge20" class="edge"><title>Node9&#45;&gt;Node10</title>
<path fill="none" stroke="midnightblue" d="M2009.61,-611.96C2023.13,-609.273 2037.23,-606.471 2050.31,-603.87"/>
<polygon fill="midnightblue" stroke="midnightblue" points="2008.53,-608.605 1999.41,-613.987 2009.9,-615.471 2008.53,-608.605"/>
</g>
<!-- Node11 -->
<g id="node22" class="node"><title>Node11</title>
<a xlink:href="../../d9/def/class_u_b_podcast_controller.html#a5a64c306dc45b1279641b03b202ed501" target="_top" xlink:title="UBPodcastController\l::start">
<polygon fill="white" stroke="black" points="2196.5,-576 2196.5,-610 2305.5,-610 2305.5,-576 2196.5,-576"/>
<text text-anchor="start" x="2204.5" y="-597" font-family="Helvetica,sans-Serif" font-size="10.00">UBPodcastController</text>
<text text-anchor="middle" x="2251" y="-584" font-family="Helvetica,sans-Serif" font-size="10.00">::start</text>
</a>
</g>
<!-- Node10&#45;&gt;Node11 -->
<g id="edge22" class="edge"><title>Node10&#45;&gt;Node11</title>
<path fill="none" stroke="midnightblue" d="M2170.02,-593C2178.83,-593 2187.8,-593 2196.4,-593"/>
<polygon fill="midnightblue" stroke="midnightblue" points="2169.78,-589.5 2159.78,-593 2169.78,-596.5 2169.78,-589.5"/>
</g>
<!-- Node12 -->
<g id="node24" class="node"><title>Node12</title>
<a xlink:href="../../d9/def/class_u_b_podcast_controller.html#a794bf5bf9a47e285475d96d8afa215e4" target="_top" xlink:title="UBPodcastController\l::recordToggled">
<polygon fill="white" stroke="black" points="2342.5,-576 2342.5,-610 2451.5,-610 2451.5,-576 2342.5,-576"/>
<text text-anchor="start" x="2350.5" y="-597" font-family="Helvetica,sans-Serif" font-size="10.00">UBPodcastController</text>
<text text-anchor="middle" x="2397" y="-584" font-family="Helvetica,sans-Serif" font-size="10.00">::recordToggled</text>
</a>
</g>
<!-- Node11&#45;&gt;Node12 -->
<g id="edge24" class="edge"><title>Node11&#45;&gt;Node12</title>
<path fill="none" stroke="midnightblue" d="M2316.02,-593C2324.83,-593 2333.8,-593 2342.4,-593"/>
<polygon fill="midnightblue" stroke="midnightblue" points="2315.78,-589.5 2305.78,-593 2315.78,-596.5 2315.78,-589.5"/>
</g>
<!-- Node13 -->
<g id="node26" class="node"><title>Node13</title>
<a xlink:href="../../d9/def/class_u_b_podcast_controller.html#ab9f47a41e489b242fed9396277dfc5af" target="_top" xlink:title="UBPodcastController\l::toggleRecordingPalette">
<polygon fill="white" stroke="black" points="2488,-576 2488,-610 2612,-610 2612,-576 2488,-576"/>
<text text-anchor="start" x="2496" y="-597" font-family="Helvetica,sans-Serif" font-size="10.00">UBPodcastController</text>
<text text-anchor="middle" x="2550" y="-584" font-family="Helvetica,sans-Serif" font-size="10.00">::toggleRecordingPalette</text>
</a>
</g>
<!-- Node12&#45;&gt;Node13 -->
<g id="edge26" class="edge"><title>Node12&#45;&gt;Node13</title>
<path fill="none" stroke="midnightblue" d="M2462.07,-593C2470.59,-593 2479.3,-593 2487.78,-593"/>
<polygon fill="midnightblue" stroke="midnightblue" points="2461.8,-589.5 2451.8,-593 2461.8,-596.5 2461.8,-589.5"/>
</g>
<!-- Node14 -->
<g id="node28" class="node"><title>Node14</title>
<a xlink:href="../../d7/d62/class_u_b_board_controller.html#a6171228fc58d8afaff61bd3ba06103ca" target="_top" xlink:title="UBBoardController:\l:togglePodcast">
<polygon fill="white" stroke="black" points="2660.5,-602 2660.5,-636 2761.5,-636 2761.5,-602 2660.5,-602"/>
<text text-anchor="start" x="2668.5" y="-623" font-family="Helvetica,sans-Serif" font-size="10.00">UBBoardController:</text>
<text text-anchor="middle" x="2711" y="-610" font-family="Helvetica,sans-Serif" font-size="10.00">:togglePodcast</text>
</a>
</g>
<!-- Node13&#45;&gt;Node14 -->
<g id="edge28" class="edge"><title>Node13&#45;&gt;Node14</title>
<path fill="none" stroke="midnightblue" d="M2622.44,-604.698C2635.24,-606.766 2648.33,-608.879 2660.37,-610.824"/>
<polygon fill="midnightblue" stroke="midnightblue" points="2622.68,-601.191 2612.25,-603.052 2621.56,-608.102 2622.68,-601.191"/>
</g>
<!-- Node15 -->
<g id="node30" class="node"><title>Node15</title>
<a xlink:href="../../dc/d38/class_u_b_board_palette_manager.html#aed2f4fb5fe51ac6c2b7464b77ea21db6" target="_top" xlink:title="UBBoardPaletteManager\l::tooglePodcastPalette">
<polygon fill="white" stroke="black" points="2648.5,-550 2648.5,-584 2773.5,-584 2773.5,-550 2648.5,-550"/>
<text text-anchor="start" x="2656.5" y="-571" font-family="Helvetica,sans-Serif" font-size="10.00">UBBoardPaletteManager</text>
<text text-anchor="middle" x="2711" y="-558" font-family="Helvetica,sans-Serif" font-size="10.00">::tooglePodcastPalette</text>
</a>
</g>
<!-- Node13&#45;&gt;Node15 -->
<g id="edge30" class="edge"><title>Node13&#45;&gt;Node15</title>
<path fill="none" stroke="midnightblue" d="M2622.36,-581.315C2631.04,-579.912 2639.86,-578.489 2648.39,-577.111"/>
<polygon fill="midnightblue" stroke="midnightblue" points="2621.56,-577.898 2612.25,-582.948 2622.68,-584.809 2621.56,-577.898"/>
</g>
<!-- Node16 -->
<g id="node32" class="node"><title>Node16</title>
<a xlink:href="../../dc/d38/class_u_b_board_palette_manager.html#a10b4f132aa36e4f99495aa9442fbac23" target="_top" xlink:title="UBBoardPaletteManager\l::connectPalettes">
<polygon fill="white" stroke="black" points="2810.5,-550 2810.5,-584 2935.5,-584 2935.5,-550 2810.5,-550"/>
<text text-anchor="start" x="2818.5" y="-571" font-family="Helvetica,sans-Serif" font-size="10.00">UBBoardPaletteManager</text>
<text text-anchor="middle" x="2873" y="-558" font-family="Helvetica,sans-Serif" font-size="10.00">::connectPalettes</text>
</a>
</g>
<!-- Node15&#45;&gt;Node16 -->
<g id="edge32" class="edge"><title>Node15&#45;&gt;Node16</title>
<path fill="none" stroke="midnightblue" d="M2783.89,-567C2792.69,-567 2801.62,-567 2810.27,-567"/>
<polygon fill="midnightblue" stroke="midnightblue" points="2783.63,-563.5 2773.63,-567 2783.63,-570.5 2783.63,-563.5"/>
</g>
<!-- Node17 -->
<g id="node34" class="node"><title>Node17</title>
<a xlink:href="../../dc/d38/class_u_b_board_palette_manager.html#ab2ca22bf5af16f59e273a72731a138ae" target="_top" xlink:title="UBBoardPaletteManager\l::UBBoardPaletteManager">
<polygon fill="white" stroke="black" points="2972.5,-550 2972.5,-584 3103.5,-584 3103.5,-550 2972.5,-550"/>
<text text-anchor="start" x="2980.5" y="-571" font-family="Helvetica,sans-Serif" font-size="10.00">UBBoardPaletteManager</text>
<text text-anchor="middle" x="3038" y="-558" font-family="Helvetica,sans-Serif" font-size="10.00">::UBBoardPaletteManager</text>
</a>
</g>
<!-- Node16&#45;&gt;Node17 -->
<g id="edge34" class="edge"><title>Node16&#45;&gt;Node17</title>
<path fill="none" stroke="midnightblue" d="M2946.03,-567C2954.78,-567 2963.67,-567 2972.31,-567"/>
<polygon fill="midnightblue" stroke="midnightblue" points="2945.85,-563.5 2935.85,-567 2945.85,-570.5 2945.85,-563.5"/>
</g>
<!-- Node18&#45;&gt;Node9 -->
<g id="edge112" class="edge"><title>Node18&#45;&gt;Node9</title>
<path fill="none" stroke="midnightblue" d="M455.633,-616.347C473.069,-621.07 493.326,-625.96 512,-629 629.859,-648.185 660.59,-648 780,-648 780,-648 780,-648 1541,-648 1665.57,-648 1811.44,-636.912 1888.98,-630.133"/>
<polygon fill="midnightblue" stroke="midnightblue" points="456.298,-612.899 445.726,-613.6 454.428,-619.645 456.298,-612.899"/>
</g>
<!-- Node19 -->
<g id="node38" class="node"><title>Node19</title>
<a xlink:href="../../db/d66/class_u_b_settings.html#a928571040329d1026cda18993e844fc7" target="_top" xlink:title="UBSettings::proxyUsername">
<polygon fill="white" stroke="black" points="520,-506.5 520,-527.5 662,-527.5 662,-506.5 520,-506.5"/>
<text text-anchor="middle" x="591" y="-514.5" font-family="Helvetica,sans-Serif" font-size="10.00">UBSettings::proxyUsername</text>
</a>
</g>
<!-- Node18&#45;&gt;Node19 -->
<g id="edge38" class="edge"><title>Node18&#45;&gt;Node19</title>
<path fill="none" stroke="midnightblue" d="M432.186,-586.141C451.837,-571.261 482.424,-549.974 512,-537 520.422,-533.306 529.66,-530.198 538.756,-527.617"/>
<polygon fill="midnightblue" stroke="midnightblue" points="430.005,-583.403 424.219,-592.279 434.276,-588.948 430.005,-583.403"/>
</g>
<!-- Node49 -->
<g id="node102" class="node"><title>Node49</title>
<a xlink:href="../../db/d66/class_u_b_settings.html#a0e0a770e7d0532ba0f9ae57a49fb63bf" target="_top" xlink:title="UBSettings::proxyPassword">
<polygon fill="white" stroke="black" points="521,-546.5 521,-567.5 661,-567.5 661,-546.5 521,-546.5"/>
<text text-anchor="middle" x="591" y="-554.5" font-family="Helvetica,sans-Serif" font-size="10.00">UBSettings::proxyPassword</text>
</a>
</g>
<!-- Node18&#45;&gt;Node49 -->
<g id="edge106" class="edge"><title>Node18&#45;&gt;Node49</title>
<path fill="none" stroke="midnightblue" d="M461.554,-589.944C477.672,-585.792 495.583,-581.191 512,-577 524.063,-573.92 537.168,-570.595 549.173,-567.556"/>
<polygon fill="midnightblue" stroke="midnightblue" points="460.589,-586.578 451.779,-592.463 462.336,-593.357 460.589,-586.578"/>
</g>
<!-- Node50 -->
<g id="node107" class="node"><title>Node50</title>
<a xlink:href="../../db/d0d/class_u_b_you_tube_publishing_dialog.html#a4c5dfc8806dec0c8dc305b66016d4607" target="_top" xlink:title="UBYouTubePublishingDialog\l::UBYouTubePublishingDialog">
<polygon fill="white" stroke="black" points="516.5,-586 516.5,-620 665.5,-620 665.5,-586 516.5,-586"/>
<text text-anchor="start" x="524.5" y="-607" font-family="Helvetica,sans-Serif" font-size="10.00">UBYouTubePublishingDialog</text>
<text text-anchor="middle" x="591" y="-594" font-family="Helvetica,sans-Serif" font-size="10.00">::UBYouTubePublishingDialog</text>
</a>
</g>
<!-- Node18&#45;&gt;Node50 -->
<g id="edge114" class="edge"><title>Node18&#45;&gt;Node50</title>
<path fill="none" stroke="midnightblue" d="M479.036,-603C491.236,-603 504.01,-603 516.384,-603"/>
<polygon fill="midnightblue" stroke="midnightblue" points="478.944,-599.5 468.944,-603 478.944,-606.5 478.944,-599.5"/>
</g>
<!-- Node20 -->
<g id="node40" class="node"><title>Node20</title>
<a xlink:href="../../d3/d33/class_u_b_preferences_controller.html#a07058e851a855d28494161ffb278d48e" target="_top" xlink:title="UBPreferencesController\l::init">
<polygon fill="white" stroke="black" points="717.5,-540 717.5,-574 842.5,-574 842.5,-540 717.5,-540"/>
<text text-anchor="start" x="725.5" y="-561" font-family="Helvetica,sans-Serif" font-size="10.00">UBPreferencesController</text>
<text text-anchor="middle" x="780" y="-548" font-family="Helvetica,sans-Serif" font-size="10.00">::init</text>
</a>
</g>
<!-- Node19&#45;&gt;Node20 -->
<g id="edge40" class="edge"><title>Node19&#45;&gt;Node20</title>
<path fill="none" stroke="midnightblue" d="M650.552,-529.604C671.857,-534.113 695.922,-539.206 717.472,-543.767"/>
<polygon fill="midnightblue" stroke="midnightblue" points="651.166,-526.156 640.658,-527.51 649.716,-533.004 651.166,-526.156"/>
</g>
<!-- Node22 -->
<g id="node44" class="node"><title>Node22</title>
<a xlink:href="../../db/dad/class_u_b_network_access_manager.html#a8dbaad5e6494da61b98c302418364795" target="_top" xlink:title="UBNetworkAccessManager\l::proxyAuthenticationRequired">
<polygon fill="white" stroke="black" points="706,-488 706,-522 854,-522 854,-488 706,-488"/>
<text text-anchor="start" x="714" y="-509" font-family="Helvetica,sans-Serif" font-size="10.00">UBNetworkAccessManager</text>
<text text-anchor="middle" x="780" y="-496" font-family="Helvetica,sans-Serif" font-size="10.00">::proxyAuthenticationRequired</text>
</a>
</g>
<!-- Node19&#45;&gt;Node22 -->
<g id="edge44" class="edge"><title>Node19&#45;&gt;Node22</title>
<path fill="none" stroke="midnightblue" d="M672.296,-511.838C683.402,-511.133 694.757,-510.412 705.73,-509.716"/>
<polygon fill="midnightblue" stroke="midnightblue" points="671.942,-508.354 662.183,-512.48 672.385,-515.34 671.942,-508.354"/>
</g>
<!-- Node21 -->
<g id="node42" class="node"><title>Node21</title>
<a xlink:href="../../d3/d33/class_u_b_preferences_controller.html#a35e0fd13ea04e0e788649ac12b2dcdf3" target="_top" xlink:title="UBPreferencesController\l::show">
<polygon fill="white" stroke="black" points="899.5,-540 899.5,-574 1024.5,-574 1024.5,-540 899.5,-540"/>
<text text-anchor="start" x="907.5" y="-561" font-family="Helvetica,sans-Serif" font-size="10.00">UBPreferencesController</text>
<text text-anchor="middle" x="962" y="-548" font-family="Helvetica,sans-Serif" font-size="10.00">::show</text>
</a>
</g>
<!-- Node20&#45;&gt;Node21 -->
<g id="edge42" class="edge"><title>Node20&#45;&gt;Node21</title>
<path fill="none" stroke="midnightblue" d="M852.645,-557C868.071,-557 884.231,-557 899.25,-557"/>
<polygon fill="midnightblue" stroke="midnightblue" points="852.634,-553.5 842.634,-557 852.634,-560.5 852.634,-553.5"/>
</g>
<!-- Node23 -->
<g id="node46" class="node"><title>Node23</title>
<a xlink:href="../../db/dad/class_u_b_network_access_manager.html#a5cf3eea86eba0bbf3a5af8056c84dfc8" target="_top" xlink:title="UBNetworkAccessManager\l::UBNetworkAccessManager">
<polygon fill="white" stroke="black" points="890,-456 890,-490 1034,-490 1034,-456 890,-456"/>
<text text-anchor="start" x="898" y="-477" font-family="Helvetica,sans-Serif" font-size="10.00">UBNetworkAccessManager</text>
<text text-anchor="middle" x="962" y="-464" font-family="Helvetica,sans-Serif" font-size="10.00">::UBNetworkAccessManager</text>
</a>
</g>
<!-- Node22&#45;&gt;Node23 -->
<g id="edge46" class="edge"><title>Node22&#45;&gt;Node23</title>
<path fill="none" stroke="midnightblue" d="M864.066,-490.219C872.667,-488.707 881.35,-487.18 889.807,-485.693"/>
<polygon fill="midnightblue" stroke="midnightblue" points="863.269,-486.805 854.026,-491.984 864.481,-493.7 863.269,-486.805"/>
</g>
<!-- Node24 -->
<g id="node48" class="node"><title>Node24</title>
<a xlink:href="../../db/dad/class_u_b_network_access_manager.html#aff17aa07b0b023bbe5f30bd39db43ccb" target="_top" xlink:title="UBNetworkAccessManager\l::defaultAccessManager">
<polygon fill="white" stroke="black" points="1070,-423 1070,-457 1208,-457 1208,-423 1070,-423"/>
<text text-anchor="start" x="1078" y="-444" font-family="Helvetica,sans-Serif" font-size="10.00">UBNetworkAccessManager</text>
<text text-anchor="middle" x="1139" y="-431" font-family="Helvetica,sans-Serif" font-size="10.00">::defaultAccessManager</text>
</a>
</g>
<!-- Node23&#45;&gt;Node24 -->
<g id="edge48" class="edge"><title>Node23&#45;&gt;Node24</title>
<path fill="none" stroke="midnightblue" d="M1044.24,-457.667C1052.8,-456.07 1061.44,-454.459 1069.84,-452.894"/>
<polygon fill="midnightblue" stroke="midnightblue" points="1043.44,-454.256 1034.25,-459.53 1044.72,-461.138 1043.44,-454.256"/>
</g>
<!-- Node25 -->
<g id="node50" class="node"><title>Node25</title>
<a xlink:href="../../d0/d16/class_u_b_graphics_widget_item.html#ac1a304e8be3f2ece6dd370210f25c90b" target="_top" xlink:title="UBGraphicsWidgetItem\l::UBGraphicsWidgetItem">
<polygon fill="white" stroke="black" points="1266,-286 1266,-320 1392,-320 1392,-286 1266,-286"/>
<text text-anchor="start" x="1274" y="-307" font-family="Helvetica,sans-Serif" font-size="10.00">UBGraphicsWidgetItem</text>
<text text-anchor="middle" x="1329" y="-294" font-family="Helvetica,sans-Serif" font-size="10.00">::UBGraphicsWidgetItem</text>
</a>
</g>
<!-- Node24&#45;&gt;Node25 -->
<g id="edge50" class="edge"><title>Node24&#45;&gt;Node25</title>
<path fill="none" stroke="midnightblue" d="M1156.96,-414.371C1175.88,-389.19 1207.9,-351.382 1244,-329 1250.69,-324.853 1258.09,-321.326 1265.64,-318.337"/>
<polygon fill="midnightblue" stroke="midnightblue" points="1153.94,-412.576 1150.83,-422.706 1159.58,-416.725 1153.94,-412.576"/>
</g>
<!-- Node26 -->
<g id="node52" class="node"><title>Node26</title>
<a xlink:href="../../d8/d64/class_u_b_http_file_downloader.html#a4ee86cfff01e4974a77cb886e2f2b2ba" target="_top" xlink:title="UBHttpFileDownloader\l::downloadNext">
<polygon fill="white" stroke="black" points="1270.5,-234 1270.5,-268 1387.5,-268 1387.5,-234 1270.5,-234"/>
<text text-anchor="start" x="1278.5" y="-255" font-family="Helvetica,sans-Serif" font-size="10.00">UBHttpFileDownloader</text>
<text text-anchor="middle" x="1329" y="-242" font-family="Helvetica,sans-Serif" font-size="10.00">::downloadNext</text>
</a>
</g>
<!-- Node24&#45;&gt;Node26 -->
<g id="edge52" class="edge"><title>Node24&#45;&gt;Node26</title>
<path fill="none" stroke="midnightblue" d="M1149.17,-413.484C1164.36,-377.346 1196.4,-313.015 1244,-277 1251.75,-271.134 1260.84,-266.581 1270.13,-263.049"/>
<polygon fill="midnightblue" stroke="midnightblue" points="1145.87,-412.301 1145.33,-422.882 1152.35,-414.947 1145.87,-412.301"/>
</g>
<!-- Node29 -->
<g id="node59" class="node"><title>Node29</title>
<a xlink:href="../../de/d40/class_u_b_http_get.html#a5c25272ca90dfb2d1d42784907d39c41" target="_top" xlink:title="UBHttpGet::get">
<polygon fill="white" stroke="black" points="1286.5,-110.5 1286.5,-131.5 1371.5,-131.5 1371.5,-110.5 1286.5,-110.5"/>
<text text-anchor="middle" x="1329" y="-118.5" font-family="Helvetica,sans-Serif" font-size="10.00">UBHttpGet::get</text>
</a>
</g>
<!-- Node24&#45;&gt;Node29 -->
<g id="edge60" class="edge"><title>Node24&#45;&gt;Node29</title>
<path fill="none" stroke="midnightblue" d="M1149.63,-413.397C1166.81,-371.713 1202.91,-289.143 1244,-225 1267.52,-188.282 1302.03,-149.714 1318.93,-131.591"/>
<polygon fill="midnightblue" stroke="midnightblue" points="1146.32,-412.26 1145.78,-422.841 1152.8,-414.905 1146.32,-412.26"/>
</g>
<!-- Node37 -->
<g id="node75" class="node"><title>Node37</title>
<a xlink:href="../../dc/d9f/class_u_b_intranet_podcast_publisher.html#a5bd46ab637671de895e047500f5eb975" target="_top" xlink:title="UBIntranetPodcastPublisher\l::postVideoPublishingRequest">
<polygon fill="white" stroke="black" points="1679,-454 1679,-488 1827,-488 1827,-454 1679,-454"/>
<text text-anchor="start" x="1687" y="-475" font-family="Helvetica,sans-Serif" font-size="10.00">UBIntranetPodcastPublisher</text>
<text text-anchor="middle" x="1753" y="-462" font-family="Helvetica,sans-Serif" font-size="10.00">::postVideoPublishingRequest</text>
</a>
</g>
<!-- Node24&#45;&gt;Node37 -->
<g id="edge76" class="edge"><title>Node24&#45;&gt;Node37</title>
<path fill="none" stroke="midnightblue" d="M1218.13,-441.58C1315.58,-443.865 1486.13,-448.965 1632,-459 1647.16,-460.043 1663.37,-461.449 1678.83,-462.93"/>
<polygon fill="midnightblue" stroke="midnightblue" points="1218.14,-438.079 1208.06,-441.348 1217.98,-445.078 1218.14,-438.079"/>
</g>
<!-- Node39 -->
<g id="node80" class="node"><title>Node39</title>
<a xlink:href="../../df/d84/class_u_b_you_tube_publisher.html#a158f29a2a3b3c44f578fedec29e2e386" target="_top" xlink:title="UBYouTubePublisher\l::postClientLoginRequest">
<polygon fill="white" stroke="black" points="1689.5,-586 1689.5,-620 1816.5,-620 1816.5,-586 1689.5,-586"/>
<text text-anchor="start" x="1697.5" y="-607" font-family="Helvetica,sans-Serif" font-size="10.00">UBYouTubePublisher</text>
<text text-anchor="middle" x="1753" y="-594" font-family="Helvetica,sans-Serif" font-size="10.00">::postClientLoginRequest</text>
</a>
</g>
<!-- Node24&#45;&gt;Node39 -->
<g id="edge82" class="edge"><title>Node24&#45;&gt;Node39</title>
<path fill="none" stroke="midnightblue" d="M1172.92,-462.672C1192.87,-475.063 1219.01,-489.731 1244,-499 1285.23,-514.291 1588.95,-568.047 1632,-577 1650.62,-580.871 1670.82,-585.173 1689.29,-589.145"/>
<polygon fill="midnightblue" stroke="midnightblue" points="1174.54,-459.555 1164.22,-457.167 1170.8,-465.471 1174.54,-459.555"/>
</g>
<!-- Node40 -->
<g id="node83" class="node"><title>Node40</title>
<a xlink:href="../../df/d84/class_u_b_you_tube_publisher.html#a5c47b4f9ea709d5f29b63d7d8086ac39" target="_top" xlink:title="UBYouTubePublisher\l::postVideoUploadRequest">
<polygon fill="white" stroke="black" points="1262,-586 1262,-620 1396,-620 1396,-586 1262,-586"/>
<text text-anchor="start" x="1270" y="-607" font-family="Helvetica,sans-Serif" font-size="10.00">UBYouTubePublisher</text>
<text text-anchor="middle" x="1329" y="-594" font-family="Helvetica,sans-Serif" font-size="10.00">::postVideoUploadRequest</text>
</a>
</g>
<!-- Node24&#45;&gt;Node40 -->
<g id="edge86" class="edge"><title>Node24&#45;&gt;Node40</title>
<path fill="none" stroke="midnightblue" d="M1152.31,-465.955C1169.44,-496.842 1202.06,-547.883 1244,-577 1249.45,-580.784 1255.47,-584.031 1261.71,-586.813"/>
<polygon fill="midnightblue" stroke="midnightblue" points="1155.33,-464.192 1147.49,-457.063 1149.18,-467.523 1155.33,-464.192"/>
</g>
<!-- Node42 -->
<g id="node88" class="node"><title>Node42</title>
<a xlink:href="../../d4/d1c/class_w_b_browser_window.html#a501f2fe903b8e88b97350171064a7713" target="_top" xlink:title="WBBrowserWindow::cookieJar">
<polygon fill="white" stroke="black" points="1253,-546.5 1253,-567.5 1405,-567.5 1405,-546.5 1253,-546.5"/>
<text text-anchor="middle" x="1329" y="-554.5" font-family="Helvetica,sans-Serif" font-size="10.00">WBBrowserWindow::cookieJar</text>
</a>
</g>
<!-- Node24&#45;&gt;Node42 -->
<g id="edge92" class="edge"><title>Node24&#45;&gt;Node42</title>
<path fill="none" stroke="midnightblue" d="M1161.07,-464.577C1180.91,-485.285 1211.8,-514.292 1244,-532 1255.05,-538.078 1267.75,-542.827 1279.89,-546.475"/>
<polygon fill="midnightblue" stroke="midnightblue" points="1163.43,-461.976 1154.03,-457.087 1158.33,-466.771 1163.43,-461.976"/>
</g>
<!-- Node43 -->
<g id="node90" class="node"><title>Node43</title>
<a xlink:href="../../d1/d7a/class_w_b_download_item.html#af037613a6a3e8e6abaf9e3ca8a172f6b" target="_top" xlink:title="WBDownloadItem::tryAgain">
<polygon fill="white" stroke="black" points="1260,-468.5 1260,-489.5 1398,-489.5 1398,-468.5 1260,-468.5"/>
<text text-anchor="middle" x="1329" y="-476.5" font-family="Helvetica,sans-Serif" font-size="10.00">WBDownloadItem::tryAgain</text>
</a>
</g>
<!-- Node24&#45;&gt;Node43 -->
<g id="edge94" class="edge"><title>Node24&#45;&gt;Node43</title>
<path fill="none" stroke="midnightblue" d="M1217.96,-456.207C1238.17,-460.357 1259.39,-464.711 1277.79,-468.489"/>
<polygon fill="midnightblue" stroke="midnightblue" points="1218.63,-452.772 1208.13,-454.19 1217.22,-459.63 1218.63,-452.772"/>
</g>
<!-- Node45 -->
<g id="node94" class="node"><title>Node45</title>
<a xlink:href="../../dd/dc8/class_w_b_web_page.html#a01017231eb0981875b79223f8457b302" target="_top" xlink:title="WBWebPage::WBWebPage">
<polygon fill="white" stroke="black" points="1258.5,-390.5 1258.5,-411.5 1399.5,-411.5 1399.5,-390.5 1258.5,-390.5"/>
<text text-anchor="middle" x="1329" y="-398.5" font-family="Helvetica,sans-Serif" font-size="10.00">WBWebPage::WBWebPage</text>
</a>
</g>
<!-- Node24&#45;&gt;Node45 -->
<g id="edge98" class="edge"><title>Node24&#45;&gt;Node45</title>
<path fill="none" stroke="midnightblue" d="M1217.96,-423.793C1238.17,-419.643 1259.39,-415.289 1277.79,-411.511"/>
<polygon fill="midnightblue" stroke="midnightblue" points="1217.22,-420.37 1208.13,-425.81 1218.63,-427.228 1217.22,-420.37"/>
</g>
<!-- Node46 -->
<g id="node96" class="node"><title>Node46</title>
<a xlink:href="../../d9/d3a/class_u_b_trap_web_page_content_controller.html#a6bf16d3424c93377578ab0fb31f97418" target="_top" xlink:title="UBTrapWebPageContentController\l::showTrapContent">
<polygon fill="white" stroke="black" points="1244,-338 1244,-372 1414,-372 1414,-338 1244,-338"/>
<text text-anchor="start" x="1252" y="-359" font-family="Helvetica,sans-Serif" font-size="10.00">UBTrapWebPageContentController</text>
<text text-anchor="middle" x="1329" y="-346" font-family="Helvetica,sans-Serif" font-size="10.00">::showTrapContent</text>
</a>
</g>
<!-- Node24&#45;&gt;Node46 -->
<g id="edge100" class="edge"><title>Node24&#45;&gt;Node46</title>
<path fill="none" stroke="midnightblue" d="M1174.53,-417.506C1194.42,-405.563 1219.99,-391.274 1244,-381 1251.52,-377.782 1259.57,-374.782 1267.61,-372.048"/>
<polygon fill="midnightblue" stroke="midnightblue" points="1172.54,-414.62 1165.81,-422.805 1176.18,-420.601 1172.54,-414.62"/>
</g>
<!-- Node27 -->
<g id="node54" class="node"><title>Node27</title>
<a xlink:href="../../d8/d64/class_u_b_http_file_downloader.html#a36b270df4a29afd0b819ee83912297b1" target="_top" xlink:title="UBHttpFileDownloader\l::download">
<polygon fill="white" stroke="black" points="1482.5,-208 1482.5,-242 1599.5,-242 1599.5,-208 1482.5,-208"/>
<text text-anchor="start" x="1490.5" y="-229" font-family="Helvetica,sans-Serif" font-size="10.00">UBHttpFileDownloader</text>
<text text-anchor="middle" x="1541" y="-216" font-family="Helvetica,sans-Serif" font-size="10.00">::download</text>
</a>
</g>
<!-- Node26&#45;&gt;Node27 -->
<g id="edge54" class="edge"><title>Node26&#45;&gt;Node27</title>
<path fill="none" stroke="midnightblue" d="M1398.03,-242.534C1425.31,-239.189 1456.33,-235.385 1482.48,-232.177"/>
<polygon fill="midnightblue" stroke="midnightblue" points="1397.27,-239.101 1387.77,-243.792 1398.12,-246.049 1397.27,-239.101"/>
</g>
<!-- Node28 -->
<g id="node56" class="node"><title>Node28</title>
<a xlink:href="../../d8/d64/class_u_b_http_file_downloader.html#af3ee6c32fadb6a11ee8efa189f84e164" target="_top" xlink:title="UBHttpFileDownloader\l::finished">
<polygon fill="white" stroke="black" points="1482.5,-260 1482.5,-294 1599.5,-294 1599.5,-260 1482.5,-260"/>
<text text-anchor="start" x="1490.5" y="-281" font-family="Helvetica,sans-Serif" font-size="10.00">UBHttpFileDownloader</text>
<text text-anchor="middle" x="1541" y="-268" font-family="Helvetica,sans-Serif" font-size="10.00">::finished</text>
</a>
</g>
<!-- Node26&#45;&gt;Node28 -->
<g id="edge56" class="edge"><title>Node26&#45;&gt;Node28</title>
<path fill="none" stroke="midnightblue" d="M1398.03,-253.095C1425.31,-255.859 1456.33,-259.751 1482.48,-263.715"/>
<polygon fill="midnightblue" stroke="midnightblue" points="1398.07,-249.582 1387.77,-252.093 1397.38,-256.549 1398.07,-249.582"/>
</g>
<!-- Node28&#45;&gt;Node26 -->
<g id="edge58" class="edge"><title>Node28&#45;&gt;Node26</title>
<path fill="none" stroke="midnightblue" d="M1472.24,-274.932C1444.98,-272.175 1413.96,-268.287 1387.77,-264.323"/>
<polygon fill="midnightblue" stroke="midnightblue" points="1472.19,-278.444 1482.48,-275.931 1472.87,-271.477 1472.19,-278.444"/>
</g>
<!-- Node30 -->
<g id="node61" class="node"><title>Node30</title>
<a xlink:href="../../d7/d38/class_u_b_download_manager.html#aac0b212ca97453fb8d342d110d375f10" target="_top" xlink:title="Start the download of a file.">
<polygon fill="white" stroke="black" points="1483.5,-0 1483.5,-34 1598.5,-34 1598.5,-0 1483.5,-0"/>
<text text-anchor="start" x="1491.5" y="-21" font-family="Helvetica,sans-Serif" font-size="10.00">UBDownloadManager:</text>
<text text-anchor="middle" x="1541" y="-8" font-family="Helvetica,sans-Serif" font-size="10.00">:startFileDownload</text>
</a>
</g>
<!-- Node29&#45;&gt;Node30 -->
<g id="edge62" class="edge"><title>Node29&#45;&gt;Node30</title>
<path fill="none" stroke="midnightblue" d="M1350.55,-104.305C1373.91,-86.8904 1412.86,-59.8302 1450,-43 1460.48,-38.253 1472.03,-34.1581 1483.28,-30.7135"/>
<polygon fill="midnightblue" stroke="midnightblue" points="1348.26,-101.645 1342.39,-110.465 1352.48,-107.23 1348.26,-101.645"/>
</g>
<!-- Node32 -->
<g id="node65" class="node"><title>Node32</title>
<a xlink:href="../../d5/d85/class_u_b_features_widget.html#af2b169cf75e013baa83fbfd8b9d94989" target="_top" xlink:title="UBFeaturesWidget::onDisplay\lMetadata">
<polygon fill="white" stroke="black" points="1466.5,-156 1466.5,-190 1615.5,-190 1615.5,-156 1466.5,-156"/>
<text text-anchor="start" x="1474.5" y="-177" font-family="Helvetica,sans-Serif" font-size="10.00">UBFeaturesWidget::onDisplay</text>
<text text-anchor="middle" x="1541" y="-164" font-family="Helvetica,sans-Serif" font-size="10.00">Metadata</text>
</a>
</g>
<!-- Node29&#45;&gt;Node32 -->
<g id="edge66" class="edge"><title>Node29&#45;&gt;Node32</title>
<path fill="none" stroke="midnightblue" d="M1381.69,-133.925C1408.77,-140.566 1442.12,-148.746 1471.3,-155.903"/>
<polygon fill="midnightblue" stroke="midnightblue" points="1382.19,-130.443 1371.65,-131.46 1380.52,-137.242 1382.19,-130.443"/>
</g>
<!-- Node34 -->
<g id="node69" class="node"><title>Node34</title>
<a xlink:href="../../d9/d3a/class_u_b_trap_web_page_content_controller.html#ae05afbe6ad5d4cb0ff5c226fc2ef53df" target="_top" xlink:title="UBTrapWebPageContentController\l::updateListOfContents">
<polygon fill="white" stroke="black" points="1456,-104 1456,-138 1626,-138 1626,-104 1456,-104"/>
<text text-anchor="start" x="1464" y="-125" font-family="Helvetica,sans-Serif" font-size="10.00">UBTrapWebPageContentController</text>
<text text-anchor="middle" x="1541" y="-112" font-family="Helvetica,sans-Serif" font-size="10.00">::updateListOfContents</text>
</a>
</g>
<!-- Node29&#45;&gt;Node34 -->
<g id="edge70" class="edge"><title>Node29&#45;&gt;Node34</title>
<path fill="none" stroke="midnightblue" d="M1381.93,-121C1404.3,-121 1430.92,-121 1455.92,-121"/>
<polygon fill="midnightblue" stroke="midnightblue" points="1381.65,-117.5 1371.65,-121 1381.65,-124.5 1381.65,-117.5"/>
</g>
<!-- Node36 -->
<g id="node73" class="node"><title>Node36</title>
<a xlink:href="../../d4/df7/class_u_b_web_plugin_widget.html#ada4887db461da595a0e783ed911bb59d" target="_top" xlink:title="UBWebPluginWidget:\l:UBWebPluginWidget">
<polygon fill="white" stroke="black" points="1485,-52 1485,-86 1597,-86 1597,-52 1485,-52"/>
<text text-anchor="start" x="1493" y="-73" font-family="Helvetica,sans-Serif" font-size="10.00">UBWebPluginWidget:</text>
<text text-anchor="middle" x="1541" y="-60" font-family="Helvetica,sans-Serif" font-size="10.00">:UBWebPluginWidget</text>
</a>
</g>
<!-- Node29&#45;&gt;Node36 -->
<g id="edge74" class="edge"><title>Node29&#45;&gt;Node36</title>
<path fill="none" stroke="midnightblue" d="M1381.51,-108.119C1412.89,-100.424 1452.73,-90.6505 1484.75,-82.7979"/>
<polygon fill="midnightblue" stroke="midnightblue" points="1380.52,-104.758 1371.65,-110.54 1382.19,-111.557 1380.52,-104.758"/>
</g>
<!-- Node31 -->
<g id="node63" class="node"><title>Node31</title>
<a xlink:href="../../d7/d38/class_u_b_download_manager.html#adf2b12cbfdb5457f3eec6a09b0ec4145" target="_top" xlink:title="Update the download list. If a current download is finished, we take a file from the pending download...">
<polygon fill="white" stroke="red" points="1690,-0 1690,-34 1816,-34 1816,-0 1690,-0"/>
<text text-anchor="start" x="1698" y="-21" font-family="Helvetica,sans-Serif" font-size="10.00">UBDownloadManager:</text>
<text text-anchor="middle" x="1753" y="-8" font-family="Helvetica,sans-Serif" font-size="10.00">:onUpdateDownloadLists</text>
</a>
</g>
<!-- Node30&#45;&gt;Node31 -->
<g id="edge64" class="edge"><title>Node30&#45;&gt;Node31</title>
<path fill="none" stroke="midnightblue" d="M1608.79,-17C1634.75,-17 1664.25,-17 1689.77,-17"/>
<polygon fill="midnightblue" stroke="midnightblue" points="1608.65,-13.5001 1598.65,-17 1608.65,-20.5001 1608.65,-13.5001"/>
</g>
<!-- Node33 -->
<g id="node67" class="node"><title>Node33</title>
<a xlink:href="../../d5/d85/class_u_b_features_widget.html#a8afc3d83bd8b57f0260c1269f63b435a" target="_top" xlink:title="UBFeaturesWidget::UBFeatures\lWidget">
<polygon fill="white" stroke="black" points="1674,-156 1674,-190 1832,-190 1832,-156 1674,-156"/>
<text text-anchor="start" x="1682" y="-177" font-family="Helvetica,sans-Serif" font-size="10.00">UBFeaturesWidget::UBFeatures</text>
<text text-anchor="middle" x="1753" y="-164" font-family="Helvetica,sans-Serif" font-size="10.00">Widget</text>
</a>
</g>
<!-- Node32&#45;&gt;Node33 -->
<g id="edge68" class="edge"><title>Node32&#45;&gt;Node33</title>
<path fill="none" stroke="midnightblue" d="M1626.02,-173C1641.83,-173 1658.28,-173 1673.9,-173"/>
<polygon fill="midnightblue" stroke="midnightblue" points="1625.74,-169.5 1615.74,-173 1625.74,-176.5 1625.74,-169.5"/>
</g>
<!-- Node35 -->
<g id="node71" class="node"><title>Node35</title>
<a xlink:href="../../d9/d3a/class_u_b_trap_web_page_content_controller.html#a723c26f80042de25a88dd7eea0783b64" target="_top" xlink:title="UBTrapWebPageContentController\l::updateTrapContentFromPage">
<polygon fill="white" stroke="red" points="1668,-104 1668,-138 1838,-138 1838,-104 1668,-104"/>
<text text-anchor="start" x="1676" y="-125" font-family="Helvetica,sans-Serif" font-size="10.00">UBTrapWebPageContentController</text>
<text text-anchor="middle" x="1753" y="-112" font-family="Helvetica,sans-Serif" font-size="10.00">::updateTrapContentFromPage</text>
</a>
</g>
<!-- Node34&#45;&gt;Node35 -->
<g id="edge72" class="edge"><title>Node34&#45;&gt;Node35</title>
<path fill="none" stroke="midnightblue" d="M1636.12,-121C1646.74,-121 1657.5,-121 1667.97,-121"/>
<polygon fill="midnightblue" stroke="midnightblue" points="1636.01,-117.5 1626.01,-121 1636.01,-124.5 1636.01,-117.5"/>
</g>
<!-- Node38 -->
<g id="node77" class="node"><title>Node38</title>
<a xlink:href="../../dc/d9f/class_u_b_intranet_podcast_publisher.html#a4965ecc747e29ef3c2a180d4078e1fbd" target="_top" xlink:title="UBIntranetPodcastPublisher\l::publishVideo">
<polygon fill="white" stroke="black" points="1874,-495 1874,-529 2014,-529 2014,-495 1874,-495"/>
<text text-anchor="start" x="1882" y="-516" font-family="Helvetica,sans-Serif" font-size="10.00">UBIntranetPodcastPublisher</text>
<text text-anchor="middle" x="1944" y="-503" font-family="Helvetica,sans-Serif" font-size="10.00">::publishVideo</text>
</a>
</g>
<!-- Node37&#45;&gt;Node38 -->
<g id="edge78" class="edge"><title>Node37&#45;&gt;Node38</title>
<path fill="none" stroke="midnightblue" d="M1836.96,-489.023C1849.33,-491.677 1861.95,-494.387 1873.99,-496.972"/>
<polygon fill="midnightblue" stroke="midnightblue" points="1837.63,-485.587 1827.12,-486.91 1836.16,-492.431 1837.63,-485.587"/>
</g>
<!-- Node38&#45;&gt;Node10 -->
<g id="edge80" class="edge"><title>Node38&#45;&gt;Node10</title>
<path fill="none" stroke="midnightblue" d="M1987.16,-533.712C2013.51,-546.973 2046.74,-563.687 2071.18,-575.986"/>
<polygon fill="midnightblue" stroke="midnightblue" points="1988.65,-530.546 1978.14,-529.178 1985.5,-536.799 1988.65,-530.546"/>
</g>
<!-- Node39&#45;&gt;Node9 -->
<g id="edge84" class="edge"><title>Node39&#45;&gt;Node9</title>
<path fill="none" stroke="midnightblue" d="M1826.64,-611.482C1847.37,-613.87 1869.56,-616.426 1889,-618.664"/>
<polygon fill="midnightblue" stroke="midnightblue" points="1826.94,-607.993 1816.6,-610.326 1826.13,-614.947 1826.94,-607.993"/>
</g>
<!-- Node41 -->
<g id="node85" class="node"><title>Node41</title>
<a xlink:href="../../df/d84/class_u_b_you_tube_publisher.html#a200a8816dd792fd65486594f994dc0fa" target="_top" xlink:title="UBYouTubePublisher\l::postClientLoginResponse">
<polygon fill="white" stroke="black" points="1474,-586 1474,-620 1608,-620 1608,-586 1474,-586"/>
<text text-anchor="start" x="1482" y="-607" font-family="Helvetica,sans-Serif" font-size="10.00">UBYouTubePublisher</text>
<text text-anchor="middle" x="1541" y="-594" font-family="Helvetica,sans-Serif" font-size="10.00">::postClientLoginResponse</text>
</a>
</g>
<!-- Node40&#45;&gt;Node41 -->
<g id="edge88" class="edge"><title>Node40&#45;&gt;Node41</title>
<path fill="none" stroke="midnightblue" d="M1406.15,-603C1428.37,-603 1452.44,-603 1473.99,-603"/>
<polygon fill="midnightblue" stroke="midnightblue" points="1406.08,-599.5 1396.08,-603 1406.08,-606.5 1406.08,-599.5"/>
</g>
<!-- Node41&#45;&gt;Node39 -->
<g id="edge90" class="edge"><title>Node41&#45;&gt;Node39</title>
<path fill="none" stroke="midnightblue" d="M1618.28,-603C1641.6,-603 1666.92,-603 1689.25,-603"/>
<polygon fill="midnightblue" stroke="midnightblue" points="1618.08,-599.5 1608.08,-603 1618.08,-606.5 1618.08,-599.5"/>
</g>
<!-- Node44 -->
<g id="node92" class="node"><title>Node44</title>
<a xlink:href="../../d1/d7a/class_w_b_download_item.html#ae98363fcd3077100e78b528eb931efbf" target="_top" xlink:title="DownloadItem is a widget that is displayed in the download manager list.">
<polygon fill="white" stroke="black" points="1450,-468.5 1450,-489.5 1632,-489.5 1632,-468.5 1450,-468.5"/>
<text text-anchor="middle" x="1541" y="-476.5" font-family="Helvetica,sans-Serif" font-size="10.00">WBDownloadItem::WBDownloadItem</text>
</a>
</g>
<!-- Node43&#45;&gt;Node44 -->
<g id="edge96" class="edge"><title>Node43&#45;&gt;Node44</title>
<path fill="none" stroke="midnightblue" d="M1408.36,-479C1421.94,-479 1436.13,-479 1449.98,-479"/>
<polygon fill="midnightblue" stroke="midnightblue" points="1408.12,-475.5 1398.12,-479 1408.12,-482.5 1408.12,-475.5"/>
</g>
<!-- Node47 -->
<g id="node98" class="node"><title>Node47</title>
<a xlink:href="../../df/d50/class_u_b_web_controller.html#a64edea74c74cd97584ba1f52f9e4870c" target="_top" xlink:title="UBWebController::webTrap\lContent">
<polygon fill="white" stroke="black" points="1472.5,-338 1472.5,-372 1609.5,-372 1609.5,-338 1472.5,-338"/>
<text text-anchor="start" x="1480.5" y="-359" font-family="Helvetica,sans-Serif" font-size="10.00">UBWebController::webTrap</text>
<text text-anchor="middle" x="1541" y="-346" font-family="Helvetica,sans-Serif" font-size="10.00">Content</text>
</a>
</g>
<!-- Node46&#45;&gt;Node47 -->
<g id="edge102" class="edge"><title>Node46&#45;&gt;Node47</title>
<path fill="none" stroke="midnightblue" d="M1424.06,-355C1440.29,-355 1456.88,-355 1472.26,-355"/>
<polygon fill="midnightblue" stroke="midnightblue" points="1424.01,-351.5 1414.01,-355 1424.01,-358.5 1424.01,-351.5"/>
</g>
<!-- Node48 -->
<g id="node100" class="node"><title>Node48</title>
<a xlink:href="../../df/d50/class_u_b_web_controller.html#af73cfa36d5b743fa3a652e49dd7e4831" target="_top" xlink:title="UBWebController::setupPalettes">
<polygon fill="white" stroke="red" points="1673.5,-344.5 1673.5,-365.5 1832.5,-365.5 1832.5,-344.5 1673.5,-344.5"/>
<text text-anchor="middle" x="1753" y="-352.5" font-family="Helvetica,sans-Serif" font-size="10.00">UBWebController::setupPalettes</text>
</a>
</g>
<!-- Node47&#45;&gt;Node48 -->
<g id="edge104" class="edge"><title>Node47&#45;&gt;Node48</title>
<path fill="none" stroke="midnightblue" d="M1619.7,-355C1637.18,-355 1655.73,-355 1673.26,-355"/>
<polygon fill="midnightblue" stroke="midnightblue" points="1619.54,-351.5 1609.54,-355 1619.54,-358.5 1619.54,-351.5"/>
</g>
<!-- Node49&#45;&gt;Node20 -->
<g id="edge108" class="edge"><title>Node49&#45;&gt;Node20</title>
<path fill="none" stroke="midnightblue" d="M671.187,-557C686.666,-557 702.669,-557 717.484,-557"/>
<polygon fill="midnightblue" stroke="midnightblue" points="671.108,-553.5 661.108,-557 671.108,-560.5 671.108,-553.5"/>
</g>
<!-- Node49&#45;&gt;Node22 -->
<g id="edge110" class="edge"><title>Node49&#45;&gt;Node22</title>
<path fill="none" stroke="midnightblue" d="M643.555,-543.97C652.397,-541.699 661.47,-539.32 670,-537 687.177,-532.329 705.788,-527.013 722.732,-522.073"/>
<polygon fill="midnightblue" stroke="midnightblue" points="642.537,-540.617 633.711,-546.479 644.266,-547.4 642.537,-540.617"/>
</g>
</g>
</svg>
