<?xml version="1.0" encoding="UTF-8" standalone="no"?>
<!DOCTYPE svg PUBLIC "-//W3C//DTD SVG 1.1//EN"
 "http://www.w3.org/Graphics/SVG/1.1/DTD/svg11.dtd">
<!-- Generated by graphviz version 2.26.3 (20100126.1600)
 -->
<!-- Title: UBCreateLinkPalette::onBackButtonClicked Pages: 1 -->
<svg width="846pt" height="196pt"
 viewBox="0.00 0.00 846.00 196.00" xmlns="http://www.w3.org/2000/svg" xmlns:xlink="http://www.w3.org/1999/xlink">
<g id="graph1" class="graph" transform="scale(1 1) rotate(0) translate(4 192)">
<title>UBCreateLinkPalette::onBackButtonClicked</title>
<polygon fill="white" stroke="white" points="-4,5 -4,-192 843,-192 843,5 -4,5"/>
<!-- Node1 -->
<g id="node1" class="node"><title>Node1</title>
<polygon fill="#bfbfbf" stroke="black" points="0.5,-128 0.5,-162 117.5,-162 117.5,-128 0.5,-128"/>
<text text-anchor="start" x="8.5" y="-149" font-family="Helvetica,sans-Serif" font-size="10.00">UBCreateLinkPalette</text>
<text text-anchor="middle" x="59" y="-136" font-family="Helvetica,sans-Serif" font-size="10.00">::onBackButtonClicked</text>
</g>
<!-- Node2 -->
<g id="node3" class="node"><title>Node2</title>
<a xlink:href="../../df/db9/class_u_b_create_link_palette.html#a2d9f0c538dc515da2bc37b7bd269b553" target="_top" xlink:title="UBCreateLinkPalette\l::adjustGeometry">
<polygon fill="white" stroke="black" points="154.5,-128 154.5,-162 263.5,-162 263.5,-128 154.5,-128"/>
<text text-anchor="start" x="162.5" y="-149" font-family="Helvetica,sans-Serif" font-size="10.00">UBCreateLinkPalette</text>
<text text-anchor="middle" x="209" y="-136" font-family="Helvetica,sans-Serif" font-size="10.00">::adjustGeometry</text>
</a>
</g>
<!-- Node1&#45;&gt;Node2 -->
<g id="edge2" class="edge"><title>Node1&#45;&gt;Node2</title>
<path fill="none" stroke="midnightblue" d="M117.853,-145C126.466,-145 135.378,-145 144.103,-145"/>
<polygon fill="midnightblue" stroke="midnightblue" points="144.231,-148.5 154.231,-145 144.231,-141.5 144.231,-148.5"/>
</g>
<!-- Node3 -->
<g id="node5" class="node"><title>Node3</title>
<a xlink:href="../../d1/d97/class_u_b_floating_palette.html#abc34a1ea7b29b6aaa4a0ea25d5715210" target="_top" xlink:title="UBFloatingPalette:\l:adjustSizeAndPosition">
<polygon fill="white" stroke="black" points="300,-128 300,-162 418,-162 418,-128 300,-128"/>
<text text-anchor="start" x="308" y="-149" font-family="Helvetica,sans-Serif" font-size="10.00">UBFloatingPalette:</text>
<text text-anchor="middle" x="359" y="-136" font-family="Helvetica,sans-Serif" font-size="10.00">:adjustSizeAndPosition</text>
</a>
</g>
<!-- Node2&#45;&gt;Node3 -->
<g id="edge4" class="edge"><title>Node2&#45;&gt;Node3</title>
<path fill="none" stroke="midnightblue" d="M263.578,-145C272.067,-145 280.934,-145 289.697,-145"/>
<polygon fill="midnightblue" stroke="midnightblue" points="289.907,-148.5 299.907,-145 289.907,-141.5 289.907,-148.5"/>
</g>
<!-- Node4 -->
<g id="node7" class="node"><title>Node4</title>
<a xlink:href="../../d1/d97/class_u_b_floating_palette.html#aec5822b784da7d590ff463ed9cb44be9" target="_top" xlink:title="UBFloatingPalette:\l:preferredSize">
<polygon fill="white" stroke="black" points="454.5,-154 454.5,-188 553.5,-188 553.5,-154 454.5,-154"/>
<text text-anchor="start" x="462.5" y="-175" font-family="Helvetica,sans-Serif" font-size="10.00">UBFloatingPalette:</text>
<text text-anchor="middle" x="504" y="-162" font-family="Helvetica,sans-Serif" font-size="10.00">:preferredSize</text>
</a>
</g>
<!-- Node3&#45;&gt;Node4 -->
<g id="edge6" class="edge"><title>Node3&#45;&gt;Node4</title>
<path fill="none" stroke="midnightblue" d="M418.395,-155.65C426.94,-157.182 435.736,-158.759 444.286,-160.293"/>
<polygon fill="midnightblue" stroke="midnightblue" points="443.721,-163.747 454.182,-162.067 444.956,-156.857 443.721,-163.747"/>
</g>
<!-- Node5 -->
<g id="node9" class="node"><title>Node5</title>
<a xlink:href="../../d1/d97/class_u_b_floating_palette.html#a187ee35c53cfad79bb5b30dff1800732" target="_top" xlink:title="UBFloatingPalette:\l:moveInsideParent">
<polygon fill="white" stroke="black" points="454.5,-102 454.5,-136 553.5,-136 553.5,-102 454.5,-102"/>
<text text-anchor="start" x="462.5" y="-123" font-family="Helvetica,sans-Serif" font-size="10.00">UBFloatingPalette:</text>
<text text-anchor="middle" x="504" y="-110" font-family="Helvetica,sans-Serif" font-size="10.00">:moveInsideParent</text>
</a>
</g>
<!-- Node3&#45;&gt;Node5 -->
<g id="edge8" class="edge"><title>Node3&#45;&gt;Node5</title>
<path fill="none" stroke="midnightblue" d="M418.395,-134.35C426.94,-132.818 435.736,-131.241 444.286,-129.707"/>
<polygon fill="midnightblue" stroke="midnightblue" points="444.956,-133.143 454.182,-127.933 443.721,-126.253 444.956,-133.143"/>
</g>
<!-- Node6 -->
<g id="node11" class="node"><title>Node6</title>
<a xlink:href="../../d1/d97/class_u_b_floating_palette.html#a1902d37271315e9e06d6743752104f47" target="_top" xlink:title="UBFloatingPalette:\l:border">
<polygon fill="white" stroke="black" points="590.5,-147 590.5,-181 689.5,-181 689.5,-147 590.5,-147"/>
<text text-anchor="start" x="598.5" y="-168" font-family="Helvetica,sans-Serif" font-size="10.00">UBFloatingPalette:</text>
<text text-anchor="middle" x="640" y="-155" font-family="Helvetica,sans-Serif" font-size="10.00">:border</text>
</a>
</g>
<!-- Node5&#45;&gt;Node6 -->
<g id="edge10" class="edge"><title>Node5&#45;&gt;Node6</title>
<path fill="none" stroke="midnightblue" d="M553.869,-135.501C562.554,-138.374 571.665,-141.389 580.576,-144.337"/>
<polygon fill="midnightblue" stroke="midnightblue" points="579.544,-147.683 590.137,-147.501 581.743,-141.037 579.544,-147.683"/>
</g>
<!-- Node7 -->
<g id="node13" class="node"><title>Node7</title>
<a xlink:href="../../d1/d97/class_u_b_floating_palette.html#acf3ead0c3d8a3bde89b934ad208e9f9a" target="_top" xlink:title="UBFloatingPalette:\l:getParentRightOffset">
<polygon fill="white" stroke="black" points="726,-104 726,-138 838,-138 838,-104 726,-104"/>
<text text-anchor="start" x="734" y="-125" font-family="Helvetica,sans-Serif" font-size="10.00">UBFloatingPalette:</text>
<text text-anchor="middle" x="782" y="-112" font-family="Helvetica,sans-Serif" font-size="10.00">:getParentRightOffset</text>
</a>
</g>
<!-- Node5&#45;&gt;Node7 -->
<g id="edge12" class="edge"><title>Node5&#45;&gt;Node7</title>
<path fill="none" stroke="midnightblue" d="M553.701,-119.358C598.849,-119.682 665.794,-120.164 715.53,-120.522"/>
<polygon fill="midnightblue" stroke="midnightblue" points="715.527,-124.022 725.552,-120.594 715.577,-117.022 715.527,-124.022"/>
</g>
<!-- Node8 -->
<g id="node15" class="node"><title>Node8</title>
<a xlink:href="../../d1/d97/class_u_b_floating_palette.html#a3f32f9c0ae03d587847f4c922309d2a3" target="_top" xlink:title="UBFloatingPalette:\l:minimizePalette">
<polygon fill="white" stroke="black" points="590.5,-54 590.5,-88 689.5,-88 689.5,-54 590.5,-54"/>
<text text-anchor="start" x="598.5" y="-75" font-family="Helvetica,sans-Serif" font-size="10.00">UBFloatingPalette:</text>
<text text-anchor="middle" x="640" y="-62" font-family="Helvetica,sans-Serif" font-size="10.00">:minimizePalette</text>
</a>
</g>
<!-- Node5&#45;&gt;Node8 -->
<g id="edge14" class="edge"><title>Node5&#45;&gt;Node8</title>
<path fill="none" stroke="midnightblue" d="M552.331,-101.942C562.052,-98.5112 572.358,-94.8736 582.359,-91.3439"/>
<polygon fill="midnightblue" stroke="midnightblue" points="583.559,-94.632 591.824,-88.0032 581.229,-88.031 583.559,-94.632"/>
</g>
<!-- Node8&#45;&gt;Node7 -->
<g id="edge16" class="edge"><title>Node8&#45;&gt;Node7</title>
<path fill="none" stroke="midnightblue" d="M688.471,-88.0673C699.77,-92.0456 711.917,-96.3229 723.595,-100.435"/>
<polygon fill="midnightblue" stroke="midnightblue" points="722.67,-103.82 733.265,-103.84 724.995,-97.2172 722.67,-103.82"/>
</g>
<!-- Node9 -->
<g id="node18" class="node"><title>Node9</title>
<a xlink:href="../../d1/d97/class_u_b_floating_palette.html#a7e9182ed71477253b40841ade1074dd2" target="_top" xlink:title="UBFloatingPalette:\l:minimizeStart">
<polygon fill="white" stroke="black" points="732.5,-52 732.5,-86 831.5,-86 831.5,-52 732.5,-52"/>
<text text-anchor="start" x="740.5" y="-73" font-family="Helvetica,sans-Serif" font-size="10.00">UBFloatingPalette:</text>
<text text-anchor="middle" x="782" y="-60" font-family="Helvetica,sans-Serif" font-size="10.00">:minimizeStart</text>
</a>
</g>
<!-- Node8&#45;&gt;Node9 -->
<g id="edge18" class="edge"><title>Node8&#45;&gt;Node9</title>
<path fill="none" stroke="midnightblue" d="M689.665,-70.3005C700.089,-70.1537 711.19,-69.9973 721.948,-69.8458"/>
<polygon fill="midnightblue" stroke="midnightblue" points="722.174,-73.3431 732.123,-69.7025 722.075,-66.3438 722.174,-73.3431"/>
</g>
<!-- Node10 -->
<g id="node20" class="node"><title>Node10</title>
<a xlink:href="../../d1/d97/class_u_b_floating_palette.html#a94541890f583373e035733f0d96b6804" target="_top" xlink:title="UBFloatingPalette:\l:maximizeStart">
<polygon fill="white" stroke="black" points="732.5,-0 732.5,-34 831.5,-34 831.5,-0 732.5,-0"/>
<text text-anchor="start" x="740.5" y="-21" font-family="Helvetica,sans-Serif" font-size="10.00">UBFloatingPalette:</text>
<text text-anchor="middle" x="782" y="-8" font-family="Helvetica,sans-Serif" font-size="10.00">:maximizeStart</text>
</a>
</g>
<!-- Node8&#45;&gt;Node10 -->
<g id="edge20" class="edge"><title>Node8&#45;&gt;Node10</title>
<path fill="none" stroke="midnightblue" d="M684.93,-53.9141C698.397,-48.7925 713.318,-43.1184 727.34,-37.7861"/>
<polygon fill="midnightblue" stroke="midnightblue" points="728.772,-40.9861 736.875,-34.1601 726.284,-34.4432 728.772,-40.9861"/>
</g>
</g>
</svg>
