<?xml version="1.0" encoding="UTF-8" standalone="no"?>
<!DOCTYPE svg PUBLIC "-//W3C//DTD SVG 1.1//EN"
 "http://www.w3.org/Graphics/SVG/1.1/DTD/svg11.dtd">
<!-- Generated by graphviz version 2.26.3 (20100126.1600)
 -->
<!-- Title: UBCreateLinkPalette::onOkLinkToPageClicked Pages: 1 -->
<svg width="438pt" height="42pt"
 viewBox="0.00 0.00 438.00 42.00" xmlns="http://www.w3.org/2000/svg" xmlns:xlink="http://www.w3.org/1999/xlink">
<g id="graph1" class="graph" transform="scale(1 1) rotate(0) translate(4 38)">
<title>UBCreateLinkPalette::onOkLinkToPageClicked</title>
<polygon fill="white" stroke="white" points="-4,5 -4,-38 435,-38 435,5 -4,5"/>
<!-- Node1 -->
<g id="node1" class="node"><title>Node1</title>
<polygon fill="#bfbfbf" stroke="black" points="0.5,-0 0.5,-34 131.5,-34 131.5,-0 0.5,-0"/>
<text text-anchor="start" x="8.5" y="-21" font-family="Helvetica,sans-Serif" font-size="10.00">UBCreateLinkPalette</text>
<text text-anchor="middle" x="66" y="-8" font-family="Helvetica,sans-Serif" font-size="10.00">::onOkLinkToPageClicked</text>
</g>
<!-- Node2 -->
<g id="node3" class="node"><title>Node2</title>
<a xlink:href="../../df/db9/class_u_b_create_link_palette.html#a78fd9be99ef813d640687a84c4983554" target="_top" xlink:title="UBCreateLinkPalette\l::init">
<polygon fill="white" stroke="black" points="168.5,-0 168.5,-34 277.5,-34 277.5,-0 168.5,-0"/>
<text text-anchor="start" x="176.5" y="-21" font-family="Helvetica,sans-Serif" font-size="10.00">UBCreateLinkPalette</text>
<text text-anchor="middle" x="223" y="-8" font-family="Helvetica,sans-Serif" font-size="10.00">::init</text>
</a>
</g>
<!-- Node1&#45;&gt;Node2 -->
<g id="edge2" class="edge"><title>Node1&#45;&gt;Node2</title>
<path fill="none" stroke="midnightblue" d="M141.954,-17C150.752,-17 159.593,-17 168.034,-17"/>
<polygon fill="midnightblue" stroke="midnightblue" points="141.672,-13.5001 131.672,-17 141.672,-20.5001 141.672,-13.5001"/>
</g>
<!-- Node3 -->
<g id="node5" class="node"><title>Node3</title>
<a xlink:href="../../df/db9/class_u_b_create_link_palette.html#a1187c7015d0889e5f274fea870b393e9" target="_top" xlink:title="UBCreateLinkPalette\l::UBCreateLinkPalette">
<polygon fill="white" stroke="black" points="314.5,-0 314.5,-34 429.5,-34 429.5,-0 314.5,-0"/>
<text text-anchor="start" x="322.5" y="-21" font-family="Helvetica,sans-Serif" font-size="10.00">UBCreateLinkPalette</text>
<text text-anchor="middle" x="372" y="-8" font-family="Helvetica,sans-Serif" font-size="10.00">::UBCreateLinkPalette</text>
</a>
</g>
<!-- Node2&#45;&gt;Node3 -->
<g id="edge4" class="edge"><title>Node2&#45;&gt;Node3</title>
<path fill="none" stroke="midnightblue" d="M287.872,-17C296.689,-17 305.688,-17 314.366,-17"/>
<polygon fill="midnightblue" stroke="midnightblue" points="287.636,-13.5001 277.636,-17 287.636,-20.5001 287.636,-13.5001"/>
</g>
</g>
</svg>
