<?xml version="1.0" encoding="UTF-8" standalone="no"?>
<!DOCTYPE svg PUBLIC "-//W3C//DTD SVG 1.1//EN"
 "http://www.w3.org/Graphics/SVG/1.1/DTD/svg11.dtd">
<!-- Generated by graphviz version 2.26.3 (20100126.1600)
 -->
<!-- Title: UBTGMediaWidget::removeSource Pages: 1 -->
<!--zoomable 64 -->
<svg id="main" version="1.1" xmlns="http://www.w3.org/2000/svg" xmlns:xlink="http://www.w3.org/1999/xlink" xml:space="preserve" onload="init(evt)">
        <defs>
                <circle id="rim" cx="0" cy="0" r="7"/>
                <circle id="rim2" cx="0" cy="0" r="3.5"/>
                <g id="zoomPlus">
                        <use xlink:href="#rim" fill="#404040">
                                <set attributeName="fill" to="#808080" begin="zoomplus.mouseover" end="zoomplus.mouseout"/>
                        </use>
                        <path d="M-4,0h8M0,-4v8" fill="none" stroke="white" stroke-width="1.5" pointer-events="none"/>
                </g>
                <g id="zoomMin">
                        <use xlink:href="#rim" fill="#404040">
                                <set attributeName="fill" to="#808080" begin="zoomminus.mouseover" end="zoomminus.mouseout"/>
                        </use>
                        <path d="M-4,0h8" fill="none" stroke="white" stroke-width="1.5" pointer-events="none"/>
                </g>
                <g id="dirArrow">
                        <path fill="none" stroke="white" stroke-width="1.5" d="M0,-3.0v7 M-2.5,-0.5L0,-3.0L2.5,-0.5"/>
                </g>
               <g id="resetDef">
                       <use xlink:href="#rim2" fill="#404040">
                               <set attributeName="fill" to="#808080" begin="reset.mouseover" end="reset.mouseout"/>
                       </use>
               </g>
        </defs>

<script type="text/javascript">
var viewWidth = 936;
var viewHeight = 64;
var sectionId = 'dynsection-7';
</script>
<script xlink:href="../../svgpan.js"/>
<svg id="graph" class="graph">
<g id="viewport">
<title>UBTGMediaWidget::removeSource</title>
<polygon fill="white" stroke="white" points="-4,5 -4,-60 933,-60 933,5 -4,5"/>
<!-- Node1 -->
<g id="node1" class="node"><title>Node1</title>
<polygon fill="#bfbfbf" stroke="black" points="0,-28.5 0,-49.5 170,-49.5 170,-28.5 0,-28.5"/>
<text text-anchor="middle" x="85" y="-36.5" font-family="Helvetica,sans-Serif" font-size="10.00">UBTGMediaWidget::removeSource</text>
</g>
<!-- Node2 -->
<g id="node3" class="node"><title>Node2</title>
<a xlink:href="../../de/d83/class_u_b_teacher_guide_edition_widget.html#ae43e991167e2f4afb5415339bd59cbd4" target="_top" xlink:title="UBTeacherGuideEditionWidget\l::onAddItemClicked">
<polygon fill="white" stroke="black" points="206,-22 206,-56 358,-56 358,-22 206,-22"/>
<text text-anchor="start" x="214" y="-43" font-family="Helvetica,sans-Serif" font-size="10.00">UBTeacherGuideEditionWidget</text>
<text text-anchor="middle" x="282" y="-30" font-family="Helvetica,sans-Serif" font-size="10.00">::onAddItemClicked</text>
</a>
</g>
<!-- Node1&#45;&gt;Node2 -->
<g id="edge2" class="edge"><title>Node1&#45;&gt;Node2</title>
<path fill="none" stroke="midnightblue" d="M180.31,-39C188.896,-39 197.514,-39 205.903,-39"/>
<polygon fill="midnightblue" stroke="midnightblue" points="180.261,-35.5001 170.261,-39 180.261,-42.5001 180.261,-35.5001"/>
</g>
<!-- Node3 -->
<g id="node5" class="node"><title>Node3</title>
<a xlink:href="../../de/d83/class_u_b_teacher_guide_edition_widget.html#a961038ebb2833cd7d8f80e559f7805c6" target="_top" xlink:title="UBTeacherGuideEditionWidget\l::UBTeacherGuideEditionWidget">
<polygon fill="white" stroke="black" points="770,-22 770,-56 928,-56 928,-22 770,-22"/>
<text text-anchor="start" x="778" y="-43" font-family="Helvetica,sans-Serif" font-size="10.00">UBTeacherGuideEditionWidget</text>
<text text-anchor="middle" x="849" y="-30" font-family="Helvetica,sans-Serif" font-size="10.00">::UBTeacherGuideEditionWidget</text>
</a>
</g>
<!-- Node2&#45;&gt;Node3 -->
<g id="edge4" class="edge"><title>Node2&#45;&gt;Node3</title>
<path fill="none" stroke="midnightblue" d="M368.351,-42.3933C377.015,-42.641 385.68,-42.8515 394,-43 545.087,-45.6971 582.912,-45.6268 734,-43 745.585,-42.7986 757.824,-42.4831 769.825,-42.1156"/>
<polygon fill="midnightblue" stroke="midnightblue" points="368.304,-38.8904 358.203,-42.087 368.092,-45.8872 368.304,-38.8904"/>
</g>
<!-- Node4 -->
<g id="node7" class="node"><title>Node4</title>
<a xlink:href="../../de/d83/class_u_b_teacher_guide_edition_widget.html#a72415bba1f2250f0070e81bb314db982" target="_top" xlink:title="UBTeacherGuideEditionWidget\l::load">
<polygon fill="white" stroke="black" points="394,-0 394,-34 546,-34 546,-0 394,-0"/>
<text text-anchor="start" x="402" y="-21" font-family="Helvetica,sans-Serif" font-size="10.00">UBTeacherGuideEditionWidget</text>
<text text-anchor="middle" x="470" y="-8" font-family="Helvetica,sans-Serif" font-size="10.00">::load</text>
</a>
</g>
<!-- Node2&#45;&gt;Node4 -->
<g id="edge6" class="edge"><title>Node2&#45;&gt;Node4</title>
<path fill="none" stroke="midnightblue" d="M368.146,-28.9191C376.67,-27.9216 385.281,-26.9139 393.696,-25.9292"/>
<polygon fill="midnightblue" stroke="midnightblue" points="367.721,-25.4448 358.196,-30.0835 368.535,-32.3974 367.721,-25.4448"/>
</g>
<!-- Node5 -->
<g id="node9" class="node"><title>Node5</title>
<a xlink:href="../../de/d83/class_u_b_teacher_guide_edition_widget.html#a04c5f5c23abde12964e288ede60d9f16" target="_top" xlink:title="UBTeacherGuideEditionWidget\l::onActiveSceneChanged">
<polygon fill="white" stroke="black" points="582,-0 582,-34 734,-34 734,-0 582,-0"/>
<text text-anchor="start" x="590" y="-21" font-family="Helvetica,sans-Serif" font-size="10.00">UBTeacherGuideEditionWidget</text>
<text text-anchor="middle" x="658" y="-8" font-family="Helvetica,sans-Serif" font-size="10.00">::onActiveSceneChanged</text>
</a>
</g>
<!-- Node4&#45;&gt;Node5 -->
<g id="edge8" class="edge"><title>Node4&#45;&gt;Node5</title>
<path fill="none" stroke="midnightblue" d="M556.424,-17C564.857,-17 573.372,-17 581.696,-17"/>
<polygon fill="midnightblue" stroke="midnightblue" points="556.196,-13.5001 546.196,-17 556.196,-20.5001 556.196,-13.5001"/>
</g>
<!-- Node5&#45;&gt;Node3 -->
<g id="edge10" class="edge"><title>Node5&#45;&gt;Node3</title>
<path fill="none" stroke="midnightblue" d="M744.036,-26.91C752.609,-27.8974 761.284,-28.8966 769.782,-29.8754"/>
<polygon fill="midnightblue" stroke="midnightblue" points="744.372,-23.4255 734.037,-25.7582 743.571,-30.3796 744.372,-23.4255"/>
</g>
</g>
</svg>
        <g id="navigator" transform="translate(0 0)" fill="#404254">
                <rect fill="#f2f5e9" fill-opacity="0.5" stroke="#606060" stroke-width=".5" x="0" y="0" width="60" height="60"/>
                <use id="zoomplus" xlink:href="#zoomPlus" x="17" y="9" onmousedown="handleZoom(evt,'in')"/>
                <use id="zoomminus" xlink:href="#zoomMin" x="42" y="9" onmousedown="handleZoom(evt,'out')"/>
                <use id="reset" xlink:href="#resetDef" x="30" y="36" onmousedown="handleReset()"/>
                <g id="arrowUp" xlink:href="#dirArrow" transform="translate(30 24)" onmousedown="handlePan(0,-1)">
                  <use xlink:href="#rim" fill="#404040">
                        <set attributeName="fill" to="#808080" begin="arrowUp.mouseover" end="arrowUp.mouseout"/>
                  </use>
                  <path fill="none" stroke="white" stroke-width="1.5" d="M0,-3.0v7 M-2.5,-0.5L0,-3.0L2.5,-0.5"/>
                </g>
                <g id="arrowRight" xlink:href="#dirArrow" transform="rotate(90) translate(36 -43)" onmousedown="handlePan(1,0)">
                  <use xlink:href="#rim" fill="#404040">
                        <set attributeName="fill" to="#808080" begin="arrowRight.mouseover" end="arrowRight.mouseout"/>
                  </use>
                  <path fill="none" stroke="white" stroke-width="1.5" d="M0,-3.0v7 M-2.5,-0.5L0,-3.0L2.5,-0.5"/>
                </g>
                <g id="arrowDown" xlink:href="#dirArrow" transform="rotate(180) translate(-30 -48)" onmousedown="handlePan(0,1)">
                  <use xlink:href="#rim" fill="#404040">
                        <set attributeName="fill" to="#808080" begin="arrowDown.mouseover" end="arrowDown.mouseout"/>
                  </use>
                  <path fill="none" stroke="white" stroke-width="1.5" d="M0,-3.0v7 M-2.5,-0.5L0,-3.0L2.5,-0.5"/>
                </g>
                <g id="arrowLeft" xlink:href="#dirArrow" transform="rotate(270) translate(-36 17)" onmousedown="handlePan(-1,0)">
                  <use xlink:href="#rim" fill="#404040">
                        <set attributeName="fill" to="#808080" begin="arrowLeft.mouseover" end="arrowLeft.mouseout"/>
                  </use>
                  <path fill="none" stroke="white" stroke-width="1.5" d="M0,-3.0v7 M-2.5,-0.5L0,-3.0L2.5,-0.5"/>
                </g>
        </g>
        <svg viewBox="0 0 15 15" width="100%" height="30px" preserveAspectRatio="xMaxYMin meet">
         <g id="arrow_out" transform="scale(0.3 0.3)">
          <a xlink:href="class_u_b_t_g_media_widget_aa8b56272815c9d98905b2d8fba00ac95_icgraph_org.svg" target="_base">
           <rect id="button" ry="5" rx="5" y="6" x="6" height="38" width="38"
                fill="#f2f5e9" fill-opacity="0.5" stroke="#606060" stroke-width="1.0"/>
           <path id="arrow"
             d="M 11.500037,31.436501 C 11.940474,20.09759 22.043105,11.32322 32.158766,21.979434 L 37.068811,17.246167 C 37.068811,17.246167 37.088388,32 37.088388,32 L 22.160133,31.978069 C 22.160133,31.978069 26.997745,27.140456 26.997745,27.140456 C 18.528582,18.264221 13.291696,25.230495 11.500037,31.436501 z"
             style="fill:#404040;"/>
          </a>
         </g>
        </svg>
</svg>
