<?xml version="1.0" encoding="UTF-8" standalone="no"?>
<!DOCTYPE svg PUBLIC "-//W3C//DTD SVG 1.1//EN"
 "http://www.w3.org/Graphics/SVG/1.1/DTD/svg11.dtd">
<!-- Generated by graphviz version 2.26.3 (20100126.1600)
 -->
<!-- Title: UBTGMediaWidget::initializeWithDom Pages: 1 -->
<svg width="910pt" height="116pt"
 viewBox="0.00 0.00 910.00 116.00" xmlns="http://www.w3.org/2000/svg" xmlns:xlink="http://www.w3.org/1999/xlink">
<g id="graph1" class="graph" transform="scale(1 1) rotate(0) translate(4 112)">
<title>UBTGMediaWidget::initializeWithDom</title>
<polygon fill="white" stroke="white" points="-4,5 -4,-112 907,-112 907,5 -4,5"/>
<!-- Node1 -->
<g id="node1" class="node"><title>Node1</title>
<polygon fill="#bfbfbf" stroke="black" points="0.5,-74 0.5,-108 143.5,-108 143.5,-74 0.5,-74"/>
<text text-anchor="start" x="8.5" y="-95" font-family="Helvetica,sans-Serif" font-size="10.00">UBTGMediaWidget::initialize</text>
<text text-anchor="middle" x="72" y="-82" font-family="Helvetica,sans-Serif" font-size="10.00">WithDom</text>
</g>
<!-- Node2 -->
<g id="node3" class="node"><title>Node2</title>
<a xlink:href="../../de/d83/class_u_b_teacher_guide_edition_widget.html#ae43e991167e2f4afb5415339bd59cbd4" target="_top" xlink:title="UBTeacherGuideEditionWidget\l::onAddItemClicked">
<polygon fill="white" stroke="black" points="180,-74 180,-108 332,-108 332,-74 180,-74"/>
<text text-anchor="start" x="188" y="-95" font-family="Helvetica,sans-Serif" font-size="10.00">UBTeacherGuideEditionWidget</text>
<text text-anchor="middle" x="256" y="-82" font-family="Helvetica,sans-Serif" font-size="10.00">::onAddItemClicked</text>
</a>
</g>
<!-- Node1&#45;&gt;Node2 -->
<g id="edge2" class="edge"><title>Node1&#45;&gt;Node2</title>
<path fill="none" stroke="midnightblue" d="M153.807,-91C162.51,-91 171.336,-91 179.969,-91"/>
<polygon fill="midnightblue" stroke="midnightblue" points="153.666,-87.5001 143.666,-91 153.666,-94.5001 153.666,-87.5001"/>
</g>
<!-- Node3 -->
<g id="node5" class="node"><title>Node3</title>
<a xlink:href="../../de/d83/class_u_b_teacher_guide_edition_widget.html#a961038ebb2833cd7d8f80e559f7805c6" target="_top" xlink:title="UBTeacherGuideEditionWidget\l::UBTeacherGuideEditionWidget">
<polygon fill="white" stroke="black" points="744,-52 744,-86 902,-86 902,-52 744,-52"/>
<text text-anchor="start" x="752" y="-73" font-family="Helvetica,sans-Serif" font-size="10.00">UBTeacherGuideEditionWidget</text>
<text text-anchor="middle" x="823" y="-60" font-family="Helvetica,sans-Serif" font-size="10.00">::UBTeacherGuideEditionWidget</text>
</a>
</g>
<!-- Node2&#45;&gt;Node3 -->
<g id="edge4" class="edge"><title>Node2&#45;&gt;Node3</title>
<path fill="none" stroke="midnightblue" d="M342.272,-97.8824C433.462,-103.729 581.334,-109.14 708,-95 724.783,-93.1265 742.692,-89.7602 759.258,-86.058"/>
<polygon fill="midnightblue" stroke="midnightblue" points="342.468,-94.3878 332.26,-97.2241 342.009,-101.373 342.468,-94.3878"/>
</g>
<!-- Node4 -->
<g id="node7" class="node"><title>Node4</title>
<a xlink:href="../../de/d83/class_u_b_teacher_guide_edition_widget.html#a72415bba1f2250f0070e81bb314db982" target="_top" xlink:title="UBTeacherGuideEditionWidget\l::load">
<polygon fill="white" stroke="black" points="368,-52 368,-86 520,-86 520,-52 368,-52"/>
<text text-anchor="start" x="376" y="-73" font-family="Helvetica,sans-Serif" font-size="10.00">UBTeacherGuideEditionWidget</text>
<text text-anchor="middle" x="444" y="-60" font-family="Helvetica,sans-Serif" font-size="10.00">::load</text>
</a>
</g>
<!-- Node2&#45;&gt;Node4 -->
<g id="edge6" class="edge"><title>Node2&#45;&gt;Node4</title>
<path fill="none" stroke="midnightblue" d="M342.146,-80.9191C350.67,-79.9216 359.281,-78.9139 367.696,-77.9292"/>
<polygon fill="midnightblue" stroke="midnightblue" points="341.721,-77.4448 332.196,-82.0835 342.535,-84.3974 341.721,-77.4448"/>
</g>
<!-- Node5 -->
<g id="node9" class="node"><title>Node5</title>
<a xlink:href="../../de/d83/class_u_b_teacher_guide_edition_widget.html#aeb2ae401d87dd196333b14a586e57755" target="_top" xlink:title="UBTeacherGuideEditionWidget\l::onActiveDocumentChanged">
<polygon fill="white" stroke="black" points="556,-52 556,-86 708,-86 708,-52 556,-52"/>
<text text-anchor="start" x="564" y="-73" font-family="Helvetica,sans-Serif" font-size="10.00">UBTeacherGuideEditionWidget</text>
<text text-anchor="middle" x="632" y="-60" font-family="Helvetica,sans-Serif" font-size="10.00">::onActiveDocumentChanged</text>
</a>
</g>
<!-- Node4&#45;&gt;Node5 -->
<g id="edge8" class="edge"><title>Node4&#45;&gt;Node5</title>
<path fill="none" stroke="midnightblue" d="M530.424,-69C538.857,-69 547.372,-69 555.696,-69"/>
<polygon fill="midnightblue" stroke="midnightblue" points="530.196,-65.5001 520.196,-69 530.196,-72.5001 530.196,-65.5001"/>
</g>
<!-- Node6 -->
<g id="node12" class="node"><title>Node6</title>
<a xlink:href="../../de/d83/class_u_b_teacher_guide_edition_widget.html#a04c5f5c23abde12964e288ede60d9f16" target="_top" xlink:title="UBTeacherGuideEditionWidget\l::onActiveSceneChanged">
<polygon fill="white" stroke="black" points="556,-0 556,-34 708,-34 708,-0 556,-0"/>
<text text-anchor="start" x="564" y="-21" font-family="Helvetica,sans-Serif" font-size="10.00">UBTeacherGuideEditionWidget</text>
<text text-anchor="middle" x="632" y="-8" font-family="Helvetica,sans-Serif" font-size="10.00">::onActiveSceneChanged</text>
</a>
</g>
<!-- Node4&#45;&gt;Node6 -->
<g id="edge12" class="edge"><title>Node4&#45;&gt;Node6</title>
<path fill="none" stroke="midnightblue" d="M515.204,-49.3053C533.342,-44.2885 552.684,-38.9384 570.303,-34.065"/>
<polygon fill="midnightblue" stroke="midnightblue" points="514.263,-45.934 505.558,-51.9733 516.129,-52.6807 514.263,-45.934"/>
</g>
<!-- Node5&#45;&gt;Node3 -->
<g id="edge10" class="edge"><title>Node5&#45;&gt;Node3</title>
<path fill="none" stroke="midnightblue" d="M718.316,-69C726.798,-69 735.377,-69 743.782,-69"/>
<polygon fill="midnightblue" stroke="midnightblue" points="718.037,-65.5001 708.037,-69 718.037,-72.5001 718.037,-65.5001"/>
</g>
<!-- Node6&#45;&gt;Node3 -->
<g id="edge14" class="edge"><title>Node6&#45;&gt;Node3</title>
<path fill="none" stroke="midnightblue" d="M704.34,-36.6947C722.767,-41.7115 742.419,-47.0616 760.319,-51.935"/>
<polygon fill="midnightblue" stroke="midnightblue" points="705.109,-33.2766 694.541,-34.0267 703.27,-40.0308 705.109,-33.2766"/>
</g>
</g>
</svg>
