<?xml version="1.0" encoding="UTF-8" standalone="no"?>
<!DOCTYPE svg PUBLIC "-//W3C//DTD SVG 1.1//EN"
 "http://www.w3.org/Graphics/SVG/1.1/DTD/svg11.dtd">
<!-- Generated by graphviz version 2.26.3 (20100126.1600)
 -->
<!-- Title: UBDrawingController::setMarkerAlpha Pages: 1 -->
<svg width="602pt" height="174pt"
 viewBox="0.00 0.00 602.00 174.00" xmlns="http://www.w3.org/2000/svg" xmlns:xlink="http://www.w3.org/1999/xlink">
<g id="graph1" class="graph" transform="scale(1 1) rotate(0) translate(4 170)">
<title>UBDrawingController::setMarkerAlpha</title>
<polygon fill="white" stroke="white" points="-4,5 -4,-170 599,-170 599,5 -4,5"/>
<!-- Node1 -->
<g id="node1" class="node"><title>Node1</title>
<polygon fill="#bfbfbf" stroke="black" points="0.5,-69 0.5,-103 109.5,-103 109.5,-69 0.5,-69"/>
<text text-anchor="start" x="8.5" y="-90" font-family="Helvetica,sans-Serif" font-size="10.00">UBDrawingController</text>
<text text-anchor="middle" x="55" y="-77" font-family="Helvetica,sans-Serif" font-size="10.00">::setMarkerAlpha</text>
</g>
<!-- Node2 -->
<g id="node3" class="node"><title>Node2</title>
<a xlink:href="../../db/d66/class_u_b_settings.html#a0d8ed418921c2b2d37851faeae00715d" target="_top" xlink:title="UBSettings::settings">
<polygon fill="white" stroke="black" points="149.5,-144.5 149.5,-165.5 256.5,-165.5 256.5,-144.5 149.5,-144.5"/>
<text text-anchor="middle" x="203" y="-152.5" font-family="Helvetica,sans-Serif" font-size="10.00">UBSettings::settings</text>
</a>
</g>
<!-- Node1&#45;&gt;Node2 -->
<g id="edge2" class="edge"><title>Node1&#45;&gt;Node2</title>
<path fill="none" stroke="midnightblue" d="M83.9251,-103.08C101.527,-113.092 124.66,-125.58 146,-135 150.677,-137.065 155.64,-139.068 160.61,-140.959"/>
<polygon fill="midnightblue" stroke="midnightblue" points="159.51,-144.283 170.104,-144.443 161.922,-137.712 159.51,-144.283"/>
</g>
<!-- Node3 -->
<g id="node5" class="node"><title>Node3</title>
<a xlink:href="../../da/df0/class_u_b_color_list_setting.html#aa066d19edae3dfda0f6e8fa6bacdfbe1" target="_top" xlink:title="UBColorListSetting\l::setAlpha">
<polygon fill="white" stroke="black" points="152.5,-92 152.5,-126 253.5,-126 253.5,-92 152.5,-92"/>
<text text-anchor="start" x="160.5" y="-113" font-family="Helvetica,sans-Serif" font-size="10.00">UBColorListSetting</text>
<text text-anchor="middle" x="203" y="-100" font-family="Helvetica,sans-Serif" font-size="10.00">::setAlpha</text>
</a>
</g>
<!-- Node1&#45;&gt;Node3 -->
<g id="edge4" class="edge"><title>Node1&#45;&gt;Node3</title>
<path fill="none" stroke="midnightblue" d="M109.689,-94.499C120.297,-96.1476 131.475,-97.8846 142.263,-99.5612"/>
<polygon fill="midnightblue" stroke="midnightblue" points="142.038,-103.068 152.457,-101.145 143.113,-96.1511 142.038,-103.068"/>
</g>
<!-- Node6 -->
<g id="node11" class="node"><title>Node6</title>
<a xlink:href="../../d7/d24/class_u_b_setting.html#a5dc12b91ffabb031a3a7a8322f5d30ed" target="_top" xlink:title="UBSetting::set">
<polygon fill="white" stroke="black" points="162.5,-52.5 162.5,-73.5 243.5,-73.5 243.5,-52.5 162.5,-52.5"/>
<text text-anchor="middle" x="203" y="-60.5" font-family="Helvetica,sans-Serif" font-size="10.00">UBSetting::set</text>
</a>
</g>
<!-- Node1&#45;&gt;Node6 -->
<g id="edge10" class="edge"><title>Node1&#45;&gt;Node6</title>
<path fill="none" stroke="midnightblue" d="M109.689,-77.501C123.6,-75.3392 138.49,-73.0252 152.198,-70.8949"/>
<polygon fill="midnightblue" stroke="midnightblue" points="153.071,-74.3014 162.415,-69.3072 151.996,-67.3844 153.071,-74.3014"/>
</g>
<!-- Node9 -->
<g id="node17" class="node"><title>Node9</title>
<a xlink:href="../../d0/d58/class_u_b_drawing_controller.html#a6f11f789e8f99d826910541657502b35" target="_top" xlink:title="UBDrawingController\l::colorPaletteChanged">
<polygon fill="white" stroke="black" points="146.5,-0 146.5,-34 259.5,-34 259.5,-0 146.5,-0"/>
<text text-anchor="start" x="154.5" y="-21" font-family="Helvetica,sans-Serif" font-size="10.00">UBDrawingController</text>
<text text-anchor="middle" x="203" y="-8" font-family="Helvetica,sans-Serif" font-size="10.00">::colorPaletteChanged</text>
</a>
</g>
<!-- Node1&#45;&gt;Node9 -->
<g id="edge16" class="edge"><title>Node1&#45;&gt;Node9</title>
<path fill="none" stroke="midnightblue" d="M90.8208,-68.9373C107.56,-60.9992 127.774,-51.4624 146,-43 149.302,-41.467 152.714,-39.8904 156.153,-38.3078"/>
<polygon fill="midnightblue" stroke="midnightblue" points="157.626,-41.4828 165.255,-34.1307 154.706,-35.1208 157.626,-41.4828"/>
</g>
<!-- Node4 -->
<g id="node7" class="node"><title>Node4</title>
<a xlink:href="../../db/d66/class_u_b_settings.html#a2b1e6e2f5e03999de41ee2cdf99cdd0a" target="_top" xlink:title="UBSettings::colorChanged">
<polygon fill="white" stroke="black" points="296.5,-98.5 296.5,-119.5 429.5,-119.5 429.5,-98.5 296.5,-98.5"/>
<text text-anchor="middle" x="363" y="-106.5" font-family="Helvetica,sans-Serif" font-size="10.00">UBSettings::colorChanged</text>
</a>
</g>
<!-- Node3&#45;&gt;Node4 -->
<g id="edge6" class="edge"><title>Node3&#45;&gt;Node4</title>
<path fill="none" stroke="midnightblue" d="M253.625,-109C263.999,-109 275.138,-109 286.196,-109"/>
<polygon fill="midnightblue" stroke="midnightblue" points="286.304,-112.5 296.304,-109 286.304,-105.5 286.304,-112.5"/>
</g>
<!-- Node5 -->
<g id="node9" class="node"><title>Node5</title>
<a xlink:href="../../db/d66/class_u_b_settings.html#a982d08ba0c3cc28ee49f240814a8ae57" target="_top" xlink:title="UBSettings::colorContext\lChanged">
<polygon fill="white" stroke="black" points="466,-92 466,-126 594,-126 594,-92 466,-92"/>
<text text-anchor="start" x="474" y="-113" font-family="Helvetica,sans-Serif" font-size="10.00">UBSettings::colorContext</text>
<text text-anchor="middle" x="530" y="-100" font-family="Helvetica,sans-Serif" font-size="10.00">Changed</text>
</a>
</g>
<!-- Node4&#45;&gt;Node5 -->
<g id="edge8" class="edge"><title>Node4&#45;&gt;Node5</title>
<path fill="none" stroke="midnightblue" d="M429.963,-109C438.35,-109 446.968,-109 455.462,-109"/>
<polygon fill="midnightblue" stroke="midnightblue" points="455.736,-112.5 465.736,-109 455.736,-105.5 455.736,-112.5"/>
</g>
<!-- Node7 -->
<g id="node13" class="node"><title>Node7</title>
<a xlink:href="../../db/d66/class_u_b_settings.html#acf2a7dc86ac6849cdae8ad611ba71878" target="_top" xlink:title="UBSettings::setValue">
<polygon fill="white" stroke="black" points="307.5,-55.5 307.5,-76.5 418.5,-76.5 418.5,-55.5 307.5,-55.5"/>
<text text-anchor="middle" x="363" y="-63.5" font-family="Helvetica,sans-Serif" font-size="10.00">UBSettings::setValue</text>
</a>
</g>
<!-- Node6&#45;&gt;Node7 -->
<g id="edge12" class="edge"><title>Node6&#45;&gt;Node7</title>
<path fill="none" stroke="midnightblue" d="M243.789,-63.7648C260.04,-64.0695 279.16,-64.428 297.271,-64.7676"/>
<polygon fill="midnightblue" stroke="midnightblue" points="297.431,-68.2711 307.495,-64.9593 297.562,-61.2723 297.431,-68.2711"/>
</g>
<!-- Node8 -->
<g id="node15" class="node"><title>Node8</title>
<a xlink:href="../../d7/d24/class_u_b_setting.html#a0f7d1e100a9d7d35a58c818a356702c7" target="_top" xlink:title="UBSetting::changed">
<polygon fill="white" stroke="black" points="311,-15.5 311,-36.5 415,-36.5 415,-15.5 311,-15.5"/>
<text text-anchor="middle" x="363" y="-23.5" font-family="Helvetica,sans-Serif" font-size="10.00">UBSetting::changed</text>
</a>
</g>
<!-- Node6&#45;&gt;Node8 -->
<g id="edge14" class="edge"><title>Node6&#45;&gt;Node8</title>
<path fill="none" stroke="midnightblue" d="M243.789,-53.5676C263.211,-49.0762 286.73,-43.6374 307.728,-38.7815"/>
<polygon fill="midnightblue" stroke="midnightblue" points="308.535,-42.1875 317.489,-36.5244 306.958,-35.3675 308.535,-42.1875"/>
</g>
</g>
</svg>
