<?xml version="1.0" encoding="UTF-8" standalone="no"?>
<!DOCTYPE svg PUBLIC "-//W3C//DTD SVG 1.1//EN"
 "http://www.w3.org/Graphics/SVG/1.1/DTD/svg11.dtd">
<!-- Generated by graphviz version 2.26.3 (20100126.1600)
 -->
<!-- Title: UBDrawingController::setColorIndex Pages: 1 -->
<!--zoomable 226 -->
<svg id="main" version="1.1" xmlns="http://www.w3.org/2000/svg" xmlns:xlink="http://www.w3.org/1999/xlink" xml:space="preserve" onload="init(evt)">
        <defs>
                <circle id="rim" cx="0" cy="0" r="7"/>
                <circle id="rim2" cx="0" cy="0" r="3.5"/>
                <g id="zoomPlus">
                        <use xlink:href="#rim" fill="#404040">
                                <set attributeName="fill" to="#808080" begin="zoomplus.mouseover" end="zoomplus.mouseout"/>
                        </use>
                        <path d="M-4,0h8M0,-4v8" fill="none" stroke="white" stroke-width="1.5" pointer-events="none"/>
                </g>
                <g id="zoomMin">
                        <use xlink:href="#rim" fill="#404040">
                                <set attributeName="fill" to="#808080" begin="zoomminus.mouseover" end="zoomminus.mouseout"/>
                        </use>
                        <path d="M-4,0h8" fill="none" stroke="white" stroke-width="1.5" pointer-events="none"/>
                </g>
                <g id="dirArrow">
                        <path fill="none" stroke="white" stroke-width="1.5" d="M0,-3.0v7 M-2.5,-0.5L0,-3.0L2.5,-0.5"/>
                </g>
               <g id="resetDef">
                       <use xlink:href="#rim2" fill="#404040">
                               <set attributeName="fill" to="#808080" begin="reset.mouseover" end="reset.mouseout"/>
                       </use>
               </g>
        </defs>

<script type="text/javascript">
var viewWidth = 624;
var viewHeight = 226;
var sectionId = 'dynsection-13';
</script>
<script xlink:href="../../svgpan.js"/>
<svg id="graph" class="graph">
<g id="viewport">
<title>UBDrawingController::setColorIndex</title>
<polygon fill="white" stroke="white" points="-4,5 -4,-222 621,-222 621,5 -4,5"/>
<!-- Node1 -->
<g id="node1" class="node"><title>Node1</title>
<polygon fill="#bfbfbf" stroke="black" points="0.5,-92 0.5,-126 109.5,-126 109.5,-92 0.5,-92"/>
<text text-anchor="start" x="8.5" y="-113" font-family="Helvetica,sans-Serif" font-size="10.00">UBDrawingController</text>
<text text-anchor="middle" x="55" y="-100" font-family="Helvetica,sans-Serif" font-size="10.00">::setColorIndex</text>
</g>
<!-- Node2 -->
<g id="node3" class="node"><title>Node2</title>
<a xlink:href="../../db/d66/class_u_b_settings.html#a0d8ed418921c2b2d37851faeae00715d" target="_top" xlink:title="UBSettings::settings">
<polygon fill="white" stroke="black" points="168.5,-196.5 168.5,-217.5 275.5,-217.5 275.5,-196.5 168.5,-196.5"/>
<text text-anchor="middle" x="222" y="-204.5" font-family="Helvetica,sans-Serif" font-size="10.00">UBSettings::settings</text>
</a>
</g>
<!-- Node1&#45;&gt;Node2 -->
<g id="edge2" class="edge"><title>Node1&#45;&gt;Node2</title>
<path fill="none" stroke="midnightblue" d="M70.4106,-126.166C87.2835,-143.933 115.962,-171.248 146,-187 150.305,-189.257 154.883,-191.274 159.575,-193.072"/>
<polygon fill="midnightblue" stroke="midnightblue" points="158.722,-196.481 169.317,-196.467 161.025,-189.871 158.722,-196.481"/>
</g>
<!-- Node3 -->
<g id="node5" class="node"><title>Node3</title>
<a xlink:href="../../d0/d58/class_u_b_drawing_controller.html#a244d6a9a4638309428bcf0c29531b872" target="_top" xlink:title="UBDrawingController\l::stylusTool">
<polygon fill="white" stroke="black" points="167.5,-144 167.5,-178 276.5,-178 276.5,-144 167.5,-144"/>
<text text-anchor="start" x="175.5" y="-165" font-family="Helvetica,sans-Serif" font-size="10.00">UBDrawingController</text>
<text text-anchor="middle" x="222" y="-152" font-family="Helvetica,sans-Serif" font-size="10.00">::stylusTool</text>
</a>
</g>
<!-- Node1&#45;&gt;Node3 -->
<g id="edge4" class="edge"><title>Node1&#45;&gt;Node3</title>
<path fill="none" stroke="midnightblue" d="M109.682,-126.027C125.043,-130.81 141.888,-136.055 157.752,-140.995"/>
<polygon fill="midnightblue" stroke="midnightblue" points="156.892,-144.393 167.48,-144.024 158.973,-137.709 156.892,-144.393"/>
</g>
<!-- Node4 -->
<g id="node7" class="node"><title>Node4</title>
<a xlink:href="../../db/d66/class_u_b_settings.html#a9016ec901a0d81130998a09a6afdc335" target="_top" xlink:title="UBSettings::setMarkerColor\lIndex">
<polygon fill="white" stroke="black" points="152,-92 152,-126 292,-126 292,-92 152,-92"/>
<text text-anchor="start" x="160" y="-113" font-family="Helvetica,sans-Serif" font-size="10.00">UBSettings::setMarkerColor</text>
<text text-anchor="middle" x="222" y="-100" font-family="Helvetica,sans-Serif" font-size="10.00">Index</text>
</a>
</g>
<!-- Node1&#45;&gt;Node4 -->
<g id="edge6" class="edge"><title>Node1&#45;&gt;Node4</title>
<path fill="none" stroke="midnightblue" d="M109.682,-109C119.918,-109 130.813,-109 141.638,-109"/>
<polygon fill="midnightblue" stroke="midnightblue" points="141.971,-112.5 151.971,-109 141.971,-105.5 141.971,-112.5"/>
</g>
<!-- Node8 -->
<g id="node15" class="node"><title>Node8</title>
<a xlink:href="../../db/d66/class_u_b_settings.html#acc0c7274abb6e7ea12f6912209793f4d" target="_top" xlink:title="UBSettings::setPenColorIndex">
<polygon fill="white" stroke="black" points="146.5,-52.5 146.5,-73.5 297.5,-73.5 297.5,-52.5 146.5,-52.5"/>
<text text-anchor="middle" x="222" y="-60.5" font-family="Helvetica,sans-Serif" font-size="10.00">UBSettings::setPenColorIndex</text>
</a>
</g>
<!-- Node1&#45;&gt;Node8 -->
<g id="edge14" class="edge"><title>Node1&#45;&gt;Node8</title>
<path fill="none" stroke="midnightblue" d="M109.806,-93.1401C121.724,-89.7473 134.275,-86.2175 146,-83 154.227,-80.7424 162.97,-78.3944 171.485,-76.1348"/>
<polygon fill="midnightblue" stroke="midnightblue" points="172.558,-79.4716 181.332,-73.5337 170.77,-72.7037 172.558,-79.4716"/>
</g>
<!-- Node10 -->
<g id="node21" class="node"><title>Node10</title>
<a xlink:href="../../d0/d58/class_u_b_drawing_controller.html#a42605540fe8451289997d9b61a89e642" target="_top" xlink:title="UBDrawingController\l::colorIndexChanged">
<polygon fill="white" stroke="black" points="167.5,-0 167.5,-34 276.5,-34 276.5,-0 167.5,-0"/>
<text text-anchor="start" x="175.5" y="-21" font-family="Helvetica,sans-Serif" font-size="10.00">UBDrawingController</text>
<text text-anchor="middle" x="222" y="-8" font-family="Helvetica,sans-Serif" font-size="10.00">::colorIndexChanged</text>
</a>
</g>
<!-- Node1&#45;&gt;Node10 -->
<g id="edge22" class="edge"><title>Node1&#45;&gt;Node10</title>
<path fill="none" stroke="midnightblue" d="M74.8155,-91.9361C92.5239,-77.3668 119.668,-56.6606 146,-43 149.76,-41.0494 153.698,-39.1956 157.718,-37.4432"/>
<polygon fill="midnightblue" stroke="midnightblue" points="159.288,-40.5821 167.204,-33.5402 156.624,-34.1086 159.288,-40.5821"/>
</g>
<!-- Node5 -->
<g id="node9" class="node"><title>Node5</title>
<a xlink:href="../../db/d66/class_u_b_settings.html#a74efce0dd871313e0c9cabdc84a0a5d0" target="_top" xlink:title="UBSettings::markerColorIndex">
<polygon fill="white" stroke="black" points="334,-115.5 334,-136.5 484,-136.5 484,-115.5 334,-115.5"/>
<text text-anchor="middle" x="409" y="-123.5" font-family="Helvetica,sans-Serif" font-size="10.00">UBSettings::markerColorIndex</text>
</a>
</g>
<!-- Node4&#45;&gt;Node5 -->
<g id="edge8" class="edge"><title>Node4&#45;&gt;Node5</title>
<path fill="none" stroke="midnightblue" d="M292.164,-115.379C302.452,-116.314 313.143,-117.286 323.694,-118.245"/>
<polygon fill="midnightblue" stroke="midnightblue" points="323.473,-121.739 333.749,-119.159 324.107,-114.768 323.473,-121.739"/>
</g>
<!-- Node7 -->
<g id="node13" class="node"><title>Node7</title>
<a xlink:href="../../db/d66/class_u_b_settings.html#acf2a7dc86ac6849cdae8ad611ba71878" target="_top" xlink:title="UBSettings::setValue">
<polygon fill="white" stroke="black" points="353.5,-75.5 353.5,-96.5 464.5,-96.5 464.5,-75.5 353.5,-75.5"/>
<text text-anchor="middle" x="409" y="-83.5" font-family="Helvetica,sans-Serif" font-size="10.00">UBSettings::setValue</text>
</a>
</g>
<!-- Node4&#45;&gt;Node7 -->
<g id="edge12" class="edge"><title>Node4&#45;&gt;Node7</title>
<path fill="none" stroke="midnightblue" d="M292.164,-100.37C308.9,-98.3118 326.701,-96.1223 343.231,-94.0893"/>
<polygon fill="midnightblue" stroke="midnightblue" points="343.84,-97.5408 353.338,-92.8461 342.985,-90.5932 343.84,-97.5408"/>
</g>
<!-- Node6 -->
<g id="node11" class="node"><title>Node6</title>
<a xlink:href="../../db/d66/class_u_b_settings.html#a30f5b15068954099f41c054979593275" target="_top" xlink:title="UBSettings::value">
<polygon fill="white" stroke="black" points="520,-75.5 520,-96.5 616,-96.5 616,-75.5 520,-75.5"/>
<text text-anchor="middle" x="568" y="-83.5" font-family="Helvetica,sans-Serif" font-size="10.00">UBSettings::value</text>
</a>
</g>
<!-- Node5&#45;&gt;Node6 -->
<g id="edge10" class="edge"><title>Node5&#45;&gt;Node6</title>
<path fill="none" stroke="midnightblue" d="M450.775,-115.49C470.871,-110.435 495.154,-104.326 516.394,-98.9827"/>
<polygon fill="midnightblue" stroke="midnightblue" points="517.384,-102.343 526.228,-96.5087 515.676,-95.5543 517.384,-102.343"/>
</g>
<!-- Node8&#45;&gt;Node7 -->
<g id="edge20" class="edge"><title>Node8&#45;&gt;Node7</title>
<path fill="none" stroke="midnightblue" d="M297.521,-72.2887C312.675,-74.1526 328.484,-76.097 343.274,-77.916"/>
<polygon fill="midnightblue" stroke="midnightblue" points="342.977,-81.4058 353.329,-79.1528 343.831,-74.4581 342.977,-81.4058"/>
</g>
<!-- Node9 -->
<g id="node17" class="node"><title>Node9</title>
<a xlink:href="../../db/d66/class_u_b_settings.html#a92682392a72ab8c73355572de1a21672" target="_top" xlink:title="UBSettings::penColorIndex">
<polygon fill="white" stroke="black" points="341,-35.5 341,-56.5 477,-56.5 477,-35.5 341,-35.5"/>
<text text-anchor="middle" x="409" y="-43.5" font-family="Helvetica,sans-Serif" font-size="10.00">UBSettings::penColorIndex</text>
</a>
</g>
<!-- Node8&#45;&gt;Node9 -->
<g id="edge16" class="edge"><title>Node8&#45;&gt;Node9</title>
<path fill="none" stroke="midnightblue" d="M297.521,-56.1345C308.464,-55.1397 319.748,-54.1138 330.743,-53.1143"/>
<polygon fill="midnightblue" stroke="midnightblue" points="331.099,-56.5964 340.741,-52.2053 330.466,-49.6251 331.099,-56.5964"/>
</g>
<!-- Node9&#45;&gt;Node6 -->
<g id="edge18" class="edge"><title>Node9&#45;&gt;Node6</title>
<path fill="none" stroke="midnightblue" d="M450.775,-56.5095C470.871,-61.5651 495.154,-67.6739 516.394,-73.0173"/>
<polygon fill="midnightblue" stroke="midnightblue" points="515.676,-76.4457 526.228,-75.4913 517.384,-69.6573 515.676,-76.4457"/>
</g>
</g>
</svg>
        <g id="navigator" transform="translate(0 0)" fill="#404254">
                <rect fill="#f2f5e9" fill-opacity="0.5" stroke="#606060" stroke-width=".5" x="0" y="0" width="60" height="60"/>
                <use id="zoomplus" xlink:href="#zoomPlus" x="17" y="9" onmousedown="handleZoom(evt,'in')"/>
                <use id="zoomminus" xlink:href="#zoomMin" x="42" y="9" onmousedown="handleZoom(evt,'out')"/>
                <use id="reset" xlink:href="#resetDef" x="30" y="36" onmousedown="handleReset()"/>
                <g id="arrowUp" xlink:href="#dirArrow" transform="translate(30 24)" onmousedown="handlePan(0,-1)">
                  <use xlink:href="#rim" fill="#404040">
                        <set attributeName="fill" to="#808080" begin="arrowUp.mouseover" end="arrowUp.mouseout"/>
                  </use>
                  <path fill="none" stroke="white" stroke-width="1.5" d="M0,-3.0v7 M-2.5,-0.5L0,-3.0L2.5,-0.5"/>
                </g>
                <g id="arrowRight" xlink:href="#dirArrow" transform="rotate(90) translate(36 -43)" onmousedown="handlePan(1,0)">
                  <use xlink:href="#rim" fill="#404040">
                        <set attributeName="fill" to="#808080" begin="arrowRight.mouseover" end="arrowRight.mouseout"/>
                  </use>
                  <path fill="none" stroke="white" stroke-width="1.5" d="M0,-3.0v7 M-2.5,-0.5L0,-3.0L2.5,-0.5"/>
                </g>
                <g id="arrowDown" xlink:href="#dirArrow" transform="rotate(180) translate(-30 -48)" onmousedown="handlePan(0,1)">
                  <use xlink:href="#rim" fill="#404040">
                        <set attributeName="fill" to="#808080" begin="arrowDown.mouseover" end="arrowDown.mouseout"/>
                  </use>
                  <path fill="none" stroke="white" stroke-width="1.5" d="M0,-3.0v7 M-2.5,-0.5L0,-3.0L2.5,-0.5"/>
                </g>
                <g id="arrowLeft" xlink:href="#dirArrow" transform="rotate(270) translate(-36 17)" onmousedown="handlePan(-1,0)">
                  <use xlink:href="#rim" fill="#404040">
                        <set attributeName="fill" to="#808080" begin="arrowLeft.mouseover" end="arrowLeft.mouseout"/>
                  </use>
                  <path fill="none" stroke="white" stroke-width="1.5" d="M0,-3.0v7 M-2.5,-0.5L0,-3.0L2.5,-0.5"/>
                </g>
        </g>
        <svg viewBox="0 0 15 15" width="100%" height="30px" preserveAspectRatio="xMaxYMin meet">
         <g id="arrow_out" transform="scale(0.3 0.3)">
          <a xlink:href="class_u_b_drawing_controller_a51849b177dc6bed87fd110056627ae94_cgraph_org.svg" target="_base">
           <rect id="button" ry="5" rx="5" y="6" x="6" height="38" width="38"
                fill="#f2f5e9" fill-opacity="0.5" stroke="#606060" stroke-width="1.0"/>
           <path id="arrow"
             d="M 11.500037,31.436501 C 11.940474,20.09759 22.043105,11.32322 32.158766,21.979434 L 37.068811,17.246167 C 37.068811,17.246167 37.088388,32 37.088388,32 L 22.160133,31.978069 C 22.160133,31.978069 26.997745,27.140456 26.997745,27.140456 C 18.528582,18.264221 13.291696,25.230495 11.500037,31.436501 z"
             style="fill:#404040;"/>
          </a>
         </g>
        </svg>
</svg>
