<?xml version="1.0" encoding="UTF-8" standalone="no"?>
<!DOCTYPE svg PUBLIC "-//W3C//DTD SVG 1.1//EN"
 "http://www.w3.org/Graphics/SVG/1.1/DTD/svg11.dtd">
<!-- Generated by graphviz version 2.26.3 (20100126.1600)
 -->
<!-- Title: UBDrawingController::toolColor Pages: 1 -->
<svg width="604pt" height="202pt"
 viewBox="0.00 0.00 604.00 202.00" xmlns="http://www.w3.org/2000/svg" xmlns:xlink="http://www.w3.org/1999/xlink">
<g id="graph1" class="graph" transform="scale(1 1) rotate(0) translate(4 198)">
<title>UBDrawingController::toolColor</title>
<polygon fill="white" stroke="white" points="-4,5 -4,-198 601,-198 601,5 -4,5"/>
<!-- Node1 -->
<g id="node1" class="node"><title>Node1</title>
<polygon fill="#bfbfbf" stroke="black" points="0.5,-94 0.5,-128 109.5,-128 109.5,-94 0.5,-94"/>
<text text-anchor="start" x="8.5" y="-115" font-family="Helvetica,sans-Serif" font-size="10.00">UBDrawingController</text>
<text text-anchor="middle" x="55" y="-102" font-family="Helvetica,sans-Serif" font-size="10.00">::toolColor</text>
</g>
<!-- Node2 -->
<g id="node3" class="node"><title>Node2</title>
<a xlink:href="../../d0/d58/class_u_b_drawing_controller.html#a244d6a9a4638309428bcf0c29531b872" target="_top" xlink:title="UBDrawingController\l::stylusTool">
<polygon fill="white" stroke="black" points="154.5,-160 154.5,-194 263.5,-194 263.5,-160 154.5,-160"/>
<text text-anchor="start" x="162.5" y="-181" font-family="Helvetica,sans-Serif" font-size="10.00">UBDrawingController</text>
<text text-anchor="middle" x="209" y="-168" font-family="Helvetica,sans-Serif" font-size="10.00">::stylusTool</text>
</a>
</g>
<!-- Node1&#45;&gt;Node2 -->
<g id="edge2" class="edge"><title>Node1&#45;&gt;Node2</title>
<path fill="none" stroke="midnightblue" d="M93.4383,-128.127C109.628,-135.281 128.695,-143.627 146,-151 149.858,-152.644 153.854,-154.33 157.878,-156.017"/>
<polygon fill="midnightblue" stroke="midnightblue" points="156.685,-159.312 167.262,-159.931 159.38,-152.851 156.685,-159.312"/>
</g>
<!-- Node3 -->
<g id="node5" class="node"><title>Node3</title>
<a xlink:href="../../db/d66/class_u_b_settings.html#a0d8ed418921c2b2d37851faeae00715d" target="_top" xlink:title="UBSettings::settings">
<polygon fill="white" stroke="black" points="155.5,-120.5 155.5,-141.5 262.5,-141.5 262.5,-120.5 155.5,-120.5"/>
<text text-anchor="middle" x="209" y="-128.5" font-family="Helvetica,sans-Serif" font-size="10.00">UBSettings::settings</text>
</a>
</g>
<!-- Node1&#45;&gt;Node3 -->
<g id="edge4" class="edge"><title>Node1&#45;&gt;Node3</title>
<path fill="none" stroke="midnightblue" d="M109.728,-118.108C121.229,-119.601 133.456,-121.189 145.254,-122.721"/>
<polygon fill="midnightblue" stroke="midnightblue" points="145.115,-126.233 155.483,-124.05 146.017,-119.291 145.115,-126.233"/>
</g>
<!-- Node4 -->
<g id="node7" class="node"><title>Node4</title>
<a xlink:href="../../db/d66/class_u_b_settings.html#a27b620db7e6282d277935289450229a6" target="_top" xlink:title="UBSettings::penColor">
<polygon fill="white" stroke="black" points="153,-80.5 153,-101.5 265,-101.5 265,-80.5 153,-80.5"/>
<text text-anchor="middle" x="209" y="-88.5" font-family="Helvetica,sans-Serif" font-size="10.00">UBSettings::penColor</text>
</a>
</g>
<!-- Node1&#45;&gt;Node4 -->
<g id="edge6" class="edge"><title>Node1&#45;&gt;Node4</title>
<path fill="none" stroke="midnightblue" d="M109.728,-103.892C120.451,-102.5 131.805,-101.025 142.854,-99.5904"/>
<polygon fill="midnightblue" stroke="midnightblue" points="143.423,-103.046 152.888,-98.2872 142.521,-96.1043 143.423,-103.046"/>
</g>
<!-- Node9 -->
<g id="node17" class="node"><title>Node9</title>
<a xlink:href="../../db/d66/class_u_b_settings.html#a500571c8d157287ae6135eed3651159e" target="_top" xlink:title="UBSettings::markerColor">
<polygon fill="white" stroke="black" points="146,-40.5 146,-61.5 272,-61.5 272,-40.5 146,-40.5"/>
<text text-anchor="middle" x="209" y="-48.5" font-family="Helvetica,sans-Serif" font-size="10.00">UBSettings::markerColor</text>
</a>
</g>
<!-- Node1&#45;&gt;Node9 -->
<g id="edge16" class="edge"><title>Node1&#45;&gt;Node9</title>
<path fill="none" stroke="midnightblue" d="M91.3821,-93.9442C107.886,-86.484 127.754,-77.8837 146,-71 151.64,-68.8721 157.618,-66.7753 163.558,-64.7866"/>
<polygon fill="midnightblue" stroke="midnightblue" points="165.033,-67.9869 173.452,-61.5551 162.86,-61.3328 165.033,-67.9869"/>
</g>
<!-- Node5 -->
<g id="node9" class="node"><title>Node5</title>
<a xlink:href="../../db/d66/class_u_b_settings.html#aedb07c4d22207e705dfabfe7497d078d" target="_top" xlink:title="UBSettings::penColors">
<polygon fill="white" stroke="black" points="324.5,-120.5 324.5,-141.5 441.5,-141.5 441.5,-120.5 324.5,-120.5"/>
<text text-anchor="middle" x="383" y="-128.5" font-family="Helvetica,sans-Serif" font-size="10.00">UBSettings::penColors</text>
</a>
</g>
<!-- Node4&#45;&gt;Node5 -->
<g id="edge8" class="edge"><title>Node4&#45;&gt;Node5</title>
<path fill="none" stroke="midnightblue" d="M254.716,-101.51C277.007,-106.634 304.004,-112.84 327.47,-118.235"/>
<polygon fill="midnightblue" stroke="midnightblue" points="326.757,-121.662 337.287,-120.491 328.325,-114.84 326.757,-121.662"/>
</g>
<!-- Node7 -->
<g id="node13" class="node"><title>Node7</title>
<a xlink:href="../../db/d66/class_u_b_settings.html#a92682392a72ab8c73355572de1a21672" target="_top" xlink:title="UBSettings::penColorIndex">
<polygon fill="white" stroke="black" points="315,-80.5 315,-101.5 451,-101.5 451,-80.5 315,-80.5"/>
<text text-anchor="middle" x="383" y="-88.5" font-family="Helvetica,sans-Serif" font-size="10.00">UBSettings::penColorIndex</text>
</a>
</g>
<!-- Node4&#45;&gt;Node7 -->
<g id="edge12" class="edge"><title>Node4&#45;&gt;Node7</title>
<path fill="none" stroke="midnightblue" d="M265.012,-91C277.679,-91 291.354,-91 304.749,-91"/>
<polygon fill="midnightblue" stroke="midnightblue" points="304.917,-94.5001 314.917,-91 304.917,-87.5001 304.917,-94.5001"/>
</g>
<!-- Node6 -->
<g id="node11" class="node"><title>Node6</title>
<a xlink:href="../../da/df0/class_u_b_color_list_setting.html#a033ee9638cea8e690183c285fd62ea1f" target="_top" xlink:title="UBColorListSetting\l::colors">
<polygon fill="white" stroke="black" points="494.5,-95 494.5,-129 595.5,-129 595.5,-95 494.5,-95"/>
<text text-anchor="start" x="502.5" y="-116" font-family="Helvetica,sans-Serif" font-size="10.00">UBColorListSetting</text>
<text text-anchor="middle" x="545" y="-103" font-family="Helvetica,sans-Serif" font-size="10.00">::colors</text>
</a>
</g>
<!-- Node5&#45;&gt;Node6 -->
<g id="edge10" class="edge"><title>Node5&#45;&gt;Node6</title>
<path fill="none" stroke="midnightblue" d="M441.944,-124.087C455.776,-122.465 470.536,-120.733 484.438,-119.103"/>
<polygon fill="midnightblue" stroke="midnightblue" points="484.858,-122.578 494.383,-117.937 484.043,-115.625 484.858,-122.578"/>
</g>
<!-- Node8 -->
<g id="node15" class="node"><title>Node8</title>
<a xlink:href="../../db/d66/class_u_b_settings.html#a30f5b15068954099f41c054979593275" target="_top" xlink:title="UBSettings::value">
<polygon fill="white" stroke="black" points="497,-18.5 497,-39.5 593,-39.5 593,-18.5 497,-18.5"/>
<text text-anchor="middle" x="545" y="-26.5" font-family="Helvetica,sans-Serif" font-size="10.00">UBSettings::value</text>
</a>
</g>
<!-- Node7&#45;&gt;Node8 -->
<g id="edge14" class="edge"><title>Node7&#45;&gt;Node8</title>
<path fill="none" stroke="midnightblue" d="M428.249,-80.415C438.163,-77.6867 448.524,-74.5148 458,-71 478.112,-63.5401 499.844,-53.0508 516.556,-44.4212"/>
<polygon fill="midnightblue" stroke="midnightblue" points="518.535,-47.3356 525.766,-39.592 515.285,-41.1361 518.535,-47.3356"/>
</g>
<!-- Node10 -->
<g id="node19" class="node"><title>Node10</title>
<a xlink:href="../../db/d66/class_u_b_settings.html#a3796f6c804d5079753f29d253facee99" target="_top" xlink:title="UBSettings::markerColors">
<polygon fill="white" stroke="black" points="317.5,-40.5 317.5,-61.5 448.5,-61.5 448.5,-40.5 317.5,-40.5"/>
<text text-anchor="middle" x="383" y="-48.5" font-family="Helvetica,sans-Serif" font-size="10.00">UBSettings::markerColors</text>
</a>
</g>
<!-- Node9&#45;&gt;Node10 -->
<g id="edge18" class="edge"><title>Node9&#45;&gt;Node10</title>
<path fill="none" stroke="midnightblue" d="M272.31,-51C283.659,-51 295.589,-51 307.246,-51"/>
<polygon fill="midnightblue" stroke="midnightblue" points="307.397,-54.5001 317.397,-51 307.397,-47.5001 307.397,-54.5001"/>
</g>
<!-- Node11 -->
<g id="node22" class="node"><title>Node11</title>
<a xlink:href="../../db/d66/class_u_b_settings.html#a74efce0dd871313e0c9cabdc84a0a5d0" target="_top" xlink:title="UBSettings::markerColorIndex">
<polygon fill="white" stroke="black" points="308,-0.5 308,-21.5 458,-21.5 458,-0.5 308,-0.5"/>
<text text-anchor="middle" x="383" y="-8.5" font-family="Helvetica,sans-Serif" font-size="10.00">UBSettings::markerColorIndex</text>
</a>
</g>
<!-- Node9&#45;&gt;Node11 -->
<g id="edge22" class="edge"><title>Node9&#45;&gt;Node11</title>
<path fill="none" stroke="midnightblue" d="M254.716,-40.4905C277.007,-35.3663 304.004,-29.1601 327.47,-23.7655"/>
<polygon fill="midnightblue" stroke="midnightblue" points="328.325,-27.1602 337.287,-21.5087 326.757,-20.3382 328.325,-27.1602"/>
</g>
<!-- Node10&#45;&gt;Node6 -->
<g id="edge20" class="edge"><title>Node10&#45;&gt;Node6</title>
<path fill="none" stroke="midnightblue" d="M427.828,-61.5428C437.863,-64.292 448.381,-67.4834 458,-71 472.908,-76.4502 488.741,-83.5063 502.756,-90.224"/>
<polygon fill="midnightblue" stroke="midnightblue" points="501.612,-93.5601 512.134,-94.7968 504.68,-87.2682 501.612,-93.5601"/>
</g>
<!-- Node11&#45;&gt;Node8 -->
<g id="edge24" class="edge"><title>Node11&#45;&gt;Node8</title>
<path fill="none" stroke="midnightblue" d="M458.309,-19.3677C467.794,-20.4216 477.384,-21.4871 486.555,-22.5061"/>
<polygon fill="midnightblue" stroke="midnightblue" points="486.378,-26.0079 496.703,-23.6337 487.151,-19.0507 486.378,-26.0079"/>
</g>
</g>
</svg>
