<?xml version="1.0" encoding="UTF-8" standalone="no"?>
<!DOCTYPE svg PUBLIC "-//W3C//DTD SVG 1.1//EN"
 "http://www.w3.org/Graphics/SVG/1.1/DTD/svg11.dtd">
<!-- Generated by graphviz version 2.26.3 (20100126.1600)
 -->
<!-- Title: UBGraphicsStroke::UBGraphicsStroke Pages: 1 -->
<svg width="748pt" height="82pt"
 viewBox="0.00 0.00 748.00 82.00" xmlns="http://www.w3.org/2000/svg" xmlns:xlink="http://www.w3.org/1999/xlink">
<g id="graph1" class="graph" transform="scale(1 1) rotate(0) translate(4 78)">
<title>UBGraphicsStroke::UBGraphicsStroke</title>
<polygon fill="white" stroke="white" points="-4,5 -4,-78 745,-78 745,5 -4,5"/>
<!-- Node1 -->
<g id="node1" class="node"><title>Node1</title>
<polygon fill="#bfbfbf" stroke="black" points="0,-23 0,-57 158,-57 158,-23 0,-23"/>
<text text-anchor="start" x="8" y="-44" font-family="Helvetica,sans-Serif" font-size="10.00">UBGraphicsStroke::UBGraphics</text>
<text text-anchor="middle" x="79" y="-31" font-family="Helvetica,sans-Serif" font-size="10.00">Stroke</text>
</g>
<!-- Node2 -->
<g id="node3" class="node"><title>Node2</title>
<a xlink:href="../../de/d75/class_u_b_graphics_stroke.html#adf2fb7f966fc2565bc4f37e67f8d93e7" target="_top" xlink:title="UBGraphicsStroke::deepCopy">
<polygon fill="white" stroke="black" points="194.5,-29.5 194.5,-50.5 343.5,-50.5 343.5,-29.5 194.5,-29.5"/>
<text text-anchor="middle" x="269" y="-37.5" font-family="Helvetica,sans-Serif" font-size="10.00">UBGraphicsStroke::deepCopy</text>
</a>
</g>
<!-- Node1&#45;&gt;Node2 -->
<g id="edge2" class="edge"><title>Node1&#45;&gt;Node2</title>
<path fill="none" stroke="midnightblue" d="M168.404,-40C177.135,-40 185.929,-40 194.49,-40"/>
<polygon fill="midnightblue" stroke="midnightblue" points="168.201,-36.5001 158.201,-40 168.201,-43.5001 168.201,-36.5001"/>
</g>
<!-- Node3 -->
<g id="node5" class="node"><title>Node3</title>
<a xlink:href="../../dc/db2/class_u_b_graphics_scene.html#a5d793edf48a0905e7dc1725b3f6da449" target="_top" xlink:title="UBGraphicsScene::sceneDeepCopy">
<polygon fill="white" stroke="black" points="380,-29.5 380,-50.5 556,-50.5 556,-29.5 380,-29.5"/>
<text text-anchor="middle" x="468" y="-37.5" font-family="Helvetica,sans-Serif" font-size="10.00">UBGraphicsScene::sceneDeepCopy</text>
</a>
</g>
<!-- Node2&#45;&gt;Node3 -->
<g id="edge4" class="edge"><title>Node2&#45;&gt;Node3</title>
<path fill="none" stroke="midnightblue" d="M353.725,-40C362.367,-40 371.161,-40 379.839,-40"/>
<polygon fill="midnightblue" stroke="midnightblue" points="353.666,-36.5001 343.666,-40 353.666,-43.5001 353.666,-36.5001"/>
</g>
<!-- Node4 -->
<g id="node7" class="node"><title>Node4</title>
<a xlink:href="../../dc/db2/class_u_b_graphics_scene.html#a27b80506198fc72a3039c90ebef7a0d3" target="_top" xlink:title="UBGraphicsScene::deepCopy">
<polygon fill="white" stroke="black" points="592,-52.5 592,-73.5 740,-73.5 740,-52.5 592,-52.5"/>
<text text-anchor="middle" x="666" y="-60.5" font-family="Helvetica,sans-Serif" font-size="10.00">UBGraphicsScene::deepCopy</text>
</a>
</g>
<!-- Node3&#45;&gt;Node4 -->
<g id="edge6" class="edge"><title>Node3&#45;&gt;Node4</title>
<path fill="none" stroke="midnightblue" d="M566.327,-51.4219C574.896,-52.4172 583.471,-53.4133 591.796,-54.3804"/>
<polygon fill="midnightblue" stroke="midnightblue" points="566.624,-47.9329 556.287,-50.2556 565.817,-54.8862 566.624,-47.9329"/>
</g>
<!-- Node5 -->
<g id="node9" class="node"><title>Node5</title>
<a xlink:href="../../d1/df2/class_u_b_document_tree_widget.html#aa309286550f7287e879b4e21b7036f22" target="_top" xlink:title="UBDocumentTreeWidget\l::dropEvent">
<polygon fill="white" stroke="black" points="603,-0 603,-34 729,-34 729,-0 603,-0"/>
<text text-anchor="start" x="611" y="-21" font-family="Helvetica,sans-Serif" font-size="10.00">UBDocumentTreeWidget</text>
<text text-anchor="middle" x="666" y="-8" font-family="Helvetica,sans-Serif" font-size="10.00">::dropEvent</text>
</a>
</g>
<!-- Node3&#45;&gt;Node5 -->
<g id="edge8" class="edge"><title>Node3&#45;&gt;Node5</title>
<path fill="none" stroke="midnightblue" d="M566.24,-28.5883C578.673,-27.144 591.122,-25.6979 602.803,-24.3411"/>
<polygon fill="midnightblue" stroke="midnightblue" points="565.817,-25.1138 556.287,-29.7444 566.624,-32.0671 565.817,-25.1138"/>
</g>
</g>
</svg>
