<?xml version="1.0" encoding="UTF-8" standalone="no"?>
<!DOCTYPE svg PUBLIC "-//W3C//DTD SVG 1.1//EN"
 "http://www.w3.org/Graphics/SVG/1.1/DTD/svg11.dtd">
<!-- Generated by graphviz version 2.26.3 (20100126.1600)
 -->
<!-- Title: UBZoomPalette::hide Pages: 1 -->
<svg width="506pt" height="49pt"
 viewBox="0.00 0.00 506.00 49.00" xmlns="http://www.w3.org/2000/svg" xmlns:xlink="http://www.w3.org/1999/xlink">
<g id="graph1" class="graph" transform="scale(1 1) rotate(0) translate(4 45)">
<title>UBZoomPalette::hide</title>
<polygon fill="white" stroke="white" points="-4,5 -4,-45 503,-45 503,5 -4,5"/>
<!-- Node1 -->
<g id="node1" class="node"><title>Node1</title>
<polygon fill="#bfbfbf" stroke="black" points="0,-19.5 0,-40.5 110,-40.5 110,-19.5 0,-19.5"/>
<text text-anchor="middle" x="55" y="-27.5" font-family="Helvetica,sans-Serif" font-size="10.00">UBZoomPalette::hide</text>
</g>
<!-- Node2 -->
<g id="node3" class="node"><title>Node2</title>
<a xlink:href="../../db/dbc/class_u_b_zoom_palette.html#a7f74e9a8df1069509c0ae86bbfec0c57" target="_top" xlink:title="UBZoomPalette::UBZoomPalette">
<polygon fill="white" stroke="black" points="336,-19.5 336,-40.5 498,-40.5 498,-19.5 336,-19.5"/>
<text text-anchor="middle" x="417" y="-27.5" font-family="Helvetica,sans-Serif" font-size="10.00">UBZoomPalette::UBZoomPalette</text>
</a>
</g>
<!-- Node1&#45;&gt;Node2 -->
<g id="edge2" class="edge"><title>Node1&#45;&gt;Node2</title>
<path fill="none" stroke="midnightblue" d="M120.379,-30.8048C128.996,-30.8856 137.71,-30.9545 146,-31 214.443,-31.3761 231.556,-31.2925 300,-31 311.578,-30.9505 323.801,-30.8735 335.807,-30.7837"/>
<polygon fill="midnightblue" stroke="midnightblue" points="120.375,-27.3047 110.34,-30.7053 120.305,-34.3044 120.375,-27.3047"/>
</g>
<!-- Node3 -->
<g id="node5" class="node"><title>Node3</title>
<a xlink:href="../../db/dbc/class_u_b_zoom_palette.html#a89f265cc2934490399de81977e2ef4f6" target="_top" xlink:title="UBZoomPalette::refreshPalette">
<polygon fill="white" stroke="black" points="146.5,-0.5 146.5,-21.5 299.5,-21.5 299.5,-0.5 146.5,-0.5"/>
<text text-anchor="middle" x="223" y="-8.5" font-family="Helvetica,sans-Serif" font-size="10.00">UBZoomPalette::refreshPalette</text>
</a>
</g>
<!-- Node1&#45;&gt;Node3 -->
<g id="edge4" class="edge"><title>Node1&#45;&gt;Node3</title>
<path fill="none" stroke="midnightblue" d="M119.955,-22.6539C128.557,-21.6811 137.44,-20.6764 146.217,-19.6838"/>
<polygon fill="midnightblue" stroke="midnightblue" points="119.553,-19.177 110.009,-23.7787 120.339,-26.1326 119.553,-19.177"/>
</g>
<!-- Node3&#45;&gt;Node2 -->
<g id="edge6" class="edge"><title>Node3&#45;&gt;Node2</title>
<path fill="none" stroke="midnightblue" d="M309.767,-19.4978C318.421,-20.3454 327.186,-21.2038 335.78,-22.0455"/>
<polygon fill="midnightblue" stroke="midnightblue" points="309.968,-16.0008 299.674,-18.5093 309.285,-22.9674 309.968,-16.0008"/>
</g>
</g>
</svg>
