<?xml version="1.0" encoding="UTF-8" standalone="no"?>
<!DOCTYPE svg PUBLIC "-//W3C//DTD SVG 1.1//EN"
 "http://www.w3.org/Graphics/SVG/1.1/DTD/svg11.dtd">
<!-- Generated by graphviz version 2.26.3 (20100126.1600)
 -->
<!-- Title: UBTeacherGuidePresentationWidget::onAddItemClicked Pages: 1 -->
<!--zoomable 175 -->
<svg id="main" version="1.1" xmlns="http://www.w3.org/2000/svg" xmlns:xlink="http://www.w3.org/1999/xlink" xml:space="preserve" onload="init(evt)">
        <defs>
                <circle id="rim" cx="0" cy="0" r="7"/>
                <circle id="rim2" cx="0" cy="0" r="3.5"/>
                <g id="zoomPlus">
                        <use xlink:href="#rim" fill="#404040">
                                <set attributeName="fill" to="#808080" begin="zoomplus.mouseover" end="zoomplus.mouseout"/>
                        </use>
                        <path d="M-4,0h8M0,-4v8" fill="none" stroke="white" stroke-width="1.5" pointer-events="none"/>
                </g>
                <g id="zoomMin">
                        <use xlink:href="#rim" fill="#404040">
                                <set attributeName="fill" to="#808080" begin="zoomminus.mouseover" end="zoomminus.mouseout"/>
                        </use>
                        <path d="M-4,0h8" fill="none" stroke="white" stroke-width="1.5" pointer-events="none"/>
                </g>
                <g id="dirArrow">
                        <path fill="none" stroke="white" stroke-width="1.5" d="M0,-3.0v7 M-2.5,-0.5L0,-3.0L2.5,-0.5"/>
                </g>
               <g id="resetDef">
                       <use xlink:href="#rim2" fill="#404040">
                               <set attributeName="fill" to="#808080" begin="reset.mouseover" end="reset.mouseout"/>
                       </use>
               </g>
        </defs>

<script type="text/javascript">
var viewWidth = 1028;
var viewHeight = 175;
var sectionId = 'dynsection-8';
</script>
<script xlink:href="../../svgpan.js"/>
<svg id="graph" class="graph">
<g id="viewport">
<title>UBTeacherGuidePresentationWidget::onAddItemClicked</title>
<polygon fill="white" stroke="white" points="-4,5 -4,-171 1025,-171 1025,5 -4,5"/>
<!-- Node1 -->
<g id="node1" class="node"><title>Node1</title>
<polygon fill="#bfbfbf" stroke="black" points="0,-96 0,-130 146,-130 146,-96 0,-96"/>
<text text-anchor="start" x="8" y="-117" font-family="Helvetica,sans-Serif" font-size="10.00">UBTeacherGuidePresentation</text>
<text text-anchor="middle" x="73" y="-104" font-family="Helvetica,sans-Serif" font-size="10.00">Widget::onAddItemClicked</text>
</g>
<!-- Node2 -->
<g id="node3" class="node"><title>Node2</title>
<a xlink:href="../../d2/d4d/class_u_b_teacher_guide_presentation_widget.html#ab4323827cb6a2947acc313d3c6048ac8" target="_top" xlink:title="UBTeacherGuidePresentation\lWidget::UBTeacherGuidePresentation\lWidget">
<polygon fill="white" stroke="black" points="182.5,-119.5 182.5,-166.5 365.5,-166.5 365.5,-119.5 182.5,-119.5"/>
<text text-anchor="start" x="190.5" y="-153.5" font-family="Helvetica,sans-Serif" font-size="10.00">UBTeacherGuidePresentation</text>
<text text-anchor="start" x="190.5" y="-140.5" font-family="Helvetica,sans-Serif" font-size="10.00">Widget::UBTeacherGuidePresentation</text>
<text text-anchor="middle" x="274" y="-127.5" font-family="Helvetica,sans-Serif" font-size="10.00">Widget</text>
</a>
</g>
<!-- Node1&#45;&gt;Node2 -->
<g id="edge2" class="edge"><title>Node1&#45;&gt;Node2</title>
<path fill="none" stroke="midnightblue" d="M156.192,-125.417C164.842,-126.708 173.668,-128.025 182.404,-129.329"/>
<polygon fill="midnightblue" stroke="midnightblue" points="156.541,-121.93 146.134,-123.916 155.508,-128.853 156.541,-121.93"/>
</g>
<!-- Node3 -->
<g id="node5" class="node"><title>Node3</title>
<a xlink:href="../../d2/d4d/class_u_b_teacher_guide_presentation_widget.html#a2b14d1075ff462fda6c3bba0b00a2b36" target="_top" xlink:title="UBTeacherGuidePresentation\lWidget::showData">
<polygon fill="white" stroke="black" points="201,-67 201,-101 347,-101 347,-67 201,-67"/>
<text text-anchor="start" x="209" y="-88" font-family="Helvetica,sans-Serif" font-size="10.00">UBTeacherGuidePresentation</text>
<text text-anchor="middle" x="274" y="-75" font-family="Helvetica,sans-Serif" font-size="10.00">Widget::showData</text>
</a>
</g>
<!-- Node1&#45;&gt;Node3 -->
<g id="edge4" class="edge"><title>Node1&#45;&gt;Node3</title>
<path fill="none" stroke="midnightblue" d="M156.288,-100.983C171.098,-98.8466 186.421,-96.6357 200.92,-94.5438"/>
<polygon fill="midnightblue" stroke="midnightblue" points="155.532,-97.5561 146.134,-102.448 156.532,-104.484 155.532,-97.5561"/>
</g>
<!-- Node4 -->
<g id="node7" class="node"><title>Node4</title>
<a xlink:href="../../dc/d87/class_u_b_teacher_guide_widget.html#a8f82786dfbc3eee454a3ed9008a1acb7" target="_top" xlink:title="UBTeacherGuideWidget\l::onActiveSceneChanged">
<polygon fill="white" stroke="black" points="564,-90 564,-124 692,-124 692,-90 564,-90"/>
<text text-anchor="start" x="572" y="-111" font-family="Helvetica,sans-Serif" font-size="10.00">UBTeacherGuideWidget</text>
<text text-anchor="middle" x="628" y="-98" font-family="Helvetica,sans-Serif" font-size="10.00">::onActiveSceneChanged</text>
</a>
</g>
<!-- Node3&#45;&gt;Node4 -->
<g id="edge6" class="edge"><title>Node3&#45;&gt;Node4</title>
<path fill="none" stroke="midnightblue" d="M357.681,-89.4369C420.831,-93.5399 506.177,-99.0849 563.949,-102.839"/>
<polygon fill="midnightblue" stroke="midnightblue" points="357.555,-85.9214 347.349,-88.7656 357.101,-92.9067 357.555,-85.9214"/>
</g>
<!-- Node6 -->
<g id="node11" class="node"><title>Node6</title>
<a xlink:href="../../dc/d87/class_u_b_teacher_guide_widget.html#a9c51db0c57e1d629eb4db06e4e824d40" target="_top" xlink:title="UBTeacherGuideWidget\l::showPresentationMode">
<polygon fill="white" stroke="black" points="402.5,-45 402.5,-79 527.5,-79 527.5,-45 402.5,-45"/>
<text text-anchor="start" x="410.5" y="-66" font-family="Helvetica,sans-Serif" font-size="10.00">UBTeacherGuideWidget</text>
<text text-anchor="middle" x="465" y="-53" font-family="Helvetica,sans-Serif" font-size="10.00">::showPresentationMode</text>
</a>
</g>
<!-- Node3&#45;&gt;Node6 -->
<g id="edge10" class="edge"><title>Node3&#45;&gt;Node6</title>
<path fill="none" stroke="midnightblue" d="M357.378,-74.3963C372.452,-72.66 387.935,-70.8766 402.293,-69.2228"/>
<polygon fill="midnightblue" stroke="midnightblue" points="356.56,-70.9672 347.026,-75.5886 357.361,-77.9212 356.56,-70.9672"/>
</g>
<!-- Node5 -->
<g id="node9" class="node"><title>Node5</title>
<a xlink:href="../../dc/d87/class_u_b_teacher_guide_widget.html#a3d60234d192a0d13eda27321b44686b7" target="_top" xlink:title="UBTeacherGuideWidget\l::UBTeacherGuideWidget">
<polygon fill="white" stroke="black" points="892,-45 892,-79 1020,-79 1020,-45 892,-45"/>
<text text-anchor="start" x="900" y="-66" font-family="Helvetica,sans-Serif" font-size="10.00">UBTeacherGuideWidget</text>
<text text-anchor="middle" x="956" y="-53" font-family="Helvetica,sans-Serif" font-size="10.00">::UBTeacherGuideWidget</text>
</a>
</g>
<!-- Node4&#45;&gt;Node5 -->
<g id="edge8" class="edge"><title>Node4&#45;&gt;Node5</title>
<path fill="none" stroke="midnightblue" d="M702.541,-96.9409C747.083,-90.9111 804.786,-83.0667 856,-76 867.635,-74.3946 880.03,-72.6705 891.989,-70.9999"/>
<polygon fill="midnightblue" stroke="midnightblue" points="701.821,-93.5063 692.381,-98.3157 702.76,-100.443 701.821,-93.5063"/>
</g>
<!-- Node6&#45;&gt;Node5 -->
<g id="edge12" class="edge"><title>Node6&#45;&gt;Node5</title>
<path fill="none" stroke="midnightblue" d="M537.865,-62C633.656,-62 800.444,-62 891.743,-62"/>
<polygon fill="midnightblue" stroke="midnightblue" points="537.684,-58.5001 527.684,-62 537.684,-65.5001 537.684,-58.5001"/>
</g>
<!-- Node7 -->
<g id="node14" class="node"><title>Node7</title>
<a xlink:href="../../dc/d87/class_u_b_teacher_guide_widget.html#acd08d0896f072a7214fd3cd16a6bd894" target="_top" xlink:title="UBTeacherGuideWidget\l::onTriggeredAction">
<polygon fill="white" stroke="black" points="567,-0 567,-34 689,-34 689,-0 567,-0"/>
<text text-anchor="start" x="575" y="-21" font-family="Helvetica,sans-Serif" font-size="10.00">UBTeacherGuideWidget</text>
<text text-anchor="middle" x="628" y="-8" font-family="Helvetica,sans-Serif" font-size="10.00">::onTriggeredAction</text>
</a>
</g>
<!-- Node6&#45;&gt;Node7 -->
<g id="edge14" class="edge"><title>Node6&#45;&gt;Node7</title>
<path fill="none" stroke="midnightblue" d="M536.295,-42.3173C546.474,-39.5072 556.868,-36.6375 566.83,-33.8874"/>
<polygon fill="midnightblue" stroke="midnightblue" points="535.331,-38.9524 526.623,-44.9874 537.194,-45.7 535.331,-38.9524"/>
</g>
<!-- Node8 -->
<g id="node16" class="node"><title>Node8</title>
<a xlink:href="../../dc/d87/class_u_b_teacher_guide_widget.html#a1c0c3d64852f3e7834f24b5d39a11d06" target="_top" xlink:title="UBTeacherGuideWidget\l::connectToStylusPalette">
<polygon fill="white" stroke="black" points="728.5,-0 728.5,-34 855.5,-34 855.5,-0 728.5,-0"/>
<text text-anchor="start" x="736.5" y="-21" font-family="Helvetica,sans-Serif" font-size="10.00">UBTeacherGuideWidget</text>
<text text-anchor="middle" x="792" y="-8" font-family="Helvetica,sans-Serif" font-size="10.00">::connectToStylusPalette</text>
</a>
</g>
<!-- Node7&#45;&gt;Node8 -->
<g id="edge16" class="edge"><title>Node7&#45;&gt;Node8</title>
<path fill="none" stroke="midnightblue" d="M699.122,-17C708.865,-17 718.817,-17 728.414,-17"/>
<polygon fill="midnightblue" stroke="midnightblue" points="699.068,-13.5001 689.068,-17 699.068,-20.5001 699.068,-13.5001"/>
</g>
<!-- Node8&#45;&gt;Node5 -->
<g id="edge18" class="edge"><title>Node8&#45;&gt;Node5</title>
<path fill="none" stroke="midnightblue" d="M863.91,-36.7315C873.91,-39.4752 884.112,-42.2747 893.911,-44.9634"/>
<polygon fill="midnightblue" stroke="midnightblue" points="864.571,-33.2835 854.001,-34.0126 862.719,-40.034 864.571,-33.2835"/>
</g>
</g>
</svg>
        <g id="navigator" transform="translate(0 0)" fill="#404254">
                <rect fill="#f2f5e9" fill-opacity="0.5" stroke="#606060" stroke-width=".5" x="0" y="0" width="60" height="60"/>
                <use id="zoomplus" xlink:href="#zoomPlus" x="17" y="9" onmousedown="handleZoom(evt,'in')"/>
                <use id="zoomminus" xlink:href="#zoomMin" x="42" y="9" onmousedown="handleZoom(evt,'out')"/>
                <use id="reset" xlink:href="#resetDef" x="30" y="36" onmousedown="handleReset()"/>
                <g id="arrowUp" xlink:href="#dirArrow" transform="translate(30 24)" onmousedown="handlePan(0,-1)">
                  <use xlink:href="#rim" fill="#404040">
                        <set attributeName="fill" to="#808080" begin="arrowUp.mouseover" end="arrowUp.mouseout"/>
                  </use>
                  <path fill="none" stroke="white" stroke-width="1.5" d="M0,-3.0v7 M-2.5,-0.5L0,-3.0L2.5,-0.5"/>
                </g>
                <g id="arrowRight" xlink:href="#dirArrow" transform="rotate(90) translate(36 -43)" onmousedown="handlePan(1,0)">
                  <use xlink:href="#rim" fill="#404040">
                        <set attributeName="fill" to="#808080" begin="arrowRight.mouseover" end="arrowRight.mouseout"/>
                  </use>
                  <path fill="none" stroke="white" stroke-width="1.5" d="M0,-3.0v7 M-2.5,-0.5L0,-3.0L2.5,-0.5"/>
                </g>
                <g id="arrowDown" xlink:href="#dirArrow" transform="rotate(180) translate(-30 -48)" onmousedown="handlePan(0,1)">
                  <use xlink:href="#rim" fill="#404040">
                        <set attributeName="fill" to="#808080" begin="arrowDown.mouseover" end="arrowDown.mouseout"/>
                  </use>
                  <path fill="none" stroke="white" stroke-width="1.5" d="M0,-3.0v7 M-2.5,-0.5L0,-3.0L2.5,-0.5"/>
                </g>
                <g id="arrowLeft" xlink:href="#dirArrow" transform="rotate(270) translate(-36 17)" onmousedown="handlePan(-1,0)">
                  <use xlink:href="#rim" fill="#404040">
                        <set attributeName="fill" to="#808080" begin="arrowLeft.mouseover" end="arrowLeft.mouseout"/>
                  </use>
                  <path fill="none" stroke="white" stroke-width="1.5" d="M0,-3.0v7 M-2.5,-0.5L0,-3.0L2.5,-0.5"/>
                </g>
        </g>
        <svg viewBox="0 0 15 15" width="100%" height="30px" preserveAspectRatio="xMaxYMin meet">
         <g id="arrow_out" transform="scale(0.3 0.3)">
          <a xlink:href="class_u_b_teacher_guide_presentation_widget_ae6971abdc6a6f9406ab0eddf32795a45_icgraph_org.svg" target="_base">
           <rect id="button" ry="5" rx="5" y="6" x="6" height="38" width="38"
                fill="#f2f5e9" fill-opacity="0.5" stroke="#606060" stroke-width="1.0"/>
           <path id="arrow"
             d="M 11.500037,31.436501 C 11.940474,20.09759 22.043105,11.32322 32.158766,21.979434 L 37.068811,17.246167 C 37.068811,17.246167 37.088388,32 37.088388,32 L 22.160133,31.978069 C 22.160133,31.978069 26.997745,27.140456 26.997745,27.140456 C 18.528582,18.264221 13.291696,25.230495 11.500037,31.436501 z"
             style="fill:#404040;"/>
          </a>
         </g>
        </svg>
</svg>
