<?xml version="1.0" encoding="UTF-8" standalone="no"?>
<!DOCTYPE svg PUBLIC "-//W3C//DTD SVG 1.1//EN"
 "http://www.w3.org/Graphics/SVG/1.1/DTD/svg11.dtd">
<!-- Generated by graphviz version 2.26.3 (20100126.1600)
 -->
<!-- Title: merge_lib::Merger::saveMergedDocumentsAs Pages: 1 -->
<svg width="800pt" height="82pt"
 viewBox="0.00 0.00 800.00 82.00" xmlns="http://www.w3.org/2000/svg" xmlns:xlink="http://www.w3.org/1999/xlink">
<g id="graph1" class="graph" transform="scale(1 1) rotate(0) translate(4 78)">
<title>merge_lib::Merger::saveMergedDocumentsAs</title>
<polygon fill="white" stroke="white" points="-4,5 -4,-78 797,-78 797,5 -4,5"/>
<!-- Node1 -->
<g id="node1" class="node"><title>Node1</title>
<polygon fill="#bfbfbf" stroke="black" points="0.5,-17 0.5,-51 135.5,-51 135.5,-17 0.5,-17"/>
<text text-anchor="start" x="8.5" y="-38" font-family="Helvetica,sans-Serif" font-size="10.00">merge_lib::Merger:</text>
<text text-anchor="middle" x="68" y="-25" font-family="Helvetica,sans-Serif" font-size="10.00">:saveMergedDocumentsAs</text>
</g>
<!-- Node2 -->
<g id="node3" class="node"><title>Node2</title>
<a xlink:href="../../d6/d54/class_u_b_export_full_p_d_f.html#a2101b6fdc6ed273a6e2c062d5ce7e12c" target="_top" xlink:title="UBExportFullPDF::persists\lDocument">
<polygon fill="white" stroke="black" points="172,-17 172,-51 308,-51 308,-17 172,-17"/>
<text text-anchor="start" x="180" y="-38" font-family="Helvetica,sans-Serif" font-size="10.00">UBExportFullPDF::persists</text>
<text text-anchor="middle" x="240" y="-25" font-family="Helvetica,sans-Serif" font-size="10.00">Document</text>
</a>
</g>
<!-- Node1&#45;&gt;Node2 -->
<g id="edge2" class="edge"><title>Node1&#45;&gt;Node2</title>
<path fill="none" stroke="midnightblue" d="M146.054,-34C154.696,-34 163.446,-34 171.952,-34"/>
<polygon fill="midnightblue" stroke="midnightblue" points="145.979,-30.5001 135.979,-34 145.979,-37.5001 145.979,-30.5001"/>
</g>
<!-- Node3 -->
<g id="node5" class="node"><title>Node3</title>
<a xlink:href="../../da/d3c/class_u_b_document_publisher.html#ac6a7b91093faed242e6b99280adca16b" target="_top" xlink:title="UBDocumentPublisher\l::buildUbwFile">
<polygon fill="white" stroke="black" points="352,-40 352,-74 468,-74 468,-40 352,-40"/>
<text text-anchor="start" x="360" y="-61" font-family="Helvetica,sans-Serif" font-size="10.00">UBDocumentPublisher</text>
<text text-anchor="middle" x="410" y="-48" font-family="Helvetica,sans-Serif" font-size="10.00">::buildUbwFile</text>
</a>
</g>
<!-- Node2&#45;&gt;Node3 -->
<g id="edge4" class="edge"><title>Node2&#45;&gt;Node3</title>
<path fill="none" stroke="midnightblue" d="M318.107,-44.5675C329.492,-46.1078 341.043,-47.6705 351.936,-49.1443"/>
<polygon fill="midnightblue" stroke="midnightblue" points="318.545,-41.0949 308.166,-43.2225 317.606,-48.0317 318.545,-41.0949"/>
</g>
<!-- Node6 -->
<g id="node11" class="node"><title>Node6</title>
<a xlink:href="../../d6/d54/class_u_b_export_full_p_d_f.html#a8c0bd950f21f469ce17daa1add9a75bf" target="_top" xlink:title="UBExportFullPDF::persist">
<polygon fill="white" stroke="black" points="344.5,-0.5 344.5,-21.5 475.5,-21.5 475.5,-0.5 344.5,-0.5"/>
<text text-anchor="middle" x="410" y="-8.5" font-family="Helvetica,sans-Serif" font-size="10.00">UBExportFullPDF::persist</text>
</a>
</g>
<!-- Node2&#45;&gt;Node6 -->
<g id="edge10" class="edge"><title>Node2&#45;&gt;Node6</title>
<path fill="none" stroke="midnightblue" d="M318.307,-23.4055C327.002,-22.2292 335.79,-21.0401 344.306,-19.888"/>
<polygon fill="midnightblue" stroke="midnightblue" points="317.606,-19.9683 308.166,-24.7775 318.545,-26.9051 317.606,-19.9683"/>
</g>
<!-- Node4 -->
<g id="node7" class="node"><title>Node4</title>
<a xlink:href="../../da/d3c/class_u_b_document_publisher.html#adca541347ad643ceea47eeb3f48bc24a" target="_top" xlink:title="UBDocumentPublisher\l::publish">
<polygon fill="white" stroke="black" points="512,-40 512,-74 628,-74 628,-40 512,-40"/>
<text text-anchor="start" x="520" y="-61" font-family="Helvetica,sans-Serif" font-size="10.00">UBDocumentPublisher</text>
<text text-anchor="middle" x="570" y="-48" font-family="Helvetica,sans-Serif" font-size="10.00">::publish</text>
</a>
</g>
<!-- Node3&#45;&gt;Node4 -->
<g id="edge6" class="edge"><title>Node3&#45;&gt;Node4</title>
<path fill="none" stroke="midnightblue" d="M478.343,-57C489.493,-57 500.951,-57 511.827,-57"/>
<polygon fill="midnightblue" stroke="midnightblue" points="478.216,-53.5001 468.216,-57 478.216,-60.5001 478.216,-53.5001"/>
</g>
<!-- Node5 -->
<g id="node9" class="node"><title>Node5</title>
<a xlink:href="../../de/d5f/class_u_b_web_publisher.html#acf1964056e5008ca164f974cc55e8b24" target="_top" xlink:title="UBWebPublisher::persist">
<polygon fill="white" stroke="black" points="664.5,-46.5 664.5,-67.5 791.5,-67.5 791.5,-46.5 664.5,-46.5"/>
<text text-anchor="middle" x="728" y="-54.5" font-family="Helvetica,sans-Serif" font-size="10.00">UBWebPublisher::persist</text>
</a>
</g>
<!-- Node4&#45;&gt;Node5 -->
<g id="edge8" class="edge"><title>Node4&#45;&gt;Node5</title>
<path fill="none" stroke="midnightblue" d="M638.658,-57C647.17,-57 655.844,-57 664.277,-57"/>
<polygon fill="midnightblue" stroke="midnightblue" points="638.384,-53.5001 628.384,-57 638.384,-60.5001 638.384,-53.5001"/>
</g>
</g>
</svg>
