<?xml version="1.0" encoding="UTF-8" standalone="no"?>
<!DOCTYPE svg PUBLIC "-//W3C//DTD SVG 1.1//EN"
 "http://www.w3.org/Graphics/SVG/1.1/DTD/svg11.dtd">
<!-- Generated by graphviz version 2.26.3 (20100126.1600)
 -->
<!-- Title: WBHistoryCompletionModel::mapFromSource Pages: 1 -->
<svg width="500pt" height="94pt"
 viewBox="0.00 0.00 500.00 94.00" xmlns="http://www.w3.org/2000/svg" xmlns:xlink="http://www.w3.org/1999/xlink">
<g id="graph1" class="graph" transform="scale(1 1) rotate(0) translate(4 90)">
<title>WBHistoryCompletionModel::mapFromSource</title>
<polygon fill="white" stroke="white" points="-4,5 -4,-90 497,-90 497,5 -4,5"/>
<!-- Node1 -->
<g id="node1" class="node"><title>Node1</title>
<polygon fill="#bfbfbf" stroke="black" points="0,-26 0,-60 140,-60 140,-26 0,-26"/>
<text text-anchor="start" x="8" y="-47" font-family="Helvetica,sans-Serif" font-size="10.00">WBHistoryCompletionModel</text>
<text text-anchor="middle" x="70" y="-34" font-family="Helvetica,sans-Serif" font-size="10.00">::mapFromSource</text>
</g>
<!-- Node2 -->
<g id="node3" class="node"><title>Node2</title>
<a xlink:href="../../da/d41/class_w_b_history_completion_model.html#ac2da15e5c1fecc1312f58056224b5142" target="_top" xlink:title="WBHistoryCompletionModel\l::index">
<polygon fill="white" stroke="black" points="176,-26 176,-60 316,-60 316,-26 176,-26"/>
<text text-anchor="start" x="184" y="-47" font-family="Helvetica,sans-Serif" font-size="10.00">WBHistoryCompletionModel</text>
<text text-anchor="middle" x="246" y="-34" font-family="Helvetica,sans-Serif" font-size="10.00">::index</text>
</a>
</g>
<!-- Node1&#45;&gt;Node2 -->
<g id="edge2" class="edge"><title>Node1&#45;&gt;Node2</title>
<path fill="none" stroke="midnightblue" d="M140.066,-43C148.54,-43 157.247,-43 165.852,-43"/>
<polygon fill="midnightblue" stroke="midnightblue" points="165.888,-46.5001 175.888,-43 165.888,-39.5001 165.888,-46.5001"/>
</g>
<!-- Node3 -->
<g id="node5" class="node"><title>Node3</title>
<a xlink:href="../../da/d41/class_w_b_history_completion_model.html#ac440de5607401eff7ec22c3f0cd41359" target="_top" xlink:title="WBHistoryCompletionModel\l::rowCount">
<polygon fill="white" stroke="black" points="352,-52 352,-86 492,-86 492,-52 352,-52"/>
<text text-anchor="start" x="360" y="-73" font-family="Helvetica,sans-Serif" font-size="10.00">WBHistoryCompletionModel</text>
<text text-anchor="middle" x="422" y="-60" font-family="Helvetica,sans-Serif" font-size="10.00">::rowCount</text>
</a>
</g>
<!-- Node2&#45;&gt;Node3 -->
<g id="edge4" class="edge"><title>Node2&#45;&gt;Node3</title>
<path fill="none" stroke="midnightblue" d="M316.066,-53.3506C324.54,-54.6025 333.247,-55.8887 341.852,-57.16"/>
<polygon fill="midnightblue" stroke="midnightblue" points="341.484,-60.6435 351.888,-58.6425 342.507,-53.7186 341.484,-60.6435"/>
</g>
<!-- Node4 -->
<g id="node7" class="node"><title>Node4</title>
<a xlink:href="../../da/d41/class_w_b_history_completion_model.html#ae527d2c74671dc95684acfbf75d601cb" target="_top" xlink:title="WBHistoryCompletionModel\l::columnCount">
<polygon fill="white" stroke="black" points="352,-0 352,-34 492,-34 492,-0 352,-0"/>
<text text-anchor="start" x="360" y="-21" font-family="Helvetica,sans-Serif" font-size="10.00">WBHistoryCompletionModel</text>
<text text-anchor="middle" x="422" y="-8" font-family="Helvetica,sans-Serif" font-size="10.00">::columnCount</text>
</a>
</g>
<!-- Node2&#45;&gt;Node4 -->
<g id="edge6" class="edge"><title>Node2&#45;&gt;Node4</title>
<path fill="none" stroke="midnightblue" d="M316.066,-32.6494C324.54,-31.3975 333.247,-30.1113 341.852,-28.84"/>
<polygon fill="midnightblue" stroke="midnightblue" points="342.507,-32.2814 351.888,-27.3575 341.484,-25.3565 342.507,-32.2814"/>
</g>
</g>
</svg>
