<?xml version="1.0" encoding="UTF-8" standalone="no"?>
<!DOCTYPE svg PUBLIC "-//W3C//DTD SVG 1.1//EN"
 "http://www.w3.org/Graphics/SVG/1.1/DTD/svg11.dtd">
<!-- Generated by graphviz version 2.26.3 (20100126.1600)
 -->
<!-- Title: UBGraphicsItemPlayAudioAction::fullPath Pages: 1 -->
<svg width="518pt" height="250pt"
 viewBox="0.00 0.00 518.00 250.00" xmlns="http://www.w3.org/2000/svg" xmlns:xlink="http://www.w3.org/1999/xlink">
<g id="graph1" class="graph" transform="scale(1 1) rotate(0) translate(4 246)">
<title>UBGraphicsItemPlayAudioAction::fullPath</title>
<polygon fill="white" stroke="white" points="-4,5 -4,-246 515,-246 515,5 -4,5"/>
<!-- Node1 -->
<g id="node1" class="node"><title>Node1</title>
<polygon fill="#bfbfbf" stroke="black" points="0.5,-104 0.5,-138 161.5,-138 161.5,-104 0.5,-104"/>
<text text-anchor="start" x="8.5" y="-125" font-family="Helvetica,sans-Serif" font-size="10.00">UBGraphicsItemPlayAudioAction</text>
<text text-anchor="middle" x="81" y="-112" font-family="Helvetica,sans-Serif" font-size="10.00">::fullPath</text>
</g>
<!-- Node2 -->
<g id="node3" class="node"><title>Node2</title>
<a xlink:href="../../de/d93/class_u_b_graphics_group_container_item.html#a70f918cf5ac238dc33232946fa893f9a" target="_top" xlink:title="UBGraphicsGroupContainer\lItem::copyItemParameters">
<polygon fill="white" stroke="black" points="198,-208 198,-242 336,-242 336,-208 198,-208"/>
<text text-anchor="start" x="206" y="-229" font-family="Helvetica,sans-Serif" font-size="10.00">UBGraphicsGroupContainer</text>
<text text-anchor="middle" x="267" y="-216" font-family="Helvetica,sans-Serif" font-size="10.00">Item::copyItemParameters</text>
</a>
</g>
<!-- Node1&#45;&gt;Node2 -->
<g id="edge2" class="edge"><title>Node1&#45;&gt;Node2</title>
<path fill="none" stroke="midnightblue" d="M111.654,-144.254C134.591,-160.943 167.186,-183.185 198,-199 204.15,-202.156 210.776,-205.138 217.403,-207.878"/>
<polygon fill="midnightblue" stroke="midnightblue" points="113.489,-141.26 103.359,-138.155 109.342,-146.899 113.489,-141.26"/>
</g>
<!-- Node4 -->
<g id="node7" class="node"><title>Node4</title>
<a xlink:href="../../d1/d78/class_u_b_graphics_pixmap_item.html#a800d04419404cec2d43f4feccb1673e6" target="_top" xlink:title="UBGraphicsPixmapItem\l::copyItemParameters">
<polygon fill="white" stroke="black" points="206,-156 206,-190 328,-190 328,-156 206,-156"/>
<text text-anchor="start" x="214" y="-177" font-family="Helvetica,sans-Serif" font-size="10.00">UBGraphicsPixmapItem</text>
<text text-anchor="middle" x="267" y="-164" font-family="Helvetica,sans-Serif" font-size="10.00">::copyItemParameters</text>
</a>
</g>
<!-- Node1&#45;&gt;Node4 -->
<g id="edge6" class="edge"><title>Node1&#45;&gt;Node4</title>
<path fill="none" stroke="midnightblue" d="M151.694,-140.764C169.567,-145.761 188.609,-151.084 205.96,-155.935"/>
<polygon fill="midnightblue" stroke="midnightblue" points="152.476,-137.349 141.903,-138.027 150.592,-144.09 152.476,-137.349"/>
</g>
<!-- Node6 -->
<g id="node11" class="node"><title>Node6</title>
<a xlink:href="../../d3/d0b/class_u_b_graphics_strokes_group.html#ab34ce07e062a2f2bd454dc2309b88396" target="_top" xlink:title="UBGraphicsStrokesGroup\l::copyItemParameters">
<polygon fill="white" stroke="black" points="202,-104 202,-138 332,-138 332,-104 202,-104"/>
<text text-anchor="start" x="210" y="-125" font-family="Helvetica,sans-Serif" font-size="10.00">UBGraphicsStrokesGroup</text>
<text text-anchor="middle" x="267" y="-112" font-family="Helvetica,sans-Serif" font-size="10.00">::copyItemParameters</text>
</a>
</g>
<!-- Node1&#45;&gt;Node6 -->
<g id="edge10" class="edge"><title>Node1&#45;&gt;Node6</title>
<path fill="none" stroke="midnightblue" d="M171.637,-121C181.804,-121 192.009,-121 201.766,-121"/>
<polygon fill="midnightblue" stroke="midnightblue" points="171.501,-117.5 161.501,-121 171.5,-124.5 171.501,-117.5"/>
</g>
<!-- Node8 -->
<g id="node15" class="node"><title>Node8</title>
<a xlink:href="../../d1/dce/class_u_b_graphics_svg_item.html#a467ce14bcf2b4c27a01ab128c6149b1c" target="_top" xlink:title="UBGraphicsSvgItem:\l:copyItemParameters">
<polygon fill="white" stroke="black" points="212,-52 212,-86 322,-86 322,-52 212,-52"/>
<text text-anchor="start" x="220" y="-73" font-family="Helvetica,sans-Serif" font-size="10.00">UBGraphicsSvgItem:</text>
<text text-anchor="middle" x="267" y="-60" font-family="Helvetica,sans-Serif" font-size="10.00">:copyItemParameters</text>
</a>
</g>
<!-- Node1&#45;&gt;Node8 -->
<g id="edge14" class="edge"><title>Node1&#45;&gt;Node8</title>
<path fill="none" stroke="midnightblue" d="M151.577,-101.269C171.558,-95.6827 193.007,-89.6861 211.929,-84.3961"/>
<polygon fill="midnightblue" stroke="midnightblue" points="150.592,-97.91 141.903,-103.973 152.476,-104.651 150.592,-97.91"/>
</g>
<!-- Node10 -->
<g id="node19" class="node"><title>Node10</title>
<a xlink:href="../../da/d65/class_u_b_graphics_text_item.html#a14c3b9ff16071a306fe0834577aa26fa" target="_top" xlink:title="UBGraphicsTextItem\l::copyItemParameters">
<polygon fill="white" stroke="black" points="210.5,-0 210.5,-34 323.5,-34 323.5,-0 210.5,-0"/>
<text text-anchor="start" x="218.5" y="-21" font-family="Helvetica,sans-Serif" font-size="10.00">UBGraphicsTextItem</text>
<text text-anchor="middle" x="267" y="-8" font-family="Helvetica,sans-Serif" font-size="10.00">::copyItemParameters</text>
</a>
</g>
<!-- Node1&#45;&gt;Node10 -->
<g id="edge18" class="edge"><title>Node1&#45;&gt;Node10</title>
<path fill="none" stroke="midnightblue" d="M111.654,-97.7455C134.591,-81.0572 167.186,-58.8148 198,-43 204.15,-39.8436 210.776,-36.8619 217.403,-34.1217"/>
<polygon fill="midnightblue" stroke="midnightblue" points="109.342,-95.1007 103.359,-103.845 113.489,-100.74 109.342,-95.1007"/>
</g>
<!-- Node3 -->
<g id="node5" class="node"><title>Node3</title>
<a xlink:href="../../de/d93/class_u_b_graphics_group_container_item.html#aeb38fce11d606a6a0c97544ff5fa776f" target="_top" xlink:title="UBGraphicsGroupContainer\lItem::deepCopy">
<polygon fill="white" stroke="black" points="372,-208 372,-242 510,-242 510,-208 372,-208"/>
<text text-anchor="start" x="380" y="-229" font-family="Helvetica,sans-Serif" font-size="10.00">UBGraphicsGroupContainer</text>
<text text-anchor="middle" x="441" y="-216" font-family="Helvetica,sans-Serif" font-size="10.00">Item::deepCopy</text>
</a>
</g>
<!-- Node2&#45;&gt;Node3 -->
<g id="edge4" class="edge"><title>Node2&#45;&gt;Node3</title>
<path fill="none" stroke="midnightblue" d="M346.035,-225C354.625,-225 363.319,-225 371.779,-225"/>
<polygon fill="midnightblue" stroke="midnightblue" points="346.019,-221.5 336.019,-225 346.019,-228.5 346.019,-221.5"/>
</g>
<!-- Node5 -->
<g id="node9" class="node"><title>Node5</title>
<a xlink:href="../../d1/d78/class_u_b_graphics_pixmap_item.html#a1b0fbc4ae6ba2796e5cccb0ea16b8c70" target="_top" xlink:title="UBGraphicsPixmapItem\l::deepCopy">
<polygon fill="white" stroke="black" points="380,-156 380,-190 502,-190 502,-156 380,-156"/>
<text text-anchor="start" x="388" y="-177" font-family="Helvetica,sans-Serif" font-size="10.00">UBGraphicsPixmapItem</text>
<text text-anchor="middle" x="441" y="-164" font-family="Helvetica,sans-Serif" font-size="10.00">::deepCopy</text>
</a>
</g>
<!-- Node4&#45;&gt;Node5 -->
<g id="edge8" class="edge"><title>Node4&#45;&gt;Node5</title>
<path fill="none" stroke="midnightblue" d="M338.69,-173C352.381,-173 366.594,-173 379.915,-173"/>
<polygon fill="midnightblue" stroke="midnightblue" points="338.346,-169.5 328.346,-173 338.346,-176.5 338.346,-169.5"/>
</g>
<!-- Node7 -->
<g id="node13" class="node"><title>Node7</title>
<a xlink:href="../../d3/d0b/class_u_b_graphics_strokes_group.html#a4932a359f046811fc1d555d5d6b49b38" target="_top" xlink:title="UBGraphicsStrokesGroup\l::deepCopy">
<polygon fill="white" stroke="black" points="376,-104 376,-138 506,-138 506,-104 376,-104"/>
<text text-anchor="start" x="384" y="-125" font-family="Helvetica,sans-Serif" font-size="10.00">UBGraphicsStrokesGroup</text>
<text text-anchor="middle" x="441" y="-112" font-family="Helvetica,sans-Serif" font-size="10.00">::deepCopy</text>
</a>
</g>
<!-- Node6&#45;&gt;Node7 -->
<g id="edge12" class="edge"><title>Node6&#45;&gt;Node7</title>
<path fill="none" stroke="midnightblue" d="M342.437,-121C353.592,-121 365.006,-121 375.927,-121"/>
<polygon fill="midnightblue" stroke="midnightblue" points="342.286,-117.5 332.286,-121 342.286,-124.5 342.286,-117.5"/>
</g>
<!-- Node9 -->
<g id="node17" class="node"><title>Node9</title>
<a xlink:href="../../d1/dce/class_u_b_graphics_svg_item.html#a312cf73a521c514c48a0e866771ba75e" target="_top" xlink:title="UBGraphicsSvgItem:\l:deepCopy">
<polygon fill="white" stroke="black" points="386,-52 386,-86 496,-86 496,-52 386,-52"/>
<text text-anchor="start" x="394" y="-73" font-family="Helvetica,sans-Serif" font-size="10.00">UBGraphicsSvgItem:</text>
<text text-anchor="middle" x="441" y="-60" font-family="Helvetica,sans-Serif" font-size="10.00">:deepCopy</text>
</a>
</g>
<!-- Node8&#45;&gt;Node9 -->
<g id="edge16" class="edge"><title>Node8&#45;&gt;Node9</title>
<path fill="none" stroke="midnightblue" d="M332.246,-69C349.843,-69 368.71,-69 385.706,-69"/>
<polygon fill="midnightblue" stroke="midnightblue" points="332.055,-65.5001 322.055,-69 332.055,-72.5001 332.055,-65.5001"/>
</g>
<!-- Node11 -->
<g id="node21" class="node"><title>Node11</title>
<a xlink:href="../../da/d65/class_u_b_graphics_text_item.html#a6be4507f88dccb25e1e063ec36cf6f47" target="_top" xlink:title="UBGraphicsTextItem\l::deepCopy">
<polygon fill="white" stroke="black" points="386.5,-0 386.5,-34 495.5,-34 495.5,-0 386.5,-0"/>
<text text-anchor="start" x="394.5" y="-21" font-family="Helvetica,sans-Serif" font-size="10.00">UBGraphicsTextItem</text>
<text text-anchor="middle" x="441" y="-8" font-family="Helvetica,sans-Serif" font-size="10.00">::deepCopy</text>
</a>
</g>
<!-- Node10&#45;&gt;Node11 -->
<g id="edge20" class="edge"><title>Node10&#45;&gt;Node11</title>
<path fill="none" stroke="midnightblue" d="M334.001,-17C351.287,-17 369.687,-17 386.266,-17"/>
<polygon fill="midnightblue" stroke="midnightblue" points="333.974,-13.5001 323.974,-17 333.974,-20.5001 333.974,-13.5001"/>
</g>
</g>
</svg>
