<?xml version="1.0" encoding="UTF-8" standalone="no"?>
<!DOCTYPE svg PUBLIC "-//W3C//DTD SVG 1.1//EN"
 "http://www.w3.org/Graphics/SVG/1.1/DTD/svg11.dtd">
<!-- Generated by graphviz version 2.26.3 (20100126.1600)
 -->
<!-- Title: UBGraphicsItemPlayAudioAction::onSourceHide Pages: 1 -->
<svg width="346pt" height="42pt"
 viewBox="0.00 0.00 346.00 42.00" xmlns="http://www.w3.org/2000/svg" xmlns:xlink="http://www.w3.org/1999/xlink">
<g id="graph1" class="graph" transform="scale(1 1) rotate(0) translate(4 38)">
<title>UBGraphicsItemPlayAudioAction::onSourceHide</title>
<polygon fill="white" stroke="white" points="-4,5 -4,-38 343,-38 343,5 -4,5"/>
<!-- Node1 -->
<g id="node1" class="node"><title>Node1</title>
<polygon fill="#bfbfbf" stroke="black" points="0.5,-0 0.5,-34 161.5,-34 161.5,-0 0.5,-0"/>
<text text-anchor="start" x="8.5" y="-21" font-family="Helvetica,sans-Serif" font-size="10.00">UBGraphicsItemPlayAudioAction</text>
<text text-anchor="middle" x="81" y="-8" font-family="Helvetica,sans-Serif" font-size="10.00">::onSourceHide</text>
</g>
<!-- Node2 -->
<g id="node3" class="node"><title>Node2</title>
<a xlink:href="../../dd/dd5/class_u_b_graphics_item_delegate.html#a32843fec11e67213a456c8d92377e105" target="_top" xlink:title="UBGraphicsItemDelegate\l::~UBGraphicsItemDelegate">
<polygon fill="white" stroke="black" points="198,-0 198,-34 338,-34 338,-0 198,-0"/>
<text text-anchor="start" x="206" y="-21" font-family="Helvetica,sans-Serif" font-size="10.00">UBGraphicsItemDelegate</text>
<text text-anchor="middle" x="268" y="-8" font-family="Helvetica,sans-Serif" font-size="10.00">::~UBGraphicsItemDelegate</text>
</a>
</g>
<!-- Node1&#45;&gt;Node2 -->
<g id="edge2" class="edge"><title>Node1&#45;&gt;Node2</title>
<path fill="none" stroke="midnightblue" d="M171.888,-17C180.626,-17 189.395,-17 197.889,-17"/>
<polygon fill="midnightblue" stroke="midnightblue" points="171.662,-13.5001 161.662,-17 171.662,-20.5001 171.662,-13.5001"/>
</g>
</g>
</svg>
