<?xml version="1.0" encoding="UTF-8" standalone="no"?>
<!DOCTYPE svg PUBLIC "-//W3C//DTD SVG 1.1//EN"
 "http://www.w3.org/Graphics/SVG/1.1/DTD/svg11.dtd">
<!-- Generated by graphviz version 2.26.3 (20100126.1600)
 -->
<!-- Title: UBResizableGraphicsItem::resize Pages: 1 -->
<!--zoomable 146 -->
<svg id="main" version="1.1" xmlns="http://www.w3.org/2000/svg" xmlns:xlink="http://www.w3.org/1999/xlink" xml:space="preserve" onload="init(evt)">
        <defs>
                <circle id="rim" cx="0" cy="0" r="7"/>
                <circle id="rim2" cx="0" cy="0" r="3.5"/>
                <g id="zoomPlus">
                        <use xlink:href="#rim" fill="#404040">
                                <set attributeName="fill" to="#808080" begin="zoomplus.mouseover" end="zoomplus.mouseout"/>
                        </use>
                        <path d="M-4,0h8M0,-4v8" fill="none" stroke="white" stroke-width="1.5" pointer-events="none"/>
                </g>
                <g id="zoomMin">
                        <use xlink:href="#rim" fill="#404040">
                                <set attributeName="fill" to="#808080" begin="zoomminus.mouseover" end="zoomminus.mouseout"/>
                        </use>
                        <path d="M-4,0h8" fill="none" stroke="white" stroke-width="1.5" pointer-events="none"/>
                </g>
                <g id="dirArrow">
                        <path fill="none" stroke="white" stroke-width="1.5" d="M0,-3.0v7 M-2.5,-0.5L0,-3.0L2.5,-0.5"/>
                </g>
               <g id="resetDef">
                       <use xlink:href="#rim2" fill="#404040">
                               <set attributeName="fill" to="#808080" begin="reset.mouseover" end="reset.mouseout"/>
                       </use>
               </g>
        </defs>

<script type="text/javascript">
var viewWidth = 510;
var viewHeight = 146;
var sectionId = 'dynsection-2';
</script>
<script xlink:href="../../svgpan.js"/>
<svg id="graph" class="graph">
<g id="viewport">
<title>UBResizableGraphicsItem::resize</title>
<polygon fill="white" stroke="white" points="-4,5 -4,-142 507,-142 507,5 -4,5"/>
<!-- Node1 -->
<g id="node1" class="node"><title>Node1</title>
<polygon fill="#bfbfbf" stroke="black" points="0.5,-52 0.5,-86 133.5,-86 133.5,-52 0.5,-52"/>
<text text-anchor="start" x="8.5" y="-73" font-family="Helvetica,sans-Serif" font-size="10.00">UBResizableGraphicsItem</text>
<text text-anchor="middle" x="67" y="-60" font-family="Helvetica,sans-Serif" font-size="10.00">::resize</text>
</g>
<!-- Node2 -->
<g id="node3" class="node"><title>Node2</title>
<a xlink:href="../../d5/ded/class_u_b_graphics_delegate_frame.html#a3a40fb15b09582d5b354fa4c7811f13e" target="_top" xlink:title="UBGraphicsDelegateFrame\l::resizeDelegate">
<polygon fill="white" stroke="black" points="180.5,-104 180.5,-138 317.5,-138 317.5,-104 180.5,-104"/>
<text text-anchor="start" x="188.5" y="-125" font-family="Helvetica,sans-Serif" font-size="10.00">UBGraphicsDelegateFrame</text>
<text text-anchor="middle" x="249" y="-112" font-family="Helvetica,sans-Serif" font-size="10.00">::resizeDelegate</text>
</a>
</g>
<!-- Node1&#45;&gt;Node2 -->
<g id="edge2" class="edge"><title>Node1&#45;&gt;Node2</title>
<path fill="none" stroke="midnightblue" d="M136.66,-88.9029C154.008,-93.8593 172.452,-99.129 189.273,-103.935"/>
<polygon fill="midnightblue" stroke="midnightblue" points="137.17,-85.4087 126.594,-86.0267 135.247,-92.1394 137.17,-85.4087"/>
</g>
<!-- Node4 -->
<g id="node7" class="node"><title>Node4</title>
<a xlink:href="../../db/d7c/class_u_b_graphics_item_transform_undo_command.html#ae7431f7f332266ab1c706d022e8b98e6" target="_top" xlink:title="UBGraphicsItemTransformUndo\lCommand::undo">
<polygon fill="white" stroke="black" points="170.5,-52 170.5,-86 327.5,-86 327.5,-52 170.5,-52"/>
<text text-anchor="start" x="178.5" y="-73" font-family="Helvetica,sans-Serif" font-size="10.00">UBGraphicsItemTransformUndo</text>
<text text-anchor="middle" x="249" y="-60" font-family="Helvetica,sans-Serif" font-size="10.00">Command::undo</text>
</a>
</g>
<!-- Node1&#45;&gt;Node4 -->
<g id="edge6" class="edge"><title>Node1&#45;&gt;Node4</title>
<path fill="none" stroke="midnightblue" d="M143.873,-69C152.594,-69 161.492,-69 170.237,-69"/>
<polygon fill="midnightblue" stroke="midnightblue" points="143.737,-65.5001 133.737,-69 143.737,-72.5001 143.737,-65.5001"/>
</g>
<!-- Node5 -->
<g id="node9" class="node"><title>Node5</title>
<a xlink:href="../../db/d7c/class_u_b_graphics_item_transform_undo_command.html#a617cb2c15030689bb8416c0d83551a75" target="_top" xlink:title="UBGraphicsItemTransformUndo\lCommand::redo">
<polygon fill="white" stroke="black" points="170.5,-0 170.5,-34 327.5,-34 327.5,-0 170.5,-0"/>
<text text-anchor="start" x="178.5" y="-21" font-family="Helvetica,sans-Serif" font-size="10.00">UBGraphicsItemTransformUndo</text>
<text text-anchor="middle" x="249" y="-8" font-family="Helvetica,sans-Serif" font-size="10.00">Command::redo</text>
</a>
</g>
<!-- Node1&#45;&gt;Node5 -->
<g id="edge8" class="edge"><title>Node1&#45;&gt;Node5</title>
<path fill="none" stroke="midnightblue" d="M136.66,-49.0971C154.008,-44.1407 172.452,-38.871 189.273,-34.065"/>
<polygon fill="midnightblue" stroke="midnightblue" points="135.247,-45.8606 126.594,-51.9733 137.17,-52.5913 135.247,-45.8606"/>
</g>
<!-- Node3 -->
<g id="node5" class="node"><title>Node3</title>
<a xlink:href="../../d5/ded/class_u_b_graphics_delegate_frame.html#a344fb33c44bb0e803771f0b676553cb7" target="_top" xlink:title="UBGraphicsDelegateFrame\l::mouseMoveEvent">
<polygon fill="white" stroke="black" points="364.5,-104 364.5,-138 501.5,-138 501.5,-104 364.5,-104"/>
<text text-anchor="start" x="372.5" y="-125" font-family="Helvetica,sans-Serif" font-size="10.00">UBGraphicsDelegateFrame</text>
<text text-anchor="middle" x="433" y="-112" font-family="Helvetica,sans-Serif" font-size="10.00">::mouseMoveEvent</text>
</a>
</g>
<!-- Node2&#45;&gt;Node3 -->
<g id="edge4" class="edge"><title>Node2&#45;&gt;Node3</title>
<path fill="none" stroke="midnightblue" d="M327.687,-121C339.91,-121 352.452,-121 364.428,-121"/>
<polygon fill="midnightblue" stroke="midnightblue" points="327.515,-117.5 317.515,-121 327.515,-124.5 327.515,-117.5"/>
</g>
</g>
</svg>
        <g id="navigator" transform="translate(0 0)" fill="#404254">
                <rect fill="#f2f5e9" fill-opacity="0.5" stroke="#606060" stroke-width=".5" x="0" y="0" width="60" height="60"/>
                <use id="zoomplus" xlink:href="#zoomPlus" x="17" y="9" onmousedown="handleZoom(evt,'in')"/>
                <use id="zoomminus" xlink:href="#zoomMin" x="42" y="9" onmousedown="handleZoom(evt,'out')"/>
                <use id="reset" xlink:href="#resetDef" x="30" y="36" onmousedown="handleReset()"/>
                <g id="arrowUp" xlink:href="#dirArrow" transform="translate(30 24)" onmousedown="handlePan(0,-1)">
                  <use xlink:href="#rim" fill="#404040">
                        <set attributeName="fill" to="#808080" begin="arrowUp.mouseover" end="arrowUp.mouseout"/>
                  </use>
                  <path fill="none" stroke="white" stroke-width="1.5" d="M0,-3.0v7 M-2.5,-0.5L0,-3.0L2.5,-0.5"/>
                </g>
                <g id="arrowRight" xlink:href="#dirArrow" transform="rotate(90) translate(36 -43)" onmousedown="handlePan(1,0)">
                  <use xlink:href="#rim" fill="#404040">
                        <set attributeName="fill" to="#808080" begin="arrowRight.mouseover" end="arrowRight.mouseout"/>
                  </use>
                  <path fill="none" stroke="white" stroke-width="1.5" d="M0,-3.0v7 M-2.5,-0.5L0,-3.0L2.5,-0.5"/>
                </g>
                <g id="arrowDown" xlink:href="#dirArrow" transform="rotate(180) translate(-30 -48)" onmousedown="handlePan(0,1)">
                  <use xlink:href="#rim" fill="#404040">
                        <set attributeName="fill" to="#808080" begin="arrowDown.mouseover" end="arrowDown.mouseout"/>
                  </use>
                  <path fill="none" stroke="white" stroke-width="1.5" d="M0,-3.0v7 M-2.5,-0.5L0,-3.0L2.5,-0.5"/>
                </g>
                <g id="arrowLeft" xlink:href="#dirArrow" transform="rotate(270) translate(-36 17)" onmousedown="handlePan(-1,0)">
                  <use xlink:href="#rim" fill="#404040">
                        <set attributeName="fill" to="#808080" begin="arrowLeft.mouseover" end="arrowLeft.mouseout"/>
                  </use>
                  <path fill="none" stroke="white" stroke-width="1.5" d="M0,-3.0v7 M-2.5,-0.5L0,-3.0L2.5,-0.5"/>
                </g>
        </g>
        <svg viewBox="0 0 15 15" width="100%" height="30px" preserveAspectRatio="xMaxYMin meet">
         <g id="arrow_out" transform="scale(0.3 0.3)">
          <a xlink:href="class_u_b_resizable_graphics_item_a3d337d44f263b4f811afe848e1f17d26_icgraph_org.svg" target="_base">
           <rect id="button" ry="5" rx="5" y="6" x="6" height="38" width="38"
                fill="#f2f5e9" fill-opacity="0.5" stroke="#606060" stroke-width="1.0"/>
           <path id="arrow"
             d="M 11.500037,31.436501 C 11.940474,20.09759 22.043105,11.32322 32.158766,21.979434 L 37.068811,17.246167 C 37.068811,17.246167 37.088388,32 37.088388,32 L 22.160133,31.978069 C 22.160133,31.978069 26.997745,27.140456 26.997745,27.140456 C 18.528582,18.264221 13.291696,25.230495 11.500037,31.436501 z"
             style="fill:#404040;"/>
          </a>
         </g>
        </svg>
</svg>
