<?xml version="1.0" encoding="UTF-8" standalone="no"?>
<!DOCTYPE svg PUBLIC "-//W3C//DTD SVG 1.1//EN"
 "http://www.w3.org/Graphics/SVG/1.1/DTD/svg11.dtd">
<!-- Generated by graphviz version 2.26.3 (20100126.1600)
 -->
<!-- Title: UBResizableGraphicsItem::resize Pages: 1 -->
<svg width="510pt" height="212pt"
 viewBox="0.00 0.00 510.00 212.00" xmlns="http://www.w3.org/2000/svg" xmlns:xlink="http://www.w3.org/1999/xlink">
<g id="graph1" class="graph" transform="scale(1 1) rotate(0) translate(4 208)">
<title>UBResizableGraphicsItem::resize</title>
<polygon fill="white" stroke="white" points="-4,5 -4,-208 507,-208 507,5 -4,5"/>
<!-- Node1 -->
<g id="node1" class="node"><title>Node1</title>
<polygon fill="#bfbfbf" stroke="black" points="0.5,-92 0.5,-126 133.5,-126 133.5,-92 0.5,-92"/>
<text text-anchor="start" x="8.5" y="-113" font-family="Helvetica,sans-Serif" font-size="10.00">UBResizableGraphicsItem</text>
<text text-anchor="middle" x="67" y="-100" font-family="Helvetica,sans-Serif" font-size="10.00">::resize</text>
</g>
<!-- Node2 -->
<g id="node3" class="node"><title>Node2</title>
<a xlink:href="../../d5/ded/class_u_b_graphics_delegate_frame.html#a3a40fb15b09582d5b354fa4c7811f13e" target="_top" xlink:title="UBGraphicsDelegateFrame\l::resizeDelegate">
<polygon fill="white" stroke="black" points="180.5,-170 180.5,-204 317.5,-204 317.5,-170 180.5,-170"/>
<text text-anchor="start" x="188.5" y="-191" font-family="Helvetica,sans-Serif" font-size="10.00">UBGraphicsDelegateFrame</text>
<text text-anchor="middle" x="249" y="-178" font-family="Helvetica,sans-Serif" font-size="10.00">::resizeDelegate</text>
</a>
</g>
<!-- Node1&#45;&gt;Node2 -->
<g id="edge2" class="edge"><title>Node1&#45;&gt;Node2</title>
<path fill="none" stroke="midnightblue" d="M106.873,-130.883C125.709,-140.764 148.689,-152.172 170,-161 177.47,-164.095 185.452,-167.079 193.365,-169.854"/>
<polygon fill="midnightblue" stroke="midnightblue" points="108.46,-127.763 97.9853,-126.174 105.183,-133.949 108.46,-127.763"/>
</g>
<!-- Node4 -->
<g id="node7" class="node"><title>Node4</title>
<a xlink:href="../../db/d7c/class_u_b_graphics_item_transform_undo_command.html#ae7431f7f332266ab1c706d022e8b98e6" target="_top" xlink:title="UBGraphicsItemTransformUndo\lCommand::undo">
<polygon fill="white" stroke="black" points="170.5,-118 170.5,-152 327.5,-152 327.5,-118 170.5,-118"/>
<text text-anchor="start" x="178.5" y="-139" font-family="Helvetica,sans-Serif" font-size="10.00">UBGraphicsItemTransformUndo</text>
<text text-anchor="middle" x="249" y="-126" font-family="Helvetica,sans-Serif" font-size="10.00">Command::undo</text>
</a>
</g>
<!-- Node1&#45;&gt;Node4 -->
<g id="edge6" class="edge"><title>Node1&#45;&gt;Node4</title>
<path fill="none" stroke="midnightblue" d="M143.873,-119.982C152.594,-121.228 161.492,-122.499 170.237,-123.748"/>
<polygon fill="midnightblue" stroke="midnightblue" points="144.131,-116.483 133.737,-118.534 143.141,-123.413 144.131,-116.483"/>
</g>
<!-- Node5 -->
<g id="node9" class="node"><title>Node5</title>
<a xlink:href="../../db/d7c/class_u_b_graphics_item_transform_undo_command.html#a617cb2c15030689bb8416c0d83551a75" target="_top" xlink:title="UBGraphicsItemTransformUndo\lCommand::redo">
<polygon fill="white" stroke="black" points="170.5,-66 170.5,-100 327.5,-100 327.5,-66 170.5,-66"/>
<text text-anchor="start" x="178.5" y="-87" font-family="Helvetica,sans-Serif" font-size="10.00">UBGraphicsItemTransformUndo</text>
<text text-anchor="middle" x="249" y="-74" font-family="Helvetica,sans-Serif" font-size="10.00">Command::redo</text>
</a>
</g>
<!-- Node1&#45;&gt;Node5 -->
<g id="edge8" class="edge"><title>Node1&#45;&gt;Node5</title>
<path fill="none" stroke="midnightblue" d="M143.873,-98.0182C152.594,-96.7723 161.492,-95.5011 170.237,-94.2519"/>
<polygon fill="midnightblue" stroke="midnightblue" points="143.141,-94.5871 133.737,-99.4662 144.131,-101.517 143.141,-94.5871"/>
</g>
<!-- Node6 -->
<g id="node11" class="node"><title>Node6</title>
<a xlink:href="../../d8/d4f/class_u_b_svg_subset_adaptor_1_1_u_b_svg_subset_reader.html#a09b1ae110f3f26f1d44d1541585e07b7" target="_top" xlink:title="UBSvgSubsetAdaptor\l::UBSvgSubsetReader\l::graphicsItemFromSvg">
<polygon fill="white" stroke="black" points="189.5,-0.5 189.5,-47.5 308.5,-47.5 308.5,-0.5 189.5,-0.5"/>
<text text-anchor="start" x="197.5" y="-34.5" font-family="Helvetica,sans-Serif" font-size="10.00">UBSvgSubsetAdaptor</text>
<text text-anchor="start" x="197.5" y="-21.5" font-family="Helvetica,sans-Serif" font-size="10.00">::UBSvgSubsetReader</text>
<text text-anchor="middle" x="249" y="-8.5" font-family="Helvetica,sans-Serif" font-size="10.00">::graphicsItemFromSvg</text>
</a>
</g>
<!-- Node1&#45;&gt;Node6 -->
<g id="edge10" class="edge"><title>Node1&#45;&gt;Node6</title>
<path fill="none" stroke="midnightblue" d="M108.73,-87.0762C127.334,-77.5249 149.61,-66.391 170,-57 176.75,-53.891 183.877,-50.7376 190.977,-47.6758"/>
<polygon fill="midnightblue" stroke="midnightblue" points="106.923,-84.0697 99.6417,-91.7657 110.133,-90.2904 106.923,-84.0697"/>
</g>
<!-- Node3 -->
<g id="node5" class="node"><title>Node3</title>
<a xlink:href="../../d5/ded/class_u_b_graphics_delegate_frame.html#a344fb33c44bb0e803771f0b676553cb7" target="_top" xlink:title="UBGraphicsDelegateFrame\l::mouseMoveEvent">
<polygon fill="white" stroke="black" points="364.5,-170 364.5,-204 501.5,-204 501.5,-170 364.5,-170"/>
<text text-anchor="start" x="372.5" y="-191" font-family="Helvetica,sans-Serif" font-size="10.00">UBGraphicsDelegateFrame</text>
<text text-anchor="middle" x="433" y="-178" font-family="Helvetica,sans-Serif" font-size="10.00">::mouseMoveEvent</text>
</a>
</g>
<!-- Node2&#45;&gt;Node3 -->
<g id="edge4" class="edge"><title>Node2&#45;&gt;Node3</title>
<path fill="none" stroke="midnightblue" d="M327.687,-187C339.91,-187 352.452,-187 364.428,-187"/>
<polygon fill="midnightblue" stroke="midnightblue" points="327.515,-183.5 317.515,-187 327.515,-190.5 327.515,-183.5"/>
</g>
</g>
</svg>
