<?xml version="1.0" encoding="UTF-8" standalone="no"?>
<!DOCTYPE svg PUBLIC "-//W3C//DTD SVG 1.1//EN"
 "http://www.w3.org/Graphics/SVG/1.1/DTD/svg11.dtd">
<!-- Generated by graphviz version 2.26.3 (20100126.1600)
 -->
<!-- Title: UBTGUrlWidget Pages: 1 -->
<svg width="130pt" height="250pt"
 viewBox="0.00 0.00 130.00 250.00" xmlns="http://www.w3.org/2000/svg" xmlns:xlink="http://www.w3.org/1999/xlink">
<g id="graph1" class="graph" transform="scale(1 1) rotate(0) translate(4 246)">
<title>UBTGUrlWidget</title>
<polygon fill="white" stroke="white" points="-4,5 -4,-246 127,-246 127,5 -4,5"/>
<!-- Node1 -->
<g id="node1" class="node"><title>Node1</title>
<polygon fill="#bfbfbf" stroke="black" points="0,-0.5 0,-141.5 122,-141.5 122,-0.5 0,-0.5"/>
<text text-anchor="middle" x="61" y="-128.5" font-family="Helvetica,sans-Serif" font-size="10.00">UBTGUrlWidget</text>
<polyline fill="none" stroke="black" points="0,-120.5 122,-120.5 "/>
<text text-anchor="start" x="8" y="-107.5" font-family="Helvetica,sans-Serif" font-size="10.00">&#45; mpLayout</text>
<text text-anchor="start" x="8" y="-94.5" font-family="Helvetica,sans-Serif" font-size="10.00">&#45; mpTitle</text>
<text text-anchor="start" x="8" y="-81.5" font-family="Helvetica,sans-Serif" font-size="10.00">&#45; mpUrl</text>
<polyline fill="none" stroke="black" points="0,-73.5 122,-73.5 "/>
<text text-anchor="start" x="8" y="-60.5" font-family="Helvetica,sans-Serif" font-size="10.00">+ UBTGUrlWidget()</text>
<text text-anchor="start" x="8" y="-47.5" font-family="Helvetica,sans-Serif" font-size="10.00">+ ~UBTGUrlWidget()</text>
<text text-anchor="start" x="8" y="-34.5" font-family="Helvetica,sans-Serif" font-size="10.00">+ saveData()</text>
<text text-anchor="start" x="8" y="-21.5" font-family="Helvetica,sans-Serif" font-size="10.00">+ initializeWithDom()</text>
<text text-anchor="start" x="8" y="-8.5" font-family="Helvetica,sans-Serif" font-size="10.00">+ onUrlEditionFinished()</text>
</g>
<!-- Node2 -->
<g id="node2" class="node"><title>Node2</title>
<a xlink:href="../../d6/d3f/classi_u_b_t_g_save_data.html" target="_top" xlink:title="{iUBTGSaveData\n||+ saveData()\l}">
<polygon fill="white" stroke="black" points="16,-178.5 16,-241.5 106,-241.5 106,-178.5 16,-178.5"/>
<text text-anchor="middle" x="61" y="-228.5" font-family="Helvetica,sans-Serif" font-size="10.00">iUBTGSaveData</text>
<polyline fill="none" stroke="black" points="16,-220.5 106,-220.5 "/>
<text text-anchor="middle" x="61" y="-207.5" font-family="Helvetica,sans-Serif" font-size="10.00"> </text>
<polyline fill="none" stroke="black" points="16,-199.5 106,-199.5 "/>
<text text-anchor="start" x="24" y="-186.5" font-family="Helvetica,sans-Serif" font-size="10.00">+ saveData()</text>
</a>
</g>
<!-- Node2&#45;&gt;Node1 -->
<g id="edge2" class="edge"><title>Node2&#45;&gt;Node1</title>
<path fill="none" stroke="midnightblue" d="M61,-168.453C61,-159.942 61,-150.76 61,-141.553"/>
<polygon fill="none" stroke="midnightblue" points="57.5001,-168.459 61,-178.459 64.5001,-168.459 57.5001,-168.459"/>
</g>
</g>
</svg>
