<?xml version="1.0" encoding="UTF-8" standalone="no"?>
<!DOCTYPE svg PUBLIC "-//W3C//DTD SVG 1.1//EN"
 "http://www.w3.org/Graphics/SVG/1.1/DTD/svg11.dtd">
<!-- Generated by graphviz version 2.26.3 (20100126.1600)
 -->
<!-- Title: UBDisplayManager::unBlackout Pages: 1 -->
<svg width="1286pt" height="42pt"
 viewBox="0.00 0.00 1286.00 42.00" xmlns="http://www.w3.org/2000/svg" xmlns:xlink="http://www.w3.org/1999/xlink">
<g id="graph1" class="graph" transform="scale(1 1) rotate(0) translate(4 38)">
<title>UBDisplayManager::unBlackout</title>
<polygon fill="white" stroke="white" points="-4,5 -4,-38 1283,-38 1283,5 -4,5"/>
<!-- Node1 -->
<g id="node1" class="node"><title>Node1</title>
<polygon fill="#bfbfbf" stroke="black" points="0,-6.5 0,-27.5 156,-27.5 156,-6.5 0,-6.5"/>
<text text-anchor="middle" x="78" y="-14.5" font-family="Helvetica,sans-Serif" font-size="10.00">UBDisplayManager::unBlackout</text>
</g>
<!-- Node2 -->
<g id="node3" class="node"><title>Node2</title>
<a xlink:href="../../dd/d0f/class_u_b_display_manager.html#ad63e13d90aee1a779ba82c72345fbad7" target="_top" xlink:title="UBDisplayManager::blackout">
<polygon fill="white" stroke="black" points="192,-6.5 192,-27.5 336,-27.5 336,-6.5 192,-6.5"/>
<text text-anchor="middle" x="264" y="-14.5" font-family="Helvetica,sans-Serif" font-size="10.00">UBDisplayManager::blackout</text>
</a>
</g>
<!-- Node1&#45;&gt;Node2 -->
<g id="edge2" class="edge"><title>Node1&#45;&gt;Node2</title>
<path fill="none" stroke="midnightblue" d="M166.115,-17C174.707,-17 183.355,-17 191.764,-17"/>
<polygon fill="midnightblue" stroke="midnightblue" points="166.072,-13.5001 156.072,-17 166.072,-20.5001 166.072,-13.5001"/>
</g>
<!-- Node3 -->
<g id="node5" class="node"><title>Node3</title>
<a xlink:href="../../da/d14/class_u_b_application_controller.html#aaafa825c25da0324cf8323307fd61ed3" target="_top" xlink:title="UBApplicationController\l::blackout">
<polygon fill="white" stroke="black" points="372.5,-0 372.5,-34 493.5,-34 493.5,-0 372.5,-0"/>
<text text-anchor="start" x="380.5" y="-21" font-family="Helvetica,sans-Serif" font-size="10.00">UBApplicationController</text>
<text text-anchor="middle" x="433" y="-8" font-family="Helvetica,sans-Serif" font-size="10.00">::blackout</text>
</a>
</g>
<!-- Node2&#45;&gt;Node3 -->
<g id="edge4" class="edge"><title>Node2&#45;&gt;Node3</title>
<path fill="none" stroke="midnightblue" d="M346.363,-17C355.085,-17 363.836,-17 372.246,-17"/>
<polygon fill="midnightblue" stroke="midnightblue" points="346.161,-13.5001 336.161,-17 346.161,-20.5001 346.161,-13.5001"/>
</g>
<!-- Node4 -->
<g id="node7" class="node"><title>Node4</title>
<a xlink:href="../../d7/d62/class_u_b_board_controller.html#a78633b7cc8144607a3c0919c4237c26c" target="_top" xlink:title="UBBoardController:\l:blackout">
<polygon fill="white" stroke="black" points="530.5,-0 530.5,-34 631.5,-34 631.5,-0 530.5,-0"/>
<text text-anchor="start" x="538.5" y="-21" font-family="Helvetica,sans-Serif" font-size="10.00">UBBoardController:</text>
<text text-anchor="middle" x="581" y="-8" font-family="Helvetica,sans-Serif" font-size="10.00">:blackout</text>
</a>
</g>
<!-- Node3&#45;&gt;Node4 -->
<g id="edge6" class="edge"><title>Node3&#45;&gt;Node4</title>
<path fill="none" stroke="midnightblue" d="M503.661,-17C512.601,-17 521.605,-17 530.151,-17"/>
<polygon fill="midnightblue" stroke="midnightblue" points="503.624,-13.5001 493.624,-17 503.624,-20.5001 503.624,-13.5001"/>
</g>
<!-- Node5 -->
<g id="node9" class="node"><title>Node5</title>
<a xlink:href="../../d7/d62/class_u_b_board_controller.html#a0292260502bb0cbe4bc3c83f3a3283bc" target="_top" xlink:title="UBBoardController:\l:connectToolbar">
<polygon fill="white" stroke="black" points="668.5,-0 668.5,-34 769.5,-34 769.5,-0 668.5,-0"/>
<text text-anchor="start" x="676.5" y="-21" font-family="Helvetica,sans-Serif" font-size="10.00">UBBoardController:</text>
<text text-anchor="middle" x="719" y="-8" font-family="Helvetica,sans-Serif" font-size="10.00">:connectToolbar</text>
</a>
</g>
<!-- Node4&#45;&gt;Node5 -->
<g id="edge8" class="edge"><title>Node4&#45;&gt;Node5</title>
<path fill="none" stroke="midnightblue" d="M641.882,-17C650.74,-17 659.779,-17 668.404,-17"/>
<polygon fill="midnightblue" stroke="midnightblue" points="641.603,-13.5001 631.603,-17 641.602,-20.5001 641.603,-13.5001"/>
</g>
<!-- Node6 -->
<g id="node11" class="node"><title>Node6</title>
<a xlink:href="../../d7/d62/class_u_b_board_controller.html#a6761e02604fb3aa8ecbfc5fd4a5d87f3" target="_top" xlink:title="UBBoardController:\l:setupToolbar">
<polygon fill="white" stroke="black" points="806.5,-0 806.5,-34 907.5,-34 907.5,-0 806.5,-0"/>
<text text-anchor="start" x="814.5" y="-21" font-family="Helvetica,sans-Serif" font-size="10.00">UBBoardController:</text>
<text text-anchor="middle" x="857" y="-8" font-family="Helvetica,sans-Serif" font-size="10.00">:setupToolbar</text>
</a>
</g>
<!-- Node5&#45;&gt;Node6 -->
<g id="edge10" class="edge"><title>Node5&#45;&gt;Node6</title>
<path fill="none" stroke="midnightblue" d="M779.882,-17C788.74,-17 797.779,-17 806.404,-17"/>
<polygon fill="midnightblue" stroke="midnightblue" points="779.603,-13.5001 769.603,-17 779.602,-20.5001 779.603,-13.5001"/>
</g>
<!-- Node7 -->
<g id="node13" class="node"><title>Node7</title>
<a xlink:href="../../d7/d62/class_u_b_board_controller.html#aa728cb7c1b979b2d4ae45638a7386dde" target="_top" xlink:title="UBBoardController::init">
<polygon fill="white" stroke="black" points="944.5,-6.5 944.5,-27.5 1061.5,-27.5 1061.5,-6.5 944.5,-6.5"/>
<text text-anchor="middle" x="1003" y="-14.5" font-family="Helvetica,sans-Serif" font-size="10.00">UBBoardController::init</text>
</a>
</g>
<!-- Node6&#45;&gt;Node7 -->
<g id="edge12" class="edge"><title>Node6&#45;&gt;Node7</title>
<path fill="none" stroke="midnightblue" d="M917.836,-17C926.631,-17 935.668,-17 944.418,-17"/>
<polygon fill="midnightblue" stroke="midnightblue" points="917.654,-13.5001 907.654,-17 917.654,-20.5001 917.654,-13.5001"/>
</g>
<!-- Node8 -->
<g id="node15" class="node"><title>Node8</title>
<a xlink:href="../../d8/d81/class_u_b_application.html#add1469239e71bf24fdc61413a42a38bd" target="_top" xlink:title="UBApplication::exec">
<polygon fill="white" stroke="black" points="1098,-6.5 1098,-27.5 1204,-27.5 1204,-6.5 1098,-6.5"/>
<text text-anchor="middle" x="1151" y="-14.5" font-family="Helvetica,sans-Serif" font-size="10.00">UBApplication::exec</text>
</a>
</g>
<!-- Node7&#45;&gt;Node8 -->
<g id="edge14" class="edge"><title>Node7&#45;&gt;Node8</title>
<path fill="none" stroke="midnightblue" d="M1071.95,-17C1080.55,-17 1089.24,-17 1097.56,-17"/>
<polygon fill="midnightblue" stroke="midnightblue" points="1071.92,-13.5001 1061.92,-17 1071.92,-20.5001 1071.92,-13.5001"/>
</g>
<!-- Node9 -->
<g id="node17" class="node"><title>Node9</title>
<a xlink:href="../../df/d0a/main_8cpp.html#a0ddf1224851353fc92bfbff6f499fa97" target="_top" xlink:title="main">
<polygon fill="white" stroke="black" points="1240,-6.5 1240,-27.5 1278,-27.5 1278,-6.5 1240,-6.5"/>
<text text-anchor="middle" x="1259" y="-14.5" font-family="Helvetica,sans-Serif" font-size="10.00">main</text>
</a>
</g>
<!-- Node8&#45;&gt;Node9 -->
<g id="edge16" class="edge"><title>Node8&#45;&gt;Node9</title>
<path fill="none" stroke="midnightblue" d="M1214.21,-17C1223.49,-17 1232.4,-17 1239.79,-17"/>
<polygon fill="midnightblue" stroke="midnightblue" points="1214.05,-13.5001 1204.05,-17 1214.05,-20.5001 1214.05,-13.5001"/>
</g>
</g>
</svg>
