<?xml version="1.0" encoding="UTF-8" standalone="no"?>
<!DOCTYPE svg PUBLIC "-//W3C//DTD SVG 1.1//EN"
 "http://www.w3.org/Graphics/SVG/1.1/DTD/svg11.dtd">
<!-- Generated by graphviz version 2.26.3 (20100126.1600)
 -->
<!-- Title: UBOEmbedParser::onFinished Pages: 1 -->
<svg width="366pt" height="110pt"
 viewBox="0.00 0.00 366.00 110.00" xmlns="http://www.w3.org/2000/svg" xmlns:xlink="http://www.w3.org/1999/xlink">
<g id="graph1" class="graph" transform="scale(1 1) rotate(0) translate(4 106)">
<title>UBOEmbedParser::onFinished</title>
<polygon fill="white" stroke="white" points="-4,5 -4,-106 363,-106 363,5 -4,5"/>
<!-- Node1 -->
<g id="node1" class="node"><title>Node1</title>
<polygon fill="#bfbfbf" stroke="black" points="0.5,-40.5 0.5,-61.5 151.5,-61.5 151.5,-40.5 0.5,-40.5"/>
<text text-anchor="middle" x="76" y="-48.5" font-family="Helvetica,sans-Serif" font-size="10.00">UBOEmbedParser::onFinished</text>
</g>
<!-- Node2 -->
<g id="node3" class="node"><title>Node2</title>
<a xlink:href="../../db/d18/class_u_b_o_embed_parser.html#ae94b07856dfe1b7277c4f557875fd217" target="_top" xlink:title="UBOEmbedParser::getXMLInfos">
<polygon fill="white" stroke="black" points="193.5,-80.5 193.5,-101.5 352.5,-101.5 352.5,-80.5 193.5,-80.5"/>
<text text-anchor="middle" x="273" y="-88.5" font-family="Helvetica,sans-Serif" font-size="10.00">UBOEmbedParser::getXMLInfos</text>
</a>
</g>
<!-- Node1&#45;&gt;Node2 -->
<g id="edge2" class="edge"><title>Node1&#45;&gt;Node2</title>
<path fill="none" stroke="midnightblue" d="M127.759,-61.5095C153.334,-66.7023 184.381,-73.0064 211.195,-78.4508"/>
<polygon fill="midnightblue" stroke="midnightblue" points="210.748,-81.9314 221.245,-80.4913 212.141,-75.0713 210.748,-81.9314"/>
</g>
<!-- Node3 -->
<g id="node5" class="node"><title>Node3</title>
<a xlink:href="../../db/d18/class_u_b_o_embed_parser.html#a3dabfb4b9aedc6ab48fdfe569b6b8cac" target="_top" xlink:title="UBOEmbedParser::getJSONInfos">
<polygon fill="white" stroke="black" points="190,-40.5 190,-61.5 356,-61.5 356,-40.5 190,-40.5"/>
<text text-anchor="middle" x="273" y="-48.5" font-family="Helvetica,sans-Serif" font-size="10.00">UBOEmbedParser::getJSONInfos</text>
</a>
</g>
<!-- Node1&#45;&gt;Node3 -->
<g id="edge4" class="edge"><title>Node1&#45;&gt;Node3</title>
<path fill="none" stroke="midnightblue" d="M151.602,-51C160.766,-51 170.209,-51 179.591,-51"/>
<polygon fill="midnightblue" stroke="midnightblue" points="179.731,-54.5001 189.731,-51 179.731,-47.5001 179.731,-54.5001"/>
</g>
<!-- Node4 -->
<g id="node7" class="node"><title>Node4</title>
<a xlink:href="../../db/d18/class_u_b_o_embed_parser.html#ab0c16446cc9f72b15801af51fd3c64aa" target="_top" xlink:title="UBOEmbedParser::oembedParsed">
<polygon fill="white" stroke="black" points="188.5,-0.5 188.5,-21.5 357.5,-21.5 357.5,-0.5 188.5,-0.5"/>
<text text-anchor="middle" x="273" y="-8.5" font-family="Helvetica,sans-Serif" font-size="10.00">UBOEmbedParser::oembedParsed</text>
</a>
</g>
<!-- Node1&#45;&gt;Node4 -->
<g id="edge6" class="edge"><title>Node1&#45;&gt;Node4</title>
<path fill="none" stroke="midnightblue" d="M127.759,-40.4905C153.334,-35.2977 184.381,-28.9936 211.195,-23.5492"/>
<polygon fill="midnightblue" stroke="midnightblue" points="212.141,-26.9287 221.245,-21.5087 210.748,-20.0686 212.141,-26.9287"/>
</g>
</g>
</svg>
