<?xml version="1.0" encoding="UTF-8" standalone="no"?>
<!DOCTYPE svg PUBLIC "-//W3C//DTD SVG 1.1//EN"
 "http://www.w3.org/Graphics/SVG/1.1/DTD/svg11.dtd">
<!-- Generated by graphviz version 2.26.3 (20100126.1600)
 -->
<!-- Title: UBDocumentController::toggleDocumentToolsPalette Pages: 1 -->
<svg width="596pt" height="172pt"
 viewBox="0.00 0.00 596.00 172.00" xmlns="http://www.w3.org/2000/svg" xmlns:xlink="http://www.w3.org/1999/xlink">
<g id="graph1" class="graph" transform="scale(1 1) rotate(0) translate(4 168)">
<title>UBDocumentController::toggleDocumentToolsPalette</title>
<polygon fill="white" stroke="white" points="-4,5 -4,-168 593,-168 593,5 -4,5"/>
<!-- Node1 -->
<g id="node1" class="node"><title>Node1</title>
<polygon fill="#bfbfbf" stroke="black" points="0.5,-52 0.5,-86 149.5,-86 149.5,-52 0.5,-52"/>
<text text-anchor="start" x="8.5" y="-73" font-family="Helvetica,sans-Serif" font-size="10.00">UBDocumentController</text>
<text text-anchor="middle" x="75" y="-60" font-family="Helvetica,sans-Serif" font-size="10.00">::toggleDocumentToolsPalette</text>
</g>
<!-- Node2 -->
<g id="node3" class="node"><title>Node2</title>
<a xlink:href="../../d1/d97/class_u_b_floating_palette.html#abc34a1ea7b29b6aaa4a0ea25d5715210" target="_top" xlink:title="UBFloatingPalette:\l:adjustSizeAndPosition">
<polygon fill="white" stroke="black" points="186,-104 186,-138 304,-138 304,-104 186,-104"/>
<text text-anchor="start" x="194" y="-125" font-family="Helvetica,sans-Serif" font-size="10.00">UBFloatingPalette:</text>
<text text-anchor="middle" x="245" y="-112" font-family="Helvetica,sans-Serif" font-size="10.00">:adjustSizeAndPosition</text>
</a>
</g>
<!-- Node1&#45;&gt;Node2 -->
<g id="edge2" class="edge"><title>Node1&#45;&gt;Node2</title>
<path fill="none" stroke="midnightblue" d="M130.664,-86.0267C146.221,-90.7854 163.273,-96.0011 179.349,-100.919"/>
<polygon fill="midnightblue" stroke="midnightblue" points="178.624,-104.357 189.211,-103.935 180.672,-97.663 178.624,-104.357"/>
</g>
<!-- Node7 -->
<g id="node13" class="node"><title>Node7</title>
<a xlink:href="../../d6/de0/class_u_b_document_controller.html#abf8464ae901a12f1354e48e06fb33daf" target="_top" xlink:title="UBDocumentController\l::controlView">
<polygon fill="white" stroke="black" points="186,-52 186,-86 304,-86 304,-52 186,-52"/>
<text text-anchor="start" x="194" y="-73" font-family="Helvetica,sans-Serif" font-size="10.00">UBDocumentController</text>
<text text-anchor="middle" x="245" y="-60" font-family="Helvetica,sans-Serif" font-size="10.00">::controlView</text>
</a>
</g>
<!-- Node1&#45;&gt;Node7 -->
<g id="edge12" class="edge"><title>Node1&#45;&gt;Node7</title>
<path fill="none" stroke="midnightblue" d="M149.564,-69C158.285,-69 167.154,-69 175.798,-69"/>
<polygon fill="midnightblue" stroke="midnightblue" points="175.818,-72.5001 185.818,-69 175.818,-65.5001 175.818,-72.5001"/>
</g>
<!-- Node8 -->
<g id="node15" class="node"><title>Node8</title>
<a xlink:href="../../d1/d97/class_u_b_floating_palette.html#abc8797caf59410a7fb11bc57e74ceb8d" target="_top" xlink:title="UBFloatingPalette:\l:setCustomPosition">
<polygon fill="white" stroke="black" points="193.5,-0 193.5,-34 296.5,-34 296.5,-0 193.5,-0"/>
<text text-anchor="start" x="201.5" y="-21" font-family="Helvetica,sans-Serif" font-size="10.00">UBFloatingPalette:</text>
<text text-anchor="middle" x="245" y="-8" font-family="Helvetica,sans-Serif" font-size="10.00">:setCustomPosition</text>
</a>
</g>
<!-- Node1&#45;&gt;Node8 -->
<g id="edge14" class="edge"><title>Node1&#45;&gt;Node8</title>
<path fill="none" stroke="midnightblue" d="M130.664,-51.9733C147.501,-46.8231 166.089,-41.1375 183.296,-35.8742"/>
<polygon fill="midnightblue" stroke="midnightblue" points="184.705,-39.1032 193.244,-32.8312 182.658,-32.4094 184.705,-39.1032"/>
</g>
<!-- Node3 -->
<g id="node5" class="node"><title>Node3</title>
<a xlink:href="../../d1/d97/class_u_b_floating_palette.html#aec5822b784da7d590ff463ed9cb44be9" target="_top" xlink:title="UBFloatingPalette:\l:preferredSize">
<polygon fill="white" stroke="black" points="340.5,-130 340.5,-164 439.5,-164 439.5,-130 340.5,-130"/>
<text text-anchor="start" x="348.5" y="-151" font-family="Helvetica,sans-Serif" font-size="10.00">UBFloatingPalette:</text>
<text text-anchor="middle" x="390" y="-138" font-family="Helvetica,sans-Serif" font-size="10.00">:preferredSize</text>
</a>
</g>
<!-- Node2&#45;&gt;Node3 -->
<g id="edge4" class="edge"><title>Node2&#45;&gt;Node3</title>
<path fill="none" stroke="midnightblue" d="M304.395,-131.65C312.94,-133.182 321.736,-134.759 330.286,-136.293"/>
<polygon fill="midnightblue" stroke="midnightblue" points="329.721,-139.747 340.182,-138.067 330.956,-132.857 329.721,-139.747"/>
</g>
<!-- Node4 -->
<g id="node7" class="node"><title>Node4</title>
<a xlink:href="../../d1/d97/class_u_b_floating_palette.html#a187ee35c53cfad79bb5b30dff1800732" target="_top" xlink:title="UBFloatingPalette:\l:moveInsideParent">
<polygon fill="white" stroke="black" points="340.5,-78 340.5,-112 439.5,-112 439.5,-78 340.5,-78"/>
<text text-anchor="start" x="348.5" y="-99" font-family="Helvetica,sans-Serif" font-size="10.00">UBFloatingPalette:</text>
<text text-anchor="middle" x="390" y="-86" font-family="Helvetica,sans-Serif" font-size="10.00">:moveInsideParent</text>
</a>
</g>
<!-- Node2&#45;&gt;Node4 -->
<g id="edge6" class="edge"><title>Node2&#45;&gt;Node4</title>
<path fill="none" stroke="midnightblue" d="M304.395,-110.35C312.94,-108.818 321.736,-107.241 330.286,-105.707"/>
<polygon fill="midnightblue" stroke="midnightblue" points="330.956,-109.143 340.182,-103.933 329.721,-102.253 330.956,-109.143"/>
</g>
<!-- Node5 -->
<g id="node9" class="node"><title>Node5</title>
<a xlink:href="../../d1/d97/class_u_b_floating_palette.html#a1902d37271315e9e06d6743752104f47" target="_top" xlink:title="UBFloatingPalette:\l:border">
<polygon fill="white" stroke="black" points="482.5,-104 482.5,-138 581.5,-138 581.5,-104 482.5,-104"/>
<text text-anchor="start" x="490.5" y="-125" font-family="Helvetica,sans-Serif" font-size="10.00">UBFloatingPalette:</text>
<text text-anchor="middle" x="532" y="-112" font-family="Helvetica,sans-Serif" font-size="10.00">:border</text>
</a>
</g>
<!-- Node4&#45;&gt;Node5 -->
<g id="edge8" class="edge"><title>Node4&#45;&gt;Node5</title>
<path fill="none" stroke="midnightblue" d="M439.665,-104.094C450.197,-106.022 461.419,-108.077 472.281,-110.065"/>
<polygon fill="midnightblue" stroke="midnightblue" points="471.656,-113.509 482.123,-111.868 472.917,-106.624 471.656,-113.509"/>
</g>
<!-- Node6 -->
<g id="node11" class="node"><title>Node6</title>
<a xlink:href="../../d1/d97/class_u_b_floating_palette.html#acf3ead0c3d8a3bde89b934ad208e9f9a" target="_top" xlink:title="UBFloatingPalette:\l:getParentRightOffset">
<polygon fill="white" stroke="black" points="476,-52 476,-86 588,-86 588,-52 476,-52"/>
<text text-anchor="start" x="484" y="-73" font-family="Helvetica,sans-Serif" font-size="10.00">UBFloatingPalette:</text>
<text text-anchor="middle" x="532" y="-60" font-family="Helvetica,sans-Serif" font-size="10.00">:getParentRightOffset</text>
</a>
</g>
<!-- Node4&#45;&gt;Node6 -->
<g id="edge10" class="edge"><title>Node4&#45;&gt;Node6</title>
<path fill="none" stroke="midnightblue" d="M439.665,-85.9065C448.149,-84.3531 457.081,-82.7176 465.911,-81.1008"/>
<polygon fill="midnightblue" stroke="midnightblue" points="466.602,-84.5326 475.808,-79.2887 465.341,-77.6471 466.602,-84.5326"/>
</g>
</g>
</svg>
