<?xml version="1.0" encoding="UTF-8" standalone="no"?>
<!DOCTYPE svg PUBLIC "-//W3C//DTD SVG 1.1//EN"
 "http://www.w3.org/Graphics/SVG/1.1/DTD/svg11.dtd">
<!-- Generated by graphviz version 2.26.3 (20100126.1600)
 -->
<!-- Title: UBDocumentController::selectedProxies Pages: 1 -->
<svg width="870pt" height="82pt"
 viewBox="0.00 0.00 870.00 82.00" xmlns="http://www.w3.org/2000/svg" xmlns:xlink="http://www.w3.org/1999/xlink">
<g id="graph1" class="graph" transform="scale(1 1) rotate(0) translate(4 78)">
<title>UBDocumentController::selectedProxies</title>
<polygon fill="white" stroke="white" points="-4,5 -4,-78 867,-78 867,5 -4,5"/>
<!-- Node1 -->
<g id="node1" class="node"><title>Node1</title>
<polygon fill="#bfbfbf" stroke="black" points="0,-23 0,-57 118,-57 118,-23 0,-23"/>
<text text-anchor="start" x="8" y="-44" font-family="Helvetica,sans-Serif" font-size="10.00">UBDocumentController</text>
<text text-anchor="middle" x="59" y="-31" font-family="Helvetica,sans-Serif" font-size="10.00">::selectedProxies</text>
</g>
<!-- Node2 -->
<g id="node3" class="node"><title>Node2</title>
<a xlink:href="../../d6/de0/class_u_b_document_controller.html#aadb04f4c4251bd9d381065705f8da7e4" target="_top" xlink:title="UBDocumentController\l::firstSelectedTreeProxy">
<polygon fill="white" stroke="black" points="154,-23 154,-57 276,-57 276,-23 154,-23"/>
<text text-anchor="start" x="162" y="-44" font-family="Helvetica,sans-Serif" font-size="10.00">UBDocumentController</text>
<text text-anchor="middle" x="215" y="-31" font-family="Helvetica,sans-Serif" font-size="10.00">::firstSelectedTreeProxy</text>
</a>
</g>
<!-- Node1&#45;&gt;Node2 -->
<g id="edge2" class="edge"><title>Node1&#45;&gt;Node2</title>
<path fill="none" stroke="midnightblue" d="M128.622,-40C137.06,-40 145.63,-40 153.931,-40"/>
<polygon fill="midnightblue" stroke="midnightblue" points="128.422,-36.5001 118.422,-40 128.422,-43.5001 128.422,-36.5001"/>
</g>
<!-- Node3 -->
<g id="node5" class="node"><title>Node3</title>
<a xlink:href="../../da/d14/class_u_b_application_controller.html#a074e9435d9ab3aff5d05ab47e5a37e3e" target="_top" xlink:title="UBApplicationController\l::showDocument">
<polygon fill="white" stroke="black" points="312.5,-23 312.5,-57 433.5,-57 433.5,-23 312.5,-23"/>
<text text-anchor="start" x="320.5" y="-44" font-family="Helvetica,sans-Serif" font-size="10.00">UBApplicationController</text>
<text text-anchor="middle" x="373" y="-31" font-family="Helvetica,sans-Serif" font-size="10.00">::showDocument</text>
</a>
</g>
<!-- Node2&#45;&gt;Node3 -->
<g id="edge4" class="edge"><title>Node2&#45;&gt;Node3</title>
<path fill="none" stroke="midnightblue" d="M286.235,-40C294.951,-40 303.795,-40 312.336,-40"/>
<polygon fill="midnightblue" stroke="midnightblue" points="286.087,-36.5001 276.087,-40 286.087,-43.5001 286.087,-36.5001"/>
</g>
<!-- Node4 -->
<g id="node7" class="node"><title>Node4</title>
<a xlink:href="../../d8/d81/class_u_b_application.html#aa7760534852820a497c88484745d8225" target="_top" xlink:title="UBApplication::showDocument">
<polygon fill="white" stroke="black" points="470.5,-52.5 470.5,-73.5 623.5,-73.5 623.5,-52.5 470.5,-52.5"/>
<text text-anchor="middle" x="547" y="-60.5" font-family="Helvetica,sans-Serif" font-size="10.00">UBApplication::showDocument</text>
</a>
</g>
<!-- Node3&#45;&gt;Node4 -->
<g id="edge6" class="edge"><title>Node3&#45;&gt;Node4</title>
<path fill="none" stroke="midnightblue" d="M443.924,-49.3751C452.606,-50.5226 461.508,-51.6993 470.27,-52.8575"/>
<polygon fill="midnightblue" stroke="midnightblue" points="444.229,-45.885 433.857,-48.0443 443.312,-52.8246 444.229,-45.885"/>
</g>
<!-- Node7 -->
<g id="node13" class="node"><title>Node7</title>
<a xlink:href="../../da/d14/class_u_b_application_controller.html#a59f95b747443497d344b8af0fd231cf4" target="_top" xlink:title="UBApplicationController\l::hideDesktop">
<polygon fill="white" stroke="black" points="486.5,-0 486.5,-34 607.5,-34 607.5,-0 486.5,-0"/>
<text text-anchor="start" x="494.5" y="-21" font-family="Helvetica,sans-Serif" font-size="10.00">UBApplicationController</text>
<text text-anchor="middle" x="547" y="-8" font-family="Helvetica,sans-Serif" font-size="10.00">::hideDesktop</text>
</a>
</g>
<!-- Node3&#45;&gt;Node7 -->
<g id="edge12" class="edge"><title>Node3&#45;&gt;Node7</title>
<path fill="none" stroke="midnightblue" d="M443.995,-30.6156C458.09,-28.7525 472.765,-26.8127 486.471,-25.0009"/>
<polygon fill="midnightblue" stroke="midnightblue" points="443.312,-27.1754 433.857,-31.9557 444.229,-34.115 443.312,-27.1754"/>
</g>
<!-- Node5 -->
<g id="node9" class="node"><title>Node5</title>
<a xlink:href="../../d8/d81/class_u_b_application.html#add1469239e71bf24fdc61413a42a38bd" target="_top" xlink:title="UBApplication::exec">
<polygon fill="white" stroke="black" points="671,-52.5 671,-73.5 777,-73.5 777,-52.5 671,-52.5"/>
<text text-anchor="middle" x="724" y="-60.5" font-family="Helvetica,sans-Serif" font-size="10.00">UBApplication::exec</text>
</a>
</g>
<!-- Node4&#45;&gt;Node5 -->
<g id="edge8" class="edge"><title>Node4&#45;&gt;Node5</title>
<path fill="none" stroke="midnightblue" d="M633.766,-63C646.473,-63 659.227,-63 670.981,-63"/>
<polygon fill="midnightblue" stroke="midnightblue" points="633.605,-59.5001 623.605,-63 633.605,-66.5001 633.605,-59.5001"/>
</g>
<!-- Node6 -->
<g id="node11" class="node"><title>Node6</title>
<a xlink:href="../../df/d0a/main_8cpp.html#a0ddf1224851353fc92bfbff6f499fa97" target="_top" xlink:title="main">
<polygon fill="white" stroke="black" points="824,-52.5 824,-73.5 862,-73.5 862,-52.5 824,-52.5"/>
<text text-anchor="middle" x="843" y="-60.5" font-family="Helvetica,sans-Serif" font-size="10.00">main</text>
</a>
</g>
<!-- Node5&#45;&gt;Node6 -->
<g id="edge10" class="edge"><title>Node5&#45;&gt;Node6</title>
<path fill="none" stroke="midnightblue" d="M787.379,-63C800.635,-63 813.634,-63 823.728,-63"/>
<polygon fill="midnightblue" stroke="midnightblue" points="787.235,-59.5001 777.235,-63 787.235,-66.5001 787.235,-59.5001"/>
</g>
<!-- Node8 -->
<g id="node15" class="node"><title>Node8</title>
<a xlink:href="../../da/d14/class_u_b_application_controller.html#a9b13846d29481cee9b89b5177ff2b3f4" target="_top" xlink:title="UBApplicationController\l::UBApplicationController">
<polygon fill="white" stroke="black" points="660.5,-0 660.5,-34 787.5,-34 787.5,-0 660.5,-0"/>
<text text-anchor="start" x="668.5" y="-21" font-family="Helvetica,sans-Serif" font-size="10.00">UBApplicationController</text>
<text text-anchor="middle" x="724" y="-8" font-family="Helvetica,sans-Serif" font-size="10.00">::UBApplicationController</text>
</a>
</g>
<!-- Node7&#45;&gt;Node8 -->
<g id="edge14" class="edge"><title>Node7&#45;&gt;Node8</title>
<path fill="none" stroke="midnightblue" d="M617.965,-17C631.946,-17 646.536,-17 660.261,-17"/>
<polygon fill="midnightblue" stroke="midnightblue" points="617.913,-13.5001 607.913,-17 617.913,-20.5001 617.913,-13.5001"/>
</g>
</g>
</svg>
