<?xml version="1.0" encoding="UTF-8" standalone="no"?>
<!DOCTYPE svg PUBLIC "-//W3C//DTD SVG 1.1//EN"
 "http://www.w3.org/Graphics/SVG/1.1/DTD/svg11.dtd">
<!-- Generated by graphviz version 2.26.3 (20100126.1600)
 -->
<!-- Title: UBWindowsMediaFile::initVideoStream Pages: 1 -->
<svg width="274pt" height="42pt"
 viewBox="0.00 0.00 274.00 42.00" xmlns="http://www.w3.org/2000/svg" xmlns:xlink="http://www.w3.org/1999/xlink">
<g id="graph1" class="graph" transform="scale(1 1) rotate(0) translate(4 38)">
<title>UBWindowsMediaFile::initVideoStream</title>
<polygon fill="white" stroke="white" points="-4,5 -4,-38 271,-38 271,5 -4,5"/>
<!-- Node1 -->
<g id="node1" class="node"><title>Node1</title>
<polygon fill="#bfbfbf" stroke="black" points="0.5,-0 0.5,-34 113.5,-34 113.5,-0 0.5,-0"/>
<text text-anchor="start" x="8.5" y="-21" font-family="Helvetica,sans-Serif" font-size="10.00">UBWindowsMediaFile</text>
<text text-anchor="middle" x="57" y="-8" font-family="Helvetica,sans-Serif" font-size="10.00">::initVideoStream</text>
</g>
<!-- Node2 -->
<g id="node3" class="node"><title>Node2</title>
<a xlink:href="../../d7/d45/class_u_b_windows_media_file.html#ae13f7892a4fc270eea4e7551d7271829" target="_top" xlink:title="UBWindowsMediaFile\l::setLastErrorMessage">
<polygon fill="white" stroke="black" points="150,-0 150,-34 266,-34 266,-0 150,-0"/>
<text text-anchor="start" x="158" y="-21" font-family="Helvetica,sans-Serif" font-size="10.00">UBWindowsMediaFile</text>
<text text-anchor="middle" x="208" y="-8" font-family="Helvetica,sans-Serif" font-size="10.00">::setLastErrorMessage</text>
</a>
</g>
<!-- Node1&#45;&gt;Node2 -->
<g id="edge2" class="edge"><title>Node1&#45;&gt;Node2</title>
<path fill="none" stroke="midnightblue" d="M113.656,-17C122.137,-17 130.957,-17 139.65,-17"/>
<polygon fill="midnightblue" stroke="midnightblue" points="139.767,-20.5001 149.767,-17 139.767,-13.5001 139.767,-20.5001"/>
</g>
</g>
</svg>
