<?xml version="1.0" encoding="UTF-8" standalone="no"?>
<!DOCTYPE svg PUBLIC "-//W3C//DTD SVG 1.1//EN"
 "http://www.w3.org/Graphics/SVG/1.1/DTD/svg11.dtd">
<!-- Generated by graphviz version 2.26.3 (20100126.1600)
 -->
<!-- Title: UBWebController::paraschoolWebInstance Pages: 1 -->
<svg width="1524pt" height="734pt"
 viewBox="0.00 0.00 1524.00 734.00" xmlns="http://www.w3.org/2000/svg" xmlns:xlink="http://www.w3.org/1999/xlink">
<g id="graph1" class="graph" transform="scale(1 1) rotate(0) translate(4 730)">
<title>UBWebController::paraschoolWebInstance</title>
<polygon fill="white" stroke="white" points="-4,5 -4,-730 1521,-730 1521,5 -4,5"/>
<!-- Node1 -->
<g id="node1" class="node"><title>Node1</title>
<polygon fill="#bfbfbf" stroke="black" points="0,-397 0,-431 146,-431 146,-397 0,-397"/>
<text text-anchor="start" x="8" y="-418" font-family="Helvetica,sans-Serif" font-size="10.00">UBWebController::paraschool</text>
<text text-anchor="middle" x="73" y="-405" font-family="Helvetica,sans-Serif" font-size="10.00">WebInstance</text>
</g>
<!-- Node2 -->
<g id="node3" class="node"><title>Node2</title>
<a xlink:href="../../db/d66/class_u_b_settings.html#a0d8ed418921c2b2d37851faeae00715d" target="_top" xlink:title="UBSettings::settings">
<polygon fill="white" stroke="black" points="207.5,-585.5 207.5,-606.5 314.5,-606.5 314.5,-585.5 207.5,-585.5"/>
<text text-anchor="middle" x="261" y="-593.5" font-family="Helvetica,sans-Serif" font-size="10.00">UBSettings::settings</text>
</a>
</g>
<!-- Node1&#45;&gt;Node2 -->
<g id="edge2" class="edge"><title>Node1&#45;&gt;Node2</title>
<path fill="none" stroke="midnightblue" d="M85.4707,-431.425C104.496,-457.313 142.72,-506.671 182,-542 198.005,-556.395 218.046,-570.052 233.938,-580.03"/>
<polygon fill="midnightblue" stroke="midnightblue" points="232.403,-583.195 242.753,-585.457 236.073,-577.234 232.403,-583.195"/>
</g>
<!-- Node12 -->
<g id="node24" class="node"><title>Node12</title>
<a xlink:href="../../df/d50/class_u_b_web_controller.html#af341fd41ab6358908169c19a0f170612" target="_top" xlink:title="UBWebController::setSource\lWidget">
<polygon fill="white" stroke="black" points="189.5,-466 189.5,-500 332.5,-500 332.5,-466 189.5,-466"/>
<text text-anchor="start" x="197.5" y="-487" font-family="Helvetica,sans-Serif" font-size="10.00">UBWebController::setSource</text>
<text text-anchor="middle" x="261" y="-474" font-family="Helvetica,sans-Serif" font-size="10.00">Widget</text>
</a>
</g>
<!-- Node1&#45;&gt;Node12 -->
<g id="edge24" class="edge"><title>Node1&#45;&gt;Node12</title>
<path fill="none" stroke="midnightblue" d="M114.452,-431.005C134.714,-439.149 159.521,-448.875 182,-457 187.177,-458.871 192.564,-460.762 197.984,-462.625"/>
<polygon fill="midnightblue" stroke="midnightblue" points="197.143,-466.035 207.737,-465.937 199.394,-459.407 197.143,-466.035"/>
</g>
<!-- Node13 -->
<g id="node26" class="node"><title>Node13</title>
<a xlink:href="../../da/d14/class_u_b_application_controller.html#afa4aa8833852d7c01d1fc46a9f4dacb3" target="_top" xlink:title="UBApplicationController\l::setMirrorSourceWidget">
<polygon fill="white" stroke="black" points="400,-511 400,-545 522,-545 522,-511 400,-511"/>
<text text-anchor="start" x="408" y="-532" font-family="Helvetica,sans-Serif" font-size="10.00">UBApplicationController</text>
<text text-anchor="middle" x="461" y="-519" font-family="Helvetica,sans-Serif" font-size="10.00">::setMirrorSourceWidget</text>
</a>
</g>
<!-- Node1&#45;&gt;Node13 -->
<g id="edge112" class="edge"><title>Node1&#45;&gt;Node13</title>
<path fill="none" stroke="midnightblue" d="M86.3214,-431.084C104.967,-453.538 141.179,-492.104 182,-509 248.545,-536.543 331.652,-538.546 389.782,-535.359"/>
<polygon fill="midnightblue" stroke="midnightblue" points="390.207,-538.839 399.973,-534.733 389.778,-531.853 390.207,-538.839"/>
</g>
<!-- Node16 -->
<g id="node32" class="node"><title>Node16</title>
<a xlink:href="../../df/d50/class_u_b_web_controller.html#a8b04641f066be7c1aded39c4fce340ec" target="_top" xlink:title="UBWebController::adaptToolBar">
<polygon fill="white" stroke="black" points="182.5,-426.5 182.5,-447.5 339.5,-447.5 339.5,-426.5 182.5,-426.5"/>
<text text-anchor="middle" x="261" y="-434.5" font-family="Helvetica,sans-Serif" font-size="10.00">UBWebController::adaptToolBar</text>
</a>
</g>
<!-- Node1&#45;&gt;Node16 -->
<g id="edge32" class="edge"><title>Node1&#45;&gt;Node16</title>
<path fill="none" stroke="midnightblue" d="M146.224,-422.958C154.746,-424.001 163.508,-425.073 172.21,-426.137"/>
<polygon fill="midnightblue" stroke="midnightblue" points="172.028,-429.641 182.38,-427.382 172.879,-422.693 172.028,-429.641"/>
</g>
<!-- Node17 -->
<g id="node34" class="node"><title>Node17</title>
<a xlink:href="../../df/d50/class_u_b_web_controller.html#ac373f43baf7f6015989c5f14cfcf36c0" target="_top" xlink:title="UBWebController::activePage\lChanged">
<polygon fill="white" stroke="black" points="187,-374 187,-408 335,-408 335,-374 187,-374"/>
<text text-anchor="start" x="195" y="-395" font-family="Helvetica,sans-Serif" font-size="10.00">UBWebController::activePage</text>
<text text-anchor="middle" x="261" y="-382" font-family="Helvetica,sans-Serif" font-size="10.00">Changed</text>
</a>
</g>
<!-- Node1&#45;&gt;Node17 -->
<g id="edge34" class="edge"><title>Node1&#45;&gt;Node17</title>
<path fill="none" stroke="midnightblue" d="M146.224,-405.042C156.199,-403.821 166.502,-402.561 176.654,-401.319"/>
<polygon fill="midnightblue" stroke="midnightblue" points="177.237,-404.774 186.737,-400.085 176.386,-397.826 177.237,-404.774"/>
</g>
<!-- Node45 -->
<g id="node102" class="node"><title>Node45</title>
<a xlink:href="../../d8/d9e/class_u_b_main_window.html#ac9cca6450d4bb9e206f61305c358a864" target="_top" xlink:title="UBMainWindow::switchToWeb\lWidget">
<polygon fill="white" stroke="black" points="184.5,-322 184.5,-356 337.5,-356 337.5,-322 184.5,-322"/>
<text text-anchor="start" x="192.5" y="-343" font-family="Helvetica,sans-Serif" font-size="10.00">UBMainWindow::switchToWeb</text>
<text text-anchor="middle" x="261" y="-330" font-family="Helvetica,sans-Serif" font-size="10.00">Widget</text>
</a>
</g>
<!-- Node1&#45;&gt;Node45 -->
<g id="edge114" class="edge"><title>Node1&#45;&gt;Node45</title>
<path fill="none" stroke="midnightblue" d="M108.439,-396.937C129.566,-387.05 157.049,-374.684 182,-365 186.84,-363.122 191.878,-361.258 196.964,-359.442"/>
<polygon fill="midnightblue" stroke="midnightblue" points="198.478,-362.621 206.763,-356.018 196.168,-356.013 198.478,-362.621"/>
</g>
<!-- Node46 -->
<g id="node104" class="node"><title>Node46</title>
<a xlink:href="../../df/d50/class_u_b_web_controller.html#a3f864bc3cd2c4aee88a13438af932cb4" target="_top" xlink:title="UBWebController::screenLayout\lChanged">
<polygon fill="white" stroke="black" points="182,-258 182,-292 340,-292 340,-258 182,-258"/>
<text text-anchor="start" x="190" y="-279" font-family="Helvetica,sans-Serif" font-size="10.00">UBWebController::screenLayout</text>
<text text-anchor="middle" x="261" y="-266" font-family="Helvetica,sans-Serif" font-size="10.00">Changed</text>
</a>
</g>
<!-- Node1&#45;&gt;Node46 -->
<g id="edge116" class="edge"><title>Node1&#45;&gt;Node46</title>
<path fill="none" stroke="midnightblue" d="M88.3102,-396.956C108.301,-375.414 145.109,-338.121 182,-313 190.77,-307.028 200.623,-301.49 210.318,-296.593"/>
<polygon fill="midnightblue" stroke="midnightblue" points="212.072,-299.632 219.524,-292.101 209.002,-293.341 212.072,-299.632"/>
</g>
<!-- Node49 -->
<g id="node110" class="node"><title>Node49</title>
<a xlink:href="../../d7/d24/class_u_b_setting.html#afe671b284dd9f1e313e6f27df3ecd2a8" target="_top" xlink:title="UBSetting::get">
<polygon fill="white" stroke="black" points="220.5,-198.5 220.5,-219.5 301.5,-219.5 301.5,-198.5 220.5,-198.5"/>
<text text-anchor="middle" x="261" y="-206.5" font-family="Helvetica,sans-Serif" font-size="10.00">UBSetting::get</text>
</a>
</g>
<!-- Node1&#45;&gt;Node49 -->
<g id="edge122" class="edge"><title>Node1&#45;&gt;Node49</title>
<path fill="none" stroke="midnightblue" d="M80.5666,-396.949C95.6983,-364.478 132.529,-293.081 182,-249 193.657,-238.613 208.499,-230.172 222.164,-223.768"/>
<polygon fill="midnightblue" stroke="midnightblue" points="223.672,-226.927 231.382,-219.66 220.823,-220.533 223.672,-226.927"/>
</g>
<!-- Node3 -->
<g id="node5" class="node"><title>Node3</title>
<a xlink:href="../../db/d66/class_u_b_settings.html#ad703e9b5a7efdb68b9c6ecef0df7cce2" target="_top" xlink:title="UBSettings::UBSettings">
<polygon fill="white" stroke="black" points="399.5,-609.5 399.5,-630.5 522.5,-630.5 522.5,-609.5 399.5,-609.5"/>
<text text-anchor="middle" x="461" y="-617.5" font-family="Helvetica,sans-Serif" font-size="10.00">UBSettings::UBSettings</text>
</a>
</g>
<!-- Node2&#45;&gt;Node3 -->
<g id="edge4" class="edge"><title>Node2&#45;&gt;Node3</title>
<path fill="none" stroke="midnightblue" d="M314.596,-602.432C337.58,-605.19 364.765,-608.452 389.433,-611.412"/>
<polygon fill="midnightblue" stroke="midnightblue" points="389.122,-614.9 399.468,-612.616 389.956,-607.95 389.122,-614.9"/>
</g>
<!-- Node4 -->
<g id="node7" class="node"><title>Node4</title>
<a xlink:href="../../db/d66/class_u_b_settings.html#afd0d739b2cfac7e2d05be7415f6692df" target="_top" xlink:title="UBSettings::InitKeyboard\lPaletteKeyBtnSizes">
<polygon fill="white" stroke="black" points="603,-572 603,-606 731,-606 731,-572 603,-572"/>
<text text-anchor="start" x="611" y="-593" font-family="Helvetica,sans-Serif" font-size="10.00">UBSettings::InitKeyboard</text>
<text text-anchor="middle" x="667" y="-580" font-family="Helvetica,sans-Serif" font-size="10.00">PaletteKeyBtnSizes</text>
</a>
</g>
<!-- Node3&#45;&gt;Node4 -->
<g id="edge6" class="edge"><title>Node3&#45;&gt;Node4</title>
<path fill="none" stroke="midnightblue" d="M522.528,-610.741C544.628,-607.415 569.787,-603.629 592.848,-600.159"/>
<polygon fill="midnightblue" stroke="midnightblue" points="593.563,-603.591 602.931,-598.641 592.521,-596.669 593.563,-603.591"/>
</g>
<!-- Node5 -->
<g id="node9" class="node"><title>Node5</title>
<a xlink:href="../../db/d66/class_u_b_settings.html#a2d3413f8b25d64a698d6d83e0f18ff39" target="_top" xlink:title="UBSettings::getAppSettings">
<polygon fill="white" stroke="black" points="803,-698.5 803,-719.5 943,-719.5 943,-698.5 803,-698.5"/>
<text text-anchor="middle" x="873" y="-706.5" font-family="Helvetica,sans-Serif" font-size="10.00">UBSettings::getAppSettings</text>
</a>
</g>
<!-- Node3&#45;&gt;Node5 -->
<g id="edge8" class="edge"><title>Node3&#45;&gt;Node5</title>
<path fill="none" stroke="midnightblue" d="M494.151,-630.542C518.337,-637.999 551.996,-647.895 582,-655 653.963,-672.041 736.987,-686.989 795.89,-696.811"/>
<polygon fill="midnightblue" stroke="midnightblue" points="795.426,-700.282 805.864,-698.464 796.57,-693.376 795.426,-700.282"/>
</g>
<!-- Node7 -->
<g id="node13" class="node"><title>Node7</title>
<a xlink:href="../../db/d66/class_u_b_settings.html#af38d2ad231149df734ca7b5486356500" target="_top" xlink:title="UBSettings::userDataDirectory">
<polygon fill="white" stroke="black" points="591,-624.5 591,-645.5 743,-645.5 743,-624.5 591,-624.5"/>
<text text-anchor="middle" x="667" y="-632.5" font-family="Helvetica,sans-Serif" font-size="10.00">UBSettings::userDataDirectory</text>
</a>
</g>
<!-- Node3&#45;&gt;Node7 -->
<g id="edge12" class="edge"><title>Node3&#45;&gt;Node7</title>
<path fill="none" stroke="midnightblue" d="M522.528,-624.48C540.801,-625.811 561.166,-627.294 580.706,-628.716"/>
<polygon fill="midnightblue" stroke="midnightblue" points="580.606,-632.218 590.833,-629.454 581.114,-625.237 580.606,-632.218"/>
</g>
<!-- Node6 -->
<g id="node11" class="node"><title>Node6</title>
<a xlink:href="../../d4/d99/class_u_b_platform_utils.html#ae595b29e794b20564550fd45515fc0a8" target="_top" xlink:title="UBPlatformUtils::application\lResourcesDirectory">
<polygon fill="white" stroke="black" points="1012,-692 1012,-726 1152,-726 1152,-692 1012,-692"/>
<text text-anchor="start" x="1020" y="-713" font-family="Helvetica,sans-Serif" font-size="10.00">UBPlatformUtils::application</text>
<text text-anchor="middle" x="1082" y="-700" font-family="Helvetica,sans-Serif" font-size="10.00">ResourcesDirectory</text>
</a>
</g>
<!-- Node5&#45;&gt;Node6 -->
<g id="edge10" class="edge"><title>Node5&#45;&gt;Node6</title>
<path fill="none" stroke="midnightblue" d="M943.175,-709C961.872,-709 982.218,-709 1001.43,-709"/>
<polygon fill="midnightblue" stroke="midnightblue" points="1001.65,-712.5 1011.65,-709 1001.65,-705.5 1001.65,-712.5"/>
</g>
<!-- Node7&#45;&gt;Node5 -->
<g id="edge14" class="edge"><title>Node7&#45;&gt;Node5</title>
<path fill="none" stroke="midnightblue" d="M687.507,-645.589C711.199,-657.48 751.6,-676.718 788,-689 795.557,-691.55 803.598,-693.896 811.604,-696.015"/>
<polygon fill="midnightblue" stroke="midnightblue" points="810.764,-699.413 821.319,-698.486 812.49,-692.629 810.764,-699.413"/>
</g>
<!-- Node8 -->
<g id="node16" class="node"><title>Node8</title>
<a xlink:href="../../db/d66/class_u_b_settings.html#aea5fec9db96c03162c2ce1d5d4c41ab0" target="_top" xlink:title="UBSettings::replaceWildcard">
<polygon fill="white" stroke="black" points="801.5,-606.5 801.5,-627.5 944.5,-627.5 944.5,-606.5 801.5,-606.5"/>
<text text-anchor="middle" x="873" y="-614.5" font-family="Helvetica,sans-Serif" font-size="10.00">UBSettings::replaceWildcard</text>
</a>
</g>
<!-- Node7&#45;&gt;Node8 -->
<g id="edge16" class="edge"><title>Node7&#45;&gt;Node8</title>
<path fill="none" stroke="midnightblue" d="M743.122,-628.349C758.729,-626.985 775.221,-625.544 791.024,-624.163"/>
<polygon fill="midnightblue" stroke="midnightblue" points="791.635,-627.623 801.292,-623.266 791.026,-620.65 791.635,-627.623"/>
</g>
<!-- Node10 -->
<g id="node20" class="node"><title>Node10</title>
<a xlink:href="../../db/d66/class_u_b_settings.html#ac0b3c85870c353e48b7d2cfdff9e0eaa" target="_top" xlink:title="UBSettings::checkDirectory">
<polygon fill="white" stroke="black" points="803.5,-566.5 803.5,-587.5 942.5,-587.5 942.5,-566.5 803.5,-566.5"/>
<text text-anchor="middle" x="873" y="-574.5" font-family="Helvetica,sans-Serif" font-size="10.00">UBSettings::checkDirectory</text>
</a>
</g>
<!-- Node7&#45;&gt;Node10 -->
<g id="edge20" class="edge"><title>Node7&#45;&gt;Node10</title>
<path fill="none" stroke="midnightblue" d="M720.608,-624.389C731.145,-621.745 742.022,-618.613 752,-615 768.82,-608.91 771.18,-603.09 788,-597 794.86,-594.516 802.145,-592.26 809.452,-590.232"/>
<polygon fill="midnightblue" stroke="midnightblue" points="810.616,-593.545 819.392,-587.611 808.83,-586.777 810.616,-593.545"/>
</g>
<!-- Node11 -->
<g id="node22" class="node"><title>Node11</title>
<a xlink:href="../../d2/d7a/class_u_b_file_system_utils.html#af850f64fdd630fc78510c856f00ffa4f" target="_top" xlink:title="UBFileSystemUtils:\l:normalizeFilePath">
<polygon fill="white" stroke="black" points="821,-646 821,-680 925,-680 925,-646 821,-646"/>
<text text-anchor="start" x="829" y="-667" font-family="Helvetica,sans-Serif" font-size="10.00">UBFileSystemUtils:</text>
<text text-anchor="middle" x="873" y="-654" font-family="Helvetica,sans-Serif" font-size="10.00">:normalizeFilePath</text>
</a>
</g>
<!-- Node7&#45;&gt;Node11 -->
<g id="edge22" class="edge"><title>Node7&#45;&gt;Node11</title>
<path fill="none" stroke="midnightblue" d="M743.122,-645.347C765.483,-648.386 789.661,-651.672 811.025,-654.576"/>
<polygon fill="midnightblue" stroke="midnightblue" points="810.564,-658.046 820.945,-655.925 811.507,-651.109 810.564,-658.046"/>
</g>
<!-- Node9 -->
<g id="node18" class="node"><title>Node9</title>
<a xlink:href="../../d4/d99/class_u_b_platform_utils.html#a4ff6063df12b6d4d0c60c1a17b434599" target="_top" xlink:title="UBPlatformUtils::osUserLoginName">
<polygon fill="white" stroke="black" points="994.5,-606.5 994.5,-627.5 1169.5,-627.5 1169.5,-606.5 994.5,-606.5"/>
<text text-anchor="middle" x="1082" y="-614.5" font-family="Helvetica,sans-Serif" font-size="10.00">UBPlatformUtils::osUserLoginName</text>
</a>
</g>
<!-- Node8&#45;&gt;Node9 -->
<g id="edge18" class="edge"><title>Node8&#45;&gt;Node9</title>
<path fill="none" stroke="midnightblue" d="M944.634,-617C957.346,-617 970.78,-617 984.072,-617"/>
<polygon fill="midnightblue" stroke="midnightblue" points="984.195,-620.5 994.195,-617 984.195,-613.5 984.195,-620.5"/>
</g>
<!-- Node12&#45;&gt;Node13 -->
<g id="edge26" class="edge"><title>Node12&#45;&gt;Node13</title>
<path fill="none" stroke="midnightblue" d="M332.64,-499.119C351.262,-503.309 371.314,-507.821 389.908,-512.004"/>
<polygon fill="midnightblue" stroke="midnightblue" points="389.25,-515.444 399.775,-514.224 390.787,-508.614 389.25,-515.444"/>
</g>
<!-- Node14 -->
<g id="node28" class="node"><title>Node14</title>
<a xlink:href="../../da/de7/class_u_b_screen_mirror.html#a4885aebc1ac800284227b8edbc98f213" target="_top" xlink:title="UBScreenMirror::setSource\lWidget">
<polygon fill="white" stroke="black" points="598.5,-511 598.5,-545 735.5,-545 735.5,-511 598.5,-511"/>
<text text-anchor="start" x="606.5" y="-532" font-family="Helvetica,sans-Serif" font-size="10.00">UBScreenMirror::setSource</text>
<text text-anchor="middle" x="667" y="-519" font-family="Helvetica,sans-Serif" font-size="10.00">Widget</text>
</a>
</g>
<!-- Node13&#45;&gt;Node14 -->
<g id="edge28" class="edge"><title>Node13&#45;&gt;Node14</title>
<path fill="none" stroke="midnightblue" d="M522.249,-528C542.931,-528 566.316,-528 588.164,-528"/>
<polygon fill="midnightblue" stroke="midnightblue" points="588.412,-531.5 598.412,-528 588.412,-524.5 588.412,-531.5"/>
</g>
<!-- Node15 -->
<g id="node30" class="node"><title>Node15</title>
<a xlink:href="../../da/de7/class_u_b_screen_mirror.html#a6d71d1113e6172bd8a3ac8e31f4c27a1" target="_top" xlink:title="UBScreenMirror::grabPixmap">
<polygon fill="white" stroke="black" points="801,-526.5 801,-547.5 945,-547.5 945,-526.5 801,-526.5"/>
<text text-anchor="middle" x="873" y="-534.5" font-family="Helvetica,sans-Serif" font-size="10.00">UBScreenMirror::grabPixmap</text>
</a>
</g>
<!-- Node14&#45;&gt;Node15 -->
<g id="edge30" class="edge"><title>Node14&#45;&gt;Node15</title>
<path fill="none" stroke="midnightblue" d="M735.595,-530.997C753.272,-531.769 772.476,-532.608 790.769,-533.407"/>
<polygon fill="midnightblue" stroke="midnightblue" points="790.679,-536.907 800.822,-533.847 790.985,-529.913 790.679,-536.907"/>
</g>
<!-- Node18 -->
<g id="node36" class="node"><title>Node18</title>
<a xlink:href="../../d4/d1c/class_w_b_browser_window.html#a43b315ee4ca51f564a80369546af43de" target="_top" xlink:title="WBBrowserWindow::current\lTabWebView">
<polygon fill="white" stroke="black" points="391,-365 391,-399 531,-399 531,-365 391,-365"/>
<text text-anchor="start" x="399" y="-386" font-family="Helvetica,sans-Serif" font-size="10.00">WBBrowserWindow::current</text>
<text text-anchor="middle" x="461" y="-373" font-family="Helvetica,sans-Serif" font-size="10.00">TabWebView</text>
</a>
</g>
<!-- Node17&#45;&gt;Node18 -->
<g id="edge36" class="edge"><title>Node17&#45;&gt;Node18</title>
<path fill="none" stroke="midnightblue" d="M335.188,-387.662C350.002,-386.995 365.626,-386.292 380.636,-385.616"/>
<polygon fill="midnightblue" stroke="midnightblue" points="381.079,-389.1 390.911,-385.154 380.764,-382.107 381.079,-389.1"/>
</g>
<!-- Node23 -->
<g id="node51" class="node"><title>Node23</title>
<a xlink:href="../../d9/d3a/class_u_b_trap_web_page_content_controller.html#a723c26f80042de25a88dd7eea0783b64" target="_top" xlink:title="UBTrapWebPageContentController\l::updateTrapContentFromPage">
<polygon fill="white" stroke="black" points="376,-310 376,-344 546,-344 546,-310 376,-310"/>
<text text-anchor="start" x="384" y="-331" font-family="Helvetica,sans-Serif" font-size="10.00">UBTrapWebPageContentController</text>
<text text-anchor="middle" x="461" y="-318" font-family="Helvetica,sans-Serif" font-size="10.00">::updateTrapContentFromPage</text>
</a>
</g>
<!-- Node17&#45;&gt;Node23 -->
<g id="edge56" class="edge"><title>Node17&#45;&gt;Node23</title>
<path fill="none" stroke="midnightblue" d="M314.334,-373.933C340.099,-365.688 371.192,-355.739 398.106,-347.126"/>
<polygon fill="midnightblue" stroke="midnightblue" points="399.358,-350.4 407.815,-344.019 397.224,-343.734 399.358,-350.4"/>
</g>
<!-- Node43 -->
<g id="node97" class="node"><title>Node43</title>
<a xlink:href="../../df/d50/class_u_b_web_controller.html#a04a42e97b824dedcb99586807d51e764" target="_top" xlink:title="UBWebController::isEduMedia">
<polygon fill="white" stroke="black" points="386,-469.5 386,-490.5 536,-490.5 536,-469.5 386,-469.5"/>
<text text-anchor="middle" x="461" y="-477.5" font-family="Helvetica,sans-Serif" font-size="10.00">UBWebController::isEduMedia</text>
</a>
</g>
<!-- Node17&#45;&gt;Node43 -->
<g id="edge108" class="edge"><title>Node17&#45;&gt;Node43</title>
<path fill="none" stroke="midnightblue" d="M324.202,-408.183C329.744,-410.752 335.1,-413.678 340,-417 360.629,-430.988 354.783,-446.921 376,-460 379.388,-462.088 382.974,-463.959 386.683,-465.634"/>
<polygon fill="midnightblue" stroke="midnightblue" points="385.527,-468.941 396.112,-469.408 388.129,-462.442 385.527,-468.941"/>
</g>
<!-- Node44 -->
<g id="node99" class="node"><title>Node44</title>
<a xlink:href="../../df/d50/class_u_b_web_controller.html#a283583c27a1e5495ebe9e4df2fbe7dfa" target="_top" xlink:title="UBWebController::activeWeb\lPageChanged">
<polygon fill="white" stroke="black" points="388,-417 388,-451 534,-451 534,-417 388,-417"/>
<text text-anchor="start" x="396" y="-438" font-family="Helvetica,sans-Serif" font-size="10.00">UBWebController::activeWeb</text>
<text text-anchor="middle" x="461" y="-425" font-family="Helvetica,sans-Serif" font-size="10.00">PageChanged</text>
</a>
</g>
<!-- Node17&#45;&gt;Node44 -->
<g id="edge110" class="edge"><title>Node17&#45;&gt;Node44</title>
<path fill="none" stroke="midnightblue" d="M335.188,-406.951C349.054,-409.932 363.63,-413.066 377.748,-416.101"/>
<polygon fill="midnightblue" stroke="midnightblue" points="377.418,-419.61 387.93,-418.29 378.89,-412.766 377.418,-419.61"/>
</g>
<!-- Node19 -->
<g id="node38" class="node"><title>Node19</title>
<a xlink:href="../../de/dc7/class_w_b_tab_widget.html#a9e2f5d93990c02fbb4edf2418e51828b" target="_top" xlink:title="WBTabWidget::currentWebView">
<polygon fill="white" stroke="black" points="588,-463.5 588,-484.5 746,-484.5 746,-463.5 588,-463.5"/>
<text text-anchor="middle" x="667" y="-471.5" font-family="Helvetica,sans-Serif" font-size="10.00">WBTabWidget::currentWebView</text>
</a>
</g>
<!-- Node18&#45;&gt;Node19 -->
<g id="edge38" class="edge"><title>Node18&#45;&gt;Node19</title>
<path fill="none" stroke="midnightblue" d="M522.357,-399.137C530.4,-401.857 538.461,-404.829 546,-408 580.272,-422.413 617.515,-443.643 641.498,-458.106"/>
<polygon fill="midnightblue" stroke="midnightblue" points="639.949,-461.26 650.309,-463.475 643.592,-455.283 639.949,-461.26"/>
</g>
<!-- Node20 -->
<g id="node40" class="node"><title>Node20</title>
<a xlink:href="../../de/dc7/class_w_b_tab_widget.html#a99290e7824dd979d8bf98a5dc476e6e0" target="_top" xlink:title="WBTabWidget::webView">
<polygon fill="white" stroke="black" points="810,-486.5 810,-507.5 936,-507.5 936,-486.5 810,-486.5"/>
<text text-anchor="middle" x="873" y="-494.5" font-family="Helvetica,sans-Serif" font-size="10.00">WBTabWidget::webView</text>
</a>
</g>
<!-- Node19&#45;&gt;Node20 -->
<g id="edge40" class="edge"><title>Node19&#45;&gt;Node20</title>
<path fill="none" stroke="midnightblue" d="M746.056,-476.241C770.556,-478.634 796.969,-481.775 819.325,-484.998"/>
<polygon fill="midnightblue" stroke="midnightblue" points="818.883,-488.471 829.289,-486.483 819.914,-481.547 818.883,-488.471"/>
</g>
<!-- Node20&#45;&gt;Node19 -->
<g id="edge54" class="edge"><title>Node20&#45;&gt;Node19</title>
<path fill="none" stroke="midnightblue" d="M809.828,-496.227C781.356,-493.754 748.084,-489.95 720.82,-486.022"/>
<polygon fill="midnightblue" stroke="midnightblue" points="721.094,-482.525 710.687,-484.514 720.063,-489.448 721.094,-482.525"/>
</g>
<!-- Node21 -->
<g id="node42" class="node"><title>Node21</title>
<a xlink:href="../../de/dc7/class_w_b_tab_widget.html#ac4e5333657411084af40f7faa20cac55" target="_top" xlink:title="WBTabWidget::newTab">
<polygon fill="white" stroke="red" points="1230.5,-534.5 1230.5,-555.5 1351.5,-555.5 1351.5,-534.5 1230.5,-534.5"/>
<text text-anchor="middle" x="1291" y="-542.5" font-family="Helvetica,sans-Serif" font-size="10.00">WBTabWidget::newTab</text>
</a>
</g>
<!-- Node20&#45;&gt;Node21 -->
<g id="edge42" class="edge"><title>Node20&#45;&gt;Node21</title>
<path fill="none" stroke="midnightblue" d="M936.303,-499.697C954.857,-502.405 975.207,-505.564 994,-508 1074.11,-518.384 1166.86,-526.509 1227.1,-533.308"/>
<polygon fill="midnightblue" stroke="midnightblue" points="1226.89,-536.807 1237.22,-534.475 1227.69,-529.853 1226.89,-536.807"/>
</g>
<!-- Node22 -->
<g id="node45" class="node"><title>Node22</title>
<a xlink:href="../../de/dc7/class_w_b_tab_widget.html#a25d5dcc5eb55ff763325e0a8cfc4889d" target="_top" xlink:title="WBTabWidget::closeTab">
<polygon fill="white" stroke="red" points="1019,-486.5 1019,-507.5 1145,-507.5 1145,-486.5 1019,-486.5"/>
<text text-anchor="middle" x="1082" y="-494.5" font-family="Helvetica,sans-Serif" font-size="10.00">WBTabWidget::closeTab</text>
</a>
</g>
<!-- Node20&#45;&gt;Node22 -->
<g id="edge46" class="edge"><title>Node20&#45;&gt;Node22</title>
<path fill="none" stroke="midnightblue" d="M936.274,-490.74C959.089,-490.169 985.027,-490.097 1008.63,-490.524"/>
<polygon fill="midnightblue" stroke="midnightblue" points="1008.87,-494.029 1018.94,-490.746 1009.02,-487.031 1008.87,-494.029"/>
</g>
<!-- Node21&#45;&gt;Node20 -->
<g id="edge44" class="edge"><title>Node21&#45;&gt;Node20</title>
<path fill="none" stroke="midnightblue" d="M1230.28,-547.377C1170.16,-544.797 1075.54,-536.569 994,-526 963.33,-522.024 928.511,-516.122 904.124,-510.115"/>
<polygon fill="midnightblue" stroke="midnightblue" points="904.915,-506.704 894.353,-507.539 903.131,-513.473 904.915,-506.704"/>
</g>
<!-- Node22&#45;&gt;Node19 -->
<g id="edge50" class="edge"><title>Node22&#45;&gt;Node19</title>
<path fill="none" stroke="midnightblue" d="M1027.89,-486.471C1006.25,-482.732 981.031,-478.965 958,-477 890.565,-471.247 814.025,-470.693 756.372,-471.473"/>
<polygon fill="midnightblue" stroke="midnightblue" points="756.144,-467.976 746.198,-471.627 756.25,-474.975 756.144,-467.976"/>
</g>
<!-- Node22&#45;&gt;Node20 -->
<g id="edge48" class="edge"><title>Node22&#45;&gt;Node20</title>
<path fill="none" stroke="midnightblue" d="M1018.94,-503.254C996.043,-503.831 969.978,-503.905 946.273,-503.475"/>
<polygon fill="midnightblue" stroke="midnightblue" points="946.347,-499.976 936.274,-503.26 946.196,-506.974 946.347,-499.976"/>
</g>
<!-- Node22&#45;&gt;Node21 -->
<g id="edge52" class="edge"><title>Node22&#45;&gt;Node21</title>
<path fill="none" stroke="midnightblue" d="M1127.87,-507.534C1159.45,-514.787 1201.59,-524.465 1235.13,-532.168"/>
<polygon fill="midnightblue" stroke="midnightblue" points="1234.71,-535.664 1245.24,-534.491 1236.28,-528.841 1234.71,-535.664"/>
</g>
<!-- Node24 -->
<g id="node53" class="node"><title>Node24</title>
<a xlink:href="../../d9/d3a/class_u_b_trap_web_page_content_controller.html#a2de339c83baff50eb2614a55c2c09888" target="_top" xlink:title="UBTrapWebPageContentController\l::widgetNameForUrl">
<polygon fill="white" stroke="black" points="582,-265 582,-299 752,-299 752,-265 582,-265"/>
<text text-anchor="start" x="590" y="-286" font-family="Helvetica,sans-Serif" font-size="10.00">UBTrapWebPageContentController</text>
<text text-anchor="middle" x="667" y="-273" font-family="Helvetica,sans-Serif" font-size="10.00">::widgetNameForUrl</text>
</a>
</g>
<!-- Node23&#45;&gt;Node24 -->
<g id="edge58" class="edge"><title>Node23&#45;&gt;Node24</title>
<path fill="none" stroke="midnightblue" d="M538.88,-309.987C551.954,-307.131 565.603,-304.15 578.913,-301.242"/>
<polygon fill="midnightblue" stroke="midnightblue" points="579.987,-304.59 589.01,-299.037 578.494,-297.751 579.987,-304.59"/>
</g>
<!-- Node26 -->
<g id="node57" class="node"><title>Node26</title>
<a xlink:href="../../d7/d97/class_u_b_web_kit_utils.html#a1b70e4faa08389ff3b05f786d342e4b2" target="_top" xlink:title="UBWebKitUtils::objectsIn\lFrameByTag">
<polygon fill="white" stroke="black" points="602.5,-318 602.5,-352 731.5,-352 731.5,-318 602.5,-318"/>
<text text-anchor="start" x="610.5" y="-339" font-family="Helvetica,sans-Serif" font-size="10.00">UBWebKitUtils::objectsIn</text>
<text text-anchor="middle" x="667" y="-326" font-family="Helvetica,sans-Serif" font-size="10.00">FrameByTag</text>
</a>
</g>
<!-- Node23&#45;&gt;Node26 -->
<g id="edge62" class="edge"><title>Node23&#45;&gt;Node26</title>
<path fill="none" stroke="midnightblue" d="M546.275,-330.312C561.474,-330.902 577.203,-331.513 592.086,-332.091"/>
<polygon fill="midnightblue" stroke="midnightblue" points="592.109,-335.594 602.237,-332.485 592.381,-328.599 592.109,-335.594"/>
</g>
<!-- Node33 -->
<g id="node72" class="node"><title>Node33</title>
<a xlink:href="../../d9/d3a/class_u_b_trap_web_page_content_controller.html#ae05afbe6ad5d4cb0ff5c226fc2ef53df" target="_top" xlink:title="UBTrapWebPageContentController\l::updateListOfContents">
<polygon fill="white" stroke="black" points="582,-188 582,-222 752,-222 752,-188 582,-188"/>
<text text-anchor="start" x="590" y="-209" font-family="Helvetica,sans-Serif" font-size="10.00">UBTrapWebPageContentController</text>
<text text-anchor="middle" x="667" y="-196" font-family="Helvetica,sans-Serif" font-size="10.00">::updateListOfContents</text>
</a>
</g>
<!-- Node23&#45;&gt;Node33 -->
<g id="edge78" class="edge"><title>Node23&#45;&gt;Node33</title>
<path fill="none" stroke="midnightblue" d="M529.95,-309.914C535.586,-307.335 541.021,-304.381 546,-301 567.19,-286.613 562.715,-272.855 582,-256 594.437,-245.131 609.496,-235.243 623.462,-227.129"/>
<polygon fill="midnightblue" stroke="midnightblue" points="625.455,-230.023 632.444,-222.06 622.015,-223.927 625.455,-230.023"/>
</g>
<!-- Node38 -->
<g id="node82" class="node"><title>Node38</title>
<a xlink:href="../../d8/dc6/class_w_b_trap_web_page_content_window.html#af4b8a9b293b0ef10b4936d871172fcd1" target="_top" xlink:title="WBTrapWebPageContentWindow\l::applicationNameLineEdit">
<polygon fill="white" stroke="black" points="999.5,-127 999.5,-161 1164.5,-161 1164.5,-127 999.5,-127"/>
<text text-anchor="start" x="1007.5" y="-148" font-family="Helvetica,sans-Serif" font-size="10.00">WBTrapWebPageContentWindow</text>
<text text-anchor="middle" x="1082" y="-135" font-family="Helvetica,sans-Serif" font-size="10.00">::applicationNameLineEdit</text>
</a>
</g>
<!-- Node23&#45;&gt;Node38 -->
<g id="edge104" class="edge"><title>Node23&#45;&gt;Node38</title>
<path fill="none" stroke="midnightblue" d="M534.762,-309.929C538.837,-307.357 542.634,-304.399 546,-301 585.777,-260.827 540.704,-217.609 582,-179 698.654,-69.9375 905.012,-99.257 1012.51,-124.601"/>
<polygon fill="midnightblue" stroke="midnightblue" points="1011.74,-128.016 1022.28,-126.959 1013.38,-121.211 1011.74,-128.016"/>
</g>
<!-- Node42 -->
<g id="node95" class="node"><title>Node42</title>
<a xlink:href="../../d8/dc6/class_w_b_trap_web_page_content_window.html#a6c27c25e166c5b8c67a8e714dafa5c29" target="_top" xlink:title="WBTrapWebPageContentWindow\l::setReadyForTrap">
<polygon fill="white" stroke="black" points="584.5,-52 584.5,-86 749.5,-86 749.5,-52 584.5,-52"/>
<text text-anchor="start" x="592.5" y="-73" font-family="Helvetica,sans-Serif" font-size="10.00">WBTrapWebPageContentWindow</text>
<text text-anchor="middle" x="667" y="-60" font-family="Helvetica,sans-Serif" font-size="10.00">::setReadyForTrap</text>
</a>
</g>
<!-- Node23&#45;&gt;Node42 -->
<g id="edge106" class="edge"><title>Node23&#45;&gt;Node42</title>
<path fill="none" stroke="midnightblue" d="M535.97,-309.823C539.643,-307.271 543.03,-304.348 546,-301 606.223,-233.105 523.593,-169.463 582,-100 584.47,-97.062 587.244,-94.4024 590.24,-91.9949"/>
<polygon fill="midnightblue" stroke="midnightblue" points="592.398,-94.7576 598.634,-86.1926 588.418,-88.9992 592.398,-94.7576"/>
</g>
<!-- Node25 -->
<g id="node55" class="node"><title>Node25</title>
<a xlink:href="../../d2/d7a/class_u_b_file_system_utils.html#a19522888b07624d5f7e562be99dd8a80" target="_top" xlink:title="UBFileSystemUtils:\l:cleanName">
<polygon fill="white" stroke="black" points="1030,-285 1030,-319 1134,-319 1134,-285 1030,-285"/>
<text text-anchor="start" x="1038" y="-306" font-family="Helvetica,sans-Serif" font-size="10.00">UBFileSystemUtils:</text>
<text text-anchor="middle" x="1082" y="-293" font-family="Helvetica,sans-Serif" font-size="10.00">:cleanName</text>
</a>
</g>
<!-- Node24&#45;&gt;Node25 -->
<g id="edge60" class="edge"><title>Node24&#45;&gt;Node25</title>
<path fill="none" stroke="midnightblue" d="M752.234,-286.108C831.817,-289.943 948.699,-295.576 1019.83,-299.004"/>
<polygon fill="midnightblue" stroke="midnightblue" points="1019.82,-302.507 1029.98,-299.493 1020.16,-295.516 1019.82,-302.507"/>
</g>
<!-- Node27 -->
<g id="node59" class="node"><title>Node27</title>
<a xlink:href="../../d7/d97/class_u_b_web_kit_utils.html#af64751f853b57134a6bb890ba57a0b0a" target="_top" xlink:title="UBWebKitUtils::getUrls">
<polygon fill="white" stroke="black" points="812.5,-400.5 812.5,-421.5 933.5,-421.5 933.5,-400.5 812.5,-400.5"/>
<text text-anchor="middle" x="873" y="-408.5" font-family="Helvetica,sans-Serif" font-size="10.00">UBWebKitUtils::getUrls</text>
</a>
</g>
<!-- Node26&#45;&gt;Node27 -->
<g id="edge64" class="edge"><title>Node26&#45;&gt;Node27</title>
<path fill="none" stroke="midnightblue" d="M704.446,-352.074C728.134,-362.551 759.549,-375.856 788,-386 799.546,-390.116 812.14,-394.092 824.01,-397.617"/>
<polygon fill="midnightblue" stroke="midnightblue" points="823.193,-401.024 833.773,-400.464 825.153,-394.304 823.193,-401.024"/>
</g>
<!-- Node30 -->
<g id="node65" class="node"><title>Node30</title>
<a xlink:href="../../d7/d97/class_u_b_web_kit_utils.html#ab316ce91eefc843af28efb75e2dc5928" target="_top" xlink:title="UBWebKitUtils::widgetName\lFromUrl">
<polygon fill="white" stroke="black" points="801,-310 801,-344 945,-344 945,-310 801,-310"/>
<text text-anchor="start" x="809" y="-331" font-family="Helvetica,sans-Serif" font-size="10.00">UBWebKitUtils::widgetName</text>
<text text-anchor="middle" x="873" y="-318" font-family="Helvetica,sans-Serif" font-size="10.00">FromUrl</text>
</a>
</g>
<!-- Node26&#45;&gt;Node30 -->
<g id="edge70" class="edge"><title>Node26&#45;&gt;Node30</title>
<path fill="none" stroke="midnightblue" d="M731.614,-332.491C750.304,-331.765 770.96,-330.963 790.579,-330.201"/>
<polygon fill="midnightblue" stroke="midnightblue" points="790.871,-333.692 800.727,-329.807 790.599,-326.697 790.871,-333.692"/>
</g>
<!-- Node31 -->
<g id="node68" class="node"><title>Node31</title>
<a xlink:href="../../d2/d7a/class_u_b_file_system_utils.html#a272b08b8f8907091333982fb53a7aa2a" target="_top" xlink:title="UBFileSystemUtils:\l:mimeTypeFromFileName">
<polygon fill="white" stroke="black" points="1226,-242 1226,-276 1356,-276 1356,-242 1226,-242"/>
<text text-anchor="start" x="1234" y="-263" font-family="Helvetica,sans-Serif" font-size="10.00">UBFileSystemUtils:</text>
<text text-anchor="middle" x="1291" y="-250" font-family="Helvetica,sans-Serif" font-size="10.00">:mimeTypeFromFileName</text>
</a>
</g>
<!-- Node26&#45;&gt;Node31 -->
<g id="edge74" class="edge"><title>Node26&#45;&gt;Node31</title>
<path fill="none" stroke="midnightblue" d="M731.747,-346.152C829.524,-360.349 1019.43,-377.535 1170,-328 1202.39,-317.346 1235.8,-297.498 1259.29,-281.816"/>
<polygon fill="midnightblue" stroke="midnightblue" points="1261.48,-284.556 1267.78,-276.037 1257.54,-278.769 1261.48,-284.556"/>
</g>
<!-- Node28 -->
<g id="node61" class="node"><title>Node28</title>
<a xlink:href="../../d7/d97/class_u_b_web_kit_utils.html#a063c7cc9bbd04a13e7aa4b7f77acd5ff" target="_top" xlink:title="UBWebKitUtils::getArguments\lValues">
<polygon fill="white" stroke="black" points="1007,-394 1007,-428 1157,-428 1157,-394 1007,-394"/>
<text text-anchor="start" x="1015" y="-415" font-family="Helvetica,sans-Serif" font-size="10.00">UBWebKitUtils::getArguments</text>
<text text-anchor="middle" x="1082" y="-402" font-family="Helvetica,sans-Serif" font-size="10.00">Values</text>
</a>
</g>
<!-- Node27&#45;&gt;Node28 -->
<g id="edge66" class="edge"><title>Node27&#45;&gt;Node28</title>
<path fill="none" stroke="midnightblue" d="M933.732,-411C953.308,-411 975.384,-411 996.405,-411"/>
<polygon fill="midnightblue" stroke="midnightblue" points="996.624,-414.5 1006.62,-411 996.624,-407.5 996.624,-414.5"/>
</g>
<!-- Node29 -->
<g id="node63" class="node"><title>Node29</title>
<a xlink:href="../../d7/d97/class_u_b_web_kit_utils.html#a53c7bdbc49de4fbf06340b82966c89f8" target="_top" xlink:title="UBWebKitUtils::validUrl">
<polygon fill="white" stroke="black" points="1021,-446.5 1021,-467.5 1143,-467.5 1143,-446.5 1021,-446.5"/>
<text text-anchor="middle" x="1082" y="-454.5" font-family="Helvetica,sans-Serif" font-size="10.00">UBWebKitUtils::validUrl</text>
</a>
</g>
<!-- Node27&#45;&gt;Node29 -->
<g id="edge68" class="edge"><title>Node27&#45;&gt;Node29</title>
<path fill="none" stroke="midnightblue" d="M920.949,-421.553C951.748,-428.332 991.926,-437.175 1024.45,-444.333"/>
<polygon fill="midnightblue" stroke="midnightblue" points="1023.76,-447.764 1034.27,-446.496 1025.26,-440.928 1023.76,-447.764"/>
</g>
<!-- Node30&#45;&gt;Node25 -->
<g id="edge72" class="edge"><title>Node30&#45;&gt;Node25</title>
<path fill="none" stroke="midnightblue" d="M945.219,-318.361C969.475,-315.46 996.304,-312.251 1019.73,-309.449"/>
<polygon fill="midnightblue" stroke="midnightblue" points="1020.37,-312.897 1029.89,-308.234 1019.54,-305.946 1020.37,-312.897"/>
</g>
<!-- Node32 -->
<g id="node70" class="node"><title>Node32</title>
<a xlink:href="../../d2/d7a/class_u_b_file_system_utils.html#a8dcbcd889a2c79495470ff11f955c0b6" target="_top" xlink:title="UBFileSystemUtils:\l:extension">
<polygon fill="white" stroke="black" points="1412,-242 1412,-276 1516,-276 1516,-242 1412,-242"/>
<text text-anchor="start" x="1420" y="-263" font-family="Helvetica,sans-Serif" font-size="10.00">UBFileSystemUtils:</text>
<text text-anchor="middle" x="1464" y="-250" font-family="Helvetica,sans-Serif" font-size="10.00">:extension</text>
</a>
</g>
<!-- Node31&#45;&gt;Node32 -->
<g id="edge76" class="edge"><title>Node31&#45;&gt;Node32</title>
<path fill="none" stroke="midnightblue" d="M1356.4,-259C1371.33,-259 1387.15,-259 1401.93,-259"/>
<polygon fill="midnightblue" stroke="midnightblue" points="1401.98,-262.5 1411.98,-259 1401.98,-255.5 1401.98,-262.5"/>
</g>
<!-- Node34 -->
<g id="node74" class="node"><title>Node34</title>
<a xlink:href="../../d8/dc6/class_w_b_trap_web_page_content_window.html#af82a9c2247ad960888b30305926610c8" target="_top" xlink:title="WBTrapWebPageContentWindow\l::itemsComboBox">
<polygon fill="white" stroke="black" points="999.5,-192 999.5,-226 1164.5,-226 1164.5,-192 999.5,-192"/>
<text text-anchor="start" x="1007.5" y="-213" font-family="Helvetica,sans-Serif" font-size="10.00">WBTrapWebPageContentWindow</text>
<text text-anchor="middle" x="1082" y="-200" font-family="Helvetica,sans-Serif" font-size="10.00">::itemsComboBox</text>
</a>
</g>
<!-- Node33&#45;&gt;Node34 -->
<g id="edge80" class="edge"><title>Node33&#45;&gt;Node34</title>
<path fill="none" stroke="midnightblue" d="M752.059,-220.855C764.087,-222.572 776.329,-224.042 788,-225 863.302,-231.181 882.6,-229.844 958,-225 968.178,-224.346 978.796,-223.393 989.351,-222.273"/>
<polygon fill="midnightblue" stroke="midnightblue" points="989.883,-225.736 999.435,-221.153 989.109,-218.779 989.883,-225.736"/>
</g>
<!-- Node35 -->
<g id="node76" class="node"><title>Node35</title>
<a xlink:href="../../d9/d3a/class_u_b_trap_web_page_content_controller.html#a5ae59b88005d24b9ab9eb701fb133c8a" target="_top" xlink:title="UBTrapWebPageContentController\l::selectHtmlObject">
<polygon fill="white" stroke="black" points="788,-52 788,-86 958,-86 958,-52 788,-52"/>
<text text-anchor="start" x="796" y="-73" font-family="Helvetica,sans-Serif" font-size="10.00">UBTrapWebPageContentController</text>
<text text-anchor="middle" x="873" y="-60" font-family="Helvetica,sans-Serif" font-size="10.00">::selectHtmlObject</text>
</a>
</g>
<!-- Node33&#45;&gt;Node35 -->
<g id="edge82" class="edge"><title>Node33&#45;&gt;Node35</title>
<path fill="none" stroke="midnightblue" d="M693.09,-187.776C730.006,-163.404 797.547,-118.814 838.548,-91.7453"/>
<polygon fill="midnightblue" stroke="midnightblue" points="840.705,-94.5151 847.122,-86.0846 836.848,-88.6734 840.705,-94.5151"/>
</g>
<!-- Node40 -->
<g id="node89" class="node"><title>Node40</title>
<a xlink:href="../../de/d40/class_u_b_http_get.html#a5c25272ca90dfb2d1d42784907d39c41" target="_top" xlink:title="UBHttpGet::get">
<polygon fill="white" stroke="red" points="830.5,-194.5 830.5,-215.5 915.5,-215.5 915.5,-194.5 830.5,-194.5"/>
<text text-anchor="middle" x="873" y="-202.5" font-family="Helvetica,sans-Serif" font-size="10.00">UBHttpGet::get</text>
</a>
</g>
<!-- Node33&#45;&gt;Node40 -->
<g id="edge98" class="edge"><title>Node33&#45;&gt;Node40</title>
<path fill="none" stroke="midnightblue" d="M752.275,-205C775.285,-205 799.511,-205 820.173,-205"/>
<polygon fill="midnightblue" stroke="midnightblue" points="820.317,-208.5 830.317,-205 820.317,-201.5 820.317,-208.5"/>
</g>
<!-- Node41 -->
<g id="node91" class="node"><title>Node41</title>
<a xlink:href="../../d9/d3a/class_u_b_trap_web_page_content_controller.html#a3b69a9161ab97471aa39568d6d47a57e" target="_top" xlink:title="UBTrapWebPageContentController\l::oEmbedRequestFinished">
<polygon fill="white" stroke="black" points="788,-142 788,-176 958,-176 958,-142 788,-142"/>
<text text-anchor="start" x="796" y="-163" font-family="Helvetica,sans-Serif" font-size="10.00">UBTrapWebPageContentController</text>
<text text-anchor="middle" x="873" y="-150" font-family="Helvetica,sans-Serif" font-size="10.00">::oEmbedRequestFinished</text>
</a>
</g>
<!-- Node33&#45;&gt;Node41 -->
<g id="edge100" class="edge"><title>Node33&#45;&gt;Node41</title>
<path fill="none" stroke="midnightblue" d="M743.414,-187.937C757.555,-184.779 772.414,-181.461 786.821,-178.244"/>
<polygon fill="midnightblue" stroke="midnightblue" points="787.713,-181.631 796.709,-176.036 786.187,-174.799 787.713,-181.631"/>
</g>
<!-- Node36 -->
<g id="node78" class="node"><title>Node36</title>
<a xlink:href="../../d8/dc6/class_w_b_trap_web_page_content_window.html#af4d6b01ff7fb31ba3fee342415eb6b88" target="_top" xlink:title="WBTrapWebPageContentWindow\l::webView">
<polygon fill="white" stroke="black" points="1208.5,-0 1208.5,-34 1373.5,-34 1373.5,-0 1208.5,-0"/>
<text text-anchor="start" x="1216.5" y="-21" font-family="Helvetica,sans-Serif" font-size="10.00">WBTrapWebPageContentWindow</text>
<text text-anchor="middle" x="1291" y="-8" font-family="Helvetica,sans-Serif" font-size="10.00">::webView</text>
</a>
</g>
<!-- Node35&#45;&gt;Node36 -->
<g id="edge84" class="edge"><title>Node35&#45;&gt;Node36</title>
<path fill="none" stroke="midnightblue" d="M958.092,-58.4143C1027.85,-49.7358 1126.44,-37.4711 1198.22,-28.5419"/>
<polygon fill="midnightblue" stroke="midnightblue" points="1198.67,-32.0127 1208.16,-27.3048 1197.81,-25.0662 1198.67,-32.0127"/>
</g>
<!-- Node37 -->
<g id="node80" class="node"><title>Node37</title>
<a xlink:href="../../d9/d3a/class_u_b_trap_web_page_content_controller.html#a192fb52dc51a2b0848ccc518edc515d9" target="_top" xlink:title="UBTrapWebPageContentController\l::generateFullPageHtml">
<polygon fill="white" stroke="black" points="1206,-60 1206,-94 1376,-94 1376,-60 1206,-60"/>
<text text-anchor="start" x="1214" y="-81" font-family="Helvetica,sans-Serif" font-size="10.00">UBTrapWebPageContentController</text>
<text text-anchor="middle" x="1291" y="-68" font-family="Helvetica,sans-Serif" font-size="10.00">::generateFullPageHtml</text>
</a>
</g>
<!-- Node35&#45;&gt;Node37 -->
<g id="edge86" class="edge"><title>Node35&#45;&gt;Node37</title>
<path fill="none" stroke="midnightblue" d="M958.179,-65.6388C1017.58,-63.9073 1098.66,-62.7637 1170,-66 1178.33,-66.3779 1186.97,-66.9013 1195.63,-67.5164"/>
<polygon fill="midnightblue" stroke="midnightblue" points="1195.56,-71.0203 1205.79,-68.2773 1196.08,-64.0399 1195.56,-71.0203"/>
</g>
<!-- Node35&#45;&gt;Node38 -->
<g id="edge88" class="edge"><title>Node35&#45;&gt;Node38</title>
<path fill="none" stroke="midnightblue" d="M922.815,-86.0909C934.461,-90.3825 946.747,-95.1535 958,-100 974.43,-107.076 977.358,-111.44 994,-118 999.002,-119.972 1004.21,-121.875 1009.5,-123.695"/>
<polygon fill="midnightblue" stroke="midnightblue" points="1008.45,-127.035 1019.04,-126.875 1010.66,-120.394 1008.45,-127.035"/>
</g>
<!-- Node39 -->
<g id="node84" class="node"><title>Node39</title>
<a xlink:href="../../d9/d3a/class_u_b_trap_web_page_content_controller.html#a20390f95b0ce88112391b87471b2c441" target="_top" xlink:title="UBTrapWebPageContentController\l::generatePreview">
<polygon fill="white" stroke="red" points="997,-75 997,-109 1167,-109 1167,-75 997,-75"/>
<text text-anchor="start" x="1005" y="-96" font-family="Helvetica,sans-Serif" font-size="10.00">UBTrapWebPageContentController</text>
<text text-anchor="middle" x="1082" y="-83" font-family="Helvetica,sans-Serif" font-size="10.00">::generatePreview</text>
</a>
</g>
<!-- Node35&#45;&gt;Node39 -->
<g id="edge90" class="edge"><title>Node35&#45;&gt;Node39</title>
<path fill="none" stroke="midnightblue" d="M958.008,-78.355C967.486,-79.398 977.186,-80.4655 986.781,-81.5214"/>
<polygon fill="midnightblue" stroke="midnightblue" points="986.405,-85.001 996.728,-82.616 987.171,-78.043 986.405,-85.001"/>
</g>
<!-- Node39&#45;&gt;Node31 -->
<g id="edge92" class="edge"><title>Node39&#45;&gt;Node31</title>
<path fill="none" stroke="midnightblue" d="M1153.25,-109.097C1159.12,-111.673 1164.78,-114.624 1170,-118 1216.58,-148.15 1255.2,-201.446 1275.52,-233.168"/>
<polygon fill="midnightblue" stroke="midnightblue" points="1272.71,-235.279 1280.99,-241.888 1278.64,-231.558 1272.71,-235.279"/>
</g>
<!-- Node39&#45;&gt;Node36 -->
<g id="edge94" class="edge"><title>Node39&#45;&gt;Node36</title>
<path fill="none" stroke="midnightblue" d="M1129.43,-74.9813C1160.45,-63.8492 1201.15,-49.2435 1233.94,-37.4765"/>
<polygon fill="midnightblue" stroke="midnightblue" points="1235.17,-40.753 1243.4,-34.081 1232.81,-34.1643 1235.17,-40.753"/>
</g>
<!-- Node39&#45;&gt;Node37 -->
<g id="edge96" class="edge"><title>Node39&#45;&gt;Node37</title>
<path fill="none" stroke="midnightblue" d="M1167.01,-85.8989C1176.39,-85.2258 1185.98,-84.5372 1195.48,-83.8556"/>
<polygon fill="midnightblue" stroke="midnightblue" points="1196,-87.327 1205.73,-83.12 1195.5,-80.3449 1196,-87.327"/>
</g>
<!-- Node41&#45;&gt;Node34 -->
<g id="edge102" class="edge"><title>Node41&#45;&gt;Node34</title>
<path fill="none" stroke="midnightblue" d="M944.341,-176.067C962.484,-180.408 982.115,-185.104 1000.71,-189.553"/>
<polygon fill="midnightblue" stroke="midnightblue" points="1000.09,-193.002 1010.63,-191.925 1001.71,-186.194 1000.09,-193.002"/>
</g>
<!-- Node47 -->
<g id="node106" class="node"><title>Node47</title>
<a xlink:href="../../da/d14/class_u_b_application_controller.html#aa5bf5b9c21547340bc4582aeb8d343c0" target="_top" xlink:title="UBApplicationController\l::displayManager">
<polygon fill="white" stroke="black" points="400.5,-258 400.5,-292 521.5,-292 521.5,-258 400.5,-258"/>
<text text-anchor="start" x="408.5" y="-279" font-family="Helvetica,sans-Serif" font-size="10.00">UBApplicationController</text>
<text text-anchor="middle" x="461" y="-266" font-family="Helvetica,sans-Serif" font-size="10.00">::displayManager</text>
</a>
</g>
<!-- Node46&#45;&gt;Node47 -->
<g id="edge118" class="edge"><title>Node46&#45;&gt;Node47</title>
<path fill="none" stroke="midnightblue" d="M340.045,-275C356.526,-275 373.801,-275 389.97,-275"/>
<polygon fill="midnightblue" stroke="midnightblue" points="390.417,-278.5 400.417,-275 390.417,-271.5 390.417,-278.5"/>
</g>
<!-- Node48 -->
<g id="node108" class="node"><title>Node48</title>
<a xlink:href="../../dd/d0f/class_u_b_display_manager.html#a00a31e92ba05b878aca9978ebc45a6cf" target="_top" xlink:title="UBDisplayManager::hasDisplay">
<polygon fill="white" stroke="black" points="383,-218.5 383,-239.5 539,-239.5 539,-218.5 383,-218.5"/>
<text text-anchor="middle" x="461" y="-226.5" font-family="Helvetica,sans-Serif" font-size="10.00">UBDisplayManager::hasDisplay</text>
</a>
</g>
<!-- Node46&#45;&gt;Node48 -->
<g id="edge120" class="edge"><title>Node46&#45;&gt;Node48</title>
<path fill="none" stroke="midnightblue" d="M335.188,-257.937C358.317,-252.617 383.423,-246.843 405.08,-241.862"/>
<polygon fill="midnightblue" stroke="midnightblue" points="406.128,-245.212 415.089,-239.56 404.559,-238.39 406.128,-245.212"/>
</g>
<!-- Node50 -->
<g id="node112" class="node"><title>Node50</title>
<a xlink:href="../../db/d66/class_u_b_settings.html#a30f5b15068954099f41c054979593275" target="_top" xlink:title="UBSettings::value">
<polygon fill="white" stroke="black" points="413,-178.5 413,-199.5 509,-199.5 509,-178.5 413,-178.5"/>
<text text-anchor="middle" x="461" y="-186.5" font-family="Helvetica,sans-Serif" font-size="10.00">UBSettings::value</text>
</a>
</g>
<!-- Node49&#45;&gt;Node50 -->
<g id="edge124" class="edge"><title>Node49&#45;&gt;Node50</title>
<path fill="none" stroke="midnightblue" d="M301.956,-204.904C330.933,-202.007 370.216,-198.078 402.49,-194.851"/>
<polygon fill="midnightblue" stroke="midnightblue" points="403.098,-198.308 412.7,-193.83 402.401,-191.342 403.098,-198.308"/>
</g>
</g>
</svg>
