<?xml version="1.0" encoding="UTF-8" standalone="no"?>
<!DOCTYPE svg PUBLIC "-//W3C//DTD SVG 1.1//EN"
 "http://www.w3.org/Graphics/SVG/1.1/DTD/svg11.dtd">
<!-- Generated by graphviz version 2.26.3 (20100126.1600)
 -->
<!-- Title: merge_lib::LZWDecode::initialize Pages: 1 -->
<!--zoomable 288 -->
<svg id="main" version="1.1" xmlns="http://www.w3.org/2000/svg" xmlns:xlink="http://www.w3.org/1999/xlink" xml:space="preserve" onload="init(evt)">
        <defs>
                <circle id="rim" cx="0" cy="0" r="7"/>
                <circle id="rim2" cx="0" cy="0" r="3.5"/>
                <g id="zoomPlus">
                        <use xlink:href="#rim" fill="#404040">
                                <set attributeName="fill" to="#808080" begin="zoomplus.mouseover" end="zoomplus.mouseout"/>
                        </use>
                        <path d="M-4,0h8M0,-4v8" fill="none" stroke="white" stroke-width="1.5" pointer-events="none"/>
                </g>
                <g id="zoomMin">
                        <use xlink:href="#rim" fill="#404040">
                                <set attributeName="fill" to="#808080" begin="zoomminus.mouseover" end="zoomminus.mouseout"/>
                        </use>
                        <path d="M-4,0h8" fill="none" stroke="white" stroke-width="1.5" pointer-events="none"/>
                </g>
                <g id="dirArrow">
                        <path fill="none" stroke="white" stroke-width="1.5" d="M0,-3.0v7 M-2.5,-0.5L0,-3.0L2.5,-0.5"/>
                </g>
               <g id="resetDef">
                       <use xlink:href="#rim2" fill="#404040">
                               <set attributeName="fill" to="#808080" begin="reset.mouseover" end="reset.mouseout"/>
                       </use>
               </g>
        </defs>

<script type="text/javascript">
var viewWidth = 1036;
var viewHeight = 288;
var sectionId = 'dynsection-6';
</script>
<script xlink:href="../../svgpan.js"/>
<svg id="graph" class="graph">
<g id="viewport">
<title>merge_lib::LZWDecode::initialize</title>
<polygon fill="white" stroke="white" points="-4,5 -4,-284 1033,-284 1033,5 -4,5"/>
<!-- Node1 -->
<g id="node1" class="node"><title>Node1</title>
<polygon fill="#bfbfbf" stroke="black" points="0.5,-83 0.5,-117 119.5,-117 119.5,-83 0.5,-83"/>
<text text-anchor="start" x="8.5" y="-104" font-family="Helvetica,sans-Serif" font-size="10.00">merge_lib::LZWDecode</text>
<text text-anchor="middle" x="60" y="-91" font-family="Helvetica,sans-Serif" font-size="10.00">::initialize</text>
</g>
<!-- Node2 -->
<g id="node3" class="node"><title>Node2</title>
<a xlink:href="../../d7/df1/classmerge__lib_1_1_object.html#a439a2b34f5e9480a36c299e30be0f6f7" target="_top" xlink:title="getHeader">
<polygon fill="white" stroke="black" points="334,-159 334,-193 430,-193 430,-159 334,-159"/>
<text text-anchor="start" x="342" y="-180" font-family="Helvetica,sans-Serif" font-size="10.00">merge_lib::Object:</text>
<text text-anchor="middle" x="382" y="-167" font-family="Helvetica,sans-Serif" font-size="10.00">:getHeader</text>
</a>
</g>
<!-- Node1&#45;&gt;Node2 -->
<g id="edge2" class="edge"><title>Node1&#45;&gt;Node2</title>
<path fill="none" stroke="midnightblue" d="M84.8645,-117.002C103.57,-128.891 130.295,-144.017 156,-152 211.175,-169.135 277.17,-174.52 323.556,-175.991"/>
<polygon fill="midnightblue" stroke="midnightblue" points="323.642,-179.494 333.731,-176.261 323.828,-172.497 323.642,-179.494"/>
</g>
<!-- Node4 -->
<g id="node7" class="node"><title>Node4</title>
<a xlink:href="../../d5/d5f/classmerge__lib_1_1_filter_predictor.html#ab45acfb2cd146059037a607f4d008df7" target="_top" xlink:title="merge_lib::FilterPredictor\l::initialize">
<polygon fill="white" stroke="black" points="156.5,-109 156.5,-143 281.5,-143 281.5,-109 156.5,-109"/>
<text text-anchor="start" x="164.5" y="-130" font-family="Helvetica,sans-Serif" font-size="10.00">merge_lib::FilterPredictor</text>
<text text-anchor="middle" x="219" y="-117" font-family="Helvetica,sans-Serif" font-size="10.00">::initialize</text>
</a>
</g>
<!-- Node1&#45;&gt;Node4 -->
<g id="edge6" class="edge"><title>Node1&#45;&gt;Node4</title>
<path fill="none" stroke="midnightblue" d="M119.658,-109.755C128.365,-111.179 137.412,-112.659 146.342,-114.119"/>
<polygon fill="midnightblue" stroke="midnightblue" points="145.918,-117.596 156.352,-115.756 147.048,-110.688 145.918,-117.596"/>
</g>
<!-- Node17 -->
<g id="node36" class="node"><title>Node17</title>
<a xlink:href="../../d5/d5f/classmerge__lib_1_1_filter_predictor.html#ab633eb1564a580644998e42bb429e4ef" target="_top" xlink:title="merge_lib::FilterPredictor\l::getEarlyChange">
<polygon fill="white" stroke="black" points="156.5,-57 156.5,-91 281.5,-91 281.5,-57 156.5,-57"/>
<text text-anchor="start" x="164.5" y="-78" font-family="Helvetica,sans-Serif" font-size="10.00">merge_lib::FilterPredictor</text>
<text text-anchor="middle" x="219" y="-65" font-family="Helvetica,sans-Serif" font-size="10.00">::getEarlyChange</text>
</a>
</g>
<!-- Node1&#45;&gt;Node17 -->
<g id="edge38" class="edge"><title>Node1&#45;&gt;Node17</title>
<path fill="none" stroke="midnightblue" d="M119.658,-90.2446C128.365,-88.8208 137.412,-87.3415 146.342,-85.8811"/>
<polygon fill="midnightblue" stroke="midnightblue" points="147.048,-89.3124 156.352,-84.2444 145.918,-82.4041 147.048,-89.3124"/>
</g>
<!-- Node18 -->
<g id="node38" class="node"><title>Node18</title>
<a xlink:href="../../d9/d70/classmerge__lib_1_1_l_z_w_decode.html#adaa4dcf4db4a4ded09111841d9fc2167" target="_top" xlink:title="merge_lib::LZWDecode\l::clearTable">
<polygon fill="white" stroke="black" points="159.5,-5 159.5,-39 278.5,-39 278.5,-5 159.5,-5"/>
<text text-anchor="start" x="167.5" y="-26" font-family="Helvetica,sans-Serif" font-size="10.00">merge_lib::LZWDecode</text>
<text text-anchor="middle" x="219" y="-13" font-family="Helvetica,sans-Serif" font-size="10.00">::clearTable</text>
</a>
</g>
<!-- Node1&#45;&gt;Node18 -->
<g id="edge40" class="edge"><title>Node1&#45;&gt;Node18</title>
<path fill="none" stroke="midnightblue" d="M89.847,-82.7817C108.588,-72.235 133.405,-58.7456 156,-48 159.506,-46.3326 163.149,-44.6654 166.835,-43.0259"/>
<polygon fill="midnightblue" stroke="midnightblue" points="168.261,-46.2222 176.034,-39.023 165.468,-39.8034 168.261,-46.2222"/>
</g>
<!-- Node3 -->
<g id="node5" class="node"><title>Node3</title>
<a xlink:href="../../d7/df1/classmerge__lib_1_1_object.html#a42a15267894aa3119b5eb5e389c705fa" target="_top" xlink:title="hasStream">
<polygon fill="white" stroke="black" points="491,-159 491,-193 587,-193 587,-159 491,-159"/>
<text text-anchor="start" x="499" y="-180" font-family="Helvetica,sans-Serif" font-size="10.00">merge_lib::Object:</text>
<text text-anchor="middle" x="539" y="-167" font-family="Helvetica,sans-Serif" font-size="10.00">:hasStream</text>
</a>
</g>
<!-- Node2&#45;&gt;Node3 -->
<g id="edge4" class="edge"><title>Node2&#45;&gt;Node3</title>
<path fill="none" stroke="midnightblue" d="M430.386,-176C446.279,-176 464.112,-176 480.663,-176"/>
<polygon fill="midnightblue" stroke="midnightblue" points="480.774,-179.5 490.774,-176 480.773,-172.5 480.774,-179.5"/>
</g>
<!-- Node4&#45;&gt;Node2 -->
<g id="edge8" class="edge"><title>Node4&#45;&gt;Node2</title>
<path fill="none" stroke="midnightblue" d="M274.639,-143.067C290.602,-147.964 308.041,-153.313 324.134,-158.25"/>
<polygon fill="midnightblue" stroke="midnightblue" points="323.368,-161.676 333.955,-161.262 325.421,-154.983 323.368,-161.676"/>
</g>
<!-- Node5 -->
<g id="node10" class="node"><title>Node5</title>
<a xlink:href="../../d5/d5f/classmerge__lib_1_1_filter_predictor.html#abfa7ac853d9c7a25f31a42a36717edbb" target="_top" xlink:title="merge_lib::FilterPredictor\l::getDictionaryContentStr">
<polygon fill="white" stroke="black" points="318,-107 318,-141 446,-141 446,-107 318,-107"/>
<text text-anchor="start" x="326" y="-128" font-family="Helvetica,sans-Serif" font-size="10.00">merge_lib::FilterPredictor</text>
<text text-anchor="middle" x="382" y="-115" font-family="Helvetica,sans-Serif" font-size="10.00">::getDictionaryContentStr</text>
</a>
</g>
<!-- Node4&#45;&gt;Node5 -->
<g id="edge10" class="edge"><title>Node4&#45;&gt;Node5</title>
<path fill="none" stroke="midnightblue" d="M281.554,-125.232C290.136,-125.127 299.015,-125.018 307.781,-124.911"/>
<polygon fill="midnightblue" stroke="midnightblue" points="308.038,-128.408 317.995,-124.785 307.953,-121.408 308.038,-128.408"/>
</g>
<!-- Node6 -->
<g id="node12" class="node"><title>Node6</title>
<a xlink:href="../../d5/d5f/classmerge__lib_1_1_filter_predictor.html#a489435228f9020c655a9f0e6f384d175" target="_top" xlink:title="merge_lib::FilterPredictor\l::obtainDecodeParams">
<polygon fill="white" stroke="black" points="319.5,-55 319.5,-89 444.5,-89 444.5,-55 319.5,-55"/>
<text text-anchor="start" x="327.5" y="-76" font-family="Helvetica,sans-Serif" font-size="10.00">merge_lib::FilterPredictor</text>
<text text-anchor="middle" x="382" y="-63" font-family="Helvetica,sans-Serif" font-size="10.00">::obtainDecodeParams</text>
</a>
</g>
<!-- Node4&#45;&gt;Node6 -->
<g id="edge12" class="edge"><title>Node4&#45;&gt;Node6</title>
<path fill="none" stroke="midnightblue" d="M270.574,-108.914C286.558,-103.619 304.324,-97.7331 320.89,-92.2452"/>
<polygon fill="midnightblue" stroke="midnightblue" points="322.09,-95.5347 330.482,-89.0674 319.888,-88.8898 322.09,-95.5347"/>
</g>
<!-- Node7 -->
<g id="node14" class="node"><title>Node7</title>
<a xlink:href="../../d7/df1/classmerge__lib_1_1_object.html#a74d6f1dd66a4371682ecb1415e61e818" target="_top" xlink:title="merge_lib::Object:\l:getNameSimpleValue">
<polygon fill="white" stroke="black" points="482,-104 482,-138 596,-138 596,-104 482,-104"/>
<text text-anchor="start" x="490" y="-125" font-family="Helvetica,sans-Serif" font-size="10.00">merge_lib::Object:</text>
<text text-anchor="middle" x="539" y="-112" font-family="Helvetica,sans-Serif" font-size="10.00">:getNameSimpleValue</text>
</a>
</g>
<!-- Node6&#45;&gt;Node7 -->
<g id="edge14" class="edge"><title>Node6&#45;&gt;Node7</title>
<path fill="none" stroke="midnightblue" d="M436.47,-89.0003C448.821,-92.855 462.05,-96.9838 474.763,-100.951"/>
<polygon fill="midnightblue" stroke="midnightblue" points="473.772,-104.309 484.36,-103.947 475.857,-97.6264 473.772,-104.309"/>
</g>
<!-- Node13 -->
<g id="node26" class="node"><title>Node13</title>
<a xlink:href="../../d4/d67/classmerge__lib_1_1_utils.html#a1e6ab2d929fb6879433ff6ed87dcc18b" target="_top" xlink:title="merge_lib::Utils::string\lToInt">
<polygon fill="white" stroke="black" points="632.5,-0 632.5,-34 747.5,-34 747.5,-0 632.5,-0"/>
<text text-anchor="start" x="640.5" y="-21" font-family="Helvetica,sans-Serif" font-size="10.00">merge_lib::Utils::string</text>
<text text-anchor="middle" x="690" y="-8" font-family="Helvetica,sans-Serif" font-size="10.00">ToInt</text>
</a>
</g>
<!-- Node6&#45;&gt;Node13 -->
<g id="edge36" class="edge"><title>Node6&#45;&gt;Node13</title>
<path fill="none" stroke="midnightblue" d="M444.7,-60.8036C496.337,-51.5827 569.407,-38.5344 622.355,-29.0795"/>
<polygon fill="midnightblue" stroke="midnightblue" points="623.101,-32.5017 632.33,-27.2983 621.87,-25.6107 623.101,-32.5017"/>
</g>
<!-- Node8 -->
<g id="node16" class="node"><title>Node8</title>
<a xlink:href="../../d4/de3/classmerge__lib_1_1_parser.html#a8137716311af63522dd38cad79fc4a40" target="_top" xlink:title="merge_lib::Parser:\l:findTokenStr">
<polygon fill="white" stroke="black" points="642,-246 642,-280 738,-280 738,-246 642,-246"/>
<text text-anchor="start" x="650" y="-267" font-family="Helvetica,sans-Serif" font-size="10.00">merge_lib::Parser:</text>
<text text-anchor="middle" x="690" y="-254" font-family="Helvetica,sans-Serif" font-size="10.00">:findTokenStr</text>
</a>
</g>
<!-- Node7&#45;&gt;Node8 -->
<g id="edge16" class="edge"><title>Node7&#45;&gt;Node8</title>
<path fill="none" stroke="midnightblue" d="M581.282,-138.085C586.677,-141.479 591.779,-145.435 596,-150 624.409,-180.725 602.844,-206.983 632,-237 632.908,-237.935 633.856,-238.839 634.838,-239.713"/>
<polygon fill="midnightblue" stroke="midnightblue" points="632.853,-242.6 642.941,-245.839 637.075,-237.016 632.853,-242.6"/>
</g>
<!-- Node10 -->
<g id="node20" class="node"><title>Node10</title>
<a xlink:href="../../d4/de3/classmerge__lib_1_1_parser.html#aea1235b1ef3c67048cc9f32ecb30918a" target="_top" xlink:title="getNextWord">
<polygon fill="white" stroke="black" points="642,-194 642,-228 738,-228 738,-194 642,-194"/>
<text text-anchor="start" x="650" y="-215" font-family="Helvetica,sans-Serif" font-size="10.00">merge_lib::Parser:</text>
<text text-anchor="middle" x="690" y="-202" font-family="Helvetica,sans-Serif" font-size="10.00">:getNextWord</text>
</a>
</g>
<!-- Node7&#45;&gt;Node10 -->
<g id="edge20" class="edge"><title>Node7&#45;&gt;Node10</title>
<path fill="none" stroke="midnightblue" d="M575.57,-138.067C582.514,-141.734 589.603,-145.784 596,-150 613.391,-161.461 614.726,-168.364 632,-180 636.557,-183.07 641.451,-186.081 646.393,-188.947"/>
<polygon fill="midnightblue" stroke="midnightblue" points="644.846,-192.092 655.28,-193.931 648.27,-185.986 644.846,-192.092"/>
</g>
<!-- Node11 -->
<g id="node22" class="node"><title>Node11</title>
<a xlink:href="../../d4/de3/classmerge__lib_1_1_parser.html#a89825c31c50fa949dab5b0b4974b7677" target="_top" xlink:title="trim">
<polygon fill="white" stroke="black" points="784,-177.5 784,-198.5 900,-198.5 900,-177.5 784,-177.5"/>
<text text-anchor="middle" x="842" y="-185.5" font-family="Helvetica,sans-Serif" font-size="10.00">merge_lib::Parser::trim</text>
</a>
</g>
<!-- Node7&#45;&gt;Node11 -->
<g id="edge34" class="edge"><title>Node7&#45;&gt;Node11</title>
<path fill="none" stroke="midnightblue" d="M596.362,-137.809C608.107,-141.033 620.418,-144.255 632,-147 679.083,-158.159 732.622,-168.577 773.857,-176.119"/>
<polygon fill="midnightblue" stroke="midnightblue" points="773.33,-179.581 783.795,-177.925 774.582,-172.693 773.33,-179.581"/>
</g>
<!-- Node7&#45;&gt;Node13 -->
<g id="edge26" class="edge"><title>Node7&#45;&gt;Node13</title>
<path fill="none" stroke="midnightblue" d="M556.372,-103.872C574.242,-86.8938 603.427,-60.9001 632,-43 634.288,-41.5665 636.669,-40.1695 639.103,-38.8152"/>
<polygon fill="midnightblue" stroke="midnightblue" points="640.852,-41.8501 648.086,-34.1084 637.603,-35.6497 640.852,-41.8501"/>
</g>
<!-- Node15 -->
<g id="node30" class="node"><title>Node15</title>
<a xlink:href="../../d7/df1/classmerge__lib_1_1_object.html#a224f409e2c575b6688db5585bab59ca5" target="_top" xlink:title="merge_lib::Object:\l:getChild">
<polygon fill="white" stroke="black" points="642,-104 642,-138 738,-138 738,-104 642,-104"/>
<text text-anchor="start" x="650" y="-125" font-family="Helvetica,sans-Serif" font-size="10.00">merge_lib::Object:</text>
<text text-anchor="middle" x="690" y="-112" font-family="Helvetica,sans-Serif" font-size="10.00">:getChild</text>
</a>
</g>
<!-- Node7&#45;&gt;Node15 -->
<g id="edge30" class="edge"><title>Node7&#45;&gt;Node15</title>
<path fill="none" stroke="midnightblue" d="M596.087,-121C607.714,-121 619.961,-121 631.632,-121"/>
<polygon fill="midnightblue" stroke="midnightblue" points="631.71,-124.5 641.71,-121 631.71,-117.5 631.71,-124.5"/>
</g>
<!-- Node16 -->
<g id="node32" class="node"><title>Node16</title>
<a xlink:href="../../d7/df1/classmerge__lib_1_1_object.html#ad441291610e8d87698139463d2a27d21" target="_top" xlink:title="merge_lib::Object:\l:getObjectContent">
<polygon fill="white" stroke="black" points="642,-52 642,-86 738,-86 738,-52 642,-52"/>
<text text-anchor="start" x="650" y="-73" font-family="Helvetica,sans-Serif" font-size="10.00">merge_lib::Object:</text>
<text text-anchor="middle" x="690" y="-60" font-family="Helvetica,sans-Serif" font-size="10.00">:getObjectContent</text>
</a>
</g>
<!-- Node7&#45;&gt;Node16 -->
<g id="edge32" class="edge"><title>Node7&#45;&gt;Node16</title>
<path fill="none" stroke="midnightblue" d="M588.443,-103.973C602.42,-99.16 617.755,-93.8791 632.178,-88.9123"/>
<polygon fill="midnightblue" stroke="midnightblue" points="633.674,-92.0989 641.989,-85.5335 631.395,-85.4803 633.674,-92.0989"/>
</g>
<!-- Node9 -->
<g id="node18" class="node"><title>Node9</title>
<a xlink:href="../../d4/de3/classmerge__lib_1_1_parser.html#a10e184b6efbae358d74f48f92406b679" target="_top" xlink:title="merge_lib::Parser:\l:findToken">
<polygon fill="white" stroke="black" points="794,-246 794,-280 890,-280 890,-246 794,-246"/>
<text text-anchor="start" x="802" y="-267" font-family="Helvetica,sans-Serif" font-size="10.00">merge_lib::Parser:</text>
<text text-anchor="middle" x="842" y="-254" font-family="Helvetica,sans-Serif" font-size="10.00">:findToken</text>
</a>
</g>
<!-- Node8&#45;&gt;Node9 -->
<g id="edge18" class="edge"><title>Node8&#45;&gt;Node9</title>
<path fill="none" stroke="midnightblue" d="M738.094,-263C752.581,-263 768.638,-263 783.712,-263"/>
<polygon fill="midnightblue" stroke="midnightblue" points="783.958,-266.5 793.958,-263 783.958,-259.5 783.958,-266.5"/>
</g>
<!-- Node10&#45;&gt;Node11 -->
<g id="edge22" class="edge"><title>Node10&#45;&gt;Node11</title>
<path fill="none" stroke="midnightblue" d="M738.094,-203.723C749.441,-202.006 761.753,-200.143 773.8,-198.32"/>
<polygon fill="midnightblue" stroke="midnightblue" points="774.467,-201.759 783.83,-196.802 773.419,-194.838 774.467,-201.759"/>
</g>
<!-- Node12 -->
<g id="node24" class="node"><title>Node12</title>
<a xlink:href="../../d2/da6/_a_s_c_i_i_hex_decode_8cpp.html#ac2c3406e3793e69426121bcaa2b6ea2d" target="_top" xlink:title="WHITESPACES">
<polygon fill="white" stroke="black" points="936.5,-177.5 936.5,-198.5 1027.5,-198.5 1027.5,-177.5 936.5,-177.5"/>
<text text-anchor="middle" x="982" y="-185.5" font-family="Helvetica,sans-Serif" font-size="10.00">WHITESPACES</text>
</a>
</g>
<!-- Node11&#45;&gt;Node12 -->
<g id="edge24" class="edge"><title>Node11&#45;&gt;Node12</title>
<path fill="none" stroke="midnightblue" d="M900.156,-188C908.702,-188 917.49,-188 925.991,-188"/>
<polygon fill="midnightblue" stroke="midnightblue" points="926.183,-191.5 936.183,-188 926.183,-184.5 926.183,-191.5"/>
</g>
<!-- Node14 -->
<g id="node28" class="node"><title>Node14</title>
<a xlink:href="../../d4/d67/classmerge__lib_1_1_utils.html#a4dc921ba1f8ba159fc0a30309f693c03" target="_top" xlink:title="merge_lib::Utils::\l_stringToInt">
<polygon fill="white" stroke="black" points="796.5,-0 796.5,-34 887.5,-34 887.5,-0 796.5,-0"/>
<text text-anchor="start" x="804.5" y="-21" font-family="Helvetica,sans-Serif" font-size="10.00">merge_lib::Utils::</text>
<text text-anchor="middle" x="842" y="-8" font-family="Helvetica,sans-Serif" font-size="10.00">_stringToInt</text>
</a>
</g>
<!-- Node13&#45;&gt;Node14 -->
<g id="edge28" class="edge"><title>Node13&#45;&gt;Node14</title>
<path fill="none" stroke="midnightblue" d="M747.898,-17C760.352,-17 773.494,-17 785.878,-17"/>
<polygon fill="midnightblue" stroke="midnightblue" points="786.071,-20.5001 796.071,-17 786.071,-13.5001 786.071,-20.5001"/>
</g>
</g>
</svg>
        <g id="navigator" transform="translate(0 0)" fill="#404254">
                <rect fill="#f2f5e9" fill-opacity="0.5" stroke="#606060" stroke-width=".5" x="0" y="0" width="60" height="60"/>
                <use id="zoomplus" xlink:href="#zoomPlus" x="17" y="9" onmousedown="handleZoom(evt,'in')"/>
                <use id="zoomminus" xlink:href="#zoomMin" x="42" y="9" onmousedown="handleZoom(evt,'out')"/>
                <use id="reset" xlink:href="#resetDef" x="30" y="36" onmousedown="handleReset()"/>
                <g id="arrowUp" xlink:href="#dirArrow" transform="translate(30 24)" onmousedown="handlePan(0,-1)">
                  <use xlink:href="#rim" fill="#404040">
                        <set attributeName="fill" to="#808080" begin="arrowUp.mouseover" end="arrowUp.mouseout"/>
                  </use>
                  <path fill="none" stroke="white" stroke-width="1.5" d="M0,-3.0v7 M-2.5,-0.5L0,-3.0L2.5,-0.5"/>
                </g>
                <g id="arrowRight" xlink:href="#dirArrow" transform="rotate(90) translate(36 -43)" onmousedown="handlePan(1,0)">
                  <use xlink:href="#rim" fill="#404040">
                        <set attributeName="fill" to="#808080" begin="arrowRight.mouseover" end="arrowRight.mouseout"/>
                  </use>
                  <path fill="none" stroke="white" stroke-width="1.5" d="M0,-3.0v7 M-2.5,-0.5L0,-3.0L2.5,-0.5"/>
                </g>
                <g id="arrowDown" xlink:href="#dirArrow" transform="rotate(180) translate(-30 -48)" onmousedown="handlePan(0,1)">
                  <use xlink:href="#rim" fill="#404040">
                        <set attributeName="fill" to="#808080" begin="arrowDown.mouseover" end="arrowDown.mouseout"/>
                  </use>
                  <path fill="none" stroke="white" stroke-width="1.5" d="M0,-3.0v7 M-2.5,-0.5L0,-3.0L2.5,-0.5"/>
                </g>
                <g id="arrowLeft" xlink:href="#dirArrow" transform="rotate(270) translate(-36 17)" onmousedown="handlePan(-1,0)">
                  <use xlink:href="#rim" fill="#404040">
                        <set attributeName="fill" to="#808080" begin="arrowLeft.mouseover" end="arrowLeft.mouseout"/>
                  </use>
                  <path fill="none" stroke="white" stroke-width="1.5" d="M0,-3.0v7 M-2.5,-0.5L0,-3.0L2.5,-0.5"/>
                </g>
        </g>
        <svg viewBox="0 0 15 15" width="100%" height="30px" preserveAspectRatio="xMaxYMin meet">
         <g id="arrow_out" transform="scale(0.3 0.3)">
          <a xlink:href="classmerge__lib_1_1_l_z_w_decode_a6008185d012afcaf7a73b3070afef4ea_cgraph_org.svg" target="_base">
           <rect id="button" ry="5" rx="5" y="6" x="6" height="38" width="38"
                fill="#f2f5e9" fill-opacity="0.5" stroke="#606060" stroke-width="1.0"/>
           <path id="arrow"
             d="M 11.500037,31.436501 C 11.940474,20.09759 22.043105,11.32322 32.158766,21.979434 L 37.068811,17.246167 C 37.068811,17.246167 37.088388,32 37.088388,32 L 22.160133,31.978069 C 22.160133,31.978069 26.997745,27.140456 26.997745,27.140456 C 18.528582,18.264221 13.291696,25.230495 11.500037,31.436501 z"
             style="fill:#404040;"/>
          </a>
         </g>
        </svg>
</svg>
