<?xml version="1.0" encoding="UTF-8" standalone="no"?>
<!DOCTYPE svg PUBLIC "-//W3C//DTD SVG 1.1//EN"
 "http://www.w3.org/Graphics/SVG/1.1/DTD/svg11.dtd">
<!-- Generated by graphviz version 2.26.3 (20100126.1600)
 -->
<!-- Title: UBSceneThumbnailNavigPixmap::updateButtonsState Pages: 1 -->
<!--zoomable 444 -->
<svg id="main" version="1.1" xmlns="http://www.w3.org/2000/svg" xmlns:xlink="http://www.w3.org/1999/xlink" xml:space="preserve" onload="init(evt)">
        <defs>
                <circle id="rim" cx="0" cy="0" r="7"/>
                <circle id="rim2" cx="0" cy="0" r="3.5"/>
                <g id="zoomPlus">
                        <use xlink:href="#rim" fill="#404040">
                                <set attributeName="fill" to="#808080" begin="zoomplus.mouseover" end="zoomplus.mouseout"/>
                        </use>
                        <path d="M-4,0h8M0,-4v8" fill="none" stroke="white" stroke-width="1.5" pointer-events="none"/>
                </g>
                <g id="zoomMin">
                        <use xlink:href="#rim" fill="#404040">
                                <set attributeName="fill" to="#808080" begin="zoomminus.mouseover" end="zoomminus.mouseout"/>
                        </use>
                        <path d="M-4,0h8" fill="none" stroke="white" stroke-width="1.5" pointer-events="none"/>
                </g>
                <g id="dirArrow">
                        <path fill="none" stroke="white" stroke-width="1.5" d="M0,-3.0v7 M-2.5,-0.5L0,-3.0L2.5,-0.5"/>
                </g>
               <g id="resetDef">
                       <use xlink:href="#rim2" fill="#404040">
                               <set attributeName="fill" to="#808080" begin="reset.mouseover" end="reset.mouseout"/>
                       </use>
               </g>
        </defs>

<script type="text/javascript">
var viewWidth = 1276;
var viewHeight = 444;
var sectionId = 'dynsection-13';
</script>
<script xlink:href="../../svgpan.js"/>
<svg id="graph" class="graph">
<g id="viewport">
<title>UBSceneThumbnailNavigPixmap::updateButtonsState</title>
<polygon fill="white" stroke="white" points="-4,5 -4,-440 1273,-440 1273,5 -4,5"/>
<!-- Node1 -->
<g id="node1" class="node"><title>Node1</title>
<polygon fill="#bfbfbf" stroke="black" points="0,-194 0,-228 162,-228 162,-194 0,-194"/>
<text text-anchor="start" x="8" y="-215" font-family="Helvetica,sans-Serif" font-size="10.00">UBSceneThumbnailNavigPixmap</text>
<text text-anchor="middle" x="81" y="-202" font-family="Helvetica,sans-Serif" font-size="10.00">::updateButtonsState</text>
</g>
<!-- Node2 -->
<g id="node3" class="node"><title>Node2</title>
<a xlink:href="../../d1/d64/class_u_b_scene_thumbnail_pixmap.html#ae7da44d7a27c5ed55eb753200fcd8d2e" target="_top" xlink:title="UBSceneThumbnailPixmap\l::proxy">
<polygon fill="white" stroke="black" points="198.5,-402 198.5,-436 335.5,-436 335.5,-402 198.5,-402"/>
<text text-anchor="start" x="206.5" y="-423" font-family="Helvetica,sans-Serif" font-size="10.00">UBSceneThumbnailPixmap</text>
<text text-anchor="middle" x="267" y="-410" font-family="Helvetica,sans-Serif" font-size="10.00">::proxy</text>
</a>
</g>
<!-- Node1&#45;&gt;Node2 -->
<g id="edge2" class="edge"><title>Node1&#45;&gt;Node2</title>
<path fill="none" stroke="midnightblue" d="M87.6096,-228.132C102.191,-263.778 140.456,-346.475 198,-393 199.568,-394.268 201.204,-395.478 202.894,-396.633"/>
<polygon fill="midnightblue" stroke="midnightblue" points="201.356,-399.792 211.727,-401.956 204.969,-393.797 201.356,-399.792"/>
</g>
<!-- Node3 -->
<g id="node5" class="node"><title>Node3</title>
<a xlink:href="../../da/dc6/class_u_b_document_container.html#ad573f4f006c0eac302455c6bd20421a7" target="_top" xlink:title="UBDocumentContainer\l::pageFromSceneIndex">
<polygon fill="white" stroke="black" points="208,-246 208,-280 326,-280 326,-246 208,-246"/>
<text text-anchor="start" x="216" y="-267" font-family="Helvetica,sans-Serif" font-size="10.00">UBDocumentContainer</text>
<text text-anchor="middle" x="267" y="-254" font-family="Helvetica,sans-Serif" font-size="10.00">::pageFromSceneIndex</text>
</a>
</g>
<!-- Node1&#45;&gt;Node3 -->
<g id="edge4" class="edge"><title>Node1&#45;&gt;Node3</title>
<path fill="none" stroke="midnightblue" d="M141.903,-228.027C159.865,-233.048 179.647,-238.579 198.075,-243.731"/>
<polygon fill="midnightblue" stroke="midnightblue" points="197.288,-247.145 207.861,-246.466 199.173,-240.403 197.288,-247.145"/>
</g>
<!-- Node14 -->
<g id="node28" class="node"><title>Node14</title>
<a xlink:href="../../d1/d64/class_u_b_scene_thumbnail_pixmap.html#a9bc67f587cd73ff2119dd6aa06a07871" target="_top" xlink:title="UBSceneThumbnailPixmap\l::sceneIndex">
<polygon fill="white" stroke="black" points="198.5,-298 198.5,-332 335.5,-332 335.5,-298 198.5,-298"/>
<text text-anchor="start" x="206.5" y="-319" font-family="Helvetica,sans-Serif" font-size="10.00">UBSceneThumbnailPixmap</text>
<text text-anchor="middle" x="267" y="-306" font-family="Helvetica,sans-Serif" font-size="10.00">::sceneIndex</text>
</a>
</g>
<!-- Node1&#45;&gt;Node14 -->
<g id="edge28" class="edge"><title>Node1&#45;&gt;Node14</title>
<path fill="none" stroke="midnightblue" d="M103.359,-228.155C126.234,-245.155 163.249,-271.165 198,-289 201.267,-290.677 204.669,-292.304 208.133,-293.873"/>
<polygon fill="midnightblue" stroke="midnightblue" points="206.835,-297.124 217.403,-297.878 209.611,-290.699 206.835,-297.124"/>
</g>
<!-- Node15 -->
<g id="node30" class="node"><title>Node15</title>
<a xlink:href="../../da/dc6/class_u_b_document_container.html#a859116555c2e46b6949e6e1cc613d754" target="_top" xlink:title="UBDocumentContainer\l::selectedDocument">
<polygon fill="white" stroke="black" points="391,-45 391,-79 509,-79 509,-45 391,-45"/>
<text text-anchor="start" x="399" y="-66" font-family="Helvetica,sans-Serif" font-size="10.00">UBDocumentContainer</text>
<text text-anchor="middle" x="450" y="-53" font-family="Helvetica,sans-Serif" font-size="10.00">::selectedDocument</text>
</a>
</g>
<!-- Node1&#45;&gt;Node15 -->
<g id="edge30" class="edge"><title>Node1&#45;&gt;Node15</title>
<path fill="none" stroke="midnightblue" d="M90.5347,-193.683C107.682,-164.481 146.764,-106.169 198,-81 254.854,-53.071 327.731,-50.6009 380.475,-53.7568"/>
<polygon fill="midnightblue" stroke="midnightblue" points="380.53,-57.2686 390.745,-54.4571 381.006,-50.2848 380.53,-57.2686"/>
</g>
<!-- Node16 -->
<g id="node32" class="node"><title>Node16</title>
<a xlink:href="../../d6/de0/class_u_b_document_controller.html#a097804748c35b992649703b34879f93a" target="_top" xlink:title="UBDocumentController\l::setDocument">
<polygon fill="white" stroke="black" points="208,-194 208,-228 326,-228 326,-194 208,-194"/>
<text text-anchor="start" x="216" y="-215" font-family="Helvetica,sans-Serif" font-size="10.00">UBDocumentController</text>
<text text-anchor="middle" x="267" y="-202" font-family="Helvetica,sans-Serif" font-size="10.00">::setDocument</text>
</a>
</g>
<!-- Node1&#45;&gt;Node16 -->
<g id="edge32" class="edge"><title>Node1&#45;&gt;Node16</title>
<path fill="none" stroke="midnightblue" d="M162.041,-211C173.929,-211 186.081,-211 197.705,-211"/>
<polygon fill="midnightblue" stroke="midnightblue" points="197.763,-214.5 207.763,-211 197.763,-207.5 197.763,-214.5"/>
</g>
<!-- Node17 -->
<g id="node34" class="node"><title>Node17</title>
<a xlink:href="../../d6/de0/class_u_b_document_controller.html#a71a7cb4fcf2ea80c51d03126eb2845db" target="_top" xlink:title="UBDocumentController\l::pageCanBeDeleted">
<polygon fill="white" stroke="black" points="208,-142 208,-176 326,-176 326,-142 208,-142"/>
<text text-anchor="start" x="216" y="-163" font-family="Helvetica,sans-Serif" font-size="10.00">UBDocumentController</text>
<text text-anchor="middle" x="267" y="-150" font-family="Helvetica,sans-Serif" font-size="10.00">::pageCanBeDeleted</text>
</a>
</g>
<!-- Node1&#45;&gt;Node17 -->
<g id="edge34" class="edge"><title>Node1&#45;&gt;Node17</title>
<path fill="none" stroke="midnightblue" d="M141.903,-193.973C159.865,-188.952 179.647,-183.421 198.075,-178.269"/>
<polygon fill="midnightblue" stroke="midnightblue" points="199.173,-181.597 207.861,-175.534 197.288,-174.855 199.173,-181.597"/>
</g>
<!-- Node18 -->
<g id="node36" class="node"><title>Node18</title>
<a xlink:href="../../d6/de0/class_u_b_document_controller.html#a392b1ad5ed947be4517c7791bb3c57f9" target="_top" xlink:title="UBDocumentController\l::pageCanBeMovedUp">
<polygon fill="white" stroke="black" points="208,-350 208,-384 326,-384 326,-350 208,-350"/>
<text text-anchor="start" x="216" y="-371" font-family="Helvetica,sans-Serif" font-size="10.00">UBDocumentController</text>
<text text-anchor="middle" x="267" y="-358" font-family="Helvetica,sans-Serif" font-size="10.00">::pageCanBeMovedUp</text>
</a>
</g>
<!-- Node1&#45;&gt;Node18 -->
<g id="edge36" class="edge"><title>Node1&#45;&gt;Node18</title>
<path fill="none" stroke="midnightblue" d="M92.3023,-228.142C111.168,-255.538 151.612,-309.321 198,-341 200.128,-342.453 202.347,-343.838 204.631,-345.157"/>
<polygon fill="midnightblue" stroke="midnightblue" points="203.219,-348.369 213.7,-349.921 206.474,-342.172 203.219,-348.369"/>
</g>
<!-- Node19 -->
<g id="node39" class="node"><title>Node19</title>
<a xlink:href="../../d6/de0/class_u_b_document_controller.html#af383db396f8d772663ce6ed7d0fbd019" target="_top" xlink:title="UBDocumentController\l::pageCanBeMovedDown">
<polygon fill="white" stroke="black" points="203,-90 203,-124 331,-124 331,-90 203,-90"/>
<text text-anchor="start" x="211" y="-111" font-family="Helvetica,sans-Serif" font-size="10.00">UBDocumentController</text>
<text text-anchor="middle" x="267" y="-98" font-family="Helvetica,sans-Serif" font-size="10.00">::pageCanBeMovedDown</text>
</a>
</g>
<!-- Node1&#45;&gt;Node19 -->
<g id="edge40" class="edge"><title>Node1&#45;&gt;Node19</title>
<path fill="none" stroke="midnightblue" d="M103.359,-193.845C126.234,-176.845 163.249,-150.835 198,-133 201.267,-131.323 204.669,-129.696 208.133,-128.127"/>
<polygon fill="midnightblue" stroke="midnightblue" points="209.611,-131.301 217.403,-124.122 206.835,-124.876 209.611,-131.301"/>
</g>
<!-- Node21 -->
<g id="node45" class="node"><title>Node21</title>
<a xlink:href="../../d6/de0/class_u_b_document_controller.html#aa780a0f6de4bceda2086bf5616b8ce1d" target="_top" xlink:title="UBDocumentController\l::pageCanBeDuplicated">
<polygon fill="white" stroke="black" points="207,-0 207,-34 327,-34 327,-0 207,-0"/>
<text text-anchor="start" x="215" y="-21" font-family="Helvetica,sans-Serif" font-size="10.00">UBDocumentController</text>
<text text-anchor="middle" x="267" y="-8" font-family="Helvetica,sans-Serif" font-size="10.00">::pageCanBeDuplicated</text>
</a>
</g>
<!-- Node1&#45;&gt;Node21 -->
<g id="edge48" class="edge"><title>Node1&#45;&gt;Node21</title>
<path fill="none" stroke="midnightblue" d="M89.3123,-193.974C105.88,-161.586 145.946,-90.5469 198,-48 201.966,-44.7587 206.324,-41.7855 210.864,-39.0739"/>
<polygon fill="midnightblue" stroke="midnightblue" points="212.687,-42.0659 219.763,-34.1803 209.314,-35.9323 212.687,-42.0659"/>
</g>
<!-- Node4 -->
<g id="node7" class="node"><title>Node4</title>
<a xlink:href="../../db/d66/class_u_b_settings.html#a0d8ed418921c2b2d37851faeae00715d" target="_top" xlink:title="UBSettings::settings">
<polygon fill="white" stroke="black" points="396.5,-252.5 396.5,-273.5 503.5,-273.5 503.5,-252.5 396.5,-252.5"/>
<text text-anchor="middle" x="450" y="-260.5" font-family="Helvetica,sans-Serif" font-size="10.00">UBSettings::settings</text>
</a>
</g>
<!-- Node3&#45;&gt;Node4 -->
<g id="edge6" class="edge"><title>Node3&#45;&gt;Node4</title>
<path fill="none" stroke="midnightblue" d="M326.162,-263C345.37,-263 366.76,-263 386.285,-263"/>
<polygon fill="midnightblue" stroke="midnightblue" points="386.304,-266.5 396.303,-263 386.303,-259.5 386.304,-266.5"/>
</g>
<!-- Node5 -->
<g id="node9" class="node"><title>Node5</title>
<a xlink:href="../../db/d66/class_u_b_settings.html#ad703e9b5a7efdb68b9c6ecef0df7cce2" target="_top" xlink:title="UBSettings::UBSettings">
<polygon fill="white" stroke="black" points="564.5,-252.5 564.5,-273.5 687.5,-273.5 687.5,-252.5 564.5,-252.5"/>
<text text-anchor="middle" x="626" y="-260.5" font-family="Helvetica,sans-Serif" font-size="10.00">UBSettings::UBSettings</text>
</a>
</g>
<!-- Node4&#45;&gt;Node5 -->
<g id="edge8" class="edge"><title>Node4&#45;&gt;Node5</title>
<path fill="none" stroke="midnightblue" d="M503.762,-263C519.584,-263 537.156,-263 553.929,-263"/>
<polygon fill="midnightblue" stroke="midnightblue" points="554.247,-266.5 564.247,-263 554.247,-259.5 554.247,-266.5"/>
</g>
<!-- Node6 -->
<g id="node11" class="node"><title>Node6</title>
<a xlink:href="../../db/d66/class_u_b_settings.html#afd0d739b2cfac7e2d05be7415f6692df" target="_top" xlink:title="UBSettings::InitKeyboard\lPaletteKeyBtnSizes">
<polygon fill="white" stroke="black" points="736,-291 736,-325 864,-325 864,-291 736,-291"/>
<text text-anchor="start" x="744" y="-312" font-family="Helvetica,sans-Serif" font-size="10.00">UBSettings::InitKeyboard</text>
<text text-anchor="middle" x="800" y="-299" font-family="Helvetica,sans-Serif" font-size="10.00">PaletteKeyBtnSizes</text>
</a>
</g>
<!-- Node5&#45;&gt;Node6 -->
<g id="edge10" class="edge"><title>Node5&#45;&gt;Node6</title>
<path fill="none" stroke="midnightblue" d="M666.795,-273.551C684.491,-278.127 705.78,-283.633 726.094,-288.886"/>
<polygon fill="midnightblue" stroke="midnightblue" points="725.411,-292.325 735.968,-291.44 727.163,-285.548 725.411,-292.325"/>
</g>
<!-- Node7 -->
<g id="node13" class="node"><title>Node7</title>
<a xlink:href="../../db/d66/class_u_b_settings.html#a2d3413f8b25d64a698d6d83e0f18ff39" target="_top" xlink:title="UBSettings::getAppSettings">
<polygon fill="white" stroke="black" points="914,-256.5 914,-277.5 1054,-277.5 1054,-256.5 914,-256.5"/>
<text text-anchor="middle" x="984" y="-264.5" font-family="Helvetica,sans-Serif" font-size="10.00">UBSettings::getAppSettings</text>
</a>
</g>
<!-- Node5&#45;&gt;Node7 -->
<g id="edge12" class="edge"><title>Node5&#45;&gt;Node7</title>
<path fill="none" stroke="midnightblue" d="M687.542,-263.688C747.223,-264.354 838.094,-265.37 903.493,-266.1"/>
<polygon fill="midnightblue" stroke="midnightblue" points="903.724,-269.603 913.762,-266.215 903.802,-262.604 903.724,-269.603"/>
</g>
<!-- Node9 -->
<g id="node17" class="node"><title>Node9</title>
<a xlink:href="../../db/d66/class_u_b_settings.html#af38d2ad231149df734ca7b5486356500" target="_top" xlink:title="UBSettings::userDataDirectory">
<polygon fill="white" stroke="black" points="724,-210.5 724,-231.5 876,-231.5 876,-210.5 724,-210.5"/>
<text text-anchor="middle" x="800" y="-218.5" font-family="Helvetica,sans-Serif" font-size="10.00">UBSettings::userDataDirectory</text>
</a>
</g>
<!-- Node5&#45;&gt;Node9 -->
<g id="edge16" class="edge"><title>Node5&#45;&gt;Node9</title>
<path fill="none" stroke="midnightblue" d="M669.908,-252.402C693.179,-246.784 721.954,-239.839 746.519,-233.909"/>
<polygon fill="midnightblue" stroke="midnightblue" points="747.509,-237.271 756.408,-231.522 745.866,-230.466 747.509,-237.271"/>
</g>
<!-- Node8 -->
<g id="node15" class="node"><title>Node8</title>
<a xlink:href="../../d4/d99/class_u_b_platform_utils.html#ae595b29e794b20564550fd45515fc0a8" target="_top" xlink:title="UBPlatformUtils::application\lResourcesDirectory">
<polygon fill="white" stroke="black" points="1110,-250 1110,-284 1250,-284 1250,-250 1110,-250"/>
<text text-anchor="start" x="1118" y="-271" font-family="Helvetica,sans-Serif" font-size="10.00">UBPlatformUtils::application</text>
<text text-anchor="middle" x="1180" y="-258" font-family="Helvetica,sans-Serif" font-size="10.00">ResourcesDirectory</text>
</a>
</g>
<!-- Node7&#45;&gt;Node8 -->
<g id="edge14" class="edge"><title>Node7&#45;&gt;Node8</title>
<path fill="none" stroke="midnightblue" d="M1054.21,-267C1068.93,-267 1084.57,-267 1099.64,-267"/>
<polygon fill="midnightblue" stroke="midnightblue" points="1099.95,-270.5 1109.95,-267 1099.95,-263.5 1099.95,-270.5"/>
</g>
<!-- Node9&#45;&gt;Node7 -->
<g id="edge18" class="edge"><title>Node9&#45;&gt;Node7</title>
<path fill="none" stroke="midnightblue" d="M842.213,-231.553C868.978,-238.244 903.787,-246.947 932.217,-254.054"/>
<polygon fill="midnightblue" stroke="midnightblue" points="931.433,-257.466 941.983,-256.496 933.131,-250.675 931.433,-257.466"/>
</g>
<!-- Node10 -->
<g id="node20" class="node"><title>Node10</title>
<a xlink:href="../../db/d66/class_u_b_settings.html#aea5fec9db96c03162c2ce1d5d4c41ab0" target="_top" xlink:title="UBSettings::replaceWildcard">
<polygon fill="white" stroke="black" points="912.5,-164.5 912.5,-185.5 1055.5,-185.5 1055.5,-164.5 912.5,-164.5"/>
<text text-anchor="middle" x="984" y="-172.5" font-family="Helvetica,sans-Serif" font-size="10.00">UBSettings::replaceWildcard</text>
</a>
</g>
<!-- Node9&#45;&gt;Node10 -->
<g id="edge20" class="edge"><title>Node9&#45;&gt;Node10</title>
<path fill="none" stroke="midnightblue" d="M842.213,-210.447C868.978,-203.756 903.787,-195.053 932.217,-187.946"/>
<polygon fill="midnightblue" stroke="midnightblue" points="933.131,-191.325 941.983,-185.504 931.433,-184.534 933.131,-191.325"/>
</g>
<!-- Node12 -->
<g id="node24" class="node"><title>Node12</title>
<a xlink:href="../../db/d66/class_u_b_settings.html#ac0b3c85870c353e48b7d2cfdff9e0eaa" target="_top" xlink:title="UBSettings::checkDirectory">
<polygon fill="white" stroke="black" points="914.5,-124.5 914.5,-145.5 1053.5,-145.5 1053.5,-124.5 914.5,-124.5"/>
<text text-anchor="middle" x="984" y="-132.5" font-family="Helvetica,sans-Serif" font-size="10.00">UBSettings::checkDirectory</text>
</a>
</g>
<!-- Node9&#45;&gt;Node12 -->
<g id="edge24" class="edge"><title>Node9&#45;&gt;Node12</title>
<path fill="none" stroke="midnightblue" d="M814.91,-210.486C835.767,-196.191 875.232,-170.62 912,-155 917.431,-152.693 923.205,-150.574 929.029,-148.65"/>
<polygon fill="midnightblue" stroke="midnightblue" points="930.32,-151.913 938.825,-145.596 928.236,-145.231 930.32,-151.913"/>
</g>
<!-- Node13 -->
<g id="node26" class="node"><title>Node13</title>
<a xlink:href="../../d2/d7a/class_u_b_file_system_utils.html#af850f64fdd630fc78510c856f00ffa4f" target="_top" xlink:title="UBFileSystemUtils:\l:normalizeFilePath">
<polygon fill="white" stroke="black" points="932,-204 932,-238 1036,-238 1036,-204 932,-204"/>
<text text-anchor="start" x="940" y="-225" font-family="Helvetica,sans-Serif" font-size="10.00">UBFileSystemUtils:</text>
<text text-anchor="middle" x="984" y="-212" font-family="Helvetica,sans-Serif" font-size="10.00">:normalizeFilePath</text>
</a>
</g>
<!-- Node9&#45;&gt;Node13 -->
<g id="edge26" class="edge"><title>Node9&#45;&gt;Node13</title>
<path fill="none" stroke="midnightblue" d="M876.168,-221C891.284,-221 906.987,-221 921.58,-221"/>
<polygon fill="midnightblue" stroke="midnightblue" points="921.985,-224.5 931.985,-221 921.985,-217.5 921.985,-224.5"/>
</g>
<!-- Node11 -->
<g id="node22" class="node"><title>Node11</title>
<a xlink:href="../../d4/d99/class_u_b_platform_utils.html#a4ff6063df12b6d4d0c60c1a17b434599" target="_top" xlink:title="UBPlatformUtils::osUserLoginName">
<polygon fill="white" stroke="black" points="1092.5,-164.5 1092.5,-185.5 1267.5,-185.5 1267.5,-164.5 1092.5,-164.5"/>
<text text-anchor="middle" x="1180" y="-172.5" font-family="Helvetica,sans-Serif" font-size="10.00">UBPlatformUtils::osUserLoginName</text>
</a>
</g>
<!-- Node10&#45;&gt;Node11 -->
<g id="edge22" class="edge"><title>Node10&#45;&gt;Node11</title>
<path fill="none" stroke="midnightblue" d="M1055.59,-175C1064.25,-175 1073.21,-175 1082.17,-175"/>
<polygon fill="midnightblue" stroke="midnightblue" points="1082.26,-178.5 1092.26,-175 1082.26,-171.5 1082.26,-178.5"/>
</g>
<!-- Node18&#45;&gt;Node4 -->
<g id="edge38" class="edge"><title>Node18&#45;&gt;Node4</title>
<path fill="none" stroke="midnightblue" d="M316.633,-349.947C323.255,-347.196 329.869,-344.193 336,-341 370.173,-323.2 406.356,-297.019 428.565,-279.988"/>
<polygon fill="midnightblue" stroke="midnightblue" points="430.877,-282.625 436.634,-273.73 426.587,-277.093 430.877,-282.625"/>
</g>
<!-- Node19&#45;&gt;Node4 -->
<g id="edge42" class="edge"><title>Node19&#45;&gt;Node4</title>
<path fill="none" stroke="midnightblue" d="M320.344,-124.016C325.829,-126.661 331.159,-129.648 336,-133 380.568,-163.859 418.985,-215.871 437.752,-243.836"/>
<polygon fill="midnightblue" stroke="midnightblue" points="434.923,-245.904 443.344,-252.333 440.771,-242.056 434.923,-245.904"/>
</g>
<!-- Node19&#45;&gt;Node15 -->
<g id="edge44" class="edge"><title>Node19&#45;&gt;Node15</title>
<path fill="none" stroke="midnightblue" d="M331.005,-91.2612C347.137,-87.2943 364.526,-83.0183 380.896,-78.9928"/>
<polygon fill="midnightblue" stroke="midnightblue" points="382.062,-82.3105 390.937,-76.5238 380.39,-75.513 382.062,-82.3105"/>
</g>
<!-- Node20 -->
<g id="node43" class="node"><title>Node20</title>
<a xlink:href="../../de/db4/class_u_b_document_proxy.html#a464a6a010deaeab87070628041bb7c0e" target="_top" xlink:title="UBDocumentProxy::pageCount">
<polygon fill="white" stroke="black" points="372.5,-97.5 372.5,-118.5 527.5,-118.5 527.5,-97.5 372.5,-97.5"/>
<text text-anchor="middle" x="450" y="-105.5" font-family="Helvetica,sans-Serif" font-size="10.00">UBDocumentProxy::pageCount</text>
</a>
</g>
<!-- Node19&#45;&gt;Node20 -->
<g id="edge46" class="edge"><title>Node19&#45;&gt;Node20</title>
<path fill="none" stroke="midnightblue" d="M331.005,-107.35C341.159,-107.405 351.811,-107.463 362.393,-107.521"/>
<polygon fill="midnightblue" stroke="midnightblue" points="362.48,-111.022 372.499,-107.576 362.519,-104.022 362.48,-111.022"/>
</g>
</g>
</svg>
        <g id="navigator" transform="translate(0 0)" fill="#404254">
                <rect fill="#f2f5e9" fill-opacity="0.5" stroke="#606060" stroke-width=".5" x="0" y="0" width="60" height="60"/>
                <use id="zoomplus" xlink:href="#zoomPlus" x="17" y="9" onmousedown="handleZoom(evt,'in')"/>
                <use id="zoomminus" xlink:href="#zoomMin" x="42" y="9" onmousedown="handleZoom(evt,'out')"/>
                <use id="reset" xlink:href="#resetDef" x="30" y="36" onmousedown="handleReset()"/>
                <g id="arrowUp" xlink:href="#dirArrow" transform="translate(30 24)" onmousedown="handlePan(0,-1)">
                  <use xlink:href="#rim" fill="#404040">
                        <set attributeName="fill" to="#808080" begin="arrowUp.mouseover" end="arrowUp.mouseout"/>
                  </use>
                  <path fill="none" stroke="white" stroke-width="1.5" d="M0,-3.0v7 M-2.5,-0.5L0,-3.0L2.5,-0.5"/>
                </g>
                <g id="arrowRight" xlink:href="#dirArrow" transform="rotate(90) translate(36 -43)" onmousedown="handlePan(1,0)">
                  <use xlink:href="#rim" fill="#404040">
                        <set attributeName="fill" to="#808080" begin="arrowRight.mouseover" end="arrowRight.mouseout"/>
                  </use>
                  <path fill="none" stroke="white" stroke-width="1.5" d="M0,-3.0v7 M-2.5,-0.5L0,-3.0L2.5,-0.5"/>
                </g>
                <g id="arrowDown" xlink:href="#dirArrow" transform="rotate(180) translate(-30 -48)" onmousedown="handlePan(0,1)">
                  <use xlink:href="#rim" fill="#404040">
                        <set attributeName="fill" to="#808080" begin="arrowDown.mouseover" end="arrowDown.mouseout"/>
                  </use>
                  <path fill="none" stroke="white" stroke-width="1.5" d="M0,-3.0v7 M-2.5,-0.5L0,-3.0L2.5,-0.5"/>
                </g>
                <g id="arrowLeft" xlink:href="#dirArrow" transform="rotate(270) translate(-36 17)" onmousedown="handlePan(-1,0)">
                  <use xlink:href="#rim" fill="#404040">
                        <set attributeName="fill" to="#808080" begin="arrowLeft.mouseover" end="arrowLeft.mouseout"/>
                  </use>
                  <path fill="none" stroke="white" stroke-width="1.5" d="M0,-3.0v7 M-2.5,-0.5L0,-3.0L2.5,-0.5"/>
                </g>
        </g>
        <svg viewBox="0 0 15 15" width="100%" height="30px" preserveAspectRatio="xMaxYMin meet">
         <g id="arrow_out" transform="scale(0.3 0.3)">
          <a xlink:href="class_u_b_scene_thumbnail_navig_pixmap_a2e00995be889b4ae68554b0d47b397f3_cgraph_org.svg" target="_base">
           <rect id="button" ry="5" rx="5" y="6" x="6" height="38" width="38"
                fill="#f2f5e9" fill-opacity="0.5" stroke="#606060" stroke-width="1.0"/>
           <path id="arrow"
             d="M 11.500037,31.436501 C 11.940474,20.09759 22.043105,11.32322 32.158766,21.979434 L 37.068811,17.246167 C 37.068811,17.246167 37.088388,32 37.088388,32 L 22.160133,31.978069 C 22.160133,31.978069 26.997745,27.140456 26.997745,27.140456 C 18.528582,18.264221 13.291696,25.230495 11.500037,31.436501 z"
             style="fill:#404040;"/>
          </a>
         </g>
        </svg>
</svg>
