<?xml version="1.0" encoding="UTF-8" standalone="no"?>
<!DOCTYPE svg PUBLIC "-//W3C//DTD SVG 1.1//EN"
 "http://www.w3.org/Graphics/SVG/1.1/DTD/svg11.dtd">
<!-- Generated by graphviz version 2.26.3 (20100126.1600)
 -->
<!-- Title: UBResources.h Pages: 1 -->
<svg width="2068pt" height="102pt"
 viewBox="0.00 0.00 2068.00 102.00" xmlns="http://www.w3.org/2000/svg" xmlns:xlink="http://www.w3.org/1999/xlink">
<g id="graph1" class="graph" transform="scale(1 1) rotate(0) translate(4 98)">
<title>UBResources.h</title>
<polygon fill="white" stroke="white" points="-4,5 -4,-98 2065,-98 2065,5 -4,5"/>
<!-- Node1 -->
<g id="node1" class="node"><title>Node1</title>
<polygon fill="#bfbfbf" stroke="black" points="998,-72.5 998,-93.5 1084,-93.5 1084,-72.5 998,-72.5"/>
<text text-anchor="middle" x="1041" y="-80.5" font-family="Helvetica,sans-Serif" font-size="10.00">UBResources.h</text>
</g>
<!-- Node2 -->
<g id="node3" class="node"><title>Node2</title>
<a xlink:href="../../d8/d16/_u_b_board_controller_8cpp.html" target="_top" xlink:title="UBBoardController.cpp">
<polygon fill="white" stroke="black" points="-0.5,-7.5 -0.5,-28.5 116.5,-28.5 116.5,-7.5 -0.5,-7.5"/>
<text text-anchor="middle" x="58" y="-15.5" font-family="Helvetica,sans-Serif" font-size="10.00">UBBoardController.cpp</text>
</a>
</g>
<!-- Node1&#45;&gt;Node2 -->
<g id="edge2" class="edge"><title>Node1&#45;&gt;Node2</title>
<path fill="none" stroke="midnightblue" d="M987.597,-81.7414C817.997,-77.5111 292.921,-62.5587 125,-36 114.055,-34.269 102.324,-31.4574 91.7849,-28.5655"/>
<polygon fill="midnightblue" stroke="midnightblue" points="987.692,-85.2447 997.775,-81.993 987.865,-78.2469 987.692,-85.2447"/>
</g>
<!-- Node3 -->
<g id="node5" class="node"><title>Node3</title>
<a xlink:href="../../d4/dc1/_u_b_board_view_8cpp.html" target="_top" xlink:title="UBBoardView.cpp">
<polygon fill="white" stroke="black" points="133.5,-7.5 133.5,-28.5 230.5,-28.5 230.5,-7.5 133.5,-7.5"/>
<text text-anchor="middle" x="182" y="-15.5" font-family="Helvetica,sans-Serif" font-size="10.00">UBBoardView.cpp</text>
</a>
</g>
<!-- Node1&#45;&gt;Node3 -->
<g id="edge4" class="edge"><title>Node1&#45;&gt;Node3</title>
<path fill="none" stroke="midnightblue" d="M987.766,-81.5968C832.727,-77.2383 383.393,-62.6046 239,-36 229.611,-34.27 219.608,-31.4587 210.646,-28.5668"/>
<polygon fill="midnightblue" stroke="midnightblue" points="987.886,-85.1014 997.979,-81.881 988.081,-78.1041 987.886,-85.1014"/>
</g>
<!-- Node4 -->
<g id="node7" class="node"><title>Node4</title>
<a xlink:href="../../d7/da5/_u_b_application_8cpp.html" target="_top" xlink:title="UBApplication.cpp">
<polygon fill="white" stroke="black" points="248,-7.5 248,-28.5 346,-28.5 346,-7.5 248,-7.5"/>
<text text-anchor="middle" x="297" y="-15.5" font-family="Helvetica,sans-Serif" font-size="10.00">UBApplication.cpp</text>
</a>
</g>
<!-- Node1&#45;&gt;Node4 -->
<g id="edge6" class="edge"><title>Node1&#45;&gt;Node4</title>
<path fill="none" stroke="midnightblue" d="M987.727,-80.9529C848.504,-75.3466 476.208,-58.6405 355,-36 345.465,-34.219 335.293,-31.3934 326.172,-28.504"/>
<polygon fill="midnightblue" stroke="midnightblue" points="987.602,-84.4506 997.733,-81.3528 987.881,-77.4562 987.602,-84.4506"/>
</g>
<!-- Node5 -->
<g id="node9" class="node"><title>Node5</title>
<a xlink:href="../../d1/dfb/_u_b_desktop_annotation_controller_8cpp.html" target="_top" xlink:title="UBDesktopAnnotationController.cpp">
<polygon fill="white" stroke="black" points="363.5,-7.5 363.5,-28.5 538.5,-28.5 538.5,-7.5 363.5,-7.5"/>
<text text-anchor="middle" x="451" y="-15.5" font-family="Helvetica,sans-Serif" font-size="10.00">UBDesktopAnnotationController.cpp</text>
</a>
</g>
<!-- Node1&#45;&gt;Node5 -->
<g id="edge8" class="edge"><title>Node1&#45;&gt;Node5</title>
<path fill="none" stroke="midnightblue" d="M987.86,-79.5288C897.158,-73.2502 706.765,-58.531 547,-36 532.56,-33.9636 516.988,-31.264 502.674,-28.5766"/>
<polygon fill="midnightblue" stroke="midnightblue" points="987.679,-83.0245 997.896,-80.2171 988.159,-76.041 987.679,-83.0245"/>
</g>
<!-- Node6 -->
<g id="node11" class="node"><title>Node6</title>
<a xlink:href="../../d0/d9f/_u_b_graphics_delegate_frame_8cpp.html" target="_top" xlink:title="UBGraphicsDelegateFrame.cpp">
<polygon fill="white" stroke="black" points="555.5,-7.5 555.5,-28.5 710.5,-28.5 710.5,-7.5 555.5,-7.5"/>
<text text-anchor="middle" x="633" y="-15.5" font-family="Helvetica,sans-Serif" font-size="10.00">UBGraphicsDelegateFrame.cpp</text>
</a>
</g>
<!-- Node1&#45;&gt;Node6 -->
<g id="edge10" class="edge"><title>Node1&#45;&gt;Node6</title>
<path fill="none" stroke="midnightblue" d="M987.65,-76.2331C923.648,-67.8799 813.188,-52.7146 719,-36 706.534,-33.7878 693.111,-31.1179 680.662,-28.5197"/>
<polygon fill="midnightblue" stroke="midnightblue" points="987.528,-79.7466 997.896,-77.5639 988.43,-72.8049 987.528,-79.7466"/>
</g>
<!-- Node7 -->
<g id="node13" class="node"><title>Node7</title>
<a xlink:href="../../df/df9/_u_b_graphics_group_container_item_delegate_8cpp.html" target="_top" xlink:title="UBGraphicsGroupContainer\lItemDelegate.cpp">
<polygon fill="white" stroke="black" points="728,-1 728,-35 866,-35 866,-1 728,-1"/>
<text text-anchor="start" x="736" y="-22" font-family="Helvetica,sans-Serif" font-size="10.00">UBGraphicsGroupContainer</text>
<text text-anchor="middle" x="797" y="-9" font-family="Helvetica,sans-Serif" font-size="10.00">ItemDelegate.cpp</text>
</a>
</g>
<!-- Node1&#45;&gt;Node7 -->
<g id="edge12" class="edge"><title>Node1&#45;&gt;Node7</title>
<path fill="none" stroke="midnightblue" d="M991.813,-69.897C954.215,-59.8812 902.068,-45.9893 861.186,-35.0987"/>
<polygon fill="midnightblue" stroke="midnightblue" points="990.962,-73.2922 1001.53,-72.4844 992.764,-66.5281 990.962,-73.2922"/>
</g>
<!-- Node8 -->
<g id="node15" class="node"><title>Node8</title>
<a xlink:href="../../d5/d90/_u_b_graphics_text_item_delegate_8cpp.html" target="_top" xlink:title="UBGraphicsTextItemDelegate.cpp">
<polygon fill="white" stroke="black" points="883.5,-7.5 883.5,-28.5 1050.5,-28.5 1050.5,-7.5 883.5,-7.5"/>
<text text-anchor="middle" x="967" y="-15.5" font-family="Helvetica,sans-Serif" font-size="10.00">UBGraphicsTextItemDelegate.cpp</text>
</a>
</g>
<!-- Node1&#45;&gt;Node8 -->
<g id="edge14" class="edge"><title>Node1&#45;&gt;Node8</title>
<path fill="none" stroke="midnightblue" d="M1021,-65.4338C1007.58,-53.6419 990.337,-38.4983 978.992,-28.5337"/>
<polygon fill="midnightblue" stroke="midnightblue" points="1018.96,-68.2967 1028.78,-72.2666 1023.58,-63.0375 1018.96,-68.2967"/>
</g>
<!-- Node9 -->
<g id="node17" class="node"><title>Node9</title>
<a xlink:href="../../d0/d51/_u_b_resources_8cpp.html" target="_top" xlink:title="UBResources.cpp">
<polygon fill="white" stroke="black" points="1067.5,-7.5 1067.5,-28.5 1164.5,-28.5 1164.5,-7.5 1067.5,-7.5"/>
<text text-anchor="middle" x="1116" y="-15.5" font-family="Helvetica,sans-Serif" font-size="10.00">UBResources.cpp</text>
</a>
</g>
<!-- Node1&#45;&gt;Node9 -->
<g id="edge16" class="edge"><title>Node1&#45;&gt;Node9</title>
<path fill="none" stroke="midnightblue" d="M1061.27,-65.4338C1074.87,-53.6419 1092.35,-38.4983 1103.85,-28.5337"/>
<polygon fill="midnightblue" stroke="midnightblue" points="1058.65,-63.0723 1053.38,-72.2666 1063.23,-68.3622 1058.65,-63.0723"/>
</g>
<!-- Node10 -->
<g id="node19" class="node"><title>Node10</title>
<a xlink:href="../../df/d81/_u_b_web_tools_palette_8cpp.html" target="_top" xlink:title="UBWebToolsPalette.cpp">
<polygon fill="white" stroke="black" points="1181.5,-7.5 1181.5,-28.5 1306.5,-28.5 1306.5,-7.5 1181.5,-7.5"/>
<text text-anchor="middle" x="1244" y="-15.5" font-family="Helvetica,sans-Serif" font-size="10.00">UBWebToolsPalette.cpp</text>
</a>
</g>
<!-- Node1&#45;&gt;Node10 -->
<g id="edge18" class="edge"><title>Node1&#45;&gt;Node10</title>
<path fill="none" stroke="midnightblue" d="M1083.81,-69.293C1121.73,-57.1509 1176.3,-39.6774 1210.95,-28.5835"/>
<polygon fill="midnightblue" stroke="midnightblue" points="1082.52,-66.0291 1074.07,-72.412 1084.66,-72.6957 1082.52,-66.0291"/>
</g>
<!-- Node11 -->
<g id="node21" class="node"><title>Node11</title>
<a xlink:href="../../de/db4/_u_b_podcast_recording_palette_8cpp.html" target="_top" xlink:title="UBPodcastRecordingPalette.cpp">
<polygon fill="white" stroke="black" points="1323.5,-7.5 1323.5,-28.5 1484.5,-28.5 1484.5,-7.5 1323.5,-7.5"/>
<text text-anchor="middle" x="1404" y="-15.5" font-family="Helvetica,sans-Serif" font-size="10.00">UBPodcastRecordingPalette.cpp</text>
</a>
</g>
<!-- Node1&#45;&gt;Node11 -->
<g id="edge20" class="edge"><title>Node1&#45;&gt;Node11</title>
<path fill="none" stroke="midnightblue" d="M1094.17,-74.3592C1149.44,-65.2657 1238.4,-50.312 1315,-36 1327.4,-33.6837 1340.74,-31.0572 1353.22,-28.5407"/>
<polygon fill="midnightblue" stroke="midnightblue" points="1093.56,-70.9133 1084.26,-75.9874 1094.69,-77.8208 1093.56,-70.9133"/>
</g>
<!-- Node12 -->
<g id="node23" class="node"><title>Node12</title>
<a xlink:href="../../d7/df9/_u_b_abstract_draw_ruler_8cpp.html" target="_top" xlink:title="UBAbstractDrawRuler.cpp">
<polygon fill="white" stroke="black" points="1501.5,-7.5 1501.5,-28.5 1634.5,-28.5 1634.5,-7.5 1501.5,-7.5"/>
<text text-anchor="middle" x="1568" y="-15.5" font-family="Helvetica,sans-Serif" font-size="10.00">UBAbstractDrawRuler.cpp</text>
</a>
</g>
<!-- Node1&#45;&gt;Node12 -->
<g id="edge22" class="edge"><title>Node1&#45;&gt;Node12</title>
<path fill="none" stroke="midnightblue" d="M1094.43,-79.7362C1179.32,-74.0364 1350.05,-60.477 1493,-36 1504.61,-34.0113 1517.11,-31.2629 1528.5,-28.5121"/>
<polygon fill="midnightblue" stroke="midnightblue" points="1094.01,-76.2562 1084.26,-80.4086 1094.47,-83.2409 1094.01,-76.2562"/>
</g>
<!-- Node13 -->
<g id="node25" class="node"><title>Node13</title>
<a xlink:href="../../de/dc5/_u_b_graphics_compass_8cpp.html" target="_top" xlink:title="UBGraphicsCompass.cpp">
<polygon fill="white" stroke="black" points="1651.5,-7.5 1651.5,-28.5 1782.5,-28.5 1782.5,-7.5 1651.5,-7.5"/>
<text text-anchor="middle" x="1717" y="-15.5" font-family="Helvetica,sans-Serif" font-size="10.00">UBGraphicsCompass.cpp</text>
</a>
</g>
<!-- Node1&#45;&gt;Node13 -->
<g id="edge24" class="edge"><title>Node1&#45;&gt;Node13</title>
<path fill="none" stroke="midnightblue" d="M1094.42,-81.7069C1199.91,-78.5206 1442.13,-68.0586 1643,-36 1654.75,-34.1246 1667.39,-31.3431 1678.83,-28.5244"/>
<polygon fill="midnightblue" stroke="midnightblue" points="1094.24,-78.2107 1084.35,-82.0016 1094.45,-85.2077 1094.24,-78.2107"/>
</g>
<!-- Node14 -->
<g id="node27" class="node"><title>Node14</title>
<a xlink:href="../../d0/dfe/_u_b_graphics_protractor_8cpp.html" target="_top" xlink:title="UBGraphicsProtractor.cpp">
<polygon fill="white" stroke="black" points="1799.5,-7.5 1799.5,-28.5 1930.5,-28.5 1930.5,-7.5 1799.5,-7.5"/>
<text text-anchor="middle" x="1865" y="-15.5" font-family="Helvetica,sans-Serif" font-size="10.00">UBGraphicsProtractor.cpp</text>
</a>
</g>
<!-- Node1&#45;&gt;Node14 -->
<g id="edge26" class="edge"><title>Node1&#45;&gt;Node14</title>
<path fill="none" stroke="midnightblue" d="M1094.48,-80.8747C1242.65,-74.7912 1656.38,-56.4287 1791,-36 1802.9,-34.1949 1815.68,-31.3986 1827.23,-28.544"/>
<polygon fill="midnightblue" stroke="midnightblue" points="1094.13,-77.3861 1084.28,-81.2914 1094.41,-84.3803 1094.13,-77.3861"/>
</g>
<!-- Node15 -->
<g id="node29" class="node"><title>Node15</title>
<a xlink:href="../../db/dcd/_u_b_graphics_ruler_8cpp.html" target="_top" xlink:title="UBGraphicsRuler.cpp">
<polygon fill="white" stroke="black" points="1948,-7.5 1948,-28.5 2060,-28.5 2060,-7.5 1948,-7.5"/>
<text text-anchor="middle" x="2004" y="-15.5" font-family="Helvetica,sans-Serif" font-size="10.00">UBGraphicsRuler.cpp</text>
</a>
</g>
<!-- Node1&#45;&gt;Node15 -->
<g id="edge28" class="edge"><title>Node1&#45;&gt;Node15</title>
<path fill="none" stroke="midnightblue" d="M1094.22,-81.736C1261.43,-77.5255 1774.77,-62.7097 1939,-36 1949.63,-34.2707 1961.02,-31.4597 1971.24,-28.5677"/>
<polygon fill="midnightblue" stroke="midnightblue" points="1094.09,-78.2381 1084.18,-81.9865 1094.27,-85.2359 1094.09,-78.2381"/>
</g>
</g>
</svg>
