<?xml version="1.0" encoding="UTF-8" standalone="no"?>
<!DOCTYPE svg PUBLIC "-//W3C//DTD SVG 1.1//EN"
 "http://www.w3.org/Graphics/SVG/1.1/DTD/svg11.dtd">
<!-- Generated by graphviz version 2.26.3 (20100126.1600)
 -->
<!-- Title: merge_lib::Parser::getNextWord Pages: 1 -->
<svg width="254pt" height="94pt"
 viewBox="0.00 0.00 254.00 94.00" xmlns="http://www.w3.org/2000/svg" xmlns:xlink="http://www.w3.org/1999/xlink">
<g id="graph1" class="graph" transform="scale(1 1) rotate(0) translate(4 90)">
<title>merge_lib::Parser::getNextWord</title>
<polygon fill="white" stroke="white" points="-4,5 -4,-90 251,-90 251,5 -4,5"/>
<!-- Node1 -->
<g id="node1" class="node"><title>Node1</title>
<polygon fill="#bfbfbf" stroke="black" points="0,-26 0,-60 96,-60 96,-26 0,-26"/>
<text text-anchor="start" x="8" y="-47" font-family="Helvetica,sans-Serif" font-size="10.00">merge_lib::Parser:</text>
<text text-anchor="middle" x="48" y="-34" font-family="Helvetica,sans-Serif" font-size="10.00">:getNextWord</text>
</g>
<!-- Node2 -->
<g id="node3" class="node"><title>Node2</title>
<a xlink:href="../../d7/df1/classmerge__lib_1_1_object.html#a74d6f1dd66a4371682ecb1415e61e818" target="_top" xlink:title="merge_lib::Object:\l:getNameSimpleValue">
<polygon fill="white" stroke="black" points="132,-52 132,-86 246,-86 246,-52 132,-52"/>
<text text-anchor="start" x="140" y="-73" font-family="Helvetica,sans-Serif" font-size="10.00">merge_lib::Object:</text>
<text text-anchor="middle" x="189" y="-60" font-family="Helvetica,sans-Serif" font-size="10.00">:getNameSimpleValue</text>
</a>
</g>
<!-- Node1&#45;&gt;Node2 -->
<g id="edge2" class="edge"><title>Node1&#45;&gt;Node2</title>
<path fill="none" stroke="midnightblue" d="M106.001,-53.6953C114.536,-55.2691 123.323,-56.8894 131.84,-58.4599"/>
<polygon fill="midnightblue" stroke="midnightblue" points="106.599,-50.2465 96.1298,-51.875 105.329,-57.1305 106.599,-50.2465"/>
</g>
<!-- Node3 -->
<g id="node5" class="node"><title>Node3</title>
<a xlink:href="../../d4/de3/classmerge__lib_1_1_parser.html#a1189d2610c4c3ed58056ce9a0bc504b8" target="_top" xlink:title="merge_lib::Parser:\l:_getObjectContent">
<polygon fill="white" stroke="black" points="138.5,-0 138.5,-34 239.5,-34 239.5,-0 138.5,-0"/>
<text text-anchor="start" x="146.5" y="-21" font-family="Helvetica,sans-Serif" font-size="10.00">merge_lib::Parser:</text>
<text text-anchor="middle" x="189" y="-8" font-family="Helvetica,sans-Serif" font-size="10.00">:_getObjectContent</text>
</a>
</g>
<!-- Node1&#45;&gt;Node3 -->
<g id="edge4" class="edge"><title>Node1&#45;&gt;Node3</title>
<path fill="none" stroke="midnightblue" d="M106.168,-32.274C116.795,-30.3144 127.808,-28.2836 138.2,-26.3674"/>
<polygon fill="midnightblue" stroke="midnightblue" points="105.329,-28.8695 96.1298,-34.125 106.599,-35.7535 105.329,-28.8695"/>
</g>
</g>
</svg>
