<?xml version="1.0" encoding="UTF-8" standalone="no"?>
<!DOCTYPE svg PUBLIC "-//W3C//DTD SVG 1.1//EN"
 "http://www.w3.org/Graphics/SVG/1.1/DTD/svg11.dtd">
<!-- Generated by graphviz version 2.26.3 (20100126.1600)
 -->
<!-- Title: UBApplicationController::adjustDisplayView Pages: 1 -->
<!--zoomable 446 -->
<svg id="main" version="1.1" xmlns="http://www.w3.org/2000/svg" xmlns:xlink="http://www.w3.org/1999/xlink" xml:space="preserve" onload="init(evt)">
        <defs>
                <circle id="rim" cx="0" cy="0" r="7"/>
                <circle id="rim2" cx="0" cy="0" r="3.5"/>
                <g id="zoomPlus">
                        <use xlink:href="#rim" fill="#404040">
                                <set attributeName="fill" to="#808080" begin="zoomplus.mouseover" end="zoomplus.mouseout"/>
                        </use>
                        <path d="M-4,0h8M0,-4v8" fill="none" stroke="white" stroke-width="1.5" pointer-events="none"/>
                </g>
                <g id="zoomMin">
                        <use xlink:href="#rim" fill="#404040">
                                <set attributeName="fill" to="#808080" begin="zoomminus.mouseover" end="zoomminus.mouseout"/>
                        </use>
                        <path d="M-4,0h8" fill="none" stroke="white" stroke-width="1.5" pointer-events="none"/>
                </g>
                <g id="dirArrow">
                        <path fill="none" stroke="white" stroke-width="1.5" d="M0,-3.0v7 M-2.5,-0.5L0,-3.0L2.5,-0.5"/>
                </g>
               <g id="resetDef">
                       <use xlink:href="#rim2" fill="#404040">
                               <set attributeName="fill" to="#808080" begin="reset.mouseover" end="reset.mouseout"/>
                       </use>
               </g>
        </defs>

<script type="text/javascript">
var viewWidth = 1438;
var viewHeight = 446;
var sectionId = 'dynsection-11';
</script>
<script xlink:href="../../svgpan.js"/>
<svg id="graph" class="graph">
<g id="viewport">
<title>UBApplicationController::adjustDisplayView</title>
<polygon fill="white" stroke="white" points="-4,5 -4,-442 1435,-442 1435,5 -4,5"/>
<!-- Node1 -->
<g id="node1" class="node"><title>Node1</title>
<polygon fill="#bfbfbf" stroke="black" points="0.5,-118 0.5,-152 121.5,-152 121.5,-118 0.5,-118"/>
<text text-anchor="start" x="8.5" y="-139" font-family="Helvetica,sans-Serif" font-size="10.00">UBApplicationController</text>
<text text-anchor="middle" x="61" y="-126" font-family="Helvetica,sans-Serif" font-size="10.00">::adjustDisplayView</text>
</g>
<!-- Node2 -->
<g id="node3" class="node"><title>Node2</title>
<a xlink:href="../../d7/d62/class_u_b_board_controller.html#adbaa867e0f26de80826355c25fe41d82" target="_top" xlink:title="UBBoardController:\l:centerOn">
<polygon fill="white" stroke="black" points="168.5,-305 168.5,-339 269.5,-339 269.5,-305 168.5,-305"/>
<text text-anchor="start" x="176.5" y="-326" font-family="Helvetica,sans-Serif" font-size="10.00">UBBoardController:</text>
<text text-anchor="middle" x="219" y="-313" font-family="Helvetica,sans-Serif" font-size="10.00">:centerOn</text>
</a>
</g>
<!-- Node1&#45;&gt;Node2 -->
<g id="edge2" class="edge"><title>Node1&#45;&gt;Node2</title>
<path fill="none" stroke="midnightblue" d="M82.0656,-159.932C114.635,-198.479 176.382,-271.559 204.454,-304.784"/>
<polygon fill="midnightblue" stroke="midnightblue" points="84.7085,-157.637 75.5811,-152.257 79.3615,-162.155 84.7085,-157.637"/>
</g>
<!-- Node16 -->
<g id="node35" class="node"><title>Node16</title>
<a xlink:href="../../d7/d62/class_u_b_board_controller.html#ade5522bea3f3045a0da1dda6853b3cce" target="_top" xlink:title="UBBoardController::zoom">
<polygon fill="white" stroke="black" points="334,-147.5 334,-168.5 462,-168.5 462,-147.5 334,-147.5"/>
<text text-anchor="middle" x="398" y="-155.5" font-family="Helvetica,sans-Serif" font-size="10.00">UBBoardController::zoom</text>
</a>
</g>
<!-- Node1&#45;&gt;Node16 -->
<g id="edge38" class="edge"><title>Node1&#45;&gt;Node16</title>
<path fill="none" stroke="midnightblue" d="M131.734,-139.828C191.409,-143.9 276.098,-149.68 333.835,-153.621"/>
<polygon fill="midnightblue" stroke="midnightblue" points="131.853,-136.328 121.638,-139.139 131.377,-143.311 131.853,-136.328"/>
</g>
<!-- Node24 -->
<g id="node55" class="node"><title>Node24</title>
<a xlink:href="../../d7/d62/class_u_b_board_controller.html#a313ec9c04c62913c305ac521ae649467" target="_top" xlink:title="UBBoardController:\l:handScroll">
<polygon fill="white" stroke="black" points="168.5,-95 168.5,-129 269.5,-129 269.5,-95 168.5,-95"/>
<text text-anchor="start" x="176.5" y="-116" font-family="Helvetica,sans-Serif" font-size="10.00">UBBoardController:</text>
<text text-anchor="middle" x="219" y="-103" font-family="Helvetica,sans-Serif" font-size="10.00">:handScroll</text>
</a>
</g>
<!-- Node1&#45;&gt;Node24 -->
<g id="edge62" class="edge"><title>Node1&#45;&gt;Node24</title>
<path fill="none" stroke="midnightblue" d="M131.859,-124.685C144.135,-122.898 156.677,-121.072 168.281,-119.383"/>
<polygon fill="midnightblue" stroke="midnightblue" points="131.027,-121.269 121.635,-126.173 132.035,-128.196 131.027,-121.269"/>
</g>
<!-- Node28 -->
<g id="node65" class="node"><title>Node28</title>
<a xlink:href="../../da/d14/class_u_b_application_controller.html#a72e23efbc98ad6be861a48630cafdccb" target="_top" xlink:title="UBApplicationController\l::screenLayoutChanged">
<polygon fill="white" stroke="black" points="158.5,-23 158.5,-57 279.5,-57 279.5,-23 158.5,-23"/>
<text text-anchor="start" x="166.5" y="-44" font-family="Helvetica,sans-Serif" font-size="10.00">UBApplicationController</text>
<text text-anchor="middle" x="219" y="-31" font-family="Helvetica,sans-Serif" font-size="10.00">::screenLayoutChanged</text>
</a>
</g>
<!-- Node1&#45;&gt;Node28 -->
<g id="edge74" class="edge"><title>Node1&#45;&gt;Node28</title>
<path fill="none" stroke="midnightblue" d="M98.4071,-112.508C126.656,-95.5235 164.83,-72.5707 190.6,-57.0758"/>
<polygon fill="midnightblue" stroke="midnightblue" points="96.3792,-109.644 89.6126,-117.796 99.9863,-115.643 96.3792,-109.644"/>
</g>
<!-- Node3 -->
<g id="node5" class="node"><title>Node3</title>
<a xlink:href="../../d5/d2b/class_u_b_widget_uniboard_a_p_i.html#a7e1a78f50c82b289fcec72f357394a05" target="_top" xlink:title="UBWidgetUniboardAPI\l::centerOn">
<polygon fill="white" stroke="black" points="339.5,-357 339.5,-391 456.5,-391 456.5,-357 339.5,-357"/>
<text text-anchor="start" x="347.5" y="-378" font-family="Helvetica,sans-Serif" font-size="10.00">UBWidgetUniboardAPI</text>
<text text-anchor="middle" x="398" y="-365" font-family="Helvetica,sans-Serif" font-size="10.00">::centerOn</text>
</a>
</g>
<!-- Node2&#45;&gt;Node3 -->
<g id="edge4" class="edge"><title>Node2&#45;&gt;Node3</title>
<path fill="none" stroke="midnightblue" d="M279.442,-339.559C298.82,-345.188 320.236,-351.409 339.474,-356.998"/>
<polygon fill="midnightblue" stroke="midnightblue" points="280.395,-336.191 269.815,-336.762 278.442,-342.913 280.395,-336.191"/>
</g>
<!-- Node4 -->
<g id="node7" class="node"><title>Node4</title>
<a xlink:href="../../d7/d62/class_u_b_board_controller.html#a05fa2d82c7201cf4d833b4a6366db700" target="_top" xlink:title="UBBoardController:\l:centerRestore">
<polygon fill="white" stroke="black" points="347.5,-305 347.5,-339 448.5,-339 448.5,-305 347.5,-305"/>
<text text-anchor="start" x="355.5" y="-326" font-family="Helvetica,sans-Serif" font-size="10.00">UBBoardController:</text>
<text text-anchor="middle" x="398" y="-313" font-family="Helvetica,sans-Serif" font-size="10.00">:centerRestore</text>
</a>
</g>
<!-- Node2&#45;&gt;Node4 -->
<g id="edge6" class="edge"><title>Node2&#45;&gt;Node4</title>
<path fill="none" stroke="midnightblue" d="M280.018,-322C301.945,-322 326.419,-322 347.368,-322"/>
<polygon fill="midnightblue" stroke="midnightblue" points="279.815,-318.5 269.815,-322 279.815,-325.5 279.815,-318.5"/>
</g>
<!-- Node5 -->
<g id="node9" class="node"><title>Node5</title>
<a xlink:href="../../d7/d62/class_u_b_board_controller.html#a6bba5ca7dd09235d5b31b19ad6e71cec" target="_top" xlink:title="UBBoardController:\l:stylusToolDoubleClicked">
<polygon fill="white" stroke="black" points="756,-328 756,-362 884,-362 884,-328 756,-328"/>
<text text-anchor="start" x="764" y="-349" font-family="Helvetica,sans-Serif" font-size="10.00">UBBoardController:</text>
<text text-anchor="middle" x="820" y="-336" font-family="Helvetica,sans-Serif" font-size="10.00">:stylusToolDoubleClicked</text>
</a>
</g>
<!-- Node4&#45;&gt;Node5 -->
<g id="edge8" class="edge"><title>Node4&#45;&gt;Node5</title>
<path fill="none" stroke="midnightblue" d="M459.193,-325.335C538.268,-329.645 675.315,-337.114 755.819,-341.502"/>
<polygon fill="midnightblue" stroke="midnightblue" points="459.079,-321.824 448.903,-324.774 458.698,-328.813 459.079,-321.824"/>
</g>
<!-- Node6 -->
<g id="node11" class="node"><title>Node6</title>
<a xlink:href="../../d7/d62/class_u_b_board_controller.html#a0df0eca517bd4e5754f49ce1395ec1b1" target="_top" xlink:title="UBBoardController:\l:zoomRestore">
<polygon fill="white" stroke="black" points="558.5,-283 558.5,-317 659.5,-317 659.5,-283 558.5,-283"/>
<text text-anchor="start" x="566.5" y="-304" font-family="Helvetica,sans-Serif" font-size="10.00">UBBoardController:</text>
<text text-anchor="middle" x="609" y="-291" font-family="Helvetica,sans-Serif" font-size="10.00">:zoomRestore</text>
</a>
</g>
<!-- Node4&#45;&gt;Node6 -->
<g id="edge10" class="edge"><title>Node4&#45;&gt;Node6</title>
<path fill="none" stroke="midnightblue" d="M458.524,-315.689C490.047,-312.403 528.16,-308.429 558.141,-305.303"/>
<polygon fill="midnightblue" stroke="midnightblue" points="458.123,-312.212 448.54,-316.73 458.849,-319.174 458.123,-312.212"/>
</g>
<!-- Node14 -->
<g id="node29" class="node"><title>Node14</title>
<a xlink:href="../../dc/d38/class_u_b_board_palette_manager.html#aa645559babafcde7a56e954bea0fec5d" target="_top" xlink:title="UBBoardPaletteManager\l::panButtonReleased">
<polygon fill="white" stroke="black" points="757.5,-380 757.5,-414 882.5,-414 882.5,-380 757.5,-380"/>
<text text-anchor="start" x="765.5" y="-401" font-family="Helvetica,sans-Serif" font-size="10.00">UBBoardPaletteManager</text>
<text text-anchor="middle" x="820" y="-388" font-family="Helvetica,sans-Serif" font-size="10.00">::panButtonReleased</text>
</a>
</g>
<!-- Node4&#45;&gt;Node14 -->
<g id="edge30" class="edge"><title>Node4&#45;&gt;Node14</title>
<path fill="none" stroke="midnightblue" d="M458.71,-335.418C477.081,-339.328 497.333,-343.489 516,-347 599.185,-362.644 695.692,-378.053 757.264,-387.54"/>
<polygon fill="midnightblue" stroke="midnightblue" points="459.231,-331.95 448.72,-333.277 457.764,-338.795 459.231,-331.95"/>
</g>
<!-- Node6&#45;&gt;Node5 -->
<g id="edge12" class="edge"><title>Node6&#45;&gt;Node5</title>
<path fill="none" stroke="midnightblue" d="M669.634,-312.931C696.638,-318.691 728.461,-325.477 755.862,-331.321"/>
<polygon fill="midnightblue" stroke="midnightblue" points="670.05,-309.441 659.54,-310.779 668.59,-316.288 670.05,-309.441"/>
</g>
<!-- Node7 -->
<g id="node14" class="node"><title>Node7</title>
<a xlink:href="../../dc/d38/class_u_b_board_palette_manager.html#a6cf926e346fc40b30c864e3680489a76" target="_top" xlink:title="UBBoardPaletteManager\l::zoomButtonReleased">
<polygon fill="white" stroke="black" points="757.5,-276 757.5,-310 882.5,-310 882.5,-276 757.5,-276"/>
<text text-anchor="start" x="765.5" y="-297" font-family="Helvetica,sans-Serif" font-size="10.00">UBBoardPaletteManager</text>
<text text-anchor="middle" x="820" y="-284" font-family="Helvetica,sans-Serif" font-size="10.00">::zoomButtonReleased</text>
</a>
</g>
<!-- Node6&#45;&gt;Node7 -->
<g id="edge14" class="edge"><title>Node6&#45;&gt;Node7</title>
<path fill="none" stroke="midnightblue" d="M669.809,-297.983C697.289,-297.071 729.733,-295.995 757.421,-295.076"/>
<polygon fill="midnightblue" stroke="midnightblue" points="669.418,-294.494 659.54,-298.323 669.65,-301.49 669.418,-294.494"/>
</g>
<!-- Node11 -->
<g id="node23" class="node"><title>Node11</title>
<a xlink:href="../../d1/d78/class_u_b_board_view.html#a9216e870eac1d8f36049186dc8ab1410" target="_top" xlink:title="UBBoardView::keyPressEvent">
<polygon fill="white" stroke="black" points="744.5,-170.5 744.5,-191.5 895.5,-191.5 895.5,-170.5 744.5,-170.5"/>
<text text-anchor="middle" x="820" y="-178.5" font-family="Helvetica,sans-Serif" font-size="10.00">UBBoardView::keyPressEvent</text>
</a>
</g>
<!-- Node6&#45;&gt;Node11 -->
<g id="edge24" class="edge"><title>Node6&#45;&gt;Node11</title>
<path fill="none" stroke="midnightblue" d="M669.133,-285.27C680.578,-281.025 692.07,-275.677 702,-269 722.402,-255.282 718.987,-242.587 738,-227 755.799,-212.408 778.867,-199.936 796,-191.674"/>
<polygon fill="midnightblue" stroke="midnightblue" points="667.87,-282.003 659.565,-288.582 670.16,-288.618 667.87,-282.003"/>
</g>
<!-- Node12 -->
<g id="node25" class="node"><title>Node12</title>
<a xlink:href="../../db/dbc/class_u_b_zoom_palette.html#a437798f0413c23b772d8d2c164d20593" target="_top" xlink:title="UBZoomPalette::goHundred">
<polygon fill="white" stroke="black" points="750,-236.5 750,-257.5 890,-257.5 890,-236.5 750,-236.5"/>
<text text-anchor="middle" x="820" y="-244.5" font-family="Helvetica,sans-Serif" font-size="10.00">UBZoomPalette::goHundred</text>
</a>
</g>
<!-- Node6&#45;&gt;Node12 -->
<g id="edge26" class="edge"><title>Node6&#45;&gt;Node12</title>
<path fill="none" stroke="midnightblue" d="M669.238,-284.441C690.904,-278.885 715.536,-272.613 738,-267 750.368,-263.91 763.8,-260.61 776.145,-257.6"/>
<polygon fill="midnightblue" stroke="midnightblue" points="668.326,-281.062 659.511,-286.939 670.067,-287.842 668.326,-281.062"/>
</g>
<!-- Node8 -->
<g id="node16" class="node"><title>Node8</title>
<a xlink:href="../../dc/d38/class_u_b_board_palette_manager.html#a10b4f132aa36e4f99495aa9442fbac23" target="_top" xlink:title="UBBoardPaletteManager\l::connectPalettes">
<polygon fill="white" stroke="black" points="1136.5,-340 1136.5,-374 1261.5,-374 1261.5,-340 1136.5,-340"/>
<text text-anchor="start" x="1144.5" y="-361" font-family="Helvetica,sans-Serif" font-size="10.00">UBBoardPaletteManager</text>
<text text-anchor="middle" x="1199" y="-348" font-family="Helvetica,sans-Serif" font-size="10.00">::connectPalettes</text>
</a>
</g>
<!-- Node7&#45;&gt;Node8 -->
<g id="edge16" class="edge"><title>Node7&#45;&gt;Node8</title>
<path fill="none" stroke="midnightblue" d="M892.792,-309.903C907.706,-313.122 923.329,-316.319 938,-319 1005.45,-331.325 1083.3,-342.234 1136.3,-349.165"/>
<polygon fill="midnightblue" stroke="midnightblue" points="893.116,-306.391 882.6,-307.676 891.622,-313.23 893.116,-306.391"/>
</g>
<!-- Node10 -->
<g id="node20" class="node"><title>Node10</title>
<a xlink:href="../../dc/d38/class_u_b_board_palette_manager.html#a30956e342957e4ae27f7e37cc8d6bd49" target="_top" xlink:title="UBBoardPaletteManager\l::zoomButtonPressed">
<polygon fill="white" stroke="black" points="956.5,-276 956.5,-310 1081.5,-310 1081.5,-276 956.5,-276"/>
<text text-anchor="start" x="964.5" y="-297" font-family="Helvetica,sans-Serif" font-size="10.00">UBBoardPaletteManager</text>
<text text-anchor="middle" x="1019" y="-284" font-family="Helvetica,sans-Serif" font-size="10.00">::zoomButtonPressed</text>
</a>
</g>
<!-- Node7&#45;&gt;Node10 -->
<g id="edge20" class="edge"><title>Node7&#45;&gt;Node10</title>
<path fill="none" stroke="midnightblue" d="M892.764,-293C913.593,-293 936.111,-293 956.282,-293"/>
<polygon fill="midnightblue" stroke="midnightblue" points="892.692,-289.5 882.692,-293 892.692,-296.5 892.692,-289.5"/>
</g>
<!-- Node9 -->
<g id="node18" class="node"><title>Node9</title>
<a xlink:href="../../dc/d38/class_u_b_board_palette_manager.html#ab2ca22bf5af16f59e273a72731a138ae" target="_top" xlink:title="UBBoardPaletteManager\l::UBBoardPaletteManager">
<polygon fill="white" stroke="black" points="1298.5,-340 1298.5,-374 1429.5,-374 1429.5,-340 1298.5,-340"/>
<text text-anchor="start" x="1306.5" y="-361" font-family="Helvetica,sans-Serif" font-size="10.00">UBBoardPaletteManager</text>
<text text-anchor="middle" x="1364" y="-348" font-family="Helvetica,sans-Serif" font-size="10.00">::UBBoardPaletteManager</text>
</a>
</g>
<!-- Node8&#45;&gt;Node9 -->
<g id="edge18" class="edge"><title>Node8&#45;&gt;Node9</title>
<path fill="none" stroke="midnightblue" d="M1272.03,-357C1280.78,-357 1289.67,-357 1298.31,-357"/>
<polygon fill="midnightblue" stroke="midnightblue" points="1271.85,-353.5 1261.85,-357 1271.85,-360.5 1271.85,-353.5"/>
</g>
<!-- Node10&#45;&gt;Node8 -->
<g id="edge22" class="edge"><title>Node10&#45;&gt;Node8</title>
<path fill="none" stroke="midnightblue" d="M1076.9,-313.586C1100.8,-322.084 1128.18,-331.818 1150.94,-339.913"/>
<polygon fill="midnightblue" stroke="midnightblue" points="1077.83,-310.203 1067.24,-310.151 1075.49,-316.799 1077.83,-310.203"/>
</g>
<!-- Node13 -->
<g id="node27" class="node"><title>Node13</title>
<a xlink:href="../../db/dbc/class_u_b_zoom_palette.html#a7f74e9a8df1069509c0ae86bbfec0c57" target="_top" xlink:title="UBZoomPalette::UBZoomPalette">
<polygon fill="white" stroke="black" points="938,-236.5 938,-257.5 1100,-257.5 1100,-236.5 938,-236.5"/>
<text text-anchor="middle" x="1019" y="-244.5" font-family="Helvetica,sans-Serif" font-size="10.00">UBZoomPalette::UBZoomPalette</text>
</a>
</g>
<!-- Node12&#45;&gt;Node13 -->
<g id="edge28" class="edge"><title>Node12&#45;&gt;Node13</title>
<path fill="none" stroke="midnightblue" d="M900.425,-247C912.78,-247 925.544,-247 937.913,-247"/>
<polygon fill="midnightblue" stroke="midnightblue" points="900.16,-243.5 890.16,-247 900.16,-250.5 900.16,-243.5"/>
</g>
<!-- Node14&#45;&gt;Node8 -->
<g id="edge32" class="edge"><title>Node14&#45;&gt;Node8</title>
<path fill="none" stroke="midnightblue" d="M892.734,-389.324C963.33,-381.873 1069.36,-370.683 1136.32,-363.615"/>
<polygon fill="midnightblue" stroke="midnightblue" points="892.162,-385.864 882.584,-390.395 892.896,-392.826 892.162,-385.864"/>
</g>
<!-- Node15 -->
<g id="node32" class="node"><title>Node15</title>
<a xlink:href="../../dc/d38/class_u_b_board_palette_manager.html#a664c10cf1683712e650606d33711b12a" target="_top" xlink:title="UBBoardPaletteManager\l::panButtonPressed">
<polygon fill="white" stroke="black" points="956.5,-404 956.5,-438 1081.5,-438 1081.5,-404 956.5,-404"/>
<text text-anchor="start" x="964.5" y="-425" font-family="Helvetica,sans-Serif" font-size="10.00">UBBoardPaletteManager</text>
<text text-anchor="middle" x="1019" y="-412" font-family="Helvetica,sans-Serif" font-size="10.00">::panButtonPressed</text>
</a>
</g>
<!-- Node14&#45;&gt;Node15 -->
<g id="edge34" class="edge"><title>Node14&#45;&gt;Node15</title>
<path fill="none" stroke="midnightblue" d="M892.764,-405.776C913.593,-408.288 936.111,-411.003 956.282,-413.436"/>
<polygon fill="midnightblue" stroke="midnightblue" points="893.039,-402.283 882.692,-404.561 892.201,-409.233 893.039,-402.283"/>
</g>
<!-- Node15&#45;&gt;Node8 -->
<g id="edge36" class="edge"><title>Node15&#45;&gt;Node8</title>
<path fill="none" stroke="midnightblue" d="M1076.9,-400.414C1100.8,-391.916 1128.18,-382.182 1150.94,-374.087"/>
<polygon fill="midnightblue" stroke="midnightblue" points="1075.49,-397.201 1067.24,-403.849 1077.83,-403.797 1075.49,-397.201"/>
</g>
<!-- Node17 -->
<g id="node37" class="node"><title>Node17</title>
<a xlink:href="../../d5/d2b/class_u_b_widget_uniboard_a_p_i.html#af20ee99e10a36cc9c576242c0ac97a23" target="_top" xlink:title="UBWidgetUniboardAPI\l::zoom">
<polygon fill="white" stroke="black" points="550.5,-193 550.5,-227 667.5,-227 667.5,-193 550.5,-193"/>
<text text-anchor="start" x="558.5" y="-214" font-family="Helvetica,sans-Serif" font-size="10.00">UBWidgetUniboardAPI</text>
<text text-anchor="middle" x="609" y="-201" font-family="Helvetica,sans-Serif" font-size="10.00">::zoom</text>
</a>
</g>
<!-- Node16&#45;&gt;Node17 -->
<g id="edge40" class="edge"><title>Node16&#45;&gt;Node17</title>
<path fill="none" stroke="midnightblue" d="M450.655,-170.977C480.963,-178.446 519.114,-187.848 550.374,-195.552"/>
<polygon fill="midnightblue" stroke="midnightblue" points="451.246,-167.518 440.699,-168.523 449.571,-174.314 451.246,-167.518"/>
</g>
<!-- Node18 -->
<g id="node39" class="node"><title>Node18</title>
<a xlink:href="../../d7/d62/class_u_b_board_controller.html#a8ba0b7e674be504d0547c6ce94a92a4b" target="_top" xlink:title="UBBoardController:\l:zoomIn">
<polygon fill="white" stroke="black" points="558.5,-89 558.5,-123 659.5,-123 659.5,-89 558.5,-89"/>
<text text-anchor="start" x="566.5" y="-110" font-family="Helvetica,sans-Serif" font-size="10.00">UBBoardController:</text>
<text text-anchor="middle" x="609" y="-97" font-family="Helvetica,sans-Serif" font-size="10.00">:zoomIn</text>
</a>
</g>
<!-- Node16&#45;&gt;Node18 -->
<g id="edge42" class="edge"><title>Node16&#45;&gt;Node18</title>
<path fill="none" stroke="midnightblue" d="M451.242,-145.046C460.818,-142.707 470.707,-140.286 480,-138 505.88,-131.634 534.666,-124.499 558.468,-118.584"/>
<polygon fill="midnightblue" stroke="midnightblue" points="450.3,-141.673 441.415,-147.445 451.96,-148.474 450.3,-141.673"/>
</g>
<!-- Node23 -->
<g id="node51" class="node"><title>Node23</title>
<a xlink:href="../../d7/d62/class_u_b_board_controller.html#adb10d5b0dbccf7ccb1b92f8840ad3621" target="_top" xlink:title="UBBoardController:\l:zoomOut">
<polygon fill="white" stroke="black" points="558.5,-141 558.5,-175 659.5,-175 659.5,-141 558.5,-141"/>
<text text-anchor="start" x="566.5" y="-162" font-family="Helvetica,sans-Serif" font-size="10.00">UBBoardController:</text>
<text text-anchor="middle" x="609" y="-149" font-family="Helvetica,sans-Serif" font-size="10.00">:zoomOut</text>
</a>
</g>
<!-- Node16&#45;&gt;Node23 -->
<g id="edge56" class="edge"><title>Node16&#45;&gt;Node23</title>
<path fill="none" stroke="midnightblue" d="M472.454,-158C500.83,-158 532.495,-158 558.182,-158"/>
<polygon fill="midnightblue" stroke="midnightblue" points="472.166,-154.5 462.166,-158 472.166,-161.5 472.166,-154.5"/>
</g>
<!-- Node18&#45;&gt;Node11 -->
<g id="edge44" class="edge"><title>Node18&#45;&gt;Node11</title>
<path fill="none" stroke="midnightblue" d="M669.314,-120.047C680.392,-123.413 691.702,-127.394 702,-132 719.332,-139.752 720.804,-146.951 738,-155 751.12,-161.141 766.071,-166.362 779.581,-170.477"/>
<polygon fill="midnightblue" stroke="midnightblue" points="670.249,-116.674 659.67,-117.247 668.298,-123.396 670.249,-116.674"/>
</g>
<!-- Node19 -->
<g id="node42" class="node"><title>Node19</title>
<a xlink:href="../../d1/d78/class_u_b_board_view.html#a6fc3391590c435e0ae26c43d2bd76d14" target="_top" xlink:title="UBBoardView::mousePressEvent">
<polygon fill="white" stroke="black" points="738,-124.5 738,-145.5 902,-145.5 902,-124.5 738,-124.5"/>
<text text-anchor="middle" x="820" y="-132.5" font-family="Helvetica,sans-Serif" font-size="10.00">UBBoardView::mousePressEvent</text>
</a>
</g>
<!-- Node18&#45;&gt;Node19 -->
<g id="edge46" class="edge"><title>Node18&#45;&gt;Node19</title>
<path fill="none" stroke="midnightblue" d="M669.521,-114.318C692.568,-117.486 719.138,-121.137 743.477,-124.483"/>
<polygon fill="midnightblue" stroke="midnightblue" points="669.923,-110.841 659.54,-112.946 668.97,-117.775 669.923,-110.841"/>
</g>
<!-- Node20 -->
<g id="node44" class="node"><title>Node20</title>
<a xlink:href="../../d1/d78/class_u_b_board_view.html#a1818c4d69a09adc9bb98079d2210564d" target="_top" xlink:title="UBBoardView::handleItemMouse\lPress">
<polygon fill="white" stroke="black" points="938.5,-144 938.5,-178 1099.5,-178 1099.5,-144 938.5,-144"/>
<text text-anchor="start" x="946.5" y="-165" font-family="Helvetica,sans-Serif" font-size="10.00">UBBoardView::handleItemMouse</text>
<text text-anchor="middle" x="1019" y="-152" font-family="Helvetica,sans-Serif" font-size="10.00">Press</text>
</a>
</g>
<!-- Node19&#45;&gt;Node20 -->
<g id="edge48" class="edge"><title>Node19&#45;&gt;Node20</title>
<path fill="none" stroke="midnightblue" d="M912.256,-140.319C921.305,-141.462 930.434,-142.69 939.342,-143.963"/>
<polygon fill="midnightblue" stroke="midnightblue" points="912.443,-136.816 902.09,-139.068 911.587,-143.764 912.443,-136.816"/>
</g>
<!-- Node21 -->
<g id="node47" class="node"><title>Node21</title>
<a xlink:href="../../d1/d78/class_u_b_board_view.html#acc4206bbb27829580a337c81708be4a3" target="_top" xlink:title="UBBoardView::mouseRelease\lEvent">
<polygon fill="white" stroke="black" points="944.5,-92 944.5,-126 1093.5,-126 1093.5,-92 944.5,-92"/>
<text text-anchor="start" x="952.5" y="-113" font-family="Helvetica,sans-Serif" font-size="10.00">UBBoardView::mouseRelease</text>
<text text-anchor="middle" x="1019" y="-100" font-family="Helvetica,sans-Serif" font-size="10.00">Event</text>
</a>
</g>
<!-- Node19&#45;&gt;Node21 -->
<g id="edge52" class="edge"><title>Node19&#45;&gt;Node21</title>
<path fill="none" stroke="midnightblue" d="M910.338,-123.197C921.748,-121.706 933.32,-120.194 944.448,-118.741"/>
<polygon fill="midnightblue" stroke="midnightblue" points="909.83,-119.734 900.367,-124.5 910.736,-126.675 909.83,-119.734"/>
</g>
<!-- Node22 -->
<g id="node49" class="node"><title>Node22</title>
<a xlink:href="../../d1/d78/class_u_b_board_view.html#a43eb1207291905e9daa7c618a3c203bb" target="_top" xlink:title="UBBoardView::mouseDouble\lClickEvent">
<polygon fill="white" stroke="black" points="947,-40 947,-74 1091,-74 1091,-40 947,-40"/>
<text text-anchor="start" x="955" y="-61" font-family="Helvetica,sans-Serif" font-size="10.00">UBBoardView::mouseDouble</text>
<text text-anchor="middle" x="1019" y="-48" font-family="Helvetica,sans-Serif" font-size="10.00">ClickEvent</text>
</a>
</g>
<!-- Node19&#45;&gt;Node22 -->
<g id="edge54" class="edge"><title>Node19&#45;&gt;Node22</title>
<path fill="none" stroke="midnightblue" d="M851.488,-120.049C875.046,-109.128 908.2,-94.3134 938,-83 946.008,-79.9596 954.546,-76.9624 962.961,-74.1447"/>
<polygon fill="midnightblue" stroke="midnightblue" points="849.913,-116.922 842.331,-124.322 852.873,-123.265 849.913,-116.922"/>
</g>
<!-- Node20&#45;&gt;Node19 -->
<g id="edge50" class="edge"><title>Node20&#45;&gt;Node19</title>
<path fill="none" stroke="midnightblue" d="M928.235,-155.868C903.833,-152.81 878.724,-149.114 858.842,-145.556"/>
<polygon fill="midnightblue" stroke="midnightblue" points="927.915,-159.355 938.265,-157.094 928.764,-152.407 927.915,-159.355"/>
</g>
<!-- Node23&#45;&gt;Node11 -->
<g id="edge58" class="edge"><title>Node23&#45;&gt;Node11</title>
<path fill="none" stroke="midnightblue" d="M669.62,-164.608C692.901,-167.146 719.765,-170.074 744.29,-172.747"/>
<polygon fill="midnightblue" stroke="midnightblue" points="669.86,-161.113 659.54,-163.509 669.102,-168.072 669.86,-161.113"/>
</g>
<!-- Node23&#45;&gt;Node19 -->
<g id="edge60" class="edge"><title>Node23&#45;&gt;Node19</title>
<path fill="none" stroke="midnightblue" d="M669.693,-151.384C690.9,-149.073 715.074,-146.437 737.742,-143.966"/>
<polygon fill="midnightblue" stroke="midnightblue" points="669.102,-147.928 659.54,-152.491 669.86,-154.887 669.102,-147.928"/>
</g>
<!-- Node24&#45;&gt;Node11 -->
<g id="edge66" class="edge"><title>Node24&#45;&gt;Node11</title>
<path fill="none" stroke="midnightblue" d="M247.818,-135.18C266.386,-149.185 291.547,-166.492 316,-178 399.741,-217.409 424.369,-222.982 516,-236 597.845,-247.628 621.291,-253.886 702,-236 740.396,-227.491 781.111,-205.14 803.254,-191.695"/>
<polygon fill="midnightblue" stroke="midnightblue" points="249.842,-132.321 239.778,-129.01 245.581,-137.875 249.842,-132.321"/>
</g>
<!-- Node25 -->
<g id="node57" class="node"><title>Node25</title>
<a xlink:href="../../d5/d2b/class_u_b_widget_uniboard_a_p_i.html#ab2f0322191a207b1580b1f494c597861" target="_top" xlink:title="UBWidgetUniboardAPI\l::move">
<polygon fill="white" stroke="black" points="339.5,-95 339.5,-129 456.5,-129 456.5,-95 339.5,-95"/>
<text text-anchor="start" x="347.5" y="-116" font-family="Helvetica,sans-Serif" font-size="10.00">UBWidgetUniboardAPI</text>
<text text-anchor="middle" x="398" y="-103" font-family="Helvetica,sans-Serif" font-size="10.00">::move</text>
</a>
</g>
<!-- Node24&#45;&gt;Node25 -->
<g id="edge64" class="edge"><title>Node24&#45;&gt;Node25</title>
<path fill="none" stroke="midnightblue" d="M279.973,-112C299.211,-112 320.411,-112 339.474,-112"/>
<polygon fill="midnightblue" stroke="midnightblue" points="279.815,-108.5 269.815,-112 279.815,-115.5 279.815,-108.5"/>
</g>
<!-- Node26 -->
<g id="node60" class="node"><title>Node26</title>
<a xlink:href="../../d1/d78/class_u_b_board_view.html#adf1b48aff41094593ba1054627b4c52b" target="_top" xlink:title="UBBoardView::mouseMoveEvent">
<polygon fill="white" stroke="black" points="316.5,-52.5 316.5,-73.5 479.5,-73.5 479.5,-52.5 316.5,-52.5"/>
<text text-anchor="middle" x="398" y="-60.5" font-family="Helvetica,sans-Serif" font-size="10.00">UBBoardView::mouseMoveEvent</text>
</a>
</g>
<!-- Node24&#45;&gt;Node26 -->
<g id="edge68" class="edge"><title>Node24&#45;&gt;Node26</title>
<path fill="none" stroke="midnightblue" d="M279.738,-95.3734C306.164,-88.1394 336.334,-79.8807 359.586,-73.5155"/>
<polygon fill="midnightblue" stroke="midnightblue" points="278.536,-92.0735 269.815,-98.0896 280.385,-98.8251 278.536,-92.0735"/>
</g>
<!-- Node27 -->
<g id="node62" class="node"><title>Node27</title>
<a xlink:href="../../d1/d78/class_u_b_board_view.html#aa0ffd2f772d688eb459b316c36404188" target="_top" xlink:title="UBBoardView::handleItemMouseMove">
<polygon fill="white" stroke="black" points="516.5,-49.5 516.5,-70.5 701.5,-70.5 701.5,-49.5 516.5,-49.5"/>
<text text-anchor="middle" x="609" y="-57.5" font-family="Helvetica,sans-Serif" font-size="10.00">UBBoardView::handleItemMouseMove</text>
</a>
</g>
<!-- Node26&#45;&gt;Node27 -->
<g id="edge70" class="edge"><title>Node26&#45;&gt;Node27</title>
<path fill="none" stroke="midnightblue" d="M489.844,-54.9947C498.652,-54.804 507.589,-54.6751 516.404,-54.6116"/>
<polygon fill="midnightblue" stroke="midnightblue" points="489.489,-51.5022 479.578,-55.2468 489.661,-58.5001 489.489,-51.5022"/>
</g>
<!-- Node27&#45;&gt;Node26 -->
<g id="edge72" class="edge"><title>Node27&#45;&gt;Node26</title>
<path fill="none" stroke="midnightblue" d="M506.304,-68.208C497.336,-68.3491 488.341,-68.4255 479.578,-68.4335"/>
<polygon fill="midnightblue" stroke="midnightblue" points="506.471,-71.7056 516.404,-68.0214 506.341,-64.7068 506.471,-71.7056"/>
</g>
<!-- Node29 -->
<g id="node67" class="node"><title>Node29</title>
<a xlink:href="../../da/d14/class_u_b_application_controller.html#a9b13846d29481cee9b89b5177ff2b3f4" target="_top" xlink:title="UBApplicationController\l::UBApplicationController">
<polygon fill="white" stroke="black" points="334.5,-0 334.5,-34 461.5,-34 461.5,-0 334.5,-0"/>
<text text-anchor="start" x="342.5" y="-21" font-family="Helvetica,sans-Serif" font-size="10.00">UBApplicationController</text>
<text text-anchor="middle" x="398" y="-8" font-family="Helvetica,sans-Serif" font-size="10.00">::UBApplicationController</text>
</a>
</g>
<!-- Node28&#45;&gt;Node29 -->
<g id="edge76" class="edge"><title>Node28&#45;&gt;Node29</title>
<path fill="none" stroke="midnightblue" d="M289.684,-30.9177C304.444,-29.0212 319.919,-27.0328 334.403,-25.1717"/>
<polygon fill="midnightblue" stroke="midnightblue" points="289.074,-27.4673 279.601,-32.2132 289.966,-34.4102 289.074,-27.4673"/>
</g>
</g>
</svg>
        <g id="navigator" transform="translate(0 0)" fill="#404254">
                <rect fill="#f2f5e9" fill-opacity="0.5" stroke="#606060" stroke-width=".5" x="0" y="0" width="60" height="60"/>
                <use id="zoomplus" xlink:href="#zoomPlus" x="17" y="9" onmousedown="handleZoom(evt,'in')"/>
                <use id="zoomminus" xlink:href="#zoomMin" x="42" y="9" onmousedown="handleZoom(evt,'out')"/>
                <use id="reset" xlink:href="#resetDef" x="30" y="36" onmousedown="handleReset()"/>
                <g id="arrowUp" xlink:href="#dirArrow" transform="translate(30 24)" onmousedown="handlePan(0,-1)">
                  <use xlink:href="#rim" fill="#404040">
                        <set attributeName="fill" to="#808080" begin="arrowUp.mouseover" end="arrowUp.mouseout"/>
                  </use>
                  <path fill="none" stroke="white" stroke-width="1.5" d="M0,-3.0v7 M-2.5,-0.5L0,-3.0L2.5,-0.5"/>
                </g>
                <g id="arrowRight" xlink:href="#dirArrow" transform="rotate(90) translate(36 -43)" onmousedown="handlePan(1,0)">
                  <use xlink:href="#rim" fill="#404040">
                        <set attributeName="fill" to="#808080" begin="arrowRight.mouseover" end="arrowRight.mouseout"/>
                  </use>
                  <path fill="none" stroke="white" stroke-width="1.5" d="M0,-3.0v7 M-2.5,-0.5L0,-3.0L2.5,-0.5"/>
                </g>
                <g id="arrowDown" xlink:href="#dirArrow" transform="rotate(180) translate(-30 -48)" onmousedown="handlePan(0,1)">
                  <use xlink:href="#rim" fill="#404040">
                        <set attributeName="fill" to="#808080" begin="arrowDown.mouseover" end="arrowDown.mouseout"/>
                  </use>
                  <path fill="none" stroke="white" stroke-width="1.5" d="M0,-3.0v7 M-2.5,-0.5L0,-3.0L2.5,-0.5"/>
                </g>
                <g id="arrowLeft" xlink:href="#dirArrow" transform="rotate(270) translate(-36 17)" onmousedown="handlePan(-1,0)">
                  <use xlink:href="#rim" fill="#404040">
                        <set attributeName="fill" to="#808080" begin="arrowLeft.mouseover" end="arrowLeft.mouseout"/>
                  </use>
                  <path fill="none" stroke="white" stroke-width="1.5" d="M0,-3.0v7 M-2.5,-0.5L0,-3.0L2.5,-0.5"/>
                </g>
        </g>
        <svg viewBox="0 0 15 15" width="100%" height="30px" preserveAspectRatio="xMaxYMin meet">
         <g id="arrow_out" transform="scale(0.3 0.3)">
          <a xlink:href="class_u_b_application_controller_a4cdde5cc4906f7f7ccdbe1a78ac98f3c_icgraph_org.svg" target="_base">
           <rect id="button" ry="5" rx="5" y="6" x="6" height="38" width="38"
                fill="#f2f5e9" fill-opacity="0.5" stroke="#606060" stroke-width="1.0"/>
           <path id="arrow"
             d="M 11.500037,31.436501 C 11.940474,20.09759 22.043105,11.32322 32.158766,21.979434 L 37.068811,17.246167 C 37.068811,17.246167 37.088388,32 37.088388,32 L 22.160133,31.978069 C 22.160133,31.978069 26.997745,27.140456 26.997745,27.140456 C 18.528582,18.264221 13.291696,25.230495 11.500037,31.436501 z"
             style="fill:#404040;"/>
          </a>
         </g>
        </svg>
</svg>
