<?xml version="1.0" encoding="UTF-8" standalone="no"?>
<!DOCTYPE svg PUBLIC "-//W3C//DTD SVG 1.1//EN"
 "http://www.w3.org/Graphics/SVG/1.1/DTD/svg11.dtd">
<!-- Generated by graphviz version 2.26.3 (20100126.1600)
 -->
<!-- Title: UBApplicationController::showDocument Pages: 1 -->
<svg width="558pt" height="82pt"
 viewBox="0.00 0.00 558.00 82.00" xmlns="http://www.w3.org/2000/svg" xmlns:xlink="http://www.w3.org/1999/xlink">
<g id="graph1" class="graph" transform="scale(1 1) rotate(0) translate(4 78)">
<title>UBApplicationController::showDocument</title>
<polygon fill="white" stroke="white" points="-4,5 -4,-78 555,-78 555,5 -4,5"/>
<!-- Node1 -->
<g id="node1" class="node"><title>Node1</title>
<polygon fill="#bfbfbf" stroke="black" points="0.5,-23 0.5,-57 121.5,-57 121.5,-23 0.5,-23"/>
<text text-anchor="start" x="8.5" y="-44" font-family="Helvetica,sans-Serif" font-size="10.00">UBApplicationController</text>
<text text-anchor="middle" x="61" y="-31" font-family="Helvetica,sans-Serif" font-size="10.00">::showDocument</text>
</g>
<!-- Node2 -->
<g id="node3" class="node"><title>Node2</title>
<a xlink:href="../../d8/d81/class_u_b_application.html#aa7760534852820a497c88484745d8225" target="_top" xlink:title="UBApplication::showDocument">
<polygon fill="white" stroke="black" points="158.5,-52.5 158.5,-73.5 311.5,-73.5 311.5,-52.5 158.5,-52.5"/>
<text text-anchor="middle" x="235" y="-60.5" font-family="Helvetica,sans-Serif" font-size="10.00">UBApplication::showDocument</text>
</a>
</g>
<!-- Node1&#45;&gt;Node2 -->
<g id="edge2" class="edge"><title>Node1&#45;&gt;Node2</title>
<path fill="none" stroke="midnightblue" d="M131.924,-49.3751C140.606,-50.5226 149.508,-51.6993 158.27,-52.8575"/>
<polygon fill="midnightblue" stroke="midnightblue" points="132.229,-45.885 121.857,-48.0443 131.312,-52.8246 132.229,-45.885"/>
</g>
<!-- Node5 -->
<g id="node9" class="node"><title>Node5</title>
<a xlink:href="../../da/d14/class_u_b_application_controller.html#a59f95b747443497d344b8af0fd231cf4" target="_top" xlink:title="UBApplicationController\l::hideDesktop">
<polygon fill="white" stroke="black" points="174.5,-0 174.5,-34 295.5,-34 295.5,-0 174.5,-0"/>
<text text-anchor="start" x="182.5" y="-21" font-family="Helvetica,sans-Serif" font-size="10.00">UBApplicationController</text>
<text text-anchor="middle" x="235" y="-8" font-family="Helvetica,sans-Serif" font-size="10.00">::hideDesktop</text>
</a>
</g>
<!-- Node1&#45;&gt;Node5 -->
<g id="edge8" class="edge"><title>Node1&#45;&gt;Node5</title>
<path fill="none" stroke="midnightblue" d="M131.995,-30.6156C146.09,-28.7525 160.765,-26.8127 174.471,-25.0009"/>
<polygon fill="midnightblue" stroke="midnightblue" points="131.312,-27.1754 121.857,-31.9557 132.229,-34.115 131.312,-27.1754"/>
</g>
<!-- Node3 -->
<g id="node5" class="node"><title>Node3</title>
<a xlink:href="../../d8/d81/class_u_b_application.html#add1469239e71bf24fdc61413a42a38bd" target="_top" xlink:title="UBApplication::exec">
<polygon fill="white" stroke="black" points="359,-52.5 359,-73.5 465,-73.5 465,-52.5 359,-52.5"/>
<text text-anchor="middle" x="412" y="-60.5" font-family="Helvetica,sans-Serif" font-size="10.00">UBApplication::exec</text>
</a>
</g>
<!-- Node2&#45;&gt;Node3 -->
<g id="edge4" class="edge"><title>Node2&#45;&gt;Node3</title>
<path fill="none" stroke="midnightblue" d="M321.766,-63C334.473,-63 347.227,-63 358.981,-63"/>
<polygon fill="midnightblue" stroke="midnightblue" points="321.605,-59.5001 311.605,-63 321.605,-66.5001 321.605,-59.5001"/>
</g>
<!-- Node4 -->
<g id="node7" class="node"><title>Node4</title>
<a xlink:href="../../df/d0a/main_8cpp.html#a0ddf1224851353fc92bfbff6f499fa97" target="_top" xlink:title="main">
<polygon fill="white" stroke="black" points="512,-52.5 512,-73.5 550,-73.5 550,-52.5 512,-52.5"/>
<text text-anchor="middle" x="531" y="-60.5" font-family="Helvetica,sans-Serif" font-size="10.00">main</text>
</a>
</g>
<!-- Node3&#45;&gt;Node4 -->
<g id="edge6" class="edge"><title>Node3&#45;&gt;Node4</title>
<path fill="none" stroke="midnightblue" d="M475.379,-63C488.635,-63 501.634,-63 511.728,-63"/>
<polygon fill="midnightblue" stroke="midnightblue" points="475.235,-59.5001 465.235,-63 475.235,-66.5001 475.235,-59.5001"/>
</g>
<!-- Node6 -->
<g id="node11" class="node"><title>Node6</title>
<a xlink:href="../../da/d14/class_u_b_application_controller.html#a9b13846d29481cee9b89b5177ff2b3f4" target="_top" xlink:title="UBApplicationController\l::UBApplicationController">
<polygon fill="white" stroke="black" points="348.5,-0 348.5,-34 475.5,-34 475.5,-0 348.5,-0"/>
<text text-anchor="start" x="356.5" y="-21" font-family="Helvetica,sans-Serif" font-size="10.00">UBApplicationController</text>
<text text-anchor="middle" x="412" y="-8" font-family="Helvetica,sans-Serif" font-size="10.00">::UBApplicationController</text>
</a>
</g>
<!-- Node5&#45;&gt;Node6 -->
<g id="edge10" class="edge"><title>Node5&#45;&gt;Node6</title>
<path fill="none" stroke="midnightblue" d="M305.965,-17C319.946,-17 334.536,-17 348.261,-17"/>
<polygon fill="midnightblue" stroke="midnightblue" points="305.913,-13.5001 295.913,-17 305.913,-20.5001 305.913,-13.5001"/>
</g>
</g>
</svg>
