<?xml version="1.0" encoding="UTF-8" standalone="no"?>
<!DOCTYPE svg PUBLIC "-//W3C//DTD SVG 1.1//EN"
 "http://www.w3.org/Graphics/SVG/1.1/DTD/svg11.dtd">
<!-- Generated by graphviz version 2.26.3 (20100126.1600)
 -->
<!-- Title: UBApplicationController::closing Pages: 1 -->
<svg width="1032pt" height="732pt"
 viewBox="0.00 0.00 1032.00 732.00" xmlns="http://www.w3.org/2000/svg" xmlns:xlink="http://www.w3.org/1999/xlink">
<g id="graph1" class="graph" transform="scale(1 1) rotate(0) translate(4 728)">
<title>UBApplicationController::closing</title>
<polygon fill="white" stroke="white" points="-4,5 -4,-728 1029,-728 1029,5 -4,5"/>
<!-- Node1 -->
<g id="node1" class="node"><title>Node1</title>
<polygon fill="#bfbfbf" stroke="black" points="0.5,-312 0.5,-346 121.5,-346 121.5,-312 0.5,-312"/>
<text text-anchor="start" x="8.5" y="-333" font-family="Helvetica,sans-Serif" font-size="10.00">UBApplicationController</text>
<text text-anchor="middle" x="61" y="-320" font-family="Helvetica,sans-Serif" font-size="10.00">::closing</text>
</g>
<!-- Node2 -->
<g id="node3" class="node"><title>Node2</title>
<a xlink:href="../../da/de7/class_u_b_screen_mirror.html#a86fde636fadf9a639177c0e8ff76b915" target="_top" xlink:title="UBScreenMirror::stop">
<polygon fill="white" stroke="black" points="180.5,-471.5 180.5,-492.5 291.5,-492.5 291.5,-471.5 180.5,-471.5"/>
<text text-anchor="middle" x="236" y="-479.5" font-family="Helvetica,sans-Serif" font-size="10.00">UBScreenMirror::stop</text>
</a>
</g>
<!-- Node1&#45;&gt;Node2 -->
<g id="edge2" class="edge"><title>Node1&#45;&gt;Node2</title>
<path fill="none" stroke="midnightblue" d="M80.7345,-346.254C114.356,-375.648 182.371,-435.113 216.103,-464.604"/>
<polygon fill="midnightblue" stroke="midnightblue" points="214.066,-467.472 223.898,-471.42 218.673,-462.203 214.066,-467.472"/>
</g>
<!-- Node13 -->
<g id="node25" class="node"><title>Node13</title>
<a xlink:href="../../d7/db7/class_u_b_desktop_annotation_controller.html#a1f3515627f629611f3fbec84bf4cec15" target="_top" xlink:title="UBDesktopAnnotationController\l::hideWindow">
<polygon fill="white" stroke="black" points="158,-338 158,-372 314,-372 314,-338 158,-338"/>
<text text-anchor="start" x="166" y="-359" font-family="Helvetica,sans-Serif" font-size="10.00">UBDesktopAnnotationController</text>
<text text-anchor="middle" x="236" y="-346" font-family="Helvetica,sans-Serif" font-size="10.00">::hideWindow</text>
</a>
</g>
<!-- Node1&#45;&gt;Node13 -->
<g id="edge24" class="edge"><title>Node1&#45;&gt;Node13</title>
<path fill="none" stroke="midnightblue" d="M121.715,-338.021C130.179,-339.278 139.013,-340.59 147.855,-341.904"/>
<polygon fill="midnightblue" stroke="midnightblue" points="147.417,-345.377 157.823,-343.385 148.446,-338.453 147.417,-345.377"/>
</g>
<!-- Node23 -->
<g id="node46" class="node"><title>Node23</title>
<a xlink:href="../../d7/db7/class_u_b_desktop_annotation_controller.html#a8078da5d7de8e9d2b625c97447ca815f" target="_top" xlink:title="UBDesktopAnnotationController\l::close">
<polygon fill="white" stroke="black" points="158,-286 158,-320 314,-320 314,-286 158,-286"/>
<text text-anchor="start" x="166" y="-307" font-family="Helvetica,sans-Serif" font-size="10.00">UBDesktopAnnotationController</text>
<text text-anchor="middle" x="236" y="-294" font-family="Helvetica,sans-Serif" font-size="10.00">::close</text>
</a>
</g>
<!-- Node1&#45;&gt;Node23 -->
<g id="edge46" class="edge"><title>Node1&#45;&gt;Node23</title>
<path fill="none" stroke="midnightblue" d="M121.715,-319.979C130.179,-318.722 139.013,-317.41 147.855,-316.096"/>
<polygon fill="midnightblue" stroke="midnightblue" points="148.446,-319.547 157.823,-314.615 147.417,-312.623 148.446,-319.547"/>
</g>
<!-- Node24 -->
<g id="node48" class="node"><title>Node24</title>
<a xlink:href="../../d6/de0/class_u_b_document_controller.html#a9d81934600570ee50be364c33d5478e0" target="_top" xlink:title="UBDocumentController\l::closing">
<polygon fill="white" stroke="black" points="177,-121 177,-155 295,-155 295,-121 177,-121"/>
<text text-anchor="start" x="185" y="-142" font-family="Helvetica,sans-Serif" font-size="10.00">UBDocumentController</text>
<text text-anchor="middle" x="236" y="-129" font-family="Helvetica,sans-Serif" font-size="10.00">::closing</text>
</a>
</g>
<!-- Node1&#45;&gt;Node24 -->
<g id="edge48" class="edge"><title>Node1&#45;&gt;Node24</title>
<path fill="none" stroke="midnightblue" d="M76.8387,-311.713C107.944,-277.764 177.114,-202.269 213.16,-162.928"/>
<polygon fill="midnightblue" stroke="midnightblue" points="216.148,-164.848 220.323,-155.11 210.987,-160.119 216.148,-164.848"/>
</g>
<!-- Node3 -->
<g id="node5" class="node"><title>Node3</title>
<a xlink:href="../../d7/d62/class_u_b_board_controller.html#a4e526bf1704cc013539413d792c65d6a" target="_top" xlink:title="UBBoardController:\l:freezeW3CWidgets">
<polygon fill="white" stroke="black" points="368.5,-546 368.5,-580 473.5,-580 473.5,-546 368.5,-546"/>
<text text-anchor="start" x="376.5" y="-567" font-family="Helvetica,sans-Serif" font-size="10.00">UBBoardController:</text>
<text text-anchor="middle" x="421" y="-554" font-family="Helvetica,sans-Serif" font-size="10.00">:freezeW3CWidgets</text>
</a>
</g>
<!-- Node2&#45;&gt;Node3 -->
<g id="edge4" class="edge"><title>Node2&#45;&gt;Node3</title>
<path fill="none" stroke="midnightblue" d="M260.186,-492.589C288.596,-505.029 336.434,-525.974 372.566,-541.794"/>
<polygon fill="midnightblue" stroke="midnightblue" points="371.386,-545.098 381.95,-545.902 374.193,-538.685 371.386,-545.098"/>
</g>
<!-- Node4 -->
<g id="node7" class="node"><title>Node4</title>
<a xlink:href="../../d7/d62/class_u_b_board_controller.html#a5bf93ad343de7f09150d634ef3a8c459" target="_top" xlink:title="UBBoardController:\l:activeScene">
<polygon fill="white" stroke="black" points="547.5,-442 547.5,-476 648.5,-476 648.5,-442 547.5,-442"/>
<text text-anchor="start" x="555.5" y="-463" font-family="Helvetica,sans-Serif" font-size="10.00">UBBoardController:</text>
<text text-anchor="middle" x="598" y="-450" font-family="Helvetica,sans-Serif" font-size="10.00">:activeScene</text>
</a>
</g>
<!-- Node3&#45;&gt;Node4 -->
<g id="edge6" class="edge"><title>Node3&#45;&gt;Node4</title>
<path fill="none" stroke="midnightblue" d="M440.798,-545.981C461.478,-528.846 495.392,-502.509 528,-485 531.216,-483.273 534.571,-481.612 537.996,-480.022"/>
<polygon fill="midnightblue" stroke="midnightblue" points="539.431,-483.215 547.178,-475.987 536.615,-476.806 539.431,-483.215"/>
</g>
<!-- Node5 -->
<g id="node9" class="node"><title>Node5</title>
<a xlink:href="../../dc/db2/class_u_b_graphics_scene.html#a8c683870fe53e039ff4fed003c114482" target="_top" xlink:title="UBGraphicsScene::getFast\lAccessItems">
<polygon fill="white" stroke="black" points="529.5,-690 529.5,-724 666.5,-724 666.5,-690 529.5,-690"/>
<text text-anchor="start" x="537.5" y="-711" font-family="Helvetica,sans-Serif" font-size="10.00">UBGraphicsScene::getFast</text>
<text text-anchor="middle" x="598" y="-698" font-family="Helvetica,sans-Serif" font-size="10.00">AccessItems</text>
</a>
</g>
<!-- Node3&#45;&gt;Node5 -->
<g id="edge8" class="edge"><title>Node3&#45;&gt;Node5</title>
<path fill="none" stroke="midnightblue" d="M432.496,-580.226C450.222,-605.575 486.546,-652.946 528,-681 530.161,-682.462 532.414,-683.855 534.733,-685.181"/>
<polygon fill="midnightblue" stroke="midnightblue" points="533.451,-688.459 543.938,-689.964 536.678,-682.247 533.451,-688.459"/>
</g>
<!-- Node6 -->
<g id="node11" class="node"><title>Node6</title>
<a xlink:href="../../d7/d62/class_u_b_board_controller.html#a3e83388ec403a3bec62277e1b1a0144f" target="_top" xlink:title="UBBoardController:\l:freezeW3CWidget">
<polygon fill="white" stroke="black" points="547.5,-638 547.5,-672 648.5,-672 648.5,-638 547.5,-638"/>
<text text-anchor="start" x="555.5" y="-659" font-family="Helvetica,sans-Serif" font-size="10.00">UBBoardController:</text>
<text text-anchor="middle" x="598" y="-646" font-family="Helvetica,sans-Serif" font-size="10.00">:freezeW3CWidget</text>
</a>
</g>
<!-- Node3&#45;&gt;Node6 -->
<g id="edge10" class="edge"><title>Node3&#45;&gt;Node6</title>
<path fill="none" stroke="midnightblue" d="M445.711,-580.188C466.901,-594.446 498.58,-614.637 528,-629 531.504,-630.711 535.151,-632.378 538.859,-633.989"/>
<polygon fill="midnightblue" stroke="midnightblue" points="537.578,-637.247 548.155,-637.87 540.275,-630.788 537.578,-637.247"/>
</g>
<!-- Node10 -->
<g id="node19" class="node"><title>Node10</title>
<a xlink:href="../../d3/dbd/class_u_b_graphics_item.html#ac8a143db621d9be68be5f3c9da0f1405" target="_top" xlink:title="UBGraphicsItem::Delegate">
<polygon fill="white" stroke="black" points="531,-598.5 531,-619.5 665,-619.5 665,-598.5 531,-598.5"/>
<text text-anchor="middle" x="598" y="-606.5" font-family="Helvetica,sans-Serif" font-size="10.00">UBGraphicsItem::Delegate</text>
</a>
</g>
<!-- Node3&#45;&gt;Node10 -->
<g id="edge18" class="edge"><title>Node3&#45;&gt;Node10</title>
<path fill="none" stroke="midnightblue" d="M473.627,-576.677C496.973,-582.744 524.328,-589.854 547.43,-595.857"/>
<polygon fill="midnightblue" stroke="midnightblue" points="546.821,-599.315 557.38,-598.443 548.582,-592.54 546.821,-599.315"/>
</g>
<!-- Node11 -->
<g id="node21" class="node"><title>Node11</title>
<a xlink:href="../../dd/dd5/class_u_b_graphics_item_delegate.html#ade01e0b179b501cc1c60451cbba96035" target="_top" xlink:title="UBGraphicsItemDelegate\l::action">
<polygon fill="white" stroke="black" points="534,-546 534,-580 662,-580 662,-546 534,-546"/>
<text text-anchor="start" x="542" y="-567" font-family="Helvetica,sans-Serif" font-size="10.00">UBGraphicsItemDelegate</text>
<text text-anchor="middle" x="598" y="-554" font-family="Helvetica,sans-Serif" font-size="10.00">::action</text>
</a>
</g>
<!-- Node3&#45;&gt;Node11 -->
<g id="edge20" class="edge"><title>Node3&#45;&gt;Node11</title>
<path fill="none" stroke="midnightblue" d="M473.627,-563C489.323,-563 506.832,-563 523.642,-563"/>
<polygon fill="midnightblue" stroke="midnightblue" points="523.995,-566.5 533.995,-563 523.995,-559.5 523.995,-566.5"/>
</g>
<!-- Node12 -->
<g id="node23" class="node"><title>Node12</title>
<a xlink:href="../../dd/dfb/class_u_b_graphics_item_action.html#a77a5fe1adb68432afba1d5136a10998c" target="_top" xlink:title="UBGraphicsItemAction\l::linkType">
<polygon fill="white" stroke="black" points="539.5,-494 539.5,-528 656.5,-528 656.5,-494 539.5,-494"/>
<text text-anchor="start" x="547.5" y="-515" font-family="Helvetica,sans-Serif" font-size="10.00">UBGraphicsItemAction</text>
<text text-anchor="middle" x="598" y="-502" font-family="Helvetica,sans-Serif" font-size="10.00">::linkType</text>
</a>
</g>
<!-- Node3&#45;&gt;Node12 -->
<g id="edge22" class="edge"><title>Node3&#45;&gt;Node12</title>
<path fill="none" stroke="midnightblue" d="M473.627,-547.539C491.416,-542.313 511.533,-536.403 530.323,-530.883"/>
<polygon fill="midnightblue" stroke="midnightblue" points="531.4,-534.214 540.008,-528.037 529.427,-527.498 531.4,-534.214"/>
</g>
<!-- Node7 -->
<g id="node13" class="node"><title>Node7</title>
<a xlink:href="../../d7/da7/class_u_b_graphics_w3_c_widget_item.html#adc5e2a6da0f030dbcf3b1fe0b4f1cfd6" target="_top" xlink:title="UBGraphicsW3CWidgetItem\l::freezedWidgetFilePath">
<polygon fill="white" stroke="black" points="704.5,-664 704.5,-698 847.5,-698 847.5,-664 704.5,-664"/>
<text text-anchor="start" x="712.5" y="-685" font-family="Helvetica,sans-Serif" font-size="10.00">UBGraphicsW3CWidgetItem</text>
<text text-anchor="middle" x="776" y="-672" font-family="Helvetica,sans-Serif" font-size="10.00">::freezedWidgetFilePath</text>
</a>
</g>
<!-- Node6&#45;&gt;Node7 -->
<g id="edge12" class="edge"><title>Node6&#45;&gt;Node7</title>
<path fill="none" stroke="midnightblue" d="M648.532,-662.381C662.781,-664.462 678.659,-666.782 694.239,-669.057"/>
<polygon fill="midnightblue" stroke="midnightblue" points="694.013,-672.561 704.414,-670.544 695.025,-665.635 694.013,-672.561"/>
</g>
<!-- Node9 -->
<g id="node17" class="node"><title>Node9</title>
<a xlink:href="../../d0/d16/class_u_b_graphics_widget_item.html#aadbdbf82a7420d3760df51e7cfdbe1da" target="_top" xlink:title="UBGraphicsWidgetItem\l::loadMainHtml">
<polygon fill="white" stroke="black" points="716,-612 716,-646 836,-646 836,-612 716,-612"/>
<text text-anchor="start" x="724" y="-633" font-family="Helvetica,sans-Serif" font-size="10.00">UBGraphicsWidgetItem</text>
<text text-anchor="middle" x="776" y="-620" font-family="Helvetica,sans-Serif" font-size="10.00">::loadMainHtml</text>
</a>
</g>
<!-- Node6&#45;&gt;Node9 -->
<g id="edge16" class="edge"><title>Node6&#45;&gt;Node9</title>
<path fill="none" stroke="midnightblue" d="M648.532,-647.619C666.387,-645.011 686.8,-642.029 705.98,-639.228"/>
<polygon fill="midnightblue" stroke="midnightblue" points="706.488,-642.691 715.877,-637.782 705.476,-635.764 706.488,-642.691"/>
</g>
<!-- Node8 -->
<g id="node15" class="node"><title>Node8</title>
<a xlink:href="../../d4/d99/class_u_b_platform_utils.html#ae595b29e794b20564550fd45515fc0a8" target="_top" xlink:title="UBPlatformUtils::application\lResourcesDirectory">
<polygon fill="white" stroke="black" points="884,-664 884,-698 1024,-698 1024,-664 884,-664"/>
<text text-anchor="start" x="892" y="-685" font-family="Helvetica,sans-Serif" font-size="10.00">UBPlatformUtils::application</text>
<text text-anchor="middle" x="954" y="-672" font-family="Helvetica,sans-Serif" font-size="10.00">ResourcesDirectory</text>
</a>
</g>
<!-- Node7&#45;&gt;Node8 -->
<g id="edge14" class="edge"><title>Node7&#45;&gt;Node8</title>
<path fill="none" stroke="midnightblue" d="M847.63,-681C856.24,-681 865.075,-681 873.797,-681"/>
<polygon fill="midnightblue" stroke="midnightblue" points="873.963,-684.5 883.963,-681 873.963,-677.5 873.963,-684.5"/>
</g>
<!-- Node14 -->
<g id="node27" class="node"><title>Node14</title>
<a xlink:href="../../d0/d58/class_u_b_drawing_controller.html#a9d2d10417806a2d7303df24b820f2ab3" target="_top" xlink:title="UBDrawingController\l::drawingController">
<polygon fill="white" stroke="black" points="366.5,-390 366.5,-424 475.5,-424 475.5,-390 366.5,-390"/>
<text text-anchor="start" x="374.5" y="-411" font-family="Helvetica,sans-Serif" font-size="10.00">UBDrawingController</text>
<text text-anchor="middle" x="421" y="-398" font-family="Helvetica,sans-Serif" font-size="10.00">::drawingController</text>
</a>
</g>
<!-- Node13&#45;&gt;Node14 -->
<g id="edge26" class="edge"><title>Node13&#45;&gt;Node14</title>
<path fill="none" stroke="midnightblue" d="M296.576,-372.027C315.777,-377.424 337.071,-383.409 356.535,-388.88"/>
<polygon fill="midnightblue" stroke="midnightblue" points="355.651,-392.267 366.225,-391.604 357.545,-385.528 355.651,-392.267"/>
</g>
<!-- Node15 -->
<g id="node29" class="node"><title>Node15</title>
<a xlink:href="../../d0/d58/class_u_b_drawing_controller.html#a244d6a9a4638309428bcf0c29531b872" target="_top" xlink:title="UBDrawingController\l::stylusTool">
<polygon fill="white" stroke="black" points="366.5,-338 366.5,-372 475.5,-372 475.5,-338 366.5,-338"/>
<text text-anchor="start" x="374.5" y="-359" font-family="Helvetica,sans-Serif" font-size="10.00">UBDrawingController</text>
<text text-anchor="middle" x="421" y="-346" font-family="Helvetica,sans-Serif" font-size="10.00">::stylusTool</text>
</a>
</g>
<!-- Node13&#45;&gt;Node15 -->
<g id="edge28" class="edge"><title>Node13&#45;&gt;Node15</title>
<path fill="none" stroke="midnightblue" d="M314.189,-355C328.176,-355 342.612,-355 356.173,-355"/>
<polygon fill="midnightblue" stroke="midnightblue" points="356.351,-358.5 366.351,-355 356.351,-351.5 356.351,-358.5"/>
</g>
<!-- Node16 -->
<g id="node31" class="node"><title>Node16</title>
<a xlink:href="../../d0/d58/class_u_b_drawing_controller.html#ac5790e8e77299a58ba6f2692133b7009" target="_top" xlink:title="UBDrawingController\l::setStylusTool">
<polygon fill="white" stroke="black" points="366.5,-286 366.5,-320 475.5,-320 475.5,-286 366.5,-286"/>
<text text-anchor="start" x="374.5" y="-307" font-family="Helvetica,sans-Serif" font-size="10.00">UBDrawingController</text>
<text text-anchor="middle" x="421" y="-294" font-family="Helvetica,sans-Serif" font-size="10.00">::setStylusTool</text>
</a>
</g>
<!-- Node13&#45;&gt;Node16 -->
<g id="edge30" class="edge"><title>Node13&#45;&gt;Node16</title>
<path fill="none" stroke="midnightblue" d="M296.576,-337.973C315.777,-332.576 337.071,-326.591 356.535,-321.12"/>
<polygon fill="midnightblue" stroke="midnightblue" points="357.545,-324.472 366.225,-318.396 355.651,-317.733 357.545,-324.472"/>
</g>
<!-- Node16&#45;&gt;Node4 -->
<g id="edge32" class="edge"><title>Node16&#45;&gt;Node4</title>
<path fill="none" stroke="midnightblue" d="M475.644,-317.128C481.668,-320.319 487.308,-324.224 492,-329 526.278,-363.893 493.803,-398.028 528,-433 531.144,-436.215 534.721,-439.036 538.556,-441.511"/>
<polygon fill="midnightblue" stroke="midnightblue" points="536.86,-444.573 547.297,-446.395 540.274,-438.462 536.86,-444.573"/>
</g>
<!-- Node17 -->
<g id="node34" class="node"><title>Node17</title>
<a xlink:href="../../dc/db2/class_u_b_graphics_scene.html#a6cfc68b3907297af710a1d8d1492d4ea" target="_top" xlink:title="UBGraphicsScene::deselect\lAllItems">
<polygon fill="white" stroke="black" points="528,-390 528,-424 668,-424 668,-390 528,-390"/>
<text text-anchor="start" x="536" y="-411" font-family="Helvetica,sans-Serif" font-size="10.00">UBGraphicsScene::deselect</text>
<text text-anchor="middle" x="598" y="-398" font-family="Helvetica,sans-Serif" font-size="10.00">AllItems</text>
</a>
</g>
<!-- Node16&#45;&gt;Node17 -->
<g id="edge34" class="edge"><title>Node16&#45;&gt;Node17</title>
<path fill="none" stroke="midnightblue" d="M475.575,-318.968C481.404,-321.823 487.015,-325.146 492,-329 514.238,-346.193 505.802,-363.756 528,-381 529.612,-382.253 531.291,-383.449 533.023,-384.593"/>
<polygon fill="midnightblue" stroke="midnightblue" points="531.65,-387.844 542.048,-389.872 535.184,-381.802 531.65,-387.844"/>
</g>
<!-- Node18 -->
<g id="node36" class="node"><title>Node18</title>
<a xlink:href="../../d0/d58/class_u_b_drawing_controller.html#a02acf3adbfc4a9aa14da3efd01b7a530" target="_top" xlink:title="UBDrawingController\l::lineWidthIndexChanged">
<polygon fill="white" stroke="black" points="535,-338 535,-372 661,-372 661,-338 535,-338"/>
<text text-anchor="start" x="543" y="-359" font-family="Helvetica,sans-Serif" font-size="10.00">UBDrawingController</text>
<text text-anchor="middle" x="598" y="-346" font-family="Helvetica,sans-Serif" font-size="10.00">::lineWidthIndexChanged</text>
</a>
</g>
<!-- Node16&#45;&gt;Node18 -->
<g id="edge36" class="edge"><title>Node16&#45;&gt;Node18</title>
<path fill="none" stroke="midnightblue" d="M475.55,-319.026C492.856,-324.11 512.204,-329.795 530.319,-335.116"/>
<polygon fill="midnightblue" stroke="midnightblue" points="529.366,-338.484 539.947,-337.945 531.339,-331.768 529.366,-338.484"/>
</g>
<!-- Node19 -->
<g id="node38" class="node"><title>Node19</title>
<a xlink:href="../../db/d66/class_u_b_settings.html#a0d8ed418921c2b2d37851faeae00715d" target="_top" xlink:title="UBSettings::settings">
<polygon fill="white" stroke="black" points="544.5,-142.5 544.5,-163.5 651.5,-163.5 651.5,-142.5 544.5,-142.5"/>
<text text-anchor="middle" x="598" y="-150.5" font-family="Helvetica,sans-Serif" font-size="10.00">UBSettings::settings</text>
</a>
</g>
<!-- Node16&#45;&gt;Node19 -->
<g id="edge38" class="edge"><title>Node16&#45;&gt;Node19</title>
<path fill="none" stroke="midnightblue" d="M436.237,-285.743C450.806,-269.113 473.265,-243.137 492,-220 508.558,-199.551 506.25,-187.808 528,-173 530.909,-171.02 534.013,-169.233 537.236,-167.622"/>
<polygon fill="midnightblue" stroke="midnightblue" points="538.815,-170.752 546.568,-163.531 536.004,-164.341 538.815,-170.752"/>
</g>
<!-- Node20 -->
<g id="node40" class="node"><title>Node20</title>
<a xlink:href="../../d0/d58/class_u_b_drawing_controller.html#a42605540fe8451289997d9b61a89e642" target="_top" xlink:title="UBDrawingController\l::colorIndexChanged">
<polygon fill="white" stroke="black" points="543.5,-286 543.5,-320 652.5,-320 652.5,-286 543.5,-286"/>
<text text-anchor="start" x="551.5" y="-307" font-family="Helvetica,sans-Serif" font-size="10.00">UBDrawingController</text>
<text text-anchor="middle" x="598" y="-294" font-family="Helvetica,sans-Serif" font-size="10.00">::colorIndexChanged</text>
</a>
</g>
<!-- Node16&#45;&gt;Node20 -->
<g id="edge40" class="edge"><title>Node16&#45;&gt;Node20</title>
<path fill="none" stroke="midnightblue" d="M475.55,-303C493.804,-303 514.328,-303 533.281,-303"/>
<polygon fill="midnightblue" stroke="midnightblue" points="533.325,-306.5 543.325,-303 533.325,-299.5 533.325,-306.5"/>
</g>
<!-- Node21 -->
<g id="node42" class="node"><title>Node21</title>
<a xlink:href="../../d0/d58/class_u_b_drawing_controller.html#ae9ae9cf749d8ce65205cf8c50df67502" target="_top" xlink:title="UBDrawingController\l::stylusToolChanged">
<polygon fill="white" stroke="black" points="543.5,-234 543.5,-268 652.5,-268 652.5,-234 543.5,-234"/>
<text text-anchor="start" x="551.5" y="-255" font-family="Helvetica,sans-Serif" font-size="10.00">UBDrawingController</text>
<text text-anchor="middle" x="598" y="-242" font-family="Helvetica,sans-Serif" font-size="10.00">::stylusToolChanged</text>
</a>
</g>
<!-- Node16&#45;&gt;Node21 -->
<g id="edge42" class="edge"><title>Node16&#45;&gt;Node21</title>
<path fill="none" stroke="midnightblue" d="M475.55,-286.974C493.888,-281.587 514.517,-275.526 533.543,-269.937"/>
<polygon fill="midnightblue" stroke="midnightblue" points="534.717,-273.239 543.325,-267.063 532.744,-266.523 534.717,-273.239"/>
</g>
<!-- Node22 -->
<g id="node44" class="node"><title>Node22</title>
<a xlink:href="../../d0/d58/class_u_b_drawing_controller.html#a6f11f789e8f99d826910541657502b35" target="_top" xlink:title="UBDrawingController\l::colorPaletteChanged">
<polygon fill="white" stroke="black" points="541.5,-182 541.5,-216 654.5,-216 654.5,-182 541.5,-182"/>
<text text-anchor="start" x="549.5" y="-203" font-family="Helvetica,sans-Serif" font-size="10.00">UBDrawingController</text>
<text text-anchor="middle" x="598" y="-190" font-family="Helvetica,sans-Serif" font-size="10.00">::colorPaletteChanged</text>
</a>
</g>
<!-- Node16&#45;&gt;Node22 -->
<g id="edge44" class="edge"><title>Node16&#45;&gt;Node22</title>
<path fill="none" stroke="midnightblue" d="M440.798,-285.981C461.478,-268.846 495.392,-242.509 528,-225 531.062,-223.356 534.251,-221.77 537.506,-220.25"/>
<polygon fill="midnightblue" stroke="midnightblue" points="539.073,-223.385 546.806,-216.142 536.244,-216.982 539.073,-223.385"/>
</g>
<!-- Node24&#45;&gt;Node19 -->
<g id="edge52" class="edge"><title>Node24&#45;&gt;Node19</title>
<path fill="none" stroke="midnightblue" d="M266.335,-155.074C288.687,-166.634 320.249,-180.877 350,-187 411.816,-199.722 429.971,-198.637 492,-187 508.873,-183.835 511.729,-178.475 528,-173 534.6,-170.779 541.601,-168.588 548.525,-166.516"/>
<polygon fill="midnightblue" stroke="midnightblue" points="549.946,-169.747 558.559,-163.578 547.978,-163.03 549.946,-169.747"/>
</g>
<!-- Node25 -->
<g id="node50" class="node"><title>Node25</title>
<a xlink:href="../../d6/d09/class_u_b_document_group_tree_item.html#afe019d754a5f3255c780be3af2027c0e" target="_top" xlink:title="UBDocumentGroupTreeItem\l::groupName">
<polygon fill="white" stroke="black" points="350.5,-144 350.5,-178 491.5,-178 491.5,-144 350.5,-144"/>
<text text-anchor="start" x="358.5" y="-165" font-family="Helvetica,sans-Serif" font-size="10.00">UBDocumentGroupTreeItem</text>
<text text-anchor="middle" x="421" y="-152" font-family="Helvetica,sans-Serif" font-size="10.00">::groupName</text>
</a>
</g>
<!-- Node24&#45;&gt;Node25 -->
<g id="edge50" class="edge"><title>Node24&#45;&gt;Node25</title>
<path fill="none" stroke="midnightblue" d="M295.044,-145.341C309.306,-147.114 324.795,-149.039 339.874,-150.914"/>
<polygon fill="midnightblue" stroke="midnightblue" points="339.873,-154.441 350.228,-152.201 340.737,-147.494 339.873,-154.441"/>
</g>
<!-- Node26 -->
<g id="node53" class="node"><title>Node26</title>
<a xlink:href="../../db/d66/class_u_b_settings.html#acf2a7dc86ac6849cdae8ad611ba71878" target="_top" xlink:title="UBSettings::setValue">
<polygon fill="white" stroke="black" points="365.5,-104.5 365.5,-125.5 476.5,-125.5 476.5,-104.5 365.5,-104.5"/>
<text text-anchor="middle" x="421" y="-112.5" font-family="Helvetica,sans-Serif" font-size="10.00">UBSettings::setValue</text>
</a>
</g>
<!-- Node24&#45;&gt;Node26 -->
<g id="edge54" class="edge"><title>Node24&#45;&gt;Node26</title>
<path fill="none" stroke="midnightblue" d="M295.044,-130.659C314.224,-128.275 335.623,-125.614 355.26,-123.173"/>
<polygon fill="midnightblue" stroke="midnightblue" points="355.856,-126.626 365.348,-121.919 354.992,-119.679 355.856,-126.626"/>
</g>
<!-- Node27 -->
<g id="node55" class="node"><title>Node27</title>
<a xlink:href="../../d0/dd5/class_u_b_persistence_manager.html#ad8b7a880564523143d73c6b86d887769" target="_top" xlink:title="UBPersistenceManager\l::persistenceManager">
<polygon fill="white" stroke="black" points="361,-52 361,-86 481,-86 481,-52 361,-52"/>
<text text-anchor="start" x="369" y="-73" font-family="Helvetica,sans-Serif" font-size="10.00">UBPersistenceManager</text>
<text text-anchor="middle" x="421" y="-60" font-family="Helvetica,sans-Serif" font-size="10.00">::persistenceManager</text>
</a>
</g>
<!-- Node24&#45;&gt;Node27 -->
<g id="edge56" class="edge"><title>Node24&#45;&gt;Node27</title>
<path fill="none" stroke="midnightblue" d="M280.902,-120.949C301.878,-113.013 327.198,-103.475 350,-95 354.724,-93.2443 359.627,-91.4304 364.551,-89.6153"/>
<polygon fill="midnightblue" stroke="midnightblue" points="365.825,-92.8761 374.001,-86.1383 363.408,-86.3066 365.825,-92.8761"/>
</g>
<!-- Node28 -->
<g id="node57" class="node"><title>Node28</title>
<a xlink:href="../../d0/dd5/class_u_b_persistence_manager.html#af9c60a1285be9efd821c4603540defa2" target="_top" xlink:title="UBPersistenceManager\l::closing">
<polygon fill="white" stroke="black" points="361,-0 361,-34 481,-34 481,-0 361,-0"/>
<text text-anchor="start" x="369" y="-21" font-family="Helvetica,sans-Serif" font-size="10.00">UBPersistenceManager</text>
<text text-anchor="middle" x="421" y="-8" font-family="Helvetica,sans-Serif" font-size="10.00">::closing</text>
</a>
</g>
<!-- Node24&#45;&gt;Node28 -->
<g id="edge58" class="edge"><title>Node24&#45;&gt;Node28</title>
<path fill="none" stroke="midnightblue" d="M252.734,-120.811C273.789,-99.9967 311.832,-65.0001 350,-43 352.843,-41.3612 355.808,-39.7945 358.844,-38.3014"/>
<polygon fill="midnightblue" stroke="midnightblue" points="360.487,-41.3987 368.114,-34.0449 357.565,-35.0373 360.487,-41.3987"/>
</g>
</g>
</svg>
