<?xml version="1.0" encoding="UTF-8" standalone="no"?>
<!DOCTYPE svg PUBLIC "-//W3C//DTD SVG 1.1//EN"
 "http://www.w3.org/Graphics/SVG/1.1/DTD/svg11.dtd">
<!-- Generated by graphviz version 2.26.3 (20100126.1600)
 -->
<!-- Title: UBApplicationController::adjustDisplayView Pages: 1 -->
<svg width="1438pt" height="428pt"
 viewBox="0.00 0.00 1438.00 428.00" xmlns="http://www.w3.org/2000/svg" xmlns:xlink="http://www.w3.org/1999/xlink">
<g id="graph1" class="graph" transform="scale(1 1) rotate(0) translate(4 424)">
<title>UBApplicationController::adjustDisplayView</title>
<polygon fill="white" stroke="white" points="-4,5 -4,-424 1435,-424 1435,5 -4,5"/>
<!-- Node1 -->
<g id="node1" class="node"><title>Node1</title>
<polygon fill="#bfbfbf" stroke="black" points="0.5,-223 0.5,-257 121.5,-257 121.5,-223 0.5,-223"/>
<text text-anchor="start" x="8.5" y="-244" font-family="Helvetica,sans-Serif" font-size="10.00">UBApplicationController</text>
<text text-anchor="middle" x="61" y="-231" font-family="Helvetica,sans-Serif" font-size="10.00">::adjustDisplayView</text>
</g>
<!-- Node2 -->
<g id="node3" class="node"><title>Node2</title>
<a xlink:href="../../da/d14/class_u_b_application_controller.html#a72e23efbc98ad6be861a48630cafdccb" target="_top" xlink:title="UBApplicationController\l::screenLayoutChanged">
<polygon fill="white" stroke="black" points="158.5,-336 158.5,-370 279.5,-370 279.5,-336 158.5,-336"/>
<text text-anchor="start" x="166.5" y="-357" font-family="Helvetica,sans-Serif" font-size="10.00">UBApplicationController</text>
<text text-anchor="middle" x="219" y="-344" font-family="Helvetica,sans-Serif" font-size="10.00">::screenLayoutChanged</text>
</a>
</g>
<!-- Node1&#45;&gt;Node2 -->
<g id="edge2" class="edge"><title>Node1&#45;&gt;Node2</title>
<path fill="none" stroke="midnightblue" d="M93.4957,-263.241C123.685,-284.832 167.944,-316.485 195.037,-335.862"/>
<polygon fill="midnightblue" stroke="midnightblue" points="95.1667,-260.133 84.9968,-257.162 91.0946,-265.826 95.1667,-260.133"/>
</g>
<!-- Node4 -->
<g id="node7" class="node"><title>Node4</title>
<a xlink:href="../../d7/d62/class_u_b_board_controller.html#adbaa867e0f26de80826355c25fe41d82" target="_top" xlink:title="UBBoardController:\l:centerOn">
<polygon fill="white" stroke="black" points="168.5,-258 168.5,-292 269.5,-292 269.5,-258 168.5,-258"/>
<text text-anchor="start" x="176.5" y="-279" font-family="Helvetica,sans-Serif" font-size="10.00">UBBoardController:</text>
<text text-anchor="middle" x="219" y="-266" font-family="Helvetica,sans-Serif" font-size="10.00">:centerOn</text>
</a>
</g>
<!-- Node1&#45;&gt;Node4 -->
<g id="edge6" class="edge"><title>Node1&#45;&gt;Node4</title>
<path fill="none" stroke="midnightblue" d="M131.49,-255.615C143.884,-258.36 156.561,-261.169 168.281,-263.765"/>
<polygon fill="midnightblue" stroke="midnightblue" points="132.155,-252.177 121.635,-253.432 130.641,-259.012 132.155,-252.177"/>
</g>
<!-- Node18 -->
<g id="node39" class="node"><title>Node18</title>
<a xlink:href="../../d7/d62/class_u_b_board_controller.html#ade5522bea3f3045a0da1dda6853b3cce" target="_top" xlink:title="UBBoardController::zoom">
<polygon fill="white" stroke="black" points="334,-85.5 334,-106.5 462,-106.5 462,-85.5 334,-85.5"/>
<text text-anchor="middle" x="398" y="-93.5" font-family="Helvetica,sans-Serif" font-size="10.00">UBBoardController::zoom</text>
</a>
</g>
<!-- Node1&#45;&gt;Node18 -->
<g id="edge42" class="edge"><title>Node1&#45;&gt;Node18</title>
<path fill="none" stroke="midnightblue" d="M94.3454,-217.237C112.661,-205.288 136.056,-190.905 158,-180 225.409,-146.501 244.57,-142.747 316,-119 329.329,-114.569 344.058,-110.259 357.312,-106.591"/>
<polygon fill="midnightblue" stroke="midnightblue" points="92.2098,-214.453 85.7909,-222.882 96.0652,-220.296 92.2098,-214.453"/>
</g>
<!-- Node26 -->
<g id="node59" class="node"><title>Node26</title>
<a xlink:href="../../d7/d62/class_u_b_board_controller.html#a313ec9c04c62913c305ac521ae649467" target="_top" xlink:title="UBBoardController:\l:handScroll">
<polygon fill="white" stroke="black" points="168.5,-189 168.5,-223 269.5,-223 269.5,-189 168.5,-189"/>
<text text-anchor="start" x="176.5" y="-210" font-family="Helvetica,sans-Serif" font-size="10.00">UBBoardController:</text>
<text text-anchor="middle" x="219" y="-197" font-family="Helvetica,sans-Serif" font-size="10.00">:handScroll</text>
</a>
</g>
<!-- Node1&#45;&gt;Node26 -->
<g id="edge66" class="edge"><title>Node1&#45;&gt;Node26</title>
<path fill="none" stroke="midnightblue" d="M131.49,-224.831C143.884,-222.164 156.561,-219.436 168.281,-216.914"/>
<polygon fill="midnightblue" stroke="midnightblue" points="130.675,-221.426 121.635,-226.952 132.148,-228.27 130.675,-221.426"/>
</g>
<!-- Node3 -->
<g id="node5" class="node"><title>Node3</title>
<a xlink:href="../../da/d14/class_u_b_application_controller.html#a9b13846d29481cee9b89b5177ff2b3f4" target="_top" xlink:title="UBApplicationController\l::UBApplicationController">
<polygon fill="white" stroke="black" points="334.5,-362 334.5,-396 461.5,-396 461.5,-362 334.5,-362"/>
<text text-anchor="start" x="342.5" y="-383" font-family="Helvetica,sans-Serif" font-size="10.00">UBApplicationController</text>
<text text-anchor="middle" x="398" y="-370" font-family="Helvetica,sans-Serif" font-size="10.00">::UBApplicationController</text>
</a>
</g>
<!-- Node2&#45;&gt;Node3 -->
<g id="edge4" class="edge"><title>Node2&#45;&gt;Node3</title>
<path fill="none" stroke="midnightblue" d="M289.684,-363.267C304.444,-365.411 319.919,-367.659 334.403,-369.762"/>
<polygon fill="midnightblue" stroke="midnightblue" points="290.001,-359.776 279.601,-361.802 288.994,-366.704 290.001,-359.776"/>
</g>
<!-- Node5 -->
<g id="node9" class="node"><title>Node5</title>
<a xlink:href="../../d7/d62/class_u_b_board_controller.html#a05fa2d82c7201cf4d833b4a6366db700" target="_top" xlink:title="UBBoardController:\l:centerRestore">
<polygon fill="white" stroke="black" points="347.5,-310 347.5,-344 448.5,-344 448.5,-310 347.5,-310"/>
<text text-anchor="start" x="355.5" y="-331" font-family="Helvetica,sans-Serif" font-size="10.00">UBBoardController:</text>
<text text-anchor="middle" x="398" y="-318" font-family="Helvetica,sans-Serif" font-size="10.00">:centerRestore</text>
</a>
</g>
<!-- Node4&#45;&gt;Node5 -->
<g id="edge8" class="edge"><title>Node4&#45;&gt;Node5</title>
<path fill="none" stroke="midnightblue" d="M279.423,-292.553C301.502,-298.967 326.23,-306.151 347.368,-312.291"/>
<polygon fill="midnightblue" stroke="midnightblue" points="280.395,-289.191 269.815,-289.762 278.442,-295.913 280.395,-289.191"/>
</g>
<!-- Node17 -->
<g id="node37" class="node"><title>Node17</title>
<a xlink:href="../../d5/d2b/class_u_b_widget_uniboard_a_p_i.html#a7e1a78f50c82b289fcec72f357394a05" target="_top" xlink:title="UBWidgetUniboardAPI\l::centerOn">
<polygon fill="white" stroke="black" points="339.5,-258 339.5,-292 456.5,-292 456.5,-258 339.5,-258"/>
<text text-anchor="start" x="347.5" y="-279" font-family="Helvetica,sans-Serif" font-size="10.00">UBWidgetUniboardAPI</text>
<text text-anchor="middle" x="398" y="-266" font-family="Helvetica,sans-Serif" font-size="10.00">::centerOn</text>
</a>
</g>
<!-- Node4&#45;&gt;Node17 -->
<g id="edge40" class="edge"><title>Node4&#45;&gt;Node17</title>
<path fill="none" stroke="midnightblue" d="M279.973,-275C299.211,-275 320.411,-275 339.474,-275"/>
<polygon fill="midnightblue" stroke="midnightblue" points="279.815,-271.5 269.815,-275 279.815,-278.5 279.815,-271.5"/>
</g>
<!-- Node6 -->
<g id="node11" class="node"><title>Node6</title>
<a xlink:href="../../d7/d62/class_u_b_board_controller.html#a6bba5ca7dd09235d5b31b19ad6e71cec" target="_top" xlink:title="UBBoardController:\l:stylusToolDoubleClicked">
<polygon fill="white" stroke="black" points="756,-310 756,-344 884,-344 884,-310 756,-310"/>
<text text-anchor="start" x="764" y="-331" font-family="Helvetica,sans-Serif" font-size="10.00">UBBoardController:</text>
<text text-anchor="middle" x="820" y="-318" font-family="Helvetica,sans-Serif" font-size="10.00">:stylusToolDoubleClicked</text>
</a>
</g>
<!-- Node5&#45;&gt;Node6 -->
<g id="edge10" class="edge"><title>Node5&#45;&gt;Node6</title>
<path fill="none" stroke="midnightblue" d="M459.193,-327C538.268,-327 675.315,-327 755.819,-327"/>
<polygon fill="midnightblue" stroke="midnightblue" points="458.903,-323.5 448.903,-327 458.903,-330.5 458.903,-323.5"/>
</g>
<!-- Node7 -->
<g id="node13" class="node"><title>Node7</title>
<a xlink:href="../../d7/d62/class_u_b_board_controller.html#a0df0eca517bd4e5754f49ce1395ec1b1" target="_top" xlink:title="UBBoardController:\l:zoomRestore">
<polygon fill="white" stroke="black" points="558.5,-258 558.5,-292 659.5,-292 659.5,-258 558.5,-258"/>
<text text-anchor="start" x="566.5" y="-279" font-family="Helvetica,sans-Serif" font-size="10.00">UBBoardController:</text>
<text text-anchor="middle" x="609" y="-266" font-family="Helvetica,sans-Serif" font-size="10.00">:zoomRestore</text>
</a>
</g>
<!-- Node5&#45;&gt;Node7 -->
<g id="edge12" class="edge"><title>Node5&#45;&gt;Node7</title>
<path fill="none" stroke="midnightblue" d="M458.524,-312.084C490.047,-304.316 528.16,-294.923 558.141,-287.534"/>
<polygon fill="midnightblue" stroke="midnightblue" points="457.412,-308.753 448.54,-314.545 459.087,-315.55 457.412,-308.753"/>
</g>
<!-- Node15 -->
<g id="node31" class="node"><title>Node15</title>
<a xlink:href="../../dc/d38/class_u_b_board_palette_manager.html#aa645559babafcde7a56e954bea0fec5d" target="_top" xlink:title="UBBoardPaletteManager\l::panButtonReleased">
<polygon fill="white" stroke="black" points="757.5,-362 757.5,-396 882.5,-396 882.5,-362 757.5,-362"/>
<text text-anchor="start" x="765.5" y="-383" font-family="Helvetica,sans-Serif" font-size="10.00">UBBoardPaletteManager</text>
<text text-anchor="middle" x="820" y="-370" font-family="Helvetica,sans-Serif" font-size="10.00">::panButtonReleased</text>
</a>
</g>
<!-- Node5&#45;&gt;Node15 -->
<g id="edge32" class="edge"><title>Node5&#45;&gt;Node15</title>
<path fill="none" stroke="midnightblue" d="M459.254,-334.548C538.81,-344.351 676.969,-361.375 757.251,-371.268"/>
<polygon fill="midnightblue" stroke="midnightblue" points="459.256,-331.022 448.903,-333.272 458.4,-337.969 459.256,-331.022"/>
</g>
<!-- Node7&#45;&gt;Node6 -->
<g id="edge14" class="edge"><title>Node7&#45;&gt;Node6</title>
<path fill="none" stroke="midnightblue" d="M669.277,-289.855C696.357,-296.529 728.34,-304.411 755.862,-311.193"/>
<polygon fill="midnightblue" stroke="midnightblue" points="670.087,-286.45 659.54,-287.455 668.412,-293.247 670.087,-286.45"/>
</g>
<!-- Node8 -->
<g id="node16" class="node"><title>Node8</title>
<a xlink:href="../../dc/d38/class_u_b_board_palette_manager.html#a6cf926e346fc40b30c864e3680489a76" target="_top" xlink:title="UBBoardPaletteManager\l::zoomButtonReleased">
<polygon fill="white" stroke="black" points="757.5,-258 757.5,-292 882.5,-292 882.5,-258 757.5,-258"/>
<text text-anchor="start" x="765.5" y="-279" font-family="Helvetica,sans-Serif" font-size="10.00">UBBoardPaletteManager</text>
<text text-anchor="middle" x="820" y="-266" font-family="Helvetica,sans-Serif" font-size="10.00">::zoomButtonReleased</text>
</a>
</g>
<!-- Node7&#45;&gt;Node8 -->
<g id="edge16" class="edge"><title>Node7&#45;&gt;Node8</title>
<path fill="none" stroke="midnightblue" d="M669.809,-275C697.289,-275 729.733,-275 757.421,-275"/>
<polygon fill="midnightblue" stroke="midnightblue" points="669.54,-271.5 659.54,-275 669.54,-278.5 669.54,-271.5"/>
</g>
<!-- Node12 -->
<g id="node25" class="node"><title>Node12</title>
<a xlink:href="../../d1/d78/class_u_b_board_view.html#a9216e870eac1d8f36049186dc8ab1410" target="_top" xlink:title="UBBoardView::keyPressEvent">
<polygon fill="white" stroke="black" points="744.5,-156.5 744.5,-177.5 895.5,-177.5 895.5,-156.5 744.5,-156.5"/>
<text text-anchor="middle" x="820" y="-164.5" font-family="Helvetica,sans-Serif" font-size="10.00">UBBoardView::keyPressEvent</text>
</a>
</g>
<!-- Node7&#45;&gt;Node12 -->
<g id="edge26" class="edge"><title>Node7&#45;&gt;Node12</title>
<path fill="none" stroke="midnightblue" d="M669.719,-263.385C680.937,-259.776 692.194,-255.084 702,-249 722.324,-236.391 719.042,-223.582 738,-209 754.989,-195.932 776.659,-185.038 793.456,-177.621"/>
<polygon fill="midnightblue" stroke="midnightblue" points="668.505,-260.094 659.908,-266.285 670.49,-266.806 668.505,-260.094"/>
</g>
<!-- Node13 -->
<g id="node27" class="node"><title>Node13</title>
<a xlink:href="../../db/dbc/class_u_b_zoom_palette.html#a437798f0413c23b772d8d2c164d20593" target="_top" xlink:title="UBZoomPalette::goHundred">
<polygon fill="white" stroke="black" points="750,-218.5 750,-239.5 890,-239.5 890,-218.5 750,-218.5"/>
<text text-anchor="middle" x="820" y="-226.5" font-family="Helvetica,sans-Serif" font-size="10.00">UBZoomPalette::goHundred</text>
</a>
</g>
<!-- Node7&#45;&gt;Node13 -->
<g id="edge28" class="edge"><title>Node7&#45;&gt;Node13</title>
<path fill="none" stroke="midnightblue" d="M669.368,-261.839C701.819,-254.765 741.291,-246.159 771.686,-239.533"/>
<polygon fill="midnightblue" stroke="midnightblue" points="668.565,-258.432 659.54,-263.982 670.056,-265.271 668.565,-258.432"/>
</g>
<!-- Node9 -->
<g id="node18" class="node"><title>Node9</title>
<a xlink:href="../../dc/d38/class_u_b_board_palette_manager.html#a10b4f132aa36e4f99495aa9442fbac23" target="_top" xlink:title="UBBoardPaletteManager\l::connectPalettes">
<polygon fill="white" stroke="black" points="1136.5,-322 1136.5,-356 1261.5,-356 1261.5,-322 1136.5,-322"/>
<text text-anchor="start" x="1144.5" y="-343" font-family="Helvetica,sans-Serif" font-size="10.00">UBBoardPaletteManager</text>
<text text-anchor="middle" x="1199" y="-330" font-family="Helvetica,sans-Serif" font-size="10.00">::connectPalettes</text>
</a>
</g>
<!-- Node8&#45;&gt;Node9 -->
<g id="edge18" class="edge"><title>Node8&#45;&gt;Node9</title>
<path fill="none" stroke="midnightblue" d="M892.792,-291.903C907.706,-295.122 923.329,-298.319 938,-301 1005.45,-313.325 1083.3,-324.234 1136.3,-331.165"/>
<polygon fill="midnightblue" stroke="midnightblue" points="893.116,-288.391 882.6,-289.676 891.622,-295.23 893.116,-288.391"/>
</g>
<!-- Node11 -->
<g id="node22" class="node"><title>Node11</title>
<a xlink:href="../../dc/d38/class_u_b_board_palette_manager.html#a30956e342957e4ae27f7e37cc8d6bd49" target="_top" xlink:title="UBBoardPaletteManager\l::zoomButtonPressed">
<polygon fill="white" stroke="black" points="956.5,-258 956.5,-292 1081.5,-292 1081.5,-258 956.5,-258"/>
<text text-anchor="start" x="964.5" y="-279" font-family="Helvetica,sans-Serif" font-size="10.00">UBBoardPaletteManager</text>
<text text-anchor="middle" x="1019" y="-266" font-family="Helvetica,sans-Serif" font-size="10.00">::zoomButtonPressed</text>
</a>
</g>
<!-- Node8&#45;&gt;Node11 -->
<g id="edge22" class="edge"><title>Node8&#45;&gt;Node11</title>
<path fill="none" stroke="midnightblue" d="M892.764,-275C913.593,-275 936.111,-275 956.282,-275"/>
<polygon fill="midnightblue" stroke="midnightblue" points="892.692,-271.5 882.692,-275 892.692,-278.5 892.692,-271.5"/>
</g>
<!-- Node10 -->
<g id="node20" class="node"><title>Node10</title>
<a xlink:href="../../dc/d38/class_u_b_board_palette_manager.html#ab2ca22bf5af16f59e273a72731a138ae" target="_top" xlink:title="UBBoardPaletteManager\l::UBBoardPaletteManager">
<polygon fill="white" stroke="black" points="1298.5,-322 1298.5,-356 1429.5,-356 1429.5,-322 1298.5,-322"/>
<text text-anchor="start" x="1306.5" y="-343" font-family="Helvetica,sans-Serif" font-size="10.00">UBBoardPaletteManager</text>
<text text-anchor="middle" x="1364" y="-330" font-family="Helvetica,sans-Serif" font-size="10.00">::UBBoardPaletteManager</text>
</a>
</g>
<!-- Node9&#45;&gt;Node10 -->
<g id="edge20" class="edge"><title>Node9&#45;&gt;Node10</title>
<path fill="none" stroke="midnightblue" d="M1272.03,-339C1280.78,-339 1289.67,-339 1298.31,-339"/>
<polygon fill="midnightblue" stroke="midnightblue" points="1271.85,-335.5 1261.85,-339 1271.85,-342.5 1271.85,-335.5"/>
</g>
<!-- Node11&#45;&gt;Node9 -->
<g id="edge24" class="edge"><title>Node11&#45;&gt;Node9</title>
<path fill="none" stroke="midnightblue" d="M1076.9,-295.586C1100.8,-304.084 1128.18,-313.818 1150.94,-321.913"/>
<polygon fill="midnightblue" stroke="midnightblue" points="1077.83,-292.203 1067.24,-292.151 1075.49,-298.799 1077.83,-292.203"/>
</g>
<!-- Node14 -->
<g id="node29" class="node"><title>Node14</title>
<a xlink:href="../../db/dbc/class_u_b_zoom_palette.html#a7f74e9a8df1069509c0ae86bbfec0c57" target="_top" xlink:title="UBZoomPalette::UBZoomPalette">
<polygon fill="white" stroke="black" points="938,-218.5 938,-239.5 1100,-239.5 1100,-218.5 938,-218.5"/>
<text text-anchor="middle" x="1019" y="-226.5" font-family="Helvetica,sans-Serif" font-size="10.00">UBZoomPalette::UBZoomPalette</text>
</a>
</g>
<!-- Node13&#45;&gt;Node14 -->
<g id="edge30" class="edge"><title>Node13&#45;&gt;Node14</title>
<path fill="none" stroke="midnightblue" d="M900.425,-229C912.78,-229 925.544,-229 937.913,-229"/>
<polygon fill="midnightblue" stroke="midnightblue" points="900.16,-225.5 890.16,-229 900.16,-232.5 900.16,-225.5"/>
</g>
<!-- Node15&#45;&gt;Node9 -->
<g id="edge34" class="edge"><title>Node15&#45;&gt;Node9</title>
<path fill="none" stroke="midnightblue" d="M892.734,-371.324C963.33,-363.873 1069.36,-352.683 1136.32,-345.615"/>
<polygon fill="midnightblue" stroke="midnightblue" points="892.162,-367.864 882.584,-372.395 892.896,-374.826 892.162,-367.864"/>
</g>
<!-- Node16 -->
<g id="node34" class="node"><title>Node16</title>
<a xlink:href="../../dc/d38/class_u_b_board_palette_manager.html#a664c10cf1683712e650606d33711b12a" target="_top" xlink:title="UBBoardPaletteManager\l::panButtonPressed">
<polygon fill="white" stroke="black" points="956.5,-386 956.5,-420 1081.5,-420 1081.5,-386 956.5,-386"/>
<text text-anchor="start" x="964.5" y="-407" font-family="Helvetica,sans-Serif" font-size="10.00">UBBoardPaletteManager</text>
<text text-anchor="middle" x="1019" y="-394" font-family="Helvetica,sans-Serif" font-size="10.00">::panButtonPressed</text>
</a>
</g>
<!-- Node15&#45;&gt;Node16 -->
<g id="edge36" class="edge"><title>Node15&#45;&gt;Node16</title>
<path fill="none" stroke="midnightblue" d="M892.764,-387.776C913.593,-390.288 936.111,-393.003 956.282,-395.436"/>
<polygon fill="midnightblue" stroke="midnightblue" points="893.039,-384.283 882.692,-386.561 892.201,-391.233 893.039,-384.283"/>
</g>
<!-- Node16&#45;&gt;Node9 -->
<g id="edge38" class="edge"><title>Node16&#45;&gt;Node9</title>
<path fill="none" stroke="midnightblue" d="M1076.9,-382.414C1100.8,-373.916 1128.18,-364.182 1150.94,-356.087"/>
<polygon fill="midnightblue" stroke="midnightblue" points="1075.49,-379.201 1067.24,-385.849 1077.83,-385.797 1075.49,-379.201"/>
</g>
<!-- Node19 -->
<g id="node41" class="node"><title>Node19</title>
<a xlink:href="../../d7/d62/class_u_b_board_controller.html#a8ba0b7e674be504d0547c6ce94a92a4b" target="_top" xlink:title="UBBoardController:\l:zoomIn">
<polygon fill="white" stroke="black" points="558.5,-24 558.5,-58 659.5,-58 659.5,-24 558.5,-24"/>
<text text-anchor="start" x="566.5" y="-45" font-family="Helvetica,sans-Serif" font-size="10.00">UBBoardController:</text>
<text text-anchor="middle" x="609" y="-32" font-family="Helvetica,sans-Serif" font-size="10.00">:zoomIn</text>
</a>
</g>
<!-- Node18&#45;&gt;Node19 -->
<g id="edge44" class="edge"><title>Node18&#45;&gt;Node19</title>
<path fill="none" stroke="midnightblue" d="M448.649,-82.7976C481.875,-74.1368 525.156,-62.8551 558.376,-54.1957"/>
<polygon fill="midnightblue" stroke="midnightblue" points="447.477,-79.4862 438.683,-85.3954 449.242,-86.2599 447.477,-79.4862"/>
</g>
<!-- Node24 -->
<g id="node53" class="node"><title>Node24</title>
<a xlink:href="../../d7/d62/class_u_b_board_controller.html#adb10d5b0dbccf7ccb1b92f8840ad3621" target="_top" xlink:title="UBBoardController:\l:zoomOut">
<polygon fill="white" stroke="black" points="558.5,-128 558.5,-162 659.5,-162 659.5,-128 558.5,-128"/>
<text text-anchor="start" x="566.5" y="-149" font-family="Helvetica,sans-Serif" font-size="10.00">UBBoardController:</text>
<text text-anchor="middle" x="609" y="-136" font-family="Helvetica,sans-Serif" font-size="10.00">:zoomOut</text>
</a>
</g>
<!-- Node18&#45;&gt;Node24 -->
<g id="edge58" class="edge"><title>Node18&#45;&gt;Node24</title>
<path fill="none" stroke="midnightblue" d="M453.074,-108.79C485.61,-116.345 526.512,-125.844 558.26,-133.217"/>
<polygon fill="midnightblue" stroke="midnightblue" points="453.797,-105.365 443.265,-106.512 452.214,-112.183 453.797,-105.365"/>
</g>
<!-- Node25 -->
<g id="node57" class="node"><title>Node25</title>
<a xlink:href="../../d5/d2b/class_u_b_widget_uniboard_a_p_i.html#af20ee99e10a36cc9c576242c0ac97a23" target="_top" xlink:title="UBWidgetUniboardAPI\l::zoom">
<polygon fill="white" stroke="black" points="550.5,-76 550.5,-110 667.5,-110 667.5,-76 550.5,-76"/>
<text text-anchor="start" x="558.5" y="-97" font-family="Helvetica,sans-Serif" font-size="10.00">UBWidgetUniboardAPI</text>
<text text-anchor="middle" x="609" y="-84" font-family="Helvetica,sans-Serif" font-size="10.00">::zoom</text>
</a>
</g>
<!-- Node18&#45;&gt;Node25 -->
<g id="edge64" class="edge"><title>Node18&#45;&gt;Node25</title>
<path fill="none" stroke="midnightblue" d="M472.187,-94.9452C497.748,-94.5818 526.006,-94.18 550.172,-93.8364"/>
<polygon fill="midnightblue" stroke="midnightblue" points="472.116,-91.4458 462.166,-95.0877 472.215,-98.4451 472.116,-91.4458"/>
</g>
<!-- Node19&#45;&gt;Node12 -->
<g id="edge46" class="edge"><title>Node19&#45;&gt;Node12</title>
<path fill="none" stroke="midnightblue" d="M669.793,-51.7998C681.098,-55.4831 692.368,-60.4111 702,-67 724.01,-82.0561 718.42,-96.8968 738,-115 756.566,-132.166 781.528,-147.068 799.016,-156.466"/>
<polygon fill="midnightblue" stroke="midnightblue" points="670.472,-48.3508 659.89,-48.873 668.488,-55.0638 670.472,-48.3508"/>
</g>
<!-- Node20 -->
<g id="node44" class="node"><title>Node20</title>
<a xlink:href="../../d1/d78/class_u_b_board_view.html#a6fc3391590c435e0ae26c43d2bd76d14" target="_top" xlink:title="UBBoardView::mousePressEvent">
<polygon fill="white" stroke="black" points="738,-84.5 738,-105.5 902,-105.5 902,-84.5 738,-84.5"/>
<text text-anchor="middle" x="820" y="-92.5" font-family="Helvetica,sans-Serif" font-size="10.00">UBBoardView::mousePressEvent</text>
</a>
</g>
<!-- Node19&#45;&gt;Node20 -->
<g id="edge48" class="edge"><title>Node19&#45;&gt;Node20</title>
<path fill="none" stroke="midnightblue" d="M669.64,-56.5192C704.609,-65.4688 747.66,-76.4863 778.721,-84.4357"/>
<polygon fill="midnightblue" stroke="midnightblue" points="670.095,-53.023 659.54,-53.9343 668.36,-59.8045 670.095,-53.023"/>
</g>
<!-- Node21 -->
<g id="node46" class="node"><title>Node21</title>
<a xlink:href="../../d1/d78/class_u_b_board_view.html#a1818c4d69a09adc9bb98079d2210564d" target="_top" xlink:title="UBBoardView::handleItemMouse\lPress">
<polygon fill="white" stroke="black" points="938.5,-104 938.5,-138 1099.5,-138 1099.5,-104 938.5,-104"/>
<text text-anchor="start" x="946.5" y="-125" font-family="Helvetica,sans-Serif" font-size="10.00">UBBoardView::handleItemMouse</text>
<text text-anchor="middle" x="1019" y="-112" font-family="Helvetica,sans-Serif" font-size="10.00">Press</text>
</a>
</g>
<!-- Node20&#45;&gt;Node21 -->
<g id="edge50" class="edge"><title>Node20&#45;&gt;Node21</title>
<path fill="none" stroke="midnightblue" d="M912.256,-100.319C921.305,-101.462 930.434,-102.69 939.342,-103.963"/>
<polygon fill="midnightblue" stroke="midnightblue" points="912.443,-96.8161 902.09,-99.068 911.587,-103.764 912.443,-96.8161"/>
</g>
<!-- Node22 -->
<g id="node49" class="node"><title>Node22</title>
<a xlink:href="../../d1/d78/class_u_b_board_view.html#acc4206bbb27829580a337c81708be4a3" target="_top" xlink:title="UBBoardView::mouseRelease\lEvent">
<polygon fill="white" stroke="black" points="944.5,-52 944.5,-86 1093.5,-86 1093.5,-52 944.5,-52"/>
<text text-anchor="start" x="952.5" y="-73" font-family="Helvetica,sans-Serif" font-size="10.00">UBBoardView::mouseRelease</text>
<text text-anchor="middle" x="1019" y="-60" font-family="Helvetica,sans-Serif" font-size="10.00">Event</text>
</a>
</g>
<!-- Node20&#45;&gt;Node22 -->
<g id="edge54" class="edge"><title>Node20&#45;&gt;Node22</title>
<path fill="none" stroke="midnightblue" d="M910.338,-83.1971C921.748,-81.7063 933.32,-80.1944 944.448,-78.7405"/>
<polygon fill="midnightblue" stroke="midnightblue" points="909.83,-79.7336 900.367,-84.4997 910.736,-86.6746 909.83,-79.7336"/>
</g>
<!-- Node23 -->
<g id="node51" class="node"><title>Node23</title>
<a xlink:href="../../d1/d78/class_u_b_board_view.html#a43eb1207291905e9daa7c618a3c203bb" target="_top" xlink:title="UBBoardView::mouseDouble\lClickEvent">
<polygon fill="white" stroke="black" points="947,-0 947,-34 1091,-34 1091,-0 947,-0"/>
<text text-anchor="start" x="955" y="-21" font-family="Helvetica,sans-Serif" font-size="10.00">UBBoardView::mouseDouble</text>
<text text-anchor="middle" x="1019" y="-8" font-family="Helvetica,sans-Serif" font-size="10.00">ClickEvent</text>
</a>
</g>
<!-- Node20&#45;&gt;Node23 -->
<g id="edge56" class="edge"><title>Node20&#45;&gt;Node23</title>
<path fill="none" stroke="midnightblue" d="M851.488,-80.0492C875.046,-69.1279 908.2,-54.3134 938,-43 946.008,-39.9596 954.546,-36.9624 962.961,-34.1447"/>
<polygon fill="midnightblue" stroke="midnightblue" points="849.913,-76.9219 842.331,-84.3223 852.873,-83.2652 849.913,-76.9219"/>
</g>
<!-- Node21&#45;&gt;Node20 -->
<g id="edge52" class="edge"><title>Node21&#45;&gt;Node20</title>
<path fill="none" stroke="midnightblue" d="M928.235,-115.868C903.833,-112.81 878.724,-109.114 858.842,-105.556"/>
<polygon fill="midnightblue" stroke="midnightblue" points="927.915,-119.355 938.265,-117.094 928.764,-112.407 927.915,-119.355"/>
</g>
<!-- Node24&#45;&gt;Node12 -->
<g id="edge60" class="edge"><title>Node24&#45;&gt;Node12</title>
<path fill="none" stroke="midnightblue" d="M669.62,-151.321C692.901,-153.748 719.765,-156.549 744.29,-159.106"/>
<polygon fill="midnightblue" stroke="midnightblue" points="669.849,-147.826 659.54,-150.27 669.123,-154.788 669.849,-147.826"/>
</g>
<!-- Node24&#45;&gt;Node20 -->
<g id="edge62" class="edge"><title>Node24&#45;&gt;Node20</title>
<path fill="none" stroke="midnightblue" d="M669.329,-130.704C703.199,-122.678 744.726,-112.837 775.601,-105.521"/>
<polygon fill="midnightblue" stroke="midnightblue" points="668.463,-127.312 659.54,-133.024 670.077,-134.124 668.463,-127.312"/>
</g>
<!-- Node26&#45;&gt;Node12 -->
<g id="edge68" class="edge"><title>Node26&#45;&gt;Node12</title>
<path fill="none" stroke="midnightblue" d="M279.703,-202.061C390.19,-194.891 623.834,-179.73 744.439,-171.903"/>
<polygon fill="midnightblue" stroke="midnightblue" points="279.475,-198.568 269.723,-202.708 279.929,-205.553 279.475,-198.568"/>
</g>
<!-- Node27 -->
<g id="node62" class="node"><title>Node27</title>
<a xlink:href="../../d1/d78/class_u_b_board_view.html#adf1b48aff41094593ba1054627b4c52b" target="_top" xlink:title="UBBoardView::mouseMoveEvent">
<polygon fill="white" stroke="black" points="316.5,-218.5 316.5,-239.5 479.5,-239.5 479.5,-218.5 316.5,-218.5"/>
<text text-anchor="middle" x="398" y="-226.5" font-family="Helvetica,sans-Serif" font-size="10.00">UBBoardView::mouseMoveEvent</text>
</a>
</g>
<!-- Node26&#45;&gt;Node27 -->
<g id="edge70" class="edge"><title>Node26&#45;&gt;Node27</title>
<path fill="none" stroke="midnightblue" d="M279.885,-213.823C291.583,-215.326 304.01,-216.923 316.243,-218.495"/>
<polygon fill="midnightblue" stroke="midnightblue" points="280.18,-210.332 269.815,-212.529 279.288,-217.275 280.18,-210.332"/>
</g>
<!-- Node29 -->
<g id="node67" class="node"><title>Node29</title>
<a xlink:href="../../d5/d2b/class_u_b_widget_uniboard_a_p_i.html#ab2f0322191a207b1580b1f494c597861" target="_top" xlink:title="UBWidgetUniboardAPI\l::move">
<polygon fill="white" stroke="black" points="339.5,-128 339.5,-162 456.5,-162 456.5,-128 339.5,-128"/>
<text text-anchor="start" x="347.5" y="-149" font-family="Helvetica,sans-Serif" font-size="10.00">UBWidgetUniboardAPI</text>
<text text-anchor="middle" x="398" y="-136" font-family="Helvetica,sans-Serif" font-size="10.00">::move</text>
</a>
</g>
<!-- Node26&#45;&gt;Node29 -->
<g id="edge76" class="edge"><title>Node26&#45;&gt;Node29</title>
<path fill="none" stroke="midnightblue" d="M279.079,-185.526C301.479,-177.892 326.646,-169.316 348.04,-162.025"/>
<polygon fill="midnightblue" stroke="midnightblue" points="277.674,-182.307 269.338,-188.846 279.932,-188.933 277.674,-182.307"/>
</g>
<!-- Node28 -->
<g id="node64" class="node"><title>Node28</title>
<a xlink:href="../../d1/d78/class_u_b_board_view.html#aa0ffd2f772d688eb459b316c36404188" target="_top" xlink:title="UBBoardView::handleItemMouseMove">
<polygon fill="white" stroke="black" points="516.5,-218.5 516.5,-239.5 701.5,-239.5 701.5,-218.5 516.5,-218.5"/>
<text text-anchor="middle" x="609" y="-226.5" font-family="Helvetica,sans-Serif" font-size="10.00">UBBoardView::handleItemMouseMove</text>
</a>
</g>
<!-- Node27&#45;&gt;Node28 -->
<g id="edge72" class="edge"><title>Node27&#45;&gt;Node28</title>
<path fill="none" stroke="midnightblue" d="M489.844,-222.301C498.652,-222.235 507.589,-222.233 516.404,-222.295"/>
<polygon fill="midnightblue" stroke="midnightblue" points="489.541,-218.803 479.578,-222.407 489.614,-225.803 489.541,-218.803"/>
</g>
<!-- Node28&#45;&gt;Node27 -->
<g id="edge74" class="edge"><title>Node28&#45;&gt;Node27</title>
<path fill="none" stroke="midnightblue" d="M506.304,-235.748C497.336,-235.761 488.341,-235.71 479.578,-235.593"/>
<polygon fill="midnightblue" stroke="midnightblue" points="506.419,-239.248 516.404,-235.705 506.39,-232.248 506.419,-239.248"/>
</g>
</g>
</svg>
