<?xml version="1.0" encoding="UTF-8" standalone="no"?>
<!DOCTYPE svg PUBLIC "-//W3C//DTD SVG 1.1//EN"
 "http://www.w3.org/Graphics/SVG/1.1/DTD/svg11.dtd">
<!-- Generated by graphviz version 2.26.3 (20100126.1600)
 -->
<!-- Title: Sankore&#45;3.1/src/pdf&#45;merger/DCTDecode.h Pages: 1 -->
<svg width="254pt" height="116pt"
 viewBox="0.00 0.00 254.00 116.00" xmlns="http://www.w3.org/2000/svg" xmlns:xlink="http://www.w3.org/1999/xlink">
<g id="graph1" class="graph" transform="scale(1 1) rotate(0) translate(4 112)">
<title>Sankore&#45;3.1/src/pdf&#45;merger/DCTDecode.h</title>
<polygon fill="white" stroke="white" points="-4,5 -4,-112 251,-112 251,5 -4,5"/>
<!-- Node1 -->
<g id="node1" class="node"><title>Node1</title>
<polygon fill="#bfbfbf" stroke="black" points="71,-73 71,-107 187,-107 187,-73 71,-73"/>
<text text-anchor="start" x="79" y="-94" font-family="Helvetica,sans-Serif" font-size="10.00">Sankore&#45;3.1/src/pdf</text>
<text text-anchor="middle" x="129" y="-81" font-family="Helvetica,sans-Serif" font-size="10.00">&#45;merger/DCTDecode.h</text>
</g>
<!-- Node2 -->
<g id="node3" class="node"><title>Node2</title>
<a xlink:href="../../df/d86/_d_c_t_decode_8cpp.html" target="_top" xlink:title="Sankore&#45;3.1/src/pdf\l&#45;merger/DCTDecode.cpp">
<polygon fill="white" stroke="black" points="0,-1 0,-35 126,-35 126,-1 0,-1"/>
<text text-anchor="start" x="8" y="-22" font-family="Helvetica,sans-Serif" font-size="10.00">Sankore&#45;3.1/src/pdf</text>
<text text-anchor="middle" x="63" y="-9" font-family="Helvetica,sans-Serif" font-size="10.00">&#45;merger/DCTDecode.cpp</text>
</a>
</g>
<!-- Node1&#45;&gt;Node2 -->
<g id="edge2" class="edge"><title>Node1&#45;&gt;Node2</title>
<path fill="none" stroke="midnightblue" d="M106.43,-65.3785C97.407,-55.5349 87.224,-44.4262 78.9873,-35.4407"/>
<polygon fill="midnightblue" stroke="midnightblue" points="104.022,-67.9305 113.359,-72.937 109.182,-63.2004 104.022,-67.9305"/>
</g>
<!-- Node3 -->
<g id="node5" class="node"><title>Node3</title>
<a xlink:href="../../d0/dc1/_filter_8cpp.html" target="_top" xlink:title="Sankore&#45;3.1/src/pdf\l&#45;merger/Filter.cpp">
<polygon fill="white" stroke="black" points="144,-1 144,-35 246,-35 246,-1 144,-1"/>
<text text-anchor="start" x="152" y="-22" font-family="Helvetica,sans-Serif" font-size="10.00">Sankore&#45;3.1/src/pdf</text>
<text text-anchor="middle" x="195" y="-9" font-family="Helvetica,sans-Serif" font-size="10.00">&#45;merger/Filter.cpp</text>
</a>
</g>
<!-- Node1&#45;&gt;Node3 -->
<g id="edge4" class="edge"><title>Node1&#45;&gt;Node3</title>
<path fill="none" stroke="midnightblue" d="M151.57,-65.3785C160.593,-55.5349 170.776,-44.4262 179.013,-35.4407"/>
<polygon fill="midnightblue" stroke="midnightblue" points="148.818,-63.2004 144.641,-72.937 153.978,-67.9305 148.818,-63.2004"/>
</g>
</g>
</svg>
